%TF.GenerationSoftware,KiCad,Pcbnew,8.0.8*%
%TF.CreationDate,2025-04-18T09:41:54-04:00*%
%TF.ProjectId,PatchAntennaBreakout,50617463-6841-46e7-9465-6e6e61427265,rev?*%
%TF.SameCoordinates,Original*%
%TF.FileFunction,Drillmap*%
%TF.FilePolarity,Positive*%
%FSLAX45Y45*%
G04 Gerber Fmt 4.5, Leading zero omitted, Abs format (unit mm)*
G04 Created by KiCad (PCBNEW 8.0.8) date 2025-04-18 09:41:54*
%MOMM*%
%LPD*%
G01*
G04 APERTURE LIST*
%ADD10C,0.050000*%
%ADD11C,0.200000*%
%ADD12C,0.270000*%
G04 APERTURE END LIST*
D10*
X12200000Y-6790000D02*
X15200000Y-6790000D01*
X15200000Y-10410000D02*
X12200000Y-10410000D01*
X11890000Y-7100000D02*
G75*
G02*
X12200000Y-6790000I310000J0D01*
G01*
X15510000Y-10100000D02*
G75*
G02*
X15200000Y-10410000I-310000J0D01*
G01*
X15510000Y-7100000D02*
X15510000Y-10100000D01*
X12200000Y-10410000D02*
G75*
G02*
X11890000Y-10100000I0J310000D01*
G01*
X15200000Y-6790000D02*
G75*
G02*
X15510000Y-7100000I0J-310000D01*
G01*
X11890000Y-10100000D02*
X11890000Y-7100000D01*
D11*
D12*
X12065000Y-6965000D02*
X12335000Y-7235000D01*
X12335000Y-6965000D02*
X12065000Y-7235000D01*
X12065000Y-9965000D02*
X12335000Y-10235000D01*
X12335000Y-9965000D02*
X12065000Y-10235000D01*
X15065000Y-6965000D02*
X15335000Y-7235000D01*
X15335000Y-6965000D02*
X15065000Y-7235000D01*
X15065000Y-9965000D02*
X15335000Y-10235000D01*
X15335000Y-9965000D02*
X15065000Y-10235000D01*
D11*
X12148277Y-10723984D02*
X12148277Y-10523984D01*
X12148277Y-10523984D02*
X12195896Y-10523984D01*
X12195896Y-10523984D02*
X12224467Y-10533508D01*
X12224467Y-10533508D02*
X12243515Y-10552555D01*
X12243515Y-10552555D02*
X12253039Y-10571603D01*
X12253039Y-10571603D02*
X12262562Y-10609698D01*
X12262562Y-10609698D02*
X12262562Y-10638270D01*
X12262562Y-10638270D02*
X12253039Y-10676365D01*
X12253039Y-10676365D02*
X12243515Y-10695412D01*
X12243515Y-10695412D02*
X12224467Y-10714460D01*
X12224467Y-10714460D02*
X12195896Y-10723984D01*
X12195896Y-10723984D02*
X12148277Y-10723984D01*
X12348277Y-10723984D02*
X12348277Y-10590650D01*
X12348277Y-10628746D02*
X12357801Y-10609698D01*
X12357801Y-10609698D02*
X12367324Y-10600174D01*
X12367324Y-10600174D02*
X12386372Y-10590650D01*
X12386372Y-10590650D02*
X12405420Y-10590650D01*
X12472086Y-10723984D02*
X12472086Y-10590650D01*
X12472086Y-10523984D02*
X12462562Y-10533508D01*
X12462562Y-10533508D02*
X12472086Y-10543031D01*
X12472086Y-10543031D02*
X12481610Y-10533508D01*
X12481610Y-10533508D02*
X12472086Y-10523984D01*
X12472086Y-10523984D02*
X12472086Y-10543031D01*
X12595896Y-10723984D02*
X12576848Y-10714460D01*
X12576848Y-10714460D02*
X12567324Y-10695412D01*
X12567324Y-10695412D02*
X12567324Y-10523984D01*
X12700658Y-10723984D02*
X12681610Y-10714460D01*
X12681610Y-10714460D02*
X12672086Y-10695412D01*
X12672086Y-10695412D02*
X12672086Y-10523984D01*
X12929229Y-10723984D02*
X12929229Y-10523984D01*
X12929229Y-10523984D02*
X12995896Y-10666841D01*
X12995896Y-10666841D02*
X13062562Y-10523984D01*
X13062562Y-10523984D02*
X13062562Y-10723984D01*
X13243515Y-10723984D02*
X13243515Y-10619222D01*
X13243515Y-10619222D02*
X13233991Y-10600174D01*
X13233991Y-10600174D02*
X13214943Y-10590650D01*
X13214943Y-10590650D02*
X13176848Y-10590650D01*
X13176848Y-10590650D02*
X13157801Y-10600174D01*
X13243515Y-10714460D02*
X13224467Y-10723984D01*
X13224467Y-10723984D02*
X13176848Y-10723984D01*
X13176848Y-10723984D02*
X13157801Y-10714460D01*
X13157801Y-10714460D02*
X13148277Y-10695412D01*
X13148277Y-10695412D02*
X13148277Y-10676365D01*
X13148277Y-10676365D02*
X13157801Y-10657317D01*
X13157801Y-10657317D02*
X13176848Y-10647793D01*
X13176848Y-10647793D02*
X13224467Y-10647793D01*
X13224467Y-10647793D02*
X13243515Y-10638270D01*
X13338753Y-10590650D02*
X13338753Y-10790650D01*
X13338753Y-10600174D02*
X13357801Y-10590650D01*
X13357801Y-10590650D02*
X13395896Y-10590650D01*
X13395896Y-10590650D02*
X13414943Y-10600174D01*
X13414943Y-10600174D02*
X13424467Y-10609698D01*
X13424467Y-10609698D02*
X13433991Y-10628746D01*
X13433991Y-10628746D02*
X13433991Y-10685889D01*
X13433991Y-10685889D02*
X13424467Y-10704936D01*
X13424467Y-10704936D02*
X13414943Y-10714460D01*
X13414943Y-10714460D02*
X13395896Y-10723984D01*
X13395896Y-10723984D02*
X13357801Y-10723984D01*
X13357801Y-10723984D02*
X13338753Y-10714460D01*
X13519705Y-10704936D02*
X13529229Y-10714460D01*
X13529229Y-10714460D02*
X13519705Y-10723984D01*
X13519705Y-10723984D02*
X13510182Y-10714460D01*
X13510182Y-10714460D02*
X13519705Y-10704936D01*
X13519705Y-10704936D02*
X13519705Y-10723984D01*
X13519705Y-10600174D02*
X13529229Y-10609698D01*
X13529229Y-10609698D02*
X13519705Y-10619222D01*
X13519705Y-10619222D02*
X13510182Y-10609698D01*
X13510182Y-10609698D02*
X13519705Y-10600174D01*
X13519705Y-10600174D02*
X13519705Y-10619222D01*
X11687500Y-10952500D02*
X11887500Y-11152500D01*
X11887500Y-10952500D02*
X11687500Y-11152500D01*
X12138753Y-10963031D02*
X12148277Y-10953508D01*
X12148277Y-10953508D02*
X12167324Y-10943984D01*
X12167324Y-10943984D02*
X12214943Y-10943984D01*
X12214943Y-10943984D02*
X12233991Y-10953508D01*
X12233991Y-10953508D02*
X12243515Y-10963031D01*
X12243515Y-10963031D02*
X12253039Y-10982079D01*
X12253039Y-10982079D02*
X12253039Y-11001127D01*
X12253039Y-11001127D02*
X12243515Y-11029698D01*
X12243515Y-11029698D02*
X12129229Y-11143984D01*
X12129229Y-11143984D02*
X12253039Y-11143984D01*
X12338753Y-11124936D02*
X12348277Y-11134460D01*
X12348277Y-11134460D02*
X12338753Y-11143984D01*
X12338753Y-11143984D02*
X12329229Y-11134460D01*
X12329229Y-11134460D02*
X12338753Y-11124936D01*
X12338753Y-11124936D02*
X12338753Y-11143984D01*
X12414943Y-10943984D02*
X12548277Y-10943984D01*
X12548277Y-10943984D02*
X12462562Y-11143984D01*
X12662562Y-10943984D02*
X12681610Y-10943984D01*
X12681610Y-10943984D02*
X12700658Y-10953508D01*
X12700658Y-10953508D02*
X12710182Y-10963031D01*
X12710182Y-10963031D02*
X12719705Y-10982079D01*
X12719705Y-10982079D02*
X12729229Y-11020174D01*
X12729229Y-11020174D02*
X12729229Y-11067793D01*
X12729229Y-11067793D02*
X12719705Y-11105889D01*
X12719705Y-11105889D02*
X12710182Y-11124936D01*
X12710182Y-11124936D02*
X12700658Y-11134460D01*
X12700658Y-11134460D02*
X12681610Y-11143984D01*
X12681610Y-11143984D02*
X12662562Y-11143984D01*
X12662562Y-11143984D02*
X12643515Y-11134460D01*
X12643515Y-11134460D02*
X12633991Y-11124936D01*
X12633991Y-11124936D02*
X12624467Y-11105889D01*
X12624467Y-11105889D02*
X12614943Y-11067793D01*
X12614943Y-11067793D02*
X12614943Y-11020174D01*
X12614943Y-11020174D02*
X12624467Y-10982079D01*
X12624467Y-10982079D02*
X12633991Y-10963031D01*
X12633991Y-10963031D02*
X12643515Y-10953508D01*
X12643515Y-10953508D02*
X12662562Y-10943984D01*
X12853039Y-10943984D02*
X12872086Y-10943984D01*
X12872086Y-10943984D02*
X12891134Y-10953508D01*
X12891134Y-10953508D02*
X12900658Y-10963031D01*
X12900658Y-10963031D02*
X12910182Y-10982079D01*
X12910182Y-10982079D02*
X12919705Y-11020174D01*
X12919705Y-11020174D02*
X12919705Y-11067793D01*
X12919705Y-11067793D02*
X12910182Y-11105889D01*
X12910182Y-11105889D02*
X12900658Y-11124936D01*
X12900658Y-11124936D02*
X12891134Y-11134460D01*
X12891134Y-11134460D02*
X12872086Y-11143984D01*
X12872086Y-11143984D02*
X12853039Y-11143984D01*
X12853039Y-11143984D02*
X12833991Y-11134460D01*
X12833991Y-11134460D02*
X12824467Y-11124936D01*
X12824467Y-11124936D02*
X12814943Y-11105889D01*
X12814943Y-11105889D02*
X12805420Y-11067793D01*
X12805420Y-11067793D02*
X12805420Y-11020174D01*
X12805420Y-11020174D02*
X12814943Y-10982079D01*
X12814943Y-10982079D02*
X12824467Y-10963031D01*
X12824467Y-10963031D02*
X12833991Y-10953508D01*
X12833991Y-10953508D02*
X12853039Y-10943984D01*
X13005420Y-11143984D02*
X13005420Y-11010650D01*
X13005420Y-11029698D02*
X13014943Y-11020174D01*
X13014943Y-11020174D02*
X13033991Y-11010650D01*
X13033991Y-11010650D02*
X13062563Y-11010650D01*
X13062563Y-11010650D02*
X13081610Y-11020174D01*
X13081610Y-11020174D02*
X13091134Y-11039222D01*
X13091134Y-11039222D02*
X13091134Y-11143984D01*
X13091134Y-11039222D02*
X13100658Y-11020174D01*
X13100658Y-11020174D02*
X13119705Y-11010650D01*
X13119705Y-11010650D02*
X13148277Y-11010650D01*
X13148277Y-11010650D02*
X13167324Y-11020174D01*
X13167324Y-11020174D02*
X13176848Y-11039222D01*
X13176848Y-11039222D02*
X13176848Y-11143984D01*
X13272086Y-11143984D02*
X13272086Y-11010650D01*
X13272086Y-11029698D02*
X13281610Y-11020174D01*
X13281610Y-11020174D02*
X13300658Y-11010650D01*
X13300658Y-11010650D02*
X13329229Y-11010650D01*
X13329229Y-11010650D02*
X13348277Y-11020174D01*
X13348277Y-11020174D02*
X13357801Y-11039222D01*
X13357801Y-11039222D02*
X13357801Y-11143984D01*
X13357801Y-11039222D02*
X13367324Y-11020174D01*
X13367324Y-11020174D02*
X13386372Y-11010650D01*
X13386372Y-11010650D02*
X13414943Y-11010650D01*
X13414943Y-11010650D02*
X13433991Y-11020174D01*
X13433991Y-11020174D02*
X13443515Y-11039222D01*
X13443515Y-11039222D02*
X13443515Y-11143984D01*
X13833991Y-10934460D02*
X13662563Y-11191603D01*
X14091134Y-10943984D02*
X14110182Y-10943984D01*
X14110182Y-10943984D02*
X14129229Y-10953508D01*
X14129229Y-10953508D02*
X14138753Y-10963031D01*
X14138753Y-10963031D02*
X14148277Y-10982079D01*
X14148277Y-10982079D02*
X14157801Y-11020174D01*
X14157801Y-11020174D02*
X14157801Y-11067793D01*
X14157801Y-11067793D02*
X14148277Y-11105889D01*
X14148277Y-11105889D02*
X14138753Y-11124936D01*
X14138753Y-11124936D02*
X14129229Y-11134460D01*
X14129229Y-11134460D02*
X14110182Y-11143984D01*
X14110182Y-11143984D02*
X14091134Y-11143984D01*
X14091134Y-11143984D02*
X14072086Y-11134460D01*
X14072086Y-11134460D02*
X14062563Y-11124936D01*
X14062563Y-11124936D02*
X14053039Y-11105889D01*
X14053039Y-11105889D02*
X14043515Y-11067793D01*
X14043515Y-11067793D02*
X14043515Y-11020174D01*
X14043515Y-11020174D02*
X14053039Y-10982079D01*
X14053039Y-10982079D02*
X14062563Y-10963031D01*
X14062563Y-10963031D02*
X14072086Y-10953508D01*
X14072086Y-10953508D02*
X14091134Y-10943984D01*
X14243515Y-11124936D02*
X14253039Y-11134460D01*
X14253039Y-11134460D02*
X14243515Y-11143984D01*
X14243515Y-11143984D02*
X14233991Y-11134460D01*
X14233991Y-11134460D02*
X14243515Y-11124936D01*
X14243515Y-11124936D02*
X14243515Y-11143984D01*
X14443515Y-11143984D02*
X14329229Y-11143984D01*
X14386372Y-11143984D02*
X14386372Y-10943984D01*
X14386372Y-10943984D02*
X14367325Y-10972555D01*
X14367325Y-10972555D02*
X14348277Y-10991603D01*
X14348277Y-10991603D02*
X14329229Y-11001127D01*
X14567325Y-10943984D02*
X14586372Y-10943984D01*
X14586372Y-10943984D02*
X14605420Y-10953508D01*
X14605420Y-10953508D02*
X14614944Y-10963031D01*
X14614944Y-10963031D02*
X14624467Y-10982079D01*
X14624467Y-10982079D02*
X14633991Y-11020174D01*
X14633991Y-11020174D02*
X14633991Y-11067793D01*
X14633991Y-11067793D02*
X14624467Y-11105889D01*
X14624467Y-11105889D02*
X14614944Y-11124936D01*
X14614944Y-11124936D02*
X14605420Y-11134460D01*
X14605420Y-11134460D02*
X14586372Y-11143984D01*
X14586372Y-11143984D02*
X14567325Y-11143984D01*
X14567325Y-11143984D02*
X14548277Y-11134460D01*
X14548277Y-11134460D02*
X14538753Y-11124936D01*
X14538753Y-11124936D02*
X14529229Y-11105889D01*
X14529229Y-11105889D02*
X14519706Y-11067793D01*
X14519706Y-11067793D02*
X14519706Y-11020174D01*
X14519706Y-11020174D02*
X14529229Y-10982079D01*
X14529229Y-10982079D02*
X14538753Y-10963031D01*
X14538753Y-10963031D02*
X14548277Y-10953508D01*
X14548277Y-10953508D02*
X14567325Y-10943984D01*
X14805420Y-10943984D02*
X14767325Y-10943984D01*
X14767325Y-10943984D02*
X14748277Y-10953508D01*
X14748277Y-10953508D02*
X14738753Y-10963031D01*
X14738753Y-10963031D02*
X14719706Y-10991603D01*
X14719706Y-10991603D02*
X14710182Y-11029698D01*
X14710182Y-11029698D02*
X14710182Y-11105889D01*
X14710182Y-11105889D02*
X14719706Y-11124936D01*
X14719706Y-11124936D02*
X14729229Y-11134460D01*
X14729229Y-11134460D02*
X14748277Y-11143984D01*
X14748277Y-11143984D02*
X14786372Y-11143984D01*
X14786372Y-11143984D02*
X14805420Y-11134460D01*
X14805420Y-11134460D02*
X14814944Y-11124936D01*
X14814944Y-11124936D02*
X14824467Y-11105889D01*
X14824467Y-11105889D02*
X14824467Y-11058270D01*
X14824467Y-11058270D02*
X14814944Y-11039222D01*
X14814944Y-11039222D02*
X14805420Y-11029698D01*
X14805420Y-11029698D02*
X14786372Y-11020174D01*
X14786372Y-11020174D02*
X14748277Y-11020174D01*
X14748277Y-11020174D02*
X14729229Y-11029698D01*
X14729229Y-11029698D02*
X14719706Y-11039222D01*
X14719706Y-11039222D02*
X14710182Y-11058270D01*
X14891134Y-10943984D02*
X15014944Y-10943984D01*
X15014944Y-10943984D02*
X14948277Y-11020174D01*
X14948277Y-11020174D02*
X14976848Y-11020174D01*
X14976848Y-11020174D02*
X14995896Y-11029698D01*
X14995896Y-11029698D02*
X15005420Y-11039222D01*
X15005420Y-11039222D02*
X15014944Y-11058270D01*
X15014944Y-11058270D02*
X15014944Y-11105889D01*
X15014944Y-11105889D02*
X15005420Y-11124936D01*
X15005420Y-11124936D02*
X14995896Y-11134460D01*
X14995896Y-11134460D02*
X14976848Y-11143984D01*
X14976848Y-11143984D02*
X14919706Y-11143984D01*
X14919706Y-11143984D02*
X14900658Y-11134460D01*
X14900658Y-11134460D02*
X14891134Y-11124936D01*
X15091134Y-10943984D02*
X15091134Y-10982079D01*
X15167325Y-10943984D02*
X15167325Y-10982079D01*
X15462563Y-11220174D02*
X15453039Y-11210650D01*
X15453039Y-11210650D02*
X15433991Y-11182079D01*
X15433991Y-11182079D02*
X15424468Y-11163031D01*
X15424468Y-11163031D02*
X15414944Y-11134460D01*
X15414944Y-11134460D02*
X15405420Y-11086841D01*
X15405420Y-11086841D02*
X15405420Y-11048746D01*
X15405420Y-11048746D02*
X15414944Y-11001127D01*
X15414944Y-11001127D02*
X15424468Y-10972555D01*
X15424468Y-10972555D02*
X15433991Y-10953508D01*
X15433991Y-10953508D02*
X15453039Y-10924936D01*
X15453039Y-10924936D02*
X15462563Y-10915412D01*
X15624468Y-11010650D02*
X15624468Y-11143984D01*
X15576848Y-10934460D02*
X15529229Y-11077317D01*
X15529229Y-11077317D02*
X15653039Y-11077317D01*
X15881610Y-11143984D02*
X15881610Y-10943984D01*
X15967325Y-11143984D02*
X15967325Y-11039222D01*
X15967325Y-11039222D02*
X15957801Y-11020174D01*
X15957801Y-11020174D02*
X15938753Y-11010650D01*
X15938753Y-11010650D02*
X15910182Y-11010650D01*
X15910182Y-11010650D02*
X15891134Y-11020174D01*
X15891134Y-11020174D02*
X15881610Y-11029698D01*
X16091134Y-11143984D02*
X16072087Y-11134460D01*
X16072087Y-11134460D02*
X16062563Y-11124936D01*
X16062563Y-11124936D02*
X16053039Y-11105889D01*
X16053039Y-11105889D02*
X16053039Y-11048746D01*
X16053039Y-11048746D02*
X16062563Y-11029698D01*
X16062563Y-11029698D02*
X16072087Y-11020174D01*
X16072087Y-11020174D02*
X16091134Y-11010650D01*
X16091134Y-11010650D02*
X16119706Y-11010650D01*
X16119706Y-11010650D02*
X16138753Y-11020174D01*
X16138753Y-11020174D02*
X16148277Y-11029698D01*
X16148277Y-11029698D02*
X16157801Y-11048746D01*
X16157801Y-11048746D02*
X16157801Y-11105889D01*
X16157801Y-11105889D02*
X16148277Y-11124936D01*
X16148277Y-11124936D02*
X16138753Y-11134460D01*
X16138753Y-11134460D02*
X16119706Y-11143984D01*
X16119706Y-11143984D02*
X16091134Y-11143984D01*
X16272087Y-11143984D02*
X16253039Y-11134460D01*
X16253039Y-11134460D02*
X16243515Y-11115412D01*
X16243515Y-11115412D02*
X16243515Y-10943984D01*
X16424468Y-11134460D02*
X16405420Y-11143984D01*
X16405420Y-11143984D02*
X16367325Y-11143984D01*
X16367325Y-11143984D02*
X16348277Y-11134460D01*
X16348277Y-11134460D02*
X16338753Y-11115412D01*
X16338753Y-11115412D02*
X16338753Y-11039222D01*
X16338753Y-11039222D02*
X16348277Y-11020174D01*
X16348277Y-11020174D02*
X16367325Y-11010650D01*
X16367325Y-11010650D02*
X16405420Y-11010650D01*
X16405420Y-11010650D02*
X16424468Y-11020174D01*
X16424468Y-11020174D02*
X16433991Y-11039222D01*
X16433991Y-11039222D02*
X16433991Y-11058270D01*
X16433991Y-11058270D02*
X16338753Y-11077317D01*
X16510182Y-11134460D02*
X16529230Y-11143984D01*
X16529230Y-11143984D02*
X16567325Y-11143984D01*
X16567325Y-11143984D02*
X16586372Y-11134460D01*
X16586372Y-11134460D02*
X16595896Y-11115412D01*
X16595896Y-11115412D02*
X16595896Y-11105889D01*
X16595896Y-11105889D02*
X16586372Y-11086841D01*
X16586372Y-11086841D02*
X16567325Y-11077317D01*
X16567325Y-11077317D02*
X16538753Y-11077317D01*
X16538753Y-11077317D02*
X16519706Y-11067793D01*
X16519706Y-11067793D02*
X16510182Y-11048746D01*
X16510182Y-11048746D02*
X16510182Y-11039222D01*
X16510182Y-11039222D02*
X16519706Y-11020174D01*
X16519706Y-11020174D02*
X16538753Y-11010650D01*
X16538753Y-11010650D02*
X16567325Y-11010650D01*
X16567325Y-11010650D02*
X16586372Y-11020174D01*
X16662563Y-11220174D02*
X16672087Y-11210650D01*
X16672087Y-11210650D02*
X16691134Y-11182079D01*
X16691134Y-11182079D02*
X16700658Y-11163031D01*
X16700658Y-11163031D02*
X16710182Y-11134460D01*
X16710182Y-11134460D02*
X16719706Y-11086841D01*
X16719706Y-11086841D02*
X16719706Y-11048746D01*
X16719706Y-11048746D02*
X16710182Y-11001127D01*
X16710182Y-11001127D02*
X16700658Y-10972555D01*
X16700658Y-10972555D02*
X16691134Y-10953508D01*
X16691134Y-10953508D02*
X16672087Y-10924936D01*
X16672087Y-10924936D02*
X16662563Y-10915412D01*
X17024468Y-11220174D02*
X17014944Y-11210650D01*
X17014944Y-11210650D02*
X16995896Y-11182079D01*
X16995896Y-11182079D02*
X16986373Y-11163031D01*
X16986373Y-11163031D02*
X16976849Y-11134460D01*
X16976849Y-11134460D02*
X16967325Y-11086841D01*
X16967325Y-11086841D02*
X16967325Y-11048746D01*
X16967325Y-11048746D02*
X16976849Y-11001127D01*
X16976849Y-11001127D02*
X16986373Y-10972555D01*
X16986373Y-10972555D02*
X16995896Y-10953508D01*
X16995896Y-10953508D02*
X17014944Y-10924936D01*
X17014944Y-10924936D02*
X17024468Y-10915412D01*
X17100658Y-11010650D02*
X17100658Y-11143984D01*
X17100658Y-11029698D02*
X17110182Y-11020174D01*
X17110182Y-11020174D02*
X17129230Y-11010650D01*
X17129230Y-11010650D02*
X17157801Y-11010650D01*
X17157801Y-11010650D02*
X17176849Y-11020174D01*
X17176849Y-11020174D02*
X17186373Y-11039222D01*
X17186373Y-11039222D02*
X17186373Y-11143984D01*
X17310182Y-11143984D02*
X17291134Y-11134460D01*
X17291134Y-11134460D02*
X17281611Y-11124936D01*
X17281611Y-11124936D02*
X17272087Y-11105889D01*
X17272087Y-11105889D02*
X17272087Y-11048746D01*
X17272087Y-11048746D02*
X17281611Y-11029698D01*
X17281611Y-11029698D02*
X17291134Y-11020174D01*
X17291134Y-11020174D02*
X17310182Y-11010650D01*
X17310182Y-11010650D02*
X17338754Y-11010650D01*
X17338754Y-11010650D02*
X17357801Y-11020174D01*
X17357801Y-11020174D02*
X17367325Y-11029698D01*
X17367325Y-11029698D02*
X17376849Y-11048746D01*
X17376849Y-11048746D02*
X17376849Y-11105889D01*
X17376849Y-11105889D02*
X17367325Y-11124936D01*
X17367325Y-11124936D02*
X17357801Y-11134460D01*
X17357801Y-11134460D02*
X17338754Y-11143984D01*
X17338754Y-11143984D02*
X17310182Y-11143984D01*
X17433992Y-11010650D02*
X17510182Y-11010650D01*
X17462563Y-10943984D02*
X17462563Y-11115412D01*
X17462563Y-11115412D02*
X17472087Y-11134460D01*
X17472087Y-11134460D02*
X17491134Y-11143984D01*
X17491134Y-11143984D02*
X17510182Y-11143984D01*
X17729230Y-11010650D02*
X17729230Y-11210650D01*
X17729230Y-11020174D02*
X17748277Y-11010650D01*
X17748277Y-11010650D02*
X17786373Y-11010650D01*
X17786373Y-11010650D02*
X17805420Y-11020174D01*
X17805420Y-11020174D02*
X17814944Y-11029698D01*
X17814944Y-11029698D02*
X17824468Y-11048746D01*
X17824468Y-11048746D02*
X17824468Y-11105889D01*
X17824468Y-11105889D02*
X17814944Y-11124936D01*
X17814944Y-11124936D02*
X17805420Y-11134460D01*
X17805420Y-11134460D02*
X17786373Y-11143984D01*
X17786373Y-11143984D02*
X17748277Y-11143984D01*
X17748277Y-11143984D02*
X17729230Y-11134460D01*
X17938754Y-11143984D02*
X17919706Y-11134460D01*
X17919706Y-11134460D02*
X17910182Y-11115412D01*
X17910182Y-11115412D02*
X17910182Y-10943984D01*
X18100658Y-11143984D02*
X18100658Y-11039222D01*
X18100658Y-11039222D02*
X18091135Y-11020174D01*
X18091135Y-11020174D02*
X18072087Y-11010650D01*
X18072087Y-11010650D02*
X18033992Y-11010650D01*
X18033992Y-11010650D02*
X18014944Y-11020174D01*
X18100658Y-11134460D02*
X18081611Y-11143984D01*
X18081611Y-11143984D02*
X18033992Y-11143984D01*
X18033992Y-11143984D02*
X18014944Y-11134460D01*
X18014944Y-11134460D02*
X18005420Y-11115412D01*
X18005420Y-11115412D02*
X18005420Y-11096365D01*
X18005420Y-11096365D02*
X18014944Y-11077317D01*
X18014944Y-11077317D02*
X18033992Y-11067793D01*
X18033992Y-11067793D02*
X18081611Y-11067793D01*
X18081611Y-11067793D02*
X18100658Y-11058270D01*
X18167325Y-11010650D02*
X18243515Y-11010650D01*
X18195896Y-10943984D02*
X18195896Y-11115412D01*
X18195896Y-11115412D02*
X18205420Y-11134460D01*
X18205420Y-11134460D02*
X18224468Y-11143984D01*
X18224468Y-11143984D02*
X18243515Y-11143984D01*
X18386373Y-11134460D02*
X18367325Y-11143984D01*
X18367325Y-11143984D02*
X18329230Y-11143984D01*
X18329230Y-11143984D02*
X18310182Y-11134460D01*
X18310182Y-11134460D02*
X18300658Y-11115412D01*
X18300658Y-11115412D02*
X18300658Y-11039222D01*
X18300658Y-11039222D02*
X18310182Y-11020174D01*
X18310182Y-11020174D02*
X18329230Y-11010650D01*
X18329230Y-11010650D02*
X18367325Y-11010650D01*
X18367325Y-11010650D02*
X18386373Y-11020174D01*
X18386373Y-11020174D02*
X18395896Y-11039222D01*
X18395896Y-11039222D02*
X18395896Y-11058270D01*
X18395896Y-11058270D02*
X18300658Y-11077317D01*
X18567325Y-11143984D02*
X18567325Y-10943984D01*
X18567325Y-11134460D02*
X18548277Y-11143984D01*
X18548277Y-11143984D02*
X18510182Y-11143984D01*
X18510182Y-11143984D02*
X18491135Y-11134460D01*
X18491135Y-11134460D02*
X18481611Y-11124936D01*
X18481611Y-11124936D02*
X18472087Y-11105889D01*
X18472087Y-11105889D02*
X18472087Y-11048746D01*
X18472087Y-11048746D02*
X18481611Y-11029698D01*
X18481611Y-11029698D02*
X18491135Y-11020174D01*
X18491135Y-11020174D02*
X18510182Y-11010650D01*
X18510182Y-11010650D02*
X18548277Y-11010650D01*
X18548277Y-11010650D02*
X18567325Y-11020174D01*
X18643516Y-11220174D02*
X18653039Y-11210650D01*
X18653039Y-11210650D02*
X18672087Y-11182079D01*
X18672087Y-11182079D02*
X18681611Y-11163031D01*
X18681611Y-11163031D02*
X18691135Y-11134460D01*
X18691135Y-11134460D02*
X18700658Y-11086841D01*
X18700658Y-11086841D02*
X18700658Y-11048746D01*
X18700658Y-11048746D02*
X18691135Y-11001127D01*
X18691135Y-11001127D02*
X18681611Y-10972555D01*
X18681611Y-10972555D02*
X18672087Y-10953508D01*
X18672087Y-10953508D02*
X18653039Y-10924936D01*
X18653039Y-10924936D02*
X18643516Y-10915412D01*
M02*
