M48
; DRILL file {KiCad 7.0.7} date Tue Dec  5 11:38:12 2023
; FORMAT={-:-/ absolute / inch / decimal}
; #@! TF.CreationDate,2023-12-05T11:38:12-05:00
; #@! TF.GenerationSoftware,Kicad,Pcbnew,7.0.7
; #@! TF.FileFunction,Plated,1,2,PTH
FMAT,2
INCH
; #@! TA.AperFunction,Plated,PTH,ViaDrill
T1C0.0157
; #@! TA.AperFunction,Plated,PTH,ComponentDrill
T2C0.0315
; #@! TA.AperFunction,Plated,PTH,ComponentDrill
T3C0.0394
; #@! TA.AperFunction,Plated,PTH,ComponentDrill
T4C0.0402
; #@! TA.AperFunction,Plated,PTH,ComponentDrill
T5C0.0512
%
G90
G05
T1
X4.4961Y-3.3567
T2
X5.8366Y-4.4102
X5.8366Y-4.8102
X6.0906Y-4.4102
X6.0906Y-4.8102
T3
X4.6043Y-4.1488
X4.6043Y-4.2488
X4.6043Y-4.3488
X4.6043Y-4.4488
X4.6673Y-3.0854
X4.6673Y-3.1854
X4.6673Y-3.2854
X4.6673Y-3.3854
X5.9862Y-3.1646
X5.9862Y-3.2646
X5.9862Y-3.3646
X5.9862Y-3.4646
X6.3732Y-4.448
X6.4732Y-4.448
X6.4732Y-4.748
X6.5732Y-4.448
X6.5732Y-4.748
X6.6732Y-4.448
X6.6732Y-4.748
T4
X5.0299Y-2.5031
X5.0299Y-2.6031
X5.0299Y-2.7031
X5.0299Y-2.8031
X5.0299Y-2.9031
X5.0299Y-3.0031
X5.0299Y-3.1031
X5.0299Y-3.2031
X5.0299Y-3.3031
X5.0299Y-3.4031
X5.0299Y-3.5031
X5.0299Y-3.6031
X5.0299Y-3.7031
X5.0299Y-3.8031
X5.0299Y-3.9031
X5.0299Y-4.0031
X5.0299Y-4.1031
X5.0299Y-4.2031
X5.0299Y-4.3031
X5.0299Y-4.4031
X5.0299Y-4.5031
X5.0299Y-4.6031
X5.0299Y-4.7031
X5.0299Y-4.8031
X5.6299Y-2.5031
X5.6299Y-2.6031
X5.6299Y-2.7031
X5.6299Y-2.8031
X5.6299Y-2.9031
X5.6299Y-3.0031
X5.6299Y-3.1031
X5.6299Y-3.2031
X5.6299Y-3.3031
X5.6299Y-3.4031
X5.6299Y-3.5031
X5.6299Y-3.6031
X5.6299Y-3.7031
X5.6299Y-3.8031
X5.6299Y-3.9031
X5.6299Y-4.0031
X5.6299Y-4.1031
X5.6299Y-4.2031
X5.6299Y-4.3031
X5.6299Y-4.4031
X5.6299Y-4.5031
X5.6299Y-4.6031
X5.6299Y-4.7031
X5.6299Y-4.8031
T5
X6.9646Y-4.6281
X7.1024Y-4.6281
T0
M30
