%TF.GenerationSoftware,KiCad,Pcbnew,7.0.7*%
%TF.CreationDate,2024-05-20T18:32:26-04:00*%
%TF.ProjectId,LVPD-board_Payload,4c565044-2d62-46f6-9172-645f5061796c,rev?*%
%TF.SameCoordinates,Original*%
%TF.FileFunction,Copper,L2,Bot*%
%TF.FilePolarity,Positive*%
%FSLAX46Y46*%
G04 Gerber Fmt 4.6, Leading zero omitted, Abs format (unit mm)*
G04 Created by KiCad (PCBNEW 7.0.7) date 2024-05-20 18:32:26*
%MOMM*%
%LPD*%
G01*
G04 APERTURE LIST*
G04 Aperture macros list*
%AMRoundRect*
0 Rectangle with rounded corners*
0 $1 Rounding radius*
0 $2 $3 $4 $5 $6 $7 $8 $9 X,Y pos of 4 corners*
0 Add a 4 corners polygon primitive as box body*
4,1,4,$2,$3,$4,$5,$6,$7,$8,$9,$2,$3,0*
0 Add four circle primitives for the rounded corners*
1,1,$1+$1,$2,$3*
1,1,$1+$1,$4,$5*
1,1,$1+$1,$6,$7*
1,1,$1+$1,$8,$9*
0 Add four rect primitives between the rounded corners*
20,1,$1+$1,$2,$3,$4,$5,0*
20,1,$1+$1,$4,$5,$6,$7,0*
20,1,$1+$1,$6,$7,$8,$9,0*
20,1,$1+$1,$8,$9,$2,$3,0*%
G04 Aperture macros list end*
%TA.AperFunction,ComponentPad*%
%ADD10R,1.700000X1.700000*%
%TD*%
%TA.AperFunction,ComponentPad*%
%ADD11O,1.700000X1.700000*%
%TD*%
%TA.AperFunction,ComponentPad*%
%ADD12RoundRect,0.250000X0.600000X0.725000X-0.600000X0.725000X-0.600000X-0.725000X0.600000X-0.725000X0*%
%TD*%
%TA.AperFunction,ComponentPad*%
%ADD13O,1.700000X1.950000*%
%TD*%
%TA.AperFunction,ComponentPad*%
%ADD14R,2.000000X1.905000*%
%TD*%
%TA.AperFunction,ComponentPad*%
%ADD15O,2.000000X1.905000*%
%TD*%
%TA.AperFunction,ComponentPad*%
%ADD16C,2.000000*%
%TD*%
%TA.AperFunction,ComponentPad*%
%ADD17C,1.524000*%
%TD*%
%TA.AperFunction,ComponentPad*%
%ADD18RoundRect,0.250000X0.600000X0.750000X-0.600000X0.750000X-0.600000X-0.750000X0.600000X-0.750000X0*%
%TD*%
%TA.AperFunction,ComponentPad*%
%ADD19O,1.700000X2.000000*%
%TD*%
%TA.AperFunction,ViaPad*%
%ADD20C,0.800000*%
%TD*%
%TA.AperFunction,Conductor*%
%ADD21C,1.500000*%
%TD*%
%TA.AperFunction,Conductor*%
%ADD22C,0.250000*%
%TD*%
G04 APERTURE END LIST*
D10*
%TO.P,J5,1,Pin_1*%
%TO.N,/LVL*%
X105200000Y-136980000D03*
D11*
%TO.P,J5,2,Pin_2*%
%TO.N,/NEPT*%
X105200000Y-139520000D03*
%TO.P,J5,3,Pin_3*%
%TO.N,/FULL*%
X105200000Y-142060000D03*
%TO.P,J5,4,Pin_4*%
%TO.N,unconnected-(J5-Pin_4-Pad4)*%
X105200000Y-144600000D03*
%TO.P,J5,5,Pin_5*%
%TO.N,unconnected-(J5-Pin_5-Pad5)*%
X105200000Y-147140000D03*
%TD*%
D12*
%TO.P,J2,1,Pin_1*%
%TO.N,/VSIG*%
X125000000Y-83000000D03*
D13*
%TO.P,J2,2,Pin_2*%
%TO.N,/EN*%
X122500000Y-83000000D03*
%TO.P,J2,3,Pin_3*%
%TO.N,GND*%
X120000000Y-83000000D03*
%TD*%
D14*
%TO.P,D1,1,K*%
%TO.N,/VBAT*%
X103000000Y-93920000D03*
D15*
%TO.P,D1,2,A*%
%TO.N,/VIN*%
X103000000Y-96460000D03*
%TO.P,D1,3,G*%
%TO.N,/EN*%
X103000000Y-99000000D03*
%TD*%
D16*
%TO.P,Teensy4.1,0,GND*%
%TO.N,GND*%
X79760000Y-73880000D03*
%TO.P,Teensy4.1,1,RX1*%
%TO.N,Net-(J3-Pin_3)*%
X79760000Y-76420000D03*
%TO.P,Teensy4.1,2,TX1*%
%TO.N,unconnected-(Teensy4.1-TX1-Pad2)*%
X79760000Y-78960000D03*
%TO.P,Teensy4.1,3,PWM*%
%TO.N,unconnected-(Teensy4.1-PWM-Pad3)*%
X79760000Y-81500000D03*
%TO.P,Teensy4.1,4,PWM*%
%TO.N,unconnected-(Teensy4.1-PWM-Pad4)*%
X79760000Y-84040000D03*
%TO.P,Teensy4.1,5,PWM*%
%TO.N,unconnected-(Teensy4.1-PWM-Pad5)*%
X79760000Y-86580000D03*
%TO.P,Teensy4.1,6,PWM*%
%TO.N,unconnected-(Teensy4.1-PWM-Pad6)*%
X79760000Y-89120000D03*
%TO.P,Teensy4.1,7,PWM*%
%TO.N,unconnected-(Teensy4.1-PWM-Pad7)*%
X79760000Y-91660000D03*
%TO.P,Teensy4.1,8,RX2*%
%TO.N,unconnected-(Teensy4.1-RX2-Pad8)*%
X79760000Y-94200000D03*
%TO.P,Teensy4.1,9,TX2*%
%TO.N,unconnected-(Teensy4.1-TX2-Pad9)*%
X79760000Y-96740000D03*
%TO.P,Teensy4.1,10,PWM*%
%TO.N,unconnected-(Teensy4.1-PWM-Pad10)*%
X79760000Y-99280000D03*
%TO.P,Teensy4.1,11,CS*%
%TO.N,/CS*%
X79760000Y-101820000D03*
%TO.P,Teensy4.1,12,MOSI*%
%TO.N,/MOSI*%
X79760000Y-104360000D03*
%TO.P,Teensy4.1,13,MISO*%
%TO.N,/MISO*%
X79760000Y-106900000D03*
%TO.P,Teensy4.1,14,3.3V*%
%TO.N,unconnected-(Teensy4.1-3.3V-Pad14)*%
X79760000Y-109440000D03*
%TO.P,Teensy4.1,15,SCL2*%
%TO.N,unconnected-(Teensy4.1-SCL2-Pad15)*%
X79760000Y-111980000D03*
%TO.P,Teensy4.1,16,SDA2*%
%TO.N,unconnected-(Teensy4.1-SDA2-Pad16)*%
X79760000Y-114520000D03*
%TO.P,Teensy4.1,17,MOSI1*%
%TO.N,unconnected-(Teensy4.1-MOSI1-Pad17)*%
X79760000Y-117060000D03*
%TO.P,Teensy4.1,18,SCK1*%
%TO.N,unconnected-(Teensy4.1-SCK1-Pad18)*%
X79760000Y-119600000D03*
%TO.P,Teensy4.1,19,RX7*%
%TO.N,unconnected-(Teensy4.1-RX7-Pad19)*%
X79760000Y-122140000D03*
%TO.P,Teensy4.1,20,TX7*%
%TO.N,unconnected-(Teensy4.1-TX7-Pad20)*%
X79760000Y-124680000D03*
%TO.P,Teensy4.1,21,GPIO*%
%TO.N,unconnected-(Teensy4.1-GPIO-Pad21)*%
X79760000Y-127220000D03*
%TO.P,Teensy4.1,22,GPIO*%
%TO.N,unconnected-(Teensy4.1-GPIO-Pad22)*%
X79760000Y-129760000D03*
%TO.P,Teensy4.1,23,GPIO*%
%TO.N,unconnected-(Teensy4.1-GPIO-Pad23)*%
X79760000Y-132300000D03*
%TO.P,Teensy4.1,24,PWM*%
%TO.N,Net-(BZ1--)*%
X95000000Y-132300000D03*
%TO.P,Teensy4.1,25,RX8*%
%TO.N,unconnected-(Teensy4.1-RX8-Pad25)*%
X95000000Y-129760000D03*
%TO.P,Teensy4.1,26,TX8*%
%TO.N,unconnected-(Teensy4.1-TX8-Pad26)*%
X95000000Y-127220000D03*
%TO.P,Teensy4.1,27,PWM*%
%TO.N,unconnected-(Teensy4.1-PWM-Pad27)*%
X95000000Y-124680000D03*
%TO.P,Teensy4.1,28,PWM*%
%TO.N,unconnected-(Teensy4.1-PWM-Pad28)*%
X95000000Y-122140000D03*
%TO.P,Teensy4.1,29,CS1*%
%TO.N,unconnected-(Teensy4.1-CS1-Pad29)*%
X95000000Y-119600000D03*
%TO.P,Teensy4.1,30,MISO*%
%TO.N,unconnected-(Teensy4.1-MISO-Pad30)*%
X95000000Y-117060000D03*
%TO.P,Teensy4.1,31,A16*%
%TO.N,unconnected-(Teensy4.1-A16-Pad31)*%
X95000000Y-114520000D03*
%TO.P,Teensy4.1,32,A17*%
%TO.N,unconnected-(Teensy4.1-A17-Pad32)*%
X95000000Y-111980000D03*
%TO.P,Teensy4.1,33,GND*%
%TO.N,unconnected-(Teensy4.1-GND-Pad33)*%
X95000000Y-109440000D03*
%TO.P,Teensy4.1,34,SCK*%
%TO.N,/SCK*%
X95000000Y-106900000D03*
%TO.P,Teensy4.1,35,A0*%
%TO.N,/INT*%
X95000000Y-104360000D03*
%TO.P,Teensy4.1,36,A1*%
%TO.N,/RST*%
X95000000Y-101820000D03*
%TO.P,Teensy4.1,37,A2*%
%TO.N,/FULL*%
X95000000Y-99280000D03*
%TO.P,Teensy4.1,38,A3*%
%TO.N,/NEPT*%
X95000000Y-96740000D03*
%TO.P,Teensy4.1,39,SDA*%
%TO.N,/LVL*%
X95000000Y-94200000D03*
%TO.P,Teensy4.1,40,SCL*%
%TO.N,unconnected-(Teensy4.1-SCL-Pad40)*%
X95000000Y-91660000D03*
%TO.P,Teensy4.1,41,TX5*%
%TO.N,unconnected-(Teensy4.1-TX5-Pad41)*%
X95000000Y-89120000D03*
%TO.P,Teensy4.1,42,RX5*%
%TO.N,unconnected-(Teensy4.1-RX5-Pad42)*%
X95000000Y-86580000D03*
%TO.P,Teensy4.1,43,PWM*%
%TO.N,unconnected-(Teensy4.1-PWM-Pad43)*%
X95000000Y-84040000D03*
%TO.P,Teensy4.1,44,PWM*%
%TO.N,unconnected-(Teensy4.1-PWM-Pad44)*%
X95000000Y-81500000D03*
%TO.P,Teensy4.1,45,3.3V*%
%TO.N,unconnected-(Teensy4.1-3.3V-Pad45)*%
X95000000Y-78960000D03*
%TO.P,Teensy4.1,46,GND*%
%TO.N,GND*%
X95000000Y-76420000D03*
%TO.P,Teensy4.1,47,Vin*%
%TO.N,/VCC*%
X95000000Y-73880000D03*
%TD*%
D17*
%TO.P,BZ1,1,-*%
%TO.N,Net-(BZ1--)*%
X110550000Y-139500000D03*
%TO.P,BZ1,2,+*%
%TO.N,GND*%
X118050000Y-139500000D03*
%TD*%
D18*
%TO.P,J6,1,Pin_1*%
%TO.N,/VIN*%
X113500000Y-83000000D03*
D19*
%TO.P,J6,2,Pin_2*%
%TO.N,Net-(J6-Pin_2)*%
X111000000Y-83000000D03*
%TD*%
D18*
%TO.P,J7,1,Pin_1*%
%TO.N,Net-(J6-Pin_2)*%
X104500000Y-83000000D03*
D19*
%TO.P,J7,2,Pin_2*%
%TO.N,GND*%
X102000000Y-83000000D03*
%TD*%
D10*
%TO.P,J4,1,Pin_1*%
%TO.N,/VCC*%
X79800000Y-136980000D03*
D11*
%TO.P,J4,2,Pin_2*%
%TO.N,GND*%
X79800000Y-139520000D03*
%TO.P,J4,3,Pin_3*%
%TO.N,unconnected-(J4-Pin_3-Pad3)*%
X79800000Y-142060000D03*
%TO.P,J4,4,Pin_4*%
%TO.N,/INT*%
X79800000Y-144600000D03*
%TO.P,J4,5,Pin_5*%
%TO.N,/SCK*%
X79800000Y-147140000D03*
%TO.P,J4,6,Pin_6*%
%TO.N,/MISO*%
X79800000Y-149680000D03*
%TO.P,J4,7,Pin_7*%
%TO.N,/MOSI*%
X79800000Y-152220000D03*
%TO.P,J4,8,Pin_8*%
%TO.N,/CS*%
X79800000Y-154760000D03*
%TO.P,J4,9,Pin_9*%
%TO.N,/RST*%
X79800000Y-157300000D03*
%TD*%
D10*
%TO.P,J3,1,Pin_1*%
%TO.N,/VCC*%
X103500000Y-119880000D03*
D11*
%TO.P,J3,2,Pin_2*%
%TO.N,GND*%
X103500000Y-122420000D03*
%TO.P,J3,3,Pin_3*%
%TO.N,Net-(J3-Pin_3)*%
X103500000Y-124960000D03*
%TO.P,J3,4,Pin_4*%
%TO.N,/VSIG*%
X103500000Y-127500000D03*
%TD*%
D10*
%TO.P,J1,1,Pin_1*%
%TO.N,unconnected-(J1-Pin_1-Pad1)*%
X103500000Y-114000000D03*
D11*
%TO.P,J1,2,Pin_2*%
%TO.N,/VBAT*%
X103500000Y-111460000D03*
%TO.P,J1,3,Pin_3*%
%TO.N,GND*%
X103500000Y-108920000D03*
%TO.P,J1,4,Pin_4*%
%TO.N,/VCC*%
X103500000Y-106380000D03*
%TD*%
D20*
%TO.N,/INT*%
X87800000Y-142200000D03*
%TO.N,/SCK*%
X89300000Y-142200000D03*
%TD*%
D21*
%TO.N,GND*%
X106000000Y-132000000D02*
X110550000Y-132000000D01*
X95000000Y-76420000D02*
X87920000Y-76420000D01*
X95420000Y-76420000D02*
X102000000Y-83000000D01*
X104702081Y-108920000D02*
X103500000Y-108920000D01*
X105980000Y-121000000D02*
X106000000Y-121000000D01*
X104560000Y-122420000D02*
X105980000Y-121000000D01*
X106000000Y-132000000D02*
X97500000Y-140500000D01*
X80780000Y-140500000D02*
X79800000Y-139520000D01*
X106000000Y-121000000D02*
X106000000Y-110217919D01*
X106000000Y-121000000D02*
X106000000Y-127500000D01*
X95000000Y-76420000D02*
X95420000Y-76420000D01*
X110550000Y-132000000D02*
X118050000Y-139500000D01*
X87920000Y-76420000D02*
X85380000Y-73880000D01*
X106000000Y-127500000D02*
X106000000Y-132000000D01*
X106000000Y-110217919D02*
X104702081Y-108920000D01*
X97500000Y-140500000D02*
X80780000Y-140500000D01*
X85380000Y-73880000D02*
X79760000Y-73880000D01*
X103500000Y-122420000D02*
X104560000Y-122420000D01*
D22*
%TO.N,/EN*%
X106500000Y-99000000D02*
X103000000Y-99000000D01*
X122500000Y-83000000D02*
X106500000Y-99000000D01*
D21*
%TO.N,/VCC*%
X103500000Y-106380000D02*
X102297919Y-106380000D01*
X97500000Y-135000000D02*
X95520000Y-136980000D01*
X95520000Y-136980000D02*
X79800000Y-136980000D01*
X102297919Y-106380000D02*
X100500000Y-108177919D01*
X97500000Y-119880000D02*
X97500000Y-135000000D01*
X100403528Y-73880000D02*
X95000000Y-73880000D01*
X107500000Y-85500000D02*
X107500000Y-80976472D01*
X100500000Y-108177919D02*
X100500000Y-92500000D01*
X100500000Y-116880000D02*
X97500000Y-119880000D01*
X79820000Y-137000000D02*
X79800000Y-136980000D01*
X100500000Y-92500000D02*
X107500000Y-85500000D01*
X100500000Y-108177919D02*
X100500000Y-116880000D01*
X107500000Y-80976472D02*
X100403528Y-73880000D01*
X100500000Y-116880000D02*
X103500000Y-119880000D01*
D22*
%TO.N,/INT*%
X85400000Y-144600000D02*
X87800000Y-142200000D01*
X79800000Y-144600000D02*
X85400000Y-144600000D01*
%TO.N,/SCK*%
X79800000Y-147140000D02*
X84360000Y-147140000D01*
X84360000Y-147140000D02*
X89300000Y-142200000D01*
D21*
%TO.N,/VIN*%
X105405000Y-96460000D02*
X103000000Y-96460000D01*
X113500000Y-88365000D02*
X105405000Y-96460000D01*
X113500000Y-83000000D02*
X113500000Y-88365000D01*
%TD*%
M02*
