M48
; DRILL file {KiCad 7.0.7} date Mon May 20 18:32:23 2024
; FORMAT={-:-/ absolute / inch / decimal}
; #@! TF.CreationDate,2024-05-20T18:32:23-04:00
; #@! TF.GenerationSoftware,Kicad,Pcbnew,7.0.7
; #@! TF.FileFunction,Plated,1,2,PTH
FMAT,2
INCH
; #@! TA.AperFunction,Plated,PTH,ViaDrill
T1C0.0157
; #@! TA.AperFunction,Plated,PTH,ComponentDrill
T2C0.0300
; #@! TA.AperFunction,Plated,PTH,ComponentDrill
T3C0.0374
; #@! TA.AperFunction,Plated,PTH,ComponentDrill
T4C0.0394
; #@! TA.AperFunction,Plated,PTH,ComponentDrill
T5C0.0402
; #@! TA.AperFunction,Plated,PTH,ComponentDrill
T6C0.0433
%
G90
G05
T1
X3.4567Y-5.5984
X3.5157Y-5.5984
T2
X4.3524Y-5.4921
X4.6476Y-5.4921
T3
X4.7244Y-3.2677
X4.8228Y-3.2677
X4.9213Y-3.2677
T4
X3.1417Y-5.3929
X3.1417Y-5.4929
X3.1417Y-5.5929
X3.1417Y-5.6929
X3.1417Y-5.7929
X3.1417Y-5.8929
X3.1417Y-5.9929
X3.1417Y-6.0929
X3.1417Y-6.1929
X4.0157Y-3.2677
X4.0748Y-4.1882
X4.0748Y-4.2882
X4.0748Y-4.3882
X4.0748Y-4.4882
X4.0748Y-4.7197
X4.0748Y-4.8197
X4.0748Y-4.9197
X4.0748Y-5.0197
X4.1142Y-3.2677
X4.1417Y-5.3929
X4.1417Y-5.4929
X4.1417Y-5.5929
X4.1417Y-5.6929
X4.1417Y-5.7929
X4.3701Y-3.2677
X4.4685Y-3.2677
T5
X3.1402Y-2.9087
X3.1402Y-3.0087
X3.1402Y-3.1087
X3.1402Y-3.2087
X3.1402Y-3.3087
X3.1402Y-3.4087
X3.1402Y-3.5087
X3.1402Y-3.6087
X3.1402Y-3.7087
X3.1402Y-3.8087
X3.1402Y-3.9087
X3.1402Y-4.0087
X3.1402Y-4.1087
X3.1402Y-4.2087
X3.1402Y-4.3087
X3.1402Y-4.4087
X3.1402Y-4.5087
X3.1402Y-4.6087
X3.1402Y-4.7087
X3.1402Y-4.8087
X3.1402Y-4.9087
X3.1402Y-5.0087
X3.1402Y-5.1087
X3.1402Y-5.2087
X3.7402Y-2.9087
X3.7402Y-3.0087
X3.7402Y-3.1087
X3.7402Y-3.2087
X3.7402Y-3.3087
X3.7402Y-3.4087
X3.7402Y-3.5087
X3.7402Y-3.6087
X3.7402Y-3.7087
X3.7402Y-3.8087
X3.7402Y-3.9087
X3.7402Y-4.0087
X3.7402Y-4.1087
X3.7402Y-4.2087
X3.7402Y-4.3087
X3.7402Y-4.4087
X3.7402Y-4.5087
X3.7402Y-4.6087
X3.7402Y-4.7087
X3.7402Y-4.8087
X3.7402Y-4.9087
X3.7402Y-5.0087
X3.7402Y-5.1087
X3.7402Y-5.2087
T6
X4.0551Y-3.6976
X4.0551Y-3.7976
X4.0551Y-3.8976
T0
M30
