%TF.GenerationSoftware,KiCad,Pcbnew,8.0.3*%
%TF.CreationDate,2024-12-28T15:57:08-05:00*%
%TF.ProjectId,mcu-board v2,6d63752d-626f-4617-9264-2076322e6b69,rev?*%
%TF.SameCoordinates,Original*%
%TF.FileFunction,Legend,Top*%
%TF.FilePolarity,Positive*%
%FSLAX46Y46*%
G04 Gerber Fmt 4.6, Leading zero omitted, Abs format (unit mm)*
G04 Created by KiCad (PCBNEW 8.0.3) date 2024-12-28 15:57:08*
%MOMM*%
%LPD*%
G01*
G04 APERTURE LIST*
%ADD10C,0.147600*%
%ADD11C,0.198400*%
%ADD12C,0.150000*%
%ADD13C,0.100000*%
%ADD14C,0.124600*%
%ADD15C,0.120000*%
G04 APERTURE END LIST*
D10*
X114206162Y-80885498D02*
X114678743Y-80885498D01*
X114678743Y-80885498D02*
X114424276Y-81176317D01*
X114424276Y-81176317D02*
X114533333Y-81176317D01*
X114533333Y-81176317D02*
X114606038Y-81212669D01*
X114606038Y-81212669D02*
X114642390Y-81249022D01*
X114642390Y-81249022D02*
X114678743Y-81321726D01*
X114678743Y-81321726D02*
X114678743Y-81503488D01*
X114678743Y-81503488D02*
X114642390Y-81576193D01*
X114642390Y-81576193D02*
X114606038Y-81612546D01*
X114606038Y-81612546D02*
X114533333Y-81648898D01*
X114533333Y-81648898D02*
X114315219Y-81648898D01*
X114315219Y-81648898D02*
X114242514Y-81612546D01*
X114242514Y-81612546D02*
X114206162Y-81576193D01*
X115005914Y-81576193D02*
X115042267Y-81612546D01*
X115042267Y-81612546D02*
X115005914Y-81648898D01*
X115005914Y-81648898D02*
X114969562Y-81612546D01*
X114969562Y-81612546D02*
X115005914Y-81576193D01*
X115005914Y-81576193D02*
X115005914Y-81648898D01*
X115296734Y-80885498D02*
X115769315Y-80885498D01*
X115769315Y-80885498D02*
X115514848Y-81176317D01*
X115514848Y-81176317D02*
X115623905Y-81176317D01*
X115623905Y-81176317D02*
X115696610Y-81212669D01*
X115696610Y-81212669D02*
X115732962Y-81249022D01*
X115732962Y-81249022D02*
X115769315Y-81321726D01*
X115769315Y-81321726D02*
X115769315Y-81503488D01*
X115769315Y-81503488D02*
X115732962Y-81576193D01*
X115732962Y-81576193D02*
X115696610Y-81612546D01*
X115696610Y-81612546D02*
X115623905Y-81648898D01*
X115623905Y-81648898D02*
X115405791Y-81648898D01*
X115405791Y-81648898D02*
X115333086Y-81612546D01*
X115333086Y-81612546D02*
X115296734Y-81576193D01*
X115987429Y-80885498D02*
X116241896Y-81648898D01*
X116241896Y-81648898D02*
X116496363Y-80885498D01*
D11*
X118366716Y-54240376D02*
X119122526Y-54240376D01*
X118744621Y-54618281D02*
X118744621Y-53862471D01*
X118886335Y-50923519D02*
X118791859Y-50876281D01*
X118791859Y-50876281D02*
X118650145Y-50876281D01*
X118650145Y-50876281D02*
X118508430Y-50923519D01*
X118508430Y-50923519D02*
X118413954Y-51017995D01*
X118413954Y-51017995D02*
X118366716Y-51112471D01*
X118366716Y-51112471D02*
X118319478Y-51301423D01*
X118319478Y-51301423D02*
X118319478Y-51443138D01*
X118319478Y-51443138D02*
X118366716Y-51632090D01*
X118366716Y-51632090D02*
X118413954Y-51726566D01*
X118413954Y-51726566D02*
X118508430Y-51821043D01*
X118508430Y-51821043D02*
X118650145Y-51868281D01*
X118650145Y-51868281D02*
X118744621Y-51868281D01*
X118744621Y-51868281D02*
X118886335Y-51821043D01*
X118886335Y-51821043D02*
X118933573Y-51773804D01*
X118933573Y-51773804D02*
X118933573Y-51443138D01*
X118933573Y-51443138D02*
X118744621Y-51443138D01*
X119358716Y-51868281D02*
X119358716Y-50876281D01*
X119358716Y-50876281D02*
X119925573Y-51868281D01*
X119925573Y-51868281D02*
X119925573Y-50876281D01*
X120397954Y-51868281D02*
X120397954Y-50876281D01*
X120397954Y-50876281D02*
X120634144Y-50876281D01*
X120634144Y-50876281D02*
X120775859Y-50923519D01*
X120775859Y-50923519D02*
X120870335Y-51017995D01*
X120870335Y-51017995D02*
X120917573Y-51112471D01*
X120917573Y-51112471D02*
X120964811Y-51301423D01*
X120964811Y-51301423D02*
X120964811Y-51443138D01*
X120964811Y-51443138D02*
X120917573Y-51632090D01*
X120917573Y-51632090D02*
X120870335Y-51726566D01*
X120870335Y-51726566D02*
X120775859Y-51821043D01*
X120775859Y-51821043D02*
X120634144Y-51868281D01*
X120634144Y-51868281D02*
X120397954Y-51868281D01*
X120116716Y-66240376D02*
X120872526Y-66240376D01*
X120494621Y-66618281D02*
X120494621Y-65862471D01*
D10*
X113992514Y-62612546D02*
X114101571Y-62648898D01*
X114101571Y-62648898D02*
X114283333Y-62648898D01*
X114283333Y-62648898D02*
X114356038Y-62612546D01*
X114356038Y-62612546D02*
X114392390Y-62576193D01*
X114392390Y-62576193D02*
X114428743Y-62503488D01*
X114428743Y-62503488D02*
X114428743Y-62430784D01*
X114428743Y-62430784D02*
X114392390Y-62358079D01*
X114392390Y-62358079D02*
X114356038Y-62321726D01*
X114356038Y-62321726D02*
X114283333Y-62285374D01*
X114283333Y-62285374D02*
X114137924Y-62249022D01*
X114137924Y-62249022D02*
X114065219Y-62212669D01*
X114065219Y-62212669D02*
X114028866Y-62176317D01*
X114028866Y-62176317D02*
X113992514Y-62103612D01*
X113992514Y-62103612D02*
X113992514Y-62030907D01*
X113992514Y-62030907D02*
X114028866Y-61958203D01*
X114028866Y-61958203D02*
X114065219Y-61921850D01*
X114065219Y-61921850D02*
X114137924Y-61885498D01*
X114137924Y-61885498D02*
X114319685Y-61885498D01*
X114319685Y-61885498D02*
X114428743Y-61921850D01*
X114755914Y-62648898D02*
X114755914Y-61885498D01*
X114755914Y-61885498D02*
X114937676Y-61885498D01*
X114937676Y-61885498D02*
X115046733Y-61921850D01*
X115046733Y-61921850D02*
X115119438Y-61994555D01*
X115119438Y-61994555D02*
X115155791Y-62067260D01*
X115155791Y-62067260D02*
X115192143Y-62212669D01*
X115192143Y-62212669D02*
X115192143Y-62321726D01*
X115192143Y-62321726D02*
X115155791Y-62467136D01*
X115155791Y-62467136D02*
X115119438Y-62539841D01*
X115119438Y-62539841D02*
X115046733Y-62612546D01*
X115046733Y-62612546D02*
X114937676Y-62648898D01*
X114937676Y-62648898D02*
X114755914Y-62648898D01*
X115482962Y-62430784D02*
X115846486Y-62430784D01*
X115410257Y-62648898D02*
X115664724Y-61885498D01*
X115664724Y-61885498D02*
X115919191Y-62648898D01*
X113956162Y-59385498D02*
X114428743Y-59385498D01*
X114428743Y-59385498D02*
X114174276Y-59676317D01*
X114174276Y-59676317D02*
X114283333Y-59676317D01*
X114283333Y-59676317D02*
X114356038Y-59712669D01*
X114356038Y-59712669D02*
X114392390Y-59749022D01*
X114392390Y-59749022D02*
X114428743Y-59821726D01*
X114428743Y-59821726D02*
X114428743Y-60003488D01*
X114428743Y-60003488D02*
X114392390Y-60076193D01*
X114392390Y-60076193D02*
X114356038Y-60112546D01*
X114356038Y-60112546D02*
X114283333Y-60148898D01*
X114283333Y-60148898D02*
X114065219Y-60148898D01*
X114065219Y-60148898D02*
X113992514Y-60112546D01*
X113992514Y-60112546D02*
X113956162Y-60076193D01*
X114755914Y-60076193D02*
X114792267Y-60112546D01*
X114792267Y-60112546D02*
X114755914Y-60148898D01*
X114755914Y-60148898D02*
X114719562Y-60112546D01*
X114719562Y-60112546D02*
X114755914Y-60076193D01*
X114755914Y-60076193D02*
X114755914Y-60148898D01*
X115046734Y-59385498D02*
X115519315Y-59385498D01*
X115519315Y-59385498D02*
X115264848Y-59676317D01*
X115264848Y-59676317D02*
X115373905Y-59676317D01*
X115373905Y-59676317D02*
X115446610Y-59712669D01*
X115446610Y-59712669D02*
X115482962Y-59749022D01*
X115482962Y-59749022D02*
X115519315Y-59821726D01*
X115519315Y-59821726D02*
X115519315Y-60003488D01*
X115519315Y-60003488D02*
X115482962Y-60076193D01*
X115482962Y-60076193D02*
X115446610Y-60112546D01*
X115446610Y-60112546D02*
X115373905Y-60148898D01*
X115373905Y-60148898D02*
X115155791Y-60148898D01*
X115155791Y-60148898D02*
X115083086Y-60112546D01*
X115083086Y-60112546D02*
X115046734Y-60076193D01*
X115737429Y-59385498D02*
X115991896Y-60148898D01*
X115991896Y-60148898D02*
X116246363Y-59385498D01*
X114678743Y-73671850D02*
X114606038Y-73635498D01*
X114606038Y-73635498D02*
X114496981Y-73635498D01*
X114496981Y-73635498D02*
X114387924Y-73671850D01*
X114387924Y-73671850D02*
X114315219Y-73744555D01*
X114315219Y-73744555D02*
X114278866Y-73817260D01*
X114278866Y-73817260D02*
X114242514Y-73962669D01*
X114242514Y-73962669D02*
X114242514Y-74071726D01*
X114242514Y-74071726D02*
X114278866Y-74217136D01*
X114278866Y-74217136D02*
X114315219Y-74289841D01*
X114315219Y-74289841D02*
X114387924Y-74362546D01*
X114387924Y-74362546D02*
X114496981Y-74398898D01*
X114496981Y-74398898D02*
X114569685Y-74398898D01*
X114569685Y-74398898D02*
X114678743Y-74362546D01*
X114678743Y-74362546D02*
X114715095Y-74326193D01*
X114715095Y-74326193D02*
X114715095Y-74071726D01*
X114715095Y-74071726D02*
X114569685Y-74071726D01*
X115042266Y-74398898D02*
X115042266Y-73635498D01*
X115042266Y-73635498D02*
X115478495Y-74398898D01*
X115478495Y-74398898D02*
X115478495Y-73635498D01*
X115842018Y-74398898D02*
X115842018Y-73635498D01*
X115842018Y-73635498D02*
X116023780Y-73635498D01*
X116023780Y-73635498D02*
X116132837Y-73671850D01*
X116132837Y-73671850D02*
X116205542Y-73744555D01*
X116205542Y-73744555D02*
X116241895Y-73817260D01*
X116241895Y-73817260D02*
X116278247Y-73962669D01*
X116278247Y-73962669D02*
X116278247Y-74071726D01*
X116278247Y-74071726D02*
X116241895Y-74217136D01*
X116241895Y-74217136D02*
X116205542Y-74289841D01*
X116205542Y-74289841D02*
X116132837Y-74362546D01*
X116132837Y-74362546D02*
X116023780Y-74398898D01*
X116023780Y-74398898D02*
X115842018Y-74398898D01*
X114715095Y-79398898D02*
X114460628Y-79035374D01*
X114278866Y-79398898D02*
X114278866Y-78635498D01*
X114278866Y-78635498D02*
X114569685Y-78635498D01*
X114569685Y-78635498D02*
X114642390Y-78671850D01*
X114642390Y-78671850D02*
X114678743Y-78708203D01*
X114678743Y-78708203D02*
X114715095Y-78780907D01*
X114715095Y-78780907D02*
X114715095Y-78889965D01*
X114715095Y-78889965D02*
X114678743Y-78962669D01*
X114678743Y-78962669D02*
X114642390Y-78999022D01*
X114642390Y-78999022D02*
X114569685Y-79035374D01*
X114569685Y-79035374D02*
X114278866Y-79035374D01*
X114969562Y-78635498D02*
X115478495Y-79398898D01*
X115478495Y-78635498D02*
X114969562Y-79398898D01*
X115878372Y-78962669D02*
X115805667Y-78926317D01*
X115805667Y-78926317D02*
X115769314Y-78889965D01*
X115769314Y-78889965D02*
X115732962Y-78817260D01*
X115732962Y-78817260D02*
X115732962Y-78780907D01*
X115732962Y-78780907D02*
X115769314Y-78708203D01*
X115769314Y-78708203D02*
X115805667Y-78671850D01*
X115805667Y-78671850D02*
X115878372Y-78635498D01*
X115878372Y-78635498D02*
X116023781Y-78635498D01*
X116023781Y-78635498D02*
X116096486Y-78671850D01*
X116096486Y-78671850D02*
X116132838Y-78708203D01*
X116132838Y-78708203D02*
X116169191Y-78780907D01*
X116169191Y-78780907D02*
X116169191Y-78817260D01*
X116169191Y-78817260D02*
X116132838Y-78889965D01*
X116132838Y-78889965D02*
X116096486Y-78926317D01*
X116096486Y-78926317D02*
X116023781Y-78962669D01*
X116023781Y-78962669D02*
X115878372Y-78962669D01*
X115878372Y-78962669D02*
X115805667Y-78999022D01*
X115805667Y-78999022D02*
X115769314Y-79035374D01*
X115769314Y-79035374D02*
X115732962Y-79108079D01*
X115732962Y-79108079D02*
X115732962Y-79253488D01*
X115732962Y-79253488D02*
X115769314Y-79326193D01*
X115769314Y-79326193D02*
X115805667Y-79362546D01*
X115805667Y-79362546D02*
X115878372Y-79398898D01*
X115878372Y-79398898D02*
X116023781Y-79398898D01*
X116023781Y-79398898D02*
X116096486Y-79362546D01*
X116096486Y-79362546D02*
X116132838Y-79326193D01*
X116132838Y-79326193D02*
X116169191Y-79253488D01*
X116169191Y-79253488D02*
X116169191Y-79108079D01*
X116169191Y-79108079D02*
X116132838Y-79035374D01*
X116132838Y-79035374D02*
X116096486Y-78999022D01*
X116096486Y-78999022D02*
X116023781Y-78962669D01*
X114169809Y-76135498D02*
X114606038Y-76135498D01*
X114387924Y-76898898D02*
X114387924Y-76135498D01*
X114787800Y-76135498D02*
X115296733Y-76898898D01*
X115296733Y-76135498D02*
X114787800Y-76898898D01*
X115696610Y-76462669D02*
X115623905Y-76426317D01*
X115623905Y-76426317D02*
X115587552Y-76389965D01*
X115587552Y-76389965D02*
X115551200Y-76317260D01*
X115551200Y-76317260D02*
X115551200Y-76280907D01*
X115551200Y-76280907D02*
X115587552Y-76208203D01*
X115587552Y-76208203D02*
X115623905Y-76171850D01*
X115623905Y-76171850D02*
X115696610Y-76135498D01*
X115696610Y-76135498D02*
X115842019Y-76135498D01*
X115842019Y-76135498D02*
X115914724Y-76171850D01*
X115914724Y-76171850D02*
X115951076Y-76208203D01*
X115951076Y-76208203D02*
X115987429Y-76280907D01*
X115987429Y-76280907D02*
X115987429Y-76317260D01*
X115987429Y-76317260D02*
X115951076Y-76389965D01*
X115951076Y-76389965D02*
X115914724Y-76426317D01*
X115914724Y-76426317D02*
X115842019Y-76462669D01*
X115842019Y-76462669D02*
X115696610Y-76462669D01*
X115696610Y-76462669D02*
X115623905Y-76499022D01*
X115623905Y-76499022D02*
X115587552Y-76535374D01*
X115587552Y-76535374D02*
X115551200Y-76608079D01*
X115551200Y-76608079D02*
X115551200Y-76753488D01*
X115551200Y-76753488D02*
X115587552Y-76826193D01*
X115587552Y-76826193D02*
X115623905Y-76862546D01*
X115623905Y-76862546D02*
X115696610Y-76898898D01*
X115696610Y-76898898D02*
X115842019Y-76898898D01*
X115842019Y-76898898D02*
X115914724Y-76862546D01*
X115914724Y-76862546D02*
X115951076Y-76826193D01*
X115951076Y-76826193D02*
X115987429Y-76753488D01*
X115987429Y-76753488D02*
X115987429Y-76608079D01*
X115987429Y-76608079D02*
X115951076Y-76535374D01*
X115951076Y-76535374D02*
X115914724Y-76499022D01*
X115914724Y-76499022D02*
X115842019Y-76462669D01*
X113992514Y-65112546D02*
X114101571Y-65148898D01*
X114101571Y-65148898D02*
X114283333Y-65148898D01*
X114283333Y-65148898D02*
X114356038Y-65112546D01*
X114356038Y-65112546D02*
X114392390Y-65076193D01*
X114392390Y-65076193D02*
X114428743Y-65003488D01*
X114428743Y-65003488D02*
X114428743Y-64930784D01*
X114428743Y-64930784D02*
X114392390Y-64858079D01*
X114392390Y-64858079D02*
X114356038Y-64821726D01*
X114356038Y-64821726D02*
X114283333Y-64785374D01*
X114283333Y-64785374D02*
X114137924Y-64749022D01*
X114137924Y-64749022D02*
X114065219Y-64712669D01*
X114065219Y-64712669D02*
X114028866Y-64676317D01*
X114028866Y-64676317D02*
X113992514Y-64603612D01*
X113992514Y-64603612D02*
X113992514Y-64530907D01*
X113992514Y-64530907D02*
X114028866Y-64458203D01*
X114028866Y-64458203D02*
X114065219Y-64421850D01*
X114065219Y-64421850D02*
X114137924Y-64385498D01*
X114137924Y-64385498D02*
X114319685Y-64385498D01*
X114319685Y-64385498D02*
X114428743Y-64421850D01*
X115192143Y-65076193D02*
X115155791Y-65112546D01*
X115155791Y-65112546D02*
X115046733Y-65148898D01*
X115046733Y-65148898D02*
X114974029Y-65148898D01*
X114974029Y-65148898D02*
X114864972Y-65112546D01*
X114864972Y-65112546D02*
X114792267Y-65039841D01*
X114792267Y-65039841D02*
X114755914Y-64967136D01*
X114755914Y-64967136D02*
X114719562Y-64821726D01*
X114719562Y-64821726D02*
X114719562Y-64712669D01*
X114719562Y-64712669D02*
X114755914Y-64567260D01*
X114755914Y-64567260D02*
X114792267Y-64494555D01*
X114792267Y-64494555D02*
X114864972Y-64421850D01*
X114864972Y-64421850D02*
X114974029Y-64385498D01*
X114974029Y-64385498D02*
X115046733Y-64385498D01*
X115046733Y-64385498D02*
X115155791Y-64421850D01*
X115155791Y-64421850D02*
X115192143Y-64458203D01*
X115882838Y-65148898D02*
X115519314Y-65148898D01*
X115519314Y-65148898D02*
X115519314Y-64385498D01*
D11*
X120116716Y-56490376D02*
X120872526Y-56490376D01*
D10*
X114428743Y-67171850D02*
X114356038Y-67135498D01*
X114356038Y-67135498D02*
X114246981Y-67135498D01*
X114246981Y-67135498D02*
X114137924Y-67171850D01*
X114137924Y-67171850D02*
X114065219Y-67244555D01*
X114065219Y-67244555D02*
X114028866Y-67317260D01*
X114028866Y-67317260D02*
X113992514Y-67462669D01*
X113992514Y-67462669D02*
X113992514Y-67571726D01*
X113992514Y-67571726D02*
X114028866Y-67717136D01*
X114028866Y-67717136D02*
X114065219Y-67789841D01*
X114065219Y-67789841D02*
X114137924Y-67862546D01*
X114137924Y-67862546D02*
X114246981Y-67898898D01*
X114246981Y-67898898D02*
X114319685Y-67898898D01*
X114319685Y-67898898D02*
X114428743Y-67862546D01*
X114428743Y-67862546D02*
X114465095Y-67826193D01*
X114465095Y-67826193D02*
X114465095Y-67571726D01*
X114465095Y-67571726D02*
X114319685Y-67571726D01*
X114792266Y-67898898D02*
X114792266Y-67135498D01*
X114792266Y-67135498D02*
X115228495Y-67898898D01*
X115228495Y-67898898D02*
X115228495Y-67135498D01*
X115592018Y-67898898D02*
X115592018Y-67135498D01*
X115592018Y-67135498D02*
X115773780Y-67135498D01*
X115773780Y-67135498D02*
X115882837Y-67171850D01*
X115882837Y-67171850D02*
X115955542Y-67244555D01*
X115955542Y-67244555D02*
X115991895Y-67317260D01*
X115991895Y-67317260D02*
X116028247Y-67462669D01*
X116028247Y-67462669D02*
X116028247Y-67571726D01*
X116028247Y-67571726D02*
X115991895Y-67717136D01*
X115991895Y-67717136D02*
X115955542Y-67789841D01*
X115955542Y-67789841D02*
X115882837Y-67862546D01*
X115882837Y-67862546D02*
X115773780Y-67898898D01*
X115773780Y-67898898D02*
X115592018Y-67898898D01*
D12*
X118333333Y-67054819D02*
X118000000Y-66578628D01*
X117761905Y-67054819D02*
X117761905Y-66054819D01*
X117761905Y-66054819D02*
X118142857Y-66054819D01*
X118142857Y-66054819D02*
X118238095Y-66102438D01*
X118238095Y-66102438D02*
X118285714Y-66150057D01*
X118285714Y-66150057D02*
X118333333Y-66245295D01*
X118333333Y-66245295D02*
X118333333Y-66388152D01*
X118333333Y-66388152D02*
X118285714Y-66483390D01*
X118285714Y-66483390D02*
X118238095Y-66531009D01*
X118238095Y-66531009D02*
X118142857Y-66578628D01*
X118142857Y-66578628D02*
X117761905Y-66578628D01*
X119190476Y-66388152D02*
X119190476Y-67054819D01*
X118952381Y-66007200D02*
X118714286Y-66721485D01*
X118714286Y-66721485D02*
X119333333Y-66721485D01*
X116476191Y-69354819D02*
X117095238Y-69354819D01*
X117095238Y-69354819D02*
X116761905Y-69735771D01*
X116761905Y-69735771D02*
X116904762Y-69735771D01*
X116904762Y-69735771D02*
X117000000Y-69783390D01*
X117000000Y-69783390D02*
X117047619Y-69831009D01*
X117047619Y-69831009D02*
X117095238Y-69926247D01*
X117095238Y-69926247D02*
X117095238Y-70164342D01*
X117095238Y-70164342D02*
X117047619Y-70259580D01*
X117047619Y-70259580D02*
X117000000Y-70307200D01*
X117000000Y-70307200D02*
X116904762Y-70354819D01*
X116904762Y-70354819D02*
X116619048Y-70354819D01*
X116619048Y-70354819D02*
X116523810Y-70307200D01*
X116523810Y-70307200D02*
X116476191Y-70259580D01*
X117523810Y-70259580D02*
X117571429Y-70307200D01*
X117571429Y-70307200D02*
X117523810Y-70354819D01*
X117523810Y-70354819D02*
X117476191Y-70307200D01*
X117476191Y-70307200D02*
X117523810Y-70259580D01*
X117523810Y-70259580D02*
X117523810Y-70354819D01*
X117904762Y-69354819D02*
X118523809Y-69354819D01*
X118523809Y-69354819D02*
X118190476Y-69735771D01*
X118190476Y-69735771D02*
X118333333Y-69735771D01*
X118333333Y-69735771D02*
X118428571Y-69783390D01*
X118428571Y-69783390D02*
X118476190Y-69831009D01*
X118476190Y-69831009D02*
X118523809Y-69926247D01*
X118523809Y-69926247D02*
X118523809Y-70164342D01*
X118523809Y-70164342D02*
X118476190Y-70259580D01*
X118476190Y-70259580D02*
X118428571Y-70307200D01*
X118428571Y-70307200D02*
X118333333Y-70354819D01*
X118333333Y-70354819D02*
X118047619Y-70354819D01*
X118047619Y-70354819D02*
X117952381Y-70307200D01*
X117952381Y-70307200D02*
X117904762Y-70259580D01*
X118952381Y-70354819D02*
X118952381Y-69354819D01*
X119047619Y-69973866D02*
X119333333Y-70354819D01*
X119333333Y-69688152D02*
X118952381Y-70069104D01*
X119714286Y-70354819D02*
X119952381Y-70354819D01*
X119952381Y-70354819D02*
X119952381Y-70164342D01*
X119952381Y-70164342D02*
X119857143Y-70116723D01*
X119857143Y-70116723D02*
X119761905Y-70021485D01*
X119761905Y-70021485D02*
X119714286Y-69878628D01*
X119714286Y-69878628D02*
X119714286Y-69640533D01*
X119714286Y-69640533D02*
X119761905Y-69497676D01*
X119761905Y-69497676D02*
X119857143Y-69402438D01*
X119857143Y-69402438D02*
X120000000Y-69354819D01*
X120000000Y-69354819D02*
X120190476Y-69354819D01*
X120190476Y-69354819D02*
X120333333Y-69402438D01*
X120333333Y-69402438D02*
X120428571Y-69497676D01*
X120428571Y-69497676D02*
X120476190Y-69640533D01*
X120476190Y-69640533D02*
X120476190Y-69878628D01*
X120476190Y-69878628D02*
X120428571Y-70021485D01*
X120428571Y-70021485D02*
X120333333Y-70116723D01*
X120333333Y-70116723D02*
X120238095Y-70164342D01*
X120238095Y-70164342D02*
X120238095Y-70354819D01*
X120238095Y-70354819D02*
X120476190Y-70354819D01*
X113104819Y-98642857D02*
X113104819Y-99119047D01*
X113104819Y-99119047D02*
X112104819Y-99119047D01*
X112581009Y-98309523D02*
X112581009Y-97976190D01*
X113104819Y-97833333D02*
X113104819Y-98309523D01*
X113104819Y-98309523D02*
X112104819Y-98309523D01*
X112104819Y-98309523D02*
X112104819Y-97833333D01*
X113104819Y-97404761D02*
X112104819Y-97404761D01*
X112104819Y-97404761D02*
X112104819Y-97166666D01*
X112104819Y-97166666D02*
X112152438Y-97023809D01*
X112152438Y-97023809D02*
X112247676Y-96928571D01*
X112247676Y-96928571D02*
X112342914Y-96880952D01*
X112342914Y-96880952D02*
X112533390Y-96833333D01*
X112533390Y-96833333D02*
X112676247Y-96833333D01*
X112676247Y-96833333D02*
X112866723Y-96880952D01*
X112866723Y-96880952D02*
X112961961Y-96928571D01*
X112961961Y-96928571D02*
X113057200Y-97023809D01*
X113057200Y-97023809D02*
X113104819Y-97166666D01*
X113104819Y-97166666D02*
X113104819Y-97404761D01*
X117661905Y-76054819D02*
X117661905Y-75054819D01*
X117661905Y-75054819D02*
X117900000Y-75054819D01*
X117900000Y-75054819D02*
X118042857Y-75102438D01*
X118042857Y-75102438D02*
X118138095Y-75197676D01*
X118138095Y-75197676D02*
X118185714Y-75292914D01*
X118185714Y-75292914D02*
X118233333Y-75483390D01*
X118233333Y-75483390D02*
X118233333Y-75626247D01*
X118233333Y-75626247D02*
X118185714Y-75816723D01*
X118185714Y-75816723D02*
X118138095Y-75911961D01*
X118138095Y-75911961D02*
X118042857Y-76007200D01*
X118042857Y-76007200D02*
X117900000Y-76054819D01*
X117900000Y-76054819D02*
X117661905Y-76054819D01*
X119185714Y-76054819D02*
X118614286Y-76054819D01*
X118900000Y-76054819D02*
X118900000Y-75054819D01*
X118900000Y-75054819D02*
X118804762Y-75197676D01*
X118804762Y-75197676D02*
X118709524Y-75292914D01*
X118709524Y-75292914D02*
X118614286Y-75340533D01*
X117757142Y-79354819D02*
X117280952Y-79354819D01*
X117280952Y-79354819D02*
X117280952Y-78354819D01*
X118090476Y-78831009D02*
X118423809Y-78831009D01*
X118566666Y-79354819D02*
X118090476Y-79354819D01*
X118090476Y-79354819D02*
X118090476Y-78354819D01*
X118090476Y-78354819D02*
X118566666Y-78354819D01*
X118995238Y-79354819D02*
X118995238Y-78354819D01*
X118995238Y-78354819D02*
X119233333Y-78354819D01*
X119233333Y-78354819D02*
X119376190Y-78402438D01*
X119376190Y-78402438D02*
X119471428Y-78497676D01*
X119471428Y-78497676D02*
X119519047Y-78592914D01*
X119519047Y-78592914D02*
X119566666Y-78783390D01*
X119566666Y-78783390D02*
X119566666Y-78926247D01*
X119566666Y-78926247D02*
X119519047Y-79116723D01*
X119519047Y-79116723D02*
X119471428Y-79211961D01*
X119471428Y-79211961D02*
X119376190Y-79307200D01*
X119376190Y-79307200D02*
X119233333Y-79354819D01*
X119233333Y-79354819D02*
X118995238Y-79354819D01*
D13*
X114369047Y-90183609D02*
X114511904Y-90231228D01*
X114511904Y-90231228D02*
X114559523Y-90278847D01*
X114559523Y-90278847D02*
X114607142Y-90374085D01*
X114607142Y-90374085D02*
X114607142Y-90516942D01*
X114607142Y-90516942D02*
X114559523Y-90612180D01*
X114559523Y-90612180D02*
X114511904Y-90659800D01*
X114511904Y-90659800D02*
X114416666Y-90707419D01*
X114416666Y-90707419D02*
X114035714Y-90707419D01*
X114035714Y-90707419D02*
X114035714Y-89707419D01*
X114035714Y-89707419D02*
X114369047Y-89707419D01*
X114369047Y-89707419D02*
X114464285Y-89755038D01*
X114464285Y-89755038D02*
X114511904Y-89802657D01*
X114511904Y-89802657D02*
X114559523Y-89897895D01*
X114559523Y-89897895D02*
X114559523Y-89993133D01*
X114559523Y-89993133D02*
X114511904Y-90088371D01*
X114511904Y-90088371D02*
X114464285Y-90135990D01*
X114464285Y-90135990D02*
X114369047Y-90183609D01*
X114369047Y-90183609D02*
X114035714Y-90183609D01*
X114940476Y-89707419D02*
X115607142Y-89707419D01*
X115607142Y-89707419D02*
X114940476Y-90707419D01*
X114940476Y-90707419D02*
X115607142Y-90707419D01*
X116511904Y-90707419D02*
X115940476Y-90707419D01*
X116226190Y-90707419D02*
X116226190Y-89707419D01*
X116226190Y-89707419D02*
X116130952Y-89850276D01*
X116130952Y-89850276D02*
X116035714Y-89945514D01*
X116035714Y-89945514D02*
X115940476Y-89993133D01*
X110803884Y-88991466D02*
X111565789Y-88991466D01*
X111184836Y-89372419D02*
X111184836Y-88610514D01*
D12*
X113104819Y-102166666D02*
X112628628Y-102499999D01*
X113104819Y-102738094D02*
X112104819Y-102738094D01*
X112104819Y-102738094D02*
X112104819Y-102357142D01*
X112104819Y-102357142D02*
X112152438Y-102261904D01*
X112152438Y-102261904D02*
X112200057Y-102214285D01*
X112200057Y-102214285D02*
X112295295Y-102166666D01*
X112295295Y-102166666D02*
X112438152Y-102166666D01*
X112438152Y-102166666D02*
X112533390Y-102214285D01*
X112533390Y-102214285D02*
X112581009Y-102261904D01*
X112581009Y-102261904D02*
X112628628Y-102357142D01*
X112628628Y-102357142D02*
X112628628Y-102738094D01*
X112104819Y-101309523D02*
X112104819Y-101499999D01*
X112104819Y-101499999D02*
X112152438Y-101595237D01*
X112152438Y-101595237D02*
X112200057Y-101642856D01*
X112200057Y-101642856D02*
X112342914Y-101738094D01*
X112342914Y-101738094D02*
X112533390Y-101785713D01*
X112533390Y-101785713D02*
X112914342Y-101785713D01*
X112914342Y-101785713D02*
X113009580Y-101738094D01*
X113009580Y-101738094D02*
X113057200Y-101690475D01*
X113057200Y-101690475D02*
X113104819Y-101595237D01*
X113104819Y-101595237D02*
X113104819Y-101404761D01*
X113104819Y-101404761D02*
X113057200Y-101309523D01*
X113057200Y-101309523D02*
X113009580Y-101261904D01*
X113009580Y-101261904D02*
X112914342Y-101214285D01*
X112914342Y-101214285D02*
X112676247Y-101214285D01*
X112676247Y-101214285D02*
X112581009Y-101261904D01*
X112581009Y-101261904D02*
X112533390Y-101309523D01*
X112533390Y-101309523D02*
X112485771Y-101404761D01*
X112485771Y-101404761D02*
X112485771Y-101595237D01*
X112485771Y-101595237D02*
X112533390Y-101690475D01*
X112533390Y-101690475D02*
X112581009Y-101738094D01*
X112581009Y-101738094D02*
X112676247Y-101785713D01*
D14*
X109838633Y-102515095D02*
X109838633Y-102941380D01*
X109838633Y-102728237D02*
X109092633Y-102728237D01*
X109092633Y-102728237D02*
X109199205Y-102799285D01*
X109199205Y-102799285D02*
X109270252Y-102870333D01*
X109270252Y-102870333D02*
X109305776Y-102941380D01*
X109838633Y-102195380D02*
X109092633Y-102195380D01*
X109554443Y-102124333D02*
X109838633Y-101911190D01*
X109341300Y-101911190D02*
X109625490Y-102195380D01*
X109838633Y-101626999D02*
X109838633Y-101449380D01*
X109838633Y-101449380D02*
X109696538Y-101449380D01*
X109696538Y-101449380D02*
X109661014Y-101520428D01*
X109661014Y-101520428D02*
X109589967Y-101591475D01*
X109589967Y-101591475D02*
X109483395Y-101626999D01*
X109483395Y-101626999D02*
X109305776Y-101626999D01*
X109305776Y-101626999D02*
X109199205Y-101591475D01*
X109199205Y-101591475D02*
X109128157Y-101520428D01*
X109128157Y-101520428D02*
X109092633Y-101413856D01*
X109092633Y-101413856D02*
X109092633Y-101271761D01*
X109092633Y-101271761D02*
X109128157Y-101165190D01*
X109128157Y-101165190D02*
X109199205Y-101094142D01*
X109199205Y-101094142D02*
X109305776Y-101058618D01*
X109305776Y-101058618D02*
X109483395Y-101058618D01*
X109483395Y-101058618D02*
X109589967Y-101094142D01*
X109589967Y-101094142D02*
X109661014Y-101165190D01*
X109661014Y-101165190D02*
X109696538Y-101236237D01*
X109696538Y-101236237D02*
X109838633Y-101236237D01*
X109838633Y-101236237D02*
X109838633Y-101058618D01*
D12*
X118133333Y-80804819D02*
X117800000Y-80328628D01*
X117561905Y-80804819D02*
X117561905Y-79804819D01*
X117561905Y-79804819D02*
X117942857Y-79804819D01*
X117942857Y-79804819D02*
X118038095Y-79852438D01*
X118038095Y-79852438D02*
X118085714Y-79900057D01*
X118085714Y-79900057D02*
X118133333Y-79995295D01*
X118133333Y-79995295D02*
X118133333Y-80138152D01*
X118133333Y-80138152D02*
X118085714Y-80233390D01*
X118085714Y-80233390D02*
X118038095Y-80281009D01*
X118038095Y-80281009D02*
X117942857Y-80328628D01*
X117942857Y-80328628D02*
X117561905Y-80328628D01*
X119038095Y-79804819D02*
X118561905Y-79804819D01*
X118561905Y-79804819D02*
X118514286Y-80281009D01*
X118514286Y-80281009D02*
X118561905Y-80233390D01*
X118561905Y-80233390D02*
X118657143Y-80185771D01*
X118657143Y-80185771D02*
X118895238Y-80185771D01*
X118895238Y-80185771D02*
X118990476Y-80233390D01*
X118990476Y-80233390D02*
X119038095Y-80281009D01*
X119038095Y-80281009D02*
X119085714Y-80376247D01*
X119085714Y-80376247D02*
X119085714Y-80614342D01*
X119085714Y-80614342D02*
X119038095Y-80709580D01*
X119038095Y-80709580D02*
X118990476Y-80757200D01*
X118990476Y-80757200D02*
X118895238Y-80804819D01*
X118895238Y-80804819D02*
X118657143Y-80804819D01*
X118657143Y-80804819D02*
X118561905Y-80757200D01*
X118561905Y-80757200D02*
X118514286Y-80709580D01*
X117609523Y-84104819D02*
X117038095Y-84104819D01*
X117323809Y-84104819D02*
X117323809Y-83104819D01*
X117323809Y-83104819D02*
X117228571Y-83247676D01*
X117228571Y-83247676D02*
X117133333Y-83342914D01*
X117133333Y-83342914D02*
X117038095Y-83390533D01*
X118038095Y-84104819D02*
X118038095Y-83104819D01*
X118133333Y-83723866D02*
X118419047Y-84104819D01*
X118419047Y-83438152D02*
X118038095Y-83819104D01*
X118800000Y-84104819D02*
X119038095Y-84104819D01*
X119038095Y-84104819D02*
X119038095Y-83914342D01*
X119038095Y-83914342D02*
X118942857Y-83866723D01*
X118942857Y-83866723D02*
X118847619Y-83771485D01*
X118847619Y-83771485D02*
X118800000Y-83628628D01*
X118800000Y-83628628D02*
X118800000Y-83390533D01*
X118800000Y-83390533D02*
X118847619Y-83247676D01*
X118847619Y-83247676D02*
X118942857Y-83152438D01*
X118942857Y-83152438D02*
X119085714Y-83104819D01*
X119085714Y-83104819D02*
X119276190Y-83104819D01*
X119276190Y-83104819D02*
X119419047Y-83152438D01*
X119419047Y-83152438D02*
X119514285Y-83247676D01*
X119514285Y-83247676D02*
X119561904Y-83390533D01*
X119561904Y-83390533D02*
X119561904Y-83628628D01*
X119561904Y-83628628D02*
X119514285Y-83771485D01*
X119514285Y-83771485D02*
X119419047Y-83866723D01*
X119419047Y-83866723D02*
X119323809Y-83914342D01*
X119323809Y-83914342D02*
X119323809Y-84104819D01*
X119323809Y-84104819D02*
X119561904Y-84104819D01*
X109734819Y-53829523D02*
X110449104Y-53829523D01*
X110449104Y-53829523D02*
X110591961Y-53877142D01*
X110591961Y-53877142D02*
X110687200Y-53972380D01*
X110687200Y-53972380D02*
X110734819Y-54115237D01*
X110734819Y-54115237D02*
X110734819Y-54210475D01*
X110734819Y-52829523D02*
X110734819Y-53400951D01*
X110734819Y-53115237D02*
X109734819Y-53115237D01*
X109734819Y-53115237D02*
X109877676Y-53210475D01*
X109877676Y-53210475D02*
X109972914Y-53305713D01*
X109972914Y-53305713D02*
X110020533Y-53400951D01*
X110734819Y-51877142D02*
X110734819Y-52448570D01*
X110734819Y-52162856D02*
X109734819Y-52162856D01*
X109734819Y-52162856D02*
X109877676Y-52258094D01*
X109877676Y-52258094D02*
X109972914Y-52353332D01*
X109972914Y-52353332D02*
X110020533Y-52448570D01*
D13*
X100300705Y-69306696D02*
X100300705Y-69878124D01*
X99300705Y-69592410D02*
X100300705Y-69592410D01*
X99348325Y-70592410D02*
X99300705Y-70497172D01*
X99300705Y-70497172D02*
X99300705Y-70306696D01*
X99300705Y-70306696D02*
X99348325Y-70211458D01*
X99348325Y-70211458D02*
X99443563Y-70163839D01*
X99443563Y-70163839D02*
X99824515Y-70163839D01*
X99824515Y-70163839D02*
X99919753Y-70211458D01*
X99919753Y-70211458D02*
X99967372Y-70306696D01*
X99967372Y-70306696D02*
X99967372Y-70497172D01*
X99967372Y-70497172D02*
X99919753Y-70592410D01*
X99919753Y-70592410D02*
X99824515Y-70640029D01*
X99824515Y-70640029D02*
X99729277Y-70640029D01*
X99729277Y-70640029D02*
X99634039Y-70163839D01*
X99348325Y-71449553D02*
X99300705Y-71354315D01*
X99300705Y-71354315D02*
X99300705Y-71163839D01*
X99300705Y-71163839D02*
X99348325Y-71068601D01*
X99348325Y-71068601D02*
X99443563Y-71020982D01*
X99443563Y-71020982D02*
X99824515Y-71020982D01*
X99824515Y-71020982D02*
X99919753Y-71068601D01*
X99919753Y-71068601D02*
X99967372Y-71163839D01*
X99967372Y-71163839D02*
X99967372Y-71354315D01*
X99967372Y-71354315D02*
X99919753Y-71449553D01*
X99919753Y-71449553D02*
X99824515Y-71497172D01*
X99824515Y-71497172D02*
X99729277Y-71497172D01*
X99729277Y-71497172D02*
X99634039Y-71020982D01*
X99967372Y-71925744D02*
X99300705Y-71925744D01*
X99872134Y-71925744D02*
X99919753Y-71973363D01*
X99919753Y-71973363D02*
X99967372Y-72068601D01*
X99967372Y-72068601D02*
X99967372Y-72211458D01*
X99967372Y-72211458D02*
X99919753Y-72306696D01*
X99919753Y-72306696D02*
X99824515Y-72354315D01*
X99824515Y-72354315D02*
X99300705Y-72354315D01*
X99348325Y-72782887D02*
X99300705Y-72878125D01*
X99300705Y-72878125D02*
X99300705Y-73068601D01*
X99300705Y-73068601D02*
X99348325Y-73163839D01*
X99348325Y-73163839D02*
X99443563Y-73211458D01*
X99443563Y-73211458D02*
X99491182Y-73211458D01*
X99491182Y-73211458D02*
X99586420Y-73163839D01*
X99586420Y-73163839D02*
X99634039Y-73068601D01*
X99634039Y-73068601D02*
X99634039Y-72925744D01*
X99634039Y-72925744D02*
X99681658Y-72830506D01*
X99681658Y-72830506D02*
X99776896Y-72782887D01*
X99776896Y-72782887D02*
X99824515Y-72782887D01*
X99824515Y-72782887D02*
X99919753Y-72830506D01*
X99919753Y-72830506D02*
X99967372Y-72925744D01*
X99967372Y-72925744D02*
X99967372Y-73068601D01*
X99967372Y-73068601D02*
X99919753Y-73163839D01*
X99967372Y-73544792D02*
X99300705Y-73782887D01*
X99967372Y-74020982D02*
X99300705Y-73782887D01*
X99300705Y-73782887D02*
X99062610Y-73687649D01*
X99062610Y-73687649D02*
X99014991Y-73640030D01*
X99014991Y-73640030D02*
X98967372Y-73544792D01*
X99967372Y-74830506D02*
X99300705Y-74830506D01*
X100348325Y-74592411D02*
X99634039Y-74354316D01*
X99634039Y-74354316D02*
X99634039Y-74973363D01*
X99395944Y-75354316D02*
X99348325Y-75401935D01*
X99348325Y-75401935D02*
X99300705Y-75354316D01*
X99300705Y-75354316D02*
X99348325Y-75306697D01*
X99348325Y-75306697D02*
X99395944Y-75354316D01*
X99395944Y-75354316D02*
X99300705Y-75354316D01*
X100205467Y-75782887D02*
X100253086Y-75830506D01*
X100253086Y-75830506D02*
X100300705Y-75925744D01*
X100300705Y-75925744D02*
X100300705Y-76163839D01*
X100300705Y-76163839D02*
X100253086Y-76259077D01*
X100253086Y-76259077D02*
X100205467Y-76306696D01*
X100205467Y-76306696D02*
X100110229Y-76354315D01*
X100110229Y-76354315D02*
X100014991Y-76354315D01*
X100014991Y-76354315D02*
X99872134Y-76306696D01*
X99872134Y-76306696D02*
X99300705Y-75735268D01*
X99300705Y-75735268D02*
X99300705Y-76354315D01*
X93712009Y-78330544D02*
X93712009Y-77330544D01*
X93712009Y-77330544D02*
X94045342Y-78044829D01*
X94045342Y-78044829D02*
X94378675Y-77330544D01*
X94378675Y-77330544D02*
X94378675Y-78330544D01*
X94854866Y-78330544D02*
X94854866Y-77330544D01*
X95283437Y-78282925D02*
X95426294Y-78330544D01*
X95426294Y-78330544D02*
X95664389Y-78330544D01*
X95664389Y-78330544D02*
X95759627Y-78282925D01*
X95759627Y-78282925D02*
X95807246Y-78235305D01*
X95807246Y-78235305D02*
X95854865Y-78140067D01*
X95854865Y-78140067D02*
X95854865Y-78044829D01*
X95854865Y-78044829D02*
X95807246Y-77949591D01*
X95807246Y-77949591D02*
X95759627Y-77901972D01*
X95759627Y-77901972D02*
X95664389Y-77854353D01*
X95664389Y-77854353D02*
X95473913Y-77806734D01*
X95473913Y-77806734D02*
X95378675Y-77759115D01*
X95378675Y-77759115D02*
X95331056Y-77711496D01*
X95331056Y-77711496D02*
X95283437Y-77616258D01*
X95283437Y-77616258D02*
X95283437Y-77521020D01*
X95283437Y-77521020D02*
X95331056Y-77425782D01*
X95331056Y-77425782D02*
X95378675Y-77378163D01*
X95378675Y-77378163D02*
X95473913Y-77330544D01*
X95473913Y-77330544D02*
X95712008Y-77330544D01*
X95712008Y-77330544D02*
X95854865Y-77378163D01*
X96473913Y-77330544D02*
X96664389Y-77330544D01*
X96664389Y-77330544D02*
X96759627Y-77378163D01*
X96759627Y-77378163D02*
X96854865Y-77473401D01*
X96854865Y-77473401D02*
X96902484Y-77663877D01*
X96902484Y-77663877D02*
X96902484Y-77997210D01*
X96902484Y-77997210D02*
X96854865Y-78187686D01*
X96854865Y-78187686D02*
X96759627Y-78282925D01*
X96759627Y-78282925D02*
X96664389Y-78330544D01*
X96664389Y-78330544D02*
X96473913Y-78330544D01*
X96473913Y-78330544D02*
X96378675Y-78282925D01*
X96378675Y-78282925D02*
X96283437Y-78187686D01*
X96283437Y-78187686D02*
X96235818Y-77997210D01*
X96235818Y-77997210D02*
X96235818Y-77663877D01*
X96235818Y-77663877D02*
X96283437Y-77473401D01*
X96283437Y-77473401D02*
X96378675Y-77378163D01*
X96378675Y-77378163D02*
X96473913Y-77330544D01*
X102506771Y-49390544D02*
X103125818Y-49390544D01*
X103125818Y-49390544D02*
X102792485Y-49771496D01*
X102792485Y-49771496D02*
X102935342Y-49771496D01*
X102935342Y-49771496D02*
X103030580Y-49819115D01*
X103030580Y-49819115D02*
X103078199Y-49866734D01*
X103078199Y-49866734D02*
X103125818Y-49961972D01*
X103125818Y-49961972D02*
X103125818Y-50200067D01*
X103125818Y-50200067D02*
X103078199Y-50295305D01*
X103078199Y-50295305D02*
X103030580Y-50342925D01*
X103030580Y-50342925D02*
X102935342Y-50390544D01*
X102935342Y-50390544D02*
X102649628Y-50390544D01*
X102649628Y-50390544D02*
X102554390Y-50342925D01*
X102554390Y-50342925D02*
X102506771Y-50295305D01*
X103554390Y-50295305D02*
X103602009Y-50342925D01*
X103602009Y-50342925D02*
X103554390Y-50390544D01*
X103554390Y-50390544D02*
X103506771Y-50342925D01*
X103506771Y-50342925D02*
X103554390Y-50295305D01*
X103554390Y-50295305D02*
X103554390Y-50390544D01*
X103935342Y-49390544D02*
X104554389Y-49390544D01*
X104554389Y-49390544D02*
X104221056Y-49771496D01*
X104221056Y-49771496D02*
X104363913Y-49771496D01*
X104363913Y-49771496D02*
X104459151Y-49819115D01*
X104459151Y-49819115D02*
X104506770Y-49866734D01*
X104506770Y-49866734D02*
X104554389Y-49961972D01*
X104554389Y-49961972D02*
X104554389Y-50200067D01*
X104554389Y-50200067D02*
X104506770Y-50295305D01*
X104506770Y-50295305D02*
X104459151Y-50342925D01*
X104459151Y-50342925D02*
X104363913Y-50390544D01*
X104363913Y-50390544D02*
X104078199Y-50390544D01*
X104078199Y-50390544D02*
X103982961Y-50342925D01*
X103982961Y-50342925D02*
X103935342Y-50295305D01*
X104840104Y-49390544D02*
X105173437Y-50390544D01*
X105173437Y-50390544D02*
X105506770Y-49390544D01*
X93712009Y-58010544D02*
X93712009Y-57010544D01*
X93712009Y-57010544D02*
X94092961Y-57010544D01*
X94092961Y-57010544D02*
X94188199Y-57058163D01*
X94188199Y-57058163D02*
X94235818Y-57105782D01*
X94235818Y-57105782D02*
X94283437Y-57201020D01*
X94283437Y-57201020D02*
X94283437Y-57343877D01*
X94283437Y-57343877D02*
X94235818Y-57439115D01*
X94235818Y-57439115D02*
X94188199Y-57486734D01*
X94188199Y-57486734D02*
X94092961Y-57534353D01*
X94092961Y-57534353D02*
X93712009Y-57534353D01*
X94616771Y-57010544D02*
X94854866Y-58010544D01*
X94854866Y-58010544D02*
X95045342Y-57296258D01*
X95045342Y-57296258D02*
X95235818Y-58010544D01*
X95235818Y-58010544D02*
X95473914Y-57010544D01*
X95854866Y-58010544D02*
X95854866Y-57010544D01*
X95854866Y-57010544D02*
X96188199Y-57724829D01*
X96188199Y-57724829D02*
X96521532Y-57010544D01*
X96521532Y-57010544D02*
X96521532Y-58010544D01*
X94283437Y-47850544D02*
X93950104Y-47374353D01*
X93712009Y-47850544D02*
X93712009Y-46850544D01*
X93712009Y-46850544D02*
X94092961Y-46850544D01*
X94092961Y-46850544D02*
X94188199Y-46898163D01*
X94188199Y-46898163D02*
X94235818Y-46945782D01*
X94235818Y-46945782D02*
X94283437Y-47041020D01*
X94283437Y-47041020D02*
X94283437Y-47183877D01*
X94283437Y-47183877D02*
X94235818Y-47279115D01*
X94235818Y-47279115D02*
X94188199Y-47326734D01*
X94188199Y-47326734D02*
X94092961Y-47374353D01*
X94092961Y-47374353D02*
X93712009Y-47374353D01*
X94616771Y-46850544D02*
X95283437Y-47850544D01*
X95283437Y-46850544D02*
X94616771Y-47850544D01*
X96188199Y-47850544D02*
X95616771Y-47850544D01*
X95902485Y-47850544D02*
X95902485Y-46850544D01*
X95902485Y-46850544D02*
X95807247Y-46993401D01*
X95807247Y-46993401D02*
X95712009Y-47088639D01*
X95712009Y-47088639D02*
X95616771Y-47136258D01*
X99627580Y-48053884D02*
X98818057Y-48053884D01*
X98818057Y-48053884D02*
X98722819Y-48101503D01*
X98722819Y-48101503D02*
X98675200Y-48149122D01*
X98675200Y-48149122D02*
X98627580Y-48244360D01*
X98627580Y-48244360D02*
X98627580Y-48434836D01*
X98627580Y-48434836D02*
X98675200Y-48530074D01*
X98675200Y-48530074D02*
X98722819Y-48577693D01*
X98722819Y-48577693D02*
X98818057Y-48625312D01*
X98818057Y-48625312D02*
X99627580Y-48625312D01*
X98675200Y-49053884D02*
X98627580Y-49196741D01*
X98627580Y-49196741D02*
X98627580Y-49434836D01*
X98627580Y-49434836D02*
X98675200Y-49530074D01*
X98675200Y-49530074D02*
X98722819Y-49577693D01*
X98722819Y-49577693D02*
X98818057Y-49625312D01*
X98818057Y-49625312D02*
X98913295Y-49625312D01*
X98913295Y-49625312D02*
X99008533Y-49577693D01*
X99008533Y-49577693D02*
X99056152Y-49530074D01*
X99056152Y-49530074D02*
X99103771Y-49434836D01*
X99103771Y-49434836D02*
X99151390Y-49244360D01*
X99151390Y-49244360D02*
X99199009Y-49149122D01*
X99199009Y-49149122D02*
X99246628Y-49101503D01*
X99246628Y-49101503D02*
X99341866Y-49053884D01*
X99341866Y-49053884D02*
X99437104Y-49053884D01*
X99437104Y-49053884D02*
X99532342Y-49101503D01*
X99532342Y-49101503D02*
X99579961Y-49149122D01*
X99579961Y-49149122D02*
X99627580Y-49244360D01*
X99627580Y-49244360D02*
X99627580Y-49482455D01*
X99627580Y-49482455D02*
X99579961Y-49625312D01*
X99151390Y-50387217D02*
X99103771Y-50530074D01*
X99103771Y-50530074D02*
X99056152Y-50577693D01*
X99056152Y-50577693D02*
X98960914Y-50625312D01*
X98960914Y-50625312D02*
X98818057Y-50625312D01*
X98818057Y-50625312D02*
X98722819Y-50577693D01*
X98722819Y-50577693D02*
X98675200Y-50530074D01*
X98675200Y-50530074D02*
X98627580Y-50434836D01*
X98627580Y-50434836D02*
X98627580Y-50053884D01*
X98627580Y-50053884D02*
X99627580Y-50053884D01*
X99627580Y-50053884D02*
X99627580Y-50387217D01*
X99627580Y-50387217D02*
X99579961Y-50482455D01*
X99579961Y-50482455D02*
X99532342Y-50530074D01*
X99532342Y-50530074D02*
X99437104Y-50577693D01*
X99437104Y-50577693D02*
X99341866Y-50577693D01*
X99341866Y-50577693D02*
X99246628Y-50530074D01*
X99246628Y-50530074D02*
X99199009Y-50482455D01*
X99199009Y-50482455D02*
X99151390Y-50387217D01*
X99151390Y-50387217D02*
X99151390Y-50053884D01*
X98722819Y-52387217D02*
X98675200Y-52339598D01*
X98675200Y-52339598D02*
X98627580Y-52196741D01*
X98627580Y-52196741D02*
X98627580Y-52101503D01*
X98627580Y-52101503D02*
X98675200Y-51958646D01*
X98675200Y-51958646D02*
X98770438Y-51863408D01*
X98770438Y-51863408D02*
X98865676Y-51815789D01*
X98865676Y-51815789D02*
X99056152Y-51768170D01*
X99056152Y-51768170D02*
X99199009Y-51768170D01*
X99199009Y-51768170D02*
X99389485Y-51815789D01*
X99389485Y-51815789D02*
X99484723Y-51863408D01*
X99484723Y-51863408D02*
X99579961Y-51958646D01*
X99579961Y-51958646D02*
X99627580Y-52101503D01*
X99627580Y-52101503D02*
X99627580Y-52196741D01*
X99627580Y-52196741D02*
X99579961Y-52339598D01*
X99579961Y-52339598D02*
X99532342Y-52387217D01*
X98627580Y-91803884D02*
X99627580Y-91803884D01*
X99627580Y-91803884D02*
X98913295Y-92137217D01*
X98913295Y-92137217D02*
X99627580Y-92470550D01*
X99627580Y-92470550D02*
X98627580Y-92470550D01*
X98627580Y-92946741D02*
X99627580Y-92946741D01*
X98722819Y-93994359D02*
X98675200Y-93946740D01*
X98675200Y-93946740D02*
X98627580Y-93803883D01*
X98627580Y-93803883D02*
X98627580Y-93708645D01*
X98627580Y-93708645D02*
X98675200Y-93565788D01*
X98675200Y-93565788D02*
X98770438Y-93470550D01*
X98770438Y-93470550D02*
X98865676Y-93422931D01*
X98865676Y-93422931D02*
X99056152Y-93375312D01*
X99056152Y-93375312D02*
X99199009Y-93375312D01*
X99199009Y-93375312D02*
X99389485Y-93422931D01*
X99389485Y-93422931D02*
X99484723Y-93470550D01*
X99484723Y-93470550D02*
X99579961Y-93565788D01*
X99579961Y-93565788D02*
X99627580Y-93708645D01*
X99627580Y-93708645D02*
X99627580Y-93803883D01*
X99627580Y-93803883D02*
X99579961Y-93946740D01*
X99579961Y-93946740D02*
X99532342Y-93994359D01*
X98627580Y-94994359D02*
X99103771Y-94661026D01*
X98627580Y-94422931D02*
X99627580Y-94422931D01*
X99627580Y-94422931D02*
X99627580Y-94803883D01*
X99627580Y-94803883D02*
X99579961Y-94899121D01*
X99579961Y-94899121D02*
X99532342Y-94946740D01*
X99532342Y-94946740D02*
X99437104Y-94994359D01*
X99437104Y-94994359D02*
X99294247Y-94994359D01*
X99294247Y-94994359D02*
X99199009Y-94946740D01*
X99199009Y-94946740D02*
X99151390Y-94899121D01*
X99151390Y-94899121D02*
X99103771Y-94803883D01*
X99103771Y-94803883D02*
X99103771Y-94422931D01*
X99627580Y-95613407D02*
X99627580Y-95803883D01*
X99627580Y-95803883D02*
X99579961Y-95899121D01*
X99579961Y-95899121D02*
X99484723Y-95994359D01*
X99484723Y-95994359D02*
X99294247Y-96041978D01*
X99294247Y-96041978D02*
X98960914Y-96041978D01*
X98960914Y-96041978D02*
X98770438Y-95994359D01*
X98770438Y-95994359D02*
X98675200Y-95899121D01*
X98675200Y-95899121D02*
X98627580Y-95803883D01*
X98627580Y-95803883D02*
X98627580Y-95613407D01*
X98627580Y-95613407D02*
X98675200Y-95518169D01*
X98675200Y-95518169D02*
X98770438Y-95422931D01*
X98770438Y-95422931D02*
X98960914Y-95375312D01*
X98960914Y-95375312D02*
X99294247Y-95375312D01*
X99294247Y-95375312D02*
X99484723Y-95422931D01*
X99484723Y-95422931D02*
X99579961Y-95518169D01*
X99579961Y-95518169D02*
X99627580Y-95613407D01*
X98675200Y-97184836D02*
X98627580Y-97327693D01*
X98627580Y-97327693D02*
X98627580Y-97565788D01*
X98627580Y-97565788D02*
X98675200Y-97661026D01*
X98675200Y-97661026D02*
X98722819Y-97708645D01*
X98722819Y-97708645D02*
X98818057Y-97756264D01*
X98818057Y-97756264D02*
X98913295Y-97756264D01*
X98913295Y-97756264D02*
X99008533Y-97708645D01*
X99008533Y-97708645D02*
X99056152Y-97661026D01*
X99056152Y-97661026D02*
X99103771Y-97565788D01*
X99103771Y-97565788D02*
X99151390Y-97375312D01*
X99151390Y-97375312D02*
X99199009Y-97280074D01*
X99199009Y-97280074D02*
X99246628Y-97232455D01*
X99246628Y-97232455D02*
X99341866Y-97184836D01*
X99341866Y-97184836D02*
X99437104Y-97184836D01*
X99437104Y-97184836D02*
X99532342Y-97232455D01*
X99532342Y-97232455D02*
X99579961Y-97280074D01*
X99579961Y-97280074D02*
X99627580Y-97375312D01*
X99627580Y-97375312D02*
X99627580Y-97613407D01*
X99627580Y-97613407D02*
X99579961Y-97756264D01*
X98627580Y-98184836D02*
X99627580Y-98184836D01*
X99627580Y-98184836D02*
X99627580Y-98422931D01*
X99627580Y-98422931D02*
X99579961Y-98565788D01*
X99579961Y-98565788D02*
X99484723Y-98661026D01*
X99484723Y-98661026D02*
X99389485Y-98708645D01*
X99389485Y-98708645D02*
X99199009Y-98756264D01*
X99199009Y-98756264D02*
X99056152Y-98756264D01*
X99056152Y-98756264D02*
X98865676Y-98708645D01*
X98865676Y-98708645D02*
X98770438Y-98661026D01*
X98770438Y-98661026D02*
X98675200Y-98565788D01*
X98675200Y-98565788D02*
X98627580Y-98422931D01*
X98627580Y-98422931D02*
X98627580Y-98184836D01*
X94235818Y-97698163D02*
X94140580Y-97650544D01*
X94140580Y-97650544D02*
X93997723Y-97650544D01*
X93997723Y-97650544D02*
X93854866Y-97698163D01*
X93854866Y-97698163D02*
X93759628Y-97793401D01*
X93759628Y-97793401D02*
X93712009Y-97888639D01*
X93712009Y-97888639D02*
X93664390Y-98079115D01*
X93664390Y-98079115D02*
X93664390Y-98221972D01*
X93664390Y-98221972D02*
X93712009Y-98412448D01*
X93712009Y-98412448D02*
X93759628Y-98507686D01*
X93759628Y-98507686D02*
X93854866Y-98602925D01*
X93854866Y-98602925D02*
X93997723Y-98650544D01*
X93997723Y-98650544D02*
X94092961Y-98650544D01*
X94092961Y-98650544D02*
X94235818Y-98602925D01*
X94235818Y-98602925D02*
X94283437Y-98555305D01*
X94283437Y-98555305D02*
X94283437Y-98221972D01*
X94283437Y-98221972D02*
X94092961Y-98221972D01*
X94712009Y-98650544D02*
X94712009Y-97650544D01*
X94712009Y-97650544D02*
X95092961Y-97650544D01*
X95092961Y-97650544D02*
X95188199Y-97698163D01*
X95188199Y-97698163D02*
X95235818Y-97745782D01*
X95235818Y-97745782D02*
X95283437Y-97841020D01*
X95283437Y-97841020D02*
X95283437Y-97983877D01*
X95283437Y-97983877D02*
X95235818Y-98079115D01*
X95235818Y-98079115D02*
X95188199Y-98126734D01*
X95188199Y-98126734D02*
X95092961Y-98174353D01*
X95092961Y-98174353D02*
X94712009Y-98174353D01*
X95712009Y-98650544D02*
X95712009Y-97650544D01*
X96378675Y-97650544D02*
X96569151Y-97650544D01*
X96569151Y-97650544D02*
X96664389Y-97698163D01*
X96664389Y-97698163D02*
X96759627Y-97793401D01*
X96759627Y-97793401D02*
X96807246Y-97983877D01*
X96807246Y-97983877D02*
X96807246Y-98317210D01*
X96807246Y-98317210D02*
X96759627Y-98507686D01*
X96759627Y-98507686D02*
X96664389Y-98602925D01*
X96664389Y-98602925D02*
X96569151Y-98650544D01*
X96569151Y-98650544D02*
X96378675Y-98650544D01*
X96378675Y-98650544D02*
X96283437Y-98602925D01*
X96283437Y-98602925D02*
X96188199Y-98507686D01*
X96188199Y-98507686D02*
X96140580Y-98317210D01*
X96140580Y-98317210D02*
X96140580Y-97983877D01*
X96140580Y-97983877D02*
X96188199Y-97793401D01*
X96188199Y-97793401D02*
X96283437Y-97698163D01*
X96283437Y-97698163D02*
X96378675Y-97650544D01*
X102554390Y-63042925D02*
X102697247Y-63090544D01*
X102697247Y-63090544D02*
X102935342Y-63090544D01*
X102935342Y-63090544D02*
X103030580Y-63042925D01*
X103030580Y-63042925D02*
X103078199Y-62995305D01*
X103078199Y-62995305D02*
X103125818Y-62900067D01*
X103125818Y-62900067D02*
X103125818Y-62804829D01*
X103125818Y-62804829D02*
X103078199Y-62709591D01*
X103078199Y-62709591D02*
X103030580Y-62661972D01*
X103030580Y-62661972D02*
X102935342Y-62614353D01*
X102935342Y-62614353D02*
X102744866Y-62566734D01*
X102744866Y-62566734D02*
X102649628Y-62519115D01*
X102649628Y-62519115D02*
X102602009Y-62471496D01*
X102602009Y-62471496D02*
X102554390Y-62376258D01*
X102554390Y-62376258D02*
X102554390Y-62281020D01*
X102554390Y-62281020D02*
X102602009Y-62185782D01*
X102602009Y-62185782D02*
X102649628Y-62138163D01*
X102649628Y-62138163D02*
X102744866Y-62090544D01*
X102744866Y-62090544D02*
X102982961Y-62090544D01*
X102982961Y-62090544D02*
X103125818Y-62138163D01*
X104125818Y-62995305D02*
X104078199Y-63042925D01*
X104078199Y-63042925D02*
X103935342Y-63090544D01*
X103935342Y-63090544D02*
X103840104Y-63090544D01*
X103840104Y-63090544D02*
X103697247Y-63042925D01*
X103697247Y-63042925D02*
X103602009Y-62947686D01*
X103602009Y-62947686D02*
X103554390Y-62852448D01*
X103554390Y-62852448D02*
X103506771Y-62661972D01*
X103506771Y-62661972D02*
X103506771Y-62519115D01*
X103506771Y-62519115D02*
X103554390Y-62328639D01*
X103554390Y-62328639D02*
X103602009Y-62233401D01*
X103602009Y-62233401D02*
X103697247Y-62138163D01*
X103697247Y-62138163D02*
X103840104Y-62090544D01*
X103840104Y-62090544D02*
X103935342Y-62090544D01*
X103935342Y-62090544D02*
X104078199Y-62138163D01*
X104078199Y-62138163D02*
X104125818Y-62185782D01*
X105030580Y-63090544D02*
X104554390Y-63090544D01*
X104554390Y-63090544D02*
X104554390Y-62090544D01*
X102554390Y-83124829D02*
X103030580Y-83124829D01*
X102459152Y-83410544D02*
X102792485Y-82410544D01*
X102792485Y-82410544D02*
X103125818Y-83410544D01*
X103982961Y-83410544D02*
X103411533Y-83410544D01*
X103697247Y-83410544D02*
X103697247Y-82410544D01*
X103697247Y-82410544D02*
X103602009Y-82553401D01*
X103602009Y-82553401D02*
X103506771Y-82648639D01*
X103506771Y-82648639D02*
X103411533Y-82696258D01*
X104316295Y-82410544D02*
X104982961Y-82410544D01*
X104982961Y-82410544D02*
X104554390Y-83410544D01*
X102554390Y-65582925D02*
X102697247Y-65630544D01*
X102697247Y-65630544D02*
X102935342Y-65630544D01*
X102935342Y-65630544D02*
X103030580Y-65582925D01*
X103030580Y-65582925D02*
X103078199Y-65535305D01*
X103078199Y-65535305D02*
X103125818Y-65440067D01*
X103125818Y-65440067D02*
X103125818Y-65344829D01*
X103125818Y-65344829D02*
X103078199Y-65249591D01*
X103078199Y-65249591D02*
X103030580Y-65201972D01*
X103030580Y-65201972D02*
X102935342Y-65154353D01*
X102935342Y-65154353D02*
X102744866Y-65106734D01*
X102744866Y-65106734D02*
X102649628Y-65059115D01*
X102649628Y-65059115D02*
X102602009Y-65011496D01*
X102602009Y-65011496D02*
X102554390Y-64916258D01*
X102554390Y-64916258D02*
X102554390Y-64821020D01*
X102554390Y-64821020D02*
X102602009Y-64725782D01*
X102602009Y-64725782D02*
X102649628Y-64678163D01*
X102649628Y-64678163D02*
X102744866Y-64630544D01*
X102744866Y-64630544D02*
X102982961Y-64630544D01*
X102982961Y-64630544D02*
X103125818Y-64678163D01*
X103554390Y-65630544D02*
X103554390Y-64630544D01*
X103554390Y-64630544D02*
X103792485Y-64630544D01*
X103792485Y-64630544D02*
X103935342Y-64678163D01*
X103935342Y-64678163D02*
X104030580Y-64773401D01*
X104030580Y-64773401D02*
X104078199Y-64868639D01*
X104078199Y-64868639D02*
X104125818Y-65059115D01*
X104125818Y-65059115D02*
X104125818Y-65201972D01*
X104125818Y-65201972D02*
X104078199Y-65392448D01*
X104078199Y-65392448D02*
X104030580Y-65487686D01*
X104030580Y-65487686D02*
X103935342Y-65582925D01*
X103935342Y-65582925D02*
X103792485Y-65630544D01*
X103792485Y-65630544D02*
X103554390Y-65630544D01*
X104506771Y-65344829D02*
X104982961Y-65344829D01*
X104411533Y-65630544D02*
X104744866Y-64630544D01*
X104744866Y-64630544D02*
X105078199Y-65630544D01*
X102554390Y-75504829D02*
X103030580Y-75504829D01*
X102459152Y-75790544D02*
X102792485Y-74790544D01*
X102792485Y-74790544D02*
X103125818Y-75790544D01*
X103649628Y-74790544D02*
X103744866Y-74790544D01*
X103744866Y-74790544D02*
X103840104Y-74838163D01*
X103840104Y-74838163D02*
X103887723Y-74885782D01*
X103887723Y-74885782D02*
X103935342Y-74981020D01*
X103935342Y-74981020D02*
X103982961Y-75171496D01*
X103982961Y-75171496D02*
X103982961Y-75409591D01*
X103982961Y-75409591D02*
X103935342Y-75600067D01*
X103935342Y-75600067D02*
X103887723Y-75695305D01*
X103887723Y-75695305D02*
X103840104Y-75742925D01*
X103840104Y-75742925D02*
X103744866Y-75790544D01*
X103744866Y-75790544D02*
X103649628Y-75790544D01*
X103649628Y-75790544D02*
X103554390Y-75742925D01*
X103554390Y-75742925D02*
X103506771Y-75695305D01*
X103506771Y-75695305D02*
X103459152Y-75600067D01*
X103459152Y-75600067D02*
X103411533Y-75409591D01*
X103411533Y-75409591D02*
X103411533Y-75171496D01*
X103411533Y-75171496D02*
X103459152Y-74981020D01*
X103459152Y-74981020D02*
X103506771Y-74885782D01*
X103506771Y-74885782D02*
X103554390Y-74838163D01*
X103554390Y-74838163D02*
X103649628Y-74790544D01*
X93712009Y-70710544D02*
X93712009Y-69710544D01*
X93712009Y-69710544D02*
X94092961Y-69710544D01*
X94092961Y-69710544D02*
X94188199Y-69758163D01*
X94188199Y-69758163D02*
X94235818Y-69805782D01*
X94235818Y-69805782D02*
X94283437Y-69901020D01*
X94283437Y-69901020D02*
X94283437Y-70043877D01*
X94283437Y-70043877D02*
X94235818Y-70139115D01*
X94235818Y-70139115D02*
X94188199Y-70186734D01*
X94188199Y-70186734D02*
X94092961Y-70234353D01*
X94092961Y-70234353D02*
X93712009Y-70234353D01*
X94616771Y-69710544D02*
X94854866Y-70710544D01*
X94854866Y-70710544D02*
X95045342Y-69996258D01*
X95045342Y-69996258D02*
X95235818Y-70710544D01*
X95235818Y-70710544D02*
X95473914Y-69710544D01*
X95854866Y-70710544D02*
X95854866Y-69710544D01*
X95854866Y-69710544D02*
X96188199Y-70424829D01*
X96188199Y-70424829D02*
X96521532Y-69710544D01*
X96521532Y-69710544D02*
X96521532Y-70710544D01*
X102602009Y-103730544D02*
X102602009Y-102730544D01*
X102602009Y-102730544D02*
X102982961Y-102730544D01*
X102982961Y-102730544D02*
X103078199Y-102778163D01*
X103078199Y-102778163D02*
X103125818Y-102825782D01*
X103125818Y-102825782D02*
X103173437Y-102921020D01*
X103173437Y-102921020D02*
X103173437Y-103063877D01*
X103173437Y-103063877D02*
X103125818Y-103159115D01*
X103125818Y-103159115D02*
X103078199Y-103206734D01*
X103078199Y-103206734D02*
X102982961Y-103254353D01*
X102982961Y-103254353D02*
X102602009Y-103254353D01*
X103506771Y-102730544D02*
X103744866Y-103730544D01*
X103744866Y-103730544D02*
X103935342Y-103016258D01*
X103935342Y-103016258D02*
X104125818Y-103730544D01*
X104125818Y-103730544D02*
X104363914Y-102730544D01*
X104744866Y-103730544D02*
X104744866Y-102730544D01*
X104744866Y-102730544D02*
X105078199Y-103444829D01*
X105078199Y-103444829D02*
X105411532Y-102730544D01*
X105411532Y-102730544D02*
X105411532Y-103730544D01*
X103125818Y-46898163D02*
X103030580Y-46850544D01*
X103030580Y-46850544D02*
X102887723Y-46850544D01*
X102887723Y-46850544D02*
X102744866Y-46898163D01*
X102744866Y-46898163D02*
X102649628Y-46993401D01*
X102649628Y-46993401D02*
X102602009Y-47088639D01*
X102602009Y-47088639D02*
X102554390Y-47279115D01*
X102554390Y-47279115D02*
X102554390Y-47421972D01*
X102554390Y-47421972D02*
X102602009Y-47612448D01*
X102602009Y-47612448D02*
X102649628Y-47707686D01*
X102649628Y-47707686D02*
X102744866Y-47802925D01*
X102744866Y-47802925D02*
X102887723Y-47850544D01*
X102887723Y-47850544D02*
X102982961Y-47850544D01*
X102982961Y-47850544D02*
X103125818Y-47802925D01*
X103125818Y-47802925D02*
X103173437Y-47755305D01*
X103173437Y-47755305D02*
X103173437Y-47421972D01*
X103173437Y-47421972D02*
X102982961Y-47421972D01*
X103602009Y-47850544D02*
X103602009Y-46850544D01*
X103602009Y-46850544D02*
X104173437Y-47850544D01*
X104173437Y-47850544D02*
X104173437Y-46850544D01*
X104649628Y-47850544D02*
X104649628Y-46850544D01*
X104649628Y-46850544D02*
X104887723Y-46850544D01*
X104887723Y-46850544D02*
X105030580Y-46898163D01*
X105030580Y-46898163D02*
X105125818Y-46993401D01*
X105125818Y-46993401D02*
X105173437Y-47088639D01*
X105173437Y-47088639D02*
X105221056Y-47279115D01*
X105221056Y-47279115D02*
X105221056Y-47421972D01*
X105221056Y-47421972D02*
X105173437Y-47612448D01*
X105173437Y-47612448D02*
X105125818Y-47707686D01*
X105125818Y-47707686D02*
X105030580Y-47802925D01*
X105030580Y-47802925D02*
X104887723Y-47850544D01*
X104887723Y-47850544D02*
X104649628Y-47850544D01*
X93569152Y-67170544D02*
X94140580Y-67170544D01*
X93854866Y-68170544D02*
X93854866Y-67170544D01*
X94378676Y-67170544D02*
X95045342Y-68170544D01*
X95045342Y-67170544D02*
X94378676Y-68170544D01*
X95378676Y-67265782D02*
X95426295Y-67218163D01*
X95426295Y-67218163D02*
X95521533Y-67170544D01*
X95521533Y-67170544D02*
X95759628Y-67170544D01*
X95759628Y-67170544D02*
X95854866Y-67218163D01*
X95854866Y-67218163D02*
X95902485Y-67265782D01*
X95902485Y-67265782D02*
X95950104Y-67361020D01*
X95950104Y-67361020D02*
X95950104Y-67456258D01*
X95950104Y-67456258D02*
X95902485Y-67599115D01*
X95902485Y-67599115D02*
X95331057Y-68170544D01*
X95331057Y-68170544D02*
X95950104Y-68170544D01*
X93712009Y-60550544D02*
X93712009Y-59550544D01*
X93712009Y-59550544D02*
X94092961Y-59550544D01*
X94092961Y-59550544D02*
X94188199Y-59598163D01*
X94188199Y-59598163D02*
X94235818Y-59645782D01*
X94235818Y-59645782D02*
X94283437Y-59741020D01*
X94283437Y-59741020D02*
X94283437Y-59883877D01*
X94283437Y-59883877D02*
X94235818Y-59979115D01*
X94235818Y-59979115D02*
X94188199Y-60026734D01*
X94188199Y-60026734D02*
X94092961Y-60074353D01*
X94092961Y-60074353D02*
X93712009Y-60074353D01*
X94616771Y-59550544D02*
X94854866Y-60550544D01*
X94854866Y-60550544D02*
X95045342Y-59836258D01*
X95045342Y-59836258D02*
X95235818Y-60550544D01*
X95235818Y-60550544D02*
X95473914Y-59550544D01*
X95854866Y-60550544D02*
X95854866Y-59550544D01*
X95854866Y-59550544D02*
X96188199Y-60264829D01*
X96188199Y-60264829D02*
X96521532Y-59550544D01*
X96521532Y-59550544D02*
X96521532Y-60550544D01*
X93712009Y-55470544D02*
X93712009Y-54470544D01*
X93712009Y-54470544D02*
X94092961Y-54470544D01*
X94092961Y-54470544D02*
X94188199Y-54518163D01*
X94188199Y-54518163D02*
X94235818Y-54565782D01*
X94235818Y-54565782D02*
X94283437Y-54661020D01*
X94283437Y-54661020D02*
X94283437Y-54803877D01*
X94283437Y-54803877D02*
X94235818Y-54899115D01*
X94235818Y-54899115D02*
X94188199Y-54946734D01*
X94188199Y-54946734D02*
X94092961Y-54994353D01*
X94092961Y-54994353D02*
X93712009Y-54994353D01*
X94616771Y-54470544D02*
X94854866Y-55470544D01*
X94854866Y-55470544D02*
X95045342Y-54756258D01*
X95045342Y-54756258D02*
X95235818Y-55470544D01*
X95235818Y-55470544D02*
X95473914Y-54470544D01*
X95854866Y-55470544D02*
X95854866Y-54470544D01*
X95854866Y-54470544D02*
X96188199Y-55184829D01*
X96188199Y-55184829D02*
X96521532Y-54470544D01*
X96521532Y-54470544D02*
X96521532Y-55470544D01*
X93664390Y-85902925D02*
X93807247Y-85950544D01*
X93807247Y-85950544D02*
X94045342Y-85950544D01*
X94045342Y-85950544D02*
X94140580Y-85902925D01*
X94140580Y-85902925D02*
X94188199Y-85855305D01*
X94188199Y-85855305D02*
X94235818Y-85760067D01*
X94235818Y-85760067D02*
X94235818Y-85664829D01*
X94235818Y-85664829D02*
X94188199Y-85569591D01*
X94188199Y-85569591D02*
X94140580Y-85521972D01*
X94140580Y-85521972D02*
X94045342Y-85474353D01*
X94045342Y-85474353D02*
X93854866Y-85426734D01*
X93854866Y-85426734D02*
X93759628Y-85379115D01*
X93759628Y-85379115D02*
X93712009Y-85331496D01*
X93712009Y-85331496D02*
X93664390Y-85236258D01*
X93664390Y-85236258D02*
X93664390Y-85141020D01*
X93664390Y-85141020D02*
X93712009Y-85045782D01*
X93712009Y-85045782D02*
X93759628Y-84998163D01*
X93759628Y-84998163D02*
X93854866Y-84950544D01*
X93854866Y-84950544D02*
X94092961Y-84950544D01*
X94092961Y-84950544D02*
X94235818Y-84998163D01*
X94664390Y-85950544D02*
X94664390Y-84950544D01*
X94664390Y-84950544D02*
X94902485Y-84950544D01*
X94902485Y-84950544D02*
X95045342Y-84998163D01*
X95045342Y-84998163D02*
X95140580Y-85093401D01*
X95140580Y-85093401D02*
X95188199Y-85188639D01*
X95188199Y-85188639D02*
X95235818Y-85379115D01*
X95235818Y-85379115D02*
X95235818Y-85521972D01*
X95235818Y-85521972D02*
X95188199Y-85712448D01*
X95188199Y-85712448D02*
X95140580Y-85807686D01*
X95140580Y-85807686D02*
X95045342Y-85902925D01*
X95045342Y-85902925D02*
X94902485Y-85950544D01*
X94902485Y-85950544D02*
X94664390Y-85950544D01*
X95616771Y-85664829D02*
X96092961Y-85664829D01*
X95521533Y-85950544D02*
X95854866Y-84950544D01*
X95854866Y-84950544D02*
X96188199Y-85950544D01*
X96473914Y-85045782D02*
X96521533Y-84998163D01*
X96521533Y-84998163D02*
X96616771Y-84950544D01*
X96616771Y-84950544D02*
X96854866Y-84950544D01*
X96854866Y-84950544D02*
X96950104Y-84998163D01*
X96950104Y-84998163D02*
X96997723Y-85045782D01*
X96997723Y-85045782D02*
X97045342Y-85141020D01*
X97045342Y-85141020D02*
X97045342Y-85236258D01*
X97045342Y-85236258D02*
X96997723Y-85379115D01*
X96997723Y-85379115D02*
X96426295Y-85950544D01*
X96426295Y-85950544D02*
X97045342Y-85950544D01*
X93569152Y-49390544D02*
X94140580Y-49390544D01*
X93854866Y-50390544D02*
X93854866Y-49390544D01*
X94378676Y-49390544D02*
X95045342Y-50390544D01*
X95045342Y-49390544D02*
X94378676Y-50390544D01*
X95950104Y-50390544D02*
X95378676Y-50390544D01*
X95664390Y-50390544D02*
X95664390Y-49390544D01*
X95664390Y-49390544D02*
X95569152Y-49533401D01*
X95569152Y-49533401D02*
X95473914Y-49628639D01*
X95473914Y-49628639D02*
X95378676Y-49676258D01*
X102554390Y-85664829D02*
X103030580Y-85664829D01*
X102459152Y-85950544D02*
X102792485Y-84950544D01*
X102792485Y-84950544D02*
X103125818Y-85950544D01*
X103982961Y-85950544D02*
X103411533Y-85950544D01*
X103697247Y-85950544D02*
X103697247Y-84950544D01*
X103697247Y-84950544D02*
X103602009Y-85093401D01*
X103602009Y-85093401D02*
X103506771Y-85188639D01*
X103506771Y-85188639D02*
X103411533Y-85236258D01*
X104840104Y-84950544D02*
X104649628Y-84950544D01*
X104649628Y-84950544D02*
X104554390Y-84998163D01*
X104554390Y-84998163D02*
X104506771Y-85045782D01*
X104506771Y-85045782D02*
X104411533Y-85188639D01*
X104411533Y-85188639D02*
X104363914Y-85379115D01*
X104363914Y-85379115D02*
X104363914Y-85760067D01*
X104363914Y-85760067D02*
X104411533Y-85855305D01*
X104411533Y-85855305D02*
X104459152Y-85902925D01*
X104459152Y-85902925D02*
X104554390Y-85950544D01*
X104554390Y-85950544D02*
X104744866Y-85950544D01*
X104744866Y-85950544D02*
X104840104Y-85902925D01*
X104840104Y-85902925D02*
X104887723Y-85855305D01*
X104887723Y-85855305D02*
X104935342Y-85760067D01*
X104935342Y-85760067D02*
X104935342Y-85521972D01*
X104935342Y-85521972D02*
X104887723Y-85426734D01*
X104887723Y-85426734D02*
X104840104Y-85379115D01*
X104840104Y-85379115D02*
X104744866Y-85331496D01*
X104744866Y-85331496D02*
X104554390Y-85331496D01*
X104554390Y-85331496D02*
X104459152Y-85379115D01*
X104459152Y-85379115D02*
X104411533Y-85426734D01*
X104411533Y-85426734D02*
X104363914Y-85521972D01*
X103125818Y-79918163D02*
X103030580Y-79870544D01*
X103030580Y-79870544D02*
X102887723Y-79870544D01*
X102887723Y-79870544D02*
X102744866Y-79918163D01*
X102744866Y-79918163D02*
X102649628Y-80013401D01*
X102649628Y-80013401D02*
X102602009Y-80108639D01*
X102602009Y-80108639D02*
X102554390Y-80299115D01*
X102554390Y-80299115D02*
X102554390Y-80441972D01*
X102554390Y-80441972D02*
X102602009Y-80632448D01*
X102602009Y-80632448D02*
X102649628Y-80727686D01*
X102649628Y-80727686D02*
X102744866Y-80822925D01*
X102744866Y-80822925D02*
X102887723Y-80870544D01*
X102887723Y-80870544D02*
X102982961Y-80870544D01*
X102982961Y-80870544D02*
X103125818Y-80822925D01*
X103125818Y-80822925D02*
X103173437Y-80775305D01*
X103173437Y-80775305D02*
X103173437Y-80441972D01*
X103173437Y-80441972D02*
X102982961Y-80441972D01*
X103602009Y-80870544D02*
X103602009Y-79870544D01*
X103602009Y-79870544D02*
X104173437Y-80870544D01*
X104173437Y-80870544D02*
X104173437Y-79870544D01*
X104649628Y-80870544D02*
X104649628Y-79870544D01*
X104649628Y-79870544D02*
X104887723Y-79870544D01*
X104887723Y-79870544D02*
X105030580Y-79918163D01*
X105030580Y-79918163D02*
X105125818Y-80013401D01*
X105125818Y-80013401D02*
X105173437Y-80108639D01*
X105173437Y-80108639D02*
X105221056Y-80299115D01*
X105221056Y-80299115D02*
X105221056Y-80441972D01*
X105221056Y-80441972D02*
X105173437Y-80632448D01*
X105173437Y-80632448D02*
X105125818Y-80727686D01*
X105125818Y-80727686D02*
X105030580Y-80822925D01*
X105030580Y-80822925D02*
X104887723Y-80870544D01*
X104887723Y-80870544D02*
X104649628Y-80870544D01*
X102554390Y-72964829D02*
X103030580Y-72964829D01*
X102459152Y-73250544D02*
X102792485Y-72250544D01*
X102792485Y-72250544D02*
X103125818Y-73250544D01*
X103982961Y-73250544D02*
X103411533Y-73250544D01*
X103697247Y-73250544D02*
X103697247Y-72250544D01*
X103697247Y-72250544D02*
X103602009Y-72393401D01*
X103602009Y-72393401D02*
X103506771Y-72488639D01*
X103506771Y-72488639D02*
X103411533Y-72536258D01*
X102554390Y-70424829D02*
X103030580Y-70424829D01*
X102459152Y-70710544D02*
X102792485Y-69710544D01*
X102792485Y-69710544D02*
X103125818Y-70710544D01*
X103411533Y-69805782D02*
X103459152Y-69758163D01*
X103459152Y-69758163D02*
X103554390Y-69710544D01*
X103554390Y-69710544D02*
X103792485Y-69710544D01*
X103792485Y-69710544D02*
X103887723Y-69758163D01*
X103887723Y-69758163D02*
X103935342Y-69805782D01*
X103935342Y-69805782D02*
X103982961Y-69901020D01*
X103982961Y-69901020D02*
X103982961Y-69996258D01*
X103982961Y-69996258D02*
X103935342Y-70139115D01*
X103935342Y-70139115D02*
X103363914Y-70710544D01*
X103363914Y-70710544D02*
X103982961Y-70710544D01*
X94283437Y-93570544D02*
X93950104Y-93094353D01*
X93712009Y-93570544D02*
X93712009Y-92570544D01*
X93712009Y-92570544D02*
X94092961Y-92570544D01*
X94092961Y-92570544D02*
X94188199Y-92618163D01*
X94188199Y-92618163D02*
X94235818Y-92665782D01*
X94235818Y-92665782D02*
X94283437Y-92761020D01*
X94283437Y-92761020D02*
X94283437Y-92903877D01*
X94283437Y-92903877D02*
X94235818Y-92999115D01*
X94235818Y-92999115D02*
X94188199Y-93046734D01*
X94188199Y-93046734D02*
X94092961Y-93094353D01*
X94092961Y-93094353D02*
X93712009Y-93094353D01*
X94616771Y-92570544D02*
X95283437Y-93570544D01*
X95283437Y-92570544D02*
X94616771Y-93570544D01*
X95569152Y-92570544D02*
X96235818Y-92570544D01*
X96235818Y-92570544D02*
X95807247Y-93570544D01*
X102554390Y-67884829D02*
X103030580Y-67884829D01*
X102459152Y-68170544D02*
X102792485Y-67170544D01*
X102792485Y-67170544D02*
X103125818Y-68170544D01*
X103363914Y-67170544D02*
X103982961Y-67170544D01*
X103982961Y-67170544D02*
X103649628Y-67551496D01*
X103649628Y-67551496D02*
X103792485Y-67551496D01*
X103792485Y-67551496D02*
X103887723Y-67599115D01*
X103887723Y-67599115D02*
X103935342Y-67646734D01*
X103935342Y-67646734D02*
X103982961Y-67741972D01*
X103982961Y-67741972D02*
X103982961Y-67980067D01*
X103982961Y-67980067D02*
X103935342Y-68075305D01*
X103935342Y-68075305D02*
X103887723Y-68122925D01*
X103887723Y-68122925D02*
X103792485Y-68170544D01*
X103792485Y-68170544D02*
X103506771Y-68170544D01*
X103506771Y-68170544D02*
X103411533Y-68122925D01*
X103411533Y-68122925D02*
X103363914Y-68075305D01*
X94235818Y-100238163D02*
X94140580Y-100190544D01*
X94140580Y-100190544D02*
X93997723Y-100190544D01*
X93997723Y-100190544D02*
X93854866Y-100238163D01*
X93854866Y-100238163D02*
X93759628Y-100333401D01*
X93759628Y-100333401D02*
X93712009Y-100428639D01*
X93712009Y-100428639D02*
X93664390Y-100619115D01*
X93664390Y-100619115D02*
X93664390Y-100761972D01*
X93664390Y-100761972D02*
X93712009Y-100952448D01*
X93712009Y-100952448D02*
X93759628Y-101047686D01*
X93759628Y-101047686D02*
X93854866Y-101142925D01*
X93854866Y-101142925D02*
X93997723Y-101190544D01*
X93997723Y-101190544D02*
X94092961Y-101190544D01*
X94092961Y-101190544D02*
X94235818Y-101142925D01*
X94235818Y-101142925D02*
X94283437Y-101095305D01*
X94283437Y-101095305D02*
X94283437Y-100761972D01*
X94283437Y-100761972D02*
X94092961Y-100761972D01*
X94712009Y-101190544D02*
X94712009Y-100190544D01*
X94712009Y-100190544D02*
X95092961Y-100190544D01*
X95092961Y-100190544D02*
X95188199Y-100238163D01*
X95188199Y-100238163D02*
X95235818Y-100285782D01*
X95235818Y-100285782D02*
X95283437Y-100381020D01*
X95283437Y-100381020D02*
X95283437Y-100523877D01*
X95283437Y-100523877D02*
X95235818Y-100619115D01*
X95235818Y-100619115D02*
X95188199Y-100666734D01*
X95188199Y-100666734D02*
X95092961Y-100714353D01*
X95092961Y-100714353D02*
X94712009Y-100714353D01*
X95712009Y-101190544D02*
X95712009Y-100190544D01*
X96378675Y-100190544D02*
X96569151Y-100190544D01*
X96569151Y-100190544D02*
X96664389Y-100238163D01*
X96664389Y-100238163D02*
X96759627Y-100333401D01*
X96759627Y-100333401D02*
X96807246Y-100523877D01*
X96807246Y-100523877D02*
X96807246Y-100857210D01*
X96807246Y-100857210D02*
X96759627Y-101047686D01*
X96759627Y-101047686D02*
X96664389Y-101142925D01*
X96664389Y-101142925D02*
X96569151Y-101190544D01*
X96569151Y-101190544D02*
X96378675Y-101190544D01*
X96378675Y-101190544D02*
X96283437Y-101142925D01*
X96283437Y-101142925D02*
X96188199Y-101047686D01*
X96188199Y-101047686D02*
X96140580Y-100857210D01*
X96140580Y-100857210D02*
X96140580Y-100523877D01*
X96140580Y-100523877D02*
X96188199Y-100333401D01*
X96188199Y-100333401D02*
X96283437Y-100238163D01*
X96283437Y-100238163D02*
X96378675Y-100190544D01*
X102602009Y-52930544D02*
X102602009Y-51930544D01*
X102602009Y-51930544D02*
X102982961Y-51930544D01*
X102982961Y-51930544D02*
X103078199Y-51978163D01*
X103078199Y-51978163D02*
X103125818Y-52025782D01*
X103125818Y-52025782D02*
X103173437Y-52121020D01*
X103173437Y-52121020D02*
X103173437Y-52263877D01*
X103173437Y-52263877D02*
X103125818Y-52359115D01*
X103125818Y-52359115D02*
X103078199Y-52406734D01*
X103078199Y-52406734D02*
X102982961Y-52454353D01*
X102982961Y-52454353D02*
X102602009Y-52454353D01*
X103506771Y-51930544D02*
X103744866Y-52930544D01*
X103744866Y-52930544D02*
X103935342Y-52216258D01*
X103935342Y-52216258D02*
X104125818Y-52930544D01*
X104125818Y-52930544D02*
X104363914Y-51930544D01*
X104744866Y-52930544D02*
X104744866Y-51930544D01*
X104744866Y-51930544D02*
X105078199Y-52644829D01*
X105078199Y-52644829D02*
X105411532Y-51930544D01*
X105411532Y-51930544D02*
X105411532Y-52930544D01*
X93569152Y-95110544D02*
X94140580Y-95110544D01*
X93854866Y-96110544D02*
X93854866Y-95110544D01*
X94378676Y-95110544D02*
X95045342Y-96110544D01*
X95045342Y-95110544D02*
X94378676Y-96110544D01*
X95331057Y-95110544D02*
X95997723Y-95110544D01*
X95997723Y-95110544D02*
X95569152Y-96110544D01*
X94283437Y-73155305D02*
X94235818Y-73202925D01*
X94235818Y-73202925D02*
X94092961Y-73250544D01*
X94092961Y-73250544D02*
X93997723Y-73250544D01*
X93997723Y-73250544D02*
X93854866Y-73202925D01*
X93854866Y-73202925D02*
X93759628Y-73107686D01*
X93759628Y-73107686D02*
X93712009Y-73012448D01*
X93712009Y-73012448D02*
X93664390Y-72821972D01*
X93664390Y-72821972D02*
X93664390Y-72679115D01*
X93664390Y-72679115D02*
X93712009Y-72488639D01*
X93712009Y-72488639D02*
X93759628Y-72393401D01*
X93759628Y-72393401D02*
X93854866Y-72298163D01*
X93854866Y-72298163D02*
X93997723Y-72250544D01*
X93997723Y-72250544D02*
X94092961Y-72250544D01*
X94092961Y-72250544D02*
X94235818Y-72298163D01*
X94235818Y-72298163D02*
X94283437Y-72345782D01*
X94664390Y-73202925D02*
X94807247Y-73250544D01*
X94807247Y-73250544D02*
X95045342Y-73250544D01*
X95045342Y-73250544D02*
X95140580Y-73202925D01*
X95140580Y-73202925D02*
X95188199Y-73155305D01*
X95188199Y-73155305D02*
X95235818Y-73060067D01*
X95235818Y-73060067D02*
X95235818Y-72964829D01*
X95235818Y-72964829D02*
X95188199Y-72869591D01*
X95188199Y-72869591D02*
X95140580Y-72821972D01*
X95140580Y-72821972D02*
X95045342Y-72774353D01*
X95045342Y-72774353D02*
X94854866Y-72726734D01*
X94854866Y-72726734D02*
X94759628Y-72679115D01*
X94759628Y-72679115D02*
X94712009Y-72631496D01*
X94712009Y-72631496D02*
X94664390Y-72536258D01*
X94664390Y-72536258D02*
X94664390Y-72441020D01*
X94664390Y-72441020D02*
X94712009Y-72345782D01*
X94712009Y-72345782D02*
X94759628Y-72298163D01*
X94759628Y-72298163D02*
X94854866Y-72250544D01*
X94854866Y-72250544D02*
X95092961Y-72250544D01*
X95092961Y-72250544D02*
X95235818Y-72298163D01*
X94235818Y-44358163D02*
X94140580Y-44310544D01*
X94140580Y-44310544D02*
X93997723Y-44310544D01*
X93997723Y-44310544D02*
X93854866Y-44358163D01*
X93854866Y-44358163D02*
X93759628Y-44453401D01*
X93759628Y-44453401D02*
X93712009Y-44548639D01*
X93712009Y-44548639D02*
X93664390Y-44739115D01*
X93664390Y-44739115D02*
X93664390Y-44881972D01*
X93664390Y-44881972D02*
X93712009Y-45072448D01*
X93712009Y-45072448D02*
X93759628Y-45167686D01*
X93759628Y-45167686D02*
X93854866Y-45262925D01*
X93854866Y-45262925D02*
X93997723Y-45310544D01*
X93997723Y-45310544D02*
X94092961Y-45310544D01*
X94092961Y-45310544D02*
X94235818Y-45262925D01*
X94235818Y-45262925D02*
X94283437Y-45215305D01*
X94283437Y-45215305D02*
X94283437Y-44881972D01*
X94283437Y-44881972D02*
X94092961Y-44881972D01*
X94712009Y-45310544D02*
X94712009Y-44310544D01*
X94712009Y-44310544D02*
X95283437Y-45310544D01*
X95283437Y-45310544D02*
X95283437Y-44310544D01*
X95759628Y-45310544D02*
X95759628Y-44310544D01*
X95759628Y-44310544D02*
X95997723Y-44310544D01*
X95997723Y-44310544D02*
X96140580Y-44358163D01*
X96140580Y-44358163D02*
X96235818Y-44453401D01*
X96235818Y-44453401D02*
X96283437Y-44548639D01*
X96283437Y-44548639D02*
X96331056Y-44739115D01*
X96331056Y-44739115D02*
X96331056Y-44881972D01*
X96331056Y-44881972D02*
X96283437Y-45072448D01*
X96283437Y-45072448D02*
X96235818Y-45167686D01*
X96235818Y-45167686D02*
X96140580Y-45262925D01*
X96140580Y-45262925D02*
X95997723Y-45310544D01*
X95997723Y-45310544D02*
X95759628Y-45310544D01*
X93664390Y-90982925D02*
X93807247Y-91030544D01*
X93807247Y-91030544D02*
X94045342Y-91030544D01*
X94045342Y-91030544D02*
X94140580Y-90982925D01*
X94140580Y-90982925D02*
X94188199Y-90935305D01*
X94188199Y-90935305D02*
X94235818Y-90840067D01*
X94235818Y-90840067D02*
X94235818Y-90744829D01*
X94235818Y-90744829D02*
X94188199Y-90649591D01*
X94188199Y-90649591D02*
X94140580Y-90601972D01*
X94140580Y-90601972D02*
X94045342Y-90554353D01*
X94045342Y-90554353D02*
X93854866Y-90506734D01*
X93854866Y-90506734D02*
X93759628Y-90459115D01*
X93759628Y-90459115D02*
X93712009Y-90411496D01*
X93712009Y-90411496D02*
X93664390Y-90316258D01*
X93664390Y-90316258D02*
X93664390Y-90221020D01*
X93664390Y-90221020D02*
X93712009Y-90125782D01*
X93712009Y-90125782D02*
X93759628Y-90078163D01*
X93759628Y-90078163D02*
X93854866Y-90030544D01*
X93854866Y-90030544D02*
X94092961Y-90030544D01*
X94092961Y-90030544D02*
X94235818Y-90078163D01*
X95235818Y-90935305D02*
X95188199Y-90982925D01*
X95188199Y-90982925D02*
X95045342Y-91030544D01*
X95045342Y-91030544D02*
X94950104Y-91030544D01*
X94950104Y-91030544D02*
X94807247Y-90982925D01*
X94807247Y-90982925D02*
X94712009Y-90887686D01*
X94712009Y-90887686D02*
X94664390Y-90792448D01*
X94664390Y-90792448D02*
X94616771Y-90601972D01*
X94616771Y-90601972D02*
X94616771Y-90459115D01*
X94616771Y-90459115D02*
X94664390Y-90268639D01*
X94664390Y-90268639D02*
X94712009Y-90173401D01*
X94712009Y-90173401D02*
X94807247Y-90078163D01*
X94807247Y-90078163D02*
X94950104Y-90030544D01*
X94950104Y-90030544D02*
X95045342Y-90030544D01*
X95045342Y-90030544D02*
X95188199Y-90078163D01*
X95188199Y-90078163D02*
X95235818Y-90125782D01*
X95664390Y-91030544D02*
X95664390Y-90030544D01*
X96235818Y-91030544D02*
X95807247Y-90459115D01*
X96235818Y-90030544D02*
X95664390Y-90601972D01*
X97188199Y-91030544D02*
X96616771Y-91030544D01*
X96902485Y-91030544D02*
X96902485Y-90030544D01*
X96902485Y-90030544D02*
X96807247Y-90173401D01*
X96807247Y-90173401D02*
X96712009Y-90268639D01*
X96712009Y-90268639D02*
X96616771Y-90316258D01*
X93712009Y-75790544D02*
X93712009Y-74790544D01*
X93712009Y-74790544D02*
X94045342Y-75504829D01*
X94045342Y-75504829D02*
X94378675Y-74790544D01*
X94378675Y-74790544D02*
X94378675Y-75790544D01*
X95045342Y-74790544D02*
X95235818Y-74790544D01*
X95235818Y-74790544D02*
X95331056Y-74838163D01*
X95331056Y-74838163D02*
X95426294Y-74933401D01*
X95426294Y-74933401D02*
X95473913Y-75123877D01*
X95473913Y-75123877D02*
X95473913Y-75457210D01*
X95473913Y-75457210D02*
X95426294Y-75647686D01*
X95426294Y-75647686D02*
X95331056Y-75742925D01*
X95331056Y-75742925D02*
X95235818Y-75790544D01*
X95235818Y-75790544D02*
X95045342Y-75790544D01*
X95045342Y-75790544D02*
X94950104Y-75742925D01*
X94950104Y-75742925D02*
X94854866Y-75647686D01*
X94854866Y-75647686D02*
X94807247Y-75457210D01*
X94807247Y-75457210D02*
X94807247Y-75123877D01*
X94807247Y-75123877D02*
X94854866Y-74933401D01*
X94854866Y-74933401D02*
X94950104Y-74838163D01*
X94950104Y-74838163D02*
X95045342Y-74790544D01*
X95854866Y-75742925D02*
X95997723Y-75790544D01*
X95997723Y-75790544D02*
X96235818Y-75790544D01*
X96235818Y-75790544D02*
X96331056Y-75742925D01*
X96331056Y-75742925D02*
X96378675Y-75695305D01*
X96378675Y-75695305D02*
X96426294Y-75600067D01*
X96426294Y-75600067D02*
X96426294Y-75504829D01*
X96426294Y-75504829D02*
X96378675Y-75409591D01*
X96378675Y-75409591D02*
X96331056Y-75361972D01*
X96331056Y-75361972D02*
X96235818Y-75314353D01*
X96235818Y-75314353D02*
X96045342Y-75266734D01*
X96045342Y-75266734D02*
X95950104Y-75219115D01*
X95950104Y-75219115D02*
X95902485Y-75171496D01*
X95902485Y-75171496D02*
X95854866Y-75076258D01*
X95854866Y-75076258D02*
X95854866Y-74981020D01*
X95854866Y-74981020D02*
X95902485Y-74885782D01*
X95902485Y-74885782D02*
X95950104Y-74838163D01*
X95950104Y-74838163D02*
X96045342Y-74790544D01*
X96045342Y-74790544D02*
X96283437Y-74790544D01*
X96283437Y-74790544D02*
X96426294Y-74838163D01*
X96854866Y-75790544D02*
X96854866Y-74790544D01*
X93616771Y-79870544D02*
X94235818Y-79870544D01*
X94235818Y-79870544D02*
X93902485Y-80251496D01*
X93902485Y-80251496D02*
X94045342Y-80251496D01*
X94045342Y-80251496D02*
X94140580Y-80299115D01*
X94140580Y-80299115D02*
X94188199Y-80346734D01*
X94188199Y-80346734D02*
X94235818Y-80441972D01*
X94235818Y-80441972D02*
X94235818Y-80680067D01*
X94235818Y-80680067D02*
X94188199Y-80775305D01*
X94188199Y-80775305D02*
X94140580Y-80822925D01*
X94140580Y-80822925D02*
X94045342Y-80870544D01*
X94045342Y-80870544D02*
X93759628Y-80870544D01*
X93759628Y-80870544D02*
X93664390Y-80822925D01*
X93664390Y-80822925D02*
X93616771Y-80775305D01*
X94664390Y-80775305D02*
X94712009Y-80822925D01*
X94712009Y-80822925D02*
X94664390Y-80870544D01*
X94664390Y-80870544D02*
X94616771Y-80822925D01*
X94616771Y-80822925D02*
X94664390Y-80775305D01*
X94664390Y-80775305D02*
X94664390Y-80870544D01*
X95045342Y-79870544D02*
X95664389Y-79870544D01*
X95664389Y-79870544D02*
X95331056Y-80251496D01*
X95331056Y-80251496D02*
X95473913Y-80251496D01*
X95473913Y-80251496D02*
X95569151Y-80299115D01*
X95569151Y-80299115D02*
X95616770Y-80346734D01*
X95616770Y-80346734D02*
X95664389Y-80441972D01*
X95664389Y-80441972D02*
X95664389Y-80680067D01*
X95664389Y-80680067D02*
X95616770Y-80775305D01*
X95616770Y-80775305D02*
X95569151Y-80822925D01*
X95569151Y-80822925D02*
X95473913Y-80870544D01*
X95473913Y-80870544D02*
X95188199Y-80870544D01*
X95188199Y-80870544D02*
X95092961Y-80822925D01*
X95092961Y-80822925D02*
X95045342Y-80775305D01*
X95950104Y-79870544D02*
X96283437Y-80870544D01*
X96283437Y-80870544D02*
X96616770Y-79870544D01*
X102459152Y-44310544D02*
X102792485Y-45310544D01*
X102792485Y-45310544D02*
X103125818Y-44310544D01*
X103459152Y-45310544D02*
X103459152Y-44643877D01*
X103459152Y-44310544D02*
X103411533Y-44358163D01*
X103411533Y-44358163D02*
X103459152Y-44405782D01*
X103459152Y-44405782D02*
X103506771Y-44358163D01*
X103506771Y-44358163D02*
X103459152Y-44310544D01*
X103459152Y-44310544D02*
X103459152Y-44405782D01*
X103935342Y-44643877D02*
X103935342Y-45310544D01*
X103935342Y-44739115D02*
X103982961Y-44691496D01*
X103982961Y-44691496D02*
X104078199Y-44643877D01*
X104078199Y-44643877D02*
X104221056Y-44643877D01*
X104221056Y-44643877D02*
X104316294Y-44691496D01*
X104316294Y-44691496D02*
X104363913Y-44786734D01*
X104363913Y-44786734D02*
X104363913Y-45310544D01*
X103173437Y-58010544D02*
X102840104Y-57534353D01*
X102602009Y-58010544D02*
X102602009Y-57010544D01*
X102602009Y-57010544D02*
X102982961Y-57010544D01*
X102982961Y-57010544D02*
X103078199Y-57058163D01*
X103078199Y-57058163D02*
X103125818Y-57105782D01*
X103125818Y-57105782D02*
X103173437Y-57201020D01*
X103173437Y-57201020D02*
X103173437Y-57343877D01*
X103173437Y-57343877D02*
X103125818Y-57439115D01*
X103125818Y-57439115D02*
X103078199Y-57486734D01*
X103078199Y-57486734D02*
X102982961Y-57534353D01*
X102982961Y-57534353D02*
X102602009Y-57534353D01*
X103506771Y-57010544D02*
X104173437Y-58010544D01*
X104173437Y-57010544D02*
X103506771Y-58010544D01*
X105030580Y-57010544D02*
X104554390Y-57010544D01*
X104554390Y-57010544D02*
X104506771Y-57486734D01*
X104506771Y-57486734D02*
X104554390Y-57439115D01*
X104554390Y-57439115D02*
X104649628Y-57391496D01*
X104649628Y-57391496D02*
X104887723Y-57391496D01*
X104887723Y-57391496D02*
X104982961Y-57439115D01*
X104982961Y-57439115D02*
X105030580Y-57486734D01*
X105030580Y-57486734D02*
X105078199Y-57581972D01*
X105078199Y-57581972D02*
X105078199Y-57820067D01*
X105078199Y-57820067D02*
X105030580Y-57915305D01*
X105030580Y-57915305D02*
X104982961Y-57962925D01*
X104982961Y-57962925D02*
X104887723Y-58010544D01*
X104887723Y-58010544D02*
X104649628Y-58010544D01*
X104649628Y-58010544D02*
X104554390Y-57962925D01*
X104554390Y-57962925D02*
X104506771Y-57915305D01*
X102459152Y-97650544D02*
X103030580Y-97650544D01*
X102744866Y-98650544D02*
X102744866Y-97650544D01*
X103268676Y-97650544D02*
X103935342Y-98650544D01*
X103935342Y-97650544D02*
X103268676Y-98650544D01*
X104459152Y-98079115D02*
X104363914Y-98031496D01*
X104363914Y-98031496D02*
X104316295Y-97983877D01*
X104316295Y-97983877D02*
X104268676Y-97888639D01*
X104268676Y-97888639D02*
X104268676Y-97841020D01*
X104268676Y-97841020D02*
X104316295Y-97745782D01*
X104316295Y-97745782D02*
X104363914Y-97698163D01*
X104363914Y-97698163D02*
X104459152Y-97650544D01*
X104459152Y-97650544D02*
X104649628Y-97650544D01*
X104649628Y-97650544D02*
X104744866Y-97698163D01*
X104744866Y-97698163D02*
X104792485Y-97745782D01*
X104792485Y-97745782D02*
X104840104Y-97841020D01*
X104840104Y-97841020D02*
X104840104Y-97888639D01*
X104840104Y-97888639D02*
X104792485Y-97983877D01*
X104792485Y-97983877D02*
X104744866Y-98031496D01*
X104744866Y-98031496D02*
X104649628Y-98079115D01*
X104649628Y-98079115D02*
X104459152Y-98079115D01*
X104459152Y-98079115D02*
X104363914Y-98126734D01*
X104363914Y-98126734D02*
X104316295Y-98174353D01*
X104316295Y-98174353D02*
X104268676Y-98269591D01*
X104268676Y-98269591D02*
X104268676Y-98460067D01*
X104268676Y-98460067D02*
X104316295Y-98555305D01*
X104316295Y-98555305D02*
X104363914Y-98602925D01*
X104363914Y-98602925D02*
X104459152Y-98650544D01*
X104459152Y-98650544D02*
X104649628Y-98650544D01*
X104649628Y-98650544D02*
X104744866Y-98602925D01*
X104744866Y-98602925D02*
X104792485Y-98555305D01*
X104792485Y-98555305D02*
X104840104Y-98460067D01*
X104840104Y-98460067D02*
X104840104Y-98269591D01*
X104840104Y-98269591D02*
X104792485Y-98174353D01*
X104792485Y-98174353D02*
X104744866Y-98126734D01*
X104744866Y-98126734D02*
X104649628Y-98079115D01*
X93664390Y-83362925D02*
X93807247Y-83410544D01*
X93807247Y-83410544D02*
X94045342Y-83410544D01*
X94045342Y-83410544D02*
X94140580Y-83362925D01*
X94140580Y-83362925D02*
X94188199Y-83315305D01*
X94188199Y-83315305D02*
X94235818Y-83220067D01*
X94235818Y-83220067D02*
X94235818Y-83124829D01*
X94235818Y-83124829D02*
X94188199Y-83029591D01*
X94188199Y-83029591D02*
X94140580Y-82981972D01*
X94140580Y-82981972D02*
X94045342Y-82934353D01*
X94045342Y-82934353D02*
X93854866Y-82886734D01*
X93854866Y-82886734D02*
X93759628Y-82839115D01*
X93759628Y-82839115D02*
X93712009Y-82791496D01*
X93712009Y-82791496D02*
X93664390Y-82696258D01*
X93664390Y-82696258D02*
X93664390Y-82601020D01*
X93664390Y-82601020D02*
X93712009Y-82505782D01*
X93712009Y-82505782D02*
X93759628Y-82458163D01*
X93759628Y-82458163D02*
X93854866Y-82410544D01*
X93854866Y-82410544D02*
X94092961Y-82410544D01*
X94092961Y-82410544D02*
X94235818Y-82458163D01*
X95235818Y-83315305D02*
X95188199Y-83362925D01*
X95188199Y-83362925D02*
X95045342Y-83410544D01*
X95045342Y-83410544D02*
X94950104Y-83410544D01*
X94950104Y-83410544D02*
X94807247Y-83362925D01*
X94807247Y-83362925D02*
X94712009Y-83267686D01*
X94712009Y-83267686D02*
X94664390Y-83172448D01*
X94664390Y-83172448D02*
X94616771Y-82981972D01*
X94616771Y-82981972D02*
X94616771Y-82839115D01*
X94616771Y-82839115D02*
X94664390Y-82648639D01*
X94664390Y-82648639D02*
X94712009Y-82553401D01*
X94712009Y-82553401D02*
X94807247Y-82458163D01*
X94807247Y-82458163D02*
X94950104Y-82410544D01*
X94950104Y-82410544D02*
X95045342Y-82410544D01*
X95045342Y-82410544D02*
X95188199Y-82458163D01*
X95188199Y-82458163D02*
X95235818Y-82505782D01*
X96140580Y-83410544D02*
X95664390Y-83410544D01*
X95664390Y-83410544D02*
X95664390Y-82410544D01*
X96426295Y-82505782D02*
X96473914Y-82458163D01*
X96473914Y-82458163D02*
X96569152Y-82410544D01*
X96569152Y-82410544D02*
X96807247Y-82410544D01*
X96807247Y-82410544D02*
X96902485Y-82458163D01*
X96902485Y-82458163D02*
X96950104Y-82505782D01*
X96950104Y-82505782D02*
X96997723Y-82601020D01*
X96997723Y-82601020D02*
X96997723Y-82696258D01*
X96997723Y-82696258D02*
X96950104Y-82839115D01*
X96950104Y-82839115D02*
X96378676Y-83410544D01*
X96378676Y-83410544D02*
X96997723Y-83410544D01*
X102602009Y-88490544D02*
X102602009Y-87490544D01*
X102602009Y-87490544D02*
X102935342Y-88204829D01*
X102935342Y-88204829D02*
X103268675Y-87490544D01*
X103268675Y-87490544D02*
X103268675Y-88490544D01*
X103744866Y-88490544D02*
X103744866Y-87490544D01*
X104173437Y-88442925D02*
X104316294Y-88490544D01*
X104316294Y-88490544D02*
X104554389Y-88490544D01*
X104554389Y-88490544D02*
X104649627Y-88442925D01*
X104649627Y-88442925D02*
X104697246Y-88395305D01*
X104697246Y-88395305D02*
X104744865Y-88300067D01*
X104744865Y-88300067D02*
X104744865Y-88204829D01*
X104744865Y-88204829D02*
X104697246Y-88109591D01*
X104697246Y-88109591D02*
X104649627Y-88061972D01*
X104649627Y-88061972D02*
X104554389Y-88014353D01*
X104554389Y-88014353D02*
X104363913Y-87966734D01*
X104363913Y-87966734D02*
X104268675Y-87919115D01*
X104268675Y-87919115D02*
X104221056Y-87871496D01*
X104221056Y-87871496D02*
X104173437Y-87776258D01*
X104173437Y-87776258D02*
X104173437Y-87681020D01*
X104173437Y-87681020D02*
X104221056Y-87585782D01*
X104221056Y-87585782D02*
X104268675Y-87538163D01*
X104268675Y-87538163D02*
X104363913Y-87490544D01*
X104363913Y-87490544D02*
X104602008Y-87490544D01*
X104602008Y-87490544D02*
X104744865Y-87538163D01*
X105363913Y-87490544D02*
X105554389Y-87490544D01*
X105554389Y-87490544D02*
X105649627Y-87538163D01*
X105649627Y-87538163D02*
X105744865Y-87633401D01*
X105744865Y-87633401D02*
X105792484Y-87823877D01*
X105792484Y-87823877D02*
X105792484Y-88157210D01*
X105792484Y-88157210D02*
X105744865Y-88347686D01*
X105744865Y-88347686D02*
X105649627Y-88442925D01*
X105649627Y-88442925D02*
X105554389Y-88490544D01*
X105554389Y-88490544D02*
X105363913Y-88490544D01*
X105363913Y-88490544D02*
X105268675Y-88442925D01*
X105268675Y-88442925D02*
X105173437Y-88347686D01*
X105173437Y-88347686D02*
X105125818Y-88157210D01*
X105125818Y-88157210D02*
X105125818Y-87823877D01*
X105125818Y-87823877D02*
X105173437Y-87633401D01*
X105173437Y-87633401D02*
X105268675Y-87538163D01*
X105268675Y-87538163D02*
X105363913Y-87490544D01*
X102602009Y-96110544D02*
X102602009Y-95110544D01*
X102602009Y-95110544D02*
X102982961Y-95110544D01*
X102982961Y-95110544D02*
X103078199Y-95158163D01*
X103078199Y-95158163D02*
X103125818Y-95205782D01*
X103125818Y-95205782D02*
X103173437Y-95301020D01*
X103173437Y-95301020D02*
X103173437Y-95443877D01*
X103173437Y-95443877D02*
X103125818Y-95539115D01*
X103125818Y-95539115D02*
X103078199Y-95586734D01*
X103078199Y-95586734D02*
X102982961Y-95634353D01*
X102982961Y-95634353D02*
X102602009Y-95634353D01*
X103506771Y-95110544D02*
X103744866Y-96110544D01*
X103744866Y-96110544D02*
X103935342Y-95396258D01*
X103935342Y-95396258D02*
X104125818Y-96110544D01*
X104125818Y-96110544D02*
X104363914Y-95110544D01*
X104744866Y-96110544D02*
X104744866Y-95110544D01*
X104744866Y-95110544D02*
X105078199Y-95824829D01*
X105078199Y-95824829D02*
X105411532Y-95110544D01*
X105411532Y-95110544D02*
X105411532Y-96110544D01*
X94235818Y-102778163D02*
X94140580Y-102730544D01*
X94140580Y-102730544D02*
X93997723Y-102730544D01*
X93997723Y-102730544D02*
X93854866Y-102778163D01*
X93854866Y-102778163D02*
X93759628Y-102873401D01*
X93759628Y-102873401D02*
X93712009Y-102968639D01*
X93712009Y-102968639D02*
X93664390Y-103159115D01*
X93664390Y-103159115D02*
X93664390Y-103301972D01*
X93664390Y-103301972D02*
X93712009Y-103492448D01*
X93712009Y-103492448D02*
X93759628Y-103587686D01*
X93759628Y-103587686D02*
X93854866Y-103682925D01*
X93854866Y-103682925D02*
X93997723Y-103730544D01*
X93997723Y-103730544D02*
X94092961Y-103730544D01*
X94092961Y-103730544D02*
X94235818Y-103682925D01*
X94235818Y-103682925D02*
X94283437Y-103635305D01*
X94283437Y-103635305D02*
X94283437Y-103301972D01*
X94283437Y-103301972D02*
X94092961Y-103301972D01*
X94712009Y-103730544D02*
X94712009Y-102730544D01*
X94712009Y-102730544D02*
X95092961Y-102730544D01*
X95092961Y-102730544D02*
X95188199Y-102778163D01*
X95188199Y-102778163D02*
X95235818Y-102825782D01*
X95235818Y-102825782D02*
X95283437Y-102921020D01*
X95283437Y-102921020D02*
X95283437Y-103063877D01*
X95283437Y-103063877D02*
X95235818Y-103159115D01*
X95235818Y-103159115D02*
X95188199Y-103206734D01*
X95188199Y-103206734D02*
X95092961Y-103254353D01*
X95092961Y-103254353D02*
X94712009Y-103254353D01*
X95712009Y-103730544D02*
X95712009Y-102730544D01*
X96378675Y-102730544D02*
X96569151Y-102730544D01*
X96569151Y-102730544D02*
X96664389Y-102778163D01*
X96664389Y-102778163D02*
X96759627Y-102873401D01*
X96759627Y-102873401D02*
X96807246Y-103063877D01*
X96807246Y-103063877D02*
X96807246Y-103397210D01*
X96807246Y-103397210D02*
X96759627Y-103587686D01*
X96759627Y-103587686D02*
X96664389Y-103682925D01*
X96664389Y-103682925D02*
X96569151Y-103730544D01*
X96569151Y-103730544D02*
X96378675Y-103730544D01*
X96378675Y-103730544D02*
X96283437Y-103682925D01*
X96283437Y-103682925D02*
X96188199Y-103587686D01*
X96188199Y-103587686D02*
X96140580Y-103397210D01*
X96140580Y-103397210D02*
X96140580Y-103063877D01*
X96140580Y-103063877D02*
X96188199Y-102873401D01*
X96188199Y-102873401D02*
X96283437Y-102778163D01*
X96283437Y-102778163D02*
X96378675Y-102730544D01*
X102602009Y-93570544D02*
X102602009Y-92570544D01*
X102602009Y-92570544D02*
X102982961Y-92570544D01*
X102982961Y-92570544D02*
X103078199Y-92618163D01*
X103078199Y-92618163D02*
X103125818Y-92665782D01*
X103125818Y-92665782D02*
X103173437Y-92761020D01*
X103173437Y-92761020D02*
X103173437Y-92903877D01*
X103173437Y-92903877D02*
X103125818Y-92999115D01*
X103125818Y-92999115D02*
X103078199Y-93046734D01*
X103078199Y-93046734D02*
X102982961Y-93094353D01*
X102982961Y-93094353D02*
X102602009Y-93094353D01*
X103506771Y-92570544D02*
X103744866Y-93570544D01*
X103744866Y-93570544D02*
X103935342Y-92856258D01*
X103935342Y-92856258D02*
X104125818Y-93570544D01*
X104125818Y-93570544D02*
X104363914Y-92570544D01*
X104744866Y-93570544D02*
X104744866Y-92570544D01*
X104744866Y-92570544D02*
X105078199Y-93284829D01*
X105078199Y-93284829D02*
X105411532Y-92570544D01*
X105411532Y-92570544D02*
X105411532Y-93570544D01*
X102602009Y-55470544D02*
X102602009Y-54470544D01*
X102602009Y-54470544D02*
X102982961Y-54470544D01*
X102982961Y-54470544D02*
X103078199Y-54518163D01*
X103078199Y-54518163D02*
X103125818Y-54565782D01*
X103125818Y-54565782D02*
X103173437Y-54661020D01*
X103173437Y-54661020D02*
X103173437Y-54803877D01*
X103173437Y-54803877D02*
X103125818Y-54899115D01*
X103125818Y-54899115D02*
X103078199Y-54946734D01*
X103078199Y-54946734D02*
X102982961Y-54994353D01*
X102982961Y-54994353D02*
X102602009Y-54994353D01*
X103506771Y-54470544D02*
X103744866Y-55470544D01*
X103744866Y-55470544D02*
X103935342Y-54756258D01*
X103935342Y-54756258D02*
X104125818Y-55470544D01*
X104125818Y-55470544D02*
X104363914Y-54470544D01*
X104744866Y-55470544D02*
X104744866Y-54470544D01*
X104744866Y-54470544D02*
X105078199Y-55184829D01*
X105078199Y-55184829D02*
X105411532Y-54470544D01*
X105411532Y-54470544D02*
X105411532Y-55470544D01*
X93712009Y-88490544D02*
X93712009Y-87490544D01*
X93712009Y-87490544D02*
X94045342Y-88204829D01*
X94045342Y-88204829D02*
X94378675Y-87490544D01*
X94378675Y-87490544D02*
X94378675Y-88490544D01*
X95045342Y-87490544D02*
X95235818Y-87490544D01*
X95235818Y-87490544D02*
X95331056Y-87538163D01*
X95331056Y-87538163D02*
X95426294Y-87633401D01*
X95426294Y-87633401D02*
X95473913Y-87823877D01*
X95473913Y-87823877D02*
X95473913Y-88157210D01*
X95473913Y-88157210D02*
X95426294Y-88347686D01*
X95426294Y-88347686D02*
X95331056Y-88442925D01*
X95331056Y-88442925D02*
X95235818Y-88490544D01*
X95235818Y-88490544D02*
X95045342Y-88490544D01*
X95045342Y-88490544D02*
X94950104Y-88442925D01*
X94950104Y-88442925D02*
X94854866Y-88347686D01*
X94854866Y-88347686D02*
X94807247Y-88157210D01*
X94807247Y-88157210D02*
X94807247Y-87823877D01*
X94807247Y-87823877D02*
X94854866Y-87633401D01*
X94854866Y-87633401D02*
X94950104Y-87538163D01*
X94950104Y-87538163D02*
X95045342Y-87490544D01*
X95854866Y-88442925D02*
X95997723Y-88490544D01*
X95997723Y-88490544D02*
X96235818Y-88490544D01*
X96235818Y-88490544D02*
X96331056Y-88442925D01*
X96331056Y-88442925D02*
X96378675Y-88395305D01*
X96378675Y-88395305D02*
X96426294Y-88300067D01*
X96426294Y-88300067D02*
X96426294Y-88204829D01*
X96426294Y-88204829D02*
X96378675Y-88109591D01*
X96378675Y-88109591D02*
X96331056Y-88061972D01*
X96331056Y-88061972D02*
X96235818Y-88014353D01*
X96235818Y-88014353D02*
X96045342Y-87966734D01*
X96045342Y-87966734D02*
X95950104Y-87919115D01*
X95950104Y-87919115D02*
X95902485Y-87871496D01*
X95902485Y-87871496D02*
X95854866Y-87776258D01*
X95854866Y-87776258D02*
X95854866Y-87681020D01*
X95854866Y-87681020D02*
X95902485Y-87585782D01*
X95902485Y-87585782D02*
X95950104Y-87538163D01*
X95950104Y-87538163D02*
X96045342Y-87490544D01*
X96045342Y-87490544D02*
X96283437Y-87490544D01*
X96283437Y-87490544D02*
X96426294Y-87538163D01*
X96854866Y-88490544D02*
X96854866Y-87490544D01*
X97854865Y-88490544D02*
X97283437Y-88490544D01*
X97569151Y-88490544D02*
X97569151Y-87490544D01*
X97569151Y-87490544D02*
X97473913Y-87633401D01*
X97473913Y-87633401D02*
X97378675Y-87728639D01*
X97378675Y-87728639D02*
X97283437Y-87776258D01*
X103173437Y-90935305D02*
X103125818Y-90982925D01*
X103125818Y-90982925D02*
X102982961Y-91030544D01*
X102982961Y-91030544D02*
X102887723Y-91030544D01*
X102887723Y-91030544D02*
X102744866Y-90982925D01*
X102744866Y-90982925D02*
X102649628Y-90887686D01*
X102649628Y-90887686D02*
X102602009Y-90792448D01*
X102602009Y-90792448D02*
X102554390Y-90601972D01*
X102554390Y-90601972D02*
X102554390Y-90459115D01*
X102554390Y-90459115D02*
X102602009Y-90268639D01*
X102602009Y-90268639D02*
X102649628Y-90173401D01*
X102649628Y-90173401D02*
X102744866Y-90078163D01*
X102744866Y-90078163D02*
X102887723Y-90030544D01*
X102887723Y-90030544D02*
X102982961Y-90030544D01*
X102982961Y-90030544D02*
X103125818Y-90078163D01*
X103125818Y-90078163D02*
X103173437Y-90125782D01*
X103554390Y-90982925D02*
X103697247Y-91030544D01*
X103697247Y-91030544D02*
X103935342Y-91030544D01*
X103935342Y-91030544D02*
X104030580Y-90982925D01*
X104030580Y-90982925D02*
X104078199Y-90935305D01*
X104078199Y-90935305D02*
X104125818Y-90840067D01*
X104125818Y-90840067D02*
X104125818Y-90744829D01*
X104125818Y-90744829D02*
X104078199Y-90649591D01*
X104078199Y-90649591D02*
X104030580Y-90601972D01*
X104030580Y-90601972D02*
X103935342Y-90554353D01*
X103935342Y-90554353D02*
X103744866Y-90506734D01*
X103744866Y-90506734D02*
X103649628Y-90459115D01*
X103649628Y-90459115D02*
X103602009Y-90411496D01*
X103602009Y-90411496D02*
X103554390Y-90316258D01*
X103554390Y-90316258D02*
X103554390Y-90221020D01*
X103554390Y-90221020D02*
X103602009Y-90125782D01*
X103602009Y-90125782D02*
X103649628Y-90078163D01*
X103649628Y-90078163D02*
X103744866Y-90030544D01*
X103744866Y-90030544D02*
X103982961Y-90030544D01*
X103982961Y-90030544D02*
X104125818Y-90078163D01*
X105078199Y-91030544D02*
X104506771Y-91030544D01*
X104792485Y-91030544D02*
X104792485Y-90030544D01*
X104792485Y-90030544D02*
X104697247Y-90173401D01*
X104697247Y-90173401D02*
X104602009Y-90268639D01*
X104602009Y-90268639D02*
X104506771Y-90316258D01*
X102554390Y-78282925D02*
X102697247Y-78330544D01*
X102697247Y-78330544D02*
X102935342Y-78330544D01*
X102935342Y-78330544D02*
X103030580Y-78282925D01*
X103030580Y-78282925D02*
X103078199Y-78235305D01*
X103078199Y-78235305D02*
X103125818Y-78140067D01*
X103125818Y-78140067D02*
X103125818Y-78044829D01*
X103125818Y-78044829D02*
X103078199Y-77949591D01*
X103078199Y-77949591D02*
X103030580Y-77901972D01*
X103030580Y-77901972D02*
X102935342Y-77854353D01*
X102935342Y-77854353D02*
X102744866Y-77806734D01*
X102744866Y-77806734D02*
X102649628Y-77759115D01*
X102649628Y-77759115D02*
X102602009Y-77711496D01*
X102602009Y-77711496D02*
X102554390Y-77616258D01*
X102554390Y-77616258D02*
X102554390Y-77521020D01*
X102554390Y-77521020D02*
X102602009Y-77425782D01*
X102602009Y-77425782D02*
X102649628Y-77378163D01*
X102649628Y-77378163D02*
X102744866Y-77330544D01*
X102744866Y-77330544D02*
X102982961Y-77330544D01*
X102982961Y-77330544D02*
X103125818Y-77378163D01*
X104125818Y-78235305D02*
X104078199Y-78282925D01*
X104078199Y-78282925D02*
X103935342Y-78330544D01*
X103935342Y-78330544D02*
X103840104Y-78330544D01*
X103840104Y-78330544D02*
X103697247Y-78282925D01*
X103697247Y-78282925D02*
X103602009Y-78187686D01*
X103602009Y-78187686D02*
X103554390Y-78092448D01*
X103554390Y-78092448D02*
X103506771Y-77901972D01*
X103506771Y-77901972D02*
X103506771Y-77759115D01*
X103506771Y-77759115D02*
X103554390Y-77568639D01*
X103554390Y-77568639D02*
X103602009Y-77473401D01*
X103602009Y-77473401D02*
X103697247Y-77378163D01*
X103697247Y-77378163D02*
X103840104Y-77330544D01*
X103840104Y-77330544D02*
X103935342Y-77330544D01*
X103935342Y-77330544D02*
X104078199Y-77378163D01*
X104078199Y-77378163D02*
X104125818Y-77425782D01*
X104554390Y-78330544D02*
X104554390Y-77330544D01*
X105125818Y-78330544D02*
X104697247Y-77759115D01*
X105125818Y-77330544D02*
X104554390Y-77901972D01*
X102459152Y-59550544D02*
X103030580Y-59550544D01*
X102744866Y-60550544D02*
X102744866Y-59550544D01*
X103268676Y-59550544D02*
X103935342Y-60550544D01*
X103935342Y-59550544D02*
X103268676Y-60550544D01*
X104792485Y-59550544D02*
X104316295Y-59550544D01*
X104316295Y-59550544D02*
X104268676Y-60026734D01*
X104268676Y-60026734D02*
X104316295Y-59979115D01*
X104316295Y-59979115D02*
X104411533Y-59931496D01*
X104411533Y-59931496D02*
X104649628Y-59931496D01*
X104649628Y-59931496D02*
X104744866Y-59979115D01*
X104744866Y-59979115D02*
X104792485Y-60026734D01*
X104792485Y-60026734D02*
X104840104Y-60121972D01*
X104840104Y-60121972D02*
X104840104Y-60360067D01*
X104840104Y-60360067D02*
X104792485Y-60455305D01*
X104792485Y-60455305D02*
X104744866Y-60502925D01*
X104744866Y-60502925D02*
X104649628Y-60550544D01*
X104649628Y-60550544D02*
X104411533Y-60550544D01*
X104411533Y-60550544D02*
X104316295Y-60502925D01*
X104316295Y-60502925D02*
X104268676Y-60455305D01*
X93712009Y-63090544D02*
X93712009Y-62090544D01*
X93712009Y-62090544D02*
X94092961Y-62090544D01*
X94092961Y-62090544D02*
X94188199Y-62138163D01*
X94188199Y-62138163D02*
X94235818Y-62185782D01*
X94235818Y-62185782D02*
X94283437Y-62281020D01*
X94283437Y-62281020D02*
X94283437Y-62423877D01*
X94283437Y-62423877D02*
X94235818Y-62519115D01*
X94235818Y-62519115D02*
X94188199Y-62566734D01*
X94188199Y-62566734D02*
X94092961Y-62614353D01*
X94092961Y-62614353D02*
X93712009Y-62614353D01*
X94616771Y-62090544D02*
X94854866Y-63090544D01*
X94854866Y-63090544D02*
X95045342Y-62376258D01*
X95045342Y-62376258D02*
X95235818Y-63090544D01*
X95235818Y-63090544D02*
X95473914Y-62090544D01*
X95854866Y-63090544D02*
X95854866Y-62090544D01*
X95854866Y-62090544D02*
X96188199Y-62804829D01*
X96188199Y-62804829D02*
X96521532Y-62090544D01*
X96521532Y-62090544D02*
X96521532Y-63090544D01*
X93712009Y-52930544D02*
X93712009Y-51930544D01*
X93712009Y-51930544D02*
X94092961Y-51930544D01*
X94092961Y-51930544D02*
X94188199Y-51978163D01*
X94188199Y-51978163D02*
X94235818Y-52025782D01*
X94235818Y-52025782D02*
X94283437Y-52121020D01*
X94283437Y-52121020D02*
X94283437Y-52263877D01*
X94283437Y-52263877D02*
X94235818Y-52359115D01*
X94235818Y-52359115D02*
X94188199Y-52406734D01*
X94188199Y-52406734D02*
X94092961Y-52454353D01*
X94092961Y-52454353D02*
X93712009Y-52454353D01*
X94616771Y-51930544D02*
X94854866Y-52930544D01*
X94854866Y-52930544D02*
X95045342Y-52216258D01*
X95045342Y-52216258D02*
X95235818Y-52930544D01*
X95235818Y-52930544D02*
X95473914Y-51930544D01*
X95854866Y-52930544D02*
X95854866Y-51930544D01*
X95854866Y-51930544D02*
X96188199Y-52644829D01*
X96188199Y-52644829D02*
X96521532Y-51930544D01*
X96521532Y-51930544D02*
X96521532Y-52930544D01*
X94283437Y-65630544D02*
X93950104Y-65154353D01*
X93712009Y-65630544D02*
X93712009Y-64630544D01*
X93712009Y-64630544D02*
X94092961Y-64630544D01*
X94092961Y-64630544D02*
X94188199Y-64678163D01*
X94188199Y-64678163D02*
X94235818Y-64725782D01*
X94235818Y-64725782D02*
X94283437Y-64821020D01*
X94283437Y-64821020D02*
X94283437Y-64963877D01*
X94283437Y-64963877D02*
X94235818Y-65059115D01*
X94235818Y-65059115D02*
X94188199Y-65106734D01*
X94188199Y-65106734D02*
X94092961Y-65154353D01*
X94092961Y-65154353D02*
X93712009Y-65154353D01*
X94616771Y-64630544D02*
X95283437Y-65630544D01*
X95283437Y-64630544D02*
X94616771Y-65630544D01*
X95616771Y-64725782D02*
X95664390Y-64678163D01*
X95664390Y-64678163D02*
X95759628Y-64630544D01*
X95759628Y-64630544D02*
X95997723Y-64630544D01*
X95997723Y-64630544D02*
X96092961Y-64678163D01*
X96092961Y-64678163D02*
X96140580Y-64725782D01*
X96140580Y-64725782D02*
X96188199Y-64821020D01*
X96188199Y-64821020D02*
X96188199Y-64916258D01*
X96188199Y-64916258D02*
X96140580Y-65059115D01*
X96140580Y-65059115D02*
X95569152Y-65630544D01*
X95569152Y-65630544D02*
X96188199Y-65630544D01*
X103173437Y-101190544D02*
X102840104Y-100714353D01*
X102602009Y-101190544D02*
X102602009Y-100190544D01*
X102602009Y-100190544D02*
X102982961Y-100190544D01*
X102982961Y-100190544D02*
X103078199Y-100238163D01*
X103078199Y-100238163D02*
X103125818Y-100285782D01*
X103125818Y-100285782D02*
X103173437Y-100381020D01*
X103173437Y-100381020D02*
X103173437Y-100523877D01*
X103173437Y-100523877D02*
X103125818Y-100619115D01*
X103125818Y-100619115D02*
X103078199Y-100666734D01*
X103078199Y-100666734D02*
X102982961Y-100714353D01*
X102982961Y-100714353D02*
X102602009Y-100714353D01*
X103506771Y-100190544D02*
X104173437Y-101190544D01*
X104173437Y-100190544D02*
X103506771Y-101190544D01*
X104697247Y-100619115D02*
X104602009Y-100571496D01*
X104602009Y-100571496D02*
X104554390Y-100523877D01*
X104554390Y-100523877D02*
X104506771Y-100428639D01*
X104506771Y-100428639D02*
X104506771Y-100381020D01*
X104506771Y-100381020D02*
X104554390Y-100285782D01*
X104554390Y-100285782D02*
X104602009Y-100238163D01*
X104602009Y-100238163D02*
X104697247Y-100190544D01*
X104697247Y-100190544D02*
X104887723Y-100190544D01*
X104887723Y-100190544D02*
X104982961Y-100238163D01*
X104982961Y-100238163D02*
X105030580Y-100285782D01*
X105030580Y-100285782D02*
X105078199Y-100381020D01*
X105078199Y-100381020D02*
X105078199Y-100428639D01*
X105078199Y-100428639D02*
X105030580Y-100523877D01*
X105030580Y-100523877D02*
X104982961Y-100571496D01*
X104982961Y-100571496D02*
X104887723Y-100619115D01*
X104887723Y-100619115D02*
X104697247Y-100619115D01*
X104697247Y-100619115D02*
X104602009Y-100666734D01*
X104602009Y-100666734D02*
X104554390Y-100714353D01*
X104554390Y-100714353D02*
X104506771Y-100809591D01*
X104506771Y-100809591D02*
X104506771Y-101000067D01*
X104506771Y-101000067D02*
X104554390Y-101095305D01*
X104554390Y-101095305D02*
X104602009Y-101142925D01*
X104602009Y-101142925D02*
X104697247Y-101190544D01*
X104697247Y-101190544D02*
X104887723Y-101190544D01*
X104887723Y-101190544D02*
X104982961Y-101142925D01*
X104982961Y-101142925D02*
X105030580Y-101095305D01*
X105030580Y-101095305D02*
X105078199Y-101000067D01*
X105078199Y-101000067D02*
X105078199Y-100809591D01*
X105078199Y-100809591D02*
X105030580Y-100714353D01*
X105030580Y-100714353D02*
X104982961Y-100666734D01*
X104982961Y-100666734D02*
X104887723Y-100619115D01*
D12*
X118333333Y-71554819D02*
X118000000Y-71078628D01*
X117761905Y-71554819D02*
X117761905Y-70554819D01*
X117761905Y-70554819D02*
X118142857Y-70554819D01*
X118142857Y-70554819D02*
X118238095Y-70602438D01*
X118238095Y-70602438D02*
X118285714Y-70650057D01*
X118285714Y-70650057D02*
X118333333Y-70745295D01*
X118333333Y-70745295D02*
X118333333Y-70888152D01*
X118333333Y-70888152D02*
X118285714Y-70983390D01*
X118285714Y-70983390D02*
X118238095Y-71031009D01*
X118238095Y-71031009D02*
X118142857Y-71078628D01*
X118142857Y-71078628D02*
X117761905Y-71078628D01*
X118666667Y-70554819D02*
X119285714Y-70554819D01*
X119285714Y-70554819D02*
X118952381Y-70935771D01*
X118952381Y-70935771D02*
X119095238Y-70935771D01*
X119095238Y-70935771D02*
X119190476Y-70983390D01*
X119190476Y-70983390D02*
X119238095Y-71031009D01*
X119238095Y-71031009D02*
X119285714Y-71126247D01*
X119285714Y-71126247D02*
X119285714Y-71364342D01*
X119285714Y-71364342D02*
X119238095Y-71459580D01*
X119238095Y-71459580D02*
X119190476Y-71507200D01*
X119190476Y-71507200D02*
X119095238Y-71554819D01*
X119095238Y-71554819D02*
X118809524Y-71554819D01*
X118809524Y-71554819D02*
X118714286Y-71507200D01*
X118714286Y-71507200D02*
X118666667Y-71459580D01*
X116476191Y-73854819D02*
X117095238Y-73854819D01*
X117095238Y-73854819D02*
X116761905Y-74235771D01*
X116761905Y-74235771D02*
X116904762Y-74235771D01*
X116904762Y-74235771D02*
X117000000Y-74283390D01*
X117000000Y-74283390D02*
X117047619Y-74331009D01*
X117047619Y-74331009D02*
X117095238Y-74426247D01*
X117095238Y-74426247D02*
X117095238Y-74664342D01*
X117095238Y-74664342D02*
X117047619Y-74759580D01*
X117047619Y-74759580D02*
X117000000Y-74807200D01*
X117000000Y-74807200D02*
X116904762Y-74854819D01*
X116904762Y-74854819D02*
X116619048Y-74854819D01*
X116619048Y-74854819D02*
X116523810Y-74807200D01*
X116523810Y-74807200D02*
X116476191Y-74759580D01*
X117523810Y-74759580D02*
X117571429Y-74807200D01*
X117571429Y-74807200D02*
X117523810Y-74854819D01*
X117523810Y-74854819D02*
X117476191Y-74807200D01*
X117476191Y-74807200D02*
X117523810Y-74759580D01*
X117523810Y-74759580D02*
X117523810Y-74854819D01*
X117904762Y-73854819D02*
X118523809Y-73854819D01*
X118523809Y-73854819D02*
X118190476Y-74235771D01*
X118190476Y-74235771D02*
X118333333Y-74235771D01*
X118333333Y-74235771D02*
X118428571Y-74283390D01*
X118428571Y-74283390D02*
X118476190Y-74331009D01*
X118476190Y-74331009D02*
X118523809Y-74426247D01*
X118523809Y-74426247D02*
X118523809Y-74664342D01*
X118523809Y-74664342D02*
X118476190Y-74759580D01*
X118476190Y-74759580D02*
X118428571Y-74807200D01*
X118428571Y-74807200D02*
X118333333Y-74854819D01*
X118333333Y-74854819D02*
X118047619Y-74854819D01*
X118047619Y-74854819D02*
X117952381Y-74807200D01*
X117952381Y-74807200D02*
X117904762Y-74759580D01*
X118952381Y-74854819D02*
X118952381Y-73854819D01*
X119047619Y-74473866D02*
X119333333Y-74854819D01*
X119333333Y-74188152D02*
X118952381Y-74569104D01*
X119714286Y-74854819D02*
X119952381Y-74854819D01*
X119952381Y-74854819D02*
X119952381Y-74664342D01*
X119952381Y-74664342D02*
X119857143Y-74616723D01*
X119857143Y-74616723D02*
X119761905Y-74521485D01*
X119761905Y-74521485D02*
X119714286Y-74378628D01*
X119714286Y-74378628D02*
X119714286Y-74140533D01*
X119714286Y-74140533D02*
X119761905Y-73997676D01*
X119761905Y-73997676D02*
X119857143Y-73902438D01*
X119857143Y-73902438D02*
X120000000Y-73854819D01*
X120000000Y-73854819D02*
X120190476Y-73854819D01*
X120190476Y-73854819D02*
X120333333Y-73902438D01*
X120333333Y-73902438D02*
X120428571Y-73997676D01*
X120428571Y-73997676D02*
X120476190Y-74140533D01*
X120476190Y-74140533D02*
X120476190Y-74378628D01*
X120476190Y-74378628D02*
X120428571Y-74521485D01*
X120428571Y-74521485D02*
X120333333Y-74616723D01*
X120333333Y-74616723D02*
X120238095Y-74664342D01*
X120238095Y-74664342D02*
X120238095Y-74854819D01*
X120238095Y-74854819D02*
X120476190Y-74854819D01*
D15*
%TO.C,J2*%
X109640000Y-56840000D02*
X109640000Y-59340000D01*
X109940000Y-57140000D02*
X109940000Y-69860000D01*
X109940000Y-69860000D02*
X113960000Y-69860000D01*
X111440000Y-57140000D02*
X111440000Y-58140000D01*
X111440000Y-58140000D02*
X109940000Y-58140000D01*
X111440000Y-68860000D02*
X109940000Y-68860000D01*
X111440000Y-69860000D02*
X111440000Y-68860000D01*
X112140000Y-56840000D02*
X109640000Y-56840000D01*
X112250000Y-57140000D02*
X112250000Y-57640000D01*
X112250000Y-57640000D02*
X113460000Y-57640000D01*
X112250000Y-69360000D02*
X112250000Y-69860000D01*
X113460000Y-57640000D02*
X113460000Y-69360000D01*
X113460000Y-69360000D02*
X112250000Y-69360000D01*
X113960000Y-57140000D02*
X109940000Y-57140000D01*
X113960000Y-69860000D02*
X113960000Y-57140000D01*
%TO.C,R4*%
X118272936Y-67515000D02*
X118727064Y-67515000D01*
X118272936Y-68985000D02*
X118727064Y-68985000D01*
%TO.C,D2*%
X110040000Y-97000000D02*
X110040000Y-99860000D01*
X110040000Y-99860000D02*
X111960000Y-99860000D01*
X111960000Y-99860000D02*
X111960000Y-97000000D01*
%TO.C,D1*%
X116540000Y-76290000D02*
X116540000Y-78210000D01*
X116540000Y-78210000D02*
X119400000Y-78210000D01*
X119400000Y-76290000D02*
X116540000Y-76290000D01*
D13*
%TO.C,BZ1*%
X121001875Y-90650000D02*
G75*
G02*
X108998125Y-90650000I-6001875J0D01*
G01*
X108998125Y-90650000D02*
G75*
G02*
X121001875Y-90650000I6001875J0D01*
G01*
D15*
%TO.C,R6*%
X110265000Y-101772936D02*
X110265000Y-102227064D01*
X111735000Y-101772936D02*
X111735000Y-102227064D01*
%TO.C,R5*%
X118072936Y-81265000D02*
X118527064Y-81265000D01*
X118072936Y-82735000D02*
X118527064Y-82735000D01*
%TO.C,J4*%
X110040000Y-71390000D02*
X110040000Y-84110000D01*
X110040000Y-84110000D02*
X114060000Y-84110000D01*
X110540000Y-71890000D02*
X111750000Y-71890000D01*
X110540000Y-83610000D02*
X110540000Y-71890000D01*
X111750000Y-71890000D02*
X111750000Y-71390000D01*
X111750000Y-83610000D02*
X110540000Y-83610000D01*
X111750000Y-84110000D02*
X111750000Y-83610000D01*
X111860000Y-84410000D02*
X114360000Y-84410000D01*
X112560000Y-71390000D02*
X112560000Y-72390000D01*
X112560000Y-72390000D02*
X114060000Y-72390000D01*
X112560000Y-83110000D02*
X114060000Y-83110000D01*
X112560000Y-84110000D02*
X112560000Y-83110000D01*
X114060000Y-71390000D02*
X110040000Y-71390000D01*
X114060000Y-84110000D02*
X114060000Y-71390000D01*
X114360000Y-84410000D02*
X114360000Y-81910000D01*
%TO.C,J11*%
X111280000Y-50110000D02*
X118020000Y-50110000D01*
X111280000Y-55930000D02*
X111280000Y-50110000D01*
X111280000Y-55930000D02*
X118020000Y-55930000D01*
X112999000Y-55930000D02*
X112999000Y-50110000D01*
X116100000Y-55930000D02*
X116100000Y-50110000D01*
X117100000Y-55930000D02*
X117100000Y-50110000D01*
X117220000Y-56170000D02*
X118260000Y-56170000D01*
X118020000Y-55930000D02*
X118020000Y-50110000D01*
X118260000Y-56170000D02*
X118260000Y-55370000D01*
D13*
%TO.C,Teensy4.2*%
X90868125Y-72108125D02*
X90868125Y-42898125D01*
X90868125Y-72108125D02*
X90868125Y-73378125D01*
X90868125Y-73378125D02*
X90868125Y-103858125D01*
X90868125Y-103858125D02*
X108648125Y-103858125D01*
X108648125Y-42898125D02*
X90868125Y-42898125D01*
X108648125Y-42898125D02*
X108648125Y-70838125D01*
X108648125Y-103858125D02*
X108648125Y-70838125D01*
D15*
%TO.C,J9*%
X116540000Y-57640000D02*
X116540000Y-65360000D01*
X116540000Y-65360000D02*
X120560000Y-65360000D01*
X117040000Y-58140000D02*
X118250000Y-58140000D01*
X117040000Y-64860000D02*
X117040000Y-58140000D01*
X118250000Y-58140000D02*
X118250000Y-57640000D01*
X118250000Y-64860000D02*
X117040000Y-64860000D01*
X118250000Y-65360000D02*
X118250000Y-64860000D01*
X118360000Y-65660000D02*
X120860000Y-65660000D01*
X119060000Y-57640000D02*
X119060000Y-58640000D01*
X119060000Y-58640000D02*
X120560000Y-58640000D01*
X119060000Y-64360000D02*
X120560000Y-64360000D01*
X119060000Y-65360000D02*
X119060000Y-64360000D01*
X120560000Y-57640000D02*
X116540000Y-57640000D01*
X120560000Y-65360000D02*
X120560000Y-57640000D01*
X120860000Y-65660000D02*
X120860000Y-63160000D01*
%TO.C,R3*%
X118272936Y-72015000D02*
X118727064Y-72015000D01*
X118272936Y-73485000D02*
X118727064Y-73485000D01*
%TD*%
M02*
