%TF.GenerationSoftware,KiCad,Pcbnew,8.0.3*%
%TF.CreationDate,2024-09-25T15:42:15-04:00*%
%TF.ProjectId,mcu-board,6d63752d-626f-4617-9264-2e6b69636164,rev?*%
%TF.SameCoordinates,Original*%
%TF.FileFunction,Legend,Top*%
%TF.FilePolarity,Positive*%
%FSLAX46Y46*%
G04 Gerber Fmt 4.6, Leading zero omitted, Abs format (unit mm)*
G04 Created by KiCad (PCBNEW 8.0.3) date 2024-09-25 15:42:15*
%MOMM*%
%LPD*%
G01*
G04 APERTURE LIST*
%ADD10C,0.100000*%
%ADD11C,0.200000*%
%ADD12C,0.150000*%
%ADD13C,0.120000*%
G04 APERTURE END LIST*
D10*
X144206353Y-63862180D02*
X144158734Y-63909800D01*
X144158734Y-63909800D02*
X144015877Y-63957419D01*
X144015877Y-63957419D02*
X143920639Y-63957419D01*
X143920639Y-63957419D02*
X143777782Y-63909800D01*
X143777782Y-63909800D02*
X143682544Y-63814561D01*
X143682544Y-63814561D02*
X143634925Y-63719323D01*
X143634925Y-63719323D02*
X143587306Y-63528847D01*
X143587306Y-63528847D02*
X143587306Y-63385990D01*
X143587306Y-63385990D02*
X143634925Y-63195514D01*
X143634925Y-63195514D02*
X143682544Y-63100276D01*
X143682544Y-63100276D02*
X143777782Y-63005038D01*
X143777782Y-63005038D02*
X143920639Y-62957419D01*
X143920639Y-62957419D02*
X144015877Y-62957419D01*
X144015877Y-62957419D02*
X144158734Y-63005038D01*
X144158734Y-63005038D02*
X144206353Y-63052657D01*
X144587306Y-63909800D02*
X144730163Y-63957419D01*
X144730163Y-63957419D02*
X144968258Y-63957419D01*
X144968258Y-63957419D02*
X145063496Y-63909800D01*
X145063496Y-63909800D02*
X145111115Y-63862180D01*
X145111115Y-63862180D02*
X145158734Y-63766942D01*
X145158734Y-63766942D02*
X145158734Y-63671704D01*
X145158734Y-63671704D02*
X145111115Y-63576466D01*
X145111115Y-63576466D02*
X145063496Y-63528847D01*
X145063496Y-63528847D02*
X144968258Y-63481228D01*
X144968258Y-63481228D02*
X144777782Y-63433609D01*
X144777782Y-63433609D02*
X144682544Y-63385990D01*
X144682544Y-63385990D02*
X144634925Y-63338371D01*
X144634925Y-63338371D02*
X144587306Y-63243133D01*
X144587306Y-63243133D02*
X144587306Y-63147895D01*
X144587306Y-63147895D02*
X144634925Y-63052657D01*
X144634925Y-63052657D02*
X144682544Y-63005038D01*
X144682544Y-63005038D02*
X144777782Y-62957419D01*
X144777782Y-62957419D02*
X145015877Y-62957419D01*
X145015877Y-62957419D02*
X145158734Y-63005038D01*
D11*
X179637873Y-69917142D02*
X178387873Y-69917142D01*
X178090254Y-69274284D02*
X178030730Y-69131427D01*
X178030730Y-69131427D02*
X178030730Y-68917141D01*
X178030730Y-68917141D02*
X178090254Y-68774284D01*
X178090254Y-68774284D02*
X178209302Y-68702856D01*
X178209302Y-68702856D02*
X178328350Y-68702856D01*
X178328350Y-68702856D02*
X178447397Y-68774284D01*
X178447397Y-68774284D02*
X178864064Y-69274284D01*
X178864064Y-69274284D02*
X178864064Y-68702856D01*
X179518826Y-67202856D02*
X179578350Y-67274284D01*
X179578350Y-67274284D02*
X179637873Y-67488570D01*
X179637873Y-67488570D02*
X179637873Y-67631427D01*
X179637873Y-67631427D02*
X179578350Y-67845713D01*
X179578350Y-67845713D02*
X179459302Y-67988570D01*
X179459302Y-67988570D02*
X179340254Y-68059999D01*
X179340254Y-68059999D02*
X179102159Y-68131427D01*
X179102159Y-68131427D02*
X178923588Y-68131427D01*
X178923588Y-68131427D02*
X178685492Y-68059999D01*
X178685492Y-68059999D02*
X178566445Y-67988570D01*
X178566445Y-67988570D02*
X178447397Y-67845713D01*
X178447397Y-67845713D02*
X178387873Y-67631427D01*
X178387873Y-67631427D02*
X178387873Y-67488570D01*
X178387873Y-67488570D02*
X178447397Y-67274284D01*
X178447397Y-67274284D02*
X178506921Y-67202856D01*
X178387873Y-65131427D02*
X178387873Y-64988570D01*
X178387873Y-64988570D02*
X178447397Y-64845713D01*
X178447397Y-64845713D02*
X178506921Y-64774285D01*
X178506921Y-64774285D02*
X178625969Y-64702856D01*
X178625969Y-64702856D02*
X178864064Y-64631427D01*
X178864064Y-64631427D02*
X179161683Y-64631427D01*
X179161683Y-64631427D02*
X179399778Y-64702856D01*
X179399778Y-64702856D02*
X179518826Y-64774285D01*
X179518826Y-64774285D02*
X179578350Y-64845713D01*
X179578350Y-64845713D02*
X179637873Y-64988570D01*
X179637873Y-64988570D02*
X179637873Y-65131427D01*
X179637873Y-65131427D02*
X179578350Y-65274285D01*
X179578350Y-65274285D02*
X179518826Y-65345713D01*
X179518826Y-65345713D02*
X179399778Y-65417142D01*
X179399778Y-65417142D02*
X179161683Y-65488570D01*
X179161683Y-65488570D02*
X178864064Y-65488570D01*
X178864064Y-65488570D02*
X178625969Y-65417142D01*
X178625969Y-65417142D02*
X178506921Y-65345713D01*
X178506921Y-65345713D02*
X178447397Y-65274285D01*
X178447397Y-65274285D02*
X178387873Y-65131427D01*
D10*
X142730163Y-55337419D02*
X143349210Y-55337419D01*
X143349210Y-55337419D02*
X143015877Y-55718371D01*
X143015877Y-55718371D02*
X143158734Y-55718371D01*
X143158734Y-55718371D02*
X143253972Y-55765990D01*
X143253972Y-55765990D02*
X143301591Y-55813609D01*
X143301591Y-55813609D02*
X143349210Y-55908847D01*
X143349210Y-55908847D02*
X143349210Y-56146942D01*
X143349210Y-56146942D02*
X143301591Y-56242180D01*
X143301591Y-56242180D02*
X143253972Y-56289800D01*
X143253972Y-56289800D02*
X143158734Y-56337419D01*
X143158734Y-56337419D02*
X142873020Y-56337419D01*
X142873020Y-56337419D02*
X142777782Y-56289800D01*
X142777782Y-56289800D02*
X142730163Y-56242180D01*
X143634925Y-55337419D02*
X143968258Y-56337419D01*
X143968258Y-56337419D02*
X144301591Y-55337419D01*
X144539687Y-55337419D02*
X145158734Y-55337419D01*
X145158734Y-55337419D02*
X144825401Y-55718371D01*
X144825401Y-55718371D02*
X144968258Y-55718371D01*
X144968258Y-55718371D02*
X145063496Y-55765990D01*
X145063496Y-55765990D02*
X145111115Y-55813609D01*
X145111115Y-55813609D02*
X145158734Y-55908847D01*
X145158734Y-55908847D02*
X145158734Y-56146942D01*
X145158734Y-56146942D02*
X145111115Y-56242180D01*
X145111115Y-56242180D02*
X145063496Y-56289800D01*
X145063496Y-56289800D02*
X144968258Y-56337419D01*
X144968258Y-56337419D02*
X144682544Y-56337419D01*
X144682544Y-56337419D02*
X144587306Y-56289800D01*
X144587306Y-56289800D02*
X144539687Y-56242180D01*
X185612693Y-78245038D02*
X185517455Y-78197419D01*
X185517455Y-78197419D02*
X185374598Y-78197419D01*
X185374598Y-78197419D02*
X185231741Y-78245038D01*
X185231741Y-78245038D02*
X185136503Y-78340276D01*
X185136503Y-78340276D02*
X185088884Y-78435514D01*
X185088884Y-78435514D02*
X185041265Y-78625990D01*
X185041265Y-78625990D02*
X185041265Y-78768847D01*
X185041265Y-78768847D02*
X185088884Y-78959323D01*
X185088884Y-78959323D02*
X185136503Y-79054561D01*
X185136503Y-79054561D02*
X185231741Y-79149800D01*
X185231741Y-79149800D02*
X185374598Y-79197419D01*
X185374598Y-79197419D02*
X185469836Y-79197419D01*
X185469836Y-79197419D02*
X185612693Y-79149800D01*
X185612693Y-79149800D02*
X185660312Y-79102180D01*
X185660312Y-79102180D02*
X185660312Y-78768847D01*
X185660312Y-78768847D02*
X185469836Y-78768847D01*
X186088884Y-79197419D02*
X186088884Y-78197419D01*
X186088884Y-78197419D02*
X186660312Y-79197419D01*
X186660312Y-79197419D02*
X186660312Y-78197419D01*
X187136503Y-79197419D02*
X187136503Y-78197419D01*
X187136503Y-78197419D02*
X187374598Y-78197419D01*
X187374598Y-78197419D02*
X187517455Y-78245038D01*
X187517455Y-78245038D02*
X187612693Y-78340276D01*
X187612693Y-78340276D02*
X187660312Y-78435514D01*
X187660312Y-78435514D02*
X187707931Y-78625990D01*
X187707931Y-78625990D02*
X187707931Y-78768847D01*
X187707931Y-78768847D02*
X187660312Y-78959323D01*
X187660312Y-78959323D02*
X187612693Y-79054561D01*
X187612693Y-79054561D02*
X187517455Y-79149800D01*
X187517455Y-79149800D02*
X187374598Y-79197419D01*
X187374598Y-79197419D02*
X187136503Y-79197419D01*
X185732693Y-70625038D02*
X185637455Y-70577419D01*
X185637455Y-70577419D02*
X185494598Y-70577419D01*
X185494598Y-70577419D02*
X185351741Y-70625038D01*
X185351741Y-70625038D02*
X185256503Y-70720276D01*
X185256503Y-70720276D02*
X185208884Y-70815514D01*
X185208884Y-70815514D02*
X185161265Y-71005990D01*
X185161265Y-71005990D02*
X185161265Y-71148847D01*
X185161265Y-71148847D02*
X185208884Y-71339323D01*
X185208884Y-71339323D02*
X185256503Y-71434561D01*
X185256503Y-71434561D02*
X185351741Y-71529800D01*
X185351741Y-71529800D02*
X185494598Y-71577419D01*
X185494598Y-71577419D02*
X185589836Y-71577419D01*
X185589836Y-71577419D02*
X185732693Y-71529800D01*
X185732693Y-71529800D02*
X185780312Y-71482180D01*
X185780312Y-71482180D02*
X185780312Y-71148847D01*
X185780312Y-71148847D02*
X185589836Y-71148847D01*
X186208884Y-71577419D02*
X186208884Y-70577419D01*
X186208884Y-70577419D02*
X186780312Y-71577419D01*
X186780312Y-71577419D02*
X186780312Y-70577419D01*
X187256503Y-71577419D02*
X187256503Y-70577419D01*
X187256503Y-70577419D02*
X187494598Y-70577419D01*
X187494598Y-70577419D02*
X187637455Y-70625038D01*
X187637455Y-70625038D02*
X187732693Y-70720276D01*
X187732693Y-70720276D02*
X187780312Y-70815514D01*
X187780312Y-70815514D02*
X187827931Y-71005990D01*
X187827931Y-71005990D02*
X187827931Y-71148847D01*
X187827931Y-71148847D02*
X187780312Y-71339323D01*
X187780312Y-71339323D02*
X187732693Y-71434561D01*
X187732693Y-71434561D02*
X187637455Y-71529800D01*
X187637455Y-71529800D02*
X187494598Y-71577419D01*
X187494598Y-71577419D02*
X187256503Y-71577419D01*
D11*
X175391428Y-102187873D02*
X175391428Y-103199778D01*
X175391428Y-103199778D02*
X175462857Y-103318826D01*
X175462857Y-103318826D02*
X175534286Y-103378350D01*
X175534286Y-103378350D02*
X175677143Y-103437873D01*
X175677143Y-103437873D02*
X175962857Y-103437873D01*
X175962857Y-103437873D02*
X176105714Y-103378350D01*
X176105714Y-103378350D02*
X176177143Y-103318826D01*
X176177143Y-103318826D02*
X176248571Y-103199778D01*
X176248571Y-103199778D02*
X176248571Y-102187873D01*
X176891429Y-103080730D02*
X177605715Y-103080730D01*
X176748572Y-103437873D02*
X177248572Y-102187873D01*
X177248572Y-102187873D02*
X177748572Y-103437873D01*
X179105714Y-103437873D02*
X178605714Y-102842635D01*
X178248571Y-103437873D02*
X178248571Y-102187873D01*
X178248571Y-102187873D02*
X178820000Y-102187873D01*
X178820000Y-102187873D02*
X178962857Y-102247397D01*
X178962857Y-102247397D02*
X179034286Y-102306921D01*
X179034286Y-102306921D02*
X179105714Y-102425969D01*
X179105714Y-102425969D02*
X179105714Y-102604540D01*
X179105714Y-102604540D02*
X179034286Y-102723588D01*
X179034286Y-102723588D02*
X178962857Y-102783111D01*
X178962857Y-102783111D02*
X178820000Y-102842635D01*
X178820000Y-102842635D02*
X178248571Y-102842635D01*
X179534286Y-102187873D02*
X180391429Y-102187873D01*
X179962857Y-103437873D02*
X179962857Y-102187873D01*
X182248571Y-102723588D02*
X182105714Y-102664064D01*
X182105714Y-102664064D02*
X182034285Y-102604540D01*
X182034285Y-102604540D02*
X181962857Y-102485492D01*
X181962857Y-102485492D02*
X181962857Y-102425969D01*
X181962857Y-102425969D02*
X182034285Y-102306921D01*
X182034285Y-102306921D02*
X182105714Y-102247397D01*
X182105714Y-102247397D02*
X182248571Y-102187873D01*
X182248571Y-102187873D02*
X182534285Y-102187873D01*
X182534285Y-102187873D02*
X182677143Y-102247397D01*
X182677143Y-102247397D02*
X182748571Y-102306921D01*
X182748571Y-102306921D02*
X182820000Y-102425969D01*
X182820000Y-102425969D02*
X182820000Y-102485492D01*
X182820000Y-102485492D02*
X182748571Y-102604540D01*
X182748571Y-102604540D02*
X182677143Y-102664064D01*
X182677143Y-102664064D02*
X182534285Y-102723588D01*
X182534285Y-102723588D02*
X182248571Y-102723588D01*
X182248571Y-102723588D02*
X182105714Y-102783111D01*
X182105714Y-102783111D02*
X182034285Y-102842635D01*
X182034285Y-102842635D02*
X181962857Y-102961683D01*
X181962857Y-102961683D02*
X181962857Y-103199778D01*
X181962857Y-103199778D02*
X182034285Y-103318826D01*
X182034285Y-103318826D02*
X182105714Y-103378350D01*
X182105714Y-103378350D02*
X182248571Y-103437873D01*
X182248571Y-103437873D02*
X182534285Y-103437873D01*
X182534285Y-103437873D02*
X182677143Y-103378350D01*
X182677143Y-103378350D02*
X182748571Y-103318826D01*
X182748571Y-103318826D02*
X182820000Y-103199778D01*
X182820000Y-103199778D02*
X182820000Y-102961683D01*
X182820000Y-102961683D02*
X182748571Y-102842635D01*
X182748571Y-102842635D02*
X182677143Y-102783111D01*
X182677143Y-102783111D02*
X182534285Y-102723588D01*
X150621650Y-67028572D02*
X150562126Y-67242858D01*
X150562126Y-67242858D02*
X150562126Y-67600000D01*
X150562126Y-67600000D02*
X150621650Y-67742858D01*
X150621650Y-67742858D02*
X150681173Y-67814286D01*
X150681173Y-67814286D02*
X150800221Y-67885715D01*
X150800221Y-67885715D02*
X150919269Y-67885715D01*
X150919269Y-67885715D02*
X151038316Y-67814286D01*
X151038316Y-67814286D02*
X151097840Y-67742858D01*
X151097840Y-67742858D02*
X151157364Y-67600000D01*
X151157364Y-67600000D02*
X151216888Y-67314286D01*
X151216888Y-67314286D02*
X151276411Y-67171429D01*
X151276411Y-67171429D02*
X151335935Y-67100000D01*
X151335935Y-67100000D02*
X151454983Y-67028572D01*
X151454983Y-67028572D02*
X151574030Y-67028572D01*
X151574030Y-67028572D02*
X151693078Y-67100000D01*
X151693078Y-67100000D02*
X151752602Y-67171429D01*
X151752602Y-67171429D02*
X151812126Y-67314286D01*
X151812126Y-67314286D02*
X151812126Y-67671429D01*
X151812126Y-67671429D02*
X151752602Y-67885715D01*
X150562126Y-68528571D02*
X151812126Y-68528571D01*
X151812126Y-68528571D02*
X151812126Y-69100000D01*
X151812126Y-69100000D02*
X151752602Y-69242857D01*
X151752602Y-69242857D02*
X151693078Y-69314286D01*
X151693078Y-69314286D02*
X151574030Y-69385714D01*
X151574030Y-69385714D02*
X151395459Y-69385714D01*
X151395459Y-69385714D02*
X151276411Y-69314286D01*
X151276411Y-69314286D02*
X151216888Y-69242857D01*
X151216888Y-69242857D02*
X151157364Y-69100000D01*
X151157364Y-69100000D02*
X151157364Y-68528571D01*
X150562126Y-70028571D02*
X151812126Y-70028571D01*
X151812126Y-72171429D02*
X151812126Y-72314286D01*
X151812126Y-72314286D02*
X151752602Y-72457143D01*
X151752602Y-72457143D02*
X151693078Y-72528572D01*
X151693078Y-72528572D02*
X151574030Y-72600000D01*
X151574030Y-72600000D02*
X151335935Y-72671429D01*
X151335935Y-72671429D02*
X151038316Y-72671429D01*
X151038316Y-72671429D02*
X150800221Y-72600000D01*
X150800221Y-72600000D02*
X150681173Y-72528572D01*
X150681173Y-72528572D02*
X150621650Y-72457143D01*
X150621650Y-72457143D02*
X150562126Y-72314286D01*
X150562126Y-72314286D02*
X150562126Y-72171429D01*
X150562126Y-72171429D02*
X150621650Y-72028572D01*
X150621650Y-72028572D02*
X150681173Y-71957143D01*
X150681173Y-71957143D02*
X150800221Y-71885714D01*
X150800221Y-71885714D02*
X151038316Y-71814286D01*
X151038316Y-71814286D02*
X151335935Y-71814286D01*
X151335935Y-71814286D02*
X151574030Y-71885714D01*
X151574030Y-71885714D02*
X151693078Y-71957143D01*
X151693078Y-71957143D02*
X151752602Y-72028572D01*
X151752602Y-72028572D02*
X151812126Y-72171429D01*
D10*
X150402580Y-30065163D02*
X150402580Y-30636591D01*
X149402580Y-30350877D02*
X150402580Y-30350877D01*
X150402580Y-30874687D02*
X149402580Y-31541353D01*
X150402580Y-31541353D02*
X149402580Y-30874687D01*
X185612693Y-55385038D02*
X185517455Y-55337419D01*
X185517455Y-55337419D02*
X185374598Y-55337419D01*
X185374598Y-55337419D02*
X185231741Y-55385038D01*
X185231741Y-55385038D02*
X185136503Y-55480276D01*
X185136503Y-55480276D02*
X185088884Y-55575514D01*
X185088884Y-55575514D02*
X185041265Y-55765990D01*
X185041265Y-55765990D02*
X185041265Y-55908847D01*
X185041265Y-55908847D02*
X185088884Y-56099323D01*
X185088884Y-56099323D02*
X185136503Y-56194561D01*
X185136503Y-56194561D02*
X185231741Y-56289800D01*
X185231741Y-56289800D02*
X185374598Y-56337419D01*
X185374598Y-56337419D02*
X185469836Y-56337419D01*
X185469836Y-56337419D02*
X185612693Y-56289800D01*
X185612693Y-56289800D02*
X185660312Y-56242180D01*
X185660312Y-56242180D02*
X185660312Y-55908847D01*
X185660312Y-55908847D02*
X185469836Y-55908847D01*
X186088884Y-56337419D02*
X186088884Y-55337419D01*
X186088884Y-55337419D02*
X186660312Y-56337419D01*
X186660312Y-56337419D02*
X186660312Y-55337419D01*
X187136503Y-56337419D02*
X187136503Y-55337419D01*
X187136503Y-55337419D02*
X187374598Y-55337419D01*
X187374598Y-55337419D02*
X187517455Y-55385038D01*
X187517455Y-55385038D02*
X187612693Y-55480276D01*
X187612693Y-55480276D02*
X187660312Y-55575514D01*
X187660312Y-55575514D02*
X187707931Y-55765990D01*
X187707931Y-55765990D02*
X187707931Y-55908847D01*
X187707931Y-55908847D02*
X187660312Y-56099323D01*
X187660312Y-56099323D02*
X187612693Y-56194561D01*
X187612693Y-56194561D02*
X187517455Y-56289800D01*
X187517455Y-56289800D02*
X187374598Y-56337419D01*
X187374598Y-56337419D02*
X187136503Y-56337419D01*
X155482580Y-108793646D02*
X155482580Y-109412693D01*
X155482580Y-109412693D02*
X155101628Y-109079360D01*
X155101628Y-109079360D02*
X155101628Y-109222217D01*
X155101628Y-109222217D02*
X155054009Y-109317455D01*
X155054009Y-109317455D02*
X155006390Y-109365074D01*
X155006390Y-109365074D02*
X154911152Y-109412693D01*
X154911152Y-109412693D02*
X154673057Y-109412693D01*
X154673057Y-109412693D02*
X154577819Y-109365074D01*
X154577819Y-109365074D02*
X154530200Y-109317455D01*
X154530200Y-109317455D02*
X154482580Y-109222217D01*
X154482580Y-109222217D02*
X154482580Y-108936503D01*
X154482580Y-108936503D02*
X154530200Y-108841265D01*
X154530200Y-108841265D02*
X154577819Y-108793646D01*
X155482580Y-109698408D02*
X154482580Y-110031741D01*
X154482580Y-110031741D02*
X155482580Y-110365074D01*
X155482580Y-110603170D02*
X155482580Y-111222217D01*
X155482580Y-111222217D02*
X155101628Y-110888884D01*
X155101628Y-110888884D02*
X155101628Y-111031741D01*
X155101628Y-111031741D02*
X155054009Y-111126979D01*
X155054009Y-111126979D02*
X155006390Y-111174598D01*
X155006390Y-111174598D02*
X154911152Y-111222217D01*
X154911152Y-111222217D02*
X154673057Y-111222217D01*
X154673057Y-111222217D02*
X154577819Y-111174598D01*
X154577819Y-111174598D02*
X154530200Y-111126979D01*
X154530200Y-111126979D02*
X154482580Y-111031741D01*
X154482580Y-111031741D02*
X154482580Y-110746027D01*
X154482580Y-110746027D02*
X154530200Y-110650789D01*
X154530200Y-110650789D02*
X154577819Y-110603170D01*
X185041265Y-89309800D02*
X185184122Y-89357419D01*
X185184122Y-89357419D02*
X185422217Y-89357419D01*
X185422217Y-89357419D02*
X185517455Y-89309800D01*
X185517455Y-89309800D02*
X185565074Y-89262180D01*
X185565074Y-89262180D02*
X185612693Y-89166942D01*
X185612693Y-89166942D02*
X185612693Y-89071704D01*
X185612693Y-89071704D02*
X185565074Y-88976466D01*
X185565074Y-88976466D02*
X185517455Y-88928847D01*
X185517455Y-88928847D02*
X185422217Y-88881228D01*
X185422217Y-88881228D02*
X185231741Y-88833609D01*
X185231741Y-88833609D02*
X185136503Y-88785990D01*
X185136503Y-88785990D02*
X185088884Y-88738371D01*
X185088884Y-88738371D02*
X185041265Y-88643133D01*
X185041265Y-88643133D02*
X185041265Y-88547895D01*
X185041265Y-88547895D02*
X185088884Y-88452657D01*
X185088884Y-88452657D02*
X185136503Y-88405038D01*
X185136503Y-88405038D02*
X185231741Y-88357419D01*
X185231741Y-88357419D02*
X185469836Y-88357419D01*
X185469836Y-88357419D02*
X185612693Y-88405038D01*
X186612693Y-89262180D02*
X186565074Y-89309800D01*
X186565074Y-89309800D02*
X186422217Y-89357419D01*
X186422217Y-89357419D02*
X186326979Y-89357419D01*
X186326979Y-89357419D02*
X186184122Y-89309800D01*
X186184122Y-89309800D02*
X186088884Y-89214561D01*
X186088884Y-89214561D02*
X186041265Y-89119323D01*
X186041265Y-89119323D02*
X185993646Y-88928847D01*
X185993646Y-88928847D02*
X185993646Y-88785990D01*
X185993646Y-88785990D02*
X186041265Y-88595514D01*
X186041265Y-88595514D02*
X186088884Y-88500276D01*
X186088884Y-88500276D02*
X186184122Y-88405038D01*
X186184122Y-88405038D02*
X186326979Y-88357419D01*
X186326979Y-88357419D02*
X186422217Y-88357419D01*
X186422217Y-88357419D02*
X186565074Y-88405038D01*
X186565074Y-88405038D02*
X186612693Y-88452657D01*
X187041265Y-89357419D02*
X187041265Y-88357419D01*
X187612693Y-89357419D02*
X187184122Y-88785990D01*
X187612693Y-88357419D02*
X187041265Y-88928847D01*
X143730163Y-50257419D02*
X144301591Y-50257419D01*
X144015877Y-51257419D02*
X144015877Y-50257419D01*
X144539687Y-50257419D02*
X145206353Y-51257419D01*
X145206353Y-50257419D02*
X144539687Y-51257419D01*
D11*
X151812126Y-48391428D02*
X150800221Y-48391428D01*
X150800221Y-48391428D02*
X150681173Y-48462857D01*
X150681173Y-48462857D02*
X150621650Y-48534286D01*
X150621650Y-48534286D02*
X150562126Y-48677143D01*
X150562126Y-48677143D02*
X150562126Y-48962857D01*
X150562126Y-48962857D02*
X150621650Y-49105714D01*
X150621650Y-49105714D02*
X150681173Y-49177143D01*
X150681173Y-49177143D02*
X150800221Y-49248571D01*
X150800221Y-49248571D02*
X151812126Y-49248571D01*
X150919269Y-49891429D02*
X150919269Y-50605715D01*
X150562126Y-49748572D02*
X151812126Y-50248572D01*
X151812126Y-50248572D02*
X150562126Y-50748572D01*
X150562126Y-52105714D02*
X151157364Y-51605714D01*
X150562126Y-51248571D02*
X151812126Y-51248571D01*
X151812126Y-51248571D02*
X151812126Y-51820000D01*
X151812126Y-51820000D02*
X151752602Y-51962857D01*
X151752602Y-51962857D02*
X151693078Y-52034286D01*
X151693078Y-52034286D02*
X151574030Y-52105714D01*
X151574030Y-52105714D02*
X151395459Y-52105714D01*
X151395459Y-52105714D02*
X151276411Y-52034286D01*
X151276411Y-52034286D02*
X151216888Y-51962857D01*
X151216888Y-51962857D02*
X151157364Y-51820000D01*
X151157364Y-51820000D02*
X151157364Y-51248571D01*
X151812126Y-52534286D02*
X151812126Y-53391429D01*
X150562126Y-52962857D02*
X151812126Y-52962857D01*
X151693078Y-54962857D02*
X151752602Y-55034285D01*
X151752602Y-55034285D02*
X151812126Y-55177143D01*
X151812126Y-55177143D02*
X151812126Y-55534285D01*
X151812126Y-55534285D02*
X151752602Y-55677143D01*
X151752602Y-55677143D02*
X151693078Y-55748571D01*
X151693078Y-55748571D02*
X151574030Y-55820000D01*
X151574030Y-55820000D02*
X151454983Y-55820000D01*
X151454983Y-55820000D02*
X151276411Y-55748571D01*
X151276411Y-55748571D02*
X150562126Y-54891428D01*
X150562126Y-54891428D02*
X150562126Y-55820000D01*
X150626428Y-36782873D02*
X150626428Y-37794778D01*
X150626428Y-37794778D02*
X150697857Y-37913826D01*
X150697857Y-37913826D02*
X150769286Y-37973350D01*
X150769286Y-37973350D02*
X150912143Y-38032873D01*
X150912143Y-38032873D02*
X151197857Y-38032873D01*
X151197857Y-38032873D02*
X151340714Y-37973350D01*
X151340714Y-37973350D02*
X151412143Y-37913826D01*
X151412143Y-37913826D02*
X151483571Y-37794778D01*
X151483571Y-37794778D02*
X151483571Y-36782873D01*
X152126429Y-37675730D02*
X152840715Y-37675730D01*
X151983572Y-38032873D02*
X152483572Y-36782873D01*
X152483572Y-36782873D02*
X152983572Y-38032873D01*
X154340714Y-38032873D02*
X153840714Y-37437635D01*
X153483571Y-38032873D02*
X153483571Y-36782873D01*
X153483571Y-36782873D02*
X154055000Y-36782873D01*
X154055000Y-36782873D02*
X154197857Y-36842397D01*
X154197857Y-36842397D02*
X154269286Y-36901921D01*
X154269286Y-36901921D02*
X154340714Y-37020969D01*
X154340714Y-37020969D02*
X154340714Y-37199540D01*
X154340714Y-37199540D02*
X154269286Y-37318588D01*
X154269286Y-37318588D02*
X154197857Y-37378111D01*
X154197857Y-37378111D02*
X154055000Y-37437635D01*
X154055000Y-37437635D02*
X153483571Y-37437635D01*
X154769286Y-36782873D02*
X155626429Y-36782873D01*
X155197857Y-38032873D02*
X155197857Y-36782873D01*
X158055000Y-38032873D02*
X157197857Y-38032873D01*
X157626428Y-38032873D02*
X157626428Y-36782873D01*
X157626428Y-36782873D02*
X157483571Y-36961445D01*
X157483571Y-36961445D02*
X157340714Y-37080492D01*
X157340714Y-37080492D02*
X157197857Y-37140016D01*
X178387873Y-55748571D02*
X179399778Y-55748571D01*
X179399778Y-55748571D02*
X179518826Y-55677142D01*
X179518826Y-55677142D02*
X179578350Y-55605714D01*
X179578350Y-55605714D02*
X179637873Y-55462856D01*
X179637873Y-55462856D02*
X179637873Y-55177142D01*
X179637873Y-55177142D02*
X179578350Y-55034285D01*
X179578350Y-55034285D02*
X179518826Y-54962856D01*
X179518826Y-54962856D02*
X179399778Y-54891428D01*
X179399778Y-54891428D02*
X178387873Y-54891428D01*
X179280730Y-54248570D02*
X179280730Y-53534285D01*
X179637873Y-54391427D02*
X178387873Y-53891427D01*
X178387873Y-53891427D02*
X179637873Y-53391427D01*
X179637873Y-52034285D02*
X179042635Y-52534285D01*
X179637873Y-52891428D02*
X178387873Y-52891428D01*
X178387873Y-52891428D02*
X178387873Y-52319999D01*
X178387873Y-52319999D02*
X178447397Y-52177142D01*
X178447397Y-52177142D02*
X178506921Y-52105713D01*
X178506921Y-52105713D02*
X178625969Y-52034285D01*
X178625969Y-52034285D02*
X178804540Y-52034285D01*
X178804540Y-52034285D02*
X178923588Y-52105713D01*
X178923588Y-52105713D02*
X178983111Y-52177142D01*
X178983111Y-52177142D02*
X179042635Y-52319999D01*
X179042635Y-52319999D02*
X179042635Y-52891428D01*
X178387873Y-51605713D02*
X178387873Y-50748571D01*
X179637873Y-51177142D02*
X178387873Y-51177142D01*
X178387873Y-48391428D02*
X178387873Y-49105714D01*
X178387873Y-49105714D02*
X178983111Y-49177142D01*
X178983111Y-49177142D02*
X178923588Y-49105714D01*
X178923588Y-49105714D02*
X178864064Y-48962857D01*
X178864064Y-48962857D02*
X178864064Y-48605714D01*
X178864064Y-48605714D02*
X178923588Y-48462857D01*
X178923588Y-48462857D02*
X178983111Y-48391428D01*
X178983111Y-48391428D02*
X179102159Y-48319999D01*
X179102159Y-48319999D02*
X179399778Y-48319999D01*
X179399778Y-48319999D02*
X179518826Y-48391428D01*
X179518826Y-48391428D02*
X179578350Y-48462857D01*
X179578350Y-48462857D02*
X179637873Y-48605714D01*
X179637873Y-48605714D02*
X179637873Y-48962857D01*
X179637873Y-48962857D02*
X179578350Y-49105714D01*
X179578350Y-49105714D02*
X179518826Y-49177142D01*
D10*
X150402580Y-108746027D02*
X150402580Y-109317455D01*
X149402580Y-109031741D02*
X150402580Y-109031741D01*
X150402580Y-109555551D02*
X149402580Y-110222217D01*
X150402580Y-110222217D02*
X149402580Y-109555551D01*
X185161265Y-69009800D02*
X185304122Y-69057419D01*
X185304122Y-69057419D02*
X185542217Y-69057419D01*
X185542217Y-69057419D02*
X185637455Y-69009800D01*
X185637455Y-69009800D02*
X185685074Y-68962180D01*
X185685074Y-68962180D02*
X185732693Y-68866942D01*
X185732693Y-68866942D02*
X185732693Y-68771704D01*
X185732693Y-68771704D02*
X185685074Y-68676466D01*
X185685074Y-68676466D02*
X185637455Y-68628847D01*
X185637455Y-68628847D02*
X185542217Y-68581228D01*
X185542217Y-68581228D02*
X185351741Y-68533609D01*
X185351741Y-68533609D02*
X185256503Y-68485990D01*
X185256503Y-68485990D02*
X185208884Y-68438371D01*
X185208884Y-68438371D02*
X185161265Y-68343133D01*
X185161265Y-68343133D02*
X185161265Y-68247895D01*
X185161265Y-68247895D02*
X185208884Y-68152657D01*
X185208884Y-68152657D02*
X185256503Y-68105038D01*
X185256503Y-68105038D02*
X185351741Y-68057419D01*
X185351741Y-68057419D02*
X185589836Y-68057419D01*
X185589836Y-68057419D02*
X185732693Y-68105038D01*
X186732693Y-68962180D02*
X186685074Y-69009800D01*
X186685074Y-69009800D02*
X186542217Y-69057419D01*
X186542217Y-69057419D02*
X186446979Y-69057419D01*
X186446979Y-69057419D02*
X186304122Y-69009800D01*
X186304122Y-69009800D02*
X186208884Y-68914561D01*
X186208884Y-68914561D02*
X186161265Y-68819323D01*
X186161265Y-68819323D02*
X186113646Y-68628847D01*
X186113646Y-68628847D02*
X186113646Y-68485990D01*
X186113646Y-68485990D02*
X186161265Y-68295514D01*
X186161265Y-68295514D02*
X186208884Y-68200276D01*
X186208884Y-68200276D02*
X186304122Y-68105038D01*
X186304122Y-68105038D02*
X186446979Y-68057419D01*
X186446979Y-68057419D02*
X186542217Y-68057419D01*
X186542217Y-68057419D02*
X186685074Y-68105038D01*
X186685074Y-68105038D02*
X186732693Y-68152657D01*
X187637455Y-69057419D02*
X187161265Y-69057419D01*
X187161265Y-69057419D02*
X187161265Y-68057419D01*
X143063496Y-75705038D02*
X142968258Y-75657419D01*
X142968258Y-75657419D02*
X142825401Y-75657419D01*
X142825401Y-75657419D02*
X142682544Y-75705038D01*
X142682544Y-75705038D02*
X142587306Y-75800276D01*
X142587306Y-75800276D02*
X142539687Y-75895514D01*
X142539687Y-75895514D02*
X142492068Y-76085990D01*
X142492068Y-76085990D02*
X142492068Y-76228847D01*
X142492068Y-76228847D02*
X142539687Y-76419323D01*
X142539687Y-76419323D02*
X142587306Y-76514561D01*
X142587306Y-76514561D02*
X142682544Y-76609800D01*
X142682544Y-76609800D02*
X142825401Y-76657419D01*
X142825401Y-76657419D02*
X142920639Y-76657419D01*
X142920639Y-76657419D02*
X143063496Y-76609800D01*
X143063496Y-76609800D02*
X143111115Y-76562180D01*
X143111115Y-76562180D02*
X143111115Y-76228847D01*
X143111115Y-76228847D02*
X142920639Y-76228847D01*
X143539687Y-76657419D02*
X143539687Y-75657419D01*
X143539687Y-75657419D02*
X144111115Y-76657419D01*
X144111115Y-76657419D02*
X144111115Y-75657419D01*
X144587306Y-76657419D02*
X144587306Y-75657419D01*
X144587306Y-75657419D02*
X144825401Y-75657419D01*
X144825401Y-75657419D02*
X144968258Y-75705038D01*
X144968258Y-75705038D02*
X145063496Y-75800276D01*
X145063496Y-75800276D02*
X145111115Y-75895514D01*
X145111115Y-75895514D02*
X145158734Y-76085990D01*
X145158734Y-76085990D02*
X145158734Y-76228847D01*
X145158734Y-76228847D02*
X145111115Y-76419323D01*
X145111115Y-76419323D02*
X145063496Y-76514561D01*
X145063496Y-76514561D02*
X144968258Y-76609800D01*
X144968258Y-76609800D02*
X144825401Y-76657419D01*
X144825401Y-76657419D02*
X144587306Y-76657419D01*
X184993646Y-47717419D02*
X185612693Y-47717419D01*
X185612693Y-47717419D02*
X185279360Y-48098371D01*
X185279360Y-48098371D02*
X185422217Y-48098371D01*
X185422217Y-48098371D02*
X185517455Y-48145990D01*
X185517455Y-48145990D02*
X185565074Y-48193609D01*
X185565074Y-48193609D02*
X185612693Y-48288847D01*
X185612693Y-48288847D02*
X185612693Y-48526942D01*
X185612693Y-48526942D02*
X185565074Y-48622180D01*
X185565074Y-48622180D02*
X185517455Y-48669800D01*
X185517455Y-48669800D02*
X185422217Y-48717419D01*
X185422217Y-48717419D02*
X185136503Y-48717419D01*
X185136503Y-48717419D02*
X185041265Y-48669800D01*
X185041265Y-48669800D02*
X184993646Y-48622180D01*
X185898408Y-47717419D02*
X186231741Y-48717419D01*
X186231741Y-48717419D02*
X186565074Y-47717419D01*
X186803170Y-47717419D02*
X187422217Y-47717419D01*
X187422217Y-47717419D02*
X187088884Y-48098371D01*
X187088884Y-48098371D02*
X187231741Y-48098371D01*
X187231741Y-48098371D02*
X187326979Y-48145990D01*
X187326979Y-48145990D02*
X187374598Y-48193609D01*
X187374598Y-48193609D02*
X187422217Y-48288847D01*
X187422217Y-48288847D02*
X187422217Y-48526942D01*
X187422217Y-48526942D02*
X187374598Y-48622180D01*
X187374598Y-48622180D02*
X187326979Y-48669800D01*
X187326979Y-48669800D02*
X187231741Y-48717419D01*
X187231741Y-48717419D02*
X186946027Y-48717419D01*
X186946027Y-48717419D02*
X186850789Y-48669800D01*
X186850789Y-48669800D02*
X186803170Y-48622180D01*
X179882580Y-109460312D02*
X180358771Y-109126979D01*
X179882580Y-108888884D02*
X180882580Y-108888884D01*
X180882580Y-108888884D02*
X180882580Y-109269836D01*
X180882580Y-109269836D02*
X180834961Y-109365074D01*
X180834961Y-109365074D02*
X180787342Y-109412693D01*
X180787342Y-109412693D02*
X180692104Y-109460312D01*
X180692104Y-109460312D02*
X180549247Y-109460312D01*
X180549247Y-109460312D02*
X180454009Y-109412693D01*
X180454009Y-109412693D02*
X180406390Y-109365074D01*
X180406390Y-109365074D02*
X180358771Y-109269836D01*
X180358771Y-109269836D02*
X180358771Y-108888884D01*
X180882580Y-109793646D02*
X179882580Y-110460312D01*
X180882580Y-110460312D02*
X179882580Y-109793646D01*
D11*
X179578350Y-87911427D02*
X179637873Y-87697142D01*
X179637873Y-87697142D02*
X179637873Y-87339999D01*
X179637873Y-87339999D02*
X179578350Y-87197142D01*
X179578350Y-87197142D02*
X179518826Y-87125713D01*
X179518826Y-87125713D02*
X179399778Y-87054284D01*
X179399778Y-87054284D02*
X179280730Y-87054284D01*
X179280730Y-87054284D02*
X179161683Y-87125713D01*
X179161683Y-87125713D02*
X179102159Y-87197142D01*
X179102159Y-87197142D02*
X179042635Y-87339999D01*
X179042635Y-87339999D02*
X178983111Y-87625713D01*
X178983111Y-87625713D02*
X178923588Y-87768570D01*
X178923588Y-87768570D02*
X178864064Y-87839999D01*
X178864064Y-87839999D02*
X178745016Y-87911427D01*
X178745016Y-87911427D02*
X178625969Y-87911427D01*
X178625969Y-87911427D02*
X178506921Y-87839999D01*
X178506921Y-87839999D02*
X178447397Y-87768570D01*
X178447397Y-87768570D02*
X178387873Y-87625713D01*
X178387873Y-87625713D02*
X178387873Y-87268570D01*
X178387873Y-87268570D02*
X178447397Y-87054284D01*
X179637873Y-86411428D02*
X178387873Y-86411428D01*
X178387873Y-86411428D02*
X178387873Y-85839999D01*
X178387873Y-85839999D02*
X178447397Y-85697142D01*
X178447397Y-85697142D02*
X178506921Y-85625713D01*
X178506921Y-85625713D02*
X178625969Y-85554285D01*
X178625969Y-85554285D02*
X178804540Y-85554285D01*
X178804540Y-85554285D02*
X178923588Y-85625713D01*
X178923588Y-85625713D02*
X178983111Y-85697142D01*
X178983111Y-85697142D02*
X179042635Y-85839999D01*
X179042635Y-85839999D02*
X179042635Y-86411428D01*
X179637873Y-84911428D02*
X178387873Y-84911428D01*
X179637873Y-82268570D02*
X179637873Y-83125713D01*
X179637873Y-82697142D02*
X178387873Y-82697142D01*
X178387873Y-82697142D02*
X178566445Y-82839999D01*
X178566445Y-82839999D02*
X178685492Y-82982856D01*
X178685492Y-82982856D02*
X178745016Y-83125713D01*
D10*
X142587306Y-66449800D02*
X142730163Y-66497419D01*
X142730163Y-66497419D02*
X142968258Y-66497419D01*
X142968258Y-66497419D02*
X143063496Y-66449800D01*
X143063496Y-66449800D02*
X143111115Y-66402180D01*
X143111115Y-66402180D02*
X143158734Y-66306942D01*
X143158734Y-66306942D02*
X143158734Y-66211704D01*
X143158734Y-66211704D02*
X143111115Y-66116466D01*
X143111115Y-66116466D02*
X143063496Y-66068847D01*
X143063496Y-66068847D02*
X142968258Y-66021228D01*
X142968258Y-66021228D02*
X142777782Y-65973609D01*
X142777782Y-65973609D02*
X142682544Y-65925990D01*
X142682544Y-65925990D02*
X142634925Y-65878371D01*
X142634925Y-65878371D02*
X142587306Y-65783133D01*
X142587306Y-65783133D02*
X142587306Y-65687895D01*
X142587306Y-65687895D02*
X142634925Y-65592657D01*
X142634925Y-65592657D02*
X142682544Y-65545038D01*
X142682544Y-65545038D02*
X142777782Y-65497419D01*
X142777782Y-65497419D02*
X143015877Y-65497419D01*
X143015877Y-65497419D02*
X143158734Y-65545038D01*
X144158734Y-66402180D02*
X144111115Y-66449800D01*
X144111115Y-66449800D02*
X143968258Y-66497419D01*
X143968258Y-66497419D02*
X143873020Y-66497419D01*
X143873020Y-66497419D02*
X143730163Y-66449800D01*
X143730163Y-66449800D02*
X143634925Y-66354561D01*
X143634925Y-66354561D02*
X143587306Y-66259323D01*
X143587306Y-66259323D02*
X143539687Y-66068847D01*
X143539687Y-66068847D02*
X143539687Y-65925990D01*
X143539687Y-65925990D02*
X143587306Y-65735514D01*
X143587306Y-65735514D02*
X143634925Y-65640276D01*
X143634925Y-65640276D02*
X143730163Y-65545038D01*
X143730163Y-65545038D02*
X143873020Y-65497419D01*
X143873020Y-65497419D02*
X143968258Y-65497419D01*
X143968258Y-65497419D02*
X144111115Y-65545038D01*
X144111115Y-65545038D02*
X144158734Y-65592657D01*
X144587306Y-66497419D02*
X144587306Y-65497419D01*
X145158734Y-66497419D02*
X144730163Y-65925990D01*
X145158734Y-65497419D02*
X144587306Y-66068847D01*
X184993646Y-80737419D02*
X185612693Y-80737419D01*
X185612693Y-80737419D02*
X185279360Y-81118371D01*
X185279360Y-81118371D02*
X185422217Y-81118371D01*
X185422217Y-81118371D02*
X185517455Y-81165990D01*
X185517455Y-81165990D02*
X185565074Y-81213609D01*
X185565074Y-81213609D02*
X185612693Y-81308847D01*
X185612693Y-81308847D02*
X185612693Y-81546942D01*
X185612693Y-81546942D02*
X185565074Y-81642180D01*
X185565074Y-81642180D02*
X185517455Y-81689800D01*
X185517455Y-81689800D02*
X185422217Y-81737419D01*
X185422217Y-81737419D02*
X185136503Y-81737419D01*
X185136503Y-81737419D02*
X185041265Y-81689800D01*
X185041265Y-81689800D02*
X184993646Y-81642180D01*
X185898408Y-80737419D02*
X186231741Y-81737419D01*
X186231741Y-81737419D02*
X186565074Y-80737419D01*
X186803170Y-80737419D02*
X187422217Y-80737419D01*
X187422217Y-80737419D02*
X187088884Y-81118371D01*
X187088884Y-81118371D02*
X187231741Y-81118371D01*
X187231741Y-81118371D02*
X187326979Y-81165990D01*
X187326979Y-81165990D02*
X187374598Y-81213609D01*
X187374598Y-81213609D02*
X187422217Y-81308847D01*
X187422217Y-81308847D02*
X187422217Y-81546942D01*
X187422217Y-81546942D02*
X187374598Y-81642180D01*
X187374598Y-81642180D02*
X187326979Y-81689800D01*
X187326979Y-81689800D02*
X187231741Y-81737419D01*
X187231741Y-81737419D02*
X186946027Y-81737419D01*
X186946027Y-81737419D02*
X186850789Y-81689800D01*
X186850789Y-81689800D02*
X186803170Y-81642180D01*
X142730163Y-90897419D02*
X143349210Y-90897419D01*
X143349210Y-90897419D02*
X143015877Y-91278371D01*
X143015877Y-91278371D02*
X143158734Y-91278371D01*
X143158734Y-91278371D02*
X143253972Y-91325990D01*
X143253972Y-91325990D02*
X143301591Y-91373609D01*
X143301591Y-91373609D02*
X143349210Y-91468847D01*
X143349210Y-91468847D02*
X143349210Y-91706942D01*
X143349210Y-91706942D02*
X143301591Y-91802180D01*
X143301591Y-91802180D02*
X143253972Y-91849800D01*
X143253972Y-91849800D02*
X143158734Y-91897419D01*
X143158734Y-91897419D02*
X142873020Y-91897419D01*
X142873020Y-91897419D02*
X142777782Y-91849800D01*
X142777782Y-91849800D02*
X142730163Y-91802180D01*
X143634925Y-90897419D02*
X143968258Y-91897419D01*
X143968258Y-91897419D02*
X144301591Y-90897419D01*
X144539687Y-90897419D02*
X145158734Y-90897419D01*
X145158734Y-90897419D02*
X144825401Y-91278371D01*
X144825401Y-91278371D02*
X144968258Y-91278371D01*
X144968258Y-91278371D02*
X145063496Y-91325990D01*
X145063496Y-91325990D02*
X145111115Y-91373609D01*
X145111115Y-91373609D02*
X145158734Y-91468847D01*
X145158734Y-91468847D02*
X145158734Y-91706942D01*
X145158734Y-91706942D02*
X145111115Y-91802180D01*
X145111115Y-91802180D02*
X145063496Y-91849800D01*
X145063496Y-91849800D02*
X144968258Y-91897419D01*
X144968258Y-91897419D02*
X144682544Y-91897419D01*
X144682544Y-91897419D02*
X144587306Y-91849800D01*
X144587306Y-91849800D02*
X144539687Y-91802180D01*
X183422580Y-108793646D02*
X183422580Y-109412693D01*
X183422580Y-109412693D02*
X183041628Y-109079360D01*
X183041628Y-109079360D02*
X183041628Y-109222217D01*
X183041628Y-109222217D02*
X182994009Y-109317455D01*
X182994009Y-109317455D02*
X182946390Y-109365074D01*
X182946390Y-109365074D02*
X182851152Y-109412693D01*
X182851152Y-109412693D02*
X182613057Y-109412693D01*
X182613057Y-109412693D02*
X182517819Y-109365074D01*
X182517819Y-109365074D02*
X182470200Y-109317455D01*
X182470200Y-109317455D02*
X182422580Y-109222217D01*
X182422580Y-109222217D02*
X182422580Y-108936503D01*
X182422580Y-108936503D02*
X182470200Y-108841265D01*
X182470200Y-108841265D02*
X182517819Y-108793646D01*
X183422580Y-109698408D02*
X182422580Y-110031741D01*
X182422580Y-110031741D02*
X183422580Y-110365074D01*
X183422580Y-110603170D02*
X183422580Y-111222217D01*
X183422580Y-111222217D02*
X183041628Y-110888884D01*
X183041628Y-110888884D02*
X183041628Y-111031741D01*
X183041628Y-111031741D02*
X182994009Y-111126979D01*
X182994009Y-111126979D02*
X182946390Y-111174598D01*
X182946390Y-111174598D02*
X182851152Y-111222217D01*
X182851152Y-111222217D02*
X182613057Y-111222217D01*
X182613057Y-111222217D02*
X182517819Y-111174598D01*
X182517819Y-111174598D02*
X182470200Y-111126979D01*
X182470200Y-111126979D02*
X182422580Y-111031741D01*
X182422580Y-111031741D02*
X182422580Y-110746027D01*
X182422580Y-110746027D02*
X182470200Y-110650789D01*
X182470200Y-110650789D02*
X182517819Y-110603170D01*
X151942580Y-30541353D02*
X152418771Y-30208020D01*
X151942580Y-29969925D02*
X152942580Y-29969925D01*
X152942580Y-29969925D02*
X152942580Y-30350877D01*
X152942580Y-30350877D02*
X152894961Y-30446115D01*
X152894961Y-30446115D02*
X152847342Y-30493734D01*
X152847342Y-30493734D02*
X152752104Y-30541353D01*
X152752104Y-30541353D02*
X152609247Y-30541353D01*
X152609247Y-30541353D02*
X152514009Y-30493734D01*
X152514009Y-30493734D02*
X152466390Y-30446115D01*
X152466390Y-30446115D02*
X152418771Y-30350877D01*
X152418771Y-30350877D02*
X152418771Y-29969925D01*
X152942580Y-30874687D02*
X151942580Y-31541353D01*
X152942580Y-31541353D02*
X151942580Y-30874687D01*
D11*
X147451428Y-102187873D02*
X147451428Y-103199778D01*
X147451428Y-103199778D02*
X147522857Y-103318826D01*
X147522857Y-103318826D02*
X147594286Y-103378350D01*
X147594286Y-103378350D02*
X147737143Y-103437873D01*
X147737143Y-103437873D02*
X148022857Y-103437873D01*
X148022857Y-103437873D02*
X148165714Y-103378350D01*
X148165714Y-103378350D02*
X148237143Y-103318826D01*
X148237143Y-103318826D02*
X148308571Y-103199778D01*
X148308571Y-103199778D02*
X148308571Y-102187873D01*
X148951429Y-103080730D02*
X149665715Y-103080730D01*
X148808572Y-103437873D02*
X149308572Y-102187873D01*
X149308572Y-102187873D02*
X149808572Y-103437873D01*
X151165714Y-103437873D02*
X150665714Y-102842635D01*
X150308571Y-103437873D02*
X150308571Y-102187873D01*
X150308571Y-102187873D02*
X150880000Y-102187873D01*
X150880000Y-102187873D02*
X151022857Y-102247397D01*
X151022857Y-102247397D02*
X151094286Y-102306921D01*
X151094286Y-102306921D02*
X151165714Y-102425969D01*
X151165714Y-102425969D02*
X151165714Y-102604540D01*
X151165714Y-102604540D02*
X151094286Y-102723588D01*
X151094286Y-102723588D02*
X151022857Y-102783111D01*
X151022857Y-102783111D02*
X150880000Y-102842635D01*
X150880000Y-102842635D02*
X150308571Y-102842635D01*
X151594286Y-102187873D02*
X152451429Y-102187873D01*
X152022857Y-103437873D02*
X152022857Y-102187873D01*
X153951428Y-102187873D02*
X154951428Y-102187873D01*
X154951428Y-102187873D02*
X154308571Y-103437873D01*
D10*
X178342580Y-108746027D02*
X178342580Y-109317455D01*
X177342580Y-109031741D02*
X178342580Y-109031741D01*
X178342580Y-109555551D02*
X177342580Y-110222217D01*
X178342580Y-110222217D02*
X177342580Y-109555551D01*
X144206353Y-53797419D02*
X143873020Y-53321228D01*
X143634925Y-53797419D02*
X143634925Y-52797419D01*
X143634925Y-52797419D02*
X144015877Y-52797419D01*
X144015877Y-52797419D02*
X144111115Y-52845038D01*
X144111115Y-52845038D02*
X144158734Y-52892657D01*
X144158734Y-52892657D02*
X144206353Y-52987895D01*
X144206353Y-52987895D02*
X144206353Y-53130752D01*
X144206353Y-53130752D02*
X144158734Y-53225990D01*
X144158734Y-53225990D02*
X144111115Y-53273609D01*
X144111115Y-53273609D02*
X144015877Y-53321228D01*
X144015877Y-53321228D02*
X143634925Y-53321228D01*
X144539687Y-52797419D02*
X145206353Y-53797419D01*
X145206353Y-52797419D02*
X144539687Y-53797419D01*
X185660312Y-91802180D02*
X185612693Y-91849800D01*
X185612693Y-91849800D02*
X185469836Y-91897419D01*
X185469836Y-91897419D02*
X185374598Y-91897419D01*
X185374598Y-91897419D02*
X185231741Y-91849800D01*
X185231741Y-91849800D02*
X185136503Y-91754561D01*
X185136503Y-91754561D02*
X185088884Y-91659323D01*
X185088884Y-91659323D02*
X185041265Y-91468847D01*
X185041265Y-91468847D02*
X185041265Y-91325990D01*
X185041265Y-91325990D02*
X185088884Y-91135514D01*
X185088884Y-91135514D02*
X185136503Y-91040276D01*
X185136503Y-91040276D02*
X185231741Y-90945038D01*
X185231741Y-90945038D02*
X185374598Y-90897419D01*
X185374598Y-90897419D02*
X185469836Y-90897419D01*
X185469836Y-90897419D02*
X185612693Y-90945038D01*
X185612693Y-90945038D02*
X185660312Y-90992657D01*
X186041265Y-91849800D02*
X186184122Y-91897419D01*
X186184122Y-91897419D02*
X186422217Y-91897419D01*
X186422217Y-91897419D02*
X186517455Y-91849800D01*
X186517455Y-91849800D02*
X186565074Y-91802180D01*
X186565074Y-91802180D02*
X186612693Y-91706942D01*
X186612693Y-91706942D02*
X186612693Y-91611704D01*
X186612693Y-91611704D02*
X186565074Y-91516466D01*
X186565074Y-91516466D02*
X186517455Y-91468847D01*
X186517455Y-91468847D02*
X186422217Y-91421228D01*
X186422217Y-91421228D02*
X186231741Y-91373609D01*
X186231741Y-91373609D02*
X186136503Y-91325990D01*
X186136503Y-91325990D02*
X186088884Y-91278371D01*
X186088884Y-91278371D02*
X186041265Y-91183133D01*
X186041265Y-91183133D02*
X186041265Y-91087895D01*
X186041265Y-91087895D02*
X186088884Y-90992657D01*
X186088884Y-90992657D02*
X186136503Y-90945038D01*
X186136503Y-90945038D02*
X186231741Y-90897419D01*
X186231741Y-90897419D02*
X186469836Y-90897419D01*
X186469836Y-90897419D02*
X186612693Y-90945038D01*
D12*
X174913096Y-37977646D02*
X174913096Y-36852646D01*
X174913096Y-36852646D02*
X175389286Y-36852646D01*
X175389286Y-36852646D02*
X175508334Y-36906217D01*
X175508334Y-36906217D02*
X175567857Y-36959789D01*
X175567857Y-36959789D02*
X175627381Y-37066932D01*
X175627381Y-37066932D02*
X175627381Y-37227646D01*
X175627381Y-37227646D02*
X175567857Y-37334789D01*
X175567857Y-37334789D02*
X175508334Y-37388360D01*
X175508334Y-37388360D02*
X175389286Y-37441932D01*
X175389286Y-37441932D02*
X174913096Y-37441932D01*
X176401191Y-36852646D02*
X176639286Y-36852646D01*
X176639286Y-36852646D02*
X176758334Y-36906217D01*
X176758334Y-36906217D02*
X176877381Y-37013360D01*
X176877381Y-37013360D02*
X176936905Y-37227646D01*
X176936905Y-37227646D02*
X176936905Y-37602646D01*
X176936905Y-37602646D02*
X176877381Y-37816932D01*
X176877381Y-37816932D02*
X176758334Y-37924075D01*
X176758334Y-37924075D02*
X176639286Y-37977646D01*
X176639286Y-37977646D02*
X176401191Y-37977646D01*
X176401191Y-37977646D02*
X176282143Y-37924075D01*
X176282143Y-37924075D02*
X176163096Y-37816932D01*
X176163096Y-37816932D02*
X176103572Y-37602646D01*
X176103572Y-37602646D02*
X176103572Y-37227646D01*
X176103572Y-37227646D02*
X176163096Y-37013360D01*
X176163096Y-37013360D02*
X176282143Y-36906217D01*
X176282143Y-36906217D02*
X176401191Y-36852646D01*
X177353572Y-36852646D02*
X177651191Y-37977646D01*
X177651191Y-37977646D02*
X177889286Y-37174075D01*
X177889286Y-37174075D02*
X178127381Y-37977646D01*
X178127381Y-37977646D02*
X178425001Y-36852646D01*
X178901191Y-37388360D02*
X179317857Y-37388360D01*
X179496429Y-37977646D02*
X178901191Y-37977646D01*
X178901191Y-37977646D02*
X178901191Y-36852646D01*
X178901191Y-36852646D02*
X179496429Y-36852646D01*
X180746428Y-37977646D02*
X180329762Y-37441932D01*
X180032143Y-37977646D02*
X180032143Y-36852646D01*
X180032143Y-36852646D02*
X180508333Y-36852646D01*
X180508333Y-36852646D02*
X180627381Y-36906217D01*
X180627381Y-36906217D02*
X180686904Y-36959789D01*
X180686904Y-36959789D02*
X180746428Y-37066932D01*
X180746428Y-37066932D02*
X180746428Y-37227646D01*
X180746428Y-37227646D02*
X180686904Y-37334789D01*
X180686904Y-37334789D02*
X180627381Y-37388360D01*
X180627381Y-37388360D02*
X180508333Y-37441932D01*
X180508333Y-37441932D02*
X180032143Y-37441932D01*
D10*
X142730163Y-73117419D02*
X143349210Y-73117419D01*
X143349210Y-73117419D02*
X143015877Y-73498371D01*
X143015877Y-73498371D02*
X143158734Y-73498371D01*
X143158734Y-73498371D02*
X143253972Y-73545990D01*
X143253972Y-73545990D02*
X143301591Y-73593609D01*
X143301591Y-73593609D02*
X143349210Y-73688847D01*
X143349210Y-73688847D02*
X143349210Y-73926942D01*
X143349210Y-73926942D02*
X143301591Y-74022180D01*
X143301591Y-74022180D02*
X143253972Y-74069800D01*
X143253972Y-74069800D02*
X143158734Y-74117419D01*
X143158734Y-74117419D02*
X142873020Y-74117419D01*
X142873020Y-74117419D02*
X142777782Y-74069800D01*
X142777782Y-74069800D02*
X142730163Y-74022180D01*
X143634925Y-73117419D02*
X143968258Y-74117419D01*
X143968258Y-74117419D02*
X144301591Y-73117419D01*
X144539687Y-73117419D02*
X145158734Y-73117419D01*
X145158734Y-73117419D02*
X144825401Y-73498371D01*
X144825401Y-73498371D02*
X144968258Y-73498371D01*
X144968258Y-73498371D02*
X145063496Y-73545990D01*
X145063496Y-73545990D02*
X145111115Y-73593609D01*
X145111115Y-73593609D02*
X145158734Y-73688847D01*
X145158734Y-73688847D02*
X145158734Y-73926942D01*
X145158734Y-73926942D02*
X145111115Y-74022180D01*
X145111115Y-74022180D02*
X145063496Y-74069800D01*
X145063496Y-74069800D02*
X144968258Y-74117419D01*
X144968258Y-74117419D02*
X144682544Y-74117419D01*
X144682544Y-74117419D02*
X144587306Y-74069800D01*
X144587306Y-74069800D02*
X144539687Y-74022180D01*
X175754961Y-109412693D02*
X175802580Y-109317455D01*
X175802580Y-109317455D02*
X175802580Y-109174598D01*
X175802580Y-109174598D02*
X175754961Y-109031741D01*
X175754961Y-109031741D02*
X175659723Y-108936503D01*
X175659723Y-108936503D02*
X175564485Y-108888884D01*
X175564485Y-108888884D02*
X175374009Y-108841265D01*
X175374009Y-108841265D02*
X175231152Y-108841265D01*
X175231152Y-108841265D02*
X175040676Y-108888884D01*
X175040676Y-108888884D02*
X174945438Y-108936503D01*
X174945438Y-108936503D02*
X174850200Y-109031741D01*
X174850200Y-109031741D02*
X174802580Y-109174598D01*
X174802580Y-109174598D02*
X174802580Y-109269836D01*
X174802580Y-109269836D02*
X174850200Y-109412693D01*
X174850200Y-109412693D02*
X174897819Y-109460312D01*
X174897819Y-109460312D02*
X175231152Y-109460312D01*
X175231152Y-109460312D02*
X175231152Y-109269836D01*
X174802580Y-109888884D02*
X175802580Y-109888884D01*
X175802580Y-109888884D02*
X174802580Y-110460312D01*
X174802580Y-110460312D02*
X175802580Y-110460312D01*
X174802580Y-110936503D02*
X175802580Y-110936503D01*
X175802580Y-110936503D02*
X175802580Y-111174598D01*
X175802580Y-111174598D02*
X175754961Y-111317455D01*
X175754961Y-111317455D02*
X175659723Y-111412693D01*
X175659723Y-111412693D02*
X175564485Y-111460312D01*
X175564485Y-111460312D02*
X175374009Y-111507931D01*
X175374009Y-111507931D02*
X175231152Y-111507931D01*
X175231152Y-111507931D02*
X175040676Y-111460312D01*
X175040676Y-111460312D02*
X174945438Y-111412693D01*
X174945438Y-111412693D02*
X174850200Y-111317455D01*
X174850200Y-111317455D02*
X174802580Y-111174598D01*
X174802580Y-111174598D02*
X174802580Y-110936503D01*
X151942580Y-109460312D02*
X152418771Y-109126979D01*
X151942580Y-108888884D02*
X152942580Y-108888884D01*
X152942580Y-108888884D02*
X152942580Y-109269836D01*
X152942580Y-109269836D02*
X152894961Y-109365074D01*
X152894961Y-109365074D02*
X152847342Y-109412693D01*
X152847342Y-109412693D02*
X152752104Y-109460312D01*
X152752104Y-109460312D02*
X152609247Y-109460312D01*
X152609247Y-109460312D02*
X152514009Y-109412693D01*
X152514009Y-109412693D02*
X152466390Y-109365074D01*
X152466390Y-109365074D02*
X152418771Y-109269836D01*
X152418771Y-109269836D02*
X152418771Y-108888884D01*
X152942580Y-109793646D02*
X151942580Y-110460312D01*
X152942580Y-110460312D02*
X151942580Y-109793646D01*
X185113646Y-62957419D02*
X185732693Y-62957419D01*
X185732693Y-62957419D02*
X185399360Y-63338371D01*
X185399360Y-63338371D02*
X185542217Y-63338371D01*
X185542217Y-63338371D02*
X185637455Y-63385990D01*
X185637455Y-63385990D02*
X185685074Y-63433609D01*
X185685074Y-63433609D02*
X185732693Y-63528847D01*
X185732693Y-63528847D02*
X185732693Y-63766942D01*
X185732693Y-63766942D02*
X185685074Y-63862180D01*
X185685074Y-63862180D02*
X185637455Y-63909800D01*
X185637455Y-63909800D02*
X185542217Y-63957419D01*
X185542217Y-63957419D02*
X185256503Y-63957419D01*
X185256503Y-63957419D02*
X185161265Y-63909800D01*
X185161265Y-63909800D02*
X185113646Y-63862180D01*
X186018408Y-62957419D02*
X186351741Y-63957419D01*
X186351741Y-63957419D02*
X186685074Y-62957419D01*
X186923170Y-62957419D02*
X187542217Y-62957419D01*
X187542217Y-62957419D02*
X187208884Y-63338371D01*
X187208884Y-63338371D02*
X187351741Y-63338371D01*
X187351741Y-63338371D02*
X187446979Y-63385990D01*
X187446979Y-63385990D02*
X187494598Y-63433609D01*
X187494598Y-63433609D02*
X187542217Y-63528847D01*
X187542217Y-63528847D02*
X187542217Y-63766942D01*
X187542217Y-63766942D02*
X187494598Y-63862180D01*
X187494598Y-63862180D02*
X187446979Y-63909800D01*
X187446979Y-63909800D02*
X187351741Y-63957419D01*
X187351741Y-63957419D02*
X187066027Y-63957419D01*
X187066027Y-63957419D02*
X186970789Y-63909800D01*
X186970789Y-63909800D02*
X186923170Y-63862180D01*
X155482580Y-29065163D02*
X155482580Y-29684210D01*
X155482580Y-29684210D02*
X155101628Y-29350877D01*
X155101628Y-29350877D02*
X155101628Y-29493734D01*
X155101628Y-29493734D02*
X155054009Y-29588972D01*
X155054009Y-29588972D02*
X155006390Y-29636591D01*
X155006390Y-29636591D02*
X154911152Y-29684210D01*
X154911152Y-29684210D02*
X154673057Y-29684210D01*
X154673057Y-29684210D02*
X154577819Y-29636591D01*
X154577819Y-29636591D02*
X154530200Y-29588972D01*
X154530200Y-29588972D02*
X154482580Y-29493734D01*
X154482580Y-29493734D02*
X154482580Y-29208020D01*
X154482580Y-29208020D02*
X154530200Y-29112782D01*
X154530200Y-29112782D02*
X154577819Y-29065163D01*
X155482580Y-29969925D02*
X154482580Y-30303258D01*
X154482580Y-30303258D02*
X155482580Y-30636591D01*
X155482580Y-30874687D02*
X155482580Y-31493734D01*
X155482580Y-31493734D02*
X155101628Y-31160401D01*
X155101628Y-31160401D02*
X155101628Y-31303258D01*
X155101628Y-31303258D02*
X155054009Y-31398496D01*
X155054009Y-31398496D02*
X155006390Y-31446115D01*
X155006390Y-31446115D02*
X154911152Y-31493734D01*
X154911152Y-31493734D02*
X154673057Y-31493734D01*
X154673057Y-31493734D02*
X154577819Y-31446115D01*
X154577819Y-31446115D02*
X154530200Y-31398496D01*
X154530200Y-31398496D02*
X154482580Y-31303258D01*
X154482580Y-31303258D02*
X154482580Y-31017544D01*
X154482580Y-31017544D02*
X154530200Y-30922306D01*
X154530200Y-30922306D02*
X154577819Y-30874687D01*
X185176265Y-66609800D02*
X185319122Y-66657419D01*
X185319122Y-66657419D02*
X185557217Y-66657419D01*
X185557217Y-66657419D02*
X185652455Y-66609800D01*
X185652455Y-66609800D02*
X185700074Y-66562180D01*
X185700074Y-66562180D02*
X185747693Y-66466942D01*
X185747693Y-66466942D02*
X185747693Y-66371704D01*
X185747693Y-66371704D02*
X185700074Y-66276466D01*
X185700074Y-66276466D02*
X185652455Y-66228847D01*
X185652455Y-66228847D02*
X185557217Y-66181228D01*
X185557217Y-66181228D02*
X185366741Y-66133609D01*
X185366741Y-66133609D02*
X185271503Y-66085990D01*
X185271503Y-66085990D02*
X185223884Y-66038371D01*
X185223884Y-66038371D02*
X185176265Y-65943133D01*
X185176265Y-65943133D02*
X185176265Y-65847895D01*
X185176265Y-65847895D02*
X185223884Y-65752657D01*
X185223884Y-65752657D02*
X185271503Y-65705038D01*
X185271503Y-65705038D02*
X185366741Y-65657419D01*
X185366741Y-65657419D02*
X185604836Y-65657419D01*
X185604836Y-65657419D02*
X185747693Y-65705038D01*
X186176265Y-66657419D02*
X186176265Y-65657419D01*
X186176265Y-65657419D02*
X186414360Y-65657419D01*
X186414360Y-65657419D02*
X186557217Y-65705038D01*
X186557217Y-65705038D02*
X186652455Y-65800276D01*
X186652455Y-65800276D02*
X186700074Y-65895514D01*
X186700074Y-65895514D02*
X186747693Y-66085990D01*
X186747693Y-66085990D02*
X186747693Y-66228847D01*
X186747693Y-66228847D02*
X186700074Y-66419323D01*
X186700074Y-66419323D02*
X186652455Y-66514561D01*
X186652455Y-66514561D02*
X186557217Y-66609800D01*
X186557217Y-66609800D02*
X186414360Y-66657419D01*
X186414360Y-66657419D02*
X186176265Y-66657419D01*
X187128646Y-66371704D02*
X187604836Y-66371704D01*
X187033408Y-66657419D02*
X187366741Y-65657419D01*
X187366741Y-65657419D02*
X187700074Y-66657419D01*
X142730163Y-89309800D02*
X142873020Y-89357419D01*
X142873020Y-89357419D02*
X143111115Y-89357419D01*
X143111115Y-89357419D02*
X143206353Y-89309800D01*
X143206353Y-89309800D02*
X143253972Y-89262180D01*
X143253972Y-89262180D02*
X143301591Y-89166942D01*
X143301591Y-89166942D02*
X143301591Y-89071704D01*
X143301591Y-89071704D02*
X143253972Y-88976466D01*
X143253972Y-88976466D02*
X143206353Y-88928847D01*
X143206353Y-88928847D02*
X143111115Y-88881228D01*
X143111115Y-88881228D02*
X142920639Y-88833609D01*
X142920639Y-88833609D02*
X142825401Y-88785990D01*
X142825401Y-88785990D02*
X142777782Y-88738371D01*
X142777782Y-88738371D02*
X142730163Y-88643133D01*
X142730163Y-88643133D02*
X142730163Y-88547895D01*
X142730163Y-88547895D02*
X142777782Y-88452657D01*
X142777782Y-88452657D02*
X142825401Y-88405038D01*
X142825401Y-88405038D02*
X142920639Y-88357419D01*
X142920639Y-88357419D02*
X143158734Y-88357419D01*
X143158734Y-88357419D02*
X143301591Y-88405038D01*
X143730163Y-89357419D02*
X143730163Y-88357419D01*
X143730163Y-88357419D02*
X143968258Y-88357419D01*
X143968258Y-88357419D02*
X144111115Y-88405038D01*
X144111115Y-88405038D02*
X144206353Y-88500276D01*
X144206353Y-88500276D02*
X144253972Y-88595514D01*
X144253972Y-88595514D02*
X144301591Y-88785990D01*
X144301591Y-88785990D02*
X144301591Y-88928847D01*
X144301591Y-88928847D02*
X144253972Y-89119323D01*
X144253972Y-89119323D02*
X144206353Y-89214561D01*
X144206353Y-89214561D02*
X144111115Y-89309800D01*
X144111115Y-89309800D02*
X143968258Y-89357419D01*
X143968258Y-89357419D02*
X143730163Y-89357419D01*
X144682544Y-89071704D02*
X145158734Y-89071704D01*
X144587306Y-89357419D02*
X144920639Y-88357419D01*
X144920639Y-88357419D02*
X145253972Y-89357419D01*
X143063496Y-47765038D02*
X142968258Y-47717419D01*
X142968258Y-47717419D02*
X142825401Y-47717419D01*
X142825401Y-47717419D02*
X142682544Y-47765038D01*
X142682544Y-47765038D02*
X142587306Y-47860276D01*
X142587306Y-47860276D02*
X142539687Y-47955514D01*
X142539687Y-47955514D02*
X142492068Y-48145990D01*
X142492068Y-48145990D02*
X142492068Y-48288847D01*
X142492068Y-48288847D02*
X142539687Y-48479323D01*
X142539687Y-48479323D02*
X142587306Y-48574561D01*
X142587306Y-48574561D02*
X142682544Y-48669800D01*
X142682544Y-48669800D02*
X142825401Y-48717419D01*
X142825401Y-48717419D02*
X142920639Y-48717419D01*
X142920639Y-48717419D02*
X143063496Y-48669800D01*
X143063496Y-48669800D02*
X143111115Y-48622180D01*
X143111115Y-48622180D02*
X143111115Y-48288847D01*
X143111115Y-48288847D02*
X142920639Y-48288847D01*
X143539687Y-48717419D02*
X143539687Y-47717419D01*
X143539687Y-47717419D02*
X144111115Y-48717419D01*
X144111115Y-48717419D02*
X144111115Y-47717419D01*
X144587306Y-48717419D02*
X144587306Y-47717419D01*
X144587306Y-47717419D02*
X144825401Y-47717419D01*
X144825401Y-47717419D02*
X144968258Y-47765038D01*
X144968258Y-47765038D02*
X145063496Y-47860276D01*
X145063496Y-47860276D02*
X145111115Y-47955514D01*
X145111115Y-47955514D02*
X145158734Y-48145990D01*
X145158734Y-48145990D02*
X145158734Y-48288847D01*
X145158734Y-48288847D02*
X145111115Y-48479323D01*
X145111115Y-48479323D02*
X145063496Y-48574561D01*
X145063496Y-48574561D02*
X144968258Y-48669800D01*
X144968258Y-48669800D02*
X144825401Y-48717419D01*
X144825401Y-48717419D02*
X144587306Y-48717419D01*
D11*
X150562126Y-85022857D02*
X151812126Y-85022857D01*
X152109745Y-85665715D02*
X152169269Y-85808572D01*
X152169269Y-85808572D02*
X152169269Y-86022858D01*
X152169269Y-86022858D02*
X152109745Y-86165715D01*
X152109745Y-86165715D02*
X151990697Y-86237143D01*
X151990697Y-86237143D02*
X151871650Y-86237143D01*
X151871650Y-86237143D02*
X151752602Y-86165715D01*
X151752602Y-86165715D02*
X151335935Y-85665715D01*
X151335935Y-85665715D02*
X151335935Y-86237143D01*
X150681173Y-87737143D02*
X150621650Y-87665715D01*
X150621650Y-87665715D02*
X150562126Y-87451429D01*
X150562126Y-87451429D02*
X150562126Y-87308572D01*
X150562126Y-87308572D02*
X150621650Y-87094286D01*
X150621650Y-87094286D02*
X150740697Y-86951429D01*
X150740697Y-86951429D02*
X150859745Y-86880000D01*
X150859745Y-86880000D02*
X151097840Y-86808572D01*
X151097840Y-86808572D02*
X151276411Y-86808572D01*
X151276411Y-86808572D02*
X151514507Y-86880000D01*
X151514507Y-86880000D02*
X151633554Y-86951429D01*
X151633554Y-86951429D02*
X151752602Y-87094286D01*
X151752602Y-87094286D02*
X151812126Y-87308572D01*
X151812126Y-87308572D02*
X151812126Y-87451429D01*
X151812126Y-87451429D02*
X151752602Y-87665715D01*
X151752602Y-87665715D02*
X151693078Y-87737143D01*
X151693078Y-89451429D02*
X151752602Y-89522857D01*
X151752602Y-89522857D02*
X151812126Y-89665715D01*
X151812126Y-89665715D02*
X151812126Y-90022857D01*
X151812126Y-90022857D02*
X151752602Y-90165715D01*
X151752602Y-90165715D02*
X151693078Y-90237143D01*
X151693078Y-90237143D02*
X151574030Y-90308572D01*
X151574030Y-90308572D02*
X151454983Y-90308572D01*
X151454983Y-90308572D02*
X151276411Y-90237143D01*
X151276411Y-90237143D02*
X150562126Y-89380000D01*
X150562126Y-89380000D02*
X150562126Y-90308572D01*
D10*
X141968259Y-71577419D02*
X141968259Y-70577419D01*
X141968259Y-70577419D02*
X142301592Y-71291704D01*
X142301592Y-71291704D02*
X142634925Y-70577419D01*
X142634925Y-70577419D02*
X142634925Y-71577419D01*
X143111116Y-71577419D02*
X143111116Y-70577419D01*
X143539687Y-71529800D02*
X143682544Y-71577419D01*
X143682544Y-71577419D02*
X143920639Y-71577419D01*
X143920639Y-71577419D02*
X144015877Y-71529800D01*
X144015877Y-71529800D02*
X144063496Y-71482180D01*
X144063496Y-71482180D02*
X144111115Y-71386942D01*
X144111115Y-71386942D02*
X144111115Y-71291704D01*
X144111115Y-71291704D02*
X144063496Y-71196466D01*
X144063496Y-71196466D02*
X144015877Y-71148847D01*
X144015877Y-71148847D02*
X143920639Y-71101228D01*
X143920639Y-71101228D02*
X143730163Y-71053609D01*
X143730163Y-71053609D02*
X143634925Y-71005990D01*
X143634925Y-71005990D02*
X143587306Y-70958371D01*
X143587306Y-70958371D02*
X143539687Y-70863133D01*
X143539687Y-70863133D02*
X143539687Y-70767895D01*
X143539687Y-70767895D02*
X143587306Y-70672657D01*
X143587306Y-70672657D02*
X143634925Y-70625038D01*
X143634925Y-70625038D02*
X143730163Y-70577419D01*
X143730163Y-70577419D02*
X143968258Y-70577419D01*
X143968258Y-70577419D02*
X144111115Y-70625038D01*
X144730163Y-70577419D02*
X144920639Y-70577419D01*
X144920639Y-70577419D02*
X145015877Y-70625038D01*
X145015877Y-70625038D02*
X145111115Y-70720276D01*
X145111115Y-70720276D02*
X145158734Y-70910752D01*
X145158734Y-70910752D02*
X145158734Y-71244085D01*
X145158734Y-71244085D02*
X145111115Y-71434561D01*
X145111115Y-71434561D02*
X145015877Y-71529800D01*
X145015877Y-71529800D02*
X144920639Y-71577419D01*
X144920639Y-71577419D02*
X144730163Y-71577419D01*
X144730163Y-71577419D02*
X144634925Y-71529800D01*
X144634925Y-71529800D02*
X144539687Y-71434561D01*
X144539687Y-71434561D02*
X144492068Y-71244085D01*
X144492068Y-71244085D02*
X144492068Y-70910752D01*
X144492068Y-70910752D02*
X144539687Y-70720276D01*
X144539687Y-70720276D02*
X144634925Y-70625038D01*
X144634925Y-70625038D02*
X144730163Y-70577419D01*
X178294961Y-29398496D02*
X178342580Y-29303258D01*
X178342580Y-29303258D02*
X178342580Y-29160401D01*
X178342580Y-29160401D02*
X178294961Y-29017544D01*
X178294961Y-29017544D02*
X178199723Y-28922306D01*
X178199723Y-28922306D02*
X178104485Y-28874687D01*
X178104485Y-28874687D02*
X177914009Y-28827068D01*
X177914009Y-28827068D02*
X177771152Y-28827068D01*
X177771152Y-28827068D02*
X177580676Y-28874687D01*
X177580676Y-28874687D02*
X177485438Y-28922306D01*
X177485438Y-28922306D02*
X177390200Y-29017544D01*
X177390200Y-29017544D02*
X177342580Y-29160401D01*
X177342580Y-29160401D02*
X177342580Y-29255639D01*
X177342580Y-29255639D02*
X177390200Y-29398496D01*
X177390200Y-29398496D02*
X177437819Y-29446115D01*
X177437819Y-29446115D02*
X177771152Y-29446115D01*
X177771152Y-29446115D02*
X177771152Y-29255639D01*
X177342580Y-29874687D02*
X178342580Y-29874687D01*
X178342580Y-29874687D02*
X177342580Y-30446115D01*
X177342580Y-30446115D02*
X178342580Y-30446115D01*
X177342580Y-30922306D02*
X178342580Y-30922306D01*
X178342580Y-30922306D02*
X178342580Y-31160401D01*
X178342580Y-31160401D02*
X178294961Y-31303258D01*
X178294961Y-31303258D02*
X178199723Y-31398496D01*
X178199723Y-31398496D02*
X178104485Y-31446115D01*
X178104485Y-31446115D02*
X177914009Y-31493734D01*
X177914009Y-31493734D02*
X177771152Y-31493734D01*
X177771152Y-31493734D02*
X177580676Y-31446115D01*
X177580676Y-31446115D02*
X177485438Y-31398496D01*
X177485438Y-31398496D02*
X177390200Y-31303258D01*
X177390200Y-31303258D02*
X177342580Y-31160401D01*
X177342580Y-31160401D02*
X177342580Y-30922306D01*
X185660312Y-51257419D02*
X185326979Y-50781228D01*
X185088884Y-51257419D02*
X185088884Y-50257419D01*
X185088884Y-50257419D02*
X185469836Y-50257419D01*
X185469836Y-50257419D02*
X185565074Y-50305038D01*
X185565074Y-50305038D02*
X185612693Y-50352657D01*
X185612693Y-50352657D02*
X185660312Y-50447895D01*
X185660312Y-50447895D02*
X185660312Y-50590752D01*
X185660312Y-50590752D02*
X185612693Y-50685990D01*
X185612693Y-50685990D02*
X185565074Y-50733609D01*
X185565074Y-50733609D02*
X185469836Y-50781228D01*
X185469836Y-50781228D02*
X185088884Y-50781228D01*
X185993646Y-50257419D02*
X186660312Y-51257419D01*
X186660312Y-50257419D02*
X185993646Y-51257419D01*
X143063496Y-83325038D02*
X142968258Y-83277419D01*
X142968258Y-83277419D02*
X142825401Y-83277419D01*
X142825401Y-83277419D02*
X142682544Y-83325038D01*
X142682544Y-83325038D02*
X142587306Y-83420276D01*
X142587306Y-83420276D02*
X142539687Y-83515514D01*
X142539687Y-83515514D02*
X142492068Y-83705990D01*
X142492068Y-83705990D02*
X142492068Y-83848847D01*
X142492068Y-83848847D02*
X142539687Y-84039323D01*
X142539687Y-84039323D02*
X142587306Y-84134561D01*
X142587306Y-84134561D02*
X142682544Y-84229800D01*
X142682544Y-84229800D02*
X142825401Y-84277419D01*
X142825401Y-84277419D02*
X142920639Y-84277419D01*
X142920639Y-84277419D02*
X143063496Y-84229800D01*
X143063496Y-84229800D02*
X143111115Y-84182180D01*
X143111115Y-84182180D02*
X143111115Y-83848847D01*
X143111115Y-83848847D02*
X142920639Y-83848847D01*
X143539687Y-84277419D02*
X143539687Y-83277419D01*
X143539687Y-83277419D02*
X144111115Y-84277419D01*
X144111115Y-84277419D02*
X144111115Y-83277419D01*
X144587306Y-84277419D02*
X144587306Y-83277419D01*
X144587306Y-83277419D02*
X144825401Y-83277419D01*
X144825401Y-83277419D02*
X144968258Y-83325038D01*
X144968258Y-83325038D02*
X145063496Y-83420276D01*
X145063496Y-83420276D02*
X145111115Y-83515514D01*
X145111115Y-83515514D02*
X145158734Y-83705990D01*
X145158734Y-83705990D02*
X145158734Y-83848847D01*
X145158734Y-83848847D02*
X145111115Y-84039323D01*
X145111115Y-84039323D02*
X145063496Y-84134561D01*
X145063496Y-84134561D02*
X144968258Y-84229800D01*
X144968258Y-84229800D02*
X144825401Y-84277419D01*
X144825401Y-84277419D02*
X144587306Y-84277419D01*
X147814961Y-109412693D02*
X147862580Y-109317455D01*
X147862580Y-109317455D02*
X147862580Y-109174598D01*
X147862580Y-109174598D02*
X147814961Y-109031741D01*
X147814961Y-109031741D02*
X147719723Y-108936503D01*
X147719723Y-108936503D02*
X147624485Y-108888884D01*
X147624485Y-108888884D02*
X147434009Y-108841265D01*
X147434009Y-108841265D02*
X147291152Y-108841265D01*
X147291152Y-108841265D02*
X147100676Y-108888884D01*
X147100676Y-108888884D02*
X147005438Y-108936503D01*
X147005438Y-108936503D02*
X146910200Y-109031741D01*
X146910200Y-109031741D02*
X146862580Y-109174598D01*
X146862580Y-109174598D02*
X146862580Y-109269836D01*
X146862580Y-109269836D02*
X146910200Y-109412693D01*
X146910200Y-109412693D02*
X146957819Y-109460312D01*
X146957819Y-109460312D02*
X147291152Y-109460312D01*
X147291152Y-109460312D02*
X147291152Y-109269836D01*
X146862580Y-109888884D02*
X147862580Y-109888884D01*
X147862580Y-109888884D02*
X146862580Y-110460312D01*
X146862580Y-110460312D02*
X147862580Y-110460312D01*
X146862580Y-110936503D02*
X147862580Y-110936503D01*
X147862580Y-110936503D02*
X147862580Y-111174598D01*
X147862580Y-111174598D02*
X147814961Y-111317455D01*
X147814961Y-111317455D02*
X147719723Y-111412693D01*
X147719723Y-111412693D02*
X147624485Y-111460312D01*
X147624485Y-111460312D02*
X147434009Y-111507931D01*
X147434009Y-111507931D02*
X147291152Y-111507931D01*
X147291152Y-111507931D02*
X147100676Y-111460312D01*
X147100676Y-111460312D02*
X147005438Y-111412693D01*
X147005438Y-111412693D02*
X146910200Y-111317455D01*
X146910200Y-111317455D02*
X146862580Y-111174598D01*
X146862580Y-111174598D02*
X146862580Y-110936503D01*
X142777782Y-86769800D02*
X142920639Y-86817419D01*
X142920639Y-86817419D02*
X143158734Y-86817419D01*
X143158734Y-86817419D02*
X143253972Y-86769800D01*
X143253972Y-86769800D02*
X143301591Y-86722180D01*
X143301591Y-86722180D02*
X143349210Y-86626942D01*
X143349210Y-86626942D02*
X143349210Y-86531704D01*
X143349210Y-86531704D02*
X143301591Y-86436466D01*
X143301591Y-86436466D02*
X143253972Y-86388847D01*
X143253972Y-86388847D02*
X143158734Y-86341228D01*
X143158734Y-86341228D02*
X142968258Y-86293609D01*
X142968258Y-86293609D02*
X142873020Y-86245990D01*
X142873020Y-86245990D02*
X142825401Y-86198371D01*
X142825401Y-86198371D02*
X142777782Y-86103133D01*
X142777782Y-86103133D02*
X142777782Y-86007895D01*
X142777782Y-86007895D02*
X142825401Y-85912657D01*
X142825401Y-85912657D02*
X142873020Y-85865038D01*
X142873020Y-85865038D02*
X142968258Y-85817419D01*
X142968258Y-85817419D02*
X143206353Y-85817419D01*
X143206353Y-85817419D02*
X143349210Y-85865038D01*
X144349210Y-86722180D02*
X144301591Y-86769800D01*
X144301591Y-86769800D02*
X144158734Y-86817419D01*
X144158734Y-86817419D02*
X144063496Y-86817419D01*
X144063496Y-86817419D02*
X143920639Y-86769800D01*
X143920639Y-86769800D02*
X143825401Y-86674561D01*
X143825401Y-86674561D02*
X143777782Y-86579323D01*
X143777782Y-86579323D02*
X143730163Y-86388847D01*
X143730163Y-86388847D02*
X143730163Y-86245990D01*
X143730163Y-86245990D02*
X143777782Y-86055514D01*
X143777782Y-86055514D02*
X143825401Y-85960276D01*
X143825401Y-85960276D02*
X143920639Y-85865038D01*
X143920639Y-85865038D02*
X144063496Y-85817419D01*
X144063496Y-85817419D02*
X144158734Y-85817419D01*
X144158734Y-85817419D02*
X144301591Y-85865038D01*
X144301591Y-85865038D02*
X144349210Y-85912657D01*
X145253972Y-86817419D02*
X144777782Y-86817419D01*
X144777782Y-86817419D02*
X144777782Y-85817419D01*
X185088884Y-86817419D02*
X185088884Y-85817419D01*
X185088884Y-85817419D02*
X185422217Y-86531704D01*
X185422217Y-86531704D02*
X185755550Y-85817419D01*
X185755550Y-85817419D02*
X185755550Y-86817419D01*
X186422217Y-85817419D02*
X186612693Y-85817419D01*
X186612693Y-85817419D02*
X186707931Y-85865038D01*
X186707931Y-85865038D02*
X186803169Y-85960276D01*
X186803169Y-85960276D02*
X186850788Y-86150752D01*
X186850788Y-86150752D02*
X186850788Y-86484085D01*
X186850788Y-86484085D02*
X186803169Y-86674561D01*
X186803169Y-86674561D02*
X186707931Y-86769800D01*
X186707931Y-86769800D02*
X186612693Y-86817419D01*
X186612693Y-86817419D02*
X186422217Y-86817419D01*
X186422217Y-86817419D02*
X186326979Y-86769800D01*
X186326979Y-86769800D02*
X186231741Y-86674561D01*
X186231741Y-86674561D02*
X186184122Y-86484085D01*
X186184122Y-86484085D02*
X186184122Y-86150752D01*
X186184122Y-86150752D02*
X186231741Y-85960276D01*
X186231741Y-85960276D02*
X186326979Y-85865038D01*
X186326979Y-85865038D02*
X186422217Y-85817419D01*
X187231741Y-86769800D02*
X187374598Y-86817419D01*
X187374598Y-86817419D02*
X187612693Y-86817419D01*
X187612693Y-86817419D02*
X187707931Y-86769800D01*
X187707931Y-86769800D02*
X187755550Y-86722180D01*
X187755550Y-86722180D02*
X187803169Y-86626942D01*
X187803169Y-86626942D02*
X187803169Y-86531704D01*
X187803169Y-86531704D02*
X187755550Y-86436466D01*
X187755550Y-86436466D02*
X187707931Y-86388847D01*
X187707931Y-86388847D02*
X187612693Y-86341228D01*
X187612693Y-86341228D02*
X187422217Y-86293609D01*
X187422217Y-86293609D02*
X187326979Y-86245990D01*
X187326979Y-86245990D02*
X187279360Y-86198371D01*
X187279360Y-86198371D02*
X187231741Y-86103133D01*
X187231741Y-86103133D02*
X187231741Y-86007895D01*
X187231741Y-86007895D02*
X187279360Y-85912657D01*
X187279360Y-85912657D02*
X187326979Y-85865038D01*
X187326979Y-85865038D02*
X187422217Y-85817419D01*
X187422217Y-85817419D02*
X187660312Y-85817419D01*
X187660312Y-85817419D02*
X187803169Y-85865038D01*
X188231741Y-86817419D02*
X188231741Y-85817419D01*
X185088884Y-84277419D02*
X185088884Y-83277419D01*
X185088884Y-83277419D02*
X185422217Y-83991704D01*
X185422217Y-83991704D02*
X185755550Y-83277419D01*
X185755550Y-83277419D02*
X185755550Y-84277419D01*
X186231741Y-84277419D02*
X186231741Y-83277419D01*
X186660312Y-84229800D02*
X186803169Y-84277419D01*
X186803169Y-84277419D02*
X187041264Y-84277419D01*
X187041264Y-84277419D02*
X187136502Y-84229800D01*
X187136502Y-84229800D02*
X187184121Y-84182180D01*
X187184121Y-84182180D02*
X187231740Y-84086942D01*
X187231740Y-84086942D02*
X187231740Y-83991704D01*
X187231740Y-83991704D02*
X187184121Y-83896466D01*
X187184121Y-83896466D02*
X187136502Y-83848847D01*
X187136502Y-83848847D02*
X187041264Y-83801228D01*
X187041264Y-83801228D02*
X186850788Y-83753609D01*
X186850788Y-83753609D02*
X186755550Y-83705990D01*
X186755550Y-83705990D02*
X186707931Y-83658371D01*
X186707931Y-83658371D02*
X186660312Y-83563133D01*
X186660312Y-83563133D02*
X186660312Y-83467895D01*
X186660312Y-83467895D02*
X186707931Y-83372657D01*
X186707931Y-83372657D02*
X186755550Y-83325038D01*
X186755550Y-83325038D02*
X186850788Y-83277419D01*
X186850788Y-83277419D02*
X187088883Y-83277419D01*
X187088883Y-83277419D02*
X187231740Y-83325038D01*
X187850788Y-83277419D02*
X188041264Y-83277419D01*
X188041264Y-83277419D02*
X188136502Y-83325038D01*
X188136502Y-83325038D02*
X188231740Y-83420276D01*
X188231740Y-83420276D02*
X188279359Y-83610752D01*
X188279359Y-83610752D02*
X188279359Y-83944085D01*
X188279359Y-83944085D02*
X188231740Y-84134561D01*
X188231740Y-84134561D02*
X188136502Y-84229800D01*
X188136502Y-84229800D02*
X188041264Y-84277419D01*
X188041264Y-84277419D02*
X187850788Y-84277419D01*
X187850788Y-84277419D02*
X187755550Y-84229800D01*
X187755550Y-84229800D02*
X187660312Y-84134561D01*
X187660312Y-84134561D02*
X187612693Y-83944085D01*
X187612693Y-83944085D02*
X187612693Y-83610752D01*
X187612693Y-83610752D02*
X187660312Y-83420276D01*
X187660312Y-83420276D02*
X187755550Y-83325038D01*
X187755550Y-83325038D02*
X187850788Y-83277419D01*
X180882580Y-29398497D02*
X179882580Y-29731830D01*
X179882580Y-29731830D02*
X180882580Y-30065163D01*
X179882580Y-30398497D02*
X180882580Y-30398497D01*
X179882580Y-30874687D02*
X180882580Y-30874687D01*
X180882580Y-30874687D02*
X179882580Y-31446115D01*
X179882580Y-31446115D02*
X180882580Y-31446115D01*
X147814961Y-29398496D02*
X147862580Y-29303258D01*
X147862580Y-29303258D02*
X147862580Y-29160401D01*
X147862580Y-29160401D02*
X147814961Y-29017544D01*
X147814961Y-29017544D02*
X147719723Y-28922306D01*
X147719723Y-28922306D02*
X147624485Y-28874687D01*
X147624485Y-28874687D02*
X147434009Y-28827068D01*
X147434009Y-28827068D02*
X147291152Y-28827068D01*
X147291152Y-28827068D02*
X147100676Y-28874687D01*
X147100676Y-28874687D02*
X147005438Y-28922306D01*
X147005438Y-28922306D02*
X146910200Y-29017544D01*
X146910200Y-29017544D02*
X146862580Y-29160401D01*
X146862580Y-29160401D02*
X146862580Y-29255639D01*
X146862580Y-29255639D02*
X146910200Y-29398496D01*
X146910200Y-29398496D02*
X146957819Y-29446115D01*
X146957819Y-29446115D02*
X147291152Y-29446115D01*
X147291152Y-29446115D02*
X147291152Y-29255639D01*
X146862580Y-29874687D02*
X147862580Y-29874687D01*
X147862580Y-29874687D02*
X146862580Y-30446115D01*
X146862580Y-30446115D02*
X147862580Y-30446115D01*
X146862580Y-30922306D02*
X147862580Y-30922306D01*
X147862580Y-30922306D02*
X147862580Y-31160401D01*
X147862580Y-31160401D02*
X147814961Y-31303258D01*
X147814961Y-31303258D02*
X147719723Y-31398496D01*
X147719723Y-31398496D02*
X147624485Y-31446115D01*
X147624485Y-31446115D02*
X147434009Y-31493734D01*
X147434009Y-31493734D02*
X147291152Y-31493734D01*
X147291152Y-31493734D02*
X147100676Y-31446115D01*
X147100676Y-31446115D02*
X147005438Y-31398496D01*
X147005438Y-31398496D02*
X146910200Y-31303258D01*
X146910200Y-31303258D02*
X146862580Y-31160401D01*
X146862580Y-31160401D02*
X146862580Y-30922306D01*
X184946027Y-52797419D02*
X185517455Y-52797419D01*
X185231741Y-53797419D02*
X185231741Y-52797419D01*
X185755551Y-52797419D02*
X186422217Y-53797419D01*
X186422217Y-52797419D02*
X185755551Y-53797419D01*
X141968259Y-69037419D02*
X141968259Y-68037419D01*
X141968259Y-68037419D02*
X142301592Y-68751704D01*
X142301592Y-68751704D02*
X142634925Y-68037419D01*
X142634925Y-68037419D02*
X142634925Y-69037419D01*
X143301592Y-68037419D02*
X143492068Y-68037419D01*
X143492068Y-68037419D02*
X143587306Y-68085038D01*
X143587306Y-68085038D02*
X143682544Y-68180276D01*
X143682544Y-68180276D02*
X143730163Y-68370752D01*
X143730163Y-68370752D02*
X143730163Y-68704085D01*
X143730163Y-68704085D02*
X143682544Y-68894561D01*
X143682544Y-68894561D02*
X143587306Y-68989800D01*
X143587306Y-68989800D02*
X143492068Y-69037419D01*
X143492068Y-69037419D02*
X143301592Y-69037419D01*
X143301592Y-69037419D02*
X143206354Y-68989800D01*
X143206354Y-68989800D02*
X143111116Y-68894561D01*
X143111116Y-68894561D02*
X143063497Y-68704085D01*
X143063497Y-68704085D02*
X143063497Y-68370752D01*
X143063497Y-68370752D02*
X143111116Y-68180276D01*
X143111116Y-68180276D02*
X143206354Y-68085038D01*
X143206354Y-68085038D02*
X143301592Y-68037419D01*
X144111116Y-68989800D02*
X144253973Y-69037419D01*
X144253973Y-69037419D02*
X144492068Y-69037419D01*
X144492068Y-69037419D02*
X144587306Y-68989800D01*
X144587306Y-68989800D02*
X144634925Y-68942180D01*
X144634925Y-68942180D02*
X144682544Y-68846942D01*
X144682544Y-68846942D02*
X144682544Y-68751704D01*
X144682544Y-68751704D02*
X144634925Y-68656466D01*
X144634925Y-68656466D02*
X144587306Y-68608847D01*
X144587306Y-68608847D02*
X144492068Y-68561228D01*
X144492068Y-68561228D02*
X144301592Y-68513609D01*
X144301592Y-68513609D02*
X144206354Y-68465990D01*
X144206354Y-68465990D02*
X144158735Y-68418371D01*
X144158735Y-68418371D02*
X144111116Y-68323133D01*
X144111116Y-68323133D02*
X144111116Y-68227895D01*
X144111116Y-68227895D02*
X144158735Y-68132657D01*
X144158735Y-68132657D02*
X144206354Y-68085038D01*
X144206354Y-68085038D02*
X144301592Y-68037419D01*
X144301592Y-68037419D02*
X144539687Y-68037419D01*
X144539687Y-68037419D02*
X144682544Y-68085038D01*
X145111116Y-69037419D02*
X145111116Y-68037419D01*
D12*
X185346666Y-93434819D02*
X185346666Y-94149104D01*
X185346666Y-94149104D02*
X185299047Y-94291961D01*
X185299047Y-94291961D02*
X185203809Y-94387200D01*
X185203809Y-94387200D02*
X185060952Y-94434819D01*
X185060952Y-94434819D02*
X184965714Y-94434819D01*
X185965714Y-93863390D02*
X185870476Y-93815771D01*
X185870476Y-93815771D02*
X185822857Y-93768152D01*
X185822857Y-93768152D02*
X185775238Y-93672914D01*
X185775238Y-93672914D02*
X185775238Y-93625295D01*
X185775238Y-93625295D02*
X185822857Y-93530057D01*
X185822857Y-93530057D02*
X185870476Y-93482438D01*
X185870476Y-93482438D02*
X185965714Y-93434819D01*
X185965714Y-93434819D02*
X186156190Y-93434819D01*
X186156190Y-93434819D02*
X186251428Y-93482438D01*
X186251428Y-93482438D02*
X186299047Y-93530057D01*
X186299047Y-93530057D02*
X186346666Y-93625295D01*
X186346666Y-93625295D02*
X186346666Y-93672914D01*
X186346666Y-93672914D02*
X186299047Y-93768152D01*
X186299047Y-93768152D02*
X186251428Y-93815771D01*
X186251428Y-93815771D02*
X186156190Y-93863390D01*
X186156190Y-93863390D02*
X185965714Y-93863390D01*
X185965714Y-93863390D02*
X185870476Y-93911009D01*
X185870476Y-93911009D02*
X185822857Y-93958628D01*
X185822857Y-93958628D02*
X185775238Y-94053866D01*
X185775238Y-94053866D02*
X185775238Y-94244342D01*
X185775238Y-94244342D02*
X185822857Y-94339580D01*
X185822857Y-94339580D02*
X185870476Y-94387200D01*
X185870476Y-94387200D02*
X185965714Y-94434819D01*
X185965714Y-94434819D02*
X186156190Y-94434819D01*
X186156190Y-94434819D02*
X186251428Y-94387200D01*
X186251428Y-94387200D02*
X186299047Y-94339580D01*
X186299047Y-94339580D02*
X186346666Y-94244342D01*
X186346666Y-94244342D02*
X186346666Y-94053866D01*
X186346666Y-94053866D02*
X186299047Y-93958628D01*
X186299047Y-93958628D02*
X186251428Y-93911009D01*
X186251428Y-93911009D02*
X186156190Y-93863390D01*
X154138333Y-81734819D02*
X153805000Y-81258628D01*
X153566905Y-81734819D02*
X153566905Y-80734819D01*
X153566905Y-80734819D02*
X153947857Y-80734819D01*
X153947857Y-80734819D02*
X154043095Y-80782438D01*
X154043095Y-80782438D02*
X154090714Y-80830057D01*
X154090714Y-80830057D02*
X154138333Y-80925295D01*
X154138333Y-80925295D02*
X154138333Y-81068152D01*
X154138333Y-81068152D02*
X154090714Y-81163390D01*
X154090714Y-81163390D02*
X154043095Y-81211009D01*
X154043095Y-81211009D02*
X153947857Y-81258628D01*
X153947857Y-81258628D02*
X153566905Y-81258628D01*
X154995476Y-81068152D02*
X154995476Y-81734819D01*
X154757381Y-80687200D02*
X154519286Y-81401485D01*
X154519286Y-81401485D02*
X155138333Y-81401485D01*
X185346666Y-57874819D02*
X185346666Y-58589104D01*
X185346666Y-58589104D02*
X185299047Y-58731961D01*
X185299047Y-58731961D02*
X185203809Y-58827200D01*
X185203809Y-58827200D02*
X185060952Y-58874819D01*
X185060952Y-58874819D02*
X184965714Y-58874819D01*
X186299047Y-57874819D02*
X185822857Y-57874819D01*
X185822857Y-57874819D02*
X185775238Y-58351009D01*
X185775238Y-58351009D02*
X185822857Y-58303390D01*
X185822857Y-58303390D02*
X185918095Y-58255771D01*
X185918095Y-58255771D02*
X186156190Y-58255771D01*
X186156190Y-58255771D02*
X186251428Y-58303390D01*
X186251428Y-58303390D02*
X186299047Y-58351009D01*
X186299047Y-58351009D02*
X186346666Y-58446247D01*
X186346666Y-58446247D02*
X186346666Y-58684342D01*
X186346666Y-58684342D02*
X186299047Y-58779580D01*
X186299047Y-58779580D02*
X186251428Y-58827200D01*
X186251428Y-58827200D02*
X186156190Y-58874819D01*
X186156190Y-58874819D02*
X185918095Y-58874819D01*
X185918095Y-58874819D02*
X185822857Y-58827200D01*
X185822857Y-58827200D02*
X185775238Y-58779580D01*
X186563095Y-41729819D02*
X186563095Y-40729819D01*
X186563095Y-41206009D02*
X187134523Y-41206009D01*
X187134523Y-41729819D02*
X187134523Y-40729819D01*
X187515476Y-40729819D02*
X188134523Y-40729819D01*
X188134523Y-40729819D02*
X187801190Y-41110771D01*
X187801190Y-41110771D02*
X187944047Y-41110771D01*
X187944047Y-41110771D02*
X188039285Y-41158390D01*
X188039285Y-41158390D02*
X188086904Y-41206009D01*
X188086904Y-41206009D02*
X188134523Y-41301247D01*
X188134523Y-41301247D02*
X188134523Y-41539342D01*
X188134523Y-41539342D02*
X188086904Y-41634580D01*
X188086904Y-41634580D02*
X188039285Y-41682200D01*
X188039285Y-41682200D02*
X187944047Y-41729819D01*
X187944047Y-41729819D02*
X187658333Y-41729819D01*
X187658333Y-41729819D02*
X187563095Y-41682200D01*
X187563095Y-41682200D02*
X187515476Y-41634580D01*
X143176666Y-33744819D02*
X143176666Y-34459104D01*
X143176666Y-34459104D02*
X143129047Y-34601961D01*
X143129047Y-34601961D02*
X143033809Y-34697200D01*
X143033809Y-34697200D02*
X142890952Y-34744819D01*
X142890952Y-34744819D02*
X142795714Y-34744819D01*
X143557619Y-33744819D02*
X144176666Y-33744819D01*
X144176666Y-33744819D02*
X143843333Y-34125771D01*
X143843333Y-34125771D02*
X143986190Y-34125771D01*
X143986190Y-34125771D02*
X144081428Y-34173390D01*
X144081428Y-34173390D02*
X144129047Y-34221009D01*
X144129047Y-34221009D02*
X144176666Y-34316247D01*
X144176666Y-34316247D02*
X144176666Y-34554342D01*
X144176666Y-34554342D02*
X144129047Y-34649580D01*
X144129047Y-34649580D02*
X144081428Y-34697200D01*
X144081428Y-34697200D02*
X143986190Y-34744819D01*
X143986190Y-34744819D02*
X143700476Y-34744819D01*
X143700476Y-34744819D02*
X143605238Y-34697200D01*
X143605238Y-34697200D02*
X143557619Y-34649580D01*
X183816666Y-33744819D02*
X183816666Y-34459104D01*
X183816666Y-34459104D02*
X183769047Y-34601961D01*
X183769047Y-34601961D02*
X183673809Y-34697200D01*
X183673809Y-34697200D02*
X183530952Y-34744819D01*
X183530952Y-34744819D02*
X183435714Y-34744819D01*
X184340476Y-34744819D02*
X184530952Y-34744819D01*
X184530952Y-34744819D02*
X184626190Y-34697200D01*
X184626190Y-34697200D02*
X184673809Y-34649580D01*
X184673809Y-34649580D02*
X184769047Y-34506723D01*
X184769047Y-34506723D02*
X184816666Y-34316247D01*
X184816666Y-34316247D02*
X184816666Y-33935295D01*
X184816666Y-33935295D02*
X184769047Y-33840057D01*
X184769047Y-33840057D02*
X184721428Y-33792438D01*
X184721428Y-33792438D02*
X184626190Y-33744819D01*
X184626190Y-33744819D02*
X184435714Y-33744819D01*
X184435714Y-33744819D02*
X184340476Y-33792438D01*
X184340476Y-33792438D02*
X184292857Y-33840057D01*
X184292857Y-33840057D02*
X184245238Y-33935295D01*
X184245238Y-33935295D02*
X184245238Y-34173390D01*
X184245238Y-34173390D02*
X184292857Y-34268628D01*
X184292857Y-34268628D02*
X184340476Y-34316247D01*
X184340476Y-34316247D02*
X184435714Y-34363866D01*
X184435714Y-34363866D02*
X184626190Y-34363866D01*
X184626190Y-34363866D02*
X184721428Y-34316247D01*
X184721428Y-34316247D02*
X184769047Y-34268628D01*
X184769047Y-34268628D02*
X184816666Y-34173390D01*
X185466666Y-73114819D02*
X185466666Y-73829104D01*
X185466666Y-73829104D02*
X185419047Y-73971961D01*
X185419047Y-73971961D02*
X185323809Y-74067200D01*
X185323809Y-74067200D02*
X185180952Y-74114819D01*
X185180952Y-74114819D02*
X185085714Y-74114819D01*
X186466666Y-74114819D02*
X185895238Y-74114819D01*
X186180952Y-74114819D02*
X186180952Y-73114819D01*
X186180952Y-73114819D02*
X186085714Y-73257676D01*
X186085714Y-73257676D02*
X185990476Y-73352914D01*
X185990476Y-73352914D02*
X185895238Y-73400533D01*
X143811666Y-93514819D02*
X143811666Y-94229104D01*
X143811666Y-94229104D02*
X143764047Y-94371961D01*
X143764047Y-94371961D02*
X143668809Y-94467200D01*
X143668809Y-94467200D02*
X143525952Y-94514819D01*
X143525952Y-94514819D02*
X143430714Y-94514819D01*
X144240238Y-93610057D02*
X144287857Y-93562438D01*
X144287857Y-93562438D02*
X144383095Y-93514819D01*
X144383095Y-93514819D02*
X144621190Y-93514819D01*
X144621190Y-93514819D02*
X144716428Y-93562438D01*
X144716428Y-93562438D02*
X144764047Y-93610057D01*
X144764047Y-93610057D02*
X144811666Y-93705295D01*
X144811666Y-93705295D02*
X144811666Y-93800533D01*
X144811666Y-93800533D02*
X144764047Y-93943390D01*
X144764047Y-93943390D02*
X144192619Y-94514819D01*
X144192619Y-94514819D02*
X144811666Y-94514819D01*
X142113095Y-41729819D02*
X142113095Y-40729819D01*
X142113095Y-41206009D02*
X142684523Y-41206009D01*
X142684523Y-41729819D02*
X142684523Y-40729819D01*
X143589285Y-41063152D02*
X143589285Y-41729819D01*
X143351190Y-40682200D02*
X143113095Y-41396485D01*
X143113095Y-41396485D02*
X143732142Y-41396485D01*
X167714819Y-34456666D02*
X167238628Y-34789999D01*
X167714819Y-35028094D02*
X166714819Y-35028094D01*
X166714819Y-35028094D02*
X166714819Y-34647142D01*
X166714819Y-34647142D02*
X166762438Y-34551904D01*
X166762438Y-34551904D02*
X166810057Y-34504285D01*
X166810057Y-34504285D02*
X166905295Y-34456666D01*
X166905295Y-34456666D02*
X167048152Y-34456666D01*
X167048152Y-34456666D02*
X167143390Y-34504285D01*
X167143390Y-34504285D02*
X167191009Y-34551904D01*
X167191009Y-34551904D02*
X167238628Y-34647142D01*
X167238628Y-34647142D02*
X167238628Y-35028094D01*
X166714819Y-33551904D02*
X166714819Y-34028094D01*
X166714819Y-34028094D02*
X167191009Y-34075713D01*
X167191009Y-34075713D02*
X167143390Y-34028094D01*
X167143390Y-34028094D02*
X167095771Y-33932856D01*
X167095771Y-33932856D02*
X167095771Y-33694761D01*
X167095771Y-33694761D02*
X167143390Y-33599523D01*
X167143390Y-33599523D02*
X167191009Y-33551904D01*
X167191009Y-33551904D02*
X167286247Y-33504285D01*
X167286247Y-33504285D02*
X167524342Y-33504285D01*
X167524342Y-33504285D02*
X167619580Y-33551904D01*
X167619580Y-33551904D02*
X167667200Y-33599523D01*
X167667200Y-33599523D02*
X167714819Y-33694761D01*
X167714819Y-33694761D02*
X167714819Y-33932856D01*
X167714819Y-33932856D02*
X167667200Y-34028094D01*
X167667200Y-34028094D02*
X167619580Y-34075713D01*
X154138333Y-91894819D02*
X153805000Y-91418628D01*
X153566905Y-91894819D02*
X153566905Y-90894819D01*
X153566905Y-90894819D02*
X153947857Y-90894819D01*
X153947857Y-90894819D02*
X154043095Y-90942438D01*
X154043095Y-90942438D02*
X154090714Y-90990057D01*
X154090714Y-90990057D02*
X154138333Y-91085295D01*
X154138333Y-91085295D02*
X154138333Y-91228152D01*
X154138333Y-91228152D02*
X154090714Y-91323390D01*
X154090714Y-91323390D02*
X154043095Y-91371009D01*
X154043095Y-91371009D02*
X153947857Y-91418628D01*
X153947857Y-91418628D02*
X153566905Y-91418628D01*
X154471667Y-90894819D02*
X155090714Y-90894819D01*
X155090714Y-90894819D02*
X154757381Y-91275771D01*
X154757381Y-91275771D02*
X154900238Y-91275771D01*
X154900238Y-91275771D02*
X154995476Y-91323390D01*
X154995476Y-91323390D02*
X155043095Y-91371009D01*
X155043095Y-91371009D02*
X155090714Y-91466247D01*
X155090714Y-91466247D02*
X155090714Y-91704342D01*
X155090714Y-91704342D02*
X155043095Y-91799580D01*
X155043095Y-91799580D02*
X154995476Y-91847200D01*
X154995476Y-91847200D02*
X154900238Y-91894819D01*
X154900238Y-91894819D02*
X154614524Y-91894819D01*
X154614524Y-91894819D02*
X154519286Y-91847200D01*
X154519286Y-91847200D02*
X154471667Y-91799580D01*
X142113095Y-98879819D02*
X142113095Y-97879819D01*
X142113095Y-98356009D02*
X142684523Y-98356009D01*
X142684523Y-98879819D02*
X142684523Y-97879819D01*
X143684523Y-98879819D02*
X143113095Y-98879819D01*
X143398809Y-98879819D02*
X143398809Y-97879819D01*
X143398809Y-97879819D02*
X143303571Y-98022676D01*
X143303571Y-98022676D02*
X143208333Y-98117914D01*
X143208333Y-98117914D02*
X143113095Y-98165533D01*
X186356666Y-106134819D02*
X186356666Y-106849104D01*
X186356666Y-106849104D02*
X186309047Y-106991961D01*
X186309047Y-106991961D02*
X186213809Y-107087200D01*
X186213809Y-107087200D02*
X186070952Y-107134819D01*
X186070952Y-107134819D02*
X185975714Y-107134819D01*
X186737619Y-106134819D02*
X187404285Y-106134819D01*
X187404285Y-106134819D02*
X186975714Y-107134819D01*
X175728333Y-58874819D02*
X175395000Y-58398628D01*
X175156905Y-58874819D02*
X175156905Y-57874819D01*
X175156905Y-57874819D02*
X175537857Y-57874819D01*
X175537857Y-57874819D02*
X175633095Y-57922438D01*
X175633095Y-57922438D02*
X175680714Y-57970057D01*
X175680714Y-57970057D02*
X175728333Y-58065295D01*
X175728333Y-58065295D02*
X175728333Y-58208152D01*
X175728333Y-58208152D02*
X175680714Y-58303390D01*
X175680714Y-58303390D02*
X175633095Y-58351009D01*
X175633095Y-58351009D02*
X175537857Y-58398628D01*
X175537857Y-58398628D02*
X175156905Y-58398628D01*
X176680714Y-58874819D02*
X176109286Y-58874819D01*
X176395000Y-58874819D02*
X176395000Y-57874819D01*
X176395000Y-57874819D02*
X176299762Y-58017676D01*
X176299762Y-58017676D02*
X176204524Y-58112914D01*
X176204524Y-58112914D02*
X176109286Y-58160533D01*
X175728333Y-71574819D02*
X175395000Y-71098628D01*
X175156905Y-71574819D02*
X175156905Y-70574819D01*
X175156905Y-70574819D02*
X175537857Y-70574819D01*
X175537857Y-70574819D02*
X175633095Y-70622438D01*
X175633095Y-70622438D02*
X175680714Y-70670057D01*
X175680714Y-70670057D02*
X175728333Y-70765295D01*
X175728333Y-70765295D02*
X175728333Y-70908152D01*
X175728333Y-70908152D02*
X175680714Y-71003390D01*
X175680714Y-71003390D02*
X175633095Y-71051009D01*
X175633095Y-71051009D02*
X175537857Y-71098628D01*
X175537857Y-71098628D02*
X175156905Y-71098628D01*
X176109286Y-70670057D02*
X176156905Y-70622438D01*
X176156905Y-70622438D02*
X176252143Y-70574819D01*
X176252143Y-70574819D02*
X176490238Y-70574819D01*
X176490238Y-70574819D02*
X176585476Y-70622438D01*
X176585476Y-70622438D02*
X176633095Y-70670057D01*
X176633095Y-70670057D02*
X176680714Y-70765295D01*
X176680714Y-70765295D02*
X176680714Y-70860533D01*
X176680714Y-70860533D02*
X176633095Y-71003390D01*
X176633095Y-71003390D02*
X176061667Y-71574819D01*
X176061667Y-71574819D02*
X176680714Y-71574819D01*
X143176666Y-106134819D02*
X143176666Y-106849104D01*
X143176666Y-106849104D02*
X143129047Y-106991961D01*
X143129047Y-106991961D02*
X143033809Y-107087200D01*
X143033809Y-107087200D02*
X142890952Y-107134819D01*
X142890952Y-107134819D02*
X142795714Y-107134819D01*
X144081428Y-106134819D02*
X143890952Y-106134819D01*
X143890952Y-106134819D02*
X143795714Y-106182438D01*
X143795714Y-106182438D02*
X143748095Y-106230057D01*
X143748095Y-106230057D02*
X143652857Y-106372914D01*
X143652857Y-106372914D02*
X143605238Y-106563390D01*
X143605238Y-106563390D02*
X143605238Y-106944342D01*
X143605238Y-106944342D02*
X143652857Y-107039580D01*
X143652857Y-107039580D02*
X143700476Y-107087200D01*
X143700476Y-107087200D02*
X143795714Y-107134819D01*
X143795714Y-107134819D02*
X143986190Y-107134819D01*
X143986190Y-107134819D02*
X144081428Y-107087200D01*
X144081428Y-107087200D02*
X144129047Y-107039580D01*
X144129047Y-107039580D02*
X144176666Y-106944342D01*
X144176666Y-106944342D02*
X144176666Y-106706247D01*
X144176666Y-106706247D02*
X144129047Y-106611009D01*
X144129047Y-106611009D02*
X144081428Y-106563390D01*
X144081428Y-106563390D02*
X143986190Y-106515771D01*
X143986190Y-106515771D02*
X143795714Y-106515771D01*
X143795714Y-106515771D02*
X143700476Y-106563390D01*
X143700476Y-106563390D02*
X143652857Y-106611009D01*
X143652857Y-106611009D02*
X143605238Y-106706247D01*
X142700476Y-78234819D02*
X142700476Y-78949104D01*
X142700476Y-78949104D02*
X142652857Y-79091961D01*
X142652857Y-79091961D02*
X142557619Y-79187200D01*
X142557619Y-79187200D02*
X142414762Y-79234819D01*
X142414762Y-79234819D02*
X142319524Y-79234819D01*
X143700476Y-79234819D02*
X143129048Y-79234819D01*
X143414762Y-79234819D02*
X143414762Y-78234819D01*
X143414762Y-78234819D02*
X143319524Y-78377676D01*
X143319524Y-78377676D02*
X143224286Y-78472914D01*
X143224286Y-78472914D02*
X143129048Y-78520533D01*
X144319524Y-78234819D02*
X144414762Y-78234819D01*
X144414762Y-78234819D02*
X144510000Y-78282438D01*
X144510000Y-78282438D02*
X144557619Y-78330057D01*
X144557619Y-78330057D02*
X144605238Y-78425295D01*
X144605238Y-78425295D02*
X144652857Y-78615771D01*
X144652857Y-78615771D02*
X144652857Y-78853866D01*
X144652857Y-78853866D02*
X144605238Y-79044342D01*
X144605238Y-79044342D02*
X144557619Y-79139580D01*
X144557619Y-79139580D02*
X144510000Y-79187200D01*
X144510000Y-79187200D02*
X144414762Y-79234819D01*
X144414762Y-79234819D02*
X144319524Y-79234819D01*
X144319524Y-79234819D02*
X144224286Y-79187200D01*
X144224286Y-79187200D02*
X144176667Y-79139580D01*
X144176667Y-79139580D02*
X144129048Y-79044342D01*
X144129048Y-79044342D02*
X144081429Y-78853866D01*
X144081429Y-78853866D02*
X144081429Y-78615771D01*
X144081429Y-78615771D02*
X144129048Y-78425295D01*
X144129048Y-78425295D02*
X144176667Y-78330057D01*
X144176667Y-78330057D02*
X144224286Y-78282438D01*
X144224286Y-78282438D02*
X144319524Y-78234819D01*
D10*
X165642580Y-67048571D02*
X165642580Y-67619999D01*
X164642580Y-67334285D02*
X165642580Y-67334285D01*
X164690200Y-68334285D02*
X164642580Y-68239047D01*
X164642580Y-68239047D02*
X164642580Y-68048571D01*
X164642580Y-68048571D02*
X164690200Y-67953333D01*
X164690200Y-67953333D02*
X164785438Y-67905714D01*
X164785438Y-67905714D02*
X165166390Y-67905714D01*
X165166390Y-67905714D02*
X165261628Y-67953333D01*
X165261628Y-67953333D02*
X165309247Y-68048571D01*
X165309247Y-68048571D02*
X165309247Y-68239047D01*
X165309247Y-68239047D02*
X165261628Y-68334285D01*
X165261628Y-68334285D02*
X165166390Y-68381904D01*
X165166390Y-68381904D02*
X165071152Y-68381904D01*
X165071152Y-68381904D02*
X164975914Y-67905714D01*
X164690200Y-69191428D02*
X164642580Y-69096190D01*
X164642580Y-69096190D02*
X164642580Y-68905714D01*
X164642580Y-68905714D02*
X164690200Y-68810476D01*
X164690200Y-68810476D02*
X164785438Y-68762857D01*
X164785438Y-68762857D02*
X165166390Y-68762857D01*
X165166390Y-68762857D02*
X165261628Y-68810476D01*
X165261628Y-68810476D02*
X165309247Y-68905714D01*
X165309247Y-68905714D02*
X165309247Y-69096190D01*
X165309247Y-69096190D02*
X165261628Y-69191428D01*
X165261628Y-69191428D02*
X165166390Y-69239047D01*
X165166390Y-69239047D02*
X165071152Y-69239047D01*
X165071152Y-69239047D02*
X164975914Y-68762857D01*
X165309247Y-69667619D02*
X164642580Y-69667619D01*
X165214009Y-69667619D02*
X165261628Y-69715238D01*
X165261628Y-69715238D02*
X165309247Y-69810476D01*
X165309247Y-69810476D02*
X165309247Y-69953333D01*
X165309247Y-69953333D02*
X165261628Y-70048571D01*
X165261628Y-70048571D02*
X165166390Y-70096190D01*
X165166390Y-70096190D02*
X164642580Y-70096190D01*
X164690200Y-70524762D02*
X164642580Y-70620000D01*
X164642580Y-70620000D02*
X164642580Y-70810476D01*
X164642580Y-70810476D02*
X164690200Y-70905714D01*
X164690200Y-70905714D02*
X164785438Y-70953333D01*
X164785438Y-70953333D02*
X164833057Y-70953333D01*
X164833057Y-70953333D02*
X164928295Y-70905714D01*
X164928295Y-70905714D02*
X164975914Y-70810476D01*
X164975914Y-70810476D02*
X164975914Y-70667619D01*
X164975914Y-70667619D02*
X165023533Y-70572381D01*
X165023533Y-70572381D02*
X165118771Y-70524762D01*
X165118771Y-70524762D02*
X165166390Y-70524762D01*
X165166390Y-70524762D02*
X165261628Y-70572381D01*
X165261628Y-70572381D02*
X165309247Y-70667619D01*
X165309247Y-70667619D02*
X165309247Y-70810476D01*
X165309247Y-70810476D02*
X165261628Y-70905714D01*
X165309247Y-71286667D02*
X164642580Y-71524762D01*
X165309247Y-71762857D02*
X164642580Y-71524762D01*
X164642580Y-71524762D02*
X164404485Y-71429524D01*
X164404485Y-71429524D02*
X164356866Y-71381905D01*
X164356866Y-71381905D02*
X164309247Y-71286667D01*
X165309247Y-72572381D02*
X164642580Y-72572381D01*
X165690200Y-72334286D02*
X164975914Y-72096191D01*
X164975914Y-72096191D02*
X164975914Y-72715238D01*
X164737819Y-73096191D02*
X164690200Y-73143810D01*
X164690200Y-73143810D02*
X164642580Y-73096191D01*
X164642580Y-73096191D02*
X164690200Y-73048572D01*
X164690200Y-73048572D02*
X164737819Y-73096191D01*
X164737819Y-73096191D02*
X164642580Y-73096191D01*
X165547342Y-73524762D02*
X165594961Y-73572381D01*
X165594961Y-73572381D02*
X165642580Y-73667619D01*
X165642580Y-73667619D02*
X165642580Y-73905714D01*
X165642580Y-73905714D02*
X165594961Y-74000952D01*
X165594961Y-74000952D02*
X165547342Y-74048571D01*
X165547342Y-74048571D02*
X165452104Y-74096190D01*
X165452104Y-74096190D02*
X165356866Y-74096190D01*
X165356866Y-74096190D02*
X165214009Y-74048571D01*
X165214009Y-74048571D02*
X164642580Y-73477143D01*
X164642580Y-73477143D02*
X164642580Y-74096190D01*
X159006265Y-88724800D02*
X159149122Y-88772419D01*
X159149122Y-88772419D02*
X159387217Y-88772419D01*
X159387217Y-88772419D02*
X159482455Y-88724800D01*
X159482455Y-88724800D02*
X159530074Y-88677180D01*
X159530074Y-88677180D02*
X159577693Y-88581942D01*
X159577693Y-88581942D02*
X159577693Y-88486704D01*
X159577693Y-88486704D02*
X159530074Y-88391466D01*
X159530074Y-88391466D02*
X159482455Y-88343847D01*
X159482455Y-88343847D02*
X159387217Y-88296228D01*
X159387217Y-88296228D02*
X159196741Y-88248609D01*
X159196741Y-88248609D02*
X159101503Y-88200990D01*
X159101503Y-88200990D02*
X159053884Y-88153371D01*
X159053884Y-88153371D02*
X159006265Y-88058133D01*
X159006265Y-88058133D02*
X159006265Y-87962895D01*
X159006265Y-87962895D02*
X159053884Y-87867657D01*
X159053884Y-87867657D02*
X159101503Y-87820038D01*
X159101503Y-87820038D02*
X159196741Y-87772419D01*
X159196741Y-87772419D02*
X159434836Y-87772419D01*
X159434836Y-87772419D02*
X159577693Y-87820038D01*
X160577693Y-88677180D02*
X160530074Y-88724800D01*
X160530074Y-88724800D02*
X160387217Y-88772419D01*
X160387217Y-88772419D02*
X160291979Y-88772419D01*
X160291979Y-88772419D02*
X160149122Y-88724800D01*
X160149122Y-88724800D02*
X160053884Y-88629561D01*
X160053884Y-88629561D02*
X160006265Y-88534323D01*
X160006265Y-88534323D02*
X159958646Y-88343847D01*
X159958646Y-88343847D02*
X159958646Y-88200990D01*
X159958646Y-88200990D02*
X160006265Y-88010514D01*
X160006265Y-88010514D02*
X160053884Y-87915276D01*
X160053884Y-87915276D02*
X160149122Y-87820038D01*
X160149122Y-87820038D02*
X160291979Y-87772419D01*
X160291979Y-87772419D02*
X160387217Y-87772419D01*
X160387217Y-87772419D02*
X160530074Y-87820038D01*
X160530074Y-87820038D02*
X160577693Y-87867657D01*
X161006265Y-88772419D02*
X161006265Y-87772419D01*
X161577693Y-88772419D02*
X161149122Y-88200990D01*
X161577693Y-87772419D02*
X161006265Y-88343847D01*
X162530074Y-88772419D02*
X161958646Y-88772419D01*
X162244360Y-88772419D02*
X162244360Y-87772419D01*
X162244360Y-87772419D02*
X162149122Y-87915276D01*
X162149122Y-87915276D02*
X162053884Y-88010514D01*
X162053884Y-88010514D02*
X161958646Y-88058133D01*
X167896265Y-63324800D02*
X168039122Y-63372419D01*
X168039122Y-63372419D02*
X168277217Y-63372419D01*
X168277217Y-63372419D02*
X168372455Y-63324800D01*
X168372455Y-63324800D02*
X168420074Y-63277180D01*
X168420074Y-63277180D02*
X168467693Y-63181942D01*
X168467693Y-63181942D02*
X168467693Y-63086704D01*
X168467693Y-63086704D02*
X168420074Y-62991466D01*
X168420074Y-62991466D02*
X168372455Y-62943847D01*
X168372455Y-62943847D02*
X168277217Y-62896228D01*
X168277217Y-62896228D02*
X168086741Y-62848609D01*
X168086741Y-62848609D02*
X167991503Y-62800990D01*
X167991503Y-62800990D02*
X167943884Y-62753371D01*
X167943884Y-62753371D02*
X167896265Y-62658133D01*
X167896265Y-62658133D02*
X167896265Y-62562895D01*
X167896265Y-62562895D02*
X167943884Y-62467657D01*
X167943884Y-62467657D02*
X167991503Y-62420038D01*
X167991503Y-62420038D02*
X168086741Y-62372419D01*
X168086741Y-62372419D02*
X168324836Y-62372419D01*
X168324836Y-62372419D02*
X168467693Y-62420038D01*
X168896265Y-63372419D02*
X168896265Y-62372419D01*
X168896265Y-62372419D02*
X169134360Y-62372419D01*
X169134360Y-62372419D02*
X169277217Y-62420038D01*
X169277217Y-62420038D02*
X169372455Y-62515276D01*
X169372455Y-62515276D02*
X169420074Y-62610514D01*
X169420074Y-62610514D02*
X169467693Y-62800990D01*
X169467693Y-62800990D02*
X169467693Y-62943847D01*
X169467693Y-62943847D02*
X169420074Y-63134323D01*
X169420074Y-63134323D02*
X169372455Y-63229561D01*
X169372455Y-63229561D02*
X169277217Y-63324800D01*
X169277217Y-63324800D02*
X169134360Y-63372419D01*
X169134360Y-63372419D02*
X168896265Y-63372419D01*
X169848646Y-63086704D02*
X170324836Y-63086704D01*
X169753408Y-63372419D02*
X170086741Y-62372419D01*
X170086741Y-62372419D02*
X170420074Y-63372419D01*
X167896265Y-70706704D02*
X168372455Y-70706704D01*
X167801027Y-70992419D02*
X168134360Y-69992419D01*
X168134360Y-69992419D02*
X168467693Y-70992419D01*
X169324836Y-70992419D02*
X168753408Y-70992419D01*
X169039122Y-70992419D02*
X169039122Y-69992419D01*
X169039122Y-69992419D02*
X168943884Y-70135276D01*
X168943884Y-70135276D02*
X168848646Y-70230514D01*
X168848646Y-70230514D02*
X168753408Y-70278133D01*
X159053884Y-53212419D02*
X159053884Y-52212419D01*
X159053884Y-52212419D02*
X159434836Y-52212419D01*
X159434836Y-52212419D02*
X159530074Y-52260038D01*
X159530074Y-52260038D02*
X159577693Y-52307657D01*
X159577693Y-52307657D02*
X159625312Y-52402895D01*
X159625312Y-52402895D02*
X159625312Y-52545752D01*
X159625312Y-52545752D02*
X159577693Y-52640990D01*
X159577693Y-52640990D02*
X159530074Y-52688609D01*
X159530074Y-52688609D02*
X159434836Y-52736228D01*
X159434836Y-52736228D02*
X159053884Y-52736228D01*
X159958646Y-52212419D02*
X160196741Y-53212419D01*
X160196741Y-53212419D02*
X160387217Y-52498133D01*
X160387217Y-52498133D02*
X160577693Y-53212419D01*
X160577693Y-53212419D02*
X160815789Y-52212419D01*
X161196741Y-53212419D02*
X161196741Y-52212419D01*
X161196741Y-52212419D02*
X161530074Y-52926704D01*
X161530074Y-52926704D02*
X161863407Y-52212419D01*
X161863407Y-52212419D02*
X161863407Y-53212419D01*
X159053884Y-50672419D02*
X159053884Y-49672419D01*
X159053884Y-49672419D02*
X159434836Y-49672419D01*
X159434836Y-49672419D02*
X159530074Y-49720038D01*
X159530074Y-49720038D02*
X159577693Y-49767657D01*
X159577693Y-49767657D02*
X159625312Y-49862895D01*
X159625312Y-49862895D02*
X159625312Y-50005752D01*
X159625312Y-50005752D02*
X159577693Y-50100990D01*
X159577693Y-50100990D02*
X159530074Y-50148609D01*
X159530074Y-50148609D02*
X159434836Y-50196228D01*
X159434836Y-50196228D02*
X159053884Y-50196228D01*
X159958646Y-49672419D02*
X160196741Y-50672419D01*
X160196741Y-50672419D02*
X160387217Y-49958133D01*
X160387217Y-49958133D02*
X160577693Y-50672419D01*
X160577693Y-50672419D02*
X160815789Y-49672419D01*
X161196741Y-50672419D02*
X161196741Y-49672419D01*
X161196741Y-49672419D02*
X161530074Y-50386704D01*
X161530074Y-50386704D02*
X161863407Y-49672419D01*
X161863407Y-49672419D02*
X161863407Y-50672419D01*
X159625312Y-63372419D02*
X159291979Y-62896228D01*
X159053884Y-63372419D02*
X159053884Y-62372419D01*
X159053884Y-62372419D02*
X159434836Y-62372419D01*
X159434836Y-62372419D02*
X159530074Y-62420038D01*
X159530074Y-62420038D02*
X159577693Y-62467657D01*
X159577693Y-62467657D02*
X159625312Y-62562895D01*
X159625312Y-62562895D02*
X159625312Y-62705752D01*
X159625312Y-62705752D02*
X159577693Y-62800990D01*
X159577693Y-62800990D02*
X159530074Y-62848609D01*
X159530074Y-62848609D02*
X159434836Y-62896228D01*
X159434836Y-62896228D02*
X159053884Y-62896228D01*
X159958646Y-62372419D02*
X160625312Y-63372419D01*
X160625312Y-62372419D02*
X159958646Y-63372419D01*
X160958646Y-62467657D02*
X161006265Y-62420038D01*
X161006265Y-62420038D02*
X161101503Y-62372419D01*
X161101503Y-62372419D02*
X161339598Y-62372419D01*
X161339598Y-62372419D02*
X161434836Y-62420038D01*
X161434836Y-62420038D02*
X161482455Y-62467657D01*
X161482455Y-62467657D02*
X161530074Y-62562895D01*
X161530074Y-62562895D02*
X161530074Y-62658133D01*
X161530074Y-62658133D02*
X161482455Y-62800990D01*
X161482455Y-62800990D02*
X160911027Y-63372419D01*
X160911027Y-63372419D02*
X161530074Y-63372419D01*
X167848646Y-47132419D02*
X168467693Y-47132419D01*
X168467693Y-47132419D02*
X168134360Y-47513371D01*
X168134360Y-47513371D02*
X168277217Y-47513371D01*
X168277217Y-47513371D02*
X168372455Y-47560990D01*
X168372455Y-47560990D02*
X168420074Y-47608609D01*
X168420074Y-47608609D02*
X168467693Y-47703847D01*
X168467693Y-47703847D02*
X168467693Y-47941942D01*
X168467693Y-47941942D02*
X168420074Y-48037180D01*
X168420074Y-48037180D02*
X168372455Y-48084800D01*
X168372455Y-48084800D02*
X168277217Y-48132419D01*
X168277217Y-48132419D02*
X167991503Y-48132419D01*
X167991503Y-48132419D02*
X167896265Y-48084800D01*
X167896265Y-48084800D02*
X167848646Y-48037180D01*
X168896265Y-48037180D02*
X168943884Y-48084800D01*
X168943884Y-48084800D02*
X168896265Y-48132419D01*
X168896265Y-48132419D02*
X168848646Y-48084800D01*
X168848646Y-48084800D02*
X168896265Y-48037180D01*
X168896265Y-48037180D02*
X168896265Y-48132419D01*
X169277217Y-47132419D02*
X169896264Y-47132419D01*
X169896264Y-47132419D02*
X169562931Y-47513371D01*
X169562931Y-47513371D02*
X169705788Y-47513371D01*
X169705788Y-47513371D02*
X169801026Y-47560990D01*
X169801026Y-47560990D02*
X169848645Y-47608609D01*
X169848645Y-47608609D02*
X169896264Y-47703847D01*
X169896264Y-47703847D02*
X169896264Y-47941942D01*
X169896264Y-47941942D02*
X169848645Y-48037180D01*
X169848645Y-48037180D02*
X169801026Y-48084800D01*
X169801026Y-48084800D02*
X169705788Y-48132419D01*
X169705788Y-48132419D02*
X169420074Y-48132419D01*
X169420074Y-48132419D02*
X169324836Y-48084800D01*
X169324836Y-48084800D02*
X169277217Y-48037180D01*
X170181979Y-47132419D02*
X170515312Y-48132419D01*
X170515312Y-48132419D02*
X170848645Y-47132419D01*
X167801027Y-95392419D02*
X168372455Y-95392419D01*
X168086741Y-96392419D02*
X168086741Y-95392419D01*
X168610551Y-95392419D02*
X169277217Y-96392419D01*
X169277217Y-95392419D02*
X168610551Y-96392419D01*
X169801027Y-95820990D02*
X169705789Y-95773371D01*
X169705789Y-95773371D02*
X169658170Y-95725752D01*
X169658170Y-95725752D02*
X169610551Y-95630514D01*
X169610551Y-95630514D02*
X169610551Y-95582895D01*
X169610551Y-95582895D02*
X169658170Y-95487657D01*
X169658170Y-95487657D02*
X169705789Y-95440038D01*
X169705789Y-95440038D02*
X169801027Y-95392419D01*
X169801027Y-95392419D02*
X169991503Y-95392419D01*
X169991503Y-95392419D02*
X170086741Y-95440038D01*
X170086741Y-95440038D02*
X170134360Y-95487657D01*
X170134360Y-95487657D02*
X170181979Y-95582895D01*
X170181979Y-95582895D02*
X170181979Y-95630514D01*
X170181979Y-95630514D02*
X170134360Y-95725752D01*
X170134360Y-95725752D02*
X170086741Y-95773371D01*
X170086741Y-95773371D02*
X169991503Y-95820990D01*
X169991503Y-95820990D02*
X169801027Y-95820990D01*
X169801027Y-95820990D02*
X169705789Y-95868609D01*
X169705789Y-95868609D02*
X169658170Y-95916228D01*
X169658170Y-95916228D02*
X169610551Y-96011466D01*
X169610551Y-96011466D02*
X169610551Y-96201942D01*
X169610551Y-96201942D02*
X169658170Y-96297180D01*
X169658170Y-96297180D02*
X169705789Y-96344800D01*
X169705789Y-96344800D02*
X169801027Y-96392419D01*
X169801027Y-96392419D02*
X169991503Y-96392419D01*
X169991503Y-96392419D02*
X170086741Y-96344800D01*
X170086741Y-96344800D02*
X170134360Y-96297180D01*
X170134360Y-96297180D02*
X170181979Y-96201942D01*
X170181979Y-96201942D02*
X170181979Y-96011466D01*
X170181979Y-96011466D02*
X170134360Y-95916228D01*
X170134360Y-95916228D02*
X170086741Y-95868609D01*
X170086741Y-95868609D02*
X169991503Y-95820990D01*
X167943884Y-101472419D02*
X167943884Y-100472419D01*
X167943884Y-100472419D02*
X168324836Y-100472419D01*
X168324836Y-100472419D02*
X168420074Y-100520038D01*
X168420074Y-100520038D02*
X168467693Y-100567657D01*
X168467693Y-100567657D02*
X168515312Y-100662895D01*
X168515312Y-100662895D02*
X168515312Y-100805752D01*
X168515312Y-100805752D02*
X168467693Y-100900990D01*
X168467693Y-100900990D02*
X168420074Y-100948609D01*
X168420074Y-100948609D02*
X168324836Y-100996228D01*
X168324836Y-100996228D02*
X167943884Y-100996228D01*
X168848646Y-100472419D02*
X169086741Y-101472419D01*
X169086741Y-101472419D02*
X169277217Y-100758133D01*
X169277217Y-100758133D02*
X169467693Y-101472419D01*
X169467693Y-101472419D02*
X169705789Y-100472419D01*
X170086741Y-101472419D02*
X170086741Y-100472419D01*
X170086741Y-100472419D02*
X170420074Y-101186704D01*
X170420074Y-101186704D02*
X170753407Y-100472419D01*
X170753407Y-100472419D02*
X170753407Y-101472419D01*
X158911027Y-47132419D02*
X159482455Y-47132419D01*
X159196741Y-48132419D02*
X159196741Y-47132419D01*
X159720551Y-47132419D02*
X160387217Y-48132419D01*
X160387217Y-47132419D02*
X159720551Y-48132419D01*
X161291979Y-48132419D02*
X160720551Y-48132419D01*
X161006265Y-48132419D02*
X161006265Y-47132419D01*
X161006265Y-47132419D02*
X160911027Y-47275276D01*
X160911027Y-47275276D02*
X160815789Y-47370514D01*
X160815789Y-47370514D02*
X160720551Y-47418133D01*
X167943884Y-86232419D02*
X167943884Y-85232419D01*
X167943884Y-85232419D02*
X168277217Y-85946704D01*
X168277217Y-85946704D02*
X168610550Y-85232419D01*
X168610550Y-85232419D02*
X168610550Y-86232419D01*
X169086741Y-86232419D02*
X169086741Y-85232419D01*
X169515312Y-86184800D02*
X169658169Y-86232419D01*
X169658169Y-86232419D02*
X169896264Y-86232419D01*
X169896264Y-86232419D02*
X169991502Y-86184800D01*
X169991502Y-86184800D02*
X170039121Y-86137180D01*
X170039121Y-86137180D02*
X170086740Y-86041942D01*
X170086740Y-86041942D02*
X170086740Y-85946704D01*
X170086740Y-85946704D02*
X170039121Y-85851466D01*
X170039121Y-85851466D02*
X169991502Y-85803847D01*
X169991502Y-85803847D02*
X169896264Y-85756228D01*
X169896264Y-85756228D02*
X169705788Y-85708609D01*
X169705788Y-85708609D02*
X169610550Y-85660990D01*
X169610550Y-85660990D02*
X169562931Y-85613371D01*
X169562931Y-85613371D02*
X169515312Y-85518133D01*
X169515312Y-85518133D02*
X169515312Y-85422895D01*
X169515312Y-85422895D02*
X169562931Y-85327657D01*
X169562931Y-85327657D02*
X169610550Y-85280038D01*
X169610550Y-85280038D02*
X169705788Y-85232419D01*
X169705788Y-85232419D02*
X169943883Y-85232419D01*
X169943883Y-85232419D02*
X170086740Y-85280038D01*
X170705788Y-85232419D02*
X170896264Y-85232419D01*
X170896264Y-85232419D02*
X170991502Y-85280038D01*
X170991502Y-85280038D02*
X171086740Y-85375276D01*
X171086740Y-85375276D02*
X171134359Y-85565752D01*
X171134359Y-85565752D02*
X171134359Y-85899085D01*
X171134359Y-85899085D02*
X171086740Y-86089561D01*
X171086740Y-86089561D02*
X170991502Y-86184800D01*
X170991502Y-86184800D02*
X170896264Y-86232419D01*
X170896264Y-86232419D02*
X170705788Y-86232419D01*
X170705788Y-86232419D02*
X170610550Y-86184800D01*
X170610550Y-86184800D02*
X170515312Y-86089561D01*
X170515312Y-86089561D02*
X170467693Y-85899085D01*
X170467693Y-85899085D02*
X170467693Y-85565752D01*
X170467693Y-85565752D02*
X170515312Y-85375276D01*
X170515312Y-85375276D02*
X170610550Y-85280038D01*
X170610550Y-85280038D02*
X170705788Y-85232419D01*
X159053884Y-76072419D02*
X159053884Y-75072419D01*
X159053884Y-75072419D02*
X159387217Y-75786704D01*
X159387217Y-75786704D02*
X159720550Y-75072419D01*
X159720550Y-75072419D02*
X159720550Y-76072419D01*
X160196741Y-76072419D02*
X160196741Y-75072419D01*
X160625312Y-76024800D02*
X160768169Y-76072419D01*
X160768169Y-76072419D02*
X161006264Y-76072419D01*
X161006264Y-76072419D02*
X161101502Y-76024800D01*
X161101502Y-76024800D02*
X161149121Y-75977180D01*
X161149121Y-75977180D02*
X161196740Y-75881942D01*
X161196740Y-75881942D02*
X161196740Y-75786704D01*
X161196740Y-75786704D02*
X161149121Y-75691466D01*
X161149121Y-75691466D02*
X161101502Y-75643847D01*
X161101502Y-75643847D02*
X161006264Y-75596228D01*
X161006264Y-75596228D02*
X160815788Y-75548609D01*
X160815788Y-75548609D02*
X160720550Y-75500990D01*
X160720550Y-75500990D02*
X160672931Y-75453371D01*
X160672931Y-75453371D02*
X160625312Y-75358133D01*
X160625312Y-75358133D02*
X160625312Y-75262895D01*
X160625312Y-75262895D02*
X160672931Y-75167657D01*
X160672931Y-75167657D02*
X160720550Y-75120038D01*
X160720550Y-75120038D02*
X160815788Y-75072419D01*
X160815788Y-75072419D02*
X161053883Y-75072419D01*
X161053883Y-75072419D02*
X161196740Y-75120038D01*
X161815788Y-75072419D02*
X162006264Y-75072419D01*
X162006264Y-75072419D02*
X162101502Y-75120038D01*
X162101502Y-75120038D02*
X162196740Y-75215276D01*
X162196740Y-75215276D02*
X162244359Y-75405752D01*
X162244359Y-75405752D02*
X162244359Y-75739085D01*
X162244359Y-75739085D02*
X162196740Y-75929561D01*
X162196740Y-75929561D02*
X162101502Y-76024800D01*
X162101502Y-76024800D02*
X162006264Y-76072419D01*
X162006264Y-76072419D02*
X161815788Y-76072419D01*
X161815788Y-76072419D02*
X161720550Y-76024800D01*
X161720550Y-76024800D02*
X161625312Y-75929561D01*
X161625312Y-75929561D02*
X161577693Y-75739085D01*
X161577693Y-75739085D02*
X161577693Y-75405752D01*
X161577693Y-75405752D02*
X161625312Y-75215276D01*
X161625312Y-75215276D02*
X161720550Y-75120038D01*
X161720550Y-75120038D02*
X161815788Y-75072419D01*
X168515312Y-55752419D02*
X168181979Y-55276228D01*
X167943884Y-55752419D02*
X167943884Y-54752419D01*
X167943884Y-54752419D02*
X168324836Y-54752419D01*
X168324836Y-54752419D02*
X168420074Y-54800038D01*
X168420074Y-54800038D02*
X168467693Y-54847657D01*
X168467693Y-54847657D02*
X168515312Y-54942895D01*
X168515312Y-54942895D02*
X168515312Y-55085752D01*
X168515312Y-55085752D02*
X168467693Y-55180990D01*
X168467693Y-55180990D02*
X168420074Y-55228609D01*
X168420074Y-55228609D02*
X168324836Y-55276228D01*
X168324836Y-55276228D02*
X167943884Y-55276228D01*
X168848646Y-54752419D02*
X169515312Y-55752419D01*
X169515312Y-54752419D02*
X168848646Y-55752419D01*
X170372455Y-54752419D02*
X169896265Y-54752419D01*
X169896265Y-54752419D02*
X169848646Y-55228609D01*
X169848646Y-55228609D02*
X169896265Y-55180990D01*
X169896265Y-55180990D02*
X169991503Y-55133371D01*
X169991503Y-55133371D02*
X170229598Y-55133371D01*
X170229598Y-55133371D02*
X170324836Y-55180990D01*
X170324836Y-55180990D02*
X170372455Y-55228609D01*
X170372455Y-55228609D02*
X170420074Y-55323847D01*
X170420074Y-55323847D02*
X170420074Y-55561942D01*
X170420074Y-55561942D02*
X170372455Y-55657180D01*
X170372455Y-55657180D02*
X170324836Y-55704800D01*
X170324836Y-55704800D02*
X170229598Y-55752419D01*
X170229598Y-55752419D02*
X169991503Y-55752419D01*
X169991503Y-55752419D02*
X169896265Y-55704800D01*
X169896265Y-55704800D02*
X169848646Y-55657180D01*
X159625312Y-70897180D02*
X159577693Y-70944800D01*
X159577693Y-70944800D02*
X159434836Y-70992419D01*
X159434836Y-70992419D02*
X159339598Y-70992419D01*
X159339598Y-70992419D02*
X159196741Y-70944800D01*
X159196741Y-70944800D02*
X159101503Y-70849561D01*
X159101503Y-70849561D02*
X159053884Y-70754323D01*
X159053884Y-70754323D02*
X159006265Y-70563847D01*
X159006265Y-70563847D02*
X159006265Y-70420990D01*
X159006265Y-70420990D02*
X159053884Y-70230514D01*
X159053884Y-70230514D02*
X159101503Y-70135276D01*
X159101503Y-70135276D02*
X159196741Y-70040038D01*
X159196741Y-70040038D02*
X159339598Y-69992419D01*
X159339598Y-69992419D02*
X159434836Y-69992419D01*
X159434836Y-69992419D02*
X159577693Y-70040038D01*
X159577693Y-70040038D02*
X159625312Y-70087657D01*
X160006265Y-70944800D02*
X160149122Y-70992419D01*
X160149122Y-70992419D02*
X160387217Y-70992419D01*
X160387217Y-70992419D02*
X160482455Y-70944800D01*
X160482455Y-70944800D02*
X160530074Y-70897180D01*
X160530074Y-70897180D02*
X160577693Y-70801942D01*
X160577693Y-70801942D02*
X160577693Y-70706704D01*
X160577693Y-70706704D02*
X160530074Y-70611466D01*
X160530074Y-70611466D02*
X160482455Y-70563847D01*
X160482455Y-70563847D02*
X160387217Y-70516228D01*
X160387217Y-70516228D02*
X160196741Y-70468609D01*
X160196741Y-70468609D02*
X160101503Y-70420990D01*
X160101503Y-70420990D02*
X160053884Y-70373371D01*
X160053884Y-70373371D02*
X160006265Y-70278133D01*
X160006265Y-70278133D02*
X160006265Y-70182895D01*
X160006265Y-70182895D02*
X160053884Y-70087657D01*
X160053884Y-70087657D02*
X160101503Y-70040038D01*
X160101503Y-70040038D02*
X160196741Y-69992419D01*
X160196741Y-69992419D02*
X160434836Y-69992419D01*
X160434836Y-69992419D02*
X160577693Y-70040038D01*
X158958646Y-77612419D02*
X159577693Y-77612419D01*
X159577693Y-77612419D02*
X159244360Y-77993371D01*
X159244360Y-77993371D02*
X159387217Y-77993371D01*
X159387217Y-77993371D02*
X159482455Y-78040990D01*
X159482455Y-78040990D02*
X159530074Y-78088609D01*
X159530074Y-78088609D02*
X159577693Y-78183847D01*
X159577693Y-78183847D02*
X159577693Y-78421942D01*
X159577693Y-78421942D02*
X159530074Y-78517180D01*
X159530074Y-78517180D02*
X159482455Y-78564800D01*
X159482455Y-78564800D02*
X159387217Y-78612419D01*
X159387217Y-78612419D02*
X159101503Y-78612419D01*
X159101503Y-78612419D02*
X159006265Y-78564800D01*
X159006265Y-78564800D02*
X158958646Y-78517180D01*
X160006265Y-78517180D02*
X160053884Y-78564800D01*
X160053884Y-78564800D02*
X160006265Y-78612419D01*
X160006265Y-78612419D02*
X159958646Y-78564800D01*
X159958646Y-78564800D02*
X160006265Y-78517180D01*
X160006265Y-78517180D02*
X160006265Y-78612419D01*
X160387217Y-77612419D02*
X161006264Y-77612419D01*
X161006264Y-77612419D02*
X160672931Y-77993371D01*
X160672931Y-77993371D02*
X160815788Y-77993371D01*
X160815788Y-77993371D02*
X160911026Y-78040990D01*
X160911026Y-78040990D02*
X160958645Y-78088609D01*
X160958645Y-78088609D02*
X161006264Y-78183847D01*
X161006264Y-78183847D02*
X161006264Y-78421942D01*
X161006264Y-78421942D02*
X160958645Y-78517180D01*
X160958645Y-78517180D02*
X160911026Y-78564800D01*
X160911026Y-78564800D02*
X160815788Y-78612419D01*
X160815788Y-78612419D02*
X160530074Y-78612419D01*
X160530074Y-78612419D02*
X160434836Y-78564800D01*
X160434836Y-78564800D02*
X160387217Y-78517180D01*
X161291979Y-77612419D02*
X161625312Y-78612419D01*
X161625312Y-78612419D02*
X161958645Y-77612419D01*
X159577693Y-42100038D02*
X159482455Y-42052419D01*
X159482455Y-42052419D02*
X159339598Y-42052419D01*
X159339598Y-42052419D02*
X159196741Y-42100038D01*
X159196741Y-42100038D02*
X159101503Y-42195276D01*
X159101503Y-42195276D02*
X159053884Y-42290514D01*
X159053884Y-42290514D02*
X159006265Y-42480990D01*
X159006265Y-42480990D02*
X159006265Y-42623847D01*
X159006265Y-42623847D02*
X159053884Y-42814323D01*
X159053884Y-42814323D02*
X159101503Y-42909561D01*
X159101503Y-42909561D02*
X159196741Y-43004800D01*
X159196741Y-43004800D02*
X159339598Y-43052419D01*
X159339598Y-43052419D02*
X159434836Y-43052419D01*
X159434836Y-43052419D02*
X159577693Y-43004800D01*
X159577693Y-43004800D02*
X159625312Y-42957180D01*
X159625312Y-42957180D02*
X159625312Y-42623847D01*
X159625312Y-42623847D02*
X159434836Y-42623847D01*
X160053884Y-43052419D02*
X160053884Y-42052419D01*
X160053884Y-42052419D02*
X160625312Y-43052419D01*
X160625312Y-43052419D02*
X160625312Y-42052419D01*
X161101503Y-43052419D02*
X161101503Y-42052419D01*
X161101503Y-42052419D02*
X161339598Y-42052419D01*
X161339598Y-42052419D02*
X161482455Y-42100038D01*
X161482455Y-42100038D02*
X161577693Y-42195276D01*
X161577693Y-42195276D02*
X161625312Y-42290514D01*
X161625312Y-42290514D02*
X161672931Y-42480990D01*
X161672931Y-42480990D02*
X161672931Y-42623847D01*
X161672931Y-42623847D02*
X161625312Y-42814323D01*
X161625312Y-42814323D02*
X161577693Y-42909561D01*
X161577693Y-42909561D02*
X161482455Y-43004800D01*
X161482455Y-43004800D02*
X161339598Y-43052419D01*
X161339598Y-43052419D02*
X161101503Y-43052419D01*
X167943884Y-93852419D02*
X167943884Y-92852419D01*
X167943884Y-92852419D02*
X168324836Y-92852419D01*
X168324836Y-92852419D02*
X168420074Y-92900038D01*
X168420074Y-92900038D02*
X168467693Y-92947657D01*
X168467693Y-92947657D02*
X168515312Y-93042895D01*
X168515312Y-93042895D02*
X168515312Y-93185752D01*
X168515312Y-93185752D02*
X168467693Y-93280990D01*
X168467693Y-93280990D02*
X168420074Y-93328609D01*
X168420074Y-93328609D02*
X168324836Y-93376228D01*
X168324836Y-93376228D02*
X167943884Y-93376228D01*
X168848646Y-92852419D02*
X169086741Y-93852419D01*
X169086741Y-93852419D02*
X169277217Y-93138133D01*
X169277217Y-93138133D02*
X169467693Y-93852419D01*
X169467693Y-93852419D02*
X169705789Y-92852419D01*
X170086741Y-93852419D02*
X170086741Y-92852419D01*
X170086741Y-92852419D02*
X170420074Y-93566704D01*
X170420074Y-93566704D02*
X170753407Y-92852419D01*
X170753407Y-92852419D02*
X170753407Y-93852419D01*
X159577693Y-97980038D02*
X159482455Y-97932419D01*
X159482455Y-97932419D02*
X159339598Y-97932419D01*
X159339598Y-97932419D02*
X159196741Y-97980038D01*
X159196741Y-97980038D02*
X159101503Y-98075276D01*
X159101503Y-98075276D02*
X159053884Y-98170514D01*
X159053884Y-98170514D02*
X159006265Y-98360990D01*
X159006265Y-98360990D02*
X159006265Y-98503847D01*
X159006265Y-98503847D02*
X159053884Y-98694323D01*
X159053884Y-98694323D02*
X159101503Y-98789561D01*
X159101503Y-98789561D02*
X159196741Y-98884800D01*
X159196741Y-98884800D02*
X159339598Y-98932419D01*
X159339598Y-98932419D02*
X159434836Y-98932419D01*
X159434836Y-98932419D02*
X159577693Y-98884800D01*
X159577693Y-98884800D02*
X159625312Y-98837180D01*
X159625312Y-98837180D02*
X159625312Y-98503847D01*
X159625312Y-98503847D02*
X159434836Y-98503847D01*
X160053884Y-98932419D02*
X160053884Y-97932419D01*
X160053884Y-97932419D02*
X160434836Y-97932419D01*
X160434836Y-97932419D02*
X160530074Y-97980038D01*
X160530074Y-97980038D02*
X160577693Y-98027657D01*
X160577693Y-98027657D02*
X160625312Y-98122895D01*
X160625312Y-98122895D02*
X160625312Y-98265752D01*
X160625312Y-98265752D02*
X160577693Y-98360990D01*
X160577693Y-98360990D02*
X160530074Y-98408609D01*
X160530074Y-98408609D02*
X160434836Y-98456228D01*
X160434836Y-98456228D02*
X160053884Y-98456228D01*
X161053884Y-98932419D02*
X161053884Y-97932419D01*
X161720550Y-97932419D02*
X161911026Y-97932419D01*
X161911026Y-97932419D02*
X162006264Y-97980038D01*
X162006264Y-97980038D02*
X162101502Y-98075276D01*
X162101502Y-98075276D02*
X162149121Y-98265752D01*
X162149121Y-98265752D02*
X162149121Y-98599085D01*
X162149121Y-98599085D02*
X162101502Y-98789561D01*
X162101502Y-98789561D02*
X162006264Y-98884800D01*
X162006264Y-98884800D02*
X161911026Y-98932419D01*
X161911026Y-98932419D02*
X161720550Y-98932419D01*
X161720550Y-98932419D02*
X161625312Y-98884800D01*
X161625312Y-98884800D02*
X161530074Y-98789561D01*
X161530074Y-98789561D02*
X161482455Y-98599085D01*
X161482455Y-98599085D02*
X161482455Y-98265752D01*
X161482455Y-98265752D02*
X161530074Y-98075276D01*
X161530074Y-98075276D02*
X161625312Y-97980038D01*
X161625312Y-97980038D02*
X161720550Y-97932419D01*
X159006265Y-83644800D02*
X159149122Y-83692419D01*
X159149122Y-83692419D02*
X159387217Y-83692419D01*
X159387217Y-83692419D02*
X159482455Y-83644800D01*
X159482455Y-83644800D02*
X159530074Y-83597180D01*
X159530074Y-83597180D02*
X159577693Y-83501942D01*
X159577693Y-83501942D02*
X159577693Y-83406704D01*
X159577693Y-83406704D02*
X159530074Y-83311466D01*
X159530074Y-83311466D02*
X159482455Y-83263847D01*
X159482455Y-83263847D02*
X159387217Y-83216228D01*
X159387217Y-83216228D02*
X159196741Y-83168609D01*
X159196741Y-83168609D02*
X159101503Y-83120990D01*
X159101503Y-83120990D02*
X159053884Y-83073371D01*
X159053884Y-83073371D02*
X159006265Y-82978133D01*
X159006265Y-82978133D02*
X159006265Y-82882895D01*
X159006265Y-82882895D02*
X159053884Y-82787657D01*
X159053884Y-82787657D02*
X159101503Y-82740038D01*
X159101503Y-82740038D02*
X159196741Y-82692419D01*
X159196741Y-82692419D02*
X159434836Y-82692419D01*
X159434836Y-82692419D02*
X159577693Y-82740038D01*
X160006265Y-83692419D02*
X160006265Y-82692419D01*
X160006265Y-82692419D02*
X160244360Y-82692419D01*
X160244360Y-82692419D02*
X160387217Y-82740038D01*
X160387217Y-82740038D02*
X160482455Y-82835276D01*
X160482455Y-82835276D02*
X160530074Y-82930514D01*
X160530074Y-82930514D02*
X160577693Y-83120990D01*
X160577693Y-83120990D02*
X160577693Y-83263847D01*
X160577693Y-83263847D02*
X160530074Y-83454323D01*
X160530074Y-83454323D02*
X160482455Y-83549561D01*
X160482455Y-83549561D02*
X160387217Y-83644800D01*
X160387217Y-83644800D02*
X160244360Y-83692419D01*
X160244360Y-83692419D02*
X160006265Y-83692419D01*
X160958646Y-83406704D02*
X161434836Y-83406704D01*
X160863408Y-83692419D02*
X161196741Y-82692419D01*
X161196741Y-82692419D02*
X161530074Y-83692419D01*
X161815789Y-82787657D02*
X161863408Y-82740038D01*
X161863408Y-82740038D02*
X161958646Y-82692419D01*
X161958646Y-82692419D02*
X162196741Y-82692419D01*
X162196741Y-82692419D02*
X162291979Y-82740038D01*
X162291979Y-82740038D02*
X162339598Y-82787657D01*
X162339598Y-82787657D02*
X162387217Y-82882895D01*
X162387217Y-82882895D02*
X162387217Y-82978133D01*
X162387217Y-82978133D02*
X162339598Y-83120990D01*
X162339598Y-83120990D02*
X161768170Y-83692419D01*
X161768170Y-83692419D02*
X162387217Y-83692419D01*
X158911027Y-92852419D02*
X159482455Y-92852419D01*
X159196741Y-93852419D02*
X159196741Y-92852419D01*
X159720551Y-92852419D02*
X160387217Y-93852419D01*
X160387217Y-92852419D02*
X159720551Y-93852419D01*
X160672932Y-92852419D02*
X161339598Y-92852419D01*
X161339598Y-92852419D02*
X160911027Y-93852419D01*
X159053884Y-73532419D02*
X159053884Y-72532419D01*
X159053884Y-72532419D02*
X159387217Y-73246704D01*
X159387217Y-73246704D02*
X159720550Y-72532419D01*
X159720550Y-72532419D02*
X159720550Y-73532419D01*
X160387217Y-72532419D02*
X160577693Y-72532419D01*
X160577693Y-72532419D02*
X160672931Y-72580038D01*
X160672931Y-72580038D02*
X160768169Y-72675276D01*
X160768169Y-72675276D02*
X160815788Y-72865752D01*
X160815788Y-72865752D02*
X160815788Y-73199085D01*
X160815788Y-73199085D02*
X160768169Y-73389561D01*
X160768169Y-73389561D02*
X160672931Y-73484800D01*
X160672931Y-73484800D02*
X160577693Y-73532419D01*
X160577693Y-73532419D02*
X160387217Y-73532419D01*
X160387217Y-73532419D02*
X160291979Y-73484800D01*
X160291979Y-73484800D02*
X160196741Y-73389561D01*
X160196741Y-73389561D02*
X160149122Y-73199085D01*
X160149122Y-73199085D02*
X160149122Y-72865752D01*
X160149122Y-72865752D02*
X160196741Y-72675276D01*
X160196741Y-72675276D02*
X160291979Y-72580038D01*
X160291979Y-72580038D02*
X160387217Y-72532419D01*
X161196741Y-73484800D02*
X161339598Y-73532419D01*
X161339598Y-73532419D02*
X161577693Y-73532419D01*
X161577693Y-73532419D02*
X161672931Y-73484800D01*
X161672931Y-73484800D02*
X161720550Y-73437180D01*
X161720550Y-73437180D02*
X161768169Y-73341942D01*
X161768169Y-73341942D02*
X161768169Y-73246704D01*
X161768169Y-73246704D02*
X161720550Y-73151466D01*
X161720550Y-73151466D02*
X161672931Y-73103847D01*
X161672931Y-73103847D02*
X161577693Y-73056228D01*
X161577693Y-73056228D02*
X161387217Y-73008609D01*
X161387217Y-73008609D02*
X161291979Y-72960990D01*
X161291979Y-72960990D02*
X161244360Y-72913371D01*
X161244360Y-72913371D02*
X161196741Y-72818133D01*
X161196741Y-72818133D02*
X161196741Y-72722895D01*
X161196741Y-72722895D02*
X161244360Y-72627657D01*
X161244360Y-72627657D02*
X161291979Y-72580038D01*
X161291979Y-72580038D02*
X161387217Y-72532419D01*
X161387217Y-72532419D02*
X161625312Y-72532419D01*
X161625312Y-72532419D02*
X161768169Y-72580038D01*
X162196741Y-73532419D02*
X162196741Y-72532419D01*
X159577693Y-95440038D02*
X159482455Y-95392419D01*
X159482455Y-95392419D02*
X159339598Y-95392419D01*
X159339598Y-95392419D02*
X159196741Y-95440038D01*
X159196741Y-95440038D02*
X159101503Y-95535276D01*
X159101503Y-95535276D02*
X159053884Y-95630514D01*
X159053884Y-95630514D02*
X159006265Y-95820990D01*
X159006265Y-95820990D02*
X159006265Y-95963847D01*
X159006265Y-95963847D02*
X159053884Y-96154323D01*
X159053884Y-96154323D02*
X159101503Y-96249561D01*
X159101503Y-96249561D02*
X159196741Y-96344800D01*
X159196741Y-96344800D02*
X159339598Y-96392419D01*
X159339598Y-96392419D02*
X159434836Y-96392419D01*
X159434836Y-96392419D02*
X159577693Y-96344800D01*
X159577693Y-96344800D02*
X159625312Y-96297180D01*
X159625312Y-96297180D02*
X159625312Y-95963847D01*
X159625312Y-95963847D02*
X159434836Y-95963847D01*
X160053884Y-96392419D02*
X160053884Y-95392419D01*
X160053884Y-95392419D02*
X160434836Y-95392419D01*
X160434836Y-95392419D02*
X160530074Y-95440038D01*
X160530074Y-95440038D02*
X160577693Y-95487657D01*
X160577693Y-95487657D02*
X160625312Y-95582895D01*
X160625312Y-95582895D02*
X160625312Y-95725752D01*
X160625312Y-95725752D02*
X160577693Y-95820990D01*
X160577693Y-95820990D02*
X160530074Y-95868609D01*
X160530074Y-95868609D02*
X160434836Y-95916228D01*
X160434836Y-95916228D02*
X160053884Y-95916228D01*
X161053884Y-96392419D02*
X161053884Y-95392419D01*
X161720550Y-95392419D02*
X161911026Y-95392419D01*
X161911026Y-95392419D02*
X162006264Y-95440038D01*
X162006264Y-95440038D02*
X162101502Y-95535276D01*
X162101502Y-95535276D02*
X162149121Y-95725752D01*
X162149121Y-95725752D02*
X162149121Y-96059085D01*
X162149121Y-96059085D02*
X162101502Y-96249561D01*
X162101502Y-96249561D02*
X162006264Y-96344800D01*
X162006264Y-96344800D02*
X161911026Y-96392419D01*
X161911026Y-96392419D02*
X161720550Y-96392419D01*
X161720550Y-96392419D02*
X161625312Y-96344800D01*
X161625312Y-96344800D02*
X161530074Y-96249561D01*
X161530074Y-96249561D02*
X161482455Y-96059085D01*
X161482455Y-96059085D02*
X161482455Y-95725752D01*
X161482455Y-95725752D02*
X161530074Y-95535276D01*
X161530074Y-95535276D02*
X161625312Y-95440038D01*
X161625312Y-95440038D02*
X161720550Y-95392419D01*
X167801027Y-57292419D02*
X168372455Y-57292419D01*
X168086741Y-58292419D02*
X168086741Y-57292419D01*
X168610551Y-57292419D02*
X169277217Y-58292419D01*
X169277217Y-57292419D02*
X168610551Y-58292419D01*
X170134360Y-57292419D02*
X169658170Y-57292419D01*
X169658170Y-57292419D02*
X169610551Y-57768609D01*
X169610551Y-57768609D02*
X169658170Y-57720990D01*
X169658170Y-57720990D02*
X169753408Y-57673371D01*
X169753408Y-57673371D02*
X169991503Y-57673371D01*
X169991503Y-57673371D02*
X170086741Y-57720990D01*
X170086741Y-57720990D02*
X170134360Y-57768609D01*
X170134360Y-57768609D02*
X170181979Y-57863847D01*
X170181979Y-57863847D02*
X170181979Y-58101942D01*
X170181979Y-58101942D02*
X170134360Y-58197180D01*
X170134360Y-58197180D02*
X170086741Y-58244800D01*
X170086741Y-58244800D02*
X169991503Y-58292419D01*
X169991503Y-58292419D02*
X169753408Y-58292419D01*
X169753408Y-58292419D02*
X169658170Y-58244800D01*
X169658170Y-58244800D02*
X169610551Y-58197180D01*
X159577693Y-100520038D02*
X159482455Y-100472419D01*
X159482455Y-100472419D02*
X159339598Y-100472419D01*
X159339598Y-100472419D02*
X159196741Y-100520038D01*
X159196741Y-100520038D02*
X159101503Y-100615276D01*
X159101503Y-100615276D02*
X159053884Y-100710514D01*
X159053884Y-100710514D02*
X159006265Y-100900990D01*
X159006265Y-100900990D02*
X159006265Y-101043847D01*
X159006265Y-101043847D02*
X159053884Y-101234323D01*
X159053884Y-101234323D02*
X159101503Y-101329561D01*
X159101503Y-101329561D02*
X159196741Y-101424800D01*
X159196741Y-101424800D02*
X159339598Y-101472419D01*
X159339598Y-101472419D02*
X159434836Y-101472419D01*
X159434836Y-101472419D02*
X159577693Y-101424800D01*
X159577693Y-101424800D02*
X159625312Y-101377180D01*
X159625312Y-101377180D02*
X159625312Y-101043847D01*
X159625312Y-101043847D02*
X159434836Y-101043847D01*
X160053884Y-101472419D02*
X160053884Y-100472419D01*
X160053884Y-100472419D02*
X160434836Y-100472419D01*
X160434836Y-100472419D02*
X160530074Y-100520038D01*
X160530074Y-100520038D02*
X160577693Y-100567657D01*
X160577693Y-100567657D02*
X160625312Y-100662895D01*
X160625312Y-100662895D02*
X160625312Y-100805752D01*
X160625312Y-100805752D02*
X160577693Y-100900990D01*
X160577693Y-100900990D02*
X160530074Y-100948609D01*
X160530074Y-100948609D02*
X160434836Y-100996228D01*
X160434836Y-100996228D02*
X160053884Y-100996228D01*
X161053884Y-101472419D02*
X161053884Y-100472419D01*
X161720550Y-100472419D02*
X161911026Y-100472419D01*
X161911026Y-100472419D02*
X162006264Y-100520038D01*
X162006264Y-100520038D02*
X162101502Y-100615276D01*
X162101502Y-100615276D02*
X162149121Y-100805752D01*
X162149121Y-100805752D02*
X162149121Y-101139085D01*
X162149121Y-101139085D02*
X162101502Y-101329561D01*
X162101502Y-101329561D02*
X162006264Y-101424800D01*
X162006264Y-101424800D02*
X161911026Y-101472419D01*
X161911026Y-101472419D02*
X161720550Y-101472419D01*
X161720550Y-101472419D02*
X161625312Y-101424800D01*
X161625312Y-101424800D02*
X161530074Y-101329561D01*
X161530074Y-101329561D02*
X161482455Y-101139085D01*
X161482455Y-101139085D02*
X161482455Y-100805752D01*
X161482455Y-100805752D02*
X161530074Y-100615276D01*
X161530074Y-100615276D02*
X161625312Y-100520038D01*
X161625312Y-100520038D02*
X161720550Y-100472419D01*
X159006265Y-81104800D02*
X159149122Y-81152419D01*
X159149122Y-81152419D02*
X159387217Y-81152419D01*
X159387217Y-81152419D02*
X159482455Y-81104800D01*
X159482455Y-81104800D02*
X159530074Y-81057180D01*
X159530074Y-81057180D02*
X159577693Y-80961942D01*
X159577693Y-80961942D02*
X159577693Y-80866704D01*
X159577693Y-80866704D02*
X159530074Y-80771466D01*
X159530074Y-80771466D02*
X159482455Y-80723847D01*
X159482455Y-80723847D02*
X159387217Y-80676228D01*
X159387217Y-80676228D02*
X159196741Y-80628609D01*
X159196741Y-80628609D02*
X159101503Y-80580990D01*
X159101503Y-80580990D02*
X159053884Y-80533371D01*
X159053884Y-80533371D02*
X159006265Y-80438133D01*
X159006265Y-80438133D02*
X159006265Y-80342895D01*
X159006265Y-80342895D02*
X159053884Y-80247657D01*
X159053884Y-80247657D02*
X159101503Y-80200038D01*
X159101503Y-80200038D02*
X159196741Y-80152419D01*
X159196741Y-80152419D02*
X159434836Y-80152419D01*
X159434836Y-80152419D02*
X159577693Y-80200038D01*
X160577693Y-81057180D02*
X160530074Y-81104800D01*
X160530074Y-81104800D02*
X160387217Y-81152419D01*
X160387217Y-81152419D02*
X160291979Y-81152419D01*
X160291979Y-81152419D02*
X160149122Y-81104800D01*
X160149122Y-81104800D02*
X160053884Y-81009561D01*
X160053884Y-81009561D02*
X160006265Y-80914323D01*
X160006265Y-80914323D02*
X159958646Y-80723847D01*
X159958646Y-80723847D02*
X159958646Y-80580990D01*
X159958646Y-80580990D02*
X160006265Y-80390514D01*
X160006265Y-80390514D02*
X160053884Y-80295276D01*
X160053884Y-80295276D02*
X160149122Y-80200038D01*
X160149122Y-80200038D02*
X160291979Y-80152419D01*
X160291979Y-80152419D02*
X160387217Y-80152419D01*
X160387217Y-80152419D02*
X160530074Y-80200038D01*
X160530074Y-80200038D02*
X160577693Y-80247657D01*
X161482455Y-81152419D02*
X161006265Y-81152419D01*
X161006265Y-81152419D02*
X161006265Y-80152419D01*
X161768170Y-80247657D02*
X161815789Y-80200038D01*
X161815789Y-80200038D02*
X161911027Y-80152419D01*
X161911027Y-80152419D02*
X162149122Y-80152419D01*
X162149122Y-80152419D02*
X162244360Y-80200038D01*
X162244360Y-80200038D02*
X162291979Y-80247657D01*
X162291979Y-80247657D02*
X162339598Y-80342895D01*
X162339598Y-80342895D02*
X162339598Y-80438133D01*
X162339598Y-80438133D02*
X162291979Y-80580990D01*
X162291979Y-80580990D02*
X161720551Y-81152419D01*
X161720551Y-81152419D02*
X162339598Y-81152419D01*
X159053884Y-60832419D02*
X159053884Y-59832419D01*
X159053884Y-59832419D02*
X159434836Y-59832419D01*
X159434836Y-59832419D02*
X159530074Y-59880038D01*
X159530074Y-59880038D02*
X159577693Y-59927657D01*
X159577693Y-59927657D02*
X159625312Y-60022895D01*
X159625312Y-60022895D02*
X159625312Y-60165752D01*
X159625312Y-60165752D02*
X159577693Y-60260990D01*
X159577693Y-60260990D02*
X159530074Y-60308609D01*
X159530074Y-60308609D02*
X159434836Y-60356228D01*
X159434836Y-60356228D02*
X159053884Y-60356228D01*
X159958646Y-59832419D02*
X160196741Y-60832419D01*
X160196741Y-60832419D02*
X160387217Y-60118133D01*
X160387217Y-60118133D02*
X160577693Y-60832419D01*
X160577693Y-60832419D02*
X160815789Y-59832419D01*
X161196741Y-60832419D02*
X161196741Y-59832419D01*
X161196741Y-59832419D02*
X161530074Y-60546704D01*
X161530074Y-60546704D02*
X161863407Y-59832419D01*
X161863407Y-59832419D02*
X161863407Y-60832419D01*
X167943884Y-50672419D02*
X167943884Y-49672419D01*
X167943884Y-49672419D02*
X168324836Y-49672419D01*
X168324836Y-49672419D02*
X168420074Y-49720038D01*
X168420074Y-49720038D02*
X168467693Y-49767657D01*
X168467693Y-49767657D02*
X168515312Y-49862895D01*
X168515312Y-49862895D02*
X168515312Y-50005752D01*
X168515312Y-50005752D02*
X168467693Y-50100990D01*
X168467693Y-50100990D02*
X168420074Y-50148609D01*
X168420074Y-50148609D02*
X168324836Y-50196228D01*
X168324836Y-50196228D02*
X167943884Y-50196228D01*
X168848646Y-49672419D02*
X169086741Y-50672419D01*
X169086741Y-50672419D02*
X169277217Y-49958133D01*
X169277217Y-49958133D02*
X169467693Y-50672419D01*
X169467693Y-50672419D02*
X169705789Y-49672419D01*
X170086741Y-50672419D02*
X170086741Y-49672419D01*
X170086741Y-49672419D02*
X170420074Y-50386704D01*
X170420074Y-50386704D02*
X170753407Y-49672419D01*
X170753407Y-49672419D02*
X170753407Y-50672419D01*
X159053884Y-55752419D02*
X159053884Y-54752419D01*
X159053884Y-54752419D02*
X159434836Y-54752419D01*
X159434836Y-54752419D02*
X159530074Y-54800038D01*
X159530074Y-54800038D02*
X159577693Y-54847657D01*
X159577693Y-54847657D02*
X159625312Y-54942895D01*
X159625312Y-54942895D02*
X159625312Y-55085752D01*
X159625312Y-55085752D02*
X159577693Y-55180990D01*
X159577693Y-55180990D02*
X159530074Y-55228609D01*
X159530074Y-55228609D02*
X159434836Y-55276228D01*
X159434836Y-55276228D02*
X159053884Y-55276228D01*
X159958646Y-54752419D02*
X160196741Y-55752419D01*
X160196741Y-55752419D02*
X160387217Y-55038133D01*
X160387217Y-55038133D02*
X160577693Y-55752419D01*
X160577693Y-55752419D02*
X160815789Y-54752419D01*
X161196741Y-55752419D02*
X161196741Y-54752419D01*
X161196741Y-54752419D02*
X161530074Y-55466704D01*
X161530074Y-55466704D02*
X161863407Y-54752419D01*
X161863407Y-54752419D02*
X161863407Y-55752419D01*
X168515312Y-98932419D02*
X168181979Y-98456228D01*
X167943884Y-98932419D02*
X167943884Y-97932419D01*
X167943884Y-97932419D02*
X168324836Y-97932419D01*
X168324836Y-97932419D02*
X168420074Y-97980038D01*
X168420074Y-97980038D02*
X168467693Y-98027657D01*
X168467693Y-98027657D02*
X168515312Y-98122895D01*
X168515312Y-98122895D02*
X168515312Y-98265752D01*
X168515312Y-98265752D02*
X168467693Y-98360990D01*
X168467693Y-98360990D02*
X168420074Y-98408609D01*
X168420074Y-98408609D02*
X168324836Y-98456228D01*
X168324836Y-98456228D02*
X167943884Y-98456228D01*
X168848646Y-97932419D02*
X169515312Y-98932419D01*
X169515312Y-97932419D02*
X168848646Y-98932419D01*
X170039122Y-98360990D02*
X169943884Y-98313371D01*
X169943884Y-98313371D02*
X169896265Y-98265752D01*
X169896265Y-98265752D02*
X169848646Y-98170514D01*
X169848646Y-98170514D02*
X169848646Y-98122895D01*
X169848646Y-98122895D02*
X169896265Y-98027657D01*
X169896265Y-98027657D02*
X169943884Y-97980038D01*
X169943884Y-97980038D02*
X170039122Y-97932419D01*
X170039122Y-97932419D02*
X170229598Y-97932419D01*
X170229598Y-97932419D02*
X170324836Y-97980038D01*
X170324836Y-97980038D02*
X170372455Y-98027657D01*
X170372455Y-98027657D02*
X170420074Y-98122895D01*
X170420074Y-98122895D02*
X170420074Y-98170514D01*
X170420074Y-98170514D02*
X170372455Y-98265752D01*
X170372455Y-98265752D02*
X170324836Y-98313371D01*
X170324836Y-98313371D02*
X170229598Y-98360990D01*
X170229598Y-98360990D02*
X170039122Y-98360990D01*
X170039122Y-98360990D02*
X169943884Y-98408609D01*
X169943884Y-98408609D02*
X169896265Y-98456228D01*
X169896265Y-98456228D02*
X169848646Y-98551466D01*
X169848646Y-98551466D02*
X169848646Y-98741942D01*
X169848646Y-98741942D02*
X169896265Y-98837180D01*
X169896265Y-98837180D02*
X169943884Y-98884800D01*
X169943884Y-98884800D02*
X170039122Y-98932419D01*
X170039122Y-98932419D02*
X170229598Y-98932419D01*
X170229598Y-98932419D02*
X170324836Y-98884800D01*
X170324836Y-98884800D02*
X170372455Y-98837180D01*
X170372455Y-98837180D02*
X170420074Y-98741942D01*
X170420074Y-98741942D02*
X170420074Y-98551466D01*
X170420074Y-98551466D02*
X170372455Y-98456228D01*
X170372455Y-98456228D02*
X170324836Y-98408609D01*
X170324836Y-98408609D02*
X170229598Y-98360990D01*
X163957580Y-93013884D02*
X164957580Y-93013884D01*
X164957580Y-93013884D02*
X164243295Y-93347217D01*
X164243295Y-93347217D02*
X164957580Y-93680550D01*
X164957580Y-93680550D02*
X163957580Y-93680550D01*
X163957580Y-94156741D02*
X164957580Y-94156741D01*
X164052819Y-95204359D02*
X164005200Y-95156740D01*
X164005200Y-95156740D02*
X163957580Y-95013883D01*
X163957580Y-95013883D02*
X163957580Y-94918645D01*
X163957580Y-94918645D02*
X164005200Y-94775788D01*
X164005200Y-94775788D02*
X164100438Y-94680550D01*
X164100438Y-94680550D02*
X164195676Y-94632931D01*
X164195676Y-94632931D02*
X164386152Y-94585312D01*
X164386152Y-94585312D02*
X164529009Y-94585312D01*
X164529009Y-94585312D02*
X164719485Y-94632931D01*
X164719485Y-94632931D02*
X164814723Y-94680550D01*
X164814723Y-94680550D02*
X164909961Y-94775788D01*
X164909961Y-94775788D02*
X164957580Y-94918645D01*
X164957580Y-94918645D02*
X164957580Y-95013883D01*
X164957580Y-95013883D02*
X164909961Y-95156740D01*
X164909961Y-95156740D02*
X164862342Y-95204359D01*
X163957580Y-96204359D02*
X164433771Y-95871026D01*
X163957580Y-95632931D02*
X164957580Y-95632931D01*
X164957580Y-95632931D02*
X164957580Y-96013883D01*
X164957580Y-96013883D02*
X164909961Y-96109121D01*
X164909961Y-96109121D02*
X164862342Y-96156740D01*
X164862342Y-96156740D02*
X164767104Y-96204359D01*
X164767104Y-96204359D02*
X164624247Y-96204359D01*
X164624247Y-96204359D02*
X164529009Y-96156740D01*
X164529009Y-96156740D02*
X164481390Y-96109121D01*
X164481390Y-96109121D02*
X164433771Y-96013883D01*
X164433771Y-96013883D02*
X164433771Y-95632931D01*
X164957580Y-96823407D02*
X164957580Y-97013883D01*
X164957580Y-97013883D02*
X164909961Y-97109121D01*
X164909961Y-97109121D02*
X164814723Y-97204359D01*
X164814723Y-97204359D02*
X164624247Y-97251978D01*
X164624247Y-97251978D02*
X164290914Y-97251978D01*
X164290914Y-97251978D02*
X164100438Y-97204359D01*
X164100438Y-97204359D02*
X164005200Y-97109121D01*
X164005200Y-97109121D02*
X163957580Y-97013883D01*
X163957580Y-97013883D02*
X163957580Y-96823407D01*
X163957580Y-96823407D02*
X164005200Y-96728169D01*
X164005200Y-96728169D02*
X164100438Y-96632931D01*
X164100438Y-96632931D02*
X164290914Y-96585312D01*
X164290914Y-96585312D02*
X164624247Y-96585312D01*
X164624247Y-96585312D02*
X164814723Y-96632931D01*
X164814723Y-96632931D02*
X164909961Y-96728169D01*
X164909961Y-96728169D02*
X164957580Y-96823407D01*
X164005200Y-98394836D02*
X163957580Y-98537693D01*
X163957580Y-98537693D02*
X163957580Y-98775788D01*
X163957580Y-98775788D02*
X164005200Y-98871026D01*
X164005200Y-98871026D02*
X164052819Y-98918645D01*
X164052819Y-98918645D02*
X164148057Y-98966264D01*
X164148057Y-98966264D02*
X164243295Y-98966264D01*
X164243295Y-98966264D02*
X164338533Y-98918645D01*
X164338533Y-98918645D02*
X164386152Y-98871026D01*
X164386152Y-98871026D02*
X164433771Y-98775788D01*
X164433771Y-98775788D02*
X164481390Y-98585312D01*
X164481390Y-98585312D02*
X164529009Y-98490074D01*
X164529009Y-98490074D02*
X164576628Y-98442455D01*
X164576628Y-98442455D02*
X164671866Y-98394836D01*
X164671866Y-98394836D02*
X164767104Y-98394836D01*
X164767104Y-98394836D02*
X164862342Y-98442455D01*
X164862342Y-98442455D02*
X164909961Y-98490074D01*
X164909961Y-98490074D02*
X164957580Y-98585312D01*
X164957580Y-98585312D02*
X164957580Y-98823407D01*
X164957580Y-98823407D02*
X164909961Y-98966264D01*
X163957580Y-99394836D02*
X164957580Y-99394836D01*
X164957580Y-99394836D02*
X164957580Y-99632931D01*
X164957580Y-99632931D02*
X164909961Y-99775788D01*
X164909961Y-99775788D02*
X164814723Y-99871026D01*
X164814723Y-99871026D02*
X164719485Y-99918645D01*
X164719485Y-99918645D02*
X164529009Y-99966264D01*
X164529009Y-99966264D02*
X164386152Y-99966264D01*
X164386152Y-99966264D02*
X164195676Y-99918645D01*
X164195676Y-99918645D02*
X164100438Y-99871026D01*
X164100438Y-99871026D02*
X164005200Y-99775788D01*
X164005200Y-99775788D02*
X163957580Y-99632931D01*
X163957580Y-99632931D02*
X163957580Y-99394836D01*
X167943884Y-53212419D02*
X167943884Y-52212419D01*
X167943884Y-52212419D02*
X168324836Y-52212419D01*
X168324836Y-52212419D02*
X168420074Y-52260038D01*
X168420074Y-52260038D02*
X168467693Y-52307657D01*
X168467693Y-52307657D02*
X168515312Y-52402895D01*
X168515312Y-52402895D02*
X168515312Y-52545752D01*
X168515312Y-52545752D02*
X168467693Y-52640990D01*
X168467693Y-52640990D02*
X168420074Y-52688609D01*
X168420074Y-52688609D02*
X168324836Y-52736228D01*
X168324836Y-52736228D02*
X167943884Y-52736228D01*
X168848646Y-52212419D02*
X169086741Y-53212419D01*
X169086741Y-53212419D02*
X169277217Y-52498133D01*
X169277217Y-52498133D02*
X169467693Y-53212419D01*
X169467693Y-53212419D02*
X169705789Y-52212419D01*
X170086741Y-53212419D02*
X170086741Y-52212419D01*
X170086741Y-52212419D02*
X170420074Y-52926704D01*
X170420074Y-52926704D02*
X170753407Y-52212419D01*
X170753407Y-52212419D02*
X170753407Y-53212419D01*
X164957580Y-42213884D02*
X164148057Y-42213884D01*
X164148057Y-42213884D02*
X164052819Y-42261503D01*
X164052819Y-42261503D02*
X164005200Y-42309122D01*
X164005200Y-42309122D02*
X163957580Y-42404360D01*
X163957580Y-42404360D02*
X163957580Y-42594836D01*
X163957580Y-42594836D02*
X164005200Y-42690074D01*
X164005200Y-42690074D02*
X164052819Y-42737693D01*
X164052819Y-42737693D02*
X164148057Y-42785312D01*
X164148057Y-42785312D02*
X164957580Y-42785312D01*
X164005200Y-43213884D02*
X163957580Y-43356741D01*
X163957580Y-43356741D02*
X163957580Y-43594836D01*
X163957580Y-43594836D02*
X164005200Y-43690074D01*
X164005200Y-43690074D02*
X164052819Y-43737693D01*
X164052819Y-43737693D02*
X164148057Y-43785312D01*
X164148057Y-43785312D02*
X164243295Y-43785312D01*
X164243295Y-43785312D02*
X164338533Y-43737693D01*
X164338533Y-43737693D02*
X164386152Y-43690074D01*
X164386152Y-43690074D02*
X164433771Y-43594836D01*
X164433771Y-43594836D02*
X164481390Y-43404360D01*
X164481390Y-43404360D02*
X164529009Y-43309122D01*
X164529009Y-43309122D02*
X164576628Y-43261503D01*
X164576628Y-43261503D02*
X164671866Y-43213884D01*
X164671866Y-43213884D02*
X164767104Y-43213884D01*
X164767104Y-43213884D02*
X164862342Y-43261503D01*
X164862342Y-43261503D02*
X164909961Y-43309122D01*
X164909961Y-43309122D02*
X164957580Y-43404360D01*
X164957580Y-43404360D02*
X164957580Y-43642455D01*
X164957580Y-43642455D02*
X164909961Y-43785312D01*
X164481390Y-44547217D02*
X164433771Y-44690074D01*
X164433771Y-44690074D02*
X164386152Y-44737693D01*
X164386152Y-44737693D02*
X164290914Y-44785312D01*
X164290914Y-44785312D02*
X164148057Y-44785312D01*
X164148057Y-44785312D02*
X164052819Y-44737693D01*
X164052819Y-44737693D02*
X164005200Y-44690074D01*
X164005200Y-44690074D02*
X163957580Y-44594836D01*
X163957580Y-44594836D02*
X163957580Y-44213884D01*
X163957580Y-44213884D02*
X164957580Y-44213884D01*
X164957580Y-44213884D02*
X164957580Y-44547217D01*
X164957580Y-44547217D02*
X164909961Y-44642455D01*
X164909961Y-44642455D02*
X164862342Y-44690074D01*
X164862342Y-44690074D02*
X164767104Y-44737693D01*
X164767104Y-44737693D02*
X164671866Y-44737693D01*
X164671866Y-44737693D02*
X164576628Y-44690074D01*
X164576628Y-44690074D02*
X164529009Y-44642455D01*
X164529009Y-44642455D02*
X164481390Y-44547217D01*
X164481390Y-44547217D02*
X164481390Y-44213884D01*
X164052819Y-46547217D02*
X164005200Y-46499598D01*
X164005200Y-46499598D02*
X163957580Y-46356741D01*
X163957580Y-46356741D02*
X163957580Y-46261503D01*
X163957580Y-46261503D02*
X164005200Y-46118646D01*
X164005200Y-46118646D02*
X164100438Y-46023408D01*
X164100438Y-46023408D02*
X164195676Y-45975789D01*
X164195676Y-45975789D02*
X164386152Y-45928170D01*
X164386152Y-45928170D02*
X164529009Y-45928170D01*
X164529009Y-45928170D02*
X164719485Y-45975789D01*
X164719485Y-45975789D02*
X164814723Y-46023408D01*
X164814723Y-46023408D02*
X164909961Y-46118646D01*
X164909961Y-46118646D02*
X164957580Y-46261503D01*
X164957580Y-46261503D02*
X164957580Y-46356741D01*
X164957580Y-46356741D02*
X164909961Y-46499598D01*
X164909961Y-46499598D02*
X164862342Y-46547217D01*
X159625312Y-91312419D02*
X159291979Y-90836228D01*
X159053884Y-91312419D02*
X159053884Y-90312419D01*
X159053884Y-90312419D02*
X159434836Y-90312419D01*
X159434836Y-90312419D02*
X159530074Y-90360038D01*
X159530074Y-90360038D02*
X159577693Y-90407657D01*
X159577693Y-90407657D02*
X159625312Y-90502895D01*
X159625312Y-90502895D02*
X159625312Y-90645752D01*
X159625312Y-90645752D02*
X159577693Y-90740990D01*
X159577693Y-90740990D02*
X159530074Y-90788609D01*
X159530074Y-90788609D02*
X159434836Y-90836228D01*
X159434836Y-90836228D02*
X159053884Y-90836228D01*
X159958646Y-90312419D02*
X160625312Y-91312419D01*
X160625312Y-90312419D02*
X159958646Y-91312419D01*
X160911027Y-90312419D02*
X161577693Y-90312419D01*
X161577693Y-90312419D02*
X161149122Y-91312419D01*
X167896265Y-73246704D02*
X168372455Y-73246704D01*
X167801027Y-73532419D02*
X168134360Y-72532419D01*
X168134360Y-72532419D02*
X168467693Y-73532419D01*
X168991503Y-72532419D02*
X169086741Y-72532419D01*
X169086741Y-72532419D02*
X169181979Y-72580038D01*
X169181979Y-72580038D02*
X169229598Y-72627657D01*
X169229598Y-72627657D02*
X169277217Y-72722895D01*
X169277217Y-72722895D02*
X169324836Y-72913371D01*
X169324836Y-72913371D02*
X169324836Y-73151466D01*
X169324836Y-73151466D02*
X169277217Y-73341942D01*
X169277217Y-73341942D02*
X169229598Y-73437180D01*
X169229598Y-73437180D02*
X169181979Y-73484800D01*
X169181979Y-73484800D02*
X169086741Y-73532419D01*
X169086741Y-73532419D02*
X168991503Y-73532419D01*
X168991503Y-73532419D02*
X168896265Y-73484800D01*
X168896265Y-73484800D02*
X168848646Y-73437180D01*
X168848646Y-73437180D02*
X168801027Y-73341942D01*
X168801027Y-73341942D02*
X168753408Y-73151466D01*
X168753408Y-73151466D02*
X168753408Y-72913371D01*
X168753408Y-72913371D02*
X168801027Y-72722895D01*
X168801027Y-72722895D02*
X168848646Y-72627657D01*
X168848646Y-72627657D02*
X168896265Y-72580038D01*
X168896265Y-72580038D02*
X168991503Y-72532419D01*
X159053884Y-58292419D02*
X159053884Y-57292419D01*
X159053884Y-57292419D02*
X159434836Y-57292419D01*
X159434836Y-57292419D02*
X159530074Y-57340038D01*
X159530074Y-57340038D02*
X159577693Y-57387657D01*
X159577693Y-57387657D02*
X159625312Y-57482895D01*
X159625312Y-57482895D02*
X159625312Y-57625752D01*
X159625312Y-57625752D02*
X159577693Y-57720990D01*
X159577693Y-57720990D02*
X159530074Y-57768609D01*
X159530074Y-57768609D02*
X159434836Y-57816228D01*
X159434836Y-57816228D02*
X159053884Y-57816228D01*
X159958646Y-57292419D02*
X160196741Y-58292419D01*
X160196741Y-58292419D02*
X160387217Y-57578133D01*
X160387217Y-57578133D02*
X160577693Y-58292419D01*
X160577693Y-58292419D02*
X160815789Y-57292419D01*
X161196741Y-58292419D02*
X161196741Y-57292419D01*
X161196741Y-57292419D02*
X161530074Y-58006704D01*
X161530074Y-58006704D02*
X161863407Y-57292419D01*
X161863407Y-57292419D02*
X161863407Y-58292419D01*
X168467693Y-44640038D02*
X168372455Y-44592419D01*
X168372455Y-44592419D02*
X168229598Y-44592419D01*
X168229598Y-44592419D02*
X168086741Y-44640038D01*
X168086741Y-44640038D02*
X167991503Y-44735276D01*
X167991503Y-44735276D02*
X167943884Y-44830514D01*
X167943884Y-44830514D02*
X167896265Y-45020990D01*
X167896265Y-45020990D02*
X167896265Y-45163847D01*
X167896265Y-45163847D02*
X167943884Y-45354323D01*
X167943884Y-45354323D02*
X167991503Y-45449561D01*
X167991503Y-45449561D02*
X168086741Y-45544800D01*
X168086741Y-45544800D02*
X168229598Y-45592419D01*
X168229598Y-45592419D02*
X168324836Y-45592419D01*
X168324836Y-45592419D02*
X168467693Y-45544800D01*
X168467693Y-45544800D02*
X168515312Y-45497180D01*
X168515312Y-45497180D02*
X168515312Y-45163847D01*
X168515312Y-45163847D02*
X168324836Y-45163847D01*
X168943884Y-45592419D02*
X168943884Y-44592419D01*
X168943884Y-44592419D02*
X169515312Y-45592419D01*
X169515312Y-45592419D02*
X169515312Y-44592419D01*
X169991503Y-45592419D02*
X169991503Y-44592419D01*
X169991503Y-44592419D02*
X170229598Y-44592419D01*
X170229598Y-44592419D02*
X170372455Y-44640038D01*
X170372455Y-44640038D02*
X170467693Y-44735276D01*
X170467693Y-44735276D02*
X170515312Y-44830514D01*
X170515312Y-44830514D02*
X170562931Y-45020990D01*
X170562931Y-45020990D02*
X170562931Y-45163847D01*
X170562931Y-45163847D02*
X170515312Y-45354323D01*
X170515312Y-45354323D02*
X170467693Y-45449561D01*
X170467693Y-45449561D02*
X170372455Y-45544800D01*
X170372455Y-45544800D02*
X170229598Y-45592419D01*
X170229598Y-45592419D02*
X169991503Y-45592419D01*
X168467693Y-77660038D02*
X168372455Y-77612419D01*
X168372455Y-77612419D02*
X168229598Y-77612419D01*
X168229598Y-77612419D02*
X168086741Y-77660038D01*
X168086741Y-77660038D02*
X167991503Y-77755276D01*
X167991503Y-77755276D02*
X167943884Y-77850514D01*
X167943884Y-77850514D02*
X167896265Y-78040990D01*
X167896265Y-78040990D02*
X167896265Y-78183847D01*
X167896265Y-78183847D02*
X167943884Y-78374323D01*
X167943884Y-78374323D02*
X167991503Y-78469561D01*
X167991503Y-78469561D02*
X168086741Y-78564800D01*
X168086741Y-78564800D02*
X168229598Y-78612419D01*
X168229598Y-78612419D02*
X168324836Y-78612419D01*
X168324836Y-78612419D02*
X168467693Y-78564800D01*
X168467693Y-78564800D02*
X168515312Y-78517180D01*
X168515312Y-78517180D02*
X168515312Y-78183847D01*
X168515312Y-78183847D02*
X168324836Y-78183847D01*
X168943884Y-78612419D02*
X168943884Y-77612419D01*
X168943884Y-77612419D02*
X169515312Y-78612419D01*
X169515312Y-78612419D02*
X169515312Y-77612419D01*
X169991503Y-78612419D02*
X169991503Y-77612419D01*
X169991503Y-77612419D02*
X170229598Y-77612419D01*
X170229598Y-77612419D02*
X170372455Y-77660038D01*
X170372455Y-77660038D02*
X170467693Y-77755276D01*
X170467693Y-77755276D02*
X170515312Y-77850514D01*
X170515312Y-77850514D02*
X170562931Y-78040990D01*
X170562931Y-78040990D02*
X170562931Y-78183847D01*
X170562931Y-78183847D02*
X170515312Y-78374323D01*
X170515312Y-78374323D02*
X170467693Y-78469561D01*
X170467693Y-78469561D02*
X170372455Y-78564800D01*
X170372455Y-78564800D02*
X170229598Y-78612419D01*
X170229598Y-78612419D02*
X169991503Y-78612419D01*
X167896265Y-60784800D02*
X168039122Y-60832419D01*
X168039122Y-60832419D02*
X168277217Y-60832419D01*
X168277217Y-60832419D02*
X168372455Y-60784800D01*
X168372455Y-60784800D02*
X168420074Y-60737180D01*
X168420074Y-60737180D02*
X168467693Y-60641942D01*
X168467693Y-60641942D02*
X168467693Y-60546704D01*
X168467693Y-60546704D02*
X168420074Y-60451466D01*
X168420074Y-60451466D02*
X168372455Y-60403847D01*
X168372455Y-60403847D02*
X168277217Y-60356228D01*
X168277217Y-60356228D02*
X168086741Y-60308609D01*
X168086741Y-60308609D02*
X167991503Y-60260990D01*
X167991503Y-60260990D02*
X167943884Y-60213371D01*
X167943884Y-60213371D02*
X167896265Y-60118133D01*
X167896265Y-60118133D02*
X167896265Y-60022895D01*
X167896265Y-60022895D02*
X167943884Y-59927657D01*
X167943884Y-59927657D02*
X167991503Y-59880038D01*
X167991503Y-59880038D02*
X168086741Y-59832419D01*
X168086741Y-59832419D02*
X168324836Y-59832419D01*
X168324836Y-59832419D02*
X168467693Y-59880038D01*
X169467693Y-60737180D02*
X169420074Y-60784800D01*
X169420074Y-60784800D02*
X169277217Y-60832419D01*
X169277217Y-60832419D02*
X169181979Y-60832419D01*
X169181979Y-60832419D02*
X169039122Y-60784800D01*
X169039122Y-60784800D02*
X168943884Y-60689561D01*
X168943884Y-60689561D02*
X168896265Y-60594323D01*
X168896265Y-60594323D02*
X168848646Y-60403847D01*
X168848646Y-60403847D02*
X168848646Y-60260990D01*
X168848646Y-60260990D02*
X168896265Y-60070514D01*
X168896265Y-60070514D02*
X168943884Y-59975276D01*
X168943884Y-59975276D02*
X169039122Y-59880038D01*
X169039122Y-59880038D02*
X169181979Y-59832419D01*
X169181979Y-59832419D02*
X169277217Y-59832419D01*
X169277217Y-59832419D02*
X169420074Y-59880038D01*
X169420074Y-59880038D02*
X169467693Y-59927657D01*
X170372455Y-60832419D02*
X169896265Y-60832419D01*
X169896265Y-60832419D02*
X169896265Y-59832419D01*
X167896265Y-65626704D02*
X168372455Y-65626704D01*
X167801027Y-65912419D02*
X168134360Y-64912419D01*
X168134360Y-64912419D02*
X168467693Y-65912419D01*
X168705789Y-64912419D02*
X169324836Y-64912419D01*
X169324836Y-64912419D02*
X168991503Y-65293371D01*
X168991503Y-65293371D02*
X169134360Y-65293371D01*
X169134360Y-65293371D02*
X169229598Y-65340990D01*
X169229598Y-65340990D02*
X169277217Y-65388609D01*
X169277217Y-65388609D02*
X169324836Y-65483847D01*
X169324836Y-65483847D02*
X169324836Y-65721942D01*
X169324836Y-65721942D02*
X169277217Y-65817180D01*
X169277217Y-65817180D02*
X169229598Y-65864800D01*
X169229598Y-65864800D02*
X169134360Y-65912419D01*
X169134360Y-65912419D02*
X168848646Y-65912419D01*
X168848646Y-65912419D02*
X168753408Y-65864800D01*
X168753408Y-65864800D02*
X168705789Y-65817180D01*
X167896265Y-83406704D02*
X168372455Y-83406704D01*
X167801027Y-83692419D02*
X168134360Y-82692419D01*
X168134360Y-82692419D02*
X168467693Y-83692419D01*
X169324836Y-83692419D02*
X168753408Y-83692419D01*
X169039122Y-83692419D02*
X169039122Y-82692419D01*
X169039122Y-82692419D02*
X168943884Y-82835276D01*
X168943884Y-82835276D02*
X168848646Y-82930514D01*
X168848646Y-82930514D02*
X168753408Y-82978133D01*
X170181979Y-82692419D02*
X169991503Y-82692419D01*
X169991503Y-82692419D02*
X169896265Y-82740038D01*
X169896265Y-82740038D02*
X169848646Y-82787657D01*
X169848646Y-82787657D02*
X169753408Y-82930514D01*
X169753408Y-82930514D02*
X169705789Y-83120990D01*
X169705789Y-83120990D02*
X169705789Y-83501942D01*
X169705789Y-83501942D02*
X169753408Y-83597180D01*
X169753408Y-83597180D02*
X169801027Y-83644800D01*
X169801027Y-83644800D02*
X169896265Y-83692419D01*
X169896265Y-83692419D02*
X170086741Y-83692419D01*
X170086741Y-83692419D02*
X170181979Y-83644800D01*
X170181979Y-83644800D02*
X170229598Y-83597180D01*
X170229598Y-83597180D02*
X170277217Y-83501942D01*
X170277217Y-83501942D02*
X170277217Y-83263847D01*
X170277217Y-83263847D02*
X170229598Y-83168609D01*
X170229598Y-83168609D02*
X170181979Y-83120990D01*
X170181979Y-83120990D02*
X170086741Y-83073371D01*
X170086741Y-83073371D02*
X169896265Y-83073371D01*
X169896265Y-83073371D02*
X169801027Y-83120990D01*
X169801027Y-83120990D02*
X169753408Y-83168609D01*
X169753408Y-83168609D02*
X169705789Y-83263847D01*
X167896265Y-76024800D02*
X168039122Y-76072419D01*
X168039122Y-76072419D02*
X168277217Y-76072419D01*
X168277217Y-76072419D02*
X168372455Y-76024800D01*
X168372455Y-76024800D02*
X168420074Y-75977180D01*
X168420074Y-75977180D02*
X168467693Y-75881942D01*
X168467693Y-75881942D02*
X168467693Y-75786704D01*
X168467693Y-75786704D02*
X168420074Y-75691466D01*
X168420074Y-75691466D02*
X168372455Y-75643847D01*
X168372455Y-75643847D02*
X168277217Y-75596228D01*
X168277217Y-75596228D02*
X168086741Y-75548609D01*
X168086741Y-75548609D02*
X167991503Y-75500990D01*
X167991503Y-75500990D02*
X167943884Y-75453371D01*
X167943884Y-75453371D02*
X167896265Y-75358133D01*
X167896265Y-75358133D02*
X167896265Y-75262895D01*
X167896265Y-75262895D02*
X167943884Y-75167657D01*
X167943884Y-75167657D02*
X167991503Y-75120038D01*
X167991503Y-75120038D02*
X168086741Y-75072419D01*
X168086741Y-75072419D02*
X168324836Y-75072419D01*
X168324836Y-75072419D02*
X168467693Y-75120038D01*
X169467693Y-75977180D02*
X169420074Y-76024800D01*
X169420074Y-76024800D02*
X169277217Y-76072419D01*
X169277217Y-76072419D02*
X169181979Y-76072419D01*
X169181979Y-76072419D02*
X169039122Y-76024800D01*
X169039122Y-76024800D02*
X168943884Y-75929561D01*
X168943884Y-75929561D02*
X168896265Y-75834323D01*
X168896265Y-75834323D02*
X168848646Y-75643847D01*
X168848646Y-75643847D02*
X168848646Y-75500990D01*
X168848646Y-75500990D02*
X168896265Y-75310514D01*
X168896265Y-75310514D02*
X168943884Y-75215276D01*
X168943884Y-75215276D02*
X169039122Y-75120038D01*
X169039122Y-75120038D02*
X169181979Y-75072419D01*
X169181979Y-75072419D02*
X169277217Y-75072419D01*
X169277217Y-75072419D02*
X169420074Y-75120038D01*
X169420074Y-75120038D02*
X169467693Y-75167657D01*
X169896265Y-76072419D02*
X169896265Y-75072419D01*
X170467693Y-76072419D02*
X170039122Y-75500990D01*
X170467693Y-75072419D02*
X169896265Y-75643847D01*
X158911027Y-64912419D02*
X159482455Y-64912419D01*
X159196741Y-65912419D02*
X159196741Y-64912419D01*
X159720551Y-64912419D02*
X160387217Y-65912419D01*
X160387217Y-64912419D02*
X159720551Y-65912419D01*
X160720551Y-65007657D02*
X160768170Y-64960038D01*
X160768170Y-64960038D02*
X160863408Y-64912419D01*
X160863408Y-64912419D02*
X161101503Y-64912419D01*
X161101503Y-64912419D02*
X161196741Y-64960038D01*
X161196741Y-64960038D02*
X161244360Y-65007657D01*
X161244360Y-65007657D02*
X161291979Y-65102895D01*
X161291979Y-65102895D02*
X161291979Y-65198133D01*
X161291979Y-65198133D02*
X161244360Y-65340990D01*
X161244360Y-65340990D02*
X160672932Y-65912419D01*
X160672932Y-65912419D02*
X161291979Y-65912419D01*
X167801027Y-42052419D02*
X168134360Y-43052419D01*
X168134360Y-43052419D02*
X168467693Y-42052419D01*
X168801027Y-43052419D02*
X168801027Y-42385752D01*
X168801027Y-42052419D02*
X168753408Y-42100038D01*
X168753408Y-42100038D02*
X168801027Y-42147657D01*
X168801027Y-42147657D02*
X168848646Y-42100038D01*
X168848646Y-42100038D02*
X168801027Y-42052419D01*
X168801027Y-42052419D02*
X168801027Y-42147657D01*
X169277217Y-42385752D02*
X169277217Y-43052419D01*
X169277217Y-42480990D02*
X169324836Y-42433371D01*
X169324836Y-42433371D02*
X169420074Y-42385752D01*
X169420074Y-42385752D02*
X169562931Y-42385752D01*
X169562931Y-42385752D02*
X169658169Y-42433371D01*
X169658169Y-42433371D02*
X169705788Y-42528609D01*
X169705788Y-42528609D02*
X169705788Y-43052419D01*
X168515312Y-88677180D02*
X168467693Y-88724800D01*
X168467693Y-88724800D02*
X168324836Y-88772419D01*
X168324836Y-88772419D02*
X168229598Y-88772419D01*
X168229598Y-88772419D02*
X168086741Y-88724800D01*
X168086741Y-88724800D02*
X167991503Y-88629561D01*
X167991503Y-88629561D02*
X167943884Y-88534323D01*
X167943884Y-88534323D02*
X167896265Y-88343847D01*
X167896265Y-88343847D02*
X167896265Y-88200990D01*
X167896265Y-88200990D02*
X167943884Y-88010514D01*
X167943884Y-88010514D02*
X167991503Y-87915276D01*
X167991503Y-87915276D02*
X168086741Y-87820038D01*
X168086741Y-87820038D02*
X168229598Y-87772419D01*
X168229598Y-87772419D02*
X168324836Y-87772419D01*
X168324836Y-87772419D02*
X168467693Y-87820038D01*
X168467693Y-87820038D02*
X168515312Y-87867657D01*
X168896265Y-88724800D02*
X169039122Y-88772419D01*
X169039122Y-88772419D02*
X169277217Y-88772419D01*
X169277217Y-88772419D02*
X169372455Y-88724800D01*
X169372455Y-88724800D02*
X169420074Y-88677180D01*
X169420074Y-88677180D02*
X169467693Y-88581942D01*
X169467693Y-88581942D02*
X169467693Y-88486704D01*
X169467693Y-88486704D02*
X169420074Y-88391466D01*
X169420074Y-88391466D02*
X169372455Y-88343847D01*
X169372455Y-88343847D02*
X169277217Y-88296228D01*
X169277217Y-88296228D02*
X169086741Y-88248609D01*
X169086741Y-88248609D02*
X168991503Y-88200990D01*
X168991503Y-88200990D02*
X168943884Y-88153371D01*
X168943884Y-88153371D02*
X168896265Y-88058133D01*
X168896265Y-88058133D02*
X168896265Y-87962895D01*
X168896265Y-87962895D02*
X168943884Y-87867657D01*
X168943884Y-87867657D02*
X168991503Y-87820038D01*
X168991503Y-87820038D02*
X169086741Y-87772419D01*
X169086741Y-87772419D02*
X169324836Y-87772419D01*
X169324836Y-87772419D02*
X169467693Y-87820038D01*
X170420074Y-88772419D02*
X169848646Y-88772419D01*
X170134360Y-88772419D02*
X170134360Y-87772419D01*
X170134360Y-87772419D02*
X170039122Y-87915276D01*
X170039122Y-87915276D02*
X169943884Y-88010514D01*
X169943884Y-88010514D02*
X169848646Y-88058133D01*
X159053884Y-68452419D02*
X159053884Y-67452419D01*
X159053884Y-67452419D02*
X159434836Y-67452419D01*
X159434836Y-67452419D02*
X159530074Y-67500038D01*
X159530074Y-67500038D02*
X159577693Y-67547657D01*
X159577693Y-67547657D02*
X159625312Y-67642895D01*
X159625312Y-67642895D02*
X159625312Y-67785752D01*
X159625312Y-67785752D02*
X159577693Y-67880990D01*
X159577693Y-67880990D02*
X159530074Y-67928609D01*
X159530074Y-67928609D02*
X159434836Y-67976228D01*
X159434836Y-67976228D02*
X159053884Y-67976228D01*
X159958646Y-67452419D02*
X160196741Y-68452419D01*
X160196741Y-68452419D02*
X160387217Y-67738133D01*
X160387217Y-67738133D02*
X160577693Y-68452419D01*
X160577693Y-68452419D02*
X160815789Y-67452419D01*
X161196741Y-68452419D02*
X161196741Y-67452419D01*
X161196741Y-67452419D02*
X161530074Y-68166704D01*
X161530074Y-68166704D02*
X161863407Y-67452419D01*
X161863407Y-67452419D02*
X161863407Y-68452419D01*
X167943884Y-91312419D02*
X167943884Y-90312419D01*
X167943884Y-90312419D02*
X168324836Y-90312419D01*
X168324836Y-90312419D02*
X168420074Y-90360038D01*
X168420074Y-90360038D02*
X168467693Y-90407657D01*
X168467693Y-90407657D02*
X168515312Y-90502895D01*
X168515312Y-90502895D02*
X168515312Y-90645752D01*
X168515312Y-90645752D02*
X168467693Y-90740990D01*
X168467693Y-90740990D02*
X168420074Y-90788609D01*
X168420074Y-90788609D02*
X168324836Y-90836228D01*
X168324836Y-90836228D02*
X167943884Y-90836228D01*
X168848646Y-90312419D02*
X169086741Y-91312419D01*
X169086741Y-91312419D02*
X169277217Y-90598133D01*
X169277217Y-90598133D02*
X169467693Y-91312419D01*
X169467693Y-91312419D02*
X169705789Y-90312419D01*
X170086741Y-91312419D02*
X170086741Y-90312419D01*
X170086741Y-90312419D02*
X170420074Y-91026704D01*
X170420074Y-91026704D02*
X170753407Y-90312419D01*
X170753407Y-90312419D02*
X170753407Y-91312419D01*
X167896265Y-80866704D02*
X168372455Y-80866704D01*
X167801027Y-81152419D02*
X168134360Y-80152419D01*
X168134360Y-80152419D02*
X168467693Y-81152419D01*
X169324836Y-81152419D02*
X168753408Y-81152419D01*
X169039122Y-81152419D02*
X169039122Y-80152419D01*
X169039122Y-80152419D02*
X168943884Y-80295276D01*
X168943884Y-80295276D02*
X168848646Y-80390514D01*
X168848646Y-80390514D02*
X168753408Y-80438133D01*
X169658170Y-80152419D02*
X170324836Y-80152419D01*
X170324836Y-80152419D02*
X169896265Y-81152419D01*
X159053884Y-86232419D02*
X159053884Y-85232419D01*
X159053884Y-85232419D02*
X159387217Y-85946704D01*
X159387217Y-85946704D02*
X159720550Y-85232419D01*
X159720550Y-85232419D02*
X159720550Y-86232419D01*
X160387217Y-85232419D02*
X160577693Y-85232419D01*
X160577693Y-85232419D02*
X160672931Y-85280038D01*
X160672931Y-85280038D02*
X160768169Y-85375276D01*
X160768169Y-85375276D02*
X160815788Y-85565752D01*
X160815788Y-85565752D02*
X160815788Y-85899085D01*
X160815788Y-85899085D02*
X160768169Y-86089561D01*
X160768169Y-86089561D02*
X160672931Y-86184800D01*
X160672931Y-86184800D02*
X160577693Y-86232419D01*
X160577693Y-86232419D02*
X160387217Y-86232419D01*
X160387217Y-86232419D02*
X160291979Y-86184800D01*
X160291979Y-86184800D02*
X160196741Y-86089561D01*
X160196741Y-86089561D02*
X160149122Y-85899085D01*
X160149122Y-85899085D02*
X160149122Y-85565752D01*
X160149122Y-85565752D02*
X160196741Y-85375276D01*
X160196741Y-85375276D02*
X160291979Y-85280038D01*
X160291979Y-85280038D02*
X160387217Y-85232419D01*
X161196741Y-86184800D02*
X161339598Y-86232419D01*
X161339598Y-86232419D02*
X161577693Y-86232419D01*
X161577693Y-86232419D02*
X161672931Y-86184800D01*
X161672931Y-86184800D02*
X161720550Y-86137180D01*
X161720550Y-86137180D02*
X161768169Y-86041942D01*
X161768169Y-86041942D02*
X161768169Y-85946704D01*
X161768169Y-85946704D02*
X161720550Y-85851466D01*
X161720550Y-85851466D02*
X161672931Y-85803847D01*
X161672931Y-85803847D02*
X161577693Y-85756228D01*
X161577693Y-85756228D02*
X161387217Y-85708609D01*
X161387217Y-85708609D02*
X161291979Y-85660990D01*
X161291979Y-85660990D02*
X161244360Y-85613371D01*
X161244360Y-85613371D02*
X161196741Y-85518133D01*
X161196741Y-85518133D02*
X161196741Y-85422895D01*
X161196741Y-85422895D02*
X161244360Y-85327657D01*
X161244360Y-85327657D02*
X161291979Y-85280038D01*
X161291979Y-85280038D02*
X161387217Y-85232419D01*
X161387217Y-85232419D02*
X161625312Y-85232419D01*
X161625312Y-85232419D02*
X161768169Y-85280038D01*
X162196741Y-86232419D02*
X162196741Y-85232419D01*
X163196740Y-86232419D02*
X162625312Y-86232419D01*
X162911026Y-86232419D02*
X162911026Y-85232419D01*
X162911026Y-85232419D02*
X162815788Y-85375276D01*
X162815788Y-85375276D02*
X162720550Y-85470514D01*
X162720550Y-85470514D02*
X162625312Y-85518133D01*
X167896265Y-68166704D02*
X168372455Y-68166704D01*
X167801027Y-68452419D02*
X168134360Y-67452419D01*
X168134360Y-67452419D02*
X168467693Y-68452419D01*
X168753408Y-67547657D02*
X168801027Y-67500038D01*
X168801027Y-67500038D02*
X168896265Y-67452419D01*
X168896265Y-67452419D02*
X169134360Y-67452419D01*
X169134360Y-67452419D02*
X169229598Y-67500038D01*
X169229598Y-67500038D02*
X169277217Y-67547657D01*
X169277217Y-67547657D02*
X169324836Y-67642895D01*
X169324836Y-67642895D02*
X169324836Y-67738133D01*
X169324836Y-67738133D02*
X169277217Y-67880990D01*
X169277217Y-67880990D02*
X168705789Y-68452419D01*
X168705789Y-68452419D02*
X169324836Y-68452419D01*
X159625312Y-45592419D02*
X159291979Y-45116228D01*
X159053884Y-45592419D02*
X159053884Y-44592419D01*
X159053884Y-44592419D02*
X159434836Y-44592419D01*
X159434836Y-44592419D02*
X159530074Y-44640038D01*
X159530074Y-44640038D02*
X159577693Y-44687657D01*
X159577693Y-44687657D02*
X159625312Y-44782895D01*
X159625312Y-44782895D02*
X159625312Y-44925752D01*
X159625312Y-44925752D02*
X159577693Y-45020990D01*
X159577693Y-45020990D02*
X159530074Y-45068609D01*
X159530074Y-45068609D02*
X159434836Y-45116228D01*
X159434836Y-45116228D02*
X159053884Y-45116228D01*
X159958646Y-44592419D02*
X160625312Y-45592419D01*
X160625312Y-44592419D02*
X159958646Y-45592419D01*
X161530074Y-45592419D02*
X160958646Y-45592419D01*
X161244360Y-45592419D02*
X161244360Y-44592419D01*
X161244360Y-44592419D02*
X161149122Y-44735276D01*
X161149122Y-44735276D02*
X161053884Y-44830514D01*
X161053884Y-44830514D02*
X160958646Y-44878133D01*
D12*
X144186666Y-57994819D02*
X144186666Y-58709104D01*
X144186666Y-58709104D02*
X144139047Y-58851961D01*
X144139047Y-58851961D02*
X144043809Y-58947200D01*
X144043809Y-58947200D02*
X143900952Y-58994819D01*
X143900952Y-58994819D02*
X143805714Y-58994819D01*
X145091428Y-58328152D02*
X145091428Y-58994819D01*
X144853333Y-57947200D02*
X144615238Y-58661485D01*
X144615238Y-58661485D02*
X145234285Y-58661485D01*
X173809819Y-35028094D02*
X172809819Y-35028094D01*
X172809819Y-35028094D02*
X172809819Y-34789999D01*
X172809819Y-34789999D02*
X172857438Y-34647142D01*
X172857438Y-34647142D02*
X172952676Y-34551904D01*
X172952676Y-34551904D02*
X173047914Y-34504285D01*
X173047914Y-34504285D02*
X173238390Y-34456666D01*
X173238390Y-34456666D02*
X173381247Y-34456666D01*
X173381247Y-34456666D02*
X173571723Y-34504285D01*
X173571723Y-34504285D02*
X173666961Y-34551904D01*
X173666961Y-34551904D02*
X173762200Y-34647142D01*
X173762200Y-34647142D02*
X173809819Y-34789999D01*
X173809819Y-34789999D02*
X173809819Y-35028094D01*
X173809819Y-33504285D02*
X173809819Y-34075713D01*
X173809819Y-33789999D02*
X172809819Y-33789999D01*
X172809819Y-33789999D02*
X172952676Y-33885237D01*
X172952676Y-33885237D02*
X173047914Y-33980475D01*
X173047914Y-33980475D02*
X173095533Y-34075713D01*
X186563095Y-98879819D02*
X186563095Y-97879819D01*
X186563095Y-98356009D02*
X187134523Y-98356009D01*
X187134523Y-98879819D02*
X187134523Y-97879819D01*
X187563095Y-97975057D02*
X187610714Y-97927438D01*
X187610714Y-97927438D02*
X187705952Y-97879819D01*
X187705952Y-97879819D02*
X187944047Y-97879819D01*
X187944047Y-97879819D02*
X188039285Y-97927438D01*
X188039285Y-97927438D02*
X188086904Y-97975057D01*
X188086904Y-97975057D02*
X188134523Y-98070295D01*
X188134523Y-98070295D02*
X188134523Y-98165533D01*
X188134523Y-98165533D02*
X188086904Y-98308390D01*
X188086904Y-98308390D02*
X187515476Y-98879819D01*
X187515476Y-98879819D02*
X188134523Y-98879819D01*
D13*
%TO.C,J8*%
X180270000Y-76030000D02*
X180270000Y-78530000D01*
X180570000Y-76330000D02*
X180570000Y-94050000D01*
X180570000Y-94050000D02*
X184590000Y-94050000D01*
X182070000Y-76330000D02*
X182070000Y-77330000D01*
X182070000Y-77330000D02*
X180570000Y-77330000D01*
X182070000Y-93050000D02*
X180570000Y-93050000D01*
X182070000Y-94050000D02*
X182070000Y-93050000D01*
X182770000Y-76030000D02*
X180270000Y-76030000D01*
X182880000Y-76330000D02*
X182880000Y-76830000D01*
X182880000Y-76830000D02*
X184090000Y-76830000D01*
X182880000Y-93550000D02*
X182880000Y-94050000D01*
X184090000Y-76830000D02*
X184090000Y-93550000D01*
X184090000Y-93550000D02*
X182880000Y-93550000D01*
X184590000Y-76330000D02*
X180570000Y-76330000D01*
X184590000Y-94050000D02*
X184590000Y-76330000D01*
%TO.C,R4*%
X153570000Y-83592936D02*
X153570000Y-84047064D01*
X155040000Y-83592936D02*
X155040000Y-84047064D01*
%TO.C,J5*%
X180270000Y-45430000D02*
X180270000Y-47930000D01*
X180570000Y-45730000D02*
X180570000Y-58450000D01*
X180570000Y-58450000D02*
X184590000Y-58450000D01*
X182070000Y-45730000D02*
X182070000Y-46730000D01*
X182070000Y-46730000D02*
X180570000Y-46730000D01*
X182070000Y-57450000D02*
X180570000Y-57450000D01*
X182070000Y-58450000D02*
X182070000Y-57450000D01*
X182770000Y-45430000D02*
X180270000Y-45430000D01*
X182880000Y-45730000D02*
X182880000Y-46230000D01*
X182880000Y-46230000D02*
X184090000Y-46230000D01*
X182880000Y-57950000D02*
X182880000Y-58450000D01*
X184090000Y-46230000D02*
X184090000Y-57950000D01*
X184090000Y-57950000D02*
X182880000Y-57950000D01*
X184590000Y-45730000D02*
X180570000Y-45730000D01*
X184590000Y-58450000D02*
X184590000Y-45730000D01*
%TO.C,J3*%
X144830000Y-31980000D02*
X144830000Y-36000000D01*
X144830000Y-33480000D02*
X145830000Y-33480000D01*
X144830000Y-36000000D02*
X157550000Y-36000000D01*
X145330000Y-34290000D02*
X144830000Y-34290000D01*
X145330000Y-35500000D02*
X145330000Y-34290000D01*
X145830000Y-33480000D02*
X145830000Y-31980000D01*
X156550000Y-33480000D02*
X156550000Y-31980000D01*
X157050000Y-34290000D02*
X157050000Y-35500000D01*
X157050000Y-35500000D02*
X145330000Y-35500000D01*
X157550000Y-31980000D02*
X144830000Y-31980000D01*
X157550000Y-33480000D02*
X156550000Y-33480000D01*
X157550000Y-34290000D02*
X157050000Y-34290000D01*
X157550000Y-36000000D02*
X157550000Y-31980000D01*
X157850000Y-31680000D02*
X155350000Y-31680000D01*
X157850000Y-34180000D02*
X157850000Y-31680000D01*
%TO.C,J9*%
X175190000Y-31980000D02*
X175190000Y-36000000D01*
X175190000Y-33480000D02*
X176190000Y-33480000D01*
X175190000Y-36000000D02*
X182910000Y-36000000D01*
X175690000Y-34290000D02*
X175190000Y-34290000D01*
X175690000Y-35500000D02*
X175690000Y-34290000D01*
X176190000Y-33480000D02*
X176190000Y-31980000D01*
X181910000Y-33480000D02*
X181910000Y-31980000D01*
X182410000Y-34290000D02*
X182410000Y-35500000D01*
X182410000Y-35500000D02*
X175690000Y-35500000D01*
X182910000Y-31980000D02*
X175190000Y-31980000D01*
X182910000Y-33480000D02*
X181910000Y-33480000D01*
X182910000Y-34290000D02*
X182410000Y-34290000D01*
X182910000Y-36000000D02*
X182910000Y-31980000D01*
X183210000Y-31680000D02*
X180710000Y-31680000D01*
X183210000Y-34180000D02*
X183210000Y-31680000D01*
%TO.C,J1*%
X180270000Y-60710000D02*
X180270000Y-63210000D01*
X180570000Y-61010000D02*
X180570000Y-73730000D01*
X180570000Y-73730000D02*
X184590000Y-73730000D01*
X182070000Y-61010000D02*
X182070000Y-62010000D01*
X182070000Y-62010000D02*
X180570000Y-62010000D01*
X182070000Y-72730000D02*
X180570000Y-72730000D01*
X182070000Y-73730000D02*
X182070000Y-72730000D01*
X182770000Y-60710000D02*
X180270000Y-60710000D01*
X182880000Y-61010000D02*
X182880000Y-61510000D01*
X182880000Y-61510000D02*
X184090000Y-61510000D01*
X182880000Y-73230000D02*
X182880000Y-73730000D01*
X184090000Y-61510000D02*
X184090000Y-73230000D01*
X184090000Y-73230000D02*
X182880000Y-73230000D01*
X184590000Y-61010000D02*
X180570000Y-61010000D01*
X184590000Y-73730000D02*
X184590000Y-61010000D01*
%TO.C,J2*%
X145610000Y-81330000D02*
X145610000Y-94050000D01*
X145610000Y-94050000D02*
X149630000Y-94050000D01*
X146110000Y-81830000D02*
X147320000Y-81830000D01*
X146110000Y-93550000D02*
X146110000Y-81830000D01*
X147320000Y-81830000D02*
X147320000Y-81330000D01*
X147320000Y-93550000D02*
X146110000Y-93550000D01*
X147320000Y-94050000D02*
X147320000Y-93550000D01*
X147430000Y-94350000D02*
X149930000Y-94350000D01*
X148130000Y-81330000D02*
X148130000Y-82330000D01*
X148130000Y-82330000D02*
X149630000Y-82330000D01*
X148130000Y-93050000D02*
X149630000Y-93050000D01*
X148130000Y-94050000D02*
X148130000Y-93050000D01*
X149630000Y-81330000D02*
X145610000Y-81330000D01*
X149630000Y-94050000D02*
X149630000Y-81330000D01*
X149930000Y-94350000D02*
X149930000Y-91850000D01*
%TO.C,R5*%
X168175000Y-34517064D02*
X168175000Y-34062936D01*
X169645000Y-34517064D02*
X169645000Y-34062936D01*
%TO.C,R3*%
X153570000Y-88672936D02*
X153570000Y-89127064D01*
X155040000Y-88672936D02*
X155040000Y-89127064D01*
%TO.C,J7*%
X172690000Y-104370000D02*
X172690000Y-108390000D01*
X172690000Y-105870000D02*
X173690000Y-105870000D01*
X172690000Y-108390000D02*
X185410000Y-108390000D01*
X173190000Y-106680000D02*
X172690000Y-106680000D01*
X173190000Y-107890000D02*
X173190000Y-106680000D01*
X173690000Y-105870000D02*
X173690000Y-104370000D01*
X184410000Y-105870000D02*
X184410000Y-104370000D01*
X184910000Y-106680000D02*
X184910000Y-107890000D01*
X184910000Y-107890000D02*
X173190000Y-107890000D01*
X185410000Y-104370000D02*
X172690000Y-104370000D01*
X185410000Y-105870000D02*
X184410000Y-105870000D01*
X185410000Y-106680000D02*
X184910000Y-106680000D01*
X185410000Y-108390000D02*
X185410000Y-104370000D01*
X185710000Y-104070000D02*
X183210000Y-104070000D01*
X185710000Y-106570000D02*
X185710000Y-104070000D01*
%TO.C,R1*%
X175160000Y-61187064D02*
X175160000Y-60732936D01*
X176630000Y-61187064D02*
X176630000Y-60732936D01*
%TO.C,R2*%
X175160000Y-68807064D02*
X175160000Y-68352936D01*
X176630000Y-68807064D02*
X176630000Y-68352936D01*
%TO.C,J6*%
X144750000Y-104370000D02*
X144750000Y-108390000D01*
X144750000Y-105870000D02*
X145750000Y-105870000D01*
X144750000Y-108390000D02*
X157470000Y-108390000D01*
X145250000Y-106680000D02*
X144750000Y-106680000D01*
X145250000Y-107890000D02*
X145250000Y-106680000D01*
X145750000Y-105870000D02*
X145750000Y-104370000D01*
X156470000Y-105870000D02*
X156470000Y-104370000D01*
X156970000Y-106680000D02*
X156970000Y-107890000D01*
X156970000Y-107890000D02*
X145250000Y-107890000D01*
X157470000Y-104370000D02*
X144750000Y-104370000D01*
X157470000Y-105870000D02*
X156470000Y-105870000D01*
X157470000Y-106680000D02*
X156970000Y-106680000D01*
X157470000Y-108390000D02*
X157470000Y-104370000D01*
X157770000Y-104070000D02*
X155270000Y-104070000D01*
X157770000Y-106570000D02*
X157770000Y-104070000D01*
%TO.C,J10*%
X145610000Y-61090000D02*
X145610000Y-78810000D01*
X145610000Y-78810000D02*
X149630000Y-78810000D01*
X146110000Y-61590000D02*
X147320000Y-61590000D01*
X146110000Y-78310000D02*
X146110000Y-61590000D01*
X147320000Y-61590000D02*
X147320000Y-61090000D01*
X147320000Y-78310000D02*
X146110000Y-78310000D01*
X147320000Y-78810000D02*
X147320000Y-78310000D01*
X147430000Y-79110000D02*
X149930000Y-79110000D01*
X148130000Y-61090000D02*
X148130000Y-62090000D01*
X148130000Y-62090000D02*
X149630000Y-62090000D01*
X148130000Y-77810000D02*
X149630000Y-77810000D01*
X148130000Y-78810000D02*
X148130000Y-77810000D01*
X149630000Y-61090000D02*
X145610000Y-61090000D01*
X149630000Y-78810000D02*
X149630000Y-61090000D01*
X149930000Y-79110000D02*
X149930000Y-76610000D01*
D10*
%TO.C,Teensy4.2*%
X156210000Y-69850000D02*
X156210000Y-40640000D01*
X156210000Y-69850000D02*
X156210000Y-71120000D01*
X156210000Y-71120000D02*
X156210000Y-101600000D01*
X156210000Y-101600000D02*
X173990000Y-101600000D01*
X173990000Y-40640000D02*
X156210000Y-40640000D01*
X173990000Y-40640000D02*
X173990000Y-68580000D01*
X173990000Y-101600000D02*
X173990000Y-68580000D01*
D13*
%TO.C,J4*%
X145610000Y-45770000D02*
X145610000Y-58490000D01*
X145610000Y-58490000D02*
X149630000Y-58490000D01*
X146110000Y-46270000D02*
X147320000Y-46270000D01*
X146110000Y-57990000D02*
X146110000Y-46270000D01*
X147320000Y-46270000D02*
X147320000Y-45770000D01*
X147320000Y-57990000D02*
X146110000Y-57990000D01*
X147320000Y-58490000D02*
X147320000Y-57990000D01*
X147430000Y-58790000D02*
X149930000Y-58790000D01*
X148130000Y-45770000D02*
X148130000Y-46770000D01*
X148130000Y-46770000D02*
X149630000Y-46770000D01*
X148130000Y-57490000D02*
X149630000Y-57490000D01*
X148130000Y-58490000D02*
X148130000Y-57490000D01*
X149630000Y-45770000D02*
X145610000Y-45770000D01*
X149630000Y-58490000D02*
X149630000Y-45770000D01*
X149930000Y-58790000D02*
X149930000Y-56290000D01*
%TO.C,D1*%
X170490000Y-33290000D02*
X170490000Y-36150000D01*
X170490000Y-36150000D02*
X172410000Y-36150000D01*
X172410000Y-36150000D02*
X172410000Y-33290000D01*
%TD*%
M02*
