%TF.GenerationSoftware,KiCad,Pcbnew,9.0.0*%
%TF.CreationDate,2025-06-24T16:52:40-04:00*%
%TF.ProjectId,STM32-sensor-board,53544d33-322d-4736-956e-736f722d626f,rev?*%
%TF.SameCoordinates,Original*%
%TF.FileFunction,Paste,Bot*%
%TF.FilePolarity,Positive*%
%FSLAX46Y46*%
G04 Gerber Fmt 4.6, Leading zero omitted, Abs format (unit mm)*
G04 Created by KiCad (PCBNEW 9.0.0) date 2025-06-24 16:52:40*
%MOMM*%
%LPD*%
G01*
G04 APERTURE LIST*
G04 Aperture macros list*
%AMRoundRect*
0 Rectangle with rounded corners*
0 $1 Rounding radius*
0 $2 $3 $4 $5 $6 $7 $8 $9 X,Y pos of 4 corners*
0 Add a 4 corners polygon primitive as box body*
4,1,4,$2,$3,$4,$5,$6,$7,$8,$9,$2,$3,0*
0 Add four circle primitives for the rounded corners*
1,1,$1+$1,$2,$3*
1,1,$1+$1,$4,$5*
1,1,$1+$1,$6,$7*
1,1,$1+$1,$8,$9*
0 Add four rect primitives between the rounded corners*
20,1,$1+$1,$2,$3,$4,$5,0*
20,1,$1+$1,$4,$5,$6,$7,0*
20,1,$1+$1,$6,$7,$8,$9,0*
20,1,$1+$1,$8,$9,$2,$3,0*%
G04 Aperture macros list end*
%ADD10RoundRect,0.200000X0.200000X0.275000X-0.200000X0.275000X-0.200000X-0.275000X0.200000X-0.275000X0*%
%ADD11RoundRect,0.375000X0.375000X-0.625000X0.375000X0.625000X-0.375000X0.625000X-0.375000X-0.625000X0*%
%ADD12RoundRect,0.500000X1.400000X-0.500000X1.400000X0.500000X-1.400000X0.500000X-1.400000X-0.500000X0*%
%ADD13RoundRect,0.225000X-0.250000X0.225000X-0.250000X-0.225000X0.250000X-0.225000X0.250000X0.225000X0*%
%ADD14RoundRect,0.225000X-0.225000X-0.250000X0.225000X-0.250000X0.225000X0.250000X-0.225000X0.250000X0*%
%ADD15RoundRect,0.218750X-0.218750X-0.256250X0.218750X-0.256250X0.218750X0.256250X-0.218750X0.256250X0*%
%ADD16RoundRect,0.250000X-1.075000X0.375000X-1.075000X-0.375000X1.075000X-0.375000X1.075000X0.375000X0*%
%ADD17RoundRect,0.225000X0.250000X-0.225000X0.250000X0.225000X-0.250000X0.225000X-0.250000X-0.225000X0*%
%ADD18RoundRect,0.225000X0.225000X0.250000X-0.225000X0.250000X-0.225000X-0.250000X0.225000X-0.250000X0*%
%ADD19C,0.400002*%
%ADD20R,0.800000X0.400000*%
%ADD21R,0.800000X0.800000*%
%ADD22R,0.400000X0.800000*%
%ADD23RoundRect,0.200000X-0.200000X-0.275000X0.200000X-0.275000X0.200000X0.275000X-0.200000X0.275000X0*%
%ADD24R,5.080000X1.500000*%
G04 APERTURE END LIST*
D10*
%TO.C,R2*%
X149025000Y-101320000D03*
X147375000Y-101320000D03*
%TD*%
D11*
%TO.C,U8*%
X116550000Y-116751750D03*
X114250000Y-116751749D03*
D12*
X114250000Y-110451751D03*
D11*
X111950000Y-116751750D03*
%TD*%
D13*
%TO.C,C13*%
X147500000Y-102750000D03*
X147500000Y-104300000D03*
%TD*%
D14*
%TO.C,C22*%
X116860000Y-118820000D03*
X118410000Y-118820000D03*
%TD*%
%TO.C,C9*%
X124725000Y-97351750D03*
X126275000Y-97351750D03*
%TD*%
D15*
%TO.C,D4*%
X118712499Y-110101750D03*
X120287501Y-110101750D03*
%TD*%
D13*
%TO.C,C12*%
X149000000Y-102770000D03*
X149000000Y-104320000D03*
%TD*%
%TO.C,C16*%
X120030000Y-99596750D03*
X120030000Y-101146750D03*
%TD*%
D16*
%TO.C,L1*%
X133000000Y-101201751D03*
X133000000Y-104001749D03*
%TD*%
D17*
%TO.C,C8*%
X133500000Y-107376750D03*
X133500000Y-105826750D03*
%TD*%
D13*
%TO.C,C18*%
X118530000Y-99596750D03*
X118530000Y-101146750D03*
%TD*%
D14*
%TO.C,C11*%
X142500000Y-110000000D03*
X144050000Y-110000000D03*
%TD*%
D18*
%TO.C,C7*%
X138500000Y-110500000D03*
X136950000Y-110500000D03*
%TD*%
D19*
%TO.C,U4*%
X123100000Y-110651750D03*
X123900000Y-110651750D03*
X124700000Y-110651750D03*
X125500000Y-110651750D03*
X126300000Y-110651750D03*
X127100000Y-110651750D03*
X127900000Y-110651750D03*
X128700000Y-110651750D03*
X129500000Y-110651750D03*
X130300000Y-110651750D03*
X123100000Y-109851750D03*
X123900000Y-109851750D03*
X124700000Y-109851750D03*
X125500000Y-109851750D03*
X126300000Y-109851750D03*
X127100000Y-109851750D03*
X127900000Y-109851750D03*
X128700000Y-109851750D03*
X129500000Y-109851750D03*
X130300000Y-109851750D03*
X123100000Y-109051750D03*
X123900000Y-109051750D03*
X124700000Y-109051750D03*
X125500000Y-109051750D03*
X126300000Y-109051750D03*
X127100000Y-109051750D03*
X127900000Y-109051750D03*
X128700000Y-109051750D03*
X129500000Y-109051750D03*
X130300000Y-109051750D03*
X123100000Y-108251750D03*
X123900000Y-108251750D03*
X124700000Y-108251750D03*
X125500000Y-108251750D03*
X126300000Y-108251750D03*
X127100000Y-108251750D03*
X127900000Y-108251750D03*
X128700000Y-108251750D03*
X129500000Y-108251750D03*
X130300000Y-108251750D03*
X123100000Y-107451750D03*
X123900000Y-107451750D03*
X124700000Y-107451750D03*
X125500000Y-107451750D03*
X126300000Y-107451750D03*
X127100000Y-107451750D03*
X127900000Y-107451750D03*
X128700000Y-107451750D03*
X129500000Y-107451750D03*
X130300000Y-107451750D03*
X123100000Y-106651750D03*
X123900000Y-106651750D03*
X124700000Y-106651750D03*
X125500000Y-106651750D03*
X126300000Y-106651750D03*
X127100000Y-106651750D03*
X127900000Y-106651750D03*
X128700000Y-106651750D03*
X129500000Y-106651750D03*
X130300000Y-106651750D03*
X123100000Y-105851750D03*
X123900000Y-105851750D03*
X124700000Y-105851750D03*
X125500000Y-105851750D03*
X126300000Y-105851750D03*
X127100000Y-105851750D03*
X127900000Y-105851750D03*
X128700000Y-105851750D03*
X129500000Y-105851750D03*
X130300000Y-105851750D03*
X123100000Y-105051750D03*
X123900000Y-105051750D03*
X124700000Y-105051750D03*
X125500000Y-105051750D03*
X126300000Y-105051750D03*
X127100000Y-105051750D03*
X127900000Y-105051750D03*
X128700000Y-105051750D03*
X129500000Y-105051750D03*
X130300000Y-105051750D03*
X123100000Y-104251750D03*
X123900000Y-104251750D03*
X124700000Y-104251750D03*
X125500000Y-104251750D03*
X126300000Y-104251750D03*
X127100000Y-104251750D03*
X127900000Y-104251750D03*
X128700000Y-104251750D03*
X129500000Y-104251750D03*
X130300000Y-104251750D03*
X123100000Y-103451750D03*
X123900000Y-103451750D03*
X124700000Y-103451750D03*
X125500000Y-103451750D03*
X126300000Y-103451750D03*
X127100000Y-103451750D03*
X127900000Y-103451750D03*
X128700000Y-103451750D03*
X129500000Y-103451750D03*
X130300000Y-103451750D03*
%TD*%
D14*
%TO.C,C23*%
X118725000Y-111601750D03*
X120275000Y-111601750D03*
%TD*%
D13*
%TO.C,C15*%
X114500000Y-97224999D03*
X114500000Y-98774999D03*
%TD*%
D14*
%TO.C,C19*%
X130490000Y-96730000D03*
X132040000Y-96730000D03*
%TD*%
D17*
%TO.C,C14*%
X115999999Y-98774999D03*
X115999999Y-97224999D03*
%TD*%
D20*
%TO.C,U1*%
X136150000Y-106401750D03*
X136150000Y-105551750D03*
X136150000Y-104701750D03*
X136150001Y-103851750D03*
X136150000Y-103001750D03*
X136150000Y-102151750D03*
X136150000Y-101301750D03*
D21*
X136100000Y-100151750D03*
D22*
X137100000Y-100201750D03*
X137950000Y-100201750D03*
X138800000Y-100201750D03*
X139650000Y-100201750D03*
X140500000Y-100201750D03*
X141350000Y-100201750D03*
X142200000Y-100201750D03*
X143050000Y-100201750D03*
X143900000Y-100201750D03*
D21*
X144850000Y-100151749D03*
D20*
X144850000Y-101301750D03*
X144850000Y-102151750D03*
X144850000Y-103001750D03*
X144849999Y-103851750D03*
X144850000Y-104701750D03*
X144850000Y-105551750D03*
X144850000Y-106401750D03*
D21*
X144900000Y-107551750D03*
D22*
X143900000Y-107501750D03*
X143050000Y-107501750D03*
X142200000Y-107501750D03*
X141350000Y-107501750D03*
X140500000Y-107501750D03*
X139650000Y-107501750D03*
X138800000Y-107501750D03*
X137950000Y-107501750D03*
X137100000Y-107501750D03*
D21*
X136100000Y-107551750D03*
X138250000Y-105351750D03*
X138250000Y-103851750D03*
X138250000Y-102351750D03*
X139750000Y-105351750D03*
X139750000Y-103851750D03*
X139750000Y-102351750D03*
X141250000Y-105351750D03*
X141250000Y-103851750D03*
X141250000Y-102351750D03*
X142750000Y-105351750D03*
X142750000Y-103851750D03*
X142750000Y-102351750D03*
%TD*%
D13*
%TO.C,C10*%
X127750000Y-96576750D03*
X127750000Y-98126750D03*
%TD*%
D14*
%TO.C,C17*%
X121505000Y-99121750D03*
X123055000Y-99121750D03*
%TD*%
D23*
%TO.C,R3*%
X152485000Y-108490000D03*
X154135000Y-108490000D03*
%TD*%
D24*
%TO.C,J1*%
X153137500Y-101500000D03*
X153137500Y-97250000D03*
X153137500Y-105750000D03*
%TD*%
M02*
