M48
; DRILL file {KiCad 9.0.0} date 2025-08-01T15:29:40-0400
; FORMAT={-:-/ absolute / inch / decimal}
; #@! TF.CreationDate,2025-08-01T15:29:40-04:00
; #@! TF.GenerationSoftware,Kicad,Pcbnew,9.0.0
; #@! TF.FileFunction,Plated,1,4,PTH
FMAT,2
INCH
; #@! TA.AperFunction,Plated,PTH,ViaDrill
T1C0.0079
; #@! TA.AperFunction,Plated,PTH,ViaDrill
T2C0.0118
; #@! TA.AperFunction,Plated,PTH,ViaDrill
T3C0.0197
; #@! TA.AperFunction,Plated,PTH,ComponentDrill
T4C0.0374
; #@! TA.AperFunction,Plated,PTH,ComponentDrill
T5C0.0394
%
G90
G05
T1
X4.4618Y-3.928
X4.4811Y-3.787
X4.5079Y-3.7874
X4.5343Y-3.787
X4.5429Y-3.9291
X4.5472Y-4.4713
X4.5614Y-3.787
X4.5626Y-3.9457
X4.6272Y-3.8689
X4.6386Y-3.8409
X4.6394Y-3.952
X4.6398Y-3.8941
X4.6665Y-3.9223
X4.6925Y-4.0024
X4.7244Y-3.7744
X4.7348Y-4.6143
X4.7599Y-3.9307
X4.7638Y-3.9822
X4.7791Y-4.0213
X4.8098Y-3.9012
X4.824Y-3.8228
X4.8327Y-4.1031
X4.8402Y-3.9902
X4.8413Y-4.0472
X4.8421Y-4.176
X4.8439Y-3.903
X4.8573Y-4.132
X4.8622Y-4.3402
X4.8681Y-4.2688
X4.8697Y-4.3024
X4.8917Y-4.3805
X4.9024Y-3.7831
X4.9256Y-4.2795
X4.926Y-4.0886
X4.926Y-4.1201
X4.9264Y-4.3398
X4.9283Y-4.2417
X4.9472Y-4.2103
X4.963Y-4.2106
X4.9642Y-4.2701
X4.9657Y-4.2386
X4.9715Y-3.8327
X4.9731Y-4.0427
X4.9907Y-4.0224
X4.9924Y-4.4646
X5.0031Y-4.1898
X5.0039Y-4.2382
X5.0055Y-4.0039
X5.0177Y-3.9831
X5.0189Y-4.4642
X5.0295Y-3.8022
X5.0295Y-3.8633
X5.0346Y-4.0835
X5.0354Y-4.2071
X5.0354Y-4.2383
X5.0669Y-4.0835
X5.0669Y-4.1886
X5.0992Y-3.8812
X5.113Y-4.276
X5.114Y-4.0406
X5.1142Y-4.2469
X5.115Y-4.1843
X5.1374Y-3.8083
X5.1559Y-4.4201
X5.1638Y-4.0381
X5.1768Y-4.4413
X5.1984Y-3.8083
X5.1988Y-4.3051
X5.2154Y-4.1976
X5.3175Y-4.1256
X5.324Y-4.0039
X5.324Y-4.0417
X5.3248Y-3.9374
X5.3248Y-4.0654
X5.3287Y-4.2339
X5.3976Y-4.1902
X5.398Y-3.9886
X5.4004Y-4.089
X5.4713Y-4.0886
X5.4717Y-4.0299
X5.472Y-4.1476
X5.5311Y-4.089
X5.5315Y-4.0299
X5.5315Y-4.1484
X5.5319Y-3.9862
X5.5319Y-4.1906
X5.5902Y-4.0886
X5.5902Y-4.148
X5.5909Y-4.0299
X5.6622Y-4.0882
X5.6657Y-4.1909
X5.6669Y-3.9878
X5.7024Y-3.9146
X5.7043Y-4.2654
X5.9024Y-4.2276
X6.1004Y-4.2717
T2
X6.0356Y-4.2902
T3
X4.4904Y-4.6556
X4.611Y-4.5409
X4.6984Y-4.674
X4.7524Y-4.4258
X4.8063Y-4.2075
X4.9815Y-3.9169
X5.272Y-4.289
X5.3175Y-3.9613
X5.3331Y-4.3508
X5.3335Y-3.8291
X5.4894Y-4.2921
X5.7291Y-4.3476
X5.7303Y-3.8287
X5.7382Y-4.024
X5.7917Y-4.2874
X5.7925Y-3.8894
X5.8969Y-4.1283
X5.9087Y-3.8307
X5.9358Y-4.2268
X6.029Y-4.1634
T4
X4.7835Y-4.5503
X4.8819Y-4.5503
X4.9803Y-4.5503
X5.0787Y-4.5503
T5
X4.252Y-4.0709
X4.252Y-4.1709
X4.252Y-4.2709
X4.252Y-4.3709
X4.252Y-4.4709
X4.252Y-4.5709
X4.4783Y-4.1969
X4.6752Y-4.1969
X5.315Y-4.5503
X5.4134Y-4.5503
X5.6496Y-4.5503
X5.748Y-4.5503
M30
