%TF.GenerationSoftware,KiCad,Pcbnew,8.0.3*%
%TF.CreationDate,2024-07-11T15:18:24-04:00*%
%TF.ProjectId,SensorBoard,53656e73-6f72-4426-9f61-72642e6b6963,rev?*%
%TF.SameCoordinates,Original*%
%TF.FileFunction,Copper,L1,Top*%
%TF.FilePolarity,Positive*%
%FSLAX46Y46*%
G04 Gerber Fmt 4.6, Leading zero omitted, Abs format (unit mm)*
G04 Created by KiCad (PCBNEW 8.0.3) date 2024-07-11 15:18:24*
%MOMM*%
%LPD*%
G01*
G04 APERTURE LIST*
G04 Aperture macros list*
%AMRoundRect*
0 Rectangle with rounded corners*
0 $1 Rounding radius*
0 $2 $3 $4 $5 $6 $7 $8 $9 X,Y pos of 4 corners*
0 Add a 4 corners polygon primitive as box body*
4,1,4,$2,$3,$4,$5,$6,$7,$8,$9,$2,$3,0*
0 Add four circle primitives for the rounded corners*
1,1,$1+$1,$2,$3*
1,1,$1+$1,$4,$5*
1,1,$1+$1,$6,$7*
1,1,$1+$1,$8,$9*
0 Add four rect primitives between the rounded corners*
20,1,$1+$1,$2,$3,$4,$5,0*
20,1,$1+$1,$4,$5,$6,$7,0*
20,1,$1+$1,$6,$7,$8,$9,0*
20,1,$1+$1,$8,$9,$2,$3,0*%
G04 Aperture macros list end*
%TA.AperFunction,ComponentPad*%
%ADD10R,1.700000X1.700000*%
%TD*%
%TA.AperFunction,ComponentPad*%
%ADD11O,1.700000X1.700000*%
%TD*%
%TA.AperFunction,SMDPad,CuDef*%
%ADD12RoundRect,0.250000X-0.250000X-0.475000X0.250000X-0.475000X0.250000X0.475000X-0.250000X0.475000X0*%
%TD*%
%TA.AperFunction,SMDPad,CuDef*%
%ADD13RoundRect,0.250000X0.475000X-0.250000X0.475000X0.250000X-0.475000X0.250000X-0.475000X-0.250000X0*%
%TD*%
%TA.AperFunction,SMDPad,CuDef*%
%ADD14RoundRect,0.243750X-0.243750X-0.456250X0.243750X-0.456250X0.243750X0.456250X-0.243750X0.456250X0*%
%TD*%
%TA.AperFunction,SMDPad,CuDef*%
%ADD15RoundRect,0.250000X-0.262500X-0.450000X0.262500X-0.450000X0.262500X0.450000X-0.262500X0.450000X0*%
%TD*%
%TA.AperFunction,SMDPad,CuDef*%
%ADD16R,0.230000X0.350000*%
%TD*%
%TA.AperFunction,SMDPad,CuDef*%
%ADD17R,0.350000X0.230000*%
%TD*%
%TA.AperFunction,SMDPad,CuDef*%
%ADD18RoundRect,0.250000X-0.450000X0.262500X-0.450000X-0.262500X0.450000X-0.262500X0.450000X0.262500X0*%
%TD*%
%TA.AperFunction,SMDPad,CuDef*%
%ADD19RoundRect,0.250000X-0.475000X0.250000X-0.475000X-0.250000X0.475000X-0.250000X0.475000X0.250000X0*%
%TD*%
%TA.AperFunction,SMDPad,CuDef*%
%ADD20RoundRect,0.250000X0.250000X0.475000X-0.250000X0.475000X-0.250000X-0.475000X0.250000X-0.475000X0*%
%TD*%
%TA.AperFunction,SMDPad,CuDef*%
%ADD21RoundRect,0.175000X-0.725000X-0.175000X0.725000X-0.175000X0.725000X0.175000X-0.725000X0.175000X0*%
%TD*%
%TA.AperFunction,SMDPad,CuDef*%
%ADD22RoundRect,0.200000X-0.700000X-0.200000X0.700000X-0.200000X0.700000X0.200000X-0.700000X0.200000X0*%
%TD*%
%TA.AperFunction,ComponentPad*%
%ADD23R,1.000000X1.000000*%
%TD*%
%TA.AperFunction,ComponentPad*%
%ADD24O,1.000000X1.000000*%
%TD*%
%TA.AperFunction,SMDPad,CuDef*%
%ADD25R,0.950000X0.550000*%
%TD*%
%TA.AperFunction,SMDPad,CuDef*%
%ADD26RoundRect,0.218750X0.218750X0.381250X-0.218750X0.381250X-0.218750X-0.381250X0.218750X-0.381250X0*%
%TD*%
%TA.AperFunction,SMDPad,CuDef*%
%ADD27RoundRect,0.218750X-0.381250X0.218750X-0.381250X-0.218750X0.381250X-0.218750X0.381250X0.218750X0*%
%TD*%
%TA.AperFunction,SMDPad,CuDef*%
%ADD28R,0.900000X0.800000*%
%TD*%
%TA.AperFunction,SMDPad,CuDef*%
%ADD29R,1.500000X1.500000*%
%TD*%
%TA.AperFunction,SMDPad,CuDef*%
%ADD30R,2.300000X2.300000*%
%TD*%
%TA.AperFunction,SMDPad,CuDef*%
%ADD31RoundRect,0.075000X-0.662500X-0.075000X0.662500X-0.075000X0.662500X0.075000X-0.662500X0.075000X0*%
%TD*%
%TA.AperFunction,SMDPad,CuDef*%
%ADD32RoundRect,0.075000X-0.075000X-0.662500X0.075000X-0.662500X0.075000X0.662500X-0.075000X0.662500X0*%
%TD*%
%TA.AperFunction,ViaPad*%
%ADD33C,0.700000*%
%TD*%
%TA.AperFunction,Conductor*%
%ADD34C,0.300000*%
%TD*%
%TA.AperFunction,Conductor*%
%ADD35C,0.500000*%
%TD*%
%TA.AperFunction,Conductor*%
%ADD36C,0.190000*%
%TD*%
%TA.AperFunction,Conductor*%
%ADD37C,0.200000*%
%TD*%
G04 APERTURE END LIST*
D10*
%TO.P,J5,1,Pin_1*%
%TO.N,+3.3V*%
X75585000Y-82545000D03*
D11*
%TO.P,J5,2,Pin_2*%
X78125000Y-82545000D03*
%TO.P,J5,3,Pin_3*%
%TO.N,PA2*%
X75585000Y-85085000D03*
%TO.P,J5,4,Pin_4*%
%TO.N,PB14*%
X78125000Y-85085000D03*
%TO.P,J5,5,Pin_5*%
%TO.N,PA3*%
X75585000Y-87625000D03*
%TO.P,J5,6,Pin_6*%
%TO.N,PB15*%
X78125000Y-87625000D03*
%TO.P,J5,7,Pin_7*%
%TO.N,PA9*%
X75585000Y-90165000D03*
%TO.P,J5,8,Pin_8*%
%TO.N,PB12*%
X78125000Y-90165000D03*
%TO.P,J5,9,Pin_9*%
%TO.N,GND*%
X75585000Y-92705000D03*
%TO.P,J5,10,Pin_10*%
X78125000Y-92705000D03*
%TD*%
D12*
%TO.P,C22,1*%
%TO.N,Net-(U4-CAP)*%
X91250000Y-84250000D03*
%TO.P,C22,2*%
%TO.N,GND*%
X93150000Y-84250000D03*
%TD*%
D13*
%TO.P,C21,1*%
%TO.N,+3.3V*%
X91000000Y-82150000D03*
%TO.P,C21,2*%
%TO.N,GND*%
X91000000Y-80250000D03*
%TD*%
D14*
%TO.P,D3,1,K*%
%TO.N,GND*%
X81875000Y-57040000D03*
%TO.P,D3,2,A*%
%TO.N,Net-(D3-A)*%
X83750000Y-57040000D03*
%TD*%
D15*
%TO.P,R6,1*%
%TO.N,Net-(D3-A)*%
X86175000Y-57000000D03*
%TO.P,R6,2*%
%TO.N,+3.3V*%
X88000000Y-57000000D03*
%TD*%
D13*
%TO.P,C5,1*%
%TO.N,+3.3V*%
X83500000Y-69000000D03*
%TO.P,C5,2*%
%TO.N,GND*%
X83500000Y-67100000D03*
%TD*%
D16*
%TO.P,U4,1,VDDIO*%
%TO.N,+3.3V*%
X86460000Y-84500000D03*
D17*
%TO.P,U4,2,SCL/SPC*%
%TO.N,SCL1*%
X86490000Y-85080000D03*
%TO.P,U4,3,VDDIO*%
%TO.N,+3.3V*%
X86490000Y-85510000D03*
%TO.P,U4,4,SDA/SDI/SDO*%
%TO.N,SDA1*%
X86490000Y-85940000D03*
%TO.P,U4,5,SDO_A/G*%
%TO.N,GND*%
X86490000Y-86370000D03*
D16*
%TO.P,U4,6,SDO_M*%
X86460000Y-86950000D03*
%TO.P,U4,7,CS_A/G*%
%TO.N,+3.3V*%
X86890000Y-86950000D03*
%TO.P,U4,8,CS_M*%
X87320000Y-86950000D03*
%TO.P,U4,9,DRDY_M*%
%TO.N,unconnected-(U4-DRDY_M-Pad9)*%
X87750000Y-86950000D03*
%TO.P,U4,10,INT_M*%
%TO.N,unconnected-(U4-INT_M-Pad10)*%
X88180000Y-86950000D03*
%TO.P,U4,11,INT1_A/G*%
%TO.N,unconnected-(U4-INT1_A{slash}G-Pad11)*%
X88610000Y-86950000D03*
%TO.P,U4,12,INT2_A/G*%
%TO.N,unconnected-(U4-INT2_A{slash}G-Pad12)*%
X89040000Y-86950000D03*
%TO.P,U4,13,DEN_A/G*%
%TO.N,unconnected-(U4-DEN_A{slash}G-Pad13)*%
X89470000Y-86950000D03*
D17*
%TO.P,U4,14,RES*%
%TO.N,GND*%
X89440000Y-86370000D03*
%TO.P,U4,15,RES*%
X89440000Y-85940000D03*
%TO.P,U4,16,RES*%
X89440000Y-85510000D03*
%TO.P,U4,17,RES*%
X89440000Y-85080000D03*
D16*
%TO.P,U4,18,RES*%
X89470000Y-84500000D03*
%TO.P,U4,19,GND*%
X89040000Y-84500000D03*
%TO.P,U4,20,GND*%
X88610000Y-84500000D03*
%TO.P,U4,21,CAP*%
%TO.N,Net-(U4-CAP)*%
X88180000Y-84500000D03*
%TO.P,U4,22,VDD*%
%TO.N,+3.3V*%
X87750000Y-84500000D03*
%TO.P,U4,23,VDD*%
X87320000Y-84500000D03*
%TO.P,U4,24,C1*%
%TO.N,Net-(U4-C1)*%
X86890000Y-84500000D03*
%TD*%
D12*
%TO.P,C17,1*%
%TO.N,+3.3V*%
X81350000Y-77500000D03*
%TO.P,C17,2*%
%TO.N,GND*%
X83250000Y-77500000D03*
%TD*%
%TO.P,C8,2*%
%TO.N,GND*%
X78750000Y-78750000D03*
%TO.P,C8,1*%
%TO.N,+3.3V*%
X76850000Y-78750000D03*
%TD*%
D10*
%TO.P,J3,1,Pin_1*%
%TO.N,+3.3V*%
X99500000Y-49750000D03*
D11*
%TO.P,J3,2,Pin_2*%
%TO.N,/SCL2*%
X99500000Y-52290000D03*
%TO.P,J3,3,Pin_3*%
%TO.N,/SDA2*%
X99500000Y-54830000D03*
%TO.P,J3,4,Pin_4*%
%TO.N,GND*%
X99500000Y-57370000D03*
%TD*%
D14*
%TO.P,D1,1,K*%
%TO.N,GND*%
X81875000Y-50960000D03*
%TO.P,D1,2,A*%
%TO.N,Net-(D1-A)*%
X83750000Y-50960000D03*
%TD*%
D18*
%TO.P,R9,1*%
%TO.N,/GPS/VCC_RF*%
X117250000Y-64250000D03*
%TO.P,R9,2*%
%TO.N,/GPS/Antenna Power*%
X117250000Y-66075000D03*
%TD*%
D12*
%TO.P,C2,1*%
%TO.N,+3.3V*%
X86350000Y-65250000D03*
%TO.P,C2,2*%
%TO.N,GND*%
X88250000Y-65250000D03*
%TD*%
D19*
%TO.P,C10,1*%
%TO.N,/RCC_IN*%
X79000000Y-66750000D03*
%TO.P,C10,2*%
%TO.N,GND*%
X79000000Y-68650000D03*
%TD*%
D20*
%TO.P,C9,1*%
%TO.N,NRST*%
X111250000Y-57250000D03*
%TO.P,C9,2*%
%TO.N,GND*%
X109350000Y-57250000D03*
%TD*%
D10*
%TO.P,J4,1,Pin_1*%
%TO.N,+3.3V*%
X94250000Y-49750000D03*
D11*
%TO.P,J4,2,Pin_2*%
%TO.N,/SCL2*%
X94250000Y-52290000D03*
%TO.P,J4,3,Pin_3*%
%TO.N,/SDA2*%
X94250000Y-54830000D03*
%TO.P,J4,4,Pin_4*%
%TO.N,GND*%
X94250000Y-57370000D03*
%TD*%
D12*
%TO.P,C1,1*%
%TO.N,+3.3V*%
X86350000Y-63000000D03*
%TO.P,C1,2*%
%TO.N,GND*%
X88250000Y-63000000D03*
%TD*%
D13*
%TO.P,C6,1*%
%TO.N,+3.3VA*%
X83500000Y-74400000D03*
%TO.P,C6,2*%
%TO.N,GND*%
X83500000Y-72500000D03*
%TD*%
D21*
%TO.P,U3,1,GND*%
%TO.N,GND*%
X104880000Y-65980000D03*
D22*
%TO.P,U3,2,TXD*%
%TO.N,unconnected-(U3-TXD-Pad2)*%
X104880000Y-67080000D03*
%TO.P,U3,3,RXD*%
%TO.N,unconnected-(U3-RXD-Pad3)*%
X104880000Y-68180000D03*
%TO.P,U3,4,TIMEPULSE*%
%TO.N,unconnected-(U3-TIMEPULSE-Pad4)*%
X104880000Y-69280000D03*
%TO.P,U3,5,EXTINT*%
%TO.N,unconnected-(U3-EXTINT-Pad5)*%
X104880000Y-70380000D03*
%TO.P,U3,6,V_BCKP*%
%TO.N,/GPS/V_BCKP*%
X104880000Y-71480000D03*
%TO.P,U3,7,VCC_IO*%
%TO.N,+3.3V*%
X104880000Y-72580000D03*
%TO.P,U3,8,VCC*%
X104880000Y-73680000D03*
D21*
%TO.P,U3,9,~{RESET}*%
%TO.N,unconnected-(U3-~{RESET}-Pad9)*%
X104880000Y-74780000D03*
%TO.P,U3,10,GND*%
%TO.N,GND*%
X114380000Y-74780000D03*
D22*
%TO.P,U3,11,RF_IN*%
%TO.N,/GPS/RF_IN*%
X114380000Y-73680000D03*
%TO.P,U3,12,GND*%
%TO.N,GND*%
X114380000Y-72580000D03*
%TO.P,U3,13,LNA_EN*%
%TO.N,unconnected-(U3-LNA_EN-Pad13)*%
X114380000Y-71480000D03*
%TO.P,U3,14,VCC_RF*%
%TO.N,/GPS/VCC_RF*%
X114380000Y-70380000D03*
%TO.P,U3,15,VIO_SEL*%
%TO.N,unconnected-(U3-VIO_SEL-Pad15)*%
X114380000Y-69280000D03*
%TO.P,U3,16,SDA*%
%TO.N,SDA1*%
X114380000Y-68180000D03*
%TO.P,U3,17,SCL*%
%TO.N,SCL1*%
X114380000Y-67080000D03*
D21*
%TO.P,U3,18,~{SAFEBOOT}*%
%TO.N,unconnected-(U3-~{SAFEBOOT}-Pad18)*%
X114380000Y-65980000D03*
%TD*%
D23*
%TO.P,J1,1,VTref*%
%TO.N,+3.3V*%
X109730000Y-48920000D03*
D24*
%TO.P,J1,2,SWDIO/TMS*%
%TO.N,SWDIO*%
X111000000Y-48920000D03*
%TO.P,J1,3,GND*%
%TO.N,GND*%
X109730000Y-50190000D03*
%TO.P,J1,4,SWCLK/TCK*%
%TO.N,SWCLK*%
X111000000Y-50190000D03*
%TO.P,J1,5,GND*%
%TO.N,GND*%
X109730000Y-51460000D03*
%TO.P,J1,6,SWO/TDO*%
%TO.N,SWO*%
X111000000Y-51460000D03*
%TO.P,J1,7,KEY*%
%TO.N,unconnected-(J1-KEY-Pad7)*%
X109730000Y-52730000D03*
%TO.P,J1,8,NC/TDI*%
%TO.N,unconnected-(J1-NC{slash}TDI-Pad8)*%
X111000000Y-52730000D03*
%TO.P,J1,9,GNDDetect*%
%TO.N,GND*%
X109730000Y-54000000D03*
%TO.P,J1,10,~{RESET}*%
%TO.N,NRST*%
X111000000Y-54000000D03*
%TD*%
D15*
%TO.P,R4,1*%
%TO.N,+3.3V*%
X103425000Y-60750000D03*
%TO.P,R4,2*%
%TO.N,SDA1*%
X105250000Y-60750000D03*
%TD*%
%TO.P,R2,1*%
%TO.N,Net-(D1-A)*%
X86175000Y-51000000D03*
%TO.P,R2,2*%
%TO.N,/SENS_OK_LED*%
X88000000Y-51000000D03*
%TD*%
D13*
%TO.P,C19,1*%
%TO.N,+3.3V*%
X83500000Y-85900000D03*
%TO.P,C19,2*%
%TO.N,GND*%
X83500000Y-84000000D03*
%TD*%
%TO.P,C11,1*%
%TO.N,/RCC_OUT*%
X79000000Y-72400000D03*
%TO.P,C11,2*%
%TO.N,GND*%
X79000000Y-70500000D03*
%TD*%
D25*
%TO.P,U2,1,VDD*%
%TO.N,+3.3V*%
X86850000Y-89450000D03*
%TO.P,U2,2,PS*%
X86850000Y-90700000D03*
%TO.P,U2,3,GND*%
%TO.N,GND*%
X86850000Y-91950000D03*
%TO.P,U2,4,CSB*%
X86850000Y-93200000D03*
%TO.P,U2,5,CSB*%
X89000000Y-93200000D03*
%TO.P,U2,6,SDO*%
%TO.N,unconnected-(U2-SDO-Pad6)*%
X89000000Y-91950000D03*
%TO.P,U2,7,SDI/SDA*%
%TO.N,SDA1*%
X89000000Y-90700000D03*
%TO.P,U2,8,SCLK*%
%TO.N,SCL1*%
X89000000Y-89450000D03*
%TD*%
D15*
%TO.P,R5,1*%
%TO.N,+3.3V*%
X103425000Y-63000000D03*
%TO.P,R5,2*%
%TO.N,SCL1*%
X105250000Y-63000000D03*
%TD*%
D26*
%TO.P,FB1,1*%
%TO.N,+3.3VA*%
X78750000Y-76750000D03*
%TO.P,FB1,2*%
%TO.N,+3.3V*%
X76625000Y-76750000D03*
%TD*%
D19*
%TO.P,C16,1*%
%TO.N,/GPS/Antenna Power*%
X117250000Y-68000000D03*
%TO.P,C16,2*%
%TO.N,GND*%
X117250000Y-69900000D03*
%TD*%
%TO.P,C12,1*%
%TO.N,+3.3V*%
X84500000Y-89250000D03*
%TO.P,C12,2*%
%TO.N,GND*%
X84500000Y-91150000D03*
%TD*%
D20*
%TO.P,C7,1*%
%TO.N,+3.3VA*%
X78750000Y-74875000D03*
%TO.P,C7,2*%
%TO.N,GND*%
X76850000Y-74875000D03*
%TD*%
D14*
%TO.P,D2,1,K*%
%TO.N,GND*%
X81875000Y-54000000D03*
%TO.P,D2,2,A*%
%TO.N,Net-(D2-A)*%
X83750000Y-54000000D03*
%TD*%
D27*
%TO.P,L1,1,1*%
%TO.N,/GPS/Antenna Power*%
X117250000Y-71750000D03*
%TO.P,L1,2,2*%
%TO.N,/GPS/RF_IN*%
X117250000Y-73875000D03*
%TD*%
D13*
%TO.P,C20,1*%
%TO.N,+3.3V*%
X88750000Y-82150000D03*
%TO.P,C20,2*%
%TO.N,GND*%
X88750000Y-80250000D03*
%TD*%
%TO.P,C18,1*%
%TO.N,+3.3V*%
X84250000Y-82150000D03*
%TO.P,C18,2*%
%TO.N,GND*%
X84250000Y-80250000D03*
%TD*%
D20*
%TO.P,C15,1*%
%TO.N,+3.3V*%
X102500000Y-73250000D03*
%TO.P,C15,2*%
%TO.N,GND*%
X100600000Y-73250000D03*
%TD*%
D10*
%TO.P,J2,1,Pin_1*%
%TO.N,+3.3V*%
X104750000Y-49720000D03*
D11*
%TO.P,J2,2,Pin_2*%
%TO.N,SCL1*%
X104750000Y-52260000D03*
%TO.P,J2,3,Pin_3*%
%TO.N,SDA1*%
X104750000Y-54800000D03*
%TO.P,J2,4,Pin_4*%
%TO.N,GND*%
X104750000Y-57340000D03*
%TD*%
D28*
%TO.P,Y1,1,1*%
%TO.N,/RCC_IN*%
X76500000Y-69150000D03*
%TO.P,Y1,2,2*%
%TO.N,GND*%
X74850000Y-69150000D03*
%TO.P,Y1,3,3*%
%TO.N,/RCC_OUT*%
X74850000Y-70400000D03*
%TO.P,Y1,4,4*%
%TO.N,GND*%
X76500000Y-70400000D03*
%TD*%
D20*
%TO.P,C14,1*%
%TO.N,+3.3V*%
X102500000Y-75750000D03*
%TO.P,C14,2*%
%TO.N,GND*%
X100600000Y-75750000D03*
%TD*%
D13*
%TO.P,C23,1*%
%TO.N,Net-(U4-C1)*%
X86500000Y-82150000D03*
%TO.P,C23,2*%
%TO.N,GND*%
X86500000Y-80250000D03*
%TD*%
D15*
%TO.P,R1,1*%
%TO.N,GND*%
X81675000Y-62750000D03*
%TO.P,R1,2*%
%TO.N,/BOOT0*%
X83500000Y-62750000D03*
%TD*%
D20*
%TO.P,C4,1*%
%TO.N,+3.3V*%
X94400000Y-78000000D03*
%TO.P,C4,2*%
%TO.N,GND*%
X92500000Y-78000000D03*
%TD*%
D29*
%TO.P,Antenna1,1,FEED*%
%TO.N,/GPS/RF_IN*%
X108750000Y-81600000D03*
D30*
%TO.P,Antenna1,2,PCB_Trace*%
%TO.N,GND*%
X113250000Y-83000000D03*
%TO.P,Antenna1,3*%
X104250000Y-83000000D03*
%TO.P,Antenna1,4*%
X113250000Y-87500000D03*
%TO.P,Antenna1,5*%
X108750000Y-87500000D03*
%TO.P,Antenna1,6*%
X104250000Y-87500000D03*
%TO.P,Antenna1,7*%
X113250000Y-92000000D03*
%TO.P,Antenna1,8*%
X108750000Y-92000000D03*
%TO.P,Antenna1,9*%
X104250000Y-92000000D03*
%TD*%
D19*
%TO.P,C3,1*%
%TO.N,+3.3V*%
X96250000Y-68100000D03*
%TO.P,C3,2*%
%TO.N,GND*%
X96250000Y-70000000D03*
%TD*%
D15*
%TO.P,R3,1*%
%TO.N,Net-(D2-A)*%
X86175000Y-54000000D03*
%TO.P,R3,2*%
%TO.N,/BOOT_LED*%
X88000000Y-54000000D03*
%TD*%
D31*
%TO.P,U1,1,VBAT*%
%TO.N,+3.3V*%
X85750000Y-68912500D03*
%TO.P,U1,2,PC13*%
%TO.N,unconnected-(U1-PC13-Pad2)*%
X85750000Y-69412500D03*
%TO.P,U1,3,PC14*%
%TO.N,unconnected-(U1-PC14-Pad3)*%
X85750000Y-69912500D03*
%TO.P,U1,4,PC15*%
%TO.N,unconnected-(U1-PC15-Pad4)*%
X85750000Y-70412500D03*
%TO.P,U1,5,PD0*%
%TO.N,/RCC_IN*%
X85750000Y-70912500D03*
%TO.P,U1,6,PD1*%
%TO.N,/RCC_OUT*%
X85750000Y-71412500D03*
%TO.P,U1,7,NRST*%
%TO.N,NRST*%
X85750000Y-71912500D03*
%TO.P,U1,8,VSSA*%
%TO.N,GND*%
X85750000Y-72412500D03*
%TO.P,U1,9,VDDA*%
%TO.N,+3.3VA*%
X85750000Y-72912500D03*
%TO.P,U1,10,PA0*%
%TO.N,unconnected-(U1-PA0-Pad10)*%
X85750000Y-73412500D03*
%TO.P,U1,11,PA1*%
%TO.N,unconnected-(U1-PA1-Pad11)*%
X85750000Y-73912500D03*
%TO.P,U1,12,PA2*%
%TO.N,PA2*%
X85750000Y-74412500D03*
D32*
%TO.P,U1,13,PA3*%
%TO.N,PA3*%
X87162500Y-75825000D03*
%TO.P,U1,14,PA4*%
%TO.N,SWCLK*%
X87662500Y-75825000D03*
%TO.P,U1,15,PA5*%
%TO.N,unconnected-(U1-PA5-Pad15)*%
X88162500Y-75825000D03*
%TO.P,U1,16,PA6*%
%TO.N,unconnected-(U1-PA6-Pad16)*%
X88662500Y-75825000D03*
%TO.P,U1,17,PA7*%
%TO.N,unconnected-(U1-PA7-Pad17)*%
X89162500Y-75825000D03*
%TO.P,U1,18,PB0*%
%TO.N,unconnected-(U1-PB0-Pad18)*%
X89662500Y-75825000D03*
%TO.P,U1,19,PB1*%
%TO.N,unconnected-(U1-PB1-Pad19)*%
X90162500Y-75825000D03*
%TO.P,U1,20,PB2*%
%TO.N,unconnected-(U1-PB2-Pad20)*%
X90662500Y-75825000D03*
%TO.P,U1,21,PB10*%
%TO.N,/SCL2*%
X91162500Y-75825000D03*
%TO.P,U1,22,PB11*%
%TO.N,/SDA2*%
X91662500Y-75825000D03*
%TO.P,U1,23,VSS*%
%TO.N,GND*%
X92162500Y-75825000D03*
%TO.P,U1,24,VDD*%
%TO.N,+3.3V*%
X92662500Y-75825000D03*
D31*
%TO.P,U1,25,PB12*%
%TO.N,PB12*%
X94075000Y-74412500D03*
%TO.P,U1,26,PB13*%
%TO.N,unconnected-(U1-PB13-Pad26)*%
X94075000Y-73912500D03*
%TO.P,U1,27,PB14*%
%TO.N,PB14*%
X94075000Y-73412500D03*
%TO.P,U1,28,PB15*%
%TO.N,PB15*%
X94075000Y-72912500D03*
%TO.P,U1,29,PA8*%
%TO.N,/SENS_OK_LED*%
X94075000Y-72412500D03*
%TO.P,U1,30,PA9*%
%TO.N,PA9*%
X94075000Y-71912500D03*
%TO.P,U1,31,PA10*%
%TO.N,unconnected-(U1-PA10-Pad31)*%
X94075000Y-71412500D03*
%TO.P,U1,32,PA11*%
%TO.N,/BOOT_LED*%
X94075000Y-70912500D03*
%TO.P,U1,33,PA12*%
%TO.N,unconnected-(U1-PA12-Pad33)*%
X94075000Y-70412500D03*
%TO.P,U1,34,PA13*%
%TO.N,SWDIO*%
X94075000Y-69912500D03*
%TO.P,U1,35,VSS*%
%TO.N,GND*%
X94075000Y-69412500D03*
%TO.P,U1,36,VDD*%
%TO.N,+3.3V*%
X94075000Y-68912500D03*
D32*
%TO.P,U1,37,PA14*%
%TO.N,unconnected-(U1-PA14-Pad37)*%
X92662500Y-67500000D03*
%TO.P,U1,38,PA15*%
%TO.N,unconnected-(U1-PA15-Pad38)*%
X92162500Y-67500000D03*
%TO.P,U1,39,PB3*%
%TO.N,SWO*%
X91662500Y-67500000D03*
%TO.P,U1,40,PB4*%
%TO.N,unconnected-(U1-PB4-Pad40)*%
X91162500Y-67500000D03*
%TO.P,U1,41,PB5*%
%TO.N,unconnected-(U1-PB5-Pad41)*%
X90662500Y-67500000D03*
%TO.P,U1,42,PB6*%
%TO.N,SCL1*%
X90162500Y-67500000D03*
%TO.P,U1,43,PB7*%
%TO.N,SDA1*%
X89662500Y-67500000D03*
%TO.P,U1,44,BOOT0*%
%TO.N,/BOOT0*%
X89162500Y-67500000D03*
%TO.P,U1,45,PB8*%
%TO.N,unconnected-(U1-PB8-Pad45)*%
X88662500Y-67500000D03*
%TO.P,U1,46,PB9*%
%TO.N,unconnected-(U1-PB9-Pad46)*%
X88162500Y-67500000D03*
%TO.P,U1,47,VSS*%
%TO.N,GND*%
X87662500Y-67500000D03*
%TO.P,U1,48,VDD*%
%TO.N,+3.3V*%
X87162500Y-67500000D03*
%TD*%
D13*
%TO.P,C13,1*%
%TO.N,/GPS/V_BCKP*%
X102250000Y-70950000D03*
%TO.P,C13,2*%
%TO.N,GND*%
X102250000Y-69050000D03*
%TD*%
D33*
%TO.N,PB12*%
X92575000Y-74384974D03*
%TO.N,PA2*%
X83125000Y-75875000D03*
X73875000Y-78750000D03*
%TO.N,PA3*%
X86250000Y-76125000D03*
%TO.N,PB14*%
X83125000Y-94125000D03*
X95750000Y-74125000D03*
%TO.N,PB15*%
X82750000Y-95250000D03*
X96625000Y-73325000D03*
%TO.N,PA9*%
X92619975Y-73119975D03*
%TO.N,+3.3V*%
X81125000Y-82750000D03*
%TO.N,GND*%
X100250000Y-80750000D03*
X92500000Y-86125000D03*
X100250000Y-87750000D03*
X100250000Y-85000000D03*
X82000000Y-84000000D03*
X80750000Y-53500000D03*
X100250000Y-92750000D03*
X100250000Y-90250000D03*
X82812500Y-91437500D03*
X74500000Y-67750000D03*
X80500000Y-80750000D03*
X97250000Y-71000000D03*
X81750000Y-72750000D03*
X85500000Y-87250000D03*
X80500000Y-70500000D03*
X74250000Y-74625000D03*
X88500000Y-61250000D03*
X99000000Y-74500000D03*
X112000000Y-71750000D03*
X100250000Y-82750000D03*
X82000000Y-65250000D03*
%TO.N,+3.3V*%
X80250000Y-78750000D03*
X82500000Y-90000000D03*
X104000000Y-76500000D03*
X93000000Y-81500000D03*
X95000000Y-79500000D03*
X87000000Y-68750000D03*
X97750000Y-67500000D03*
X102750000Y-64500000D03*
X88000000Y-58750000D03*
%TO.N,/GPS/V_BCKP*%
X109500000Y-71480000D03*
%TO.N,NRST*%
X91750000Y-71250000D03*
X114500000Y-57250000D03*
%TO.N,SWCLK*%
X115250000Y-50750000D03*
X90250000Y-78000000D03*
%TO.N,SWO*%
X93000000Y-65000000D03*
X108450000Y-59750000D03*
%TO.N,SWDIO*%
X92250000Y-70000000D03*
%TO.N,/SCL2*%
X88250000Y-73750000D03*
%TO.N,/SDA2*%
X88250000Y-72500000D03*
%TO.N,SCL1*%
X85250000Y-84500000D03*
X111250000Y-60750000D03*
X90500000Y-89500000D03*
X90750000Y-70000000D03*
%TO.N,SDA1*%
X109750000Y-60750000D03*
X89000000Y-70000000D03*
X82500000Y-88750000D03*
X90500000Y-90750000D03*
%TD*%
D34*
%TO.N,SDA1*%
X110500000Y-66250000D02*
X112430000Y-68180000D01*
X112430000Y-68180000D02*
X114380000Y-68180000D01*
X110500000Y-61500000D02*
X110500000Y-66250000D01*
X109750000Y-60750000D02*
X110500000Y-61500000D01*
%TO.N,SCL1*%
X113205000Y-67080000D02*
X114380000Y-67080000D01*
X112250000Y-61750000D02*
X112250000Y-66125000D01*
X112250000Y-66125000D02*
X113205000Y-67080000D01*
X111250000Y-60750000D02*
X112250000Y-61750000D01*
D35*
%TO.N,/GPS/VCC_RF*%
X116250000Y-64250000D02*
X117250000Y-64250000D01*
X115875000Y-64625000D02*
X116250000Y-64250000D01*
X115280000Y-70380000D02*
X115875000Y-69785000D01*
X115875000Y-69785000D02*
X115875000Y-64625000D01*
X114380000Y-70380000D02*
X115280000Y-70380000D01*
D36*
%TO.N,/GPS/RF_IN*%
X116000000Y-73875000D02*
X115805000Y-73680000D01*
X117250000Y-73875000D02*
X116000000Y-73875000D01*
X115805000Y-73680000D02*
X114380000Y-73680000D01*
D34*
%TO.N,/SDA2*%
X91662500Y-73912500D02*
X90250000Y-72500000D01*
X91662500Y-75825000D02*
X91662500Y-73912500D01*
X90250000Y-72500000D02*
X88250000Y-72500000D01*
%TO.N,PB12*%
X92575000Y-74384974D02*
X92602526Y-74412500D01*
X92602526Y-74412500D02*
X94075000Y-74412500D01*
%TO.N,PA9*%
X93234380Y-71912500D02*
X94075000Y-71912500D01*
X92619975Y-72526905D02*
X93234380Y-71912500D01*
X92619975Y-73119975D02*
X92619975Y-72526905D01*
%TO.N,PB15*%
X80250000Y-89750000D02*
X78125000Y-87625000D01*
X82750000Y-95250000D02*
X80250000Y-92750000D01*
X80250000Y-92750000D02*
X80250000Y-89750000D01*
%TO.N,/SENS_OK_LED*%
X89375000Y-51000000D02*
X88000000Y-51000000D01*
X94250000Y-60750000D02*
X92125000Y-58625000D01*
X92125000Y-53750000D02*
X89375000Y-51000000D01*
X97750000Y-60750000D02*
X94250000Y-60750000D01*
X99500000Y-62500000D02*
X97750000Y-60750000D01*
X92125000Y-58625000D02*
X92125000Y-53750000D01*
X95837500Y-72625000D02*
X98125000Y-72625000D01*
X95625000Y-72412500D02*
X95837500Y-72625000D01*
X98125000Y-72625000D02*
X99500000Y-71250000D01*
X94075000Y-72412500D02*
X95625000Y-72412500D01*
X99500000Y-71250000D02*
X99500000Y-62500000D01*
%TO.N,/BOOT_LED*%
X89875000Y-54000000D02*
X88000000Y-54000000D01*
X90875000Y-55000000D02*
X89875000Y-54000000D01*
X90875000Y-58750000D02*
X90875000Y-55000000D01*
X94250000Y-62125000D02*
X90875000Y-58750000D01*
X97000000Y-62125000D02*
X94250000Y-62125000D01*
X98500000Y-63625000D02*
X97000000Y-62125000D01*
X98500000Y-71000000D02*
X98500000Y-63625000D01*
X97800000Y-71700000D02*
X98500000Y-71000000D01*
X96250000Y-71250000D02*
X96700000Y-71700000D01*
X96700000Y-71700000D02*
X97800000Y-71700000D01*
X94915620Y-70912500D02*
X95253120Y-71250000D01*
X94075000Y-70912500D02*
X94915620Y-70912500D01*
X95253120Y-71250000D02*
X96250000Y-71250000D01*
D37*
%TO.N,GND*%
X92255000Y-86370000D02*
X89440000Y-86370000D01*
D35*
X92500000Y-86125000D02*
X93150000Y-85475000D01*
X93150000Y-85475000D02*
X93150000Y-84250000D01*
D37*
X92500000Y-86125000D02*
X92255000Y-86370000D01*
D34*
%TO.N,PB14*%
X81125000Y-92125000D02*
X81125000Y-88085000D01*
X83125000Y-94125000D02*
X81125000Y-92125000D01*
X81125000Y-88085000D02*
X78125000Y-85085000D01*
%TO.N,PA2*%
X73875000Y-83375000D02*
X75585000Y-85085000D01*
X73875000Y-78750000D02*
X73875000Y-83375000D01*
X84287500Y-75875000D02*
X83125000Y-75875000D01*
X85750000Y-74412500D02*
X84287500Y-75875000D01*
%TO.N,PA3*%
X86550000Y-75825000D02*
X86250000Y-76125000D01*
X87162500Y-75825000D02*
X86550000Y-75825000D01*
%TO.N,PB14*%
X95037500Y-73412500D02*
X95750000Y-74125000D01*
X94075000Y-73412500D02*
X95037500Y-73412500D01*
%TO.N,PB15*%
X95830393Y-73325000D02*
X96625000Y-73325000D01*
X95417893Y-72912500D02*
X95830393Y-73325000D01*
X94075000Y-72912500D02*
X95417893Y-72912500D01*
D35*
%TO.N,+3.3V*%
X76625000Y-77625000D02*
X76625000Y-76750000D01*
X76850000Y-77850000D02*
X76625000Y-77625000D01*
X76850000Y-78750000D02*
X76850000Y-77850000D01*
X78125000Y-80500000D02*
X78125000Y-82545000D01*
X76850000Y-79225000D02*
X78125000Y-80500000D01*
X76850000Y-78750000D02*
X76850000Y-79225000D01*
X80920000Y-82545000D02*
X78125000Y-82545000D01*
X81125000Y-82750000D02*
X80920000Y-82545000D01*
X80250000Y-78750000D02*
X81350000Y-77650000D01*
X81350000Y-77650000D02*
X81350000Y-77500000D01*
%TO.N,GND*%
X82000000Y-79250000D02*
X83250000Y-79250000D01*
X80500000Y-80750000D02*
X82000000Y-79250000D01*
X80500000Y-80750000D02*
X78750000Y-79000000D01*
X78750000Y-79000000D02*
X78750000Y-78750000D01*
%TO.N,+3.3VA*%
X81350000Y-74400000D02*
X83500000Y-74400000D01*
X78750000Y-74750000D02*
X81000000Y-74750000D01*
X78750000Y-76750000D02*
X78750000Y-74750000D01*
X81000000Y-74750000D02*
X81350000Y-74400000D01*
%TO.N,GND*%
X74500000Y-74875000D02*
X76850000Y-74875000D01*
X74250000Y-74625000D02*
X74500000Y-74875000D01*
%TO.N,+3.3V*%
X82500000Y-90000000D02*
X83050000Y-89450000D01*
X83050000Y-89450000D02*
X85500000Y-89450000D01*
%TO.N,GND*%
X82812500Y-91437500D02*
X83100000Y-91150000D01*
X83100000Y-91150000D02*
X84500000Y-91150000D01*
%TO.N,+3.3V*%
X82400000Y-85900000D02*
X83500000Y-85900000D01*
X81125000Y-84625000D02*
X82400000Y-85900000D01*
X81125000Y-82750000D02*
X81125000Y-84625000D01*
X81725000Y-82150000D02*
X84250000Y-82150000D01*
X81125000Y-82750000D02*
X81725000Y-82150000D01*
%TO.N,GND*%
X81875000Y-50960000D02*
X81875000Y-54000000D01*
X100600000Y-73250000D02*
X100600000Y-74500000D01*
D34*
X109750000Y-54020000D02*
X109730000Y-54000000D01*
D35*
X83500000Y-84000000D02*
X82000000Y-84000000D01*
D37*
X86460000Y-86400000D02*
X86460000Y-86950000D01*
X89040000Y-84500000D02*
X89470000Y-84500000D01*
D35*
X83250000Y-79250000D02*
X84250000Y-80250000D01*
X79000000Y-70500000D02*
X80500000Y-70500000D01*
X117250000Y-69900000D02*
X116000000Y-71150000D01*
D34*
X94915620Y-69412500D02*
X95162500Y-69659380D01*
D35*
X113030000Y-73750000D02*
X113030000Y-72880000D01*
X86850000Y-93200000D02*
X89000000Y-93200000D01*
D34*
X87662500Y-66587500D02*
X88250000Y-66000000D01*
D35*
X74850000Y-68100000D02*
X74500000Y-67750000D01*
D37*
X85500000Y-86750000D02*
X85880000Y-86370000D01*
D35*
X88250000Y-61500000D02*
X88500000Y-61250000D01*
X85300000Y-91950000D02*
X84500000Y-91150000D01*
D34*
X96250000Y-70000000D02*
X97250000Y-71000000D01*
D35*
X100600000Y-74500000D02*
X100600000Y-75750000D01*
D34*
X95162500Y-69659380D02*
X95162500Y-69662500D01*
D35*
X86850000Y-91950000D02*
X85300000Y-91950000D01*
D37*
X85500000Y-87250000D02*
X85500000Y-86750000D01*
D34*
X95500000Y-70000000D02*
X96250000Y-70000000D01*
D35*
X82000000Y-65250000D02*
X81675000Y-64925000D01*
X88250000Y-63000000D02*
X88250000Y-65250000D01*
X116000000Y-71150000D02*
X116000000Y-71750000D01*
X103020000Y-65980000D02*
X102250000Y-66750000D01*
X115170000Y-72580000D02*
X114380000Y-72580000D01*
X116000000Y-71750000D02*
X115170000Y-72580000D01*
X79000000Y-68650000D02*
X79000000Y-70500000D01*
D34*
X92162500Y-77662500D02*
X92500000Y-78000000D01*
D37*
X88610000Y-84500000D02*
X89040000Y-84500000D01*
D35*
X113030000Y-73750000D02*
X113030000Y-73205220D01*
X104880000Y-65980000D02*
X103020000Y-65980000D01*
D34*
X109350000Y-57250000D02*
X109350000Y-55900000D01*
D35*
X81250000Y-54000000D02*
X80750000Y-53500000D01*
D34*
X94075000Y-69412500D02*
X94915620Y-69412500D01*
D35*
X76600000Y-70500000D02*
X76500000Y-70400000D01*
X81875000Y-54000000D02*
X81250000Y-54000000D01*
X83500000Y-72500000D02*
X82000000Y-72500000D01*
X102250000Y-66750000D02*
X102250000Y-69050000D01*
D37*
X85880000Y-86370000D02*
X86490000Y-86370000D01*
X89440000Y-85080000D02*
X89440000Y-85510000D01*
D35*
X106130000Y-65980000D02*
X104880000Y-65980000D01*
D34*
X85750000Y-72412500D02*
X83337500Y-72412500D01*
D35*
X113030000Y-74154780D02*
X113030000Y-73750000D01*
X74850000Y-69150000D02*
X74850000Y-68100000D01*
D34*
X92162500Y-75825000D02*
X92162500Y-77662500D01*
X109750000Y-55500000D02*
X109750000Y-54020000D01*
D35*
X113655220Y-74780000D02*
X113030000Y-74154780D01*
X82000000Y-72500000D02*
X81750000Y-72750000D01*
X113030000Y-72880000D02*
X106130000Y-65980000D01*
X100600000Y-74500000D02*
X99000000Y-74500000D01*
D37*
X86490000Y-86370000D02*
X86460000Y-86400000D01*
D35*
X86500000Y-80250000D02*
X88750000Y-80250000D01*
D37*
X89440000Y-85940000D02*
X89440000Y-86370000D01*
D35*
X84250000Y-80250000D02*
X86500000Y-80250000D01*
X92500000Y-79500000D02*
X92500000Y-78000000D01*
D34*
X109350000Y-55900000D02*
X109750000Y-55500000D01*
D35*
X83500000Y-67100000D02*
X83500000Y-66750000D01*
D37*
X89470000Y-84500000D02*
X89470000Y-85050000D01*
D34*
X83337500Y-72412500D02*
X83250000Y-72500000D01*
X87662500Y-67500000D02*
X87662500Y-66587500D01*
D35*
X86850000Y-91950000D02*
X86850000Y-93200000D01*
X88750000Y-80250000D02*
X91000000Y-80250000D01*
X81675000Y-64925000D02*
X81675000Y-62750000D01*
X91750000Y-80250000D02*
X92500000Y-79500000D01*
D37*
X89470000Y-85050000D02*
X89440000Y-85080000D01*
D35*
X91000000Y-80250000D02*
X91750000Y-80250000D01*
X114380000Y-74780000D02*
X113655220Y-74780000D01*
X81875000Y-54000000D02*
X81875000Y-57040000D01*
X113655220Y-72580000D02*
X114380000Y-72580000D01*
X113030000Y-73205220D02*
X113655220Y-72580000D01*
D34*
X88250000Y-66000000D02*
X88250000Y-65250000D01*
D37*
X89440000Y-85510000D02*
X89440000Y-85940000D01*
D35*
X83500000Y-66750000D02*
X82000000Y-65250000D01*
X88250000Y-63000000D02*
X88250000Y-61500000D01*
X79000000Y-70500000D02*
X76600000Y-70500000D01*
D34*
X95162500Y-69662500D02*
X95500000Y-70000000D01*
D35*
X83250000Y-77500000D02*
X83250000Y-79250000D01*
D37*
%TO.N,+3.3V*%
X84500000Y-88250000D02*
X84750000Y-88000000D01*
X87320000Y-83580000D02*
X88750000Y-82150000D01*
D35*
X85500000Y-89450000D02*
X84700000Y-89450000D01*
D37*
X88900000Y-82150000D02*
X88750000Y-82150000D01*
D34*
X94075000Y-68912500D02*
X94837500Y-68912500D01*
D35*
X103170000Y-72580000D02*
X104880000Y-72580000D01*
D34*
X95650000Y-68100000D02*
X96250000Y-68100000D01*
D35*
X94400000Y-78900000D02*
X94400000Y-78000000D01*
D37*
X87750000Y-84500000D02*
X87750000Y-83750000D01*
D34*
X103425000Y-60750000D02*
X103425000Y-63000000D01*
D37*
X86460000Y-84360000D02*
X84250000Y-82150000D01*
D35*
X93000000Y-81500000D02*
X92350000Y-82150000D01*
X84700000Y-89450000D02*
X84500000Y-89250000D01*
D37*
X88250000Y-83250000D02*
X89900000Y-83250000D01*
D34*
X97150000Y-68100000D02*
X97750000Y-67500000D01*
X86837500Y-68912500D02*
X87000000Y-68750000D01*
D37*
X84500000Y-89250000D02*
X84500000Y-88250000D01*
D34*
X87162500Y-67500000D02*
X87162500Y-68587500D01*
X83587500Y-68912500D02*
X83500000Y-69000000D01*
X94837500Y-68912500D02*
X95650000Y-68100000D01*
D35*
X104070000Y-73680000D02*
X103500000Y-74250000D01*
X95000000Y-79500000D02*
X94400000Y-78900000D01*
D34*
X92662500Y-76262500D02*
X94400000Y-78000000D01*
X85750000Y-68912500D02*
X83587500Y-68912500D01*
D35*
X102500000Y-75750000D02*
X102500000Y-73250000D01*
D37*
X89900000Y-83250000D02*
X91000000Y-82150000D01*
D35*
X86850000Y-89450000D02*
X85500000Y-89450000D01*
X102500000Y-73250000D02*
X103170000Y-72580000D01*
D34*
X87162500Y-66662500D02*
X86350000Y-65850000D01*
D37*
X84750000Y-88000000D02*
X86300000Y-88000000D01*
D35*
X102500000Y-75750000D02*
X103250000Y-76500000D01*
D37*
X86300000Y-88000000D02*
X86890000Y-87410000D01*
D35*
X103250000Y-76500000D02*
X104000000Y-76500000D01*
X103000000Y-75750000D02*
X102500000Y-75750000D01*
D34*
X103425000Y-63825000D02*
X102750000Y-64500000D01*
D35*
X103500000Y-74250000D02*
X103500000Y-75250000D01*
D37*
X85100000Y-85900000D02*
X83500000Y-85900000D01*
X87320000Y-86950000D02*
X86890000Y-86950000D01*
D35*
X104880000Y-73680000D02*
X104070000Y-73680000D01*
D34*
X103425000Y-63000000D02*
X103425000Y-63825000D01*
D37*
X86490000Y-85510000D02*
X85490000Y-85510000D01*
D34*
X86350000Y-65850000D02*
X86350000Y-65250000D01*
X87162500Y-68587500D02*
X87000000Y-68750000D01*
D35*
X103500000Y-75250000D02*
X103000000Y-75750000D01*
D37*
X85490000Y-85510000D02*
X85100000Y-85900000D01*
D35*
X92000000Y-82150000D02*
X91000000Y-82150000D01*
X92350000Y-82150000D02*
X92000000Y-82150000D01*
D34*
X85750000Y-68912500D02*
X86837500Y-68912500D01*
D37*
X86460000Y-84500000D02*
X86460000Y-84360000D01*
D35*
X92000000Y-82150000D02*
X88750000Y-82150000D01*
D34*
X87162500Y-67500000D02*
X87162500Y-66662500D01*
D35*
X88000000Y-57000000D02*
X88000000Y-58750000D01*
D37*
X87320000Y-84500000D02*
X87320000Y-83580000D01*
D35*
X86850000Y-90700000D02*
X86850000Y-89450000D01*
D34*
X96250000Y-68100000D02*
X97150000Y-68100000D01*
X92662500Y-75825000D02*
X92662500Y-76262500D01*
D37*
X87750000Y-83750000D02*
X88250000Y-83250000D01*
D35*
X86350000Y-63000000D02*
X86350000Y-65250000D01*
D37*
X86890000Y-87410000D02*
X86890000Y-86950000D01*
D34*
%TO.N,/RCC_IN*%
X85750000Y-70912500D02*
X84909380Y-70912500D01*
X83996880Y-70000000D02*
X82000000Y-70000000D01*
X77750000Y-66750000D02*
X76500000Y-68000000D01*
X81250000Y-69250000D02*
X81250000Y-67500000D01*
X84909380Y-70912500D02*
X84498440Y-70501560D01*
X80500000Y-66750000D02*
X79000000Y-66750000D01*
X76500000Y-68000000D02*
X76500000Y-69150000D01*
X82000000Y-70000000D02*
X81250000Y-69250000D01*
X84250000Y-70253120D02*
X83996880Y-70000000D01*
X81250000Y-67500000D02*
X80500000Y-66750000D01*
X79000000Y-66750000D02*
X77750000Y-66750000D01*
X84498440Y-70501560D02*
X84250000Y-70253120D01*
%TO.N,/RCC_OUT*%
X75775000Y-72400000D02*
X74850000Y-71475000D01*
X79000000Y-72400000D02*
X75775000Y-72400000D01*
X81100000Y-72400000D02*
X79000000Y-72400000D01*
X82087500Y-71412500D02*
X81100000Y-72400000D01*
X85750000Y-71412500D02*
X82087500Y-71412500D01*
X74850000Y-71475000D02*
X74850000Y-70400000D01*
%TO.N,/BOOT0*%
X83500000Y-62750000D02*
X86000000Y-60250000D01*
X89000000Y-60250000D02*
X89500000Y-60750000D01*
X89162500Y-66587500D02*
X89162500Y-67500000D01*
X89500000Y-60750000D02*
X89500000Y-66250000D01*
X89500000Y-66250000D02*
X89162500Y-66587500D01*
X86000000Y-60250000D02*
X89000000Y-60250000D01*
D36*
%TO.N,/GPS/RF_IN*%
X110750000Y-77750000D02*
X116000000Y-77750000D01*
X108750000Y-81600000D02*
X108750000Y-79750000D01*
X108750000Y-79750000D02*
X110750000Y-77750000D01*
X116000000Y-77750000D02*
X117250000Y-76500000D01*
X117250000Y-76500000D02*
X117250000Y-73875000D01*
D35*
%TO.N,/GPS/V_BCKP*%
X103200000Y-70950000D02*
X102250000Y-70950000D01*
X104880000Y-71480000D02*
X103730000Y-71480000D01*
X103730000Y-71480000D02*
X103200000Y-70950000D01*
X109500000Y-71480000D02*
X104880000Y-71480000D01*
D34*
%TO.N,+3.3VA*%
X84662500Y-73159380D02*
X84662500Y-73587500D01*
X83850000Y-74400000D02*
X83250000Y-74400000D01*
X85750000Y-72912500D02*
X84909380Y-72912500D01*
X84909380Y-72912500D02*
X84662500Y-73159380D01*
X84662500Y-73587500D02*
X83850000Y-74400000D01*
%TO.N,NRST*%
X85750000Y-71912500D02*
X87087500Y-71912500D01*
X111250000Y-57250000D02*
X111250000Y-55750000D01*
X111250000Y-55750000D02*
X111000000Y-55500000D01*
X87087500Y-71912500D02*
X87750000Y-71250000D01*
X87750000Y-71250000D02*
X91750000Y-71250000D01*
X111000000Y-55500000D02*
X111000000Y-54000000D01*
X114500000Y-57250000D02*
X111250000Y-57250000D01*
D35*
%TO.N,/GPS/Antenna Power*%
X117250000Y-66075000D02*
X117250000Y-68000000D01*
X118250000Y-68000000D02*
X119000000Y-68750000D01*
X118500000Y-71750000D02*
X117250000Y-71750000D01*
X119000000Y-68750000D02*
X119000000Y-71250000D01*
X117250000Y-68000000D02*
X118250000Y-68000000D01*
X119000000Y-71250000D02*
X118500000Y-71750000D01*
D37*
%TO.N,Net-(U4-CAP)*%
X90650000Y-83650000D02*
X91250000Y-84250000D01*
X88180000Y-84500000D02*
X88180000Y-84030686D01*
X88560686Y-83650000D02*
X90650000Y-83650000D01*
X88180000Y-84030686D02*
X88560686Y-83650000D01*
%TO.N,Net-(U4-C1)*%
X86500000Y-83500000D02*
X86500000Y-82150000D01*
X86890000Y-83890000D02*
X86500000Y-83500000D01*
X86460000Y-82190000D02*
X86500000Y-82150000D01*
X86890000Y-84500000D02*
X86890000Y-83890000D01*
D35*
%TO.N,Net-(D1-A)*%
X83790000Y-51000000D02*
X83750000Y-50960000D01*
X86175000Y-51000000D02*
X83790000Y-51000000D01*
%TO.N,Net-(D2-A)*%
X86175000Y-54000000D02*
X83750000Y-54000000D01*
%TO.N,Net-(D3-A)*%
X86175000Y-57000000D02*
X83790000Y-57000000D01*
X83790000Y-57000000D02*
X83750000Y-57040000D01*
D34*
%TO.N,SWCLK*%
X114690000Y-50190000D02*
X111000000Y-50190000D01*
X87662500Y-76665620D02*
X88996880Y-78000000D01*
X115250000Y-50750000D02*
X114690000Y-50190000D01*
X87662500Y-75825000D02*
X87662500Y-76665620D01*
X88996880Y-78000000D02*
X90250000Y-78000000D01*
%TO.N,SWO*%
X114210000Y-51460000D02*
X111000000Y-51460000D01*
X116000000Y-53250000D02*
X114210000Y-51460000D01*
X114750000Y-59750000D02*
X116000000Y-58500000D01*
X108450000Y-59750000D02*
X114750000Y-59750000D01*
X91662500Y-67500000D02*
X91662500Y-66337500D01*
X116000000Y-58500000D02*
X116000000Y-53250000D01*
X91662500Y-66337500D02*
X93000000Y-65000000D01*
%TO.N,SWDIO*%
X92337500Y-69912500D02*
X92250000Y-70000000D01*
X94075000Y-69912500D02*
X92337500Y-69912500D01*
%TO.N,/SCL2*%
X89928120Y-73750000D02*
X88250000Y-73750000D01*
X91162500Y-75825000D02*
X91162500Y-74984380D01*
X91162500Y-74984380D02*
X89928120Y-73750000D01*
%TO.N,SCL1*%
X105250000Y-63000000D02*
X106500000Y-63000000D01*
X106500000Y-63000000D02*
X107500000Y-62000000D01*
X107500000Y-62000000D02*
X107500000Y-53250000D01*
D37*
X90450000Y-89450000D02*
X90500000Y-89500000D01*
D34*
X90750000Y-69000000D02*
X90750000Y-70000000D01*
D37*
X86490000Y-85080000D02*
X85830000Y-85080000D01*
X89000000Y-89450000D02*
X90450000Y-89450000D01*
D34*
X90162500Y-67500000D02*
X90162500Y-68412500D01*
X90162500Y-68412500D02*
X90750000Y-69000000D01*
X107500000Y-53250000D02*
X106510000Y-52260000D01*
X106510000Y-52260000D02*
X104220000Y-52260000D01*
D37*
X85830000Y-85080000D02*
X85250000Y-84500000D01*
%TO.N,SDA1*%
X84000000Y-87250000D02*
X82500000Y-88750000D01*
X84434315Y-87250000D02*
X84000000Y-87250000D01*
D34*
X106050000Y-54800000D02*
X104220000Y-54800000D01*
X105250000Y-60750000D02*
X106000000Y-60750000D01*
X106000000Y-60750000D02*
X106500000Y-60250000D01*
X89000000Y-70000000D02*
X89003120Y-69996880D01*
X89003120Y-69996880D02*
X89003120Y-69000000D01*
X106500000Y-60250000D02*
X106500000Y-55250000D01*
D37*
X86490000Y-85940000D02*
X85744315Y-85940000D01*
D34*
X106500000Y-55250000D02*
X106050000Y-54800000D01*
X89003120Y-69000000D02*
X89662500Y-68340620D01*
D37*
X90450000Y-90700000D02*
X90500000Y-90750000D01*
X89000000Y-90700000D02*
X90450000Y-90700000D01*
X85744315Y-85940000D02*
X84434315Y-87250000D01*
D34*
X89662500Y-68340620D02*
X89662500Y-67500000D01*
%TD*%
%TA.AperFunction,Conductor*%
%TO.N,GND*%
G36*
X105329086Y-79250608D02*
G01*
X105507775Y-79268391D01*
X105531850Y-79273231D01*
X105697603Y-79324064D01*
X105720253Y-79333554D01*
X105872745Y-79416062D01*
X105893076Y-79429827D01*
X106026319Y-79540772D01*
X106043536Y-79558270D01*
X106152298Y-79693297D01*
X106165733Y-79713853D01*
X106225092Y-79827955D01*
X106248605Y-79873151D01*
X106253731Y-79884327D01*
X107248553Y-82371386D01*
X107248559Y-82371397D01*
X107500000Y-83000000D01*
X109231722Y-83000000D01*
X110000000Y-83000000D01*
X110800546Y-79997946D01*
X110804056Y-79986892D01*
X110841983Y-79884327D01*
X110862832Y-79827945D01*
X110872856Y-79807075D01*
X110957180Y-79666833D01*
X110970912Y-79648193D01*
X111079857Y-79526095D01*
X111096833Y-79510324D01*
X111226581Y-79410641D01*
X111246190Y-79398304D01*
X111392239Y-79324496D01*
X111413798Y-79316027D01*
X111571021Y-79270688D01*
X111593787Y-79266377D01*
X111738017Y-79252840D01*
X111762493Y-79250543D01*
X111774080Y-79250000D01*
X115493907Y-79250000D01*
X115506061Y-79250597D01*
X115682941Y-79268018D01*
X115706769Y-79272757D01*
X115871001Y-79322576D01*
X115893453Y-79331877D01*
X116027543Y-79403549D01*
X116044798Y-79412772D01*
X116065008Y-79426276D01*
X116176061Y-79517414D01*
X116197666Y-79535145D01*
X116214854Y-79552333D01*
X116323722Y-79684989D01*
X116337227Y-79705201D01*
X116418121Y-79856543D01*
X116427424Y-79879001D01*
X116477240Y-80043224D01*
X116481982Y-80067065D01*
X116499403Y-80243938D01*
X116500000Y-80256092D01*
X116500000Y-93743907D01*
X116499403Y-93756061D01*
X116481982Y-93932934D01*
X116477240Y-93956775D01*
X116427424Y-94120998D01*
X116418121Y-94143456D01*
X116337227Y-94294798D01*
X116323722Y-94315010D01*
X116214854Y-94447666D01*
X116197666Y-94464854D01*
X116065010Y-94573722D01*
X116044798Y-94587227D01*
X115893456Y-94668121D01*
X115870998Y-94677424D01*
X115706775Y-94727240D01*
X115682934Y-94731982D01*
X115506061Y-94749403D01*
X115493907Y-94750000D01*
X99756093Y-94750000D01*
X99743939Y-94749403D01*
X99567065Y-94731982D01*
X99543224Y-94727240D01*
X99379001Y-94677424D01*
X99356543Y-94668121D01*
X99205201Y-94587227D01*
X99184989Y-94573722D01*
X99052333Y-94464854D01*
X99035145Y-94447666D01*
X98926277Y-94315010D01*
X98912772Y-94294798D01*
X98831878Y-94143456D01*
X98822575Y-94120998D01*
X98772757Y-93956769D01*
X98768018Y-93932941D01*
X98750597Y-93756061D01*
X98750000Y-93743907D01*
X98750000Y-80256092D01*
X98750597Y-80243938D01*
X98768018Y-80067056D01*
X98772757Y-80043232D01*
X98822577Y-79878994D01*
X98831875Y-79856549D01*
X98912775Y-79705195D01*
X98926272Y-79684995D01*
X99035149Y-79552328D01*
X99052328Y-79535149D01*
X99184995Y-79426272D01*
X99205195Y-79412775D01*
X99356549Y-79331875D01*
X99378994Y-79322577D01*
X99543232Y-79272757D01*
X99567056Y-79268018D01*
X99743939Y-79250597D01*
X99756093Y-79250000D01*
X105316808Y-79250000D01*
X105329086Y-79250608D01*
G37*
%TD.AperFunction*%
%TD*%
M02*
