%TF.GenerationSoftware,KiCad,Pcbnew,8.0.8*%
%TF.CreationDate,2025-02-12T11:11:18-05:00*%
%TF.ProjectId,high-power-module,68696768-2d70-46f7-9765-722d6d6f6475,rev?*%
%TF.SameCoordinates,Original*%
%TF.FileFunction,Copper,L3,Inr*%
%TF.FilePolarity,Positive*%
%FSLAX46Y46*%
G04 Gerber Fmt 4.6, Leading zero omitted, Abs format (unit mm)*
G04 Created by KiCad (PCBNEW 8.0.8) date 2025-02-12 11:11:18*
%MOMM*%
%LPD*%
G01*
G04 APERTURE LIST*
G04 Aperture macros list*
%AMRoundRect*
0 Rectangle with rounded corners*
0 $1 Rounding radius*
0 $2 $3 $4 $5 $6 $7 $8 $9 X,Y pos of 4 corners*
0 Add a 4 corners polygon primitive as box body*
4,1,4,$2,$3,$4,$5,$6,$7,$8,$9,$2,$3,0*
0 Add four circle primitives for the rounded corners*
1,1,$1+$1,$2,$3*
1,1,$1+$1,$4,$5*
1,1,$1+$1,$6,$7*
1,1,$1+$1,$8,$9*
0 Add four rect primitives between the rounded corners*
20,1,$1+$1,$2,$3,$4,$5,0*
20,1,$1+$1,$4,$5,$6,$7,0*
20,1,$1+$1,$6,$7,$8,$9,0*
20,1,$1+$1,$8,$9,$2,$3,0*%
G04 Aperture macros list end*
%TA.AperFunction,ComponentPad*%
%ADD10R,1.700000X1.700000*%
%TD*%
%TA.AperFunction,ComponentPad*%
%ADD11O,1.700000X1.700000*%
%TD*%
%TA.AperFunction,ComponentPad*%
%ADD12C,0.500000*%
%TD*%
%TA.AperFunction,ComponentPad*%
%ADD13RoundRect,0.250000X-0.600000X-0.725000X0.600000X-0.725000X0.600000X0.725000X-0.600000X0.725000X0*%
%TD*%
%TA.AperFunction,ComponentPad*%
%ADD14O,1.700000X1.950000*%
%TD*%
%TA.AperFunction,HeatsinkPad*%
%ADD15C,0.500000*%
%TD*%
%TA.AperFunction,ViaPad*%
%ADD16C,0.600000*%
%TD*%
G04 APERTURE END LIST*
D10*
%TO.N,GND*%
%TO.C,J4*%
X136260000Y-99100000D03*
D11*
%TO.N,Net-(J4-Pin_2)*%
X138800000Y-99100000D03*
%TD*%
D12*
%TO.N,GND*%
%TO.C,PA1*%
X127450000Y-89510000D03*
X128090000Y-89510000D03*
X128730000Y-89510000D03*
X129370000Y-89510000D03*
X127450000Y-88870000D03*
X128090000Y-88870000D03*
X128730000Y-88870000D03*
X129370000Y-88870000D03*
X127450000Y-88230000D03*
X128090000Y-88230000D03*
X128730000Y-88230000D03*
X129370000Y-88230000D03*
X127450000Y-87590000D03*
X128090000Y-87590000D03*
X128730000Y-87590000D03*
X129370000Y-87590000D03*
%TD*%
D13*
%TO.N,SDN*%
%TO.C,J3*%
X127900000Y-103800000D03*
D14*
%TO.N,GPIO3*%
X130400000Y-103800000D03*
%TO.N,GPIO2*%
X132900000Y-103800000D03*
%TO.N,GPIO1*%
X135400000Y-103800000D03*
%TO.N,GPIO0*%
X137900000Y-103800000D03*
%TO.N,IRQ*%
X140400000Y-103800000D03*
%TD*%
D13*
%TO.N,CS*%
%TO.C,J1*%
X146300000Y-103800000D03*
D14*
%TO.N,MOSI*%
X148800000Y-103800000D03*
%TO.N,MISO*%
X151300000Y-103800000D03*
%TO.N,SCLK*%
X153800000Y-103800000D03*
%TO.N,GND*%
X156300000Y-103800000D03*
%TO.N,+5V*%
X158800000Y-103800000D03*
%TD*%
D15*
%TO.N,GND*%
%TO.C,U1*%
X147150000Y-92125000D03*
X147150000Y-94225000D03*
X149250000Y-92125000D03*
X149250000Y-94225000D03*
%TD*%
D12*
%TO.N,GND*%
%TO.C,U3*%
X157250001Y-81645000D03*
X158200000Y-81645000D03*
X159149999Y-81645000D03*
%TD*%
D16*
%TO.N,GND*%
X161022804Y-81077196D03*
X146100000Y-74700000D03*
X158400000Y-76043600D03*
X134500000Y-88750000D03*
X153250000Y-84300000D03*
X151000000Y-97450000D03*
X140600000Y-93550000D03*
X144450000Y-72400000D03*
X126600000Y-92650000D03*
X154300000Y-81400000D03*
X139500000Y-87893600D03*
X136500000Y-77100000D03*
X132000000Y-83400000D03*
X150150000Y-74750000D03*
X154800000Y-85000000D03*
X136900000Y-72400000D03*
X136400000Y-89900000D03*
X155650000Y-85000000D03*
X132227920Y-98727920D03*
X134741634Y-87555100D03*
X159500000Y-85450000D03*
X151000000Y-98450000D03*
X160300000Y-76900000D03*
X149900000Y-87000000D03*
X133933429Y-93058540D03*
X139800000Y-94000000D03*
X140400000Y-77300000D03*
X160193600Y-85200000D03*
X141500000Y-77200000D03*
X137600000Y-84500000D03*
X133600000Y-87900000D03*
X138600000Y-87600000D03*
X138600000Y-82100000D03*
X128700000Y-80000000D03*
X135300000Y-89000000D03*
X131800000Y-89700000D03*
X130797804Y-80102196D03*
X134800000Y-76700000D03*
X148200000Y-74800000D03*
X140700000Y-89400000D03*
%TO.N,Net-(PA1-Vbias)*%
X126500000Y-90650000D03*
%TO.N,+5V*%
X126550000Y-79850000D03*
X153496000Y-78200000D03*
%TO.N,GPIO3*%
X147000000Y-89600000D03*
X135100000Y-80500000D03*
%TO.N,GPIO2*%
X147600000Y-90300000D03*
X141900000Y-80500000D03*
%TO.N,+3.3V*%
X151200000Y-86800000D03*
X146150000Y-96550000D03*
%TO.N,CS*%
X151000000Y-91900000D03*
%TO.N,GPIO1*%
X150100000Y-95000000D03*
%TO.N,GPIO0*%
X150100000Y-95800000D03*
%TO.N,IRQ*%
X151126223Y-95273777D03*
%TO.N,MOSI*%
X151800000Y-92300000D03*
%TO.N,SCLK*%
X153600000Y-94100000D03*
%TO.N,MISO*%
X152500000Y-93300000D03*
%TO.N,SDN*%
X146300000Y-88900000D03*
%TO.N,Net-(PA1-Iref)*%
X126461012Y-86343488D03*
%TD*%
%TA.AperFunction,Conductor*%
%TO.N,GND*%
G36*
X160104418Y-70900816D02*
G01*
X160304561Y-70915130D01*
X160322063Y-70917647D01*
X160513797Y-70959355D01*
X160530755Y-70964334D01*
X160714609Y-71032909D01*
X160730701Y-71040259D01*
X160902904Y-71134288D01*
X160917784Y-71143849D01*
X161074867Y-71261441D01*
X161088237Y-71273027D01*
X161226972Y-71411762D01*
X161238558Y-71425132D01*
X161356146Y-71582210D01*
X161365711Y-71597095D01*
X161459740Y-71769298D01*
X161467090Y-71785390D01*
X161535662Y-71969236D01*
X161540646Y-71986212D01*
X161582351Y-72177931D01*
X161584869Y-72195442D01*
X161599184Y-72395580D01*
X161599500Y-72404427D01*
X161599500Y-105995572D01*
X161599184Y-106004419D01*
X161584869Y-106204557D01*
X161582351Y-106222068D01*
X161540646Y-106413787D01*
X161535662Y-106430763D01*
X161467090Y-106614609D01*
X161459740Y-106630701D01*
X161365711Y-106802904D01*
X161356146Y-106817789D01*
X161238558Y-106974867D01*
X161226972Y-106988237D01*
X161088237Y-107126972D01*
X161074867Y-107138558D01*
X160917789Y-107256146D01*
X160902904Y-107265711D01*
X160730701Y-107359740D01*
X160714609Y-107367090D01*
X160530763Y-107435662D01*
X160513787Y-107440646D01*
X160322068Y-107482351D01*
X160304557Y-107484869D01*
X160123779Y-107497799D01*
X160104417Y-107499184D01*
X160095572Y-107499500D01*
X126704428Y-107499500D01*
X126695582Y-107499184D01*
X126673622Y-107497613D01*
X126495442Y-107484869D01*
X126477931Y-107482351D01*
X126286212Y-107440646D01*
X126269236Y-107435662D01*
X126085390Y-107367090D01*
X126069298Y-107359740D01*
X125897095Y-107265711D01*
X125882210Y-107256146D01*
X125725132Y-107138558D01*
X125711762Y-107126972D01*
X125573027Y-106988237D01*
X125561441Y-106974867D01*
X125443849Y-106817784D01*
X125434288Y-106802904D01*
X125340259Y-106630701D01*
X125332909Y-106614609D01*
X125272091Y-106451551D01*
X125264334Y-106430755D01*
X125259355Y-106413797D01*
X125217647Y-106222063D01*
X125215130Y-106204556D01*
X125200816Y-106004418D01*
X125200500Y-105995572D01*
X125200500Y-103024983D01*
X126549500Y-103024983D01*
X126549500Y-104575001D01*
X126549501Y-104575018D01*
X126560000Y-104677796D01*
X126560001Y-104677799D01*
X126605894Y-104816294D01*
X126615186Y-104844334D01*
X126707288Y-104993656D01*
X126831344Y-105117712D01*
X126980666Y-105209814D01*
X127147203Y-105264999D01*
X127249991Y-105275500D01*
X128550008Y-105275499D01*
X128652797Y-105264999D01*
X128819334Y-105209814D01*
X128968656Y-105117712D01*
X129092712Y-104993656D01*
X129184814Y-104844334D01*
X129184814Y-104844331D01*
X129188178Y-104838879D01*
X129240126Y-104792154D01*
X129309088Y-104780931D01*
X129373170Y-104808774D01*
X129381398Y-104816294D01*
X129520213Y-104955109D01*
X129692179Y-105080048D01*
X129692181Y-105080049D01*
X129692184Y-105080051D01*
X129881588Y-105176557D01*
X130083757Y-105242246D01*
X130293713Y-105275500D01*
X130293714Y-105275500D01*
X130506286Y-105275500D01*
X130506287Y-105275500D01*
X130716243Y-105242246D01*
X130918412Y-105176557D01*
X131107816Y-105080051D01*
X131129789Y-105064086D01*
X131279786Y-104955109D01*
X131279788Y-104955106D01*
X131279792Y-104955104D01*
X131430104Y-104804792D01*
X131549683Y-104640204D01*
X131605011Y-104597540D01*
X131674624Y-104591561D01*
X131736420Y-104624166D01*
X131750313Y-104640199D01*
X131852560Y-104780931D01*
X131869896Y-104804792D01*
X132020213Y-104955109D01*
X132192179Y-105080048D01*
X132192181Y-105080049D01*
X132192184Y-105080051D01*
X132381588Y-105176557D01*
X132583757Y-105242246D01*
X132793713Y-105275500D01*
X132793714Y-105275500D01*
X133006286Y-105275500D01*
X133006287Y-105275500D01*
X133216243Y-105242246D01*
X133418412Y-105176557D01*
X133607816Y-105080051D01*
X133629789Y-105064086D01*
X133779786Y-104955109D01*
X133779788Y-104955106D01*
X133779792Y-104955104D01*
X133930104Y-104804792D01*
X134049683Y-104640204D01*
X134105011Y-104597540D01*
X134174624Y-104591561D01*
X134236420Y-104624166D01*
X134250313Y-104640199D01*
X134352560Y-104780931D01*
X134369896Y-104804792D01*
X134520213Y-104955109D01*
X134692179Y-105080048D01*
X134692181Y-105080049D01*
X134692184Y-105080051D01*
X134881588Y-105176557D01*
X135083757Y-105242246D01*
X135293713Y-105275500D01*
X135293714Y-105275500D01*
X135506286Y-105275500D01*
X135506287Y-105275500D01*
X135716243Y-105242246D01*
X135918412Y-105176557D01*
X136107816Y-105080051D01*
X136129789Y-105064086D01*
X136279786Y-104955109D01*
X136279788Y-104955106D01*
X136279792Y-104955104D01*
X136430104Y-104804792D01*
X136549683Y-104640204D01*
X136605011Y-104597540D01*
X136674624Y-104591561D01*
X136736420Y-104624166D01*
X136750313Y-104640199D01*
X136852560Y-104780931D01*
X136869896Y-104804792D01*
X137020213Y-104955109D01*
X137192179Y-105080048D01*
X137192181Y-105080049D01*
X137192184Y-105080051D01*
X137381588Y-105176557D01*
X137583757Y-105242246D01*
X137793713Y-105275500D01*
X137793714Y-105275500D01*
X138006286Y-105275500D01*
X138006287Y-105275500D01*
X138216243Y-105242246D01*
X138418412Y-105176557D01*
X138607816Y-105080051D01*
X138629789Y-105064086D01*
X138779786Y-104955109D01*
X138779788Y-104955106D01*
X138779792Y-104955104D01*
X138930104Y-104804792D01*
X139049683Y-104640204D01*
X139105011Y-104597540D01*
X139174624Y-104591561D01*
X139236420Y-104624166D01*
X139250313Y-104640199D01*
X139352560Y-104780931D01*
X139369896Y-104804792D01*
X139520213Y-104955109D01*
X139692179Y-105080048D01*
X139692181Y-105080049D01*
X139692184Y-105080051D01*
X139881588Y-105176557D01*
X140083757Y-105242246D01*
X140293713Y-105275500D01*
X140293714Y-105275500D01*
X140506286Y-105275500D01*
X140506287Y-105275500D01*
X140716243Y-105242246D01*
X140918412Y-105176557D01*
X141107816Y-105080051D01*
X141129789Y-105064086D01*
X141279786Y-104955109D01*
X141279788Y-104955106D01*
X141279792Y-104955104D01*
X141430104Y-104804792D01*
X141430106Y-104804788D01*
X141430109Y-104804786D01*
X141555048Y-104632820D01*
X141555047Y-104632820D01*
X141555051Y-104632816D01*
X141651557Y-104443412D01*
X141717246Y-104241243D01*
X141750500Y-104031287D01*
X141750500Y-103568713D01*
X141717246Y-103358757D01*
X141651557Y-103156588D01*
X141584501Y-103024983D01*
X144949500Y-103024983D01*
X144949500Y-104575001D01*
X144949501Y-104575018D01*
X144960000Y-104677796D01*
X144960001Y-104677799D01*
X145005894Y-104816294D01*
X145015186Y-104844334D01*
X145107288Y-104993656D01*
X145231344Y-105117712D01*
X145380666Y-105209814D01*
X145547203Y-105264999D01*
X145649991Y-105275500D01*
X146950008Y-105275499D01*
X147052797Y-105264999D01*
X147219334Y-105209814D01*
X147368656Y-105117712D01*
X147492712Y-104993656D01*
X147584814Y-104844334D01*
X147584814Y-104844331D01*
X147588178Y-104838879D01*
X147640126Y-104792154D01*
X147709088Y-104780931D01*
X147773170Y-104808774D01*
X147781398Y-104816294D01*
X147920213Y-104955109D01*
X148092179Y-105080048D01*
X148092181Y-105080049D01*
X148092184Y-105080051D01*
X148281588Y-105176557D01*
X148483757Y-105242246D01*
X148693713Y-105275500D01*
X148693714Y-105275500D01*
X148906286Y-105275500D01*
X148906287Y-105275500D01*
X149116243Y-105242246D01*
X149318412Y-105176557D01*
X149507816Y-105080051D01*
X149529789Y-105064086D01*
X149679786Y-104955109D01*
X149679788Y-104955106D01*
X149679792Y-104955104D01*
X149830104Y-104804792D01*
X149949683Y-104640204D01*
X150005011Y-104597540D01*
X150074624Y-104591561D01*
X150136420Y-104624166D01*
X150150313Y-104640199D01*
X150252560Y-104780931D01*
X150269896Y-104804792D01*
X150420213Y-104955109D01*
X150592179Y-105080048D01*
X150592181Y-105080049D01*
X150592184Y-105080051D01*
X150781588Y-105176557D01*
X150983757Y-105242246D01*
X151193713Y-105275500D01*
X151193714Y-105275500D01*
X151406286Y-105275500D01*
X151406287Y-105275500D01*
X151616243Y-105242246D01*
X151818412Y-105176557D01*
X152007816Y-105080051D01*
X152029789Y-105064086D01*
X152179786Y-104955109D01*
X152179788Y-104955106D01*
X152179792Y-104955104D01*
X152330104Y-104804792D01*
X152449683Y-104640204D01*
X152505011Y-104597540D01*
X152574624Y-104591561D01*
X152636420Y-104624166D01*
X152650313Y-104640199D01*
X152752560Y-104780931D01*
X152769896Y-104804792D01*
X152920213Y-104955109D01*
X153092179Y-105080048D01*
X153092181Y-105080049D01*
X153092184Y-105080051D01*
X153281588Y-105176557D01*
X153483757Y-105242246D01*
X153693713Y-105275500D01*
X153693714Y-105275500D01*
X153906286Y-105275500D01*
X153906287Y-105275500D01*
X154116243Y-105242246D01*
X154318412Y-105176557D01*
X154507816Y-105080051D01*
X154529789Y-105064086D01*
X154679786Y-104955109D01*
X154679788Y-104955106D01*
X154679792Y-104955104D01*
X154830104Y-104804792D01*
X154949991Y-104639779D01*
X155005320Y-104597115D01*
X155074933Y-104591136D01*
X155136729Y-104623741D01*
X155150627Y-104639781D01*
X155270272Y-104804459D01*
X155270276Y-104804464D01*
X155420535Y-104954723D01*
X155420540Y-104954727D01*
X155592442Y-105079620D01*
X155781782Y-105176095D01*
X155983871Y-105241757D01*
X156050000Y-105252231D01*
X156050000Y-104204145D01*
X156116657Y-104242630D01*
X156237465Y-104275000D01*
X156362535Y-104275000D01*
X156483343Y-104242630D01*
X156550000Y-104204145D01*
X156550000Y-105252230D01*
X156616126Y-105241757D01*
X156616129Y-105241757D01*
X156818217Y-105176095D01*
X157007557Y-105079620D01*
X157179459Y-104954727D01*
X157179464Y-104954723D01*
X157329721Y-104804466D01*
X157449371Y-104639781D01*
X157504701Y-104597115D01*
X157574314Y-104591136D01*
X157636110Y-104623741D01*
X157650008Y-104639781D01*
X157769890Y-104804785D01*
X157769894Y-104804790D01*
X157920213Y-104955109D01*
X158092179Y-105080048D01*
X158092181Y-105080049D01*
X158092184Y-105080051D01*
X158281588Y-105176557D01*
X158483757Y-105242246D01*
X158693713Y-105275500D01*
X158693714Y-105275500D01*
X158906286Y-105275500D01*
X158906287Y-105275500D01*
X159116243Y-105242246D01*
X159318412Y-105176557D01*
X159507816Y-105080051D01*
X159529789Y-105064086D01*
X159679786Y-104955109D01*
X159679788Y-104955106D01*
X159679792Y-104955104D01*
X159830104Y-104804792D01*
X159830106Y-104804788D01*
X159830109Y-104804786D01*
X159955048Y-104632820D01*
X159955047Y-104632820D01*
X159955051Y-104632816D01*
X160051557Y-104443412D01*
X160117246Y-104241243D01*
X160150500Y-104031287D01*
X160150500Y-103568713D01*
X160117246Y-103358757D01*
X160051557Y-103156588D01*
X159955051Y-102967184D01*
X159955049Y-102967181D01*
X159955048Y-102967179D01*
X159830109Y-102795213D01*
X159679786Y-102644890D01*
X159507820Y-102519951D01*
X159318414Y-102423444D01*
X159318413Y-102423443D01*
X159318412Y-102423443D01*
X159116243Y-102357754D01*
X159116241Y-102357753D01*
X159116240Y-102357753D01*
X158954957Y-102332208D01*
X158906287Y-102324500D01*
X158693713Y-102324500D01*
X158645042Y-102332208D01*
X158483760Y-102357753D01*
X158281585Y-102423444D01*
X158092179Y-102519951D01*
X157920213Y-102644890D01*
X157769894Y-102795209D01*
X157769890Y-102795214D01*
X157650008Y-102960218D01*
X157594678Y-103002884D01*
X157525065Y-103008863D01*
X157463270Y-102976257D01*
X157449372Y-102960218D01*
X157329727Y-102795540D01*
X157329723Y-102795535D01*
X157179464Y-102645276D01*
X157179459Y-102645272D01*
X157007557Y-102520379D01*
X156818215Y-102423903D01*
X156616124Y-102358241D01*
X156550000Y-102347768D01*
X156550000Y-103395854D01*
X156483343Y-103357370D01*
X156362535Y-103325000D01*
X156237465Y-103325000D01*
X156116657Y-103357370D01*
X156050000Y-103395854D01*
X156050000Y-102347768D01*
X156049999Y-102347768D01*
X155983875Y-102358241D01*
X155781784Y-102423903D01*
X155592442Y-102520379D01*
X155420540Y-102645272D01*
X155420535Y-102645276D01*
X155270276Y-102795535D01*
X155270272Y-102795540D01*
X155150627Y-102960218D01*
X155095297Y-103002884D01*
X155025684Y-103008863D01*
X154963889Y-102976257D01*
X154949991Y-102960218D01*
X154830109Y-102795214D01*
X154830105Y-102795209D01*
X154679786Y-102644890D01*
X154507820Y-102519951D01*
X154318414Y-102423444D01*
X154318413Y-102423443D01*
X154318412Y-102423443D01*
X154116243Y-102357754D01*
X154116241Y-102357753D01*
X154116240Y-102357753D01*
X153954957Y-102332208D01*
X153906287Y-102324500D01*
X153693713Y-102324500D01*
X153645042Y-102332208D01*
X153483760Y-102357753D01*
X153281585Y-102423444D01*
X153092179Y-102519951D01*
X152920213Y-102644890D01*
X152769894Y-102795209D01*
X152769890Y-102795214D01*
X152650318Y-102959793D01*
X152594989Y-103002459D01*
X152525375Y-103008438D01*
X152463580Y-102975833D01*
X152449682Y-102959793D01*
X152330109Y-102795214D01*
X152330105Y-102795209D01*
X152179786Y-102644890D01*
X152007820Y-102519951D01*
X151818414Y-102423444D01*
X151818413Y-102423443D01*
X151818412Y-102423443D01*
X151616243Y-102357754D01*
X151616241Y-102357753D01*
X151616240Y-102357753D01*
X151454957Y-102332208D01*
X151406287Y-102324500D01*
X151193713Y-102324500D01*
X151145042Y-102332208D01*
X150983760Y-102357753D01*
X150781585Y-102423444D01*
X150592179Y-102519951D01*
X150420213Y-102644890D01*
X150269894Y-102795209D01*
X150269890Y-102795214D01*
X150150318Y-102959793D01*
X150094989Y-103002459D01*
X150025375Y-103008438D01*
X149963580Y-102975833D01*
X149949682Y-102959793D01*
X149830109Y-102795214D01*
X149830105Y-102795209D01*
X149679786Y-102644890D01*
X149507820Y-102519951D01*
X149318414Y-102423444D01*
X149318413Y-102423443D01*
X149318412Y-102423443D01*
X149116243Y-102357754D01*
X149116241Y-102357753D01*
X149116240Y-102357753D01*
X148954957Y-102332208D01*
X148906287Y-102324500D01*
X148693713Y-102324500D01*
X148645042Y-102332208D01*
X148483760Y-102357753D01*
X148281585Y-102423444D01*
X148092179Y-102519951D01*
X147920215Y-102644889D01*
X147781398Y-102783706D01*
X147720075Y-102817190D01*
X147650383Y-102812206D01*
X147594450Y-102770334D01*
X147588178Y-102761120D01*
X147492712Y-102606344D01*
X147368657Y-102482289D01*
X147368656Y-102482288D01*
X147219334Y-102390186D01*
X147052797Y-102335001D01*
X147052795Y-102335000D01*
X146950010Y-102324500D01*
X145649998Y-102324500D01*
X145649981Y-102324501D01*
X145547203Y-102335000D01*
X145547200Y-102335001D01*
X145380668Y-102390185D01*
X145380663Y-102390187D01*
X145231342Y-102482289D01*
X145107289Y-102606342D01*
X145015187Y-102755663D01*
X145015185Y-102755668D01*
X145010325Y-102770334D01*
X144960001Y-102922203D01*
X144960001Y-102922204D01*
X144960000Y-102922204D01*
X144949500Y-103024983D01*
X141584501Y-103024983D01*
X141555051Y-102967184D01*
X141555049Y-102967181D01*
X141555048Y-102967179D01*
X141430109Y-102795213D01*
X141279786Y-102644890D01*
X141107820Y-102519951D01*
X140918414Y-102423444D01*
X140918413Y-102423443D01*
X140918412Y-102423443D01*
X140716243Y-102357754D01*
X140716241Y-102357753D01*
X140716240Y-102357753D01*
X140554957Y-102332208D01*
X140506287Y-102324500D01*
X140293713Y-102324500D01*
X140245042Y-102332208D01*
X140083760Y-102357753D01*
X139881585Y-102423444D01*
X139692179Y-102519951D01*
X139520213Y-102644890D01*
X139369894Y-102795209D01*
X139369890Y-102795214D01*
X139250318Y-102959793D01*
X139194989Y-103002459D01*
X139125375Y-103008438D01*
X139063580Y-102975833D01*
X139049682Y-102959793D01*
X138930109Y-102795214D01*
X138930105Y-102795209D01*
X138779786Y-102644890D01*
X138607820Y-102519951D01*
X138418414Y-102423444D01*
X138418413Y-102423443D01*
X138418412Y-102423443D01*
X138216243Y-102357754D01*
X138216241Y-102357753D01*
X138216240Y-102357753D01*
X138054957Y-102332208D01*
X138006287Y-102324500D01*
X137793713Y-102324500D01*
X137745042Y-102332208D01*
X137583760Y-102357753D01*
X137381585Y-102423444D01*
X137192179Y-102519951D01*
X137020213Y-102644890D01*
X136869894Y-102795209D01*
X136869890Y-102795214D01*
X136750318Y-102959793D01*
X136694989Y-103002459D01*
X136625375Y-103008438D01*
X136563580Y-102975833D01*
X136549682Y-102959793D01*
X136430109Y-102795214D01*
X136430105Y-102795209D01*
X136279786Y-102644890D01*
X136107820Y-102519951D01*
X135918414Y-102423444D01*
X135918413Y-102423443D01*
X135918412Y-102423443D01*
X135716243Y-102357754D01*
X135716241Y-102357753D01*
X135716240Y-102357753D01*
X135554957Y-102332208D01*
X135506287Y-102324500D01*
X135293713Y-102324500D01*
X135245042Y-102332208D01*
X135083760Y-102357753D01*
X134881585Y-102423444D01*
X134692179Y-102519951D01*
X134520213Y-102644890D01*
X134369894Y-102795209D01*
X134369890Y-102795214D01*
X134250318Y-102959793D01*
X134194989Y-103002459D01*
X134125375Y-103008438D01*
X134063580Y-102975833D01*
X134049682Y-102959793D01*
X133930109Y-102795214D01*
X133930105Y-102795209D01*
X133779786Y-102644890D01*
X133607820Y-102519951D01*
X133418414Y-102423444D01*
X133418413Y-102423443D01*
X133418412Y-102423443D01*
X133216243Y-102357754D01*
X133216241Y-102357753D01*
X133216240Y-102357753D01*
X133054957Y-102332208D01*
X133006287Y-102324500D01*
X132793713Y-102324500D01*
X132745042Y-102332208D01*
X132583760Y-102357753D01*
X132381585Y-102423444D01*
X132192179Y-102519951D01*
X132020213Y-102644890D01*
X131869894Y-102795209D01*
X131869890Y-102795214D01*
X131750318Y-102959793D01*
X131694989Y-103002459D01*
X131625375Y-103008438D01*
X131563580Y-102975833D01*
X131549682Y-102959793D01*
X131430109Y-102795214D01*
X131430105Y-102795209D01*
X131279786Y-102644890D01*
X131107820Y-102519951D01*
X130918414Y-102423444D01*
X130918413Y-102423443D01*
X130918412Y-102423443D01*
X130716243Y-102357754D01*
X130716241Y-102357753D01*
X130716240Y-102357753D01*
X130554957Y-102332208D01*
X130506287Y-102324500D01*
X130293713Y-102324500D01*
X130245042Y-102332208D01*
X130083760Y-102357753D01*
X129881585Y-102423444D01*
X129692179Y-102519951D01*
X129520215Y-102644889D01*
X129381398Y-102783706D01*
X129320075Y-102817190D01*
X129250383Y-102812206D01*
X129194450Y-102770334D01*
X129188178Y-102761120D01*
X129092712Y-102606344D01*
X128968657Y-102482289D01*
X128968656Y-102482288D01*
X128819334Y-102390186D01*
X128652797Y-102335001D01*
X128652795Y-102335000D01*
X128550010Y-102324500D01*
X127249998Y-102324500D01*
X127249981Y-102324501D01*
X127147203Y-102335000D01*
X127147200Y-102335001D01*
X126980668Y-102390185D01*
X126980663Y-102390187D01*
X126831342Y-102482289D01*
X126707289Y-102606342D01*
X126615187Y-102755663D01*
X126615185Y-102755668D01*
X126610325Y-102770334D01*
X126560001Y-102922203D01*
X126560001Y-102922204D01*
X126560000Y-102922204D01*
X126549500Y-103024983D01*
X125200500Y-103024983D01*
X125200500Y-97378711D01*
X126049500Y-97378711D01*
X126049500Y-97621288D01*
X126081161Y-97861785D01*
X126143947Y-98096104D01*
X126236773Y-98320205D01*
X126236776Y-98320212D01*
X126358064Y-98530289D01*
X126358066Y-98530292D01*
X126358067Y-98530293D01*
X126505733Y-98722736D01*
X126505739Y-98722743D01*
X126677256Y-98894260D01*
X126677263Y-98894266D01*
X126790321Y-98981018D01*
X126869711Y-99041936D01*
X127079788Y-99163224D01*
X127303900Y-99256054D01*
X127538211Y-99318838D01*
X127718586Y-99342584D01*
X127778711Y-99350500D01*
X127778712Y-99350500D01*
X128021289Y-99350500D01*
X128069388Y-99344167D01*
X128261789Y-99318838D01*
X128496100Y-99256054D01*
X128720212Y-99163224D01*
X128930289Y-99041936D01*
X129122738Y-98894265D01*
X129294265Y-98722738D01*
X129441936Y-98530289D01*
X129563224Y-98320212D01*
X129612125Y-98202155D01*
X134910000Y-98202155D01*
X134910000Y-98850000D01*
X135826988Y-98850000D01*
X135794075Y-98907007D01*
X135760000Y-99034174D01*
X135760000Y-99165826D01*
X135794075Y-99292993D01*
X135826988Y-99350000D01*
X134910000Y-99350000D01*
X134910000Y-99997844D01*
X134916401Y-100057372D01*
X134916403Y-100057379D01*
X134966645Y-100192086D01*
X134966649Y-100192093D01*
X135052809Y-100307187D01*
X135052812Y-100307190D01*
X135167906Y-100393350D01*
X135167913Y-100393354D01*
X135302620Y-100443596D01*
X135302627Y-100443598D01*
X135362155Y-100449999D01*
X135362172Y-100450000D01*
X136010000Y-100450000D01*
X136010000Y-99533012D01*
X136067007Y-99565925D01*
X136194174Y-99600000D01*
X136325826Y-99600000D01*
X136452993Y-99565925D01*
X136510000Y-99533012D01*
X136510000Y-100450000D01*
X137157828Y-100450000D01*
X137157844Y-100449999D01*
X137217372Y-100443598D01*
X137217379Y-100443596D01*
X137352086Y-100393354D01*
X137352093Y-100393350D01*
X137467187Y-100307190D01*
X137467190Y-100307187D01*
X137553350Y-100192093D01*
X137553354Y-100192086D01*
X137602422Y-100060529D01*
X137644293Y-100004595D01*
X137709757Y-99980178D01*
X137778030Y-99995030D01*
X137806285Y-100016181D01*
X137928599Y-100138495D01*
X138005135Y-100192086D01*
X138122165Y-100274032D01*
X138122167Y-100274033D01*
X138122170Y-100274035D01*
X138336337Y-100373903D01*
X138564592Y-100435063D01*
X138735319Y-100450000D01*
X138799999Y-100455659D01*
X138800000Y-100455659D01*
X138800001Y-100455659D01*
X138864681Y-100450000D01*
X139035408Y-100435063D01*
X139263663Y-100373903D01*
X139477830Y-100274035D01*
X139671401Y-100138495D01*
X139838495Y-99971401D01*
X139974035Y-99777830D01*
X140073903Y-99563663D01*
X140135063Y-99335408D01*
X140155659Y-99100000D01*
X140135063Y-98864592D01*
X140073903Y-98636337D01*
X139974035Y-98422171D01*
X139902645Y-98320214D01*
X139838494Y-98228597D01*
X139671402Y-98061506D01*
X139671395Y-98061501D01*
X139477834Y-97925967D01*
X139477830Y-97925965D01*
X139406727Y-97892809D01*
X139263663Y-97826097D01*
X139263659Y-97826096D01*
X139263655Y-97826094D01*
X139035413Y-97764938D01*
X139035403Y-97764936D01*
X138800001Y-97744341D01*
X138799999Y-97744341D01*
X138564596Y-97764936D01*
X138564586Y-97764938D01*
X138336344Y-97826094D01*
X138336335Y-97826098D01*
X138122171Y-97925964D01*
X138122169Y-97925965D01*
X137928600Y-98061503D01*
X137806284Y-98183819D01*
X137744961Y-98217303D01*
X137675269Y-98212319D01*
X137619336Y-98170447D01*
X137602421Y-98139470D01*
X137553354Y-98007913D01*
X137553350Y-98007906D01*
X137467190Y-97892812D01*
X137467187Y-97892809D01*
X137352093Y-97806649D01*
X137352086Y-97806645D01*
X137217379Y-97756403D01*
X137217372Y-97756401D01*
X137157844Y-97750000D01*
X136510000Y-97750000D01*
X136510000Y-98666988D01*
X136452993Y-98634075D01*
X136325826Y-98600000D01*
X136194174Y-98600000D01*
X136067007Y-98634075D01*
X136010000Y-98666988D01*
X136010000Y-97750000D01*
X135362155Y-97750000D01*
X135302627Y-97756401D01*
X135302620Y-97756403D01*
X135167913Y-97806645D01*
X135167906Y-97806649D01*
X135052812Y-97892809D01*
X135052809Y-97892812D01*
X134966649Y-98007906D01*
X134966645Y-98007913D01*
X134916403Y-98142620D01*
X134916401Y-98142627D01*
X134910000Y-98202155D01*
X129612125Y-98202155D01*
X129656054Y-98096100D01*
X129718838Y-97861789D01*
X129750500Y-97621288D01*
X129750500Y-97378712D01*
X129750500Y-97378711D01*
X157049500Y-97378711D01*
X157049500Y-97621288D01*
X157081161Y-97861785D01*
X157143947Y-98096104D01*
X157236773Y-98320205D01*
X157236776Y-98320212D01*
X157358064Y-98530289D01*
X157358066Y-98530292D01*
X157358067Y-98530293D01*
X157505733Y-98722736D01*
X157505739Y-98722743D01*
X157677256Y-98894260D01*
X157677263Y-98894266D01*
X157790321Y-98981018D01*
X157869711Y-99041936D01*
X158079788Y-99163224D01*
X158303900Y-99256054D01*
X158538211Y-99318838D01*
X158718586Y-99342584D01*
X158778711Y-99350500D01*
X158778712Y-99350500D01*
X159021289Y-99350500D01*
X159069388Y-99344167D01*
X159261789Y-99318838D01*
X159496100Y-99256054D01*
X159720212Y-99163224D01*
X159930289Y-99041936D01*
X160122738Y-98894265D01*
X160294265Y-98722738D01*
X160441936Y-98530289D01*
X160563224Y-98320212D01*
X160656054Y-98096100D01*
X160718838Y-97861789D01*
X160750500Y-97621288D01*
X160750500Y-97378712D01*
X160718838Y-97138211D01*
X160656054Y-96903900D01*
X160563224Y-96679788D01*
X160441936Y-96469711D01*
X160294265Y-96277262D01*
X160294260Y-96277256D01*
X160122743Y-96105739D01*
X160122736Y-96105733D01*
X159930293Y-95958067D01*
X159930292Y-95958066D01*
X159930289Y-95958064D01*
X159720212Y-95836776D01*
X159720205Y-95836773D01*
X159496104Y-95743947D01*
X159261785Y-95681161D01*
X159021289Y-95649500D01*
X159021288Y-95649500D01*
X158778712Y-95649500D01*
X158778711Y-95649500D01*
X158538214Y-95681161D01*
X158303895Y-95743947D01*
X158079794Y-95836773D01*
X158079785Y-95836777D01*
X157869706Y-95958067D01*
X157677263Y-96105733D01*
X157677256Y-96105739D01*
X157505739Y-96277256D01*
X157505733Y-96277263D01*
X157358067Y-96469706D01*
X157236777Y-96679785D01*
X157236773Y-96679794D01*
X157143947Y-96903895D01*
X157081161Y-97138214D01*
X157049500Y-97378711D01*
X129750500Y-97378711D01*
X129718838Y-97138211D01*
X129656054Y-96903900D01*
X129563224Y-96679788D01*
X129488289Y-96549996D01*
X145344435Y-96549996D01*
X145344435Y-96550003D01*
X145364630Y-96729249D01*
X145364631Y-96729254D01*
X145424211Y-96899523D01*
X145520184Y-97052262D01*
X145647738Y-97179816D01*
X145800478Y-97275789D01*
X145970745Y-97335368D01*
X145970750Y-97335369D01*
X146149996Y-97355565D01*
X146150000Y-97355565D01*
X146150004Y-97355565D01*
X146329249Y-97335369D01*
X146329252Y-97335368D01*
X146329255Y-97335368D01*
X146499522Y-97275789D01*
X146652262Y-97179816D01*
X146779816Y-97052262D01*
X146875789Y-96899522D01*
X146935368Y-96729255D01*
X146940942Y-96679785D01*
X146955565Y-96550003D01*
X146955565Y-96549996D01*
X146935369Y-96370750D01*
X146935368Y-96370745D01*
X146875788Y-96200476D01*
X146816257Y-96105733D01*
X146779816Y-96047738D01*
X146652262Y-95920184D01*
X146625856Y-95903592D01*
X146499523Y-95824211D01*
X146329254Y-95764631D01*
X146329249Y-95764630D01*
X146150004Y-95744435D01*
X146149996Y-95744435D01*
X145970750Y-95764630D01*
X145970745Y-95764631D01*
X145800476Y-95824211D01*
X145647737Y-95920184D01*
X145520184Y-96047737D01*
X145424211Y-96200476D01*
X145364631Y-96370745D01*
X145364630Y-96370750D01*
X145344435Y-96549996D01*
X129488289Y-96549996D01*
X129441936Y-96469711D01*
X129294265Y-96277262D01*
X129294260Y-96277256D01*
X129122743Y-96105739D01*
X129122736Y-96105733D01*
X128930293Y-95958067D01*
X128930292Y-95958066D01*
X128930289Y-95958064D01*
X128720212Y-95836776D01*
X128720205Y-95836773D01*
X128496104Y-95743947D01*
X128261785Y-95681161D01*
X128021289Y-95649500D01*
X128021288Y-95649500D01*
X127778712Y-95649500D01*
X127778711Y-95649500D01*
X127538214Y-95681161D01*
X127303895Y-95743947D01*
X127079794Y-95836773D01*
X127079785Y-95836777D01*
X126869706Y-95958067D01*
X126677263Y-96105733D01*
X126677256Y-96105739D01*
X126505739Y-96277256D01*
X126505733Y-96277263D01*
X126358067Y-96469706D01*
X126236777Y-96679785D01*
X126236773Y-96679794D01*
X126143947Y-96903895D01*
X126081161Y-97138214D01*
X126049500Y-97378711D01*
X125200500Y-97378711D01*
X125200500Y-94905267D01*
X146823284Y-94905267D01*
X146982053Y-94960823D01*
X146982058Y-94960824D01*
X147149996Y-94979746D01*
X147150004Y-94979746D01*
X147317938Y-94960824D01*
X147317943Y-94960823D01*
X147476713Y-94905267D01*
X147476714Y-94905267D01*
X148923284Y-94905267D01*
X149082053Y-94960823D01*
X149082058Y-94960824D01*
X149194429Y-94973485D01*
X149258843Y-95000551D01*
X149298398Y-95058146D01*
X149303766Y-95082822D01*
X149314630Y-95179249D01*
X149314633Y-95179262D01*
X149376510Y-95356094D01*
X149374364Y-95356844D01*
X149383962Y-95415144D01*
X149375609Y-95443590D01*
X149376510Y-95443906D01*
X149314633Y-95620737D01*
X149314630Y-95620750D01*
X149294435Y-95799996D01*
X149294435Y-95800003D01*
X149314630Y-95979249D01*
X149314631Y-95979254D01*
X149374211Y-96149523D01*
X149454472Y-96277256D01*
X149470184Y-96302262D01*
X149597738Y-96429816D01*
X149750478Y-96525789D01*
X149819678Y-96550003D01*
X149920745Y-96585368D01*
X149920750Y-96585369D01*
X150099996Y-96605565D01*
X150100000Y-96605565D01*
X150100004Y-96605565D01*
X150279249Y-96585369D01*
X150279252Y-96585368D01*
X150279255Y-96585368D01*
X150449522Y-96525789D01*
X150602262Y-96429816D01*
X150729816Y-96302262D01*
X150825789Y-96149522D01*
X150828148Y-96142778D01*
X150868865Y-96086003D01*
X150933817Y-96060252D01*
X150959073Y-96060508D01*
X151002487Y-96065400D01*
X151126220Y-96079342D01*
X151126223Y-96079342D01*
X151126227Y-96079342D01*
X151305472Y-96059146D01*
X151305475Y-96059145D01*
X151305478Y-96059145D01*
X151475745Y-95999566D01*
X151628485Y-95903593D01*
X151756039Y-95776039D01*
X151852012Y-95623299D01*
X151911591Y-95453032D01*
X151911879Y-95450478D01*
X151931788Y-95273780D01*
X151931788Y-95273773D01*
X151911592Y-95094527D01*
X151911591Y-95094522D01*
X151864808Y-94960824D01*
X151852012Y-94924255D01*
X151756039Y-94771515D01*
X151628485Y-94643961D01*
X151475746Y-94547988D01*
X151305477Y-94488408D01*
X151305472Y-94488407D01*
X151126227Y-94468212D01*
X151126219Y-94468212D01*
X150946973Y-94488407D01*
X150946965Y-94488409D01*
X150852734Y-94521382D01*
X150782955Y-94524943D01*
X150724099Y-94492021D01*
X150602262Y-94370184D01*
X150449523Y-94274211D01*
X150279254Y-94214631D01*
X150279250Y-94214630D01*
X150098297Y-94194242D01*
X150033883Y-94167175D01*
X149994328Y-94109580D01*
X149988960Y-94084903D01*
X149985822Y-94057051D01*
X149930267Y-93898285D01*
X149930267Y-93898284D01*
X149426777Y-94401777D01*
X148923284Y-94905267D01*
X147476714Y-94905267D01*
X147150001Y-94578554D01*
X147150000Y-94578554D01*
X146823284Y-94905267D01*
X125200500Y-94905267D01*
X125200500Y-94224996D01*
X146395254Y-94224996D01*
X146395254Y-94225003D01*
X146414176Y-94392944D01*
X146469731Y-94551713D01*
X146796446Y-94225000D01*
X146766609Y-94195163D01*
X147000000Y-94195163D01*
X147000000Y-94254837D01*
X147022836Y-94309968D01*
X147065032Y-94352164D01*
X147120163Y-94375000D01*
X147179837Y-94375000D01*
X147234968Y-94352164D01*
X147277164Y-94309968D01*
X147300000Y-94254837D01*
X147300000Y-94224999D01*
X147503554Y-94224999D01*
X147503554Y-94225001D01*
X147830267Y-94551714D01*
X147830267Y-94551713D01*
X147885823Y-94392943D01*
X147885824Y-94392938D01*
X147904746Y-94225003D01*
X147904746Y-94224996D01*
X148495254Y-94224996D01*
X148495254Y-94225003D01*
X148514176Y-94392944D01*
X148569731Y-94551713D01*
X148896446Y-94225000D01*
X148866609Y-94195163D01*
X149100000Y-94195163D01*
X149100000Y-94254837D01*
X149122836Y-94309968D01*
X149165032Y-94352164D01*
X149220163Y-94375000D01*
X149279837Y-94375000D01*
X149334968Y-94352164D01*
X149377164Y-94309968D01*
X149400000Y-94254837D01*
X149400000Y-94195163D01*
X149377164Y-94140032D01*
X149334968Y-94097836D01*
X149279837Y-94075000D01*
X149220163Y-94075000D01*
X149165032Y-94097836D01*
X149122836Y-94140032D01*
X149100000Y-94195163D01*
X148866609Y-94195163D01*
X148569731Y-93898285D01*
X148514176Y-94057055D01*
X148495254Y-94224996D01*
X147904746Y-94224996D01*
X147885824Y-94057058D01*
X147885823Y-94057053D01*
X147830267Y-93898285D01*
X147830267Y-93898284D01*
X147503554Y-94224999D01*
X147300000Y-94224999D01*
X147300000Y-94195163D01*
X147277164Y-94140032D01*
X147234968Y-94097836D01*
X147179837Y-94075000D01*
X147120163Y-94075000D01*
X147065032Y-94097836D01*
X147022836Y-94140032D01*
X147000000Y-94195163D01*
X146766609Y-94195163D01*
X146469731Y-93898285D01*
X146414176Y-94057055D01*
X146395254Y-94224996D01*
X125200500Y-94224996D01*
X125200500Y-93544731D01*
X146823285Y-93544731D01*
X147150000Y-93871446D01*
X147150001Y-93871446D01*
X147476714Y-93544731D01*
X148923285Y-93544731D01*
X149250000Y-93871446D01*
X149250001Y-93871446D01*
X149576714Y-93544731D01*
X149417944Y-93489176D01*
X149250004Y-93470254D01*
X149249996Y-93470254D01*
X149082055Y-93489176D01*
X148923285Y-93544731D01*
X147476714Y-93544731D01*
X147317944Y-93489176D01*
X147150004Y-93470254D01*
X147149996Y-93470254D01*
X146982055Y-93489176D01*
X146823285Y-93544731D01*
X125200500Y-93544731D01*
X125200500Y-92805267D01*
X146823284Y-92805267D01*
X146982053Y-92860823D01*
X146982058Y-92860824D01*
X147149996Y-92879746D01*
X147150004Y-92879746D01*
X147317938Y-92860824D01*
X147317943Y-92860823D01*
X147476713Y-92805267D01*
X147476714Y-92805267D01*
X148923284Y-92805267D01*
X149082053Y-92860823D01*
X149082058Y-92860824D01*
X149249996Y-92879746D01*
X149250004Y-92879746D01*
X149417938Y-92860824D01*
X149417943Y-92860823D01*
X149576713Y-92805267D01*
X149576714Y-92805267D01*
X149250001Y-92478554D01*
X149250000Y-92478554D01*
X148923284Y-92805267D01*
X147476714Y-92805267D01*
X147150001Y-92478554D01*
X147150000Y-92478554D01*
X146823284Y-92805267D01*
X125200500Y-92805267D01*
X125200500Y-92124996D01*
X146395254Y-92124996D01*
X146395254Y-92125003D01*
X146414176Y-92292944D01*
X146469731Y-92451713D01*
X146796446Y-92125000D01*
X146766609Y-92095163D01*
X147000000Y-92095163D01*
X147000000Y-92154837D01*
X147022836Y-92209968D01*
X147065032Y-92252164D01*
X147120163Y-92275000D01*
X147179837Y-92275000D01*
X147234968Y-92252164D01*
X147277164Y-92209968D01*
X147300000Y-92154837D01*
X147300000Y-92124999D01*
X147503554Y-92124999D01*
X147503554Y-92125001D01*
X147830267Y-92451714D01*
X147830267Y-92451713D01*
X147885823Y-92292943D01*
X147885824Y-92292938D01*
X147904746Y-92125003D01*
X147904746Y-92124996D01*
X148495254Y-92124996D01*
X148495254Y-92125003D01*
X148514176Y-92292944D01*
X148569731Y-92451713D01*
X148896446Y-92125000D01*
X148866609Y-92095163D01*
X149100000Y-92095163D01*
X149100000Y-92154837D01*
X149122836Y-92209968D01*
X149165032Y-92252164D01*
X149220163Y-92275000D01*
X149279837Y-92275000D01*
X149334968Y-92252164D01*
X149377164Y-92209968D01*
X149400000Y-92154837D01*
X149400000Y-92124999D01*
X149603554Y-92124999D01*
X149603554Y-92125001D01*
X149930267Y-92451714D01*
X149930267Y-92451713D01*
X149985823Y-92292943D01*
X149985824Y-92292939D01*
X149998939Y-92176541D01*
X150026005Y-92112127D01*
X150083600Y-92072572D01*
X150153437Y-92070434D01*
X150213343Y-92106392D01*
X150239201Y-92149469D01*
X150274211Y-92249523D01*
X150370184Y-92402262D01*
X150497738Y-92529816D01*
X150650478Y-92625789D01*
X150777352Y-92670184D01*
X150820745Y-92685368D01*
X150820750Y-92685369D01*
X150999996Y-92705565D01*
X150999997Y-92705565D01*
X150999998Y-92705564D01*
X151000000Y-92705565D01*
X151024764Y-92702774D01*
X151093583Y-92714827D01*
X151143641Y-92760021D01*
X151170181Y-92802258D01*
X151170182Y-92802260D01*
X151170184Y-92802262D01*
X151297738Y-92929816D01*
X151450478Y-93025789D01*
X151610957Y-93081943D01*
X151621568Y-93085656D01*
X151678344Y-93126378D01*
X151704091Y-93191331D01*
X151703833Y-93216581D01*
X151694435Y-93299995D01*
X151694435Y-93300003D01*
X151714630Y-93479249D01*
X151714631Y-93479254D01*
X151774211Y-93649523D01*
X151837646Y-93750478D01*
X151870184Y-93802262D01*
X151997738Y-93929816D01*
X152150478Y-94025789D01*
X152239840Y-94057058D01*
X152320745Y-94085368D01*
X152320750Y-94085369D01*
X152499996Y-94105565D01*
X152500000Y-94105565D01*
X152500003Y-94105565D01*
X152623352Y-94091666D01*
X152668142Y-94086620D01*
X152736964Y-94098674D01*
X152788344Y-94146023D01*
X152805246Y-94195957D01*
X152814630Y-94279249D01*
X152814631Y-94279254D01*
X152874211Y-94449523D01*
X152940415Y-94554885D01*
X152970184Y-94602262D01*
X153097738Y-94729816D01*
X153164100Y-94771514D01*
X153242450Y-94820745D01*
X153250478Y-94825789D01*
X153420745Y-94885368D01*
X153420750Y-94885369D01*
X153599996Y-94905565D01*
X153600000Y-94905565D01*
X153600004Y-94905565D01*
X153779249Y-94885369D01*
X153779252Y-94885368D01*
X153779255Y-94885368D01*
X153949522Y-94825789D01*
X154102262Y-94729816D01*
X154229816Y-94602262D01*
X154325789Y-94449522D01*
X154385368Y-94279255D01*
X154385369Y-94279249D01*
X154405565Y-94100003D01*
X154405565Y-94099996D01*
X154385369Y-93920750D01*
X154385368Y-93920745D01*
X154377509Y-93898284D01*
X154325789Y-93750478D01*
X154229816Y-93597738D01*
X154102262Y-93470184D01*
X153949523Y-93374211D01*
X153779254Y-93314631D01*
X153779249Y-93314630D01*
X153600004Y-93294435D01*
X153599996Y-93294435D01*
X153431856Y-93313379D01*
X153363034Y-93301324D01*
X153311655Y-93253975D01*
X153294753Y-93204041D01*
X153285369Y-93120750D01*
X153285368Y-93120745D01*
X153225788Y-92950476D01*
X153181345Y-92879746D01*
X153129816Y-92797738D01*
X153002262Y-92670184D01*
X152931608Y-92625789D01*
X152849521Y-92574210D01*
X152678432Y-92514344D01*
X152621655Y-92473622D01*
X152595908Y-92408669D01*
X152596166Y-92383418D01*
X152605565Y-92300002D01*
X152605565Y-92299996D01*
X152585369Y-92120750D01*
X152585368Y-92120745D01*
X152570850Y-92079255D01*
X152525789Y-91950478D01*
X152429816Y-91797738D01*
X152302262Y-91670184D01*
X152149523Y-91574211D01*
X151979254Y-91514631D01*
X151979249Y-91514630D01*
X151800004Y-91494435D01*
X151799997Y-91494435D01*
X151775233Y-91497225D01*
X151706411Y-91485170D01*
X151656357Y-91439978D01*
X151629816Y-91397738D01*
X151502262Y-91270184D01*
X151349523Y-91174211D01*
X151179254Y-91114631D01*
X151179249Y-91114630D01*
X151000004Y-91094435D01*
X150999996Y-91094435D01*
X150820750Y-91114630D01*
X150820745Y-91114631D01*
X150650476Y-91174211D01*
X150497737Y-91270184D01*
X150370184Y-91397737D01*
X150274211Y-91550476D01*
X150214631Y-91720745D01*
X150214630Y-91720749D01*
X150199588Y-91854258D01*
X150172521Y-91918672D01*
X150114927Y-91958227D01*
X150045090Y-91960364D01*
X149985183Y-91924406D01*
X149959326Y-91881329D01*
X149930267Y-91798285D01*
X149930267Y-91798284D01*
X149603554Y-92124999D01*
X149400000Y-92124999D01*
X149400000Y-92095163D01*
X149377164Y-92040032D01*
X149334968Y-91997836D01*
X149279837Y-91975000D01*
X149220163Y-91975000D01*
X149165032Y-91997836D01*
X149122836Y-92040032D01*
X149100000Y-92095163D01*
X148866609Y-92095163D01*
X148569731Y-91798285D01*
X148514176Y-91957055D01*
X148495254Y-92124996D01*
X147904746Y-92124996D01*
X147885824Y-91957058D01*
X147885823Y-91957053D01*
X147830267Y-91798285D01*
X147830267Y-91798284D01*
X147503554Y-92124999D01*
X147300000Y-92124999D01*
X147300000Y-92095163D01*
X147277164Y-92040032D01*
X147234968Y-91997836D01*
X147179837Y-91975000D01*
X147120163Y-91975000D01*
X147065032Y-91997836D01*
X147022836Y-92040032D01*
X147000000Y-92095163D01*
X146766609Y-92095163D01*
X146469731Y-91798285D01*
X146414176Y-91957055D01*
X146395254Y-92124996D01*
X125200500Y-92124996D01*
X125200500Y-86343484D01*
X125655447Y-86343484D01*
X125655447Y-86343491D01*
X125675642Y-86522737D01*
X125675643Y-86522742D01*
X125735223Y-86693011D01*
X125796457Y-86790464D01*
X125831196Y-86845750D01*
X125958750Y-86973304D01*
X126111490Y-87069277D01*
X126281757Y-87128856D01*
X126281762Y-87128857D01*
X126461008Y-87149053D01*
X126461012Y-87149053D01*
X126461015Y-87149053D01*
X126551335Y-87138876D01*
X126627910Y-87130248D01*
X126696732Y-87142302D01*
X126748112Y-87189651D01*
X126765736Y-87257262D01*
X126758836Y-87294422D01*
X126714177Y-87422050D01*
X126714175Y-87422058D01*
X126695254Y-87589996D01*
X126695254Y-87590000D01*
X126714176Y-87757944D01*
X126753051Y-87869046D01*
X126756612Y-87938825D01*
X126753051Y-87950954D01*
X126714176Y-88062055D01*
X126695254Y-88229996D01*
X126695254Y-88230003D01*
X126714176Y-88397944D01*
X126753051Y-88509046D01*
X126756612Y-88578825D01*
X126753051Y-88590954D01*
X126714176Y-88702055D01*
X126695254Y-88869996D01*
X126695254Y-88870003D01*
X126714176Y-89037944D01*
X126753051Y-89149046D01*
X126756612Y-89218825D01*
X126753051Y-89230954D01*
X126714176Y-89342055D01*
X126695254Y-89509996D01*
X126695254Y-89510000D01*
X126714175Y-89677941D01*
X126714177Y-89677949D01*
X126718436Y-89690120D01*
X126721997Y-89759899D01*
X126687268Y-89820526D01*
X126625274Y-89852753D01*
X126587511Y-89854294D01*
X126500004Y-89844435D01*
X126499996Y-89844435D01*
X126320750Y-89864630D01*
X126320745Y-89864631D01*
X126150476Y-89924211D01*
X125997737Y-90020184D01*
X125870184Y-90147737D01*
X125774211Y-90300476D01*
X125714631Y-90470745D01*
X125714630Y-90470750D01*
X125694435Y-90649996D01*
X125694435Y-90650003D01*
X125714630Y-90829249D01*
X125714631Y-90829254D01*
X125774211Y-90999523D01*
X125828152Y-91085369D01*
X125870184Y-91152262D01*
X125997738Y-91279816D01*
X126150478Y-91375789D01*
X126213202Y-91397737D01*
X126320745Y-91435368D01*
X126320750Y-91435369D01*
X126499996Y-91455565D01*
X126500000Y-91455565D01*
X126500004Y-91455565D01*
X126596159Y-91444731D01*
X146823285Y-91444731D01*
X147150000Y-91771446D01*
X147150001Y-91771446D01*
X147476714Y-91444731D01*
X148923285Y-91444731D01*
X149250000Y-91771446D01*
X149250001Y-91771446D01*
X149576714Y-91444731D01*
X149417944Y-91389176D01*
X149250004Y-91370254D01*
X149249996Y-91370254D01*
X149082055Y-91389176D01*
X148923285Y-91444731D01*
X147476714Y-91444731D01*
X147317944Y-91389176D01*
X147150004Y-91370254D01*
X147149996Y-91370254D01*
X146982055Y-91389176D01*
X146823285Y-91444731D01*
X126596159Y-91444731D01*
X126679249Y-91435369D01*
X126679252Y-91435368D01*
X126679255Y-91435368D01*
X126849522Y-91375789D01*
X127002262Y-91279816D01*
X127129816Y-91152262D01*
X127225789Y-90999522D01*
X127285368Y-90829255D01*
X127285369Y-90829249D01*
X127305565Y-90650003D01*
X127305565Y-90649996D01*
X127285369Y-90470750D01*
X127285366Y-90470737D01*
X127268750Y-90423251D01*
X127265188Y-90353472D01*
X127299916Y-90292845D01*
X127361910Y-90260617D01*
X127399675Y-90259076D01*
X127449997Y-90264746D01*
X127450004Y-90264746D01*
X127617941Y-90245824D01*
X127729044Y-90206947D01*
X127798823Y-90203384D01*
X127810956Y-90206947D01*
X127922059Y-90245824D01*
X127922056Y-90245824D01*
X128089996Y-90264746D01*
X128090004Y-90264746D01*
X128257941Y-90245824D01*
X128369044Y-90206947D01*
X128438823Y-90203384D01*
X128450956Y-90206947D01*
X128562059Y-90245824D01*
X128562056Y-90245824D01*
X128729996Y-90264746D01*
X128730004Y-90264746D01*
X128897941Y-90245824D01*
X129009044Y-90206947D01*
X129078823Y-90203384D01*
X129090956Y-90206947D01*
X129202059Y-90245824D01*
X129202056Y-90245824D01*
X129369996Y-90264746D01*
X129370004Y-90264746D01*
X129537938Y-90245824D01*
X129537943Y-90245823D01*
X129696713Y-90190267D01*
X129696714Y-90190267D01*
X129193223Y-89686777D01*
X129050000Y-89543554D01*
X128994458Y-89599096D01*
X128933135Y-89632581D01*
X128863443Y-89627597D01*
X128839757Y-89612374D01*
X128857164Y-89594968D01*
X128880000Y-89539837D01*
X128880000Y-89480163D01*
X129220000Y-89480163D01*
X129220000Y-89539837D01*
X129242836Y-89594968D01*
X129285032Y-89637164D01*
X129340163Y-89660000D01*
X129399837Y-89660000D01*
X129454968Y-89637164D01*
X129497164Y-89594968D01*
X129520000Y-89539837D01*
X129520000Y-89480163D01*
X129497164Y-89425032D01*
X129454968Y-89382836D01*
X129399837Y-89360000D01*
X129340163Y-89360000D01*
X129285032Y-89382836D01*
X129242836Y-89425032D01*
X129220000Y-89480163D01*
X128880000Y-89480163D01*
X128857164Y-89425032D01*
X128814968Y-89382836D01*
X128759837Y-89360000D01*
X128700163Y-89360000D01*
X128645032Y-89382836D01*
X128602836Y-89425032D01*
X128580000Y-89480163D01*
X128580000Y-89539837D01*
X128602836Y-89594968D01*
X128618951Y-89611083D01*
X128579581Y-89632581D01*
X128509889Y-89627597D01*
X128465542Y-89599096D01*
X128410000Y-89543554D01*
X128354458Y-89599096D01*
X128293135Y-89632581D01*
X128223443Y-89627597D01*
X128199757Y-89612374D01*
X128217164Y-89594968D01*
X128240000Y-89539837D01*
X128240000Y-89480163D01*
X128217164Y-89425032D01*
X128174968Y-89382836D01*
X128119837Y-89360000D01*
X128060163Y-89360000D01*
X128005032Y-89382836D01*
X127962836Y-89425032D01*
X127940000Y-89480163D01*
X127940000Y-89539837D01*
X127962836Y-89594968D01*
X127978951Y-89611083D01*
X127939581Y-89632581D01*
X127869889Y-89627597D01*
X127825542Y-89599096D01*
X127770000Y-89543554D01*
X127714458Y-89599096D01*
X127653135Y-89632581D01*
X127583443Y-89627597D01*
X127559757Y-89612374D01*
X127577164Y-89594968D01*
X127600000Y-89539837D01*
X127600000Y-89480163D01*
X127577164Y-89425032D01*
X127534968Y-89382836D01*
X127479837Y-89360000D01*
X127420163Y-89360000D01*
X127365032Y-89382836D01*
X127348916Y-89398951D01*
X127327419Y-89359581D01*
X127332403Y-89289889D01*
X127360904Y-89245542D01*
X127416446Y-89190000D01*
X127360904Y-89134458D01*
X127327419Y-89073135D01*
X127332403Y-89003443D01*
X127347625Y-88979757D01*
X127365032Y-88997164D01*
X127420163Y-89020000D01*
X127479837Y-89020000D01*
X127534968Y-88997164D01*
X127577164Y-88954968D01*
X127600000Y-88899837D01*
X127600000Y-88840163D01*
X127940000Y-88840163D01*
X127940000Y-88899837D01*
X127962836Y-88954968D01*
X128005032Y-88997164D01*
X128060163Y-89020000D01*
X128119837Y-89020000D01*
X128174968Y-88997164D01*
X128217164Y-88954968D01*
X128240000Y-88899837D01*
X128240000Y-88840163D01*
X128580000Y-88840163D01*
X128580000Y-88899837D01*
X128602836Y-88954968D01*
X128645032Y-88997164D01*
X128700163Y-89020000D01*
X128759837Y-89020000D01*
X128814968Y-88997164D01*
X128857164Y-88954968D01*
X128880000Y-88899837D01*
X128880000Y-88840163D01*
X128857164Y-88785032D01*
X128814968Y-88742836D01*
X128759837Y-88720000D01*
X128700163Y-88720000D01*
X128645032Y-88742836D01*
X128602836Y-88785032D01*
X128580000Y-88840163D01*
X128240000Y-88840163D01*
X128217164Y-88785032D01*
X128174968Y-88742836D01*
X128119837Y-88720000D01*
X128060163Y-88720000D01*
X128005032Y-88742836D01*
X127962836Y-88785032D01*
X127940000Y-88840163D01*
X127600000Y-88840163D01*
X127577164Y-88785032D01*
X127534968Y-88742836D01*
X127479837Y-88720000D01*
X127420163Y-88720000D01*
X127365032Y-88742836D01*
X127348916Y-88758951D01*
X127327419Y-88719581D01*
X127332403Y-88649889D01*
X127360904Y-88605542D01*
X127416446Y-88550000D01*
X127360904Y-88494458D01*
X127327419Y-88433135D01*
X127332403Y-88363443D01*
X127347625Y-88339757D01*
X127365032Y-88357164D01*
X127420163Y-88380000D01*
X127479837Y-88380000D01*
X127534968Y-88357164D01*
X127577164Y-88314968D01*
X127600000Y-88259837D01*
X127600000Y-88200163D01*
X127940000Y-88200163D01*
X127940000Y-88259837D01*
X127962836Y-88314968D01*
X128005032Y-88357164D01*
X128060163Y-88380000D01*
X128119837Y-88380000D01*
X128174968Y-88357164D01*
X128217164Y-88314968D01*
X128240000Y-88259837D01*
X128240000Y-88200163D01*
X128580000Y-88200163D01*
X128580000Y-88259837D01*
X128602836Y-88314968D01*
X128645032Y-88357164D01*
X128700163Y-88380000D01*
X128759837Y-88380000D01*
X128814968Y-88357164D01*
X128857164Y-88314968D01*
X128880000Y-88259837D01*
X128880000Y-88200163D01*
X129220000Y-88200163D01*
X129220000Y-88259837D01*
X129242836Y-88314968D01*
X129285032Y-88357164D01*
X129340163Y-88380000D01*
X129399837Y-88380000D01*
X129454968Y-88357164D01*
X129471083Y-88341048D01*
X129492581Y-88380419D01*
X129487597Y-88450111D01*
X129459096Y-88494458D01*
X129403554Y-88550000D01*
X129459096Y-88605542D01*
X129492581Y-88666865D01*
X129487597Y-88736557D01*
X129472374Y-88760242D01*
X129454968Y-88742836D01*
X129399837Y-88720000D01*
X129340163Y-88720000D01*
X129285032Y-88742836D01*
X129242836Y-88785032D01*
X129220000Y-88840163D01*
X129220000Y-88899837D01*
X129242836Y-88954968D01*
X129285032Y-88997164D01*
X129340163Y-89020000D01*
X129399837Y-89020000D01*
X129454968Y-88997164D01*
X129471083Y-88981048D01*
X129492581Y-89020419D01*
X129487597Y-89090111D01*
X129459096Y-89134458D01*
X129403554Y-89190000D01*
X129546777Y-89333223D01*
X130050267Y-89836714D01*
X130050267Y-89836713D01*
X130105823Y-89677943D01*
X130105824Y-89677938D01*
X130124746Y-89510000D01*
X130124746Y-89509996D01*
X130105824Y-89342058D01*
X130066947Y-89230956D01*
X130063384Y-89161177D01*
X130066947Y-89149044D01*
X130105824Y-89037941D01*
X130121367Y-88899996D01*
X145494435Y-88899996D01*
X145494435Y-88900003D01*
X145514630Y-89079249D01*
X145514631Y-89079254D01*
X145574211Y-89249523D01*
X145599575Y-89289889D01*
X145670184Y-89402262D01*
X145797738Y-89529816D01*
X145950478Y-89625789D01*
X146120745Y-89685368D01*
X146120754Y-89685369D01*
X146121207Y-89685473D01*
X146121477Y-89685624D01*
X146127318Y-89687668D01*
X146126960Y-89688690D01*
X146182191Y-89719573D01*
X146211377Y-89773017D01*
X146212333Y-89772683D01*
X146214362Y-89778483D01*
X146214523Y-89778777D01*
X146214631Y-89779250D01*
X146214632Y-89779255D01*
X146240350Y-89852753D01*
X146274210Y-89949521D01*
X146318611Y-90020184D01*
X146370184Y-90102262D01*
X146497738Y-90229816D01*
X146553329Y-90264746D01*
X146610192Y-90300476D01*
X146650478Y-90325789D01*
X146729826Y-90353553D01*
X146786601Y-90394274D01*
X146812091Y-90456711D01*
X146814630Y-90479249D01*
X146874210Y-90649521D01*
X146874511Y-90650000D01*
X146970184Y-90802262D01*
X147097738Y-90929816D01*
X147250478Y-91025789D01*
X147420745Y-91085368D01*
X147420750Y-91085369D01*
X147599996Y-91105565D01*
X147600000Y-91105565D01*
X147600004Y-91105565D01*
X147779249Y-91085369D01*
X147779252Y-91085368D01*
X147779255Y-91085368D01*
X147949522Y-91025789D01*
X148102262Y-90929816D01*
X148229816Y-90802262D01*
X148325789Y-90649522D01*
X148385368Y-90479255D01*
X148385369Y-90479249D01*
X148405565Y-90300003D01*
X148405565Y-90299996D01*
X148385369Y-90120750D01*
X148385368Y-90120745D01*
X148325789Y-89950478D01*
X148325188Y-89949522D01*
X148271847Y-89864630D01*
X148229816Y-89797738D01*
X148102262Y-89670184D01*
X147949522Y-89574211D01*
X147949519Y-89574209D01*
X147870173Y-89546444D01*
X147813397Y-89505722D01*
X147787907Y-89443286D01*
X147785368Y-89420745D01*
X147725789Y-89250478D01*
X147725188Y-89249522D01*
X147629815Y-89097737D01*
X147502262Y-88970184D01*
X147349521Y-88874210D01*
X147252218Y-88840163D01*
X147179255Y-88814632D01*
X147179251Y-88814631D01*
X147179250Y-88814631D01*
X147178777Y-88814523D01*
X147178501Y-88814369D01*
X147172683Y-88812333D01*
X147173039Y-88811313D01*
X147117798Y-88780416D01*
X147088626Y-88726982D01*
X147087668Y-88727318D01*
X147085630Y-88721496D01*
X147085473Y-88721207D01*
X147085369Y-88720754D01*
X147085368Y-88720745D01*
X147025789Y-88550478D01*
X146929816Y-88397738D01*
X146802262Y-88270184D01*
X146785795Y-88259837D01*
X146649523Y-88174211D01*
X146479254Y-88114631D01*
X146479249Y-88114630D01*
X146300004Y-88094435D01*
X146299996Y-88094435D01*
X146120750Y-88114630D01*
X146120745Y-88114631D01*
X145950476Y-88174211D01*
X145797737Y-88270184D01*
X145670184Y-88397737D01*
X145574211Y-88550476D01*
X145514631Y-88720745D01*
X145514630Y-88720750D01*
X145494435Y-88899996D01*
X130121367Y-88899996D01*
X130124746Y-88870003D01*
X130124746Y-88869996D01*
X130105824Y-88702058D01*
X130066947Y-88590956D01*
X130063384Y-88521177D01*
X130066947Y-88509044D01*
X130105824Y-88397941D01*
X130124746Y-88230003D01*
X130124746Y-88229996D01*
X130105824Y-88062058D01*
X130066947Y-87950956D01*
X130063384Y-87881177D01*
X130066947Y-87869044D01*
X130105824Y-87757941D01*
X130124746Y-87590000D01*
X130124746Y-87589996D01*
X130105824Y-87422058D01*
X130105823Y-87422053D01*
X130050267Y-87263285D01*
X130050267Y-87263284D01*
X129546777Y-87766777D01*
X129403554Y-87910000D01*
X129459096Y-87965542D01*
X129492581Y-88026865D01*
X129487597Y-88096557D01*
X129472374Y-88120242D01*
X129454968Y-88102836D01*
X129399837Y-88080000D01*
X129340163Y-88080000D01*
X129285032Y-88102836D01*
X129242836Y-88145032D01*
X129220000Y-88200163D01*
X128880000Y-88200163D01*
X128857164Y-88145032D01*
X128814968Y-88102836D01*
X128759837Y-88080000D01*
X128700163Y-88080000D01*
X128645032Y-88102836D01*
X128602836Y-88145032D01*
X128580000Y-88200163D01*
X128240000Y-88200163D01*
X128217164Y-88145032D01*
X128174968Y-88102836D01*
X128119837Y-88080000D01*
X128060163Y-88080000D01*
X128005032Y-88102836D01*
X127962836Y-88145032D01*
X127940000Y-88200163D01*
X127600000Y-88200163D01*
X127577164Y-88145032D01*
X127534968Y-88102836D01*
X127479837Y-88080000D01*
X127420163Y-88080000D01*
X127365032Y-88102836D01*
X127348916Y-88118951D01*
X127327419Y-88079581D01*
X127332403Y-88009889D01*
X127360904Y-87965542D01*
X127416446Y-87910000D01*
X127360904Y-87854458D01*
X127327419Y-87793135D01*
X127332403Y-87723443D01*
X127347625Y-87699757D01*
X127365032Y-87717164D01*
X127420163Y-87740000D01*
X127479837Y-87740000D01*
X127534968Y-87717164D01*
X127577164Y-87674968D01*
X127600000Y-87619837D01*
X127600000Y-87560163D01*
X127577164Y-87505032D01*
X127561048Y-87488916D01*
X127600419Y-87467419D01*
X127670111Y-87472403D01*
X127714458Y-87500904D01*
X127770000Y-87556446D01*
X127825542Y-87500904D01*
X127886865Y-87467419D01*
X127956557Y-87472403D01*
X127980242Y-87487625D01*
X127962836Y-87505032D01*
X127940000Y-87560163D01*
X127940000Y-87619837D01*
X127962836Y-87674968D01*
X128005032Y-87717164D01*
X128060163Y-87740000D01*
X128119837Y-87740000D01*
X128174968Y-87717164D01*
X128217164Y-87674968D01*
X128240000Y-87619837D01*
X128240000Y-87560163D01*
X128217164Y-87505032D01*
X128201048Y-87488916D01*
X128240419Y-87467419D01*
X128310111Y-87472403D01*
X128354458Y-87500904D01*
X128410000Y-87556446D01*
X128465542Y-87500904D01*
X128526865Y-87467419D01*
X128596557Y-87472403D01*
X128620242Y-87487625D01*
X128602836Y-87505032D01*
X128580000Y-87560163D01*
X128580000Y-87619837D01*
X128602836Y-87674968D01*
X128645032Y-87717164D01*
X128700163Y-87740000D01*
X128759837Y-87740000D01*
X128814968Y-87717164D01*
X128857164Y-87674968D01*
X128880000Y-87619837D01*
X128880000Y-87560163D01*
X129220000Y-87560163D01*
X129220000Y-87619837D01*
X129242836Y-87674968D01*
X129285032Y-87717164D01*
X129340163Y-87740000D01*
X129399837Y-87740000D01*
X129454968Y-87717164D01*
X129497164Y-87674968D01*
X129520000Y-87619837D01*
X129520000Y-87560163D01*
X129497164Y-87505032D01*
X129454968Y-87462836D01*
X129399837Y-87440000D01*
X129340163Y-87440000D01*
X129285032Y-87462836D01*
X129242836Y-87505032D01*
X129220000Y-87560163D01*
X128880000Y-87560163D01*
X128857164Y-87505032D01*
X128841048Y-87488916D01*
X128880419Y-87467419D01*
X128950111Y-87472403D01*
X128994458Y-87500904D01*
X129050000Y-87556446D01*
X129193223Y-87413223D01*
X129696714Y-86909731D01*
X129537944Y-86854176D01*
X129370004Y-86835254D01*
X129369996Y-86835254D01*
X129202055Y-86854176D01*
X129090954Y-86893051D01*
X129021175Y-86896612D01*
X129009046Y-86893051D01*
X128897944Y-86854176D01*
X128730004Y-86835254D01*
X128729996Y-86835254D01*
X128562055Y-86854176D01*
X128450954Y-86893051D01*
X128381175Y-86896612D01*
X128369046Y-86893051D01*
X128257944Y-86854176D01*
X128090004Y-86835254D01*
X128089996Y-86835254D01*
X127922055Y-86854176D01*
X127810954Y-86893051D01*
X127741175Y-86896612D01*
X127729046Y-86893051D01*
X127617944Y-86854176D01*
X127450004Y-86835254D01*
X127449996Y-86835254D01*
X127320286Y-86849868D01*
X127251464Y-86837813D01*
X127210428Y-86799996D01*
X150394435Y-86799996D01*
X150394435Y-86800003D01*
X150414630Y-86979249D01*
X150414631Y-86979254D01*
X150474211Y-87149523D01*
X150545692Y-87263284D01*
X150570184Y-87302262D01*
X150697738Y-87429816D01*
X150850478Y-87525789D01*
X151020745Y-87585368D01*
X151020750Y-87585369D01*
X151199996Y-87605565D01*
X151200000Y-87605565D01*
X151200004Y-87605565D01*
X151379249Y-87585369D01*
X151379252Y-87585368D01*
X151379255Y-87585368D01*
X151549522Y-87525789D01*
X151702262Y-87429816D01*
X151829816Y-87302262D01*
X151925789Y-87149522D01*
X151985368Y-86979255D01*
X151986039Y-86973303D01*
X152005565Y-86800003D01*
X152005565Y-86799996D01*
X151985369Y-86620750D01*
X151985368Y-86620745D01*
X151951078Y-86522750D01*
X151925789Y-86450478D01*
X151829816Y-86297738D01*
X151702262Y-86170184D01*
X151692791Y-86164233D01*
X151549523Y-86074211D01*
X151379254Y-86014631D01*
X151379249Y-86014630D01*
X151200004Y-85994435D01*
X151199996Y-85994435D01*
X151020750Y-86014630D01*
X151020745Y-86014631D01*
X150850476Y-86074211D01*
X150697737Y-86170184D01*
X150570184Y-86297737D01*
X150474211Y-86450476D01*
X150414631Y-86620745D01*
X150414630Y-86620750D01*
X150394435Y-86799996D01*
X127210428Y-86799996D01*
X127200085Y-86790464D01*
X127182461Y-86722853D01*
X127189362Y-86685693D01*
X127246378Y-86522750D01*
X127246381Y-86522737D01*
X127266577Y-86343491D01*
X127266577Y-86343484D01*
X127246381Y-86164238D01*
X127246380Y-86164233D01*
X127194032Y-86014631D01*
X127186801Y-85993966D01*
X127090828Y-85841226D01*
X126963274Y-85713672D01*
X126810535Y-85617699D01*
X126640266Y-85558119D01*
X126640261Y-85558118D01*
X126461016Y-85537923D01*
X126461008Y-85537923D01*
X126281762Y-85558118D01*
X126281757Y-85558119D01*
X126111488Y-85617699D01*
X125958749Y-85713672D01*
X125831196Y-85841225D01*
X125735223Y-85993964D01*
X125675643Y-86164233D01*
X125675642Y-86164238D01*
X125655447Y-86343484D01*
X125200500Y-86343484D01*
X125200500Y-82325267D01*
X156923285Y-82325267D01*
X157082054Y-82380823D01*
X157082059Y-82380824D01*
X157249997Y-82399746D01*
X157250005Y-82399746D01*
X157417939Y-82380824D01*
X157417944Y-82380823D01*
X157576714Y-82325267D01*
X157576715Y-82325267D01*
X157873284Y-82325267D01*
X158032053Y-82380823D01*
X158032058Y-82380824D01*
X158199996Y-82399746D01*
X158200004Y-82399746D01*
X158367938Y-82380824D01*
X158367943Y-82380823D01*
X158526713Y-82325267D01*
X158526714Y-82325267D01*
X158823283Y-82325267D01*
X158982052Y-82380823D01*
X158982057Y-82380824D01*
X159149995Y-82399746D01*
X159150003Y-82399746D01*
X159317937Y-82380824D01*
X159317942Y-82380823D01*
X159476712Y-82325267D01*
X159476713Y-82325267D01*
X159150000Y-81998554D01*
X159149999Y-81998554D01*
X158823283Y-82325267D01*
X158526714Y-82325267D01*
X158200001Y-81998554D01*
X158200000Y-81998554D01*
X157873284Y-82325267D01*
X157576715Y-82325267D01*
X157250002Y-81998554D01*
X157250001Y-81998554D01*
X156923285Y-82325267D01*
X125200500Y-82325267D01*
X125200500Y-81644996D01*
X156495255Y-81644996D01*
X156495255Y-81645003D01*
X156514177Y-81812944D01*
X156569732Y-81971713D01*
X156896447Y-81645000D01*
X156866610Y-81615163D01*
X157100001Y-81615163D01*
X157100001Y-81674837D01*
X157122837Y-81729968D01*
X157165033Y-81772164D01*
X157220164Y-81795000D01*
X157279838Y-81795000D01*
X157334969Y-81772164D01*
X157377165Y-81729968D01*
X157400001Y-81674837D01*
X157400001Y-81645000D01*
X157603555Y-81645000D01*
X157603555Y-81645001D01*
X157724999Y-81766445D01*
X157846445Y-81644999D01*
X157816609Y-81615163D01*
X158050000Y-81615163D01*
X158050000Y-81674837D01*
X158072836Y-81729968D01*
X158115032Y-81772164D01*
X158170163Y-81795000D01*
X158229837Y-81795000D01*
X158284968Y-81772164D01*
X158327164Y-81729968D01*
X158350000Y-81674837D01*
X158350000Y-81645000D01*
X158553554Y-81645000D01*
X158553554Y-81645001D01*
X158674998Y-81766445D01*
X158796444Y-81644999D01*
X158766608Y-81615163D01*
X158999999Y-81615163D01*
X158999999Y-81674837D01*
X159022835Y-81729968D01*
X159065031Y-81772164D01*
X159120162Y-81795000D01*
X159179836Y-81795000D01*
X159234967Y-81772164D01*
X159277163Y-81729968D01*
X159299999Y-81674837D01*
X159299999Y-81644999D01*
X159503553Y-81644999D01*
X159503553Y-81645001D01*
X159830266Y-81971714D01*
X159830266Y-81971713D01*
X159885822Y-81812943D01*
X159885823Y-81812938D01*
X159904745Y-81645003D01*
X159904745Y-81644996D01*
X159885823Y-81477058D01*
X159885822Y-81477053D01*
X159830266Y-81318285D01*
X159830266Y-81318284D01*
X159503553Y-81644999D01*
X159299999Y-81644999D01*
X159299999Y-81615163D01*
X159277163Y-81560032D01*
X159234967Y-81517836D01*
X159179836Y-81495000D01*
X159120162Y-81495000D01*
X159065031Y-81517836D01*
X159022835Y-81560032D01*
X158999999Y-81615163D01*
X158766608Y-81615163D01*
X158674999Y-81523554D01*
X158553554Y-81645000D01*
X158350000Y-81645000D01*
X158350000Y-81615163D01*
X158327164Y-81560032D01*
X158284968Y-81517836D01*
X158229837Y-81495000D01*
X158170163Y-81495000D01*
X158115032Y-81517836D01*
X158072836Y-81560032D01*
X158050000Y-81615163D01*
X157816609Y-81615163D01*
X157725000Y-81523554D01*
X157603555Y-81645000D01*
X157400001Y-81645000D01*
X157400001Y-81615163D01*
X157377165Y-81560032D01*
X157334969Y-81517836D01*
X157279838Y-81495000D01*
X157220164Y-81495000D01*
X157165033Y-81517836D01*
X157122837Y-81560032D01*
X157100001Y-81615163D01*
X156866610Y-81615163D01*
X156569732Y-81318285D01*
X156514177Y-81477055D01*
X156495255Y-81644996D01*
X125200500Y-81644996D01*
X125200500Y-79849996D01*
X125744435Y-79849996D01*
X125744435Y-79850003D01*
X125764630Y-80029249D01*
X125764631Y-80029254D01*
X125824211Y-80199523D01*
X125900384Y-80320750D01*
X125920184Y-80352262D01*
X126047738Y-80479816D01*
X126200478Y-80575789D01*
X126370745Y-80635368D01*
X126370750Y-80635369D01*
X126549996Y-80655565D01*
X126550000Y-80655565D01*
X126550004Y-80655565D01*
X126729249Y-80635369D01*
X126729252Y-80635368D01*
X126729255Y-80635368D01*
X126899522Y-80575789D01*
X127020146Y-80499996D01*
X134294435Y-80499996D01*
X134294435Y-80500003D01*
X134314630Y-80679249D01*
X134314631Y-80679254D01*
X134374211Y-80849523D01*
X134411694Y-80909176D01*
X134470184Y-81002262D01*
X134597738Y-81129816D01*
X134750478Y-81225789D01*
X134920745Y-81285368D01*
X134920750Y-81285369D01*
X135099996Y-81305565D01*
X135100000Y-81305565D01*
X135100004Y-81305565D01*
X135279249Y-81285369D01*
X135279252Y-81285368D01*
X135279255Y-81285368D01*
X135449522Y-81225789D01*
X135602262Y-81129816D01*
X135729816Y-81002262D01*
X135825789Y-80849522D01*
X135885368Y-80679255D01*
X135885369Y-80679249D01*
X135905565Y-80500003D01*
X135905565Y-80499996D01*
X141094435Y-80499996D01*
X141094435Y-80500003D01*
X141114630Y-80679249D01*
X141114631Y-80679254D01*
X141174211Y-80849523D01*
X141211694Y-80909176D01*
X141270184Y-81002262D01*
X141397738Y-81129816D01*
X141550478Y-81225789D01*
X141720745Y-81285368D01*
X141720750Y-81285369D01*
X141899996Y-81305565D01*
X141900000Y-81305565D01*
X141900004Y-81305565D01*
X142079249Y-81285369D01*
X142079252Y-81285368D01*
X142079255Y-81285368D01*
X142249522Y-81225789D01*
X142402262Y-81129816D01*
X142529816Y-81002262D01*
X142553398Y-80964731D01*
X156923286Y-80964731D01*
X157250001Y-81291446D01*
X157250002Y-81291446D01*
X157576715Y-80964731D01*
X157873285Y-80964731D01*
X158200000Y-81291446D01*
X158200001Y-81291446D01*
X158526714Y-80964731D01*
X158823284Y-80964731D01*
X159149999Y-81291446D01*
X159150000Y-81291446D01*
X159476713Y-80964731D01*
X159317943Y-80909176D01*
X159150003Y-80890254D01*
X159149995Y-80890254D01*
X158982054Y-80909176D01*
X158823284Y-80964731D01*
X158526714Y-80964731D01*
X158367944Y-80909176D01*
X158200004Y-80890254D01*
X158199996Y-80890254D01*
X158032055Y-80909176D01*
X157873285Y-80964731D01*
X157576715Y-80964731D01*
X157417945Y-80909176D01*
X157250005Y-80890254D01*
X157249997Y-80890254D01*
X157082056Y-80909176D01*
X156923286Y-80964731D01*
X142553398Y-80964731D01*
X142625789Y-80849522D01*
X142685368Y-80679255D01*
X142685369Y-80679249D01*
X142705565Y-80500003D01*
X142705565Y-80499996D01*
X142685369Y-80320750D01*
X142685368Y-80320745D01*
X142625789Y-80150478D01*
X142529816Y-79997738D01*
X142402262Y-79870184D01*
X142370144Y-79850003D01*
X142249523Y-79774211D01*
X142079254Y-79714631D01*
X142079249Y-79714630D01*
X141900004Y-79694435D01*
X141899996Y-79694435D01*
X141720750Y-79714630D01*
X141720745Y-79714631D01*
X141550476Y-79774211D01*
X141397737Y-79870184D01*
X141270184Y-79997737D01*
X141174211Y-80150476D01*
X141114631Y-80320745D01*
X141114630Y-80320750D01*
X141094435Y-80499996D01*
X135905565Y-80499996D01*
X135885369Y-80320750D01*
X135885368Y-80320745D01*
X135825789Y-80150478D01*
X135729816Y-79997738D01*
X135602262Y-79870184D01*
X135570144Y-79850003D01*
X135449523Y-79774211D01*
X135279254Y-79714631D01*
X135279249Y-79714630D01*
X135100004Y-79694435D01*
X135099996Y-79694435D01*
X134920750Y-79714630D01*
X134920745Y-79714631D01*
X134750476Y-79774211D01*
X134597737Y-79870184D01*
X134470184Y-79997737D01*
X134374211Y-80150476D01*
X134314631Y-80320745D01*
X134314630Y-80320750D01*
X134294435Y-80499996D01*
X127020146Y-80499996D01*
X127052262Y-80479816D01*
X127179816Y-80352262D01*
X127275789Y-80199522D01*
X127335368Y-80029255D01*
X127338919Y-79997738D01*
X127355565Y-79850003D01*
X127355565Y-79849996D01*
X127335369Y-79670750D01*
X127335368Y-79670745D01*
X127275788Y-79500476D01*
X127179815Y-79347737D01*
X127052262Y-79220184D01*
X126899523Y-79124211D01*
X126729254Y-79064631D01*
X126729249Y-79064630D01*
X126550004Y-79044435D01*
X126549996Y-79044435D01*
X126370750Y-79064630D01*
X126370745Y-79064631D01*
X126200476Y-79124211D01*
X126047737Y-79220184D01*
X125920184Y-79347737D01*
X125824211Y-79500476D01*
X125764631Y-79670745D01*
X125764630Y-79670750D01*
X125744435Y-79849996D01*
X125200500Y-79849996D01*
X125200500Y-78199996D01*
X152690435Y-78199996D01*
X152690435Y-78200003D01*
X152710630Y-78379249D01*
X152710631Y-78379254D01*
X152770211Y-78549523D01*
X152866184Y-78702262D01*
X152993738Y-78829816D01*
X153146478Y-78925789D01*
X153316745Y-78985368D01*
X153316750Y-78985369D01*
X153495996Y-79005565D01*
X153496000Y-79005565D01*
X153496004Y-79005565D01*
X153675249Y-78985369D01*
X153675252Y-78985368D01*
X153675255Y-78985368D01*
X153845522Y-78925789D01*
X153998262Y-78829816D01*
X154125816Y-78702262D01*
X154221789Y-78549522D01*
X154281368Y-78379255D01*
X154301565Y-78200000D01*
X154281368Y-78020745D01*
X154221789Y-77850478D01*
X154125816Y-77697738D01*
X153998262Y-77570184D01*
X153845523Y-77474211D01*
X153675254Y-77414631D01*
X153675249Y-77414630D01*
X153496004Y-77394435D01*
X153495996Y-77394435D01*
X153316750Y-77414630D01*
X153316745Y-77414631D01*
X153146476Y-77474211D01*
X152993737Y-77570184D01*
X152866184Y-77697737D01*
X152770211Y-77850476D01*
X152710631Y-78020745D01*
X152710630Y-78020750D01*
X152690435Y-78199996D01*
X125200500Y-78199996D01*
X125200500Y-73378711D01*
X126049500Y-73378711D01*
X126049500Y-73621288D01*
X126081161Y-73861785D01*
X126143947Y-74096104D01*
X126236773Y-74320205D01*
X126236776Y-74320212D01*
X126358064Y-74530289D01*
X126358066Y-74530292D01*
X126358067Y-74530293D01*
X126505733Y-74722736D01*
X126505739Y-74722743D01*
X126677256Y-74894260D01*
X126677262Y-74894265D01*
X126869711Y-75041936D01*
X127079788Y-75163224D01*
X127303900Y-75256054D01*
X127538211Y-75318838D01*
X127718586Y-75342584D01*
X127778711Y-75350500D01*
X127778712Y-75350500D01*
X128021289Y-75350500D01*
X128069388Y-75344167D01*
X128261789Y-75318838D01*
X128496100Y-75256054D01*
X128720212Y-75163224D01*
X128930289Y-75041936D01*
X129122738Y-74894265D01*
X129294265Y-74722738D01*
X129441936Y-74530289D01*
X129563224Y-74320212D01*
X129656054Y-74096100D01*
X129718838Y-73861789D01*
X129750500Y-73621288D01*
X129750500Y-73378712D01*
X129750500Y-73378711D01*
X157049500Y-73378711D01*
X157049500Y-73621288D01*
X157081161Y-73861785D01*
X157143947Y-74096104D01*
X157236773Y-74320205D01*
X157236776Y-74320212D01*
X157358064Y-74530289D01*
X157358066Y-74530292D01*
X157358067Y-74530293D01*
X157505733Y-74722736D01*
X157505739Y-74722743D01*
X157677256Y-74894260D01*
X157677262Y-74894265D01*
X157869711Y-75041936D01*
X158079788Y-75163224D01*
X158303900Y-75256054D01*
X158538211Y-75318838D01*
X158718586Y-75342584D01*
X158778711Y-75350500D01*
X158778712Y-75350500D01*
X159021289Y-75350500D01*
X159069388Y-75344167D01*
X159261789Y-75318838D01*
X159496100Y-75256054D01*
X159720212Y-75163224D01*
X159930289Y-75041936D01*
X160122738Y-74894265D01*
X160294265Y-74722738D01*
X160441936Y-74530289D01*
X160563224Y-74320212D01*
X160656054Y-74096100D01*
X160718838Y-73861789D01*
X160750500Y-73621288D01*
X160750500Y-73378712D01*
X160718838Y-73138211D01*
X160656054Y-72903900D01*
X160563224Y-72679788D01*
X160441936Y-72469711D01*
X160294265Y-72277262D01*
X160294260Y-72277256D01*
X160122743Y-72105739D01*
X160122736Y-72105733D01*
X159930293Y-71958067D01*
X159930292Y-71958066D01*
X159930289Y-71958064D01*
X159720212Y-71836776D01*
X159720205Y-71836773D01*
X159496104Y-71743947D01*
X159261785Y-71681161D01*
X159021289Y-71649500D01*
X159021288Y-71649500D01*
X158778712Y-71649500D01*
X158778711Y-71649500D01*
X158538214Y-71681161D01*
X158303895Y-71743947D01*
X158079794Y-71836773D01*
X158079785Y-71836777D01*
X157869706Y-71958067D01*
X157677263Y-72105733D01*
X157677256Y-72105739D01*
X157505739Y-72277256D01*
X157505733Y-72277263D01*
X157358067Y-72469706D01*
X157236777Y-72679785D01*
X157236773Y-72679794D01*
X157143947Y-72903895D01*
X157081161Y-73138214D01*
X157049500Y-73378711D01*
X129750500Y-73378711D01*
X129718838Y-73138211D01*
X129656054Y-72903900D01*
X129563224Y-72679788D01*
X129441936Y-72469711D01*
X129294265Y-72277262D01*
X129294260Y-72277256D01*
X129122743Y-72105739D01*
X129122736Y-72105733D01*
X128930293Y-71958067D01*
X128930292Y-71958066D01*
X128930289Y-71958064D01*
X128720212Y-71836776D01*
X128720205Y-71836773D01*
X128496104Y-71743947D01*
X128261785Y-71681161D01*
X128021289Y-71649500D01*
X128021288Y-71649500D01*
X127778712Y-71649500D01*
X127778711Y-71649500D01*
X127538214Y-71681161D01*
X127303895Y-71743947D01*
X127079794Y-71836773D01*
X127079785Y-71836777D01*
X126869706Y-71958067D01*
X126677263Y-72105733D01*
X126677256Y-72105739D01*
X126505739Y-72277256D01*
X126505733Y-72277263D01*
X126358067Y-72469706D01*
X126236777Y-72679785D01*
X126236773Y-72679794D01*
X126143947Y-72903895D01*
X126081161Y-73138214D01*
X126049500Y-73378711D01*
X125200500Y-73378711D01*
X125200500Y-72404427D01*
X125200816Y-72395581D01*
X125209278Y-72277263D01*
X125215130Y-72195436D01*
X125217646Y-72177938D01*
X125259356Y-71986199D01*
X125264333Y-71969248D01*
X125332911Y-71785385D01*
X125340259Y-71769298D01*
X125354102Y-71743946D01*
X125434291Y-71597089D01*
X125443845Y-71582221D01*
X125561448Y-71425123D01*
X125573020Y-71411769D01*
X125711769Y-71273020D01*
X125725123Y-71261448D01*
X125882221Y-71143845D01*
X125897089Y-71134291D01*
X126069298Y-71040258D01*
X126085385Y-71032911D01*
X126269248Y-70964333D01*
X126286199Y-70959356D01*
X126477938Y-70917646D01*
X126495436Y-70915130D01*
X126695582Y-70900816D01*
X126704428Y-70900500D01*
X126765892Y-70900500D01*
X160034108Y-70900500D01*
X160095572Y-70900500D01*
X160104418Y-70900816D01*
G37*
%TD.AperFunction*%
%TD*%
M02*
