%TF.GenerationSoftware,KiCad,Pcbnew,8.0.8*%
%TF.CreationDate,2025-02-12T11:11:18-05:00*%
%TF.ProjectId,high-power-module,68696768-2d70-46f7-9765-722d6d6f6475,rev?*%
%TF.SameCoordinates,Original*%
%TF.FileFunction,Paste,Top*%
%TF.FilePolarity,Positive*%
%FSLAX46Y46*%
G04 Gerber Fmt 4.6, Leading zero omitted, Abs format (unit mm)*
G04 Created by KiCad (PCBNEW 8.0.8) date 2025-02-12 11:11:18*
%MOMM*%
%LPD*%
G01*
G04 APERTURE LIST*
G04 Aperture macros list*
%AMRoundRect*
0 Rectangle with rounded corners*
0 $1 Rounding radius*
0 $2 $3 $4 $5 $6 $7 $8 $9 X,Y pos of 4 corners*
0 Add a 4 corners polygon primitive as box body*
4,1,4,$2,$3,$4,$5,$6,$7,$8,$9,$2,$3,0*
0 Add four circle primitives for the rounded corners*
1,1,$1+$1,$2,$3*
1,1,$1+$1,$4,$5*
1,1,$1+$1,$6,$7*
1,1,$1+$1,$8,$9*
0 Add four rect primitives between the rounded corners*
20,1,$1+$1,$2,$3,$4,$5,0*
20,1,$1+$1,$4,$5,$6,$7,0*
20,1,$1+$1,$6,$7,$8,$9,0*
20,1,$1+$1,$8,$9,$2,$3,0*%
G04 Aperture macros list end*
%ADD10RoundRect,0.250000X-0.325000X-0.450000X0.325000X-0.450000X0.325000X0.450000X-0.325000X0.450000X0*%
%ADD11RoundRect,0.250000X-0.450000X0.325000X-0.450000X-0.325000X0.450000X-0.325000X0.450000X0.325000X0*%
%ADD12RoundRect,0.250000X0.337500X0.475000X-0.337500X0.475000X-0.337500X-0.475000X0.337500X-0.475000X0*%
%ADD13RoundRect,0.250000X0.475000X-0.337500X0.475000X0.337500X-0.475000X0.337500X-0.475000X-0.337500X0*%
%ADD14RoundRect,0.250000X0.325000X0.450000X-0.325000X0.450000X-0.325000X-0.450000X0.325000X-0.450000X0*%
%ADD15RoundRect,0.250000X-0.475000X0.337500X-0.475000X-0.337500X0.475000X-0.337500X0.475000X0.337500X0*%
%ADD16RoundRect,0.250000X0.450000X-0.350000X0.450000X0.350000X-0.450000X0.350000X-0.450000X-0.350000X0*%
%ADD17RoundRect,0.250000X-0.337500X-0.475000X0.337500X-0.475000X0.337500X0.475000X-0.337500X0.475000X0*%
%ADD18RoundRect,0.250000X-0.450000X0.262500X-0.450000X-0.262500X0.450000X-0.262500X0.450000X0.262500X0*%
%ADD19RoundRect,0.250000X-0.350000X-0.450000X0.350000X-0.450000X0.350000X0.450000X-0.350000X0.450000X0*%
%ADD20RoundRect,0.237500X-0.287500X-0.237500X0.287500X-0.237500X0.287500X0.237500X-0.287500X0.237500X0*%
%ADD21RoundRect,0.250000X0.450000X-0.325000X0.450000X0.325000X-0.450000X0.325000X-0.450000X-0.325000X0*%
%ADD22RoundRect,0.200000X-0.300000X0.200000X-0.300000X-0.200000X0.300000X-0.200000X0.300000X0.200000X0*%
%ADD23C,3.200000*%
%ADD24RoundRect,0.062500X0.062500X-0.262500X0.062500X0.262500X-0.062500X0.262500X-0.062500X-0.262500X0*%
%ADD25O,0.380000X0.700000*%
%ADD26O,0.700000X0.380000*%
%ADD27R,2.700000X2.700000*%
%ADD28RoundRect,0.250000X-0.315000X-0.315000X0.315000X-0.315000X0.315000X0.315000X-0.315000X0.315000X0*%
%ADD29RoundRect,0.062500X-0.362500X-0.062500X0.362500X-0.062500X0.362500X0.062500X-0.362500X0.062500X0*%
%ADD30RoundRect,0.062500X-0.062500X-0.362500X0.062500X-0.362500X0.062500X0.362500X-0.062500X0.362500X0*%
G04 APERTURE END LIST*
D10*
%TO.C,L3*%
X128650000Y-85200000D03*
X130700000Y-85200000D03*
%TD*%
D11*
%TO.C,CS1*%
X154200000Y-90150000D03*
X154200000Y-92200000D03*
%TD*%
D12*
%TO.C,CM6*%
X140700000Y-86500000D03*
X138625000Y-86500000D03*
%TD*%
D11*
%TO.C,GPIO3*%
X148200000Y-79575000D03*
X148200000Y-81625000D03*
%TD*%
D13*
%TO.C,CM4*%
X134900000Y-92000000D03*
X134900000Y-89925000D03*
%TD*%
D14*
%TO.C,LM2*%
X134900000Y-93800000D03*
X132850000Y-93800000D03*
%TD*%
D15*
%TO.C,C8*%
X136500000Y-78325000D03*
X136500000Y-80400000D03*
%TD*%
D11*
%TO.C,SDN1*%
X146100000Y-79575000D03*
X146100000Y-81625000D03*
%TD*%
D16*
%TO.C,R6*%
X150250000Y-77900000D03*
X150250000Y-75900000D03*
%TD*%
D14*
%TO.C,3V3*%
X156525000Y-80200000D03*
X154475000Y-80200000D03*
%TD*%
%TO.C,LM4*%
X138700000Y-93800000D03*
X136650000Y-93800000D03*
%TD*%
D11*
%TO.C,GPIO1*%
X158400000Y-90150000D03*
X158400000Y-92200000D03*
%TD*%
D17*
%TO.C,CB3*%
X148625000Y-89600000D03*
X150700000Y-89600000D03*
%TD*%
D12*
%TO.C,CM3*%
X137037500Y-95800000D03*
X134962500Y-95800000D03*
%TD*%
D18*
%TO.C,R14*%
X141600000Y-98175000D03*
X141600000Y-100000000D03*
%TD*%
D19*
%TO.C,R12*%
X158300000Y-80200000D03*
X160300000Y-80200000D03*
%TD*%
D20*
%TO.C,LR1*%
X142950000Y-91800000D03*
X144700000Y-91800000D03*
%TD*%
D21*
%TO.C,LR2*%
X142500000Y-90200000D03*
X142500000Y-88150000D03*
%TD*%
D15*
%TO.C,CM5*%
X132900000Y-95600000D03*
X132900000Y-97675000D03*
%TD*%
D11*
%TO.C,IRQ1*%
X156300000Y-90150000D03*
X156300000Y-92200000D03*
%TD*%
D22*
%TO.C,TCXO1*%
X149300000Y-85900000D03*
X149300000Y-88000000D03*
X150700000Y-88000000D03*
X150700000Y-85900000D03*
%TD*%
D23*
%TO.C,H4*%
X127900000Y-97500000D03*
%TD*%
D16*
%TO.C,R10*%
X156300000Y-88475000D03*
X156300000Y-86475000D03*
%TD*%
D13*
%TO.C,CR2*%
X144500000Y-90200000D03*
X144500000Y-88125000D03*
%TD*%
D11*
%TO.C,GPIO2*%
X150300000Y-79575000D03*
X150300000Y-81625000D03*
%TD*%
D24*
%TO.C,RFS1*%
X137950000Y-82900000D03*
X138600000Y-82900000D03*
X139250000Y-82900000D03*
X139250000Y-80900000D03*
X138600000Y-80900000D03*
X137950000Y-80900000D03*
%TD*%
D12*
%TO.C,CM1*%
X136900000Y-75500000D03*
X134825000Y-75500000D03*
%TD*%
D23*
%TO.C,H1*%
X127900000Y-73500000D03*
%TD*%
D17*
%TO.C,CD1*%
X150125000Y-84300000D03*
X152200000Y-84300000D03*
%TD*%
D13*
%TO.C,C9*%
X140700000Y-80400000D03*
X140700000Y-78325000D03*
%TD*%
D16*
%TO.C,R5*%
X148200000Y-77900000D03*
X148200000Y-75900000D03*
%TD*%
%TO.C,R9*%
X154200000Y-88475000D03*
X154200000Y-86475000D03*
%TD*%
D12*
%TO.C,CM7*%
X140700000Y-84500000D03*
X138625000Y-84500000D03*
%TD*%
D14*
%TO.C,L0*%
X140850000Y-95700000D03*
X138800000Y-95700000D03*
%TD*%
D25*
%TO.C,PA1*%
X127160000Y-90440000D03*
X127660000Y-90440000D03*
X128160000Y-90440000D03*
X128660000Y-90440000D03*
X129160000Y-90440000D03*
X129660000Y-90440000D03*
D26*
X130300000Y-89800000D03*
X130300000Y-89300000D03*
X130300000Y-88800000D03*
X130300000Y-88300000D03*
X130300000Y-87800000D03*
X130300000Y-87300000D03*
D25*
X129660000Y-86660000D03*
X129160000Y-86660000D03*
X128660000Y-86660000D03*
X128160000Y-86660000D03*
X127660000Y-86660000D03*
X127160000Y-86660000D03*
D26*
X126520000Y-87300000D03*
X126520000Y-87800000D03*
X126520000Y-88300000D03*
X126520000Y-88800000D03*
X126520000Y-89300000D03*
X126520000Y-89800000D03*
D27*
X128410000Y-88550000D03*
%TD*%
D11*
%TO.C,GPIO0*%
X160500000Y-90150000D03*
X160500000Y-92200000D03*
%TD*%
D17*
%TO.C,C2*%
X128925000Y-91900000D03*
X131000000Y-91900000D03*
%TD*%
D15*
%TO.C,CM2*%
X142700000Y-75500000D03*
X142700000Y-77575000D03*
%TD*%
D13*
%TO.C,CB4*%
X138600000Y-79437500D03*
X138600000Y-77362500D03*
%TD*%
D17*
%TO.C,CD3*%
X147700000Y-99100000D03*
X149775000Y-99100000D03*
%TD*%
%TO.C,C5*%
X126575000Y-81250000D03*
X128650000Y-81250000D03*
%TD*%
%TO.C,CD2*%
X147700000Y-97100000D03*
X149775000Y-97100000D03*
%TD*%
D16*
%TO.C,R11*%
X146100000Y-77900000D03*
X146100000Y-75900000D03*
%TD*%
D14*
%TO.C,5V1*%
X156525000Y-78100000D03*
X154475000Y-78100000D03*
%TD*%
D17*
%TO.C,CR1*%
X141625000Y-93600000D03*
X143700000Y-93600000D03*
%TD*%
D13*
%TO.C,C6*%
X132700000Y-88200000D03*
X132700000Y-86125000D03*
%TD*%
D21*
%TO.C,LM6*%
X132700000Y-84400000D03*
X132700000Y-82350000D03*
%TD*%
D12*
%TO.C,CB1*%
X136600000Y-82500000D03*
X134525000Y-82500000D03*
%TD*%
D28*
%TO.C,U1*%
X147550000Y-92525000D03*
X147550000Y-93825000D03*
X148850000Y-92525000D03*
X148850000Y-93825000D03*
D29*
X146275000Y-92175000D03*
X146275000Y-92675000D03*
X146275000Y-93175000D03*
X146275000Y-93675000D03*
X146275000Y-94175000D03*
D30*
X147200000Y-95100000D03*
X147700000Y-95100000D03*
X148200000Y-95100000D03*
X148700000Y-95100000D03*
X149200000Y-95100000D03*
D29*
X150125000Y-94175000D03*
X150125000Y-93675000D03*
X150125000Y-93175000D03*
X150125000Y-92675000D03*
X150125000Y-92175000D03*
D30*
X149200000Y-91250000D03*
X148700000Y-91250000D03*
X148200000Y-91250000D03*
X147700000Y-91250000D03*
X147200000Y-91250000D03*
%TD*%
D23*
%TO.C,H2*%
X158900000Y-73500000D03*
%TD*%
%TO.C,H3*%
X158900000Y-97500000D03*
%TD*%
D11*
%TO.C,L1*%
X132900000Y-89950000D03*
X132900000Y-92000000D03*
%TD*%
D12*
%TO.C,C0*%
X144700000Y-95600000D03*
X142625000Y-95600000D03*
%TD*%
%TO.C,CB2*%
X142700000Y-82500000D03*
X140625000Y-82500000D03*
%TD*%
D16*
%TO.C,R8*%
X160500000Y-88475000D03*
X160500000Y-86475000D03*
%TD*%
D10*
%TO.C,L2*%
X126600000Y-83250000D03*
X128650000Y-83250000D03*
%TD*%
D21*
%TO.C,LM5*%
X142500000Y-86500000D03*
X142500000Y-84450000D03*
%TD*%
D19*
%TO.C,R4*%
X158300000Y-78100000D03*
X160300000Y-78100000D03*
%TD*%
D16*
%TO.C,R7*%
X158400000Y-88475000D03*
X158400000Y-86475000D03*
%TD*%
D21*
%TO.C,LChoke1*%
X144600000Y-99600000D03*
X144600000Y-97550000D03*
%TD*%
D10*
%TO.C,LM1*%
X138600000Y-75500000D03*
X140650000Y-75500000D03*
%TD*%
D13*
%TO.C,CM8*%
X130700000Y-83300000D03*
X130700000Y-81225000D03*
%TD*%
D15*
%TO.C,CM9*%
X134700000Y-84325000D03*
X134700000Y-86400000D03*
%TD*%
M02*
