%TF.GenerationSoftware,KiCad,Pcbnew,8.0.8*%
%TF.CreationDate,2025-02-12T11:11:18-05:00*%
%TF.ProjectId,high-power-module,68696768-2d70-46f7-9765-722d6d6f6475,rev?*%
%TF.SameCoordinates,Original*%
%TF.FileFunction,Copper,L1,Top*%
%TF.FilePolarity,Positive*%
%FSLAX46Y46*%
G04 Gerber Fmt 4.6, Leading zero omitted, Abs format (unit mm)*
G04 Created by KiCad (PCBNEW 8.0.8) date 2025-02-12 11:11:18*
%MOMM*%
%LPD*%
G01*
G04 APERTURE LIST*
G04 Aperture macros list*
%AMRoundRect*
0 Rectangle with rounded corners*
0 $1 Rounding radius*
0 $2 $3 $4 $5 $6 $7 $8 $9 X,Y pos of 4 corners*
0 Add a 4 corners polygon primitive as box body*
4,1,4,$2,$3,$4,$5,$6,$7,$8,$9,$2,$3,0*
0 Add four circle primitives for the rounded corners*
1,1,$1+$1,$2,$3*
1,1,$1+$1,$4,$5*
1,1,$1+$1,$6,$7*
1,1,$1+$1,$8,$9*
0 Add four rect primitives between the rounded corners*
20,1,$1+$1,$2,$3,$4,$5,0*
20,1,$1+$1,$4,$5,$6,$7,0*
20,1,$1+$1,$6,$7,$8,$9,0*
20,1,$1+$1,$8,$9,$2,$3,0*%
G04 Aperture macros list end*
%TA.AperFunction,SMDPad,CuDef*%
%ADD10RoundRect,0.250000X-0.325000X-0.450000X0.325000X-0.450000X0.325000X0.450000X-0.325000X0.450000X0*%
%TD*%
%TA.AperFunction,SMDPad,CuDef*%
%ADD11RoundRect,0.250000X-0.450000X0.325000X-0.450000X-0.325000X0.450000X-0.325000X0.450000X0.325000X0*%
%TD*%
%TA.AperFunction,SMDPad,CuDef*%
%ADD12RoundRect,0.250000X0.337500X0.475000X-0.337500X0.475000X-0.337500X-0.475000X0.337500X-0.475000X0*%
%TD*%
%TA.AperFunction,SMDPad,CuDef*%
%ADD13RoundRect,0.250000X0.475000X-0.337500X0.475000X0.337500X-0.475000X0.337500X-0.475000X-0.337500X0*%
%TD*%
%TA.AperFunction,SMDPad,CuDef*%
%ADD14RoundRect,0.250000X0.325000X0.450000X-0.325000X0.450000X-0.325000X-0.450000X0.325000X-0.450000X0*%
%TD*%
%TA.AperFunction,SMDPad,CuDef*%
%ADD15RoundRect,0.250000X-0.475000X0.337500X-0.475000X-0.337500X0.475000X-0.337500X0.475000X0.337500X0*%
%TD*%
%TA.AperFunction,SMDPad,CuDef*%
%ADD16RoundRect,0.250000X0.450000X-0.350000X0.450000X0.350000X-0.450000X0.350000X-0.450000X-0.350000X0*%
%TD*%
%TA.AperFunction,SMDPad,CuDef*%
%ADD17RoundRect,0.250000X-0.337500X-0.475000X0.337500X-0.475000X0.337500X0.475000X-0.337500X0.475000X0*%
%TD*%
%TA.AperFunction,SMDPad,CuDef*%
%ADD18RoundRect,0.250000X-0.450000X0.262500X-0.450000X-0.262500X0.450000X-0.262500X0.450000X0.262500X0*%
%TD*%
%TA.AperFunction,SMDPad,CuDef*%
%ADD19RoundRect,0.250000X-0.350000X-0.450000X0.350000X-0.450000X0.350000X0.450000X-0.350000X0.450000X0*%
%TD*%
%TA.AperFunction,SMDPad,CuDef*%
%ADD20RoundRect,0.237500X-0.287500X-0.237500X0.287500X-0.237500X0.287500X0.237500X-0.287500X0.237500X0*%
%TD*%
%TA.AperFunction,SMDPad,CuDef*%
%ADD21RoundRect,0.250000X0.450000X-0.325000X0.450000X0.325000X-0.450000X0.325000X-0.450000X-0.325000X0*%
%TD*%
%TA.AperFunction,SMDPad,CuDef*%
%ADD22RoundRect,0.200000X-0.300000X0.200000X-0.300000X-0.200000X0.300000X-0.200000X0.300000X0.200000X0*%
%TD*%
%TA.AperFunction,ComponentPad*%
%ADD23R,1.700000X1.700000*%
%TD*%
%TA.AperFunction,ComponentPad*%
%ADD24O,1.700000X1.700000*%
%TD*%
%TA.AperFunction,SMDPad,CuDef*%
%ADD25RoundRect,0.062500X0.062500X-0.262500X0.062500X0.262500X-0.062500X0.262500X-0.062500X-0.262500X0*%
%TD*%
%TA.AperFunction,SMDPad,CuDef*%
%ADD26R,1.270000X4.064000*%
%TD*%
%TA.AperFunction,SMDPad,CuDef*%
%ADD27R,1.524000X4.064000*%
%TD*%
%TA.AperFunction,SMDPad,CuDef*%
%ADD28O,0.380000X0.700000*%
%TD*%
%TA.AperFunction,SMDPad,CuDef*%
%ADD29O,0.700000X0.380000*%
%TD*%
%TA.AperFunction,ComponentPad*%
%ADD30C,0.500000*%
%TD*%
%TA.AperFunction,SMDPad,CuDef*%
%ADD31R,2.700000X2.700000*%
%TD*%
%TA.AperFunction,ComponentPad*%
%ADD32RoundRect,0.250000X-0.600000X-0.725000X0.600000X-0.725000X0.600000X0.725000X-0.600000X0.725000X0*%
%TD*%
%TA.AperFunction,ComponentPad*%
%ADD33O,1.700000X1.950000*%
%TD*%
%TA.AperFunction,SMDPad,CuDef*%
%ADD34RoundRect,0.062500X-0.362500X-0.062500X0.362500X-0.062500X0.362500X0.062500X-0.362500X0.062500X0*%
%TD*%
%TA.AperFunction,SMDPad,CuDef*%
%ADD35RoundRect,0.062500X-0.062500X-0.362500X0.062500X-0.362500X0.062500X0.362500X-0.062500X0.362500X0*%
%TD*%
%TA.AperFunction,HeatsinkPad*%
%ADD36C,0.500000*%
%TD*%
%TA.AperFunction,HeatsinkPad*%
%ADD37R,2.600000X2.600000*%
%TD*%
%TA.AperFunction,SMDPad,CuDef*%
%ADD38R,2.400000X0.840000*%
%TD*%
%TA.AperFunction,ViaPad*%
%ADD39C,0.600000*%
%TD*%
%TA.AperFunction,Conductor*%
%ADD40C,0.156464*%
%TD*%
%TA.AperFunction,Conductor*%
%ADD41C,0.508000*%
%TD*%
%TA.AperFunction,Conductor*%
%ADD42C,0.254000*%
%TD*%
%TA.AperFunction,Conductor*%
%ADD43C,0.152400*%
%TD*%
G04 APERTURE END LIST*
D10*
%TO.P,L3,1,1*%
%TO.N,Net-(L2-Pad2)*%
X128650000Y-85200000D03*
%TO.P,L3,2,2*%
%TO.N,Net-(C6-Pad2)*%
X130700000Y-85200000D03*
%TD*%
D11*
%TO.P,CS1,1,K*%
%TO.N,Net-(CS1-K)*%
X154200000Y-90150000D03*
%TO.P,CS1,2,A*%
%TO.N,CS*%
X154200000Y-92200000D03*
%TD*%
D12*
%TO.P,CM6,1*%
%TO.N,Net-(CM6-Pad1)*%
X140700000Y-86500000D03*
%TO.P,CM6,2*%
%TO.N,GND*%
X138625000Y-86500000D03*
%TD*%
D11*
%TO.P,GPIO3,1,K*%
%TO.N,Net-(GPIO3-K)*%
X148200000Y-79575000D03*
%TO.P,GPIO3,2,A*%
%TO.N,GPIO3*%
X148200000Y-81625000D03*
%TD*%
D13*
%TO.P,CM4,1*%
%TO.N,Net-(CM3-Pad2)*%
X134900000Y-92000000D03*
%TO.P,CM4,2*%
%TO.N,GND*%
X134900000Y-89925000D03*
%TD*%
D14*
%TO.P,LM2,1,1*%
%TO.N,Net-(CM3-Pad2)*%
X134900000Y-93800000D03*
%TO.P,LM2,2,2*%
%TO.N,Net-(C2-Pad2)*%
X132850000Y-93800000D03*
%TD*%
D15*
%TO.P,C8,1*%
%TO.N,GND*%
X136500000Y-78325000D03*
%TO.P,C8,2*%
%TO.N,GPIO3*%
X136500000Y-80400000D03*
%TD*%
D11*
%TO.P,SDN1,1,K*%
%TO.N,Net-(SDN1-K)*%
X146100000Y-79575000D03*
%TO.P,SDN1,2,A*%
%TO.N,SDN*%
X146100000Y-81625000D03*
%TD*%
D16*
%TO.P,R6,1*%
%TO.N,Net-(GPIO2-K)*%
X150250000Y-77900000D03*
%TO.P,R6,2*%
%TO.N,GND*%
X150250000Y-75900000D03*
%TD*%
D14*
%TO.P,3V3,1,K*%
%TO.N,Net-(3V3-K)*%
X156525000Y-80200000D03*
%TO.P,3V3,2,A*%
%TO.N,+3.3V*%
X154475000Y-80200000D03*
%TD*%
%TO.P,LM4,1,1*%
%TO.N,GND*%
X138700000Y-93800000D03*
%TO.P,LM4,2,2*%
%TO.N,Net-(CM3-Pad2)*%
X136650000Y-93800000D03*
%TD*%
D11*
%TO.P,GPIO1,1,K*%
%TO.N,Net-(GPIO1-K)*%
X158400000Y-90150000D03*
%TO.P,GPIO1,2,A*%
%TO.N,GPIO1*%
X158400000Y-92200000D03*
%TD*%
D17*
%TO.P,CB3,1*%
%TO.N,XO_IN*%
X148625000Y-89600000D03*
%TO.P,CB3,2*%
%TO.N,Net-(TCXO1-OUTPUT)*%
X150700000Y-89600000D03*
%TD*%
D12*
%TO.P,CM3,1*%
%TO.N,Net-(CM3-Pad1)*%
X137037500Y-95800000D03*
%TO.P,CM3,2*%
%TO.N,Net-(CM3-Pad2)*%
X134962500Y-95800000D03*
%TD*%
D18*
%TO.P,R14,1*%
%TO.N,Net-(J4-Pin_2)*%
X141600000Y-98175000D03*
%TO.P,R14,2*%
%TO.N,+3.3V*%
X141600000Y-100000000D03*
%TD*%
D19*
%TO.P,R12,1*%
%TO.N,Net-(3V3-K)*%
X158300000Y-80200000D03*
%TO.P,R12,2*%
%TO.N,GND*%
X160300000Y-80200000D03*
%TD*%
D20*
%TO.P,LR1,1,1*%
%TO.N,RXn*%
X142950000Y-91800000D03*
%TO.P,LR1,2,2*%
%TO.N,RXp*%
X144700000Y-91800000D03*
%TD*%
D21*
%TO.P,LR2,1,1*%
%TO.N,RXn*%
X142500000Y-90200000D03*
%TO.P,LR2,2,2*%
%TO.N,Net-(CM6-Pad1)*%
X142500000Y-88150000D03*
%TD*%
D15*
%TO.P,CM5,1*%
%TO.N,Net-(C2-Pad2)*%
X132900000Y-95600000D03*
%TO.P,CM5,2*%
%TO.N,GND*%
X132900000Y-97675000D03*
%TD*%
D11*
%TO.P,IRQ1,1,K*%
%TO.N,Net-(IRQ1-K)*%
X156300000Y-90150000D03*
%TO.P,IRQ1,2,A*%
%TO.N,IRQ*%
X156300000Y-92200000D03*
%TD*%
D22*
%TO.P,TCXO1,1,NC*%
%TO.N,unconnected-(TCXO1-NC-Pad1)*%
X149300000Y-85900000D03*
%TO.P,TCXO1,2,GND*%
%TO.N,GND*%
X149300000Y-88000000D03*
%TO.P,TCXO1,3,OUTPUT*%
%TO.N,Net-(TCXO1-OUTPUT)*%
X150700000Y-88000000D03*
%TO.P,TCXO1,4,VCC*%
%TO.N,+3.3V*%
X150700000Y-85900000D03*
%TD*%
D16*
%TO.P,R10,1*%
%TO.N,Net-(IRQ1-K)*%
X156300000Y-88475000D03*
%TO.P,R10,2*%
%TO.N,GND*%
X156300000Y-86475000D03*
%TD*%
D23*
%TO.P,J4,1,Pin_1*%
%TO.N,GND*%
X136260000Y-99100000D03*
D24*
%TO.P,J4,2,Pin_2*%
%TO.N,Net-(J4-Pin_2)*%
X138800000Y-99100000D03*
%TD*%
D13*
%TO.P,CR2,1*%
%TO.N,RXp*%
X144500000Y-90200000D03*
%TO.P,CR2,2*%
%TO.N,Net-(CM6-Pad1)*%
X144500000Y-88125000D03*
%TD*%
D11*
%TO.P,GPIO2,1,K*%
%TO.N,Net-(GPIO2-K)*%
X150300000Y-79575000D03*
%TO.P,GPIO2,2,A*%
%TO.N,GPIO2*%
X150300000Y-81625000D03*
%TD*%
D25*
%TO.P,RFS1,1,RF1*%
%TO.N,Net-(RFS1-RF1)*%
X137950000Y-82900000D03*
%TO.P,RFS1,2,GND*%
%TO.N,GND*%
X138600000Y-82900000D03*
%TO.P,RFS1,3,RF2*%
%TO.N,Net-(RFS1-RF2)*%
X139250000Y-82900000D03*
%TO.P,RFS1,4,VC2*%
%TO.N,GPIO2*%
X139250000Y-80900000D03*
%TO.P,RFS1,5,RFC*%
%TO.N,Net-(RFS1-RFC)*%
X138600000Y-80900000D03*
%TO.P,RFS1,6,VC1*%
%TO.N,GPIO3*%
X137950000Y-80900000D03*
%TD*%
D12*
%TO.P,CM1,1*%
%TO.N,Net-(CB4-Pad2)*%
X136900000Y-75500000D03*
%TO.P,CM1,2*%
%TO.N,GND*%
X134825000Y-75500000D03*
%TD*%
D17*
%TO.P,CD1,1*%
%TO.N,+3.3V*%
X150125000Y-84300000D03*
%TO.P,CD1,2*%
%TO.N,GND*%
X152200000Y-84300000D03*
%TD*%
D13*
%TO.P,C9,1*%
%TO.N,GPIO2*%
X140700000Y-80400000D03*
%TO.P,C9,2*%
%TO.N,GND*%
X140700000Y-78325000D03*
%TD*%
D16*
%TO.P,R5,1*%
%TO.N,Net-(GPIO3-K)*%
X148200000Y-77900000D03*
%TO.P,R5,2*%
%TO.N,GND*%
X148200000Y-75900000D03*
%TD*%
%TO.P,R9,1*%
%TO.N,Net-(CS1-K)*%
X154200000Y-88475000D03*
%TO.P,R9,2*%
%TO.N,GND*%
X154200000Y-86475000D03*
%TD*%
D12*
%TO.P,CM7,1*%
%TO.N,RF1*%
X140700000Y-84500000D03*
%TO.P,CM7,2*%
%TO.N,GND*%
X138625000Y-84500000D03*
%TD*%
D26*
%TO.P,J2,1,In*%
%TO.N,Net-(J2-In)*%
X140660000Y-72400000D03*
D27*
%TO.P,J2,2,Ext*%
%TO.N,GND*%
X143200000Y-72400000D03*
X138120000Y-72400000D03*
%TD*%
D14*
%TO.P,L0,1,1*%
%TO.N,Net-(C0-Pad2)*%
X140850000Y-95700000D03*
%TO.P,L0,2,2*%
%TO.N,Net-(CM3-Pad1)*%
X138800000Y-95700000D03*
%TD*%
D28*
%TO.P,PA1,1,Vbias*%
%TO.N,Net-(PA1-Vbias)*%
X127160000Y-90440000D03*
%TO.P,PA1,2,GND*%
%TO.N,GND*%
X127660000Y-90440000D03*
%TO.P,PA1,3,GND*%
X128160000Y-90440000D03*
%TO.P,PA1,4,RFin*%
%TO.N,PAin*%
X128660000Y-90440000D03*
%TO.P,PA1,5,RFin*%
X129160000Y-90440000D03*
%TO.P,PA1,6,GND*%
%TO.N,GND*%
X129660000Y-90440000D03*
D29*
%TO.P,PA1,7,GND*%
X130300000Y-89800000D03*
%TO.P,PA1,8,GND*%
X130300000Y-89300000D03*
%TO.P,PA1,9,GND*%
X130300000Y-88800000D03*
%TO.P,PA1,10,GND*%
X130300000Y-88300000D03*
%TO.P,PA1,11,GND*%
X130300000Y-87800000D03*
%TO.P,PA1,12,GND*%
X130300000Y-87300000D03*
D28*
%TO.P,PA1,13,GND*%
X129660000Y-86660000D03*
%TO.P,PA1,14,RFout*%
%TO.N,Net-(L2-Pad2)*%
X129160000Y-86660000D03*
%TO.P,PA1,15,RFout*%
X128660000Y-86660000D03*
%TO.P,PA1,16,RFout*%
X128160000Y-86660000D03*
%TO.P,PA1,17,GND*%
%TO.N,GND*%
X127660000Y-86660000D03*
%TO.P,PA1,18,Iref*%
%TO.N,Net-(PA1-Iref)*%
X127160000Y-86660000D03*
D29*
%TO.P,PA1,19,GND*%
%TO.N,GND*%
X126520000Y-87300000D03*
%TO.P,PA1,20,GND*%
X126520000Y-87800000D03*
%TO.P,PA1,21,GND*%
X126520000Y-88300000D03*
%TO.P,PA1,22,GND*%
X126520000Y-88800000D03*
%TO.P,PA1,23,GND*%
X126520000Y-89300000D03*
%TO.P,PA1,24,GND*%
X126520000Y-89800000D03*
D30*
%TO.P,PA1,25,GND*%
X127450000Y-89510000D03*
X128090000Y-89510000D03*
X128730000Y-89510000D03*
X129370000Y-89510000D03*
X127450000Y-88870000D03*
X128090000Y-88870000D03*
X128730000Y-88870000D03*
X129370000Y-88870000D03*
D31*
X128410000Y-88550000D03*
D30*
X127450000Y-88230000D03*
X128090000Y-88230000D03*
X128730000Y-88230000D03*
X129370000Y-88230000D03*
X127450000Y-87590000D03*
X128090000Y-87590000D03*
X128730000Y-87590000D03*
X129370000Y-87590000D03*
%TD*%
D11*
%TO.P,GPIO0,1,K*%
%TO.N,Net-(GPIO0-K)*%
X160500000Y-90150000D03*
%TO.P,GPIO0,2,A*%
%TO.N,GPIO0*%
X160500000Y-92200000D03*
%TD*%
D17*
%TO.P,C2,1*%
%TO.N,PAin*%
X128925000Y-91900000D03*
%TO.P,C2,2*%
%TO.N,Net-(C2-Pad2)*%
X131000000Y-91900000D03*
%TD*%
D15*
%TO.P,CM2,1*%
%TO.N,Net-(J2-In)*%
X142700000Y-75500000D03*
%TO.P,CM2,2*%
%TO.N,GND*%
X142700000Y-77575000D03*
%TD*%
D13*
%TO.P,CB4,1*%
%TO.N,Net-(RFS1-RFC)*%
X138600000Y-79437500D03*
%TO.P,CB4,2*%
%TO.N,Net-(CB4-Pad2)*%
X138600000Y-77362500D03*
%TD*%
D17*
%TO.P,CD3,1*%
%TO.N,+3.3V*%
X147700000Y-99100000D03*
%TO.P,CD3,2*%
%TO.N,GND*%
X149775000Y-99100000D03*
%TD*%
%TO.P,C5,1*%
%TO.N,+5V*%
X126575000Y-81250000D03*
%TO.P,C5,2*%
%TO.N,GND*%
X128650000Y-81250000D03*
%TD*%
%TO.P,CD2,1*%
%TO.N,+3.3V*%
X147700000Y-97100000D03*
%TO.P,CD2,2*%
%TO.N,GND*%
X149775000Y-97100000D03*
%TD*%
D16*
%TO.P,R11,1*%
%TO.N,Net-(SDN1-K)*%
X146100000Y-77900000D03*
%TO.P,R11,2*%
%TO.N,GND*%
X146100000Y-75900000D03*
%TD*%
D14*
%TO.P,5V1,1,K*%
%TO.N,Net-(5V1-K)*%
X156525000Y-78100000D03*
%TO.P,5V1,2,A*%
%TO.N,+5V*%
X154475000Y-78100000D03*
%TD*%
D17*
%TO.P,CR1,1*%
%TO.N,GND*%
X141625000Y-93600000D03*
%TO.P,CR1,2*%
%TO.N,RXn*%
X143700000Y-93600000D03*
%TD*%
D32*
%TO.P,J3,1,Pin_1*%
%TO.N,SDN*%
X127900000Y-103800000D03*
D33*
%TO.P,J3,2,Pin_2*%
%TO.N,GPIO3*%
X130400000Y-103800000D03*
%TO.P,J3,3,Pin_3*%
%TO.N,GPIO2*%
X132900000Y-103800000D03*
%TO.P,J3,4,Pin_4*%
%TO.N,GPIO1*%
X135400000Y-103800000D03*
%TO.P,J3,5,Pin_5*%
%TO.N,GPIO0*%
X137900000Y-103800000D03*
%TO.P,J3,6,Pin_6*%
%TO.N,IRQ*%
X140400000Y-103800000D03*
%TD*%
D13*
%TO.P,C6,1*%
%TO.N,GND*%
X132700000Y-88200000D03*
%TO.P,C6,2*%
%TO.N,Net-(C6-Pad2)*%
X132700000Y-86125000D03*
%TD*%
D21*
%TO.P,LM6,1,1*%
%TO.N,Net-(C6-Pad2)*%
X132700000Y-84400000D03*
%TO.P,LM6,2,2*%
%TO.N,RF2*%
X132700000Y-82350000D03*
%TD*%
D32*
%TO.P,J1,1,Pin_1*%
%TO.N,CS*%
X146300000Y-103800000D03*
D33*
%TO.P,J1,2,Pin_2*%
%TO.N,MOSI*%
X148800000Y-103800000D03*
%TO.P,J1,3,Pin_3*%
%TO.N,MISO*%
X151300000Y-103800000D03*
%TO.P,J1,4,Pin_4*%
%TO.N,SCLK*%
X153800000Y-103800000D03*
%TO.P,J1,5,Pin_5*%
%TO.N,GND*%
X156300000Y-103800000D03*
%TO.P,J1,6,Pin_6*%
%TO.N,+5V*%
X158800000Y-103800000D03*
%TD*%
D12*
%TO.P,CB1,1*%
%TO.N,Net-(RFS1-RF1)*%
X136600000Y-82500000D03*
%TO.P,CB1,2*%
%TO.N,RF2*%
X134525000Y-82500000D03*
%TD*%
D34*
%TO.P,U1,1,SDN*%
%TO.N,SDN*%
X146275000Y-92175000D03*
%TO.P,U1,2,RXp*%
%TO.N,RXp*%
X146275000Y-92675000D03*
%TO.P,U1,3,RXn*%
%TO.N,RXn*%
X146275000Y-93175000D03*
%TO.P,U1,4,TX*%
%TO.N,TX*%
X146275000Y-93675000D03*
%TO.P,U1,5,NC*%
%TO.N,unconnected-(U1-NC-Pad5)*%
X146275000Y-94175000D03*
D35*
%TO.P,U1,6,VDD*%
%TO.N,+3.3V*%
X147200000Y-95100000D03*
%TO.P,U1,7,TXRAMP*%
%TO.N,unconnected-(U1-TXRAMP-Pad7)*%
X147700000Y-95100000D03*
%TO.P,U1,8,VDD*%
%TO.N,+3.3V*%
X148200000Y-95100000D03*
%TO.P,U1,9,GPIO0*%
%TO.N,GPIO0*%
X148700000Y-95100000D03*
%TO.P,U1,10,GPIO1*%
%TO.N,GPIO1*%
X149200000Y-95100000D03*
D34*
%TO.P,U1,11,~{IRQ}*%
%TO.N,IRQ*%
X150125000Y-94175000D03*
%TO.P,U1,12,SCLK*%
%TO.N,SCLK*%
X150125000Y-93675000D03*
%TO.P,U1,13,SDO*%
%TO.N,MISO*%
X150125000Y-93175000D03*
%TO.P,U1,14,SDI*%
%TO.N,MOSI*%
X150125000Y-92675000D03*
%TO.P,U1,15,~{SEL}*%
%TO.N,CS*%
X150125000Y-92175000D03*
D35*
%TO.P,U1,16,XOUT*%
%TO.N,unconnected-(U1-XOUT-Pad16)*%
X149200000Y-91250000D03*
%TO.P,U1,17,XIN*%
%TO.N,XO_IN*%
X148700000Y-91250000D03*
%TO.P,U1,18,GND*%
%TO.N,GND*%
X148200000Y-91250000D03*
%TO.P,U1,19,GPIO2*%
%TO.N,GPIO2*%
X147700000Y-91250000D03*
%TO.P,U1,20,GPIO3*%
%TO.N,GPIO3*%
X147200000Y-91250000D03*
D36*
%TO.P,U1,21,GND*%
%TO.N,GND*%
X147150000Y-92125000D03*
X147150000Y-94225000D03*
D37*
X148200000Y-93175000D03*
D36*
X149250000Y-92125000D03*
X149250000Y-94225000D03*
%TD*%
D11*
%TO.P,L1,1,1*%
%TO.N,GND*%
X132900000Y-89950000D03*
%TO.P,L1,2,2*%
%TO.N,Net-(C2-Pad2)*%
X132900000Y-92000000D03*
%TD*%
D12*
%TO.P,C0,1*%
%TO.N,TX*%
X144700000Y-95600000D03*
%TO.P,C0,2*%
%TO.N,Net-(C0-Pad2)*%
X142625000Y-95600000D03*
%TD*%
%TO.P,CB2,1*%
%TO.N,RF1*%
X142700000Y-82500000D03*
%TO.P,CB2,2*%
%TO.N,Net-(RFS1-RF2)*%
X140625000Y-82500000D03*
%TD*%
D16*
%TO.P,R8,1*%
%TO.N,Net-(GPIO0-K)*%
X160500000Y-88475000D03*
%TO.P,R8,2*%
%TO.N,GND*%
X160500000Y-86475000D03*
%TD*%
D10*
%TO.P,L2,1,1*%
%TO.N,+5V*%
X126600000Y-83250000D03*
%TO.P,L2,2,2*%
%TO.N,Net-(L2-Pad2)*%
X128650000Y-83250000D03*
%TD*%
D21*
%TO.P,LM5,1,1*%
%TO.N,Net-(CM6-Pad1)*%
X142500000Y-86500000D03*
%TO.P,LM5,2,2*%
%TO.N,RF1*%
X142500000Y-84450000D03*
%TD*%
D19*
%TO.P,R4,1*%
%TO.N,Net-(5V1-K)*%
X158300000Y-78100000D03*
%TO.P,R4,2*%
%TO.N,GND*%
X160300000Y-78100000D03*
%TD*%
D16*
%TO.P,R7,1*%
%TO.N,Net-(GPIO1-K)*%
X158400000Y-88475000D03*
%TO.P,R7,2*%
%TO.N,GND*%
X158400000Y-86475000D03*
%TD*%
D21*
%TO.P,LChoke1,1,1*%
%TO.N,+3.3V*%
X144600000Y-99600000D03*
%TO.P,LChoke1,2,2*%
%TO.N,TX*%
X144600000Y-97550000D03*
%TD*%
D10*
%TO.P,LM1,1,1*%
%TO.N,Net-(CB4-Pad2)*%
X138600000Y-75500000D03*
%TO.P,LM1,2,2*%
%TO.N,Net-(J2-In)*%
X140650000Y-75500000D03*
%TD*%
D13*
%TO.P,CM8,1*%
%TO.N,Net-(C6-Pad2)*%
X130700000Y-83300000D03*
%TO.P,CM8,2*%
%TO.N,GND*%
X130700000Y-81225000D03*
%TD*%
D15*
%TO.P,CM9,1*%
%TO.N,RF2*%
X134700000Y-84325000D03*
%TO.P,CM9,2*%
%TO.N,GND*%
X134700000Y-86400000D03*
%TD*%
D38*
%TO.P,U3,11,EXP*%
%TO.N,GND*%
X158200000Y-81645000D03*
D30*
%TO.P,U3,P1,EXP__1*%
X157250001Y-81645000D03*
%TO.P,U3,P2,EXP__2*%
X158200000Y-81645000D03*
%TO.P,U3,P3,EXP__3*%
X159149999Y-81645000D03*
%TD*%
D39*
%TO.N,GND*%
X161022804Y-81077196D03*
X146100000Y-74700000D03*
X158400000Y-76043600D03*
X134500000Y-88750000D03*
X153250000Y-84300000D03*
X151000000Y-97450000D03*
X140600000Y-93550000D03*
X144450000Y-72400000D03*
X126600000Y-92650000D03*
X154300000Y-81400000D03*
X139500000Y-87893600D03*
X136500000Y-77100000D03*
X132000000Y-83400000D03*
X150150000Y-74750000D03*
X154800000Y-85000000D03*
X136900000Y-72400000D03*
X136400000Y-89900000D03*
X155650000Y-85000000D03*
X132227920Y-98727920D03*
X134741634Y-87555100D03*
X159500000Y-85450000D03*
X151000000Y-98450000D03*
X160300000Y-76900000D03*
X149900000Y-87000000D03*
X133933429Y-93058540D03*
X139800000Y-94000000D03*
X140400000Y-77300000D03*
X160193600Y-85200000D03*
X141500000Y-77200000D03*
X137600000Y-84500000D03*
X133600000Y-87900000D03*
X138600000Y-87600000D03*
X138600000Y-82100000D03*
X128700000Y-80000000D03*
X135300000Y-89000000D03*
X131800000Y-89700000D03*
X130797804Y-80102196D03*
X134800000Y-76700000D03*
X148200000Y-74800000D03*
X140700000Y-89400000D03*
%TO.N,Net-(PA1-Vbias)*%
X126500000Y-90650000D03*
%TO.N,+5V*%
X126550000Y-79850000D03*
X153496000Y-78200000D03*
%TO.N,GPIO3*%
X147000000Y-89600000D03*
X135100000Y-80500000D03*
%TO.N,GPIO2*%
X147600000Y-90300000D03*
X141900000Y-80500000D03*
%TO.N,+3.3V*%
X151200000Y-86800000D03*
X146150000Y-96550000D03*
%TO.N,CS*%
X151000000Y-91900000D03*
%TO.N,GPIO1*%
X150100000Y-95000000D03*
%TO.N,GPIO0*%
X150100000Y-95800000D03*
%TO.N,IRQ*%
X151126223Y-95273777D03*
%TO.N,MOSI*%
X151800000Y-92300000D03*
%TO.N,SCLK*%
X153600000Y-94100000D03*
%TO.N,MISO*%
X152500000Y-93300000D03*
%TO.N,SDN*%
X146300000Y-88900000D03*
%TO.N,Net-(PA1-Iref)*%
X126461012Y-86343488D03*
%TD*%
D40*
%TO.N,Net-(C2-Pad2)*%
X132850000Y-93800000D02*
X132850000Y-92050000D01*
X131100000Y-92000000D02*
X131000000Y-91900000D01*
X132900000Y-93850000D02*
X132850000Y-93800000D01*
X132900000Y-95600000D02*
X132900000Y-93850000D01*
X132850000Y-92050000D02*
X132900000Y-92000000D01*
X132900000Y-92000000D02*
X131100000Y-92000000D01*
%TO.N,Net-(C6-Pad2)*%
X131700000Y-86200000D02*
X132625000Y-86200000D01*
X132625000Y-86200000D02*
X132700000Y-86125000D01*
X130700000Y-85200000D02*
X130700000Y-83300000D01*
X132700000Y-86125000D02*
X132700000Y-84400000D01*
X130700000Y-85200000D02*
X131700000Y-86200000D01*
D41*
%TO.N,GND*%
X141875000Y-77575000D02*
X141500000Y-77200000D01*
X130700000Y-80200000D02*
X130797804Y-80102196D01*
D42*
X130300000Y-89800000D02*
X129660000Y-89800000D01*
X130300000Y-87300000D02*
X129660000Y-87300000D01*
X130300000Y-88800000D02*
X129440000Y-88800000D01*
X127160000Y-87300000D02*
X127450000Y-87590000D01*
D41*
X132900000Y-97675000D02*
X132900000Y-98055840D01*
X154200000Y-85600000D02*
X154800000Y-85000000D01*
D42*
X127450000Y-87590000D02*
X127643000Y-87397000D01*
D41*
X160500000Y-85506400D02*
X160193600Y-85200000D01*
D42*
X130300000Y-87800000D02*
X129580000Y-87800000D01*
X126520000Y-89800000D02*
X127160000Y-89800000D01*
D41*
X138120000Y-72400000D02*
X136900000Y-72400000D01*
D42*
X129370000Y-89510000D02*
X129677000Y-89817000D01*
D41*
X132050000Y-89950000D02*
X131800000Y-89700000D01*
X152200000Y-84300000D02*
X153250000Y-84300000D01*
X134900000Y-89400000D02*
X135300000Y-89000000D01*
D42*
X148200000Y-91250000D02*
X148200000Y-93175000D01*
X128090000Y-89510000D02*
X128090000Y-90387000D01*
D41*
X156300000Y-86475000D02*
X156300000Y-86236262D01*
X138625000Y-86500000D02*
X138625000Y-87575000D01*
D42*
X127240000Y-89300000D02*
X127450000Y-89510000D01*
D41*
X132700000Y-88200000D02*
X133300000Y-88200000D01*
X138625000Y-87575000D02*
X138600000Y-87600000D01*
D42*
X129440000Y-88800000D02*
X129370000Y-88870000D01*
D41*
X140700000Y-77600000D02*
X140400000Y-77300000D01*
X134825000Y-75500000D02*
X134825000Y-76675000D01*
D42*
X126520000Y-89300000D02*
X127240000Y-89300000D01*
X127160000Y-89800000D02*
X127450000Y-89510000D01*
D41*
X156300000Y-85650000D02*
X155650000Y-85000000D01*
X143200000Y-72400000D02*
X144450000Y-72400000D01*
X140700000Y-78325000D02*
X140700000Y-77600000D01*
D42*
X126520000Y-87300000D02*
X127160000Y-87300000D01*
X129370000Y-87590000D02*
X129677000Y-87283000D01*
D41*
X150200000Y-74800000D02*
X150150000Y-74750000D01*
X133300000Y-88200000D02*
X133600000Y-87900000D01*
D42*
X129580000Y-87800000D02*
X129370000Y-87590000D01*
D41*
X160300000Y-78100000D02*
X160300000Y-76900000D01*
X149775000Y-97100000D02*
X150650000Y-97100000D01*
X128650000Y-81250000D02*
X128650000Y-80050000D01*
D42*
X127380000Y-88800000D02*
X127450000Y-88870000D01*
X129580000Y-89300000D02*
X129370000Y-89510000D01*
X126520000Y-88300000D02*
X127380000Y-88300000D01*
D41*
X150650000Y-97100000D02*
X151000000Y-97450000D01*
D42*
X126520000Y-88800000D02*
X127380000Y-88800000D01*
D41*
X149300000Y-87600000D02*
X149900000Y-87000000D01*
D42*
X129677000Y-87283000D02*
X129677000Y-86660000D01*
X138600000Y-82900000D02*
X138600000Y-82100000D01*
D41*
X134900000Y-89925000D02*
X134900000Y-89400000D01*
X128650000Y-80050000D02*
X128700000Y-80000000D01*
D42*
X127660000Y-89720000D02*
X127450000Y-89510000D01*
D41*
X149775000Y-99100000D02*
X150350000Y-99100000D01*
D42*
X129677000Y-89817000D02*
X129677000Y-90440000D01*
D41*
X160500000Y-86475000D02*
X160500000Y-85506400D01*
X139600000Y-93800000D02*
X139800000Y-94000000D01*
X150350000Y-99100000D02*
X151000000Y-98450000D01*
X136500000Y-78325000D02*
X136500000Y-77100000D01*
X149300000Y-88000000D02*
X149300000Y-87600000D01*
X156300000Y-86475000D02*
X156300000Y-85650000D01*
X132900000Y-98055840D02*
X132227920Y-98727920D01*
X158400000Y-86475000D02*
X158475000Y-86475000D01*
X130700000Y-81225000D02*
X130700000Y-80200000D01*
X154200000Y-86475000D02*
X154200000Y-85600000D01*
X150200000Y-75900000D02*
X150200000Y-74800000D01*
D42*
X129660000Y-89800000D02*
X129370000Y-89510000D01*
D41*
X134825000Y-76675000D02*
X134800000Y-76700000D01*
D42*
X129440000Y-88300000D02*
X129370000Y-88230000D01*
X127380000Y-88300000D02*
X127450000Y-88230000D01*
X128090000Y-90387000D02*
X128143000Y-90440000D01*
D41*
X132900000Y-89950000D02*
X132050000Y-89950000D01*
D42*
X129660000Y-87300000D02*
X129370000Y-87590000D01*
D41*
X138700000Y-93800000D02*
X139600000Y-93800000D01*
D42*
X127643000Y-87397000D02*
X127643000Y-86660000D01*
D41*
X160300000Y-80354392D02*
X161022804Y-81077196D01*
X134700000Y-86400000D02*
X134700000Y-87513466D01*
D42*
X130300000Y-88300000D02*
X129440000Y-88300000D01*
D41*
X138625000Y-84500000D02*
X137600000Y-84500000D01*
X160300000Y-80200000D02*
X160300000Y-80354392D01*
X140650000Y-93600000D02*
X140600000Y-93550000D01*
X146100000Y-75900000D02*
X146100000Y-74700000D01*
D42*
X130300000Y-89300000D02*
X129580000Y-89300000D01*
D41*
X158475000Y-86475000D02*
X159500000Y-85450000D01*
X142700000Y-77575000D02*
X141875000Y-77575000D01*
D42*
X127240000Y-87800000D02*
X127450000Y-87590000D01*
D41*
X134700000Y-87513466D02*
X134741634Y-87555100D01*
X141625000Y-93600000D02*
X140650000Y-93600000D01*
X148200000Y-75900000D02*
X148200000Y-74800000D01*
D42*
X127660000Y-90440000D02*
X127660000Y-89720000D01*
X126520000Y-87800000D02*
X127240000Y-87800000D01*
D43*
%TO.N,Net-(PA1-Vbias)*%
X127160000Y-90440000D02*
X126710000Y-90440000D01*
X126710000Y-90440000D02*
X126500000Y-90650000D01*
D41*
%TO.N,+5V*%
X154500000Y-78150000D02*
X153546000Y-78150000D01*
X126575000Y-81250000D02*
X126575000Y-83225000D01*
X126575000Y-83225000D02*
X126600000Y-83250000D01*
X153546000Y-78150000D02*
X153496000Y-78200000D01*
X126550000Y-81225000D02*
X126575000Y-81250000D01*
X126550000Y-79850000D02*
X126550000Y-81225000D01*
X154500000Y-78200000D02*
X154550000Y-78150000D01*
D40*
%TO.N,RF2*%
X134525000Y-84150000D02*
X134700000Y-84325000D01*
X134525000Y-82500000D02*
X134525000Y-84150000D01*
X134375000Y-82350000D02*
X134525000Y-82500000D01*
X132700000Y-82350000D02*
X134375000Y-82350000D01*
D43*
%TO.N,GPIO3*%
X137950000Y-80900000D02*
X137450000Y-80400000D01*
X147000000Y-89600000D02*
X147000000Y-84000000D01*
X147000000Y-91050000D02*
X147200000Y-91250000D01*
X136400000Y-80500000D02*
X136500000Y-80400000D01*
X135100000Y-80500000D02*
X136400000Y-80500000D01*
X147000000Y-89600000D02*
X147000000Y-91050000D01*
X147000000Y-84000000D02*
X148200000Y-82800000D01*
X148200000Y-82800000D02*
X148200000Y-81625000D01*
X137450000Y-80400000D02*
X136500000Y-80400000D01*
%TO.N,GPIO2*%
X139750000Y-80400000D02*
X140700000Y-80400000D01*
X147600000Y-84900000D02*
X150300000Y-82200000D01*
X147700000Y-90400000D02*
X147700000Y-91250000D01*
X139250000Y-80900000D02*
X139750000Y-80400000D01*
X147600000Y-90300000D02*
X147700000Y-90400000D01*
X140800000Y-80500000D02*
X140700000Y-80400000D01*
X141900000Y-80500000D02*
X140800000Y-80500000D01*
X150300000Y-82200000D02*
X150300000Y-81625000D01*
X147600000Y-90300000D02*
X147600000Y-84900000D01*
D40*
%TO.N,TX*%
X146275000Y-93675000D02*
X145850001Y-93675000D01*
X144600000Y-95700000D02*
X144700000Y-95600000D01*
X145850001Y-93675000D02*
X144700000Y-94825001D01*
X144700000Y-94825001D02*
X144700000Y-95600000D01*
X144600000Y-97550000D02*
X144600000Y-95700000D01*
%TO.N,Net-(RFS1-RF1)*%
X137950000Y-82900000D02*
X137000000Y-82900000D01*
X137000000Y-82900000D02*
X136600000Y-82500000D01*
%TO.N,Net-(RFS1-RF2)*%
X140225000Y-82900000D02*
X140625000Y-82500000D01*
X139250000Y-82900000D02*
X140225000Y-82900000D01*
%TO.N,RF1*%
X142700000Y-82500000D02*
X142700000Y-84250000D01*
X142700000Y-84250000D02*
X142500000Y-84450000D01*
X140700000Y-84500000D02*
X142450000Y-84500000D01*
X142450000Y-84500000D02*
X142500000Y-84450000D01*
D43*
%TO.N,Net-(TCXO1-OUTPUT)*%
X150700000Y-89600000D02*
X150700000Y-88000000D01*
%TO.N,XO_IN*%
X148700000Y-89675000D02*
X148625000Y-89600000D01*
X148700000Y-91250000D02*
X148700000Y-89675000D01*
D40*
%TO.N,Net-(CB4-Pad2)*%
X136900000Y-75500000D02*
X138600000Y-75500000D01*
X138600000Y-75500000D02*
X138600000Y-77362500D01*
%TO.N,Net-(RFS1-RFC)*%
X138600000Y-80900000D02*
X138600000Y-79437500D01*
D41*
%TO.N,+3.3V*%
X154225000Y-80200000D02*
X150125000Y-84300000D01*
D42*
X147200000Y-96600000D02*
X147200000Y-95100000D01*
X147700000Y-97100000D02*
X148200000Y-96600000D01*
D41*
X151200000Y-86800000D02*
X151200000Y-86400000D01*
X150700000Y-84875000D02*
X150125000Y-84300000D01*
X142000000Y-99600000D02*
X141600000Y-100000000D01*
D42*
X147700000Y-97100000D02*
X147200000Y-96600000D01*
D41*
X154475000Y-80200000D02*
X154225000Y-80200000D01*
X151200000Y-86400000D02*
X150700000Y-85900000D01*
X144600000Y-99600000D02*
X142000000Y-99600000D01*
D42*
X148200000Y-96600000D02*
X148200000Y-95100000D01*
D41*
X150700000Y-85900000D02*
X150700000Y-84875000D01*
D40*
%TO.N,Net-(J2-In)*%
X140650000Y-75500000D02*
X142700000Y-75500000D01*
X140650000Y-72410000D02*
X140660000Y-72400000D01*
X140650000Y-75500000D02*
X140650000Y-72410000D01*
X140700000Y-72440000D02*
X140660000Y-72400000D01*
%TO.N,Net-(CM3-Pad1)*%
X138800000Y-95700000D02*
X137137500Y-95700000D01*
X137137500Y-95700000D02*
X137037500Y-95800000D01*
%TO.N,RXn*%
X142950000Y-90650000D02*
X142500000Y-90200000D01*
X142950000Y-91800000D02*
X142950000Y-92850000D01*
X143700000Y-93600000D02*
X144125000Y-93175000D01*
X142950000Y-92850000D02*
X143700000Y-93600000D01*
X142950000Y-91800000D02*
X142950000Y-90650000D01*
X144125000Y-93175000D02*
X146275000Y-93175000D01*
%TO.N,RXp*%
X144500000Y-91600000D02*
X144700000Y-91800000D01*
X144700000Y-91800000D02*
X144700000Y-90400000D01*
X144700000Y-91800000D02*
X145575000Y-92675000D01*
X145575000Y-92675000D02*
X146275000Y-92675000D01*
X144700000Y-90400000D02*
X144500000Y-90200000D01*
D43*
%TO.N,Net-(CS1-K)*%
X154200000Y-90150000D02*
X154200000Y-88475000D01*
%TO.N,CS*%
X150150000Y-92200000D02*
X150125000Y-92175000D01*
X150400000Y-91900000D02*
X150125000Y-92175000D01*
X151000000Y-91900000D02*
X150400000Y-91900000D01*
X151000000Y-91900000D02*
X151128600Y-91771400D01*
X151000000Y-91900000D02*
X151200000Y-91900000D01*
X151128600Y-91771400D02*
X153771400Y-91771400D01*
X153771400Y-91771400D02*
X154200000Y-92200000D01*
%TO.N,Net-(GPIO0-K)*%
X160500000Y-90150000D02*
X160500000Y-88475000D01*
%TO.N,Net-(GPIO1-K)*%
X158400000Y-90150000D02*
X158400000Y-88475000D01*
%TO.N,Net-(GPIO2-K)*%
X150250000Y-77900000D02*
X150250000Y-79525000D01*
X150250000Y-79525000D02*
X150300000Y-79575000D01*
%TO.N,GPIO1*%
X151100000Y-96000000D02*
X154600000Y-96000000D01*
X150100000Y-95000000D02*
X151100000Y-96000000D01*
X150100000Y-95000000D02*
X149300000Y-95000000D01*
X149300000Y-95000000D02*
X149200000Y-95100000D01*
X154600000Y-96000000D02*
X158400000Y-92200000D01*
%TO.N,GPIO0*%
X150202377Y-95802377D02*
X151100000Y-96700000D01*
X151100000Y-96700000D02*
X156000000Y-96700000D01*
X150102377Y-95802377D02*
X150202377Y-95802377D01*
X150100000Y-95800000D02*
X148975001Y-95800000D01*
X148700000Y-95524999D02*
X148700000Y-95100000D01*
X150100000Y-95800000D02*
X150102377Y-95802377D01*
X156000000Y-96700000D02*
X160500000Y-92200000D01*
X148975001Y-95800000D02*
X148700000Y-95524999D01*
%TO.N,IRQ*%
X153226223Y-95273777D02*
X156300000Y-92200000D01*
X151126223Y-94726223D02*
X150575000Y-94175000D01*
X150575000Y-94175000D02*
X150125000Y-94175000D01*
X151126223Y-95273777D02*
X151126223Y-94726223D01*
X151126223Y-95273777D02*
X153226223Y-95273777D01*
%TO.N,Net-(GPIO3-K)*%
X148200000Y-79575000D02*
X148200000Y-77900000D01*
%TO.N,MOSI*%
X151425000Y-92675000D02*
X150125000Y-92675000D01*
X150150000Y-92700000D02*
X150125000Y-92675000D01*
X151800000Y-92300000D02*
X151425000Y-92675000D01*
%TO.N,SCLK*%
X153600000Y-94100000D02*
X152200000Y-94100000D01*
X151775000Y-93675000D02*
X150125000Y-93675000D01*
X152200000Y-94100000D02*
X151775000Y-93675000D01*
%TO.N,MISO*%
X152375000Y-93175000D02*
X150125000Y-93175000D01*
X152500000Y-93300000D02*
X152375000Y-93175000D01*
%TO.N,SDN*%
X146100000Y-83200000D02*
X146100000Y-81625000D01*
X146300000Y-88900000D02*
X146300000Y-83400000D01*
X146300000Y-83400000D02*
X146100000Y-83200000D01*
X146275000Y-88925000D02*
X146275000Y-92175000D01*
X146300000Y-88900000D02*
X146275000Y-88925000D01*
D40*
%TO.N,PAin*%
X128660000Y-90440000D02*
X128690000Y-90440000D01*
X128925000Y-90675000D02*
X129160000Y-90440000D01*
X128925000Y-91900000D02*
X128925000Y-90675000D01*
X128690000Y-90440000D02*
X128925000Y-90675000D01*
%TO.N,Net-(CM3-Pad2)*%
X134900000Y-93800000D02*
X136650000Y-93800000D01*
X134962500Y-95800000D02*
X134962500Y-93862500D01*
X134900000Y-92000000D02*
X134900000Y-93800000D01*
X134962500Y-93862500D02*
X134900000Y-93800000D01*
D43*
%TO.N,Net-(PA1-Iref)*%
X127160000Y-86660000D02*
X126777524Y-86660000D01*
X126777524Y-86660000D02*
X126461012Y-86343488D01*
%TO.N,Net-(IRQ1-K)*%
X156300000Y-90150000D02*
X156300000Y-88475000D01*
%TO.N,Net-(SDN1-K)*%
X146100000Y-79575000D02*
X146100000Y-77900000D01*
D41*
%TO.N,Net-(3V3-K)*%
X156525000Y-80200000D02*
X158300000Y-80200000D01*
%TO.N,Net-(5V1-K)*%
X156525000Y-78100000D02*
X158300000Y-78100000D01*
%TO.N,Net-(J4-Pin_2)*%
X139725000Y-98175000D02*
X138800000Y-99100000D01*
X141600000Y-98175000D02*
X139725000Y-98175000D01*
D40*
%TO.N,Net-(CM6-Pad1)*%
X142675000Y-88125000D02*
X144500000Y-88125000D01*
X142500000Y-86500000D02*
X142500000Y-88150000D01*
X140700000Y-86500000D02*
X142500000Y-86500000D01*
X142525000Y-88025000D02*
X142500000Y-88050000D01*
X142650000Y-88150000D02*
X142675000Y-88125000D01*
X142500000Y-88150000D02*
X142650000Y-88150000D01*
%TO.N,Net-(L2-Pad2)*%
X128660000Y-85210000D02*
X128650000Y-85200000D01*
X128650000Y-86650000D02*
X128660000Y-86660000D01*
X128160000Y-86660000D02*
X128660000Y-86660000D01*
X128660000Y-86660000D02*
X128660000Y-85210000D01*
X128650000Y-85200000D02*
X128650000Y-83250000D01*
X128660000Y-86660000D02*
X129160000Y-86660000D01*
%TO.N,Net-(C0-Pad2)*%
X140950000Y-95600000D02*
X140850000Y-95700000D01*
X142625000Y-95600000D02*
X140950000Y-95600000D01*
%TD*%
%TA.AperFunction,Conductor*%
%TO.N,GND*%
G36*
X135843039Y-74519685D02*
G01*
X135888794Y-74572489D01*
X135900000Y-74624000D01*
X135900000Y-74634323D01*
X135881539Y-74699419D01*
X135877689Y-74705659D01*
X135877686Y-74705666D01*
X135822501Y-74872203D01*
X135822501Y-74872204D01*
X135822500Y-74872204D01*
X135812000Y-74974983D01*
X135812000Y-76025001D01*
X135812001Y-76025019D01*
X135822500Y-76127796D01*
X135822501Y-76127799D01*
X135877685Y-76294332D01*
X135877687Y-76294336D01*
X135881537Y-76300577D01*
X135900000Y-76365677D01*
X135900000Y-76500000D01*
X135974770Y-76500000D01*
X136041809Y-76519685D01*
X136062451Y-76536319D01*
X136093844Y-76567712D01*
X136243166Y-76659814D01*
X136409703Y-76714999D01*
X136512491Y-76725500D01*
X137263051Y-76725499D01*
X137330090Y-76745183D01*
X137375845Y-76797987D01*
X137385545Y-76865454D01*
X137385689Y-76865469D01*
X137385630Y-76866042D01*
X137385789Y-76867146D01*
X137385154Y-76870697D01*
X137374500Y-76974983D01*
X137374500Y-77750001D01*
X137374501Y-77750019D01*
X137385000Y-77852796D01*
X137385001Y-77852799D01*
X137440185Y-78019331D01*
X137440186Y-78019334D01*
X137481539Y-78086379D01*
X137500000Y-78151474D01*
X137500000Y-78648525D01*
X137481539Y-78713621D01*
X137440189Y-78780659D01*
X137440186Y-78780666D01*
X137385001Y-78947203D01*
X137385001Y-78947204D01*
X137385000Y-78947204D01*
X137374500Y-79049983D01*
X137374500Y-79176000D01*
X137354815Y-79243039D01*
X137302011Y-79288794D01*
X137250500Y-79300000D01*
X135571960Y-79300000D01*
X135504921Y-79280315D01*
X135464298Y-79237521D01*
X133916338Y-76528591D01*
X133900000Y-76467070D01*
X133900000Y-74624000D01*
X133919685Y-74556961D01*
X133972489Y-74511206D01*
X134024000Y-74500000D01*
X135776000Y-74500000D01*
X135843039Y-74519685D01*
G37*
%TD.AperFunction*%
%TD*%
%TA.AperFunction,Conductor*%
%TO.N,GND*%
G36*
X138742716Y-83519685D02*
G01*
X138774052Y-83548512D01*
X138785964Y-83564036D01*
X138903571Y-83654279D01*
X139040528Y-83711009D01*
X139150599Y-83725500D01*
X139349400Y-83725499D01*
X139349401Y-83725499D01*
X139459816Y-83710964D01*
X139528851Y-83721730D01*
X139581107Y-83768111D01*
X139600000Y-83833903D01*
X139600000Y-85500001D01*
X139662183Y-85664343D01*
X139667496Y-85734010D01*
X139663913Y-85747228D01*
X139622501Y-85872200D01*
X139622500Y-85872204D01*
X139612000Y-85974983D01*
X139612000Y-87025001D01*
X139612001Y-87025019D01*
X139622500Y-87127796D01*
X139622501Y-87127799D01*
X139677461Y-87293656D01*
X139677686Y-87294334D01*
X139769788Y-87443656D01*
X139893844Y-87567712D01*
X140043166Y-87659814D01*
X140209703Y-87714999D01*
X140312491Y-87725500D01*
X140356419Y-87725499D01*
X140423456Y-87745182D01*
X140469212Y-87797985D01*
X140472394Y-87805616D01*
X140998341Y-89195619D01*
X141001327Y-89204513D01*
X141294461Y-90201168D01*
X141299500Y-90236157D01*
X141299500Y-90575000D01*
X141299501Y-90575019D01*
X141310000Y-90677796D01*
X141310001Y-90677799D01*
X141330675Y-90740187D01*
X141365186Y-90844334D01*
X141448655Y-90979660D01*
X141457289Y-90993657D01*
X141534461Y-91070829D01*
X141565741Y-91123521D01*
X142000000Y-92600000D01*
X142133507Y-92600000D01*
X142198604Y-92618461D01*
X142201649Y-92620339D01*
X142201650Y-92620340D01*
X142312366Y-92688630D01*
X142359089Y-92740577D01*
X142371268Y-92794168D01*
X142371268Y-92926193D01*
X142390986Y-92999786D01*
X142390987Y-92999786D01*
X142390987Y-92999787D01*
X142410707Y-93073383D01*
X142410708Y-93073384D01*
X142410707Y-93073384D01*
X142412503Y-93076494D01*
X142440797Y-93125499D01*
X142486899Y-93205350D01*
X142486901Y-93205352D01*
X142575681Y-93294132D01*
X142609166Y-93355455D01*
X142612000Y-93381813D01*
X142612000Y-94125001D01*
X142612001Y-94125019D01*
X142623189Y-94234532D01*
X142621045Y-94234750D01*
X142616579Y-94294244D01*
X142574510Y-94350029D01*
X142508960Y-94374215D01*
X142500551Y-94374500D01*
X142237499Y-94374500D01*
X142237480Y-94374501D01*
X142134703Y-94385000D01*
X142134700Y-94385001D01*
X141968168Y-94440185D01*
X141968163Y-94440187D01*
X141818838Y-94532292D01*
X141767061Y-94584069D01*
X141705738Y-94617553D01*
X141681859Y-94620362D01*
X141623370Y-94621531D01*
X141555950Y-94603190D01*
X141555796Y-94603095D01*
X141494340Y-94565190D01*
X141494334Y-94565186D01*
X141327797Y-94510001D01*
X141327795Y-94510000D01*
X141225010Y-94499500D01*
X140474998Y-94499500D01*
X140474980Y-94499501D01*
X140372203Y-94510000D01*
X140372200Y-94510001D01*
X140205668Y-94565185D01*
X140205659Y-94565189D01*
X140092534Y-94634965D01*
X140029917Y-94653401D01*
X139637756Y-94661244D01*
X139570337Y-94642904D01*
X139570181Y-94642808D01*
X139444340Y-94565189D01*
X139444335Y-94565187D01*
X139444334Y-94565186D01*
X139277797Y-94510001D01*
X139277795Y-94510000D01*
X139175010Y-94499500D01*
X138424998Y-94499500D01*
X138424980Y-94499501D01*
X138322203Y-94510000D01*
X138322200Y-94510001D01*
X138155668Y-94565185D01*
X138155659Y-94565189D01*
X138006345Y-94657286D01*
X138004302Y-94659329D01*
X138002559Y-94660280D01*
X138000682Y-94661765D01*
X138000428Y-94661443D01*
X137942977Y-94692810D01*
X137919107Y-94695617D01*
X137826480Y-94697470D01*
X137759060Y-94679130D01*
X137712258Y-94627252D01*
X137700000Y-94573495D01*
X137700000Y-94468070D01*
X137706294Y-94429066D01*
X137714999Y-94402797D01*
X137725500Y-94300009D01*
X137725499Y-93299992D01*
X137724900Y-93294132D01*
X137714999Y-93197203D01*
X137714998Y-93197200D01*
X137706294Y-93170932D01*
X137700000Y-93131928D01*
X137700000Y-92799999D01*
X135900000Y-90900000D01*
X131925230Y-90900000D01*
X131858191Y-90880315D01*
X131837549Y-90863681D01*
X131806157Y-90832289D01*
X131806156Y-90832288D01*
X131656834Y-90740186D01*
X131656831Y-90740185D01*
X131484996Y-90683244D01*
X131427551Y-90643471D01*
X131400728Y-90578955D01*
X131400000Y-90565538D01*
X131400000Y-87224000D01*
X131419685Y-87156961D01*
X131472489Y-87111206D01*
X131524000Y-87100000D01*
X131793791Y-87100000D01*
X131858887Y-87118461D01*
X131905659Y-87147310D01*
X131905660Y-87147310D01*
X131905666Y-87147314D01*
X132072203Y-87202499D01*
X132174991Y-87213000D01*
X133225008Y-87212999D01*
X133225016Y-87212998D01*
X133225019Y-87212998D01*
X133281302Y-87207248D01*
X133327797Y-87202499D01*
X133494334Y-87147314D01*
X133525973Y-87127799D01*
X133541113Y-87118461D01*
X133606209Y-87100000D01*
X133700000Y-87100000D01*
X133700000Y-87050230D01*
X133719685Y-86983191D01*
X133736319Y-86962549D01*
X133767712Y-86931156D01*
X133859814Y-86781834D01*
X133914999Y-86615297D01*
X133925500Y-86512509D01*
X133925499Y-85737492D01*
X133925143Y-85734010D01*
X133914999Y-85634703D01*
X133897630Y-85582288D01*
X133886834Y-85549709D01*
X133884433Y-85479885D01*
X133920164Y-85419843D01*
X133982684Y-85388650D01*
X134043542Y-85393001D01*
X134072203Y-85402499D01*
X134174991Y-85413000D01*
X135225008Y-85412999D01*
X135225016Y-85412998D01*
X135225019Y-85412998D01*
X135281302Y-85407248D01*
X135327797Y-85402499D01*
X135494334Y-85347314D01*
X135516001Y-85333949D01*
X135541113Y-85318461D01*
X135579871Y-85307469D01*
X135579781Y-85307217D01*
X135599997Y-85300000D01*
X135600000Y-85300000D01*
X137551368Y-83703425D01*
X137615718Y-83676209D01*
X137677341Y-83684835D01*
X137740528Y-83711009D01*
X137850599Y-83725500D01*
X138049400Y-83725499D01*
X138049403Y-83725499D01*
X138159463Y-83711011D01*
X138159467Y-83711009D01*
X138159472Y-83711009D01*
X138296429Y-83654279D01*
X138414036Y-83564036D01*
X138425947Y-83548512D01*
X138482375Y-83507311D01*
X138524323Y-83500000D01*
X138675677Y-83500000D01*
X138742716Y-83519685D01*
G37*
%TD.AperFunction*%
%TD*%
%TA.AperFunction,Conductor*%
%TO.N,GND*%
G36*
X131643039Y-79619685D02*
G01*
X131688794Y-79672489D01*
X131700000Y-79724000D01*
X131700000Y-81462270D01*
X131680315Y-81529309D01*
X131663681Y-81549951D01*
X131657289Y-81556342D01*
X131565187Y-81705663D01*
X131565186Y-81705666D01*
X131510001Y-81872203D01*
X131510001Y-81872204D01*
X131510000Y-81872204D01*
X131499500Y-81974983D01*
X131499500Y-81976000D01*
X131499438Y-81976210D01*
X131499340Y-81978139D01*
X131499179Y-81978130D01*
X131499179Y-81978132D01*
X131499155Y-81978129D01*
X131498878Y-81978115D01*
X131479815Y-82043039D01*
X131427011Y-82088794D01*
X131375500Y-82100000D01*
X129268516Y-82100000D01*
X129229512Y-82093706D01*
X129189100Y-82080315D01*
X129127797Y-82060001D01*
X129127795Y-82060000D01*
X129025010Y-82049500D01*
X128274998Y-82049500D01*
X128274980Y-82049501D01*
X128172203Y-82060000D01*
X128172200Y-82060001D01*
X128070488Y-82093706D01*
X128031484Y-82100000D01*
X127924000Y-82100000D01*
X127856961Y-82080315D01*
X127811206Y-82027511D01*
X127800000Y-81976000D01*
X127800000Y-79724000D01*
X127819685Y-79656961D01*
X127872489Y-79611206D01*
X127924000Y-79600000D01*
X131576000Y-79600000D01*
X131643039Y-79619685D01*
G37*
%TD.AperFunction*%
%TD*%
%TA.AperFunction,Conductor*%
%TO.N,GND*%
G36*
X149560299Y-96396385D02*
G01*
X149580941Y-96413019D01*
X149597738Y-96429816D01*
X149750478Y-96525789D01*
X149920745Y-96585368D01*
X149920750Y-96585369D01*
X150099997Y-96605565D01*
X150099998Y-96605565D01*
X150099998Y-96605564D01*
X150100000Y-96605565D01*
X150121534Y-96603138D01*
X150190354Y-96615191D01*
X150223100Y-96638677D01*
X150638525Y-97054102D01*
X150745898Y-97161475D01*
X150877402Y-97237399D01*
X151024076Y-97276700D01*
X151024078Y-97276700D01*
X151676000Y-97276700D01*
X151743039Y-97296385D01*
X151788794Y-97349189D01*
X151800000Y-97400700D01*
X151800000Y-100076000D01*
X151780315Y-100143039D01*
X151727511Y-100188794D01*
X151676000Y-100200000D01*
X149124000Y-100200000D01*
X149056961Y-100180315D01*
X149011206Y-100127511D01*
X149000000Y-100076000D01*
X149000000Y-96500700D01*
X149019685Y-96433661D01*
X149072489Y-96387906D01*
X149124000Y-96376700D01*
X149493260Y-96376700D01*
X149560299Y-96396385D01*
G37*
%TD.AperFunction*%
%TD*%
%TA.AperFunction,Conductor*%
%TO.N,GND*%
G36*
X141899419Y-76518461D02*
G01*
X141905659Y-76522310D01*
X141905660Y-76522310D01*
X141905666Y-76522314D01*
X142072203Y-76577499D01*
X142174991Y-76588000D01*
X143225008Y-76587999D01*
X143225016Y-76587998D01*
X143225019Y-76587998D01*
X143281302Y-76582248D01*
X143327797Y-76577499D01*
X143494334Y-76522314D01*
X143500581Y-76518461D01*
X143565677Y-76500000D01*
X143576000Y-76500000D01*
X143643039Y-76519685D01*
X143688794Y-76572489D01*
X143700000Y-76624000D01*
X143700000Y-78312024D01*
X143680315Y-78379063D01*
X143627511Y-78424818D01*
X143616963Y-78429062D01*
X141719891Y-79093038D01*
X141678928Y-79100000D01*
X139942586Y-79100000D01*
X139875547Y-79080315D01*
X139829792Y-79027511D01*
X139819228Y-78988602D01*
X139819003Y-78986401D01*
X139814999Y-78947203D01*
X139759814Y-78780666D01*
X139718461Y-78713621D01*
X139700000Y-78648525D01*
X139700000Y-78151474D01*
X139718460Y-78086379D01*
X139759814Y-78019334D01*
X139814999Y-77852797D01*
X139825500Y-77750009D01*
X139825499Y-77364036D01*
X139845183Y-77296999D01*
X139848574Y-77291995D01*
X140173464Y-76837149D01*
X140228447Y-76794041D01*
X140244287Y-76788928D01*
X140583198Y-76704200D01*
X140613263Y-76700499D01*
X141025008Y-76700499D01*
X141127797Y-76689999D01*
X141294334Y-76634814D01*
X141443656Y-76542712D01*
X141450049Y-76536319D01*
X141511372Y-76502834D01*
X141537730Y-76500000D01*
X141834323Y-76500000D01*
X141899419Y-76518461D01*
G37*
%TD.AperFunction*%
%TD*%
%TA.AperFunction,Conductor*%
%TO.N,GND*%
G36*
X153009896Y-83201611D02*
G01*
X161495427Y-84582976D01*
X161558429Y-84613176D01*
X161595105Y-84672645D01*
X161599500Y-84705364D01*
X161599500Y-87276000D01*
X161579815Y-87343039D01*
X161527011Y-87388794D01*
X161475500Y-87400000D01*
X161168070Y-87400000D01*
X161129067Y-87393706D01*
X161102801Y-87385002D01*
X161102798Y-87385001D01*
X161102797Y-87385001D01*
X161102793Y-87385000D01*
X161102790Y-87385000D01*
X161000010Y-87374500D01*
X159999998Y-87374500D01*
X159999980Y-87374501D01*
X159897203Y-87385000D01*
X159876982Y-87391701D01*
X159870932Y-87393706D01*
X159831929Y-87400000D01*
X159068070Y-87400000D01*
X159029067Y-87393706D01*
X159002801Y-87385002D01*
X159002798Y-87385001D01*
X159002797Y-87385001D01*
X159002793Y-87385000D01*
X159002790Y-87385000D01*
X158900010Y-87374500D01*
X157899998Y-87374500D01*
X157899980Y-87374501D01*
X157797203Y-87385000D01*
X157776982Y-87391701D01*
X157770932Y-87393706D01*
X157731929Y-87400000D01*
X156968070Y-87400000D01*
X156929067Y-87393706D01*
X156902801Y-87385002D01*
X156902798Y-87385001D01*
X156902797Y-87385001D01*
X156902793Y-87385000D01*
X156902790Y-87385000D01*
X156800010Y-87374500D01*
X155799998Y-87374500D01*
X155799980Y-87374501D01*
X155697203Y-87385000D01*
X155676982Y-87391701D01*
X155670932Y-87393706D01*
X155631929Y-87400000D01*
X154868070Y-87400000D01*
X154829067Y-87393706D01*
X154802801Y-87385002D01*
X154802798Y-87385001D01*
X154802797Y-87385001D01*
X154802793Y-87385000D01*
X154802790Y-87385000D01*
X154700010Y-87374500D01*
X153699998Y-87374500D01*
X153699980Y-87374501D01*
X153597203Y-87385000D01*
X153576982Y-87391701D01*
X153570932Y-87393706D01*
X153531929Y-87400000D01*
X153283952Y-87400000D01*
X153216913Y-87380315D01*
X153171158Y-87327511D01*
X153168821Y-87322052D01*
X152400000Y-85400000D01*
X151707131Y-85400000D01*
X151640092Y-85380315D01*
X151601015Y-85340151D01*
X151555471Y-85264814D01*
X151555468Y-85264810D01*
X151490819Y-85200161D01*
X151457334Y-85138838D01*
X151454500Y-85112480D01*
X151454500Y-84955446D01*
X151454501Y-84955425D01*
X151454501Y-84800685D01*
X151425506Y-84654927D01*
X151425505Y-84654921D01*
X151409437Y-84616130D01*
X151400000Y-84568681D01*
X151400000Y-84143385D01*
X151419685Y-84076346D01*
X151436319Y-84055704D01*
X152255704Y-83236319D01*
X152317027Y-83202834D01*
X152343385Y-83200000D01*
X152989972Y-83200000D01*
X153009896Y-83201611D01*
G37*
%TD.AperFunction*%
%TD*%
%TA.AperFunction,Conductor*%
%TO.N,+3.3V*%
G36*
X147192716Y-95819685D02*
G01*
X147224052Y-95848512D01*
X147235964Y-95864036D01*
X147353571Y-95954279D01*
X147490528Y-96011009D01*
X147600599Y-96025500D01*
X147799400Y-96025499D01*
X147799403Y-96025499D01*
X147909463Y-96011011D01*
X147909467Y-96011009D01*
X147909472Y-96011009D01*
X148046429Y-95954279D01*
X148111387Y-95904435D01*
X148176556Y-95879241D01*
X148245001Y-95893279D01*
X148274554Y-95915130D01*
X148510151Y-96150727D01*
X148543636Y-96212050D01*
X148538652Y-96281742D01*
X148535274Y-96289897D01*
X148534671Y-96291217D01*
X148534662Y-96291239D01*
X148514976Y-96358282D01*
X148494500Y-96500701D01*
X148494500Y-99995261D01*
X148474815Y-100062300D01*
X148422011Y-100108055D01*
X148379159Y-100118958D01*
X143782659Y-100440713D01*
X143714408Y-100425758D01*
X143665078Y-100376278D01*
X143650000Y-100317016D01*
X143650000Y-98674000D01*
X143669685Y-98606961D01*
X143722489Y-98561206D01*
X143774000Y-98550000D01*
X143782130Y-98550000D01*
X143823287Y-98559122D01*
X143823811Y-98557542D01*
X143830664Y-98559812D01*
X143830666Y-98559814D01*
X143997203Y-98614999D01*
X144099991Y-98625500D01*
X145100008Y-98625499D01*
X145100016Y-98625498D01*
X145100019Y-98625498D01*
X145156302Y-98619748D01*
X145202797Y-98614999D01*
X145369334Y-98559814D01*
X145369335Y-98559812D01*
X145376189Y-98557542D01*
X145376712Y-98559122D01*
X145417870Y-98550000D01*
X145600000Y-98550000D01*
X145600000Y-98437730D01*
X145619685Y-98370691D01*
X145636319Y-98350049D01*
X145642712Y-98343656D01*
X145734814Y-98194334D01*
X145789999Y-98027797D01*
X145800500Y-97925009D01*
X145800499Y-97174992D01*
X145796842Y-97139196D01*
X145789999Y-97072203D01*
X145789998Y-97072200D01*
X145754592Y-96965353D01*
X145734814Y-96905666D01*
X145642712Y-96756344D01*
X145636319Y-96749951D01*
X145602834Y-96688628D01*
X145600000Y-96662270D01*
X145600000Y-96624965D01*
X145619685Y-96557926D01*
X145626735Y-96548052D01*
X145630204Y-96543663D01*
X145630212Y-96543656D01*
X145722314Y-96394334D01*
X145777499Y-96227797D01*
X145788000Y-96125009D01*
X145788000Y-95924000D01*
X145807685Y-95856961D01*
X145860489Y-95811206D01*
X145912000Y-95800000D01*
X147125677Y-95800000D01*
X147192716Y-95819685D01*
G37*
%TD.AperFunction*%
%TD*%
%TA.AperFunction,Conductor*%
%TO.N,GND*%
G36*
X151143039Y-74419685D02*
G01*
X151188794Y-74472489D01*
X151200000Y-74524000D01*
X151200000Y-76676000D01*
X151180315Y-76743039D01*
X151127511Y-76788794D01*
X151076000Y-76800000D01*
X150761223Y-76800000D01*
X150753169Y-76799589D01*
X150753166Y-76799661D01*
X150750014Y-76799500D01*
X150750009Y-76799500D01*
X150750003Y-76799500D01*
X149749998Y-76799500D01*
X149746836Y-76799662D01*
X149746832Y-76799590D01*
X149738789Y-76800000D01*
X148711223Y-76800000D01*
X148703169Y-76799589D01*
X148703166Y-76799661D01*
X148700014Y-76799500D01*
X148700009Y-76799500D01*
X148700003Y-76799500D01*
X147699998Y-76799500D01*
X147696836Y-76799662D01*
X147696832Y-76799590D01*
X147688789Y-76800000D01*
X146611223Y-76800000D01*
X146603169Y-76799589D01*
X146603166Y-76799661D01*
X146600014Y-76799500D01*
X146600009Y-76799500D01*
X146600003Y-76799500D01*
X145599998Y-76799500D01*
X145596836Y-76799662D01*
X145596832Y-76799590D01*
X145588789Y-76800000D01*
X145324000Y-76800000D01*
X145256961Y-76780315D01*
X145211206Y-76727511D01*
X145200000Y-76676000D01*
X145200000Y-74524000D01*
X145219685Y-74456961D01*
X145272489Y-74411206D01*
X145324000Y-74400000D01*
X151076000Y-74400000D01*
X151143039Y-74419685D01*
G37*
%TD.AperFunction*%
%TD*%
M02*
