%TF.GenerationSoftware,KiCad,Pcbnew,8.0.8*%
%TF.CreationDate,2025-02-12T11:11:18-05:00*%
%TF.ProjectId,high-power-module,68696768-2d70-46f7-9765-722d6d6f6475,rev?*%
%TF.SameCoordinates,Original*%
%TF.FileFunction,Copper,L4,Bot*%
%TF.FilePolarity,Positive*%
%FSLAX46Y46*%
G04 Gerber Fmt 4.6, Leading zero omitted, Abs format (unit mm)*
G04 Created by KiCad (PCBNEW 8.0.8) date 2025-02-12 11:11:18*
%MOMM*%
%LPD*%
G01*
G04 APERTURE LIST*
G04 Aperture macros list*
%AMRoundRect*
0 Rectangle with rounded corners*
0 $1 Rounding radius*
0 $2 $3 $4 $5 $6 $7 $8 $9 X,Y pos of 4 corners*
0 Add a 4 corners polygon primitive as box body*
4,1,4,$2,$3,$4,$5,$6,$7,$8,$9,$2,$3,0*
0 Add four circle primitives for the rounded corners*
1,1,$1+$1,$2,$3*
1,1,$1+$1,$4,$5*
1,1,$1+$1,$6,$7*
1,1,$1+$1,$8,$9*
0 Add four rect primitives between the rounded corners*
20,1,$1+$1,$2,$3,$4,$5,0*
20,1,$1+$1,$4,$5,$6,$7,0*
20,1,$1+$1,$6,$7,$8,$9,0*
20,1,$1+$1,$8,$9,$2,$3,0*%
G04 Aperture macros list end*
%TA.AperFunction,ComponentPad*%
%ADD10R,1.700000X1.700000*%
%TD*%
%TA.AperFunction,ComponentPad*%
%ADD11O,1.700000X1.700000*%
%TD*%
%TA.AperFunction,SMDPad,CuDef*%
%ADD12R,1.524000X4.064000*%
%TD*%
%TA.AperFunction,ComponentPad*%
%ADD13C,0.500000*%
%TD*%
%TA.AperFunction,SMDPad,CuDef*%
%ADD14R,2.700000X2.700000*%
%TD*%
%TA.AperFunction,ComponentPad*%
%ADD15RoundRect,0.250000X-0.600000X-0.725000X0.600000X-0.725000X0.600000X0.725000X-0.600000X0.725000X0*%
%TD*%
%TA.AperFunction,ComponentPad*%
%ADD16O,1.700000X1.950000*%
%TD*%
%TA.AperFunction,HeatsinkPad*%
%ADD17C,0.500000*%
%TD*%
%TA.AperFunction,HeatsinkPad*%
%ADD18R,2.600000X2.600000*%
%TD*%
%TA.AperFunction,SMDPad,CuDef*%
%ADD19RoundRect,0.250000X-0.337500X-0.475000X0.337500X-0.475000X0.337500X0.475000X-0.337500X0.475000X0*%
%TD*%
%TA.AperFunction,SMDPad,CuDef*%
%ADD20RoundRect,0.250000X-0.350000X-0.450000X0.350000X-0.450000X0.350000X0.450000X-0.350000X0.450000X0*%
%TD*%
%TA.AperFunction,SMDPad,CuDef*%
%ADD21RoundRect,0.250000X0.350000X0.450000X-0.350000X0.450000X-0.350000X-0.450000X0.350000X-0.450000X0*%
%TD*%
%TA.AperFunction,SMDPad,CuDef*%
%ADD22RoundRect,0.250000X0.325000X0.450000X-0.325000X0.450000X-0.325000X-0.450000X0.325000X-0.450000X0*%
%TD*%
%TA.AperFunction,SMDPad,CuDef*%
%ADD23RoundRect,0.250000X-0.475000X0.250000X-0.475000X-0.250000X0.475000X-0.250000X0.475000X0.250000X0*%
%TD*%
%TA.AperFunction,SMDPad,CuDef*%
%ADD24RoundRect,0.162500X-0.447500X-0.162500X0.447500X-0.162500X0.447500X0.162500X-0.447500X0.162500X0*%
%TD*%
%TA.AperFunction,SMDPad,CuDef*%
%ADD25RoundRect,0.250000X0.262500X0.450000X-0.262500X0.450000X-0.262500X-0.450000X0.262500X-0.450000X0*%
%TD*%
%TA.AperFunction,SMDPad,CuDef*%
%ADD26RoundRect,0.250000X-0.475000X0.337500X-0.475000X-0.337500X0.475000X-0.337500X0.475000X0.337500X0*%
%TD*%
%TA.AperFunction,SMDPad,CuDef*%
%ADD27RoundRect,0.017550X-0.117450X0.352450X-0.117450X-0.352450X0.117450X-0.352450X0.117450X0.352450X0*%
%TD*%
%TA.AperFunction,SMDPad,CuDef*%
%ADD28R,2.400000X0.840000*%
%TD*%
%TA.AperFunction,SMDPad,CuDef*%
%ADD29RoundRect,0.250000X0.475000X-0.337500X0.475000X0.337500X-0.475000X0.337500X-0.475000X-0.337500X0*%
%TD*%
%TA.AperFunction,SMDPad,CuDef*%
%ADD30RoundRect,0.150000X0.150000X-0.512500X0.150000X0.512500X-0.150000X0.512500X-0.150000X-0.512500X0*%
%TD*%
%TA.AperFunction,SMDPad,CuDef*%
%ADD31RoundRect,0.250000X0.450000X-0.350000X0.450000X0.350000X-0.450000X0.350000X-0.450000X-0.350000X0*%
%TD*%
%TA.AperFunction,SMDPad,CuDef*%
%ADD32RoundRect,0.250000X0.475000X-0.250000X0.475000X0.250000X-0.475000X0.250000X-0.475000X-0.250000X0*%
%TD*%
%TA.AperFunction,SMDPad,CuDef*%
%ADD33RoundRect,0.218750X0.218750X0.381250X-0.218750X0.381250X-0.218750X-0.381250X0.218750X-0.381250X0*%
%TD*%
%TA.AperFunction,ViaPad*%
%ADD34C,0.600000*%
%TD*%
%TA.AperFunction,Conductor*%
%ADD35C,0.508000*%
%TD*%
%TA.AperFunction,Conductor*%
%ADD36C,0.304800*%
%TD*%
%TA.AperFunction,Conductor*%
%ADD37C,0.152400*%
%TD*%
%TA.AperFunction,Conductor*%
%ADD38C,0.200000*%
%TD*%
G04 APERTURE END LIST*
D10*
%TO.P,J4,1,Pin_1*%
%TO.N,GND*%
X136260000Y-99100000D03*
D11*
%TO.P,J4,2,Pin_2*%
%TO.N,Net-(J4-Pin_2)*%
X138800000Y-99100000D03*
%TD*%
D12*
%TO.P,J2,2,Ext*%
%TO.N,GND*%
X143200000Y-72400000D03*
X138120000Y-72400000D03*
%TD*%
D13*
%TO.P,PA1,25,GND*%
%TO.N,GND*%
X127450000Y-89510000D03*
X128090000Y-89510000D03*
X128730000Y-89510000D03*
X129370000Y-89510000D03*
X127450000Y-88870000D03*
X128090000Y-88870000D03*
X128730000Y-88870000D03*
X129370000Y-88870000D03*
D14*
X128410000Y-88550000D03*
D13*
X127450000Y-88230000D03*
X128090000Y-88230000D03*
X128730000Y-88230000D03*
X129370000Y-88230000D03*
X127450000Y-87590000D03*
X128090000Y-87590000D03*
X128730000Y-87590000D03*
X129370000Y-87590000D03*
%TD*%
D15*
%TO.P,J3,1,Pin_1*%
%TO.N,SDN*%
X127900000Y-103800000D03*
D16*
%TO.P,J3,2,Pin_2*%
%TO.N,GPIO3*%
X130400000Y-103800000D03*
%TO.P,J3,3,Pin_3*%
%TO.N,GPIO2*%
X132900000Y-103800000D03*
%TO.P,J3,4,Pin_4*%
%TO.N,GPIO1*%
X135400000Y-103800000D03*
%TO.P,J3,5,Pin_5*%
%TO.N,GPIO0*%
X137900000Y-103800000D03*
%TO.P,J3,6,Pin_6*%
%TO.N,IRQ*%
X140400000Y-103800000D03*
%TD*%
D15*
%TO.P,J1,1,Pin_1*%
%TO.N,CS*%
X146300000Y-103800000D03*
D16*
%TO.P,J1,2,Pin_2*%
%TO.N,MOSI*%
X148800000Y-103800000D03*
%TO.P,J1,3,Pin_3*%
%TO.N,MISO*%
X151300000Y-103800000D03*
%TO.P,J1,4,Pin_4*%
%TO.N,SCLK*%
X153800000Y-103800000D03*
%TO.P,J1,5,Pin_5*%
%TO.N,GND*%
X156300000Y-103800000D03*
%TO.P,J1,6,Pin_6*%
%TO.N,+5V*%
X158800000Y-103800000D03*
%TD*%
D17*
%TO.P,U1,21,GND*%
%TO.N,GND*%
X147150000Y-92125000D03*
X147150000Y-94225000D03*
D18*
X148200000Y-93175000D03*
D17*
X149250000Y-92125000D03*
X149250000Y-94225000D03*
%TD*%
D19*
%TO.P,CB5,1*%
%TO.N,+5V*%
X139600000Y-90400000D03*
%TO.P,CB5,2*%
%TO.N,GND*%
X141675000Y-90400000D03*
%TD*%
D20*
%TO.P,R13,1*%
%TO.N,AND*%
X133900000Y-86600000D03*
%TO.P,R13,2*%
%TO.N,Net-(R13-Pad2)*%
X135900000Y-86600000D03*
%TD*%
D21*
%TO.P,R2,1*%
%TO.N,GND*%
X139700000Y-86600000D03*
%TO.P,R2,2*%
%TO.N,Net-(R13-Pad2)*%
X137700000Y-86600000D03*
%TD*%
D22*
%TO.P,R3,1,1*%
%TO.N,AND*%
X129850000Y-86200000D03*
%TO.P,R3,2,2*%
%TO.N,Net-(PA1-Iref)*%
X127800000Y-86200000D03*
%TD*%
D23*
%TO.P,CIN1,1*%
%TO.N,GND*%
X158400000Y-77350000D03*
%TO.P,CIN1,2*%
%TO.N,+5V*%
X158400000Y-79250000D03*
%TD*%
D24*
%TO.P,D1,1,K*%
%TO.N,Net-(PA1-Vbias)*%
X131700000Y-90650000D03*
%TO.P,D1,2,K*%
%TO.N,AND*%
X131700000Y-88750000D03*
%TO.P,D1,3,A*%
%TO.N,GND*%
X134320000Y-89700000D03*
%TD*%
D25*
%TO.P,R16,1*%
%TO.N,Net-(U3-PG)*%
X158712500Y-84250000D03*
%TO.P,R16,2*%
%TO.N,Net-(U3-VOS)*%
X156887500Y-84250000D03*
%TD*%
%TO.P,R17,1*%
%TO.N,Net-(U3-VOS)*%
X154025000Y-86200000D03*
%TO.P,R17,2*%
%TO.N,+3.3V*%
X152200000Y-86200000D03*
%TD*%
D26*
%TO.P,C4,1*%
%TO.N,GND*%
X131800000Y-84625000D03*
%TO.P,C4,2*%
%TO.N,AND*%
X131800000Y-86700000D03*
%TD*%
D20*
%TO.P,R15,1*%
%TO.N,GND*%
X135000000Y-92800000D03*
%TO.P,R15,2*%
%TO.N,GPIO3*%
X137000000Y-92800000D03*
%TD*%
D27*
%TO.P,U3,1,PGND*%
%TO.N,GND*%
X157200000Y-80650000D03*
%TO.P,U3,2,VIN*%
%TO.N,+5V*%
X157700000Y-80650000D03*
%TO.P,U3,3,EN*%
X158200000Y-80650000D03*
%TO.P,U3,4,NC*%
%TO.N,unconnected-(U3-NC-Pad4)*%
X158700000Y-80650000D03*
%TO.P,U3,5,FB*%
%TO.N,unconnected-(U3-FB-Pad5)*%
X159200000Y-80650000D03*
%TO.P,U3,6,AGND*%
%TO.N,GND*%
X159200000Y-82640000D03*
%TO.P,U3,7,PG*%
%TO.N,Net-(U3-PG)*%
X158700000Y-82640000D03*
%TO.P,U3,8,SLEEP*%
%TO.N,unconnected-(U3-SLEEP-Pad8)*%
X158200000Y-82640000D03*
%TO.P,U3,9,SW*%
%TO.N,Net-(U3-SW)*%
X157700000Y-82640000D03*
%TO.P,U3,10,VOS*%
%TO.N,Net-(U3-VOS)*%
X157200000Y-82640000D03*
D28*
%TO.P,U3,11,EXP*%
%TO.N,GND*%
X158200000Y-81645000D03*
D13*
%TO.P,U3,P1,EXP__1*%
X157250001Y-81645000D03*
%TO.P,U3,P2,EXP__2*%
X158200000Y-81645000D03*
%TO.P,U3,P3,EXP__3*%
X159149999Y-81645000D03*
%TD*%
D29*
%TO.P,C3,1*%
%TO.N,GND*%
X127800000Y-92700000D03*
%TO.P,C3,2*%
%TO.N,Net-(PA1-Vbias)*%
X127800000Y-90625000D03*
%TD*%
D30*
%TO.P,U2,1*%
%TO.N,+5V*%
X138000000Y-90875000D03*
%TO.P,U2,2*%
%TO.N,GPIO3*%
X137050000Y-90875000D03*
%TO.P,U2,3,GND*%
%TO.N,GND*%
X136100000Y-90875000D03*
%TO.P,U2,4*%
%TO.N,Net-(R13-Pad2)*%
X136100000Y-88600000D03*
%TO.P,U2,5,VCC*%
%TO.N,+5V*%
X138000000Y-88600000D03*
%TD*%
D31*
%TO.P,R1,1*%
%TO.N,+5V*%
X129800000Y-92650000D03*
%TO.P,R1,2*%
%TO.N,Net-(PA1-Vbias)*%
X129800000Y-90650000D03*
%TD*%
D32*
%TO.P,COUT1,1*%
%TO.N,Net-(U3-VOS)*%
X155400000Y-82500000D03*
%TO.P,COUT1,2*%
%TO.N,GND*%
X155400000Y-80600000D03*
%TD*%
D33*
%TO.P,L5,1,1*%
%TO.N,Net-(U3-SW)*%
X157687500Y-86150000D03*
%TO.P,L5,2,2*%
%TO.N,Net-(U3-VOS)*%
X155562500Y-86150000D03*
%TD*%
D34*
%TO.N,GND*%
X161022804Y-81077196D03*
X146100000Y-74700000D03*
X158400000Y-76043600D03*
X134500000Y-88750000D03*
X153250000Y-84300000D03*
X151000000Y-97450000D03*
X140600000Y-93550000D03*
X144450000Y-72400000D03*
X126600000Y-92650000D03*
X154300000Y-81400000D03*
X139500000Y-87893600D03*
X136500000Y-77100000D03*
X132000000Y-83400000D03*
X150150000Y-74750000D03*
X154800000Y-85000000D03*
X136900000Y-72400000D03*
X136400000Y-89900000D03*
X155650000Y-85000000D03*
X132227920Y-98727920D03*
X134741634Y-87555100D03*
X159500000Y-85450000D03*
X151000000Y-98450000D03*
X160300000Y-76900000D03*
X149900000Y-87000000D03*
X133933429Y-93058540D03*
X139800000Y-94000000D03*
X140400000Y-77300000D03*
X160193600Y-85200000D03*
X141500000Y-77200000D03*
X137600000Y-84500000D03*
X133600000Y-87900000D03*
X138600000Y-87600000D03*
X138600000Y-82100000D03*
X128700000Y-80000000D03*
X135300000Y-89000000D03*
X131800000Y-89700000D03*
X130797804Y-80102196D03*
X134800000Y-76700000D03*
X148200000Y-74800000D03*
X140700000Y-89400000D03*
%TO.N,Net-(PA1-Vbias)*%
X126500000Y-90650000D03*
%TO.N,+5V*%
X126550000Y-79850000D03*
X153496000Y-78200000D03*
%TO.N,GPIO3*%
X147000000Y-89600000D03*
X135100000Y-80500000D03*
%TO.N,GPIO2*%
X147600000Y-90300000D03*
X141900000Y-80500000D03*
%TO.N,+3.3V*%
X151200000Y-86800000D03*
X146150000Y-96550000D03*
%TO.N,CS*%
X151000000Y-91900000D03*
%TO.N,GPIO1*%
X150100000Y-95000000D03*
%TO.N,GPIO0*%
X150100000Y-95800000D03*
%TO.N,IRQ*%
X151126223Y-95273777D03*
%TO.N,MOSI*%
X151800000Y-92300000D03*
%TO.N,SCLK*%
X153600000Y-94100000D03*
%TO.N,MISO*%
X152500000Y-93300000D03*
%TO.N,SDN*%
X146300000Y-88900000D03*
%TO.N,Net-(PA1-Iref)*%
X126461012Y-86343488D03*
%TD*%
D35*
%TO.N,GND*%
X141675000Y-90375000D02*
X140700000Y-89400000D01*
X135000000Y-92800000D02*
X135000000Y-91975000D01*
D36*
X157250001Y-81645000D02*
X157182600Y-81577599D01*
D35*
X139700000Y-87693600D02*
X139500000Y-87893600D01*
X136100000Y-90875000D02*
X136100000Y-90500000D01*
X134191969Y-92800000D02*
X133933429Y-93058540D01*
X127800000Y-92700000D02*
X126650000Y-92700000D01*
X155400000Y-80600000D02*
X155100000Y-80600000D01*
X139700000Y-86600000D02*
X139700000Y-87693600D01*
X134320000Y-89700000D02*
X134320000Y-88930000D01*
X131800000Y-83600000D02*
X132000000Y-83400000D01*
X141675000Y-90400000D02*
X141675000Y-90375000D01*
X135000000Y-92800000D02*
X134191969Y-92800000D01*
X158400000Y-77350000D02*
X158400000Y-76043600D01*
X131800000Y-84625000D02*
X131800000Y-83600000D01*
X134320000Y-88930000D02*
X134500000Y-88750000D01*
X155100000Y-80600000D02*
X154300000Y-81400000D01*
D36*
X159149999Y-81645000D02*
X159217300Y-81712301D01*
D35*
X126650000Y-92700000D02*
X126600000Y-92650000D01*
D36*
X159217300Y-81712301D02*
X159217300Y-82640000D01*
D35*
X143200000Y-72400000D02*
X144450000Y-72400000D01*
X136100000Y-90200000D02*
X136400000Y-89900000D01*
D36*
X157182600Y-81577599D02*
X157182600Y-80650000D01*
D35*
X136100000Y-90875000D02*
X136100000Y-90200000D01*
X135000000Y-91975000D02*
X136100000Y-90875000D01*
X138120000Y-72400000D02*
X136900000Y-72400000D01*
D37*
%TO.N,Net-(PA1-Vbias)*%
X126525000Y-90625000D02*
X126500000Y-90650000D01*
X127800000Y-90625000D02*
X126525000Y-90625000D01*
X129750000Y-90650000D02*
X129725000Y-90625000D01*
X131700000Y-90650000D02*
X129800000Y-90650000D01*
X129725000Y-90625000D02*
X127800000Y-90625000D01*
X129800000Y-90650000D02*
X129750000Y-90650000D01*
D38*
%TO.N,AND*%
X133800000Y-86700000D02*
X133900000Y-86600000D01*
X129850000Y-86200000D02*
X131300000Y-86200000D01*
X131700000Y-88750000D02*
X131700000Y-86800000D01*
X131300000Y-86200000D02*
X131800000Y-86700000D01*
X131700000Y-86800000D02*
X131800000Y-86700000D01*
X131800000Y-86700000D02*
X133800000Y-86700000D01*
D35*
%TO.N,+5V*%
X158400000Y-79250000D02*
X158300000Y-79350000D01*
X138475000Y-90400000D02*
X138000000Y-90875000D01*
X125754612Y-80645388D02*
X125754612Y-93104612D01*
X161200000Y-101450000D02*
X161200000Y-82250000D01*
X141250000Y-87650000D02*
X141250000Y-85550000D01*
X138000000Y-90875000D02*
X138000000Y-88600000D01*
X154646000Y-79350000D02*
X153496000Y-78200000D01*
X125754612Y-93104612D02*
X127000000Y-94350000D01*
X160200000Y-80325000D02*
X159125000Y-79250000D01*
X159125000Y-79250000D02*
X158400000Y-79250000D01*
X158850000Y-103800000D02*
X161200000Y-101450000D01*
X128100000Y-94350000D02*
X129800000Y-92650000D01*
X161200000Y-82250000D02*
X160200000Y-81250000D01*
X158400000Y-79250000D02*
X157741400Y-79908600D01*
X153496000Y-78200000D02*
X128200000Y-78200000D01*
X158400000Y-79250000D02*
X158111000Y-79539000D01*
X128200000Y-78200000D02*
X126550000Y-79850000D01*
X128200000Y-78500000D02*
X128200000Y-78200000D01*
X158111000Y-79539000D02*
X158111000Y-80650000D01*
X139600000Y-90400000D02*
X138475000Y-90400000D01*
X133200000Y-83500000D02*
X128200000Y-78500000D01*
X138000000Y-88600000D02*
X140300000Y-88600000D01*
X139200000Y-83500000D02*
X133200000Y-83500000D01*
X141250000Y-85550000D02*
X139200000Y-83500000D01*
X158300000Y-79350000D02*
X154646000Y-79350000D01*
X160200000Y-81250000D02*
X160200000Y-80325000D01*
X127000000Y-94350000D02*
X128100000Y-94350000D01*
X157741400Y-79908600D02*
X157741400Y-80650000D01*
X140300000Y-88600000D02*
X141250000Y-87650000D01*
X126550000Y-79850000D02*
X125754612Y-80645388D01*
D37*
%TO.N,GPIO3*%
X146500000Y-88100000D02*
X145400000Y-88100000D01*
X139600000Y-81200000D02*
X136800000Y-81200000D01*
X147000000Y-89600000D02*
X147000000Y-88600000D01*
X137000000Y-90925000D02*
X137050000Y-90875000D01*
X130400000Y-103800000D02*
X133900000Y-100300000D01*
X146100000Y-89600000D02*
X147000000Y-89600000D01*
X147000000Y-88600000D02*
X146500000Y-88100000D01*
X141350000Y-100300000D02*
X144350000Y-97300000D01*
X146500000Y-88100000D02*
X139600000Y-81200000D01*
X135800000Y-81200000D02*
X135100000Y-80500000D01*
X142000000Y-91500000D02*
X139100000Y-91500000D01*
X139100000Y-91500000D02*
X137800000Y-92800000D01*
X136800000Y-81200000D02*
X135800000Y-81200000D01*
X137000000Y-92800000D02*
X137000000Y-90925000D01*
X133900000Y-100300000D02*
X141350000Y-100300000D01*
X144350000Y-91350000D02*
X146100000Y-89600000D01*
X137800000Y-92800000D02*
X137000000Y-92800000D01*
X144350000Y-97300000D02*
X144350000Y-91350000D01*
X145400000Y-88100000D02*
X142000000Y-91500000D01*
%TO.N,GPIO2*%
X135750000Y-100950000D02*
X142150000Y-100950000D01*
X147600000Y-90300000D02*
X147600000Y-88200000D01*
X142200000Y-82800000D02*
X141900000Y-82500000D01*
X145200000Y-97900000D02*
X145200000Y-91550000D01*
X146450000Y-90300000D02*
X147600000Y-90300000D01*
X141900000Y-82500000D02*
X141900000Y-80500000D01*
X132900000Y-103800000D02*
X135750000Y-100950000D01*
X145200000Y-91550000D02*
X146450000Y-90300000D01*
X142150000Y-100950000D02*
X145200000Y-97900000D01*
X147600000Y-88200000D02*
X142200000Y-82800000D01*
D35*
%TO.N,+3.3V*%
X152287500Y-86200000D02*
X152287500Y-87362500D01*
X151800000Y-86200000D02*
X151200000Y-86800000D01*
X146150000Y-91812200D02*
X146150000Y-96550000D01*
X146762200Y-91200000D02*
X146150000Y-91812200D01*
X148450000Y-91200000D02*
X146762200Y-91200000D01*
X152287500Y-86200000D02*
X151800000Y-86200000D01*
X152287500Y-87362500D02*
X148450000Y-91200000D01*
D37*
%TO.N,CS*%
X146500000Y-103800000D02*
X151700000Y-98600000D01*
X151700000Y-95100000D02*
X151000000Y-94400000D01*
X146350000Y-103800000D02*
X146500000Y-103800000D01*
X151700000Y-98600000D02*
X151700000Y-95100000D01*
X151000000Y-94400000D02*
X151000000Y-91900000D01*
%TO.N,GPIO1*%
X149500000Y-95000000D02*
X150100000Y-95000000D01*
X137450000Y-101750000D02*
X142750000Y-101750000D01*
X142750000Y-101750000D02*
X149500000Y-95000000D01*
X135400000Y-103800000D02*
X137450000Y-101750000D01*
%TO.N,GPIO0*%
X143450000Y-102450000D02*
X150100000Y-95800000D01*
X137900000Y-103900000D02*
X138150000Y-103900000D01*
X137900000Y-103800000D02*
X139250000Y-102450000D01*
X139250000Y-102450000D02*
X143450000Y-102450000D01*
%TO.N,IRQ*%
X151126223Y-96173777D02*
X151126223Y-95273777D01*
X140400000Y-103800000D02*
X143500000Y-103800000D01*
X144050000Y-103250000D02*
X151126223Y-96173777D01*
X143500000Y-103800000D02*
X144050000Y-103250000D01*
%TO.N,MOSI*%
X148850000Y-103800000D02*
X152300000Y-100350000D01*
X152300000Y-100350000D02*
X152300000Y-99950000D01*
X151800000Y-94200000D02*
X151800000Y-92300000D01*
X152300000Y-99950000D02*
X152300000Y-94700000D01*
X152300000Y-94700000D02*
X151800000Y-94200000D01*
%TO.N,SCLK*%
X153900000Y-103750000D02*
X153900000Y-94400000D01*
X153850000Y-103800000D02*
X153900000Y-103750000D01*
X153900000Y-94400000D02*
X153600000Y-94100000D01*
%TO.N,MISO*%
X153100000Y-102050000D02*
X153100000Y-101600000D01*
X151350000Y-103800000D02*
X153100000Y-102050000D01*
X152500000Y-93800000D02*
X152500000Y-93300000D01*
X153100000Y-101600000D02*
X153100000Y-94400000D01*
X153100000Y-94400000D02*
X152500000Y-93800000D01*
%TO.N,SDN*%
X142100000Y-92400000D02*
X145600000Y-88900000D01*
X127900000Y-103800000D02*
X139300000Y-92400000D01*
X139300000Y-92400000D02*
X142100000Y-92400000D01*
X145600000Y-88900000D02*
X146300000Y-88900000D01*
%TO.N,Net-(PA1-Iref)*%
X127800000Y-86200000D02*
X126604500Y-86200000D01*
X126604500Y-86200000D02*
X126461012Y-86343488D01*
%TO.N,Net-(R13-Pad2)*%
X136100000Y-88600000D02*
X136100000Y-86800000D01*
X136100000Y-86800000D02*
X135900000Y-86600000D01*
X135900000Y-86600000D02*
X137700000Y-86600000D01*
D36*
%TO.N,Net-(U3-SW)*%
X157687500Y-86150000D02*
X157800000Y-86037500D01*
X157700000Y-83491150D02*
X157700000Y-82640000D01*
X157800000Y-86037500D02*
X157800000Y-83591150D01*
X157800000Y-83591150D02*
X157700000Y-83491150D01*
%TO.N,Net-(U3-PG)*%
X158712500Y-82652500D02*
X158700000Y-82640000D01*
X158712500Y-84250000D02*
X158712500Y-82652500D01*
D35*
%TO.N,Net-(U3-VOS)*%
X155562500Y-86150000D02*
X154162500Y-86150000D01*
X156887500Y-84062500D02*
X157111000Y-83839000D01*
X156887500Y-84250000D02*
X156887500Y-82846100D01*
X156887500Y-84250000D02*
X156887500Y-84825000D01*
X156887500Y-82846100D02*
X157093600Y-82640000D01*
X156887500Y-84825000D02*
X155562500Y-86150000D01*
X154162500Y-86150000D02*
X154112500Y-86200000D01*
X156953600Y-82500000D02*
X157093600Y-82640000D01*
X155400000Y-82500000D02*
X156953600Y-82500000D01*
X156887500Y-84250000D02*
X156887500Y-84062500D01*
%TD*%
%TA.AperFunction,Conductor*%
%TO.N,GND*%
G36*
X135195817Y-88219685D02*
G01*
X135235887Y-88261520D01*
X135282609Y-88341615D01*
X135299500Y-88404095D01*
X135299500Y-89178201D01*
X135302401Y-89215067D01*
X135302402Y-89215073D01*
X135348254Y-89372893D01*
X135348255Y-89372896D01*
X135431917Y-89514362D01*
X135431923Y-89514370D01*
X135548129Y-89630576D01*
X135548133Y-89630579D01*
X135548135Y-89630581D01*
X135689602Y-89714244D01*
X135691867Y-89714902D01*
X135847426Y-89760097D01*
X135847429Y-89760097D01*
X135847431Y-89760098D01*
X135884306Y-89763000D01*
X135884314Y-89763000D01*
X136282105Y-89763000D01*
X136349144Y-89782685D01*
X136394899Y-89835489D01*
X136404843Y-89904647D01*
X136384328Y-89952996D01*
X136385890Y-89953920D01*
X136298255Y-90102103D01*
X136298254Y-90102106D01*
X136252402Y-90259926D01*
X136252401Y-90259932D01*
X136249500Y-90296798D01*
X136249500Y-91453201D01*
X136252401Y-91490067D01*
X136252402Y-91490073D01*
X136281117Y-91588908D01*
X136280918Y-91658777D01*
X136242976Y-91717447D01*
X136227139Y-91729041D01*
X136181344Y-91757287D01*
X136057289Y-91881342D01*
X135965187Y-92030663D01*
X135965185Y-92030668D01*
X135937349Y-92114670D01*
X135910001Y-92197203D01*
X135910001Y-92197204D01*
X135910000Y-92197204D01*
X135899500Y-92299983D01*
X135899500Y-93300001D01*
X135899501Y-93300019D01*
X135910000Y-93402795D01*
X135912599Y-93410637D01*
X135918526Y-93459145D01*
X135908807Y-93585509D01*
X135884039Y-93650842D01*
X135827882Y-93692412D01*
X135785172Y-93700000D01*
X133621334Y-93700000D01*
X133554295Y-93680315D01*
X133508540Y-93627511D01*
X133497363Y-93578695D01*
X133469565Y-92299983D01*
X133400729Y-89133563D01*
X133416305Y-89070651D01*
X133864568Y-88263780D01*
X133914332Y-88214737D01*
X133972963Y-88200000D01*
X135128778Y-88200000D01*
X135195817Y-88219685D01*
G37*
%TD.AperFunction*%
%TD*%
M02*
