%TF.GenerationSoftware,KiCad,Pcbnew,8.0.3*%
%TF.CreationDate,2024-10-23T15:01:46-04:00*%
%TF.ProjectId,SensorBoardNoMCU,53656e73-6f72-4426-9f61-72644e6f4d43,rev?*%
%TF.SameCoordinates,Original*%
%TF.FileFunction,Legend,Top*%
%TF.FilePolarity,Positive*%
%FSLAX46Y46*%
G04 Gerber Fmt 4.6, Leading zero omitted, Abs format (unit mm)*
G04 Created by KiCad (PCBNEW 8.0.3) date 2024-10-23 15:01:46*
%MOMM*%
%LPD*%
G01*
G04 APERTURE LIST*
%ADD10C,0.153000*%
%ADD11C,0.095425*%
%ADD12C,0.146400*%
%ADD13C,0.250000*%
%ADD14C,0.225000*%
%ADD15C,0.112500*%
%ADD16C,0.120000*%
%ADD17C,0.127000*%
%ADD18C,0.200000*%
%ADD19C,0.160000*%
G04 APERTURE END LIST*
D10*
X90356044Y-87246962D02*
X90394139Y-87132676D01*
X90394139Y-87132676D02*
X90394139Y-86942200D01*
X90394139Y-86942200D02*
X90356044Y-86866009D01*
X90356044Y-86866009D02*
X90317948Y-86827914D01*
X90317948Y-86827914D02*
X90241758Y-86789819D01*
X90241758Y-86789819D02*
X90165567Y-86789819D01*
X90165567Y-86789819D02*
X90089377Y-86827914D01*
X90089377Y-86827914D02*
X90051282Y-86866009D01*
X90051282Y-86866009D02*
X90013186Y-86942200D01*
X90013186Y-86942200D02*
X89975091Y-87094581D01*
X89975091Y-87094581D02*
X89936996Y-87170771D01*
X89936996Y-87170771D02*
X89898901Y-87208866D01*
X89898901Y-87208866D02*
X89822710Y-87246962D01*
X89822710Y-87246962D02*
X89746520Y-87246962D01*
X89746520Y-87246962D02*
X89670329Y-87208866D01*
X89670329Y-87208866D02*
X89632234Y-87170771D01*
X89632234Y-87170771D02*
X89594139Y-87094581D01*
X89594139Y-87094581D02*
X89594139Y-86904104D01*
X89594139Y-86904104D02*
X89632234Y-86789819D01*
X90394139Y-86446961D02*
X89594139Y-86446961D01*
X89594139Y-86446961D02*
X89594139Y-86256485D01*
X89594139Y-86256485D02*
X89632234Y-86142199D01*
X89632234Y-86142199D02*
X89708424Y-86066009D01*
X89708424Y-86066009D02*
X89784615Y-86027914D01*
X89784615Y-86027914D02*
X89936996Y-85989818D01*
X89936996Y-85989818D02*
X90051282Y-85989818D01*
X90051282Y-85989818D02*
X90203663Y-86027914D01*
X90203663Y-86027914D02*
X90279853Y-86066009D01*
X90279853Y-86066009D02*
X90356044Y-86142199D01*
X90356044Y-86142199D02*
X90394139Y-86256485D01*
X90394139Y-86256485D02*
X90394139Y-86446961D01*
X90165567Y-85685057D02*
X90165567Y-85304104D01*
X90394139Y-85761247D02*
X89594139Y-85494580D01*
X89594139Y-85494580D02*
X90394139Y-85227914D01*
D11*
X96744540Y-95610792D02*
X97326179Y-95610792D01*
X97035359Y-95901611D02*
X97035359Y-95319973D01*
D12*
X95196029Y-74389636D02*
X94796219Y-74389636D01*
X94796219Y-74389636D02*
X94796219Y-73550036D01*
X95475895Y-74389636D02*
X95475895Y-73550036D01*
X95835724Y-74349656D02*
X95955667Y-74389636D01*
X95955667Y-74389636D02*
X96155572Y-74389636D01*
X96155572Y-74389636D02*
X96235534Y-74349656D01*
X96235534Y-74349656D02*
X96275515Y-74309675D01*
X96275515Y-74309675D02*
X96315496Y-74229713D01*
X96315496Y-74229713D02*
X96315496Y-74149751D01*
X96315496Y-74149751D02*
X96275515Y-74069789D01*
X96275515Y-74069789D02*
X96235534Y-74029808D01*
X96235534Y-74029808D02*
X96155572Y-73989827D01*
X96155572Y-73989827D02*
X95995648Y-73949846D01*
X95995648Y-73949846D02*
X95915686Y-73909865D01*
X95915686Y-73909865D02*
X95875705Y-73869884D01*
X95875705Y-73869884D02*
X95835724Y-73789922D01*
X95835724Y-73789922D02*
X95835724Y-73709960D01*
X95835724Y-73709960D02*
X95875705Y-73629998D01*
X95875705Y-73629998D02*
X95915686Y-73590017D01*
X95915686Y-73590017D02*
X95995648Y-73550036D01*
X95995648Y-73550036D02*
X96195553Y-73550036D01*
X96195553Y-73550036D02*
X96315496Y-73590017D01*
X96595362Y-73550036D02*
X97115115Y-73550036D01*
X97115115Y-73550036D02*
X96835248Y-73869884D01*
X96835248Y-73869884D02*
X96955191Y-73869884D01*
X96955191Y-73869884D02*
X97035153Y-73909865D01*
X97035153Y-73909865D02*
X97075134Y-73949846D01*
X97075134Y-73949846D02*
X97115115Y-74029808D01*
X97115115Y-74029808D02*
X97115115Y-74229713D01*
X97115115Y-74229713D02*
X97075134Y-74309675D01*
X97075134Y-74309675D02*
X97035153Y-74349656D01*
X97035153Y-74349656D02*
X96955191Y-74389636D01*
X96955191Y-74389636D02*
X96715305Y-74389636D01*
X96715305Y-74389636D02*
X96635343Y-74349656D01*
X96635343Y-74349656D02*
X96595362Y-74309675D01*
X97474943Y-74389636D02*
X97474943Y-73550036D01*
X97474943Y-73550036D02*
X97754810Y-74149751D01*
X97754810Y-74149751D02*
X98034677Y-73550036D01*
X98034677Y-73550036D02*
X98034677Y-74389636D01*
X98434486Y-74389636D02*
X98434486Y-73550036D01*
X98434486Y-73550036D02*
X98634391Y-73550036D01*
X98634391Y-73550036D02*
X98754334Y-73590017D01*
X98754334Y-73590017D02*
X98834296Y-73669979D01*
X98834296Y-73669979D02*
X98874277Y-73749941D01*
X98874277Y-73749941D02*
X98914258Y-73909865D01*
X98914258Y-73909865D02*
X98914258Y-74029808D01*
X98914258Y-74029808D02*
X98874277Y-74189732D01*
X98874277Y-74189732D02*
X98834296Y-74269694D01*
X98834296Y-74269694D02*
X98754334Y-74349656D01*
X98754334Y-74349656D02*
X98634391Y-74389636D01*
X98634391Y-74389636D02*
X98434486Y-74389636D01*
X99673896Y-74389636D02*
X99274086Y-74389636D01*
X99274086Y-74389636D02*
X99274086Y-73550036D01*
X102546219Y-92889636D02*
X102546219Y-92050036D01*
X102546219Y-92050036D02*
X102746124Y-92050036D01*
X102746124Y-92050036D02*
X102866067Y-92090017D01*
X102866067Y-92090017D02*
X102946029Y-92169979D01*
X102946029Y-92169979D02*
X102986010Y-92249941D01*
X102986010Y-92249941D02*
X103025991Y-92409865D01*
X103025991Y-92409865D02*
X103025991Y-92529808D01*
X103025991Y-92529808D02*
X102986010Y-92689732D01*
X102986010Y-92689732D02*
X102946029Y-92769694D01*
X102946029Y-92769694D02*
X102866067Y-92849656D01*
X102866067Y-92849656D02*
X102746124Y-92889636D01*
X102746124Y-92889636D02*
X102546219Y-92889636D01*
X103385819Y-92889636D02*
X103385819Y-92050036D01*
X103385819Y-92050036D02*
X103705667Y-92050036D01*
X103705667Y-92050036D02*
X103785629Y-92090017D01*
X103785629Y-92090017D02*
X103825610Y-92129998D01*
X103825610Y-92129998D02*
X103865591Y-92209960D01*
X103865591Y-92209960D02*
X103865591Y-92329903D01*
X103865591Y-92329903D02*
X103825610Y-92409865D01*
X103825610Y-92409865D02*
X103785629Y-92449846D01*
X103785629Y-92449846D02*
X103705667Y-92489827D01*
X103705667Y-92489827D02*
X103385819Y-92489827D01*
X104185438Y-92849656D02*
X104305381Y-92889636D01*
X104305381Y-92889636D02*
X104505286Y-92889636D01*
X104505286Y-92889636D02*
X104585248Y-92849656D01*
X104585248Y-92849656D02*
X104625229Y-92809675D01*
X104625229Y-92809675D02*
X104665210Y-92729713D01*
X104665210Y-92729713D02*
X104665210Y-92649751D01*
X104665210Y-92649751D02*
X104625229Y-92569789D01*
X104625229Y-92569789D02*
X104585248Y-92529808D01*
X104585248Y-92529808D02*
X104505286Y-92489827D01*
X104505286Y-92489827D02*
X104345362Y-92449846D01*
X104345362Y-92449846D02*
X104265400Y-92409865D01*
X104265400Y-92409865D02*
X104225419Y-92369884D01*
X104225419Y-92369884D02*
X104185438Y-92289922D01*
X104185438Y-92289922D02*
X104185438Y-92209960D01*
X104185438Y-92209960D02*
X104225419Y-92129998D01*
X104225419Y-92129998D02*
X104265400Y-92090017D01*
X104265400Y-92090017D02*
X104345362Y-92050036D01*
X104345362Y-92050036D02*
X104545267Y-92050036D01*
X104545267Y-92050036D02*
X104665210Y-92090017D01*
X104945076Y-92050036D02*
X105464829Y-92050036D01*
X105464829Y-92050036D02*
X105184962Y-92369884D01*
X105184962Y-92369884D02*
X105304905Y-92369884D01*
X105304905Y-92369884D02*
X105384867Y-92409865D01*
X105384867Y-92409865D02*
X105424848Y-92449846D01*
X105424848Y-92449846D02*
X105464829Y-92529808D01*
X105464829Y-92529808D02*
X105464829Y-92729713D01*
X105464829Y-92729713D02*
X105424848Y-92809675D01*
X105424848Y-92809675D02*
X105384867Y-92849656D01*
X105384867Y-92849656D02*
X105304905Y-92889636D01*
X105304905Y-92889636D02*
X105065019Y-92889636D01*
X105065019Y-92889636D02*
X104985057Y-92849656D01*
X104985057Y-92849656D02*
X104945076Y-92809675D01*
X106184486Y-92050036D02*
X106024562Y-92050036D01*
X106024562Y-92050036D02*
X105944600Y-92090017D01*
X105944600Y-92090017D02*
X105904619Y-92129998D01*
X105904619Y-92129998D02*
X105824657Y-92249941D01*
X105824657Y-92249941D02*
X105784676Y-92409865D01*
X105784676Y-92409865D02*
X105784676Y-92729713D01*
X105784676Y-92729713D02*
X105824657Y-92809675D01*
X105824657Y-92809675D02*
X105864638Y-92849656D01*
X105864638Y-92849656D02*
X105944600Y-92889636D01*
X105944600Y-92889636D02*
X106104524Y-92889636D01*
X106104524Y-92889636D02*
X106184486Y-92849656D01*
X106184486Y-92849656D02*
X106224467Y-92809675D01*
X106224467Y-92809675D02*
X106264448Y-92729713D01*
X106264448Y-92729713D02*
X106264448Y-92529808D01*
X106264448Y-92529808D02*
X106224467Y-92449846D01*
X106224467Y-92449846D02*
X106184486Y-92409865D01*
X106184486Y-92409865D02*
X106104524Y-92369884D01*
X106104524Y-92369884D02*
X105944600Y-92369884D01*
X105944600Y-92369884D02*
X105864638Y-92409865D01*
X105864638Y-92409865D02*
X105824657Y-92449846D01*
X105824657Y-92449846D02*
X105784676Y-92529808D01*
X106744219Y-92409865D02*
X106664257Y-92369884D01*
X106664257Y-92369884D02*
X106624276Y-92329903D01*
X106624276Y-92329903D02*
X106584295Y-92249941D01*
X106584295Y-92249941D02*
X106584295Y-92209960D01*
X106584295Y-92209960D02*
X106624276Y-92129998D01*
X106624276Y-92129998D02*
X106664257Y-92090017D01*
X106664257Y-92090017D02*
X106744219Y-92050036D01*
X106744219Y-92050036D02*
X106904143Y-92050036D01*
X106904143Y-92050036D02*
X106984105Y-92090017D01*
X106984105Y-92090017D02*
X107024086Y-92129998D01*
X107024086Y-92129998D02*
X107064067Y-92209960D01*
X107064067Y-92209960D02*
X107064067Y-92249941D01*
X107064067Y-92249941D02*
X107024086Y-92329903D01*
X107024086Y-92329903D02*
X106984105Y-92369884D01*
X106984105Y-92369884D02*
X106904143Y-92409865D01*
X106904143Y-92409865D02*
X106744219Y-92409865D01*
X106744219Y-92409865D02*
X106664257Y-92449846D01*
X106664257Y-92449846D02*
X106624276Y-92489827D01*
X106624276Y-92489827D02*
X106584295Y-92569789D01*
X106584295Y-92569789D02*
X106584295Y-92729713D01*
X106584295Y-92729713D02*
X106624276Y-92809675D01*
X106624276Y-92809675D02*
X106664257Y-92849656D01*
X106664257Y-92849656D02*
X106744219Y-92889636D01*
X106744219Y-92889636D02*
X106904143Y-92889636D01*
X106904143Y-92889636D02*
X106984105Y-92849656D01*
X106984105Y-92849656D02*
X107024086Y-92809675D01*
X107024086Y-92809675D02*
X107064067Y-92729713D01*
X107064067Y-92729713D02*
X107064067Y-92569789D01*
X107064067Y-92569789D02*
X107024086Y-92489827D01*
X107024086Y-92489827D02*
X106984105Y-92449846D01*
X106984105Y-92449846D02*
X106904143Y-92409865D01*
D10*
X90356044Y-89746962D02*
X90394139Y-89632676D01*
X90394139Y-89632676D02*
X90394139Y-89442200D01*
X90394139Y-89442200D02*
X90356044Y-89366009D01*
X90356044Y-89366009D02*
X90317948Y-89327914D01*
X90317948Y-89327914D02*
X90241758Y-89289819D01*
X90241758Y-89289819D02*
X90165567Y-89289819D01*
X90165567Y-89289819D02*
X90089377Y-89327914D01*
X90089377Y-89327914D02*
X90051282Y-89366009D01*
X90051282Y-89366009D02*
X90013186Y-89442200D01*
X90013186Y-89442200D02*
X89975091Y-89594581D01*
X89975091Y-89594581D02*
X89936996Y-89670771D01*
X89936996Y-89670771D02*
X89898901Y-89708866D01*
X89898901Y-89708866D02*
X89822710Y-89746962D01*
X89822710Y-89746962D02*
X89746520Y-89746962D01*
X89746520Y-89746962D02*
X89670329Y-89708866D01*
X89670329Y-89708866D02*
X89632234Y-89670771D01*
X89632234Y-89670771D02*
X89594139Y-89594581D01*
X89594139Y-89594581D02*
X89594139Y-89404104D01*
X89594139Y-89404104D02*
X89632234Y-89289819D01*
X90317948Y-88489818D02*
X90356044Y-88527914D01*
X90356044Y-88527914D02*
X90394139Y-88642199D01*
X90394139Y-88642199D02*
X90394139Y-88718390D01*
X90394139Y-88718390D02*
X90356044Y-88832676D01*
X90356044Y-88832676D02*
X90279853Y-88908866D01*
X90279853Y-88908866D02*
X90203663Y-88946961D01*
X90203663Y-88946961D02*
X90051282Y-88985057D01*
X90051282Y-88985057D02*
X89936996Y-88985057D01*
X89936996Y-88985057D02*
X89784615Y-88946961D01*
X89784615Y-88946961D02*
X89708424Y-88908866D01*
X89708424Y-88908866D02*
X89632234Y-88832676D01*
X89632234Y-88832676D02*
X89594139Y-88718390D01*
X89594139Y-88718390D02*
X89594139Y-88642199D01*
X89594139Y-88642199D02*
X89632234Y-88527914D01*
X89632234Y-88527914D02*
X89670329Y-88489818D01*
X90394139Y-87766009D02*
X90394139Y-88146961D01*
X90394139Y-88146961D02*
X89594139Y-88146961D01*
X89594139Y-84535057D02*
X89594139Y-84039819D01*
X89594139Y-84039819D02*
X89898901Y-84306485D01*
X89898901Y-84306485D02*
X89898901Y-84192200D01*
X89898901Y-84192200D02*
X89936996Y-84116009D01*
X89936996Y-84116009D02*
X89975091Y-84077914D01*
X89975091Y-84077914D02*
X90051282Y-84039819D01*
X90051282Y-84039819D02*
X90241758Y-84039819D01*
X90241758Y-84039819D02*
X90317948Y-84077914D01*
X90317948Y-84077914D02*
X90356044Y-84116009D01*
X90356044Y-84116009D02*
X90394139Y-84192200D01*
X90394139Y-84192200D02*
X90394139Y-84420771D01*
X90394139Y-84420771D02*
X90356044Y-84496962D01*
X90356044Y-84496962D02*
X90317948Y-84535057D01*
X89860805Y-83773152D02*
X90394139Y-83582676D01*
X90394139Y-83582676D02*
X89860805Y-83392199D01*
X89594139Y-83163628D02*
X89594139Y-82668390D01*
X89594139Y-82668390D02*
X89898901Y-82935056D01*
X89898901Y-82935056D02*
X89898901Y-82820771D01*
X89898901Y-82820771D02*
X89936996Y-82744580D01*
X89936996Y-82744580D02*
X89975091Y-82706485D01*
X89975091Y-82706485D02*
X90051282Y-82668390D01*
X90051282Y-82668390D02*
X90241758Y-82668390D01*
X90241758Y-82668390D02*
X90317948Y-82706485D01*
X90317948Y-82706485D02*
X90356044Y-82744580D01*
X90356044Y-82744580D02*
X90394139Y-82820771D01*
X90394139Y-82820771D02*
X90394139Y-83049342D01*
X90394139Y-83049342D02*
X90356044Y-83125533D01*
X90356044Y-83125533D02*
X90317948Y-83163628D01*
D13*
G36*
X97732627Y-99581231D02*
G01*
X97781438Y-99590676D01*
X97796241Y-99595941D01*
X97839568Y-99622184D01*
X97847765Y-99630186D01*
X97873762Y-99672009D01*
X97878784Y-99686954D01*
X97885241Y-99736734D01*
X97884294Y-99758018D01*
X97873273Y-99807320D01*
X97867500Y-99820684D01*
X97838102Y-99861542D01*
X97825951Y-99872120D01*
X97781438Y-99895980D01*
X97754716Y-99903273D01*
X97703769Y-99907948D01*
X97609735Y-99907948D01*
X97609735Y-99579685D01*
X97698395Y-99579685D01*
X97732627Y-99581231D01*
G37*
G36*
X99241519Y-99580383D02*
G01*
X99293519Y-99587750D01*
X99341905Y-99608262D01*
X99346992Y-99611947D01*
X99375874Y-99651805D01*
X99383915Y-99701807D01*
X99383720Y-99709455D01*
X99371459Y-99757006D01*
X99369891Y-99759968D01*
X99336532Y-99797306D01*
X99327688Y-99803076D01*
X99281822Y-99821730D01*
X99261237Y-99825981D01*
X99210747Y-99829790D01*
X99142115Y-99829790D01*
X99142115Y-99579685D01*
X99216364Y-99579685D01*
X99241519Y-99580383D01*
G37*
G36*
X99749250Y-100455000D02*
G01*
X97314498Y-100455000D01*
X97314498Y-99907948D01*
X97439498Y-99907948D01*
X97439498Y-100330000D01*
X97609735Y-100330000D01*
X97609735Y-100048632D01*
X97695709Y-100048632D01*
X97701350Y-100048608D01*
X97755408Y-100045803D01*
X97805173Y-100038323D01*
X97854955Y-100024696D01*
X97883990Y-100013206D01*
X97928652Y-99989266D01*
X97969749Y-99957285D01*
X97986253Y-99940424D01*
X98016472Y-99900061D01*
X98039114Y-99854459D01*
X98049372Y-99824112D01*
X98059264Y-99776072D01*
X98062561Y-99725010D01*
X98061983Y-99703868D01*
X98055065Y-99652470D01*
X98038870Y-99602889D01*
X98032603Y-99589841D01*
X98005262Y-99548320D01*
X97969505Y-99513251D01*
X97948494Y-99498171D01*
X97904017Y-99474631D01*
X97856665Y-99458053D01*
X97852462Y-99456880D01*
X97803622Y-99446443D01*
X97755064Y-99440862D01*
X97702547Y-99439002D01*
X98138277Y-99439002D01*
X98188346Y-100330000D01*
X98378612Y-100330000D01*
X98465806Y-100044480D01*
X98496825Y-99924312D01*
X98529065Y-100041549D01*
X98617725Y-100330000D01*
X98816295Y-100330000D01*
X98844815Y-99829790D01*
X98973099Y-99829790D01*
X98973099Y-100330000D01*
X99142115Y-100330000D01*
X99142115Y-99954842D01*
X99174355Y-99954842D01*
X99202748Y-99957353D01*
X99249582Y-99976092D01*
X99273240Y-99996544D01*
X99299407Y-100038618D01*
X99425681Y-100330000D01*
X99624250Y-100330000D01*
X99480635Y-100026161D01*
X99478925Y-100022556D01*
X99454936Y-99977997D01*
X99425681Y-99938722D01*
X99409849Y-99924033D01*
X99365353Y-99902819D01*
X99396333Y-99896281D01*
X99443999Y-99879127D01*
X99467638Y-99866300D01*
X99506037Y-99834919D01*
X99522618Y-99814872D01*
X99546581Y-99769706D01*
X99556924Y-99731800D01*
X99560991Y-99683000D01*
X99560632Y-99666472D01*
X99554512Y-99617235D01*
X99538032Y-99568939D01*
X99510128Y-99526502D01*
X99472331Y-99492979D01*
X99464204Y-99487676D01*
X99418802Y-99465536D01*
X99369261Y-99451458D01*
X99334225Y-99445437D01*
X99284084Y-99440473D01*
X99234683Y-99439002D01*
X98973099Y-99439002D01*
X98973099Y-99829790D01*
X98844815Y-99829790D01*
X98867097Y-99439002D01*
X98723482Y-99439002D01*
X98700768Y-100024696D01*
X98698081Y-100163426D01*
X98664376Y-100055471D01*
X98560084Y-99704738D01*
X98453594Y-99704738D01*
X98354676Y-100030558D01*
X98314131Y-100164891D01*
X98308514Y-100009064D01*
X98287265Y-99439002D01*
X98138277Y-99439002D01*
X97702547Y-99439002D01*
X97439498Y-99439002D01*
X97439498Y-99907948D01*
X97314498Y-99907948D01*
X97314498Y-99314002D01*
X99749250Y-99314002D01*
X99749250Y-100455000D01*
G37*
D12*
X106110363Y-81546219D02*
X106949963Y-81546219D01*
X106949963Y-81546219D02*
X106350248Y-81826086D01*
X106350248Y-81826086D02*
X106949963Y-82105953D01*
X106949963Y-82105953D02*
X106110363Y-82105953D01*
X106150344Y-82465781D02*
X106110363Y-82585724D01*
X106110363Y-82585724D02*
X106110363Y-82785629D01*
X106110363Y-82785629D02*
X106150344Y-82865591D01*
X106150344Y-82865591D02*
X106190324Y-82905572D01*
X106190324Y-82905572D02*
X106270286Y-82945553D01*
X106270286Y-82945553D02*
X106350248Y-82945553D01*
X106350248Y-82945553D02*
X106430210Y-82905572D01*
X106430210Y-82905572D02*
X106470191Y-82865591D01*
X106470191Y-82865591D02*
X106510172Y-82785629D01*
X106510172Y-82785629D02*
X106550153Y-82625705D01*
X106550153Y-82625705D02*
X106590134Y-82545743D01*
X106590134Y-82545743D02*
X106630115Y-82505762D01*
X106630115Y-82505762D02*
X106710077Y-82465781D01*
X106710077Y-82465781D02*
X106790039Y-82465781D01*
X106790039Y-82465781D02*
X106870001Y-82505762D01*
X106870001Y-82505762D02*
X106909982Y-82545743D01*
X106909982Y-82545743D02*
X106949963Y-82625705D01*
X106949963Y-82625705D02*
X106949963Y-82825610D01*
X106949963Y-82825610D02*
X106909982Y-82945553D01*
X106949963Y-83705191D02*
X106949963Y-83305381D01*
X106949963Y-83305381D02*
X106550153Y-83265400D01*
X106550153Y-83265400D02*
X106590134Y-83305381D01*
X106590134Y-83305381D02*
X106630115Y-83385343D01*
X106630115Y-83385343D02*
X106630115Y-83585248D01*
X106630115Y-83585248D02*
X106590134Y-83665210D01*
X106590134Y-83665210D02*
X106550153Y-83705191D01*
X106550153Y-83705191D02*
X106470191Y-83745172D01*
X106470191Y-83745172D02*
X106270286Y-83745172D01*
X106270286Y-83745172D02*
X106190324Y-83705191D01*
X106190324Y-83705191D02*
X106150344Y-83665210D01*
X106150344Y-83665210D02*
X106110363Y-83585248D01*
X106110363Y-83585248D02*
X106110363Y-83385343D01*
X106110363Y-83385343D02*
X106150344Y-83305381D01*
X106150344Y-83305381D02*
X106190324Y-83265400D01*
X106949963Y-84464829D02*
X106949963Y-84304905D01*
X106949963Y-84304905D02*
X106909982Y-84224943D01*
X106909982Y-84224943D02*
X106870001Y-84184962D01*
X106870001Y-84184962D02*
X106750058Y-84105000D01*
X106750058Y-84105000D02*
X106590134Y-84065019D01*
X106590134Y-84065019D02*
X106270286Y-84065019D01*
X106270286Y-84065019D02*
X106190324Y-84105000D01*
X106190324Y-84105000D02*
X106150344Y-84144981D01*
X106150344Y-84144981D02*
X106110363Y-84224943D01*
X106110363Y-84224943D02*
X106110363Y-84384867D01*
X106110363Y-84384867D02*
X106150344Y-84464829D01*
X106150344Y-84464829D02*
X106190324Y-84504810D01*
X106190324Y-84504810D02*
X106270286Y-84544791D01*
X106270286Y-84544791D02*
X106470191Y-84544791D01*
X106470191Y-84544791D02*
X106550153Y-84504810D01*
X106550153Y-84504810D02*
X106590134Y-84464829D01*
X106590134Y-84464829D02*
X106630115Y-84384867D01*
X106630115Y-84384867D02*
X106630115Y-84224943D01*
X106630115Y-84224943D02*
X106590134Y-84144981D01*
X106590134Y-84144981D02*
X106550153Y-84105000D01*
X106550153Y-84105000D02*
X106470191Y-84065019D01*
X106110363Y-85344410D02*
X106110363Y-84864638D01*
X106110363Y-85104524D02*
X106949963Y-85104524D01*
X106949963Y-85104524D02*
X106830020Y-85024562D01*
X106830020Y-85024562D02*
X106750058Y-84944600D01*
X106750058Y-84944600D02*
X106710077Y-84864638D01*
X106110363Y-86144029D02*
X106110363Y-85664257D01*
X106110363Y-85904143D02*
X106949963Y-85904143D01*
X106949963Y-85904143D02*
X106830020Y-85824181D01*
X106830020Y-85824181D02*
X106750058Y-85744219D01*
X106750058Y-85744219D02*
X106710077Y-85664257D01*
X91546219Y-57889636D02*
X91546219Y-57050036D01*
X91546219Y-57050036D02*
X91826086Y-57649751D01*
X91826086Y-57649751D02*
X92105953Y-57050036D01*
X92105953Y-57050036D02*
X92105953Y-57889636D01*
X92465781Y-57649751D02*
X92865591Y-57649751D01*
X92385819Y-57889636D02*
X92665686Y-57050036D01*
X92665686Y-57050036D02*
X92945553Y-57889636D01*
X93145457Y-57050036D02*
X93705191Y-57889636D01*
X93705191Y-57050036D02*
X93145457Y-57889636D01*
X94025038Y-57569789D02*
X94664734Y-57569789D01*
X95064543Y-57889636D02*
X95064543Y-57050036D01*
X95064543Y-57050036D02*
X95344410Y-57649751D01*
X95344410Y-57649751D02*
X95624277Y-57050036D01*
X95624277Y-57050036D02*
X95624277Y-57889636D01*
X96463877Y-57889636D02*
X95984105Y-57889636D01*
X96223991Y-57889636D02*
X96223991Y-57050036D01*
X96223991Y-57050036D02*
X96144029Y-57169979D01*
X96144029Y-57169979D02*
X96064067Y-57249941D01*
X96064067Y-57249941D02*
X95984105Y-57289922D01*
X96983629Y-57050036D02*
X97063591Y-57050036D01*
X97063591Y-57050036D02*
X97143553Y-57090017D01*
X97143553Y-57090017D02*
X97183534Y-57129998D01*
X97183534Y-57129998D02*
X97223515Y-57209960D01*
X97223515Y-57209960D02*
X97263496Y-57369884D01*
X97263496Y-57369884D02*
X97263496Y-57569789D01*
X97263496Y-57569789D02*
X97223515Y-57729713D01*
X97223515Y-57729713D02*
X97183534Y-57809675D01*
X97183534Y-57809675D02*
X97143553Y-57849656D01*
X97143553Y-57849656D02*
X97063591Y-57889636D01*
X97063591Y-57889636D02*
X96983629Y-57889636D01*
X96983629Y-57889636D02*
X96903667Y-57849656D01*
X96903667Y-57849656D02*
X96863686Y-57809675D01*
X96863686Y-57809675D02*
X96823705Y-57729713D01*
X96823705Y-57729713D02*
X96783724Y-57569789D01*
X96783724Y-57569789D02*
X96783724Y-57369884D01*
X96783724Y-57369884D02*
X96823705Y-57209960D01*
X96823705Y-57209960D02*
X96863686Y-57129998D01*
X96863686Y-57129998D02*
X96903667Y-57090017D01*
X96903667Y-57090017D02*
X96983629Y-57050036D01*
X97583343Y-57849656D02*
X97703286Y-57889636D01*
X97703286Y-57889636D02*
X97903191Y-57889636D01*
X97903191Y-57889636D02*
X97983153Y-57849656D01*
X97983153Y-57849656D02*
X98023134Y-57809675D01*
X98023134Y-57809675D02*
X98063115Y-57729713D01*
X98063115Y-57729713D02*
X98063115Y-57649751D01*
X98063115Y-57649751D02*
X98023134Y-57569789D01*
X98023134Y-57569789D02*
X97983153Y-57529808D01*
X97983153Y-57529808D02*
X97903191Y-57489827D01*
X97903191Y-57489827D02*
X97743267Y-57449846D01*
X97743267Y-57449846D02*
X97663305Y-57409865D01*
X97663305Y-57409865D02*
X97623324Y-57369884D01*
X97623324Y-57369884D02*
X97583343Y-57289922D01*
X97583343Y-57289922D02*
X97583343Y-57209960D01*
X97583343Y-57209960D02*
X97623324Y-57129998D01*
X97623324Y-57129998D02*
X97663305Y-57090017D01*
X97663305Y-57090017D02*
X97743267Y-57050036D01*
X97743267Y-57050036D02*
X97943172Y-57050036D01*
X97943172Y-57050036D02*
X98063115Y-57090017D01*
X100826086Y-75699846D02*
X100946029Y-75739827D01*
X100946029Y-75739827D02*
X100986010Y-75779808D01*
X100986010Y-75779808D02*
X101025991Y-75859770D01*
X101025991Y-75859770D02*
X101025991Y-75979713D01*
X101025991Y-75979713D02*
X100986010Y-76059675D01*
X100986010Y-76059675D02*
X100946029Y-76099656D01*
X100946029Y-76099656D02*
X100866067Y-76139636D01*
X100866067Y-76139636D02*
X100546219Y-76139636D01*
X100546219Y-76139636D02*
X100546219Y-75300036D01*
X100546219Y-75300036D02*
X100826086Y-75300036D01*
X100826086Y-75300036D02*
X100906048Y-75340017D01*
X100906048Y-75340017D02*
X100946029Y-75379998D01*
X100946029Y-75379998D02*
X100986010Y-75459960D01*
X100986010Y-75459960D02*
X100986010Y-75539922D01*
X100986010Y-75539922D02*
X100946029Y-75619884D01*
X100946029Y-75619884D02*
X100906048Y-75659865D01*
X100906048Y-75659865D02*
X100826086Y-75699846D01*
X100826086Y-75699846D02*
X100546219Y-75699846D01*
X101385819Y-76139636D02*
X101385819Y-75300036D01*
X101385819Y-75300036D02*
X101665686Y-75899751D01*
X101665686Y-75899751D02*
X101945553Y-75300036D01*
X101945553Y-75300036D02*
X101945553Y-76139636D01*
X102345362Y-76139636D02*
X102345362Y-75300036D01*
X102905096Y-75300036D02*
X102985058Y-75300036D01*
X102985058Y-75300036D02*
X103065020Y-75340017D01*
X103065020Y-75340017D02*
X103105001Y-75379998D01*
X103105001Y-75379998D02*
X103144982Y-75459960D01*
X103144982Y-75459960D02*
X103184963Y-75619884D01*
X103184963Y-75619884D02*
X103184963Y-75819789D01*
X103184963Y-75819789D02*
X103144982Y-75979713D01*
X103144982Y-75979713D02*
X103105001Y-76059675D01*
X103105001Y-76059675D02*
X103065020Y-76099656D01*
X103065020Y-76099656D02*
X102985058Y-76139636D01*
X102985058Y-76139636D02*
X102905096Y-76139636D01*
X102905096Y-76139636D02*
X102825134Y-76099656D01*
X102825134Y-76099656D02*
X102785153Y-76059675D01*
X102785153Y-76059675D02*
X102745172Y-75979713D01*
X102745172Y-75979713D02*
X102705191Y-75819789D01*
X102705191Y-75819789D02*
X102705191Y-75619884D01*
X102705191Y-75619884D02*
X102745172Y-75459960D01*
X102745172Y-75459960D02*
X102785153Y-75379998D01*
X102785153Y-75379998D02*
X102825134Y-75340017D01*
X102825134Y-75340017D02*
X102905096Y-75300036D01*
X103664734Y-75659865D02*
X103584772Y-75619884D01*
X103584772Y-75619884D02*
X103544791Y-75579903D01*
X103544791Y-75579903D02*
X103504810Y-75499941D01*
X103504810Y-75499941D02*
X103504810Y-75459960D01*
X103504810Y-75459960D02*
X103544791Y-75379998D01*
X103544791Y-75379998D02*
X103584772Y-75340017D01*
X103584772Y-75340017D02*
X103664734Y-75300036D01*
X103664734Y-75300036D02*
X103824658Y-75300036D01*
X103824658Y-75300036D02*
X103904620Y-75340017D01*
X103904620Y-75340017D02*
X103944601Y-75379998D01*
X103944601Y-75379998D02*
X103984582Y-75459960D01*
X103984582Y-75459960D02*
X103984582Y-75499941D01*
X103984582Y-75499941D02*
X103944601Y-75579903D01*
X103944601Y-75579903D02*
X103904620Y-75619884D01*
X103904620Y-75619884D02*
X103824658Y-75659865D01*
X103824658Y-75659865D02*
X103664734Y-75659865D01*
X103664734Y-75659865D02*
X103584772Y-75699846D01*
X103584772Y-75699846D02*
X103544791Y-75739827D01*
X103544791Y-75739827D02*
X103504810Y-75819789D01*
X103504810Y-75819789D02*
X103504810Y-75979713D01*
X103504810Y-75979713D02*
X103544791Y-76059675D01*
X103544791Y-76059675D02*
X103584772Y-76099656D01*
X103584772Y-76099656D02*
X103664734Y-76139636D01*
X103664734Y-76139636D02*
X103824658Y-76139636D01*
X103824658Y-76139636D02*
X103904620Y-76099656D01*
X103904620Y-76099656D02*
X103944601Y-76059675D01*
X103944601Y-76059675D02*
X103984582Y-75979713D01*
X103984582Y-75979713D02*
X103984582Y-75819789D01*
X103984582Y-75819789D02*
X103944601Y-75739827D01*
X103944601Y-75739827D02*
X103904620Y-75699846D01*
X103904620Y-75699846D02*
X103824658Y-75659865D01*
X104464353Y-75659865D02*
X104384391Y-75619884D01*
X104384391Y-75619884D02*
X104344410Y-75579903D01*
X104344410Y-75579903D02*
X104304429Y-75499941D01*
X104304429Y-75499941D02*
X104304429Y-75459960D01*
X104304429Y-75459960D02*
X104344410Y-75379998D01*
X104344410Y-75379998D02*
X104384391Y-75340017D01*
X104384391Y-75340017D02*
X104464353Y-75300036D01*
X104464353Y-75300036D02*
X104624277Y-75300036D01*
X104624277Y-75300036D02*
X104704239Y-75340017D01*
X104704239Y-75340017D02*
X104744220Y-75379998D01*
X104744220Y-75379998D02*
X104784201Y-75459960D01*
X104784201Y-75459960D02*
X104784201Y-75499941D01*
X104784201Y-75499941D02*
X104744220Y-75579903D01*
X104744220Y-75579903D02*
X104704239Y-75619884D01*
X104704239Y-75619884D02*
X104624277Y-75659865D01*
X104624277Y-75659865D02*
X104464353Y-75659865D01*
X104464353Y-75659865D02*
X104384391Y-75699846D01*
X104384391Y-75699846D02*
X104344410Y-75739827D01*
X104344410Y-75739827D02*
X104304429Y-75819789D01*
X104304429Y-75819789D02*
X104304429Y-75979713D01*
X104304429Y-75979713D02*
X104344410Y-76059675D01*
X104344410Y-76059675D02*
X104384391Y-76099656D01*
X104384391Y-76099656D02*
X104464353Y-76139636D01*
X104464353Y-76139636D02*
X104624277Y-76139636D01*
X104624277Y-76139636D02*
X104704239Y-76099656D01*
X104704239Y-76099656D02*
X104744220Y-76059675D01*
X104744220Y-76059675D02*
X104784201Y-75979713D01*
X104784201Y-75979713D02*
X104784201Y-75819789D01*
X104784201Y-75819789D02*
X104744220Y-75739827D01*
X104744220Y-75739827D02*
X104704239Y-75699846D01*
X104704239Y-75699846D02*
X104624277Y-75659865D01*
D14*
G36*
X105446891Y-67604132D02*
G01*
X105235646Y-67604132D01*
X105341818Y-67221208D01*
X105446891Y-67604132D01*
G37*
G36*
X103974792Y-65698486D02*
G01*
X104022955Y-65707923D01*
X104061414Y-65730841D01*
X104090171Y-65767240D01*
X104101253Y-65790480D01*
X104115078Y-65834897D01*
X104123230Y-65881065D01*
X104127287Y-65926062D01*
X104128639Y-65976068D01*
X104128315Y-66000032D01*
X104125718Y-66044854D01*
X104119407Y-66091912D01*
X104108385Y-66135627D01*
X104090171Y-66176762D01*
X104073726Y-66200296D01*
X104039173Y-66229079D01*
X104009420Y-66241250D01*
X103963995Y-66246884D01*
X103953303Y-66246615D01*
X103905510Y-66237209D01*
X103867162Y-66214364D01*
X103838259Y-66178081D01*
X103827113Y-66154778D01*
X103813210Y-66110282D01*
X103805011Y-66064067D01*
X103800931Y-66019046D01*
X103799571Y-65969033D01*
X103799895Y-65945077D01*
X103802492Y-65900316D01*
X103808803Y-65853409D01*
X103819825Y-65809536D01*
X103838039Y-65768339D01*
X103854721Y-65744805D01*
X103889257Y-65716022D01*
X103918817Y-65703851D01*
X103963995Y-65698217D01*
X103974792Y-65698486D01*
G37*
G36*
X103245406Y-65698845D02*
G01*
X103292206Y-65705475D01*
X103335754Y-65723936D01*
X103340332Y-65727253D01*
X103366326Y-65763124D01*
X103373562Y-65808126D01*
X103373387Y-65815009D01*
X103362352Y-65857805D01*
X103360941Y-65860471D01*
X103330918Y-65894075D01*
X103322958Y-65899268D01*
X103281678Y-65916057D01*
X103263153Y-65919882D01*
X103217711Y-65923311D01*
X103155942Y-65923311D01*
X103155942Y-65698217D01*
X103222767Y-65698217D01*
X103245406Y-65698845D01*
G37*
G36*
X103937394Y-64186845D02*
G01*
X103984195Y-64193475D01*
X104027742Y-64211936D01*
X104032321Y-64215253D01*
X104058314Y-64251124D01*
X104065551Y-64296126D01*
X104065376Y-64303009D01*
X104054340Y-64345805D01*
X104052930Y-64348471D01*
X104022906Y-64382075D01*
X104014946Y-64387268D01*
X103973667Y-64404057D01*
X103955141Y-64407882D01*
X103909700Y-64411311D01*
X103847931Y-64411311D01*
X103847931Y-64186217D01*
X103914756Y-64186217D01*
X103937394Y-64186845D01*
G37*
G36*
X104629383Y-64186845D02*
G01*
X104676184Y-64193475D01*
X104719731Y-64211936D01*
X104724310Y-64215253D01*
X104750303Y-64251124D01*
X104757540Y-64296126D01*
X104757365Y-64303009D01*
X104746329Y-64345805D01*
X104744918Y-64348471D01*
X104714895Y-64382075D01*
X104706935Y-64387268D01*
X104665656Y-64404057D01*
X104647130Y-64407882D01*
X104601689Y-64411311D01*
X104539920Y-64411311D01*
X104539920Y-64186217D01*
X104606744Y-64186217D01*
X104629383Y-64186845D01*
G37*
G36*
X105446891Y-64580132D02*
G01*
X105235645Y-64580132D01*
X105341818Y-64197208D01*
X105446891Y-64580132D01*
G37*
G36*
X106039336Y-64187608D02*
G01*
X106083266Y-64196109D01*
X106096588Y-64200847D01*
X106135583Y-64224465D01*
X106142960Y-64231668D01*
X106166357Y-64269308D01*
X106170877Y-64282758D01*
X106176689Y-64327560D01*
X106175837Y-64346716D01*
X106165917Y-64391088D01*
X106160721Y-64403115D01*
X106134264Y-64439887D01*
X106123328Y-64449408D01*
X106083266Y-64470882D01*
X106059216Y-64477446D01*
X106013363Y-64481653D01*
X105928733Y-64481653D01*
X105928733Y-64186217D01*
X106008527Y-64186217D01*
X106039336Y-64187608D01*
G37*
G36*
X107831436Y-67998000D02*
G01*
X102168344Y-67998000D01*
X102168344Y-67210217D01*
X103664822Y-67210217D01*
X103886180Y-67210217D01*
X103886180Y-67885500D01*
X104042031Y-67885500D01*
X104421877Y-67885500D01*
X104908336Y-67885500D01*
X105002418Y-67885500D01*
X105153434Y-67885500D01*
X105199156Y-67730747D01*
X105480963Y-67730747D01*
X105525586Y-67885500D01*
X105693748Y-67885500D01*
X105719906Y-67885500D01*
X105848939Y-67885500D01*
X105862568Y-67428277D01*
X105866965Y-67250883D01*
X105901036Y-67366508D01*
X105981930Y-67646337D01*
X106077111Y-67646337D01*
X106166797Y-67366508D01*
X106205705Y-67250883D01*
X106211200Y-67432014D01*
X106226148Y-67885500D01*
X106360237Y-67885500D01*
X106320230Y-67083601D01*
X106145255Y-67083601D01*
X106070517Y-67325182D01*
X106036445Y-67449599D01*
X106002373Y-67317708D01*
X105931152Y-67083601D01*
X105759473Y-67083601D01*
X105719906Y-67885500D01*
X105693748Y-67885500D01*
X105454365Y-67083601D01*
X105241801Y-67083601D01*
X105086412Y-67604132D01*
X105002418Y-67885500D01*
X104908336Y-67885500D01*
X104908336Y-67758884D01*
X104576410Y-67758884D01*
X104576410Y-67533790D01*
X104892949Y-67533790D01*
X104892949Y-67407174D01*
X104576410Y-67407174D01*
X104576410Y-67210217D01*
X104908336Y-67210217D01*
X104908336Y-67083601D01*
X104421877Y-67083601D01*
X104421877Y-67885500D01*
X104042031Y-67885500D01*
X104042031Y-67210217D01*
X104263388Y-67210217D01*
X104263388Y-67083601D01*
X103664822Y-67083601D01*
X103664822Y-67210217D01*
X102168344Y-67210217D01*
X102168344Y-65923311D01*
X103003828Y-65923311D01*
X103003828Y-66373500D01*
X103155942Y-66373500D01*
X103155942Y-66035858D01*
X103184958Y-66035858D01*
X103210512Y-66038118D01*
X103252662Y-66054982D01*
X103273955Y-66073390D01*
X103297505Y-66111256D01*
X103411151Y-66373500D01*
X103589864Y-66373500D01*
X103460611Y-66100045D01*
X103459072Y-66096801D01*
X103437481Y-66056698D01*
X103411151Y-66021350D01*
X103396903Y-66008129D01*
X103356856Y-65989037D01*
X103384739Y-65983153D01*
X103403817Y-65976287D01*
X103638883Y-65976287D01*
X103639197Y-66001001D01*
X103641704Y-66048194D01*
X103648364Y-66102992D01*
X103658942Y-66153131D01*
X103673437Y-66198613D01*
X103691850Y-66239436D01*
X103719117Y-66282275D01*
X103740467Y-66306953D01*
X103777129Y-66337800D01*
X103819355Y-66361245D01*
X103867144Y-66377285D01*
X103911220Y-66384997D01*
X103959159Y-66387568D01*
X104001208Y-66385185D01*
X104045577Y-66377060D01*
X104087973Y-66363168D01*
X104124230Y-66345205D01*
X104160592Y-66319495D01*
X104193266Y-66287550D01*
X104201504Y-66277741D01*
X104226508Y-66241471D01*
X104247735Y-66199705D01*
X104263608Y-66157418D01*
X104276040Y-66110416D01*
X104283675Y-66064666D01*
X104288096Y-66015180D01*
X104288889Y-65985300D01*
X104358789Y-65985300D01*
X104359624Y-66021709D01*
X104363333Y-66067610D01*
X104371054Y-66115636D01*
X104382530Y-66159836D01*
X104384049Y-66164511D01*
X104401600Y-66208638D01*
X104423444Y-66247999D01*
X104452432Y-66285792D01*
X104483322Y-66314965D01*
X104522013Y-66341452D01*
X104565639Y-66362069D01*
X104582712Y-66368045D01*
X104628131Y-66379500D01*
X104672349Y-66385551D01*
X104719731Y-66387568D01*
X104733295Y-66387403D01*
X104779739Y-66384229D01*
X104824585Y-66377017D01*
X104840401Y-66373520D01*
X104840472Y-66373500D01*
X105079794Y-66373500D01*
X105234327Y-66373500D01*
X105234327Y-65985740D01*
X105477226Y-66373500D01*
X105673964Y-66373500D01*
X105805855Y-66373500D01*
X106292313Y-66373500D01*
X106292313Y-66246884D01*
X105960387Y-66246884D01*
X105960387Y-66021790D01*
X106276926Y-66021790D01*
X106276926Y-65895174D01*
X105960387Y-65895174D01*
X105960387Y-65698217D01*
X106292313Y-65698217D01*
X106432777Y-65698217D01*
X106654135Y-65698217D01*
X106654135Y-66373500D01*
X106809986Y-66373500D01*
X106809986Y-65698217D01*
X107031343Y-65698217D01*
X107031343Y-65571601D01*
X106432777Y-65571601D01*
X106432777Y-65698217D01*
X106292313Y-65698217D01*
X106292313Y-65571601D01*
X105805855Y-65571601D01*
X105805855Y-66373500D01*
X105673964Y-66373500D01*
X105385122Y-65957383D01*
X105659676Y-65571601D01*
X105476127Y-65571601D01*
X105234327Y-65945513D01*
X105234327Y-65571601D01*
X105079794Y-65571601D01*
X105079794Y-66373500D01*
X104840472Y-66373500D01*
X104885602Y-66360873D01*
X104928779Y-66345363D01*
X104928779Y-66204679D01*
X104926211Y-66205695D01*
X104884595Y-66220726D01*
X104880136Y-66222151D01*
X104836235Y-66234135D01*
X104831666Y-66235187D01*
X104788095Y-66243367D01*
X104743911Y-66246884D01*
X104733372Y-66246722D01*
X104687763Y-66241673D01*
X104645433Y-66228419D01*
X104609926Y-66207438D01*
X104577509Y-66174784D01*
X104575860Y-66172570D01*
X104553157Y-66133072D01*
X104538161Y-66089054D01*
X104533279Y-66066197D01*
X104527394Y-66020344D01*
X104525632Y-65974089D01*
X104525932Y-65955377D01*
X104529526Y-65909035D01*
X104537941Y-65862861D01*
X104538738Y-65859715D01*
X104553878Y-65815765D01*
X104576629Y-65775593D01*
X104606580Y-65743005D01*
X104643674Y-65718660D01*
X104654157Y-65713869D01*
X104698116Y-65701591D01*
X104742153Y-65698217D01*
X104783204Y-65700635D01*
X104828542Y-65707889D01*
X104843566Y-65711233D01*
X104886891Y-65724024D01*
X104928779Y-65740422D01*
X104928779Y-65585670D01*
X104922322Y-65583630D01*
X104878660Y-65572041D01*
X104875667Y-65571363D01*
X104831179Y-65563248D01*
X104828236Y-65562845D01*
X104783259Y-65558852D01*
X104775548Y-65558472D01*
X104730942Y-65557533D01*
X104709719Y-65557983D01*
X104663902Y-65562285D01*
X104620762Y-65571144D01*
X104575970Y-65586329D01*
X104567449Y-65590003D01*
X104527242Y-65611440D01*
X104491028Y-65637986D01*
X104458807Y-65669640D01*
X104449976Y-65680122D01*
X104423357Y-65718212D01*
X104401074Y-65761154D01*
X104384728Y-65803950D01*
X104373380Y-65845042D01*
X104365274Y-65888964D01*
X104360410Y-65935717D01*
X104358789Y-65985300D01*
X104288889Y-65985300D01*
X104289327Y-65968814D01*
X104289012Y-65944021D01*
X104286498Y-65896698D01*
X104279820Y-65841786D01*
X104269213Y-65791585D01*
X104254678Y-65746096D01*
X104236215Y-65705319D01*
X104208873Y-65662606D01*
X104187575Y-65637980D01*
X104150977Y-65607197D01*
X104108801Y-65583801D01*
X104061044Y-65567794D01*
X104016985Y-65560098D01*
X103969051Y-65557533D01*
X103926981Y-65559937D01*
X103882538Y-65568136D01*
X103840017Y-65582153D01*
X103803876Y-65600000D01*
X103767592Y-65625632D01*
X103734944Y-65657550D01*
X103726704Y-65667362D01*
X103701665Y-65703666D01*
X103680362Y-65745509D01*
X103664382Y-65787903D01*
X103652056Y-65834798D01*
X103644486Y-65880483D01*
X103640104Y-65929932D01*
X103639074Y-65969033D01*
X103638883Y-65976287D01*
X103403817Y-65976287D01*
X103427638Y-65967714D01*
X103448913Y-65956170D01*
X103483472Y-65927927D01*
X103498395Y-65909884D01*
X103519962Y-65869236D01*
X103529271Y-65835120D01*
X103532931Y-65791200D01*
X103532608Y-65776325D01*
X103527099Y-65732012D01*
X103512268Y-65688545D01*
X103487154Y-65650351D01*
X103453137Y-65620181D01*
X103445822Y-65615408D01*
X103404960Y-65595483D01*
X103360373Y-65582812D01*
X103328841Y-65577393D01*
X103283715Y-65572926D01*
X103239253Y-65571601D01*
X103003828Y-65571601D01*
X103003828Y-65923311D01*
X102168344Y-65923311D01*
X102168344Y-64186217D01*
X102280844Y-64186217D01*
X102502202Y-64186217D01*
X102502202Y-64861500D01*
X102658053Y-64861500D01*
X103037899Y-64861500D01*
X103524358Y-64861500D01*
X103524358Y-64734884D01*
X103192432Y-64734884D01*
X103192432Y-64509790D01*
X103508971Y-64509790D01*
X103508971Y-64411311D01*
X103695816Y-64411311D01*
X103695816Y-64861500D01*
X103847931Y-64861500D01*
X103847931Y-64523858D01*
X103876947Y-64523858D01*
X103902501Y-64526118D01*
X103944651Y-64542982D01*
X103965944Y-64561390D01*
X103989494Y-64599256D01*
X104103140Y-64861500D01*
X104281853Y-64861500D01*
X104152599Y-64588045D01*
X104151060Y-64584801D01*
X104129470Y-64544698D01*
X104103140Y-64509350D01*
X104088892Y-64496129D01*
X104048845Y-64477037D01*
X104076728Y-64471153D01*
X104119626Y-64455714D01*
X104140902Y-64444170D01*
X104175460Y-64415927D01*
X104179278Y-64411311D01*
X104387805Y-64411311D01*
X104387805Y-64861500D01*
X104539920Y-64861500D01*
X104539920Y-64523858D01*
X104568936Y-64523858D01*
X104594490Y-64526118D01*
X104636640Y-64542982D01*
X104657933Y-64561390D01*
X104681483Y-64599256D01*
X104795129Y-64861500D01*
X104973841Y-64861500D01*
X105002418Y-64861500D01*
X105153433Y-64861500D01*
X105199155Y-64706747D01*
X105480963Y-64706747D01*
X105525586Y-64861500D01*
X105693747Y-64861500D01*
X105580355Y-64481653D01*
X105775520Y-64481653D01*
X105775520Y-64861500D01*
X105928733Y-64861500D01*
X105928733Y-64608269D01*
X106006109Y-64608269D01*
X106011187Y-64608247D01*
X106059839Y-64605723D01*
X106104627Y-64598991D01*
X106149431Y-64586726D01*
X106175562Y-64576385D01*
X106215758Y-64554839D01*
X106252746Y-64526056D01*
X106267599Y-64510881D01*
X106294797Y-64474555D01*
X106315174Y-64433513D01*
X106324407Y-64406200D01*
X106333309Y-64362965D01*
X106336277Y-64317009D01*
X106335756Y-64297981D01*
X106329530Y-64251723D01*
X106314954Y-64207100D01*
X106309315Y-64195357D01*
X106303296Y-64186217D01*
X106476741Y-64186217D01*
X106654794Y-64186217D01*
X106654794Y-64734884D01*
X106476741Y-64734884D01*
X106476741Y-64861500D01*
X106987379Y-64861500D01*
X107133998Y-64861500D01*
X107272484Y-64861500D01*
X107272484Y-64612445D01*
X107272484Y-64279860D01*
X107317107Y-64382954D01*
X107533409Y-64861500D01*
X107718936Y-64861500D01*
X107718936Y-64059601D01*
X107580450Y-64059601D01*
X107580450Y-64281178D01*
X107580450Y-64635086D01*
X107541542Y-64541224D01*
X107320844Y-64059601D01*
X107133998Y-64059601D01*
X107133998Y-64861500D01*
X106987379Y-64861500D01*
X106987379Y-64734884D01*
X106809326Y-64734884D01*
X106809326Y-64186217D01*
X106987379Y-64186217D01*
X106987379Y-64059601D01*
X106476741Y-64059601D01*
X106476741Y-64186217D01*
X106303296Y-64186217D01*
X106284707Y-64157988D01*
X106252526Y-64126426D01*
X106233616Y-64112854D01*
X106193587Y-64091667D01*
X106150970Y-64076747D01*
X106147188Y-64075692D01*
X106103231Y-64066299D01*
X106059530Y-64061276D01*
X106012264Y-64059601D01*
X105775520Y-64059601D01*
X105775520Y-64481653D01*
X105580355Y-64481653D01*
X105454365Y-64059601D01*
X105241800Y-64059601D01*
X105086412Y-64580132D01*
X105002418Y-64861500D01*
X104973841Y-64861500D01*
X104844588Y-64588045D01*
X104843049Y-64584801D01*
X104821459Y-64544698D01*
X104795129Y-64509350D01*
X104780880Y-64496129D01*
X104740834Y-64477037D01*
X104768716Y-64471153D01*
X104811615Y-64455714D01*
X104832891Y-64444170D01*
X104867449Y-64415927D01*
X104882373Y-64397884D01*
X104903939Y-64357236D01*
X104913248Y-64323120D01*
X104916908Y-64279200D01*
X104916586Y-64264325D01*
X104911077Y-64220012D01*
X104896245Y-64176545D01*
X104871131Y-64138351D01*
X104837114Y-64108181D01*
X104829800Y-64103408D01*
X104788938Y-64083483D01*
X104744351Y-64070812D01*
X104712819Y-64065393D01*
X104667692Y-64060926D01*
X104623231Y-64059601D01*
X104387805Y-64059601D01*
X104387805Y-64411311D01*
X104179278Y-64411311D01*
X104190384Y-64397884D01*
X104211950Y-64357236D01*
X104221259Y-64323120D01*
X104224920Y-64279200D01*
X104224597Y-64264325D01*
X104219088Y-64220012D01*
X104204257Y-64176545D01*
X104179142Y-64138351D01*
X104145125Y-64108181D01*
X104137811Y-64103408D01*
X104096949Y-64083483D01*
X104052362Y-64070812D01*
X104020830Y-64065393D01*
X103975704Y-64060926D01*
X103931242Y-64059601D01*
X103695816Y-64059601D01*
X103695816Y-64411311D01*
X103508971Y-64411311D01*
X103508971Y-64383174D01*
X103192432Y-64383174D01*
X103192432Y-64186217D01*
X103524358Y-64186217D01*
X103524358Y-64059601D01*
X103037899Y-64059601D01*
X103037899Y-64861500D01*
X102658053Y-64861500D01*
X102658053Y-64186217D01*
X102879410Y-64186217D01*
X102879410Y-64059601D01*
X102280844Y-64059601D01*
X102280844Y-64186217D01*
X102168344Y-64186217D01*
X102168344Y-63947101D01*
X107831436Y-63947101D01*
X107831436Y-67998000D01*
G37*
D15*
X101342857Y-70276290D02*
X101800000Y-70276290D01*
X101571428Y-71076290D02*
X101571428Y-70276290D01*
X102523810Y-71076290D02*
X102257143Y-70695337D01*
X102066667Y-71076290D02*
X102066667Y-70276290D01*
X102066667Y-70276290D02*
X102371429Y-70276290D01*
X102371429Y-70276290D02*
X102447619Y-70314385D01*
X102447619Y-70314385D02*
X102485714Y-70352480D01*
X102485714Y-70352480D02*
X102523810Y-70428671D01*
X102523810Y-70428671D02*
X102523810Y-70542956D01*
X102523810Y-70542956D02*
X102485714Y-70619147D01*
X102485714Y-70619147D02*
X102447619Y-70657242D01*
X102447619Y-70657242D02*
X102371429Y-70695337D01*
X102371429Y-70695337D02*
X102066667Y-70695337D01*
X102752381Y-70276290D02*
X103209524Y-70276290D01*
X102980952Y-71076290D02*
X102980952Y-70276290D01*
X104047619Y-70847718D02*
X104428572Y-70847718D01*
X103971429Y-71076290D02*
X104238096Y-70276290D01*
X104238096Y-70276290D02*
X104504762Y-71076290D01*
X104695238Y-70542956D02*
X104885714Y-71076290D01*
X104885714Y-71076290D02*
X105076191Y-70542956D01*
X105380953Y-71076290D02*
X105380953Y-70542956D01*
X105380953Y-70276290D02*
X105342857Y-70314385D01*
X105342857Y-70314385D02*
X105380953Y-70352480D01*
X105380953Y-70352480D02*
X105419048Y-70314385D01*
X105419048Y-70314385D02*
X105380953Y-70276290D01*
X105380953Y-70276290D02*
X105380953Y-70352480D01*
X105876190Y-71076290D02*
X105800000Y-71038195D01*
X105800000Y-71038195D02*
X105761905Y-71000099D01*
X105761905Y-71000099D02*
X105723809Y-70923909D01*
X105723809Y-70923909D02*
X105723809Y-70695337D01*
X105723809Y-70695337D02*
X105761905Y-70619147D01*
X105761905Y-70619147D02*
X105800000Y-70581052D01*
X105800000Y-70581052D02*
X105876190Y-70542956D01*
X105876190Y-70542956D02*
X105990476Y-70542956D01*
X105990476Y-70542956D02*
X106066667Y-70581052D01*
X106066667Y-70581052D02*
X106104762Y-70619147D01*
X106104762Y-70619147D02*
X106142857Y-70695337D01*
X106142857Y-70695337D02*
X106142857Y-70923909D01*
X106142857Y-70923909D02*
X106104762Y-71000099D01*
X106104762Y-71000099D02*
X106066667Y-71038195D01*
X106066667Y-71038195D02*
X105990476Y-71076290D01*
X105990476Y-71076290D02*
X105876190Y-71076290D01*
X106485715Y-70542956D02*
X106485715Y-71076290D01*
X106485715Y-70619147D02*
X106523810Y-70581052D01*
X106523810Y-70581052D02*
X106600000Y-70542956D01*
X106600000Y-70542956D02*
X106714286Y-70542956D01*
X106714286Y-70542956D02*
X106790477Y-70581052D01*
X106790477Y-70581052D02*
X106828572Y-70657242D01*
X106828572Y-70657242D02*
X106828572Y-71076290D01*
X107209525Y-71076290D02*
X107209525Y-70542956D01*
X107209525Y-70276290D02*
X107171429Y-70314385D01*
X107171429Y-70314385D02*
X107209525Y-70352480D01*
X107209525Y-70352480D02*
X107247620Y-70314385D01*
X107247620Y-70314385D02*
X107209525Y-70276290D01*
X107209525Y-70276290D02*
X107209525Y-70352480D01*
X107933334Y-71038195D02*
X107857143Y-71076290D01*
X107857143Y-71076290D02*
X107704762Y-71076290D01*
X107704762Y-71076290D02*
X107628572Y-71038195D01*
X107628572Y-71038195D02*
X107590477Y-71000099D01*
X107590477Y-71000099D02*
X107552381Y-70923909D01*
X107552381Y-70923909D02*
X107552381Y-70695337D01*
X107552381Y-70695337D02*
X107590477Y-70619147D01*
X107590477Y-70619147D02*
X107628572Y-70581052D01*
X107628572Y-70581052D02*
X107704762Y-70542956D01*
X107704762Y-70542956D02*
X107857143Y-70542956D01*
X107857143Y-70542956D02*
X107933334Y-70581052D01*
X108238095Y-71038195D02*
X108314286Y-71076290D01*
X108314286Y-71076290D02*
X108466667Y-71076290D01*
X108466667Y-71076290D02*
X108542857Y-71038195D01*
X108542857Y-71038195D02*
X108580953Y-70962004D01*
X108580953Y-70962004D02*
X108580953Y-70923909D01*
X108580953Y-70923909D02*
X108542857Y-70847718D01*
X108542857Y-70847718D02*
X108466667Y-70809623D01*
X108466667Y-70809623D02*
X108352381Y-70809623D01*
X108352381Y-70809623D02*
X108276191Y-70771528D01*
X108276191Y-70771528D02*
X108238095Y-70695337D01*
X108238095Y-70695337D02*
X108238095Y-70657242D01*
X108238095Y-70657242D02*
X108276191Y-70581052D01*
X108276191Y-70581052D02*
X108352381Y-70542956D01*
X108352381Y-70542956D02*
X108466667Y-70542956D01*
X108466667Y-70542956D02*
X108542857Y-70581052D01*
X101095236Y-72326150D02*
X101209522Y-72364245D01*
X101209522Y-72364245D02*
X101399998Y-72364245D01*
X101399998Y-72364245D02*
X101476189Y-72326150D01*
X101476189Y-72326150D02*
X101514284Y-72288054D01*
X101514284Y-72288054D02*
X101552379Y-72211864D01*
X101552379Y-72211864D02*
X101552379Y-72135673D01*
X101552379Y-72135673D02*
X101514284Y-72059483D01*
X101514284Y-72059483D02*
X101476189Y-72021388D01*
X101476189Y-72021388D02*
X101399998Y-71983292D01*
X101399998Y-71983292D02*
X101247617Y-71945197D01*
X101247617Y-71945197D02*
X101171427Y-71907102D01*
X101171427Y-71907102D02*
X101133332Y-71869007D01*
X101133332Y-71869007D02*
X101095236Y-71792816D01*
X101095236Y-71792816D02*
X101095236Y-71716626D01*
X101095236Y-71716626D02*
X101133332Y-71640435D01*
X101133332Y-71640435D02*
X101171427Y-71602340D01*
X101171427Y-71602340D02*
X101247617Y-71564245D01*
X101247617Y-71564245D02*
X101438094Y-71564245D01*
X101438094Y-71564245D02*
X101552379Y-71602340D01*
X102199999Y-72326150D02*
X102123808Y-72364245D01*
X102123808Y-72364245D02*
X101971427Y-72364245D01*
X101971427Y-72364245D02*
X101895237Y-72326150D01*
X101895237Y-72326150D02*
X101857141Y-72249959D01*
X101857141Y-72249959D02*
X101857141Y-71945197D01*
X101857141Y-71945197D02*
X101895237Y-71869007D01*
X101895237Y-71869007D02*
X101971427Y-71830911D01*
X101971427Y-71830911D02*
X102123808Y-71830911D01*
X102123808Y-71830911D02*
X102199999Y-71869007D01*
X102199999Y-71869007D02*
X102238094Y-71945197D01*
X102238094Y-71945197D02*
X102238094Y-72021388D01*
X102238094Y-72021388D02*
X101857141Y-72097578D01*
X102580951Y-71830911D02*
X102580951Y-72364245D01*
X102580951Y-71907102D02*
X102619046Y-71869007D01*
X102619046Y-71869007D02*
X102695236Y-71830911D01*
X102695236Y-71830911D02*
X102809522Y-71830911D01*
X102809522Y-71830911D02*
X102885713Y-71869007D01*
X102885713Y-71869007D02*
X102923808Y-71945197D01*
X102923808Y-71945197D02*
X102923808Y-72364245D01*
X103266665Y-72326150D02*
X103342856Y-72364245D01*
X103342856Y-72364245D02*
X103495237Y-72364245D01*
X103495237Y-72364245D02*
X103571427Y-72326150D01*
X103571427Y-72326150D02*
X103609523Y-72249959D01*
X103609523Y-72249959D02*
X103609523Y-72211864D01*
X103609523Y-72211864D02*
X103571427Y-72135673D01*
X103571427Y-72135673D02*
X103495237Y-72097578D01*
X103495237Y-72097578D02*
X103380951Y-72097578D01*
X103380951Y-72097578D02*
X103304761Y-72059483D01*
X103304761Y-72059483D02*
X103266665Y-71983292D01*
X103266665Y-71983292D02*
X103266665Y-71945197D01*
X103266665Y-71945197D02*
X103304761Y-71869007D01*
X103304761Y-71869007D02*
X103380951Y-71830911D01*
X103380951Y-71830911D02*
X103495237Y-71830911D01*
X103495237Y-71830911D02*
X103571427Y-71869007D01*
X104066665Y-72364245D02*
X103990475Y-72326150D01*
X103990475Y-72326150D02*
X103952380Y-72288054D01*
X103952380Y-72288054D02*
X103914284Y-72211864D01*
X103914284Y-72211864D02*
X103914284Y-71983292D01*
X103914284Y-71983292D02*
X103952380Y-71907102D01*
X103952380Y-71907102D02*
X103990475Y-71869007D01*
X103990475Y-71869007D02*
X104066665Y-71830911D01*
X104066665Y-71830911D02*
X104180951Y-71830911D01*
X104180951Y-71830911D02*
X104257142Y-71869007D01*
X104257142Y-71869007D02*
X104295237Y-71907102D01*
X104295237Y-71907102D02*
X104333332Y-71983292D01*
X104333332Y-71983292D02*
X104333332Y-72211864D01*
X104333332Y-72211864D02*
X104295237Y-72288054D01*
X104295237Y-72288054D02*
X104257142Y-72326150D01*
X104257142Y-72326150D02*
X104180951Y-72364245D01*
X104180951Y-72364245D02*
X104066665Y-72364245D01*
X104676190Y-72364245D02*
X104676190Y-71830911D01*
X104676190Y-71983292D02*
X104714285Y-71907102D01*
X104714285Y-71907102D02*
X104752380Y-71869007D01*
X104752380Y-71869007D02*
X104828571Y-71830911D01*
X104828571Y-71830911D02*
X104904761Y-71830911D01*
X106047618Y-71945197D02*
X106161904Y-71983292D01*
X106161904Y-71983292D02*
X106199999Y-72021388D01*
X106199999Y-72021388D02*
X106238095Y-72097578D01*
X106238095Y-72097578D02*
X106238095Y-72211864D01*
X106238095Y-72211864D02*
X106199999Y-72288054D01*
X106199999Y-72288054D02*
X106161904Y-72326150D01*
X106161904Y-72326150D02*
X106085714Y-72364245D01*
X106085714Y-72364245D02*
X105780952Y-72364245D01*
X105780952Y-72364245D02*
X105780952Y-71564245D01*
X105780952Y-71564245D02*
X106047618Y-71564245D01*
X106047618Y-71564245D02*
X106123809Y-71602340D01*
X106123809Y-71602340D02*
X106161904Y-71640435D01*
X106161904Y-71640435D02*
X106199999Y-71716626D01*
X106199999Y-71716626D02*
X106199999Y-71792816D01*
X106199999Y-71792816D02*
X106161904Y-71869007D01*
X106161904Y-71869007D02*
X106123809Y-71907102D01*
X106123809Y-71907102D02*
X106047618Y-71945197D01*
X106047618Y-71945197D02*
X105780952Y-71945197D01*
X106695237Y-72364245D02*
X106619047Y-72326150D01*
X106619047Y-72326150D02*
X106580952Y-72288054D01*
X106580952Y-72288054D02*
X106542856Y-72211864D01*
X106542856Y-72211864D02*
X106542856Y-71983292D01*
X106542856Y-71983292D02*
X106580952Y-71907102D01*
X106580952Y-71907102D02*
X106619047Y-71869007D01*
X106619047Y-71869007D02*
X106695237Y-71830911D01*
X106695237Y-71830911D02*
X106809523Y-71830911D01*
X106809523Y-71830911D02*
X106885714Y-71869007D01*
X106885714Y-71869007D02*
X106923809Y-71907102D01*
X106923809Y-71907102D02*
X106961904Y-71983292D01*
X106961904Y-71983292D02*
X106961904Y-72211864D01*
X106961904Y-72211864D02*
X106923809Y-72288054D01*
X106923809Y-72288054D02*
X106885714Y-72326150D01*
X106885714Y-72326150D02*
X106809523Y-72364245D01*
X106809523Y-72364245D02*
X106695237Y-72364245D01*
X107647619Y-72364245D02*
X107647619Y-71945197D01*
X107647619Y-71945197D02*
X107609524Y-71869007D01*
X107609524Y-71869007D02*
X107533333Y-71830911D01*
X107533333Y-71830911D02*
X107380952Y-71830911D01*
X107380952Y-71830911D02*
X107304762Y-71869007D01*
X107647619Y-72326150D02*
X107571428Y-72364245D01*
X107571428Y-72364245D02*
X107380952Y-72364245D01*
X107380952Y-72364245D02*
X107304762Y-72326150D01*
X107304762Y-72326150D02*
X107266666Y-72249959D01*
X107266666Y-72249959D02*
X107266666Y-72173769D01*
X107266666Y-72173769D02*
X107304762Y-72097578D01*
X107304762Y-72097578D02*
X107380952Y-72059483D01*
X107380952Y-72059483D02*
X107571428Y-72059483D01*
X107571428Y-72059483D02*
X107647619Y-72021388D01*
X108028572Y-72364245D02*
X108028572Y-71830911D01*
X108028572Y-71983292D02*
X108066667Y-71907102D01*
X108066667Y-71907102D02*
X108104762Y-71869007D01*
X108104762Y-71869007D02*
X108180953Y-71830911D01*
X108180953Y-71830911D02*
X108257143Y-71830911D01*
X108866667Y-72364245D02*
X108866667Y-71564245D01*
X108866667Y-72326150D02*
X108790476Y-72364245D01*
X108790476Y-72364245D02*
X108638095Y-72364245D01*
X108638095Y-72364245D02*
X108561905Y-72326150D01*
X108561905Y-72326150D02*
X108523810Y-72288054D01*
X108523810Y-72288054D02*
X108485714Y-72211864D01*
X108485714Y-72211864D02*
X108485714Y-71983292D01*
X108485714Y-71983292D02*
X108523810Y-71907102D01*
X108523810Y-71907102D02*
X108561905Y-71869007D01*
X108561905Y-71869007D02*
X108638095Y-71830911D01*
X108638095Y-71830911D02*
X108790476Y-71830911D01*
X108790476Y-71830911D02*
X108866667Y-71869007D01*
X101647619Y-72852200D02*
X101914286Y-73652200D01*
X101914286Y-73652200D02*
X102180952Y-72852200D01*
X102752381Y-73614105D02*
X102676190Y-73652200D01*
X102676190Y-73652200D02*
X102523809Y-73652200D01*
X102523809Y-73652200D02*
X102447619Y-73614105D01*
X102447619Y-73614105D02*
X102409523Y-73537914D01*
X102409523Y-73537914D02*
X102409523Y-73233152D01*
X102409523Y-73233152D02*
X102447619Y-73156962D01*
X102447619Y-73156962D02*
X102523809Y-73118866D01*
X102523809Y-73118866D02*
X102676190Y-73118866D01*
X102676190Y-73118866D02*
X102752381Y-73156962D01*
X102752381Y-73156962D02*
X102790476Y-73233152D01*
X102790476Y-73233152D02*
X102790476Y-73309343D01*
X102790476Y-73309343D02*
X102409523Y-73385533D01*
X103133333Y-73652200D02*
X103133333Y-73118866D01*
X103133333Y-73271247D02*
X103171428Y-73195057D01*
X103171428Y-73195057D02*
X103209523Y-73156962D01*
X103209523Y-73156962D02*
X103285714Y-73118866D01*
X103285714Y-73118866D02*
X103361904Y-73118866D01*
X103590475Y-73614105D02*
X103666666Y-73652200D01*
X103666666Y-73652200D02*
X103819047Y-73652200D01*
X103819047Y-73652200D02*
X103895237Y-73614105D01*
X103895237Y-73614105D02*
X103933333Y-73537914D01*
X103933333Y-73537914D02*
X103933333Y-73499819D01*
X103933333Y-73499819D02*
X103895237Y-73423628D01*
X103895237Y-73423628D02*
X103819047Y-73385533D01*
X103819047Y-73385533D02*
X103704761Y-73385533D01*
X103704761Y-73385533D02*
X103628571Y-73347438D01*
X103628571Y-73347438D02*
X103590475Y-73271247D01*
X103590475Y-73271247D02*
X103590475Y-73233152D01*
X103590475Y-73233152D02*
X103628571Y-73156962D01*
X103628571Y-73156962D02*
X103704761Y-73118866D01*
X103704761Y-73118866D02*
X103819047Y-73118866D01*
X103819047Y-73118866D02*
X103895237Y-73156962D01*
X104276190Y-73652200D02*
X104276190Y-73118866D01*
X104276190Y-72852200D02*
X104238094Y-72890295D01*
X104238094Y-72890295D02*
X104276190Y-72928390D01*
X104276190Y-72928390D02*
X104314285Y-72890295D01*
X104314285Y-72890295D02*
X104276190Y-72852200D01*
X104276190Y-72852200D02*
X104276190Y-72928390D01*
X104771427Y-73652200D02*
X104695237Y-73614105D01*
X104695237Y-73614105D02*
X104657142Y-73576009D01*
X104657142Y-73576009D02*
X104619046Y-73499819D01*
X104619046Y-73499819D02*
X104619046Y-73271247D01*
X104619046Y-73271247D02*
X104657142Y-73195057D01*
X104657142Y-73195057D02*
X104695237Y-73156962D01*
X104695237Y-73156962D02*
X104771427Y-73118866D01*
X104771427Y-73118866D02*
X104885713Y-73118866D01*
X104885713Y-73118866D02*
X104961904Y-73156962D01*
X104961904Y-73156962D02*
X104999999Y-73195057D01*
X104999999Y-73195057D02*
X105038094Y-73271247D01*
X105038094Y-73271247D02*
X105038094Y-73499819D01*
X105038094Y-73499819D02*
X104999999Y-73576009D01*
X104999999Y-73576009D02*
X104961904Y-73614105D01*
X104961904Y-73614105D02*
X104885713Y-73652200D01*
X104885713Y-73652200D02*
X104771427Y-73652200D01*
X105380952Y-73118866D02*
X105380952Y-73652200D01*
X105380952Y-73195057D02*
X105419047Y-73156962D01*
X105419047Y-73156962D02*
X105495237Y-73118866D01*
X105495237Y-73118866D02*
X105609523Y-73118866D01*
X105609523Y-73118866D02*
X105685714Y-73156962D01*
X105685714Y-73156962D02*
X105723809Y-73233152D01*
X105723809Y-73233152D02*
X105723809Y-73652200D01*
X107133333Y-73652200D02*
X106676190Y-73652200D01*
X106904762Y-73652200D02*
X106904762Y-72852200D01*
X106904762Y-72852200D02*
X106828571Y-72966485D01*
X106828571Y-72966485D02*
X106752381Y-73042676D01*
X106752381Y-73042676D02*
X106676190Y-73080771D01*
X107476191Y-73576009D02*
X107514286Y-73614105D01*
X107514286Y-73614105D02*
X107476191Y-73652200D01*
X107476191Y-73652200D02*
X107438095Y-73614105D01*
X107438095Y-73614105D02*
X107476191Y-73576009D01*
X107476191Y-73576009D02*
X107476191Y-73652200D01*
X108276190Y-73652200D02*
X107819047Y-73652200D01*
X108047619Y-73652200D02*
X108047619Y-72852200D01*
X108047619Y-72852200D02*
X107971428Y-72966485D01*
X107971428Y-72966485D02*
X107895238Y-73042676D01*
X107895238Y-73042676D02*
X107819047Y-73080771D01*
D16*
%TO.C,C3*%
X98515000Y-78738748D02*
X98515000Y-79261252D01*
X99985000Y-78738748D02*
X99985000Y-79261252D01*
%TO.C,D1*%
X97540000Y-96500000D02*
X97540000Y-99185000D01*
X97540000Y-99185000D02*
X99460000Y-99185000D01*
X99460000Y-99185000D02*
X99460000Y-96500000D01*
D17*
%TO.C,U1*%
X101000000Y-76750000D02*
X101000000Y-77000000D01*
X101000000Y-81250000D02*
X101000000Y-81000000D01*
X102000000Y-76750000D02*
X101000000Y-76750000D01*
X102000000Y-81250000D02*
X101000000Y-81250000D01*
X103000000Y-76750000D02*
X104000000Y-76750000D01*
X104000000Y-76750000D02*
X104000000Y-77000000D01*
X104000000Y-81000000D02*
X104000000Y-81250000D01*
X104000000Y-81250000D02*
X103000000Y-81250000D01*
D18*
X100500000Y-80629000D02*
G75*
G02*
X100300000Y-80629000I-100000J0D01*
G01*
X100300000Y-80629000D02*
G75*
G02*
X100500000Y-80629000I100000J0D01*
G01*
D16*
%TO.C,C10*%
X104488748Y-86515000D02*
X105011252Y-86515000D01*
X104488748Y-87985000D02*
X105011252Y-87985000D01*
%TO.C,C9*%
X95488748Y-75015000D02*
X96011252Y-75015000D01*
X95488748Y-76485000D02*
X96011252Y-76485000D01*
%TO.C,L1*%
X93690000Y-54850378D02*
X93690000Y-55649622D01*
X94810000Y-54850378D02*
X94810000Y-55649622D01*
%TO.C,C8*%
X97238748Y-53515000D02*
X97761252Y-53515000D01*
X97238748Y-54985000D02*
X97761252Y-54985000D01*
%TO.C,R2*%
X100265000Y-97727064D02*
X100265000Y-97272936D01*
X101735000Y-97727064D02*
X101735000Y-97272936D01*
%TO.C,C6*%
X92261252Y-78515000D02*
X91738748Y-78515000D01*
X92261252Y-79985000D02*
X91738748Y-79985000D01*
%TO.C,R3*%
X98015000Y-88227064D02*
X98015000Y-87772936D01*
X99485000Y-88227064D02*
X99485000Y-87772936D01*
%TO.C,C2*%
X94561252Y-70515000D02*
X94038748Y-70515000D01*
X94561252Y-71985000D02*
X94038748Y-71985000D01*
%TO.C,U4*%
X100400000Y-82350000D02*
X100900000Y-82350000D01*
X100400000Y-82850000D02*
X100400000Y-82350000D01*
X100400000Y-85350000D02*
X100400000Y-84600000D01*
X105100000Y-82350000D02*
X105600000Y-82350000D01*
X105600000Y-82350000D02*
X105600000Y-82850000D01*
X105600000Y-85150000D02*
X105600000Y-85650000D01*
X105600000Y-85650000D02*
X105100000Y-85650000D01*
X100400000Y-85910000D02*
X100040000Y-85550000D01*
X100400000Y-85550000D01*
X100400000Y-85910000D01*
G36*
X100400000Y-85910000D02*
G01*
X100040000Y-85550000D01*
X100400000Y-85550000D01*
X100400000Y-85910000D01*
G37*
%TO.C,C12*%
X100515000Y-87788748D02*
X100515000Y-88311252D01*
X101985000Y-87788748D02*
X101985000Y-88311252D01*
%TO.C,J1*%
X90890000Y-81140000D02*
X90890000Y-93760000D01*
X90890000Y-93760000D02*
X96860000Y-93760000D01*
X91650000Y-81900000D02*
X91650000Y-87450000D01*
X91650000Y-93000000D02*
X91650000Y-87450000D01*
X94600000Y-81150000D02*
X94600000Y-81900000D01*
X94600000Y-81900000D02*
X91650000Y-81900000D01*
X94600000Y-93000000D02*
X91650000Y-93000000D01*
X94600000Y-93750000D02*
X94600000Y-93000000D01*
X96100000Y-81150000D02*
X96100000Y-82950000D01*
X96100000Y-82950000D02*
X96850000Y-82950000D01*
X96100000Y-84450000D02*
X96100000Y-90450000D01*
X96100000Y-90450000D02*
X96850000Y-90450000D01*
X96100000Y-91950000D02*
X96100000Y-93750000D01*
X96100000Y-93750000D02*
X96850000Y-93750000D01*
X96850000Y-81150000D02*
X96100000Y-81150000D01*
X96850000Y-82950000D02*
X96850000Y-81150000D01*
X96850000Y-84450000D02*
X96100000Y-84450000D01*
X96850000Y-90450000D02*
X96850000Y-84450000D01*
X96850000Y-91950000D02*
X96100000Y-91950000D01*
X96850000Y-93750000D02*
X96850000Y-91950000D01*
X96860000Y-81140000D02*
X90890000Y-81140000D01*
X96860000Y-93760000D02*
X96860000Y-81140000D01*
X97150000Y-80850000D02*
X95900000Y-80850000D01*
X97150000Y-82100000D02*
X97150000Y-80850000D01*
%TO.C,C4*%
X105015000Y-79261252D02*
X105015000Y-78738748D01*
X106485000Y-79261252D02*
X106485000Y-78738748D01*
%TO.C,R4*%
X98015000Y-92227064D02*
X98015000Y-91772936D01*
X99485000Y-92227064D02*
X99485000Y-91772936D01*
%TO.C,C5*%
X92261252Y-76265000D02*
X91738748Y-76265000D01*
X92261252Y-77735000D02*
X91738748Y-77735000D01*
%TO.C,J2*%
X100900000Y-63100000D02*
X100900000Y-54900000D01*
X108600000Y-59000000D02*
X109100000Y-59500000D01*
X109100000Y-54900000D02*
X100900000Y-54900000D01*
X109100000Y-58500000D02*
X108600000Y-59000000D01*
X109100000Y-63100000D02*
X100900000Y-63100000D01*
X109100000Y-63100000D02*
X109100000Y-54900000D01*
%TO.C,U3*%
X89840000Y-59040000D02*
X89990000Y-59040000D01*
X89840000Y-68960000D02*
X89840000Y-59040000D01*
X89840000Y-68960000D02*
X89990000Y-68960000D01*
X100010000Y-59040000D02*
X100160000Y-59040000D01*
X100010000Y-68960000D02*
X100160000Y-68960000D01*
X100160000Y-68960000D02*
X100160000Y-59040000D01*
X89990000Y-69430000D02*
X89660000Y-69670000D01*
X89660000Y-69190000D01*
X89990000Y-69430000D01*
G36*
X89990000Y-69430000D02*
G01*
X89660000Y-69670000D01*
X89660000Y-69190000D01*
X89990000Y-69430000D01*
G37*
%TO.C,C7*%
X91738748Y-74015000D02*
X92261252Y-74015000D01*
X91738748Y-75485000D02*
X92261252Y-75485000D01*
%TO.C,R1*%
X90015000Y-55477064D02*
X90015000Y-55022936D01*
X91485000Y-55477064D02*
X91485000Y-55022936D01*
D17*
%TO.C,U5*%
X103500000Y-91720000D02*
X105500000Y-91720000D01*
X105500000Y-88780000D02*
X103500000Y-88780000D01*
D19*
X106100000Y-89150000D02*
G75*
G02*
X105940000Y-89150000I-80000J0D01*
G01*
X105940000Y-89150000D02*
G75*
G02*
X106100000Y-89150000I80000J0D01*
G01*
D16*
%TO.C,C11*%
X100515000Y-91738748D02*
X100515000Y-92261252D01*
X101985000Y-91738748D02*
X101985000Y-92261252D01*
%TO.C,U2*%
X94150000Y-77400000D02*
X94650000Y-77400000D01*
X94150000Y-77900000D02*
X94150000Y-77400000D01*
X94150000Y-79100000D02*
X94150000Y-79100000D01*
X94150000Y-79600000D02*
X94150000Y-79100000D01*
X94650000Y-77400000D02*
X94650000Y-77400000D01*
X94650000Y-79600000D02*
X94150000Y-79600000D01*
X95850000Y-77400000D02*
X96150000Y-77400000D01*
X95850000Y-79600000D02*
X95850000Y-79600000D01*
X96350000Y-77400000D02*
X96350000Y-77400000D01*
X96350000Y-77900000D02*
X96350000Y-77600000D01*
X96350000Y-79100000D02*
X96350000Y-79600000D01*
X96350000Y-79600000D02*
X95850000Y-79600000D01*
X96710000Y-77400000D02*
X96350000Y-77400000D01*
X96350000Y-77040000D01*
X96710000Y-77400000D01*
G36*
X96710000Y-77400000D02*
G01*
X96350000Y-77400000D01*
X96350000Y-77040000D01*
X96710000Y-77400000D01*
G37*
%TO.C,C1*%
X98188748Y-70515000D02*
X98711252Y-70515000D01*
X98188748Y-71985000D02*
X98711252Y-71985000D01*
%TD*%
M02*
