M48
; DRILL file {KiCad 8.0.3} date 2024-10-23T15:01:43-0400
; FORMAT={-:-/ absolute / inch / decimal}
; #@! TF.CreationDate,2024-10-23T15:01:43-04:00
; #@! TF.GenerationSoftware,Kicad,Pcbnew,8.0.3
; #@! TF.FileFunction,Plated,1,2,PTH
FMAT,2
INCH
; #@! TA.AperFunction,Plated,PTH,ViaDrill
T1C0.0118
; #@! TA.AperFunction,Plated,PTH,ComponentDrill
T2C0.0374
; #@! TA.AperFunction,Plated,PTH,ComponentDrill
T3C0.0591
; #@! TA.AperFunction,Plated,PTH,ComponentDrill
T4C0.0669
%
G90
G05
T1
X3.5433Y-2.7638
X3.563Y-2.6417
X3.5748Y-2.4724
X3.5787Y-2.4055
X3.5827Y-2.5669
X3.5827Y-3.1693
X3.5866Y-2.2638
X3.6014Y-2.7766
X3.6063Y-2.6457
X3.6575Y-2.563
X3.6772Y-2.626
X3.689Y-2.4961
X3.6909Y-3.2185
X3.7008Y-2.9134
X3.7106Y-2.2539
X3.7441Y-2.6299
X3.752Y-2.4331
X3.7598Y-2.5709
X3.7638Y-2.3898
X3.7697Y-2.1926
X3.7874Y-2.0354
X3.7874Y-2.5118
X3.7992Y-2.2638
X3.8189Y-3.878
X3.8228Y-1.9134
X3.8346Y-2.2047
X3.8346Y-2.5669
X3.8465Y-2.6299
X3.8484Y-2.9823
X3.8583Y-2.4882
X3.8622Y-2.3976
X3.878Y-2.2362
X3.8898Y-2.4291
X3.9055Y-2.0079
X3.9075Y-3.187
X3.9173Y-2.4016
X3.9173Y-2.8642
X3.9173Y-3.3071
X3.921Y-2.1321
X3.9291Y-2.2283
X3.9331Y-2.4724
X3.9469Y-3.0217
X3.9528Y-2.3346
X3.9724Y-2.5039
X3.9764Y-2.122
X3.9843Y-2.3583
X3.9862Y-3.7008
X4.0057Y-3.3138
X4.0118Y-2.2913
X4.0197Y-2.3504
X4.0276Y-1.9291
X4.0276Y-2.063
X4.0453Y-3.5236
X4.0551Y-2.2953
X4.0551Y-2.3504
X4.0984Y-2.122
X4.1175Y-3.1805
X4.126Y-2.2205
X4.1298Y-3.0203
X4.1299Y-2.4291
X4.1831Y-3.0217
X4.2028Y-3.5148
X4.2126Y-3.435
X4.2362Y-2.3228
X4.2598Y-2.126
X4.2717Y-2.5118
X4.2717Y-3.189
T2
X3.7165Y-3.2953
X3.7165Y-3.3937
X3.7165Y-3.4921
X3.7165Y-3.5906
T3
X4.1339Y-2.3228
T4
X4.0339Y-2.2228
X4.0339Y-2.4228
X4.2339Y-2.2228
X4.2339Y-2.4228
M30
