%TF.GenerationSoftware,KiCad,Pcbnew,7.0.7*%
%TF.CreationDate,2024-01-17T20:42:02-05:00*%
%TF.ProjectId,Unified_Board,556e6966-6965-4645-9f42-6f6172642e6b,rev?*%
%TF.SameCoordinates,Original*%
%TF.FileFunction,Copper,L4,Bot*%
%TF.FilePolarity,Positive*%
%FSLAX46Y46*%
G04 Gerber Fmt 4.6, Leading zero omitted, Abs format (unit mm)*
G04 Created by KiCad (PCBNEW 7.0.7) date 2024-01-17 20:42:02*
%MOMM*%
%LPD*%
G01*
G04 APERTURE LIST*
%TA.AperFunction,ComponentPad*%
%ADD10R,1.700000X1.700000*%
%TD*%
%TA.AperFunction,ComponentPad*%
%ADD11O,1.700000X1.700000*%
%TD*%
%TA.AperFunction,ComponentPad*%
%ADD12R,2.600000X2.600000*%
%TD*%
%TA.AperFunction,ComponentPad*%
%ADD13C,2.600000*%
%TD*%
%TA.AperFunction,ComponentPad*%
%ADD14C,1.524000*%
%TD*%
%TA.AperFunction,SMDPad,CuDef*%
%ADD15R,5.080000X1.780000*%
%TD*%
%TA.AperFunction,SMDPad,CuDef*%
%ADD16R,3.960000X3.960000*%
%TD*%
%TA.AperFunction,ComponentPad*%
%ADD17C,2.000000*%
%TD*%
%TA.AperFunction,ViaPad*%
%ADD18C,0.800000*%
%TD*%
%TA.AperFunction,Conductor*%
%ADD19C,0.500000*%
%TD*%
%TA.AperFunction,Conductor*%
%ADD20C,0.250000*%
%TD*%
%TA.AperFunction,Conductor*%
%ADD21C,1.000000*%
%TD*%
G04 APERTURE END LIST*
D10*
%TO.P,J3,1,Pin_1*%
%TO.N,/3.3V*%
X107600000Y-96000000D03*
D11*
%TO.P,J3,2,Pin_2*%
%TO.N,/SCL*%
X107600000Y-98540000D03*
%TO.P,J3,3,Pin_3*%
%TO.N,/SDA*%
X107600000Y-101080000D03*
%TO.P,J3,4,Pin_4*%
%TO.N,GND*%
X107600000Y-103620000D03*
%TD*%
D12*
%TO.P,J1,1,Pin_1*%
%TO.N,Net-(J1-Pin_1)*%
X114500000Y-47000000D03*
D13*
%TO.P,J1,2,Pin_2*%
%TO.N,Net-(D6-K)*%
X118000000Y-47000000D03*
%TD*%
D14*
%TO.P,BZ1,1,-*%
%TO.N,Net-(BZ1--)*%
X137650000Y-51500000D03*
%TO.P,BZ1,2,+*%
%TO.N,GND*%
X145150000Y-51500000D03*
%TD*%
D10*
%TO.P,J2,1,Pin_1*%
%TO.N,/3.3V*%
X114600000Y-96000000D03*
D11*
%TO.P,J2,2,Pin_2*%
%TO.N,/Breakout_RX2*%
X114600000Y-98540000D03*
%TO.P,J2,3,Pin_3*%
%TO.N,/Breakout_TX2*%
X114600000Y-101080000D03*
%TO.P,J2,4,Pin_4*%
%TO.N,GND*%
X114600000Y-103620000D03*
%TD*%
D15*
%TO.P,BT1,1,+*%
%TO.N,/BACKUP*%
X151000000Y-89400000D03*
X151000000Y-80000000D03*
D16*
%TO.P,BT1,2,-*%
%TO.N,GND*%
X151000000Y-84700000D03*
%TD*%
D10*
%TO.P,J4,1,Pin_1*%
%TO.N,/3.3V*%
X121400000Y-96000000D03*
D11*
%TO.P,J4,2,Pin_2*%
%TO.N,/Breakout_RX1*%
X121400000Y-98540000D03*
%TO.P,J4,3,Pin_3*%
%TO.N,/Breakout_TX1*%
X121400000Y-101080000D03*
%TO.P,J4,4,Pin_4*%
%TO.N,GND*%
X121400000Y-103620000D03*
%TD*%
D15*
%TO.P,BT2,1,+*%
%TO.N,Net-(BT2-+)*%
X151000000Y-63100000D03*
X151000000Y-53700000D03*
D16*
%TO.P,BT2,2,-*%
%TO.N,GND*%
X151000000Y-58400000D03*
%TD*%
D17*
%TO.P,Teensy4.1,47,Vin*%
%TO.N,Net-(J1-Pin_1)*%
X95620000Y-44990000D03*
%TO.P,Teensy4.1,46,GND*%
%TO.N,Net-(D6-K)*%
X95620000Y-47530000D03*
%TO.P,Teensy4.1,45,3.3V*%
%TO.N,/3.3V*%
X95620000Y-50070000D03*
%TO.P,Teensy4.1,44,PWM*%
%TO.N,unconnected-(Teensy4.1-PWM-Pad44)*%
X95620000Y-52610000D03*
%TO.P,Teensy4.1,43,PWM*%
%TO.N,unconnected-(Teensy4.1-PWM-Pad43)*%
X95620000Y-55150000D03*
%TO.P,Teensy4.1,42,RX5*%
%TO.N,unconnected-(Teensy4.1-RX5-Pad42)*%
X95620000Y-57690000D03*
%TO.P,Teensy4.1,41,TX5*%
%TO.N,unconnected-(Teensy4.1-TX5-Pad41)*%
X95620000Y-60230000D03*
%TO.P,Teensy4.1,40,SCL*%
%TO.N,/SCL*%
X95620000Y-62770000D03*
%TO.P,Teensy4.1,39,SDA*%
%TO.N,/SDA*%
X95620000Y-65310000D03*
%TO.P,Teensy4.1,38,A3*%
%TO.N,unconnected-(Teensy4.1-A3-Pad38)*%
X95620000Y-67850000D03*
%TO.P,Teensy4.1,37,A2*%
%TO.N,unconnected-(Teensy4.1-A2-Pad37)*%
X95620000Y-70390000D03*
%TO.P,Teensy4.1,36,A1*%
%TO.N,unconnected-(Teensy4.1-A1-Pad36)*%
X95620000Y-72930000D03*
%TO.P,Teensy4.1,35,A0*%
%TO.N,unconnected-(Teensy4.1-A0-Pad35)*%
X95620000Y-75470000D03*
%TO.P,Teensy4.1,34,SCK*%
%TO.N,unconnected-(Teensy4.1-SCK-Pad34)*%
X95620000Y-78010000D03*
%TO.P,Teensy4.1,33,GND*%
%TO.N,unconnected-(Teensy4.1-GND-Pad33)*%
X95620000Y-80550000D03*
%TO.P,Teensy4.1,32,A17*%
%TO.N,unconnected-(Teensy4.1-A17-Pad32)*%
X95620000Y-83090000D03*
%TO.P,Teensy4.1,31,A16*%
%TO.N,unconnected-(Teensy4.1-A16-Pad31)*%
X95620000Y-85630000D03*
%TO.P,Teensy4.1,30,MISO*%
%TO.N,unconnected-(Teensy4.1-MISO-Pad30)*%
X95620000Y-88170000D03*
%TO.P,Teensy4.1,29,CS1*%
%TO.N,unconnected-(Teensy4.1-CS1-Pad29)*%
X95620000Y-90710000D03*
%TO.P,Teensy4.1,28,PWM*%
%TO.N,/BMP_INT*%
X95620000Y-93250000D03*
%TO.P,Teensy4.1,27,PWM*%
%TO.N,/BMP_I2C_ADDR*%
X95620000Y-95790000D03*
%TO.P,Teensy4.1,26,TX8*%
%TO.N,unconnected-(Teensy4.1-TX8-Pad26)*%
X95620000Y-98330000D03*
%TO.P,Teensy4.1,25,RX8*%
%TO.N,unconnected-(Teensy4.1-RX8-Pad25)*%
X95620000Y-100870000D03*
%TO.P,Teensy4.1,24,PWM*%
%TO.N,Net-(R14-Pad1)*%
X95620000Y-103410000D03*
%TO.P,Teensy4.1,23,GPIO*%
%TO.N,unconnected-(Teensy4.1-GPIO-Pad23)*%
X80380000Y-103410000D03*
%TO.P,Teensy4.1,22,GPIO*%
%TO.N,unconnected-(Teensy4.1-GPIO-Pad22)*%
X80380000Y-100870000D03*
%TO.P,Teensy4.1,21,GPIO*%
%TO.N,unconnected-(Teensy4.1-GPIO-Pad21)*%
X80380000Y-98330000D03*
%TO.P,Teensy4.1,20,TX7*%
%TO.N,unconnected-(Teensy4.1-TX7-Pad20)*%
X80380000Y-95790000D03*
%TO.P,Teensy4.1,19,RX7*%
%TO.N,unconnected-(Teensy4.1-RX7-Pad19)*%
X80380000Y-93250000D03*
%TO.P,Teensy4.1,18,SCK1*%
%TO.N,unconnected-(Teensy4.1-SCK1-Pad18)*%
X80380000Y-90710000D03*
%TO.P,Teensy4.1,17,MOSI1*%
%TO.N,unconnected-(Teensy4.1-MOSI1-Pad17)*%
X80380000Y-88170000D03*
%TO.P,Teensy4.1,16,SDA2*%
%TO.N,unconnected-(Teensy4.1-SDA2-Pad16)*%
X80380000Y-85630000D03*
%TO.P,Teensy4.1,15,SCL2*%
%TO.N,unconnected-(Teensy4.1-SCL2-Pad15)*%
X80380000Y-83090000D03*
%TO.P,Teensy4.1,14,3.3V*%
%TO.N,unconnected-(Teensy4.1-3.3V-Pad14)*%
X80380000Y-80550000D03*
%TO.P,Teensy4.1,13,MISO*%
%TO.N,unconnected-(Teensy4.1-MISO-Pad13)*%
X80380000Y-78010000D03*
%TO.P,Teensy4.1,12,MOSI*%
%TO.N,unconnected-(Teensy4.1-MOSI-Pad12)*%
X80380000Y-75470000D03*
%TO.P,Teensy4.1,11,CS*%
%TO.N,unconnected-(Teensy4.1-CS-Pad11)*%
X80380000Y-72930000D03*
%TO.P,Teensy4.1,10,PWM*%
%TO.N,unconnected-(Teensy4.1-PWM-Pad10)*%
X80380000Y-70390000D03*
%TO.P,Teensy4.1,9,TX2*%
%TO.N,/Breakout_TX2*%
X80380000Y-67850000D03*
%TO.P,Teensy4.1,8,RX2*%
%TO.N,/Breakout_RX2*%
X80380000Y-65310000D03*
%TO.P,Teensy4.1,7,PWM*%
%TO.N,unconnected-(Teensy4.1-PWM-Pad7)*%
X80380000Y-62770000D03*
%TO.P,Teensy4.1,6,PWM*%
%TO.N,unconnected-(Teensy4.1-PWM-Pad6)*%
X80380000Y-60230000D03*
%TO.P,Teensy4.1,5,PWM*%
%TO.N,unconnected-(Teensy4.1-PWM-Pad5)*%
X80380000Y-57690000D03*
%TO.P,Teensy4.1,4,PWM*%
%TO.N,unconnected-(Teensy4.1-PWM-Pad4)*%
X80380000Y-55150000D03*
%TO.P,Teensy4.1,3,PWM*%
%TO.N,unconnected-(Teensy4.1-PWM-Pad3)*%
X80380000Y-52610000D03*
%TO.P,Teensy4.1,2,TX1*%
%TO.N,/Breakout_TX1*%
X80380000Y-50070000D03*
%TO.P,Teensy4.1,1,RX1*%
%TO.N,/Breakout_RX1*%
X80380000Y-47530000D03*
%TO.P,Teensy4.1,0,GND*%
%TO.N,GND*%
X80380000Y-44990000D03*
%TD*%
D18*
%TO.N,/3.3V*%
X146000000Y-78200000D03*
%TO.N,GND*%
X145600000Y-58400000D03*
X141600000Y-83000000D03*
%TO.N,Net-(BT2-+)*%
X149000000Y-97800000D03*
%TO.N,/BACKUP*%
X143200000Y-86600000D03*
X133600000Y-90000000D03*
%TO.N,/SCL*%
X137400000Y-68400000D03*
%TO.N,GND*%
X142200000Y-67800000D03*
X150800000Y-67400000D03*
%TO.N,/3.3V*%
X143800000Y-71600000D03*
%TO.N,/SDA*%
X137200000Y-69600000D03*
%TO.N,/3.3V*%
X155800000Y-66800000D03*
X151000000Y-69400000D03*
%TO.N,/SDA*%
X143400000Y-96230898D03*
%TO.N,/SCL*%
X144600000Y-95200000D03*
%TO.N,GND*%
X129200000Y-91400000D03*
%TO.N,Net-(R14-Pad1)*%
X101500000Y-63100000D03*
%TO.N,GND*%
X148800000Y-77400000D03*
%TO.N,/3.3V*%
X155200000Y-93600000D03*
%TO.N,/SCL*%
X100200000Y-89600000D03*
%TO.N,/SDA*%
X100200000Y-93000000D03*
%TD*%
D19*
%TO.N,Net-(BT2-+)*%
X151000000Y-63400000D02*
X151000000Y-63100000D01*
X157400000Y-69800000D02*
X151000000Y-63400000D01*
X151700000Y-63100000D02*
X150200000Y-63100000D01*
X154400000Y-56400000D02*
X154400000Y-60400000D01*
X154400000Y-60400000D02*
X151700000Y-63100000D01*
X151700000Y-53700000D02*
X154400000Y-56400000D01*
X149300000Y-53700000D02*
X151700000Y-53700000D01*
%TO.N,/BACKUP*%
X151800000Y-80000000D02*
X151000000Y-80000000D01*
X154200000Y-82400000D02*
X151800000Y-80000000D01*
X151000000Y-89400000D02*
X151800000Y-89400000D01*
X151800000Y-89400000D02*
X154200000Y-87000000D01*
X154200000Y-87000000D02*
X154200000Y-82400000D01*
X149200000Y-91200000D02*
X151000000Y-89400000D01*
X134800000Y-91200000D02*
X149200000Y-91200000D01*
X133600000Y-90000000D02*
X134800000Y-91200000D01*
X144800000Y-89400000D02*
X151000000Y-89400000D01*
X143200000Y-87800000D02*
X144800000Y-89400000D01*
%TO.N,Net-(BT2-+)*%
X157400000Y-89400000D02*
X149000000Y-97800000D01*
X157400000Y-69800000D02*
X157400000Y-89400000D01*
X150200000Y-63100000D02*
X150700000Y-63100000D01*
%TO.N,GND*%
X150200000Y-58400000D02*
X145600000Y-58400000D01*
X143300000Y-84700000D02*
X141600000Y-83000000D01*
X150200000Y-84700000D02*
X143300000Y-84700000D01*
%TO.N,Net-(BT2-+)*%
X150200000Y-63100000D02*
X149300000Y-63100000D01*
%TO.N,/BACKUP*%
X143200000Y-87800000D02*
X143200000Y-86600000D01*
X150200000Y-89400000D02*
X149800000Y-89800000D01*
D20*
%TO.N,/SDA*%
X128200000Y-60600000D02*
X100330000Y-60600000D01*
X137200000Y-69600000D02*
X128200000Y-60600000D01*
X100330000Y-60600000D02*
X95620000Y-65310000D01*
%TO.N,/SCL*%
X128000000Y-59000000D02*
X99390000Y-59000000D01*
X137400000Y-68400000D02*
X128000000Y-59000000D01*
X95620000Y-62770000D02*
X99390000Y-59000000D01*
%TO.N,/SDA*%
X111315000Y-97365000D02*
X107600000Y-101080000D01*
X142265898Y-97365000D02*
X111315000Y-97365000D01*
X143400000Y-96230898D02*
X142265898Y-97365000D01*
%TO.N,/SCL*%
X143400000Y-94000000D02*
X144600000Y-95200000D01*
X107600000Y-98540000D02*
X112140000Y-94000000D01*
X112140000Y-94000000D02*
X143400000Y-94000000D01*
%TO.N,Net-(R14-Pad1)*%
X97600000Y-67000000D02*
X97600000Y-101430000D01*
X97600000Y-101430000D02*
X95620000Y-103410000D01*
X101500000Y-63100000D02*
X97600000Y-67000000D01*
%TO.N,/Breakout_TX1*%
X81946167Y-106850000D02*
X79055000Y-103958833D01*
X79055000Y-51395000D02*
X80380000Y-50070000D01*
X115630000Y-106850000D02*
X81946167Y-106850000D01*
X121400000Y-101080000D02*
X115630000Y-106850000D01*
X79055000Y-103958833D02*
X79055000Y-51395000D01*
%TO.N,/Breakout_RX2*%
X83000000Y-67930000D02*
X80380000Y-65310000D01*
X83000000Y-95200000D02*
X83000000Y-67930000D01*
X108400000Y-105600000D02*
X93400000Y-105600000D01*
X114600000Y-99400000D02*
X108400000Y-105600000D01*
X114600000Y-98540000D02*
X114600000Y-99400000D01*
X93400000Y-105600000D02*
X83000000Y-95200000D01*
%TO.N,/Breakout_TX2*%
X81705000Y-96905000D02*
X81705000Y-69175000D01*
X91200000Y-106400000D02*
X81705000Y-96905000D01*
X110000000Y-106400000D02*
X91200000Y-106400000D01*
X81705000Y-69175000D02*
X80380000Y-67850000D01*
X114600000Y-101080000D02*
X114600000Y-101800000D01*
X114600000Y-101800000D02*
X110000000Y-106400000D01*
%TO.N,/SCL*%
X100200000Y-91140000D02*
X107600000Y-98540000D01*
X100200000Y-89600000D02*
X100200000Y-91140000D01*
%TO.N,/SDA*%
X105680000Y-101080000D02*
X107600000Y-101080000D01*
X100200000Y-93000000D02*
X100200000Y-95600000D01*
X100200000Y-95600000D02*
X105680000Y-101080000D01*
D21*
%TO.N,Net-(D6-K)*%
X118000000Y-48000000D02*
X116000000Y-50000000D01*
X116000000Y-50000000D02*
X98090000Y-50000000D01*
X118000000Y-47000000D02*
X118000000Y-48000000D01*
X98090000Y-50000000D02*
X95620000Y-47530000D01*
%TD*%
M02*
