M48
; DRILL file {KiCad 9.0.5} date 2025-11-17T23:00:20-0500
; FORMAT={-:-/ absolute / inch / decimal}
; #@! TF.CreationDate,2025-11-17T23:00:20-05:00
; #@! TF.GenerationSoftware,Kicad,Pcbnew,9.0.5
; #@! TF.FileFunction,Plated,1,2,PTH
FMAT,2
INCH
; #@! TA.AperFunction,Plated,PTH,ViaDrill
T1C0.0118
; #@! TA.AperFunction,Plated,PTH,ComponentDrill
T2C0.0300
; #@! TA.AperFunction,Plated,PTH,ComponentDrill
T3C0.0374
; #@! TA.AperFunction,Plated,PTH,ComponentDrill
T4C0.0394
; #@! TA.AperFunction,Plated,PTH,ComponentDrill
T5C0.0402
%
G90
G05
T1
X5.1073Y-2.5
X5.1181Y-2.7402
X5.1231Y-2.6772
X5.2244Y-2.8267
X5.2362Y-2.6772
X5.2756Y-2.1654
X5.2756Y-2.8504
X5.2756Y-2.8976
X5.2953Y-2.5394
X5.2972Y-2.9528
X5.315Y-2.7756
X5.315Y-3.1525
X5.3346Y-3.0945
X5.3425Y-2.5079
X5.3543Y-2.2441
X5.3543Y-2.4213
X5.4331Y-2.874
X5.4528Y-1.6535
X5.4528Y-2.7559
X5.4528Y-2.815
X5.4921Y-2.2835
X5.4921Y-2.4016
X5.4943Y-1.8876
T2
X5.9646Y-3.6024
X5.9646Y-3.8976
T3
X5.8071Y-3.0512
X5.8071Y-3.1496
X5.8071Y-3.248
X5.8071Y-3.3465
X5.8661Y-1.7913
X5.8661Y-1.8898
X5.8661Y-1.9882
X5.8661Y-2.0866
T4
X5.3642Y-1.4545
X5.4626Y-1.4545
X5.76Y-1.4567
X5.8585Y-1.4567
T5
X4.9837Y-1.6339
X4.9837Y-1.7339
X4.9837Y-1.8339
X4.9837Y-1.9339
X4.9837Y-2.0339
X4.9837Y-2.1339
X4.9837Y-2.2339
X4.9837Y-2.3339
X4.9837Y-2.4339
X4.9837Y-2.5339
X4.9837Y-2.6339
X4.9837Y-2.7339
X4.9837Y-2.8339
X4.9837Y-2.9339
X4.9837Y-3.0339
X4.9837Y-3.1339
X4.9837Y-3.2339
X4.9837Y-3.3339
X4.9837Y-3.4339
X4.9837Y-3.5339
X4.9837Y-3.6339
X4.9837Y-3.7339
X4.9837Y-3.8339
X4.9837Y-3.9339
X5.5837Y-1.6339
X5.5837Y-1.7339
X5.5837Y-1.8339
X5.5837Y-1.9339
X5.5837Y-2.0339
X5.5837Y-2.1339
X5.5837Y-2.2339
X5.5837Y-2.3339
X5.5837Y-2.4339
X5.5837Y-2.5339
X5.5837Y-2.6339
X5.5837Y-2.7339
X5.5837Y-2.8339
X5.5837Y-2.9339
X5.5837Y-3.0339
X5.5837Y-3.1339
X5.5837Y-3.2339
X5.5837Y-3.3339
X5.5837Y-3.4339
X5.5837Y-3.5339
X5.5837Y-3.6339
X5.5837Y-3.7339
X5.5837Y-3.8339
X5.5837Y-3.9339
M30
