M48
; DRILL file {KiCad 9.0.2} date 2025-07-13T18:07:34-0400
; FORMAT={-:-/ absolute / metric / decimal}
; #@! TF.CreationDate,2025-07-13T18:07:34-04:00
; #@! TF.GenerationSoftware,Kicad,Pcbnew,9.0.2
; #@! TF.FileFunction,Plated,1,2,PTH
FMAT,2
METRIC
; #@! TA.AperFunction,Plated,PTH,ViaDrill
T1C0.300
; #@! TA.AperFunction,Plated,PTH,ComponentDrill
T2C1.000
%
G90
G05
T1
X144.175Y-85.6
X144.175Y-93.8
X147.4Y-92.3
X156.2Y-85.5
X156.2Y-86.3
X156.2Y-87.1
X156.7Y-88.0
X156.7Y-90.9
X157.2Y-85.5
X157.2Y-86.3
X157.2Y-87.1
X162.7Y-85.6
X165.9Y-92.3
X169.0Y-93.8
X169.1Y-85.5
X169.8Y-83.4
T2
X148.02Y-83.6
X150.56Y-83.6
X153.1Y-83.6
X158.72Y-80.4
X161.26Y-80.4
X163.8Y-80.4
M30
