%TF.GenerationSoftware,KiCad,Pcbnew,8.0.3*%
%TF.CreationDate,2024-10-23T15:03:03-04:00*%
%TF.ProjectId,mcu-board,6d63752d-626f-4617-9264-2e6b69636164,rev?*%
%TF.SameCoordinates,Original*%
%TF.FileFunction,Copper,L1,Top*%
%TF.FilePolarity,Positive*%
%FSLAX46Y46*%
G04 Gerber Fmt 4.6, Leading zero omitted, Abs format (unit mm)*
G04 Created by KiCad (PCBNEW 8.0.3) date 2024-10-23 15:03:03*
%MOMM*%
%LPD*%
G01*
G04 APERTURE LIST*
G04 Aperture macros list*
%AMRoundRect*
0 Rectangle with rounded corners*
0 $1 Rounding radius*
0 $2 $3 $4 $5 $6 $7 $8 $9 X,Y pos of 4 corners*
0 Add a 4 corners polygon primitive as box body*
4,1,4,$2,$3,$4,$5,$6,$7,$8,$9,$2,$3,0*
0 Add four circle primitives for the rounded corners*
1,1,$1+$1,$2,$3*
1,1,$1+$1,$4,$5*
1,1,$1+$1,$6,$7*
1,1,$1+$1,$8,$9*
0 Add four rect primitives between the rounded corners*
20,1,$1+$1,$2,$3,$4,$5,0*
20,1,$1+$1,$4,$5,$6,$7,0*
20,1,$1+$1,$6,$7,$8,$9,0*
20,1,$1+$1,$8,$9,$2,$3,0*%
G04 Aperture macros list end*
%TA.AperFunction,ComponentPad*%
%ADD10R,2.000000X2.000000*%
%TD*%
%TA.AperFunction,ComponentPad*%
%ADD11C,2.000000*%
%TD*%
%TA.AperFunction,ComponentPad*%
%ADD12C,1.524000*%
%TD*%
%TA.AperFunction,ComponentPad*%
%ADD13RoundRect,0.250000X-0.725000X0.600000X-0.725000X-0.600000X0.725000X-0.600000X0.725000X0.600000X0*%
%TD*%
%TA.AperFunction,ComponentPad*%
%ADD14O,1.950000X1.700000*%
%TD*%
%TA.AperFunction,SMDPad,CuDef*%
%ADD15RoundRect,0.250000X-0.450000X0.350000X-0.450000X-0.350000X0.450000X-0.350000X0.450000X0.350000X0*%
%TD*%
%TA.AperFunction,ComponentPad*%
%ADD16RoundRect,0.250000X0.600000X0.725000X-0.600000X0.725000X-0.600000X-0.725000X0.600000X-0.725000X0*%
%TD*%
%TA.AperFunction,ComponentPad*%
%ADD17O,1.700000X1.950000*%
%TD*%
%TA.AperFunction,ComponentPad*%
%ADD18RoundRect,0.250000X0.600000X0.750000X-0.600000X0.750000X-0.600000X-0.750000X0.600000X-0.750000X0*%
%TD*%
%TA.AperFunction,ComponentPad*%
%ADD19O,1.700000X2.000000*%
%TD*%
%TA.AperFunction,ComponentPad*%
%ADD20RoundRect,0.250000X0.725000X-0.600000X0.725000X0.600000X-0.725000X0.600000X-0.725000X-0.600000X0*%
%TD*%
%TA.AperFunction,SMDPad,CuDef*%
%ADD21RoundRect,0.250000X0.450000X-0.350000X0.450000X0.350000X-0.450000X0.350000X-0.450000X-0.350000X0*%
%TD*%
%TA.AperFunction,SMDPad,CuDef*%
%ADD22RoundRect,0.250000X0.350000X0.450000X-0.350000X0.450000X-0.350000X-0.450000X0.350000X-0.450000X0*%
%TD*%
%TA.AperFunction,SMDPad,CuDef*%
%ADD23RoundRect,0.250000X-0.325000X-0.450000X0.325000X-0.450000X0.325000X0.450000X-0.325000X0.450000X0*%
%TD*%
%TA.AperFunction,SMDPad,CuDef*%
%ADD24RoundRect,0.250000X0.450000X-0.325000X0.450000X0.325000X-0.450000X0.325000X-0.450000X-0.325000X0*%
%TD*%
%TA.AperFunction,ViaPad*%
%ADD25C,0.600000*%
%TD*%
%TA.AperFunction,Conductor*%
%ADD26C,0.200000*%
%TD*%
%TA.AperFunction,Conductor*%
%ADD27C,0.508000*%
%TD*%
G04 APERTURE END LIST*
D10*
%TO.P,J11,1,Pin_1*%
%TO.N,Net-(J11-Pin_1)*%
X172960000Y-35000000D03*
D11*
%TO.P,J11,2,Pin_2*%
%TO.N,Net-(J11-Pin_2)*%
X175500000Y-35000000D03*
%TD*%
D12*
%TO.P,BZ1,1,+*%
%TO.N,Net-(BZ1-+)*%
X178500000Y-108600000D03*
%TO.P,BZ1,2,-*%
%TO.N,GND*%
X186000000Y-108600000D03*
%TD*%
D13*
%TO.P,J8,1,Pin_1*%
%TO.N,GND*%
X182880000Y-78940000D03*
D14*
%TO.P,J8,2,Pin_2*%
%TO.N,+3.3V*%
X182880000Y-81440000D03*
%TO.P,J8,3,Pin_3*%
%TO.N,/MISO1*%
X182880000Y-83940000D03*
%TO.P,J8,4,Pin_4*%
%TO.N,/MOSI1*%
X182880000Y-86440000D03*
%TO.P,J8,5,Pin_5*%
%TO.N,/SCK1*%
X182880000Y-88940000D03*
%TO.P,J8,6,Pin_6*%
%TO.N,/CS1*%
X182880000Y-91440000D03*
%TD*%
D15*
%TO.P,R4,1*%
%TO.N,+3.3V*%
X154305000Y-82820000D03*
%TO.P,R4,2*%
%TO.N,/SCL2*%
X154305000Y-84820000D03*
%TD*%
D13*
%TO.P,J5,1,Pin_1*%
%TO.N,+3.3V*%
X182880000Y-48340000D03*
D14*
%TO.P,J5,2,Pin_2*%
%TO.N,/RX5*%
X182880000Y-50840000D03*
%TO.P,J5,3,Pin_3*%
%TO.N,/TX5*%
X182880000Y-53340000D03*
%TO.P,J5,4,Pin_4*%
%TO.N,GND*%
X182880000Y-55840000D03*
%TD*%
D16*
%TO.P,J3,1,Pin_1*%
%TO.N,+3.3V*%
X154940000Y-34290000D03*
D17*
%TO.P,J3,2,Pin_2*%
%TO.N,/RX1*%
X152440000Y-34290000D03*
%TO.P,J3,3,Pin_3*%
%TO.N,/TX1*%
X149940000Y-34290000D03*
%TO.P,J3,4,Pin_4*%
%TO.N,GND*%
X147440000Y-34290000D03*
%TD*%
D18*
%TO.P,J9,1,Pin_1*%
%TO.N,Net-(J11-Pin_2)*%
X184250000Y-34290000D03*
D19*
%TO.P,J9,2,Pin_2*%
%TO.N,GND*%
X181750000Y-34290000D03*
%TD*%
D13*
%TO.P,J1,1,Pin_1*%
%TO.N,+3.3V*%
X182880000Y-63620000D03*
D14*
%TO.P,J1,2,Pin_2*%
%TO.N,/SDA0*%
X182880000Y-66120000D03*
%TO.P,J1,3,Pin_3*%
%TO.N,/SCL0*%
X182880000Y-68620000D03*
%TO.P,J1,4,Pin_4*%
%TO.N,GND*%
X182880000Y-71120000D03*
%TD*%
D20*
%TO.P,J2,1,Pin_1*%
%TO.N,+3.3V*%
X147320000Y-91440000D03*
D14*
%TO.P,J2,2,Pin_2*%
%TO.N,/SDA2*%
X147320000Y-88940000D03*
%TO.P,J2,3,Pin_3*%
%TO.N,/SCL2*%
X147320000Y-86440000D03*
%TO.P,J2,4,Pin_4*%
%TO.N,GND*%
X147320000Y-83940000D03*
%TD*%
D21*
%TO.P,R5,1*%
%TO.N,+3.3V*%
X163210000Y-35500000D03*
%TO.P,R5,2*%
%TO.N,Net-(D1-A)*%
X163210000Y-33500000D03*
%TD*%
D15*
%TO.P,R3,1*%
%TO.N,/SDA2*%
X154305000Y-87900000D03*
%TO.P,R3,2*%
%TO.N,+3.3V*%
X154305000Y-89900000D03*
%TD*%
D16*
%TO.P,J7,1,Pin_1*%
%TO.N,+3.3V*%
X154800000Y-112000000D03*
D17*
%TO.P,J7,2,Pin_2*%
%TO.N,/RX8*%
X152300000Y-112000000D03*
%TO.P,J7,3,Pin_3*%
%TO.N,/TX8*%
X149800000Y-112000000D03*
%TO.P,J7,4,Pin_4*%
%TO.N,GND*%
X147300000Y-112000000D03*
%TD*%
D21*
%TO.P,R1,1*%
%TO.N,/SDA0*%
X175895000Y-61960000D03*
%TO.P,R1,2*%
%TO.N,+3.3V*%
X175895000Y-59960000D03*
%TD*%
%TO.P,R2,1*%
%TO.N,+3.3V*%
X175895000Y-69580000D03*
%TO.P,R2,2*%
%TO.N,/SCL0*%
X175895000Y-67580000D03*
%TD*%
D16*
%TO.P,J6,1,Pin_1*%
%TO.N,+3.3V*%
X154860000Y-105400000D03*
D17*
%TO.P,J6,2,Pin_2*%
%TO.N,/RX7*%
X152360000Y-105400000D03*
%TO.P,J6,3,Pin_3*%
%TO.N,/TX7*%
X149860000Y-105400000D03*
%TO.P,J6,4,Pin_4*%
%TO.N,GND*%
X147360000Y-105400000D03*
%TD*%
D22*
%TO.P,R6,1*%
%TO.N,Net-(D2-A)*%
X173750000Y-106250000D03*
%TO.P,R6,2*%
%TO.N,Net-(R6-Pad2)*%
X171750000Y-106250000D03*
%TD*%
D20*
%TO.P,J10,1,Pin_1*%
%TO.N,GND*%
X147320000Y-76200000D03*
D14*
%TO.P,J10,2,Pin_2*%
%TO.N,+3.3V*%
X147320000Y-73700000D03*
%TO.P,J10,3,Pin_3*%
%TO.N,/MISO0*%
X147320000Y-71200000D03*
%TO.P,J10,4,Pin_4*%
%TO.N,/MOSI0*%
X147320000Y-68700000D03*
%TO.P,J10,5,Pin_5*%
%TO.N,/SCK0*%
X147320000Y-66200000D03*
%TO.P,J10,6,Pin_6*%
%TO.N,/CS0*%
X147320000Y-63700000D03*
%TD*%
D11*
%TO.P,Teensy4.2,0,GND*%
%TO.N,GND*%
X157480000Y-41910000D03*
%TO.P,Teensy4.2,1,RX1*%
%TO.N,/RX1*%
X157480000Y-44450000D03*
%TO.P,Teensy4.2,2,TX1*%
%TO.N,/TX1*%
X157480000Y-46990000D03*
%TO.P,Teensy4.2,3,PWM*%
%TO.N,unconnected-(Teensy4.2-PWM-Pad3)*%
X157480000Y-49530000D03*
%TO.P,Teensy4.2,4,PWM*%
%TO.N,unconnected-(Teensy4.2-PWM-Pad4)*%
X157480000Y-52070000D03*
%TO.P,Teensy4.2,5,PWM*%
%TO.N,unconnected-(Teensy4.2-PWM-Pad5)*%
X157480000Y-54610000D03*
%TO.P,Teensy4.2,6,PWM*%
%TO.N,unconnected-(Teensy4.2-PWM-Pad6)*%
X157480000Y-57150000D03*
%TO.P,Teensy4.2,7,PWM*%
%TO.N,unconnected-(Teensy4.2-PWM-Pad7)*%
X157480000Y-59690000D03*
%TO.P,Teensy4.2,8,RX2*%
%TO.N,/RX2*%
X157480000Y-62230000D03*
%TO.P,Teensy4.2,9,TX2*%
%TO.N,/TX2*%
X157480000Y-64770000D03*
%TO.P,Teensy4.2,10,PWM*%
%TO.N,unconnected-(Teensy4.2-PWM-Pad10)*%
X157480000Y-67310000D03*
%TO.P,Teensy4.2,11,CS*%
%TO.N,/CS0*%
X157480000Y-69850000D03*
%TO.P,Teensy4.2,12,MOSI*%
%TO.N,/MOSI0*%
X157480000Y-72390000D03*
%TO.P,Teensy4.2,13,MISO*%
%TO.N,/MISO0*%
X157480000Y-74930000D03*
%TO.P,Teensy4.2,14,3.3V*%
%TO.N,+3.3V*%
X157480000Y-77470000D03*
%TO.P,Teensy4.2,15,SCL2*%
%TO.N,/SCL2*%
X157480000Y-80010000D03*
%TO.P,Teensy4.2,16,SDA2*%
%TO.N,/SDA2*%
X157480000Y-82550000D03*
%TO.P,Teensy4.2,17,MOSI1*%
%TO.N,/MOSI1*%
X157480000Y-85090000D03*
%TO.P,Teensy4.2,18,SCK1*%
%TO.N,/SCK1*%
X157480000Y-87630000D03*
%TO.P,Teensy4.2,19,RX7*%
%TO.N,/RX7*%
X157480000Y-90170000D03*
%TO.P,Teensy4.2,20,TX7*%
%TO.N,/TX7*%
X157480000Y-92710000D03*
%TO.P,Teensy4.2,21,GPIO*%
%TO.N,unconnected-(Teensy4.2-GPIO-Pad21)*%
X157480000Y-95250000D03*
%TO.P,Teensy4.2,22,GPIO*%
%TO.N,unconnected-(Teensy4.2-GPIO-Pad22)*%
X157480000Y-97790000D03*
%TO.P,Teensy4.2,23,GPIO*%
%TO.N,Net-(R6-Pad2)*%
X157480000Y-100330000D03*
%TO.P,Teensy4.2,24,PWM*%
%TO.N,Net-(BZ1-+)*%
X172720000Y-100330000D03*
%TO.P,Teensy4.2,25,RX8*%
%TO.N,/RX8*%
X172720000Y-97790000D03*
%TO.P,Teensy4.2,26,TX8*%
%TO.N,/TX8*%
X172720000Y-95250000D03*
%TO.P,Teensy4.2,27,PWM*%
%TO.N,unconnected-(Teensy4.2-PWM-Pad27)*%
X172720000Y-92710000D03*
%TO.P,Teensy4.2,28,PWM*%
%TO.N,unconnected-(Teensy4.2-PWM-Pad28)*%
X172720000Y-90170000D03*
%TO.P,Teensy4.2,29,CS1*%
%TO.N,/CS1*%
X172720000Y-87630000D03*
%TO.P,Teensy4.2,30,MISO*%
%TO.N,/MISO1*%
X172720000Y-85090000D03*
%TO.P,Teensy4.2,31,A16*%
%TO.N,unconnected-(Teensy4.2-A16-Pad31)*%
X172720000Y-82550000D03*
%TO.P,Teensy4.2,32,A17*%
%TO.N,unconnected-(Teensy4.2-A17-Pad32)*%
X172720000Y-80010000D03*
%TO.P,Teensy4.2,33,GND*%
%TO.N,GND*%
X172720000Y-77470000D03*
%TO.P,Teensy4.2,34,SCK*%
%TO.N,/SCK0*%
X172720000Y-74930000D03*
%TO.P,Teensy4.2,35,A0*%
%TO.N,unconnected-(Teensy4.2-A0-Pad35)*%
X172720000Y-72390000D03*
%TO.P,Teensy4.2,36,A1*%
%TO.N,unconnected-(Teensy4.2-A1-Pad36)*%
X172720000Y-69850000D03*
%TO.P,Teensy4.2,37,A2*%
%TO.N,unconnected-(Teensy4.2-A2-Pad37)*%
X172720000Y-67310000D03*
%TO.P,Teensy4.2,38,A3*%
%TO.N,unconnected-(Teensy4.2-A3-Pad38)*%
X172720000Y-64770000D03*
%TO.P,Teensy4.2,39,SDA*%
%TO.N,/SDA0*%
X172720000Y-62230000D03*
%TO.P,Teensy4.2,40,SCL*%
%TO.N,/SCL0*%
X172720000Y-59690000D03*
%TO.P,Teensy4.2,41,TX5*%
%TO.N,/RX5*%
X172720000Y-57150000D03*
%TO.P,Teensy4.2,42,RX5*%
%TO.N,/TX5*%
X172720000Y-54610000D03*
%TO.P,Teensy4.2,43,PWM*%
%TO.N,unconnected-(Teensy4.2-PWM-Pad43)*%
X172720000Y-52070000D03*
%TO.P,Teensy4.2,44,PWM*%
%TO.N,unconnected-(Teensy4.2-PWM-Pad44)*%
X172720000Y-49530000D03*
%TO.P,Teensy4.2,45,3.3V*%
%TO.N,unconnected-(Teensy4.2-3.3V-Pad45)*%
X172720000Y-46990000D03*
%TO.P,Teensy4.2,46,GND*%
%TO.N,GND*%
X172720000Y-44450000D03*
%TO.P,Teensy4.2,47,Vin*%
%TO.N,Net-(J11-Pin_1)*%
X172720000Y-41910000D03*
%TD*%
D20*
%TO.P,J4,1,Pin_1*%
%TO.N,+3.3V*%
X147320000Y-55880000D03*
D14*
%TO.P,J4,2,Pin_2*%
%TO.N,/RX2*%
X147320000Y-53380000D03*
%TO.P,J4,3,Pin_3*%
%TO.N,/TX2*%
X147320000Y-50880000D03*
%TO.P,J4,4,Pin_4*%
%TO.N,GND*%
X147320000Y-48380000D03*
%TD*%
D23*
%TO.P,D2,1,K*%
%TO.N,GND*%
X171725000Y-111000000D03*
%TO.P,D2,2,A*%
%TO.N,Net-(D2-A)*%
X173775000Y-111000000D03*
%TD*%
D24*
%TO.P,D1,1,K*%
%TO.N,GND*%
X165750000Y-35525000D03*
%TO.P,D1,2,A*%
%TO.N,Net-(D1-A)*%
X165750000Y-33475000D03*
%TD*%
D25*
%TO.N,Net-(R6-Pad2)*%
X170500000Y-106250000D03*
%TD*%
D26*
%TO.N,/SCL0*%
X174600000Y-66200000D02*
X174600000Y-61600000D01*
X175895000Y-67580000D02*
X176800000Y-67580000D01*
X172720000Y-59720000D02*
X172720000Y-59690000D01*
X177840000Y-68620000D02*
X182880000Y-68620000D01*
X175895000Y-67580000D02*
X175895000Y-67495000D01*
X174600000Y-61600000D02*
X172720000Y-59720000D01*
X175895000Y-67495000D02*
X174600000Y-66200000D01*
X176800000Y-67580000D02*
X177840000Y-68620000D01*
%TO.N,GND*%
X147320000Y-83940000D02*
X147320000Y-76200000D01*
X144145000Y-37585000D02*
X144145000Y-45205000D01*
X148715000Y-33015000D02*
X152916346Y-33015000D01*
X168665000Y-44450000D02*
X165490000Y-41275000D01*
X172720000Y-44450000D02*
X168665000Y-44450000D01*
X152916346Y-33015000D02*
X153590000Y-33688654D01*
X158115000Y-41275000D02*
X165490000Y-41275000D01*
X171725000Y-111000000D02*
X172725000Y-112000000D01*
X144145000Y-45205000D02*
X147320000Y-48380000D01*
X147440000Y-34290000D02*
X144145000Y-37585000D01*
X145645000Y-85615000D02*
X145645000Y-95020000D01*
X171420000Y-101580000D02*
X171420000Y-78770000D01*
X165750000Y-37480000D02*
X172720000Y-44450000D01*
X147320000Y-76200000D02*
X145645000Y-74525000D01*
X182880000Y-78940000D02*
X174190000Y-78940000D01*
X182880000Y-78940000D02*
X182880000Y-71120000D01*
X172725000Y-112000000D02*
X182600000Y-112000000D01*
X153590000Y-33688654D02*
X153590000Y-38020000D01*
X145645000Y-74525000D02*
X145645000Y-50055000D01*
X157480000Y-41910000D02*
X158115000Y-41275000D01*
X174190000Y-78940000D02*
X172720000Y-77470000D01*
X147400000Y-105400000D02*
X149200000Y-107200000D01*
X144145000Y-96520000D02*
X144145000Y-102185000D01*
X147440000Y-34290000D02*
X148715000Y-33015000D01*
X147360000Y-105400000D02*
X147400000Y-105400000D01*
X153590000Y-38020000D02*
X157480000Y-41910000D01*
X145645000Y-50055000D02*
X147320000Y-48380000D01*
X147320000Y-83940000D02*
X145645000Y-85615000D01*
X149200000Y-107200000D02*
X165800000Y-107200000D01*
X165750000Y-35525000D02*
X165750000Y-37480000D01*
X165800000Y-107200000D02*
X171420000Y-101580000D01*
X171420000Y-78770000D02*
X172720000Y-77470000D01*
X182600000Y-112000000D02*
X186000000Y-108600000D01*
X144145000Y-102185000D02*
X147360000Y-105400000D01*
X145645000Y-95020000D02*
X144145000Y-96520000D01*
%TO.N,/SDA0*%
X180055000Y-66120000D02*
X175895000Y-61960000D01*
X182880000Y-66120000D02*
X180055000Y-66120000D01*
%TO.N,+3.3V*%
X162560000Y-31690000D02*
X161750000Y-32500000D01*
X186750000Y-44470000D02*
X186750000Y-32500000D01*
X183515000Y-69736346D02*
X184155000Y-69096346D01*
X184555000Y-50015000D02*
X182880000Y-48340000D01*
X161750000Y-32500000D02*
X161750000Y-34040000D01*
X156150000Y-35500000D02*
X163210000Y-35500000D01*
X154305000Y-80645000D02*
X157480000Y-77470000D01*
X147320000Y-91440000D02*
X152765000Y-91440000D01*
X146918654Y-85090000D02*
X152035000Y-85090000D01*
X184155000Y-69096346D02*
X184155000Y-64895000D01*
X184155000Y-64895000D02*
X182880000Y-63620000D01*
X146045000Y-85963654D02*
X146918654Y-85090000D01*
X152765000Y-91440000D02*
X154305000Y-89900000D01*
X151090000Y-77470000D02*
X147320000Y-73700000D01*
X186750000Y-32500000D02*
X185940000Y-31690000D01*
X182880000Y-63620000D02*
X179555000Y-63620000D01*
X147320000Y-73700000D02*
X146045000Y-72425000D01*
X182880000Y-48340000D02*
X186750000Y-44470000D01*
X182880000Y-81440000D02*
X184155000Y-80165000D01*
X185940000Y-31690000D02*
X162560000Y-31690000D01*
X157480000Y-77470000D02*
X151090000Y-77470000D01*
X146045000Y-57155000D02*
X147320000Y-55880000D01*
X161750000Y-34040000D02*
X163210000Y-35500000D01*
X183481346Y-69770000D02*
X183515000Y-69736346D01*
X176085000Y-69770000D02*
X183481346Y-69770000D01*
X175895000Y-69580000D02*
X176085000Y-69770000D01*
X154940000Y-34290000D02*
X156150000Y-35500000D01*
X184555000Y-61945000D02*
X184555000Y-50015000D01*
X182880000Y-63620000D02*
X184555000Y-61945000D01*
X152035000Y-85090000D02*
X154305000Y-82820000D01*
X147320000Y-91440000D02*
X146045000Y-90165000D01*
X179555000Y-63620000D02*
X175895000Y-59960000D01*
X184155000Y-70376346D02*
X183515000Y-69736346D01*
X154305000Y-82820000D02*
X154305000Y-80645000D01*
X184155000Y-80165000D02*
X184155000Y-70376346D01*
X146045000Y-72425000D02*
X146045000Y-57155000D01*
X146045000Y-90165000D02*
X146045000Y-85963654D01*
%TO.N,/SDA2*%
X154305000Y-87900000D02*
X153400000Y-87900000D01*
X155575000Y-86630000D02*
X154305000Y-87900000D01*
X155575000Y-84455000D02*
X155575000Y-86630000D01*
X157480000Y-82550000D02*
X155575000Y-84455000D01*
X152360000Y-88940000D02*
X147320000Y-88940000D01*
X153400000Y-87900000D02*
X152360000Y-88940000D01*
%TO.N,/SCL2*%
X157480000Y-80010000D02*
X155305000Y-82185000D01*
X155305000Y-82185000D02*
X155305000Y-83820000D01*
X155305000Y-83820000D02*
X154305000Y-84820000D01*
X147320000Y-86440000D02*
X152685000Y-86440000D01*
X152685000Y-86440000D02*
X154305000Y-84820000D01*
%TO.N,/TX1*%
X151765000Y-36830000D02*
X149940000Y-35005000D01*
X157480000Y-46990000D02*
X151765000Y-41275000D01*
X151765000Y-41275000D02*
X151765000Y-36830000D01*
X149940000Y-35005000D02*
X149940000Y-34290000D01*
%TO.N,/RX1*%
X152440000Y-39410000D02*
X152440000Y-34290000D01*
X157480000Y-44450000D02*
X152440000Y-39410000D01*
%TO.N,/TX2*%
X146718654Y-54530000D02*
X146045000Y-53856346D01*
X148595000Y-55885000D02*
X148595000Y-55045256D01*
X148595000Y-55045256D02*
X148079744Y-54530000D01*
X146045000Y-52155000D02*
X147320000Y-50880000D01*
X148079744Y-54530000D02*
X146718654Y-54530000D01*
X157480000Y-64770000D02*
X148595000Y-55885000D01*
X146045000Y-53856346D02*
X146045000Y-52155000D01*
%TO.N,/RX2*%
X148630000Y-53380000D02*
X147320000Y-53380000D01*
X157480000Y-62230000D02*
X148630000Y-53380000D01*
%TO.N,/TX5*%
X173990000Y-53340000D02*
X172720000Y-54610000D01*
X182880000Y-53340000D02*
X173990000Y-53340000D01*
%TO.N,/RX5*%
X175380000Y-54490000D02*
X183481346Y-54490000D01*
X184155000Y-52115000D02*
X182880000Y-50840000D01*
X183481346Y-54490000D02*
X184155000Y-53816346D01*
X172720000Y-57150000D02*
X175380000Y-54490000D01*
X184155000Y-53816346D02*
X184155000Y-52115000D01*
%TO.N,/RX7*%
X149383654Y-106675000D02*
X151085000Y-106675000D01*
X152635000Y-100799314D02*
X148710000Y-104724314D01*
X157480000Y-90170000D02*
X152635000Y-95015000D01*
X151085000Y-106675000D02*
X152360000Y-105400000D01*
X148710000Y-106001346D02*
X149383654Y-106675000D01*
X152635000Y-95015000D02*
X152635000Y-100799314D01*
X148710000Y-104724314D02*
X148710000Y-106001346D01*
%TO.N,/TX7*%
X153035000Y-100965000D02*
X149860000Y-104140000D01*
X157480000Y-92710000D02*
X153035000Y-97155000D01*
X153035000Y-97155000D02*
X153035000Y-100965000D01*
X149860000Y-104140000D02*
X149860000Y-105400000D01*
%TO.N,/TX8*%
X175000000Y-100500000D02*
X175000000Y-97530000D01*
X149800000Y-112000000D02*
X152800000Y-109000000D01*
X175000000Y-97530000D02*
X172720000Y-95250000D01*
X152800000Y-109000000D02*
X166500000Y-109000000D01*
X166500000Y-109000000D02*
X175000000Y-100500000D01*
%TO.N,/RX8*%
X148826346Y-113275000D02*
X148500000Y-112948654D01*
X173258478Y-101675836D02*
X173258478Y-101630000D01*
X151250000Y-108250000D02*
X166684314Y-108250000D01*
X166684314Y-108250000D02*
X173258478Y-101675836D01*
X148500000Y-112948654D02*
X148500000Y-111000000D01*
X174020000Y-99090000D02*
X172720000Y-97790000D01*
X173258478Y-101630000D02*
X174020000Y-100868478D01*
X148500000Y-111000000D02*
X151250000Y-108250000D01*
X152300000Y-112000000D02*
X151025000Y-113275000D01*
X174020000Y-100868478D02*
X174020000Y-99090000D01*
X151025000Y-113275000D02*
X148826346Y-113275000D01*
%TO.N,/MISO1*%
X172720000Y-85090000D02*
X181730000Y-85090000D01*
X181730000Y-85090000D02*
X182880000Y-83940000D01*
%TO.N,/CS1*%
X172720000Y-87630000D02*
X173355000Y-87630000D01*
X173355000Y-87630000D02*
X177165000Y-91440000D01*
X177165000Y-91440000D02*
X182880000Y-91440000D01*
%TO.N,/MOSI0*%
X157480000Y-72390000D02*
X151010000Y-72390000D01*
X151010000Y-72390000D02*
X147320000Y-68700000D01*
%TO.N,/MISO0*%
X157480000Y-74930000D02*
X151050000Y-74930000D01*
X151050000Y-74930000D02*
X147320000Y-71200000D01*
%TO.N,/CS0*%
X157480000Y-69850000D02*
X153470000Y-69850000D01*
X153470000Y-69850000D02*
X147320000Y-63700000D01*
%TO.N,Net-(D1-A)*%
X165725000Y-33500000D02*
X165750000Y-33475000D01*
X163210000Y-33500000D02*
X165725000Y-33500000D01*
%TO.N,Net-(D2-A)*%
X173775000Y-111000000D02*
X173775000Y-106275000D01*
X173775000Y-106275000D02*
X173750000Y-106250000D01*
%TO.N,Net-(R6-Pad2)*%
X171750000Y-106250000D02*
X170500000Y-106250000D01*
D27*
%TO.N,Net-(J11-Pin_1)*%
X172960000Y-41670000D02*
X172720000Y-41910000D01*
%TD*%
M02*
