%TF.GenerationSoftware,KiCad,Pcbnew,9.0.0*%
%TF.CreationDate,2026-01-12T14:03:56-05:00*%
%TF.ProjectId,nick_egorov_flight_computer,6e69636b-5f65-4676-9f72-6f765f666c69,rev?*%
%TF.SameCoordinates,Original*%
%TF.FileFunction,Legend,Top*%
%TF.FilePolarity,Positive*%
%FSLAX46Y46*%
G04 Gerber Fmt 4.6, Leading zero omitted, Abs format (unit mm)*
G04 Created by KiCad (PCBNEW 9.0.0) date 2026-01-12 14:03:56*
%MOMM*%
%LPD*%
G01*
G04 APERTURE LIST*
%ADD10C,0.050000*%
%ADD11C,0.100000*%
%ADD12C,0.150000*%
%ADD13C,0.125000*%
%ADD14C,0.120000*%
%ADD15C,0.127000*%
%ADD16C,0.304800*%
%ADD17C,0.152400*%
G04 APERTURE END LIST*
D10*
X112852650Y-140481851D02*
X112852650Y-140148518D01*
X112852650Y-140243756D02*
X112876460Y-140196137D01*
X112876460Y-140196137D02*
X112900269Y-140172327D01*
X112900269Y-140172327D02*
X112947888Y-140148518D01*
X112947888Y-140148518D02*
X112995507Y-140148518D01*
X113352650Y-140458042D02*
X113305031Y-140481851D01*
X113305031Y-140481851D02*
X113209793Y-140481851D01*
X113209793Y-140481851D02*
X113162174Y-140458042D01*
X113162174Y-140458042D02*
X113138365Y-140410422D01*
X113138365Y-140410422D02*
X113138365Y-140219946D01*
X113138365Y-140219946D02*
X113162174Y-140172327D01*
X113162174Y-140172327D02*
X113209793Y-140148518D01*
X113209793Y-140148518D02*
X113305031Y-140148518D01*
X113305031Y-140148518D02*
X113352650Y-140172327D01*
X113352650Y-140172327D02*
X113376460Y-140219946D01*
X113376460Y-140219946D02*
X113376460Y-140267565D01*
X113376460Y-140267565D02*
X113138365Y-140315184D01*
X113543126Y-140148518D02*
X113662174Y-140481851D01*
X113662174Y-140481851D02*
X113781221Y-140148518D01*
X113971697Y-140481851D02*
X113971697Y-140148518D01*
X113971697Y-139981851D02*
X113947888Y-140005661D01*
X113947888Y-140005661D02*
X113971697Y-140029470D01*
X113971697Y-140029470D02*
X113995507Y-140005661D01*
X113995507Y-140005661D02*
X113971697Y-139981851D01*
X113971697Y-139981851D02*
X113971697Y-140029470D01*
X114185983Y-140458042D02*
X114233602Y-140481851D01*
X114233602Y-140481851D02*
X114328840Y-140481851D01*
X114328840Y-140481851D02*
X114376459Y-140458042D01*
X114376459Y-140458042D02*
X114400268Y-140410422D01*
X114400268Y-140410422D02*
X114400268Y-140386613D01*
X114400268Y-140386613D02*
X114376459Y-140338994D01*
X114376459Y-140338994D02*
X114328840Y-140315184D01*
X114328840Y-140315184D02*
X114257411Y-140315184D01*
X114257411Y-140315184D02*
X114209792Y-140291375D01*
X114209792Y-140291375D02*
X114185983Y-140243756D01*
X114185983Y-140243756D02*
X114185983Y-140219946D01*
X114185983Y-140219946D02*
X114209792Y-140172327D01*
X114209792Y-140172327D02*
X114257411Y-140148518D01*
X114257411Y-140148518D02*
X114328840Y-140148518D01*
X114328840Y-140148518D02*
X114376459Y-140172327D01*
X114805030Y-140458042D02*
X114757411Y-140481851D01*
X114757411Y-140481851D02*
X114662173Y-140481851D01*
X114662173Y-140481851D02*
X114614554Y-140458042D01*
X114614554Y-140458042D02*
X114590745Y-140410422D01*
X114590745Y-140410422D02*
X114590745Y-140219946D01*
X114590745Y-140219946D02*
X114614554Y-140172327D01*
X114614554Y-140172327D02*
X114662173Y-140148518D01*
X114662173Y-140148518D02*
X114757411Y-140148518D01*
X114757411Y-140148518D02*
X114805030Y-140172327D01*
X114805030Y-140172327D02*
X114828840Y-140219946D01*
X114828840Y-140219946D02*
X114828840Y-140267565D01*
X114828840Y-140267565D02*
X114590745Y-140315184D01*
X115257411Y-140481851D02*
X115257411Y-139981851D01*
X115257411Y-140458042D02*
X115209792Y-140481851D01*
X115209792Y-140481851D02*
X115114554Y-140481851D01*
X115114554Y-140481851D02*
X115066935Y-140458042D01*
X115066935Y-140458042D02*
X115043125Y-140434232D01*
X115043125Y-140434232D02*
X115019316Y-140386613D01*
X115019316Y-140386613D02*
X115019316Y-140243756D01*
X115019316Y-140243756D02*
X115043125Y-140196137D01*
X115043125Y-140196137D02*
X115066935Y-140172327D01*
X115066935Y-140172327D02*
X115114554Y-140148518D01*
X115114554Y-140148518D02*
X115209792Y-140148518D01*
X115209792Y-140148518D02*
X115257411Y-140172327D01*
D11*
X111040063Y-141641495D02*
X110468635Y-141641495D01*
X110754349Y-141641495D02*
X110754349Y-140841495D01*
X110754349Y-140841495D02*
X110659111Y-140955780D01*
X110659111Y-140955780D02*
X110563873Y-141031971D01*
X110563873Y-141031971D02*
X110468635Y-141070066D01*
X112182920Y-140803400D02*
X111325778Y-141831971D01*
X112421016Y-140841495D02*
X113087682Y-140841495D01*
X113087682Y-140841495D02*
X112659111Y-141641495D01*
X114182920Y-140803400D02*
X113325778Y-141831971D01*
X114468635Y-140917685D02*
X114516254Y-140879590D01*
X114516254Y-140879590D02*
X114611492Y-140841495D01*
X114611492Y-140841495D02*
X114849587Y-140841495D01*
X114849587Y-140841495D02*
X114944825Y-140879590D01*
X114944825Y-140879590D02*
X114992444Y-140917685D01*
X114992444Y-140917685D02*
X115040063Y-140993876D01*
X115040063Y-140993876D02*
X115040063Y-141070066D01*
X115040063Y-141070066D02*
X114992444Y-141184352D01*
X114992444Y-141184352D02*
X114421016Y-141641495D01*
X114421016Y-141641495D02*
X115040063Y-141641495D01*
X115659111Y-140841495D02*
X115754349Y-140841495D01*
X115754349Y-140841495D02*
X115849587Y-140879590D01*
X115849587Y-140879590D02*
X115897206Y-140917685D01*
X115897206Y-140917685D02*
X115944825Y-140993876D01*
X115944825Y-140993876D02*
X115992444Y-141146257D01*
X115992444Y-141146257D02*
X115992444Y-141336733D01*
X115992444Y-141336733D02*
X115944825Y-141489114D01*
X115944825Y-141489114D02*
X115897206Y-141565304D01*
X115897206Y-141565304D02*
X115849587Y-141603400D01*
X115849587Y-141603400D02*
X115754349Y-141641495D01*
X115754349Y-141641495D02*
X115659111Y-141641495D01*
X115659111Y-141641495D02*
X115563873Y-141603400D01*
X115563873Y-141603400D02*
X115516254Y-141565304D01*
X115516254Y-141565304D02*
X115468635Y-141489114D01*
X115468635Y-141489114D02*
X115421016Y-141336733D01*
X115421016Y-141336733D02*
X115421016Y-141146257D01*
X115421016Y-141146257D02*
X115468635Y-140993876D01*
X115468635Y-140993876D02*
X115516254Y-140917685D01*
X115516254Y-140917685D02*
X115563873Y-140879590D01*
X115563873Y-140879590D02*
X115659111Y-140841495D01*
X116373397Y-140917685D02*
X116421016Y-140879590D01*
X116421016Y-140879590D02*
X116516254Y-140841495D01*
X116516254Y-140841495D02*
X116754349Y-140841495D01*
X116754349Y-140841495D02*
X116849587Y-140879590D01*
X116849587Y-140879590D02*
X116897206Y-140917685D01*
X116897206Y-140917685D02*
X116944825Y-140993876D01*
X116944825Y-140993876D02*
X116944825Y-141070066D01*
X116944825Y-141070066D02*
X116897206Y-141184352D01*
X116897206Y-141184352D02*
X116325778Y-141641495D01*
X116325778Y-141641495D02*
X116944825Y-141641495D01*
X117801968Y-140841495D02*
X117611492Y-140841495D01*
X117611492Y-140841495D02*
X117516254Y-140879590D01*
X117516254Y-140879590D02*
X117468635Y-140917685D01*
X117468635Y-140917685D02*
X117373397Y-141031971D01*
X117373397Y-141031971D02*
X117325778Y-141184352D01*
X117325778Y-141184352D02*
X117325778Y-141489114D01*
X117325778Y-141489114D02*
X117373397Y-141565304D01*
X117373397Y-141565304D02*
X117421016Y-141603400D01*
X117421016Y-141603400D02*
X117516254Y-141641495D01*
X117516254Y-141641495D02*
X117706730Y-141641495D01*
X117706730Y-141641495D02*
X117801968Y-141603400D01*
X117801968Y-141603400D02*
X117849587Y-141565304D01*
X117849587Y-141565304D02*
X117897206Y-141489114D01*
X117897206Y-141489114D02*
X117897206Y-141298638D01*
X117897206Y-141298638D02*
X117849587Y-141222447D01*
X117849587Y-141222447D02*
X117801968Y-141184352D01*
X117801968Y-141184352D02*
X117706730Y-141146257D01*
X117706730Y-141146257D02*
X117516254Y-141146257D01*
X117516254Y-141146257D02*
X117421016Y-141184352D01*
X117421016Y-141184352D02*
X117373397Y-141222447D01*
X117373397Y-141222447D02*
X117325778Y-141298638D01*
X111164776Y-138795842D02*
X110764776Y-138795842D01*
X110964776Y-138795842D02*
X110964776Y-138295842D01*
X110964776Y-138295842D02*
X110898109Y-138367271D01*
X110898109Y-138367271D02*
X110831443Y-138414890D01*
X110831443Y-138414890D02*
X110764776Y-138438699D01*
X111598110Y-138295842D02*
X111664776Y-138295842D01*
X111664776Y-138295842D02*
X111731443Y-138319652D01*
X111731443Y-138319652D02*
X111764776Y-138343461D01*
X111764776Y-138343461D02*
X111798110Y-138391080D01*
X111798110Y-138391080D02*
X111831443Y-138486318D01*
X111831443Y-138486318D02*
X111831443Y-138605366D01*
X111831443Y-138605366D02*
X111798110Y-138700604D01*
X111798110Y-138700604D02*
X111764776Y-138748223D01*
X111764776Y-138748223D02*
X111731443Y-138772033D01*
X111731443Y-138772033D02*
X111664776Y-138795842D01*
X111664776Y-138795842D02*
X111598110Y-138795842D01*
X111598110Y-138795842D02*
X111531443Y-138772033D01*
X111531443Y-138772033D02*
X111498110Y-138748223D01*
X111498110Y-138748223D02*
X111464776Y-138700604D01*
X111464776Y-138700604D02*
X111431443Y-138605366D01*
X111431443Y-138605366D02*
X111431443Y-138486318D01*
X111431443Y-138486318D02*
X111464776Y-138391080D01*
X111464776Y-138391080D02*
X111498110Y-138343461D01*
X111498110Y-138343461D02*
X111531443Y-138319652D01*
X111531443Y-138319652D02*
X111598110Y-138295842D01*
X112631443Y-138272033D02*
X112031443Y-138914890D01*
X112798110Y-138295842D02*
X113231443Y-138295842D01*
X113231443Y-138295842D02*
X112998110Y-138486318D01*
X112998110Y-138486318D02*
X113098110Y-138486318D01*
X113098110Y-138486318D02*
X113164776Y-138510128D01*
X113164776Y-138510128D02*
X113198110Y-138533937D01*
X113198110Y-138533937D02*
X113231443Y-138581556D01*
X113231443Y-138581556D02*
X113231443Y-138700604D01*
X113231443Y-138700604D02*
X113198110Y-138748223D01*
X113198110Y-138748223D02*
X113164776Y-138772033D01*
X113164776Y-138772033D02*
X113098110Y-138795842D01*
X113098110Y-138795842D02*
X112898110Y-138795842D01*
X112898110Y-138795842D02*
X112831443Y-138772033D01*
X112831443Y-138772033D02*
X112798110Y-138748223D01*
X113898110Y-138795842D02*
X113498110Y-138795842D01*
X113698110Y-138795842D02*
X113698110Y-138295842D01*
X113698110Y-138295842D02*
X113631443Y-138367271D01*
X113631443Y-138367271D02*
X113564777Y-138414890D01*
X113564777Y-138414890D02*
X113498110Y-138438699D01*
X114698110Y-138272033D02*
X114098110Y-138914890D01*
X114898110Y-138343461D02*
X114931443Y-138319652D01*
X114931443Y-138319652D02*
X114998110Y-138295842D01*
X114998110Y-138295842D02*
X115164777Y-138295842D01*
X115164777Y-138295842D02*
X115231443Y-138319652D01*
X115231443Y-138319652D02*
X115264777Y-138343461D01*
X115264777Y-138343461D02*
X115298110Y-138391080D01*
X115298110Y-138391080D02*
X115298110Y-138438699D01*
X115298110Y-138438699D02*
X115264777Y-138510128D01*
X115264777Y-138510128D02*
X114864777Y-138795842D01*
X114864777Y-138795842D02*
X115298110Y-138795842D01*
X115731444Y-138295842D02*
X115798110Y-138295842D01*
X115798110Y-138295842D02*
X115864777Y-138319652D01*
X115864777Y-138319652D02*
X115898110Y-138343461D01*
X115898110Y-138343461D02*
X115931444Y-138391080D01*
X115931444Y-138391080D02*
X115964777Y-138486318D01*
X115964777Y-138486318D02*
X115964777Y-138605366D01*
X115964777Y-138605366D02*
X115931444Y-138700604D01*
X115931444Y-138700604D02*
X115898110Y-138748223D01*
X115898110Y-138748223D02*
X115864777Y-138772033D01*
X115864777Y-138772033D02*
X115798110Y-138795842D01*
X115798110Y-138795842D02*
X115731444Y-138795842D01*
X115731444Y-138795842D02*
X115664777Y-138772033D01*
X115664777Y-138772033D02*
X115631444Y-138748223D01*
X115631444Y-138748223D02*
X115598110Y-138700604D01*
X115598110Y-138700604D02*
X115564777Y-138605366D01*
X115564777Y-138605366D02*
X115564777Y-138486318D01*
X115564777Y-138486318D02*
X115598110Y-138391080D01*
X115598110Y-138391080D02*
X115631444Y-138343461D01*
X115631444Y-138343461D02*
X115664777Y-138319652D01*
X115664777Y-138319652D02*
X115731444Y-138295842D01*
X116231444Y-138343461D02*
X116264777Y-138319652D01*
X116264777Y-138319652D02*
X116331444Y-138295842D01*
X116331444Y-138295842D02*
X116498111Y-138295842D01*
X116498111Y-138295842D02*
X116564777Y-138319652D01*
X116564777Y-138319652D02*
X116598111Y-138343461D01*
X116598111Y-138343461D02*
X116631444Y-138391080D01*
X116631444Y-138391080D02*
X116631444Y-138438699D01*
X116631444Y-138438699D02*
X116598111Y-138510128D01*
X116598111Y-138510128D02*
X116198111Y-138795842D01*
X116198111Y-138795842D02*
X116631444Y-138795842D01*
X117264778Y-138295842D02*
X116931444Y-138295842D01*
X116931444Y-138295842D02*
X116898111Y-138533937D01*
X116898111Y-138533937D02*
X116931444Y-138510128D01*
X116931444Y-138510128D02*
X116998111Y-138486318D01*
X116998111Y-138486318D02*
X117164778Y-138486318D01*
X117164778Y-138486318D02*
X117231444Y-138510128D01*
X117231444Y-138510128D02*
X117264778Y-138533937D01*
X117264778Y-138533937D02*
X117298111Y-138581556D01*
X117298111Y-138581556D02*
X117298111Y-138700604D01*
X117298111Y-138700604D02*
X117264778Y-138748223D01*
X117264778Y-138748223D02*
X117231444Y-138772033D01*
X117231444Y-138772033D02*
X117164778Y-138795842D01*
X117164778Y-138795842D02*
X116998111Y-138795842D01*
X116998111Y-138795842D02*
X116931444Y-138772033D01*
X116931444Y-138772033D02*
X116898111Y-138748223D01*
X131903884Y-125177180D02*
X131951503Y-125224800D01*
X131951503Y-125224800D02*
X131903884Y-125272419D01*
X131903884Y-125272419D02*
X131856265Y-125224800D01*
X131856265Y-125224800D02*
X131903884Y-125177180D01*
X131903884Y-125177180D02*
X131903884Y-125272419D01*
X131903884Y-124653371D02*
X131951503Y-124700990D01*
X131951503Y-124700990D02*
X131903884Y-124748609D01*
X131903884Y-124748609D02*
X131856265Y-124700990D01*
X131856265Y-124700990D02*
X131903884Y-124653371D01*
X131903884Y-124653371D02*
X131903884Y-124748609D01*
X132284836Y-125653371D02*
X132332455Y-125605752D01*
X132332455Y-125605752D02*
X132427693Y-125462895D01*
X132427693Y-125462895D02*
X132475312Y-125367657D01*
X132475312Y-125367657D02*
X132522931Y-125224800D01*
X132522931Y-125224800D02*
X132570550Y-124986704D01*
X132570550Y-124986704D02*
X132570550Y-124796228D01*
X132570550Y-124796228D02*
X132522931Y-124558133D01*
X132522931Y-124558133D02*
X132475312Y-124415276D01*
X132475312Y-124415276D02*
X132427693Y-124320038D01*
X132427693Y-124320038D02*
X132332455Y-124177180D01*
X132332455Y-124177180D02*
X132284836Y-124129561D01*
X106922931Y-68762475D02*
X106922931Y-67762475D01*
X106922931Y-67762475D02*
X107780074Y-68762475D01*
X107780074Y-68762475D02*
X107780074Y-67762475D01*
X108494360Y-68762475D02*
X108494360Y-68095808D01*
X108494360Y-67762475D02*
X108422932Y-67810094D01*
X108422932Y-67810094D02*
X108494360Y-67857713D01*
X108494360Y-67857713D02*
X108565789Y-67810094D01*
X108565789Y-67810094D02*
X108494360Y-67762475D01*
X108494360Y-67762475D02*
X108494360Y-67857713D01*
X109851504Y-68714856D02*
X109708646Y-68762475D01*
X109708646Y-68762475D02*
X109422932Y-68762475D01*
X109422932Y-68762475D02*
X109280075Y-68714856D01*
X109280075Y-68714856D02*
X109208646Y-68667236D01*
X109208646Y-68667236D02*
X109137218Y-68571998D01*
X109137218Y-68571998D02*
X109137218Y-68286284D01*
X109137218Y-68286284D02*
X109208646Y-68191046D01*
X109208646Y-68191046D02*
X109280075Y-68143427D01*
X109280075Y-68143427D02*
X109422932Y-68095808D01*
X109422932Y-68095808D02*
X109708646Y-68095808D01*
X109708646Y-68095808D02*
X109851504Y-68143427D01*
X110494360Y-68762475D02*
X110494360Y-67762475D01*
X110637218Y-68381522D02*
X111065789Y-68762475D01*
X111065789Y-68095808D02*
X110494360Y-68476760D01*
X112851503Y-68238665D02*
X113351503Y-68238665D01*
X113565789Y-68762475D02*
X112851503Y-68762475D01*
X112851503Y-68762475D02*
X112851503Y-67762475D01*
X112851503Y-67762475D02*
X113565789Y-67762475D01*
X114851504Y-68095808D02*
X114851504Y-68905332D01*
X114851504Y-68905332D02*
X114780075Y-69000570D01*
X114780075Y-69000570D02*
X114708646Y-69048189D01*
X114708646Y-69048189D02*
X114565789Y-69095808D01*
X114565789Y-69095808D02*
X114351504Y-69095808D01*
X114351504Y-69095808D02*
X114208646Y-69048189D01*
X114851504Y-68714856D02*
X114708646Y-68762475D01*
X114708646Y-68762475D02*
X114422932Y-68762475D01*
X114422932Y-68762475D02*
X114280075Y-68714856D01*
X114280075Y-68714856D02*
X114208646Y-68667236D01*
X114208646Y-68667236D02*
X114137218Y-68571998D01*
X114137218Y-68571998D02*
X114137218Y-68286284D01*
X114137218Y-68286284D02*
X114208646Y-68191046D01*
X114208646Y-68191046D02*
X114280075Y-68143427D01*
X114280075Y-68143427D02*
X114422932Y-68095808D01*
X114422932Y-68095808D02*
X114708646Y-68095808D01*
X114708646Y-68095808D02*
X114851504Y-68143427D01*
X115780075Y-68762475D02*
X115637218Y-68714856D01*
X115637218Y-68714856D02*
X115565789Y-68667236D01*
X115565789Y-68667236D02*
X115494361Y-68571998D01*
X115494361Y-68571998D02*
X115494361Y-68286284D01*
X115494361Y-68286284D02*
X115565789Y-68191046D01*
X115565789Y-68191046D02*
X115637218Y-68143427D01*
X115637218Y-68143427D02*
X115780075Y-68095808D01*
X115780075Y-68095808D02*
X115994361Y-68095808D01*
X115994361Y-68095808D02*
X116137218Y-68143427D01*
X116137218Y-68143427D02*
X116208647Y-68191046D01*
X116208647Y-68191046D02*
X116280075Y-68286284D01*
X116280075Y-68286284D02*
X116280075Y-68571998D01*
X116280075Y-68571998D02*
X116208647Y-68667236D01*
X116208647Y-68667236D02*
X116137218Y-68714856D01*
X116137218Y-68714856D02*
X115994361Y-68762475D01*
X115994361Y-68762475D02*
X115780075Y-68762475D01*
X116922932Y-68762475D02*
X116922932Y-68095808D01*
X116922932Y-68286284D02*
X116994361Y-68191046D01*
X116994361Y-68191046D02*
X117065790Y-68143427D01*
X117065790Y-68143427D02*
X117208647Y-68095808D01*
X117208647Y-68095808D02*
X117351504Y-68095808D01*
X118065789Y-68762475D02*
X117922932Y-68714856D01*
X117922932Y-68714856D02*
X117851503Y-68667236D01*
X117851503Y-68667236D02*
X117780075Y-68571998D01*
X117780075Y-68571998D02*
X117780075Y-68286284D01*
X117780075Y-68286284D02*
X117851503Y-68191046D01*
X117851503Y-68191046D02*
X117922932Y-68143427D01*
X117922932Y-68143427D02*
X118065789Y-68095808D01*
X118065789Y-68095808D02*
X118280075Y-68095808D01*
X118280075Y-68095808D02*
X118422932Y-68143427D01*
X118422932Y-68143427D02*
X118494361Y-68191046D01*
X118494361Y-68191046D02*
X118565789Y-68286284D01*
X118565789Y-68286284D02*
X118565789Y-68571998D01*
X118565789Y-68571998D02*
X118494361Y-68667236D01*
X118494361Y-68667236D02*
X118422932Y-68714856D01*
X118422932Y-68714856D02*
X118280075Y-68762475D01*
X118280075Y-68762475D02*
X118065789Y-68762475D01*
X119065789Y-68095808D02*
X119422932Y-68762475D01*
X119422932Y-68762475D02*
X119780075Y-68095808D01*
X107422931Y-69848609D02*
X106922931Y-69848609D01*
X106922931Y-70372419D02*
X106922931Y-69372419D01*
X106922931Y-69372419D02*
X107637217Y-69372419D01*
X108422931Y-70372419D02*
X108280074Y-70324800D01*
X108280074Y-70324800D02*
X108208645Y-70229561D01*
X108208645Y-70229561D02*
X108208645Y-69372419D01*
X108994359Y-70372419D02*
X108994359Y-69705752D01*
X108994359Y-69372419D02*
X108922931Y-69420038D01*
X108922931Y-69420038D02*
X108994359Y-69467657D01*
X108994359Y-69467657D02*
X109065788Y-69420038D01*
X109065788Y-69420038D02*
X108994359Y-69372419D01*
X108994359Y-69372419D02*
X108994359Y-69467657D01*
X110351503Y-69705752D02*
X110351503Y-70515276D01*
X110351503Y-70515276D02*
X110280074Y-70610514D01*
X110280074Y-70610514D02*
X110208645Y-70658133D01*
X110208645Y-70658133D02*
X110065788Y-70705752D01*
X110065788Y-70705752D02*
X109851503Y-70705752D01*
X109851503Y-70705752D02*
X109708645Y-70658133D01*
X110351503Y-70324800D02*
X110208645Y-70372419D01*
X110208645Y-70372419D02*
X109922931Y-70372419D01*
X109922931Y-70372419D02*
X109780074Y-70324800D01*
X109780074Y-70324800D02*
X109708645Y-70277180D01*
X109708645Y-70277180D02*
X109637217Y-70181942D01*
X109637217Y-70181942D02*
X109637217Y-69896228D01*
X109637217Y-69896228D02*
X109708645Y-69800990D01*
X109708645Y-69800990D02*
X109780074Y-69753371D01*
X109780074Y-69753371D02*
X109922931Y-69705752D01*
X109922931Y-69705752D02*
X110208645Y-69705752D01*
X110208645Y-69705752D02*
X110351503Y-69753371D01*
X111065788Y-70372419D02*
X111065788Y-69372419D01*
X111708646Y-70372419D02*
X111708646Y-69848609D01*
X111708646Y-69848609D02*
X111637217Y-69753371D01*
X111637217Y-69753371D02*
X111494360Y-69705752D01*
X111494360Y-69705752D02*
X111280074Y-69705752D01*
X111280074Y-69705752D02*
X111137217Y-69753371D01*
X111137217Y-69753371D02*
X111065788Y-69800990D01*
X112208646Y-69705752D02*
X112780074Y-69705752D01*
X112422931Y-69372419D02*
X112422931Y-70229561D01*
X112422931Y-70229561D02*
X112494360Y-70324800D01*
X112494360Y-70324800D02*
X112637217Y-70372419D01*
X112637217Y-70372419D02*
X112780074Y-70372419D01*
X115280074Y-70277180D02*
X115208646Y-70324800D01*
X115208646Y-70324800D02*
X114994360Y-70372419D01*
X114994360Y-70372419D02*
X114851503Y-70372419D01*
X114851503Y-70372419D02*
X114637217Y-70324800D01*
X114637217Y-70324800D02*
X114494360Y-70229561D01*
X114494360Y-70229561D02*
X114422931Y-70134323D01*
X114422931Y-70134323D02*
X114351503Y-69943847D01*
X114351503Y-69943847D02*
X114351503Y-69800990D01*
X114351503Y-69800990D02*
X114422931Y-69610514D01*
X114422931Y-69610514D02*
X114494360Y-69515276D01*
X114494360Y-69515276D02*
X114637217Y-69420038D01*
X114637217Y-69420038D02*
X114851503Y-69372419D01*
X114851503Y-69372419D02*
X114994360Y-69372419D01*
X114994360Y-69372419D02*
X115208646Y-69420038D01*
X115208646Y-69420038D02*
X115280074Y-69467657D01*
X116137217Y-70372419D02*
X115994360Y-70324800D01*
X115994360Y-70324800D02*
X115922931Y-70277180D01*
X115922931Y-70277180D02*
X115851503Y-70181942D01*
X115851503Y-70181942D02*
X115851503Y-69896228D01*
X115851503Y-69896228D02*
X115922931Y-69800990D01*
X115922931Y-69800990D02*
X115994360Y-69753371D01*
X115994360Y-69753371D02*
X116137217Y-69705752D01*
X116137217Y-69705752D02*
X116351503Y-69705752D01*
X116351503Y-69705752D02*
X116494360Y-69753371D01*
X116494360Y-69753371D02*
X116565789Y-69800990D01*
X116565789Y-69800990D02*
X116637217Y-69896228D01*
X116637217Y-69896228D02*
X116637217Y-70181942D01*
X116637217Y-70181942D02*
X116565789Y-70277180D01*
X116565789Y-70277180D02*
X116494360Y-70324800D01*
X116494360Y-70324800D02*
X116351503Y-70372419D01*
X116351503Y-70372419D02*
X116137217Y-70372419D01*
X117280074Y-70372419D02*
X117280074Y-69705752D01*
X117280074Y-69800990D02*
X117351503Y-69753371D01*
X117351503Y-69753371D02*
X117494360Y-69705752D01*
X117494360Y-69705752D02*
X117708646Y-69705752D01*
X117708646Y-69705752D02*
X117851503Y-69753371D01*
X117851503Y-69753371D02*
X117922932Y-69848609D01*
X117922932Y-69848609D02*
X117922932Y-70372419D01*
X117922932Y-69848609D02*
X117994360Y-69753371D01*
X117994360Y-69753371D02*
X118137217Y-69705752D01*
X118137217Y-69705752D02*
X118351503Y-69705752D01*
X118351503Y-69705752D02*
X118494360Y-69753371D01*
X118494360Y-69753371D02*
X118565789Y-69848609D01*
X118565789Y-69848609D02*
X118565789Y-70372419D01*
X119280074Y-69705752D02*
X119280074Y-70705752D01*
X119280074Y-69753371D02*
X119422932Y-69705752D01*
X119422932Y-69705752D02*
X119708646Y-69705752D01*
X119708646Y-69705752D02*
X119851503Y-69753371D01*
X119851503Y-69753371D02*
X119922932Y-69800990D01*
X119922932Y-69800990D02*
X119994360Y-69896228D01*
X119994360Y-69896228D02*
X119994360Y-70181942D01*
X119994360Y-70181942D02*
X119922932Y-70277180D01*
X119922932Y-70277180D02*
X119851503Y-70324800D01*
X119851503Y-70324800D02*
X119708646Y-70372419D01*
X119708646Y-70372419D02*
X119422932Y-70372419D01*
X119422932Y-70372419D02*
X119280074Y-70324800D01*
X121280075Y-69705752D02*
X121280075Y-70372419D01*
X120637217Y-69705752D02*
X120637217Y-70229561D01*
X120637217Y-70229561D02*
X120708646Y-70324800D01*
X120708646Y-70324800D02*
X120851503Y-70372419D01*
X120851503Y-70372419D02*
X121065789Y-70372419D01*
X121065789Y-70372419D02*
X121208646Y-70324800D01*
X121208646Y-70324800D02*
X121280075Y-70277180D01*
X121780075Y-69705752D02*
X122351503Y-69705752D01*
X121994360Y-69372419D02*
X121994360Y-70229561D01*
X121994360Y-70229561D02*
X122065789Y-70324800D01*
X122065789Y-70324800D02*
X122208646Y-70372419D01*
X122208646Y-70372419D02*
X122351503Y-70372419D01*
X123422932Y-70324800D02*
X123280075Y-70372419D01*
X123280075Y-70372419D02*
X122994361Y-70372419D01*
X122994361Y-70372419D02*
X122851503Y-70324800D01*
X122851503Y-70324800D02*
X122780075Y-70229561D01*
X122780075Y-70229561D02*
X122780075Y-69848609D01*
X122780075Y-69848609D02*
X122851503Y-69753371D01*
X122851503Y-69753371D02*
X122994361Y-69705752D01*
X122994361Y-69705752D02*
X123280075Y-69705752D01*
X123280075Y-69705752D02*
X123422932Y-69753371D01*
X123422932Y-69753371D02*
X123494361Y-69848609D01*
X123494361Y-69848609D02*
X123494361Y-69943847D01*
X123494361Y-69943847D02*
X122780075Y-70039085D01*
X124137217Y-70372419D02*
X124137217Y-69705752D01*
X124137217Y-69896228D02*
X124208646Y-69800990D01*
X124208646Y-69800990D02*
X124280075Y-69753371D01*
X124280075Y-69753371D02*
X124422932Y-69705752D01*
X124422932Y-69705752D02*
X124565789Y-69705752D01*
D12*
X128972080Y-102616666D02*
X129019700Y-102664285D01*
X129019700Y-102664285D02*
X129067319Y-102807142D01*
X129067319Y-102807142D02*
X129067319Y-102902380D01*
X129067319Y-102902380D02*
X129019700Y-103045237D01*
X129019700Y-103045237D02*
X128924461Y-103140475D01*
X128924461Y-103140475D02*
X128829223Y-103188094D01*
X128829223Y-103188094D02*
X128638747Y-103235713D01*
X128638747Y-103235713D02*
X128495890Y-103235713D01*
X128495890Y-103235713D02*
X128305414Y-103188094D01*
X128305414Y-103188094D02*
X128210176Y-103140475D01*
X128210176Y-103140475D02*
X128114938Y-103045237D01*
X128114938Y-103045237D02*
X128067319Y-102902380D01*
X128067319Y-102902380D02*
X128067319Y-102807142D01*
X128067319Y-102807142D02*
X128114938Y-102664285D01*
X128114938Y-102664285D02*
X128162557Y-102616666D01*
X128067319Y-101711904D02*
X128067319Y-102188094D01*
X128067319Y-102188094D02*
X128543509Y-102235713D01*
X128543509Y-102235713D02*
X128495890Y-102188094D01*
X128495890Y-102188094D02*
X128448271Y-102092856D01*
X128448271Y-102092856D02*
X128448271Y-101854761D01*
X128448271Y-101854761D02*
X128495890Y-101759523D01*
X128495890Y-101759523D02*
X128543509Y-101711904D01*
X128543509Y-101711904D02*
X128638747Y-101664285D01*
X128638747Y-101664285D02*
X128876842Y-101664285D01*
X128876842Y-101664285D02*
X128972080Y-101711904D01*
X128972080Y-101711904D02*
X129019700Y-101759523D01*
X129019700Y-101759523D02*
X129067319Y-101854761D01*
X129067319Y-101854761D02*
X129067319Y-102092856D01*
X129067319Y-102092856D02*
X129019700Y-102188094D01*
X129019700Y-102188094D02*
X128972080Y-102235713D01*
X129883333Y-129254819D02*
X129550000Y-128778628D01*
X129311905Y-129254819D02*
X129311905Y-128254819D01*
X129311905Y-128254819D02*
X129692857Y-128254819D01*
X129692857Y-128254819D02*
X129788095Y-128302438D01*
X129788095Y-128302438D02*
X129835714Y-128350057D01*
X129835714Y-128350057D02*
X129883333Y-128445295D01*
X129883333Y-128445295D02*
X129883333Y-128588152D01*
X129883333Y-128588152D02*
X129835714Y-128683390D01*
X129835714Y-128683390D02*
X129788095Y-128731009D01*
X129788095Y-128731009D02*
X129692857Y-128778628D01*
X129692857Y-128778628D02*
X129311905Y-128778628D01*
X130788095Y-128254819D02*
X130311905Y-128254819D01*
X130311905Y-128254819D02*
X130264286Y-128731009D01*
X130264286Y-128731009D02*
X130311905Y-128683390D01*
X130311905Y-128683390D02*
X130407143Y-128635771D01*
X130407143Y-128635771D02*
X130645238Y-128635771D01*
X130645238Y-128635771D02*
X130740476Y-128683390D01*
X130740476Y-128683390D02*
X130788095Y-128731009D01*
X130788095Y-128731009D02*
X130835714Y-128826247D01*
X130835714Y-128826247D02*
X130835714Y-129064342D01*
X130835714Y-129064342D02*
X130788095Y-129159580D01*
X130788095Y-129159580D02*
X130740476Y-129207200D01*
X130740476Y-129207200D02*
X130645238Y-129254819D01*
X130645238Y-129254819D02*
X130407143Y-129254819D01*
X130407143Y-129254819D02*
X130311905Y-129207200D01*
X130311905Y-129207200D02*
X130264286Y-129159580D01*
X124661905Y-134654819D02*
X124661905Y-133654819D01*
X124661905Y-133654819D02*
X124900000Y-133654819D01*
X124900000Y-133654819D02*
X125042857Y-133702438D01*
X125042857Y-133702438D02*
X125138095Y-133797676D01*
X125138095Y-133797676D02*
X125185714Y-133892914D01*
X125185714Y-133892914D02*
X125233333Y-134083390D01*
X125233333Y-134083390D02*
X125233333Y-134226247D01*
X125233333Y-134226247D02*
X125185714Y-134416723D01*
X125185714Y-134416723D02*
X125138095Y-134511961D01*
X125138095Y-134511961D02*
X125042857Y-134607200D01*
X125042857Y-134607200D02*
X124900000Y-134654819D01*
X124900000Y-134654819D02*
X124661905Y-134654819D01*
X126185714Y-134654819D02*
X125614286Y-134654819D01*
X125900000Y-134654819D02*
X125900000Y-133654819D01*
X125900000Y-133654819D02*
X125804762Y-133797676D01*
X125804762Y-133797676D02*
X125709524Y-133892914D01*
X125709524Y-133892914D02*
X125614286Y-133940533D01*
X118654278Y-103962672D02*
X119464617Y-103962672D01*
X119464617Y-103962672D02*
X119559951Y-103915005D01*
X119559951Y-103915005D02*
X119607619Y-103867338D01*
X119607619Y-103867338D02*
X119655286Y-103772004D01*
X119655286Y-103772004D02*
X119655286Y-103581336D01*
X119655286Y-103581336D02*
X119607619Y-103486002D01*
X119607619Y-103486002D02*
X119559951Y-103438335D01*
X119559951Y-103438335D02*
X119464617Y-103390668D01*
X119464617Y-103390668D02*
X118654278Y-103390668D01*
X118749612Y-102961664D02*
X118701945Y-102913997D01*
X118701945Y-102913997D02*
X118654278Y-102818663D01*
X118654278Y-102818663D02*
X118654278Y-102580328D01*
X118654278Y-102580328D02*
X118701945Y-102484994D01*
X118701945Y-102484994D02*
X118749612Y-102437327D01*
X118749612Y-102437327D02*
X118844946Y-102389660D01*
X118844946Y-102389660D02*
X118940280Y-102389660D01*
X118940280Y-102389660D02*
X119083281Y-102437327D01*
X119083281Y-102437327D02*
X119655286Y-103009331D01*
X119655286Y-103009331D02*
X119655286Y-102389660D01*
X130666666Y-107054819D02*
X130666666Y-107769104D01*
X130666666Y-107769104D02*
X130619047Y-107911961D01*
X130619047Y-107911961D02*
X130523809Y-108007200D01*
X130523809Y-108007200D02*
X130380952Y-108054819D01*
X130380952Y-108054819D02*
X130285714Y-108054819D01*
X131666666Y-108054819D02*
X131095238Y-108054819D01*
X131380952Y-108054819D02*
X131380952Y-107054819D01*
X131380952Y-107054819D02*
X131285714Y-107197676D01*
X131285714Y-107197676D02*
X131190476Y-107292914D01*
X131190476Y-107292914D02*
X131095238Y-107340533D01*
X119661905Y-134654819D02*
X119661905Y-133654819D01*
X119661905Y-133654819D02*
X119900000Y-133654819D01*
X119900000Y-133654819D02*
X120042857Y-133702438D01*
X120042857Y-133702438D02*
X120138095Y-133797676D01*
X120138095Y-133797676D02*
X120185714Y-133892914D01*
X120185714Y-133892914D02*
X120233333Y-134083390D01*
X120233333Y-134083390D02*
X120233333Y-134226247D01*
X120233333Y-134226247D02*
X120185714Y-134416723D01*
X120185714Y-134416723D02*
X120138095Y-134511961D01*
X120138095Y-134511961D02*
X120042857Y-134607200D01*
X120042857Y-134607200D02*
X119900000Y-134654819D01*
X119900000Y-134654819D02*
X119661905Y-134654819D01*
X120614286Y-133750057D02*
X120661905Y-133702438D01*
X120661905Y-133702438D02*
X120757143Y-133654819D01*
X120757143Y-133654819D02*
X120995238Y-133654819D01*
X120995238Y-133654819D02*
X121090476Y-133702438D01*
X121090476Y-133702438D02*
X121138095Y-133750057D01*
X121138095Y-133750057D02*
X121185714Y-133845295D01*
X121185714Y-133845295D02*
X121185714Y-133940533D01*
X121185714Y-133940533D02*
X121138095Y-134083390D01*
X121138095Y-134083390D02*
X120566667Y-134654819D01*
X120566667Y-134654819D02*
X121185714Y-134654819D01*
X125904819Y-83583333D02*
X126619104Y-83583333D01*
X126619104Y-83583333D02*
X126761961Y-83630952D01*
X126761961Y-83630952D02*
X126857200Y-83726190D01*
X126857200Y-83726190D02*
X126904819Y-83869047D01*
X126904819Y-83869047D02*
X126904819Y-83964285D01*
X126904819Y-82583333D02*
X126904819Y-83154761D01*
X126904819Y-82869047D02*
X125904819Y-82869047D01*
X125904819Y-82869047D02*
X126047676Y-82964285D01*
X126047676Y-82964285D02*
X126142914Y-83059523D01*
X126142914Y-83059523D02*
X126190533Y-83154761D01*
X129461905Y-134654819D02*
X129461905Y-133654819D01*
X129461905Y-133654819D02*
X129700000Y-133654819D01*
X129700000Y-133654819D02*
X129842857Y-133702438D01*
X129842857Y-133702438D02*
X129938095Y-133797676D01*
X129938095Y-133797676D02*
X129985714Y-133892914D01*
X129985714Y-133892914D02*
X130033333Y-134083390D01*
X130033333Y-134083390D02*
X130033333Y-134226247D01*
X130033333Y-134226247D02*
X129985714Y-134416723D01*
X129985714Y-134416723D02*
X129938095Y-134511961D01*
X129938095Y-134511961D02*
X129842857Y-134607200D01*
X129842857Y-134607200D02*
X129700000Y-134654819D01*
X129700000Y-134654819D02*
X129461905Y-134654819D01*
X130366667Y-133654819D02*
X130985714Y-133654819D01*
X130985714Y-133654819D02*
X130652381Y-134035771D01*
X130652381Y-134035771D02*
X130795238Y-134035771D01*
X130795238Y-134035771D02*
X130890476Y-134083390D01*
X130890476Y-134083390D02*
X130938095Y-134131009D01*
X130938095Y-134131009D02*
X130985714Y-134226247D01*
X130985714Y-134226247D02*
X130985714Y-134464342D01*
X130985714Y-134464342D02*
X130938095Y-134559580D01*
X130938095Y-134559580D02*
X130890476Y-134607200D01*
X130890476Y-134607200D02*
X130795238Y-134654819D01*
X130795238Y-134654819D02*
X130509524Y-134654819D01*
X130509524Y-134654819D02*
X130414286Y-134607200D01*
X130414286Y-134607200D02*
X130366667Y-134559580D01*
D13*
X120765476Y-96660295D02*
X120765476Y-97307914D01*
X120765476Y-97307914D02*
X120803571Y-97384104D01*
X120803571Y-97384104D02*
X120841666Y-97422200D01*
X120841666Y-97422200D02*
X120917857Y-97460295D01*
X120917857Y-97460295D02*
X121070238Y-97460295D01*
X121070238Y-97460295D02*
X121146428Y-97422200D01*
X121146428Y-97422200D02*
X121184523Y-97384104D01*
X121184523Y-97384104D02*
X121222619Y-97307914D01*
X121222619Y-97307914D02*
X121222619Y-96660295D01*
X121527380Y-96660295D02*
X122022618Y-96660295D01*
X122022618Y-96660295D02*
X121755952Y-96965057D01*
X121755952Y-96965057D02*
X121870237Y-96965057D01*
X121870237Y-96965057D02*
X121946428Y-97003152D01*
X121946428Y-97003152D02*
X121984523Y-97041247D01*
X121984523Y-97041247D02*
X122022618Y-97117438D01*
X122022618Y-97117438D02*
X122022618Y-97307914D01*
X122022618Y-97307914D02*
X121984523Y-97384104D01*
X121984523Y-97384104D02*
X121946428Y-97422200D01*
X121946428Y-97422200D02*
X121870237Y-97460295D01*
X121870237Y-97460295D02*
X121641666Y-97460295D01*
X121641666Y-97460295D02*
X121565475Y-97422200D01*
X121565475Y-97422200D02*
X121527380Y-97384104D01*
X120916666Y-92237067D02*
X120750000Y-91998972D01*
X120630952Y-92237067D02*
X120630952Y-91737067D01*
X120630952Y-91737067D02*
X120821428Y-91737067D01*
X120821428Y-91737067D02*
X120869047Y-91760877D01*
X120869047Y-91760877D02*
X120892857Y-91784686D01*
X120892857Y-91784686D02*
X120916666Y-91832305D01*
X120916666Y-91832305D02*
X120916666Y-91903734D01*
X120916666Y-91903734D02*
X120892857Y-91951353D01*
X120892857Y-91951353D02*
X120869047Y-91975162D01*
X120869047Y-91975162D02*
X120821428Y-91998972D01*
X120821428Y-91998972D02*
X120630952Y-91998972D01*
X121392857Y-92237067D02*
X121107143Y-92237067D01*
X121250000Y-92237067D02*
X121250000Y-91737067D01*
X121250000Y-91737067D02*
X121202381Y-91808496D01*
X121202381Y-91808496D02*
X121154762Y-91856115D01*
X121154762Y-91856115D02*
X121107143Y-91879924D01*
D12*
X117454819Y-78608333D02*
X118169104Y-78608333D01*
X118169104Y-78608333D02*
X118311961Y-78655952D01*
X118311961Y-78655952D02*
X118407200Y-78751190D01*
X118407200Y-78751190D02*
X118454819Y-78894047D01*
X118454819Y-78894047D02*
X118454819Y-78989285D01*
X117550057Y-78179761D02*
X117502438Y-78132142D01*
X117502438Y-78132142D02*
X117454819Y-78036904D01*
X117454819Y-78036904D02*
X117454819Y-77798809D01*
X117454819Y-77798809D02*
X117502438Y-77703571D01*
X117502438Y-77703571D02*
X117550057Y-77655952D01*
X117550057Y-77655952D02*
X117645295Y-77608333D01*
X117645295Y-77608333D02*
X117740533Y-77608333D01*
X117740533Y-77608333D02*
X117883390Y-77655952D01*
X117883390Y-77655952D02*
X118454819Y-78227380D01*
X118454819Y-78227380D02*
X118454819Y-77608333D01*
X117954819Y-86083333D02*
X118669104Y-86083333D01*
X118669104Y-86083333D02*
X118811961Y-86130952D01*
X118811961Y-86130952D02*
X118907200Y-86226190D01*
X118907200Y-86226190D02*
X118954819Y-86369047D01*
X118954819Y-86369047D02*
X118954819Y-86464285D01*
X117954819Y-85702380D02*
X117954819Y-85083333D01*
X117954819Y-85083333D02*
X118335771Y-85416666D01*
X118335771Y-85416666D02*
X118335771Y-85273809D01*
X118335771Y-85273809D02*
X118383390Y-85178571D01*
X118383390Y-85178571D02*
X118431009Y-85130952D01*
X118431009Y-85130952D02*
X118526247Y-85083333D01*
X118526247Y-85083333D02*
X118764342Y-85083333D01*
X118764342Y-85083333D02*
X118859580Y-85130952D01*
X118859580Y-85130952D02*
X118907200Y-85178571D01*
X118907200Y-85178571D02*
X118954819Y-85273809D01*
X118954819Y-85273809D02*
X118954819Y-85559523D01*
X118954819Y-85559523D02*
X118907200Y-85654761D01*
X118907200Y-85654761D02*
X118859580Y-85702380D01*
D11*
X124833609Y-119080952D02*
X124881228Y-118938095D01*
X124881228Y-118938095D02*
X124928847Y-118890476D01*
X124928847Y-118890476D02*
X125024085Y-118842857D01*
X125024085Y-118842857D02*
X125166942Y-118842857D01*
X125166942Y-118842857D02*
X125262180Y-118890476D01*
X125262180Y-118890476D02*
X125309800Y-118938095D01*
X125309800Y-118938095D02*
X125357419Y-119033333D01*
X125357419Y-119033333D02*
X125357419Y-119414285D01*
X125357419Y-119414285D02*
X124357419Y-119414285D01*
X124357419Y-119414285D02*
X124357419Y-119080952D01*
X124357419Y-119080952D02*
X124405038Y-118985714D01*
X124405038Y-118985714D02*
X124452657Y-118938095D01*
X124452657Y-118938095D02*
X124547895Y-118890476D01*
X124547895Y-118890476D02*
X124643133Y-118890476D01*
X124643133Y-118890476D02*
X124738371Y-118938095D01*
X124738371Y-118938095D02*
X124785990Y-118985714D01*
X124785990Y-118985714D02*
X124833609Y-119080952D01*
X124833609Y-119080952D02*
X124833609Y-119414285D01*
X124357419Y-118509523D02*
X124357419Y-117842857D01*
X124357419Y-117842857D02*
X125357419Y-118509523D01*
X125357419Y-118509523D02*
X125357419Y-117842857D01*
X125357419Y-116938095D02*
X125357419Y-117509523D01*
X125357419Y-117223809D02*
X124357419Y-117223809D01*
X124357419Y-117223809D02*
X124500276Y-117319047D01*
X124500276Y-117319047D02*
X124595514Y-117414285D01*
X124595514Y-117414285D02*
X124643133Y-117509523D01*
X123641466Y-122646115D02*
X123641466Y-121884211D01*
X124022419Y-122265163D02*
X123260514Y-122265163D01*
D12*
X127359580Y-96366666D02*
X127407200Y-96414285D01*
X127407200Y-96414285D02*
X127454819Y-96557142D01*
X127454819Y-96557142D02*
X127454819Y-96652380D01*
X127454819Y-96652380D02*
X127407200Y-96795237D01*
X127407200Y-96795237D02*
X127311961Y-96890475D01*
X127311961Y-96890475D02*
X127216723Y-96938094D01*
X127216723Y-96938094D02*
X127026247Y-96985713D01*
X127026247Y-96985713D02*
X126883390Y-96985713D01*
X126883390Y-96985713D02*
X126692914Y-96938094D01*
X126692914Y-96938094D02*
X126597676Y-96890475D01*
X126597676Y-96890475D02*
X126502438Y-96795237D01*
X126502438Y-96795237D02*
X126454819Y-96652380D01*
X126454819Y-96652380D02*
X126454819Y-96557142D01*
X126454819Y-96557142D02*
X126502438Y-96414285D01*
X126502438Y-96414285D02*
X126550057Y-96366666D01*
X126454819Y-96033332D02*
X126454819Y-95414285D01*
X126454819Y-95414285D02*
X126835771Y-95747618D01*
X126835771Y-95747618D02*
X126835771Y-95604761D01*
X126835771Y-95604761D02*
X126883390Y-95509523D01*
X126883390Y-95509523D02*
X126931009Y-95461904D01*
X126931009Y-95461904D02*
X127026247Y-95414285D01*
X127026247Y-95414285D02*
X127264342Y-95414285D01*
X127264342Y-95414285D02*
X127359580Y-95461904D01*
X127359580Y-95461904D02*
X127407200Y-95509523D01*
X127407200Y-95509523D02*
X127454819Y-95604761D01*
X127454819Y-95604761D02*
X127454819Y-95890475D01*
X127454819Y-95890475D02*
X127407200Y-95985713D01*
X127407200Y-95985713D02*
X127359580Y-96033332D01*
D11*
X108422580Y-100118571D02*
X108422580Y-100689999D01*
X107422580Y-100404285D02*
X108422580Y-100404285D01*
X107470200Y-101404285D02*
X107422580Y-101309047D01*
X107422580Y-101309047D02*
X107422580Y-101118571D01*
X107422580Y-101118571D02*
X107470200Y-101023333D01*
X107470200Y-101023333D02*
X107565438Y-100975714D01*
X107565438Y-100975714D02*
X107946390Y-100975714D01*
X107946390Y-100975714D02*
X108041628Y-101023333D01*
X108041628Y-101023333D02*
X108089247Y-101118571D01*
X108089247Y-101118571D02*
X108089247Y-101309047D01*
X108089247Y-101309047D02*
X108041628Y-101404285D01*
X108041628Y-101404285D02*
X107946390Y-101451904D01*
X107946390Y-101451904D02*
X107851152Y-101451904D01*
X107851152Y-101451904D02*
X107755914Y-100975714D01*
X107470200Y-102261428D02*
X107422580Y-102166190D01*
X107422580Y-102166190D02*
X107422580Y-101975714D01*
X107422580Y-101975714D02*
X107470200Y-101880476D01*
X107470200Y-101880476D02*
X107565438Y-101832857D01*
X107565438Y-101832857D02*
X107946390Y-101832857D01*
X107946390Y-101832857D02*
X108041628Y-101880476D01*
X108041628Y-101880476D02*
X108089247Y-101975714D01*
X108089247Y-101975714D02*
X108089247Y-102166190D01*
X108089247Y-102166190D02*
X108041628Y-102261428D01*
X108041628Y-102261428D02*
X107946390Y-102309047D01*
X107946390Y-102309047D02*
X107851152Y-102309047D01*
X107851152Y-102309047D02*
X107755914Y-101832857D01*
X108089247Y-102737619D02*
X107422580Y-102737619D01*
X107994009Y-102737619D02*
X108041628Y-102785238D01*
X108041628Y-102785238D02*
X108089247Y-102880476D01*
X108089247Y-102880476D02*
X108089247Y-103023333D01*
X108089247Y-103023333D02*
X108041628Y-103118571D01*
X108041628Y-103118571D02*
X107946390Y-103166190D01*
X107946390Y-103166190D02*
X107422580Y-103166190D01*
X107470200Y-103594762D02*
X107422580Y-103690000D01*
X107422580Y-103690000D02*
X107422580Y-103880476D01*
X107422580Y-103880476D02*
X107470200Y-103975714D01*
X107470200Y-103975714D02*
X107565438Y-104023333D01*
X107565438Y-104023333D02*
X107613057Y-104023333D01*
X107613057Y-104023333D02*
X107708295Y-103975714D01*
X107708295Y-103975714D02*
X107755914Y-103880476D01*
X107755914Y-103880476D02*
X107755914Y-103737619D01*
X107755914Y-103737619D02*
X107803533Y-103642381D01*
X107803533Y-103642381D02*
X107898771Y-103594762D01*
X107898771Y-103594762D02*
X107946390Y-103594762D01*
X107946390Y-103594762D02*
X108041628Y-103642381D01*
X108041628Y-103642381D02*
X108089247Y-103737619D01*
X108089247Y-103737619D02*
X108089247Y-103880476D01*
X108089247Y-103880476D02*
X108041628Y-103975714D01*
X108089247Y-104356667D02*
X107422580Y-104594762D01*
X108089247Y-104832857D02*
X107422580Y-104594762D01*
X107422580Y-104594762D02*
X107184485Y-104499524D01*
X107184485Y-104499524D02*
X107136866Y-104451905D01*
X107136866Y-104451905D02*
X107089247Y-104356667D01*
X108089247Y-105642381D02*
X107422580Y-105642381D01*
X108470200Y-105404286D02*
X107755914Y-105166191D01*
X107755914Y-105166191D02*
X107755914Y-105785238D01*
X107517819Y-106166191D02*
X107470200Y-106213810D01*
X107470200Y-106213810D02*
X107422580Y-106166191D01*
X107422580Y-106166191D02*
X107470200Y-106118572D01*
X107470200Y-106118572D02*
X107517819Y-106166191D01*
X107517819Y-106166191D02*
X107422580Y-106166191D01*
X107422580Y-107166190D02*
X107422580Y-106594762D01*
X107422580Y-106880476D02*
X108422580Y-106880476D01*
X108422580Y-106880476D02*
X108279723Y-106785238D01*
X108279723Y-106785238D02*
X108184485Y-106690000D01*
X108184485Y-106690000D02*
X108136866Y-106594762D01*
X101538646Y-110682419D02*
X102157693Y-110682419D01*
X102157693Y-110682419D02*
X101824360Y-111063371D01*
X101824360Y-111063371D02*
X101967217Y-111063371D01*
X101967217Y-111063371D02*
X102062455Y-111110990D01*
X102062455Y-111110990D02*
X102110074Y-111158609D01*
X102110074Y-111158609D02*
X102157693Y-111253847D01*
X102157693Y-111253847D02*
X102157693Y-111491942D01*
X102157693Y-111491942D02*
X102110074Y-111587180D01*
X102110074Y-111587180D02*
X102062455Y-111634800D01*
X102062455Y-111634800D02*
X101967217Y-111682419D01*
X101967217Y-111682419D02*
X101681503Y-111682419D01*
X101681503Y-111682419D02*
X101586265Y-111634800D01*
X101586265Y-111634800D02*
X101538646Y-111587180D01*
X102586265Y-111587180D02*
X102633884Y-111634800D01*
X102633884Y-111634800D02*
X102586265Y-111682419D01*
X102586265Y-111682419D02*
X102538646Y-111634800D01*
X102538646Y-111634800D02*
X102586265Y-111587180D01*
X102586265Y-111587180D02*
X102586265Y-111682419D01*
X102967217Y-110682419D02*
X103586264Y-110682419D01*
X103586264Y-110682419D02*
X103252931Y-111063371D01*
X103252931Y-111063371D02*
X103395788Y-111063371D01*
X103395788Y-111063371D02*
X103491026Y-111110990D01*
X103491026Y-111110990D02*
X103538645Y-111158609D01*
X103538645Y-111158609D02*
X103586264Y-111253847D01*
X103586264Y-111253847D02*
X103586264Y-111491942D01*
X103586264Y-111491942D02*
X103538645Y-111587180D01*
X103538645Y-111587180D02*
X103491026Y-111634800D01*
X103491026Y-111634800D02*
X103395788Y-111682419D01*
X103395788Y-111682419D02*
X103110074Y-111682419D01*
X103110074Y-111682419D02*
X103014836Y-111634800D01*
X103014836Y-111634800D02*
X102967217Y-111587180D01*
X103871979Y-110682419D02*
X104205312Y-111682419D01*
X104205312Y-111682419D02*
X104538645Y-110682419D01*
X110523884Y-83742419D02*
X110523884Y-82742419D01*
X110523884Y-82742419D02*
X110904836Y-82742419D01*
X110904836Y-82742419D02*
X111000074Y-82790038D01*
X111000074Y-82790038D02*
X111047693Y-82837657D01*
X111047693Y-82837657D02*
X111095312Y-82932895D01*
X111095312Y-82932895D02*
X111095312Y-83075752D01*
X111095312Y-83075752D02*
X111047693Y-83170990D01*
X111047693Y-83170990D02*
X111000074Y-83218609D01*
X111000074Y-83218609D02*
X110904836Y-83266228D01*
X110904836Y-83266228D02*
X110523884Y-83266228D01*
X111428646Y-82742419D02*
X111666741Y-83742419D01*
X111666741Y-83742419D02*
X111857217Y-83028133D01*
X111857217Y-83028133D02*
X112047693Y-83742419D01*
X112047693Y-83742419D02*
X112285789Y-82742419D01*
X112666741Y-83742419D02*
X112666741Y-82742419D01*
X112666741Y-82742419D02*
X113000074Y-83456704D01*
X113000074Y-83456704D02*
X113333407Y-82742419D01*
X113333407Y-82742419D02*
X113333407Y-83742419D01*
X110523884Y-119302419D02*
X110523884Y-118302419D01*
X110523884Y-118302419D02*
X110857217Y-119016704D01*
X110857217Y-119016704D02*
X111190550Y-118302419D01*
X111190550Y-118302419D02*
X111190550Y-119302419D01*
X111666741Y-119302419D02*
X111666741Y-118302419D01*
X112095312Y-119254800D02*
X112238169Y-119302419D01*
X112238169Y-119302419D02*
X112476264Y-119302419D01*
X112476264Y-119302419D02*
X112571502Y-119254800D01*
X112571502Y-119254800D02*
X112619121Y-119207180D01*
X112619121Y-119207180D02*
X112666740Y-119111942D01*
X112666740Y-119111942D02*
X112666740Y-119016704D01*
X112666740Y-119016704D02*
X112619121Y-118921466D01*
X112619121Y-118921466D02*
X112571502Y-118873847D01*
X112571502Y-118873847D02*
X112476264Y-118826228D01*
X112476264Y-118826228D02*
X112285788Y-118778609D01*
X112285788Y-118778609D02*
X112190550Y-118730990D01*
X112190550Y-118730990D02*
X112142931Y-118683371D01*
X112142931Y-118683371D02*
X112095312Y-118588133D01*
X112095312Y-118588133D02*
X112095312Y-118492895D01*
X112095312Y-118492895D02*
X112142931Y-118397657D01*
X112142931Y-118397657D02*
X112190550Y-118350038D01*
X112190550Y-118350038D02*
X112285788Y-118302419D01*
X112285788Y-118302419D02*
X112523883Y-118302419D01*
X112523883Y-118302419D02*
X112666740Y-118350038D01*
X113285788Y-118302419D02*
X113476264Y-118302419D01*
X113476264Y-118302419D02*
X113571502Y-118350038D01*
X113571502Y-118350038D02*
X113666740Y-118445276D01*
X113666740Y-118445276D02*
X113714359Y-118635752D01*
X113714359Y-118635752D02*
X113714359Y-118969085D01*
X113714359Y-118969085D02*
X113666740Y-119159561D01*
X113666740Y-119159561D02*
X113571502Y-119254800D01*
X113571502Y-119254800D02*
X113476264Y-119302419D01*
X113476264Y-119302419D02*
X113285788Y-119302419D01*
X113285788Y-119302419D02*
X113190550Y-119254800D01*
X113190550Y-119254800D02*
X113095312Y-119159561D01*
X113095312Y-119159561D02*
X113047693Y-118969085D01*
X113047693Y-118969085D02*
X113047693Y-118635752D01*
X113047693Y-118635752D02*
X113095312Y-118445276D01*
X113095312Y-118445276D02*
X113190550Y-118350038D01*
X113190550Y-118350038D02*
X113285788Y-118302419D01*
X110523884Y-124382419D02*
X110523884Y-123382419D01*
X110523884Y-123382419D02*
X110904836Y-123382419D01*
X110904836Y-123382419D02*
X111000074Y-123430038D01*
X111000074Y-123430038D02*
X111047693Y-123477657D01*
X111047693Y-123477657D02*
X111095312Y-123572895D01*
X111095312Y-123572895D02*
X111095312Y-123715752D01*
X111095312Y-123715752D02*
X111047693Y-123810990D01*
X111047693Y-123810990D02*
X111000074Y-123858609D01*
X111000074Y-123858609D02*
X110904836Y-123906228D01*
X110904836Y-123906228D02*
X110523884Y-123906228D01*
X111428646Y-123382419D02*
X111666741Y-124382419D01*
X111666741Y-124382419D02*
X111857217Y-123668133D01*
X111857217Y-123668133D02*
X112047693Y-124382419D01*
X112047693Y-124382419D02*
X112285789Y-123382419D01*
X112666741Y-124382419D02*
X112666741Y-123382419D01*
X112666741Y-123382419D02*
X113000074Y-124096704D01*
X113000074Y-124096704D02*
X113333407Y-123382419D01*
X113333407Y-123382419D02*
X113333407Y-124382419D01*
X101586265Y-121794800D02*
X101729122Y-121842419D01*
X101729122Y-121842419D02*
X101967217Y-121842419D01*
X101967217Y-121842419D02*
X102062455Y-121794800D01*
X102062455Y-121794800D02*
X102110074Y-121747180D01*
X102110074Y-121747180D02*
X102157693Y-121651942D01*
X102157693Y-121651942D02*
X102157693Y-121556704D01*
X102157693Y-121556704D02*
X102110074Y-121461466D01*
X102110074Y-121461466D02*
X102062455Y-121413847D01*
X102062455Y-121413847D02*
X101967217Y-121366228D01*
X101967217Y-121366228D02*
X101776741Y-121318609D01*
X101776741Y-121318609D02*
X101681503Y-121270990D01*
X101681503Y-121270990D02*
X101633884Y-121223371D01*
X101633884Y-121223371D02*
X101586265Y-121128133D01*
X101586265Y-121128133D02*
X101586265Y-121032895D01*
X101586265Y-121032895D02*
X101633884Y-120937657D01*
X101633884Y-120937657D02*
X101681503Y-120890038D01*
X101681503Y-120890038D02*
X101776741Y-120842419D01*
X101776741Y-120842419D02*
X102014836Y-120842419D01*
X102014836Y-120842419D02*
X102157693Y-120890038D01*
X103157693Y-121747180D02*
X103110074Y-121794800D01*
X103110074Y-121794800D02*
X102967217Y-121842419D01*
X102967217Y-121842419D02*
X102871979Y-121842419D01*
X102871979Y-121842419D02*
X102729122Y-121794800D01*
X102729122Y-121794800D02*
X102633884Y-121699561D01*
X102633884Y-121699561D02*
X102586265Y-121604323D01*
X102586265Y-121604323D02*
X102538646Y-121413847D01*
X102538646Y-121413847D02*
X102538646Y-121270990D01*
X102538646Y-121270990D02*
X102586265Y-121080514D01*
X102586265Y-121080514D02*
X102633884Y-120985276D01*
X102633884Y-120985276D02*
X102729122Y-120890038D01*
X102729122Y-120890038D02*
X102871979Y-120842419D01*
X102871979Y-120842419D02*
X102967217Y-120842419D01*
X102967217Y-120842419D02*
X103110074Y-120890038D01*
X103110074Y-120890038D02*
X103157693Y-120937657D01*
X103586265Y-121842419D02*
X103586265Y-120842419D01*
X104157693Y-121842419D02*
X103729122Y-121270990D01*
X104157693Y-120842419D02*
X103586265Y-121413847D01*
X105110074Y-121842419D02*
X104538646Y-121842419D01*
X104824360Y-121842419D02*
X104824360Y-120842419D01*
X104824360Y-120842419D02*
X104729122Y-120985276D01*
X104729122Y-120985276D02*
X104633884Y-121080514D01*
X104633884Y-121080514D02*
X104538646Y-121128133D01*
X110523884Y-134542419D02*
X110523884Y-133542419D01*
X110523884Y-133542419D02*
X110904836Y-133542419D01*
X110904836Y-133542419D02*
X111000074Y-133590038D01*
X111000074Y-133590038D02*
X111047693Y-133637657D01*
X111047693Y-133637657D02*
X111095312Y-133732895D01*
X111095312Y-133732895D02*
X111095312Y-133875752D01*
X111095312Y-133875752D02*
X111047693Y-133970990D01*
X111047693Y-133970990D02*
X111000074Y-134018609D01*
X111000074Y-134018609D02*
X110904836Y-134066228D01*
X110904836Y-134066228D02*
X110523884Y-134066228D01*
X111428646Y-133542419D02*
X111666741Y-134542419D01*
X111666741Y-134542419D02*
X111857217Y-133828133D01*
X111857217Y-133828133D02*
X112047693Y-134542419D01*
X112047693Y-134542419D02*
X112285789Y-133542419D01*
X112666741Y-134542419D02*
X112666741Y-133542419D01*
X112666741Y-133542419D02*
X113000074Y-134256704D01*
X113000074Y-134256704D02*
X113333407Y-133542419D01*
X113333407Y-133542419D02*
X113333407Y-134542419D01*
X102157693Y-133590038D02*
X102062455Y-133542419D01*
X102062455Y-133542419D02*
X101919598Y-133542419D01*
X101919598Y-133542419D02*
X101776741Y-133590038D01*
X101776741Y-133590038D02*
X101681503Y-133685276D01*
X101681503Y-133685276D02*
X101633884Y-133780514D01*
X101633884Y-133780514D02*
X101586265Y-133970990D01*
X101586265Y-133970990D02*
X101586265Y-134113847D01*
X101586265Y-134113847D02*
X101633884Y-134304323D01*
X101633884Y-134304323D02*
X101681503Y-134399561D01*
X101681503Y-134399561D02*
X101776741Y-134494800D01*
X101776741Y-134494800D02*
X101919598Y-134542419D01*
X101919598Y-134542419D02*
X102014836Y-134542419D01*
X102014836Y-134542419D02*
X102157693Y-134494800D01*
X102157693Y-134494800D02*
X102205312Y-134447180D01*
X102205312Y-134447180D02*
X102205312Y-134113847D01*
X102205312Y-134113847D02*
X102014836Y-134113847D01*
X102633884Y-134542419D02*
X102633884Y-133542419D01*
X102633884Y-133542419D02*
X103014836Y-133542419D01*
X103014836Y-133542419D02*
X103110074Y-133590038D01*
X103110074Y-133590038D02*
X103157693Y-133637657D01*
X103157693Y-133637657D02*
X103205312Y-133732895D01*
X103205312Y-133732895D02*
X103205312Y-133875752D01*
X103205312Y-133875752D02*
X103157693Y-133970990D01*
X103157693Y-133970990D02*
X103110074Y-134018609D01*
X103110074Y-134018609D02*
X103014836Y-134066228D01*
X103014836Y-134066228D02*
X102633884Y-134066228D01*
X103633884Y-134542419D02*
X103633884Y-133542419D01*
X104300550Y-133542419D02*
X104491026Y-133542419D01*
X104491026Y-133542419D02*
X104586264Y-133590038D01*
X104586264Y-133590038D02*
X104681502Y-133685276D01*
X104681502Y-133685276D02*
X104729121Y-133875752D01*
X104729121Y-133875752D02*
X104729121Y-134209085D01*
X104729121Y-134209085D02*
X104681502Y-134399561D01*
X104681502Y-134399561D02*
X104586264Y-134494800D01*
X104586264Y-134494800D02*
X104491026Y-134542419D01*
X104491026Y-134542419D02*
X104300550Y-134542419D01*
X104300550Y-134542419D02*
X104205312Y-134494800D01*
X104205312Y-134494800D02*
X104110074Y-134399561D01*
X104110074Y-134399561D02*
X104062455Y-134209085D01*
X104062455Y-134209085D02*
X104062455Y-133875752D01*
X104062455Y-133875752D02*
X104110074Y-133685276D01*
X104110074Y-133685276D02*
X104205312Y-133590038D01*
X104205312Y-133590038D02*
X104300550Y-133542419D01*
X108007580Y-75293884D02*
X107198057Y-75293884D01*
X107198057Y-75293884D02*
X107102819Y-75341503D01*
X107102819Y-75341503D02*
X107055200Y-75389122D01*
X107055200Y-75389122D02*
X107007580Y-75484360D01*
X107007580Y-75484360D02*
X107007580Y-75674836D01*
X107007580Y-75674836D02*
X107055200Y-75770074D01*
X107055200Y-75770074D02*
X107102819Y-75817693D01*
X107102819Y-75817693D02*
X107198057Y-75865312D01*
X107198057Y-75865312D02*
X108007580Y-75865312D01*
X107055200Y-76293884D02*
X107007580Y-76436741D01*
X107007580Y-76436741D02*
X107007580Y-76674836D01*
X107007580Y-76674836D02*
X107055200Y-76770074D01*
X107055200Y-76770074D02*
X107102819Y-76817693D01*
X107102819Y-76817693D02*
X107198057Y-76865312D01*
X107198057Y-76865312D02*
X107293295Y-76865312D01*
X107293295Y-76865312D02*
X107388533Y-76817693D01*
X107388533Y-76817693D02*
X107436152Y-76770074D01*
X107436152Y-76770074D02*
X107483771Y-76674836D01*
X107483771Y-76674836D02*
X107531390Y-76484360D01*
X107531390Y-76484360D02*
X107579009Y-76389122D01*
X107579009Y-76389122D02*
X107626628Y-76341503D01*
X107626628Y-76341503D02*
X107721866Y-76293884D01*
X107721866Y-76293884D02*
X107817104Y-76293884D01*
X107817104Y-76293884D02*
X107912342Y-76341503D01*
X107912342Y-76341503D02*
X107959961Y-76389122D01*
X107959961Y-76389122D02*
X108007580Y-76484360D01*
X108007580Y-76484360D02*
X108007580Y-76722455D01*
X108007580Y-76722455D02*
X107959961Y-76865312D01*
X107531390Y-77627217D02*
X107483771Y-77770074D01*
X107483771Y-77770074D02*
X107436152Y-77817693D01*
X107436152Y-77817693D02*
X107340914Y-77865312D01*
X107340914Y-77865312D02*
X107198057Y-77865312D01*
X107198057Y-77865312D02*
X107102819Y-77817693D01*
X107102819Y-77817693D02*
X107055200Y-77770074D01*
X107055200Y-77770074D02*
X107007580Y-77674836D01*
X107007580Y-77674836D02*
X107007580Y-77293884D01*
X107007580Y-77293884D02*
X108007580Y-77293884D01*
X108007580Y-77293884D02*
X108007580Y-77627217D01*
X108007580Y-77627217D02*
X107959961Y-77722455D01*
X107959961Y-77722455D02*
X107912342Y-77770074D01*
X107912342Y-77770074D02*
X107817104Y-77817693D01*
X107817104Y-77817693D02*
X107721866Y-77817693D01*
X107721866Y-77817693D02*
X107626628Y-77770074D01*
X107626628Y-77770074D02*
X107579009Y-77722455D01*
X107579009Y-77722455D02*
X107531390Y-77627217D01*
X107531390Y-77627217D02*
X107531390Y-77293884D01*
X107102819Y-79627217D02*
X107055200Y-79579598D01*
X107055200Y-79579598D02*
X107007580Y-79436741D01*
X107007580Y-79436741D02*
X107007580Y-79341503D01*
X107007580Y-79341503D02*
X107055200Y-79198646D01*
X107055200Y-79198646D02*
X107150438Y-79103408D01*
X107150438Y-79103408D02*
X107245676Y-79055789D01*
X107245676Y-79055789D02*
X107436152Y-79008170D01*
X107436152Y-79008170D02*
X107579009Y-79008170D01*
X107579009Y-79008170D02*
X107769485Y-79055789D01*
X107769485Y-79055789D02*
X107864723Y-79103408D01*
X107864723Y-79103408D02*
X107959961Y-79198646D01*
X107959961Y-79198646D02*
X108007580Y-79341503D01*
X108007580Y-79341503D02*
X108007580Y-79436741D01*
X108007580Y-79436741D02*
X107959961Y-79579598D01*
X107959961Y-79579598D02*
X107912342Y-79627217D01*
X110476265Y-96394800D02*
X110619122Y-96442419D01*
X110619122Y-96442419D02*
X110857217Y-96442419D01*
X110857217Y-96442419D02*
X110952455Y-96394800D01*
X110952455Y-96394800D02*
X111000074Y-96347180D01*
X111000074Y-96347180D02*
X111047693Y-96251942D01*
X111047693Y-96251942D02*
X111047693Y-96156704D01*
X111047693Y-96156704D02*
X111000074Y-96061466D01*
X111000074Y-96061466D02*
X110952455Y-96013847D01*
X110952455Y-96013847D02*
X110857217Y-95966228D01*
X110857217Y-95966228D02*
X110666741Y-95918609D01*
X110666741Y-95918609D02*
X110571503Y-95870990D01*
X110571503Y-95870990D02*
X110523884Y-95823371D01*
X110523884Y-95823371D02*
X110476265Y-95728133D01*
X110476265Y-95728133D02*
X110476265Y-95632895D01*
X110476265Y-95632895D02*
X110523884Y-95537657D01*
X110523884Y-95537657D02*
X110571503Y-95490038D01*
X110571503Y-95490038D02*
X110666741Y-95442419D01*
X110666741Y-95442419D02*
X110904836Y-95442419D01*
X110904836Y-95442419D02*
X111047693Y-95490038D01*
X111476265Y-96442419D02*
X111476265Y-95442419D01*
X111476265Y-95442419D02*
X111714360Y-95442419D01*
X111714360Y-95442419D02*
X111857217Y-95490038D01*
X111857217Y-95490038D02*
X111952455Y-95585276D01*
X111952455Y-95585276D02*
X112000074Y-95680514D01*
X112000074Y-95680514D02*
X112047693Y-95870990D01*
X112047693Y-95870990D02*
X112047693Y-96013847D01*
X112047693Y-96013847D02*
X112000074Y-96204323D01*
X112000074Y-96204323D02*
X111952455Y-96299561D01*
X111952455Y-96299561D02*
X111857217Y-96394800D01*
X111857217Y-96394800D02*
X111714360Y-96442419D01*
X111714360Y-96442419D02*
X111476265Y-96442419D01*
X112428646Y-96156704D02*
X112904836Y-96156704D01*
X112333408Y-96442419D02*
X112666741Y-95442419D01*
X112666741Y-95442419D02*
X113000074Y-96442419D01*
X110476265Y-98696704D02*
X110952455Y-98696704D01*
X110381027Y-98982419D02*
X110714360Y-97982419D01*
X110714360Y-97982419D02*
X111047693Y-98982419D01*
X111285789Y-97982419D02*
X111904836Y-97982419D01*
X111904836Y-97982419D02*
X111571503Y-98363371D01*
X111571503Y-98363371D02*
X111714360Y-98363371D01*
X111714360Y-98363371D02*
X111809598Y-98410990D01*
X111809598Y-98410990D02*
X111857217Y-98458609D01*
X111857217Y-98458609D02*
X111904836Y-98553847D01*
X111904836Y-98553847D02*
X111904836Y-98791942D01*
X111904836Y-98791942D02*
X111857217Y-98887180D01*
X111857217Y-98887180D02*
X111809598Y-98934800D01*
X111809598Y-98934800D02*
X111714360Y-98982419D01*
X111714360Y-98982419D02*
X111428646Y-98982419D01*
X111428646Y-98982419D02*
X111333408Y-98934800D01*
X111333408Y-98934800D02*
X111285789Y-98887180D01*
X110381027Y-128462419D02*
X110952455Y-128462419D01*
X110666741Y-129462419D02*
X110666741Y-128462419D01*
X111190551Y-128462419D02*
X111857217Y-129462419D01*
X111857217Y-128462419D02*
X111190551Y-129462419D01*
X112381027Y-128890990D02*
X112285789Y-128843371D01*
X112285789Y-128843371D02*
X112238170Y-128795752D01*
X112238170Y-128795752D02*
X112190551Y-128700514D01*
X112190551Y-128700514D02*
X112190551Y-128652895D01*
X112190551Y-128652895D02*
X112238170Y-128557657D01*
X112238170Y-128557657D02*
X112285789Y-128510038D01*
X112285789Y-128510038D02*
X112381027Y-128462419D01*
X112381027Y-128462419D02*
X112571503Y-128462419D01*
X112571503Y-128462419D02*
X112666741Y-128510038D01*
X112666741Y-128510038D02*
X112714360Y-128557657D01*
X112714360Y-128557657D02*
X112761979Y-128652895D01*
X112761979Y-128652895D02*
X112761979Y-128700514D01*
X112761979Y-128700514D02*
X112714360Y-128795752D01*
X112714360Y-128795752D02*
X112666741Y-128843371D01*
X112666741Y-128843371D02*
X112571503Y-128890990D01*
X112571503Y-128890990D02*
X112381027Y-128890990D01*
X112381027Y-128890990D02*
X112285789Y-128938609D01*
X112285789Y-128938609D02*
X112238170Y-128986228D01*
X112238170Y-128986228D02*
X112190551Y-129081466D01*
X112190551Y-129081466D02*
X112190551Y-129271942D01*
X112190551Y-129271942D02*
X112238170Y-129367180D01*
X112238170Y-129367180D02*
X112285789Y-129414800D01*
X112285789Y-129414800D02*
X112381027Y-129462419D01*
X112381027Y-129462419D02*
X112571503Y-129462419D01*
X112571503Y-129462419D02*
X112666741Y-129414800D01*
X112666741Y-129414800D02*
X112714360Y-129367180D01*
X112714360Y-129367180D02*
X112761979Y-129271942D01*
X112761979Y-129271942D02*
X112761979Y-129081466D01*
X112761979Y-129081466D02*
X112714360Y-128986228D01*
X112714360Y-128986228D02*
X112666741Y-128938609D01*
X112666741Y-128938609D02*
X112571503Y-128890990D01*
X111047693Y-77710038D02*
X110952455Y-77662419D01*
X110952455Y-77662419D02*
X110809598Y-77662419D01*
X110809598Y-77662419D02*
X110666741Y-77710038D01*
X110666741Y-77710038D02*
X110571503Y-77805276D01*
X110571503Y-77805276D02*
X110523884Y-77900514D01*
X110523884Y-77900514D02*
X110476265Y-78090990D01*
X110476265Y-78090990D02*
X110476265Y-78233847D01*
X110476265Y-78233847D02*
X110523884Y-78424323D01*
X110523884Y-78424323D02*
X110571503Y-78519561D01*
X110571503Y-78519561D02*
X110666741Y-78614800D01*
X110666741Y-78614800D02*
X110809598Y-78662419D01*
X110809598Y-78662419D02*
X110904836Y-78662419D01*
X110904836Y-78662419D02*
X111047693Y-78614800D01*
X111047693Y-78614800D02*
X111095312Y-78567180D01*
X111095312Y-78567180D02*
X111095312Y-78233847D01*
X111095312Y-78233847D02*
X110904836Y-78233847D01*
X111523884Y-78662419D02*
X111523884Y-77662419D01*
X111523884Y-77662419D02*
X112095312Y-78662419D01*
X112095312Y-78662419D02*
X112095312Y-77662419D01*
X112571503Y-78662419D02*
X112571503Y-77662419D01*
X112571503Y-77662419D02*
X112809598Y-77662419D01*
X112809598Y-77662419D02*
X112952455Y-77710038D01*
X112952455Y-77710038D02*
X113047693Y-77805276D01*
X113047693Y-77805276D02*
X113095312Y-77900514D01*
X113095312Y-77900514D02*
X113142931Y-78090990D01*
X113142931Y-78090990D02*
X113142931Y-78233847D01*
X113142931Y-78233847D02*
X113095312Y-78424323D01*
X113095312Y-78424323D02*
X113047693Y-78519561D01*
X113047693Y-78519561D02*
X112952455Y-78614800D01*
X112952455Y-78614800D02*
X112809598Y-78662419D01*
X112809598Y-78662419D02*
X112571503Y-78662419D01*
X102205312Y-124382419D02*
X101871979Y-123906228D01*
X101633884Y-124382419D02*
X101633884Y-123382419D01*
X101633884Y-123382419D02*
X102014836Y-123382419D01*
X102014836Y-123382419D02*
X102110074Y-123430038D01*
X102110074Y-123430038D02*
X102157693Y-123477657D01*
X102157693Y-123477657D02*
X102205312Y-123572895D01*
X102205312Y-123572895D02*
X102205312Y-123715752D01*
X102205312Y-123715752D02*
X102157693Y-123810990D01*
X102157693Y-123810990D02*
X102110074Y-123858609D01*
X102110074Y-123858609D02*
X102014836Y-123906228D01*
X102014836Y-123906228D02*
X101633884Y-123906228D01*
X102538646Y-123382419D02*
X103205312Y-124382419D01*
X103205312Y-123382419D02*
X102538646Y-124382419D01*
X103491027Y-123382419D02*
X104157693Y-123382419D01*
X104157693Y-123382419D02*
X103729122Y-124382419D01*
X110476265Y-106316704D02*
X110952455Y-106316704D01*
X110381027Y-106602419D02*
X110714360Y-105602419D01*
X110714360Y-105602419D02*
X111047693Y-106602419D01*
X111571503Y-105602419D02*
X111666741Y-105602419D01*
X111666741Y-105602419D02*
X111761979Y-105650038D01*
X111761979Y-105650038D02*
X111809598Y-105697657D01*
X111809598Y-105697657D02*
X111857217Y-105792895D01*
X111857217Y-105792895D02*
X111904836Y-105983371D01*
X111904836Y-105983371D02*
X111904836Y-106221466D01*
X111904836Y-106221466D02*
X111857217Y-106411942D01*
X111857217Y-106411942D02*
X111809598Y-106507180D01*
X111809598Y-106507180D02*
X111761979Y-106554800D01*
X111761979Y-106554800D02*
X111666741Y-106602419D01*
X111666741Y-106602419D02*
X111571503Y-106602419D01*
X111571503Y-106602419D02*
X111476265Y-106554800D01*
X111476265Y-106554800D02*
X111428646Y-106507180D01*
X111428646Y-106507180D02*
X111381027Y-106411942D01*
X111381027Y-106411942D02*
X111333408Y-106221466D01*
X111333408Y-106221466D02*
X111333408Y-105983371D01*
X111333408Y-105983371D02*
X111381027Y-105792895D01*
X111381027Y-105792895D02*
X111428646Y-105697657D01*
X111428646Y-105697657D02*
X111476265Y-105650038D01*
X111476265Y-105650038D02*
X111571503Y-105602419D01*
X101633884Y-101522419D02*
X101633884Y-100522419D01*
X101633884Y-100522419D02*
X102014836Y-100522419D01*
X102014836Y-100522419D02*
X102110074Y-100570038D01*
X102110074Y-100570038D02*
X102157693Y-100617657D01*
X102157693Y-100617657D02*
X102205312Y-100712895D01*
X102205312Y-100712895D02*
X102205312Y-100855752D01*
X102205312Y-100855752D02*
X102157693Y-100950990D01*
X102157693Y-100950990D02*
X102110074Y-100998609D01*
X102110074Y-100998609D02*
X102014836Y-101046228D01*
X102014836Y-101046228D02*
X101633884Y-101046228D01*
X102538646Y-100522419D02*
X102776741Y-101522419D01*
X102776741Y-101522419D02*
X102967217Y-100808133D01*
X102967217Y-100808133D02*
X103157693Y-101522419D01*
X103157693Y-101522419D02*
X103395789Y-100522419D01*
X103776741Y-101522419D02*
X103776741Y-100522419D01*
X103776741Y-100522419D02*
X104110074Y-101236704D01*
X104110074Y-101236704D02*
X104443407Y-100522419D01*
X104443407Y-100522419D02*
X104443407Y-101522419D01*
X110456265Y-101186704D02*
X110932455Y-101186704D01*
X110361027Y-101472419D02*
X110694360Y-100472419D01*
X110694360Y-100472419D02*
X111027693Y-101472419D01*
X111313408Y-100567657D02*
X111361027Y-100520038D01*
X111361027Y-100520038D02*
X111456265Y-100472419D01*
X111456265Y-100472419D02*
X111694360Y-100472419D01*
X111694360Y-100472419D02*
X111789598Y-100520038D01*
X111789598Y-100520038D02*
X111837217Y-100567657D01*
X111837217Y-100567657D02*
X111884836Y-100662895D01*
X111884836Y-100662895D02*
X111884836Y-100758133D01*
X111884836Y-100758133D02*
X111837217Y-100900990D01*
X111837217Y-100900990D02*
X111265789Y-101472419D01*
X111265789Y-101472419D02*
X111884836Y-101472419D01*
X101633884Y-109142419D02*
X101633884Y-108142419D01*
X101633884Y-108142419D02*
X101967217Y-108856704D01*
X101967217Y-108856704D02*
X102300550Y-108142419D01*
X102300550Y-108142419D02*
X102300550Y-109142419D01*
X102776741Y-109142419D02*
X102776741Y-108142419D01*
X103205312Y-109094800D02*
X103348169Y-109142419D01*
X103348169Y-109142419D02*
X103586264Y-109142419D01*
X103586264Y-109142419D02*
X103681502Y-109094800D01*
X103681502Y-109094800D02*
X103729121Y-109047180D01*
X103729121Y-109047180D02*
X103776740Y-108951942D01*
X103776740Y-108951942D02*
X103776740Y-108856704D01*
X103776740Y-108856704D02*
X103729121Y-108761466D01*
X103729121Y-108761466D02*
X103681502Y-108713847D01*
X103681502Y-108713847D02*
X103586264Y-108666228D01*
X103586264Y-108666228D02*
X103395788Y-108618609D01*
X103395788Y-108618609D02*
X103300550Y-108570990D01*
X103300550Y-108570990D02*
X103252931Y-108523371D01*
X103252931Y-108523371D02*
X103205312Y-108428133D01*
X103205312Y-108428133D02*
X103205312Y-108332895D01*
X103205312Y-108332895D02*
X103252931Y-108237657D01*
X103252931Y-108237657D02*
X103300550Y-108190038D01*
X103300550Y-108190038D02*
X103395788Y-108142419D01*
X103395788Y-108142419D02*
X103633883Y-108142419D01*
X103633883Y-108142419D02*
X103776740Y-108190038D01*
X104395788Y-108142419D02*
X104586264Y-108142419D01*
X104586264Y-108142419D02*
X104681502Y-108190038D01*
X104681502Y-108190038D02*
X104776740Y-108285276D01*
X104776740Y-108285276D02*
X104824359Y-108475752D01*
X104824359Y-108475752D02*
X104824359Y-108809085D01*
X104824359Y-108809085D02*
X104776740Y-108999561D01*
X104776740Y-108999561D02*
X104681502Y-109094800D01*
X104681502Y-109094800D02*
X104586264Y-109142419D01*
X104586264Y-109142419D02*
X104395788Y-109142419D01*
X104395788Y-109142419D02*
X104300550Y-109094800D01*
X104300550Y-109094800D02*
X104205312Y-108999561D01*
X104205312Y-108999561D02*
X104157693Y-108809085D01*
X104157693Y-108809085D02*
X104157693Y-108475752D01*
X104157693Y-108475752D02*
X104205312Y-108285276D01*
X104205312Y-108285276D02*
X104300550Y-108190038D01*
X104300550Y-108190038D02*
X104395788Y-108142419D01*
X101586265Y-116714800D02*
X101729122Y-116762419D01*
X101729122Y-116762419D02*
X101967217Y-116762419D01*
X101967217Y-116762419D02*
X102062455Y-116714800D01*
X102062455Y-116714800D02*
X102110074Y-116667180D01*
X102110074Y-116667180D02*
X102157693Y-116571942D01*
X102157693Y-116571942D02*
X102157693Y-116476704D01*
X102157693Y-116476704D02*
X102110074Y-116381466D01*
X102110074Y-116381466D02*
X102062455Y-116333847D01*
X102062455Y-116333847D02*
X101967217Y-116286228D01*
X101967217Y-116286228D02*
X101776741Y-116238609D01*
X101776741Y-116238609D02*
X101681503Y-116190990D01*
X101681503Y-116190990D02*
X101633884Y-116143371D01*
X101633884Y-116143371D02*
X101586265Y-116048133D01*
X101586265Y-116048133D02*
X101586265Y-115952895D01*
X101586265Y-115952895D02*
X101633884Y-115857657D01*
X101633884Y-115857657D02*
X101681503Y-115810038D01*
X101681503Y-115810038D02*
X101776741Y-115762419D01*
X101776741Y-115762419D02*
X102014836Y-115762419D01*
X102014836Y-115762419D02*
X102157693Y-115810038D01*
X102586265Y-116762419D02*
X102586265Y-115762419D01*
X102586265Y-115762419D02*
X102824360Y-115762419D01*
X102824360Y-115762419D02*
X102967217Y-115810038D01*
X102967217Y-115810038D02*
X103062455Y-115905276D01*
X103062455Y-115905276D02*
X103110074Y-116000514D01*
X103110074Y-116000514D02*
X103157693Y-116190990D01*
X103157693Y-116190990D02*
X103157693Y-116333847D01*
X103157693Y-116333847D02*
X103110074Y-116524323D01*
X103110074Y-116524323D02*
X103062455Y-116619561D01*
X103062455Y-116619561D02*
X102967217Y-116714800D01*
X102967217Y-116714800D02*
X102824360Y-116762419D01*
X102824360Y-116762419D02*
X102586265Y-116762419D01*
X103538646Y-116476704D02*
X104014836Y-116476704D01*
X103443408Y-116762419D02*
X103776741Y-115762419D01*
X103776741Y-115762419D02*
X104110074Y-116762419D01*
X104395789Y-115857657D02*
X104443408Y-115810038D01*
X104443408Y-115810038D02*
X104538646Y-115762419D01*
X104538646Y-115762419D02*
X104776741Y-115762419D01*
X104776741Y-115762419D02*
X104871979Y-115810038D01*
X104871979Y-115810038D02*
X104919598Y-115857657D01*
X104919598Y-115857657D02*
X104967217Y-115952895D01*
X104967217Y-115952895D02*
X104967217Y-116048133D01*
X104967217Y-116048133D02*
X104919598Y-116190990D01*
X104919598Y-116190990D02*
X104348170Y-116762419D01*
X104348170Y-116762419D02*
X104967217Y-116762419D01*
X102157693Y-131050038D02*
X102062455Y-131002419D01*
X102062455Y-131002419D02*
X101919598Y-131002419D01*
X101919598Y-131002419D02*
X101776741Y-131050038D01*
X101776741Y-131050038D02*
X101681503Y-131145276D01*
X101681503Y-131145276D02*
X101633884Y-131240514D01*
X101633884Y-131240514D02*
X101586265Y-131430990D01*
X101586265Y-131430990D02*
X101586265Y-131573847D01*
X101586265Y-131573847D02*
X101633884Y-131764323D01*
X101633884Y-131764323D02*
X101681503Y-131859561D01*
X101681503Y-131859561D02*
X101776741Y-131954800D01*
X101776741Y-131954800D02*
X101919598Y-132002419D01*
X101919598Y-132002419D02*
X102014836Y-132002419D01*
X102014836Y-132002419D02*
X102157693Y-131954800D01*
X102157693Y-131954800D02*
X102205312Y-131907180D01*
X102205312Y-131907180D02*
X102205312Y-131573847D01*
X102205312Y-131573847D02*
X102014836Y-131573847D01*
X102633884Y-132002419D02*
X102633884Y-131002419D01*
X102633884Y-131002419D02*
X103014836Y-131002419D01*
X103014836Y-131002419D02*
X103110074Y-131050038D01*
X103110074Y-131050038D02*
X103157693Y-131097657D01*
X103157693Y-131097657D02*
X103205312Y-131192895D01*
X103205312Y-131192895D02*
X103205312Y-131335752D01*
X103205312Y-131335752D02*
X103157693Y-131430990D01*
X103157693Y-131430990D02*
X103110074Y-131478609D01*
X103110074Y-131478609D02*
X103014836Y-131526228D01*
X103014836Y-131526228D02*
X102633884Y-131526228D01*
X103633884Y-132002419D02*
X103633884Y-131002419D01*
X104300550Y-131002419D02*
X104491026Y-131002419D01*
X104491026Y-131002419D02*
X104586264Y-131050038D01*
X104586264Y-131050038D02*
X104681502Y-131145276D01*
X104681502Y-131145276D02*
X104729121Y-131335752D01*
X104729121Y-131335752D02*
X104729121Y-131669085D01*
X104729121Y-131669085D02*
X104681502Y-131859561D01*
X104681502Y-131859561D02*
X104586264Y-131954800D01*
X104586264Y-131954800D02*
X104491026Y-132002419D01*
X104491026Y-132002419D02*
X104300550Y-132002419D01*
X104300550Y-132002419D02*
X104205312Y-131954800D01*
X104205312Y-131954800D02*
X104110074Y-131859561D01*
X104110074Y-131859561D02*
X104062455Y-131669085D01*
X104062455Y-131669085D02*
X104062455Y-131335752D01*
X104062455Y-131335752D02*
X104110074Y-131145276D01*
X104110074Y-131145276D02*
X104205312Y-131050038D01*
X104205312Y-131050038D02*
X104300550Y-131002419D01*
X110476265Y-93854800D02*
X110619122Y-93902419D01*
X110619122Y-93902419D02*
X110857217Y-93902419D01*
X110857217Y-93902419D02*
X110952455Y-93854800D01*
X110952455Y-93854800D02*
X111000074Y-93807180D01*
X111000074Y-93807180D02*
X111047693Y-93711942D01*
X111047693Y-93711942D02*
X111047693Y-93616704D01*
X111047693Y-93616704D02*
X111000074Y-93521466D01*
X111000074Y-93521466D02*
X110952455Y-93473847D01*
X110952455Y-93473847D02*
X110857217Y-93426228D01*
X110857217Y-93426228D02*
X110666741Y-93378609D01*
X110666741Y-93378609D02*
X110571503Y-93330990D01*
X110571503Y-93330990D02*
X110523884Y-93283371D01*
X110523884Y-93283371D02*
X110476265Y-93188133D01*
X110476265Y-93188133D02*
X110476265Y-93092895D01*
X110476265Y-93092895D02*
X110523884Y-92997657D01*
X110523884Y-92997657D02*
X110571503Y-92950038D01*
X110571503Y-92950038D02*
X110666741Y-92902419D01*
X110666741Y-92902419D02*
X110904836Y-92902419D01*
X110904836Y-92902419D02*
X111047693Y-92950038D01*
X112047693Y-93807180D02*
X112000074Y-93854800D01*
X112000074Y-93854800D02*
X111857217Y-93902419D01*
X111857217Y-93902419D02*
X111761979Y-93902419D01*
X111761979Y-93902419D02*
X111619122Y-93854800D01*
X111619122Y-93854800D02*
X111523884Y-93759561D01*
X111523884Y-93759561D02*
X111476265Y-93664323D01*
X111476265Y-93664323D02*
X111428646Y-93473847D01*
X111428646Y-93473847D02*
X111428646Y-93330990D01*
X111428646Y-93330990D02*
X111476265Y-93140514D01*
X111476265Y-93140514D02*
X111523884Y-93045276D01*
X111523884Y-93045276D02*
X111619122Y-92950038D01*
X111619122Y-92950038D02*
X111761979Y-92902419D01*
X111761979Y-92902419D02*
X111857217Y-92902419D01*
X111857217Y-92902419D02*
X112000074Y-92950038D01*
X112000074Y-92950038D02*
X112047693Y-92997657D01*
X112952455Y-93902419D02*
X112476265Y-93902419D01*
X112476265Y-93902419D02*
X112476265Y-92902419D01*
X101491027Y-80202419D02*
X102062455Y-80202419D01*
X101776741Y-81202419D02*
X101776741Y-80202419D01*
X102300551Y-80202419D02*
X102967217Y-81202419D01*
X102967217Y-80202419D02*
X102300551Y-81202419D01*
X103871979Y-81202419D02*
X103300551Y-81202419D01*
X103586265Y-81202419D02*
X103586265Y-80202419D01*
X103586265Y-80202419D02*
X103491027Y-80345276D01*
X103491027Y-80345276D02*
X103395789Y-80440514D01*
X103395789Y-80440514D02*
X103300551Y-80488133D01*
X101586265Y-114174800D02*
X101729122Y-114222419D01*
X101729122Y-114222419D02*
X101967217Y-114222419D01*
X101967217Y-114222419D02*
X102062455Y-114174800D01*
X102062455Y-114174800D02*
X102110074Y-114127180D01*
X102110074Y-114127180D02*
X102157693Y-114031942D01*
X102157693Y-114031942D02*
X102157693Y-113936704D01*
X102157693Y-113936704D02*
X102110074Y-113841466D01*
X102110074Y-113841466D02*
X102062455Y-113793847D01*
X102062455Y-113793847D02*
X101967217Y-113746228D01*
X101967217Y-113746228D02*
X101776741Y-113698609D01*
X101776741Y-113698609D02*
X101681503Y-113650990D01*
X101681503Y-113650990D02*
X101633884Y-113603371D01*
X101633884Y-113603371D02*
X101586265Y-113508133D01*
X101586265Y-113508133D02*
X101586265Y-113412895D01*
X101586265Y-113412895D02*
X101633884Y-113317657D01*
X101633884Y-113317657D02*
X101681503Y-113270038D01*
X101681503Y-113270038D02*
X101776741Y-113222419D01*
X101776741Y-113222419D02*
X102014836Y-113222419D01*
X102014836Y-113222419D02*
X102157693Y-113270038D01*
X103157693Y-114127180D02*
X103110074Y-114174800D01*
X103110074Y-114174800D02*
X102967217Y-114222419D01*
X102967217Y-114222419D02*
X102871979Y-114222419D01*
X102871979Y-114222419D02*
X102729122Y-114174800D01*
X102729122Y-114174800D02*
X102633884Y-114079561D01*
X102633884Y-114079561D02*
X102586265Y-113984323D01*
X102586265Y-113984323D02*
X102538646Y-113793847D01*
X102538646Y-113793847D02*
X102538646Y-113650990D01*
X102538646Y-113650990D02*
X102586265Y-113460514D01*
X102586265Y-113460514D02*
X102633884Y-113365276D01*
X102633884Y-113365276D02*
X102729122Y-113270038D01*
X102729122Y-113270038D02*
X102871979Y-113222419D01*
X102871979Y-113222419D02*
X102967217Y-113222419D01*
X102967217Y-113222419D02*
X103110074Y-113270038D01*
X103110074Y-113270038D02*
X103157693Y-113317657D01*
X104062455Y-114222419D02*
X103586265Y-114222419D01*
X103586265Y-114222419D02*
X103586265Y-113222419D01*
X104348170Y-113317657D02*
X104395789Y-113270038D01*
X104395789Y-113270038D02*
X104491027Y-113222419D01*
X104491027Y-113222419D02*
X104729122Y-113222419D01*
X104729122Y-113222419D02*
X104824360Y-113270038D01*
X104824360Y-113270038D02*
X104871979Y-113317657D01*
X104871979Y-113317657D02*
X104919598Y-113412895D01*
X104919598Y-113412895D02*
X104919598Y-113508133D01*
X104919598Y-113508133D02*
X104871979Y-113650990D01*
X104871979Y-113650990D02*
X104300551Y-114222419D01*
X104300551Y-114222419D02*
X104919598Y-114222419D01*
X110476265Y-103776704D02*
X110952455Y-103776704D01*
X110381027Y-104062419D02*
X110714360Y-103062419D01*
X110714360Y-103062419D02*
X111047693Y-104062419D01*
X111904836Y-104062419D02*
X111333408Y-104062419D01*
X111619122Y-104062419D02*
X111619122Y-103062419D01*
X111619122Y-103062419D02*
X111523884Y-103205276D01*
X111523884Y-103205276D02*
X111428646Y-103300514D01*
X111428646Y-103300514D02*
X111333408Y-103348133D01*
X111047693Y-110730038D02*
X110952455Y-110682419D01*
X110952455Y-110682419D02*
X110809598Y-110682419D01*
X110809598Y-110682419D02*
X110666741Y-110730038D01*
X110666741Y-110730038D02*
X110571503Y-110825276D01*
X110571503Y-110825276D02*
X110523884Y-110920514D01*
X110523884Y-110920514D02*
X110476265Y-111110990D01*
X110476265Y-111110990D02*
X110476265Y-111253847D01*
X110476265Y-111253847D02*
X110523884Y-111444323D01*
X110523884Y-111444323D02*
X110571503Y-111539561D01*
X110571503Y-111539561D02*
X110666741Y-111634800D01*
X110666741Y-111634800D02*
X110809598Y-111682419D01*
X110809598Y-111682419D02*
X110904836Y-111682419D01*
X110904836Y-111682419D02*
X111047693Y-111634800D01*
X111047693Y-111634800D02*
X111095312Y-111587180D01*
X111095312Y-111587180D02*
X111095312Y-111253847D01*
X111095312Y-111253847D02*
X110904836Y-111253847D01*
X111523884Y-111682419D02*
X111523884Y-110682419D01*
X111523884Y-110682419D02*
X112095312Y-111682419D01*
X112095312Y-111682419D02*
X112095312Y-110682419D01*
X112571503Y-111682419D02*
X112571503Y-110682419D01*
X112571503Y-110682419D02*
X112809598Y-110682419D01*
X112809598Y-110682419D02*
X112952455Y-110730038D01*
X112952455Y-110730038D02*
X113047693Y-110825276D01*
X113047693Y-110825276D02*
X113095312Y-110920514D01*
X113095312Y-110920514D02*
X113142931Y-111110990D01*
X113142931Y-111110990D02*
X113142931Y-111253847D01*
X113142931Y-111253847D02*
X113095312Y-111444323D01*
X113095312Y-111444323D02*
X113047693Y-111539561D01*
X113047693Y-111539561D02*
X112952455Y-111634800D01*
X112952455Y-111634800D02*
X112809598Y-111682419D01*
X112809598Y-111682419D02*
X112571503Y-111682419D01*
X110476265Y-116476704D02*
X110952455Y-116476704D01*
X110381027Y-116762419D02*
X110714360Y-115762419D01*
X110714360Y-115762419D02*
X111047693Y-116762419D01*
X111904836Y-116762419D02*
X111333408Y-116762419D01*
X111619122Y-116762419D02*
X111619122Y-115762419D01*
X111619122Y-115762419D02*
X111523884Y-115905276D01*
X111523884Y-115905276D02*
X111428646Y-116000514D01*
X111428646Y-116000514D02*
X111333408Y-116048133D01*
X112761979Y-115762419D02*
X112571503Y-115762419D01*
X112571503Y-115762419D02*
X112476265Y-115810038D01*
X112476265Y-115810038D02*
X112428646Y-115857657D01*
X112428646Y-115857657D02*
X112333408Y-116000514D01*
X112333408Y-116000514D02*
X112285789Y-116190990D01*
X112285789Y-116190990D02*
X112285789Y-116571942D01*
X112285789Y-116571942D02*
X112333408Y-116667180D01*
X112333408Y-116667180D02*
X112381027Y-116714800D01*
X112381027Y-116714800D02*
X112476265Y-116762419D01*
X112476265Y-116762419D02*
X112666741Y-116762419D01*
X112666741Y-116762419D02*
X112761979Y-116714800D01*
X112761979Y-116714800D02*
X112809598Y-116667180D01*
X112809598Y-116667180D02*
X112857217Y-116571942D01*
X112857217Y-116571942D02*
X112857217Y-116333847D01*
X112857217Y-116333847D02*
X112809598Y-116238609D01*
X112809598Y-116238609D02*
X112761979Y-116190990D01*
X112761979Y-116190990D02*
X112666741Y-116143371D01*
X112666741Y-116143371D02*
X112476265Y-116143371D01*
X112476265Y-116143371D02*
X112381027Y-116190990D01*
X112381027Y-116190990D02*
X112333408Y-116238609D01*
X112333408Y-116238609D02*
X112285789Y-116333847D01*
X101633884Y-91362419D02*
X101633884Y-90362419D01*
X101633884Y-90362419D02*
X102014836Y-90362419D01*
X102014836Y-90362419D02*
X102110074Y-90410038D01*
X102110074Y-90410038D02*
X102157693Y-90457657D01*
X102157693Y-90457657D02*
X102205312Y-90552895D01*
X102205312Y-90552895D02*
X102205312Y-90695752D01*
X102205312Y-90695752D02*
X102157693Y-90790990D01*
X102157693Y-90790990D02*
X102110074Y-90838609D01*
X102110074Y-90838609D02*
X102014836Y-90886228D01*
X102014836Y-90886228D02*
X101633884Y-90886228D01*
X102538646Y-90362419D02*
X102776741Y-91362419D01*
X102776741Y-91362419D02*
X102967217Y-90648133D01*
X102967217Y-90648133D02*
X103157693Y-91362419D01*
X103157693Y-91362419D02*
X103395789Y-90362419D01*
X103776741Y-91362419D02*
X103776741Y-90362419D01*
X103776741Y-90362419D02*
X104110074Y-91076704D01*
X104110074Y-91076704D02*
X104443407Y-90362419D01*
X104443407Y-90362419D02*
X104443407Y-91362419D01*
X101491027Y-97982419D02*
X102062455Y-97982419D01*
X101776741Y-98982419D02*
X101776741Y-97982419D01*
X102300551Y-97982419D02*
X102967217Y-98982419D01*
X102967217Y-97982419D02*
X102300551Y-98982419D01*
X103300551Y-98077657D02*
X103348170Y-98030038D01*
X103348170Y-98030038D02*
X103443408Y-97982419D01*
X103443408Y-97982419D02*
X103681503Y-97982419D01*
X103681503Y-97982419D02*
X103776741Y-98030038D01*
X103776741Y-98030038D02*
X103824360Y-98077657D01*
X103824360Y-98077657D02*
X103871979Y-98172895D01*
X103871979Y-98172895D02*
X103871979Y-98268133D01*
X103871979Y-98268133D02*
X103824360Y-98410990D01*
X103824360Y-98410990D02*
X103252932Y-98982419D01*
X103252932Y-98982419D02*
X103871979Y-98982419D01*
X107207580Y-126083884D02*
X108207580Y-126083884D01*
X108207580Y-126083884D02*
X107493295Y-126417217D01*
X107493295Y-126417217D02*
X108207580Y-126750550D01*
X108207580Y-126750550D02*
X107207580Y-126750550D01*
X107207580Y-127226741D02*
X108207580Y-127226741D01*
X107302819Y-128274359D02*
X107255200Y-128226740D01*
X107255200Y-128226740D02*
X107207580Y-128083883D01*
X107207580Y-128083883D02*
X107207580Y-127988645D01*
X107207580Y-127988645D02*
X107255200Y-127845788D01*
X107255200Y-127845788D02*
X107350438Y-127750550D01*
X107350438Y-127750550D02*
X107445676Y-127702931D01*
X107445676Y-127702931D02*
X107636152Y-127655312D01*
X107636152Y-127655312D02*
X107779009Y-127655312D01*
X107779009Y-127655312D02*
X107969485Y-127702931D01*
X107969485Y-127702931D02*
X108064723Y-127750550D01*
X108064723Y-127750550D02*
X108159961Y-127845788D01*
X108159961Y-127845788D02*
X108207580Y-127988645D01*
X108207580Y-127988645D02*
X108207580Y-128083883D01*
X108207580Y-128083883D02*
X108159961Y-128226740D01*
X108159961Y-128226740D02*
X108112342Y-128274359D01*
X107207580Y-129274359D02*
X107683771Y-128941026D01*
X107207580Y-128702931D02*
X108207580Y-128702931D01*
X108207580Y-128702931D02*
X108207580Y-129083883D01*
X108207580Y-129083883D02*
X108159961Y-129179121D01*
X108159961Y-129179121D02*
X108112342Y-129226740D01*
X108112342Y-129226740D02*
X108017104Y-129274359D01*
X108017104Y-129274359D02*
X107874247Y-129274359D01*
X107874247Y-129274359D02*
X107779009Y-129226740D01*
X107779009Y-129226740D02*
X107731390Y-129179121D01*
X107731390Y-129179121D02*
X107683771Y-129083883D01*
X107683771Y-129083883D02*
X107683771Y-128702931D01*
X108207580Y-129893407D02*
X108207580Y-130083883D01*
X108207580Y-130083883D02*
X108159961Y-130179121D01*
X108159961Y-130179121D02*
X108064723Y-130274359D01*
X108064723Y-130274359D02*
X107874247Y-130321978D01*
X107874247Y-130321978D02*
X107540914Y-130321978D01*
X107540914Y-130321978D02*
X107350438Y-130274359D01*
X107350438Y-130274359D02*
X107255200Y-130179121D01*
X107255200Y-130179121D02*
X107207580Y-130083883D01*
X107207580Y-130083883D02*
X107207580Y-129893407D01*
X107207580Y-129893407D02*
X107255200Y-129798169D01*
X107255200Y-129798169D02*
X107350438Y-129702931D01*
X107350438Y-129702931D02*
X107540914Y-129655312D01*
X107540914Y-129655312D02*
X107874247Y-129655312D01*
X107874247Y-129655312D02*
X108064723Y-129702931D01*
X108064723Y-129702931D02*
X108159961Y-129798169D01*
X108159961Y-129798169D02*
X108207580Y-129893407D01*
X107255200Y-131464836D02*
X107207580Y-131607693D01*
X107207580Y-131607693D02*
X107207580Y-131845788D01*
X107207580Y-131845788D02*
X107255200Y-131941026D01*
X107255200Y-131941026D02*
X107302819Y-131988645D01*
X107302819Y-131988645D02*
X107398057Y-132036264D01*
X107398057Y-132036264D02*
X107493295Y-132036264D01*
X107493295Y-132036264D02*
X107588533Y-131988645D01*
X107588533Y-131988645D02*
X107636152Y-131941026D01*
X107636152Y-131941026D02*
X107683771Y-131845788D01*
X107683771Y-131845788D02*
X107731390Y-131655312D01*
X107731390Y-131655312D02*
X107779009Y-131560074D01*
X107779009Y-131560074D02*
X107826628Y-131512455D01*
X107826628Y-131512455D02*
X107921866Y-131464836D01*
X107921866Y-131464836D02*
X108017104Y-131464836D01*
X108017104Y-131464836D02*
X108112342Y-131512455D01*
X108112342Y-131512455D02*
X108159961Y-131560074D01*
X108159961Y-131560074D02*
X108207580Y-131655312D01*
X108207580Y-131655312D02*
X108207580Y-131893407D01*
X108207580Y-131893407D02*
X108159961Y-132036264D01*
X107207580Y-132464836D02*
X108207580Y-132464836D01*
X108207580Y-132464836D02*
X108207580Y-132702931D01*
X108207580Y-132702931D02*
X108159961Y-132845788D01*
X108159961Y-132845788D02*
X108064723Y-132941026D01*
X108064723Y-132941026D02*
X107969485Y-132988645D01*
X107969485Y-132988645D02*
X107779009Y-133036264D01*
X107779009Y-133036264D02*
X107636152Y-133036264D01*
X107636152Y-133036264D02*
X107445676Y-132988645D01*
X107445676Y-132988645D02*
X107350438Y-132941026D01*
X107350438Y-132941026D02*
X107255200Y-132845788D01*
X107255200Y-132845788D02*
X107207580Y-132702931D01*
X107207580Y-132702931D02*
X107207580Y-132464836D01*
X110476265Y-113936704D02*
X110952455Y-113936704D01*
X110381027Y-114222419D02*
X110714360Y-113222419D01*
X110714360Y-113222419D02*
X111047693Y-114222419D01*
X111904836Y-114222419D02*
X111333408Y-114222419D01*
X111619122Y-114222419D02*
X111619122Y-113222419D01*
X111619122Y-113222419D02*
X111523884Y-113365276D01*
X111523884Y-113365276D02*
X111428646Y-113460514D01*
X111428646Y-113460514D02*
X111333408Y-113508133D01*
X112238170Y-113222419D02*
X112904836Y-113222419D01*
X112904836Y-113222419D02*
X112476265Y-114222419D01*
X101633884Y-88822419D02*
X101633884Y-87822419D01*
X101633884Y-87822419D02*
X102014836Y-87822419D01*
X102014836Y-87822419D02*
X102110074Y-87870038D01*
X102110074Y-87870038D02*
X102157693Y-87917657D01*
X102157693Y-87917657D02*
X102205312Y-88012895D01*
X102205312Y-88012895D02*
X102205312Y-88155752D01*
X102205312Y-88155752D02*
X102157693Y-88250990D01*
X102157693Y-88250990D02*
X102110074Y-88298609D01*
X102110074Y-88298609D02*
X102014836Y-88346228D01*
X102014836Y-88346228D02*
X101633884Y-88346228D01*
X102538646Y-87822419D02*
X102776741Y-88822419D01*
X102776741Y-88822419D02*
X102967217Y-88108133D01*
X102967217Y-88108133D02*
X103157693Y-88822419D01*
X103157693Y-88822419D02*
X103395789Y-87822419D01*
X103776741Y-88822419D02*
X103776741Y-87822419D01*
X103776741Y-87822419D02*
X104110074Y-88536704D01*
X104110074Y-88536704D02*
X104443407Y-87822419D01*
X104443407Y-87822419D02*
X104443407Y-88822419D01*
X110381027Y-90362419D02*
X110952455Y-90362419D01*
X110666741Y-91362419D02*
X110666741Y-90362419D01*
X111190551Y-90362419D02*
X111857217Y-91362419D01*
X111857217Y-90362419D02*
X111190551Y-91362419D01*
X112714360Y-90362419D02*
X112238170Y-90362419D01*
X112238170Y-90362419D02*
X112190551Y-90838609D01*
X112190551Y-90838609D02*
X112238170Y-90790990D01*
X112238170Y-90790990D02*
X112333408Y-90743371D01*
X112333408Y-90743371D02*
X112571503Y-90743371D01*
X112571503Y-90743371D02*
X112666741Y-90790990D01*
X112666741Y-90790990D02*
X112714360Y-90838609D01*
X112714360Y-90838609D02*
X112761979Y-90933847D01*
X112761979Y-90933847D02*
X112761979Y-91171942D01*
X112761979Y-91171942D02*
X112714360Y-91267180D01*
X112714360Y-91267180D02*
X112666741Y-91314800D01*
X112666741Y-91314800D02*
X112571503Y-91362419D01*
X112571503Y-91362419D02*
X112333408Y-91362419D01*
X112333408Y-91362419D02*
X112238170Y-91314800D01*
X112238170Y-91314800D02*
X112190551Y-91267180D01*
X111095312Y-88822419D02*
X110761979Y-88346228D01*
X110523884Y-88822419D02*
X110523884Y-87822419D01*
X110523884Y-87822419D02*
X110904836Y-87822419D01*
X110904836Y-87822419D02*
X111000074Y-87870038D01*
X111000074Y-87870038D02*
X111047693Y-87917657D01*
X111047693Y-87917657D02*
X111095312Y-88012895D01*
X111095312Y-88012895D02*
X111095312Y-88155752D01*
X111095312Y-88155752D02*
X111047693Y-88250990D01*
X111047693Y-88250990D02*
X111000074Y-88298609D01*
X111000074Y-88298609D02*
X110904836Y-88346228D01*
X110904836Y-88346228D02*
X110523884Y-88346228D01*
X111428646Y-87822419D02*
X112095312Y-88822419D01*
X112095312Y-87822419D02*
X111428646Y-88822419D01*
X112952455Y-87822419D02*
X112476265Y-87822419D01*
X112476265Y-87822419D02*
X112428646Y-88298609D01*
X112428646Y-88298609D02*
X112476265Y-88250990D01*
X112476265Y-88250990D02*
X112571503Y-88203371D01*
X112571503Y-88203371D02*
X112809598Y-88203371D01*
X112809598Y-88203371D02*
X112904836Y-88250990D01*
X112904836Y-88250990D02*
X112952455Y-88298609D01*
X112952455Y-88298609D02*
X113000074Y-88393847D01*
X113000074Y-88393847D02*
X113000074Y-88631942D01*
X113000074Y-88631942D02*
X112952455Y-88727180D01*
X112952455Y-88727180D02*
X112904836Y-88774800D01*
X112904836Y-88774800D02*
X112809598Y-88822419D01*
X112809598Y-88822419D02*
X112571503Y-88822419D01*
X112571503Y-88822419D02*
X112476265Y-88774800D01*
X112476265Y-88774800D02*
X112428646Y-88727180D01*
X102205312Y-96442419D02*
X101871979Y-95966228D01*
X101633884Y-96442419D02*
X101633884Y-95442419D01*
X101633884Y-95442419D02*
X102014836Y-95442419D01*
X102014836Y-95442419D02*
X102110074Y-95490038D01*
X102110074Y-95490038D02*
X102157693Y-95537657D01*
X102157693Y-95537657D02*
X102205312Y-95632895D01*
X102205312Y-95632895D02*
X102205312Y-95775752D01*
X102205312Y-95775752D02*
X102157693Y-95870990D01*
X102157693Y-95870990D02*
X102110074Y-95918609D01*
X102110074Y-95918609D02*
X102014836Y-95966228D01*
X102014836Y-95966228D02*
X101633884Y-95966228D01*
X102538646Y-95442419D02*
X103205312Y-96442419D01*
X103205312Y-95442419D02*
X102538646Y-96442419D01*
X103538646Y-95537657D02*
X103586265Y-95490038D01*
X103586265Y-95490038D02*
X103681503Y-95442419D01*
X103681503Y-95442419D02*
X103919598Y-95442419D01*
X103919598Y-95442419D02*
X104014836Y-95490038D01*
X104014836Y-95490038D02*
X104062455Y-95537657D01*
X104062455Y-95537657D02*
X104110074Y-95632895D01*
X104110074Y-95632895D02*
X104110074Y-95728133D01*
X104110074Y-95728133D02*
X104062455Y-95870990D01*
X104062455Y-95870990D02*
X103491027Y-96442419D01*
X103491027Y-96442419D02*
X104110074Y-96442419D01*
X102205312Y-103967180D02*
X102157693Y-104014800D01*
X102157693Y-104014800D02*
X102014836Y-104062419D01*
X102014836Y-104062419D02*
X101919598Y-104062419D01*
X101919598Y-104062419D02*
X101776741Y-104014800D01*
X101776741Y-104014800D02*
X101681503Y-103919561D01*
X101681503Y-103919561D02*
X101633884Y-103824323D01*
X101633884Y-103824323D02*
X101586265Y-103633847D01*
X101586265Y-103633847D02*
X101586265Y-103490990D01*
X101586265Y-103490990D02*
X101633884Y-103300514D01*
X101633884Y-103300514D02*
X101681503Y-103205276D01*
X101681503Y-103205276D02*
X101776741Y-103110038D01*
X101776741Y-103110038D02*
X101919598Y-103062419D01*
X101919598Y-103062419D02*
X102014836Y-103062419D01*
X102014836Y-103062419D02*
X102157693Y-103110038D01*
X102157693Y-103110038D02*
X102205312Y-103157657D01*
X102586265Y-104014800D02*
X102729122Y-104062419D01*
X102729122Y-104062419D02*
X102967217Y-104062419D01*
X102967217Y-104062419D02*
X103062455Y-104014800D01*
X103062455Y-104014800D02*
X103110074Y-103967180D01*
X103110074Y-103967180D02*
X103157693Y-103871942D01*
X103157693Y-103871942D02*
X103157693Y-103776704D01*
X103157693Y-103776704D02*
X103110074Y-103681466D01*
X103110074Y-103681466D02*
X103062455Y-103633847D01*
X103062455Y-103633847D02*
X102967217Y-103586228D01*
X102967217Y-103586228D02*
X102776741Y-103538609D01*
X102776741Y-103538609D02*
X102681503Y-103490990D01*
X102681503Y-103490990D02*
X102633884Y-103443371D01*
X102633884Y-103443371D02*
X102586265Y-103348133D01*
X102586265Y-103348133D02*
X102586265Y-103252895D01*
X102586265Y-103252895D02*
X102633884Y-103157657D01*
X102633884Y-103157657D02*
X102681503Y-103110038D01*
X102681503Y-103110038D02*
X102776741Y-103062419D01*
X102776741Y-103062419D02*
X103014836Y-103062419D01*
X103014836Y-103062419D02*
X103157693Y-103110038D01*
X110523884Y-126922419D02*
X110523884Y-125922419D01*
X110523884Y-125922419D02*
X110904836Y-125922419D01*
X110904836Y-125922419D02*
X111000074Y-125970038D01*
X111000074Y-125970038D02*
X111047693Y-126017657D01*
X111047693Y-126017657D02*
X111095312Y-126112895D01*
X111095312Y-126112895D02*
X111095312Y-126255752D01*
X111095312Y-126255752D02*
X111047693Y-126350990D01*
X111047693Y-126350990D02*
X111000074Y-126398609D01*
X111000074Y-126398609D02*
X110904836Y-126446228D01*
X110904836Y-126446228D02*
X110523884Y-126446228D01*
X111428646Y-125922419D02*
X111666741Y-126922419D01*
X111666741Y-126922419D02*
X111857217Y-126208133D01*
X111857217Y-126208133D02*
X112047693Y-126922419D01*
X112047693Y-126922419D02*
X112285789Y-125922419D01*
X112666741Y-126922419D02*
X112666741Y-125922419D01*
X112666741Y-125922419D02*
X113000074Y-126636704D01*
X113000074Y-126636704D02*
X113333407Y-125922419D01*
X113333407Y-125922419D02*
X113333407Y-126922419D01*
X102205312Y-78662419D02*
X101871979Y-78186228D01*
X101633884Y-78662419D02*
X101633884Y-77662419D01*
X101633884Y-77662419D02*
X102014836Y-77662419D01*
X102014836Y-77662419D02*
X102110074Y-77710038D01*
X102110074Y-77710038D02*
X102157693Y-77757657D01*
X102157693Y-77757657D02*
X102205312Y-77852895D01*
X102205312Y-77852895D02*
X102205312Y-77995752D01*
X102205312Y-77995752D02*
X102157693Y-78090990D01*
X102157693Y-78090990D02*
X102110074Y-78138609D01*
X102110074Y-78138609D02*
X102014836Y-78186228D01*
X102014836Y-78186228D02*
X101633884Y-78186228D01*
X102538646Y-77662419D02*
X103205312Y-78662419D01*
X103205312Y-77662419D02*
X102538646Y-78662419D01*
X104110074Y-78662419D02*
X103538646Y-78662419D01*
X103824360Y-78662419D02*
X103824360Y-77662419D01*
X103824360Y-77662419D02*
X103729122Y-77805276D01*
X103729122Y-77805276D02*
X103633884Y-77900514D01*
X103633884Y-77900514D02*
X103538646Y-77948133D01*
X101491027Y-125922419D02*
X102062455Y-125922419D01*
X101776741Y-126922419D02*
X101776741Y-125922419D01*
X102300551Y-125922419D02*
X102967217Y-126922419D01*
X102967217Y-125922419D02*
X102300551Y-126922419D01*
X103252932Y-125922419D02*
X103919598Y-125922419D01*
X103919598Y-125922419D02*
X103491027Y-126922419D01*
X110381027Y-75122419D02*
X110714360Y-76122419D01*
X110714360Y-76122419D02*
X111047693Y-75122419D01*
X111381027Y-76122419D02*
X111381027Y-75455752D01*
X111381027Y-75122419D02*
X111333408Y-75170038D01*
X111333408Y-75170038D02*
X111381027Y-75217657D01*
X111381027Y-75217657D02*
X111428646Y-75170038D01*
X111428646Y-75170038D02*
X111381027Y-75122419D01*
X111381027Y-75122419D02*
X111381027Y-75217657D01*
X111857217Y-75455752D02*
X111857217Y-76122419D01*
X111857217Y-75550990D02*
X111904836Y-75503371D01*
X111904836Y-75503371D02*
X112000074Y-75455752D01*
X112000074Y-75455752D02*
X112142931Y-75455752D01*
X112142931Y-75455752D02*
X112238169Y-75503371D01*
X112238169Y-75503371D02*
X112285788Y-75598609D01*
X112285788Y-75598609D02*
X112285788Y-76122419D01*
X101633884Y-86282419D02*
X101633884Y-85282419D01*
X101633884Y-85282419D02*
X102014836Y-85282419D01*
X102014836Y-85282419D02*
X102110074Y-85330038D01*
X102110074Y-85330038D02*
X102157693Y-85377657D01*
X102157693Y-85377657D02*
X102205312Y-85472895D01*
X102205312Y-85472895D02*
X102205312Y-85615752D01*
X102205312Y-85615752D02*
X102157693Y-85710990D01*
X102157693Y-85710990D02*
X102110074Y-85758609D01*
X102110074Y-85758609D02*
X102014836Y-85806228D01*
X102014836Y-85806228D02*
X101633884Y-85806228D01*
X102538646Y-85282419D02*
X102776741Y-86282419D01*
X102776741Y-86282419D02*
X102967217Y-85568133D01*
X102967217Y-85568133D02*
X103157693Y-86282419D01*
X103157693Y-86282419D02*
X103395789Y-85282419D01*
X103776741Y-86282419D02*
X103776741Y-85282419D01*
X103776741Y-85282419D02*
X104110074Y-85996704D01*
X104110074Y-85996704D02*
X104443407Y-85282419D01*
X104443407Y-85282419D02*
X104443407Y-86282419D01*
X110428646Y-80202419D02*
X111047693Y-80202419D01*
X111047693Y-80202419D02*
X110714360Y-80583371D01*
X110714360Y-80583371D02*
X110857217Y-80583371D01*
X110857217Y-80583371D02*
X110952455Y-80630990D01*
X110952455Y-80630990D02*
X111000074Y-80678609D01*
X111000074Y-80678609D02*
X111047693Y-80773847D01*
X111047693Y-80773847D02*
X111047693Y-81011942D01*
X111047693Y-81011942D02*
X111000074Y-81107180D01*
X111000074Y-81107180D02*
X110952455Y-81154800D01*
X110952455Y-81154800D02*
X110857217Y-81202419D01*
X110857217Y-81202419D02*
X110571503Y-81202419D01*
X110571503Y-81202419D02*
X110476265Y-81154800D01*
X110476265Y-81154800D02*
X110428646Y-81107180D01*
X111476265Y-81107180D02*
X111523884Y-81154800D01*
X111523884Y-81154800D02*
X111476265Y-81202419D01*
X111476265Y-81202419D02*
X111428646Y-81154800D01*
X111428646Y-81154800D02*
X111476265Y-81107180D01*
X111476265Y-81107180D02*
X111476265Y-81202419D01*
X111857217Y-80202419D02*
X112476264Y-80202419D01*
X112476264Y-80202419D02*
X112142931Y-80583371D01*
X112142931Y-80583371D02*
X112285788Y-80583371D01*
X112285788Y-80583371D02*
X112381026Y-80630990D01*
X112381026Y-80630990D02*
X112428645Y-80678609D01*
X112428645Y-80678609D02*
X112476264Y-80773847D01*
X112476264Y-80773847D02*
X112476264Y-81011942D01*
X112476264Y-81011942D02*
X112428645Y-81107180D01*
X112428645Y-81107180D02*
X112381026Y-81154800D01*
X112381026Y-81154800D02*
X112285788Y-81202419D01*
X112285788Y-81202419D02*
X112000074Y-81202419D01*
X112000074Y-81202419D02*
X111904836Y-81154800D01*
X111904836Y-81154800D02*
X111857217Y-81107180D01*
X112761979Y-80202419D02*
X113095312Y-81202419D01*
X113095312Y-81202419D02*
X113428645Y-80202419D01*
X111095312Y-132002419D02*
X110761979Y-131526228D01*
X110523884Y-132002419D02*
X110523884Y-131002419D01*
X110523884Y-131002419D02*
X110904836Y-131002419D01*
X110904836Y-131002419D02*
X111000074Y-131050038D01*
X111000074Y-131050038D02*
X111047693Y-131097657D01*
X111047693Y-131097657D02*
X111095312Y-131192895D01*
X111095312Y-131192895D02*
X111095312Y-131335752D01*
X111095312Y-131335752D02*
X111047693Y-131430990D01*
X111047693Y-131430990D02*
X111000074Y-131478609D01*
X111000074Y-131478609D02*
X110904836Y-131526228D01*
X110904836Y-131526228D02*
X110523884Y-131526228D01*
X111428646Y-131002419D02*
X112095312Y-132002419D01*
X112095312Y-131002419D02*
X111428646Y-132002419D01*
X112619122Y-131430990D02*
X112523884Y-131383371D01*
X112523884Y-131383371D02*
X112476265Y-131335752D01*
X112476265Y-131335752D02*
X112428646Y-131240514D01*
X112428646Y-131240514D02*
X112428646Y-131192895D01*
X112428646Y-131192895D02*
X112476265Y-131097657D01*
X112476265Y-131097657D02*
X112523884Y-131050038D01*
X112523884Y-131050038D02*
X112619122Y-131002419D01*
X112619122Y-131002419D02*
X112809598Y-131002419D01*
X112809598Y-131002419D02*
X112904836Y-131050038D01*
X112904836Y-131050038D02*
X112952455Y-131097657D01*
X112952455Y-131097657D02*
X113000074Y-131192895D01*
X113000074Y-131192895D02*
X113000074Y-131240514D01*
X113000074Y-131240514D02*
X112952455Y-131335752D01*
X112952455Y-131335752D02*
X112904836Y-131383371D01*
X112904836Y-131383371D02*
X112809598Y-131430990D01*
X112809598Y-131430990D02*
X112619122Y-131430990D01*
X112619122Y-131430990D02*
X112523884Y-131478609D01*
X112523884Y-131478609D02*
X112476265Y-131526228D01*
X112476265Y-131526228D02*
X112428646Y-131621466D01*
X112428646Y-131621466D02*
X112428646Y-131811942D01*
X112428646Y-131811942D02*
X112476265Y-131907180D01*
X112476265Y-131907180D02*
X112523884Y-131954800D01*
X112523884Y-131954800D02*
X112619122Y-132002419D01*
X112619122Y-132002419D02*
X112809598Y-132002419D01*
X112809598Y-132002419D02*
X112904836Y-131954800D01*
X112904836Y-131954800D02*
X112952455Y-131907180D01*
X112952455Y-131907180D02*
X113000074Y-131811942D01*
X113000074Y-131811942D02*
X113000074Y-131621466D01*
X113000074Y-131621466D02*
X112952455Y-131526228D01*
X112952455Y-131526228D02*
X112904836Y-131478609D01*
X112904836Y-131478609D02*
X112809598Y-131430990D01*
X102157693Y-128510038D02*
X102062455Y-128462419D01*
X102062455Y-128462419D02*
X101919598Y-128462419D01*
X101919598Y-128462419D02*
X101776741Y-128510038D01*
X101776741Y-128510038D02*
X101681503Y-128605276D01*
X101681503Y-128605276D02*
X101633884Y-128700514D01*
X101633884Y-128700514D02*
X101586265Y-128890990D01*
X101586265Y-128890990D02*
X101586265Y-129033847D01*
X101586265Y-129033847D02*
X101633884Y-129224323D01*
X101633884Y-129224323D02*
X101681503Y-129319561D01*
X101681503Y-129319561D02*
X101776741Y-129414800D01*
X101776741Y-129414800D02*
X101919598Y-129462419D01*
X101919598Y-129462419D02*
X102014836Y-129462419D01*
X102014836Y-129462419D02*
X102157693Y-129414800D01*
X102157693Y-129414800D02*
X102205312Y-129367180D01*
X102205312Y-129367180D02*
X102205312Y-129033847D01*
X102205312Y-129033847D02*
X102014836Y-129033847D01*
X102633884Y-129462419D02*
X102633884Y-128462419D01*
X102633884Y-128462419D02*
X103014836Y-128462419D01*
X103014836Y-128462419D02*
X103110074Y-128510038D01*
X103110074Y-128510038D02*
X103157693Y-128557657D01*
X103157693Y-128557657D02*
X103205312Y-128652895D01*
X103205312Y-128652895D02*
X103205312Y-128795752D01*
X103205312Y-128795752D02*
X103157693Y-128890990D01*
X103157693Y-128890990D02*
X103110074Y-128938609D01*
X103110074Y-128938609D02*
X103014836Y-128986228D01*
X103014836Y-128986228D02*
X102633884Y-128986228D01*
X103633884Y-129462419D02*
X103633884Y-128462419D01*
X104300550Y-128462419D02*
X104491026Y-128462419D01*
X104491026Y-128462419D02*
X104586264Y-128510038D01*
X104586264Y-128510038D02*
X104681502Y-128605276D01*
X104681502Y-128605276D02*
X104729121Y-128795752D01*
X104729121Y-128795752D02*
X104729121Y-129129085D01*
X104729121Y-129129085D02*
X104681502Y-129319561D01*
X104681502Y-129319561D02*
X104586264Y-129414800D01*
X104586264Y-129414800D02*
X104491026Y-129462419D01*
X104491026Y-129462419D02*
X104300550Y-129462419D01*
X104300550Y-129462419D02*
X104205312Y-129414800D01*
X104205312Y-129414800D02*
X104110074Y-129319561D01*
X104110074Y-129319561D02*
X104062455Y-129129085D01*
X104062455Y-129129085D02*
X104062455Y-128795752D01*
X104062455Y-128795752D02*
X104110074Y-128605276D01*
X104110074Y-128605276D02*
X104205312Y-128510038D01*
X104205312Y-128510038D02*
X104300550Y-128462419D01*
X101633884Y-83742419D02*
X101633884Y-82742419D01*
X101633884Y-82742419D02*
X102014836Y-82742419D01*
X102014836Y-82742419D02*
X102110074Y-82790038D01*
X102110074Y-82790038D02*
X102157693Y-82837657D01*
X102157693Y-82837657D02*
X102205312Y-82932895D01*
X102205312Y-82932895D02*
X102205312Y-83075752D01*
X102205312Y-83075752D02*
X102157693Y-83170990D01*
X102157693Y-83170990D02*
X102110074Y-83218609D01*
X102110074Y-83218609D02*
X102014836Y-83266228D01*
X102014836Y-83266228D02*
X101633884Y-83266228D01*
X102538646Y-82742419D02*
X102776741Y-83742419D01*
X102776741Y-83742419D02*
X102967217Y-83028133D01*
X102967217Y-83028133D02*
X103157693Y-83742419D01*
X103157693Y-83742419D02*
X103395789Y-82742419D01*
X103776741Y-83742419D02*
X103776741Y-82742419D01*
X103776741Y-82742419D02*
X104110074Y-83456704D01*
X104110074Y-83456704D02*
X104443407Y-82742419D01*
X104443407Y-82742419D02*
X104443407Y-83742419D01*
X111095312Y-121747180D02*
X111047693Y-121794800D01*
X111047693Y-121794800D02*
X110904836Y-121842419D01*
X110904836Y-121842419D02*
X110809598Y-121842419D01*
X110809598Y-121842419D02*
X110666741Y-121794800D01*
X110666741Y-121794800D02*
X110571503Y-121699561D01*
X110571503Y-121699561D02*
X110523884Y-121604323D01*
X110523884Y-121604323D02*
X110476265Y-121413847D01*
X110476265Y-121413847D02*
X110476265Y-121270990D01*
X110476265Y-121270990D02*
X110523884Y-121080514D01*
X110523884Y-121080514D02*
X110571503Y-120985276D01*
X110571503Y-120985276D02*
X110666741Y-120890038D01*
X110666741Y-120890038D02*
X110809598Y-120842419D01*
X110809598Y-120842419D02*
X110904836Y-120842419D01*
X110904836Y-120842419D02*
X111047693Y-120890038D01*
X111047693Y-120890038D02*
X111095312Y-120937657D01*
X111476265Y-121794800D02*
X111619122Y-121842419D01*
X111619122Y-121842419D02*
X111857217Y-121842419D01*
X111857217Y-121842419D02*
X111952455Y-121794800D01*
X111952455Y-121794800D02*
X112000074Y-121747180D01*
X112000074Y-121747180D02*
X112047693Y-121651942D01*
X112047693Y-121651942D02*
X112047693Y-121556704D01*
X112047693Y-121556704D02*
X112000074Y-121461466D01*
X112000074Y-121461466D02*
X111952455Y-121413847D01*
X111952455Y-121413847D02*
X111857217Y-121366228D01*
X111857217Y-121366228D02*
X111666741Y-121318609D01*
X111666741Y-121318609D02*
X111571503Y-121270990D01*
X111571503Y-121270990D02*
X111523884Y-121223371D01*
X111523884Y-121223371D02*
X111476265Y-121128133D01*
X111476265Y-121128133D02*
X111476265Y-121032895D01*
X111476265Y-121032895D02*
X111523884Y-120937657D01*
X111523884Y-120937657D02*
X111571503Y-120890038D01*
X111571503Y-120890038D02*
X111666741Y-120842419D01*
X111666741Y-120842419D02*
X111904836Y-120842419D01*
X111904836Y-120842419D02*
X112047693Y-120890038D01*
X113000074Y-121842419D02*
X112428646Y-121842419D01*
X112714360Y-121842419D02*
X112714360Y-120842419D01*
X112714360Y-120842419D02*
X112619122Y-120985276D01*
X112619122Y-120985276D02*
X112523884Y-121080514D01*
X112523884Y-121080514D02*
X112428646Y-121128133D01*
X110476265Y-109094800D02*
X110619122Y-109142419D01*
X110619122Y-109142419D02*
X110857217Y-109142419D01*
X110857217Y-109142419D02*
X110952455Y-109094800D01*
X110952455Y-109094800D02*
X111000074Y-109047180D01*
X111000074Y-109047180D02*
X111047693Y-108951942D01*
X111047693Y-108951942D02*
X111047693Y-108856704D01*
X111047693Y-108856704D02*
X111000074Y-108761466D01*
X111000074Y-108761466D02*
X110952455Y-108713847D01*
X110952455Y-108713847D02*
X110857217Y-108666228D01*
X110857217Y-108666228D02*
X110666741Y-108618609D01*
X110666741Y-108618609D02*
X110571503Y-108570990D01*
X110571503Y-108570990D02*
X110523884Y-108523371D01*
X110523884Y-108523371D02*
X110476265Y-108428133D01*
X110476265Y-108428133D02*
X110476265Y-108332895D01*
X110476265Y-108332895D02*
X110523884Y-108237657D01*
X110523884Y-108237657D02*
X110571503Y-108190038D01*
X110571503Y-108190038D02*
X110666741Y-108142419D01*
X110666741Y-108142419D02*
X110904836Y-108142419D01*
X110904836Y-108142419D02*
X111047693Y-108190038D01*
X112047693Y-109047180D02*
X112000074Y-109094800D01*
X112000074Y-109094800D02*
X111857217Y-109142419D01*
X111857217Y-109142419D02*
X111761979Y-109142419D01*
X111761979Y-109142419D02*
X111619122Y-109094800D01*
X111619122Y-109094800D02*
X111523884Y-108999561D01*
X111523884Y-108999561D02*
X111476265Y-108904323D01*
X111476265Y-108904323D02*
X111428646Y-108713847D01*
X111428646Y-108713847D02*
X111428646Y-108570990D01*
X111428646Y-108570990D02*
X111476265Y-108380514D01*
X111476265Y-108380514D02*
X111523884Y-108285276D01*
X111523884Y-108285276D02*
X111619122Y-108190038D01*
X111619122Y-108190038D02*
X111761979Y-108142419D01*
X111761979Y-108142419D02*
X111857217Y-108142419D01*
X111857217Y-108142419D02*
X112000074Y-108190038D01*
X112000074Y-108190038D02*
X112047693Y-108237657D01*
X112476265Y-109142419D02*
X112476265Y-108142419D01*
X113047693Y-109142419D02*
X112619122Y-108570990D01*
X113047693Y-108142419D02*
X112476265Y-108713847D01*
X102157693Y-75170038D02*
X102062455Y-75122419D01*
X102062455Y-75122419D02*
X101919598Y-75122419D01*
X101919598Y-75122419D02*
X101776741Y-75170038D01*
X101776741Y-75170038D02*
X101681503Y-75265276D01*
X101681503Y-75265276D02*
X101633884Y-75360514D01*
X101633884Y-75360514D02*
X101586265Y-75550990D01*
X101586265Y-75550990D02*
X101586265Y-75693847D01*
X101586265Y-75693847D02*
X101633884Y-75884323D01*
X101633884Y-75884323D02*
X101681503Y-75979561D01*
X101681503Y-75979561D02*
X101776741Y-76074800D01*
X101776741Y-76074800D02*
X101919598Y-76122419D01*
X101919598Y-76122419D02*
X102014836Y-76122419D01*
X102014836Y-76122419D02*
X102157693Y-76074800D01*
X102157693Y-76074800D02*
X102205312Y-76027180D01*
X102205312Y-76027180D02*
X102205312Y-75693847D01*
X102205312Y-75693847D02*
X102014836Y-75693847D01*
X102633884Y-76122419D02*
X102633884Y-75122419D01*
X102633884Y-75122419D02*
X103205312Y-76122419D01*
X103205312Y-76122419D02*
X103205312Y-75122419D01*
X103681503Y-76122419D02*
X103681503Y-75122419D01*
X103681503Y-75122419D02*
X103919598Y-75122419D01*
X103919598Y-75122419D02*
X104062455Y-75170038D01*
X104062455Y-75170038D02*
X104157693Y-75265276D01*
X104157693Y-75265276D02*
X104205312Y-75360514D01*
X104205312Y-75360514D02*
X104252931Y-75550990D01*
X104252931Y-75550990D02*
X104252931Y-75693847D01*
X104252931Y-75693847D02*
X104205312Y-75884323D01*
X104205312Y-75884323D02*
X104157693Y-75979561D01*
X104157693Y-75979561D02*
X104062455Y-76074800D01*
X104062455Y-76074800D02*
X103919598Y-76122419D01*
X103919598Y-76122419D02*
X103681503Y-76122419D01*
X101633884Y-93902419D02*
X101633884Y-92902419D01*
X101633884Y-92902419D02*
X102014836Y-92902419D01*
X102014836Y-92902419D02*
X102110074Y-92950038D01*
X102110074Y-92950038D02*
X102157693Y-92997657D01*
X102157693Y-92997657D02*
X102205312Y-93092895D01*
X102205312Y-93092895D02*
X102205312Y-93235752D01*
X102205312Y-93235752D02*
X102157693Y-93330990D01*
X102157693Y-93330990D02*
X102110074Y-93378609D01*
X102110074Y-93378609D02*
X102014836Y-93426228D01*
X102014836Y-93426228D02*
X101633884Y-93426228D01*
X102538646Y-92902419D02*
X102776741Y-93902419D01*
X102776741Y-93902419D02*
X102967217Y-93188133D01*
X102967217Y-93188133D02*
X103157693Y-93902419D01*
X103157693Y-93902419D02*
X103395789Y-92902419D01*
X103776741Y-93902419D02*
X103776741Y-92902419D01*
X103776741Y-92902419D02*
X104110074Y-93616704D01*
X104110074Y-93616704D02*
X104443407Y-92902419D01*
X104443407Y-92902419D02*
X104443407Y-93902419D01*
X101633884Y-106602419D02*
X101633884Y-105602419D01*
X101633884Y-105602419D02*
X101967217Y-106316704D01*
X101967217Y-106316704D02*
X102300550Y-105602419D01*
X102300550Y-105602419D02*
X102300550Y-106602419D01*
X102967217Y-105602419D02*
X103157693Y-105602419D01*
X103157693Y-105602419D02*
X103252931Y-105650038D01*
X103252931Y-105650038D02*
X103348169Y-105745276D01*
X103348169Y-105745276D02*
X103395788Y-105935752D01*
X103395788Y-105935752D02*
X103395788Y-106269085D01*
X103395788Y-106269085D02*
X103348169Y-106459561D01*
X103348169Y-106459561D02*
X103252931Y-106554800D01*
X103252931Y-106554800D02*
X103157693Y-106602419D01*
X103157693Y-106602419D02*
X102967217Y-106602419D01*
X102967217Y-106602419D02*
X102871979Y-106554800D01*
X102871979Y-106554800D02*
X102776741Y-106459561D01*
X102776741Y-106459561D02*
X102729122Y-106269085D01*
X102729122Y-106269085D02*
X102729122Y-105935752D01*
X102729122Y-105935752D02*
X102776741Y-105745276D01*
X102776741Y-105745276D02*
X102871979Y-105650038D01*
X102871979Y-105650038D02*
X102967217Y-105602419D01*
X103776741Y-106554800D02*
X103919598Y-106602419D01*
X103919598Y-106602419D02*
X104157693Y-106602419D01*
X104157693Y-106602419D02*
X104252931Y-106554800D01*
X104252931Y-106554800D02*
X104300550Y-106507180D01*
X104300550Y-106507180D02*
X104348169Y-106411942D01*
X104348169Y-106411942D02*
X104348169Y-106316704D01*
X104348169Y-106316704D02*
X104300550Y-106221466D01*
X104300550Y-106221466D02*
X104252931Y-106173847D01*
X104252931Y-106173847D02*
X104157693Y-106126228D01*
X104157693Y-106126228D02*
X103967217Y-106078609D01*
X103967217Y-106078609D02*
X103871979Y-106030990D01*
X103871979Y-106030990D02*
X103824360Y-105983371D01*
X103824360Y-105983371D02*
X103776741Y-105888133D01*
X103776741Y-105888133D02*
X103776741Y-105792895D01*
X103776741Y-105792895D02*
X103824360Y-105697657D01*
X103824360Y-105697657D02*
X103871979Y-105650038D01*
X103871979Y-105650038D02*
X103967217Y-105602419D01*
X103967217Y-105602419D02*
X104205312Y-105602419D01*
X104205312Y-105602419D02*
X104348169Y-105650038D01*
X104776741Y-106602419D02*
X104776741Y-105602419D01*
X101633884Y-119302419D02*
X101633884Y-118302419D01*
X101633884Y-118302419D02*
X101967217Y-119016704D01*
X101967217Y-119016704D02*
X102300550Y-118302419D01*
X102300550Y-118302419D02*
X102300550Y-119302419D01*
X102967217Y-118302419D02*
X103157693Y-118302419D01*
X103157693Y-118302419D02*
X103252931Y-118350038D01*
X103252931Y-118350038D02*
X103348169Y-118445276D01*
X103348169Y-118445276D02*
X103395788Y-118635752D01*
X103395788Y-118635752D02*
X103395788Y-118969085D01*
X103395788Y-118969085D02*
X103348169Y-119159561D01*
X103348169Y-119159561D02*
X103252931Y-119254800D01*
X103252931Y-119254800D02*
X103157693Y-119302419D01*
X103157693Y-119302419D02*
X102967217Y-119302419D01*
X102967217Y-119302419D02*
X102871979Y-119254800D01*
X102871979Y-119254800D02*
X102776741Y-119159561D01*
X102776741Y-119159561D02*
X102729122Y-118969085D01*
X102729122Y-118969085D02*
X102729122Y-118635752D01*
X102729122Y-118635752D02*
X102776741Y-118445276D01*
X102776741Y-118445276D02*
X102871979Y-118350038D01*
X102871979Y-118350038D02*
X102967217Y-118302419D01*
X103776741Y-119254800D02*
X103919598Y-119302419D01*
X103919598Y-119302419D02*
X104157693Y-119302419D01*
X104157693Y-119302419D02*
X104252931Y-119254800D01*
X104252931Y-119254800D02*
X104300550Y-119207180D01*
X104300550Y-119207180D02*
X104348169Y-119111942D01*
X104348169Y-119111942D02*
X104348169Y-119016704D01*
X104348169Y-119016704D02*
X104300550Y-118921466D01*
X104300550Y-118921466D02*
X104252931Y-118873847D01*
X104252931Y-118873847D02*
X104157693Y-118826228D01*
X104157693Y-118826228D02*
X103967217Y-118778609D01*
X103967217Y-118778609D02*
X103871979Y-118730990D01*
X103871979Y-118730990D02*
X103824360Y-118683371D01*
X103824360Y-118683371D02*
X103776741Y-118588133D01*
X103776741Y-118588133D02*
X103776741Y-118492895D01*
X103776741Y-118492895D02*
X103824360Y-118397657D01*
X103824360Y-118397657D02*
X103871979Y-118350038D01*
X103871979Y-118350038D02*
X103967217Y-118302419D01*
X103967217Y-118302419D02*
X104205312Y-118302419D01*
X104205312Y-118302419D02*
X104348169Y-118350038D01*
X104776741Y-119302419D02*
X104776741Y-118302419D01*
X105776740Y-119302419D02*
X105205312Y-119302419D01*
X105491026Y-119302419D02*
X105491026Y-118302419D01*
X105491026Y-118302419D02*
X105395788Y-118445276D01*
X105395788Y-118445276D02*
X105300550Y-118540514D01*
X105300550Y-118540514D02*
X105205312Y-118588133D01*
X110523884Y-86282419D02*
X110523884Y-85282419D01*
X110523884Y-85282419D02*
X110904836Y-85282419D01*
X110904836Y-85282419D02*
X111000074Y-85330038D01*
X111000074Y-85330038D02*
X111047693Y-85377657D01*
X111047693Y-85377657D02*
X111095312Y-85472895D01*
X111095312Y-85472895D02*
X111095312Y-85615752D01*
X111095312Y-85615752D02*
X111047693Y-85710990D01*
X111047693Y-85710990D02*
X111000074Y-85758609D01*
X111000074Y-85758609D02*
X110904836Y-85806228D01*
X110904836Y-85806228D02*
X110523884Y-85806228D01*
X111428646Y-85282419D02*
X111666741Y-86282419D01*
X111666741Y-86282419D02*
X111857217Y-85568133D01*
X111857217Y-85568133D02*
X112047693Y-86282419D01*
X112047693Y-86282419D02*
X112285789Y-85282419D01*
X112666741Y-86282419D02*
X112666741Y-85282419D01*
X112666741Y-85282419D02*
X113000074Y-85996704D01*
X113000074Y-85996704D02*
X113333407Y-85282419D01*
X113333407Y-85282419D02*
X113333407Y-86282419D01*
D12*
X126833333Y-111454819D02*
X126500000Y-110978628D01*
X126261905Y-111454819D02*
X126261905Y-110454819D01*
X126261905Y-110454819D02*
X126642857Y-110454819D01*
X126642857Y-110454819D02*
X126738095Y-110502438D01*
X126738095Y-110502438D02*
X126785714Y-110550057D01*
X126785714Y-110550057D02*
X126833333Y-110645295D01*
X126833333Y-110645295D02*
X126833333Y-110788152D01*
X126833333Y-110788152D02*
X126785714Y-110883390D01*
X126785714Y-110883390D02*
X126738095Y-110931009D01*
X126738095Y-110931009D02*
X126642857Y-110978628D01*
X126642857Y-110978628D02*
X126261905Y-110978628D01*
X127214286Y-110550057D02*
X127261905Y-110502438D01*
X127261905Y-110502438D02*
X127357143Y-110454819D01*
X127357143Y-110454819D02*
X127595238Y-110454819D01*
X127595238Y-110454819D02*
X127690476Y-110502438D01*
X127690476Y-110502438D02*
X127738095Y-110550057D01*
X127738095Y-110550057D02*
X127785714Y-110645295D01*
X127785714Y-110645295D02*
X127785714Y-110740533D01*
X127785714Y-110740533D02*
X127738095Y-110883390D01*
X127738095Y-110883390D02*
X127166667Y-111454819D01*
X127166667Y-111454819D02*
X127785714Y-111454819D01*
X125208333Y-129224819D02*
X124875000Y-128748628D01*
X124636905Y-129224819D02*
X124636905Y-128224819D01*
X124636905Y-128224819D02*
X125017857Y-128224819D01*
X125017857Y-128224819D02*
X125113095Y-128272438D01*
X125113095Y-128272438D02*
X125160714Y-128320057D01*
X125160714Y-128320057D02*
X125208333Y-128415295D01*
X125208333Y-128415295D02*
X125208333Y-128558152D01*
X125208333Y-128558152D02*
X125160714Y-128653390D01*
X125160714Y-128653390D02*
X125113095Y-128701009D01*
X125113095Y-128701009D02*
X125017857Y-128748628D01*
X125017857Y-128748628D02*
X124636905Y-128748628D01*
X125541667Y-128224819D02*
X126160714Y-128224819D01*
X126160714Y-128224819D02*
X125827381Y-128605771D01*
X125827381Y-128605771D02*
X125970238Y-128605771D01*
X125970238Y-128605771D02*
X126065476Y-128653390D01*
X126065476Y-128653390D02*
X126113095Y-128701009D01*
X126113095Y-128701009D02*
X126160714Y-128796247D01*
X126160714Y-128796247D02*
X126160714Y-129034342D01*
X126160714Y-129034342D02*
X126113095Y-129129580D01*
X126113095Y-129129580D02*
X126065476Y-129177200D01*
X126065476Y-129177200D02*
X125970238Y-129224819D01*
X125970238Y-129224819D02*
X125684524Y-129224819D01*
X125684524Y-129224819D02*
X125589286Y-129177200D01*
X125589286Y-129177200D02*
X125541667Y-129129580D01*
X127359580Y-105166666D02*
X127407200Y-105214285D01*
X127407200Y-105214285D02*
X127454819Y-105357142D01*
X127454819Y-105357142D02*
X127454819Y-105452380D01*
X127454819Y-105452380D02*
X127407200Y-105595237D01*
X127407200Y-105595237D02*
X127311961Y-105690475D01*
X127311961Y-105690475D02*
X127216723Y-105738094D01*
X127216723Y-105738094D02*
X127026247Y-105785713D01*
X127026247Y-105785713D02*
X126883390Y-105785713D01*
X126883390Y-105785713D02*
X126692914Y-105738094D01*
X126692914Y-105738094D02*
X126597676Y-105690475D01*
X126597676Y-105690475D02*
X126502438Y-105595237D01*
X126502438Y-105595237D02*
X126454819Y-105452380D01*
X126454819Y-105452380D02*
X126454819Y-105357142D01*
X126454819Y-105357142D02*
X126502438Y-105214285D01*
X126502438Y-105214285D02*
X126550057Y-105166666D01*
X126550057Y-104785713D02*
X126502438Y-104738094D01*
X126502438Y-104738094D02*
X126454819Y-104642856D01*
X126454819Y-104642856D02*
X126454819Y-104404761D01*
X126454819Y-104404761D02*
X126502438Y-104309523D01*
X126502438Y-104309523D02*
X126550057Y-104261904D01*
X126550057Y-104261904D02*
X126645295Y-104214285D01*
X126645295Y-104214285D02*
X126740533Y-104214285D01*
X126740533Y-104214285D02*
X126883390Y-104261904D01*
X126883390Y-104261904D02*
X127454819Y-104833332D01*
X127454819Y-104833332D02*
X127454819Y-104214285D01*
X120408333Y-129154819D02*
X120075000Y-128678628D01*
X119836905Y-129154819D02*
X119836905Y-128154819D01*
X119836905Y-128154819D02*
X120217857Y-128154819D01*
X120217857Y-128154819D02*
X120313095Y-128202438D01*
X120313095Y-128202438D02*
X120360714Y-128250057D01*
X120360714Y-128250057D02*
X120408333Y-128345295D01*
X120408333Y-128345295D02*
X120408333Y-128488152D01*
X120408333Y-128488152D02*
X120360714Y-128583390D01*
X120360714Y-128583390D02*
X120313095Y-128631009D01*
X120313095Y-128631009D02*
X120217857Y-128678628D01*
X120217857Y-128678628D02*
X119836905Y-128678628D01*
X121265476Y-128488152D02*
X121265476Y-129154819D01*
X121027381Y-128107200D02*
X120789286Y-128821485D01*
X120789286Y-128821485D02*
X121408333Y-128821485D01*
X126188073Y-100505741D02*
X126159501Y-100534313D01*
X126159501Y-100534313D02*
X126073787Y-100562884D01*
X126073787Y-100562884D02*
X126016644Y-100562884D01*
X126016644Y-100562884D02*
X125930930Y-100534313D01*
X125930930Y-100534313D02*
X125873787Y-100477170D01*
X125873787Y-100477170D02*
X125845216Y-100420027D01*
X125845216Y-100420027D02*
X125816644Y-100305741D01*
X125816644Y-100305741D02*
X125816644Y-100220027D01*
X125816644Y-100220027D02*
X125845216Y-100105741D01*
X125845216Y-100105741D02*
X125873787Y-100048598D01*
X125873787Y-100048598D02*
X125930930Y-99991455D01*
X125930930Y-99991455D02*
X126016644Y-99962884D01*
X126016644Y-99962884D02*
X126073787Y-99962884D01*
X126073787Y-99962884D02*
X126159501Y-99991455D01*
X126159501Y-99991455D02*
X126188073Y-100020027D01*
X126759501Y-100562884D02*
X126416644Y-100562884D01*
X126588073Y-100562884D02*
X126588073Y-99962884D01*
X126588073Y-99962884D02*
X126530930Y-100048598D01*
X126530930Y-100048598D02*
X126473787Y-100105741D01*
X126473787Y-100105741D02*
X126416644Y-100134313D01*
X120466667Y-94486104D02*
X120428571Y-94524200D01*
X120428571Y-94524200D02*
X120314286Y-94562295D01*
X120314286Y-94562295D02*
X120238095Y-94562295D01*
X120238095Y-94562295D02*
X120123809Y-94524200D01*
X120123809Y-94524200D02*
X120047619Y-94448009D01*
X120047619Y-94448009D02*
X120009524Y-94371819D01*
X120009524Y-94371819D02*
X119971428Y-94219438D01*
X119971428Y-94219438D02*
X119971428Y-94105152D01*
X119971428Y-94105152D02*
X120009524Y-93952771D01*
X120009524Y-93952771D02*
X120047619Y-93876580D01*
X120047619Y-93876580D02*
X120123809Y-93800390D01*
X120123809Y-93800390D02*
X120238095Y-93762295D01*
X120238095Y-93762295D02*
X120314286Y-93762295D01*
X120314286Y-93762295D02*
X120428571Y-93800390D01*
X120428571Y-93800390D02*
X120466667Y-93838485D01*
X121152381Y-94028961D02*
X121152381Y-94562295D01*
X120961905Y-93724200D02*
X120771428Y-94295628D01*
X120771428Y-94295628D02*
X121266667Y-94295628D01*
D14*
%TO.C,C5*%
X126619581Y-102591426D02*
X126619581Y-102310266D01*
X127639581Y-102591426D02*
X127639581Y-102310266D01*
%TO.C,R5*%
X129787742Y-129677500D02*
X130262258Y-129677500D01*
X129787742Y-130722500D02*
X130262258Y-130722500D01*
%TO.C,D1*%
X124262500Y-133360000D02*
X126947500Y-133360000D01*
X126947500Y-131440000D02*
X124262500Y-131440000D01*
X126947500Y-133360000D02*
X126947500Y-131440000D01*
D15*
%TO.C,U2*%
X119962500Y-101350000D02*
X119962500Y-106550000D01*
X119962500Y-106550000D02*
X123762500Y-106550000D01*
X123762500Y-101350000D02*
X119962500Y-101350000D01*
X123762500Y-106550000D02*
X123762500Y-101350000D01*
D16*
X119662500Y-106150000D02*
G75*
G02*
X119462500Y-106150000I-100000J0D01*
G01*
X119462500Y-106150000D02*
G75*
G02*
X119662500Y-106150000I100000J0D01*
G01*
D14*
%TO.C,J1*%
X129620000Y-103950000D02*
X129620000Y-96220000D01*
X132380000Y-96220000D02*
X129620000Y-96220000D01*
X132380000Y-103950000D02*
X129620000Y-103950000D01*
X132380000Y-103950000D02*
X132380000Y-96220000D01*
X132380000Y-105220000D02*
X132380000Y-106600000D01*
X132380000Y-106600000D02*
X131000000Y-106600000D01*
%TO.C,D2*%
X119462500Y-133360000D02*
X122147500Y-133360000D01*
X122147500Y-131440000D02*
X119462500Y-131440000D01*
X122147500Y-133360000D02*
X122147500Y-131440000D01*
%TO.C,J1*%
X127250000Y-88600000D02*
X127250000Y-89850000D01*
X127250000Y-89850000D02*
X128500000Y-89850000D01*
X127540000Y-76940000D02*
X127540000Y-89560000D01*
X127540000Y-89560000D02*
X133510000Y-89560000D01*
X127550000Y-76950000D02*
X127550000Y-78750000D01*
X127550000Y-78750000D02*
X128300000Y-78750000D01*
X127550000Y-80250000D02*
X127550000Y-86250000D01*
X127550000Y-86250000D02*
X128300000Y-86250000D01*
X127550000Y-87750000D02*
X127550000Y-89550000D01*
X127550000Y-89550000D02*
X128300000Y-89550000D01*
X128300000Y-76950000D02*
X127550000Y-76950000D01*
X128300000Y-78750000D02*
X128300000Y-76950000D01*
X128300000Y-80250000D02*
X127550000Y-80250000D01*
X128300000Y-86250000D02*
X128300000Y-80250000D01*
X128300000Y-87750000D02*
X127550000Y-87750000D01*
X128300000Y-89550000D02*
X128300000Y-87750000D01*
X129800000Y-76950000D02*
X129800000Y-77700000D01*
X129800000Y-77700000D02*
X132750000Y-77700000D01*
X129800000Y-88800000D02*
X131140000Y-88800000D01*
X129800000Y-89550000D02*
X129800000Y-88800000D01*
X132750000Y-77700000D02*
X132750000Y-83250000D01*
X132750000Y-83250000D02*
X132750000Y-87740000D01*
X133510000Y-76940000D02*
X127540000Y-76940000D01*
X133510000Y-89560000D02*
X133510000Y-76940000D01*
%TO.C,D3*%
X128937500Y-133360000D02*
X131622500Y-133360000D01*
X131622500Y-131440000D02*
X128937500Y-131440000D01*
X131622500Y-133360000D02*
X131622500Y-131440000D01*
D17*
%TO.C,U3*%
X118746100Y-95471100D02*
X118746100Y-98722300D01*
X124003900Y-98722300D02*
X124003900Y-95471100D01*
X123326200Y-94947700D02*
G75*
G02*
X123173800Y-94947700I-76200J0D01*
G01*
X123173800Y-94947700D02*
G75*
G02*
X123326200Y-94947700I76200J0D01*
G01*
D14*
%TO.C,R1*%
X118877500Y-91537742D02*
X118877500Y-92012258D01*
X119922500Y-91537742D02*
X119922500Y-92012258D01*
%TO.C,J2*%
X118990000Y-72940000D02*
X118990000Y-80560000D01*
X118990000Y-80560000D02*
X124960000Y-80560000D01*
X119750000Y-76750000D02*
X119750000Y-74760000D01*
X119750000Y-79800000D02*
X119750000Y-76750000D01*
X122700000Y-72950000D02*
X122700000Y-73700000D01*
X122700000Y-73700000D02*
X121360000Y-73700000D01*
X122700000Y-79800000D02*
X119750000Y-79800000D01*
X122700000Y-80550000D02*
X122700000Y-79800000D01*
X124200000Y-72950000D02*
X124200000Y-74750000D01*
X124200000Y-74750000D02*
X124950000Y-74750000D01*
X124200000Y-76250000D02*
X124200000Y-77250000D01*
X124200000Y-77250000D02*
X124950000Y-77250000D01*
X124200000Y-78750000D02*
X124200000Y-80550000D01*
X124200000Y-80550000D02*
X124950000Y-80550000D01*
X124950000Y-72950000D02*
X124200000Y-72950000D01*
X124950000Y-74750000D02*
X124950000Y-72950000D01*
X124950000Y-76250000D02*
X124200000Y-76250000D01*
X124950000Y-77250000D02*
X124950000Y-76250000D01*
X124950000Y-78750000D02*
X124200000Y-78750000D01*
X124950000Y-80550000D02*
X124950000Y-78750000D01*
X124960000Y-72940000D02*
X118990000Y-72940000D01*
X124960000Y-80560000D02*
X124960000Y-72940000D01*
X125250000Y-72650000D02*
X124000000Y-72650000D01*
X125250000Y-73900000D02*
X125250000Y-72650000D01*
%TO.C,J3*%
X119015000Y-81940000D02*
X119015000Y-89560000D01*
X119015000Y-89560000D02*
X124985000Y-89560000D01*
X119775000Y-85750000D02*
X119775000Y-83760000D01*
X119775000Y-88800000D02*
X119775000Y-85750000D01*
X122725000Y-81950000D02*
X122725000Y-82700000D01*
X122725000Y-82700000D02*
X121385000Y-82700000D01*
X122725000Y-88800000D02*
X119775000Y-88800000D01*
X122725000Y-89550000D02*
X122725000Y-88800000D01*
X124225000Y-81950000D02*
X124225000Y-83750000D01*
X124225000Y-83750000D02*
X124975000Y-83750000D01*
X124225000Y-85250000D02*
X124225000Y-86250000D01*
X124225000Y-86250000D02*
X124975000Y-86250000D01*
X124225000Y-87750000D02*
X124225000Y-89550000D01*
X124225000Y-89550000D02*
X124975000Y-89550000D01*
X124975000Y-81950000D02*
X124225000Y-81950000D01*
X124975000Y-83750000D02*
X124975000Y-81950000D01*
X124975000Y-85250000D02*
X124225000Y-85250000D01*
X124975000Y-86250000D02*
X124975000Y-85250000D01*
X124975000Y-87750000D02*
X124225000Y-87750000D01*
X124975000Y-89550000D02*
X124975000Y-87750000D01*
X124985000Y-81940000D02*
X119015000Y-81940000D01*
X124985000Y-89560000D02*
X124985000Y-81940000D01*
X125275000Y-81650000D02*
X124025000Y-81650000D01*
X125275000Y-82900000D02*
X125275000Y-81650000D01*
D11*
%TO.C,BZ1*%
X131301875Y-118450000D02*
G75*
G02*
X119298125Y-118450000I-6001875J0D01*
G01*
X119298125Y-118450000D02*
G75*
G02*
X131301875Y-118450000I6001875J0D01*
G01*
D14*
%TO.C,C3*%
X124990000Y-96734420D02*
X124990000Y-97015580D01*
X126010000Y-96734420D02*
X126010000Y-97015580D01*
D11*
%TO.C,Teensy4.1*%
X98790000Y-102920000D02*
X98790000Y-73710000D01*
X98790000Y-102920000D02*
X98790000Y-104190000D01*
X98790000Y-104190000D02*
X98790000Y-134670000D01*
X98790000Y-134670000D02*
X116570000Y-134670000D01*
X116570000Y-73710000D02*
X98790000Y-73710000D01*
X116570000Y-73710000D02*
X116570000Y-101650000D01*
X116570000Y-134670000D02*
X116570000Y-101650000D01*
D14*
%TO.C,R2*%
X126477500Y-108387742D02*
X126477500Y-108862258D01*
X127522500Y-108387742D02*
X127522500Y-108862258D01*
%TO.C,R3*%
X125137742Y-129677500D02*
X125612258Y-129677500D01*
X125137742Y-130722500D02*
X125612258Y-130722500D01*
%TO.C,C2*%
X124852500Y-105334420D02*
X124852500Y-105615580D01*
X125872500Y-105334420D02*
X125872500Y-105615580D01*
%TO.C,R4*%
X120337742Y-129677500D02*
X120812258Y-129677500D01*
X120337742Y-130722500D02*
X120812258Y-130722500D01*
%TO.C,C1*%
X124852500Y-102309420D02*
X124852500Y-102590580D01*
X125872500Y-102309420D02*
X125872500Y-102590580D01*
%TO.C,C4*%
X122865580Y-93368300D02*
X122584420Y-93368300D01*
X122865580Y-94388300D02*
X122584420Y-94388300D01*
%TD*%
M02*
