%TF.GenerationSoftware,KiCad,Pcbnew,9.0.4*%
%TF.CreationDate,2025-10-31T11:16:09-04:00*%
%TF.ProjectId,Ethan PCB,45746861-6e20-4504-9342-2e6b69636164,rev?*%
%TF.SameCoordinates,Original*%
%TF.FileFunction,Soldermask,Bot*%
%TF.FilePolarity,Negative*%
%FSLAX46Y46*%
G04 Gerber Fmt 4.6, Leading zero omitted, Abs format (unit mm)*
G04 Created by KiCad (PCBNEW 9.0.4) date 2025-10-31 11:16:09*
%MOMM*%
%LPD*%
G01*
G04 APERTURE LIST*
G04 Aperture macros list*
%AMRoundRect*
0 Rectangle with rounded corners*
0 $1 Rounding radius*
0 $2 $3 $4 $5 $6 $7 $8 $9 X,Y pos of 4 corners*
0 Add a 4 corners polygon primitive as box body*
4,1,4,$2,$3,$4,$5,$6,$7,$8,$9,$2,$3,0*
0 Add four circle primitives for the rounded corners*
1,1,$1+$1,$2,$3*
1,1,$1+$1,$4,$5*
1,1,$1+$1,$6,$7*
1,1,$1+$1,$8,$9*
0 Add four rect primitives between the rounded corners*
20,1,$1+$1,$2,$3,$4,$5,0*
20,1,$1+$1,$4,$5,$6,$7,0*
20,1,$1+$1,$6,$7,$8,$9,0*
20,1,$1+$1,$8,$9,$2,$3,0*%
G04 Aperture macros list end*
%ADD10RoundRect,0.250000X0.600000X0.750000X-0.600000X0.750000X-0.600000X-0.750000X0.600000X-0.750000X0*%
%ADD11O,1.700000X2.000000*%
%ADD12C,2.000000*%
%ADD13RoundRect,0.250000X-0.725000X0.600000X-0.725000X-0.600000X0.725000X-0.600000X0.725000X0.600000X0*%
%ADD14O,1.950000X1.700000*%
%ADD15C,3.200000*%
%ADD16RoundRect,0.250000X0.725000X-0.600000X0.725000X0.600000X-0.725000X0.600000X-0.725000X-0.600000X0*%
%ADD17R,1.500000X0.900000*%
%ADD18R,2.900000X2.900000*%
%ADD19R,0.350000X0.590000*%
%ADD20R,0.590000X0.350000*%
%ADD21RoundRect,0.225000X0.250000X-0.225000X0.250000X0.225000X-0.250000X0.225000X-0.250000X-0.225000X0*%
%ADD22RoundRect,0.225000X0.225000X0.250000X-0.225000X0.250000X-0.225000X-0.250000X0.225000X-0.250000X0*%
%ADD23RoundRect,0.135000X0.185000X-0.135000X0.185000X0.135000X-0.185000X0.135000X-0.185000X-0.135000X0*%
%ADD24R,0.279400X0.254000*%
%ADD25R,0.254000X0.254000*%
%ADD26RoundRect,0.225000X-0.225000X-0.250000X0.225000X-0.250000X0.225000X0.250000X-0.225000X0.250000X0*%
%ADD27C,0.464000*%
%ADD28RoundRect,0.135000X-0.185000X0.135000X-0.185000X-0.135000X0.185000X-0.135000X0.185000X0.135000X0*%
%ADD29RoundRect,0.243750X0.243750X0.456250X-0.243750X0.456250X-0.243750X-0.456250X0.243750X-0.456250X0*%
%ADD30C,0.203200*%
%ADD31R,2.000000X2.000000*%
G04 APERTURE END LIST*
D10*
%TO.C,J2*%
X94900000Y-101500000D03*
D11*
X92400000Y-101500000D03*
%TD*%
D12*
%TO.C,Teensy4.1*%
X104305000Y-72855000D03*
X104305000Y-39835000D03*
X89065000Y-37295000D03*
X104305000Y-75395000D03*
X104305000Y-77935000D03*
X104305000Y-80475000D03*
X104305000Y-83015000D03*
X104305000Y-85555000D03*
X104305000Y-88095000D03*
X104305000Y-90635000D03*
X104305000Y-93175000D03*
X104305000Y-95715000D03*
X89065000Y-95715000D03*
X89065000Y-93175000D03*
X89065000Y-90635000D03*
X89065000Y-88095000D03*
X89065000Y-85555000D03*
X89065000Y-83015000D03*
X89065000Y-80475000D03*
X89065000Y-77935000D03*
X89065000Y-75395000D03*
X104305000Y-44915000D03*
X104305000Y-47455000D03*
X104305000Y-49995000D03*
X104305000Y-52535000D03*
X104305000Y-55075000D03*
X104305000Y-57615000D03*
X104305000Y-60155000D03*
X104305000Y-62695000D03*
X104305000Y-65235000D03*
X104305000Y-67775000D03*
X104305000Y-70315000D03*
X89065000Y-70315000D03*
X89065000Y-67775000D03*
X89065000Y-65235000D03*
X89065000Y-62695000D03*
X89065000Y-60155000D03*
X89065000Y-57615000D03*
X89065000Y-55075000D03*
X104305000Y-37295000D03*
X89065000Y-52535000D03*
X89065000Y-49995000D03*
X104305000Y-42375000D03*
X89065000Y-72855000D03*
X89065000Y-47455000D03*
X89065000Y-44915000D03*
X89065000Y-42375000D03*
X89065000Y-39835000D03*
%TD*%
D13*
%TO.C,J5*%
X84500000Y-52500000D03*
D14*
X84500000Y-55000000D03*
X84500000Y-57500000D03*
X84500000Y-60000000D03*
X84500000Y-62500000D03*
X84500000Y-65000000D03*
%TD*%
D15*
%TO.C,H2*%
X102000000Y-101000000D03*
%TD*%
%TO.C,H1*%
X93000000Y-53000000D03*
%TD*%
D10*
%TO.C,J4*%
X86250000Y-101525000D03*
D11*
X83750000Y-101525000D03*
%TD*%
D16*
%TO.C,J3*%
X83500000Y-93500000D03*
D14*
X83500000Y-91000000D03*
X83500000Y-88500000D03*
X83500000Y-86000000D03*
%TD*%
D16*
%TO.C,J1*%
X83500000Y-79500000D03*
D14*
X83500000Y-77000000D03*
X83500000Y-74500000D03*
X83500000Y-72000000D03*
%TD*%
D17*
%TO.C,U4*%
X101500000Y-36600000D03*
X101500000Y-38100000D03*
X101500000Y-39600000D03*
X101500000Y-41100000D03*
X101500000Y-42600000D03*
X101500000Y-44100000D03*
X101500000Y-45600000D03*
X101500000Y-47100000D03*
X101500000Y-48600000D03*
X84000000Y-48600000D03*
X84000000Y-47100000D03*
X84000000Y-45600000D03*
X84000000Y-44100000D03*
X84000000Y-42600000D03*
X84000000Y-41100000D03*
X84000000Y-39600000D03*
X84000000Y-38100000D03*
X84000000Y-36600000D03*
D18*
X91790000Y-42800000D03*
%TD*%
D19*
%TO.C,U5*%
X98000000Y-63335000D03*
X97500000Y-63335000D03*
X97000000Y-63335000D03*
X96500000Y-63335000D03*
X96000000Y-63335000D03*
X95500000Y-63335000D03*
X95000000Y-63335000D03*
D20*
X94585000Y-64500000D03*
D19*
X95000000Y-65665000D03*
X95500000Y-65665000D03*
X96000000Y-65665000D03*
X96500000Y-65665000D03*
X97000000Y-65665000D03*
X97500000Y-65665000D03*
X98000000Y-65665000D03*
D20*
X98415000Y-64500000D03*
%TD*%
D21*
%TO.C,C6*%
X94500000Y-59275000D03*
X94500000Y-57725000D03*
%TD*%
D22*
%TO.C,C7*%
X100775000Y-70000000D03*
X99225000Y-70000000D03*
%TD*%
D23*
%TO.C,R1*%
X102000000Y-55010000D03*
X102000000Y-53990000D03*
%TD*%
D24*
%TO.C,U2*%
X97445301Y-55976999D03*
X97445301Y-56476999D03*
D25*
X97184999Y-57000000D03*
X96685000Y-57000000D03*
X96185001Y-57000000D03*
D24*
X95924699Y-56476999D03*
X95924699Y-55976999D03*
D25*
X96185001Y-55453998D03*
X96685000Y-55453998D03*
X97184999Y-55453998D03*
%TD*%
D26*
%TO.C,C4*%
X96225000Y-59000000D03*
X97775000Y-59000000D03*
%TD*%
D22*
%TO.C,C3*%
X97775000Y-68000000D03*
X96225000Y-68000000D03*
%TD*%
D27*
%TO.C,U1*%
X96975000Y-71490000D03*
X95975000Y-71490000D03*
X96975000Y-71990000D03*
X95975000Y-71990000D03*
X96975000Y-72490000D03*
X95975000Y-72490000D03*
%TD*%
D26*
%TO.C,C5*%
X97225000Y-61000000D03*
X98775000Y-61000000D03*
%TD*%
D28*
%TO.C,R2*%
X102000000Y-58490000D03*
X102000000Y-59510000D03*
%TD*%
D29*
%TO.C,D2*%
X101937500Y-96500000D03*
X100062500Y-96500000D03*
%TD*%
D30*
%TO.C,U3*%
X94500000Y-61100000D03*
X94100000Y-61100000D03*
X94500000Y-61500000D03*
X94100000Y-61500000D03*
%TD*%
D26*
%TO.C,C2*%
X96725000Y-53500000D03*
X98275000Y-53500000D03*
%TD*%
D31*
%TO.C,BZ1*%
X94000000Y-89500000D03*
D12*
X99000000Y-89500000D03*
%TD*%
M02*
