%TF.GenerationSoftware,KiCad,Pcbnew,9.0.4*%
%TF.CreationDate,2025-10-31T11:16:09-04:00*%
%TF.ProjectId,Ethan PCB,45746861-6e20-4504-9342-2e6b69636164,rev?*%
%TF.SameCoordinates,Original*%
%TF.FileFunction,Legend,Top*%
%TF.FilePolarity,Positive*%
%FSLAX46Y46*%
G04 Gerber Fmt 4.6, Leading zero omitted, Abs format (unit mm)*
G04 Created by KiCad (PCBNEW 9.0.4) date 2025-10-31 11:16:09*
%MOMM*%
%LPD*%
G01*
G04 APERTURE LIST*
%ADD10C,0.100000*%
%ADD11C,0.120000*%
G04 APERTURE END LIST*
D10*
X91162693Y-37485038D02*
X91067455Y-37437419D01*
X91067455Y-37437419D02*
X90924598Y-37437419D01*
X90924598Y-37437419D02*
X90781741Y-37485038D01*
X90781741Y-37485038D02*
X90686503Y-37580276D01*
X90686503Y-37580276D02*
X90638884Y-37675514D01*
X90638884Y-37675514D02*
X90591265Y-37865990D01*
X90591265Y-37865990D02*
X90591265Y-38008847D01*
X90591265Y-38008847D02*
X90638884Y-38199323D01*
X90638884Y-38199323D02*
X90686503Y-38294561D01*
X90686503Y-38294561D02*
X90781741Y-38389800D01*
X90781741Y-38389800D02*
X90924598Y-38437419D01*
X90924598Y-38437419D02*
X91019836Y-38437419D01*
X91019836Y-38437419D02*
X91162693Y-38389800D01*
X91162693Y-38389800D02*
X91210312Y-38342180D01*
X91210312Y-38342180D02*
X91210312Y-38008847D01*
X91210312Y-38008847D02*
X91019836Y-38008847D01*
X91638884Y-38437419D02*
X91638884Y-37437419D01*
X91638884Y-37437419D02*
X92210312Y-38437419D01*
X92210312Y-38437419D02*
X92210312Y-37437419D01*
X92686503Y-38437419D02*
X92686503Y-37437419D01*
X92686503Y-37437419D02*
X92924598Y-37437419D01*
X92924598Y-37437419D02*
X93067455Y-37485038D01*
X93067455Y-37485038D02*
X93162693Y-37580276D01*
X93162693Y-37580276D02*
X93210312Y-37675514D01*
X93210312Y-37675514D02*
X93257931Y-37865990D01*
X93257931Y-37865990D02*
X93257931Y-38008847D01*
X93257931Y-38008847D02*
X93210312Y-38199323D01*
X93210312Y-38199323D02*
X93162693Y-38294561D01*
X93162693Y-38294561D02*
X93067455Y-38389800D01*
X93067455Y-38389800D02*
X92924598Y-38437419D01*
X92924598Y-38437419D02*
X92686503Y-38437419D01*
D11*
%TO.C,J2*%
X97750000Y-104250000D02*
X97750000Y-103000000D01*
X97460000Y-103960000D02*
X97460000Y-97990000D01*
X97460000Y-97990000D02*
X89840000Y-97990000D01*
X97450000Y-103950000D02*
X97450000Y-103200000D01*
X97450000Y-103200000D02*
X95650000Y-103200000D01*
X97450000Y-101700000D02*
X96700000Y-101700000D01*
X96700000Y-101700000D02*
X96700000Y-98750000D01*
X96700000Y-98750000D02*
X93650000Y-98750000D01*
X96500000Y-104250000D02*
X97750000Y-104250000D01*
X95650000Y-103950000D02*
X97450000Y-103950000D01*
X95650000Y-103200000D02*
X95650000Y-103950000D01*
X94150000Y-103950000D02*
X94150000Y-103200000D01*
X94150000Y-103200000D02*
X93150000Y-103200000D01*
X93150000Y-103950000D02*
X94150000Y-103950000D01*
X93150000Y-103200000D02*
X93150000Y-103950000D01*
X91650000Y-103950000D02*
X91650000Y-103200000D01*
X91650000Y-103200000D02*
X89850000Y-103200000D01*
X90600000Y-101700000D02*
X90600000Y-98750000D01*
X90600000Y-98750000D02*
X93650000Y-98750000D01*
X89850000Y-103950000D02*
X91650000Y-103950000D01*
X89850000Y-103200000D02*
X89850000Y-103950000D01*
X89850000Y-101700000D02*
X90600000Y-101700000D01*
X89840000Y-103960000D02*
X97460000Y-103960000D01*
X89840000Y-97990000D02*
X89840000Y-103960000D01*
D10*
%TO.C,Teensy4.1*%
X105575000Y-96985000D02*
X105575000Y-63965000D01*
X105575000Y-36025000D02*
X105575000Y-63965000D01*
X105575000Y-36025000D02*
X87795000Y-36025000D01*
X87795000Y-96985000D02*
X105575000Y-96985000D01*
X87795000Y-66505000D02*
X87795000Y-96985000D01*
X87795000Y-65235000D02*
X87795000Y-66505000D01*
X87795000Y-65235000D02*
X87795000Y-36025000D01*
D11*
%TO.C,J5*%
X80990000Y-49940000D02*
X80990000Y-67560000D01*
X80990000Y-67560000D02*
X86960000Y-67560000D01*
X81750000Y-50700000D02*
X81750000Y-58750000D01*
X81750000Y-66800000D02*
X81750000Y-58750000D01*
X84700000Y-49950000D02*
X84700000Y-50700000D01*
X84700000Y-50700000D02*
X81750000Y-50700000D01*
X84700000Y-66800000D02*
X81750000Y-66800000D01*
X84700000Y-67550000D02*
X84700000Y-66800000D01*
X86200000Y-49950000D02*
X86200000Y-51750000D01*
X86200000Y-51750000D02*
X86950000Y-51750000D01*
X86200000Y-53250000D02*
X86200000Y-64250000D01*
X86200000Y-64250000D02*
X86950000Y-64250000D01*
X86200000Y-65750000D02*
X86200000Y-67550000D01*
X86200000Y-67550000D02*
X86950000Y-67550000D01*
X86950000Y-49950000D02*
X86200000Y-49950000D01*
X86950000Y-51750000D02*
X86950000Y-49950000D01*
X86950000Y-53250000D02*
X86200000Y-53250000D01*
X86950000Y-64250000D02*
X86950000Y-53250000D01*
X86950000Y-65750000D02*
X86200000Y-65750000D01*
X86950000Y-67550000D02*
X86950000Y-65750000D01*
X86960000Y-49940000D02*
X80990000Y-49940000D01*
X86960000Y-67560000D02*
X86960000Y-49940000D01*
X87250000Y-49650000D02*
X86000000Y-49650000D01*
X87250000Y-50900000D02*
X87250000Y-49650000D01*
%TO.C,J4*%
X81190000Y-98015000D02*
X81190000Y-103985000D01*
X81190000Y-103985000D02*
X88810000Y-103985000D01*
X81200000Y-101725000D02*
X81950000Y-101725000D01*
X81200000Y-103225000D02*
X81200000Y-103975000D01*
X81200000Y-103975000D02*
X83000000Y-103975000D01*
X81950000Y-98775000D02*
X85000000Y-98775000D01*
X81950000Y-101725000D02*
X81950000Y-98775000D01*
X83000000Y-103225000D02*
X81200000Y-103225000D01*
X83000000Y-103975000D02*
X83000000Y-103225000D01*
X84500000Y-103225000D02*
X84500000Y-103975000D01*
X84500000Y-103975000D02*
X85500000Y-103975000D01*
X85500000Y-103225000D02*
X84500000Y-103225000D01*
X85500000Y-103975000D02*
X85500000Y-103225000D01*
X87000000Y-103225000D02*
X87000000Y-103975000D01*
X87000000Y-103975000D02*
X88800000Y-103975000D01*
X87850000Y-104275000D02*
X89100000Y-104275000D01*
X88050000Y-98775000D02*
X85000000Y-98775000D01*
X88050000Y-101725000D02*
X88050000Y-98775000D01*
X88800000Y-101725000D02*
X88050000Y-101725000D01*
X88800000Y-103225000D02*
X87000000Y-103225000D01*
X88800000Y-103975000D02*
X88800000Y-103225000D01*
X88810000Y-98015000D02*
X81190000Y-98015000D01*
X88810000Y-103985000D02*
X88810000Y-98015000D01*
X89100000Y-104275000D02*
X89100000Y-103025000D01*
%TO.C,D1*%
X94040000Y-93815000D02*
X94040000Y-96500000D01*
X95960000Y-93815000D02*
X94040000Y-93815000D01*
X95960000Y-96500000D02*
X95960000Y-93815000D01*
%TO.C,J3*%
X80750000Y-95100000D02*
X80750000Y-96350000D01*
X80750000Y-96350000D02*
X82000000Y-96350000D01*
X81040000Y-83440000D02*
X81040000Y-96060000D01*
X81040000Y-96060000D02*
X87010000Y-96060000D01*
X81050000Y-83450000D02*
X81050000Y-85250000D01*
X81050000Y-85250000D02*
X81800000Y-85250000D01*
X81050000Y-86750000D02*
X81050000Y-92750000D01*
X81050000Y-92750000D02*
X81800000Y-92750000D01*
X81050000Y-94250000D02*
X81050000Y-96050000D01*
X81050000Y-96050000D02*
X81800000Y-96050000D01*
X81800000Y-83450000D02*
X81050000Y-83450000D01*
X81800000Y-85250000D02*
X81800000Y-83450000D01*
X81800000Y-86750000D02*
X81050000Y-86750000D01*
X81800000Y-92750000D02*
X81800000Y-86750000D01*
X81800000Y-94250000D02*
X81050000Y-94250000D01*
X81800000Y-96050000D02*
X81800000Y-94250000D01*
X83300000Y-83450000D02*
X83300000Y-84200000D01*
X83300000Y-84200000D02*
X86250000Y-84200000D01*
X83300000Y-95300000D02*
X86250000Y-95300000D01*
X83300000Y-96050000D02*
X83300000Y-95300000D01*
X86250000Y-84200000D02*
X86250000Y-89750000D01*
X86250000Y-95300000D02*
X86250000Y-89750000D01*
X87010000Y-83440000D02*
X81040000Y-83440000D01*
X87010000Y-96060000D02*
X87010000Y-83440000D01*
%TO.C,R3*%
X99120000Y-37653641D02*
X99120000Y-37346359D01*
X99880000Y-37653641D02*
X99880000Y-37346359D01*
%TO.C,C1*%
X96859420Y-36490000D02*
X97140580Y-36490000D01*
X96859420Y-37510000D02*
X97140580Y-37510000D01*
%TO.C,J1*%
X80750000Y-81100000D02*
X80750000Y-82350000D01*
X80750000Y-82350000D02*
X82000000Y-82350000D01*
X81040000Y-69440000D02*
X81040000Y-82060000D01*
X81040000Y-82060000D02*
X87010000Y-82060000D01*
X81050000Y-69450000D02*
X81050000Y-71250000D01*
X81050000Y-71250000D02*
X81800000Y-71250000D01*
X81050000Y-72750000D02*
X81050000Y-78750000D01*
X81050000Y-78750000D02*
X81800000Y-78750000D01*
X81050000Y-80250000D02*
X81050000Y-82050000D01*
X81050000Y-82050000D02*
X81800000Y-82050000D01*
X81800000Y-69450000D02*
X81050000Y-69450000D01*
X81800000Y-71250000D02*
X81800000Y-69450000D01*
X81800000Y-72750000D02*
X81050000Y-72750000D01*
X81800000Y-78750000D02*
X81800000Y-72750000D01*
X81800000Y-80250000D02*
X81050000Y-80250000D01*
X81800000Y-82050000D02*
X81800000Y-80250000D01*
X83300000Y-69450000D02*
X83300000Y-70200000D01*
X83300000Y-70200000D02*
X86250000Y-70200000D01*
X83300000Y-81300000D02*
X86250000Y-81300000D01*
X83300000Y-82050000D02*
X83300000Y-81300000D01*
X86250000Y-70200000D02*
X86250000Y-75750000D01*
X86250000Y-81300000D02*
X86250000Y-75750000D01*
X87010000Y-69440000D02*
X81040000Y-69440000D01*
X87010000Y-82060000D02*
X87010000Y-69440000D01*
%TD*%
M02*
