%TF.GenerationSoftware,KiCad,Pcbnew,7.0.7*%
%TF.CreationDate,2024-02-15T18:40:12-05:00*%
%TF.ProjectId,LVPD-board,4c565044-2d62-46f6-9172-642e6b696361,rev?*%
%TF.SameCoordinates,Original*%
%TF.FileFunction,Copper,L2,Bot*%
%TF.FilePolarity,Positive*%
%FSLAX46Y46*%
G04 Gerber Fmt 4.6, Leading zero omitted, Abs format (unit mm)*
G04 Created by KiCad (PCBNEW 7.0.7) date 2024-02-15 18:40:12*
%MOMM*%
%LPD*%
G01*
G04 APERTURE LIST*
G04 Aperture macros list*
%AMRoundRect*
0 Rectangle with rounded corners*
0 $1 Rounding radius*
0 $2 $3 $4 $5 $6 $7 $8 $9 X,Y pos of 4 corners*
0 Add a 4 corners polygon primitive as box body*
4,1,4,$2,$3,$4,$5,$6,$7,$8,$9,$2,$3,0*
0 Add four circle primitives for the rounded corners*
1,1,$1+$1,$2,$3*
1,1,$1+$1,$4,$5*
1,1,$1+$1,$6,$7*
1,1,$1+$1,$8,$9*
0 Add four rect primitives between the rounded corners*
20,1,$1+$1,$2,$3,$4,$5,0*
20,1,$1+$1,$4,$5,$6,$7,0*
20,1,$1+$1,$6,$7,$8,$9,0*
20,1,$1+$1,$8,$9,$2,$3,0*%
G04 Aperture macros list end*
%TA.AperFunction,ComponentPad*%
%ADD10R,1.700000X1.700000*%
%TD*%
%TA.AperFunction,ComponentPad*%
%ADD11O,1.700000X1.700000*%
%TD*%
%TA.AperFunction,ComponentPad*%
%ADD12RoundRect,0.250000X0.725000X-0.600000X0.725000X0.600000X-0.725000X0.600000X-0.725000X-0.600000X0*%
%TD*%
%TA.AperFunction,ComponentPad*%
%ADD13O,1.950000X1.700000*%
%TD*%
%TA.AperFunction,WasherPad*%
%ADD14C,4.170000*%
%TD*%
%TA.AperFunction,Conductor*%
%ADD15C,0.500000*%
%TD*%
%TA.AperFunction,Conductor*%
%ADD16C,1.500000*%
%TD*%
%TA.AperFunction,Conductor*%
%ADD17C,0.250000*%
%TD*%
G04 APERTURE END LIST*
D10*
%TO.P,J4,1,Pin_1*%
%TO.N,/VCC*%
X198340000Y-82000000D03*
D11*
%TO.P,J4,2,Pin_2*%
%TO.N,/GND*%
X200880000Y-82000000D03*
%TO.P,J4,3,Pin_3*%
%TO.N,/VSIG*%
X203420000Y-82000000D03*
%TO.P,J4,4,Pin_4*%
%TO.N,/INT*%
X205960000Y-82000000D03*
%TO.P,J4,5,Pin_5*%
%TO.N,/SCK*%
X208500000Y-82000000D03*
%TO.P,J4,6,Pin_6*%
%TO.N,/MISO*%
X211040000Y-82000000D03*
%TO.P,J4,7,Pin_7*%
%TO.N,/MOSI*%
X213580000Y-82000000D03*
%TO.P,J4,8,Pin_8*%
%TO.N,/CS*%
X216120000Y-82000000D03*
%TO.P,J4,9,Pin_9*%
%TO.N,/RST*%
X218660000Y-82000000D03*
%TD*%
D10*
%TO.P,J1,1,Pin_1*%
%TO.N,/EN*%
X198500000Y-105620000D03*
D11*
%TO.P,J1,2,Pin_2*%
%TO.N,/VBAT*%
X198500000Y-103080000D03*
%TO.P,J1,3,Pin_3*%
%TO.N,/GND*%
X198500000Y-100540000D03*
%TO.P,J1,4,Pin_4*%
%TO.N,/VCC*%
X198500000Y-98000000D03*
%TD*%
D12*
%TO.P,J2,1,Pin_1*%
%TO.N,/EN*%
X192000000Y-94500000D03*
D13*
%TO.P,J2,2,Pin_2*%
%TO.N,/VSIG*%
X192000000Y-92000000D03*
%TO.P,J2,3,Pin_3*%
%TO.N,/GND*%
X192000000Y-89500000D03*
%TD*%
D10*
%TO.P,J5,1,Pin_1*%
%TO.N,/RST*%
X218650000Y-111525000D03*
D11*
%TO.P,J5,2,Pin_2*%
%TO.N,/CS*%
X216110000Y-111525000D03*
%TO.P,J5,3,Pin_3*%
%TO.N,/MOSI*%
X213570000Y-111525000D03*
%TO.P,J5,4,Pin_4*%
%TO.N,/MISO*%
X211030000Y-111525000D03*
%TO.P,J5,5,Pin_5*%
%TO.N,/SCK*%
X208490000Y-111525000D03*
%TO.P,J5,6,Pin_6*%
%TO.N,/INT*%
X205950000Y-111525000D03*
%TO.P,J5,7,Pin_7*%
%TO.N,unconnected-(J5-Pin_7-Pad7)*%
X203410000Y-111525000D03*
%TO.P,J5,8,Pin_8*%
%TO.N,/GND*%
X200870000Y-111525000D03*
%TO.P,J5,9,Pin_9*%
%TO.N,/VCC*%
X198330000Y-111525000D03*
%TD*%
D14*
%TO.P,BAT1,*%
%TO.N,*%
X177600000Y-92495000D03*
X122400000Y-92495000D03*
%TD*%
D10*
%TO.P,J6,1,Pin_1*%
%TO.N,unconnected-(J6-Pin_1-Pad1)*%
X198330000Y-86125000D03*
D11*
%TO.P,J6,2,Pin_2*%
%TO.N,unconnected-(J6-Pin_2-Pad2)*%
X200870000Y-86125000D03*
%TO.P,J6,3,Pin_3*%
%TO.N,unconnected-(J6-Pin_3-Pad3)*%
X203410000Y-86125000D03*
%TO.P,J6,4,Pin_4*%
%TO.N,unconnected-(J6-Pin_4-Pad4)*%
X205950000Y-86125000D03*
%TO.P,J6,5,Pin_5*%
%TO.N,unconnected-(J6-Pin_5-Pad5)*%
X208490000Y-86125000D03*
%TD*%
D15*
%TO.N,/GND*%
X200870000Y-111130000D02*
X203000000Y-109000000D01*
X203000000Y-105040000D02*
X198500000Y-100540000D01*
X200870000Y-111525000D02*
X200870000Y-111130000D01*
X203000000Y-109000000D02*
X203000000Y-105040000D01*
%TO.N,/VCC*%
X198330000Y-111525000D02*
X196500000Y-109695000D01*
X196500000Y-109695000D02*
X196500000Y-100000000D01*
X196500000Y-100000000D02*
X198500000Y-98000000D01*
D16*
X198500000Y-98000000D02*
X195000000Y-94500000D01*
X195000000Y-94500000D02*
X195000000Y-84000000D01*
X195000000Y-84000000D02*
X197000000Y-82000000D01*
X197000000Y-82000000D02*
X198340000Y-82000000D01*
D17*
%TO.N,/VSIG*%
X191000000Y-92000000D02*
X190000000Y-91000000D01*
X190000000Y-91000000D02*
X190000000Y-85500000D01*
X190000000Y-85500000D02*
X196000000Y-79500000D01*
X200920000Y-79500000D02*
X203420000Y-82000000D01*
X196000000Y-79500000D02*
X200920000Y-79500000D01*
X192000000Y-92000000D02*
X191000000Y-92000000D01*
%TD*%
M02*
