M48
; DRILL file {KiCad 7.0.7} date Thu Feb 15 18:39:54 2024
; FORMAT={-:-/ absolute / inch / decimal}
; #@! TF.CreationDate,2024-02-15T18:39:54-05:00
; #@! TF.GenerationSoftware,Kicad,Pcbnew,7.0.7
; #@! TF.FileFunction,Plated,1,2,PTH
FMAT,2
INCH
; #@! TA.AperFunction,Plated,PTH,ComponentDrill
T1C0.0374
; #@! TA.AperFunction,Plated,PTH,ComponentDrill
T2C0.0394
%
G90
G05
T1
X7.5591Y-3.5236
X7.5591Y-3.622
X7.5591Y-3.7205
T2
X7.8083Y-3.3907
X7.8083Y-4.3907
X7.8087Y-3.2283
X7.815Y-3.8583
X7.815Y-3.9583
X7.815Y-4.0583
X7.815Y-4.1583
X7.9083Y-3.3907
X7.9083Y-4.3907
X7.9087Y-3.2283
X8.0083Y-3.3907
X8.0083Y-4.3907
X8.0087Y-3.2283
X8.1083Y-3.3907
X8.1083Y-4.3907
X8.1087Y-3.2283
X8.2083Y-3.3907
X8.2083Y-4.3907
X8.2087Y-3.2283
X8.3083Y-4.3907
X8.3087Y-3.2283
X8.4083Y-4.3907
X8.4087Y-3.2283
X8.5083Y-4.3907
X8.5087Y-3.2283
X8.6083Y-4.3907
X8.6087Y-3.2283
T0
M30
