%TF.GenerationSoftware,KiCad,Pcbnew,7.0.7*%
%TF.CreationDate,2024-02-14T21:52:59-05:00*%
%TF.ProjectId,Unified_Board,556e6966-6965-4645-9f42-6f6172642e6b,rev?*%
%TF.SameCoordinates,Original*%
%TF.FileFunction,Paste,Top*%
%TF.FilePolarity,Positive*%
%FSLAX46Y46*%
G04 Gerber Fmt 4.6, Leading zero omitted, Abs format (unit mm)*
G04 Created by KiCad (PCBNEW 7.0.7) date 2024-02-14 21:52:59*
%MOMM*%
%LPD*%
G01*
G04 APERTURE LIST*
G04 Aperture macros list*
%AMRoundRect*
0 Rectangle with rounded corners*
0 $1 Rounding radius*
0 $2 $3 $4 $5 $6 $7 $8 $9 X,Y pos of 4 corners*
0 Add a 4 corners polygon primitive as box body*
4,1,4,$2,$3,$4,$5,$6,$7,$8,$9,$2,$3,0*
0 Add four circle primitives for the rounded corners*
1,1,$1+$1,$2,$3*
1,1,$1+$1,$4,$5*
1,1,$1+$1,$6,$7*
1,1,$1+$1,$8,$9*
0 Add four rect primitives between the rounded corners*
20,1,$1+$1,$2,$3,$4,$5,0*
20,1,$1+$1,$4,$5,$6,$7,0*
20,1,$1+$1,$6,$7,$8,$9,0*
20,1,$1+$1,$8,$9,$2,$3,0*%
G04 Aperture macros list end*
%ADD10RoundRect,0.250000X-0.262500X-0.450000X0.262500X-0.450000X0.262500X0.450000X-0.262500X0.450000X0*%
%ADD11RoundRect,0.250000X0.250000X0.475000X-0.250000X0.475000X-0.250000X-0.475000X0.250000X-0.475000X0*%
%ADD12R,1.500000X1.500000*%
%ADD13R,2.300000X2.300000*%
%ADD14RoundRect,0.250000X-0.250000X-0.475000X0.250000X-0.475000X0.250000X0.475000X-0.250000X0.475000X0*%
%ADD15RoundRect,0.250000X0.325000X0.450000X-0.325000X0.450000X-0.325000X-0.450000X0.325000X-0.450000X0*%
%ADD16R,0.250000X0.275000*%
%ADD17R,0.275000X0.250000*%
%ADD18RoundRect,0.250000X-0.325000X-0.450000X0.325000X-0.450000X0.325000X0.450000X-0.325000X0.450000X0*%
%ADD19R,0.254000X0.675000*%
%ADD20R,0.675000X0.254000*%
%ADD21R,1.000000X1.800000*%
%ADD22RoundRect,0.175000X0.725000X0.175000X-0.725000X0.175000X-0.725000X-0.175000X0.725000X-0.175000X0*%
%ADD23RoundRect,0.200000X0.700000X0.200000X-0.700000X0.200000X-0.700000X-0.200000X0.700000X-0.200000X0*%
%ADD24RoundRect,0.218750X0.218750X0.381250X-0.218750X0.381250X-0.218750X-0.381250X0.218750X-0.381250X0*%
%ADD25RoundRect,0.225000X-0.225000X-0.375000X0.225000X-0.375000X0.225000X0.375000X-0.225000X0.375000X0*%
%ADD26RoundRect,0.250000X-0.350000X-0.450000X0.350000X-0.450000X0.350000X0.450000X-0.350000X0.450000X0*%
%ADD27RoundRect,0.250000X0.262500X0.450000X-0.262500X0.450000X-0.262500X-0.450000X0.262500X-0.450000X0*%
%ADD28RoundRect,0.160000X-0.222500X-0.160000X0.222500X-0.160000X0.222500X0.160000X-0.222500X0.160000X0*%
G04 APERTURE END LIST*
D10*
%TO.C,R15*%
X103087500Y-56600000D03*
X104912500Y-56600000D03*
%TD*%
D11*
%TO.C,C7*%
X151950000Y-85000000D03*
X150050000Y-85000000D03*
%TD*%
D12*
%TO.C,ANT1*%
X118800000Y-73200000D03*
D13*
X114300000Y-71800000D03*
X123300000Y-71800000D03*
X114300000Y-67300000D03*
X118800000Y-67300000D03*
X123300000Y-67300000D03*
X114300000Y-62800000D03*
X118800000Y-62800000D03*
X123300000Y-62800000D03*
%TD*%
D14*
%TO.C,C12*%
X124250000Y-82000000D03*
X126150000Y-82000000D03*
%TD*%
D15*
%TO.C,D5*%
X142775000Y-73200000D03*
X140725000Y-73200000D03*
%TD*%
D11*
%TO.C,C11*%
X99550000Y-50000000D03*
X101450000Y-50000000D03*
%TD*%
D10*
%TO.C,R4*%
X101525000Y-84300000D03*
X103350000Y-84300000D03*
%TD*%
%TO.C,R16*%
X130087500Y-82000000D03*
X131912500Y-82000000D03*
%TD*%
D16*
%TO.C,Alt1*%
X106887500Y-83537500D03*
X106387500Y-83537500D03*
D17*
X105875000Y-83800000D03*
X105875000Y-84300000D03*
X105875000Y-84800000D03*
D16*
X106387500Y-85062500D03*
X106887500Y-85062500D03*
D17*
X107400000Y-84800000D03*
X107400000Y-84300000D03*
X107400000Y-83800000D03*
%TD*%
D14*
%TO.C,C5*%
X133050000Y-68750000D03*
X134950000Y-68750000D03*
%TD*%
D10*
%TO.C,R3*%
X101525000Y-89700000D03*
X103350000Y-89700000D03*
%TD*%
D18*
%TO.C,D4*%
X110012500Y-79100000D03*
X112062500Y-79100000D03*
%TD*%
%TO.C,D3*%
X149725000Y-80200000D03*
X151775000Y-80200000D03*
%TD*%
D19*
%TO.C,U1*%
X144000000Y-69500000D03*
D20*
X144137500Y-68587500D03*
X144137500Y-68087500D03*
X144137500Y-67587500D03*
X144137500Y-67087500D03*
D19*
X144000000Y-66175000D03*
X143500000Y-66175000D03*
X143000000Y-66175000D03*
X142500000Y-66175000D03*
X142000000Y-66175000D03*
X141500000Y-66175000D03*
X141000000Y-66175000D03*
X140500000Y-66175000D03*
X140000000Y-66175000D03*
X139500000Y-66175000D03*
D20*
X139362500Y-67087500D03*
X139362500Y-67587500D03*
X139362500Y-68087500D03*
X139362500Y-68587500D03*
D19*
X139500000Y-69500000D03*
X140000000Y-69500000D03*
X140500000Y-69500000D03*
X141000000Y-69500000D03*
X141500000Y-69500000D03*
X142000000Y-69500000D03*
X142500000Y-69500000D03*
X143000000Y-69500000D03*
X143500000Y-69500000D03*
%TD*%
D14*
%TO.C,C2*%
X110087500Y-84200000D03*
X111987500Y-84200000D03*
%TD*%
D10*
%TO.C,R11*%
X140687500Y-77000000D03*
X142512500Y-77000000D03*
%TD*%
%TO.C,R7*%
X153275000Y-74162500D03*
X155100000Y-74162500D03*
%TD*%
%TO.C,R12*%
X101525000Y-79100000D03*
X103350000Y-79100000D03*
%TD*%
D21*
%TO.C,Y1*%
X132750000Y-74000000D03*
X135250000Y-74000000D03*
%TD*%
D22*
%TO.C,U2*%
X146600000Y-89200000D03*
D23*
X146600000Y-88100000D03*
X146600000Y-87000000D03*
X146600000Y-85900000D03*
X146600000Y-84800000D03*
X146600000Y-83700000D03*
X146600000Y-82600000D03*
X146600000Y-81500000D03*
D22*
X146600000Y-80400000D03*
X137100000Y-80400000D03*
D23*
X137100000Y-81500000D03*
X137100000Y-82600000D03*
X137100000Y-83700000D03*
X137100000Y-84800000D03*
X137100000Y-85900000D03*
X137100000Y-87000000D03*
X137100000Y-88100000D03*
D22*
X137100000Y-89200000D03*
%TD*%
D10*
%TO.C,R6*%
X153187500Y-69412500D03*
X155012500Y-69412500D03*
%TD*%
D24*
%TO.C,FB1*%
X119862500Y-84600000D03*
X117737500Y-84600000D03*
%TD*%
D25*
%TO.C,D1*%
X154150000Y-89800000D03*
X157450000Y-89800000D03*
%TD*%
D11*
%TO.C,C1*%
X111987500Y-89700000D03*
X110087500Y-89700000D03*
%TD*%
D26*
%TO.C,R1*%
X103200000Y-66800000D03*
X105200000Y-66800000D03*
%TD*%
D10*
%TO.C,R5*%
X153187500Y-64662500D03*
X155012500Y-64662500D03*
%TD*%
D18*
%TO.C,D6*%
X117975000Y-56250000D03*
X120025000Y-56250000D03*
%TD*%
D27*
%TO.C,R9*%
X131912500Y-84600000D03*
X130087500Y-84600000D03*
%TD*%
D14*
%TO.C,C6*%
X133050000Y-64000000D03*
X134950000Y-64000000D03*
%TD*%
D11*
%TO.C,C9*%
X132150000Y-89800000D03*
X130250000Y-89800000D03*
%TD*%
D14*
%TO.C,C3*%
X147300000Y-69412500D03*
X149200000Y-69412500D03*
%TD*%
%TO.C,C8*%
X129800000Y-39250000D03*
X131700000Y-39250000D03*
%TD*%
%TO.C,C4*%
X147300000Y-64662500D03*
X149200000Y-64662500D03*
%TD*%
D27*
%TO.C,R8*%
X149250000Y-74162500D03*
X147425000Y-74162500D03*
%TD*%
D28*
%TO.C,D7*%
X118227500Y-78000000D03*
X119372500Y-78000000D03*
%TD*%
D10*
%TO.C,R13*%
X154887500Y-85000000D03*
X156712500Y-85000000D03*
%TD*%
D26*
%TO.C,R2*%
X103200000Y-72000000D03*
X105200000Y-72000000D03*
%TD*%
M02*
