M48
; DRILL file {KiCad 8.0.8} date 2025-04-18T09:22:19-0400
; FORMAT={-:-/ absolute / metric / decimal}
; #@! TF.CreationDate,2025-04-18T09:22:19-04:00
; #@! TF.GenerationSoftware,Kicad,Pcbnew,8.0.8
; #@! TF.FileFunction,Plated,1,2,PTH
FMAT,2
METRIC
; #@! TA.AperFunction,Plated,PTH,ViaDrill
T1C0.400
; #@! TA.AperFunction,Plated,PTH,ComponentDrill
T2C0.950
%
G90
G05
T1
X145.5Y-100.0
X152.324Y-98.0
X154.0Y-78.5
X154.816Y-98.14
X156.272Y-92.228
X158.0Y-94.0
X158.5Y-90.0
X160.0Y-104.0
X160.228Y-91.772
X160.88Y-78.685
X169.5Y-100.0
X170.0Y-80.2
X171.0Y-76.5
X179.0Y-102.0
X179.5Y-76.5
X184.5Y-110.6
T2
X146.0Y-108.55
X148.5Y-108.55
X151.0Y-108.55
X153.5Y-108.55
X156.0Y-108.55
X158.5Y-108.55
X164.5Y-108.55
X167.0Y-108.55
X169.5Y-108.55
X172.0Y-108.55
X174.5Y-108.55
X177.0Y-108.55
M30
