%TF.GenerationSoftware,KiCad,Pcbnew,8.0.8*%
%TF.CreationDate,2025-04-18T09:22:20-04:00*%
%TF.ProjectId,RF4463F30-test-board,52463434-3633-4463-9330-2d746573742d,rev?*%
%TF.SameCoordinates,Original*%
%TF.FileFunction,Drillmap*%
%TF.FilePolarity,Positive*%
%FSLAX45Y45*%
G04 Gerber Fmt 4.5, Leading zero omitted, Abs format (unit mm)*
G04 Created by KiCad (PCBNEW 8.0.8) date 2025-04-18 09:22:20*
%MOMM*%
%LPD*%
G01*
G04 APERTURE LIST*
%ADD10C,0.100000*%
%ADD11C,0.200000*%
%ADD12C,0.320000*%
G04 APERTURE END LIST*
D10*
X13650000Y-7500000D02*
X13650000Y-11700000D01*
X18550000Y-11800000D02*
X13750000Y-11800000D01*
X18650000Y-11700000D02*
G75*
G02*
X18550000Y-11800000I-100000J0D01*
G01*
X13650000Y-7500000D02*
G75*
G02*
X13750000Y-7400000I100000J0D01*
G01*
X18550000Y-7400000D02*
X13750000Y-7400000D01*
X18650000Y-11700000D02*
X18650000Y-7500000D01*
X18550000Y-7400000D02*
G75*
G02*
X18650000Y-7500000I0J-100000D01*
G01*
X13750000Y-11800000D02*
G75*
G02*
X13650000Y-11700000I0J100000D01*
G01*
D11*
D12*
X13840000Y-7640000D02*
X14160000Y-7960000D01*
X14160000Y-7640000D02*
X13840000Y-7960000D01*
X13840000Y-10140000D02*
X14160000Y-10460000D01*
X14160000Y-10140000D02*
X13840000Y-10460000D01*
X18140000Y-7640000D02*
X18460000Y-7960000D01*
X18460000Y-7640000D02*
X18140000Y-7960000D01*
X18140000Y-10140000D02*
X18460000Y-10460000D01*
X18460000Y-10140000D02*
X18140000Y-10460000D01*
D11*
X13905777Y-12116484D02*
X13905777Y-11916484D01*
X13905777Y-11916484D02*
X13953396Y-11916484D01*
X13953396Y-11916484D02*
X13981967Y-11926008D01*
X13981967Y-11926008D02*
X14001015Y-11945055D01*
X14001015Y-11945055D02*
X14010539Y-11964103D01*
X14010539Y-11964103D02*
X14020062Y-12002198D01*
X14020062Y-12002198D02*
X14020062Y-12030769D01*
X14020062Y-12030769D02*
X14010539Y-12068865D01*
X14010539Y-12068865D02*
X14001015Y-12087912D01*
X14001015Y-12087912D02*
X13981967Y-12106960D01*
X13981967Y-12106960D02*
X13953396Y-12116484D01*
X13953396Y-12116484D02*
X13905777Y-12116484D01*
X14105777Y-12116484D02*
X14105777Y-11983150D01*
X14105777Y-12021246D02*
X14115301Y-12002198D01*
X14115301Y-12002198D02*
X14124824Y-11992674D01*
X14124824Y-11992674D02*
X14143872Y-11983150D01*
X14143872Y-11983150D02*
X14162920Y-11983150D01*
X14229586Y-12116484D02*
X14229586Y-11983150D01*
X14229586Y-11916484D02*
X14220062Y-11926008D01*
X14220062Y-11926008D02*
X14229586Y-11935531D01*
X14229586Y-11935531D02*
X14239110Y-11926008D01*
X14239110Y-11926008D02*
X14229586Y-11916484D01*
X14229586Y-11916484D02*
X14229586Y-11935531D01*
X14353396Y-12116484D02*
X14334348Y-12106960D01*
X14334348Y-12106960D02*
X14324824Y-12087912D01*
X14324824Y-12087912D02*
X14324824Y-11916484D01*
X14458158Y-12116484D02*
X14439110Y-12106960D01*
X14439110Y-12106960D02*
X14429586Y-12087912D01*
X14429586Y-12087912D02*
X14429586Y-11916484D01*
X14686729Y-12116484D02*
X14686729Y-11916484D01*
X14686729Y-11916484D02*
X14753396Y-12059341D01*
X14753396Y-12059341D02*
X14820062Y-11916484D01*
X14820062Y-11916484D02*
X14820062Y-12116484D01*
X15001015Y-12116484D02*
X15001015Y-12011722D01*
X15001015Y-12011722D02*
X14991491Y-11992674D01*
X14991491Y-11992674D02*
X14972443Y-11983150D01*
X14972443Y-11983150D02*
X14934348Y-11983150D01*
X14934348Y-11983150D02*
X14915301Y-11992674D01*
X15001015Y-12106960D02*
X14981967Y-12116484D01*
X14981967Y-12116484D02*
X14934348Y-12116484D01*
X14934348Y-12116484D02*
X14915301Y-12106960D01*
X14915301Y-12106960D02*
X14905777Y-12087912D01*
X14905777Y-12087912D02*
X14905777Y-12068865D01*
X14905777Y-12068865D02*
X14915301Y-12049817D01*
X14915301Y-12049817D02*
X14934348Y-12040293D01*
X14934348Y-12040293D02*
X14981967Y-12040293D01*
X14981967Y-12040293D02*
X15001015Y-12030769D01*
X15096253Y-11983150D02*
X15096253Y-12183150D01*
X15096253Y-11992674D02*
X15115301Y-11983150D01*
X15115301Y-11983150D02*
X15153396Y-11983150D01*
X15153396Y-11983150D02*
X15172443Y-11992674D01*
X15172443Y-11992674D02*
X15181967Y-12002198D01*
X15181967Y-12002198D02*
X15191491Y-12021246D01*
X15191491Y-12021246D02*
X15191491Y-12078388D01*
X15191491Y-12078388D02*
X15181967Y-12097436D01*
X15181967Y-12097436D02*
X15172443Y-12106960D01*
X15172443Y-12106960D02*
X15153396Y-12116484D01*
X15153396Y-12116484D02*
X15115301Y-12116484D01*
X15115301Y-12116484D02*
X15096253Y-12106960D01*
X15277205Y-12097436D02*
X15286729Y-12106960D01*
X15286729Y-12106960D02*
X15277205Y-12116484D01*
X15277205Y-12116484D02*
X15267682Y-12106960D01*
X15267682Y-12106960D02*
X15277205Y-12097436D01*
X15277205Y-12097436D02*
X15277205Y-12116484D01*
X15277205Y-11992674D02*
X15286729Y-12002198D01*
X15286729Y-12002198D02*
X15277205Y-12011722D01*
X15277205Y-12011722D02*
X15267682Y-12002198D01*
X15267682Y-12002198D02*
X15277205Y-11992674D01*
X15277205Y-11992674D02*
X15277205Y-12011722D01*
X13445000Y-12345000D02*
X13645000Y-12545000D01*
X13645000Y-12345000D02*
X13445000Y-12545000D01*
X13886729Y-12336484D02*
X14010539Y-12336484D01*
X14010539Y-12336484D02*
X13943872Y-12412674D01*
X13943872Y-12412674D02*
X13972443Y-12412674D01*
X13972443Y-12412674D02*
X13991491Y-12422198D01*
X13991491Y-12422198D02*
X14001015Y-12431722D01*
X14001015Y-12431722D02*
X14010539Y-12450769D01*
X14010539Y-12450769D02*
X14010539Y-12498388D01*
X14010539Y-12498388D02*
X14001015Y-12517436D01*
X14001015Y-12517436D02*
X13991491Y-12526960D01*
X13991491Y-12526960D02*
X13972443Y-12536484D01*
X13972443Y-12536484D02*
X13915301Y-12536484D01*
X13915301Y-12536484D02*
X13896253Y-12526960D01*
X13896253Y-12526960D02*
X13886729Y-12517436D01*
X14096253Y-12517436D02*
X14105777Y-12526960D01*
X14105777Y-12526960D02*
X14096253Y-12536484D01*
X14096253Y-12536484D02*
X14086729Y-12526960D01*
X14086729Y-12526960D02*
X14096253Y-12517436D01*
X14096253Y-12517436D02*
X14096253Y-12536484D01*
X14181967Y-12355531D02*
X14191491Y-12346008D01*
X14191491Y-12346008D02*
X14210539Y-12336484D01*
X14210539Y-12336484D02*
X14258158Y-12336484D01*
X14258158Y-12336484D02*
X14277205Y-12346008D01*
X14277205Y-12346008D02*
X14286729Y-12355531D01*
X14286729Y-12355531D02*
X14296253Y-12374579D01*
X14296253Y-12374579D02*
X14296253Y-12393627D01*
X14296253Y-12393627D02*
X14286729Y-12422198D01*
X14286729Y-12422198D02*
X14172443Y-12536484D01*
X14172443Y-12536484D02*
X14296253Y-12536484D01*
X14420062Y-12336484D02*
X14439110Y-12336484D01*
X14439110Y-12336484D02*
X14458158Y-12346008D01*
X14458158Y-12346008D02*
X14467682Y-12355531D01*
X14467682Y-12355531D02*
X14477205Y-12374579D01*
X14477205Y-12374579D02*
X14486729Y-12412674D01*
X14486729Y-12412674D02*
X14486729Y-12460293D01*
X14486729Y-12460293D02*
X14477205Y-12498388D01*
X14477205Y-12498388D02*
X14467682Y-12517436D01*
X14467682Y-12517436D02*
X14458158Y-12526960D01*
X14458158Y-12526960D02*
X14439110Y-12536484D01*
X14439110Y-12536484D02*
X14420062Y-12536484D01*
X14420062Y-12536484D02*
X14401015Y-12526960D01*
X14401015Y-12526960D02*
X14391491Y-12517436D01*
X14391491Y-12517436D02*
X14381967Y-12498388D01*
X14381967Y-12498388D02*
X14372443Y-12460293D01*
X14372443Y-12460293D02*
X14372443Y-12412674D01*
X14372443Y-12412674D02*
X14381967Y-12374579D01*
X14381967Y-12374579D02*
X14391491Y-12355531D01*
X14391491Y-12355531D02*
X14401015Y-12346008D01*
X14401015Y-12346008D02*
X14420062Y-12336484D01*
X14610539Y-12336484D02*
X14629586Y-12336484D01*
X14629586Y-12336484D02*
X14648634Y-12346008D01*
X14648634Y-12346008D02*
X14658158Y-12355531D01*
X14658158Y-12355531D02*
X14667682Y-12374579D01*
X14667682Y-12374579D02*
X14677205Y-12412674D01*
X14677205Y-12412674D02*
X14677205Y-12460293D01*
X14677205Y-12460293D02*
X14667682Y-12498388D01*
X14667682Y-12498388D02*
X14658158Y-12517436D01*
X14658158Y-12517436D02*
X14648634Y-12526960D01*
X14648634Y-12526960D02*
X14629586Y-12536484D01*
X14629586Y-12536484D02*
X14610539Y-12536484D01*
X14610539Y-12536484D02*
X14591491Y-12526960D01*
X14591491Y-12526960D02*
X14581967Y-12517436D01*
X14581967Y-12517436D02*
X14572443Y-12498388D01*
X14572443Y-12498388D02*
X14562920Y-12460293D01*
X14562920Y-12460293D02*
X14562920Y-12412674D01*
X14562920Y-12412674D02*
X14572443Y-12374579D01*
X14572443Y-12374579D02*
X14581967Y-12355531D01*
X14581967Y-12355531D02*
X14591491Y-12346008D01*
X14591491Y-12346008D02*
X14610539Y-12336484D01*
X14762920Y-12536484D02*
X14762920Y-12403150D01*
X14762920Y-12422198D02*
X14772443Y-12412674D01*
X14772443Y-12412674D02*
X14791491Y-12403150D01*
X14791491Y-12403150D02*
X14820063Y-12403150D01*
X14820063Y-12403150D02*
X14839110Y-12412674D01*
X14839110Y-12412674D02*
X14848634Y-12431722D01*
X14848634Y-12431722D02*
X14848634Y-12536484D01*
X14848634Y-12431722D02*
X14858158Y-12412674D01*
X14858158Y-12412674D02*
X14877205Y-12403150D01*
X14877205Y-12403150D02*
X14905777Y-12403150D01*
X14905777Y-12403150D02*
X14924824Y-12412674D01*
X14924824Y-12412674D02*
X14934348Y-12431722D01*
X14934348Y-12431722D02*
X14934348Y-12536484D01*
X15029586Y-12536484D02*
X15029586Y-12403150D01*
X15029586Y-12422198D02*
X15039110Y-12412674D01*
X15039110Y-12412674D02*
X15058158Y-12403150D01*
X15058158Y-12403150D02*
X15086729Y-12403150D01*
X15086729Y-12403150D02*
X15105777Y-12412674D01*
X15105777Y-12412674D02*
X15115301Y-12431722D01*
X15115301Y-12431722D02*
X15115301Y-12536484D01*
X15115301Y-12431722D02*
X15124824Y-12412674D01*
X15124824Y-12412674D02*
X15143872Y-12403150D01*
X15143872Y-12403150D02*
X15172443Y-12403150D01*
X15172443Y-12403150D02*
X15191491Y-12412674D01*
X15191491Y-12412674D02*
X15201015Y-12431722D01*
X15201015Y-12431722D02*
X15201015Y-12536484D01*
X15591491Y-12326960D02*
X15420063Y-12584103D01*
X15848634Y-12336484D02*
X15867682Y-12336484D01*
X15867682Y-12336484D02*
X15886729Y-12346008D01*
X15886729Y-12346008D02*
X15896253Y-12355531D01*
X15896253Y-12355531D02*
X15905777Y-12374579D01*
X15905777Y-12374579D02*
X15915301Y-12412674D01*
X15915301Y-12412674D02*
X15915301Y-12460293D01*
X15915301Y-12460293D02*
X15905777Y-12498388D01*
X15905777Y-12498388D02*
X15896253Y-12517436D01*
X15896253Y-12517436D02*
X15886729Y-12526960D01*
X15886729Y-12526960D02*
X15867682Y-12536484D01*
X15867682Y-12536484D02*
X15848634Y-12536484D01*
X15848634Y-12536484D02*
X15829586Y-12526960D01*
X15829586Y-12526960D02*
X15820063Y-12517436D01*
X15820063Y-12517436D02*
X15810539Y-12498388D01*
X15810539Y-12498388D02*
X15801015Y-12460293D01*
X15801015Y-12460293D02*
X15801015Y-12412674D01*
X15801015Y-12412674D02*
X15810539Y-12374579D01*
X15810539Y-12374579D02*
X15820063Y-12355531D01*
X15820063Y-12355531D02*
X15829586Y-12346008D01*
X15829586Y-12346008D02*
X15848634Y-12336484D01*
X16001015Y-12517436D02*
X16010539Y-12526960D01*
X16010539Y-12526960D02*
X16001015Y-12536484D01*
X16001015Y-12536484D02*
X15991491Y-12526960D01*
X15991491Y-12526960D02*
X16001015Y-12517436D01*
X16001015Y-12517436D02*
X16001015Y-12536484D01*
X16201015Y-12536484D02*
X16086729Y-12536484D01*
X16143872Y-12536484D02*
X16143872Y-12336484D01*
X16143872Y-12336484D02*
X16124825Y-12365055D01*
X16124825Y-12365055D02*
X16105777Y-12384103D01*
X16105777Y-12384103D02*
X16086729Y-12393627D01*
X16277206Y-12355531D02*
X16286729Y-12346008D01*
X16286729Y-12346008D02*
X16305777Y-12336484D01*
X16305777Y-12336484D02*
X16353396Y-12336484D01*
X16353396Y-12336484D02*
X16372444Y-12346008D01*
X16372444Y-12346008D02*
X16381967Y-12355531D01*
X16381967Y-12355531D02*
X16391491Y-12374579D01*
X16391491Y-12374579D02*
X16391491Y-12393627D01*
X16391491Y-12393627D02*
X16381967Y-12422198D01*
X16381967Y-12422198D02*
X16267682Y-12536484D01*
X16267682Y-12536484D02*
X16391491Y-12536484D01*
X16562920Y-12336484D02*
X16524825Y-12336484D01*
X16524825Y-12336484D02*
X16505777Y-12346008D01*
X16505777Y-12346008D02*
X16496253Y-12355531D01*
X16496253Y-12355531D02*
X16477206Y-12384103D01*
X16477206Y-12384103D02*
X16467682Y-12422198D01*
X16467682Y-12422198D02*
X16467682Y-12498388D01*
X16467682Y-12498388D02*
X16477206Y-12517436D01*
X16477206Y-12517436D02*
X16486729Y-12526960D01*
X16486729Y-12526960D02*
X16505777Y-12536484D01*
X16505777Y-12536484D02*
X16543872Y-12536484D01*
X16543872Y-12536484D02*
X16562920Y-12526960D01*
X16562920Y-12526960D02*
X16572444Y-12517436D01*
X16572444Y-12517436D02*
X16581967Y-12498388D01*
X16581967Y-12498388D02*
X16581967Y-12450769D01*
X16581967Y-12450769D02*
X16572444Y-12431722D01*
X16572444Y-12431722D02*
X16562920Y-12422198D01*
X16562920Y-12422198D02*
X16543872Y-12412674D01*
X16543872Y-12412674D02*
X16505777Y-12412674D01*
X16505777Y-12412674D02*
X16486729Y-12422198D01*
X16486729Y-12422198D02*
X16477206Y-12431722D01*
X16477206Y-12431722D02*
X16467682Y-12450769D01*
X16705777Y-12336484D02*
X16724825Y-12336484D01*
X16724825Y-12336484D02*
X16743872Y-12346008D01*
X16743872Y-12346008D02*
X16753396Y-12355531D01*
X16753396Y-12355531D02*
X16762920Y-12374579D01*
X16762920Y-12374579D02*
X16772444Y-12412674D01*
X16772444Y-12412674D02*
X16772444Y-12460293D01*
X16772444Y-12460293D02*
X16762920Y-12498388D01*
X16762920Y-12498388D02*
X16753396Y-12517436D01*
X16753396Y-12517436D02*
X16743872Y-12526960D01*
X16743872Y-12526960D02*
X16724825Y-12536484D01*
X16724825Y-12536484D02*
X16705777Y-12536484D01*
X16705777Y-12536484D02*
X16686729Y-12526960D01*
X16686729Y-12526960D02*
X16677206Y-12517436D01*
X16677206Y-12517436D02*
X16667682Y-12498388D01*
X16667682Y-12498388D02*
X16658158Y-12460293D01*
X16658158Y-12460293D02*
X16658158Y-12412674D01*
X16658158Y-12412674D02*
X16667682Y-12374579D01*
X16667682Y-12374579D02*
X16677206Y-12355531D01*
X16677206Y-12355531D02*
X16686729Y-12346008D01*
X16686729Y-12346008D02*
X16705777Y-12336484D01*
X16848634Y-12336484D02*
X16848634Y-12374579D01*
X16924825Y-12336484D02*
X16924825Y-12374579D01*
X17220063Y-12612674D02*
X17210539Y-12603150D01*
X17210539Y-12603150D02*
X17191491Y-12574579D01*
X17191491Y-12574579D02*
X17181968Y-12555531D01*
X17181968Y-12555531D02*
X17172444Y-12526960D01*
X17172444Y-12526960D02*
X17162920Y-12479341D01*
X17162920Y-12479341D02*
X17162920Y-12441246D01*
X17162920Y-12441246D02*
X17172444Y-12393627D01*
X17172444Y-12393627D02*
X17181968Y-12365055D01*
X17181968Y-12365055D02*
X17191491Y-12346008D01*
X17191491Y-12346008D02*
X17210539Y-12317436D01*
X17210539Y-12317436D02*
X17220063Y-12307912D01*
X17381968Y-12403150D02*
X17381968Y-12536484D01*
X17334349Y-12326960D02*
X17286730Y-12469817D01*
X17286730Y-12469817D02*
X17410539Y-12469817D01*
X17639111Y-12536484D02*
X17639111Y-12336484D01*
X17724825Y-12536484D02*
X17724825Y-12431722D01*
X17724825Y-12431722D02*
X17715301Y-12412674D01*
X17715301Y-12412674D02*
X17696253Y-12403150D01*
X17696253Y-12403150D02*
X17667682Y-12403150D01*
X17667682Y-12403150D02*
X17648634Y-12412674D01*
X17648634Y-12412674D02*
X17639111Y-12422198D01*
X17848634Y-12536484D02*
X17829587Y-12526960D01*
X17829587Y-12526960D02*
X17820063Y-12517436D01*
X17820063Y-12517436D02*
X17810539Y-12498388D01*
X17810539Y-12498388D02*
X17810539Y-12441246D01*
X17810539Y-12441246D02*
X17820063Y-12422198D01*
X17820063Y-12422198D02*
X17829587Y-12412674D01*
X17829587Y-12412674D02*
X17848634Y-12403150D01*
X17848634Y-12403150D02*
X17877206Y-12403150D01*
X17877206Y-12403150D02*
X17896253Y-12412674D01*
X17896253Y-12412674D02*
X17905777Y-12422198D01*
X17905777Y-12422198D02*
X17915301Y-12441246D01*
X17915301Y-12441246D02*
X17915301Y-12498388D01*
X17915301Y-12498388D02*
X17905777Y-12517436D01*
X17905777Y-12517436D02*
X17896253Y-12526960D01*
X17896253Y-12526960D02*
X17877206Y-12536484D01*
X17877206Y-12536484D02*
X17848634Y-12536484D01*
X18029587Y-12536484D02*
X18010539Y-12526960D01*
X18010539Y-12526960D02*
X18001015Y-12507912D01*
X18001015Y-12507912D02*
X18001015Y-12336484D01*
X18181968Y-12526960D02*
X18162920Y-12536484D01*
X18162920Y-12536484D02*
X18124825Y-12536484D01*
X18124825Y-12536484D02*
X18105777Y-12526960D01*
X18105777Y-12526960D02*
X18096253Y-12507912D01*
X18096253Y-12507912D02*
X18096253Y-12431722D01*
X18096253Y-12431722D02*
X18105777Y-12412674D01*
X18105777Y-12412674D02*
X18124825Y-12403150D01*
X18124825Y-12403150D02*
X18162920Y-12403150D01*
X18162920Y-12403150D02*
X18181968Y-12412674D01*
X18181968Y-12412674D02*
X18191492Y-12431722D01*
X18191492Y-12431722D02*
X18191492Y-12450769D01*
X18191492Y-12450769D02*
X18096253Y-12469817D01*
X18267682Y-12526960D02*
X18286730Y-12536484D01*
X18286730Y-12536484D02*
X18324825Y-12536484D01*
X18324825Y-12536484D02*
X18343873Y-12526960D01*
X18343873Y-12526960D02*
X18353396Y-12507912D01*
X18353396Y-12507912D02*
X18353396Y-12498388D01*
X18353396Y-12498388D02*
X18343873Y-12479341D01*
X18343873Y-12479341D02*
X18324825Y-12469817D01*
X18324825Y-12469817D02*
X18296253Y-12469817D01*
X18296253Y-12469817D02*
X18277206Y-12460293D01*
X18277206Y-12460293D02*
X18267682Y-12441246D01*
X18267682Y-12441246D02*
X18267682Y-12431722D01*
X18267682Y-12431722D02*
X18277206Y-12412674D01*
X18277206Y-12412674D02*
X18296253Y-12403150D01*
X18296253Y-12403150D02*
X18324825Y-12403150D01*
X18324825Y-12403150D02*
X18343873Y-12412674D01*
X18420063Y-12612674D02*
X18429587Y-12603150D01*
X18429587Y-12603150D02*
X18448634Y-12574579D01*
X18448634Y-12574579D02*
X18458158Y-12555531D01*
X18458158Y-12555531D02*
X18467682Y-12526960D01*
X18467682Y-12526960D02*
X18477206Y-12479341D01*
X18477206Y-12479341D02*
X18477206Y-12441246D01*
X18477206Y-12441246D02*
X18467682Y-12393627D01*
X18467682Y-12393627D02*
X18458158Y-12365055D01*
X18458158Y-12365055D02*
X18448634Y-12346008D01*
X18448634Y-12346008D02*
X18429587Y-12317436D01*
X18429587Y-12317436D02*
X18420063Y-12307912D01*
X18781968Y-12612674D02*
X18772444Y-12603150D01*
X18772444Y-12603150D02*
X18753396Y-12574579D01*
X18753396Y-12574579D02*
X18743873Y-12555531D01*
X18743873Y-12555531D02*
X18734349Y-12526960D01*
X18734349Y-12526960D02*
X18724825Y-12479341D01*
X18724825Y-12479341D02*
X18724825Y-12441246D01*
X18724825Y-12441246D02*
X18734349Y-12393627D01*
X18734349Y-12393627D02*
X18743873Y-12365055D01*
X18743873Y-12365055D02*
X18753396Y-12346008D01*
X18753396Y-12346008D02*
X18772444Y-12317436D01*
X18772444Y-12317436D02*
X18781968Y-12307912D01*
X18858158Y-12403150D02*
X18858158Y-12536484D01*
X18858158Y-12422198D02*
X18867682Y-12412674D01*
X18867682Y-12412674D02*
X18886730Y-12403150D01*
X18886730Y-12403150D02*
X18915301Y-12403150D01*
X18915301Y-12403150D02*
X18934349Y-12412674D01*
X18934349Y-12412674D02*
X18943873Y-12431722D01*
X18943873Y-12431722D02*
X18943873Y-12536484D01*
X19067682Y-12536484D02*
X19048634Y-12526960D01*
X19048634Y-12526960D02*
X19039111Y-12517436D01*
X19039111Y-12517436D02*
X19029587Y-12498388D01*
X19029587Y-12498388D02*
X19029587Y-12441246D01*
X19029587Y-12441246D02*
X19039111Y-12422198D01*
X19039111Y-12422198D02*
X19048634Y-12412674D01*
X19048634Y-12412674D02*
X19067682Y-12403150D01*
X19067682Y-12403150D02*
X19096254Y-12403150D01*
X19096254Y-12403150D02*
X19115301Y-12412674D01*
X19115301Y-12412674D02*
X19124825Y-12422198D01*
X19124825Y-12422198D02*
X19134349Y-12441246D01*
X19134349Y-12441246D02*
X19134349Y-12498388D01*
X19134349Y-12498388D02*
X19124825Y-12517436D01*
X19124825Y-12517436D02*
X19115301Y-12526960D01*
X19115301Y-12526960D02*
X19096254Y-12536484D01*
X19096254Y-12536484D02*
X19067682Y-12536484D01*
X19191492Y-12403150D02*
X19267682Y-12403150D01*
X19220063Y-12336484D02*
X19220063Y-12507912D01*
X19220063Y-12507912D02*
X19229587Y-12526960D01*
X19229587Y-12526960D02*
X19248634Y-12536484D01*
X19248634Y-12536484D02*
X19267682Y-12536484D01*
X19486730Y-12403150D02*
X19486730Y-12603150D01*
X19486730Y-12412674D02*
X19505777Y-12403150D01*
X19505777Y-12403150D02*
X19543873Y-12403150D01*
X19543873Y-12403150D02*
X19562920Y-12412674D01*
X19562920Y-12412674D02*
X19572444Y-12422198D01*
X19572444Y-12422198D02*
X19581968Y-12441246D01*
X19581968Y-12441246D02*
X19581968Y-12498388D01*
X19581968Y-12498388D02*
X19572444Y-12517436D01*
X19572444Y-12517436D02*
X19562920Y-12526960D01*
X19562920Y-12526960D02*
X19543873Y-12536484D01*
X19543873Y-12536484D02*
X19505777Y-12536484D01*
X19505777Y-12536484D02*
X19486730Y-12526960D01*
X19696254Y-12536484D02*
X19677206Y-12526960D01*
X19677206Y-12526960D02*
X19667682Y-12507912D01*
X19667682Y-12507912D02*
X19667682Y-12336484D01*
X19858158Y-12536484D02*
X19858158Y-12431722D01*
X19858158Y-12431722D02*
X19848635Y-12412674D01*
X19848635Y-12412674D02*
X19829587Y-12403150D01*
X19829587Y-12403150D02*
X19791492Y-12403150D01*
X19791492Y-12403150D02*
X19772444Y-12412674D01*
X19858158Y-12526960D02*
X19839111Y-12536484D01*
X19839111Y-12536484D02*
X19791492Y-12536484D01*
X19791492Y-12536484D02*
X19772444Y-12526960D01*
X19772444Y-12526960D02*
X19762920Y-12507912D01*
X19762920Y-12507912D02*
X19762920Y-12488865D01*
X19762920Y-12488865D02*
X19772444Y-12469817D01*
X19772444Y-12469817D02*
X19791492Y-12460293D01*
X19791492Y-12460293D02*
X19839111Y-12460293D01*
X19839111Y-12460293D02*
X19858158Y-12450769D01*
X19924825Y-12403150D02*
X20001015Y-12403150D01*
X19953396Y-12336484D02*
X19953396Y-12507912D01*
X19953396Y-12507912D02*
X19962920Y-12526960D01*
X19962920Y-12526960D02*
X19981968Y-12536484D01*
X19981968Y-12536484D02*
X20001015Y-12536484D01*
X20143873Y-12526960D02*
X20124825Y-12536484D01*
X20124825Y-12536484D02*
X20086730Y-12536484D01*
X20086730Y-12536484D02*
X20067682Y-12526960D01*
X20067682Y-12526960D02*
X20058158Y-12507912D01*
X20058158Y-12507912D02*
X20058158Y-12431722D01*
X20058158Y-12431722D02*
X20067682Y-12412674D01*
X20067682Y-12412674D02*
X20086730Y-12403150D01*
X20086730Y-12403150D02*
X20124825Y-12403150D01*
X20124825Y-12403150D02*
X20143873Y-12412674D01*
X20143873Y-12412674D02*
X20153396Y-12431722D01*
X20153396Y-12431722D02*
X20153396Y-12450769D01*
X20153396Y-12450769D02*
X20058158Y-12469817D01*
X20324825Y-12536484D02*
X20324825Y-12336484D01*
X20324825Y-12526960D02*
X20305777Y-12536484D01*
X20305777Y-12536484D02*
X20267682Y-12536484D01*
X20267682Y-12536484D02*
X20248635Y-12526960D01*
X20248635Y-12526960D02*
X20239111Y-12517436D01*
X20239111Y-12517436D02*
X20229587Y-12498388D01*
X20229587Y-12498388D02*
X20229587Y-12441246D01*
X20229587Y-12441246D02*
X20239111Y-12422198D01*
X20239111Y-12422198D02*
X20248635Y-12412674D01*
X20248635Y-12412674D02*
X20267682Y-12403150D01*
X20267682Y-12403150D02*
X20305777Y-12403150D01*
X20305777Y-12403150D02*
X20324825Y-12412674D01*
X20401016Y-12612674D02*
X20410539Y-12603150D01*
X20410539Y-12603150D02*
X20429587Y-12574579D01*
X20429587Y-12574579D02*
X20439111Y-12555531D01*
X20439111Y-12555531D02*
X20448635Y-12526960D01*
X20448635Y-12526960D02*
X20458158Y-12479341D01*
X20458158Y-12479341D02*
X20458158Y-12441246D01*
X20458158Y-12441246D02*
X20448635Y-12393627D01*
X20448635Y-12393627D02*
X20439111Y-12365055D01*
X20439111Y-12365055D02*
X20429587Y-12346008D01*
X20429587Y-12346008D02*
X20410539Y-12317436D01*
X20410539Y-12317436D02*
X20401016Y-12307912D01*
M02*
