%TF.GenerationSoftware,KiCad,Pcbnew,8.0.8*%
%TF.CreationDate,2025-04-18T09:22:24-04:00*%
%TF.ProjectId,RF4463F30-test-board,52463434-3633-4463-9330-2d746573742d,rev?*%
%TF.SameCoordinates,Original*%
%TF.FileFunction,Soldermask,Top*%
%TF.FilePolarity,Negative*%
%FSLAX46Y46*%
G04 Gerber Fmt 4.6, Leading zero omitted, Abs format (unit mm)*
G04 Created by KiCad (PCBNEW 8.0.8) date 2025-04-18 09:22:24*
%MOMM*%
%LPD*%
G01*
G04 APERTURE LIST*
G04 Aperture macros list*
%AMRoundRect*
0 Rectangle with rounded corners*
0 $1 Rounding radius*
0 $2 $3 $4 $5 $6 $7 $8 $9 X,Y pos of 4 corners*
0 Add a 4 corners polygon primitive as box body*
4,1,4,$2,$3,$4,$5,$6,$7,$8,$9,$2,$3,0*
0 Add four circle primitives for the rounded corners*
1,1,$1+$1,$2,$3*
1,1,$1+$1,$4,$5*
1,1,$1+$1,$6,$7*
1,1,$1+$1,$8,$9*
0 Add four rect primitives between the rounded corners*
20,1,$1+$1,$2,$3,$4,$5,0*
20,1,$1+$1,$4,$5,$6,$7,0*
20,1,$1+$1,$6,$7,$8,$9,0*
20,1,$1+$1,$8,$9,$2,$3,0*%
G04 Aperture macros list end*
%ADD10C,3.200000*%
%ADD11R,1.470000X3.000000*%
%ADD12RoundRect,0.160000X-0.160000X0.197500X-0.160000X-0.197500X0.160000X-0.197500X0.160000X0.197500X0*%
%ADD13RoundRect,0.243750X0.243750X0.456250X-0.243750X0.456250X-0.243750X-0.456250X0.243750X-0.456250X0*%
%ADD14RoundRect,0.250000X-0.475000X0.337500X-0.475000X-0.337500X0.475000X-0.337500X0.475000X0.337500X0*%
%ADD15RoundRect,0.243750X-0.243750X-0.456250X0.243750X-0.456250X0.243750X0.456250X-0.243750X0.456250X0*%
%ADD16RoundRect,0.250000X-0.600000X-0.725000X0.600000X-0.725000X0.600000X0.725000X-0.600000X0.725000X0*%
%ADD17O,1.700000X1.950000*%
%ADD18RoundRect,0.101600X-0.635000X-2.032000X0.635000X-2.032000X0.635000X2.032000X-0.635000X2.032000X0*%
%ADD19RoundRect,0.101600X-0.762000X-2.032000X0.762000X-2.032000X0.762000X2.032000X-0.762000X2.032000X0*%
%ADD20RoundRect,0.450000X-0.450000X0.950000X-0.450000X-0.950000X0.450000X-0.950000X0.450000X0.950000X0*%
%ADD21RoundRect,0.160000X0.160000X-0.197500X0.160000X0.197500X-0.160000X0.197500X-0.160000X-0.197500X0*%
G04 APERTURE END LIST*
D10*
%TO.C,H1*%
X183000000Y-103000000D03*
%TD*%
D11*
%TO.C,FB1*%
X181800000Y-116000000D03*
X181800000Y-108000000D03*
%TD*%
D12*
%TO.C,R2*%
X155062500Y-76977500D03*
X155062500Y-78172500D03*
%TD*%
D13*
%TO.C,IRQ1*%
X157437500Y-103500000D03*
X155562500Y-103500000D03*
%TD*%
D14*
%TO.C,C1*%
X184500000Y-107362500D03*
X184500000Y-109437500D03*
%TD*%
D15*
%TO.C,GPIO1*%
X156625000Y-77500000D03*
X158500000Y-77500000D03*
%TD*%
D16*
%TO.C,J1*%
X164500000Y-108550000D03*
D17*
X167000000Y-108550000D03*
X169500000Y-108550000D03*
X172000000Y-108550000D03*
X174500000Y-108550000D03*
X177000000Y-108550000D03*
%TD*%
D15*
%TO.C,GPIO0*%
X161492500Y-77465000D03*
X163367500Y-77465000D03*
%TD*%
D10*
%TO.C,H2*%
X140000000Y-103000000D03*
%TD*%
D16*
%TO.C,J2*%
X146000000Y-108550000D03*
D17*
X148500000Y-108550000D03*
X151000000Y-108550000D03*
X153500000Y-108550000D03*
X156000000Y-108550000D03*
X158500000Y-108550000D03*
%TD*%
D12*
%TO.C,R1*%
X159000000Y-102887500D03*
X159000000Y-104082500D03*
%TD*%
D18*
%TO.C,ANT1*%
X175340000Y-76200000D03*
D19*
X177880000Y-76200000D03*
X172800000Y-76200000D03*
%TD*%
D10*
%TO.C,H3*%
X183000000Y-78000000D03*
%TD*%
%TO.C,H4*%
X140000000Y-78000000D03*
%TD*%
D12*
%TO.C,R3*%
X160000000Y-77000000D03*
X160000000Y-78195000D03*
%TD*%
D20*
%TO.C,RF4463F1*%
X175417500Y-100235000D03*
X171417500Y-100235000D03*
X167417500Y-100235000D03*
X163417500Y-100235000D03*
X159417500Y-100235000D03*
X155417500Y-100235000D03*
X151417500Y-100235000D03*
X147417500Y-100235000D03*
X147417500Y-80235000D03*
X151417500Y-80235000D03*
X155417500Y-80235000D03*
X159417500Y-80235000D03*
X163417500Y-80235000D03*
X167417500Y-80235000D03*
X171417500Y-80235000D03*
X175417500Y-80235000D03*
%TD*%
D21*
%TO.C,R4*%
X179000000Y-104097500D03*
X179000000Y-102902500D03*
%TD*%
D13*
%TO.C,5v0*%
X177375000Y-103500000D03*
X175500000Y-103500000D03*
%TD*%
M02*
