%TF.GenerationSoftware,KiCad,Pcbnew,8.0.2-1*%
%TF.CreationDate,2024-12-19T12:34:36-05:00*%
%TF.ProjectId,low_power_module,6c6f775f-706f-4776-9572-5f6d6f64756c,rev?*%
%TF.SameCoordinates,Original*%
%TF.FileFunction,Soldermask,Top*%
%TF.FilePolarity,Negative*%
%FSLAX46Y46*%
G04 Gerber Fmt 4.6, Leading zero omitted, Abs format (unit mm)*
G04 Created by KiCad (PCBNEW 8.0.2-1) date 2024-12-19 12:34:36*
%MOMM*%
%LPD*%
G01*
G04 APERTURE LIST*
G04 Aperture macros list*
%AMRoundRect*
0 Rectangle with rounded corners*
0 $1 Rounding radius*
0 $2 $3 $4 $5 $6 $7 $8 $9 X,Y pos of 4 corners*
0 Add a 4 corners polygon primitive as box body*
4,1,4,$2,$3,$4,$5,$6,$7,$8,$9,$2,$3,0*
0 Add four circle primitives for the rounded corners*
1,1,$1+$1,$2,$3*
1,1,$1+$1,$4,$5*
1,1,$1+$1,$6,$7*
1,1,$1+$1,$8,$9*
0 Add four rect primitives between the rounded corners*
20,1,$1+$1,$2,$3,$4,$5,0*
20,1,$1+$1,$4,$5,$6,$7,0*
20,1,$1+$1,$6,$7,$8,$9,0*
20,1,$1+$1,$8,$9,$2,$3,0*%
G04 Aperture macros list end*
%ADD10C,2.200000*%
%ADD11RoundRect,0.250000X0.337500X0.475000X-0.337500X0.475000X-0.337500X-0.475000X0.337500X-0.475000X0*%
%ADD12C,1.524000*%
%ADD13RoundRect,0.062500X0.062500X-0.262500X0.062500X0.262500X-0.062500X0.262500X-0.062500X-0.262500X0*%
%ADD14RoundRect,0.250000X0.450000X-0.325000X0.450000X0.325000X-0.450000X0.325000X-0.450000X-0.325000X0*%
%ADD15RoundRect,0.250000X-0.350000X-0.450000X0.350000X-0.450000X0.350000X0.450000X-0.350000X0.450000X0*%
%ADD16RoundRect,0.250000X-0.325000X-0.450000X0.325000X-0.450000X0.325000X0.450000X-0.325000X0.450000X0*%
%ADD17RoundRect,0.250000X-0.337500X-0.475000X0.337500X-0.475000X0.337500X0.475000X-0.337500X0.475000X0*%
%ADD18RoundRect,0.062500X-0.362500X-0.062500X0.362500X-0.062500X0.362500X0.062500X-0.362500X0.062500X0*%
%ADD19RoundRect,0.062500X-0.062500X-0.362500X0.062500X-0.362500X0.062500X0.362500X-0.062500X0.362500X0*%
%ADD20R,2.600000X2.600000*%
%ADD21RoundRect,0.250000X0.325000X0.450000X-0.325000X0.450000X-0.325000X-0.450000X0.325000X-0.450000X0*%
%ADD22RoundRect,0.250000X-0.450000X0.350000X-0.450000X-0.350000X0.450000X-0.350000X0.450000X0.350000X0*%
%ADD23R,1.700000X1.700000*%
%ADD24O,1.700000X1.700000*%
%ADD25C,2.000000*%
%ADD26RoundRect,0.250000X-0.475000X0.337500X-0.475000X-0.337500X0.475000X-0.337500X0.475000X0.337500X0*%
%ADD27RoundRect,0.250000X-0.450000X0.325000X-0.450000X-0.325000X0.450000X-0.325000X0.450000X0.325000X0*%
%ADD28RoundRect,0.250000X0.475000X-0.337500X0.475000X0.337500X-0.475000X0.337500X-0.475000X-0.337500X0*%
%ADD29RoundRect,0.237500X0.237500X-0.287500X0.237500X0.287500X-0.237500X0.287500X-0.237500X-0.287500X0*%
%ADD30RoundRect,0.200000X0.200000X0.300000X-0.200000X0.300000X-0.200000X-0.300000X0.200000X-0.300000X0*%
%ADD31RoundRect,0.101600X-0.635000X-2.032000X0.635000X-2.032000X0.635000X2.032000X-0.635000X2.032000X0*%
%ADD32RoundRect,0.101600X-0.762000X-2.032000X0.762000X-2.032000X0.762000X2.032000X-0.762000X2.032000X0*%
%ADD33RoundRect,0.250000X0.350000X0.450000X-0.350000X0.450000X-0.350000X-0.450000X0.350000X-0.450000X0*%
G04 APERTURE END LIST*
D10*
%TO.C,H3*%
X111300000Y-126150000D03*
%TD*%
D11*
%TO.C,CM2*%
X115700000Y-71250000D03*
X113625000Y-71250000D03*
%TD*%
D12*
%TO.C,BZ1*%
X135000000Y-117750000D03*
X135000000Y-110250000D03*
%TD*%
D13*
%TO.C,RFS1*%
X116800000Y-78750000D03*
X117450000Y-78750000D03*
X118100000Y-78750000D03*
X118100000Y-76750000D03*
X117450000Y-76750000D03*
X116800000Y-76750000D03*
%TD*%
D10*
%TO.C,H2*%
X140300000Y-68150000D03*
%TD*%
D11*
%TO.C,CB2*%
X121700000Y-78750000D03*
X119625000Y-78750000D03*
%TD*%
D14*
%TO.C,LM1*%
X111200000Y-82750000D03*
X111200000Y-80700000D03*
%TD*%
D15*
%TO.C,R8*%
X134700000Y-77550000D03*
X136700000Y-77550000D03*
%TD*%
D16*
%TO.C,CS1*%
X134650000Y-83350000D03*
X136700000Y-83350000D03*
%TD*%
D15*
%TO.C,R3*%
X138500000Y-83350000D03*
X140500000Y-83350000D03*
%TD*%
D17*
%TO.C,CM4*%
X113125000Y-84750000D03*
X115200000Y-84750000D03*
%TD*%
D18*
%TO.C,U1*%
X125025000Y-83825000D03*
X125025000Y-84325000D03*
X125025000Y-84825000D03*
X125025000Y-85325000D03*
X125025000Y-85825000D03*
D19*
X125950000Y-86750000D03*
X126450000Y-86750000D03*
X126950000Y-86750000D03*
X127450000Y-86750000D03*
X127950000Y-86750000D03*
D18*
X128875000Y-85825000D03*
X128875000Y-85325000D03*
X128875000Y-84825000D03*
X128875000Y-84325000D03*
X128875000Y-83825000D03*
D19*
X127950000Y-82900000D03*
X127450000Y-82900000D03*
X126950000Y-82900000D03*
X126450000Y-82900000D03*
X125950000Y-82900000D03*
D20*
X126950000Y-84825000D03*
%TD*%
D21*
%TO.C,VCC1*%
X123300000Y-90750000D03*
X121250000Y-90750000D03*
%TD*%
D22*
%TO.C,R7*%
X135500000Y-93350000D03*
X135500000Y-95350000D03*
%TD*%
%TO.C,R9*%
X164700000Y-94950000D03*
X164700000Y-96950000D03*
%TD*%
D11*
%TO.C,CD1*%
X128500000Y-88650000D03*
X126425000Y-88650000D03*
%TD*%
D16*
%TO.C,GPIO3*%
X130850000Y-77550000D03*
X132900000Y-77550000D03*
%TD*%
D11*
%TO.C,CD0*%
X128500000Y-90650000D03*
X126425000Y-90650000D03*
%TD*%
D22*
%TO.C,R4*%
X140100000Y-93350000D03*
X140100000Y-95350000D03*
%TD*%
%TO.C,R2*%
X137700000Y-93350000D03*
X137700000Y-95350000D03*
%TD*%
D23*
%TO.C,J3*%
X165300000Y-78470000D03*
D24*
X165300000Y-81010000D03*
X165300000Y-83550000D03*
%TD*%
D15*
%TO.C,R5*%
X134700000Y-73050000D03*
X136700000Y-73050000D03*
%TD*%
D17*
%TO.C,CB0*%
X127425000Y-81150000D03*
X129500000Y-81150000D03*
%TD*%
D25*
%TO.C,Teensy4.1*%
X146760000Y-70750000D03*
X146760000Y-73290000D03*
X146760000Y-75830000D03*
X146760000Y-78370000D03*
X146760000Y-103770000D03*
X162000000Y-73290000D03*
X146760000Y-80910000D03*
X146760000Y-83450000D03*
X162000000Y-68210000D03*
X146760000Y-85990000D03*
X146760000Y-88530000D03*
X146760000Y-91070000D03*
X146760000Y-93610000D03*
X146760000Y-96150000D03*
X146760000Y-98690000D03*
X146760000Y-101230000D03*
X162000000Y-101230000D03*
X162000000Y-98690000D03*
X162000000Y-96150000D03*
X162000000Y-93610000D03*
X162000000Y-91070000D03*
X162000000Y-88530000D03*
X162000000Y-85990000D03*
X162000000Y-83450000D03*
X162000000Y-80910000D03*
X162000000Y-78370000D03*
X162000000Y-75830000D03*
X146760000Y-106310000D03*
X146760000Y-108850000D03*
X146760000Y-111390000D03*
X146760000Y-113930000D03*
X146760000Y-116470000D03*
X146760000Y-119010000D03*
X146760000Y-121550000D03*
X146760000Y-124090000D03*
X146760000Y-126630000D03*
X162000000Y-126630000D03*
X162000000Y-124090000D03*
X162000000Y-121550000D03*
X162000000Y-119010000D03*
X162000000Y-116470000D03*
X162000000Y-113930000D03*
X162000000Y-111390000D03*
X162000000Y-108850000D03*
X162000000Y-106310000D03*
X146760000Y-68210000D03*
X162000000Y-70750000D03*
X162000000Y-103770000D03*
%TD*%
D16*
%TO.C,GPIO2*%
X130850000Y-75350000D03*
X132900000Y-75350000D03*
%TD*%
D14*
%TO.C,LR2*%
X121450000Y-82750000D03*
X121450000Y-80700000D03*
%TD*%
D16*
%TO.C,SDN1*%
X130850000Y-73050000D03*
X132900000Y-73050000D03*
%TD*%
D26*
%TO.C,CM3*%
X121700000Y-71175000D03*
X121700000Y-73250000D03*
%TD*%
D27*
%TO.C,GPIO0*%
X135500000Y-89500000D03*
X135500000Y-91550000D03*
%TD*%
D17*
%TO.C,CD2*%
X134625000Y-81150000D03*
X136700000Y-81150000D03*
%TD*%
D10*
%TO.C,H4*%
X140300000Y-126150000D03*
%TD*%
D14*
%TO.C,LChoke1*%
X123200000Y-88750000D03*
X123200000Y-86700000D03*
%TD*%
D28*
%TO.C,CB3*%
X117450000Y-75250000D03*
X117450000Y-73175000D03*
%TD*%
D11*
%TO.C,C0*%
X121200000Y-86750000D03*
X119125000Y-86750000D03*
%TD*%
D15*
%TO.C,R1*%
X134700000Y-75350000D03*
X136700000Y-75350000D03*
%TD*%
D17*
%TO.C,C8*%
X113125000Y-76250000D03*
X115200000Y-76250000D03*
%TD*%
D29*
%TO.C,LR1*%
X123450000Y-84850000D03*
X123450000Y-83100000D03*
%TD*%
D28*
%TO.C,CR2*%
X123700000Y-81325000D03*
X123700000Y-79250000D03*
%TD*%
D16*
%TO.C,LM3*%
X117650000Y-71250000D03*
X119700000Y-71250000D03*
%TD*%
D30*
%TO.C,TCXO2*%
X133100000Y-79750000D03*
X131000000Y-79750000D03*
X131000000Y-81150000D03*
X133100000Y-81150000D03*
%TD*%
D31*
%TO.C,J1*%
X119660000Y-67750000D03*
D32*
X122200000Y-67750000D03*
X117120000Y-67750000D03*
%TD*%
D23*
%TO.C,J2*%
X165500000Y-73330000D03*
D24*
X165500000Y-70790000D03*
X165500000Y-68250000D03*
%TD*%
D33*
%TO.C,R6*%
X119275000Y-90750000D03*
X117275000Y-90750000D03*
%TD*%
D21*
%TO.C,L0*%
X117450000Y-86750000D03*
X115400000Y-86750000D03*
%TD*%
D17*
%TO.C,C9*%
X119625000Y-76250000D03*
X121700000Y-76250000D03*
%TD*%
%TO.C,CR1*%
X119625000Y-84750000D03*
X121700000Y-84750000D03*
%TD*%
%TO.C,CM5*%
X113125000Y-80750000D03*
X115200000Y-80750000D03*
%TD*%
%TO.C,CM1*%
X113125000Y-82750000D03*
X115200000Y-82750000D03*
%TD*%
D27*
%TO.C,STAT1*%
X164700000Y-91150000D03*
X164700000Y-93200000D03*
%TD*%
%TO.C,GPIO1*%
X137700000Y-89500000D03*
X137700000Y-91550000D03*
%TD*%
D10*
%TO.C,H1*%
X111300000Y-68150000D03*
%TD*%
D11*
%TO.C,CB1*%
X115200000Y-78750000D03*
X113125000Y-78750000D03*
%TD*%
D27*
%TO.C,IRQ1*%
X140100000Y-89500000D03*
X140100000Y-91550000D03*
%TD*%
M02*
