M48
; DRILL file {KiCad 8.0.2-1} date 2024-12-19T12:34:32-0500
; FORMAT={-:-/ absolute / inch / decimal}
; #@! TF.CreationDate,2024-12-19T12:34:32-05:00
; #@! TF.GenerationSoftware,Kicad,Pcbnew,8.0.2-1
; #@! TF.FileFunction,Plated,1,2,PTH
FMAT,2
INCH
; #@! TA.AperFunction,Plated,PTH,ViaDrill
T1C0.0118
; #@! TA.AperFunction,Plated,PTH,ComponentDrill
T2C0.0118
; #@! TA.AperFunction,Plated,PTH,ViaDrill
T3C0.0130
; #@! TA.AperFunction,Plated,PTH,ComponentDrill
T4C0.0300
; #@! TA.AperFunction,Plated,PTH,ComponentDrill
T5C0.0394
; #@! TA.AperFunction,Plated,PTH,ComponentDrill
T6C0.0402
%
G90
G05
T1
X5.5592Y-4.813
X5.6046Y-4.813
T2
X4.9587Y-3.3002
X4.9587Y-3.3789
X5.0374Y-3.3002
X5.0374Y-3.3789
T3
X4.4094Y-3.002
X4.4213Y-2.8091
X4.5472Y-2.6673
X4.5669Y-3.5728
X4.5866Y-3.1791
X4.5866Y-3.2579
X4.5866Y-3.3366
X4.626Y-3.1398
X4.6535Y-3.3366
X4.8425Y-2.8839
X4.8425Y-3.002
X4.8819Y-2.6673
X4.9348Y-3.1416
X4.9568Y-3.1634
X4.9748Y-3.0901
X4.9998Y-3.1406
X5.1181Y-3.4941
X5.1181Y-3.5728
X5.1969Y-3.1594
X5.2165Y-3.3781
X5.2165Y-3.4684
X5.3504Y-3.8091
X5.4331Y-2.8839
X5.4331Y-2.9823
X5.4331Y-3.061
X5.4331Y-3.1988
X5.437Y-3.8091
X5.4646Y-4.0096
X5.5236Y-3.1319
X5.5315Y-3.2185
X5.5315Y-3.8091
X5.5905Y-4.0113
X5.5942Y-3.0613
X6.4843Y-3.872
T4
X5.315Y-4.3406
X5.315Y-4.6358
T5
X6.5079Y-3.0894
X6.5079Y-3.1894
X6.5079Y-3.2894
X6.5157Y-2.687
X6.5157Y-2.787
X6.5157Y-2.887
T6
X5.778Y-2.6854
X5.778Y-2.7854
X5.778Y-2.8854
X5.778Y-2.9854
X5.778Y-3.0854
X5.778Y-3.1854
X5.778Y-3.2854
X5.778Y-3.3854
X5.778Y-3.4854
X5.778Y-3.5854
X5.778Y-3.6854
X5.778Y-3.7854
X5.778Y-3.8854
X5.778Y-3.9854
X5.778Y-4.0854
X5.778Y-4.1854
X5.778Y-4.2854
X5.778Y-4.3854
X5.778Y-4.4854
X5.778Y-4.5854
X5.778Y-4.6854
X5.778Y-4.7854
X5.778Y-4.8854
X5.778Y-4.9854
X6.378Y-2.6854
X6.378Y-2.7854
X6.378Y-2.8854
X6.378Y-2.9854
X6.378Y-3.0854
X6.378Y-3.1854
X6.378Y-3.2854
X6.378Y-3.3854
X6.378Y-3.4854
X6.378Y-3.5854
X6.378Y-3.6854
X6.378Y-3.7854
X6.378Y-3.8854
X6.378Y-3.9854
X6.378Y-4.0854
X6.378Y-4.1854
X6.378Y-4.2854
X6.378Y-4.3854
X6.378Y-4.4854
X6.378Y-4.5854
X6.378Y-4.6854
X6.378Y-4.7854
X6.378Y-4.8854
X6.378Y-4.9854
M30
