%TF.GenerationSoftware,KiCad,Pcbnew,8.0.8*%
%TF.CreationDate,2025-04-18T09:33:10-04:00*%
%TF.ProjectId,high-power-module,68696768-2d70-46f7-9765-722d6d6f6475,rev?*%
%TF.SameCoordinates,Original*%
%TF.FileFunction,Legend,Top*%
%TF.FilePolarity,Positive*%
%FSLAX46Y46*%
G04 Gerber Fmt 4.6, Leading zero omitted, Abs format (unit mm)*
G04 Created by KiCad (PCBNEW 8.0.8) date 2025-04-18 09:33:10*
%MOMM*%
%LPD*%
G01*
G04 APERTURE LIST*
G04 Aperture macros list*
%AMRoundRect*
0 Rectangle with rounded corners*
0 $1 Rounding radius*
0 $2 $3 $4 $5 $6 $7 $8 $9 X,Y pos of 4 corners*
0 Add a 4 corners polygon primitive as box body*
4,1,4,$2,$3,$4,$5,$6,$7,$8,$9,$2,$3,0*
0 Add four circle primitives for the rounded corners*
1,1,$1+$1,$2,$3*
1,1,$1+$1,$4,$5*
1,1,$1+$1,$6,$7*
1,1,$1+$1,$8,$9*
0 Add four rect primitives between the rounded corners*
20,1,$1+$1,$2,$3,$4,$5,0*
20,1,$1+$1,$4,$5,$6,$7,0*
20,1,$1+$1,$6,$7,$8,$9,0*
20,1,$1+$1,$8,$9,$2,$3,0*%
%AMFreePoly0*
4,1,9,1.039800,-1.173200,0.379400,-1.808200,0.379400,-2.300000,-0.179400,-2.300000,-0.179400,-1.782800,-0.839800,-1.173200,-0.839800,1.112800,1.039800,1.112800,1.039800,-1.173200,1.039800,-1.173200,$1*%
G04 Aperture macros list end*
%ADD10C,0.150000*%
%ADD11C,0.120000*%
%ADD12C,0.100000*%
%ADD13C,0.300000*%
%ADD14C,0.152400*%
%ADD15C,0.000000*%
%ADD16RoundRect,0.250000X-0.325000X-0.450000X0.325000X-0.450000X0.325000X0.450000X-0.325000X0.450000X0*%
%ADD17RoundRect,0.250000X-0.475000X0.337500X-0.475000X-0.337500X0.475000X-0.337500X0.475000X0.337500X0*%
%ADD18RoundRect,0.250000X0.325000X0.450000X-0.325000X0.450000X-0.325000X-0.450000X0.325000X-0.450000X0*%
%ADD19RoundRect,0.250000X-0.337500X-0.475000X0.337500X-0.475000X0.337500X0.475000X-0.337500X0.475000X0*%
%ADD20RoundRect,0.237500X0.237500X-0.287500X0.237500X0.287500X-0.237500X0.287500X-0.237500X-0.287500X0*%
%ADD21RoundRect,0.160000X-0.160000X0.197500X-0.160000X-0.197500X0.160000X-0.197500X0.160000X0.197500X0*%
%ADD22RoundRect,0.250000X0.350000X-0.275000X0.350000X0.275000X-0.350000X0.275000X-0.350000X-0.275000X0*%
%ADD23RoundRect,0.237500X-0.237500X0.287500X-0.237500X-0.287500X0.237500X-0.287500X0.237500X0.287500X0*%
%ADD24RoundRect,0.250000X0.475000X-0.337500X0.475000X0.337500X-0.475000X0.337500X-0.475000X-0.337500X0*%
%ADD25RoundRect,0.200000X-0.300000X0.200000X-0.300000X-0.200000X0.300000X-0.200000X0.300000X0.200000X0*%
%ADD26C,3.200000*%
%ADD27RoundRect,0.250000X0.337500X0.475000X-0.337500X0.475000X-0.337500X-0.475000X0.337500X-0.475000X0*%
%ADD28RoundRect,0.062500X0.062500X-0.262500X0.062500X0.262500X-0.062500X0.262500X-0.062500X-0.262500X0*%
%ADD29RoundRect,0.101600X-0.635000X-2.032000X0.635000X-2.032000X0.635000X2.032000X-0.635000X2.032000X0*%
%ADD30RoundRect,0.101600X-0.762000X-2.032000X0.762000X-2.032000X0.762000X2.032000X-0.762000X2.032000X0*%
%ADD31O,0.380000X0.700000*%
%ADD32O,0.700000X0.380000*%
%ADD33C,0.500000*%
%ADD34R,2.700000X2.700000*%
%ADD35R,0.482600X1.422400*%
%ADD36FreePoly0,180.000000*%
%ADD37R,0.558800X1.422400*%
%ADD38RoundRect,0.250000X-0.600000X-0.725000X0.600000X-0.725000X0.600000X0.725000X-0.600000X0.725000X0*%
%ADD39O,1.700000X1.950000*%
%ADD40RoundRect,0.062500X-0.362500X-0.062500X0.362500X-0.062500X0.362500X0.062500X-0.362500X0.062500X0*%
%ADD41RoundRect,0.062500X-0.062500X-0.362500X0.062500X-0.362500X0.062500X0.362500X-0.062500X0.362500X0*%
%ADD42R,2.600000X2.600000*%
%ADD43RoundRect,0.250000X-0.450000X0.325000X-0.450000X-0.325000X0.450000X-0.325000X0.450000X0.325000X0*%
%ADD44RoundRect,0.250000X0.450000X-0.325000X0.450000X0.325000X-0.450000X0.325000X-0.450000X-0.325000X0*%
%ADD45RoundRect,0.237500X-0.287500X-0.237500X0.287500X-0.237500X0.287500X0.237500X-0.287500X0.237500X0*%
%ADD46RoundRect,0.250000X-0.725000X0.600000X-0.725000X-0.600000X0.725000X-0.600000X0.725000X0.600000X0*%
%ADD47O,1.950000X1.700000*%
%ADD48R,1.700000X1.700000*%
%ADD49O,1.700000X1.700000*%
G04 APERTURE END LIST*
D10*
X144871429Y-72756340D02*
X144871429Y-71956340D01*
X144871429Y-71956340D02*
X145061905Y-71956340D01*
X145061905Y-71956340D02*
X145176191Y-71994435D01*
X145176191Y-71994435D02*
X145252381Y-72070625D01*
X145252381Y-72070625D02*
X145290476Y-72146816D01*
X145290476Y-72146816D02*
X145328572Y-72299197D01*
X145328572Y-72299197D02*
X145328572Y-72413483D01*
X145328572Y-72413483D02*
X145290476Y-72565864D01*
X145290476Y-72565864D02*
X145252381Y-72642054D01*
X145252381Y-72642054D02*
X145176191Y-72718245D01*
X145176191Y-72718245D02*
X145061905Y-72756340D01*
X145061905Y-72756340D02*
X144871429Y-72756340D01*
X145671429Y-72756340D02*
X145671429Y-71956340D01*
X146204762Y-71956340D02*
X146357143Y-71956340D01*
X146357143Y-71956340D02*
X146433333Y-71994435D01*
X146433333Y-71994435D02*
X146509524Y-72070625D01*
X146509524Y-72070625D02*
X146547619Y-72223006D01*
X146547619Y-72223006D02*
X146547619Y-72489673D01*
X146547619Y-72489673D02*
X146509524Y-72642054D01*
X146509524Y-72642054D02*
X146433333Y-72718245D01*
X146433333Y-72718245D02*
X146357143Y-72756340D01*
X146357143Y-72756340D02*
X146204762Y-72756340D01*
X146204762Y-72756340D02*
X146128571Y-72718245D01*
X146128571Y-72718245D02*
X146052381Y-72642054D01*
X146052381Y-72642054D02*
X146014285Y-72489673D01*
X146014285Y-72489673D02*
X146014285Y-72223006D01*
X146014285Y-72223006D02*
X146052381Y-72070625D01*
X146052381Y-72070625D02*
X146128571Y-71994435D01*
X146128571Y-71994435D02*
X146204762Y-71956340D01*
X147500000Y-72756340D02*
X147500000Y-71956340D01*
X147500000Y-71956340D02*
X147957143Y-72756340D01*
X147957143Y-72756340D02*
X147957143Y-71956340D01*
X148795238Y-72756340D02*
X148528571Y-72375387D01*
X148338095Y-72756340D02*
X148338095Y-71956340D01*
X148338095Y-71956340D02*
X148642857Y-71956340D01*
X148642857Y-71956340D02*
X148719047Y-71994435D01*
X148719047Y-71994435D02*
X148757142Y-72032530D01*
X148757142Y-72032530D02*
X148795238Y-72108721D01*
X148795238Y-72108721D02*
X148795238Y-72223006D01*
X148795238Y-72223006D02*
X148757142Y-72299197D01*
X148757142Y-72299197D02*
X148719047Y-72337292D01*
X148719047Y-72337292D02*
X148642857Y-72375387D01*
X148642857Y-72375387D02*
X148338095Y-72375387D01*
X149099999Y-72718245D02*
X149214285Y-72756340D01*
X149214285Y-72756340D02*
X149404761Y-72756340D01*
X149404761Y-72756340D02*
X149480952Y-72718245D01*
X149480952Y-72718245D02*
X149519047Y-72680149D01*
X149519047Y-72680149D02*
X149557142Y-72603959D01*
X149557142Y-72603959D02*
X149557142Y-72527768D01*
X149557142Y-72527768D02*
X149519047Y-72451578D01*
X149519047Y-72451578D02*
X149480952Y-72413483D01*
X149480952Y-72413483D02*
X149404761Y-72375387D01*
X149404761Y-72375387D02*
X149252380Y-72337292D01*
X149252380Y-72337292D02*
X149176190Y-72299197D01*
X149176190Y-72299197D02*
X149138095Y-72261102D01*
X149138095Y-72261102D02*
X149099999Y-72184911D01*
X149099999Y-72184911D02*
X149099999Y-72108721D01*
X149099999Y-72108721D02*
X149138095Y-72032530D01*
X149138095Y-72032530D02*
X149176190Y-71994435D01*
X149176190Y-71994435D02*
X149252380Y-71956340D01*
X149252380Y-71956340D02*
X149442857Y-71956340D01*
X149442857Y-71956340D02*
X149557142Y-71994435D01*
X149785714Y-71956340D02*
X150242857Y-71956340D01*
X150014285Y-72756340D02*
X150014285Y-71956340D01*
X145500000Y-73968104D02*
X145461904Y-74006200D01*
X145461904Y-74006200D02*
X145347619Y-74044295D01*
X145347619Y-74044295D02*
X145271428Y-74044295D01*
X145271428Y-74044295D02*
X145157142Y-74006200D01*
X145157142Y-74006200D02*
X145080952Y-73930009D01*
X145080952Y-73930009D02*
X145042857Y-73853819D01*
X145042857Y-73853819D02*
X145004761Y-73701438D01*
X145004761Y-73701438D02*
X145004761Y-73587152D01*
X145004761Y-73587152D02*
X145042857Y-73434771D01*
X145042857Y-73434771D02*
X145080952Y-73358580D01*
X145080952Y-73358580D02*
X145157142Y-73282390D01*
X145157142Y-73282390D02*
X145271428Y-73244295D01*
X145271428Y-73244295D02*
X145347619Y-73244295D01*
X145347619Y-73244295D02*
X145461904Y-73282390D01*
X145461904Y-73282390D02*
X145500000Y-73320485D01*
X146223809Y-74044295D02*
X145842857Y-74044295D01*
X145842857Y-74044295D02*
X145842857Y-73244295D01*
X146490476Y-74044295D02*
X146490476Y-73244295D01*
X146947619Y-74044295D02*
X146604761Y-73587152D01*
X146947619Y-73244295D02*
X146490476Y-73701438D01*
X148319047Y-73282390D02*
X148242857Y-73244295D01*
X148242857Y-73244295D02*
X148128571Y-73244295D01*
X148128571Y-73244295D02*
X148014285Y-73282390D01*
X148014285Y-73282390D02*
X147938095Y-73358580D01*
X147938095Y-73358580D02*
X147900000Y-73434771D01*
X147900000Y-73434771D02*
X147861904Y-73587152D01*
X147861904Y-73587152D02*
X147861904Y-73701438D01*
X147861904Y-73701438D02*
X147900000Y-73853819D01*
X147900000Y-73853819D02*
X147938095Y-73930009D01*
X147938095Y-73930009D02*
X148014285Y-74006200D01*
X148014285Y-74006200D02*
X148128571Y-74044295D01*
X148128571Y-74044295D02*
X148204762Y-74044295D01*
X148204762Y-74044295D02*
X148319047Y-74006200D01*
X148319047Y-74006200D02*
X148357143Y-73968104D01*
X148357143Y-73968104D02*
X148357143Y-73701438D01*
X148357143Y-73701438D02*
X148204762Y-73701438D01*
X148700000Y-74044295D02*
X148700000Y-73244295D01*
X148700000Y-73244295D02*
X149157143Y-74044295D01*
X149157143Y-74044295D02*
X149157143Y-73244295D01*
X149538095Y-74044295D02*
X149538095Y-73244295D01*
X149538095Y-73244295D02*
X149728571Y-73244295D01*
X149728571Y-73244295D02*
X149842857Y-73282390D01*
X149842857Y-73282390D02*
X149919047Y-73358580D01*
X149919047Y-73358580D02*
X149957142Y-73434771D01*
X149957142Y-73434771D02*
X149995238Y-73587152D01*
X149995238Y-73587152D02*
X149995238Y-73701438D01*
X149995238Y-73701438D02*
X149957142Y-73853819D01*
X149957142Y-73853819D02*
X149919047Y-73930009D01*
X149919047Y-73930009D02*
X149842857Y-74006200D01*
X149842857Y-74006200D02*
X149728571Y-74044295D01*
X149728571Y-74044295D02*
X149538095Y-74044295D01*
X127233333Y-84542319D02*
X126757143Y-84542319D01*
X126757143Y-84542319D02*
X126757143Y-83542319D01*
X127471429Y-83542319D02*
X128090476Y-83542319D01*
X128090476Y-83542319D02*
X127757143Y-83923271D01*
X127757143Y-83923271D02*
X127900000Y-83923271D01*
X127900000Y-83923271D02*
X127995238Y-83970890D01*
X127995238Y-83970890D02*
X128042857Y-84018509D01*
X128042857Y-84018509D02*
X128090476Y-84113747D01*
X128090476Y-84113747D02*
X128090476Y-84351842D01*
X128090476Y-84351842D02*
X128042857Y-84447080D01*
X128042857Y-84447080D02*
X127995238Y-84494700D01*
X127995238Y-84494700D02*
X127900000Y-84542319D01*
X127900000Y-84542319D02*
X127614286Y-84542319D01*
X127614286Y-84542319D02*
X127519048Y-84494700D01*
X127519048Y-84494700D02*
X127471429Y-84447080D01*
X137359580Y-89538095D02*
X137407200Y-89585714D01*
X137407200Y-89585714D02*
X137454819Y-89728571D01*
X137454819Y-89728571D02*
X137454819Y-89823809D01*
X137454819Y-89823809D02*
X137407200Y-89966666D01*
X137407200Y-89966666D02*
X137311961Y-90061904D01*
X137311961Y-90061904D02*
X137216723Y-90109523D01*
X137216723Y-90109523D02*
X137026247Y-90157142D01*
X137026247Y-90157142D02*
X136883390Y-90157142D01*
X136883390Y-90157142D02*
X136692914Y-90109523D01*
X136692914Y-90109523D02*
X136597676Y-90061904D01*
X136597676Y-90061904D02*
X136502438Y-89966666D01*
X136502438Y-89966666D02*
X136454819Y-89823809D01*
X136454819Y-89823809D02*
X136454819Y-89728571D01*
X136454819Y-89728571D02*
X136502438Y-89585714D01*
X136502438Y-89585714D02*
X136550057Y-89538095D01*
X137454819Y-89109523D02*
X136454819Y-89109523D01*
X136454819Y-89109523D02*
X137169104Y-88776190D01*
X137169104Y-88776190D02*
X136454819Y-88442857D01*
X136454819Y-88442857D02*
X137454819Y-88442857D01*
X136454819Y-87538095D02*
X136454819Y-87728571D01*
X136454819Y-87728571D02*
X136502438Y-87823809D01*
X136502438Y-87823809D02*
X136550057Y-87871428D01*
X136550057Y-87871428D02*
X136692914Y-87966666D01*
X136692914Y-87966666D02*
X136883390Y-88014285D01*
X136883390Y-88014285D02*
X137264342Y-88014285D01*
X137264342Y-88014285D02*
X137359580Y-87966666D01*
X137359580Y-87966666D02*
X137407200Y-87919047D01*
X137407200Y-87919047D02*
X137454819Y-87823809D01*
X137454819Y-87823809D02*
X137454819Y-87633333D01*
X137454819Y-87633333D02*
X137407200Y-87538095D01*
X137407200Y-87538095D02*
X137359580Y-87490476D01*
X137359580Y-87490476D02*
X137264342Y-87442857D01*
X137264342Y-87442857D02*
X137026247Y-87442857D01*
X137026247Y-87442857D02*
X136931009Y-87490476D01*
X136931009Y-87490476D02*
X136883390Y-87538095D01*
X136883390Y-87538095D02*
X136835771Y-87633333D01*
X136835771Y-87633333D02*
X136835771Y-87823809D01*
X136835771Y-87823809D02*
X136883390Y-87919047D01*
X136883390Y-87919047D02*
X136931009Y-87966666D01*
X136931009Y-87966666D02*
X137026247Y-88014285D01*
X154785714Y-87602438D02*
X154690476Y-87554819D01*
X154690476Y-87554819D02*
X154547619Y-87554819D01*
X154547619Y-87554819D02*
X154404762Y-87602438D01*
X154404762Y-87602438D02*
X154309524Y-87697676D01*
X154309524Y-87697676D02*
X154261905Y-87792914D01*
X154261905Y-87792914D02*
X154214286Y-87983390D01*
X154214286Y-87983390D02*
X154214286Y-88126247D01*
X154214286Y-88126247D02*
X154261905Y-88316723D01*
X154261905Y-88316723D02*
X154309524Y-88411961D01*
X154309524Y-88411961D02*
X154404762Y-88507200D01*
X154404762Y-88507200D02*
X154547619Y-88554819D01*
X154547619Y-88554819D02*
X154642857Y-88554819D01*
X154642857Y-88554819D02*
X154785714Y-88507200D01*
X154785714Y-88507200D02*
X154833333Y-88459580D01*
X154833333Y-88459580D02*
X154833333Y-88126247D01*
X154833333Y-88126247D02*
X154642857Y-88126247D01*
X155261905Y-88554819D02*
X155261905Y-87554819D01*
X155261905Y-87554819D02*
X155642857Y-87554819D01*
X155642857Y-87554819D02*
X155738095Y-87602438D01*
X155738095Y-87602438D02*
X155785714Y-87650057D01*
X155785714Y-87650057D02*
X155833333Y-87745295D01*
X155833333Y-87745295D02*
X155833333Y-87888152D01*
X155833333Y-87888152D02*
X155785714Y-87983390D01*
X155785714Y-87983390D02*
X155738095Y-88031009D01*
X155738095Y-88031009D02*
X155642857Y-88078628D01*
X155642857Y-88078628D02*
X155261905Y-88078628D01*
X156166667Y-87554819D02*
X156785714Y-87554819D01*
X156785714Y-87554819D02*
X156452381Y-87935771D01*
X156452381Y-87935771D02*
X156595238Y-87935771D01*
X156595238Y-87935771D02*
X156690476Y-87983390D01*
X156690476Y-87983390D02*
X156738095Y-88031009D01*
X156738095Y-88031009D02*
X156785714Y-88126247D01*
X156785714Y-88126247D02*
X156785714Y-88364342D01*
X156785714Y-88364342D02*
X156738095Y-88459580D01*
X156738095Y-88459580D02*
X156690476Y-88507200D01*
X156690476Y-88507200D02*
X156595238Y-88554819D01*
X156595238Y-88554819D02*
X156309524Y-88554819D01*
X156309524Y-88554819D02*
X156214286Y-88507200D01*
X156214286Y-88507200D02*
X156166667Y-88459580D01*
X151122080Y-77816666D02*
X151169700Y-77864285D01*
X151169700Y-77864285D02*
X151217319Y-78007142D01*
X151217319Y-78007142D02*
X151217319Y-78102380D01*
X151217319Y-78102380D02*
X151169700Y-78245237D01*
X151169700Y-78245237D02*
X151074461Y-78340475D01*
X151074461Y-78340475D02*
X150979223Y-78388094D01*
X150979223Y-78388094D02*
X150788747Y-78435713D01*
X150788747Y-78435713D02*
X150645890Y-78435713D01*
X150645890Y-78435713D02*
X150455414Y-78388094D01*
X150455414Y-78388094D02*
X150360176Y-78340475D01*
X150360176Y-78340475D02*
X150264938Y-78245237D01*
X150264938Y-78245237D02*
X150217319Y-78102380D01*
X150217319Y-78102380D02*
X150217319Y-78007142D01*
X150217319Y-78007142D02*
X150264938Y-77864285D01*
X150264938Y-77864285D02*
X150312557Y-77816666D01*
X151217319Y-76864285D02*
X151217319Y-77435713D01*
X151217319Y-77149999D02*
X150217319Y-77149999D01*
X150217319Y-77149999D02*
X150360176Y-77245237D01*
X150360176Y-77245237D02*
X150455414Y-77340475D01*
X150455414Y-77340475D02*
X150503033Y-77435713D01*
X131909580Y-96150595D02*
X131957200Y-96198214D01*
X131957200Y-96198214D02*
X132004819Y-96341071D01*
X132004819Y-96341071D02*
X132004819Y-96436309D01*
X132004819Y-96436309D02*
X131957200Y-96579166D01*
X131957200Y-96579166D02*
X131861961Y-96674404D01*
X131861961Y-96674404D02*
X131766723Y-96722023D01*
X131766723Y-96722023D02*
X131576247Y-96769642D01*
X131576247Y-96769642D02*
X131433390Y-96769642D01*
X131433390Y-96769642D02*
X131242914Y-96722023D01*
X131242914Y-96722023D02*
X131147676Y-96674404D01*
X131147676Y-96674404D02*
X131052438Y-96579166D01*
X131052438Y-96579166D02*
X131004819Y-96436309D01*
X131004819Y-96436309D02*
X131004819Y-96341071D01*
X131004819Y-96341071D02*
X131052438Y-96198214D01*
X131052438Y-96198214D02*
X131100057Y-96150595D01*
X132004819Y-95722023D02*
X131004819Y-95722023D01*
X131004819Y-95722023D02*
X131719104Y-95388690D01*
X131719104Y-95388690D02*
X131004819Y-95055357D01*
X131004819Y-95055357D02*
X132004819Y-95055357D01*
X131338152Y-94150595D02*
X132004819Y-94150595D01*
X130957200Y-94388690D02*
X131671485Y-94626785D01*
X131671485Y-94626785D02*
X131671485Y-94007738D01*
X136854819Y-92538095D02*
X136854819Y-93014285D01*
X136854819Y-93014285D02*
X135854819Y-93014285D01*
X136854819Y-92204761D02*
X135854819Y-92204761D01*
X135854819Y-92204761D02*
X136569104Y-91871428D01*
X136569104Y-91871428D02*
X135854819Y-91538095D01*
X135854819Y-91538095D02*
X136854819Y-91538095D01*
X135950057Y-91109523D02*
X135902438Y-91061904D01*
X135902438Y-91061904D02*
X135854819Y-90966666D01*
X135854819Y-90966666D02*
X135854819Y-90728571D01*
X135854819Y-90728571D02*
X135902438Y-90633333D01*
X135902438Y-90633333D02*
X135950057Y-90585714D01*
X135950057Y-90585714D02*
X136045295Y-90538095D01*
X136045295Y-90538095D02*
X136140533Y-90538095D01*
X136140533Y-90538095D02*
X136283390Y-90585714D01*
X136283390Y-90585714D02*
X136854819Y-91157142D01*
X136854819Y-91157142D02*
X136854819Y-90538095D01*
X136233333Y-77659580D02*
X136185714Y-77707200D01*
X136185714Y-77707200D02*
X136042857Y-77754819D01*
X136042857Y-77754819D02*
X135947619Y-77754819D01*
X135947619Y-77754819D02*
X135804762Y-77707200D01*
X135804762Y-77707200D02*
X135709524Y-77611961D01*
X135709524Y-77611961D02*
X135661905Y-77516723D01*
X135661905Y-77516723D02*
X135614286Y-77326247D01*
X135614286Y-77326247D02*
X135614286Y-77183390D01*
X135614286Y-77183390D02*
X135661905Y-76992914D01*
X135661905Y-76992914D02*
X135709524Y-76897676D01*
X135709524Y-76897676D02*
X135804762Y-76802438D01*
X135804762Y-76802438D02*
X135947619Y-76754819D01*
X135947619Y-76754819D02*
X136042857Y-76754819D01*
X136042857Y-76754819D02*
X136185714Y-76802438D01*
X136185714Y-76802438D02*
X136233333Y-76850057D01*
X136804762Y-77183390D02*
X136709524Y-77135771D01*
X136709524Y-77135771D02*
X136661905Y-77088152D01*
X136661905Y-77088152D02*
X136614286Y-76992914D01*
X136614286Y-76992914D02*
X136614286Y-76945295D01*
X136614286Y-76945295D02*
X136661905Y-76850057D01*
X136661905Y-76850057D02*
X136709524Y-76802438D01*
X136709524Y-76802438D02*
X136804762Y-76754819D01*
X136804762Y-76754819D02*
X136995238Y-76754819D01*
X136995238Y-76754819D02*
X137090476Y-76802438D01*
X137090476Y-76802438D02*
X137138095Y-76850057D01*
X137138095Y-76850057D02*
X137185714Y-76945295D01*
X137185714Y-76945295D02*
X137185714Y-76992914D01*
X137185714Y-76992914D02*
X137138095Y-77088152D01*
X137138095Y-77088152D02*
X137090476Y-77135771D01*
X137090476Y-77135771D02*
X136995238Y-77183390D01*
X136995238Y-77183390D02*
X136804762Y-77183390D01*
X136804762Y-77183390D02*
X136709524Y-77231009D01*
X136709524Y-77231009D02*
X136661905Y-77278628D01*
X136661905Y-77278628D02*
X136614286Y-77373866D01*
X136614286Y-77373866D02*
X136614286Y-77564342D01*
X136614286Y-77564342D02*
X136661905Y-77659580D01*
X136661905Y-77659580D02*
X136709524Y-77707200D01*
X136709524Y-77707200D02*
X136804762Y-77754819D01*
X136804762Y-77754819D02*
X136995238Y-77754819D01*
X136995238Y-77754819D02*
X137090476Y-77707200D01*
X137090476Y-77707200D02*
X137138095Y-77659580D01*
X137138095Y-77659580D02*
X137185714Y-77564342D01*
X137185714Y-77564342D02*
X137185714Y-77373866D01*
X137185714Y-77373866D02*
X137138095Y-77278628D01*
X137138095Y-77278628D02*
X137090476Y-77231009D01*
X137090476Y-77231009D02*
X136995238Y-77183390D01*
X154361905Y-83054819D02*
X154980952Y-83054819D01*
X154980952Y-83054819D02*
X154647619Y-83435771D01*
X154647619Y-83435771D02*
X154790476Y-83435771D01*
X154790476Y-83435771D02*
X154885714Y-83483390D01*
X154885714Y-83483390D02*
X154933333Y-83531009D01*
X154933333Y-83531009D02*
X154980952Y-83626247D01*
X154980952Y-83626247D02*
X154980952Y-83864342D01*
X154980952Y-83864342D02*
X154933333Y-83959580D01*
X154933333Y-83959580D02*
X154885714Y-84007200D01*
X154885714Y-84007200D02*
X154790476Y-84054819D01*
X154790476Y-84054819D02*
X154504762Y-84054819D01*
X154504762Y-84054819D02*
X154409524Y-84007200D01*
X154409524Y-84007200D02*
X154361905Y-83959580D01*
X155266667Y-83054819D02*
X155600000Y-84054819D01*
X155600000Y-84054819D02*
X155933333Y-83054819D01*
X156171429Y-83054819D02*
X156790476Y-83054819D01*
X156790476Y-83054819D02*
X156457143Y-83435771D01*
X156457143Y-83435771D02*
X156600000Y-83435771D01*
X156600000Y-83435771D02*
X156695238Y-83483390D01*
X156695238Y-83483390D02*
X156742857Y-83531009D01*
X156742857Y-83531009D02*
X156790476Y-83626247D01*
X156790476Y-83626247D02*
X156790476Y-83864342D01*
X156790476Y-83864342D02*
X156742857Y-83959580D01*
X156742857Y-83959580D02*
X156695238Y-84007200D01*
X156695238Y-84007200D02*
X156600000Y-84054819D01*
X156600000Y-84054819D02*
X156314286Y-84054819D01*
X156314286Y-84054819D02*
X156219048Y-84007200D01*
X156219048Y-84007200D02*
X156171429Y-83959580D01*
X134054819Y-99638095D02*
X134054819Y-100114285D01*
X134054819Y-100114285D02*
X133054819Y-100114285D01*
X134054819Y-99304761D02*
X133054819Y-99304761D01*
X133054819Y-99304761D02*
X133769104Y-98971428D01*
X133769104Y-98971428D02*
X133054819Y-98638095D01*
X133054819Y-98638095D02*
X134054819Y-98638095D01*
X133388152Y-97733333D02*
X134054819Y-97733333D01*
X133007200Y-97971428D02*
X133721485Y-98209523D01*
X133721485Y-98209523D02*
X133721485Y-97590476D01*
X151233333Y-91659580D02*
X151185714Y-91707200D01*
X151185714Y-91707200D02*
X151042857Y-91754819D01*
X151042857Y-91754819D02*
X150947619Y-91754819D01*
X150947619Y-91754819D02*
X150804762Y-91707200D01*
X150804762Y-91707200D02*
X150709524Y-91611961D01*
X150709524Y-91611961D02*
X150661905Y-91516723D01*
X150661905Y-91516723D02*
X150614286Y-91326247D01*
X150614286Y-91326247D02*
X150614286Y-91183390D01*
X150614286Y-91183390D02*
X150661905Y-90992914D01*
X150661905Y-90992914D02*
X150709524Y-90897676D01*
X150709524Y-90897676D02*
X150804762Y-90802438D01*
X150804762Y-90802438D02*
X150947619Y-90754819D01*
X150947619Y-90754819D02*
X151042857Y-90754819D01*
X151042857Y-90754819D02*
X151185714Y-90802438D01*
X151185714Y-90802438D02*
X151233333Y-90850057D01*
X151995238Y-91231009D02*
X152138095Y-91278628D01*
X152138095Y-91278628D02*
X152185714Y-91326247D01*
X152185714Y-91326247D02*
X152233333Y-91421485D01*
X152233333Y-91421485D02*
X152233333Y-91564342D01*
X152233333Y-91564342D02*
X152185714Y-91659580D01*
X152185714Y-91659580D02*
X152138095Y-91707200D01*
X152138095Y-91707200D02*
X152042857Y-91754819D01*
X152042857Y-91754819D02*
X151661905Y-91754819D01*
X151661905Y-91754819D02*
X151661905Y-90754819D01*
X151661905Y-90754819D02*
X151995238Y-90754819D01*
X151995238Y-90754819D02*
X152090476Y-90802438D01*
X152090476Y-90802438D02*
X152138095Y-90850057D01*
X152138095Y-90850057D02*
X152185714Y-90945295D01*
X152185714Y-90945295D02*
X152185714Y-91040533D01*
X152185714Y-91040533D02*
X152138095Y-91135771D01*
X152138095Y-91135771D02*
X152090476Y-91183390D01*
X152090476Y-91183390D02*
X151995238Y-91231009D01*
X151995238Y-91231009D02*
X151661905Y-91231009D01*
X152566667Y-90754819D02*
X153185714Y-90754819D01*
X153185714Y-90754819D02*
X152852381Y-91135771D01*
X152852381Y-91135771D02*
X152995238Y-91135771D01*
X152995238Y-91135771D02*
X153090476Y-91183390D01*
X153090476Y-91183390D02*
X153138095Y-91231009D01*
X153138095Y-91231009D02*
X153185714Y-91326247D01*
X153185714Y-91326247D02*
X153185714Y-91564342D01*
X153185714Y-91564342D02*
X153138095Y-91659580D01*
X153138095Y-91659580D02*
X153090476Y-91707200D01*
X153090476Y-91707200D02*
X152995238Y-91754819D01*
X152995238Y-91754819D02*
X152709524Y-91754819D01*
X152709524Y-91754819D02*
X152614286Y-91707200D01*
X152614286Y-91707200D02*
X152566667Y-91659580D01*
X137459580Y-99238095D02*
X137507200Y-99285714D01*
X137507200Y-99285714D02*
X137554819Y-99428571D01*
X137554819Y-99428571D02*
X137554819Y-99523809D01*
X137554819Y-99523809D02*
X137507200Y-99666666D01*
X137507200Y-99666666D02*
X137411961Y-99761904D01*
X137411961Y-99761904D02*
X137316723Y-99809523D01*
X137316723Y-99809523D02*
X137126247Y-99857142D01*
X137126247Y-99857142D02*
X136983390Y-99857142D01*
X136983390Y-99857142D02*
X136792914Y-99809523D01*
X136792914Y-99809523D02*
X136697676Y-99761904D01*
X136697676Y-99761904D02*
X136602438Y-99666666D01*
X136602438Y-99666666D02*
X136554819Y-99523809D01*
X136554819Y-99523809D02*
X136554819Y-99428571D01*
X136554819Y-99428571D02*
X136602438Y-99285714D01*
X136602438Y-99285714D02*
X136650057Y-99238095D01*
X137554819Y-98809523D02*
X136554819Y-98809523D01*
X136554819Y-98809523D02*
X137269104Y-98476190D01*
X137269104Y-98476190D02*
X136554819Y-98142857D01*
X136554819Y-98142857D02*
X137554819Y-98142857D01*
X136554819Y-97761904D02*
X136554819Y-97142857D01*
X136554819Y-97142857D02*
X136935771Y-97476190D01*
X136935771Y-97476190D02*
X136935771Y-97333333D01*
X136935771Y-97333333D02*
X136983390Y-97238095D01*
X136983390Y-97238095D02*
X137031009Y-97190476D01*
X137031009Y-97190476D02*
X137126247Y-97142857D01*
X137126247Y-97142857D02*
X137364342Y-97142857D01*
X137364342Y-97142857D02*
X137459580Y-97190476D01*
X137459580Y-97190476D02*
X137507200Y-97238095D01*
X137507200Y-97238095D02*
X137554819Y-97333333D01*
X137554819Y-97333333D02*
X137554819Y-97619047D01*
X137554819Y-97619047D02*
X137507200Y-97714285D01*
X137507200Y-97714285D02*
X137459580Y-97761904D01*
X144533333Y-89654819D02*
X144057143Y-89654819D01*
X144057143Y-89654819D02*
X144057143Y-88654819D01*
X145438095Y-89654819D02*
X145104762Y-89178628D01*
X144866667Y-89654819D02*
X144866667Y-88654819D01*
X144866667Y-88654819D02*
X145247619Y-88654819D01*
X145247619Y-88654819D02*
X145342857Y-88702438D01*
X145342857Y-88702438D02*
X145390476Y-88750057D01*
X145390476Y-88750057D02*
X145438095Y-88845295D01*
X145438095Y-88845295D02*
X145438095Y-88988152D01*
X145438095Y-88988152D02*
X145390476Y-89083390D01*
X145390476Y-89083390D02*
X145342857Y-89131009D01*
X145342857Y-89131009D02*
X145247619Y-89178628D01*
X145247619Y-89178628D02*
X144866667Y-89178628D01*
X146390476Y-89654819D02*
X145819048Y-89654819D01*
X146104762Y-89654819D02*
X146104762Y-88654819D01*
X146104762Y-88654819D02*
X146009524Y-88797676D01*
X146009524Y-88797676D02*
X145914286Y-88892914D01*
X145914286Y-88892914D02*
X145819048Y-88940533D01*
X144133333Y-88254819D02*
X143657143Y-88254819D01*
X143657143Y-88254819D02*
X143657143Y-87254819D01*
X145038095Y-88254819D02*
X144704762Y-87778628D01*
X144466667Y-88254819D02*
X144466667Y-87254819D01*
X144466667Y-87254819D02*
X144847619Y-87254819D01*
X144847619Y-87254819D02*
X144942857Y-87302438D01*
X144942857Y-87302438D02*
X144990476Y-87350057D01*
X144990476Y-87350057D02*
X145038095Y-87445295D01*
X145038095Y-87445295D02*
X145038095Y-87588152D01*
X145038095Y-87588152D02*
X144990476Y-87683390D01*
X144990476Y-87683390D02*
X144942857Y-87731009D01*
X144942857Y-87731009D02*
X144847619Y-87778628D01*
X144847619Y-87778628D02*
X144466667Y-87778628D01*
X145419048Y-87350057D02*
X145466667Y-87302438D01*
X145466667Y-87302438D02*
X145561905Y-87254819D01*
X145561905Y-87254819D02*
X145800000Y-87254819D01*
X145800000Y-87254819D02*
X145895238Y-87302438D01*
X145895238Y-87302438D02*
X145942857Y-87350057D01*
X145942857Y-87350057D02*
X145990476Y-87445295D01*
X145990476Y-87445295D02*
X145990476Y-87540533D01*
X145990476Y-87540533D02*
X145942857Y-87683390D01*
X145942857Y-87683390D02*
X145371429Y-88254819D01*
X145371429Y-88254819D02*
X145990476Y-88254819D01*
X135259580Y-91038095D02*
X135307200Y-91085714D01*
X135307200Y-91085714D02*
X135354819Y-91228571D01*
X135354819Y-91228571D02*
X135354819Y-91323809D01*
X135354819Y-91323809D02*
X135307200Y-91466666D01*
X135307200Y-91466666D02*
X135211961Y-91561904D01*
X135211961Y-91561904D02*
X135116723Y-91609523D01*
X135116723Y-91609523D02*
X134926247Y-91657142D01*
X134926247Y-91657142D02*
X134783390Y-91657142D01*
X134783390Y-91657142D02*
X134592914Y-91609523D01*
X134592914Y-91609523D02*
X134497676Y-91561904D01*
X134497676Y-91561904D02*
X134402438Y-91466666D01*
X134402438Y-91466666D02*
X134354819Y-91323809D01*
X134354819Y-91323809D02*
X134354819Y-91228571D01*
X134354819Y-91228571D02*
X134402438Y-91085714D01*
X134402438Y-91085714D02*
X134450057Y-91038095D01*
X135354819Y-90609523D02*
X134354819Y-90609523D01*
X134354819Y-90609523D02*
X135069104Y-90276190D01*
X135069104Y-90276190D02*
X134354819Y-89942857D01*
X134354819Y-89942857D02*
X135354819Y-89942857D01*
X134354819Y-88990476D02*
X134354819Y-89466666D01*
X134354819Y-89466666D02*
X134831009Y-89514285D01*
X134831009Y-89514285D02*
X134783390Y-89466666D01*
X134783390Y-89466666D02*
X134735771Y-89371428D01*
X134735771Y-89371428D02*
X134735771Y-89133333D01*
X134735771Y-89133333D02*
X134783390Y-89038095D01*
X134783390Y-89038095D02*
X134831009Y-88990476D01*
X134831009Y-88990476D02*
X134926247Y-88942857D01*
X134926247Y-88942857D02*
X135164342Y-88942857D01*
X135164342Y-88942857D02*
X135259580Y-88990476D01*
X135259580Y-88990476D02*
X135307200Y-89038095D01*
X135307200Y-89038095D02*
X135354819Y-89133333D01*
X135354819Y-89133333D02*
X135354819Y-89371428D01*
X135354819Y-89371428D02*
X135307200Y-89466666D01*
X135307200Y-89466666D02*
X135259580Y-89514285D01*
X153825000Y-92907319D02*
X153825000Y-91907319D01*
X154872618Y-92907319D02*
X154539285Y-92431128D01*
X154301190Y-92907319D02*
X154301190Y-91907319D01*
X154301190Y-91907319D02*
X154682142Y-91907319D01*
X154682142Y-91907319D02*
X154777380Y-91954938D01*
X154777380Y-91954938D02*
X154824999Y-92002557D01*
X154824999Y-92002557D02*
X154872618Y-92097795D01*
X154872618Y-92097795D02*
X154872618Y-92240652D01*
X154872618Y-92240652D02*
X154824999Y-92335890D01*
X154824999Y-92335890D02*
X154777380Y-92383509D01*
X154777380Y-92383509D02*
X154682142Y-92431128D01*
X154682142Y-92431128D02*
X154301190Y-92431128D01*
X155967856Y-93002557D02*
X155872618Y-92954938D01*
X155872618Y-92954938D02*
X155777380Y-92859700D01*
X155777380Y-92859700D02*
X155634523Y-92716842D01*
X155634523Y-92716842D02*
X155539285Y-92669223D01*
X155539285Y-92669223D02*
X155444047Y-92669223D01*
X155491666Y-92907319D02*
X155396428Y-92859700D01*
X155396428Y-92859700D02*
X155301190Y-92764461D01*
X155301190Y-92764461D02*
X155253571Y-92573985D01*
X155253571Y-92573985D02*
X155253571Y-92240652D01*
X155253571Y-92240652D02*
X155301190Y-92050176D01*
X155301190Y-92050176D02*
X155396428Y-91954938D01*
X155396428Y-91954938D02*
X155491666Y-91907319D01*
X155491666Y-91907319D02*
X155682142Y-91907319D01*
X155682142Y-91907319D02*
X155777380Y-91954938D01*
X155777380Y-91954938D02*
X155872618Y-92050176D01*
X155872618Y-92050176D02*
X155920237Y-92240652D01*
X155920237Y-92240652D02*
X155920237Y-92573985D01*
X155920237Y-92573985D02*
X155872618Y-92764461D01*
X155872618Y-92764461D02*
X155777380Y-92859700D01*
X155777380Y-92859700D02*
X155682142Y-92907319D01*
X155682142Y-92907319D02*
X155491666Y-92907319D01*
X156872618Y-92907319D02*
X156301190Y-92907319D01*
X156586904Y-92907319D02*
X156586904Y-91907319D01*
X156586904Y-91907319D02*
X156491666Y-92050176D01*
X156491666Y-92050176D02*
X156396428Y-92145414D01*
X156396428Y-92145414D02*
X156301190Y-92193033D01*
X137733333Y-92959580D02*
X137685714Y-93007200D01*
X137685714Y-93007200D02*
X137542857Y-93054819D01*
X137542857Y-93054819D02*
X137447619Y-93054819D01*
X137447619Y-93054819D02*
X137304762Y-93007200D01*
X137304762Y-93007200D02*
X137209524Y-92911961D01*
X137209524Y-92911961D02*
X137161905Y-92816723D01*
X137161905Y-92816723D02*
X137114286Y-92626247D01*
X137114286Y-92626247D02*
X137114286Y-92483390D01*
X137114286Y-92483390D02*
X137161905Y-92292914D01*
X137161905Y-92292914D02*
X137209524Y-92197676D01*
X137209524Y-92197676D02*
X137304762Y-92102438D01*
X137304762Y-92102438D02*
X137447619Y-92054819D01*
X137447619Y-92054819D02*
X137542857Y-92054819D01*
X137542857Y-92054819D02*
X137685714Y-92102438D01*
X137685714Y-92102438D02*
X137733333Y-92150057D01*
X138733333Y-93054819D02*
X138400000Y-92578628D01*
X138161905Y-93054819D02*
X138161905Y-92054819D01*
X138161905Y-92054819D02*
X138542857Y-92054819D01*
X138542857Y-92054819D02*
X138638095Y-92102438D01*
X138638095Y-92102438D02*
X138685714Y-92150057D01*
X138685714Y-92150057D02*
X138733333Y-92245295D01*
X138733333Y-92245295D02*
X138733333Y-92388152D01*
X138733333Y-92388152D02*
X138685714Y-92483390D01*
X138685714Y-92483390D02*
X138638095Y-92531009D01*
X138638095Y-92531009D02*
X138542857Y-92578628D01*
X138542857Y-92578628D02*
X138161905Y-92578628D01*
X139114286Y-92150057D02*
X139161905Y-92102438D01*
X139161905Y-92102438D02*
X139257143Y-92054819D01*
X139257143Y-92054819D02*
X139495238Y-92054819D01*
X139495238Y-92054819D02*
X139590476Y-92102438D01*
X139590476Y-92102438D02*
X139638095Y-92150057D01*
X139638095Y-92150057D02*
X139685714Y-92245295D01*
X139685714Y-92245295D02*
X139685714Y-92340533D01*
X139685714Y-92340533D02*
X139638095Y-92483390D01*
X139638095Y-92483390D02*
X139066667Y-93054819D01*
X139066667Y-93054819D02*
X139685714Y-93054819D01*
X154785714Y-89702438D02*
X154690476Y-89654819D01*
X154690476Y-89654819D02*
X154547619Y-89654819D01*
X154547619Y-89654819D02*
X154404762Y-89702438D01*
X154404762Y-89702438D02*
X154309524Y-89797676D01*
X154309524Y-89797676D02*
X154261905Y-89892914D01*
X154261905Y-89892914D02*
X154214286Y-90083390D01*
X154214286Y-90083390D02*
X154214286Y-90226247D01*
X154214286Y-90226247D02*
X154261905Y-90416723D01*
X154261905Y-90416723D02*
X154309524Y-90511961D01*
X154309524Y-90511961D02*
X154404762Y-90607200D01*
X154404762Y-90607200D02*
X154547619Y-90654819D01*
X154547619Y-90654819D02*
X154642857Y-90654819D01*
X154642857Y-90654819D02*
X154785714Y-90607200D01*
X154785714Y-90607200D02*
X154833333Y-90559580D01*
X154833333Y-90559580D02*
X154833333Y-90226247D01*
X154833333Y-90226247D02*
X154642857Y-90226247D01*
X155261905Y-90654819D02*
X155261905Y-89654819D01*
X155261905Y-89654819D02*
X155642857Y-89654819D01*
X155642857Y-89654819D02*
X155738095Y-89702438D01*
X155738095Y-89702438D02*
X155785714Y-89750057D01*
X155785714Y-89750057D02*
X155833333Y-89845295D01*
X155833333Y-89845295D02*
X155833333Y-89988152D01*
X155833333Y-89988152D02*
X155785714Y-90083390D01*
X155785714Y-90083390D02*
X155738095Y-90131009D01*
X155738095Y-90131009D02*
X155642857Y-90178628D01*
X155642857Y-90178628D02*
X155261905Y-90178628D01*
X156214286Y-89750057D02*
X156261905Y-89702438D01*
X156261905Y-89702438D02*
X156357143Y-89654819D01*
X156357143Y-89654819D02*
X156595238Y-89654819D01*
X156595238Y-89654819D02*
X156690476Y-89702438D01*
X156690476Y-89702438D02*
X156738095Y-89750057D01*
X156738095Y-89750057D02*
X156785714Y-89845295D01*
X156785714Y-89845295D02*
X156785714Y-89940533D01*
X156785714Y-89940533D02*
X156738095Y-90083390D01*
X156738095Y-90083390D02*
X156166667Y-90654819D01*
X156166667Y-90654819D02*
X156785714Y-90654819D01*
X131521904Y-75459580D02*
X131474285Y-75507200D01*
X131474285Y-75507200D02*
X131331428Y-75554819D01*
X131331428Y-75554819D02*
X131236190Y-75554819D01*
X131236190Y-75554819D02*
X131093333Y-75507200D01*
X131093333Y-75507200D02*
X130998095Y-75411961D01*
X130998095Y-75411961D02*
X130950476Y-75316723D01*
X130950476Y-75316723D02*
X130902857Y-75126247D01*
X130902857Y-75126247D02*
X130902857Y-74983390D01*
X130902857Y-74983390D02*
X130950476Y-74792914D01*
X130950476Y-74792914D02*
X130998095Y-74697676D01*
X130998095Y-74697676D02*
X131093333Y-74602438D01*
X131093333Y-74602438D02*
X131236190Y-74554819D01*
X131236190Y-74554819D02*
X131331428Y-74554819D01*
X131331428Y-74554819D02*
X131474285Y-74602438D01*
X131474285Y-74602438D02*
X131521904Y-74650057D01*
X131950476Y-75554819D02*
X131950476Y-74554819D01*
X131950476Y-74554819D02*
X132283809Y-75269104D01*
X132283809Y-75269104D02*
X132617142Y-74554819D01*
X132617142Y-74554819D02*
X132617142Y-75554819D01*
X133617142Y-75554819D02*
X133045714Y-75554819D01*
X133331428Y-75554819D02*
X133331428Y-74554819D01*
X133331428Y-74554819D02*
X133236190Y-74697676D01*
X133236190Y-74697676D02*
X133140952Y-74792914D01*
X133140952Y-74792914D02*
X133045714Y-74840533D01*
X148620833Y-82959580D02*
X148573214Y-83007200D01*
X148573214Y-83007200D02*
X148430357Y-83054819D01*
X148430357Y-83054819D02*
X148335119Y-83054819D01*
X148335119Y-83054819D02*
X148192262Y-83007200D01*
X148192262Y-83007200D02*
X148097024Y-82911961D01*
X148097024Y-82911961D02*
X148049405Y-82816723D01*
X148049405Y-82816723D02*
X148001786Y-82626247D01*
X148001786Y-82626247D02*
X148001786Y-82483390D01*
X148001786Y-82483390D02*
X148049405Y-82292914D01*
X148049405Y-82292914D02*
X148097024Y-82197676D01*
X148097024Y-82197676D02*
X148192262Y-82102438D01*
X148192262Y-82102438D02*
X148335119Y-82054819D01*
X148335119Y-82054819D02*
X148430357Y-82054819D01*
X148430357Y-82054819D02*
X148573214Y-82102438D01*
X148573214Y-82102438D02*
X148620833Y-82150057D01*
X149049405Y-83054819D02*
X149049405Y-82054819D01*
X149049405Y-82054819D02*
X149287500Y-82054819D01*
X149287500Y-82054819D02*
X149430357Y-82102438D01*
X149430357Y-82102438D02*
X149525595Y-82197676D01*
X149525595Y-82197676D02*
X149573214Y-82292914D01*
X149573214Y-82292914D02*
X149620833Y-82483390D01*
X149620833Y-82483390D02*
X149620833Y-82626247D01*
X149620833Y-82626247D02*
X149573214Y-82816723D01*
X149573214Y-82816723D02*
X149525595Y-82911961D01*
X149525595Y-82911961D02*
X149430357Y-83007200D01*
X149430357Y-83007200D02*
X149287500Y-83054819D01*
X149287500Y-83054819D02*
X149049405Y-83054819D01*
X150573214Y-83054819D02*
X150001786Y-83054819D01*
X150287500Y-83054819D02*
X150287500Y-82054819D01*
X150287500Y-82054819D02*
X150192262Y-82197676D01*
X150192262Y-82197676D02*
X150097024Y-82292914D01*
X150097024Y-82292914D02*
X150001786Y-82340533D01*
X142559580Y-79866666D02*
X142607200Y-79914285D01*
X142607200Y-79914285D02*
X142654819Y-80057142D01*
X142654819Y-80057142D02*
X142654819Y-80152380D01*
X142654819Y-80152380D02*
X142607200Y-80295237D01*
X142607200Y-80295237D02*
X142511961Y-80390475D01*
X142511961Y-80390475D02*
X142416723Y-80438094D01*
X142416723Y-80438094D02*
X142226247Y-80485713D01*
X142226247Y-80485713D02*
X142083390Y-80485713D01*
X142083390Y-80485713D02*
X141892914Y-80438094D01*
X141892914Y-80438094D02*
X141797676Y-80390475D01*
X141797676Y-80390475D02*
X141702438Y-80295237D01*
X141702438Y-80295237D02*
X141654819Y-80152380D01*
X141654819Y-80152380D02*
X141654819Y-80057142D01*
X141654819Y-80057142D02*
X141702438Y-79914285D01*
X141702438Y-79914285D02*
X141750057Y-79866666D01*
X142654819Y-79390475D02*
X142654819Y-79199999D01*
X142654819Y-79199999D02*
X142607200Y-79104761D01*
X142607200Y-79104761D02*
X142559580Y-79057142D01*
X142559580Y-79057142D02*
X142416723Y-78961904D01*
X142416723Y-78961904D02*
X142226247Y-78914285D01*
X142226247Y-78914285D02*
X141845295Y-78914285D01*
X141845295Y-78914285D02*
X141750057Y-78961904D01*
X141750057Y-78961904D02*
X141702438Y-79009523D01*
X141702438Y-79009523D02*
X141654819Y-79104761D01*
X141654819Y-79104761D02*
X141654819Y-79295237D01*
X141654819Y-79295237D02*
X141702438Y-79390475D01*
X141702438Y-79390475D02*
X141750057Y-79438094D01*
X141750057Y-79438094D02*
X141845295Y-79485713D01*
X141845295Y-79485713D02*
X142083390Y-79485713D01*
X142083390Y-79485713D02*
X142178628Y-79438094D01*
X142178628Y-79438094D02*
X142226247Y-79390475D01*
X142226247Y-79390475D02*
X142273866Y-79295237D01*
X142273866Y-79295237D02*
X142273866Y-79104761D01*
X142273866Y-79104761D02*
X142226247Y-79009523D01*
X142226247Y-79009523D02*
X142178628Y-78961904D01*
X142178628Y-78961904D02*
X142083390Y-78914285D01*
X137359580Y-86138095D02*
X137407200Y-86185714D01*
X137407200Y-86185714D02*
X137454819Y-86328571D01*
X137454819Y-86328571D02*
X137454819Y-86423809D01*
X137454819Y-86423809D02*
X137407200Y-86566666D01*
X137407200Y-86566666D02*
X137311961Y-86661904D01*
X137311961Y-86661904D02*
X137216723Y-86709523D01*
X137216723Y-86709523D02*
X137026247Y-86757142D01*
X137026247Y-86757142D02*
X136883390Y-86757142D01*
X136883390Y-86757142D02*
X136692914Y-86709523D01*
X136692914Y-86709523D02*
X136597676Y-86661904D01*
X136597676Y-86661904D02*
X136502438Y-86566666D01*
X136502438Y-86566666D02*
X136454819Y-86423809D01*
X136454819Y-86423809D02*
X136454819Y-86328571D01*
X136454819Y-86328571D02*
X136502438Y-86185714D01*
X136502438Y-86185714D02*
X136550057Y-86138095D01*
X137454819Y-85709523D02*
X136454819Y-85709523D01*
X136454819Y-85709523D02*
X137169104Y-85376190D01*
X137169104Y-85376190D02*
X136454819Y-85042857D01*
X136454819Y-85042857D02*
X137454819Y-85042857D01*
X136454819Y-84661904D02*
X136454819Y-83995238D01*
X136454819Y-83995238D02*
X137454819Y-84423809D01*
X139658333Y-96154819D02*
X139182143Y-96154819D01*
X139182143Y-96154819D02*
X139182143Y-95154819D01*
X140182143Y-95154819D02*
X140277381Y-95154819D01*
X140277381Y-95154819D02*
X140372619Y-95202438D01*
X140372619Y-95202438D02*
X140420238Y-95250057D01*
X140420238Y-95250057D02*
X140467857Y-95345295D01*
X140467857Y-95345295D02*
X140515476Y-95535771D01*
X140515476Y-95535771D02*
X140515476Y-95773866D01*
X140515476Y-95773866D02*
X140467857Y-95964342D01*
X140467857Y-95964342D02*
X140420238Y-96059580D01*
X140420238Y-96059580D02*
X140372619Y-96107200D01*
X140372619Y-96107200D02*
X140277381Y-96154819D01*
X140277381Y-96154819D02*
X140182143Y-96154819D01*
X140182143Y-96154819D02*
X140086905Y-96107200D01*
X140086905Y-96107200D02*
X140039286Y-96059580D01*
X140039286Y-96059580D02*
X139991667Y-95964342D01*
X139991667Y-95964342D02*
X139944048Y-95773866D01*
X139944048Y-95773866D02*
X139944048Y-95535771D01*
X139944048Y-95535771D02*
X139991667Y-95345295D01*
X139991667Y-95345295D02*
X140039286Y-95250057D01*
X140039286Y-95250057D02*
X140086905Y-95202438D01*
X140086905Y-95202438D02*
X140182143Y-95154819D01*
X127470833Y-91059580D02*
X127423214Y-91107200D01*
X127423214Y-91107200D02*
X127280357Y-91154819D01*
X127280357Y-91154819D02*
X127185119Y-91154819D01*
X127185119Y-91154819D02*
X127042262Y-91107200D01*
X127042262Y-91107200D02*
X126947024Y-91011961D01*
X126947024Y-91011961D02*
X126899405Y-90916723D01*
X126899405Y-90916723D02*
X126851786Y-90726247D01*
X126851786Y-90726247D02*
X126851786Y-90583390D01*
X126851786Y-90583390D02*
X126899405Y-90392914D01*
X126899405Y-90392914D02*
X126947024Y-90297676D01*
X126947024Y-90297676D02*
X127042262Y-90202438D01*
X127042262Y-90202438D02*
X127185119Y-90154819D01*
X127185119Y-90154819D02*
X127280357Y-90154819D01*
X127280357Y-90154819D02*
X127423214Y-90202438D01*
X127423214Y-90202438D02*
X127470833Y-90250057D01*
X127851786Y-90250057D02*
X127899405Y-90202438D01*
X127899405Y-90202438D02*
X127994643Y-90154819D01*
X127994643Y-90154819D02*
X128232738Y-90154819D01*
X128232738Y-90154819D02*
X128327976Y-90202438D01*
X128327976Y-90202438D02*
X128375595Y-90250057D01*
X128375595Y-90250057D02*
X128423214Y-90345295D01*
X128423214Y-90345295D02*
X128423214Y-90440533D01*
X128423214Y-90440533D02*
X128375595Y-90583390D01*
X128375595Y-90583390D02*
X127804167Y-91154819D01*
X127804167Y-91154819D02*
X128423214Y-91154819D01*
X144061904Y-77559580D02*
X144014285Y-77607200D01*
X144014285Y-77607200D02*
X143871428Y-77654819D01*
X143871428Y-77654819D02*
X143776190Y-77654819D01*
X143776190Y-77654819D02*
X143633333Y-77607200D01*
X143633333Y-77607200D02*
X143538095Y-77511961D01*
X143538095Y-77511961D02*
X143490476Y-77416723D01*
X143490476Y-77416723D02*
X143442857Y-77226247D01*
X143442857Y-77226247D02*
X143442857Y-77083390D01*
X143442857Y-77083390D02*
X143490476Y-76892914D01*
X143490476Y-76892914D02*
X143538095Y-76797676D01*
X143538095Y-76797676D02*
X143633333Y-76702438D01*
X143633333Y-76702438D02*
X143776190Y-76654819D01*
X143776190Y-76654819D02*
X143871428Y-76654819D01*
X143871428Y-76654819D02*
X144014285Y-76702438D01*
X144014285Y-76702438D02*
X144061904Y-76750057D01*
X144490476Y-77654819D02*
X144490476Y-76654819D01*
X144490476Y-76654819D02*
X144823809Y-77369104D01*
X144823809Y-77369104D02*
X145157142Y-76654819D01*
X145157142Y-76654819D02*
X145157142Y-77654819D01*
X145585714Y-76750057D02*
X145633333Y-76702438D01*
X145633333Y-76702438D02*
X145728571Y-76654819D01*
X145728571Y-76654819D02*
X145966666Y-76654819D01*
X145966666Y-76654819D02*
X146061904Y-76702438D01*
X146061904Y-76702438D02*
X146109523Y-76750057D01*
X146109523Y-76750057D02*
X146157142Y-76845295D01*
X146157142Y-76845295D02*
X146157142Y-76940533D01*
X146157142Y-76940533D02*
X146109523Y-77083390D01*
X146109523Y-77083390D02*
X145538095Y-77654819D01*
X145538095Y-77654819D02*
X146157142Y-77654819D01*
X140233333Y-77584580D02*
X140185714Y-77632200D01*
X140185714Y-77632200D02*
X140042857Y-77679819D01*
X140042857Y-77679819D02*
X139947619Y-77679819D01*
X139947619Y-77679819D02*
X139804762Y-77632200D01*
X139804762Y-77632200D02*
X139709524Y-77536961D01*
X139709524Y-77536961D02*
X139661905Y-77441723D01*
X139661905Y-77441723D02*
X139614286Y-77251247D01*
X139614286Y-77251247D02*
X139614286Y-77108390D01*
X139614286Y-77108390D02*
X139661905Y-76917914D01*
X139661905Y-76917914D02*
X139709524Y-76822676D01*
X139709524Y-76822676D02*
X139804762Y-76727438D01*
X139804762Y-76727438D02*
X139947619Y-76679819D01*
X139947619Y-76679819D02*
X140042857Y-76679819D01*
X140042857Y-76679819D02*
X140185714Y-76727438D01*
X140185714Y-76727438D02*
X140233333Y-76775057D01*
X140995238Y-77156009D02*
X141138095Y-77203628D01*
X141138095Y-77203628D02*
X141185714Y-77251247D01*
X141185714Y-77251247D02*
X141233333Y-77346485D01*
X141233333Y-77346485D02*
X141233333Y-77489342D01*
X141233333Y-77489342D02*
X141185714Y-77584580D01*
X141185714Y-77584580D02*
X141138095Y-77632200D01*
X141138095Y-77632200D02*
X141042857Y-77679819D01*
X141042857Y-77679819D02*
X140661905Y-77679819D01*
X140661905Y-77679819D02*
X140661905Y-76679819D01*
X140661905Y-76679819D02*
X140995238Y-76679819D01*
X140995238Y-76679819D02*
X141090476Y-76727438D01*
X141090476Y-76727438D02*
X141138095Y-76775057D01*
X141138095Y-76775057D02*
X141185714Y-76870295D01*
X141185714Y-76870295D02*
X141185714Y-76965533D01*
X141185714Y-76965533D02*
X141138095Y-77060771D01*
X141138095Y-77060771D02*
X141090476Y-77108390D01*
X141090476Y-77108390D02*
X140995238Y-77156009D01*
X140995238Y-77156009D02*
X140661905Y-77156009D01*
X142090476Y-77013152D02*
X142090476Y-77679819D01*
X141852381Y-76632200D02*
X141614286Y-77346485D01*
X141614286Y-77346485D02*
X142233333Y-77346485D01*
X151308333Y-99384580D02*
X151260714Y-99432200D01*
X151260714Y-99432200D02*
X151117857Y-99479819D01*
X151117857Y-99479819D02*
X151022619Y-99479819D01*
X151022619Y-99479819D02*
X150879762Y-99432200D01*
X150879762Y-99432200D02*
X150784524Y-99336961D01*
X150784524Y-99336961D02*
X150736905Y-99241723D01*
X150736905Y-99241723D02*
X150689286Y-99051247D01*
X150689286Y-99051247D02*
X150689286Y-98908390D01*
X150689286Y-98908390D02*
X150736905Y-98717914D01*
X150736905Y-98717914D02*
X150784524Y-98622676D01*
X150784524Y-98622676D02*
X150879762Y-98527438D01*
X150879762Y-98527438D02*
X151022619Y-98479819D01*
X151022619Y-98479819D02*
X151117857Y-98479819D01*
X151117857Y-98479819D02*
X151260714Y-98527438D01*
X151260714Y-98527438D02*
X151308333Y-98575057D01*
X151736905Y-99479819D02*
X151736905Y-98479819D01*
X151736905Y-98479819D02*
X151975000Y-98479819D01*
X151975000Y-98479819D02*
X152117857Y-98527438D01*
X152117857Y-98527438D02*
X152213095Y-98622676D01*
X152213095Y-98622676D02*
X152260714Y-98717914D01*
X152260714Y-98717914D02*
X152308333Y-98908390D01*
X152308333Y-98908390D02*
X152308333Y-99051247D01*
X152308333Y-99051247D02*
X152260714Y-99241723D01*
X152260714Y-99241723D02*
X152213095Y-99336961D01*
X152213095Y-99336961D02*
X152117857Y-99432200D01*
X152117857Y-99432200D02*
X151975000Y-99479819D01*
X151975000Y-99479819D02*
X151736905Y-99479819D01*
X152641667Y-98479819D02*
X153260714Y-98479819D01*
X153260714Y-98479819D02*
X152927381Y-98860771D01*
X152927381Y-98860771D02*
X153070238Y-98860771D01*
X153070238Y-98860771D02*
X153165476Y-98908390D01*
X153165476Y-98908390D02*
X153213095Y-98956009D01*
X153213095Y-98956009D02*
X153260714Y-99051247D01*
X153260714Y-99051247D02*
X153260714Y-99289342D01*
X153260714Y-99289342D02*
X153213095Y-99384580D01*
X153213095Y-99384580D02*
X153165476Y-99432200D01*
X153165476Y-99432200D02*
X153070238Y-99479819D01*
X153070238Y-99479819D02*
X152784524Y-99479819D01*
X152784524Y-99479819D02*
X152689286Y-99432200D01*
X152689286Y-99432200D02*
X152641667Y-99384580D01*
X127858333Y-77059580D02*
X127810714Y-77107200D01*
X127810714Y-77107200D02*
X127667857Y-77154819D01*
X127667857Y-77154819D02*
X127572619Y-77154819D01*
X127572619Y-77154819D02*
X127429762Y-77107200D01*
X127429762Y-77107200D02*
X127334524Y-77011961D01*
X127334524Y-77011961D02*
X127286905Y-76916723D01*
X127286905Y-76916723D02*
X127239286Y-76726247D01*
X127239286Y-76726247D02*
X127239286Y-76583390D01*
X127239286Y-76583390D02*
X127286905Y-76392914D01*
X127286905Y-76392914D02*
X127334524Y-76297676D01*
X127334524Y-76297676D02*
X127429762Y-76202438D01*
X127429762Y-76202438D02*
X127572619Y-76154819D01*
X127572619Y-76154819D02*
X127667857Y-76154819D01*
X127667857Y-76154819D02*
X127810714Y-76202438D01*
X127810714Y-76202438D02*
X127858333Y-76250057D01*
X128763095Y-76154819D02*
X128286905Y-76154819D01*
X128286905Y-76154819D02*
X128239286Y-76631009D01*
X128239286Y-76631009D02*
X128286905Y-76583390D01*
X128286905Y-76583390D02*
X128382143Y-76535771D01*
X128382143Y-76535771D02*
X128620238Y-76535771D01*
X128620238Y-76535771D02*
X128715476Y-76583390D01*
X128715476Y-76583390D02*
X128763095Y-76631009D01*
X128763095Y-76631009D02*
X128810714Y-76726247D01*
X128810714Y-76726247D02*
X128810714Y-76964342D01*
X128810714Y-76964342D02*
X128763095Y-77059580D01*
X128763095Y-77059580D02*
X128715476Y-77107200D01*
X128715476Y-77107200D02*
X128620238Y-77154819D01*
X128620238Y-77154819D02*
X128382143Y-77154819D01*
X128382143Y-77154819D02*
X128286905Y-77107200D01*
X128286905Y-77107200D02*
X128239286Y-77059580D01*
X151308333Y-97384580D02*
X151260714Y-97432200D01*
X151260714Y-97432200D02*
X151117857Y-97479819D01*
X151117857Y-97479819D02*
X151022619Y-97479819D01*
X151022619Y-97479819D02*
X150879762Y-97432200D01*
X150879762Y-97432200D02*
X150784524Y-97336961D01*
X150784524Y-97336961D02*
X150736905Y-97241723D01*
X150736905Y-97241723D02*
X150689286Y-97051247D01*
X150689286Y-97051247D02*
X150689286Y-96908390D01*
X150689286Y-96908390D02*
X150736905Y-96717914D01*
X150736905Y-96717914D02*
X150784524Y-96622676D01*
X150784524Y-96622676D02*
X150879762Y-96527438D01*
X150879762Y-96527438D02*
X151022619Y-96479819D01*
X151022619Y-96479819D02*
X151117857Y-96479819D01*
X151117857Y-96479819D02*
X151260714Y-96527438D01*
X151260714Y-96527438D02*
X151308333Y-96575057D01*
X151736905Y-97479819D02*
X151736905Y-96479819D01*
X151736905Y-96479819D02*
X151975000Y-96479819D01*
X151975000Y-96479819D02*
X152117857Y-96527438D01*
X152117857Y-96527438D02*
X152213095Y-96622676D01*
X152213095Y-96622676D02*
X152260714Y-96717914D01*
X152260714Y-96717914D02*
X152308333Y-96908390D01*
X152308333Y-96908390D02*
X152308333Y-97051247D01*
X152308333Y-97051247D02*
X152260714Y-97241723D01*
X152260714Y-97241723D02*
X152213095Y-97336961D01*
X152213095Y-97336961D02*
X152117857Y-97432200D01*
X152117857Y-97432200D02*
X151975000Y-97479819D01*
X151975000Y-97479819D02*
X151736905Y-97479819D01*
X152689286Y-96575057D02*
X152736905Y-96527438D01*
X152736905Y-96527438D02*
X152832143Y-96479819D01*
X152832143Y-96479819D02*
X153070238Y-96479819D01*
X153070238Y-96479819D02*
X153165476Y-96527438D01*
X153165476Y-96527438D02*
X153213095Y-96575057D01*
X153213095Y-96575057D02*
X153260714Y-96670295D01*
X153260714Y-96670295D02*
X153260714Y-96765533D01*
X153260714Y-96765533D02*
X153213095Y-96908390D01*
X153213095Y-96908390D02*
X152641667Y-97479819D01*
X152641667Y-97479819D02*
X153260714Y-97479819D01*
X154933333Y-85254819D02*
X154457143Y-85254819D01*
X154457143Y-85254819D02*
X154409524Y-85731009D01*
X154409524Y-85731009D02*
X154457143Y-85683390D01*
X154457143Y-85683390D02*
X154552381Y-85635771D01*
X154552381Y-85635771D02*
X154790476Y-85635771D01*
X154790476Y-85635771D02*
X154885714Y-85683390D01*
X154885714Y-85683390D02*
X154933333Y-85731009D01*
X154933333Y-85731009D02*
X154980952Y-85826247D01*
X154980952Y-85826247D02*
X154980952Y-86064342D01*
X154980952Y-86064342D02*
X154933333Y-86159580D01*
X154933333Y-86159580D02*
X154885714Y-86207200D01*
X154885714Y-86207200D02*
X154790476Y-86254819D01*
X154790476Y-86254819D02*
X154552381Y-86254819D01*
X154552381Y-86254819D02*
X154457143Y-86207200D01*
X154457143Y-86207200D02*
X154409524Y-86159580D01*
X155266667Y-85254819D02*
X155600000Y-86254819D01*
X155600000Y-86254819D02*
X155933333Y-85254819D01*
X156457143Y-85254819D02*
X156552381Y-85254819D01*
X156552381Y-85254819D02*
X156647619Y-85302438D01*
X156647619Y-85302438D02*
X156695238Y-85350057D01*
X156695238Y-85350057D02*
X156742857Y-85445295D01*
X156742857Y-85445295D02*
X156790476Y-85635771D01*
X156790476Y-85635771D02*
X156790476Y-85873866D01*
X156790476Y-85873866D02*
X156742857Y-86064342D01*
X156742857Y-86064342D02*
X156695238Y-86159580D01*
X156695238Y-86159580D02*
X156647619Y-86207200D01*
X156647619Y-86207200D02*
X156552381Y-86254819D01*
X156552381Y-86254819D02*
X156457143Y-86254819D01*
X156457143Y-86254819D02*
X156361905Y-86207200D01*
X156361905Y-86207200D02*
X156314286Y-86159580D01*
X156314286Y-86159580D02*
X156266667Y-86064342D01*
X156266667Y-86064342D02*
X156219048Y-85873866D01*
X156219048Y-85873866D02*
X156219048Y-85635771D01*
X156219048Y-85635771D02*
X156266667Y-85445295D01*
X156266667Y-85445295D02*
X156314286Y-85350057D01*
X156314286Y-85350057D02*
X156361905Y-85302438D01*
X156361905Y-85302438D02*
X156457143Y-85254819D01*
X144333333Y-86459580D02*
X144285714Y-86507200D01*
X144285714Y-86507200D02*
X144142857Y-86554819D01*
X144142857Y-86554819D02*
X144047619Y-86554819D01*
X144047619Y-86554819D02*
X143904762Y-86507200D01*
X143904762Y-86507200D02*
X143809524Y-86411961D01*
X143809524Y-86411961D02*
X143761905Y-86316723D01*
X143761905Y-86316723D02*
X143714286Y-86126247D01*
X143714286Y-86126247D02*
X143714286Y-85983390D01*
X143714286Y-85983390D02*
X143761905Y-85792914D01*
X143761905Y-85792914D02*
X143809524Y-85697676D01*
X143809524Y-85697676D02*
X143904762Y-85602438D01*
X143904762Y-85602438D02*
X144047619Y-85554819D01*
X144047619Y-85554819D02*
X144142857Y-85554819D01*
X144142857Y-85554819D02*
X144285714Y-85602438D01*
X144285714Y-85602438D02*
X144333333Y-85650057D01*
X145333333Y-86554819D02*
X145000000Y-86078628D01*
X144761905Y-86554819D02*
X144761905Y-85554819D01*
X144761905Y-85554819D02*
X145142857Y-85554819D01*
X145142857Y-85554819D02*
X145238095Y-85602438D01*
X145238095Y-85602438D02*
X145285714Y-85650057D01*
X145285714Y-85650057D02*
X145333333Y-85745295D01*
X145333333Y-85745295D02*
X145333333Y-85888152D01*
X145333333Y-85888152D02*
X145285714Y-85983390D01*
X145285714Y-85983390D02*
X145238095Y-86031009D01*
X145238095Y-86031009D02*
X145142857Y-86078628D01*
X145142857Y-86078628D02*
X144761905Y-86078628D01*
X146285714Y-86554819D02*
X145714286Y-86554819D01*
X146000000Y-86554819D02*
X146000000Y-85554819D01*
X146000000Y-85554819D02*
X145904762Y-85697676D01*
X145904762Y-85697676D02*
X145809524Y-85792914D01*
X145809524Y-85792914D02*
X145714286Y-85840533D01*
X134759580Y-87966666D02*
X134807200Y-88014285D01*
X134807200Y-88014285D02*
X134854819Y-88157142D01*
X134854819Y-88157142D02*
X134854819Y-88252380D01*
X134854819Y-88252380D02*
X134807200Y-88395237D01*
X134807200Y-88395237D02*
X134711961Y-88490475D01*
X134711961Y-88490475D02*
X134616723Y-88538094D01*
X134616723Y-88538094D02*
X134426247Y-88585713D01*
X134426247Y-88585713D02*
X134283390Y-88585713D01*
X134283390Y-88585713D02*
X134092914Y-88538094D01*
X134092914Y-88538094D02*
X133997676Y-88490475D01*
X133997676Y-88490475D02*
X133902438Y-88395237D01*
X133902438Y-88395237D02*
X133854819Y-88252380D01*
X133854819Y-88252380D02*
X133854819Y-88157142D01*
X133854819Y-88157142D02*
X133902438Y-88014285D01*
X133902438Y-88014285D02*
X133950057Y-87966666D01*
X133854819Y-87109523D02*
X133854819Y-87299999D01*
X133854819Y-87299999D02*
X133902438Y-87395237D01*
X133902438Y-87395237D02*
X133950057Y-87442856D01*
X133950057Y-87442856D02*
X134092914Y-87538094D01*
X134092914Y-87538094D02*
X134283390Y-87585713D01*
X134283390Y-87585713D02*
X134664342Y-87585713D01*
X134664342Y-87585713D02*
X134759580Y-87538094D01*
X134759580Y-87538094D02*
X134807200Y-87490475D01*
X134807200Y-87490475D02*
X134854819Y-87395237D01*
X134854819Y-87395237D02*
X134854819Y-87204761D01*
X134854819Y-87204761D02*
X134807200Y-87109523D01*
X134807200Y-87109523D02*
X134759580Y-87061904D01*
X134759580Y-87061904D02*
X134664342Y-87014285D01*
X134664342Y-87014285D02*
X134426247Y-87014285D01*
X134426247Y-87014285D02*
X134331009Y-87061904D01*
X134331009Y-87061904D02*
X134283390Y-87109523D01*
X134283390Y-87109523D02*
X134235771Y-87204761D01*
X134235771Y-87204761D02*
X134235771Y-87395237D01*
X134235771Y-87395237D02*
X134283390Y-87490475D01*
X134283390Y-87490475D02*
X134331009Y-87538094D01*
X134331009Y-87538094D02*
X134426247Y-87585713D01*
X134854819Y-85738095D02*
X134854819Y-86214285D01*
X134854819Y-86214285D02*
X133854819Y-86214285D01*
X134854819Y-85404761D02*
X133854819Y-85404761D01*
X133854819Y-85404761D02*
X134569104Y-85071428D01*
X134569104Y-85071428D02*
X133854819Y-84738095D01*
X133854819Y-84738095D02*
X134854819Y-84738095D01*
X133854819Y-83833333D02*
X133854819Y-84023809D01*
X133854819Y-84023809D02*
X133902438Y-84119047D01*
X133902438Y-84119047D02*
X133950057Y-84166666D01*
X133950057Y-84166666D02*
X134092914Y-84261904D01*
X134092914Y-84261904D02*
X134283390Y-84309523D01*
X134283390Y-84309523D02*
X134664342Y-84309523D01*
X134664342Y-84309523D02*
X134759580Y-84261904D01*
X134759580Y-84261904D02*
X134807200Y-84214285D01*
X134807200Y-84214285D02*
X134854819Y-84119047D01*
X134854819Y-84119047D02*
X134854819Y-83928571D01*
X134854819Y-83928571D02*
X134807200Y-83833333D01*
X134807200Y-83833333D02*
X134759580Y-83785714D01*
X134759580Y-83785714D02*
X134664342Y-83738095D01*
X134664342Y-83738095D02*
X134426247Y-83738095D01*
X134426247Y-83738095D02*
X134331009Y-83785714D01*
X134331009Y-83785714D02*
X134283390Y-83833333D01*
X134283390Y-83833333D02*
X134235771Y-83928571D01*
X134235771Y-83928571D02*
X134235771Y-84119047D01*
X134235771Y-84119047D02*
X134283390Y-84214285D01*
X134283390Y-84214285D02*
X134331009Y-84261904D01*
X134331009Y-84261904D02*
X134426247Y-84309523D01*
X136059580Y-85566666D02*
X136107200Y-85614285D01*
X136107200Y-85614285D02*
X136154819Y-85757142D01*
X136154819Y-85757142D02*
X136154819Y-85852380D01*
X136154819Y-85852380D02*
X136107200Y-85995237D01*
X136107200Y-85995237D02*
X136011961Y-86090475D01*
X136011961Y-86090475D02*
X135916723Y-86138094D01*
X135916723Y-86138094D02*
X135726247Y-86185713D01*
X135726247Y-86185713D02*
X135583390Y-86185713D01*
X135583390Y-86185713D02*
X135392914Y-86138094D01*
X135392914Y-86138094D02*
X135297676Y-86090475D01*
X135297676Y-86090475D02*
X135202438Y-85995237D01*
X135202438Y-85995237D02*
X135154819Y-85852380D01*
X135154819Y-85852380D02*
X135154819Y-85757142D01*
X135154819Y-85757142D02*
X135202438Y-85614285D01*
X135202438Y-85614285D02*
X135250057Y-85566666D01*
X135631009Y-84804761D02*
X135678628Y-84661904D01*
X135678628Y-84661904D02*
X135726247Y-84614285D01*
X135726247Y-84614285D02*
X135821485Y-84566666D01*
X135821485Y-84566666D02*
X135964342Y-84566666D01*
X135964342Y-84566666D02*
X136059580Y-84614285D01*
X136059580Y-84614285D02*
X136107200Y-84661904D01*
X136107200Y-84661904D02*
X136154819Y-84757142D01*
X136154819Y-84757142D02*
X136154819Y-85138094D01*
X136154819Y-85138094D02*
X135154819Y-85138094D01*
X135154819Y-85138094D02*
X135154819Y-84804761D01*
X135154819Y-84804761D02*
X135202438Y-84709523D01*
X135202438Y-84709523D02*
X135250057Y-84661904D01*
X135250057Y-84661904D02*
X135345295Y-84614285D01*
X135345295Y-84614285D02*
X135440533Y-84614285D01*
X135440533Y-84614285D02*
X135535771Y-84661904D01*
X135535771Y-84661904D02*
X135583390Y-84709523D01*
X135583390Y-84709523D02*
X135631009Y-84804761D01*
X135631009Y-84804761D02*
X135631009Y-85138094D01*
X136154819Y-83614285D02*
X136154819Y-84185713D01*
X136154819Y-83899999D02*
X135154819Y-83899999D01*
X135154819Y-83899999D02*
X135297676Y-83995237D01*
X135297676Y-83995237D02*
X135392914Y-84090475D01*
X135392914Y-84090475D02*
X135440533Y-84185713D01*
X127533333Y-93154819D02*
X127057143Y-93154819D01*
X127057143Y-93154819D02*
X127057143Y-92154819D01*
X128390476Y-93154819D02*
X127819048Y-93154819D01*
X128104762Y-93154819D02*
X128104762Y-92154819D01*
X128104762Y-92154819D02*
X128009524Y-92297676D01*
X128009524Y-92297676D02*
X127914286Y-92392914D01*
X127914286Y-92392914D02*
X127819048Y-92440533D01*
X160909580Y-77929166D02*
X160957200Y-77976785D01*
X160957200Y-77976785D02*
X161004819Y-78119642D01*
X161004819Y-78119642D02*
X161004819Y-78214880D01*
X161004819Y-78214880D02*
X160957200Y-78357737D01*
X160957200Y-78357737D02*
X160861961Y-78452975D01*
X160861961Y-78452975D02*
X160766723Y-78500594D01*
X160766723Y-78500594D02*
X160576247Y-78548213D01*
X160576247Y-78548213D02*
X160433390Y-78548213D01*
X160433390Y-78548213D02*
X160242914Y-78500594D01*
X160242914Y-78500594D02*
X160147676Y-78452975D01*
X160147676Y-78452975D02*
X160052438Y-78357737D01*
X160052438Y-78357737D02*
X160004819Y-78214880D01*
X160004819Y-78214880D02*
X160004819Y-78119642D01*
X160004819Y-78119642D02*
X160052438Y-77976785D01*
X160052438Y-77976785D02*
X160100057Y-77929166D01*
X160004819Y-77595832D02*
X160004819Y-76929166D01*
X160004819Y-76929166D02*
X161004819Y-77357737D01*
X142270833Y-96059580D02*
X142223214Y-96107200D01*
X142223214Y-96107200D02*
X142080357Y-96154819D01*
X142080357Y-96154819D02*
X141985119Y-96154819D01*
X141985119Y-96154819D02*
X141842262Y-96107200D01*
X141842262Y-96107200D02*
X141747024Y-96011961D01*
X141747024Y-96011961D02*
X141699405Y-95916723D01*
X141699405Y-95916723D02*
X141651786Y-95726247D01*
X141651786Y-95726247D02*
X141651786Y-95583390D01*
X141651786Y-95583390D02*
X141699405Y-95392914D01*
X141699405Y-95392914D02*
X141747024Y-95297676D01*
X141747024Y-95297676D02*
X141842262Y-95202438D01*
X141842262Y-95202438D02*
X141985119Y-95154819D01*
X141985119Y-95154819D02*
X142080357Y-95154819D01*
X142080357Y-95154819D02*
X142223214Y-95202438D01*
X142223214Y-95202438D02*
X142270833Y-95250057D01*
X142889881Y-95154819D02*
X142985119Y-95154819D01*
X142985119Y-95154819D02*
X143080357Y-95202438D01*
X143080357Y-95202438D02*
X143127976Y-95250057D01*
X143127976Y-95250057D02*
X143175595Y-95345295D01*
X143175595Y-95345295D02*
X143223214Y-95535771D01*
X143223214Y-95535771D02*
X143223214Y-95773866D01*
X143223214Y-95773866D02*
X143175595Y-95964342D01*
X143175595Y-95964342D02*
X143127976Y-96059580D01*
X143127976Y-96059580D02*
X143080357Y-96107200D01*
X143080357Y-96107200D02*
X142985119Y-96154819D01*
X142985119Y-96154819D02*
X142889881Y-96154819D01*
X142889881Y-96154819D02*
X142794643Y-96107200D01*
X142794643Y-96107200D02*
X142747024Y-96059580D01*
X142747024Y-96059580D02*
X142699405Y-95964342D01*
X142699405Y-95964342D02*
X142651786Y-95773866D01*
X142651786Y-95773866D02*
X142651786Y-95535771D01*
X142651786Y-95535771D02*
X142699405Y-95345295D01*
X142699405Y-95345295D02*
X142747024Y-95250057D01*
X142747024Y-95250057D02*
X142794643Y-95202438D01*
X142794643Y-95202438D02*
X142889881Y-95154819D01*
X142659580Y-83866666D02*
X142707200Y-83914285D01*
X142707200Y-83914285D02*
X142754819Y-84057142D01*
X142754819Y-84057142D02*
X142754819Y-84152380D01*
X142754819Y-84152380D02*
X142707200Y-84295237D01*
X142707200Y-84295237D02*
X142611961Y-84390475D01*
X142611961Y-84390475D02*
X142516723Y-84438094D01*
X142516723Y-84438094D02*
X142326247Y-84485713D01*
X142326247Y-84485713D02*
X142183390Y-84485713D01*
X142183390Y-84485713D02*
X141992914Y-84438094D01*
X141992914Y-84438094D02*
X141897676Y-84390475D01*
X141897676Y-84390475D02*
X141802438Y-84295237D01*
X141802438Y-84295237D02*
X141754819Y-84152380D01*
X141754819Y-84152380D02*
X141754819Y-84057142D01*
X141754819Y-84057142D02*
X141802438Y-83914285D01*
X141802438Y-83914285D02*
X141850057Y-83866666D01*
X142231009Y-83104761D02*
X142278628Y-82961904D01*
X142278628Y-82961904D02*
X142326247Y-82914285D01*
X142326247Y-82914285D02*
X142421485Y-82866666D01*
X142421485Y-82866666D02*
X142564342Y-82866666D01*
X142564342Y-82866666D02*
X142659580Y-82914285D01*
X142659580Y-82914285D02*
X142707200Y-82961904D01*
X142707200Y-82961904D02*
X142754819Y-83057142D01*
X142754819Y-83057142D02*
X142754819Y-83438094D01*
X142754819Y-83438094D02*
X141754819Y-83438094D01*
X141754819Y-83438094D02*
X141754819Y-83104761D01*
X141754819Y-83104761D02*
X141802438Y-83009523D01*
X141802438Y-83009523D02*
X141850057Y-82961904D01*
X141850057Y-82961904D02*
X141945295Y-82914285D01*
X141945295Y-82914285D02*
X142040533Y-82914285D01*
X142040533Y-82914285D02*
X142135771Y-82961904D01*
X142135771Y-82961904D02*
X142183390Y-83009523D01*
X142183390Y-83009523D02*
X142231009Y-83104761D01*
X142231009Y-83104761D02*
X142231009Y-83438094D01*
X141850057Y-82485713D02*
X141802438Y-82438094D01*
X141802438Y-82438094D02*
X141754819Y-82342856D01*
X141754819Y-82342856D02*
X141754819Y-82104761D01*
X141754819Y-82104761D02*
X141802438Y-82009523D01*
X141802438Y-82009523D02*
X141850057Y-81961904D01*
X141850057Y-81961904D02*
X141945295Y-81914285D01*
X141945295Y-81914285D02*
X142040533Y-81914285D01*
X142040533Y-81914285D02*
X142183390Y-81961904D01*
X142183390Y-81961904D02*
X142754819Y-82533332D01*
X142754819Y-82533332D02*
X142754819Y-81914285D01*
X127954819Y-81366666D02*
X127954819Y-81842856D01*
X127954819Y-81842856D02*
X126954819Y-81842856D01*
X127050057Y-81080951D02*
X127002438Y-81033332D01*
X127002438Y-81033332D02*
X126954819Y-80938094D01*
X126954819Y-80938094D02*
X126954819Y-80699999D01*
X126954819Y-80699999D02*
X127002438Y-80604761D01*
X127002438Y-80604761D02*
X127050057Y-80557142D01*
X127050057Y-80557142D02*
X127145295Y-80509523D01*
X127145295Y-80509523D02*
X127240533Y-80509523D01*
X127240533Y-80509523D02*
X127383390Y-80557142D01*
X127383390Y-80557142D02*
X127954819Y-81128570D01*
X127954819Y-81128570D02*
X127954819Y-80509523D01*
X144354819Y-84638095D02*
X144354819Y-85114285D01*
X144354819Y-85114285D02*
X143354819Y-85114285D01*
X144354819Y-84304761D02*
X143354819Y-84304761D01*
X143354819Y-84304761D02*
X144069104Y-83971428D01*
X144069104Y-83971428D02*
X143354819Y-83638095D01*
X143354819Y-83638095D02*
X144354819Y-83638095D01*
X143354819Y-82685714D02*
X143354819Y-83161904D01*
X143354819Y-83161904D02*
X143831009Y-83209523D01*
X143831009Y-83209523D02*
X143783390Y-83161904D01*
X143783390Y-83161904D02*
X143735771Y-83066666D01*
X143735771Y-83066666D02*
X143735771Y-82828571D01*
X143735771Y-82828571D02*
X143783390Y-82733333D01*
X143783390Y-82733333D02*
X143831009Y-82685714D01*
X143831009Y-82685714D02*
X143926247Y-82638095D01*
X143926247Y-82638095D02*
X144164342Y-82638095D01*
X144164342Y-82638095D02*
X144259580Y-82685714D01*
X144259580Y-82685714D02*
X144307200Y-82733333D01*
X144307200Y-82733333D02*
X144354819Y-82828571D01*
X144354819Y-82828571D02*
X144354819Y-83066666D01*
X144354819Y-83066666D02*
X144307200Y-83161904D01*
X144307200Y-83161904D02*
X144259580Y-83209523D01*
X140195237Y-100129819D02*
X139719047Y-100129819D01*
X139719047Y-100129819D02*
X139719047Y-99129819D01*
X141099999Y-100034580D02*
X141052380Y-100082200D01*
X141052380Y-100082200D02*
X140909523Y-100129819D01*
X140909523Y-100129819D02*
X140814285Y-100129819D01*
X140814285Y-100129819D02*
X140671428Y-100082200D01*
X140671428Y-100082200D02*
X140576190Y-99986961D01*
X140576190Y-99986961D02*
X140528571Y-99891723D01*
X140528571Y-99891723D02*
X140480952Y-99701247D01*
X140480952Y-99701247D02*
X140480952Y-99558390D01*
X140480952Y-99558390D02*
X140528571Y-99367914D01*
X140528571Y-99367914D02*
X140576190Y-99272676D01*
X140576190Y-99272676D02*
X140671428Y-99177438D01*
X140671428Y-99177438D02*
X140814285Y-99129819D01*
X140814285Y-99129819D02*
X140909523Y-99129819D01*
X140909523Y-99129819D02*
X141052380Y-99177438D01*
X141052380Y-99177438D02*
X141099999Y-99225057D01*
X141528571Y-100129819D02*
X141528571Y-99129819D01*
X141957142Y-100129819D02*
X141957142Y-99606009D01*
X141957142Y-99606009D02*
X141909523Y-99510771D01*
X141909523Y-99510771D02*
X141814285Y-99463152D01*
X141814285Y-99463152D02*
X141671428Y-99463152D01*
X141671428Y-99463152D02*
X141576190Y-99510771D01*
X141576190Y-99510771D02*
X141528571Y-99558390D01*
X142576190Y-100129819D02*
X142480952Y-100082200D01*
X142480952Y-100082200D02*
X142433333Y-100034580D01*
X142433333Y-100034580D02*
X142385714Y-99939342D01*
X142385714Y-99939342D02*
X142385714Y-99653628D01*
X142385714Y-99653628D02*
X142433333Y-99558390D01*
X142433333Y-99558390D02*
X142480952Y-99510771D01*
X142480952Y-99510771D02*
X142576190Y-99463152D01*
X142576190Y-99463152D02*
X142719047Y-99463152D01*
X142719047Y-99463152D02*
X142814285Y-99510771D01*
X142814285Y-99510771D02*
X142861904Y-99558390D01*
X142861904Y-99558390D02*
X142909523Y-99653628D01*
X142909523Y-99653628D02*
X142909523Y-99939342D01*
X142909523Y-99939342D02*
X142861904Y-100034580D01*
X142861904Y-100034580D02*
X142814285Y-100082200D01*
X142814285Y-100082200D02*
X142719047Y-100129819D01*
X142719047Y-100129819D02*
X142576190Y-100129819D01*
X143338095Y-100129819D02*
X143338095Y-99129819D01*
X143433333Y-99748866D02*
X143719047Y-100129819D01*
X143719047Y-99463152D02*
X143338095Y-99844104D01*
X144528571Y-100082200D02*
X144433333Y-100129819D01*
X144433333Y-100129819D02*
X144242857Y-100129819D01*
X144242857Y-100129819D02*
X144147619Y-100082200D01*
X144147619Y-100082200D02*
X144100000Y-99986961D01*
X144100000Y-99986961D02*
X144100000Y-99606009D01*
X144100000Y-99606009D02*
X144147619Y-99510771D01*
X144147619Y-99510771D02*
X144242857Y-99463152D01*
X144242857Y-99463152D02*
X144433333Y-99463152D01*
X144433333Y-99463152D02*
X144528571Y-99510771D01*
X144528571Y-99510771D02*
X144576190Y-99606009D01*
X144576190Y-99606009D02*
X144576190Y-99701247D01*
X144576190Y-99701247D02*
X144100000Y-99796485D01*
X145528571Y-100129819D02*
X144957143Y-100129819D01*
X145242857Y-100129819D02*
X145242857Y-99129819D01*
X145242857Y-99129819D02*
X145147619Y-99272676D01*
X145147619Y-99272676D02*
X145052381Y-99367914D01*
X145052381Y-99367914D02*
X144957143Y-99415533D01*
X135061904Y-74254819D02*
X134585714Y-74254819D01*
X134585714Y-74254819D02*
X134585714Y-73254819D01*
X135395238Y-74254819D02*
X135395238Y-73254819D01*
X135395238Y-73254819D02*
X135728571Y-73969104D01*
X135728571Y-73969104D02*
X136061904Y-73254819D01*
X136061904Y-73254819D02*
X136061904Y-74254819D01*
X137061904Y-74254819D02*
X136490476Y-74254819D01*
X136776190Y-74254819D02*
X136776190Y-73254819D01*
X136776190Y-73254819D02*
X136680952Y-73397676D01*
X136680952Y-73397676D02*
X136585714Y-73492914D01*
X136585714Y-73492914D02*
X136490476Y-73540533D01*
X131359580Y-78638095D02*
X131407200Y-78685714D01*
X131407200Y-78685714D02*
X131454819Y-78828571D01*
X131454819Y-78828571D02*
X131454819Y-78923809D01*
X131454819Y-78923809D02*
X131407200Y-79066666D01*
X131407200Y-79066666D02*
X131311961Y-79161904D01*
X131311961Y-79161904D02*
X131216723Y-79209523D01*
X131216723Y-79209523D02*
X131026247Y-79257142D01*
X131026247Y-79257142D02*
X130883390Y-79257142D01*
X130883390Y-79257142D02*
X130692914Y-79209523D01*
X130692914Y-79209523D02*
X130597676Y-79161904D01*
X130597676Y-79161904D02*
X130502438Y-79066666D01*
X130502438Y-79066666D02*
X130454819Y-78923809D01*
X130454819Y-78923809D02*
X130454819Y-78828571D01*
X130454819Y-78828571D02*
X130502438Y-78685714D01*
X130502438Y-78685714D02*
X130550057Y-78638095D01*
X131454819Y-78209523D02*
X130454819Y-78209523D01*
X130454819Y-78209523D02*
X131169104Y-77876190D01*
X131169104Y-77876190D02*
X130454819Y-77542857D01*
X130454819Y-77542857D02*
X131454819Y-77542857D01*
X130883390Y-76923809D02*
X130835771Y-77019047D01*
X130835771Y-77019047D02*
X130788152Y-77066666D01*
X130788152Y-77066666D02*
X130692914Y-77114285D01*
X130692914Y-77114285D02*
X130645295Y-77114285D01*
X130645295Y-77114285D02*
X130550057Y-77066666D01*
X130550057Y-77066666D02*
X130502438Y-77019047D01*
X130502438Y-77019047D02*
X130454819Y-76923809D01*
X130454819Y-76923809D02*
X130454819Y-76733333D01*
X130454819Y-76733333D02*
X130502438Y-76638095D01*
X130502438Y-76638095D02*
X130550057Y-76590476D01*
X130550057Y-76590476D02*
X130645295Y-76542857D01*
X130645295Y-76542857D02*
X130692914Y-76542857D01*
X130692914Y-76542857D02*
X130788152Y-76590476D01*
X130788152Y-76590476D02*
X130835771Y-76638095D01*
X130835771Y-76638095D02*
X130883390Y-76733333D01*
X130883390Y-76733333D02*
X130883390Y-76923809D01*
X130883390Y-76923809D02*
X130931009Y-77019047D01*
X130931009Y-77019047D02*
X130978628Y-77066666D01*
X130978628Y-77066666D02*
X131073866Y-77114285D01*
X131073866Y-77114285D02*
X131264342Y-77114285D01*
X131264342Y-77114285D02*
X131359580Y-77066666D01*
X131359580Y-77066666D02*
X131407200Y-77019047D01*
X131407200Y-77019047D02*
X131454819Y-76923809D01*
X131454819Y-76923809D02*
X131454819Y-76733333D01*
X131454819Y-76733333D02*
X131407200Y-76638095D01*
X131407200Y-76638095D02*
X131359580Y-76590476D01*
X131359580Y-76590476D02*
X131264342Y-76542857D01*
X131264342Y-76542857D02*
X131073866Y-76542857D01*
X131073866Y-76542857D02*
X130978628Y-76590476D01*
X130978628Y-76590476D02*
X130931009Y-76638095D01*
X130931009Y-76638095D02*
X130883390Y-76733333D01*
X134959580Y-80475595D02*
X135007200Y-80523214D01*
X135007200Y-80523214D02*
X135054819Y-80666071D01*
X135054819Y-80666071D02*
X135054819Y-80761309D01*
X135054819Y-80761309D02*
X135007200Y-80904166D01*
X135007200Y-80904166D02*
X134911961Y-80999404D01*
X134911961Y-80999404D02*
X134816723Y-81047023D01*
X134816723Y-81047023D02*
X134626247Y-81094642D01*
X134626247Y-81094642D02*
X134483390Y-81094642D01*
X134483390Y-81094642D02*
X134292914Y-81047023D01*
X134292914Y-81047023D02*
X134197676Y-80999404D01*
X134197676Y-80999404D02*
X134102438Y-80904166D01*
X134102438Y-80904166D02*
X134054819Y-80761309D01*
X134054819Y-80761309D02*
X134054819Y-80666071D01*
X134054819Y-80666071D02*
X134102438Y-80523214D01*
X134102438Y-80523214D02*
X134150057Y-80475595D01*
X135054819Y-80047023D02*
X134054819Y-80047023D01*
X134054819Y-80047023D02*
X134769104Y-79713690D01*
X134769104Y-79713690D02*
X134054819Y-79380357D01*
X134054819Y-79380357D02*
X135054819Y-79380357D01*
X135054819Y-78856547D02*
X135054819Y-78666071D01*
X135054819Y-78666071D02*
X135007200Y-78570833D01*
X135007200Y-78570833D02*
X134959580Y-78523214D01*
X134959580Y-78523214D02*
X134816723Y-78427976D01*
X134816723Y-78427976D02*
X134626247Y-78380357D01*
X134626247Y-78380357D02*
X134245295Y-78380357D01*
X134245295Y-78380357D02*
X134150057Y-78427976D01*
X134150057Y-78427976D02*
X134102438Y-78475595D01*
X134102438Y-78475595D02*
X134054819Y-78570833D01*
X134054819Y-78570833D02*
X134054819Y-78761309D01*
X134054819Y-78761309D02*
X134102438Y-78856547D01*
X134102438Y-78856547D02*
X134150057Y-78904166D01*
X134150057Y-78904166D02*
X134245295Y-78951785D01*
X134245295Y-78951785D02*
X134483390Y-78951785D01*
X134483390Y-78951785D02*
X134578628Y-78904166D01*
X134578628Y-78904166D02*
X134626247Y-78856547D01*
X134626247Y-78856547D02*
X134673866Y-78761309D01*
X134673866Y-78761309D02*
X134673866Y-78570833D01*
X134673866Y-78570833D02*
X134626247Y-78475595D01*
X134626247Y-78475595D02*
X134578628Y-78427976D01*
X134578628Y-78427976D02*
X134483390Y-78380357D01*
D11*
%TO.C,L3*%
X129863748Y-83277500D02*
X130386252Y-83277500D01*
X129863748Y-84697500D02*
X130386252Y-84697500D01*
%TO.C,CM6*%
X137865000Y-89301248D02*
X137865000Y-89823752D01*
X139335000Y-89301248D02*
X139335000Y-89823752D01*
%TO.C,GP3*%
X157925000Y-88960000D02*
X160785000Y-88960000D01*
X160785000Y-87040000D02*
X157925000Y-87040000D01*
X160785000Y-88960000D02*
X160785000Y-87040000D01*
%TO.C,C1*%
X153038748Y-76865000D02*
X153561252Y-76865000D01*
X153038748Y-78335000D02*
X153561252Y-78335000D01*
%TO.C,CM4*%
X132465000Y-95138748D02*
X132465000Y-95661252D01*
X133935000Y-95138748D02*
X133935000Y-95661252D01*
%TO.C,LM2*%
X134590000Y-93671267D02*
X134590000Y-93328733D01*
X135610000Y-93671267D02*
X135610000Y-93328733D01*
%TO.C,C8*%
X135665000Y-79476248D02*
X135665000Y-79998752D01*
X137135000Y-79476248D02*
X137135000Y-79998752D01*
%TO.C,R6*%
X160945000Y-90129879D02*
X160945000Y-90465121D01*
X161705000Y-90129879D02*
X161705000Y-90465121D01*
%TO.C,3V3*%
X157900000Y-84560000D02*
X160760000Y-84560000D01*
X160760000Y-82640000D02*
X157900000Y-82640000D01*
X160760000Y-84560000D02*
X160760000Y-82640000D01*
%TO.C,LM4*%
X134540000Y-97610242D02*
X134540000Y-96789758D01*
X135660000Y-97610242D02*
X135660000Y-96789758D01*
%TO.C,CB3*%
X149838748Y-88790000D02*
X150361252Y-88790000D01*
X149838748Y-90260000D02*
X150361252Y-90260000D01*
%TO.C,CM3*%
X136265000Y-94776248D02*
X136265000Y-95298752D01*
X137735000Y-94776248D02*
X137735000Y-95298752D01*
%TO.C,R12*%
X160920000Y-83532379D02*
X160920000Y-83867621D01*
X161680000Y-83532379D02*
X161680000Y-83867621D01*
%TO.C,LR1*%
X143690000Y-91228733D02*
X143690000Y-91571267D01*
X144710000Y-91228733D02*
X144710000Y-91571267D01*
%TO.C,LR2*%
X141861252Y-89390000D02*
X141338748Y-89390000D01*
X141861252Y-90810000D02*
X141338748Y-90810000D01*
%TO.C,CM5*%
X132565000Y-91823752D02*
X132565000Y-91301248D01*
X134035000Y-91823752D02*
X134035000Y-91301248D01*
%TO.C,IRQ1*%
X157925000Y-93360000D02*
X160785000Y-93360000D01*
X160785000Y-91440000D02*
X157925000Y-91440000D01*
X160785000Y-93360000D02*
X160785000Y-91440000D01*
D12*
%TO.C,TCXO1*%
X148262500Y-86300000D02*
X148262500Y-87500000D01*
X149412500Y-85650000D02*
X149112500Y-85650000D01*
X149412500Y-88150000D02*
X149112500Y-88150000D01*
X150262500Y-87500000D02*
X150262500Y-86300000D01*
X148662500Y-86500000D02*
G75*
G02*
X148462500Y-86500000I-100000J0D01*
G01*
X148462500Y-86500000D02*
G75*
G02*
X148662500Y-86500000I100000J0D01*
G01*
D11*
%TO.C,R10*%
X160945000Y-92334879D02*
X160945000Y-92670121D01*
X161705000Y-92334879D02*
X161705000Y-92670121D01*
%TO.C,CR2*%
X141823752Y-91365000D02*
X141301248Y-91365000D01*
X141823752Y-92835000D02*
X141301248Y-92835000D01*
%TO.C,GP2*%
X157925000Y-91160000D02*
X160785000Y-91160000D01*
X160785000Y-89240000D02*
X157925000Y-89240000D01*
X160785000Y-91160000D02*
X160785000Y-89240000D01*
%TO.C,RFS1*%
D12*
X137490000Y-82025000D02*
X139490000Y-82025000D01*
X139490000Y-80775000D01*
X137490000Y-80775000D01*
X137490000Y-82025000D01*
X137890000Y-81700000D02*
G75*
G02*
X137640000Y-81700000I-125000J0D01*
G01*
X137640000Y-81700000D02*
G75*
G02*
X137890000Y-81700000I125000J0D01*
G01*
D11*
%TO.C,CM1*%
X135823752Y-74815000D02*
X135301248Y-74815000D01*
X135823752Y-76285000D02*
X135301248Y-76285000D01*
%TO.C,CD1*%
X149511252Y-83565000D02*
X148988748Y-83565000D01*
X149511252Y-85035000D02*
X148988748Y-85035000D01*
%TO.C,C9*%
X139765000Y-80023752D02*
X139765000Y-79501248D01*
X141235000Y-80023752D02*
X141235000Y-79501248D01*
%TO.C,R5*%
X160945000Y-87932379D02*
X160945000Y-88267621D01*
X161705000Y-87932379D02*
X161705000Y-88267621D01*
%TO.C,CM7*%
X137865000Y-85998752D02*
X137865000Y-85476248D01*
X139335000Y-85998752D02*
X139335000Y-85476248D01*
%TO.C,L0*%
X140086252Y-93390000D02*
X139563748Y-93390000D01*
X140086252Y-94810000D02*
X139563748Y-94810000D01*
D12*
%TO.C,PA1*%
X126850000Y-85340000D02*
X126850000Y-85840000D01*
X126850000Y-85340000D02*
X127350000Y-85340000D01*
X126850000Y-89340000D02*
X126850000Y-88840000D01*
X126850000Y-89340000D02*
X127350000Y-89340000D01*
X130850000Y-85340000D02*
X130350000Y-85340000D01*
X130850000Y-85340000D02*
X130850000Y-85840000D01*
X130850000Y-89340000D02*
X130350000Y-89340000D01*
X130850000Y-89340000D02*
X130850000Y-88840000D01*
D13*
X127100000Y-89240000D02*
G75*
G02*
X126800000Y-89240000I-150000J0D01*
G01*
X126800000Y-89240000D02*
G75*
G02*
X127100000Y-89240000I150000J0D01*
G01*
D11*
%TO.C,C2*%
X130138748Y-89965000D02*
X130661252Y-89965000D01*
X130138748Y-91435000D02*
X130661252Y-91435000D01*
%TO.C,CM2*%
X142441248Y-74815000D02*
X142963752Y-74815000D01*
X142441248Y-76285000D02*
X142963752Y-76285000D01*
%TO.C,CB4*%
X137755000Y-78261252D02*
X137755000Y-77738748D01*
X139225000Y-78261252D02*
X139225000Y-77738748D01*
%TO.C,CD3*%
X148451248Y-98290000D02*
X148973752Y-98290000D01*
X148451248Y-99760000D02*
X148973752Y-99760000D01*
%TO.C,C5*%
X128273752Y-77602500D02*
X127751248Y-77602500D01*
X128273752Y-79072500D02*
X127751248Y-79072500D01*
%TO.C,CD2*%
X148451248Y-96290000D02*
X148973752Y-96290000D01*
X148451248Y-97760000D02*
X148973752Y-97760000D01*
%TO.C,5V0*%
X157900000Y-86757500D02*
X160760000Y-86757500D01*
X160760000Y-84837500D02*
X157900000Y-84837500D01*
X160760000Y-86757500D02*
X160760000Y-84837500D01*
%TO.C,CR1*%
X141865000Y-86938748D02*
X141865000Y-87461252D01*
X143335000Y-86938748D02*
X143335000Y-87461252D01*
D14*
%TO.C,U3*%
X154872999Y-78773000D02*
X154872999Y-81627000D01*
X154872999Y-81627000D02*
X156027460Y-81627000D01*
X155225960Y-78773000D02*
X154872999Y-78773000D01*
X156687860Y-78773000D02*
X156374040Y-78773000D01*
X158225960Y-78773000D02*
X157912140Y-78773000D01*
X158572540Y-81627000D02*
X159727001Y-81627000D01*
X159727001Y-78773000D02*
X159374040Y-78773000D01*
X159727001Y-81627000D02*
X159727001Y-78773000D01*
X159427000Y-79200000D02*
G75*
G02*
X159173000Y-79200000I-127000J0D01*
G01*
X159173000Y-79200000D02*
G75*
G02*
X159427000Y-79200000I127000J0D01*
G01*
D11*
%TO.C,J3*%
X125940000Y-101390000D02*
X127360000Y-101390000D01*
X125940000Y-113110000D02*
X125940000Y-101390000D01*
X127360000Y-101390000D02*
X127360000Y-105890000D01*
X127360000Y-105890000D02*
X134750000Y-105890000D01*
X128200000Y-101700000D02*
X128800000Y-101700000D01*
X128250000Y-107000000D02*
X128250000Y-112500000D01*
X128250000Y-112500000D02*
X128750000Y-112500000D01*
X128500000Y-102300000D02*
X128200000Y-101700000D01*
X128750000Y-107000000D02*
X128250000Y-107000000D01*
X128750000Y-112500000D02*
X128750000Y-107000000D01*
X128800000Y-101700000D02*
X128500000Y-102300000D01*
X130750000Y-107000000D02*
X130750000Y-112500000D01*
X130750000Y-112500000D02*
X131250000Y-112500000D01*
X131250000Y-107000000D02*
X130750000Y-107000000D01*
X131250000Y-112500000D02*
X131250000Y-107000000D01*
X133250000Y-107000000D02*
X133250000Y-112500000D01*
X133250000Y-112500000D02*
X133750000Y-112500000D01*
X133750000Y-107000000D02*
X133250000Y-107000000D01*
X133750000Y-112500000D02*
X133750000Y-107000000D01*
X134750000Y-113110000D02*
X125940000Y-113110000D01*
X134750000Y-113110000D02*
X143560000Y-113110000D01*
X135750000Y-107000000D02*
X135750000Y-112500000D01*
X135750000Y-112500000D02*
X136250000Y-112500000D01*
X136250000Y-107000000D02*
X135750000Y-107000000D01*
X136250000Y-112500000D02*
X136250000Y-107000000D01*
X138250000Y-107000000D02*
X138250000Y-112500000D01*
X138250000Y-112500000D02*
X138750000Y-112500000D01*
X138750000Y-107000000D02*
X138250000Y-107000000D01*
X138750000Y-112500000D02*
X138750000Y-107000000D01*
X140750000Y-107000000D02*
X140750000Y-112500000D01*
X140750000Y-112500000D02*
X141250000Y-112500000D01*
X141250000Y-107000000D02*
X140750000Y-107000000D01*
X141250000Y-112500000D02*
X141250000Y-107000000D01*
X142140000Y-101390000D02*
X142140000Y-105890000D01*
X142140000Y-105890000D02*
X134750000Y-105890000D01*
X143560000Y-101390000D02*
X142140000Y-101390000D01*
X143560000Y-113110000D02*
X143560000Y-101390000D01*
%TO.C,C6*%
X132015000Y-87111252D02*
X132015000Y-86588748D01*
X133485000Y-87111252D02*
X133485000Y-86588748D01*
%TO.C,LM6*%
X132240000Y-83346267D02*
X132240000Y-83003733D01*
X133260000Y-83346267D02*
X133260000Y-83003733D01*
%TO.C,J1*%
X144340000Y-101390000D02*
X145760000Y-101390000D01*
X144340000Y-113110000D02*
X144340000Y-101390000D01*
X145760000Y-101390000D02*
X145760000Y-105890000D01*
X145760000Y-105890000D02*
X153150000Y-105890000D01*
X146600000Y-101700000D02*
X147200000Y-101700000D01*
X146650000Y-107000000D02*
X146650000Y-112500000D01*
X146650000Y-112500000D02*
X147150000Y-112500000D01*
X146900000Y-102300000D02*
X146600000Y-101700000D01*
X147150000Y-107000000D02*
X146650000Y-107000000D01*
X147150000Y-112500000D02*
X147150000Y-107000000D01*
X147200000Y-101700000D02*
X146900000Y-102300000D01*
X149150000Y-107000000D02*
X149150000Y-112500000D01*
X149150000Y-112500000D02*
X149650000Y-112500000D01*
X149650000Y-107000000D02*
X149150000Y-107000000D01*
X149650000Y-112500000D02*
X149650000Y-107000000D01*
X151650000Y-107000000D02*
X151650000Y-112500000D01*
X151650000Y-112500000D02*
X152150000Y-112500000D01*
X152150000Y-107000000D02*
X151650000Y-107000000D01*
X152150000Y-112500000D02*
X152150000Y-107000000D01*
X153150000Y-113110000D02*
X144340000Y-113110000D01*
X153150000Y-113110000D02*
X161960000Y-113110000D01*
X154150000Y-107000000D02*
X154150000Y-112500000D01*
X154150000Y-112500000D02*
X154650000Y-112500000D01*
X154650000Y-107000000D02*
X154150000Y-107000000D01*
X154650000Y-112500000D02*
X154650000Y-107000000D01*
X156650000Y-107000000D02*
X156650000Y-112500000D01*
X156650000Y-112500000D02*
X157150000Y-112500000D01*
X157150000Y-107000000D02*
X156650000Y-107000000D01*
X157150000Y-112500000D02*
X157150000Y-107000000D01*
X159150000Y-107000000D02*
X159150000Y-112500000D01*
X159150000Y-112500000D02*
X159650000Y-112500000D01*
X159650000Y-107000000D02*
X159150000Y-107000000D01*
X159650000Y-112500000D02*
X159650000Y-107000000D01*
X160540000Y-101390000D02*
X160540000Y-105890000D01*
X160540000Y-105890000D02*
X153150000Y-105890000D01*
X161960000Y-101390000D02*
X160540000Y-101390000D01*
X161960000Y-113110000D02*
X161960000Y-101390000D01*
%TO.C,CB1*%
X135711252Y-81915000D02*
X135188748Y-81915000D01*
X135711252Y-83385000D02*
X135188748Y-83385000D01*
%TO.C,U1*%
X145990000Y-91715000D02*
X145990000Y-91230000D01*
X145990000Y-95210000D02*
X145990000Y-94485000D01*
X146715000Y-90990000D02*
X146290000Y-90990000D01*
X146715000Y-95210000D02*
X145990000Y-95210000D01*
X149485000Y-90990000D02*
X150210000Y-90990000D01*
X149485000Y-95210000D02*
X150210000Y-95210000D01*
X150210000Y-90990000D02*
X150210000Y-91715000D01*
X150210000Y-95210000D02*
X150210000Y-94485000D01*
X145990000Y-90990000D02*
X145750000Y-90660000D01*
X146230000Y-90660000D01*
X145990000Y-90990000D01*
G36*
X145990000Y-90990000D02*
G01*
X145750000Y-90660000D01*
X146230000Y-90660000D01*
X145990000Y-90990000D01*
G37*
%TO.C,L1*%
X130113748Y-91990000D02*
X130636252Y-91990000D01*
X130113748Y-93410000D02*
X130636252Y-93410000D01*
%TO.C,C7*%
X160165000Y-80923752D02*
X160165000Y-80401248D01*
X161635000Y-80923752D02*
X161635000Y-80401248D01*
%TO.C,C0*%
X143861252Y-93365000D02*
X143338748Y-93365000D01*
X143861252Y-94835000D02*
X143338748Y-94835000D01*
%TO.C,CB2*%
X139865000Y-84223752D02*
X139865000Y-83701248D01*
X141335000Y-84223752D02*
X141335000Y-83701248D01*
%TO.C,L2*%
X128290000Y-80901248D02*
X128290000Y-81423752D01*
X129710000Y-80901248D02*
X129710000Y-81423752D01*
%TO.C,LM5*%
X139890000Y-87671267D02*
X139890000Y-87328733D01*
X140910000Y-87671267D02*
X140910000Y-87328733D01*
%TO.C,R4*%
X160920000Y-85729879D02*
X160920000Y-86065121D01*
X161680000Y-85729879D02*
X161680000Y-86065121D01*
%TO.C,LChoke1*%
X143790000Y-97236252D02*
X143790000Y-96713748D01*
X145210000Y-97236252D02*
X145210000Y-96713748D01*
%TO.C,LM1*%
X138993733Y-74790000D02*
X139336267Y-74790000D01*
X138993733Y-75810000D02*
X139336267Y-75810000D01*
%TO.C,CM8*%
X130215000Y-81411252D02*
X130215000Y-80888748D01*
X131685000Y-81411252D02*
X131685000Y-80888748D01*
%TO.C,CM9*%
X132265000Y-79861252D02*
X132265000Y-79338748D01*
X133735000Y-79861252D02*
X133735000Y-79338748D01*
%TD*%
%LPC*%
D15*
%TO.C,U3*%
G36*
X157579400Y-79417200D02*
G01*
X158214400Y-80052200D01*
X158214400Y-82160400D01*
X156385600Y-82160400D01*
X156385600Y-80052200D01*
X157020600Y-79417200D01*
X157020600Y-78900000D01*
X157579400Y-78900000D01*
X157579400Y-79417200D01*
G37*
%TD*%
D16*
%TO.C,L3*%
X129100000Y-83987500D03*
X131150000Y-83987500D03*
%TD*%
D17*
%TO.C,CM6*%
X138600000Y-88525000D03*
X138600000Y-90600000D03*
%TD*%
D18*
%TO.C,GP3*%
X159950000Y-88000000D03*
X157900000Y-88000000D03*
%TD*%
D19*
%TO.C,C1*%
X152262500Y-77600000D03*
X154337500Y-77600000D03*
%TD*%
D17*
%TO.C,CM4*%
X133200000Y-94362500D03*
X133200000Y-96437500D03*
%TD*%
D20*
%TO.C,LM2*%
X135100000Y-94375000D03*
X135100000Y-92625000D03*
%TD*%
D17*
%TO.C,C8*%
X136400000Y-78700000D03*
X136400000Y-80775000D03*
%TD*%
D21*
%TO.C,R6*%
X161325000Y-89700000D03*
X161325000Y-90895000D03*
%TD*%
D18*
%TO.C,3V3*%
X159925000Y-83600000D03*
X157875000Y-83600000D03*
%TD*%
D22*
%TO.C,LM4*%
X135100000Y-98350000D03*
X135100000Y-96050000D03*
%TD*%
D19*
%TO.C,CB3*%
X149062500Y-89525000D03*
X151137500Y-89525000D03*
%TD*%
D17*
%TO.C,CM3*%
X137000000Y-94000000D03*
X137000000Y-96075000D03*
%TD*%
D21*
%TO.C,R12*%
X161300000Y-83102500D03*
X161300000Y-84297500D03*
%TD*%
D23*
%TO.C,LR1*%
X144200000Y-90525000D03*
X144200000Y-92275000D03*
%TD*%
D18*
%TO.C,LR2*%
X142625000Y-90100000D03*
X140575000Y-90100000D03*
%TD*%
D24*
%TO.C,CM5*%
X133300000Y-92600000D03*
X133300000Y-90525000D03*
%TD*%
D18*
%TO.C,IRQ1*%
X159950000Y-92400000D03*
X157900000Y-92400000D03*
%TD*%
D25*
%TO.C,TCXO1*%
X148562500Y-85850000D03*
X148562500Y-87950000D03*
X149962500Y-87950000D03*
X149962500Y-85850000D03*
%TD*%
D26*
%TO.C,H4*%
X128500000Y-97500000D03*
%TD*%
D21*
%TO.C,R10*%
X161325000Y-91905000D03*
X161325000Y-93100000D03*
%TD*%
D27*
%TO.C,CR2*%
X142600000Y-92100000D03*
X140525000Y-92100000D03*
%TD*%
D18*
%TO.C,GP2*%
X159950000Y-90200000D03*
X157900000Y-90200000D03*
%TD*%
D28*
%TO.C,RFS1*%
X137840000Y-82400000D03*
X138490000Y-82400000D03*
X139140000Y-82400000D03*
X139140000Y-80400000D03*
X138490000Y-80400000D03*
X137840000Y-80400000D03*
%TD*%
D27*
%TO.C,CM1*%
X136600000Y-75550000D03*
X134525000Y-75550000D03*
%TD*%
D26*
%TO.C,H1*%
X128500000Y-73500000D03*
%TD*%
D27*
%TO.C,CD1*%
X150287500Y-84300000D03*
X148212500Y-84300000D03*
%TD*%
D24*
%TO.C,C9*%
X140500000Y-80800000D03*
X140500000Y-78725000D03*
%TD*%
D21*
%TO.C,R5*%
X161325000Y-87502500D03*
X161325000Y-88697500D03*
%TD*%
D24*
%TO.C,CM7*%
X138600000Y-86775000D03*
X138600000Y-84700000D03*
%TD*%
D29*
%TO.C,J2*%
X140600000Y-72400000D03*
D30*
X143140000Y-72400000D03*
X138060000Y-72400000D03*
%TD*%
D18*
%TO.C,L0*%
X140850000Y-94100000D03*
X138800000Y-94100000D03*
%TD*%
D31*
%TO.C,PA1*%
X127600000Y-89230000D03*
X128100000Y-89230000D03*
X128600000Y-89230000D03*
X129100000Y-89230000D03*
X129600000Y-89230000D03*
X130100000Y-89230000D03*
D32*
X130740000Y-88590000D03*
X130740000Y-88090000D03*
X130740000Y-87590000D03*
X130740000Y-87090000D03*
X130740000Y-86590000D03*
X130740000Y-86090000D03*
D31*
X130100000Y-85450000D03*
X129600000Y-85450000D03*
X129100000Y-85450000D03*
X128600000Y-85450000D03*
X128100000Y-85450000D03*
X127600000Y-85450000D03*
D32*
X126960000Y-86090000D03*
X126960000Y-86590000D03*
X126960000Y-87090000D03*
X126960000Y-87590000D03*
X126960000Y-88090000D03*
X126960000Y-88590000D03*
D33*
X127890000Y-88300000D03*
X128530000Y-88300000D03*
X129170000Y-88300000D03*
X129810000Y-88300000D03*
X127890000Y-87660000D03*
X128530000Y-87660000D03*
X129170000Y-87660000D03*
X129810000Y-87660000D03*
D34*
X128850000Y-87340000D03*
D33*
X127890000Y-87020000D03*
X128530000Y-87020000D03*
X129170000Y-87020000D03*
X129810000Y-87020000D03*
X127890000Y-86380000D03*
X128530000Y-86380000D03*
X129170000Y-86380000D03*
X129810000Y-86380000D03*
%TD*%
D19*
%TO.C,C2*%
X129362500Y-90700000D03*
X131437500Y-90700000D03*
%TD*%
%TO.C,CM2*%
X141665000Y-75550000D03*
X143740000Y-75550000D03*
%TD*%
D24*
%TO.C,CB4*%
X138490000Y-79037500D03*
X138490000Y-76962500D03*
%TD*%
D19*
%TO.C,CD3*%
X147675000Y-99025000D03*
X149750000Y-99025000D03*
%TD*%
D27*
%TO.C,C5*%
X129050000Y-78337500D03*
X126975000Y-78337500D03*
%TD*%
D19*
%TO.C,CD2*%
X147675000Y-97025000D03*
X149750000Y-97025000D03*
%TD*%
D18*
%TO.C,5V0*%
X159925000Y-85797500D03*
X157875000Y-85797500D03*
%TD*%
D17*
%TO.C,CR1*%
X142600000Y-86162500D03*
X142600000Y-88237500D03*
%TD*%
D35*
%TO.C,U3*%
X158800000Y-78188800D03*
D36*
X157400000Y-81200000D03*
D37*
X157300000Y-78188800D03*
D35*
X155800000Y-78188800D03*
%TD*%
D38*
%TO.C,J3*%
X128500000Y-103800000D03*
D39*
X131000000Y-103800000D03*
X133500000Y-103800000D03*
X136000000Y-103800000D03*
X138500000Y-103800000D03*
X141000000Y-103800000D03*
%TD*%
D24*
%TO.C,C6*%
X132750000Y-87887500D03*
X132750000Y-85812500D03*
%TD*%
D20*
%TO.C,LM6*%
X132750000Y-84050000D03*
X132750000Y-82300000D03*
%TD*%
D38*
%TO.C,J1*%
X146900000Y-103800000D03*
D39*
X149400000Y-103800000D03*
X151900000Y-103800000D03*
X154400000Y-103800000D03*
X156900000Y-103800000D03*
X159400000Y-103800000D03*
%TD*%
D27*
%TO.C,CB1*%
X136487500Y-82650000D03*
X134412500Y-82650000D03*
%TD*%
D40*
%TO.C,U1*%
X146175000Y-92100000D03*
X146175000Y-92600000D03*
X146175000Y-93100000D03*
X146175000Y-93600000D03*
X146175000Y-94100000D03*
D41*
X147100000Y-95025000D03*
X147600000Y-95025000D03*
X148100000Y-95025000D03*
X148600000Y-95025000D03*
X149100000Y-95025000D03*
D40*
X150025000Y-94100000D03*
X150025000Y-93600000D03*
X150025000Y-93100000D03*
X150025000Y-92600000D03*
X150025000Y-92100000D03*
D41*
X149100000Y-91175000D03*
X148600000Y-91175000D03*
X148100000Y-91175000D03*
X147600000Y-91175000D03*
X147100000Y-91175000D03*
D42*
X148100000Y-93100000D03*
%TD*%
D26*
%TO.C,H2*%
X159500000Y-73500000D03*
%TD*%
%TO.C,H3*%
X159500000Y-97500000D03*
%TD*%
D16*
%TO.C,L1*%
X129350000Y-92700000D03*
X131400000Y-92700000D03*
%TD*%
D24*
%TO.C,C7*%
X160900000Y-81700000D03*
X160900000Y-79625000D03*
%TD*%
D27*
%TO.C,C0*%
X144637500Y-94100000D03*
X142562500Y-94100000D03*
%TD*%
D24*
%TO.C,CB2*%
X140600000Y-85000000D03*
X140600000Y-82925000D03*
%TD*%
D43*
%TO.C,L2*%
X129000000Y-80137500D03*
X129000000Y-82187500D03*
%TD*%
D20*
%TO.C,LM5*%
X140400000Y-88375000D03*
X140400000Y-86625000D03*
%TD*%
D21*
%TO.C,R4*%
X161300000Y-85300000D03*
X161300000Y-86495000D03*
%TD*%
D44*
%TO.C,LChoke1*%
X144500000Y-98000000D03*
X144500000Y-95950000D03*
%TD*%
D45*
%TO.C,LM1*%
X138290000Y-75300000D03*
X140040000Y-75300000D03*
%TD*%
D24*
%TO.C,CM8*%
X130950000Y-82187500D03*
X130950000Y-80112500D03*
%TD*%
%TO.C,CM9*%
X133000000Y-80637500D03*
X133000000Y-78562500D03*
%TD*%
D46*
%TO.C,J7*%
X152500000Y-79900000D03*
D47*
X152500000Y-82400000D03*
X152500000Y-84900000D03*
X152500000Y-87400000D03*
%TD*%
D48*
%TO.C,J5*%
X153900000Y-72400000D03*
D49*
X151360000Y-72400000D03*
X153900000Y-74940000D03*
X151360000Y-74940000D03*
%TD*%
%LPD*%
M02*
