M48
; DRILL file {KiCad 8.0.8} date 2025-04-18T09:33:21-0400
; FORMAT={-:-/ absolute / metric / decimal}
; #@! TF.CreationDate,2025-04-18T09:33:21-04:00
; #@! TF.GenerationSoftware,Kicad,Pcbnew,8.0.8
; #@! TF.FileFunction,Plated,1,4,PTH
FMAT,2
METRIC
; #@! TA.AperFunction,Plated,PTH,ViaDrill
T1C0.300
; #@! TA.AperFunction,Plated,PTH,ComponentDrill
T2C0.300
; #@! TA.AperFunction,Plated,PTH,ComponentDrill
T3C0.950
; #@! TA.AperFunction,Plated,PTH,ComponentDrill
T4C1.000
%
G90
G05
T1
X125.5Y-75.8
X125.5Y-80.8
X125.5Y-85.8
X125.5Y-90.8
X125.5Y-95.8
X125.5Y-100.8
X125.5Y-105.8
X125.5Y-110.8
X125.9Y-71.5
X126.837Y-80.138
X126.958Y-83.9
X126.958Y-90.7
X127.0Y-77.2
X127.5Y-113.5
X127.8Y-92.8
X128.025Y-101.575
X128.6Y-93.7
X129.9Y-70.9
X130.2Y-83.2
X130.9Y-79.1
X132.5Y-113.5
X133.0Y-77.6
X133.2Y-97.5
X133.35Y-111.3
X133.4Y-89.4
X134.0Y-98.4
X134.011Y-87.889
X134.2Y-83.825
X134.2Y-89.7
X134.5Y-76.7
X134.7Y-99.5
X134.9Y-70.9
X135.2Y-80.7
X135.2Y-87.9
X135.3Y-78.7
X136.1Y-91.7
X136.6Y-76.725
X136.6Y-99.5
X136.9Y-72.4
X137.4Y-84.7
X137.5Y-113.5
X137.8Y-89.6
X138.0Y-98.4
X138.5Y-83.2
X139.2Y-92.0
X139.4Y-70.9
X139.663Y-89.269
X140.95Y-107.35
X141.2Y-113.1
X141.495Y-110.105
X141.533Y-86.792
X141.7Y-78.974
X141.7Y-80.8
X141.9Y-83.544
X142.1Y-78.489
X142.5Y-113.5
X144.45Y-72.4
X144.59Y-74.474
X144.9Y-70.9
X145.9Y-91.1
X146.073Y-80.026
X146.326Y-90.37
X146.4Y-75.4
X146.4Y-89.5
X146.823Y-80.048
X147.0Y-81.4
X147.0Y-107.2
X147.5Y-113.5
X147.9Y-77.2
X148.5Y-75.0
X149.077Y-77.2
X149.9Y-70.9
X150.1Y-95.0
X150.1Y-95.8
X150.7Y-98.2
X151.0Y-97.1
X151.192Y-77.673
X151.38Y-91.526
X151.5Y-94.126
X151.8Y-86.1
X152.026Y-92.074
X152.5Y-113.5
X152.678Y-92.444
X152.974Y-89.926
X153.2Y-110.5
X153.298Y-92.867
X153.6Y-90.5
X153.875Y-93.345
X154.9Y-70.9
X157.5Y-113.5
X159.6Y-78.2
X159.9Y-70.9
X160.596Y-86.9
X160.6Y-89.1
X160.644Y-84.747
X160.653Y-91.239
X160.713Y-93.489
X160.9Y-78.5
X162.1Y-113.0
X162.5Y-72.9
X162.5Y-77.9
X162.5Y-82.9
X162.5Y-87.9
X162.5Y-92.9
X162.5Y-97.9
X162.5Y-102.9
X162.5Y-107.9
T2
X127.89Y-86.38
X127.89Y-87.02
X127.89Y-87.66
X127.89Y-88.3
X128.53Y-86.38
X128.53Y-87.02
X128.53Y-87.66
X128.53Y-88.3
X129.17Y-86.38
X129.17Y-87.02
X129.17Y-87.66
X129.17Y-88.3
X129.81Y-86.38
X129.81Y-87.02
X129.81Y-87.66
X129.81Y-88.3
X147.05Y-92.05
X147.05Y-92.75
X147.05Y-93.45
X147.05Y-94.15
X147.75Y-92.05
X147.75Y-92.75
X147.75Y-93.45
X147.75Y-94.15
X148.45Y-92.05
X148.45Y-92.75
X148.45Y-93.45
X148.45Y-94.15
X149.15Y-92.05
X149.15Y-92.75
X149.15Y-93.45
X149.15Y-94.15
T3
X128.5Y-103.8
X131.0Y-103.8
X133.5Y-103.8
X136.0Y-103.8
X138.5Y-103.8
X141.0Y-103.8
X146.9Y-103.8
X149.4Y-103.8
X151.9Y-103.8
X152.5Y-79.9
X152.5Y-82.4
X152.5Y-84.9
X152.5Y-87.4
X154.4Y-103.8
X156.9Y-103.8
X159.4Y-103.8
T4
X151.36Y-72.4
X151.36Y-74.94
X153.9Y-72.4
X153.9Y-74.94
M30
