%TF.GenerationSoftware,KiCad,Pcbnew,7.0.7*%
%TF.CreationDate,2023-11-29T00:45:09-05:00*%
%TF.ProjectId,master-board,6d617374-6572-42d6-926f-6172642e6b69,rev?*%
%TF.SameCoordinates,Original*%
%TF.FileFunction,Legend,Top*%
%TF.FilePolarity,Positive*%
%FSLAX46Y46*%
G04 Gerber Fmt 4.6, Leading zero omitted, Abs format (unit mm)*
G04 Created by KiCad (PCBNEW 7.0.7) date 2023-11-29 00:45:09*
%MOMM*%
%LPD*%
G01*
G04 APERTURE LIST*
%ADD10C,0.050000*%
%ADD11C,0.150000*%
%ADD12C,0.100000*%
%ADD13C,0.300000*%
%ADD14C,0.120000*%
G04 APERTURE END LIST*
D10*
X160100000Y-122780000D02*
X171100000Y-122780000D01*
X171100000Y-122780000D02*
G75*
G03*
X171600000Y-122280000I0J500000D01*
G01*
D11*
X89950000Y-95950000D02*
X123950000Y-95950000D01*
X123950000Y-121450000D01*
X89950000Y-121450000D01*
X89950000Y-95950000D01*
D10*
X159600000Y-122280000D02*
G75*
G03*
X160100000Y-122780000I500000J0D01*
G01*
D12*
X148550000Y-63150000D02*
X185550000Y-63150000D01*
X185550000Y-108650000D01*
X148550000Y-108650000D01*
X148550000Y-63150000D01*
D10*
X171600000Y-111280000D02*
G75*
G03*
X171100000Y-110780000I-500000J0D01*
G01*
X159600000Y-111280000D02*
X159600000Y-122280000D01*
D12*
X90610000Y-63140000D02*
X123630000Y-63140000D01*
X123630000Y-93620000D01*
X90610000Y-93620000D01*
X90610000Y-63140000D01*
D10*
X171100000Y-110780000D02*
X160100000Y-110780000D01*
X171600000Y-122280000D02*
X171600000Y-111280000D01*
X160100000Y-110780000D02*
G75*
G03*
X159600000Y-111280000I0J-500000D01*
G01*
D11*
X119089160Y-108422200D02*
X119232017Y-108469819D01*
X119232017Y-108469819D02*
X119470112Y-108469819D01*
X119470112Y-108469819D02*
X119565350Y-108422200D01*
X119565350Y-108422200D02*
X119612969Y-108374580D01*
X119612969Y-108374580D02*
X119660588Y-108279342D01*
X119660588Y-108279342D02*
X119660588Y-108184104D01*
X119660588Y-108184104D02*
X119612969Y-108088866D01*
X119612969Y-108088866D02*
X119565350Y-108041247D01*
X119565350Y-108041247D02*
X119470112Y-107993628D01*
X119470112Y-107993628D02*
X119279636Y-107946009D01*
X119279636Y-107946009D02*
X119184398Y-107898390D01*
X119184398Y-107898390D02*
X119136779Y-107850771D01*
X119136779Y-107850771D02*
X119089160Y-107755533D01*
X119089160Y-107755533D02*
X119089160Y-107660295D01*
X119089160Y-107660295D02*
X119136779Y-107565057D01*
X119136779Y-107565057D02*
X119184398Y-107517438D01*
X119184398Y-107517438D02*
X119279636Y-107469819D01*
X119279636Y-107469819D02*
X119517731Y-107469819D01*
X119517731Y-107469819D02*
X119660588Y-107517438D01*
X120660588Y-108374580D02*
X120612969Y-108422200D01*
X120612969Y-108422200D02*
X120470112Y-108469819D01*
X120470112Y-108469819D02*
X120374874Y-108469819D01*
X120374874Y-108469819D02*
X120232017Y-108422200D01*
X120232017Y-108422200D02*
X120136779Y-108326961D01*
X120136779Y-108326961D02*
X120089160Y-108231723D01*
X120089160Y-108231723D02*
X120041541Y-108041247D01*
X120041541Y-108041247D02*
X120041541Y-107898390D01*
X120041541Y-107898390D02*
X120089160Y-107707914D01*
X120089160Y-107707914D02*
X120136779Y-107612676D01*
X120136779Y-107612676D02*
X120232017Y-107517438D01*
X120232017Y-107517438D02*
X120374874Y-107469819D01*
X120374874Y-107469819D02*
X120470112Y-107469819D01*
X120470112Y-107469819D02*
X120612969Y-107517438D01*
X120612969Y-107517438D02*
X120660588Y-107565057D01*
X121565350Y-108469819D02*
X121089160Y-108469819D01*
X121089160Y-108469819D02*
X121089160Y-107469819D01*
X92020112Y-92086009D02*
X92162969Y-92133628D01*
X92162969Y-92133628D02*
X92210588Y-92181247D01*
X92210588Y-92181247D02*
X92258207Y-92276485D01*
X92258207Y-92276485D02*
X92258207Y-92419342D01*
X92258207Y-92419342D02*
X92210588Y-92514580D01*
X92210588Y-92514580D02*
X92162969Y-92562200D01*
X92162969Y-92562200D02*
X92067731Y-92609819D01*
X92067731Y-92609819D02*
X91686779Y-92609819D01*
X91686779Y-92609819D02*
X91686779Y-91609819D01*
X91686779Y-91609819D02*
X92020112Y-91609819D01*
X92020112Y-91609819D02*
X92115350Y-91657438D01*
X92115350Y-91657438D02*
X92162969Y-91705057D01*
X92162969Y-91705057D02*
X92210588Y-91800295D01*
X92210588Y-91800295D02*
X92210588Y-91895533D01*
X92210588Y-91895533D02*
X92162969Y-91990771D01*
X92162969Y-91990771D02*
X92115350Y-92038390D01*
X92115350Y-92038390D02*
X92020112Y-92086009D01*
X92020112Y-92086009D02*
X91686779Y-92086009D01*
X92686779Y-92609819D02*
X92686779Y-91609819D01*
X92686779Y-91609819D02*
X93258207Y-92609819D01*
X93258207Y-92609819D02*
X93258207Y-91609819D01*
X93924874Y-91609819D02*
X94115350Y-91609819D01*
X94115350Y-91609819D02*
X94210588Y-91657438D01*
X94210588Y-91657438D02*
X94305826Y-91752676D01*
X94305826Y-91752676D02*
X94353445Y-91943152D01*
X94353445Y-91943152D02*
X94353445Y-92276485D01*
X94353445Y-92276485D02*
X94305826Y-92466961D01*
X94305826Y-92466961D02*
X94210588Y-92562200D01*
X94210588Y-92562200D02*
X94115350Y-92609819D01*
X94115350Y-92609819D02*
X93924874Y-92609819D01*
X93924874Y-92609819D02*
X93829636Y-92562200D01*
X93829636Y-92562200D02*
X93734398Y-92466961D01*
X93734398Y-92466961D02*
X93686779Y-92276485D01*
X93686779Y-92276485D02*
X93686779Y-91943152D01*
X93686779Y-91943152D02*
X93734398Y-91752676D01*
X93734398Y-91752676D02*
X93829636Y-91657438D01*
X93829636Y-91657438D02*
X93924874Y-91609819D01*
X94972493Y-91609819D02*
X95067731Y-91609819D01*
X95067731Y-91609819D02*
X95162969Y-91657438D01*
X95162969Y-91657438D02*
X95210588Y-91705057D01*
X95210588Y-91705057D02*
X95258207Y-91800295D01*
X95258207Y-91800295D02*
X95305826Y-91990771D01*
X95305826Y-91990771D02*
X95305826Y-92228866D01*
X95305826Y-92228866D02*
X95258207Y-92419342D01*
X95258207Y-92419342D02*
X95210588Y-92514580D01*
X95210588Y-92514580D02*
X95162969Y-92562200D01*
X95162969Y-92562200D02*
X95067731Y-92609819D01*
X95067731Y-92609819D02*
X94972493Y-92609819D01*
X94972493Y-92609819D02*
X94877255Y-92562200D01*
X94877255Y-92562200D02*
X94829636Y-92514580D01*
X94829636Y-92514580D02*
X94782017Y-92419342D01*
X94782017Y-92419342D02*
X94734398Y-92228866D01*
X94734398Y-92228866D02*
X94734398Y-91990771D01*
X94734398Y-91990771D02*
X94782017Y-91800295D01*
X94782017Y-91800295D02*
X94829636Y-91705057D01*
X94829636Y-91705057D02*
X94877255Y-91657438D01*
X94877255Y-91657438D02*
X94972493Y-91609819D01*
X96210588Y-91609819D02*
X95734398Y-91609819D01*
X95734398Y-91609819D02*
X95686779Y-92086009D01*
X95686779Y-92086009D02*
X95734398Y-92038390D01*
X95734398Y-92038390D02*
X95829636Y-91990771D01*
X95829636Y-91990771D02*
X96067731Y-91990771D01*
X96067731Y-91990771D02*
X96162969Y-92038390D01*
X96162969Y-92038390D02*
X96210588Y-92086009D01*
X96210588Y-92086009D02*
X96258207Y-92181247D01*
X96258207Y-92181247D02*
X96258207Y-92419342D01*
X96258207Y-92419342D02*
X96210588Y-92514580D01*
X96210588Y-92514580D02*
X96162969Y-92562200D01*
X96162969Y-92562200D02*
X96067731Y-92609819D01*
X96067731Y-92609819D02*
X95829636Y-92609819D01*
X95829636Y-92609819D02*
X95734398Y-92562200D01*
X95734398Y-92562200D02*
X95686779Y-92514580D01*
X97162969Y-91609819D02*
X96686779Y-91609819D01*
X96686779Y-91609819D02*
X96639160Y-92086009D01*
X96639160Y-92086009D02*
X96686779Y-92038390D01*
X96686779Y-92038390D02*
X96782017Y-91990771D01*
X96782017Y-91990771D02*
X97020112Y-91990771D01*
X97020112Y-91990771D02*
X97115350Y-92038390D01*
X97115350Y-92038390D02*
X97162969Y-92086009D01*
X97162969Y-92086009D02*
X97210588Y-92181247D01*
X97210588Y-92181247D02*
X97210588Y-92419342D01*
X97210588Y-92419342D02*
X97162969Y-92514580D01*
X97162969Y-92514580D02*
X97115350Y-92562200D01*
X97115350Y-92562200D02*
X97020112Y-92609819D01*
X97020112Y-92609819D02*
X96782017Y-92609819D01*
X96782017Y-92609819D02*
X96686779Y-92562200D01*
X96686779Y-92562200D02*
X96639160Y-92514580D01*
X91336779Y-120219819D02*
X91336779Y-119219819D01*
X91336779Y-119219819D02*
X91574874Y-119219819D01*
X91574874Y-119219819D02*
X91717731Y-119267438D01*
X91717731Y-119267438D02*
X91812969Y-119362676D01*
X91812969Y-119362676D02*
X91860588Y-119457914D01*
X91860588Y-119457914D02*
X91908207Y-119648390D01*
X91908207Y-119648390D02*
X91908207Y-119791247D01*
X91908207Y-119791247D02*
X91860588Y-119981723D01*
X91860588Y-119981723D02*
X91812969Y-120076961D01*
X91812969Y-120076961D02*
X91717731Y-120172200D01*
X91717731Y-120172200D02*
X91574874Y-120219819D01*
X91574874Y-120219819D02*
X91336779Y-120219819D01*
X92289160Y-120172200D02*
X92432017Y-120219819D01*
X92432017Y-120219819D02*
X92670112Y-120219819D01*
X92670112Y-120219819D02*
X92765350Y-120172200D01*
X92765350Y-120172200D02*
X92812969Y-120124580D01*
X92812969Y-120124580D02*
X92860588Y-120029342D01*
X92860588Y-120029342D02*
X92860588Y-119934104D01*
X92860588Y-119934104D02*
X92812969Y-119838866D01*
X92812969Y-119838866D02*
X92765350Y-119791247D01*
X92765350Y-119791247D02*
X92670112Y-119743628D01*
X92670112Y-119743628D02*
X92479636Y-119696009D01*
X92479636Y-119696009D02*
X92384398Y-119648390D01*
X92384398Y-119648390D02*
X92336779Y-119600771D01*
X92336779Y-119600771D02*
X92289160Y-119505533D01*
X92289160Y-119505533D02*
X92289160Y-119410295D01*
X92289160Y-119410295D02*
X92336779Y-119315057D01*
X92336779Y-119315057D02*
X92384398Y-119267438D01*
X92384398Y-119267438D02*
X92479636Y-119219819D01*
X92479636Y-119219819D02*
X92717731Y-119219819D01*
X92717731Y-119219819D02*
X92860588Y-119267438D01*
X93193922Y-119219819D02*
X93812969Y-119219819D01*
X93812969Y-119219819D02*
X93479636Y-119600771D01*
X93479636Y-119600771D02*
X93622493Y-119600771D01*
X93622493Y-119600771D02*
X93717731Y-119648390D01*
X93717731Y-119648390D02*
X93765350Y-119696009D01*
X93765350Y-119696009D02*
X93812969Y-119791247D01*
X93812969Y-119791247D02*
X93812969Y-120029342D01*
X93812969Y-120029342D02*
X93765350Y-120124580D01*
X93765350Y-120124580D02*
X93717731Y-120172200D01*
X93717731Y-120172200D02*
X93622493Y-120219819D01*
X93622493Y-120219819D02*
X93336779Y-120219819D01*
X93336779Y-120219819D02*
X93241541Y-120172200D01*
X93241541Y-120172200D02*
X93193922Y-120124580D01*
X94193922Y-119315057D02*
X94241541Y-119267438D01*
X94241541Y-119267438D02*
X94336779Y-119219819D01*
X94336779Y-119219819D02*
X94574874Y-119219819D01*
X94574874Y-119219819D02*
X94670112Y-119267438D01*
X94670112Y-119267438D02*
X94717731Y-119315057D01*
X94717731Y-119315057D02*
X94765350Y-119410295D01*
X94765350Y-119410295D02*
X94765350Y-119505533D01*
X94765350Y-119505533D02*
X94717731Y-119648390D01*
X94717731Y-119648390D02*
X94146303Y-120219819D01*
X94146303Y-120219819D02*
X94765350Y-120219819D01*
X95098684Y-119219819D02*
X95717731Y-119219819D01*
X95717731Y-119219819D02*
X95384398Y-119600771D01*
X95384398Y-119600771D02*
X95527255Y-119600771D01*
X95527255Y-119600771D02*
X95622493Y-119648390D01*
X95622493Y-119648390D02*
X95670112Y-119696009D01*
X95670112Y-119696009D02*
X95717731Y-119791247D01*
X95717731Y-119791247D02*
X95717731Y-120029342D01*
X95717731Y-120029342D02*
X95670112Y-120124580D01*
X95670112Y-120124580D02*
X95622493Y-120172200D01*
X95622493Y-120172200D02*
X95527255Y-120219819D01*
X95527255Y-120219819D02*
X95241541Y-120219819D01*
X95241541Y-120219819D02*
X95146303Y-120172200D01*
X95146303Y-120172200D02*
X95098684Y-120124580D01*
X96670112Y-120219819D02*
X96098684Y-120219819D01*
X96384398Y-120219819D02*
X96384398Y-119219819D01*
X96384398Y-119219819D02*
X96289160Y-119362676D01*
X96289160Y-119362676D02*
X96193922Y-119457914D01*
X96193922Y-119457914D02*
X96098684Y-119505533D01*
X97098684Y-120219819D02*
X97098684Y-119219819D01*
X97098684Y-119219819D02*
X97432017Y-119934104D01*
X97432017Y-119934104D02*
X97765350Y-119219819D01*
X97765350Y-119219819D02*
X97765350Y-120219819D01*
X120441541Y-82869819D02*
X121060588Y-82869819D01*
X121060588Y-82869819D02*
X120727255Y-83250771D01*
X120727255Y-83250771D02*
X120870112Y-83250771D01*
X120870112Y-83250771D02*
X120965350Y-83298390D01*
X120965350Y-83298390D02*
X121012969Y-83346009D01*
X121012969Y-83346009D02*
X121060588Y-83441247D01*
X121060588Y-83441247D02*
X121060588Y-83679342D01*
X121060588Y-83679342D02*
X121012969Y-83774580D01*
X121012969Y-83774580D02*
X120965350Y-83822200D01*
X120965350Y-83822200D02*
X120870112Y-83869819D01*
X120870112Y-83869819D02*
X120584398Y-83869819D01*
X120584398Y-83869819D02*
X120489160Y-83822200D01*
X120489160Y-83822200D02*
X120441541Y-83774580D01*
X121489160Y-83774580D02*
X121536779Y-83822200D01*
X121536779Y-83822200D02*
X121489160Y-83869819D01*
X121489160Y-83869819D02*
X121441541Y-83822200D01*
X121441541Y-83822200D02*
X121489160Y-83774580D01*
X121489160Y-83774580D02*
X121489160Y-83869819D01*
X121870112Y-82869819D02*
X122489159Y-82869819D01*
X122489159Y-82869819D02*
X122155826Y-83250771D01*
X122155826Y-83250771D02*
X122298683Y-83250771D01*
X122298683Y-83250771D02*
X122393921Y-83298390D01*
X122393921Y-83298390D02*
X122441540Y-83346009D01*
X122441540Y-83346009D02*
X122489159Y-83441247D01*
X122489159Y-83441247D02*
X122489159Y-83679342D01*
X122489159Y-83679342D02*
X122441540Y-83774580D01*
X122441540Y-83774580D02*
X122393921Y-83822200D01*
X122393921Y-83822200D02*
X122298683Y-83869819D01*
X122298683Y-83869819D02*
X122012969Y-83869819D01*
X122012969Y-83869819D02*
X121917731Y-83822200D01*
X121917731Y-83822200D02*
X121870112Y-83774580D01*
X122774874Y-82869819D02*
X123108207Y-83869819D01*
X123108207Y-83869819D02*
X123441540Y-82869819D01*
D13*
X88340225Y-124900828D02*
X89197368Y-124900828D01*
X88768796Y-126400828D02*
X88768796Y-124900828D01*
X90268796Y-126329400D02*
X90125939Y-126400828D01*
X90125939Y-126400828D02*
X89840225Y-126400828D01*
X89840225Y-126400828D02*
X89697367Y-126329400D01*
X89697367Y-126329400D02*
X89625939Y-126186542D01*
X89625939Y-126186542D02*
X89625939Y-125615114D01*
X89625939Y-125615114D02*
X89697367Y-125472257D01*
X89697367Y-125472257D02*
X89840225Y-125400828D01*
X89840225Y-125400828D02*
X90125939Y-125400828D01*
X90125939Y-125400828D02*
X90268796Y-125472257D01*
X90268796Y-125472257D02*
X90340225Y-125615114D01*
X90340225Y-125615114D02*
X90340225Y-125757971D01*
X90340225Y-125757971D02*
X89625939Y-125900828D01*
X90983081Y-126400828D02*
X90983081Y-125400828D01*
X90983081Y-125686542D02*
X91054510Y-125543685D01*
X91054510Y-125543685D02*
X91125939Y-125472257D01*
X91125939Y-125472257D02*
X91268796Y-125400828D01*
X91268796Y-125400828D02*
X91411653Y-125400828D01*
X91911652Y-125400828D02*
X91911652Y-126900828D01*
X91911652Y-125472257D02*
X92054510Y-125400828D01*
X92054510Y-125400828D02*
X92340224Y-125400828D01*
X92340224Y-125400828D02*
X92483081Y-125472257D01*
X92483081Y-125472257D02*
X92554510Y-125543685D01*
X92554510Y-125543685D02*
X92625938Y-125686542D01*
X92625938Y-125686542D02*
X92625938Y-126115114D01*
X92625938Y-126115114D02*
X92554510Y-126257971D01*
X92554510Y-126257971D02*
X92483081Y-126329400D01*
X92483081Y-126329400D02*
X92340224Y-126400828D01*
X92340224Y-126400828D02*
X92054510Y-126400828D01*
X92054510Y-126400828D02*
X91911652Y-126329400D01*
X94125938Y-126400828D02*
X93625938Y-125686542D01*
X93268795Y-126400828D02*
X93268795Y-124900828D01*
X93268795Y-124900828D02*
X93840224Y-124900828D01*
X93840224Y-124900828D02*
X93983081Y-124972257D01*
X93983081Y-124972257D02*
X94054510Y-125043685D01*
X94054510Y-125043685D02*
X94125938Y-125186542D01*
X94125938Y-125186542D02*
X94125938Y-125400828D01*
X94125938Y-125400828D02*
X94054510Y-125543685D01*
X94054510Y-125543685D02*
X93983081Y-125615114D01*
X93983081Y-125615114D02*
X93840224Y-125686542D01*
X93840224Y-125686542D02*
X93268795Y-125686542D01*
X94983081Y-126400828D02*
X94840224Y-126329400D01*
X94840224Y-126329400D02*
X94768795Y-126257971D01*
X94768795Y-126257971D02*
X94697367Y-126115114D01*
X94697367Y-126115114D02*
X94697367Y-125686542D01*
X94697367Y-125686542D02*
X94768795Y-125543685D01*
X94768795Y-125543685D02*
X94840224Y-125472257D01*
X94840224Y-125472257D02*
X94983081Y-125400828D01*
X94983081Y-125400828D02*
X95197367Y-125400828D01*
X95197367Y-125400828D02*
X95340224Y-125472257D01*
X95340224Y-125472257D02*
X95411653Y-125543685D01*
X95411653Y-125543685D02*
X95483081Y-125686542D01*
X95483081Y-125686542D02*
X95483081Y-126115114D01*
X95483081Y-126115114D02*
X95411653Y-126257971D01*
X95411653Y-126257971D02*
X95340224Y-126329400D01*
X95340224Y-126329400D02*
X95197367Y-126400828D01*
X95197367Y-126400828D02*
X94983081Y-126400828D01*
X96768796Y-126329400D02*
X96625938Y-126400828D01*
X96625938Y-126400828D02*
X96340224Y-126400828D01*
X96340224Y-126400828D02*
X96197367Y-126329400D01*
X96197367Y-126329400D02*
X96125938Y-126257971D01*
X96125938Y-126257971D02*
X96054510Y-126115114D01*
X96054510Y-126115114D02*
X96054510Y-125686542D01*
X96054510Y-125686542D02*
X96125938Y-125543685D01*
X96125938Y-125543685D02*
X96197367Y-125472257D01*
X96197367Y-125472257D02*
X96340224Y-125400828D01*
X96340224Y-125400828D02*
X96625938Y-125400828D01*
X96625938Y-125400828D02*
X96768796Y-125472257D01*
X97411652Y-126400828D02*
X97411652Y-124900828D01*
X97554510Y-125829400D02*
X97983081Y-126400828D01*
X97983081Y-125400828D02*
X97411652Y-125972257D01*
X99197367Y-126329400D02*
X99054510Y-126400828D01*
X99054510Y-126400828D02*
X98768796Y-126400828D01*
X98768796Y-126400828D02*
X98625938Y-126329400D01*
X98625938Y-126329400D02*
X98554510Y-126186542D01*
X98554510Y-126186542D02*
X98554510Y-125615114D01*
X98554510Y-125615114D02*
X98625938Y-125472257D01*
X98625938Y-125472257D02*
X98768796Y-125400828D01*
X98768796Y-125400828D02*
X99054510Y-125400828D01*
X99054510Y-125400828D02*
X99197367Y-125472257D01*
X99197367Y-125472257D02*
X99268796Y-125615114D01*
X99268796Y-125615114D02*
X99268796Y-125757971D01*
X99268796Y-125757971D02*
X98554510Y-125900828D01*
X99697367Y-125400828D02*
X100268795Y-125400828D01*
X99911652Y-124900828D02*
X99911652Y-126186542D01*
X99911652Y-126186542D02*
X99983081Y-126329400D01*
X99983081Y-126329400D02*
X100125938Y-126400828D01*
X100125938Y-126400828D02*
X100268795Y-126400828D01*
X100697367Y-126329400D02*
X100840224Y-126400828D01*
X100840224Y-126400828D02*
X101125938Y-126400828D01*
X101125938Y-126400828D02*
X101268795Y-126329400D01*
X101268795Y-126329400D02*
X101340224Y-126186542D01*
X101340224Y-126186542D02*
X101340224Y-126115114D01*
X101340224Y-126115114D02*
X101268795Y-125972257D01*
X101268795Y-125972257D02*
X101125938Y-125900828D01*
X101125938Y-125900828D02*
X100911653Y-125900828D01*
X100911653Y-125900828D02*
X100768795Y-125829400D01*
X100768795Y-125829400D02*
X100697367Y-125686542D01*
X100697367Y-125686542D02*
X100697367Y-125615114D01*
X100697367Y-125615114D02*
X100768795Y-125472257D01*
X100768795Y-125472257D02*
X100911653Y-125400828D01*
X100911653Y-125400828D02*
X101125938Y-125400828D01*
X101125938Y-125400828D02*
X101268795Y-125472257D01*
X103054510Y-125972257D02*
X103768796Y-125972257D01*
X102911653Y-126400828D02*
X103411653Y-124900828D01*
X103411653Y-124900828D02*
X103911653Y-126400828D01*
X104268795Y-125400828D02*
X104625938Y-126400828D01*
X104625938Y-126400828D02*
X104983081Y-125400828D01*
X105554509Y-126400828D02*
X105554509Y-125400828D01*
X105554509Y-124900828D02*
X105483081Y-124972257D01*
X105483081Y-124972257D02*
X105554509Y-125043685D01*
X105554509Y-125043685D02*
X105625938Y-124972257D01*
X105625938Y-124972257D02*
X105554509Y-124900828D01*
X105554509Y-124900828D02*
X105554509Y-125043685D01*
X106483081Y-126400828D02*
X106340224Y-126329400D01*
X106340224Y-126329400D02*
X106268795Y-126257971D01*
X106268795Y-126257971D02*
X106197367Y-126115114D01*
X106197367Y-126115114D02*
X106197367Y-125686542D01*
X106197367Y-125686542D02*
X106268795Y-125543685D01*
X106268795Y-125543685D02*
X106340224Y-125472257D01*
X106340224Y-125472257D02*
X106483081Y-125400828D01*
X106483081Y-125400828D02*
X106697367Y-125400828D01*
X106697367Y-125400828D02*
X106840224Y-125472257D01*
X106840224Y-125472257D02*
X106911653Y-125543685D01*
X106911653Y-125543685D02*
X106983081Y-125686542D01*
X106983081Y-125686542D02*
X106983081Y-126115114D01*
X106983081Y-126115114D02*
X106911653Y-126257971D01*
X106911653Y-126257971D02*
X106840224Y-126329400D01*
X106840224Y-126329400D02*
X106697367Y-126400828D01*
X106697367Y-126400828D02*
X106483081Y-126400828D01*
X107625938Y-125400828D02*
X107625938Y-126400828D01*
X107625938Y-125543685D02*
X107697367Y-125472257D01*
X107697367Y-125472257D02*
X107840224Y-125400828D01*
X107840224Y-125400828D02*
X108054510Y-125400828D01*
X108054510Y-125400828D02*
X108197367Y-125472257D01*
X108197367Y-125472257D02*
X108268796Y-125615114D01*
X108268796Y-125615114D02*
X108268796Y-126400828D01*
X108983081Y-126400828D02*
X108983081Y-125400828D01*
X108983081Y-124900828D02*
X108911653Y-124972257D01*
X108911653Y-124972257D02*
X108983081Y-125043685D01*
X108983081Y-125043685D02*
X109054510Y-124972257D01*
X109054510Y-124972257D02*
X108983081Y-124900828D01*
X108983081Y-124900828D02*
X108983081Y-125043685D01*
X110340225Y-126329400D02*
X110197367Y-126400828D01*
X110197367Y-126400828D02*
X109911653Y-126400828D01*
X109911653Y-126400828D02*
X109768796Y-126329400D01*
X109768796Y-126329400D02*
X109697367Y-126257971D01*
X109697367Y-126257971D02*
X109625939Y-126115114D01*
X109625939Y-126115114D02*
X109625939Y-125686542D01*
X109625939Y-125686542D02*
X109697367Y-125543685D01*
X109697367Y-125543685D02*
X109768796Y-125472257D01*
X109768796Y-125472257D02*
X109911653Y-125400828D01*
X109911653Y-125400828D02*
X110197367Y-125400828D01*
X110197367Y-125400828D02*
X110340225Y-125472257D01*
X110911653Y-126329400D02*
X111054510Y-126400828D01*
X111054510Y-126400828D02*
X111340224Y-126400828D01*
X111340224Y-126400828D02*
X111483081Y-126329400D01*
X111483081Y-126329400D02*
X111554510Y-126186542D01*
X111554510Y-126186542D02*
X111554510Y-126115114D01*
X111554510Y-126115114D02*
X111483081Y-125972257D01*
X111483081Y-125972257D02*
X111340224Y-125900828D01*
X111340224Y-125900828D02*
X111125939Y-125900828D01*
X111125939Y-125900828D02*
X110983081Y-125829400D01*
X110983081Y-125829400D02*
X110911653Y-125686542D01*
X110911653Y-125686542D02*
X110911653Y-125615114D01*
X110911653Y-125615114D02*
X110983081Y-125472257D01*
X110983081Y-125472257D02*
X111125939Y-125400828D01*
X111125939Y-125400828D02*
X111340224Y-125400828D01*
X111340224Y-125400828D02*
X111483081Y-125472257D01*
D11*
X119041541Y-104669819D02*
X119660588Y-104669819D01*
X119660588Y-104669819D02*
X119327255Y-105050771D01*
X119327255Y-105050771D02*
X119470112Y-105050771D01*
X119470112Y-105050771D02*
X119565350Y-105098390D01*
X119565350Y-105098390D02*
X119612969Y-105146009D01*
X119612969Y-105146009D02*
X119660588Y-105241247D01*
X119660588Y-105241247D02*
X119660588Y-105479342D01*
X119660588Y-105479342D02*
X119612969Y-105574580D01*
X119612969Y-105574580D02*
X119565350Y-105622200D01*
X119565350Y-105622200D02*
X119470112Y-105669819D01*
X119470112Y-105669819D02*
X119184398Y-105669819D01*
X119184398Y-105669819D02*
X119089160Y-105622200D01*
X119089160Y-105622200D02*
X119041541Y-105574580D01*
X120089160Y-105574580D02*
X120136779Y-105622200D01*
X120136779Y-105622200D02*
X120089160Y-105669819D01*
X120089160Y-105669819D02*
X120041541Y-105622200D01*
X120041541Y-105622200D02*
X120089160Y-105574580D01*
X120089160Y-105574580D02*
X120089160Y-105669819D01*
X120470112Y-104669819D02*
X121089159Y-104669819D01*
X121089159Y-104669819D02*
X120755826Y-105050771D01*
X120755826Y-105050771D02*
X120898683Y-105050771D01*
X120898683Y-105050771D02*
X120993921Y-105098390D01*
X120993921Y-105098390D02*
X121041540Y-105146009D01*
X121041540Y-105146009D02*
X121089159Y-105241247D01*
X121089159Y-105241247D02*
X121089159Y-105479342D01*
X121089159Y-105479342D02*
X121041540Y-105574580D01*
X121041540Y-105574580D02*
X120993921Y-105622200D01*
X120993921Y-105622200D02*
X120898683Y-105669819D01*
X120898683Y-105669819D02*
X120612969Y-105669819D01*
X120612969Y-105669819D02*
X120517731Y-105622200D01*
X120517731Y-105622200D02*
X120470112Y-105574580D01*
X121374874Y-104669819D02*
X121708207Y-105669819D01*
X121708207Y-105669819D02*
X122041540Y-104669819D01*
X149086779Y-108119819D02*
X149086779Y-107119819D01*
X149086779Y-107119819D02*
X149420112Y-107834104D01*
X149420112Y-107834104D02*
X149753445Y-107119819D01*
X149753445Y-107119819D02*
X149753445Y-108119819D01*
X150182017Y-107834104D02*
X150658207Y-107834104D01*
X150086779Y-108119819D02*
X150420112Y-107119819D01*
X150420112Y-107119819D02*
X150753445Y-108119819D01*
X150991541Y-107119819D02*
X151658207Y-108119819D01*
X151658207Y-107119819D02*
X150991541Y-108119819D01*
X152039160Y-107738866D02*
X152801065Y-107738866D01*
X153277255Y-108119819D02*
X153277255Y-107119819D01*
X153277255Y-107119819D02*
X153610588Y-107834104D01*
X153610588Y-107834104D02*
X153943921Y-107119819D01*
X153943921Y-107119819D02*
X153943921Y-108119819D01*
X154943921Y-108119819D02*
X154372493Y-108119819D01*
X154658207Y-108119819D02*
X154658207Y-107119819D01*
X154658207Y-107119819D02*
X154562969Y-107262676D01*
X154562969Y-107262676D02*
X154467731Y-107357914D01*
X154467731Y-107357914D02*
X154372493Y-107405533D01*
X155562969Y-107119819D02*
X155658207Y-107119819D01*
X155658207Y-107119819D02*
X155753445Y-107167438D01*
X155753445Y-107167438D02*
X155801064Y-107215057D01*
X155801064Y-107215057D02*
X155848683Y-107310295D01*
X155848683Y-107310295D02*
X155896302Y-107500771D01*
X155896302Y-107500771D02*
X155896302Y-107738866D01*
X155896302Y-107738866D02*
X155848683Y-107929342D01*
X155848683Y-107929342D02*
X155801064Y-108024580D01*
X155801064Y-108024580D02*
X155753445Y-108072200D01*
X155753445Y-108072200D02*
X155658207Y-108119819D01*
X155658207Y-108119819D02*
X155562969Y-108119819D01*
X155562969Y-108119819D02*
X155467731Y-108072200D01*
X155467731Y-108072200D02*
X155420112Y-108024580D01*
X155420112Y-108024580D02*
X155372493Y-107929342D01*
X155372493Y-107929342D02*
X155324874Y-107738866D01*
X155324874Y-107738866D02*
X155324874Y-107500771D01*
X155324874Y-107500771D02*
X155372493Y-107310295D01*
X155372493Y-107310295D02*
X155420112Y-107215057D01*
X155420112Y-107215057D02*
X155467731Y-107167438D01*
X155467731Y-107167438D02*
X155562969Y-107119819D01*
X156277255Y-108072200D02*
X156420112Y-108119819D01*
X156420112Y-108119819D02*
X156658207Y-108119819D01*
X156658207Y-108119819D02*
X156753445Y-108072200D01*
X156753445Y-108072200D02*
X156801064Y-108024580D01*
X156801064Y-108024580D02*
X156848683Y-107929342D01*
X156848683Y-107929342D02*
X156848683Y-107834104D01*
X156848683Y-107834104D02*
X156801064Y-107738866D01*
X156801064Y-107738866D02*
X156753445Y-107691247D01*
X156753445Y-107691247D02*
X156658207Y-107643628D01*
X156658207Y-107643628D02*
X156467731Y-107596009D01*
X156467731Y-107596009D02*
X156372493Y-107548390D01*
X156372493Y-107548390D02*
X156324874Y-107500771D01*
X156324874Y-107500771D02*
X156277255Y-107405533D01*
X156277255Y-107405533D02*
X156277255Y-107310295D01*
X156277255Y-107310295D02*
X156324874Y-107215057D01*
X156324874Y-107215057D02*
X156372493Y-107167438D01*
X156372493Y-107167438D02*
X156467731Y-107119819D01*
X156467731Y-107119819D02*
X156705826Y-107119819D01*
X156705826Y-107119819D02*
X156848683Y-107167438D01*
X158372493Y-107596009D02*
X158515350Y-107643628D01*
X158515350Y-107643628D02*
X158562969Y-107691247D01*
X158562969Y-107691247D02*
X158610588Y-107786485D01*
X158610588Y-107786485D02*
X158610588Y-107929342D01*
X158610588Y-107929342D02*
X158562969Y-108024580D01*
X158562969Y-108024580D02*
X158515350Y-108072200D01*
X158515350Y-108072200D02*
X158420112Y-108119819D01*
X158420112Y-108119819D02*
X158039160Y-108119819D01*
X158039160Y-108119819D02*
X158039160Y-107119819D01*
X158039160Y-107119819D02*
X158372493Y-107119819D01*
X158372493Y-107119819D02*
X158467731Y-107167438D01*
X158467731Y-107167438D02*
X158515350Y-107215057D01*
X158515350Y-107215057D02*
X158562969Y-107310295D01*
X158562969Y-107310295D02*
X158562969Y-107405533D01*
X158562969Y-107405533D02*
X158515350Y-107500771D01*
X158515350Y-107500771D02*
X158467731Y-107548390D01*
X158467731Y-107548390D02*
X158372493Y-107596009D01*
X158372493Y-107596009D02*
X158039160Y-107596009D01*
X159039160Y-108119819D02*
X159039160Y-107453152D01*
X159039160Y-107643628D02*
X159086779Y-107548390D01*
X159086779Y-107548390D02*
X159134398Y-107500771D01*
X159134398Y-107500771D02*
X159229636Y-107453152D01*
X159229636Y-107453152D02*
X159324874Y-107453152D01*
X160039160Y-108072200D02*
X159943922Y-108119819D01*
X159943922Y-108119819D02*
X159753446Y-108119819D01*
X159753446Y-108119819D02*
X159658208Y-108072200D01*
X159658208Y-108072200D02*
X159610589Y-107976961D01*
X159610589Y-107976961D02*
X159610589Y-107596009D01*
X159610589Y-107596009D02*
X159658208Y-107500771D01*
X159658208Y-107500771D02*
X159753446Y-107453152D01*
X159753446Y-107453152D02*
X159943922Y-107453152D01*
X159943922Y-107453152D02*
X160039160Y-107500771D01*
X160039160Y-107500771D02*
X160086779Y-107596009D01*
X160086779Y-107596009D02*
X160086779Y-107691247D01*
X160086779Y-107691247D02*
X159610589Y-107786485D01*
X160943922Y-108119819D02*
X160943922Y-107596009D01*
X160943922Y-107596009D02*
X160896303Y-107500771D01*
X160896303Y-107500771D02*
X160801065Y-107453152D01*
X160801065Y-107453152D02*
X160610589Y-107453152D01*
X160610589Y-107453152D02*
X160515351Y-107500771D01*
X160943922Y-108072200D02*
X160848684Y-108119819D01*
X160848684Y-108119819D02*
X160610589Y-108119819D01*
X160610589Y-108119819D02*
X160515351Y-108072200D01*
X160515351Y-108072200D02*
X160467732Y-107976961D01*
X160467732Y-107976961D02*
X160467732Y-107881723D01*
X160467732Y-107881723D02*
X160515351Y-107786485D01*
X160515351Y-107786485D02*
X160610589Y-107738866D01*
X160610589Y-107738866D02*
X160848684Y-107738866D01*
X160848684Y-107738866D02*
X160943922Y-107691247D01*
X161420113Y-108119819D02*
X161420113Y-107119819D01*
X161515351Y-107738866D02*
X161801065Y-108119819D01*
X161801065Y-107453152D02*
X161420113Y-107834104D01*
X162372494Y-108119819D02*
X162277256Y-108072200D01*
X162277256Y-108072200D02*
X162229637Y-108024580D01*
X162229637Y-108024580D02*
X162182018Y-107929342D01*
X162182018Y-107929342D02*
X162182018Y-107643628D01*
X162182018Y-107643628D02*
X162229637Y-107548390D01*
X162229637Y-107548390D02*
X162277256Y-107500771D01*
X162277256Y-107500771D02*
X162372494Y-107453152D01*
X162372494Y-107453152D02*
X162515351Y-107453152D01*
X162515351Y-107453152D02*
X162610589Y-107500771D01*
X162610589Y-107500771D02*
X162658208Y-107548390D01*
X162658208Y-107548390D02*
X162705827Y-107643628D01*
X162705827Y-107643628D02*
X162705827Y-107929342D01*
X162705827Y-107929342D02*
X162658208Y-108024580D01*
X162658208Y-108024580D02*
X162610589Y-108072200D01*
X162610589Y-108072200D02*
X162515351Y-108119819D01*
X162515351Y-108119819D02*
X162372494Y-108119819D01*
X163562970Y-107453152D02*
X163562970Y-108119819D01*
X163134399Y-107453152D02*
X163134399Y-107976961D01*
X163134399Y-107976961D02*
X163182018Y-108072200D01*
X163182018Y-108072200D02*
X163277256Y-108119819D01*
X163277256Y-108119819D02*
X163420113Y-108119819D01*
X163420113Y-108119819D02*
X163515351Y-108072200D01*
X163515351Y-108072200D02*
X163562970Y-108024580D01*
X163896304Y-107453152D02*
X164277256Y-107453152D01*
X164039161Y-107119819D02*
X164039161Y-107976961D01*
X164039161Y-107976961D02*
X164086780Y-108072200D01*
X164086780Y-108072200D02*
X164182018Y-108119819D01*
X164182018Y-108119819D02*
X164277256Y-108119819D01*
X182593922Y-123669819D02*
X182927255Y-124669819D01*
X182927255Y-124669819D02*
X183260588Y-123669819D01*
X183593922Y-124669819D02*
X183593922Y-124003152D01*
X183593922Y-123669819D02*
X183546303Y-123717438D01*
X183546303Y-123717438D02*
X183593922Y-123765057D01*
X183593922Y-123765057D02*
X183641541Y-123717438D01*
X183641541Y-123717438D02*
X183593922Y-123669819D01*
X183593922Y-123669819D02*
X183593922Y-123765057D01*
X184070112Y-124003152D02*
X184070112Y-124669819D01*
X184070112Y-124098390D02*
X184117731Y-124050771D01*
X184117731Y-124050771D02*
X184212969Y-124003152D01*
X184212969Y-124003152D02*
X184355826Y-124003152D01*
X184355826Y-124003152D02*
X184451064Y-124050771D01*
X184451064Y-124050771D02*
X184498683Y-124146009D01*
X184498683Y-124146009D02*
X184498683Y-124669819D01*
X178660588Y-123717438D02*
X178565350Y-123669819D01*
X178565350Y-123669819D02*
X178422493Y-123669819D01*
X178422493Y-123669819D02*
X178279636Y-123717438D01*
X178279636Y-123717438D02*
X178184398Y-123812676D01*
X178184398Y-123812676D02*
X178136779Y-123907914D01*
X178136779Y-123907914D02*
X178089160Y-124098390D01*
X178089160Y-124098390D02*
X178089160Y-124241247D01*
X178089160Y-124241247D02*
X178136779Y-124431723D01*
X178136779Y-124431723D02*
X178184398Y-124526961D01*
X178184398Y-124526961D02*
X178279636Y-124622200D01*
X178279636Y-124622200D02*
X178422493Y-124669819D01*
X178422493Y-124669819D02*
X178517731Y-124669819D01*
X178517731Y-124669819D02*
X178660588Y-124622200D01*
X178660588Y-124622200D02*
X178708207Y-124574580D01*
X178708207Y-124574580D02*
X178708207Y-124241247D01*
X178708207Y-124241247D02*
X178517731Y-124241247D01*
X179136779Y-124669819D02*
X179136779Y-123669819D01*
X179136779Y-123669819D02*
X179708207Y-124669819D01*
X179708207Y-124669819D02*
X179708207Y-123669819D01*
X180184398Y-124669819D02*
X180184398Y-123669819D01*
X180184398Y-123669819D02*
X180422493Y-123669819D01*
X180422493Y-123669819D02*
X180565350Y-123717438D01*
X180565350Y-123717438D02*
X180660588Y-123812676D01*
X180660588Y-123812676D02*
X180708207Y-123907914D01*
X180708207Y-123907914D02*
X180755826Y-124098390D01*
X180755826Y-124098390D02*
X180755826Y-124241247D01*
X180755826Y-124241247D02*
X180708207Y-124431723D01*
X180708207Y-124431723D02*
X180660588Y-124526961D01*
X180660588Y-124526961D02*
X180565350Y-124622200D01*
X180565350Y-124622200D02*
X180422493Y-124669819D01*
X180422493Y-124669819D02*
X180184398Y-124669819D01*
D12*
X160633609Y-121508571D02*
X160681228Y-121365714D01*
X160681228Y-121365714D02*
X160728847Y-121318095D01*
X160728847Y-121318095D02*
X160824085Y-121270476D01*
X160824085Y-121270476D02*
X160966942Y-121270476D01*
X160966942Y-121270476D02*
X161062180Y-121318095D01*
X161062180Y-121318095D02*
X161109800Y-121365714D01*
X161109800Y-121365714D02*
X161157419Y-121460952D01*
X161157419Y-121460952D02*
X161157419Y-121841904D01*
X161157419Y-121841904D02*
X160157419Y-121841904D01*
X160157419Y-121841904D02*
X160157419Y-121508571D01*
X160157419Y-121508571D02*
X160205038Y-121413333D01*
X160205038Y-121413333D02*
X160252657Y-121365714D01*
X160252657Y-121365714D02*
X160347895Y-121318095D01*
X160347895Y-121318095D02*
X160443133Y-121318095D01*
X160443133Y-121318095D02*
X160538371Y-121365714D01*
X160538371Y-121365714D02*
X160585990Y-121413333D01*
X160585990Y-121413333D02*
X160633609Y-121508571D01*
X160633609Y-121508571D02*
X160633609Y-121841904D01*
X161157419Y-120841904D02*
X160157419Y-120841904D01*
X160157419Y-120841904D02*
X160871704Y-120508571D01*
X160871704Y-120508571D02*
X160157419Y-120175238D01*
X160157419Y-120175238D02*
X161157419Y-120175238D01*
X161157419Y-119699047D02*
X160157419Y-119699047D01*
X160157419Y-119699047D02*
X160157419Y-119318095D01*
X160157419Y-119318095D02*
X160205038Y-119222857D01*
X160205038Y-119222857D02*
X160252657Y-119175238D01*
X160252657Y-119175238D02*
X160347895Y-119127619D01*
X160347895Y-119127619D02*
X160490752Y-119127619D01*
X160490752Y-119127619D02*
X160585990Y-119175238D01*
X160585990Y-119175238D02*
X160633609Y-119222857D01*
X160633609Y-119222857D02*
X160681228Y-119318095D01*
X160681228Y-119318095D02*
X160681228Y-119699047D01*
X160157419Y-118794285D02*
X160157419Y-118175238D01*
X160157419Y-118175238D02*
X160538371Y-118508571D01*
X160538371Y-118508571D02*
X160538371Y-118365714D01*
X160538371Y-118365714D02*
X160585990Y-118270476D01*
X160585990Y-118270476D02*
X160633609Y-118222857D01*
X160633609Y-118222857D02*
X160728847Y-118175238D01*
X160728847Y-118175238D02*
X160966942Y-118175238D01*
X160966942Y-118175238D02*
X161062180Y-118222857D01*
X161062180Y-118222857D02*
X161109800Y-118270476D01*
X161109800Y-118270476D02*
X161157419Y-118365714D01*
X161157419Y-118365714D02*
X161157419Y-118651428D01*
X161157419Y-118651428D02*
X161109800Y-118746666D01*
X161109800Y-118746666D02*
X161062180Y-118794285D01*
X161157419Y-117699047D02*
X161157419Y-117508571D01*
X161157419Y-117508571D02*
X161109800Y-117413333D01*
X161109800Y-117413333D02*
X161062180Y-117365714D01*
X161062180Y-117365714D02*
X160919323Y-117270476D01*
X160919323Y-117270476D02*
X160728847Y-117222857D01*
X160728847Y-117222857D02*
X160347895Y-117222857D01*
X160347895Y-117222857D02*
X160252657Y-117270476D01*
X160252657Y-117270476D02*
X160205038Y-117318095D01*
X160205038Y-117318095D02*
X160157419Y-117413333D01*
X160157419Y-117413333D02*
X160157419Y-117603809D01*
X160157419Y-117603809D02*
X160205038Y-117699047D01*
X160205038Y-117699047D02*
X160252657Y-117746666D01*
X160252657Y-117746666D02*
X160347895Y-117794285D01*
X160347895Y-117794285D02*
X160585990Y-117794285D01*
X160585990Y-117794285D02*
X160681228Y-117746666D01*
X160681228Y-117746666D02*
X160728847Y-117699047D01*
X160728847Y-117699047D02*
X160776466Y-117603809D01*
X160776466Y-117603809D02*
X160776466Y-117413333D01*
X160776466Y-117413333D02*
X160728847Y-117318095D01*
X160728847Y-117318095D02*
X160681228Y-117270476D01*
X160681228Y-117270476D02*
X160585990Y-117222857D01*
X160157419Y-116603809D02*
X160157419Y-116508571D01*
X160157419Y-116508571D02*
X160205038Y-116413333D01*
X160205038Y-116413333D02*
X160252657Y-116365714D01*
X160252657Y-116365714D02*
X160347895Y-116318095D01*
X160347895Y-116318095D02*
X160538371Y-116270476D01*
X160538371Y-116270476D02*
X160776466Y-116270476D01*
X160776466Y-116270476D02*
X160966942Y-116318095D01*
X160966942Y-116318095D02*
X161062180Y-116365714D01*
X161062180Y-116365714D02*
X161109800Y-116413333D01*
X161109800Y-116413333D02*
X161157419Y-116508571D01*
X161157419Y-116508571D02*
X161157419Y-116603809D01*
X161157419Y-116603809D02*
X161109800Y-116699047D01*
X161109800Y-116699047D02*
X161062180Y-116746666D01*
X161062180Y-116746666D02*
X160966942Y-116794285D01*
X160966942Y-116794285D02*
X160776466Y-116841904D01*
X160776466Y-116841904D02*
X160538371Y-116841904D01*
X160538371Y-116841904D02*
X160347895Y-116794285D01*
X160347895Y-116794285D02*
X160252657Y-116746666D01*
X160252657Y-116746666D02*
X160205038Y-116699047D01*
X160205038Y-116699047D02*
X160157419Y-116603809D01*
D11*
X155689160Y-86022200D02*
X155832017Y-86069819D01*
X155832017Y-86069819D02*
X156070112Y-86069819D01*
X156070112Y-86069819D02*
X156165350Y-86022200D01*
X156165350Y-86022200D02*
X156212969Y-85974580D01*
X156212969Y-85974580D02*
X156260588Y-85879342D01*
X156260588Y-85879342D02*
X156260588Y-85784104D01*
X156260588Y-85784104D02*
X156212969Y-85688866D01*
X156212969Y-85688866D02*
X156165350Y-85641247D01*
X156165350Y-85641247D02*
X156070112Y-85593628D01*
X156070112Y-85593628D02*
X155879636Y-85546009D01*
X155879636Y-85546009D02*
X155784398Y-85498390D01*
X155784398Y-85498390D02*
X155736779Y-85450771D01*
X155736779Y-85450771D02*
X155689160Y-85355533D01*
X155689160Y-85355533D02*
X155689160Y-85260295D01*
X155689160Y-85260295D02*
X155736779Y-85165057D01*
X155736779Y-85165057D02*
X155784398Y-85117438D01*
X155784398Y-85117438D02*
X155879636Y-85069819D01*
X155879636Y-85069819D02*
X156117731Y-85069819D01*
X156117731Y-85069819D02*
X156260588Y-85117438D01*
X157260588Y-85974580D02*
X157212969Y-86022200D01*
X157212969Y-86022200D02*
X157070112Y-86069819D01*
X157070112Y-86069819D02*
X156974874Y-86069819D01*
X156974874Y-86069819D02*
X156832017Y-86022200D01*
X156832017Y-86022200D02*
X156736779Y-85926961D01*
X156736779Y-85926961D02*
X156689160Y-85831723D01*
X156689160Y-85831723D02*
X156641541Y-85641247D01*
X156641541Y-85641247D02*
X156641541Y-85498390D01*
X156641541Y-85498390D02*
X156689160Y-85307914D01*
X156689160Y-85307914D02*
X156736779Y-85212676D01*
X156736779Y-85212676D02*
X156832017Y-85117438D01*
X156832017Y-85117438D02*
X156974874Y-85069819D01*
X156974874Y-85069819D02*
X157070112Y-85069819D01*
X157070112Y-85069819D02*
X157212969Y-85117438D01*
X157212969Y-85117438D02*
X157260588Y-85165057D01*
X158165350Y-86069819D02*
X157689160Y-86069819D01*
X157689160Y-86069819D02*
X157689160Y-85069819D01*
X155641541Y-82669819D02*
X156260588Y-82669819D01*
X156260588Y-82669819D02*
X155927255Y-83050771D01*
X155927255Y-83050771D02*
X156070112Y-83050771D01*
X156070112Y-83050771D02*
X156165350Y-83098390D01*
X156165350Y-83098390D02*
X156212969Y-83146009D01*
X156212969Y-83146009D02*
X156260588Y-83241247D01*
X156260588Y-83241247D02*
X156260588Y-83479342D01*
X156260588Y-83479342D02*
X156212969Y-83574580D01*
X156212969Y-83574580D02*
X156165350Y-83622200D01*
X156165350Y-83622200D02*
X156070112Y-83669819D01*
X156070112Y-83669819D02*
X155784398Y-83669819D01*
X155784398Y-83669819D02*
X155689160Y-83622200D01*
X155689160Y-83622200D02*
X155641541Y-83574580D01*
X156689160Y-83574580D02*
X156736779Y-83622200D01*
X156736779Y-83622200D02*
X156689160Y-83669819D01*
X156689160Y-83669819D02*
X156641541Y-83622200D01*
X156641541Y-83622200D02*
X156689160Y-83574580D01*
X156689160Y-83574580D02*
X156689160Y-83669819D01*
X157070112Y-82669819D02*
X157689159Y-82669819D01*
X157689159Y-82669819D02*
X157355826Y-83050771D01*
X157355826Y-83050771D02*
X157498683Y-83050771D01*
X157498683Y-83050771D02*
X157593921Y-83098390D01*
X157593921Y-83098390D02*
X157641540Y-83146009D01*
X157641540Y-83146009D02*
X157689159Y-83241247D01*
X157689159Y-83241247D02*
X157689159Y-83479342D01*
X157689159Y-83479342D02*
X157641540Y-83574580D01*
X157641540Y-83574580D02*
X157593921Y-83622200D01*
X157593921Y-83622200D02*
X157498683Y-83669819D01*
X157498683Y-83669819D02*
X157212969Y-83669819D01*
X157212969Y-83669819D02*
X157117731Y-83622200D01*
X157117731Y-83622200D02*
X157070112Y-83574580D01*
X157974874Y-82669819D02*
X158308207Y-83669819D01*
X158308207Y-83669819D02*
X158641540Y-82669819D01*
X119089160Y-110822200D02*
X119232017Y-110869819D01*
X119232017Y-110869819D02*
X119470112Y-110869819D01*
X119470112Y-110869819D02*
X119565350Y-110822200D01*
X119565350Y-110822200D02*
X119612969Y-110774580D01*
X119612969Y-110774580D02*
X119660588Y-110679342D01*
X119660588Y-110679342D02*
X119660588Y-110584104D01*
X119660588Y-110584104D02*
X119612969Y-110488866D01*
X119612969Y-110488866D02*
X119565350Y-110441247D01*
X119565350Y-110441247D02*
X119470112Y-110393628D01*
X119470112Y-110393628D02*
X119279636Y-110346009D01*
X119279636Y-110346009D02*
X119184398Y-110298390D01*
X119184398Y-110298390D02*
X119136779Y-110250771D01*
X119136779Y-110250771D02*
X119089160Y-110155533D01*
X119089160Y-110155533D02*
X119089160Y-110060295D01*
X119089160Y-110060295D02*
X119136779Y-109965057D01*
X119136779Y-109965057D02*
X119184398Y-109917438D01*
X119184398Y-109917438D02*
X119279636Y-109869819D01*
X119279636Y-109869819D02*
X119517731Y-109869819D01*
X119517731Y-109869819D02*
X119660588Y-109917438D01*
X120089160Y-110869819D02*
X120089160Y-109869819D01*
X120089160Y-109869819D02*
X120327255Y-109869819D01*
X120327255Y-109869819D02*
X120470112Y-109917438D01*
X120470112Y-109917438D02*
X120565350Y-110012676D01*
X120565350Y-110012676D02*
X120612969Y-110107914D01*
X120612969Y-110107914D02*
X120660588Y-110298390D01*
X120660588Y-110298390D02*
X120660588Y-110441247D01*
X120660588Y-110441247D02*
X120612969Y-110631723D01*
X120612969Y-110631723D02*
X120565350Y-110726961D01*
X120565350Y-110726961D02*
X120470112Y-110822200D01*
X120470112Y-110822200D02*
X120327255Y-110869819D01*
X120327255Y-110869819D02*
X120089160Y-110869819D01*
X121041541Y-110584104D02*
X121517731Y-110584104D01*
X120946303Y-110869819D02*
X121279636Y-109869819D01*
X121279636Y-109869819D02*
X121612969Y-110869819D01*
X120489160Y-78622200D02*
X120632017Y-78669819D01*
X120632017Y-78669819D02*
X120870112Y-78669819D01*
X120870112Y-78669819D02*
X120965350Y-78622200D01*
X120965350Y-78622200D02*
X121012969Y-78574580D01*
X121012969Y-78574580D02*
X121060588Y-78479342D01*
X121060588Y-78479342D02*
X121060588Y-78384104D01*
X121060588Y-78384104D02*
X121012969Y-78288866D01*
X121012969Y-78288866D02*
X120965350Y-78241247D01*
X120965350Y-78241247D02*
X120870112Y-78193628D01*
X120870112Y-78193628D02*
X120679636Y-78146009D01*
X120679636Y-78146009D02*
X120584398Y-78098390D01*
X120584398Y-78098390D02*
X120536779Y-78050771D01*
X120536779Y-78050771D02*
X120489160Y-77955533D01*
X120489160Y-77955533D02*
X120489160Y-77860295D01*
X120489160Y-77860295D02*
X120536779Y-77765057D01*
X120536779Y-77765057D02*
X120584398Y-77717438D01*
X120584398Y-77717438D02*
X120679636Y-77669819D01*
X120679636Y-77669819D02*
X120917731Y-77669819D01*
X120917731Y-77669819D02*
X121060588Y-77717438D01*
X121489160Y-78669819D02*
X121489160Y-77669819D01*
X121489160Y-77669819D02*
X121727255Y-77669819D01*
X121727255Y-77669819D02*
X121870112Y-77717438D01*
X121870112Y-77717438D02*
X121965350Y-77812676D01*
X121965350Y-77812676D02*
X122012969Y-77907914D01*
X122012969Y-77907914D02*
X122060588Y-78098390D01*
X122060588Y-78098390D02*
X122060588Y-78241247D01*
X122060588Y-78241247D02*
X122012969Y-78431723D01*
X122012969Y-78431723D02*
X121965350Y-78526961D01*
X121965350Y-78526961D02*
X121870112Y-78622200D01*
X121870112Y-78622200D02*
X121727255Y-78669819D01*
X121727255Y-78669819D02*
X121489160Y-78669819D01*
X122441541Y-78384104D02*
X122917731Y-78384104D01*
X122346303Y-78669819D02*
X122679636Y-77669819D01*
X122679636Y-77669819D02*
X123012969Y-78669819D01*
X155689160Y-88622200D02*
X155832017Y-88669819D01*
X155832017Y-88669819D02*
X156070112Y-88669819D01*
X156070112Y-88669819D02*
X156165350Y-88622200D01*
X156165350Y-88622200D02*
X156212969Y-88574580D01*
X156212969Y-88574580D02*
X156260588Y-88479342D01*
X156260588Y-88479342D02*
X156260588Y-88384104D01*
X156260588Y-88384104D02*
X156212969Y-88288866D01*
X156212969Y-88288866D02*
X156165350Y-88241247D01*
X156165350Y-88241247D02*
X156070112Y-88193628D01*
X156070112Y-88193628D02*
X155879636Y-88146009D01*
X155879636Y-88146009D02*
X155784398Y-88098390D01*
X155784398Y-88098390D02*
X155736779Y-88050771D01*
X155736779Y-88050771D02*
X155689160Y-87955533D01*
X155689160Y-87955533D02*
X155689160Y-87860295D01*
X155689160Y-87860295D02*
X155736779Y-87765057D01*
X155736779Y-87765057D02*
X155784398Y-87717438D01*
X155784398Y-87717438D02*
X155879636Y-87669819D01*
X155879636Y-87669819D02*
X156117731Y-87669819D01*
X156117731Y-87669819D02*
X156260588Y-87717438D01*
X156689160Y-88669819D02*
X156689160Y-87669819D01*
X156689160Y-87669819D02*
X156927255Y-87669819D01*
X156927255Y-87669819D02*
X157070112Y-87717438D01*
X157070112Y-87717438D02*
X157165350Y-87812676D01*
X157165350Y-87812676D02*
X157212969Y-87907914D01*
X157212969Y-87907914D02*
X157260588Y-88098390D01*
X157260588Y-88098390D02*
X157260588Y-88241247D01*
X157260588Y-88241247D02*
X157212969Y-88431723D01*
X157212969Y-88431723D02*
X157165350Y-88526961D01*
X157165350Y-88526961D02*
X157070112Y-88622200D01*
X157070112Y-88622200D02*
X156927255Y-88669819D01*
X156927255Y-88669819D02*
X156689160Y-88669819D01*
X157641541Y-88384104D02*
X158117731Y-88384104D01*
X157546303Y-88669819D02*
X157879636Y-87669819D01*
X157879636Y-87669819D02*
X158212969Y-88669819D01*
X120489160Y-81222200D02*
X120632017Y-81269819D01*
X120632017Y-81269819D02*
X120870112Y-81269819D01*
X120870112Y-81269819D02*
X120965350Y-81222200D01*
X120965350Y-81222200D02*
X121012969Y-81174580D01*
X121012969Y-81174580D02*
X121060588Y-81079342D01*
X121060588Y-81079342D02*
X121060588Y-80984104D01*
X121060588Y-80984104D02*
X121012969Y-80888866D01*
X121012969Y-80888866D02*
X120965350Y-80841247D01*
X120965350Y-80841247D02*
X120870112Y-80793628D01*
X120870112Y-80793628D02*
X120679636Y-80746009D01*
X120679636Y-80746009D02*
X120584398Y-80698390D01*
X120584398Y-80698390D02*
X120536779Y-80650771D01*
X120536779Y-80650771D02*
X120489160Y-80555533D01*
X120489160Y-80555533D02*
X120489160Y-80460295D01*
X120489160Y-80460295D02*
X120536779Y-80365057D01*
X120536779Y-80365057D02*
X120584398Y-80317438D01*
X120584398Y-80317438D02*
X120679636Y-80269819D01*
X120679636Y-80269819D02*
X120917731Y-80269819D01*
X120917731Y-80269819D02*
X121060588Y-80317438D01*
X122060588Y-81174580D02*
X122012969Y-81222200D01*
X122012969Y-81222200D02*
X121870112Y-81269819D01*
X121870112Y-81269819D02*
X121774874Y-81269819D01*
X121774874Y-81269819D02*
X121632017Y-81222200D01*
X121632017Y-81222200D02*
X121536779Y-81126961D01*
X121536779Y-81126961D02*
X121489160Y-81031723D01*
X121489160Y-81031723D02*
X121441541Y-80841247D01*
X121441541Y-80841247D02*
X121441541Y-80698390D01*
X121441541Y-80698390D02*
X121489160Y-80507914D01*
X121489160Y-80507914D02*
X121536779Y-80412676D01*
X121536779Y-80412676D02*
X121632017Y-80317438D01*
X121632017Y-80317438D02*
X121774874Y-80269819D01*
X121774874Y-80269819D02*
X121870112Y-80269819D01*
X121870112Y-80269819D02*
X122012969Y-80317438D01*
X122012969Y-80317438D02*
X122060588Y-80365057D01*
X122965350Y-81269819D02*
X122489160Y-81269819D01*
X122489160Y-81269819D02*
X122489160Y-80269819D01*
X116616666Y-114784819D02*
X116616666Y-115499104D01*
X116616666Y-115499104D02*
X116569047Y-115641961D01*
X116569047Y-115641961D02*
X116473809Y-115737200D01*
X116473809Y-115737200D02*
X116330952Y-115784819D01*
X116330952Y-115784819D02*
X116235714Y-115784819D01*
X117569047Y-114784819D02*
X117092857Y-114784819D01*
X117092857Y-114784819D02*
X117045238Y-115261009D01*
X117045238Y-115261009D02*
X117092857Y-115213390D01*
X117092857Y-115213390D02*
X117188095Y-115165771D01*
X117188095Y-115165771D02*
X117426190Y-115165771D01*
X117426190Y-115165771D02*
X117521428Y-115213390D01*
X117521428Y-115213390D02*
X117569047Y-115261009D01*
X117569047Y-115261009D02*
X117616666Y-115356247D01*
X117616666Y-115356247D02*
X117616666Y-115594342D01*
X117616666Y-115594342D02*
X117569047Y-115689580D01*
X117569047Y-115689580D02*
X117521428Y-115737200D01*
X117521428Y-115737200D02*
X117426190Y-115784819D01*
X117426190Y-115784819D02*
X117188095Y-115784819D01*
X117188095Y-115784819D02*
X117092857Y-115737200D01*
X117092857Y-115737200D02*
X117045238Y-115689580D01*
X151074819Y-117266666D02*
X150598628Y-117599999D01*
X151074819Y-117838094D02*
X150074819Y-117838094D01*
X150074819Y-117838094D02*
X150074819Y-117457142D01*
X150074819Y-117457142D02*
X150122438Y-117361904D01*
X150122438Y-117361904D02*
X150170057Y-117314285D01*
X150170057Y-117314285D02*
X150265295Y-117266666D01*
X150265295Y-117266666D02*
X150408152Y-117266666D01*
X150408152Y-117266666D02*
X150503390Y-117314285D01*
X150503390Y-117314285D02*
X150551009Y-117361904D01*
X150551009Y-117361904D02*
X150598628Y-117457142D01*
X150598628Y-117457142D02*
X150598628Y-117838094D01*
X150170057Y-116885713D02*
X150122438Y-116838094D01*
X150122438Y-116838094D02*
X150074819Y-116742856D01*
X150074819Y-116742856D02*
X150074819Y-116504761D01*
X150074819Y-116504761D02*
X150122438Y-116409523D01*
X150122438Y-116409523D02*
X150170057Y-116361904D01*
X150170057Y-116361904D02*
X150265295Y-116314285D01*
X150265295Y-116314285D02*
X150360533Y-116314285D01*
X150360533Y-116314285D02*
X150503390Y-116361904D01*
X150503390Y-116361904D02*
X151074819Y-116933332D01*
X151074819Y-116933332D02*
X151074819Y-116314285D01*
X171954819Y-113313333D02*
X172669104Y-113313333D01*
X172669104Y-113313333D02*
X172811961Y-113360952D01*
X172811961Y-113360952D02*
X172907200Y-113456190D01*
X172907200Y-113456190D02*
X172954819Y-113599047D01*
X172954819Y-113599047D02*
X172954819Y-113694285D01*
X172050057Y-112884761D02*
X172002438Y-112837142D01*
X172002438Y-112837142D02*
X171954819Y-112741904D01*
X171954819Y-112741904D02*
X171954819Y-112503809D01*
X171954819Y-112503809D02*
X172002438Y-112408571D01*
X172002438Y-112408571D02*
X172050057Y-112360952D01*
X172050057Y-112360952D02*
X172145295Y-112313333D01*
X172145295Y-112313333D02*
X172240533Y-112313333D01*
X172240533Y-112313333D02*
X172383390Y-112360952D01*
X172383390Y-112360952D02*
X172954819Y-112932380D01*
X172954819Y-112932380D02*
X172954819Y-112313333D01*
X118216666Y-87774819D02*
X118216666Y-88489104D01*
X118216666Y-88489104D02*
X118169047Y-88631961D01*
X118169047Y-88631961D02*
X118073809Y-88727200D01*
X118073809Y-88727200D02*
X117930952Y-88774819D01*
X117930952Y-88774819D02*
X117835714Y-88774819D01*
X119121428Y-87774819D02*
X118930952Y-87774819D01*
X118930952Y-87774819D02*
X118835714Y-87822438D01*
X118835714Y-87822438D02*
X118788095Y-87870057D01*
X118788095Y-87870057D02*
X118692857Y-88012914D01*
X118692857Y-88012914D02*
X118645238Y-88203390D01*
X118645238Y-88203390D02*
X118645238Y-88584342D01*
X118645238Y-88584342D02*
X118692857Y-88679580D01*
X118692857Y-88679580D02*
X118740476Y-88727200D01*
X118740476Y-88727200D02*
X118835714Y-88774819D01*
X118835714Y-88774819D02*
X119026190Y-88774819D01*
X119026190Y-88774819D02*
X119121428Y-88727200D01*
X119121428Y-88727200D02*
X119169047Y-88679580D01*
X119169047Y-88679580D02*
X119216666Y-88584342D01*
X119216666Y-88584342D02*
X119216666Y-88346247D01*
X119216666Y-88346247D02*
X119169047Y-88251009D01*
X119169047Y-88251009D02*
X119121428Y-88203390D01*
X119121428Y-88203390D02*
X119026190Y-88155771D01*
X119026190Y-88155771D02*
X118835714Y-88155771D01*
X118835714Y-88155771D02*
X118740476Y-88203390D01*
X118740476Y-88203390D02*
X118692857Y-88251009D01*
X118692857Y-88251009D02*
X118645238Y-88346247D01*
X171954819Y-120913333D02*
X172669104Y-120913333D01*
X172669104Y-120913333D02*
X172811961Y-120960952D01*
X172811961Y-120960952D02*
X172907200Y-121056190D01*
X172907200Y-121056190D02*
X172954819Y-121199047D01*
X172954819Y-121199047D02*
X172954819Y-121294285D01*
X171954819Y-120532380D02*
X171954819Y-119913333D01*
X171954819Y-119913333D02*
X172335771Y-120246666D01*
X172335771Y-120246666D02*
X172335771Y-120103809D01*
X172335771Y-120103809D02*
X172383390Y-120008571D01*
X172383390Y-120008571D02*
X172431009Y-119960952D01*
X172431009Y-119960952D02*
X172526247Y-119913333D01*
X172526247Y-119913333D02*
X172764342Y-119913333D01*
X172764342Y-119913333D02*
X172859580Y-119960952D01*
X172859580Y-119960952D02*
X172907200Y-120008571D01*
X172907200Y-120008571D02*
X172954819Y-120103809D01*
X172954819Y-120103809D02*
X172954819Y-120389523D01*
X172954819Y-120389523D02*
X172907200Y-120484761D01*
X172907200Y-120484761D02*
X172859580Y-120532380D01*
X152666666Y-77604819D02*
X152666666Y-78319104D01*
X152666666Y-78319104D02*
X152619047Y-78461961D01*
X152619047Y-78461961D02*
X152523809Y-78557200D01*
X152523809Y-78557200D02*
X152380952Y-78604819D01*
X152380952Y-78604819D02*
X152285714Y-78604819D01*
X153571428Y-77938152D02*
X153571428Y-78604819D01*
X153333333Y-77557200D02*
X153095238Y-78271485D01*
X153095238Y-78271485D02*
X153714285Y-78271485D01*
D12*
X135922580Y-88718571D02*
X135922580Y-89289999D01*
X134922580Y-89004285D02*
X135922580Y-89004285D01*
X134970200Y-90004285D02*
X134922580Y-89909047D01*
X134922580Y-89909047D02*
X134922580Y-89718571D01*
X134922580Y-89718571D02*
X134970200Y-89623333D01*
X134970200Y-89623333D02*
X135065438Y-89575714D01*
X135065438Y-89575714D02*
X135446390Y-89575714D01*
X135446390Y-89575714D02*
X135541628Y-89623333D01*
X135541628Y-89623333D02*
X135589247Y-89718571D01*
X135589247Y-89718571D02*
X135589247Y-89909047D01*
X135589247Y-89909047D02*
X135541628Y-90004285D01*
X135541628Y-90004285D02*
X135446390Y-90051904D01*
X135446390Y-90051904D02*
X135351152Y-90051904D01*
X135351152Y-90051904D02*
X135255914Y-89575714D01*
X134970200Y-90861428D02*
X134922580Y-90766190D01*
X134922580Y-90766190D02*
X134922580Y-90575714D01*
X134922580Y-90575714D02*
X134970200Y-90480476D01*
X134970200Y-90480476D02*
X135065438Y-90432857D01*
X135065438Y-90432857D02*
X135446390Y-90432857D01*
X135446390Y-90432857D02*
X135541628Y-90480476D01*
X135541628Y-90480476D02*
X135589247Y-90575714D01*
X135589247Y-90575714D02*
X135589247Y-90766190D01*
X135589247Y-90766190D02*
X135541628Y-90861428D01*
X135541628Y-90861428D02*
X135446390Y-90909047D01*
X135446390Y-90909047D02*
X135351152Y-90909047D01*
X135351152Y-90909047D02*
X135255914Y-90432857D01*
X135589247Y-91337619D02*
X134922580Y-91337619D01*
X135494009Y-91337619D02*
X135541628Y-91385238D01*
X135541628Y-91385238D02*
X135589247Y-91480476D01*
X135589247Y-91480476D02*
X135589247Y-91623333D01*
X135589247Y-91623333D02*
X135541628Y-91718571D01*
X135541628Y-91718571D02*
X135446390Y-91766190D01*
X135446390Y-91766190D02*
X134922580Y-91766190D01*
X134970200Y-92194762D02*
X134922580Y-92290000D01*
X134922580Y-92290000D02*
X134922580Y-92480476D01*
X134922580Y-92480476D02*
X134970200Y-92575714D01*
X134970200Y-92575714D02*
X135065438Y-92623333D01*
X135065438Y-92623333D02*
X135113057Y-92623333D01*
X135113057Y-92623333D02*
X135208295Y-92575714D01*
X135208295Y-92575714D02*
X135255914Y-92480476D01*
X135255914Y-92480476D02*
X135255914Y-92337619D01*
X135255914Y-92337619D02*
X135303533Y-92242381D01*
X135303533Y-92242381D02*
X135398771Y-92194762D01*
X135398771Y-92194762D02*
X135446390Y-92194762D01*
X135446390Y-92194762D02*
X135541628Y-92242381D01*
X135541628Y-92242381D02*
X135589247Y-92337619D01*
X135589247Y-92337619D02*
X135589247Y-92480476D01*
X135589247Y-92480476D02*
X135541628Y-92575714D01*
X135589247Y-92956667D02*
X134922580Y-93194762D01*
X135589247Y-93432857D02*
X134922580Y-93194762D01*
X134922580Y-93194762D02*
X134684485Y-93099524D01*
X134684485Y-93099524D02*
X134636866Y-93051905D01*
X134636866Y-93051905D02*
X134589247Y-92956667D01*
X135589247Y-94242381D02*
X134922580Y-94242381D01*
X135970200Y-94004286D02*
X135255914Y-93766191D01*
X135255914Y-93766191D02*
X135255914Y-94385238D01*
X135017819Y-94766191D02*
X134970200Y-94813810D01*
X134970200Y-94813810D02*
X134922580Y-94766191D01*
X134922580Y-94766191D02*
X134970200Y-94718572D01*
X134970200Y-94718572D02*
X135017819Y-94766191D01*
X135017819Y-94766191D02*
X134922580Y-94766191D01*
X134922580Y-95766190D02*
X134922580Y-95194762D01*
X134922580Y-95480476D02*
X135922580Y-95480476D01*
X135922580Y-95480476D02*
X135779723Y-95385238D01*
X135779723Y-95385238D02*
X135684485Y-95290000D01*
X135684485Y-95290000D02*
X135636866Y-95194762D01*
X138128646Y-68802419D02*
X138747693Y-68802419D01*
X138747693Y-68802419D02*
X138414360Y-69183371D01*
X138414360Y-69183371D02*
X138557217Y-69183371D01*
X138557217Y-69183371D02*
X138652455Y-69230990D01*
X138652455Y-69230990D02*
X138700074Y-69278609D01*
X138700074Y-69278609D02*
X138747693Y-69373847D01*
X138747693Y-69373847D02*
X138747693Y-69611942D01*
X138747693Y-69611942D02*
X138700074Y-69707180D01*
X138700074Y-69707180D02*
X138652455Y-69754800D01*
X138652455Y-69754800D02*
X138557217Y-69802419D01*
X138557217Y-69802419D02*
X138271503Y-69802419D01*
X138271503Y-69802419D02*
X138176265Y-69754800D01*
X138176265Y-69754800D02*
X138128646Y-69707180D01*
X139176265Y-69707180D02*
X139223884Y-69754800D01*
X139223884Y-69754800D02*
X139176265Y-69802419D01*
X139176265Y-69802419D02*
X139128646Y-69754800D01*
X139128646Y-69754800D02*
X139176265Y-69707180D01*
X139176265Y-69707180D02*
X139176265Y-69802419D01*
X139557217Y-68802419D02*
X140176264Y-68802419D01*
X140176264Y-68802419D02*
X139842931Y-69183371D01*
X139842931Y-69183371D02*
X139985788Y-69183371D01*
X139985788Y-69183371D02*
X140081026Y-69230990D01*
X140081026Y-69230990D02*
X140128645Y-69278609D01*
X140128645Y-69278609D02*
X140176264Y-69373847D01*
X140176264Y-69373847D02*
X140176264Y-69611942D01*
X140176264Y-69611942D02*
X140128645Y-69707180D01*
X140128645Y-69707180D02*
X140081026Y-69754800D01*
X140081026Y-69754800D02*
X139985788Y-69802419D01*
X139985788Y-69802419D02*
X139700074Y-69802419D01*
X139700074Y-69802419D02*
X139604836Y-69754800D01*
X139604836Y-69754800D02*
X139557217Y-69707180D01*
X140461979Y-68802419D02*
X140795312Y-69802419D01*
X140795312Y-69802419D02*
X141128645Y-68802419D01*
X134237580Y-114683884D02*
X135237580Y-114683884D01*
X135237580Y-114683884D02*
X134523295Y-115017217D01*
X134523295Y-115017217D02*
X135237580Y-115350550D01*
X135237580Y-115350550D02*
X134237580Y-115350550D01*
X134237580Y-115826741D02*
X135237580Y-115826741D01*
X134332819Y-116874359D02*
X134285200Y-116826740D01*
X134285200Y-116826740D02*
X134237580Y-116683883D01*
X134237580Y-116683883D02*
X134237580Y-116588645D01*
X134237580Y-116588645D02*
X134285200Y-116445788D01*
X134285200Y-116445788D02*
X134380438Y-116350550D01*
X134380438Y-116350550D02*
X134475676Y-116302931D01*
X134475676Y-116302931D02*
X134666152Y-116255312D01*
X134666152Y-116255312D02*
X134809009Y-116255312D01*
X134809009Y-116255312D02*
X134999485Y-116302931D01*
X134999485Y-116302931D02*
X135094723Y-116350550D01*
X135094723Y-116350550D02*
X135189961Y-116445788D01*
X135189961Y-116445788D02*
X135237580Y-116588645D01*
X135237580Y-116588645D02*
X135237580Y-116683883D01*
X135237580Y-116683883D02*
X135189961Y-116826740D01*
X135189961Y-116826740D02*
X135142342Y-116874359D01*
X134237580Y-117874359D02*
X134713771Y-117541026D01*
X134237580Y-117302931D02*
X135237580Y-117302931D01*
X135237580Y-117302931D02*
X135237580Y-117683883D01*
X135237580Y-117683883D02*
X135189961Y-117779121D01*
X135189961Y-117779121D02*
X135142342Y-117826740D01*
X135142342Y-117826740D02*
X135047104Y-117874359D01*
X135047104Y-117874359D02*
X134904247Y-117874359D01*
X134904247Y-117874359D02*
X134809009Y-117826740D01*
X134809009Y-117826740D02*
X134761390Y-117779121D01*
X134761390Y-117779121D02*
X134713771Y-117683883D01*
X134713771Y-117683883D02*
X134713771Y-117302931D01*
X135237580Y-118493407D02*
X135237580Y-118683883D01*
X135237580Y-118683883D02*
X135189961Y-118779121D01*
X135189961Y-118779121D02*
X135094723Y-118874359D01*
X135094723Y-118874359D02*
X134904247Y-118921978D01*
X134904247Y-118921978D02*
X134570914Y-118921978D01*
X134570914Y-118921978D02*
X134380438Y-118874359D01*
X134380438Y-118874359D02*
X134285200Y-118779121D01*
X134285200Y-118779121D02*
X134237580Y-118683883D01*
X134237580Y-118683883D02*
X134237580Y-118493407D01*
X134237580Y-118493407D02*
X134285200Y-118398169D01*
X134285200Y-118398169D02*
X134380438Y-118302931D01*
X134380438Y-118302931D02*
X134570914Y-118255312D01*
X134570914Y-118255312D02*
X134904247Y-118255312D01*
X134904247Y-118255312D02*
X135094723Y-118302931D01*
X135094723Y-118302931D02*
X135189961Y-118398169D01*
X135189961Y-118398169D02*
X135237580Y-118493407D01*
X134285200Y-120064836D02*
X134237580Y-120207693D01*
X134237580Y-120207693D02*
X134237580Y-120445788D01*
X134237580Y-120445788D02*
X134285200Y-120541026D01*
X134285200Y-120541026D02*
X134332819Y-120588645D01*
X134332819Y-120588645D02*
X134428057Y-120636264D01*
X134428057Y-120636264D02*
X134523295Y-120636264D01*
X134523295Y-120636264D02*
X134618533Y-120588645D01*
X134618533Y-120588645D02*
X134666152Y-120541026D01*
X134666152Y-120541026D02*
X134713771Y-120445788D01*
X134713771Y-120445788D02*
X134761390Y-120255312D01*
X134761390Y-120255312D02*
X134809009Y-120160074D01*
X134809009Y-120160074D02*
X134856628Y-120112455D01*
X134856628Y-120112455D02*
X134951866Y-120064836D01*
X134951866Y-120064836D02*
X135047104Y-120064836D01*
X135047104Y-120064836D02*
X135142342Y-120112455D01*
X135142342Y-120112455D02*
X135189961Y-120160074D01*
X135189961Y-120160074D02*
X135237580Y-120255312D01*
X135237580Y-120255312D02*
X135237580Y-120493407D01*
X135237580Y-120493407D02*
X135189961Y-120636264D01*
X134237580Y-121064836D02*
X135237580Y-121064836D01*
X135237580Y-121064836D02*
X135237580Y-121302931D01*
X135237580Y-121302931D02*
X135189961Y-121445788D01*
X135189961Y-121445788D02*
X135094723Y-121541026D01*
X135094723Y-121541026D02*
X134999485Y-121588645D01*
X134999485Y-121588645D02*
X134809009Y-121636264D01*
X134809009Y-121636264D02*
X134666152Y-121636264D01*
X134666152Y-121636264D02*
X134475676Y-121588645D01*
X134475676Y-121588645D02*
X134380438Y-121541026D01*
X134380438Y-121541026D02*
X134285200Y-121445788D01*
X134285200Y-121445788D02*
X134237580Y-121302931D01*
X134237580Y-121302931D02*
X134237580Y-121064836D01*
X129857693Y-122190038D02*
X129762455Y-122142419D01*
X129762455Y-122142419D02*
X129619598Y-122142419D01*
X129619598Y-122142419D02*
X129476741Y-122190038D01*
X129476741Y-122190038D02*
X129381503Y-122285276D01*
X129381503Y-122285276D02*
X129333884Y-122380514D01*
X129333884Y-122380514D02*
X129286265Y-122570990D01*
X129286265Y-122570990D02*
X129286265Y-122713847D01*
X129286265Y-122713847D02*
X129333884Y-122904323D01*
X129333884Y-122904323D02*
X129381503Y-122999561D01*
X129381503Y-122999561D02*
X129476741Y-123094800D01*
X129476741Y-123094800D02*
X129619598Y-123142419D01*
X129619598Y-123142419D02*
X129714836Y-123142419D01*
X129714836Y-123142419D02*
X129857693Y-123094800D01*
X129857693Y-123094800D02*
X129905312Y-123047180D01*
X129905312Y-123047180D02*
X129905312Y-122713847D01*
X129905312Y-122713847D02*
X129714836Y-122713847D01*
X130333884Y-123142419D02*
X130333884Y-122142419D01*
X130333884Y-122142419D02*
X130714836Y-122142419D01*
X130714836Y-122142419D02*
X130810074Y-122190038D01*
X130810074Y-122190038D02*
X130857693Y-122237657D01*
X130857693Y-122237657D02*
X130905312Y-122332895D01*
X130905312Y-122332895D02*
X130905312Y-122475752D01*
X130905312Y-122475752D02*
X130857693Y-122570990D01*
X130857693Y-122570990D02*
X130810074Y-122618609D01*
X130810074Y-122618609D02*
X130714836Y-122666228D01*
X130714836Y-122666228D02*
X130333884Y-122666228D01*
X131333884Y-123142419D02*
X131333884Y-122142419D01*
X132000550Y-122142419D02*
X132191026Y-122142419D01*
X132191026Y-122142419D02*
X132286264Y-122190038D01*
X132286264Y-122190038D02*
X132381502Y-122285276D01*
X132381502Y-122285276D02*
X132429121Y-122475752D01*
X132429121Y-122475752D02*
X132429121Y-122809085D01*
X132429121Y-122809085D02*
X132381502Y-122999561D01*
X132381502Y-122999561D02*
X132286264Y-123094800D01*
X132286264Y-123094800D02*
X132191026Y-123142419D01*
X132191026Y-123142419D02*
X132000550Y-123142419D01*
X132000550Y-123142419D02*
X131905312Y-123094800D01*
X131905312Y-123094800D02*
X131810074Y-122999561D01*
X131810074Y-122999561D02*
X131762455Y-122809085D01*
X131762455Y-122809085D02*
X131762455Y-122475752D01*
X131762455Y-122475752D02*
X131810074Y-122285276D01*
X131810074Y-122285276D02*
X131905312Y-122190038D01*
X131905312Y-122190038D02*
X132000550Y-122142419D01*
X138795312Y-120602419D02*
X138461979Y-120126228D01*
X138223884Y-120602419D02*
X138223884Y-119602419D01*
X138223884Y-119602419D02*
X138604836Y-119602419D01*
X138604836Y-119602419D02*
X138700074Y-119650038D01*
X138700074Y-119650038D02*
X138747693Y-119697657D01*
X138747693Y-119697657D02*
X138795312Y-119792895D01*
X138795312Y-119792895D02*
X138795312Y-119935752D01*
X138795312Y-119935752D02*
X138747693Y-120030990D01*
X138747693Y-120030990D02*
X138700074Y-120078609D01*
X138700074Y-120078609D02*
X138604836Y-120126228D01*
X138604836Y-120126228D02*
X138223884Y-120126228D01*
X139128646Y-119602419D02*
X139795312Y-120602419D01*
X139795312Y-119602419D02*
X139128646Y-120602419D01*
X140319122Y-120030990D02*
X140223884Y-119983371D01*
X140223884Y-119983371D02*
X140176265Y-119935752D01*
X140176265Y-119935752D02*
X140128646Y-119840514D01*
X140128646Y-119840514D02*
X140128646Y-119792895D01*
X140128646Y-119792895D02*
X140176265Y-119697657D01*
X140176265Y-119697657D02*
X140223884Y-119650038D01*
X140223884Y-119650038D02*
X140319122Y-119602419D01*
X140319122Y-119602419D02*
X140509598Y-119602419D01*
X140509598Y-119602419D02*
X140604836Y-119650038D01*
X140604836Y-119650038D02*
X140652455Y-119697657D01*
X140652455Y-119697657D02*
X140700074Y-119792895D01*
X140700074Y-119792895D02*
X140700074Y-119840514D01*
X140700074Y-119840514D02*
X140652455Y-119935752D01*
X140652455Y-119935752D02*
X140604836Y-119983371D01*
X140604836Y-119983371D02*
X140509598Y-120030990D01*
X140509598Y-120030990D02*
X140319122Y-120030990D01*
X140319122Y-120030990D02*
X140223884Y-120078609D01*
X140223884Y-120078609D02*
X140176265Y-120126228D01*
X140176265Y-120126228D02*
X140128646Y-120221466D01*
X140128646Y-120221466D02*
X140128646Y-120411942D01*
X140128646Y-120411942D02*
X140176265Y-120507180D01*
X140176265Y-120507180D02*
X140223884Y-120554800D01*
X140223884Y-120554800D02*
X140319122Y-120602419D01*
X140319122Y-120602419D02*
X140509598Y-120602419D01*
X140509598Y-120602419D02*
X140604836Y-120554800D01*
X140604836Y-120554800D02*
X140652455Y-120507180D01*
X140652455Y-120507180D02*
X140700074Y-120411942D01*
X140700074Y-120411942D02*
X140700074Y-120221466D01*
X140700074Y-120221466D02*
X140652455Y-120126228D01*
X140652455Y-120126228D02*
X140604836Y-120078609D01*
X140604836Y-120078609D02*
X140509598Y-120030990D01*
X129333884Y-77422419D02*
X129333884Y-76422419D01*
X129333884Y-76422419D02*
X129714836Y-76422419D01*
X129714836Y-76422419D02*
X129810074Y-76470038D01*
X129810074Y-76470038D02*
X129857693Y-76517657D01*
X129857693Y-76517657D02*
X129905312Y-76612895D01*
X129905312Y-76612895D02*
X129905312Y-76755752D01*
X129905312Y-76755752D02*
X129857693Y-76850990D01*
X129857693Y-76850990D02*
X129810074Y-76898609D01*
X129810074Y-76898609D02*
X129714836Y-76946228D01*
X129714836Y-76946228D02*
X129333884Y-76946228D01*
X130238646Y-76422419D02*
X130476741Y-77422419D01*
X130476741Y-77422419D02*
X130667217Y-76708133D01*
X130667217Y-76708133D02*
X130857693Y-77422419D01*
X130857693Y-77422419D02*
X131095789Y-76422419D01*
X131476741Y-77422419D02*
X131476741Y-76422419D01*
X131476741Y-76422419D02*
X131810074Y-77136704D01*
X131810074Y-77136704D02*
X132143407Y-76422419D01*
X132143407Y-76422419D02*
X132143407Y-77422419D01*
X129857693Y-117110038D02*
X129762455Y-117062419D01*
X129762455Y-117062419D02*
X129619598Y-117062419D01*
X129619598Y-117062419D02*
X129476741Y-117110038D01*
X129476741Y-117110038D02*
X129381503Y-117205276D01*
X129381503Y-117205276D02*
X129333884Y-117300514D01*
X129333884Y-117300514D02*
X129286265Y-117490990D01*
X129286265Y-117490990D02*
X129286265Y-117633847D01*
X129286265Y-117633847D02*
X129333884Y-117824323D01*
X129333884Y-117824323D02*
X129381503Y-117919561D01*
X129381503Y-117919561D02*
X129476741Y-118014800D01*
X129476741Y-118014800D02*
X129619598Y-118062419D01*
X129619598Y-118062419D02*
X129714836Y-118062419D01*
X129714836Y-118062419D02*
X129857693Y-118014800D01*
X129857693Y-118014800D02*
X129905312Y-117967180D01*
X129905312Y-117967180D02*
X129905312Y-117633847D01*
X129905312Y-117633847D02*
X129714836Y-117633847D01*
X130333884Y-118062419D02*
X130333884Y-117062419D01*
X130333884Y-117062419D02*
X130714836Y-117062419D01*
X130714836Y-117062419D02*
X130810074Y-117110038D01*
X130810074Y-117110038D02*
X130857693Y-117157657D01*
X130857693Y-117157657D02*
X130905312Y-117252895D01*
X130905312Y-117252895D02*
X130905312Y-117395752D01*
X130905312Y-117395752D02*
X130857693Y-117490990D01*
X130857693Y-117490990D02*
X130810074Y-117538609D01*
X130810074Y-117538609D02*
X130714836Y-117586228D01*
X130714836Y-117586228D02*
X130333884Y-117586228D01*
X131333884Y-118062419D02*
X131333884Y-117062419D01*
X132000550Y-117062419D02*
X132191026Y-117062419D01*
X132191026Y-117062419D02*
X132286264Y-117110038D01*
X132286264Y-117110038D02*
X132381502Y-117205276D01*
X132381502Y-117205276D02*
X132429121Y-117395752D01*
X132429121Y-117395752D02*
X132429121Y-117729085D01*
X132429121Y-117729085D02*
X132381502Y-117919561D01*
X132381502Y-117919561D02*
X132286264Y-118014800D01*
X132286264Y-118014800D02*
X132191026Y-118062419D01*
X132191026Y-118062419D02*
X132000550Y-118062419D01*
X132000550Y-118062419D02*
X131905312Y-118014800D01*
X131905312Y-118014800D02*
X131810074Y-117919561D01*
X131810074Y-117919561D02*
X131762455Y-117729085D01*
X131762455Y-117729085D02*
X131762455Y-117395752D01*
X131762455Y-117395752D02*
X131810074Y-117205276D01*
X131810074Y-117205276D02*
X131905312Y-117110038D01*
X131905312Y-117110038D02*
X132000550Y-117062419D01*
X129286265Y-102774800D02*
X129429122Y-102822419D01*
X129429122Y-102822419D02*
X129667217Y-102822419D01*
X129667217Y-102822419D02*
X129762455Y-102774800D01*
X129762455Y-102774800D02*
X129810074Y-102727180D01*
X129810074Y-102727180D02*
X129857693Y-102631942D01*
X129857693Y-102631942D02*
X129857693Y-102536704D01*
X129857693Y-102536704D02*
X129810074Y-102441466D01*
X129810074Y-102441466D02*
X129762455Y-102393847D01*
X129762455Y-102393847D02*
X129667217Y-102346228D01*
X129667217Y-102346228D02*
X129476741Y-102298609D01*
X129476741Y-102298609D02*
X129381503Y-102250990D01*
X129381503Y-102250990D02*
X129333884Y-102203371D01*
X129333884Y-102203371D02*
X129286265Y-102108133D01*
X129286265Y-102108133D02*
X129286265Y-102012895D01*
X129286265Y-102012895D02*
X129333884Y-101917657D01*
X129333884Y-101917657D02*
X129381503Y-101870038D01*
X129381503Y-101870038D02*
X129476741Y-101822419D01*
X129476741Y-101822419D02*
X129714836Y-101822419D01*
X129714836Y-101822419D02*
X129857693Y-101870038D01*
X130857693Y-102727180D02*
X130810074Y-102774800D01*
X130810074Y-102774800D02*
X130667217Y-102822419D01*
X130667217Y-102822419D02*
X130571979Y-102822419D01*
X130571979Y-102822419D02*
X130429122Y-102774800D01*
X130429122Y-102774800D02*
X130333884Y-102679561D01*
X130333884Y-102679561D02*
X130286265Y-102584323D01*
X130286265Y-102584323D02*
X130238646Y-102393847D01*
X130238646Y-102393847D02*
X130238646Y-102250990D01*
X130238646Y-102250990D02*
X130286265Y-102060514D01*
X130286265Y-102060514D02*
X130333884Y-101965276D01*
X130333884Y-101965276D02*
X130429122Y-101870038D01*
X130429122Y-101870038D02*
X130571979Y-101822419D01*
X130571979Y-101822419D02*
X130667217Y-101822419D01*
X130667217Y-101822419D02*
X130810074Y-101870038D01*
X130810074Y-101870038D02*
X130857693Y-101917657D01*
X131762455Y-102822419D02*
X131286265Y-102822419D01*
X131286265Y-102822419D02*
X131286265Y-101822419D01*
X132048170Y-101917657D02*
X132095789Y-101870038D01*
X132095789Y-101870038D02*
X132191027Y-101822419D01*
X132191027Y-101822419D02*
X132429122Y-101822419D01*
X132429122Y-101822419D02*
X132524360Y-101870038D01*
X132524360Y-101870038D02*
X132571979Y-101917657D01*
X132571979Y-101917657D02*
X132619598Y-102012895D01*
X132619598Y-102012895D02*
X132619598Y-102108133D01*
X132619598Y-102108133D02*
X132571979Y-102250990D01*
X132571979Y-102250990D02*
X132000551Y-102822419D01*
X132000551Y-102822419D02*
X132619598Y-102822419D01*
X138176265Y-82454800D02*
X138319122Y-82502419D01*
X138319122Y-82502419D02*
X138557217Y-82502419D01*
X138557217Y-82502419D02*
X138652455Y-82454800D01*
X138652455Y-82454800D02*
X138700074Y-82407180D01*
X138700074Y-82407180D02*
X138747693Y-82311942D01*
X138747693Y-82311942D02*
X138747693Y-82216704D01*
X138747693Y-82216704D02*
X138700074Y-82121466D01*
X138700074Y-82121466D02*
X138652455Y-82073847D01*
X138652455Y-82073847D02*
X138557217Y-82026228D01*
X138557217Y-82026228D02*
X138366741Y-81978609D01*
X138366741Y-81978609D02*
X138271503Y-81930990D01*
X138271503Y-81930990D02*
X138223884Y-81883371D01*
X138223884Y-81883371D02*
X138176265Y-81788133D01*
X138176265Y-81788133D02*
X138176265Y-81692895D01*
X138176265Y-81692895D02*
X138223884Y-81597657D01*
X138223884Y-81597657D02*
X138271503Y-81550038D01*
X138271503Y-81550038D02*
X138366741Y-81502419D01*
X138366741Y-81502419D02*
X138604836Y-81502419D01*
X138604836Y-81502419D02*
X138747693Y-81550038D01*
X139747693Y-82407180D02*
X139700074Y-82454800D01*
X139700074Y-82454800D02*
X139557217Y-82502419D01*
X139557217Y-82502419D02*
X139461979Y-82502419D01*
X139461979Y-82502419D02*
X139319122Y-82454800D01*
X139319122Y-82454800D02*
X139223884Y-82359561D01*
X139223884Y-82359561D02*
X139176265Y-82264323D01*
X139176265Y-82264323D02*
X139128646Y-82073847D01*
X139128646Y-82073847D02*
X139128646Y-81930990D01*
X139128646Y-81930990D02*
X139176265Y-81740514D01*
X139176265Y-81740514D02*
X139223884Y-81645276D01*
X139223884Y-81645276D02*
X139319122Y-81550038D01*
X139319122Y-81550038D02*
X139461979Y-81502419D01*
X139461979Y-81502419D02*
X139557217Y-81502419D01*
X139557217Y-81502419D02*
X139700074Y-81550038D01*
X139700074Y-81550038D02*
X139747693Y-81597657D01*
X140652455Y-82502419D02*
X140176265Y-82502419D01*
X140176265Y-82502419D02*
X140176265Y-81502419D01*
X138795312Y-77422419D02*
X138461979Y-76946228D01*
X138223884Y-77422419D02*
X138223884Y-76422419D01*
X138223884Y-76422419D02*
X138604836Y-76422419D01*
X138604836Y-76422419D02*
X138700074Y-76470038D01*
X138700074Y-76470038D02*
X138747693Y-76517657D01*
X138747693Y-76517657D02*
X138795312Y-76612895D01*
X138795312Y-76612895D02*
X138795312Y-76755752D01*
X138795312Y-76755752D02*
X138747693Y-76850990D01*
X138747693Y-76850990D02*
X138700074Y-76898609D01*
X138700074Y-76898609D02*
X138604836Y-76946228D01*
X138604836Y-76946228D02*
X138223884Y-76946228D01*
X139128646Y-76422419D02*
X139795312Y-77422419D01*
X139795312Y-76422419D02*
X139128646Y-77422419D01*
X140652455Y-76422419D02*
X140176265Y-76422419D01*
X140176265Y-76422419D02*
X140128646Y-76898609D01*
X140128646Y-76898609D02*
X140176265Y-76850990D01*
X140176265Y-76850990D02*
X140271503Y-76803371D01*
X140271503Y-76803371D02*
X140509598Y-76803371D01*
X140509598Y-76803371D02*
X140604836Y-76850990D01*
X140604836Y-76850990D02*
X140652455Y-76898609D01*
X140652455Y-76898609D02*
X140700074Y-76993847D01*
X140700074Y-76993847D02*
X140700074Y-77231942D01*
X140700074Y-77231942D02*
X140652455Y-77327180D01*
X140652455Y-77327180D02*
X140604836Y-77374800D01*
X140604836Y-77374800D02*
X140509598Y-77422419D01*
X140509598Y-77422419D02*
X140271503Y-77422419D01*
X140271503Y-77422419D02*
X140176265Y-77374800D01*
X140176265Y-77374800D02*
X140128646Y-77327180D01*
X129191027Y-114522419D02*
X129762455Y-114522419D01*
X129476741Y-115522419D02*
X129476741Y-114522419D01*
X130000551Y-114522419D02*
X130667217Y-115522419D01*
X130667217Y-114522419D02*
X130000551Y-115522419D01*
X130952932Y-114522419D02*
X131619598Y-114522419D01*
X131619598Y-114522419D02*
X131191027Y-115522419D01*
X138176265Y-84994800D02*
X138319122Y-85042419D01*
X138319122Y-85042419D02*
X138557217Y-85042419D01*
X138557217Y-85042419D02*
X138652455Y-84994800D01*
X138652455Y-84994800D02*
X138700074Y-84947180D01*
X138700074Y-84947180D02*
X138747693Y-84851942D01*
X138747693Y-84851942D02*
X138747693Y-84756704D01*
X138747693Y-84756704D02*
X138700074Y-84661466D01*
X138700074Y-84661466D02*
X138652455Y-84613847D01*
X138652455Y-84613847D02*
X138557217Y-84566228D01*
X138557217Y-84566228D02*
X138366741Y-84518609D01*
X138366741Y-84518609D02*
X138271503Y-84470990D01*
X138271503Y-84470990D02*
X138223884Y-84423371D01*
X138223884Y-84423371D02*
X138176265Y-84328133D01*
X138176265Y-84328133D02*
X138176265Y-84232895D01*
X138176265Y-84232895D02*
X138223884Y-84137657D01*
X138223884Y-84137657D02*
X138271503Y-84090038D01*
X138271503Y-84090038D02*
X138366741Y-84042419D01*
X138366741Y-84042419D02*
X138604836Y-84042419D01*
X138604836Y-84042419D02*
X138747693Y-84090038D01*
X139176265Y-85042419D02*
X139176265Y-84042419D01*
X139176265Y-84042419D02*
X139414360Y-84042419D01*
X139414360Y-84042419D02*
X139557217Y-84090038D01*
X139557217Y-84090038D02*
X139652455Y-84185276D01*
X139652455Y-84185276D02*
X139700074Y-84280514D01*
X139700074Y-84280514D02*
X139747693Y-84470990D01*
X139747693Y-84470990D02*
X139747693Y-84613847D01*
X139747693Y-84613847D02*
X139700074Y-84804323D01*
X139700074Y-84804323D02*
X139652455Y-84899561D01*
X139652455Y-84899561D02*
X139557217Y-84994800D01*
X139557217Y-84994800D02*
X139414360Y-85042419D01*
X139414360Y-85042419D02*
X139176265Y-85042419D01*
X140128646Y-84756704D02*
X140604836Y-84756704D01*
X140033408Y-85042419D02*
X140366741Y-84042419D01*
X140366741Y-84042419D02*
X140700074Y-85042419D01*
X138081027Y-117062419D02*
X138652455Y-117062419D01*
X138366741Y-118062419D02*
X138366741Y-117062419D01*
X138890551Y-117062419D02*
X139557217Y-118062419D01*
X139557217Y-117062419D02*
X138890551Y-118062419D01*
X140081027Y-117490990D02*
X139985789Y-117443371D01*
X139985789Y-117443371D02*
X139938170Y-117395752D01*
X139938170Y-117395752D02*
X139890551Y-117300514D01*
X139890551Y-117300514D02*
X139890551Y-117252895D01*
X139890551Y-117252895D02*
X139938170Y-117157657D01*
X139938170Y-117157657D02*
X139985789Y-117110038D01*
X139985789Y-117110038D02*
X140081027Y-117062419D01*
X140081027Y-117062419D02*
X140271503Y-117062419D01*
X140271503Y-117062419D02*
X140366741Y-117110038D01*
X140366741Y-117110038D02*
X140414360Y-117157657D01*
X140414360Y-117157657D02*
X140461979Y-117252895D01*
X140461979Y-117252895D02*
X140461979Y-117300514D01*
X140461979Y-117300514D02*
X140414360Y-117395752D01*
X140414360Y-117395752D02*
X140366741Y-117443371D01*
X140366741Y-117443371D02*
X140271503Y-117490990D01*
X140271503Y-117490990D02*
X140081027Y-117490990D01*
X140081027Y-117490990D02*
X139985789Y-117538609D01*
X139985789Y-117538609D02*
X139938170Y-117586228D01*
X139938170Y-117586228D02*
X139890551Y-117681466D01*
X139890551Y-117681466D02*
X139890551Y-117871942D01*
X139890551Y-117871942D02*
X139938170Y-117967180D01*
X139938170Y-117967180D02*
X139985789Y-118014800D01*
X139985789Y-118014800D02*
X140081027Y-118062419D01*
X140081027Y-118062419D02*
X140271503Y-118062419D01*
X140271503Y-118062419D02*
X140366741Y-118014800D01*
X140366741Y-118014800D02*
X140414360Y-117967180D01*
X140414360Y-117967180D02*
X140461979Y-117871942D01*
X140461979Y-117871942D02*
X140461979Y-117681466D01*
X140461979Y-117681466D02*
X140414360Y-117586228D01*
X140414360Y-117586228D02*
X140366741Y-117538609D01*
X140366741Y-117538609D02*
X140271503Y-117490990D01*
X129191027Y-68802419D02*
X129762455Y-68802419D01*
X129476741Y-69802419D02*
X129476741Y-68802419D01*
X130000551Y-68802419D02*
X130667217Y-69802419D01*
X130667217Y-68802419D02*
X130000551Y-69802419D01*
X131571979Y-69802419D02*
X131000551Y-69802419D01*
X131286265Y-69802419D02*
X131286265Y-68802419D01*
X131286265Y-68802419D02*
X131191027Y-68945276D01*
X131191027Y-68945276D02*
X131095789Y-69040514D01*
X131095789Y-69040514D02*
X131000551Y-69088133D01*
X129333884Y-72342419D02*
X129333884Y-71342419D01*
X129333884Y-71342419D02*
X129714836Y-71342419D01*
X129714836Y-71342419D02*
X129810074Y-71390038D01*
X129810074Y-71390038D02*
X129857693Y-71437657D01*
X129857693Y-71437657D02*
X129905312Y-71532895D01*
X129905312Y-71532895D02*
X129905312Y-71675752D01*
X129905312Y-71675752D02*
X129857693Y-71770990D01*
X129857693Y-71770990D02*
X129810074Y-71818609D01*
X129810074Y-71818609D02*
X129714836Y-71866228D01*
X129714836Y-71866228D02*
X129333884Y-71866228D01*
X130238646Y-71342419D02*
X130476741Y-72342419D01*
X130476741Y-72342419D02*
X130667217Y-71628133D01*
X130667217Y-71628133D02*
X130857693Y-72342419D01*
X130857693Y-72342419D02*
X131095789Y-71342419D01*
X131476741Y-72342419D02*
X131476741Y-71342419D01*
X131476741Y-71342419D02*
X131810074Y-72056704D01*
X131810074Y-72056704D02*
X132143407Y-71342419D01*
X132143407Y-71342419D02*
X132143407Y-72342419D01*
X138747693Y-66310038D02*
X138652455Y-66262419D01*
X138652455Y-66262419D02*
X138509598Y-66262419D01*
X138509598Y-66262419D02*
X138366741Y-66310038D01*
X138366741Y-66310038D02*
X138271503Y-66405276D01*
X138271503Y-66405276D02*
X138223884Y-66500514D01*
X138223884Y-66500514D02*
X138176265Y-66690990D01*
X138176265Y-66690990D02*
X138176265Y-66833847D01*
X138176265Y-66833847D02*
X138223884Y-67024323D01*
X138223884Y-67024323D02*
X138271503Y-67119561D01*
X138271503Y-67119561D02*
X138366741Y-67214800D01*
X138366741Y-67214800D02*
X138509598Y-67262419D01*
X138509598Y-67262419D02*
X138604836Y-67262419D01*
X138604836Y-67262419D02*
X138747693Y-67214800D01*
X138747693Y-67214800D02*
X138795312Y-67167180D01*
X138795312Y-67167180D02*
X138795312Y-66833847D01*
X138795312Y-66833847D02*
X138604836Y-66833847D01*
X139223884Y-67262419D02*
X139223884Y-66262419D01*
X139223884Y-66262419D02*
X139795312Y-67262419D01*
X139795312Y-67262419D02*
X139795312Y-66262419D01*
X140271503Y-67262419D02*
X140271503Y-66262419D01*
X140271503Y-66262419D02*
X140509598Y-66262419D01*
X140509598Y-66262419D02*
X140652455Y-66310038D01*
X140652455Y-66310038D02*
X140747693Y-66405276D01*
X140747693Y-66405276D02*
X140795312Y-66500514D01*
X140795312Y-66500514D02*
X140842931Y-66690990D01*
X140842931Y-66690990D02*
X140842931Y-66833847D01*
X140842931Y-66833847D02*
X140795312Y-67024323D01*
X140795312Y-67024323D02*
X140747693Y-67119561D01*
X140747693Y-67119561D02*
X140652455Y-67214800D01*
X140652455Y-67214800D02*
X140509598Y-67262419D01*
X140509598Y-67262419D02*
X140271503Y-67262419D01*
X135237580Y-63883884D02*
X134428057Y-63883884D01*
X134428057Y-63883884D02*
X134332819Y-63931503D01*
X134332819Y-63931503D02*
X134285200Y-63979122D01*
X134285200Y-63979122D02*
X134237580Y-64074360D01*
X134237580Y-64074360D02*
X134237580Y-64264836D01*
X134237580Y-64264836D02*
X134285200Y-64360074D01*
X134285200Y-64360074D02*
X134332819Y-64407693D01*
X134332819Y-64407693D02*
X134428057Y-64455312D01*
X134428057Y-64455312D02*
X135237580Y-64455312D01*
X134285200Y-64883884D02*
X134237580Y-65026741D01*
X134237580Y-65026741D02*
X134237580Y-65264836D01*
X134237580Y-65264836D02*
X134285200Y-65360074D01*
X134285200Y-65360074D02*
X134332819Y-65407693D01*
X134332819Y-65407693D02*
X134428057Y-65455312D01*
X134428057Y-65455312D02*
X134523295Y-65455312D01*
X134523295Y-65455312D02*
X134618533Y-65407693D01*
X134618533Y-65407693D02*
X134666152Y-65360074D01*
X134666152Y-65360074D02*
X134713771Y-65264836D01*
X134713771Y-65264836D02*
X134761390Y-65074360D01*
X134761390Y-65074360D02*
X134809009Y-64979122D01*
X134809009Y-64979122D02*
X134856628Y-64931503D01*
X134856628Y-64931503D02*
X134951866Y-64883884D01*
X134951866Y-64883884D02*
X135047104Y-64883884D01*
X135047104Y-64883884D02*
X135142342Y-64931503D01*
X135142342Y-64931503D02*
X135189961Y-64979122D01*
X135189961Y-64979122D02*
X135237580Y-65074360D01*
X135237580Y-65074360D02*
X135237580Y-65312455D01*
X135237580Y-65312455D02*
X135189961Y-65455312D01*
X134761390Y-66217217D02*
X134713771Y-66360074D01*
X134713771Y-66360074D02*
X134666152Y-66407693D01*
X134666152Y-66407693D02*
X134570914Y-66455312D01*
X134570914Y-66455312D02*
X134428057Y-66455312D01*
X134428057Y-66455312D02*
X134332819Y-66407693D01*
X134332819Y-66407693D02*
X134285200Y-66360074D01*
X134285200Y-66360074D02*
X134237580Y-66264836D01*
X134237580Y-66264836D02*
X134237580Y-65883884D01*
X134237580Y-65883884D02*
X135237580Y-65883884D01*
X135237580Y-65883884D02*
X135237580Y-66217217D01*
X135237580Y-66217217D02*
X135189961Y-66312455D01*
X135189961Y-66312455D02*
X135142342Y-66360074D01*
X135142342Y-66360074D02*
X135047104Y-66407693D01*
X135047104Y-66407693D02*
X134951866Y-66407693D01*
X134951866Y-66407693D02*
X134856628Y-66360074D01*
X134856628Y-66360074D02*
X134809009Y-66312455D01*
X134809009Y-66312455D02*
X134761390Y-66217217D01*
X134761390Y-66217217D02*
X134761390Y-65883884D01*
X134332819Y-68217217D02*
X134285200Y-68169598D01*
X134285200Y-68169598D02*
X134237580Y-68026741D01*
X134237580Y-68026741D02*
X134237580Y-67931503D01*
X134237580Y-67931503D02*
X134285200Y-67788646D01*
X134285200Y-67788646D02*
X134380438Y-67693408D01*
X134380438Y-67693408D02*
X134475676Y-67645789D01*
X134475676Y-67645789D02*
X134666152Y-67598170D01*
X134666152Y-67598170D02*
X134809009Y-67598170D01*
X134809009Y-67598170D02*
X134999485Y-67645789D01*
X134999485Y-67645789D02*
X135094723Y-67693408D01*
X135094723Y-67693408D02*
X135189961Y-67788646D01*
X135189961Y-67788646D02*
X135237580Y-67931503D01*
X135237580Y-67931503D02*
X135237580Y-68026741D01*
X135237580Y-68026741D02*
X135189961Y-68169598D01*
X135189961Y-68169598D02*
X135142342Y-68217217D01*
X129191027Y-86582419D02*
X129762455Y-86582419D01*
X129476741Y-87582419D02*
X129476741Y-86582419D01*
X130000551Y-86582419D02*
X130667217Y-87582419D01*
X130667217Y-86582419D02*
X130000551Y-87582419D01*
X131000551Y-86677657D02*
X131048170Y-86630038D01*
X131048170Y-86630038D02*
X131143408Y-86582419D01*
X131143408Y-86582419D02*
X131381503Y-86582419D01*
X131381503Y-86582419D02*
X131476741Y-86630038D01*
X131476741Y-86630038D02*
X131524360Y-86677657D01*
X131524360Y-86677657D02*
X131571979Y-86772895D01*
X131571979Y-86772895D02*
X131571979Y-86868133D01*
X131571979Y-86868133D02*
X131524360Y-87010990D01*
X131524360Y-87010990D02*
X130952932Y-87582419D01*
X130952932Y-87582419D02*
X131571979Y-87582419D01*
X138176265Y-97694800D02*
X138319122Y-97742419D01*
X138319122Y-97742419D02*
X138557217Y-97742419D01*
X138557217Y-97742419D02*
X138652455Y-97694800D01*
X138652455Y-97694800D02*
X138700074Y-97647180D01*
X138700074Y-97647180D02*
X138747693Y-97551942D01*
X138747693Y-97551942D02*
X138747693Y-97456704D01*
X138747693Y-97456704D02*
X138700074Y-97361466D01*
X138700074Y-97361466D02*
X138652455Y-97313847D01*
X138652455Y-97313847D02*
X138557217Y-97266228D01*
X138557217Y-97266228D02*
X138366741Y-97218609D01*
X138366741Y-97218609D02*
X138271503Y-97170990D01*
X138271503Y-97170990D02*
X138223884Y-97123371D01*
X138223884Y-97123371D02*
X138176265Y-97028133D01*
X138176265Y-97028133D02*
X138176265Y-96932895D01*
X138176265Y-96932895D02*
X138223884Y-96837657D01*
X138223884Y-96837657D02*
X138271503Y-96790038D01*
X138271503Y-96790038D02*
X138366741Y-96742419D01*
X138366741Y-96742419D02*
X138604836Y-96742419D01*
X138604836Y-96742419D02*
X138747693Y-96790038D01*
X139747693Y-97647180D02*
X139700074Y-97694800D01*
X139700074Y-97694800D02*
X139557217Y-97742419D01*
X139557217Y-97742419D02*
X139461979Y-97742419D01*
X139461979Y-97742419D02*
X139319122Y-97694800D01*
X139319122Y-97694800D02*
X139223884Y-97599561D01*
X139223884Y-97599561D02*
X139176265Y-97504323D01*
X139176265Y-97504323D02*
X139128646Y-97313847D01*
X139128646Y-97313847D02*
X139128646Y-97170990D01*
X139128646Y-97170990D02*
X139176265Y-96980514D01*
X139176265Y-96980514D02*
X139223884Y-96885276D01*
X139223884Y-96885276D02*
X139319122Y-96790038D01*
X139319122Y-96790038D02*
X139461979Y-96742419D01*
X139461979Y-96742419D02*
X139557217Y-96742419D01*
X139557217Y-96742419D02*
X139700074Y-96790038D01*
X139700074Y-96790038D02*
X139747693Y-96837657D01*
X140176265Y-97742419D02*
X140176265Y-96742419D01*
X140747693Y-97742419D02*
X140319122Y-97170990D01*
X140747693Y-96742419D02*
X140176265Y-97313847D01*
X129333884Y-95202419D02*
X129333884Y-94202419D01*
X129333884Y-94202419D02*
X129667217Y-94916704D01*
X129667217Y-94916704D02*
X130000550Y-94202419D01*
X130000550Y-94202419D02*
X130000550Y-95202419D01*
X130667217Y-94202419D02*
X130857693Y-94202419D01*
X130857693Y-94202419D02*
X130952931Y-94250038D01*
X130952931Y-94250038D02*
X131048169Y-94345276D01*
X131048169Y-94345276D02*
X131095788Y-94535752D01*
X131095788Y-94535752D02*
X131095788Y-94869085D01*
X131095788Y-94869085D02*
X131048169Y-95059561D01*
X131048169Y-95059561D02*
X130952931Y-95154800D01*
X130952931Y-95154800D02*
X130857693Y-95202419D01*
X130857693Y-95202419D02*
X130667217Y-95202419D01*
X130667217Y-95202419D02*
X130571979Y-95154800D01*
X130571979Y-95154800D02*
X130476741Y-95059561D01*
X130476741Y-95059561D02*
X130429122Y-94869085D01*
X130429122Y-94869085D02*
X130429122Y-94535752D01*
X130429122Y-94535752D02*
X130476741Y-94345276D01*
X130476741Y-94345276D02*
X130571979Y-94250038D01*
X130571979Y-94250038D02*
X130667217Y-94202419D01*
X131476741Y-95154800D02*
X131619598Y-95202419D01*
X131619598Y-95202419D02*
X131857693Y-95202419D01*
X131857693Y-95202419D02*
X131952931Y-95154800D01*
X131952931Y-95154800D02*
X132000550Y-95107180D01*
X132000550Y-95107180D02*
X132048169Y-95011942D01*
X132048169Y-95011942D02*
X132048169Y-94916704D01*
X132048169Y-94916704D02*
X132000550Y-94821466D01*
X132000550Y-94821466D02*
X131952931Y-94773847D01*
X131952931Y-94773847D02*
X131857693Y-94726228D01*
X131857693Y-94726228D02*
X131667217Y-94678609D01*
X131667217Y-94678609D02*
X131571979Y-94630990D01*
X131571979Y-94630990D02*
X131524360Y-94583371D01*
X131524360Y-94583371D02*
X131476741Y-94488133D01*
X131476741Y-94488133D02*
X131476741Y-94392895D01*
X131476741Y-94392895D02*
X131524360Y-94297657D01*
X131524360Y-94297657D02*
X131571979Y-94250038D01*
X131571979Y-94250038D02*
X131667217Y-94202419D01*
X131667217Y-94202419D02*
X131905312Y-94202419D01*
X131905312Y-94202419D02*
X132048169Y-94250038D01*
X132476741Y-95202419D02*
X132476741Y-94202419D01*
X129857693Y-63770038D02*
X129762455Y-63722419D01*
X129762455Y-63722419D02*
X129619598Y-63722419D01*
X129619598Y-63722419D02*
X129476741Y-63770038D01*
X129476741Y-63770038D02*
X129381503Y-63865276D01*
X129381503Y-63865276D02*
X129333884Y-63960514D01*
X129333884Y-63960514D02*
X129286265Y-64150990D01*
X129286265Y-64150990D02*
X129286265Y-64293847D01*
X129286265Y-64293847D02*
X129333884Y-64484323D01*
X129333884Y-64484323D02*
X129381503Y-64579561D01*
X129381503Y-64579561D02*
X129476741Y-64674800D01*
X129476741Y-64674800D02*
X129619598Y-64722419D01*
X129619598Y-64722419D02*
X129714836Y-64722419D01*
X129714836Y-64722419D02*
X129857693Y-64674800D01*
X129857693Y-64674800D02*
X129905312Y-64627180D01*
X129905312Y-64627180D02*
X129905312Y-64293847D01*
X129905312Y-64293847D02*
X129714836Y-64293847D01*
X130333884Y-64722419D02*
X130333884Y-63722419D01*
X130333884Y-63722419D02*
X130905312Y-64722419D01*
X130905312Y-64722419D02*
X130905312Y-63722419D01*
X131381503Y-64722419D02*
X131381503Y-63722419D01*
X131381503Y-63722419D02*
X131619598Y-63722419D01*
X131619598Y-63722419D02*
X131762455Y-63770038D01*
X131762455Y-63770038D02*
X131857693Y-63865276D01*
X131857693Y-63865276D02*
X131905312Y-63960514D01*
X131905312Y-63960514D02*
X131952931Y-64150990D01*
X131952931Y-64150990D02*
X131952931Y-64293847D01*
X131952931Y-64293847D02*
X131905312Y-64484323D01*
X131905312Y-64484323D02*
X131857693Y-64579561D01*
X131857693Y-64579561D02*
X131762455Y-64674800D01*
X131762455Y-64674800D02*
X131619598Y-64722419D01*
X131619598Y-64722419D02*
X131381503Y-64722419D01*
X138223884Y-107902419D02*
X138223884Y-106902419D01*
X138223884Y-106902419D02*
X138557217Y-107616704D01*
X138557217Y-107616704D02*
X138890550Y-106902419D01*
X138890550Y-106902419D02*
X138890550Y-107902419D01*
X139366741Y-107902419D02*
X139366741Y-106902419D01*
X139795312Y-107854800D02*
X139938169Y-107902419D01*
X139938169Y-107902419D02*
X140176264Y-107902419D01*
X140176264Y-107902419D02*
X140271502Y-107854800D01*
X140271502Y-107854800D02*
X140319121Y-107807180D01*
X140319121Y-107807180D02*
X140366740Y-107711942D01*
X140366740Y-107711942D02*
X140366740Y-107616704D01*
X140366740Y-107616704D02*
X140319121Y-107521466D01*
X140319121Y-107521466D02*
X140271502Y-107473847D01*
X140271502Y-107473847D02*
X140176264Y-107426228D01*
X140176264Y-107426228D02*
X139985788Y-107378609D01*
X139985788Y-107378609D02*
X139890550Y-107330990D01*
X139890550Y-107330990D02*
X139842931Y-107283371D01*
X139842931Y-107283371D02*
X139795312Y-107188133D01*
X139795312Y-107188133D02*
X139795312Y-107092895D01*
X139795312Y-107092895D02*
X139842931Y-106997657D01*
X139842931Y-106997657D02*
X139890550Y-106950038D01*
X139890550Y-106950038D02*
X139985788Y-106902419D01*
X139985788Y-106902419D02*
X140223883Y-106902419D01*
X140223883Y-106902419D02*
X140366740Y-106950038D01*
X140985788Y-106902419D02*
X141176264Y-106902419D01*
X141176264Y-106902419D02*
X141271502Y-106950038D01*
X141271502Y-106950038D02*
X141366740Y-107045276D01*
X141366740Y-107045276D02*
X141414359Y-107235752D01*
X141414359Y-107235752D02*
X141414359Y-107569085D01*
X141414359Y-107569085D02*
X141366740Y-107759561D01*
X141366740Y-107759561D02*
X141271502Y-107854800D01*
X141271502Y-107854800D02*
X141176264Y-107902419D01*
X141176264Y-107902419D02*
X140985788Y-107902419D01*
X140985788Y-107902419D02*
X140890550Y-107854800D01*
X140890550Y-107854800D02*
X140795312Y-107759561D01*
X140795312Y-107759561D02*
X140747693Y-107569085D01*
X140747693Y-107569085D02*
X140747693Y-107235752D01*
X140747693Y-107235752D02*
X140795312Y-107045276D01*
X140795312Y-107045276D02*
X140890550Y-106950038D01*
X140890550Y-106950038D02*
X140985788Y-106902419D01*
X138223884Y-115522419D02*
X138223884Y-114522419D01*
X138223884Y-114522419D02*
X138604836Y-114522419D01*
X138604836Y-114522419D02*
X138700074Y-114570038D01*
X138700074Y-114570038D02*
X138747693Y-114617657D01*
X138747693Y-114617657D02*
X138795312Y-114712895D01*
X138795312Y-114712895D02*
X138795312Y-114855752D01*
X138795312Y-114855752D02*
X138747693Y-114950990D01*
X138747693Y-114950990D02*
X138700074Y-114998609D01*
X138700074Y-114998609D02*
X138604836Y-115046228D01*
X138604836Y-115046228D02*
X138223884Y-115046228D01*
X139128646Y-114522419D02*
X139366741Y-115522419D01*
X139366741Y-115522419D02*
X139557217Y-114808133D01*
X139557217Y-114808133D02*
X139747693Y-115522419D01*
X139747693Y-115522419D02*
X139985789Y-114522419D01*
X140366741Y-115522419D02*
X140366741Y-114522419D01*
X140366741Y-114522419D02*
X140700074Y-115236704D01*
X140700074Y-115236704D02*
X141033407Y-114522419D01*
X141033407Y-114522419D02*
X141033407Y-115522419D01*
X129857693Y-119650038D02*
X129762455Y-119602419D01*
X129762455Y-119602419D02*
X129619598Y-119602419D01*
X129619598Y-119602419D02*
X129476741Y-119650038D01*
X129476741Y-119650038D02*
X129381503Y-119745276D01*
X129381503Y-119745276D02*
X129333884Y-119840514D01*
X129333884Y-119840514D02*
X129286265Y-120030990D01*
X129286265Y-120030990D02*
X129286265Y-120173847D01*
X129286265Y-120173847D02*
X129333884Y-120364323D01*
X129333884Y-120364323D02*
X129381503Y-120459561D01*
X129381503Y-120459561D02*
X129476741Y-120554800D01*
X129476741Y-120554800D02*
X129619598Y-120602419D01*
X129619598Y-120602419D02*
X129714836Y-120602419D01*
X129714836Y-120602419D02*
X129857693Y-120554800D01*
X129857693Y-120554800D02*
X129905312Y-120507180D01*
X129905312Y-120507180D02*
X129905312Y-120173847D01*
X129905312Y-120173847D02*
X129714836Y-120173847D01*
X130333884Y-120602419D02*
X130333884Y-119602419D01*
X130333884Y-119602419D02*
X130714836Y-119602419D01*
X130714836Y-119602419D02*
X130810074Y-119650038D01*
X130810074Y-119650038D02*
X130857693Y-119697657D01*
X130857693Y-119697657D02*
X130905312Y-119792895D01*
X130905312Y-119792895D02*
X130905312Y-119935752D01*
X130905312Y-119935752D02*
X130857693Y-120030990D01*
X130857693Y-120030990D02*
X130810074Y-120078609D01*
X130810074Y-120078609D02*
X130714836Y-120126228D01*
X130714836Y-120126228D02*
X130333884Y-120126228D01*
X131333884Y-120602419D02*
X131333884Y-119602419D01*
X132000550Y-119602419D02*
X132191026Y-119602419D01*
X132191026Y-119602419D02*
X132286264Y-119650038D01*
X132286264Y-119650038D02*
X132381502Y-119745276D01*
X132381502Y-119745276D02*
X132429121Y-119935752D01*
X132429121Y-119935752D02*
X132429121Y-120269085D01*
X132429121Y-120269085D02*
X132381502Y-120459561D01*
X132381502Y-120459561D02*
X132286264Y-120554800D01*
X132286264Y-120554800D02*
X132191026Y-120602419D01*
X132191026Y-120602419D02*
X132000550Y-120602419D01*
X132000550Y-120602419D02*
X131905312Y-120554800D01*
X131905312Y-120554800D02*
X131810074Y-120459561D01*
X131810074Y-120459561D02*
X131762455Y-120269085D01*
X131762455Y-120269085D02*
X131762455Y-119935752D01*
X131762455Y-119935752D02*
X131810074Y-119745276D01*
X131810074Y-119745276D02*
X131905312Y-119650038D01*
X131905312Y-119650038D02*
X132000550Y-119602419D01*
X129905312Y-92567180D02*
X129857693Y-92614800D01*
X129857693Y-92614800D02*
X129714836Y-92662419D01*
X129714836Y-92662419D02*
X129619598Y-92662419D01*
X129619598Y-92662419D02*
X129476741Y-92614800D01*
X129476741Y-92614800D02*
X129381503Y-92519561D01*
X129381503Y-92519561D02*
X129333884Y-92424323D01*
X129333884Y-92424323D02*
X129286265Y-92233847D01*
X129286265Y-92233847D02*
X129286265Y-92090990D01*
X129286265Y-92090990D02*
X129333884Y-91900514D01*
X129333884Y-91900514D02*
X129381503Y-91805276D01*
X129381503Y-91805276D02*
X129476741Y-91710038D01*
X129476741Y-91710038D02*
X129619598Y-91662419D01*
X129619598Y-91662419D02*
X129714836Y-91662419D01*
X129714836Y-91662419D02*
X129857693Y-91710038D01*
X129857693Y-91710038D02*
X129905312Y-91757657D01*
X130286265Y-92614800D02*
X130429122Y-92662419D01*
X130429122Y-92662419D02*
X130667217Y-92662419D01*
X130667217Y-92662419D02*
X130762455Y-92614800D01*
X130762455Y-92614800D02*
X130810074Y-92567180D01*
X130810074Y-92567180D02*
X130857693Y-92471942D01*
X130857693Y-92471942D02*
X130857693Y-92376704D01*
X130857693Y-92376704D02*
X130810074Y-92281466D01*
X130810074Y-92281466D02*
X130762455Y-92233847D01*
X130762455Y-92233847D02*
X130667217Y-92186228D01*
X130667217Y-92186228D02*
X130476741Y-92138609D01*
X130476741Y-92138609D02*
X130381503Y-92090990D01*
X130381503Y-92090990D02*
X130333884Y-92043371D01*
X130333884Y-92043371D02*
X130286265Y-91948133D01*
X130286265Y-91948133D02*
X130286265Y-91852895D01*
X130286265Y-91852895D02*
X130333884Y-91757657D01*
X130333884Y-91757657D02*
X130381503Y-91710038D01*
X130381503Y-91710038D02*
X130476741Y-91662419D01*
X130476741Y-91662419D02*
X130714836Y-91662419D01*
X130714836Y-91662419D02*
X130857693Y-91710038D01*
X138081027Y-78962419D02*
X138652455Y-78962419D01*
X138366741Y-79962419D02*
X138366741Y-78962419D01*
X138890551Y-78962419D02*
X139557217Y-79962419D01*
X139557217Y-78962419D02*
X138890551Y-79962419D01*
X140414360Y-78962419D02*
X139938170Y-78962419D01*
X139938170Y-78962419D02*
X139890551Y-79438609D01*
X139890551Y-79438609D02*
X139938170Y-79390990D01*
X139938170Y-79390990D02*
X140033408Y-79343371D01*
X140033408Y-79343371D02*
X140271503Y-79343371D01*
X140271503Y-79343371D02*
X140366741Y-79390990D01*
X140366741Y-79390990D02*
X140414360Y-79438609D01*
X140414360Y-79438609D02*
X140461979Y-79533847D01*
X140461979Y-79533847D02*
X140461979Y-79771942D01*
X140461979Y-79771942D02*
X140414360Y-79867180D01*
X140414360Y-79867180D02*
X140366741Y-79914800D01*
X140366741Y-79914800D02*
X140271503Y-79962419D01*
X140271503Y-79962419D02*
X140033408Y-79962419D01*
X140033408Y-79962419D02*
X139938170Y-79914800D01*
X139938170Y-79914800D02*
X139890551Y-79867180D01*
X138176265Y-89836704D02*
X138652455Y-89836704D01*
X138081027Y-90122419D02*
X138414360Y-89122419D01*
X138414360Y-89122419D02*
X138747693Y-90122419D01*
X139033408Y-89217657D02*
X139081027Y-89170038D01*
X139081027Y-89170038D02*
X139176265Y-89122419D01*
X139176265Y-89122419D02*
X139414360Y-89122419D01*
X139414360Y-89122419D02*
X139509598Y-89170038D01*
X139509598Y-89170038D02*
X139557217Y-89217657D01*
X139557217Y-89217657D02*
X139604836Y-89312895D01*
X139604836Y-89312895D02*
X139604836Y-89408133D01*
X139604836Y-89408133D02*
X139557217Y-89550990D01*
X139557217Y-89550990D02*
X138985789Y-90122419D01*
X138985789Y-90122419D02*
X139604836Y-90122419D01*
X138223884Y-72342419D02*
X138223884Y-71342419D01*
X138223884Y-71342419D02*
X138604836Y-71342419D01*
X138604836Y-71342419D02*
X138700074Y-71390038D01*
X138700074Y-71390038D02*
X138747693Y-71437657D01*
X138747693Y-71437657D02*
X138795312Y-71532895D01*
X138795312Y-71532895D02*
X138795312Y-71675752D01*
X138795312Y-71675752D02*
X138747693Y-71770990D01*
X138747693Y-71770990D02*
X138700074Y-71818609D01*
X138700074Y-71818609D02*
X138604836Y-71866228D01*
X138604836Y-71866228D02*
X138223884Y-71866228D01*
X139128646Y-71342419D02*
X139366741Y-72342419D01*
X139366741Y-72342419D02*
X139557217Y-71628133D01*
X139557217Y-71628133D02*
X139747693Y-72342419D01*
X139747693Y-72342419D02*
X139985789Y-71342419D01*
X140366741Y-72342419D02*
X140366741Y-71342419D01*
X140366741Y-71342419D02*
X140700074Y-72056704D01*
X140700074Y-72056704D02*
X141033407Y-71342419D01*
X141033407Y-71342419D02*
X141033407Y-72342419D01*
X138176265Y-105076704D02*
X138652455Y-105076704D01*
X138081027Y-105362419D02*
X138414360Y-104362419D01*
X138414360Y-104362419D02*
X138747693Y-105362419D01*
X139604836Y-105362419D02*
X139033408Y-105362419D01*
X139319122Y-105362419D02*
X139319122Y-104362419D01*
X139319122Y-104362419D02*
X139223884Y-104505276D01*
X139223884Y-104505276D02*
X139128646Y-104600514D01*
X139128646Y-104600514D02*
X139033408Y-104648133D01*
X140461979Y-104362419D02*
X140271503Y-104362419D01*
X140271503Y-104362419D02*
X140176265Y-104410038D01*
X140176265Y-104410038D02*
X140128646Y-104457657D01*
X140128646Y-104457657D02*
X140033408Y-104600514D01*
X140033408Y-104600514D02*
X139985789Y-104790990D01*
X139985789Y-104790990D02*
X139985789Y-105171942D01*
X139985789Y-105171942D02*
X140033408Y-105267180D01*
X140033408Y-105267180D02*
X140081027Y-105314800D01*
X140081027Y-105314800D02*
X140176265Y-105362419D01*
X140176265Y-105362419D02*
X140366741Y-105362419D01*
X140366741Y-105362419D02*
X140461979Y-105314800D01*
X140461979Y-105314800D02*
X140509598Y-105267180D01*
X140509598Y-105267180D02*
X140557217Y-105171942D01*
X140557217Y-105171942D02*
X140557217Y-104933847D01*
X140557217Y-104933847D02*
X140509598Y-104838609D01*
X140509598Y-104838609D02*
X140461979Y-104790990D01*
X140461979Y-104790990D02*
X140366741Y-104743371D01*
X140366741Y-104743371D02*
X140176265Y-104743371D01*
X140176265Y-104743371D02*
X140081027Y-104790990D01*
X140081027Y-104790990D02*
X140033408Y-104838609D01*
X140033408Y-104838609D02*
X139985789Y-104933847D01*
X129238646Y-99282419D02*
X129857693Y-99282419D01*
X129857693Y-99282419D02*
X129524360Y-99663371D01*
X129524360Y-99663371D02*
X129667217Y-99663371D01*
X129667217Y-99663371D02*
X129762455Y-99710990D01*
X129762455Y-99710990D02*
X129810074Y-99758609D01*
X129810074Y-99758609D02*
X129857693Y-99853847D01*
X129857693Y-99853847D02*
X129857693Y-100091942D01*
X129857693Y-100091942D02*
X129810074Y-100187180D01*
X129810074Y-100187180D02*
X129762455Y-100234800D01*
X129762455Y-100234800D02*
X129667217Y-100282419D01*
X129667217Y-100282419D02*
X129381503Y-100282419D01*
X129381503Y-100282419D02*
X129286265Y-100234800D01*
X129286265Y-100234800D02*
X129238646Y-100187180D01*
X130286265Y-100187180D02*
X130333884Y-100234800D01*
X130333884Y-100234800D02*
X130286265Y-100282419D01*
X130286265Y-100282419D02*
X130238646Y-100234800D01*
X130238646Y-100234800D02*
X130286265Y-100187180D01*
X130286265Y-100187180D02*
X130286265Y-100282419D01*
X130667217Y-99282419D02*
X131286264Y-99282419D01*
X131286264Y-99282419D02*
X130952931Y-99663371D01*
X130952931Y-99663371D02*
X131095788Y-99663371D01*
X131095788Y-99663371D02*
X131191026Y-99710990D01*
X131191026Y-99710990D02*
X131238645Y-99758609D01*
X131238645Y-99758609D02*
X131286264Y-99853847D01*
X131286264Y-99853847D02*
X131286264Y-100091942D01*
X131286264Y-100091942D02*
X131238645Y-100187180D01*
X131238645Y-100187180D02*
X131191026Y-100234800D01*
X131191026Y-100234800D02*
X131095788Y-100282419D01*
X131095788Y-100282419D02*
X130810074Y-100282419D01*
X130810074Y-100282419D02*
X130714836Y-100234800D01*
X130714836Y-100234800D02*
X130667217Y-100187180D01*
X131571979Y-99282419D02*
X131905312Y-100282419D01*
X131905312Y-100282419D02*
X132238645Y-99282419D01*
X138223884Y-74882419D02*
X138223884Y-73882419D01*
X138223884Y-73882419D02*
X138604836Y-73882419D01*
X138604836Y-73882419D02*
X138700074Y-73930038D01*
X138700074Y-73930038D02*
X138747693Y-73977657D01*
X138747693Y-73977657D02*
X138795312Y-74072895D01*
X138795312Y-74072895D02*
X138795312Y-74215752D01*
X138795312Y-74215752D02*
X138747693Y-74310990D01*
X138747693Y-74310990D02*
X138700074Y-74358609D01*
X138700074Y-74358609D02*
X138604836Y-74406228D01*
X138604836Y-74406228D02*
X138223884Y-74406228D01*
X139128646Y-73882419D02*
X139366741Y-74882419D01*
X139366741Y-74882419D02*
X139557217Y-74168133D01*
X139557217Y-74168133D02*
X139747693Y-74882419D01*
X139747693Y-74882419D02*
X139985789Y-73882419D01*
X140366741Y-74882419D02*
X140366741Y-73882419D01*
X140366741Y-73882419D02*
X140700074Y-74596704D01*
X140700074Y-74596704D02*
X141033407Y-73882419D01*
X141033407Y-73882419D02*
X141033407Y-74882419D01*
X138176265Y-102536704D02*
X138652455Y-102536704D01*
X138081027Y-102822419D02*
X138414360Y-101822419D01*
X138414360Y-101822419D02*
X138747693Y-102822419D01*
X139604836Y-102822419D02*
X139033408Y-102822419D01*
X139319122Y-102822419D02*
X139319122Y-101822419D01*
X139319122Y-101822419D02*
X139223884Y-101965276D01*
X139223884Y-101965276D02*
X139128646Y-102060514D01*
X139128646Y-102060514D02*
X139033408Y-102108133D01*
X139938170Y-101822419D02*
X140604836Y-101822419D01*
X140604836Y-101822419D02*
X140176265Y-102822419D01*
X129905312Y-67262419D02*
X129571979Y-66786228D01*
X129333884Y-67262419D02*
X129333884Y-66262419D01*
X129333884Y-66262419D02*
X129714836Y-66262419D01*
X129714836Y-66262419D02*
X129810074Y-66310038D01*
X129810074Y-66310038D02*
X129857693Y-66357657D01*
X129857693Y-66357657D02*
X129905312Y-66452895D01*
X129905312Y-66452895D02*
X129905312Y-66595752D01*
X129905312Y-66595752D02*
X129857693Y-66690990D01*
X129857693Y-66690990D02*
X129810074Y-66738609D01*
X129810074Y-66738609D02*
X129714836Y-66786228D01*
X129714836Y-66786228D02*
X129333884Y-66786228D01*
X130238646Y-66262419D02*
X130905312Y-67262419D01*
X130905312Y-66262419D02*
X130238646Y-67262419D01*
X131810074Y-67262419D02*
X131238646Y-67262419D01*
X131524360Y-67262419D02*
X131524360Y-66262419D01*
X131524360Y-66262419D02*
X131429122Y-66405276D01*
X131429122Y-66405276D02*
X131333884Y-66500514D01*
X131333884Y-66500514D02*
X131238646Y-66548133D01*
X129333884Y-74882419D02*
X129333884Y-73882419D01*
X129333884Y-73882419D02*
X129714836Y-73882419D01*
X129714836Y-73882419D02*
X129810074Y-73930038D01*
X129810074Y-73930038D02*
X129857693Y-73977657D01*
X129857693Y-73977657D02*
X129905312Y-74072895D01*
X129905312Y-74072895D02*
X129905312Y-74215752D01*
X129905312Y-74215752D02*
X129857693Y-74310990D01*
X129857693Y-74310990D02*
X129810074Y-74358609D01*
X129810074Y-74358609D02*
X129714836Y-74406228D01*
X129714836Y-74406228D02*
X129333884Y-74406228D01*
X130238646Y-73882419D02*
X130476741Y-74882419D01*
X130476741Y-74882419D02*
X130667217Y-74168133D01*
X130667217Y-74168133D02*
X130857693Y-74882419D01*
X130857693Y-74882419D02*
X131095789Y-73882419D01*
X131476741Y-74882419D02*
X131476741Y-73882419D01*
X131476741Y-73882419D02*
X131810074Y-74596704D01*
X131810074Y-74596704D02*
X132143407Y-73882419D01*
X132143407Y-73882419D02*
X132143407Y-74882419D01*
X129905312Y-112982419D02*
X129571979Y-112506228D01*
X129333884Y-112982419D02*
X129333884Y-111982419D01*
X129333884Y-111982419D02*
X129714836Y-111982419D01*
X129714836Y-111982419D02*
X129810074Y-112030038D01*
X129810074Y-112030038D02*
X129857693Y-112077657D01*
X129857693Y-112077657D02*
X129905312Y-112172895D01*
X129905312Y-112172895D02*
X129905312Y-112315752D01*
X129905312Y-112315752D02*
X129857693Y-112410990D01*
X129857693Y-112410990D02*
X129810074Y-112458609D01*
X129810074Y-112458609D02*
X129714836Y-112506228D01*
X129714836Y-112506228D02*
X129333884Y-112506228D01*
X130238646Y-111982419D02*
X130905312Y-112982419D01*
X130905312Y-111982419D02*
X130238646Y-112982419D01*
X131191027Y-111982419D02*
X131857693Y-111982419D01*
X131857693Y-111982419D02*
X131429122Y-112982419D01*
X138795312Y-110347180D02*
X138747693Y-110394800D01*
X138747693Y-110394800D02*
X138604836Y-110442419D01*
X138604836Y-110442419D02*
X138509598Y-110442419D01*
X138509598Y-110442419D02*
X138366741Y-110394800D01*
X138366741Y-110394800D02*
X138271503Y-110299561D01*
X138271503Y-110299561D02*
X138223884Y-110204323D01*
X138223884Y-110204323D02*
X138176265Y-110013847D01*
X138176265Y-110013847D02*
X138176265Y-109870990D01*
X138176265Y-109870990D02*
X138223884Y-109680514D01*
X138223884Y-109680514D02*
X138271503Y-109585276D01*
X138271503Y-109585276D02*
X138366741Y-109490038D01*
X138366741Y-109490038D02*
X138509598Y-109442419D01*
X138509598Y-109442419D02*
X138604836Y-109442419D01*
X138604836Y-109442419D02*
X138747693Y-109490038D01*
X138747693Y-109490038D02*
X138795312Y-109537657D01*
X139176265Y-110394800D02*
X139319122Y-110442419D01*
X139319122Y-110442419D02*
X139557217Y-110442419D01*
X139557217Y-110442419D02*
X139652455Y-110394800D01*
X139652455Y-110394800D02*
X139700074Y-110347180D01*
X139700074Y-110347180D02*
X139747693Y-110251942D01*
X139747693Y-110251942D02*
X139747693Y-110156704D01*
X139747693Y-110156704D02*
X139700074Y-110061466D01*
X139700074Y-110061466D02*
X139652455Y-110013847D01*
X139652455Y-110013847D02*
X139557217Y-109966228D01*
X139557217Y-109966228D02*
X139366741Y-109918609D01*
X139366741Y-109918609D02*
X139271503Y-109870990D01*
X139271503Y-109870990D02*
X139223884Y-109823371D01*
X139223884Y-109823371D02*
X139176265Y-109728133D01*
X139176265Y-109728133D02*
X139176265Y-109632895D01*
X139176265Y-109632895D02*
X139223884Y-109537657D01*
X139223884Y-109537657D02*
X139271503Y-109490038D01*
X139271503Y-109490038D02*
X139366741Y-109442419D01*
X139366741Y-109442419D02*
X139604836Y-109442419D01*
X139604836Y-109442419D02*
X139747693Y-109490038D01*
X140700074Y-110442419D02*
X140128646Y-110442419D01*
X140414360Y-110442419D02*
X140414360Y-109442419D01*
X140414360Y-109442419D02*
X140319122Y-109585276D01*
X140319122Y-109585276D02*
X140223884Y-109680514D01*
X140223884Y-109680514D02*
X140128646Y-109728133D01*
X129286265Y-105314800D02*
X129429122Y-105362419D01*
X129429122Y-105362419D02*
X129667217Y-105362419D01*
X129667217Y-105362419D02*
X129762455Y-105314800D01*
X129762455Y-105314800D02*
X129810074Y-105267180D01*
X129810074Y-105267180D02*
X129857693Y-105171942D01*
X129857693Y-105171942D02*
X129857693Y-105076704D01*
X129857693Y-105076704D02*
X129810074Y-104981466D01*
X129810074Y-104981466D02*
X129762455Y-104933847D01*
X129762455Y-104933847D02*
X129667217Y-104886228D01*
X129667217Y-104886228D02*
X129476741Y-104838609D01*
X129476741Y-104838609D02*
X129381503Y-104790990D01*
X129381503Y-104790990D02*
X129333884Y-104743371D01*
X129333884Y-104743371D02*
X129286265Y-104648133D01*
X129286265Y-104648133D02*
X129286265Y-104552895D01*
X129286265Y-104552895D02*
X129333884Y-104457657D01*
X129333884Y-104457657D02*
X129381503Y-104410038D01*
X129381503Y-104410038D02*
X129476741Y-104362419D01*
X129476741Y-104362419D02*
X129714836Y-104362419D01*
X129714836Y-104362419D02*
X129857693Y-104410038D01*
X130286265Y-105362419D02*
X130286265Y-104362419D01*
X130286265Y-104362419D02*
X130524360Y-104362419D01*
X130524360Y-104362419D02*
X130667217Y-104410038D01*
X130667217Y-104410038D02*
X130762455Y-104505276D01*
X130762455Y-104505276D02*
X130810074Y-104600514D01*
X130810074Y-104600514D02*
X130857693Y-104790990D01*
X130857693Y-104790990D02*
X130857693Y-104933847D01*
X130857693Y-104933847D02*
X130810074Y-105124323D01*
X130810074Y-105124323D02*
X130762455Y-105219561D01*
X130762455Y-105219561D02*
X130667217Y-105314800D01*
X130667217Y-105314800D02*
X130524360Y-105362419D01*
X130524360Y-105362419D02*
X130286265Y-105362419D01*
X131238646Y-105076704D02*
X131714836Y-105076704D01*
X131143408Y-105362419D02*
X131476741Y-104362419D01*
X131476741Y-104362419D02*
X131810074Y-105362419D01*
X132095789Y-104457657D02*
X132143408Y-104410038D01*
X132143408Y-104410038D02*
X132238646Y-104362419D01*
X132238646Y-104362419D02*
X132476741Y-104362419D01*
X132476741Y-104362419D02*
X132571979Y-104410038D01*
X132571979Y-104410038D02*
X132619598Y-104457657D01*
X132619598Y-104457657D02*
X132667217Y-104552895D01*
X132667217Y-104552895D02*
X132667217Y-104648133D01*
X132667217Y-104648133D02*
X132619598Y-104790990D01*
X132619598Y-104790990D02*
X132048170Y-105362419D01*
X132048170Y-105362419D02*
X132667217Y-105362419D01*
X138176265Y-94916704D02*
X138652455Y-94916704D01*
X138081027Y-95202419D02*
X138414360Y-94202419D01*
X138414360Y-94202419D02*
X138747693Y-95202419D01*
X139271503Y-94202419D02*
X139366741Y-94202419D01*
X139366741Y-94202419D02*
X139461979Y-94250038D01*
X139461979Y-94250038D02*
X139509598Y-94297657D01*
X139509598Y-94297657D02*
X139557217Y-94392895D01*
X139557217Y-94392895D02*
X139604836Y-94583371D01*
X139604836Y-94583371D02*
X139604836Y-94821466D01*
X139604836Y-94821466D02*
X139557217Y-95011942D01*
X139557217Y-95011942D02*
X139509598Y-95107180D01*
X139509598Y-95107180D02*
X139461979Y-95154800D01*
X139461979Y-95154800D02*
X139366741Y-95202419D01*
X139366741Y-95202419D02*
X139271503Y-95202419D01*
X139271503Y-95202419D02*
X139176265Y-95154800D01*
X139176265Y-95154800D02*
X139128646Y-95107180D01*
X139128646Y-95107180D02*
X139081027Y-95011942D01*
X139081027Y-95011942D02*
X139033408Y-94821466D01*
X139033408Y-94821466D02*
X139033408Y-94583371D01*
X139033408Y-94583371D02*
X139081027Y-94392895D01*
X139081027Y-94392895D02*
X139128646Y-94297657D01*
X139128646Y-94297657D02*
X139176265Y-94250038D01*
X139176265Y-94250038D02*
X139271503Y-94202419D01*
X138223884Y-112982419D02*
X138223884Y-111982419D01*
X138223884Y-111982419D02*
X138604836Y-111982419D01*
X138604836Y-111982419D02*
X138700074Y-112030038D01*
X138700074Y-112030038D02*
X138747693Y-112077657D01*
X138747693Y-112077657D02*
X138795312Y-112172895D01*
X138795312Y-112172895D02*
X138795312Y-112315752D01*
X138795312Y-112315752D02*
X138747693Y-112410990D01*
X138747693Y-112410990D02*
X138700074Y-112458609D01*
X138700074Y-112458609D02*
X138604836Y-112506228D01*
X138604836Y-112506228D02*
X138223884Y-112506228D01*
X139128646Y-111982419D02*
X139366741Y-112982419D01*
X139366741Y-112982419D02*
X139557217Y-112268133D01*
X139557217Y-112268133D02*
X139747693Y-112982419D01*
X139747693Y-112982419D02*
X139985789Y-111982419D01*
X140366741Y-112982419D02*
X140366741Y-111982419D01*
X140366741Y-111982419D02*
X140700074Y-112696704D01*
X140700074Y-112696704D02*
X141033407Y-111982419D01*
X141033407Y-111982419D02*
X141033407Y-112982419D01*
X129333884Y-107902419D02*
X129333884Y-106902419D01*
X129333884Y-106902419D02*
X129667217Y-107616704D01*
X129667217Y-107616704D02*
X130000550Y-106902419D01*
X130000550Y-106902419D02*
X130000550Y-107902419D01*
X130667217Y-106902419D02*
X130857693Y-106902419D01*
X130857693Y-106902419D02*
X130952931Y-106950038D01*
X130952931Y-106950038D02*
X131048169Y-107045276D01*
X131048169Y-107045276D02*
X131095788Y-107235752D01*
X131095788Y-107235752D02*
X131095788Y-107569085D01*
X131095788Y-107569085D02*
X131048169Y-107759561D01*
X131048169Y-107759561D02*
X130952931Y-107854800D01*
X130952931Y-107854800D02*
X130857693Y-107902419D01*
X130857693Y-107902419D02*
X130667217Y-107902419D01*
X130667217Y-107902419D02*
X130571979Y-107854800D01*
X130571979Y-107854800D02*
X130476741Y-107759561D01*
X130476741Y-107759561D02*
X130429122Y-107569085D01*
X130429122Y-107569085D02*
X130429122Y-107235752D01*
X130429122Y-107235752D02*
X130476741Y-107045276D01*
X130476741Y-107045276D02*
X130571979Y-106950038D01*
X130571979Y-106950038D02*
X130667217Y-106902419D01*
X131476741Y-107854800D02*
X131619598Y-107902419D01*
X131619598Y-107902419D02*
X131857693Y-107902419D01*
X131857693Y-107902419D02*
X131952931Y-107854800D01*
X131952931Y-107854800D02*
X132000550Y-107807180D01*
X132000550Y-107807180D02*
X132048169Y-107711942D01*
X132048169Y-107711942D02*
X132048169Y-107616704D01*
X132048169Y-107616704D02*
X132000550Y-107521466D01*
X132000550Y-107521466D02*
X131952931Y-107473847D01*
X131952931Y-107473847D02*
X131857693Y-107426228D01*
X131857693Y-107426228D02*
X131667217Y-107378609D01*
X131667217Y-107378609D02*
X131571979Y-107330990D01*
X131571979Y-107330990D02*
X131524360Y-107283371D01*
X131524360Y-107283371D02*
X131476741Y-107188133D01*
X131476741Y-107188133D02*
X131476741Y-107092895D01*
X131476741Y-107092895D02*
X131524360Y-106997657D01*
X131524360Y-106997657D02*
X131571979Y-106950038D01*
X131571979Y-106950038D02*
X131667217Y-106902419D01*
X131667217Y-106902419D02*
X131905312Y-106902419D01*
X131905312Y-106902419D02*
X132048169Y-106950038D01*
X132476741Y-107902419D02*
X132476741Y-106902419D01*
X133476740Y-107902419D02*
X132905312Y-107902419D01*
X133191026Y-107902419D02*
X133191026Y-106902419D01*
X133191026Y-106902419D02*
X133095788Y-107045276D01*
X133095788Y-107045276D02*
X133000550Y-107140514D01*
X133000550Y-107140514D02*
X132905312Y-107188133D01*
X138223884Y-123142419D02*
X138223884Y-122142419D01*
X138223884Y-122142419D02*
X138604836Y-122142419D01*
X138604836Y-122142419D02*
X138700074Y-122190038D01*
X138700074Y-122190038D02*
X138747693Y-122237657D01*
X138747693Y-122237657D02*
X138795312Y-122332895D01*
X138795312Y-122332895D02*
X138795312Y-122475752D01*
X138795312Y-122475752D02*
X138747693Y-122570990D01*
X138747693Y-122570990D02*
X138700074Y-122618609D01*
X138700074Y-122618609D02*
X138604836Y-122666228D01*
X138604836Y-122666228D02*
X138223884Y-122666228D01*
X139128646Y-122142419D02*
X139366741Y-123142419D01*
X139366741Y-123142419D02*
X139557217Y-122428133D01*
X139557217Y-122428133D02*
X139747693Y-123142419D01*
X139747693Y-123142419D02*
X139985789Y-122142419D01*
X140366741Y-123142419D02*
X140366741Y-122142419D01*
X140366741Y-122142419D02*
X140700074Y-122856704D01*
X140700074Y-122856704D02*
X141033407Y-122142419D01*
X141033407Y-122142419D02*
X141033407Y-123142419D01*
X129333884Y-90122419D02*
X129333884Y-89122419D01*
X129333884Y-89122419D02*
X129714836Y-89122419D01*
X129714836Y-89122419D02*
X129810074Y-89170038D01*
X129810074Y-89170038D02*
X129857693Y-89217657D01*
X129857693Y-89217657D02*
X129905312Y-89312895D01*
X129905312Y-89312895D02*
X129905312Y-89455752D01*
X129905312Y-89455752D02*
X129857693Y-89550990D01*
X129857693Y-89550990D02*
X129810074Y-89598609D01*
X129810074Y-89598609D02*
X129714836Y-89646228D01*
X129714836Y-89646228D02*
X129333884Y-89646228D01*
X130238646Y-89122419D02*
X130476741Y-90122419D01*
X130476741Y-90122419D02*
X130667217Y-89408133D01*
X130667217Y-89408133D02*
X130857693Y-90122419D01*
X130857693Y-90122419D02*
X131095789Y-89122419D01*
X131476741Y-90122419D02*
X131476741Y-89122419D01*
X131476741Y-89122419D02*
X131810074Y-89836704D01*
X131810074Y-89836704D02*
X132143407Y-89122419D01*
X132143407Y-89122419D02*
X132143407Y-90122419D01*
X129905312Y-85042419D02*
X129571979Y-84566228D01*
X129333884Y-85042419D02*
X129333884Y-84042419D01*
X129333884Y-84042419D02*
X129714836Y-84042419D01*
X129714836Y-84042419D02*
X129810074Y-84090038D01*
X129810074Y-84090038D02*
X129857693Y-84137657D01*
X129857693Y-84137657D02*
X129905312Y-84232895D01*
X129905312Y-84232895D02*
X129905312Y-84375752D01*
X129905312Y-84375752D02*
X129857693Y-84470990D01*
X129857693Y-84470990D02*
X129810074Y-84518609D01*
X129810074Y-84518609D02*
X129714836Y-84566228D01*
X129714836Y-84566228D02*
X129333884Y-84566228D01*
X130238646Y-84042419D02*
X130905312Y-85042419D01*
X130905312Y-84042419D02*
X130238646Y-85042419D01*
X131238646Y-84137657D02*
X131286265Y-84090038D01*
X131286265Y-84090038D02*
X131381503Y-84042419D01*
X131381503Y-84042419D02*
X131619598Y-84042419D01*
X131619598Y-84042419D02*
X131714836Y-84090038D01*
X131714836Y-84090038D02*
X131762455Y-84137657D01*
X131762455Y-84137657D02*
X131810074Y-84232895D01*
X131810074Y-84232895D02*
X131810074Y-84328133D01*
X131810074Y-84328133D02*
X131762455Y-84470990D01*
X131762455Y-84470990D02*
X131191027Y-85042419D01*
X131191027Y-85042419D02*
X131810074Y-85042419D01*
X138176265Y-87296704D02*
X138652455Y-87296704D01*
X138081027Y-87582419D02*
X138414360Y-86582419D01*
X138414360Y-86582419D02*
X138747693Y-87582419D01*
X138985789Y-86582419D02*
X139604836Y-86582419D01*
X139604836Y-86582419D02*
X139271503Y-86963371D01*
X139271503Y-86963371D02*
X139414360Y-86963371D01*
X139414360Y-86963371D02*
X139509598Y-87010990D01*
X139509598Y-87010990D02*
X139557217Y-87058609D01*
X139557217Y-87058609D02*
X139604836Y-87153847D01*
X139604836Y-87153847D02*
X139604836Y-87391942D01*
X139604836Y-87391942D02*
X139557217Y-87487180D01*
X139557217Y-87487180D02*
X139509598Y-87534800D01*
X139509598Y-87534800D02*
X139414360Y-87582419D01*
X139414360Y-87582419D02*
X139128646Y-87582419D01*
X139128646Y-87582419D02*
X139033408Y-87534800D01*
X139033408Y-87534800D02*
X138985789Y-87487180D01*
X129333884Y-79962419D02*
X129333884Y-78962419D01*
X129333884Y-78962419D02*
X129714836Y-78962419D01*
X129714836Y-78962419D02*
X129810074Y-79010038D01*
X129810074Y-79010038D02*
X129857693Y-79057657D01*
X129857693Y-79057657D02*
X129905312Y-79152895D01*
X129905312Y-79152895D02*
X129905312Y-79295752D01*
X129905312Y-79295752D02*
X129857693Y-79390990D01*
X129857693Y-79390990D02*
X129810074Y-79438609D01*
X129810074Y-79438609D02*
X129714836Y-79486228D01*
X129714836Y-79486228D02*
X129333884Y-79486228D01*
X130238646Y-78962419D02*
X130476741Y-79962419D01*
X130476741Y-79962419D02*
X130667217Y-79248133D01*
X130667217Y-79248133D02*
X130857693Y-79962419D01*
X130857693Y-79962419D02*
X131095789Y-78962419D01*
X131476741Y-79962419D02*
X131476741Y-78962419D01*
X131476741Y-78962419D02*
X131810074Y-79676704D01*
X131810074Y-79676704D02*
X132143407Y-78962419D01*
X132143407Y-78962419D02*
X132143407Y-79962419D01*
X138176265Y-92376704D02*
X138652455Y-92376704D01*
X138081027Y-92662419D02*
X138414360Y-91662419D01*
X138414360Y-91662419D02*
X138747693Y-92662419D01*
X139604836Y-92662419D02*
X139033408Y-92662419D01*
X139319122Y-92662419D02*
X139319122Y-91662419D01*
X139319122Y-91662419D02*
X139223884Y-91805276D01*
X139223884Y-91805276D02*
X139128646Y-91900514D01*
X139128646Y-91900514D02*
X139033408Y-91948133D01*
X129286265Y-110394800D02*
X129429122Y-110442419D01*
X129429122Y-110442419D02*
X129667217Y-110442419D01*
X129667217Y-110442419D02*
X129762455Y-110394800D01*
X129762455Y-110394800D02*
X129810074Y-110347180D01*
X129810074Y-110347180D02*
X129857693Y-110251942D01*
X129857693Y-110251942D02*
X129857693Y-110156704D01*
X129857693Y-110156704D02*
X129810074Y-110061466D01*
X129810074Y-110061466D02*
X129762455Y-110013847D01*
X129762455Y-110013847D02*
X129667217Y-109966228D01*
X129667217Y-109966228D02*
X129476741Y-109918609D01*
X129476741Y-109918609D02*
X129381503Y-109870990D01*
X129381503Y-109870990D02*
X129333884Y-109823371D01*
X129333884Y-109823371D02*
X129286265Y-109728133D01*
X129286265Y-109728133D02*
X129286265Y-109632895D01*
X129286265Y-109632895D02*
X129333884Y-109537657D01*
X129333884Y-109537657D02*
X129381503Y-109490038D01*
X129381503Y-109490038D02*
X129476741Y-109442419D01*
X129476741Y-109442419D02*
X129714836Y-109442419D01*
X129714836Y-109442419D02*
X129857693Y-109490038D01*
X130857693Y-110347180D02*
X130810074Y-110394800D01*
X130810074Y-110394800D02*
X130667217Y-110442419D01*
X130667217Y-110442419D02*
X130571979Y-110442419D01*
X130571979Y-110442419D02*
X130429122Y-110394800D01*
X130429122Y-110394800D02*
X130333884Y-110299561D01*
X130333884Y-110299561D02*
X130286265Y-110204323D01*
X130286265Y-110204323D02*
X130238646Y-110013847D01*
X130238646Y-110013847D02*
X130238646Y-109870990D01*
X130238646Y-109870990D02*
X130286265Y-109680514D01*
X130286265Y-109680514D02*
X130333884Y-109585276D01*
X130333884Y-109585276D02*
X130429122Y-109490038D01*
X130429122Y-109490038D02*
X130571979Y-109442419D01*
X130571979Y-109442419D02*
X130667217Y-109442419D01*
X130667217Y-109442419D02*
X130810074Y-109490038D01*
X130810074Y-109490038D02*
X130857693Y-109537657D01*
X131286265Y-110442419D02*
X131286265Y-109442419D01*
X131857693Y-110442419D02*
X131429122Y-109870990D01*
X131857693Y-109442419D02*
X131286265Y-110013847D01*
X132810074Y-110442419D02*
X132238646Y-110442419D01*
X132524360Y-110442419D02*
X132524360Y-109442419D01*
X132524360Y-109442419D02*
X132429122Y-109585276D01*
X132429122Y-109585276D02*
X132333884Y-109680514D01*
X132333884Y-109680514D02*
X132238646Y-109728133D01*
X129333884Y-97742419D02*
X129333884Y-96742419D01*
X129333884Y-96742419D02*
X129667217Y-97456704D01*
X129667217Y-97456704D02*
X130000550Y-96742419D01*
X130000550Y-96742419D02*
X130000550Y-97742419D01*
X130476741Y-97742419D02*
X130476741Y-96742419D01*
X130905312Y-97694800D02*
X131048169Y-97742419D01*
X131048169Y-97742419D02*
X131286264Y-97742419D01*
X131286264Y-97742419D02*
X131381502Y-97694800D01*
X131381502Y-97694800D02*
X131429121Y-97647180D01*
X131429121Y-97647180D02*
X131476740Y-97551942D01*
X131476740Y-97551942D02*
X131476740Y-97456704D01*
X131476740Y-97456704D02*
X131429121Y-97361466D01*
X131429121Y-97361466D02*
X131381502Y-97313847D01*
X131381502Y-97313847D02*
X131286264Y-97266228D01*
X131286264Y-97266228D02*
X131095788Y-97218609D01*
X131095788Y-97218609D02*
X131000550Y-97170990D01*
X131000550Y-97170990D02*
X130952931Y-97123371D01*
X130952931Y-97123371D02*
X130905312Y-97028133D01*
X130905312Y-97028133D02*
X130905312Y-96932895D01*
X130905312Y-96932895D02*
X130952931Y-96837657D01*
X130952931Y-96837657D02*
X131000550Y-96790038D01*
X131000550Y-96790038D02*
X131095788Y-96742419D01*
X131095788Y-96742419D02*
X131333883Y-96742419D01*
X131333883Y-96742419D02*
X131476740Y-96790038D01*
X132095788Y-96742419D02*
X132286264Y-96742419D01*
X132286264Y-96742419D02*
X132381502Y-96790038D01*
X132381502Y-96790038D02*
X132476740Y-96885276D01*
X132476740Y-96885276D02*
X132524359Y-97075752D01*
X132524359Y-97075752D02*
X132524359Y-97409085D01*
X132524359Y-97409085D02*
X132476740Y-97599561D01*
X132476740Y-97599561D02*
X132381502Y-97694800D01*
X132381502Y-97694800D02*
X132286264Y-97742419D01*
X132286264Y-97742419D02*
X132095788Y-97742419D01*
X132095788Y-97742419D02*
X132000550Y-97694800D01*
X132000550Y-97694800D02*
X131905312Y-97599561D01*
X131905312Y-97599561D02*
X131857693Y-97409085D01*
X131857693Y-97409085D02*
X131857693Y-97075752D01*
X131857693Y-97075752D02*
X131905312Y-96885276D01*
X131905312Y-96885276D02*
X132000550Y-96790038D01*
X132000550Y-96790038D02*
X132095788Y-96742419D01*
X138081027Y-63722419D02*
X138414360Y-64722419D01*
X138414360Y-64722419D02*
X138747693Y-63722419D01*
X139081027Y-64722419D02*
X139081027Y-64055752D01*
X139081027Y-63722419D02*
X139033408Y-63770038D01*
X139033408Y-63770038D02*
X139081027Y-63817657D01*
X139081027Y-63817657D02*
X139128646Y-63770038D01*
X139128646Y-63770038D02*
X139081027Y-63722419D01*
X139081027Y-63722419D02*
X139081027Y-63817657D01*
X139557217Y-64055752D02*
X139557217Y-64722419D01*
X139557217Y-64150990D02*
X139604836Y-64103371D01*
X139604836Y-64103371D02*
X139700074Y-64055752D01*
X139700074Y-64055752D02*
X139842931Y-64055752D01*
X139842931Y-64055752D02*
X139938169Y-64103371D01*
X139938169Y-64103371D02*
X139985788Y-64198609D01*
X139985788Y-64198609D02*
X139985788Y-64722419D01*
X129333884Y-82502419D02*
X129333884Y-81502419D01*
X129333884Y-81502419D02*
X129714836Y-81502419D01*
X129714836Y-81502419D02*
X129810074Y-81550038D01*
X129810074Y-81550038D02*
X129857693Y-81597657D01*
X129857693Y-81597657D02*
X129905312Y-81692895D01*
X129905312Y-81692895D02*
X129905312Y-81835752D01*
X129905312Y-81835752D02*
X129857693Y-81930990D01*
X129857693Y-81930990D02*
X129810074Y-81978609D01*
X129810074Y-81978609D02*
X129714836Y-82026228D01*
X129714836Y-82026228D02*
X129333884Y-82026228D01*
X130238646Y-81502419D02*
X130476741Y-82502419D01*
X130476741Y-82502419D02*
X130667217Y-81788133D01*
X130667217Y-81788133D02*
X130857693Y-82502419D01*
X130857693Y-82502419D02*
X131095789Y-81502419D01*
X131476741Y-82502419D02*
X131476741Y-81502419D01*
X131476741Y-81502419D02*
X131810074Y-82216704D01*
X131810074Y-82216704D02*
X132143407Y-81502419D01*
X132143407Y-81502419D02*
X132143407Y-82502419D01*
X138747693Y-99330038D02*
X138652455Y-99282419D01*
X138652455Y-99282419D02*
X138509598Y-99282419D01*
X138509598Y-99282419D02*
X138366741Y-99330038D01*
X138366741Y-99330038D02*
X138271503Y-99425276D01*
X138271503Y-99425276D02*
X138223884Y-99520514D01*
X138223884Y-99520514D02*
X138176265Y-99710990D01*
X138176265Y-99710990D02*
X138176265Y-99853847D01*
X138176265Y-99853847D02*
X138223884Y-100044323D01*
X138223884Y-100044323D02*
X138271503Y-100139561D01*
X138271503Y-100139561D02*
X138366741Y-100234800D01*
X138366741Y-100234800D02*
X138509598Y-100282419D01*
X138509598Y-100282419D02*
X138604836Y-100282419D01*
X138604836Y-100282419D02*
X138747693Y-100234800D01*
X138747693Y-100234800D02*
X138795312Y-100187180D01*
X138795312Y-100187180D02*
X138795312Y-99853847D01*
X138795312Y-99853847D02*
X138604836Y-99853847D01*
X139223884Y-100282419D02*
X139223884Y-99282419D01*
X139223884Y-99282419D02*
X139795312Y-100282419D01*
X139795312Y-100282419D02*
X139795312Y-99282419D01*
X140271503Y-100282419D02*
X140271503Y-99282419D01*
X140271503Y-99282419D02*
X140509598Y-99282419D01*
X140509598Y-99282419D02*
X140652455Y-99330038D01*
X140652455Y-99330038D02*
X140747693Y-99425276D01*
X140747693Y-99425276D02*
X140795312Y-99520514D01*
X140795312Y-99520514D02*
X140842931Y-99710990D01*
X140842931Y-99710990D02*
X140842931Y-99853847D01*
X140842931Y-99853847D02*
X140795312Y-100044323D01*
X140795312Y-100044323D02*
X140747693Y-100139561D01*
X140747693Y-100139561D02*
X140652455Y-100234800D01*
X140652455Y-100234800D02*
X140509598Y-100282419D01*
X140509598Y-100282419D02*
X140271503Y-100282419D01*
D11*
X180866666Y-121769819D02*
X180866666Y-122484104D01*
X180866666Y-122484104D02*
X180819047Y-122626961D01*
X180819047Y-122626961D02*
X180723809Y-122722200D01*
X180723809Y-122722200D02*
X180580952Y-122769819D01*
X180580952Y-122769819D02*
X180485714Y-122769819D01*
X181866666Y-122769819D02*
X181295238Y-122769819D01*
X181580952Y-122769819D02*
X181580952Y-121769819D01*
X181580952Y-121769819D02*
X181485714Y-121912676D01*
X181485714Y-121912676D02*
X181390476Y-122007914D01*
X181390476Y-122007914D02*
X181295238Y-122055533D01*
X152784819Y-117266666D02*
X152308628Y-117599999D01*
X152784819Y-117838094D02*
X151784819Y-117838094D01*
X151784819Y-117838094D02*
X151784819Y-117457142D01*
X151784819Y-117457142D02*
X151832438Y-117361904D01*
X151832438Y-117361904D02*
X151880057Y-117314285D01*
X151880057Y-117314285D02*
X151975295Y-117266666D01*
X151975295Y-117266666D02*
X152118152Y-117266666D01*
X152118152Y-117266666D02*
X152213390Y-117314285D01*
X152213390Y-117314285D02*
X152261009Y-117361904D01*
X152261009Y-117361904D02*
X152308628Y-117457142D01*
X152308628Y-117457142D02*
X152308628Y-117838094D01*
X152784819Y-116314285D02*
X152784819Y-116885713D01*
X152784819Y-116599999D02*
X151784819Y-116599999D01*
X151784819Y-116599999D02*
X151927676Y-116695237D01*
X151927676Y-116695237D02*
X152022914Y-116790475D01*
X152022914Y-116790475D02*
X152070533Y-116885713D01*
D14*
%TO.C,J5*%
X118280000Y-114330000D02*
X116950000Y-114330000D01*
X118280000Y-113000000D02*
X118280000Y-114330000D01*
X118280000Y-111730000D02*
X118280000Y-104050000D01*
X118280000Y-111730000D02*
X115620000Y-111730000D01*
X118280000Y-104050000D02*
X115620000Y-104050000D01*
X115620000Y-111730000D02*
X115620000Y-104050000D01*
%TO.C,R2*%
X148250000Y-113060000D02*
X148250000Y-113830000D01*
X149620000Y-113830000D02*
X146880000Y-113830000D01*
X146880000Y-113830000D02*
X146880000Y-120370000D01*
X149620000Y-120370000D02*
X149620000Y-113830000D01*
X146880000Y-120370000D02*
X149620000Y-120370000D01*
X148250000Y-121140000D02*
X148250000Y-120370000D01*
%TO.C,J2*%
X170830000Y-111650000D02*
X170830000Y-112980000D01*
X169500000Y-111650000D02*
X170830000Y-111650000D01*
X168230000Y-111650000D02*
X160550000Y-111650000D01*
X168230000Y-111650000D02*
X168230000Y-114310000D01*
X160550000Y-111650000D02*
X160550000Y-114310000D01*
X168230000Y-114310000D02*
X160550000Y-114310000D01*
%TO.C,J6*%
X119880000Y-87320000D02*
X118550000Y-87320000D01*
X119880000Y-85990000D02*
X119880000Y-87320000D01*
X119880000Y-84720000D02*
X119880000Y-77040000D01*
X119880000Y-84720000D02*
X117220000Y-84720000D01*
X119880000Y-77040000D02*
X117220000Y-77040000D01*
X117220000Y-84720000D02*
X117220000Y-77040000D01*
%TO.C,J3*%
X170830000Y-119270000D02*
X170830000Y-120600000D01*
X169500000Y-119270000D02*
X170830000Y-119270000D01*
X168230000Y-119270000D02*
X163090000Y-119270000D01*
X168230000Y-119270000D02*
X168230000Y-121930000D01*
X163090000Y-119270000D02*
X163090000Y-121930000D01*
X168230000Y-121930000D02*
X163090000Y-121930000D01*
%TO.C,J4*%
X151670000Y-79150000D02*
X153000000Y-79150000D01*
X151670000Y-80480000D02*
X151670000Y-79150000D01*
X151670000Y-81750000D02*
X151670000Y-89430000D01*
X151670000Y-81750000D02*
X154330000Y-81750000D01*
X151670000Y-89430000D02*
X154330000Y-89430000D01*
X154330000Y-81750000D02*
X154330000Y-89430000D01*
D12*
%TO.C,Teensy4.1*%
X126490000Y-91520000D02*
X126490000Y-62310000D01*
X126490000Y-91520000D02*
X126490000Y-92790000D01*
X126490000Y-92790000D02*
X126490000Y-123270000D01*
X126490000Y-123270000D02*
X144270000Y-123270000D01*
X144270000Y-62310000D02*
X126490000Y-62310000D01*
X144270000Y-62310000D02*
X144270000Y-90250000D01*
X144270000Y-123270000D02*
X144270000Y-90250000D01*
%TO.C,G\u002A\u002A\u002A*%
G36*
X116479988Y-124418335D02*
G01*
X116478016Y-124420307D01*
X116476044Y-124418335D01*
X116478016Y-124416364D01*
X116479988Y-124418335D01*
G37*
G36*
X116483931Y-124441996D02*
G01*
X116481960Y-124443968D01*
X116479988Y-124441996D01*
X116481960Y-124440025D01*
X116483931Y-124441996D01*
G37*
G36*
X116507592Y-124493262D02*
G01*
X116505621Y-124495233D01*
X116503649Y-124493262D01*
X116505621Y-124491290D01*
X116507592Y-124493262D01*
G37*
G36*
X116515479Y-124489318D02*
G01*
X116513508Y-124491290D01*
X116511536Y-124489318D01*
X116513508Y-124487347D01*
X116515479Y-124489318D01*
G37*
G36*
X116523366Y-124481431D02*
G01*
X116521394Y-124483403D01*
X116519423Y-124481431D01*
X116521394Y-124479460D01*
X116523366Y-124481431D01*
G37*
G36*
X116547027Y-124603679D02*
G01*
X116545055Y-124605651D01*
X116543084Y-124603679D01*
X116545055Y-124601708D01*
X116547027Y-124603679D01*
G37*
G36*
X116578575Y-124532697D02*
G01*
X116576603Y-124534668D01*
X116574632Y-124532697D01*
X116576603Y-124530725D01*
X116578575Y-124532697D01*
G37*
G36*
X116578575Y-124572131D02*
G01*
X116576603Y-124574103D01*
X116574632Y-124572131D01*
X116576603Y-124570160D01*
X116578575Y-124572131D01*
G37*
G36*
X116590405Y-124544527D02*
G01*
X116588434Y-124546499D01*
X116586462Y-124544527D01*
X116588434Y-124542555D01*
X116590405Y-124544527D01*
G37*
G36*
X116598292Y-124552414D02*
G01*
X116596321Y-124554386D01*
X116594349Y-124552414D01*
X116596321Y-124550442D01*
X116598292Y-124552414D01*
G37*
G36*
X116606179Y-124639171D02*
G01*
X116604208Y-124641142D01*
X116602236Y-124639171D01*
X116604208Y-124637199D01*
X116606179Y-124639171D01*
G37*
G36*
X116614066Y-124627340D02*
G01*
X116612095Y-124629312D01*
X116610123Y-124627340D01*
X116612095Y-124625369D01*
X116614066Y-124627340D01*
G37*
G36*
X116649558Y-124576075D02*
G01*
X116647586Y-124578047D01*
X116645614Y-124576075D01*
X116647586Y-124574103D01*
X116649558Y-124576075D01*
G37*
G36*
X116653501Y-124552414D02*
G01*
X116651530Y-124554386D01*
X116649558Y-124552414D01*
X116651530Y-124550442D01*
X116653501Y-124552414D01*
G37*
G36*
X116665332Y-124564245D02*
G01*
X116663360Y-124566216D01*
X116661388Y-124564245D01*
X116663360Y-124562273D01*
X116665332Y-124564245D01*
G37*
G36*
X116673219Y-124572131D02*
G01*
X116671247Y-124574103D01*
X116669275Y-124572131D01*
X116671247Y-124570160D01*
X116673219Y-124572131D01*
G37*
G36*
X116677162Y-124607623D02*
G01*
X116675190Y-124609595D01*
X116673219Y-124607623D01*
X116675190Y-124605651D01*
X116677162Y-124607623D01*
G37*
G36*
X116688993Y-124619453D02*
G01*
X116687021Y-124621425D01*
X116685049Y-124619453D01*
X116687021Y-124617482D01*
X116688993Y-124619453D01*
G37*
G36*
X116692936Y-124544527D02*
G01*
X116690964Y-124546499D01*
X116688993Y-124544527D01*
X116690964Y-124542555D01*
X116692936Y-124544527D01*
G37*
G36*
X116716597Y-124512979D02*
G01*
X116714625Y-124514951D01*
X116712654Y-124512979D01*
X116714625Y-124511007D01*
X116716597Y-124512979D01*
G37*
G36*
X116720541Y-124524810D02*
G01*
X116718569Y-124526781D01*
X116716597Y-124524810D01*
X116718569Y-124522838D01*
X116720541Y-124524810D01*
G37*
G36*
X116740258Y-124611566D02*
G01*
X116738286Y-124613538D01*
X116736315Y-124611566D01*
X116738286Y-124609595D01*
X116740258Y-124611566D01*
G37*
G36*
X116748145Y-124607623D02*
G01*
X116746173Y-124609595D01*
X116744201Y-124607623D01*
X116746173Y-124605651D01*
X116748145Y-124607623D01*
G37*
G36*
X116756032Y-124654945D02*
G01*
X116754060Y-124656916D01*
X116752088Y-124654945D01*
X116754060Y-124652973D01*
X116756032Y-124654945D01*
G37*
G36*
X116763919Y-124615510D02*
G01*
X116761947Y-124617482D01*
X116759975Y-124615510D01*
X116761947Y-124613538D01*
X116763919Y-124615510D01*
G37*
G36*
X116763919Y-124643114D02*
G01*
X116761947Y-124645086D01*
X116759975Y-124643114D01*
X116761947Y-124641142D01*
X116763919Y-124643114D01*
G37*
G36*
X116763919Y-124662832D02*
G01*
X116761947Y-124664803D01*
X116759975Y-124662832D01*
X116761947Y-124660860D01*
X116763919Y-124662832D01*
G37*
G36*
X116763919Y-124690436D02*
G01*
X116761947Y-124692408D01*
X116759975Y-124690436D01*
X116761947Y-124688464D01*
X116763919Y-124690436D01*
G37*
G36*
X116767862Y-124623397D02*
G01*
X116765891Y-124625369D01*
X116763919Y-124623397D01*
X116765891Y-124621425D01*
X116767862Y-124623397D01*
G37*
G36*
X116767862Y-124635227D02*
G01*
X116765891Y-124637199D01*
X116763919Y-124635227D01*
X116765891Y-124633256D01*
X116767862Y-124635227D01*
G37*
G36*
X116498391Y-124496548D02*
G01*
X116497849Y-124498892D01*
X116495762Y-124499177D01*
X116492516Y-124497734D01*
X116493133Y-124496548D01*
X116497813Y-124496076D01*
X116498391Y-124496548D01*
G37*
G36*
X116529939Y-124571474D02*
G01*
X116530411Y-124576154D01*
X116529939Y-124576732D01*
X116527594Y-124576191D01*
X116527310Y-124574103D01*
X116528753Y-124570857D01*
X116529939Y-124571474D01*
G37*
G36*
X116703452Y-124543870D02*
G01*
X116702911Y-124546214D01*
X116700823Y-124546499D01*
X116697577Y-124545056D01*
X116698194Y-124543870D01*
X116702874Y-124543398D01*
X116703452Y-124543870D01*
G37*
G36*
X116766548Y-124674005D02*
G01*
X116767020Y-124678685D01*
X116766548Y-124679263D01*
X116764204Y-124678722D01*
X116763919Y-124676634D01*
X116765362Y-124673388D01*
X116766548Y-124674005D01*
G37*
G36*
X116483322Y-124488942D02*
G01*
X116487522Y-124492607D01*
X116487875Y-124493494D01*
X116486003Y-124495115D01*
X116482107Y-124491483D01*
X116481583Y-124490681D01*
X116481118Y-124487982D01*
X116483322Y-124488942D01*
G37*
G36*
X116632798Y-124559926D02*
G01*
X116640249Y-124566918D01*
X116641325Y-124569964D01*
X116640310Y-124570160D01*
X116637090Y-124567500D01*
X116631437Y-124561287D01*
X116623925Y-124552414D01*
X116632798Y-124559926D01*
G37*
G36*
X116680496Y-124579642D02*
G01*
X116684730Y-124583613D01*
X116683861Y-124585895D01*
X116683310Y-124585934D01*
X116679975Y-124583133D01*
X116678757Y-124581381D01*
X116678293Y-124578682D01*
X116680496Y-124579642D01*
G37*
G36*
X116537903Y-124560877D02*
G01*
X116537168Y-124562273D01*
X116533453Y-124566039D01*
X116532759Y-124566216D01*
X116532490Y-124563669D01*
X116533225Y-124562273D01*
X116536941Y-124558507D01*
X116537634Y-124558329D01*
X116537903Y-124560877D01*
G37*
G36*
X116616138Y-124535906D02*
G01*
X116618996Y-124538109D01*
X116624457Y-124542973D01*
X116625897Y-124545010D01*
X116623979Y-124546190D01*
X116618736Y-124541124D01*
X116617507Y-124539598D01*
X116614096Y-124534927D01*
X116616138Y-124535906D01*
G37*
G36*
X116698952Y-124599002D02*
G01*
X116701809Y-124601205D01*
X116707271Y-124606069D01*
X116708710Y-124608106D01*
X116706792Y-124609286D01*
X116701550Y-124604220D01*
X116700320Y-124602694D01*
X116696910Y-124598022D01*
X116698952Y-124599002D01*
G37*
G36*
X116714726Y-124614776D02*
G01*
X116717583Y-124616979D01*
X116723045Y-124621843D01*
X116724484Y-124623880D01*
X116722566Y-124625060D01*
X116717323Y-124619994D01*
X116716094Y-124618467D01*
X116712684Y-124613796D01*
X116714726Y-124614776D01*
G37*
G36*
X116715360Y-124537216D02*
G01*
X116714625Y-124538612D01*
X116710910Y-124542378D01*
X116710216Y-124542555D01*
X116709947Y-124540008D01*
X116710682Y-124538612D01*
X116714397Y-124534846D01*
X116715091Y-124534668D01*
X116715360Y-124537216D01*
G37*
G36*
X117154444Y-125064546D02*
G01*
X117153496Y-125068828D01*
X117148308Y-125076342D01*
X117138573Y-125087568D01*
X117123982Y-125102984D01*
X117104228Y-125123068D01*
X117087745Y-125139579D01*
X117013111Y-125214090D01*
X117030766Y-125163240D01*
X117037713Y-125143204D01*
X117044123Y-125124668D01*
X117049346Y-125109513D01*
X117052733Y-125099621D01*
X117053065Y-125098641D01*
X117058908Y-125087793D01*
X117065596Y-125083766D01*
X117074169Y-125082049D01*
X117088105Y-125078743D01*
X117105177Y-125074408D01*
X117123159Y-125069606D01*
X117134938Y-125066311D01*
X117144857Y-125063766D01*
X117151462Y-125063018D01*
X117154444Y-125064546D01*
G37*
G36*
X116109300Y-124035896D02*
G01*
X116108158Y-124043097D01*
X116105165Y-124055274D01*
X116100972Y-124070264D01*
X116096233Y-124085904D01*
X116091597Y-124100030D01*
X116087717Y-124110480D01*
X116085531Y-124114818D01*
X116078555Y-124119929D01*
X116068453Y-124124237D01*
X116048826Y-124130714D01*
X116029614Y-124137914D01*
X116013957Y-124144639D01*
X116010462Y-124146364D01*
X116002256Y-124149440D01*
X115997472Y-124149079D01*
X115997348Y-124148914D01*
X115999410Y-124145293D01*
X116006309Y-124137032D01*
X116017244Y-124125007D01*
X116031414Y-124110093D01*
X116048018Y-124093164D01*
X116052333Y-124088841D01*
X116069419Y-124071967D01*
X116084457Y-124057462D01*
X116096628Y-124046087D01*
X116105116Y-124038602D01*
X116109102Y-124035767D01*
X116109300Y-124035896D01*
G37*
G36*
X115604942Y-124631248D02*
G01*
X115744892Y-124735883D01*
X115880662Y-124846965D01*
X116011823Y-124964068D01*
X116137949Y-125086765D01*
X116258613Y-125214631D01*
X116373390Y-125347240D01*
X116481853Y-125484167D01*
X116544835Y-125569773D01*
X116587076Y-125628865D01*
X116571981Y-125642331D01*
X116563479Y-125650156D01*
X116550926Y-125662011D01*
X116535899Y-125676395D01*
X116519970Y-125691810D01*
X116517063Y-125694643D01*
X116502437Y-125708633D01*
X116489609Y-125720385D01*
X116479712Y-125728899D01*
X116473879Y-125733177D01*
X116473027Y-125733488D01*
X116469126Y-125730444D01*
X116461988Y-125722239D01*
X116452767Y-125710265D01*
X116446086Y-125700955D01*
X116368058Y-125593950D01*
X116283314Y-125486486D01*
X116192869Y-125379677D01*
X116097734Y-125274639D01*
X115998922Y-125172487D01*
X115897447Y-125074336D01*
X115794322Y-124981302D01*
X115785689Y-124973818D01*
X115757625Y-124949962D01*
X115726021Y-124923780D01*
X115691932Y-124896094D01*
X115656412Y-124867726D01*
X115620517Y-124839500D01*
X115585301Y-124812239D01*
X115551818Y-124786765D01*
X115521125Y-124763901D01*
X115494275Y-124744469D01*
X115472324Y-124729293D01*
X115471441Y-124728705D01*
X115460672Y-124721043D01*
X115453185Y-124714742D01*
X115450738Y-124711486D01*
X115453355Y-124707628D01*
X115460594Y-124699179D01*
X115471533Y-124687158D01*
X115485249Y-124672585D01*
X115495667Y-124661765D01*
X115511455Y-124645413D01*
X115525819Y-124630357D01*
X115537619Y-124617802D01*
X115545720Y-124608955D01*
X115548326Y-124605935D01*
X115556056Y-124596360D01*
X115604942Y-124631248D01*
G37*
G36*
X115960110Y-124235297D02*
G01*
X115970556Y-124241859D01*
X115980387Y-124248156D01*
X115990428Y-124254763D01*
X116001506Y-124262252D01*
X116014445Y-124271198D01*
X116030072Y-124282173D01*
X116049212Y-124295751D01*
X116072690Y-124312505D01*
X116101333Y-124333009D01*
X116117766Y-124344787D01*
X116155671Y-124372787D01*
X116197634Y-124405240D01*
X116242374Y-124441056D01*
X116288607Y-124479148D01*
X116335050Y-124518428D01*
X116380420Y-124557807D01*
X116423434Y-124596197D01*
X116462809Y-124632510D01*
X116497261Y-124665658D01*
X116503976Y-124672341D01*
X116537425Y-124706792D01*
X116574277Y-124746389D01*
X116613398Y-124789826D01*
X116653658Y-124835794D01*
X116693925Y-124882987D01*
X116733068Y-124930096D01*
X116769955Y-124975814D01*
X116800401Y-125014837D01*
X116820286Y-125041226D01*
X116841286Y-125069825D01*
X116862659Y-125099563D01*
X116883665Y-125129369D01*
X116903562Y-125158171D01*
X116921610Y-125184898D01*
X116937068Y-125208478D01*
X116949195Y-125227839D01*
X116956842Y-125241132D01*
X116966194Y-125258760D01*
X116875901Y-125347557D01*
X116842539Y-125380329D01*
X116810080Y-125412143D01*
X116778996Y-125442541D01*
X116749761Y-125471064D01*
X116722847Y-125497253D01*
X116698727Y-125520649D01*
X116677875Y-125540794D01*
X116660762Y-125557229D01*
X116647863Y-125569494D01*
X116639650Y-125577132D01*
X116636606Y-125579685D01*
X116634147Y-125576691D01*
X116628581Y-125568893D01*
X116621953Y-125559221D01*
X116611104Y-125543637D01*
X116596281Y-125523063D01*
X116578391Y-125498704D01*
X116558342Y-125471764D01*
X116537041Y-125443450D01*
X116515395Y-125414967D01*
X116494312Y-125387519D01*
X116474697Y-125362312D01*
X116457459Y-125340551D01*
X116455780Y-125338460D01*
X116358838Y-125222753D01*
X116256151Y-125109314D01*
X116148653Y-124999020D01*
X116037276Y-124892747D01*
X115922950Y-124791370D01*
X115806608Y-124695766D01*
X115689182Y-124606811D01*
X115641011Y-124572514D01*
X115627327Y-124562644D01*
X115616481Y-124554232D01*
X115609860Y-124548386D01*
X115608477Y-124546464D01*
X115611256Y-124542487D01*
X115619524Y-124533061D01*
X115633173Y-124518294D01*
X115652099Y-124498298D01*
X115676196Y-124473182D01*
X115705359Y-124443056D01*
X115739481Y-124408030D01*
X115778457Y-124368215D01*
X115822093Y-124323811D01*
X115844162Y-124301358D01*
X115864741Y-124280356D01*
X115883100Y-124261558D01*
X115898505Y-124245716D01*
X115910225Y-124233581D01*
X115917529Y-124225905D01*
X115919370Y-124223889D01*
X115927252Y-124214786D01*
X115960110Y-124235297D01*
G37*
G36*
X115423977Y-124779237D02*
G01*
X115435262Y-124787227D01*
X115451306Y-124798808D01*
X115470553Y-124812847D01*
X115491447Y-124828209D01*
X115509890Y-124841869D01*
X115647200Y-124948786D01*
X115780388Y-125062219D01*
X115908996Y-125181704D01*
X116032566Y-125306772D01*
X116150643Y-125436957D01*
X116262767Y-125571793D01*
X116368482Y-125710813D01*
X116387287Y-125736934D01*
X116422111Y-125785729D01*
X116400433Y-125805945D01*
X116386500Y-125818904D01*
X116370118Y-125834091D01*
X116354642Y-125848396D01*
X116353459Y-125849487D01*
X116342377Y-125859779D01*
X116327017Y-125874144D01*
X116308821Y-125891227D01*
X116289233Y-125909674D01*
X116270983Y-125926913D01*
X116250274Y-125946501D01*
X116233927Y-125961941D01*
X116220574Y-125974507D01*
X116208849Y-125985472D01*
X116197385Y-125996109D01*
X116184816Y-126007693D01*
X116169775Y-126021496D01*
X116152704Y-126037137D01*
X116116109Y-126070657D01*
X116118520Y-126119950D01*
X116122505Y-126173346D01*
X116129029Y-126225680D01*
X116137730Y-126274360D01*
X116143501Y-126299379D01*
X116148479Y-126320759D01*
X116151230Y-126338112D01*
X116152121Y-126354861D01*
X116151525Y-126374305D01*
X116147978Y-126403946D01*
X116140342Y-126436254D01*
X116128396Y-126471760D01*
X116111922Y-126510994D01*
X116090700Y-126554486D01*
X116064509Y-126602769D01*
X116038134Y-126648041D01*
X116020648Y-126676006D01*
X115999001Y-126708594D01*
X115974145Y-126744524D01*
X115947029Y-126782511D01*
X115918606Y-126821273D01*
X115889825Y-126859526D01*
X115861637Y-126895987D01*
X115834993Y-126929373D01*
X115810844Y-126958400D01*
X115793926Y-126977659D01*
X115781620Y-126991377D01*
X115767538Y-127007326D01*
X115756462Y-127020051D01*
X115745645Y-127032327D01*
X115738603Y-127039399D01*
X115734152Y-127042198D01*
X115731111Y-127041654D01*
X115730114Y-127040800D01*
X115730385Y-127036605D01*
X115732064Y-127025624D01*
X115734979Y-127008802D01*
X115738959Y-126987081D01*
X115743834Y-126961404D01*
X115749432Y-126932713D01*
X115752443Y-126917566D01*
X115761511Y-126872187D01*
X115769149Y-126833865D01*
X115775479Y-126801924D01*
X115780625Y-126775690D01*
X115784707Y-126754487D01*
X115787850Y-126737640D01*
X115790175Y-126724473D01*
X115791804Y-126714310D01*
X115792861Y-126706477D01*
X115793468Y-126700299D01*
X115793747Y-126695098D01*
X115793820Y-126690201D01*
X115793821Y-126689390D01*
X115791764Y-126665735D01*
X115785370Y-126639381D01*
X115774304Y-126609200D01*
X115761765Y-126581338D01*
X115748118Y-126552267D01*
X115737852Y-126528771D01*
X115730526Y-126509527D01*
X115725699Y-126493212D01*
X115722930Y-126478500D01*
X115721779Y-126464070D01*
X115721703Y-126461062D01*
X115723405Y-126436666D01*
X115729835Y-126413722D01*
X115741637Y-126390855D01*
X115759458Y-126366692D01*
X115773639Y-126350644D01*
X115783969Y-126338871D01*
X115794930Y-126325316D01*
X115805335Y-126311590D01*
X115813999Y-126299301D01*
X115819736Y-126290057D01*
X115821426Y-126285820D01*
X115819976Y-126282999D01*
X115814632Y-126280538D01*
X115803898Y-126277903D01*
X115793821Y-126275935D01*
X115784482Y-126273808D01*
X115771189Y-126270340D01*
X115762273Y-126267843D01*
X115749285Y-126264135D01*
X115738850Y-126261222D01*
X115734669Y-126260104D01*
X115728715Y-126258023D01*
X115717318Y-126253578D01*
X115702293Y-126247488D01*
X115690325Y-126242522D01*
X115673672Y-126235822D01*
X115659153Y-126230487D01*
X115648650Y-126227179D01*
X115644663Y-126226424D01*
X115637898Y-126224196D01*
X115627317Y-126218376D01*
X115616052Y-126210816D01*
X115602931Y-126201540D01*
X115590493Y-126193249D01*
X115582845Y-126188564D01*
X115574338Y-126183400D01*
X115560888Y-126174794D01*
X115544045Y-126163777D01*
X115525359Y-126151383D01*
X115506382Y-126138643D01*
X115488663Y-126126591D01*
X115473754Y-126116259D01*
X115466512Y-126111104D01*
X115432119Y-126084928D01*
X115394206Y-126053777D01*
X115354150Y-126018856D01*
X115313329Y-125981374D01*
X115273119Y-125942537D01*
X115265369Y-125934812D01*
X115212420Y-125880018D01*
X115165152Y-125827290D01*
X115122261Y-125775035D01*
X115082443Y-125721660D01*
X115044393Y-125665571D01*
X115042410Y-125662506D01*
X115030342Y-125643841D01*
X115018134Y-125625005D01*
X115007337Y-125608392D01*
X115000482Y-125597884D01*
X114992363Y-125584586D01*
X114985934Y-125572423D01*
X114982700Y-125564365D01*
X114979816Y-125555753D01*
X114974636Y-125542693D01*
X114968227Y-125527868D01*
X114967589Y-125526455D01*
X114944367Y-125465978D01*
X114928565Y-125403108D01*
X114923260Y-125369548D01*
X114920339Y-125346720D01*
X114900966Y-125359690D01*
X114888596Y-125367985D01*
X114877521Y-125375437D01*
X114872387Y-125378908D01*
X114864275Y-125385122D01*
X114853420Y-125394305D01*
X114846403Y-125400597D01*
X114819646Y-125423763D01*
X114795940Y-125440891D01*
X114774099Y-125452593D01*
X114752935Y-125459483D01*
X114731263Y-125462175D01*
X114727140Y-125462261D01*
X114710847Y-125461474D01*
X114694182Y-125458588D01*
X114675644Y-125453139D01*
X114653736Y-125444667D01*
X114626959Y-125432711D01*
X114618990Y-125428963D01*
X114593578Y-125416990D01*
X114573819Y-125408012D01*
X114558265Y-125401592D01*
X114545467Y-125397296D01*
X114533977Y-125394688D01*
X114522347Y-125393330D01*
X114509128Y-125392788D01*
X114498386Y-125392662D01*
X114478544Y-125393068D01*
X114458902Y-125394395D01*
X114442604Y-125396398D01*
X114437262Y-125397439D01*
X114427599Y-125399555D01*
X114411774Y-125402863D01*
X114391368Y-125407047D01*
X114367959Y-125411789D01*
X114343127Y-125416771D01*
X114318451Y-125421678D01*
X114295512Y-125426191D01*
X114275888Y-125429994D01*
X114263748Y-125432290D01*
X114256090Y-125433785D01*
X114242639Y-125436481D01*
X114225324Y-125439989D01*
X114207035Y-125443724D01*
X114182639Y-125448331D01*
X114165593Y-125450413D01*
X114155678Y-125449666D01*
X114152675Y-125445786D01*
X114156366Y-125438466D01*
X114166531Y-125427403D01*
X114182954Y-125412292D01*
X114183893Y-125411463D01*
X114196798Y-125400051D01*
X114207416Y-125390623D01*
X114214405Y-125384372D01*
X114216426Y-125382518D01*
X114222131Y-125377349D01*
X114232101Y-125368782D01*
X114244465Y-125358376D01*
X114257354Y-125347693D01*
X114268899Y-125338291D01*
X114277230Y-125331730D01*
X114277865Y-125331253D01*
X114285184Y-125325749D01*
X114297522Y-125316427D01*
X114313617Y-125304240D01*
X114332210Y-125290143D01*
X114351353Y-125275611D01*
X114372852Y-125259431D01*
X114394733Y-125243225D01*
X114415250Y-125228268D01*
X114432659Y-125215834D01*
X114443157Y-125208572D01*
X114457190Y-125199070D01*
X114468913Y-125191058D01*
X114476668Y-125185672D01*
X114478649Y-125184234D01*
X114490282Y-125176032D01*
X114507492Y-125164987D01*
X114528866Y-125151915D01*
X114552991Y-125137626D01*
X114578455Y-125122936D01*
X114603844Y-125108655D01*
X114627747Y-125095599D01*
X114648751Y-125084580D01*
X114665443Y-125076410D01*
X114667956Y-125075272D01*
X114689242Y-125066287D01*
X114713136Y-125056987D01*
X114736870Y-125048392D01*
X114757670Y-125041524D01*
X114766543Y-125038938D01*
X114790275Y-125034823D01*
X114818474Y-125033569D01*
X114848287Y-125035099D01*
X114876860Y-125039337D01*
X114888791Y-125042173D01*
X114906294Y-125046642D01*
X114923390Y-125050499D01*
X114936729Y-125052996D01*
X114938084Y-125053191D01*
X114950238Y-125055005D01*
X114959649Y-125056690D01*
X114961745Y-125057168D01*
X114967834Y-125058112D01*
X114980003Y-125059516D01*
X114996473Y-125061190D01*
X115014982Y-125062899D01*
X115036227Y-125064777D01*
X115057148Y-125066638D01*
X115075062Y-125068245D01*
X115085491Y-125069192D01*
X115108679Y-125071318D01*
X115134785Y-125044511D01*
X115146603Y-125032234D01*
X115162164Y-125015865D01*
X115179860Y-124997106D01*
X115198083Y-124977659D01*
X115208213Y-124966785D01*
X115224371Y-124949423D01*
X115239342Y-124933378D01*
X115252017Y-124919838D01*
X115261286Y-124909986D01*
X115265394Y-124905672D01*
X115270878Y-124899891D01*
X115280740Y-124889389D01*
X115293992Y-124875223D01*
X115309648Y-124858454D01*
X115326719Y-124840141D01*
X115344220Y-124821341D01*
X115361161Y-124803115D01*
X115376556Y-124786522D01*
X115386514Y-124775762D01*
X115399188Y-124762049D01*
X115423977Y-124779237D01*
G37*
G36*
X116185498Y-124023972D02*
G01*
X116209725Y-124039194D01*
X116236587Y-124057047D01*
X116267081Y-124078217D01*
X116302205Y-124103390D01*
X116320406Y-124116659D01*
X116337300Y-124128984D01*
X116352305Y-124139847D01*
X116364086Y-124148286D01*
X116371307Y-124153341D01*
X116372492Y-124154122D01*
X116381242Y-124160099D01*
X116385032Y-124162944D01*
X116390818Y-124167373D01*
X116401153Y-124175194D01*
X116414275Y-124185075D01*
X116421566Y-124190548D01*
X116437704Y-124203155D01*
X116456750Y-124218799D01*
X116475863Y-124235116D01*
X116486820Y-124244822D01*
X116502861Y-124259150D01*
X116518979Y-124273288D01*
X116533048Y-124285383D01*
X116541153Y-124292144D01*
X116571660Y-124317858D01*
X116605596Y-124348016D01*
X116641959Y-124381617D01*
X116679746Y-124417656D01*
X116717954Y-124455131D01*
X116755580Y-124493040D01*
X116791623Y-124530378D01*
X116825078Y-124566144D01*
X116854944Y-124599333D01*
X116880218Y-124628944D01*
X116890111Y-124641195D01*
X116898603Y-124651491D01*
X116910643Y-124665502D01*
X116924426Y-124681146D01*
X116934459Y-124692301D01*
X116946936Y-124706723D01*
X116962522Y-124725786D01*
X116979789Y-124747684D01*
X116997307Y-124770609D01*
X117010942Y-124789023D01*
X117027409Y-124811579D01*
X117044478Y-124834850D01*
X117060780Y-124856980D01*
X117074949Y-124876111D01*
X117084058Y-124888314D01*
X117095333Y-124903638D01*
X117107449Y-124920621D01*
X117119538Y-124937980D01*
X117130729Y-124954430D01*
X117140152Y-124968689D01*
X117146936Y-124979472D01*
X117150211Y-124985495D01*
X117150381Y-124986144D01*
X117152396Y-124990114D01*
X117157496Y-124998228D01*
X117160523Y-125002764D01*
X117170665Y-125017710D01*
X117159537Y-125020296D01*
X117150308Y-125022622D01*
X117136346Y-125026347D01*
X117120505Y-125030706D01*
X117118833Y-125031173D01*
X117103568Y-125035377D01*
X117090469Y-125038848D01*
X117082059Y-125040921D01*
X117081370Y-125041068D01*
X117072834Y-125043188D01*
X117060690Y-125046622D01*
X117055737Y-125048112D01*
X117045755Y-125051698D01*
X117039246Y-125056290D01*
X117034194Y-125064040D01*
X117028598Y-125077056D01*
X117022770Y-125092062D01*
X117015854Y-125110515D01*
X117008465Y-125130700D01*
X117001217Y-125150900D01*
X116994724Y-125169399D01*
X116989599Y-125184480D01*
X116986457Y-125194427D01*
X116985984Y-125196188D01*
X116983210Y-125203091D01*
X116980884Y-125205061D01*
X116977660Y-125201934D01*
X116971383Y-125193519D01*
X116963095Y-125181269D01*
X116957495Y-125172527D01*
X116950092Y-125160825D01*
X116942961Y-125149784D01*
X116935437Y-125138440D01*
X116926851Y-125125827D01*
X116926169Y-125124845D01*
X116949263Y-125124845D01*
X116951000Y-125130723D01*
X116955325Y-125140125D01*
X116960911Y-125150613D01*
X116966427Y-125159748D01*
X116970545Y-125165095D01*
X116971492Y-125165626D01*
X116973833Y-125162307D01*
X116978390Y-125153544D01*
X116984240Y-125141128D01*
X116985120Y-125139179D01*
X116995027Y-125116597D01*
X117003450Y-125096425D01*
X117009960Y-125079771D01*
X117014132Y-125067740D01*
X117015536Y-125061441D01*
X117015368Y-125060847D01*
X117011777Y-125062387D01*
X117004150Y-125068375D01*
X116993837Y-125077502D01*
X116982193Y-125088459D01*
X116970569Y-125099936D01*
X116960318Y-125110623D01*
X116952793Y-125119212D01*
X116949346Y-125124392D01*
X116949263Y-125124845D01*
X116926169Y-125124845D01*
X116916538Y-125110979D01*
X116903831Y-125092929D01*
X116888062Y-125070712D01*
X116868566Y-125043363D01*
X116861538Y-125033519D01*
X116840478Y-125004450D01*
X116821845Y-124979765D01*
X116803850Y-124957179D01*
X116784710Y-124934407D01*
X116777777Y-124926393D01*
X116773808Y-124921644D01*
X116766012Y-124912174D01*
X116755536Y-124899381D01*
X116744201Y-124885488D01*
X116727597Y-124865130D01*
X116754168Y-124865130D01*
X116754306Y-124866468D01*
X116757937Y-124871460D01*
X116765499Y-124881177D01*
X116775913Y-124894253D01*
X116788101Y-124909321D01*
X116789049Y-124910484D01*
X116820567Y-124949131D01*
X116860739Y-124909095D01*
X116900912Y-124869059D01*
X116903251Y-124882278D01*
X116904506Y-124891261D01*
X116906217Y-124906079D01*
X116908162Y-124924709D01*
X116910122Y-124945128D01*
X116910209Y-124946076D01*
X116914827Y-124996654D01*
X116897925Y-125013876D01*
X116881022Y-125031099D01*
X116888225Y-125042168D01*
X116894992Y-125051703D01*
X116904241Y-125063712D01*
X116909529Y-125070233D01*
X116923630Y-125087229D01*
X116924797Y-125074150D01*
X116924881Y-125063676D01*
X116923994Y-125048598D01*
X116922327Y-125032113D01*
X116922253Y-125031522D01*
X116918542Y-125001972D01*
X116966436Y-124953571D01*
X117014330Y-124905170D01*
X117016851Y-124922023D01*
X117018119Y-124932816D01*
X117019620Y-124949120D01*
X117021151Y-124968574D01*
X117022306Y-124985537D01*
X117023903Y-125006899D01*
X117025656Y-125021416D01*
X117027749Y-125030131D01*
X117030368Y-125034086D01*
X117030983Y-125034402D01*
X117036415Y-125032579D01*
X117046530Y-125025065D01*
X117060919Y-125012189D01*
X117073835Y-124999649D01*
X117087562Y-124985760D01*
X117098996Y-124973777D01*
X117107094Y-124964821D01*
X117110817Y-124960015D01*
X117110946Y-124959632D01*
X117108834Y-124954729D01*
X117103175Y-124945116D01*
X117094982Y-124932275D01*
X117085268Y-124917684D01*
X117075046Y-124902824D01*
X117065328Y-124889176D01*
X117057129Y-124878220D01*
X117051462Y-124871436D01*
X117049574Y-124869961D01*
X117044429Y-124872529D01*
X117036681Y-124879060D01*
X117034048Y-124881695D01*
X117026391Y-124889070D01*
X117020949Y-124893204D01*
X117020016Y-124893526D01*
X117018644Y-124889862D01*
X117017069Y-124879969D01*
X117015514Y-124865491D01*
X117014528Y-124853105D01*
X117013157Y-124834778D01*
X117011667Y-124822363D01*
X117009449Y-124813899D01*
X117005896Y-124807426D01*
X117000400Y-124800982D01*
X116997388Y-124797836D01*
X116983037Y-124782989D01*
X116942489Y-124823399D01*
X116901941Y-124863809D01*
X116901761Y-124848105D01*
X116901101Y-124838070D01*
X116899439Y-124822404D01*
X116897028Y-124803264D01*
X116894164Y-124783108D01*
X116886747Y-124733814D01*
X116902831Y-124717279D01*
X116910442Y-124709224D01*
X116914652Y-124702929D01*
X116915096Y-124696854D01*
X116911409Y-124689461D01*
X116903228Y-124679211D01*
X116890402Y-124664803D01*
X116874460Y-124647058D01*
X116874398Y-124660100D01*
X116875019Y-124670741D01*
X116876700Y-124685763D01*
X116878910Y-124700834D01*
X116883483Y-124728525D01*
X116817282Y-124794813D01*
X116794271Y-124818110D01*
X116776766Y-124836436D01*
X116764455Y-124850145D01*
X116757026Y-124859591D01*
X116754168Y-124865130D01*
X116727597Y-124865130D01*
X116722203Y-124858516D01*
X116704249Y-124836609D01*
X116689430Y-124818696D01*
X116676836Y-124803707D01*
X116665557Y-124790570D01*
X116654682Y-124778216D01*
X116643301Y-124765574D01*
X116630505Y-124751571D01*
X116628684Y-124749588D01*
X116519996Y-124636970D01*
X116406346Y-124530223D01*
X116291097Y-124432138D01*
X116275867Y-124419718D01*
X116262156Y-124408380D01*
X116251563Y-124399452D01*
X116246017Y-124394583D01*
X116234554Y-124384598D01*
X116218608Y-124371635D01*
X116200162Y-124357232D01*
X116181200Y-124342925D01*
X116163705Y-124330251D01*
X116156622Y-124325341D01*
X116144271Y-124316824D01*
X116134620Y-124309943D01*
X116129402Y-124305939D01*
X116129018Y-124305564D01*
X116124809Y-124302188D01*
X116115070Y-124295158D01*
X116100836Y-124285187D01*
X116083144Y-124272988D01*
X116063030Y-124259274D01*
X116041530Y-124244758D01*
X116019680Y-124230154D01*
X116013614Y-124226129D01*
X115995278Y-124213655D01*
X115983284Y-124204531D01*
X115981207Y-124202366D01*
X116010840Y-124202366D01*
X116013907Y-124206063D01*
X116021701Y-124212479D01*
X116029572Y-124218157D01*
X116048176Y-124230928D01*
X116081196Y-124197926D01*
X116093955Y-124184743D01*
X116104164Y-124173366D01*
X116110772Y-124165025D01*
X116112744Y-124160979D01*
X116110446Y-124159977D01*
X116104479Y-124161083D01*
X116094035Y-124164579D01*
X116078307Y-124170744D01*
X116056487Y-124179859D01*
X116048176Y-124183406D01*
X116035683Y-124188741D01*
X116023529Y-124193909D01*
X116015058Y-124198281D01*
X116010923Y-124201948D01*
X116010840Y-124202366D01*
X115981207Y-124202366D01*
X115977156Y-124198144D01*
X115976415Y-124193882D01*
X115980583Y-124191134D01*
X115985370Y-124189933D01*
X115994047Y-124187409D01*
X116005281Y-124183166D01*
X116006769Y-124182536D01*
X116020028Y-124177065D01*
X116034460Y-124171416D01*
X116036346Y-124170706D01*
X116047392Y-124166484D01*
X116062926Y-124160435D01*
X116080115Y-124153664D01*
X116085376Y-124151576D01*
X116107978Y-124142586D01*
X116135915Y-124142586D01*
X116136053Y-124147929D01*
X116138465Y-124159248D01*
X116142775Y-124175093D01*
X116148610Y-124194009D01*
X116151094Y-124201538D01*
X116169236Y-124255556D01*
X116153036Y-124272063D01*
X116144036Y-124281823D01*
X116140138Y-124288127D01*
X116140489Y-124292689D01*
X116141799Y-124294622D01*
X116147237Y-124299759D01*
X116156434Y-124307162D01*
X116167346Y-124315335D01*
X116177927Y-124322786D01*
X116186132Y-124328018D01*
X116189684Y-124329607D01*
X116191996Y-124326111D01*
X116190889Y-124315807D01*
X116186411Y-124298973D01*
X116182598Y-124287239D01*
X116173083Y-124259263D01*
X116221011Y-124211783D01*
X116236834Y-124196406D01*
X116250763Y-124183433D01*
X116261841Y-124173710D01*
X116269112Y-124168081D01*
X116271554Y-124167100D01*
X116273619Y-124171698D01*
X116277489Y-124182394D01*
X116282664Y-124197741D01*
X116288650Y-124216292D01*
X116290670Y-124222716D01*
X116307171Y-124275536D01*
X116266601Y-124316244D01*
X116252412Y-124330688D01*
X116240635Y-124343072D01*
X116232200Y-124352385D01*
X116228041Y-124357616D01*
X116227804Y-124358362D01*
X116231378Y-124361225D01*
X116239897Y-124368057D01*
X116252158Y-124377892D01*
X116266954Y-124389763D01*
X116269878Y-124392109D01*
X116310180Y-124424445D01*
X116325631Y-124410486D01*
X116341083Y-124396526D01*
X116347440Y-124424674D01*
X116350564Y-124439150D01*
X116352832Y-124450881D01*
X116353790Y-124457502D01*
X116353796Y-124457752D01*
X116356552Y-124462779D01*
X116363733Y-124470976D01*
X116372528Y-124479413D01*
X116380698Y-124486896D01*
X116393493Y-124498848D01*
X116409854Y-124514267D01*
X116428723Y-124532154D01*
X116449041Y-124551509D01*
X116461804Y-124563714D01*
X116485227Y-124585969D01*
X116503790Y-124603152D01*
X116518161Y-124615819D01*
X116529005Y-124624527D01*
X116536990Y-124629832D01*
X116542781Y-124632289D01*
X116544358Y-124632574D01*
X116551315Y-124634174D01*
X116552277Y-124636360D01*
X116551942Y-124636599D01*
X116550619Y-124638066D01*
X116550844Y-124640537D01*
X116553163Y-124644667D01*
X116558121Y-124651113D01*
X116566266Y-124660528D01*
X116578142Y-124673569D01*
X116594296Y-124690890D01*
X116615275Y-124713147D01*
X116619070Y-124717162D01*
X116634983Y-124734104D01*
X116649284Y-124749539D01*
X116660964Y-124762362D01*
X116669015Y-124771468D01*
X116672160Y-124775328D01*
X116677468Y-124781348D01*
X116680571Y-124783108D01*
X116684212Y-124780420D01*
X116692269Y-124773017D01*
X116703714Y-124761889D01*
X116717516Y-124748025D01*
X116724711Y-124740653D01*
X116741223Y-124723362D01*
X116758560Y-124704743D01*
X116775836Y-124685799D01*
X116792166Y-124667532D01*
X116806662Y-124650944D01*
X116818441Y-124637038D01*
X116826615Y-124626814D01*
X116830299Y-124621276D01*
X116830345Y-124621152D01*
X116828824Y-124616214D01*
X116823519Y-124607158D01*
X116816093Y-124596645D01*
X116806383Y-124584307D01*
X116793199Y-124568208D01*
X116777424Y-124549365D01*
X116759943Y-124528796D01*
X116741639Y-124507519D01*
X116723396Y-124486552D01*
X116706099Y-124466913D01*
X116690631Y-124449621D01*
X116677877Y-124435692D01*
X116668719Y-124426146D01*
X116665133Y-124422789D01*
X116657348Y-124416017D01*
X116645267Y-124405159D01*
X116630339Y-124391530D01*
X116614011Y-124376448D01*
X116608151Y-124370992D01*
X116589333Y-124353655D01*
X116569442Y-124335715D01*
X116549395Y-124317958D01*
X116530105Y-124301169D01*
X116512489Y-124286132D01*
X116497460Y-124273631D01*
X116485933Y-124264452D01*
X116478825Y-124259380D01*
X116477144Y-124258624D01*
X116473577Y-124261300D01*
X116465284Y-124268807D01*
X116453081Y-124280365D01*
X116437784Y-124295195D01*
X116420211Y-124312517D01*
X116408971Y-124323726D01*
X116343960Y-124388827D01*
X116337268Y-124364146D01*
X116332699Y-124347734D01*
X116327015Y-124327922D01*
X116321404Y-124308854D01*
X116321123Y-124307918D01*
X116311670Y-124276370D01*
X116350479Y-124236521D01*
X116364448Y-124221922D01*
X116376185Y-124209170D01*
X116384692Y-124199386D01*
X116388972Y-124193692D01*
X116389288Y-124192886D01*
X116386397Y-124189248D01*
X116378659Y-124181960D01*
X116367474Y-124172185D01*
X116354243Y-124161086D01*
X116340367Y-124149826D01*
X116327248Y-124139568D01*
X116316285Y-124131475D01*
X116311177Y-124128048D01*
X116305707Y-124125513D01*
X116300595Y-124126457D01*
X116293661Y-124131764D01*
X116287490Y-124137632D01*
X116272264Y-124152500D01*
X116260968Y-124118504D01*
X116255247Y-124102002D01*
X116250517Y-124091126D01*
X116245530Y-124083938D01*
X116239041Y-124078502D01*
X116232664Y-124074542D01*
X116215655Y-124064574D01*
X116177266Y-124101112D01*
X116162837Y-124114996D01*
X116150421Y-124127228D01*
X116141181Y-124136639D01*
X116136283Y-124142063D01*
X116135915Y-124142586D01*
X116107978Y-124142586D01*
X116118633Y-124138348D01*
X116131752Y-124092998D01*
X116137608Y-124072825D01*
X116143338Y-124053219D01*
X116148209Y-124036674D01*
X116151032Y-124027203D01*
X116157193Y-124006758D01*
X116185498Y-124023972D01*
G37*
G36*
X117115073Y-122742693D02*
G01*
X117345950Y-122973390D01*
X117359569Y-122964233D01*
X117372296Y-122956435D01*
X117387135Y-122948459D01*
X117401948Y-122941324D01*
X117414600Y-122936051D01*
X117422952Y-122933660D01*
X117423718Y-122933613D01*
X117429533Y-122931984D01*
X117440870Y-122927533D01*
X117456172Y-122920912D01*
X117473881Y-122912773D01*
X117476562Y-122911502D01*
X117514565Y-122894080D01*
X117557445Y-122875542D01*
X117602517Y-122857004D01*
X117647093Y-122839582D01*
X117672893Y-122829979D01*
X117701301Y-122819710D01*
X117729669Y-122809589D01*
X117756884Y-122800001D01*
X117781835Y-122791330D01*
X117803413Y-122783960D01*
X117820504Y-122778275D01*
X117831999Y-122774661D01*
X117835881Y-122773616D01*
X117844083Y-122771421D01*
X117857054Y-122767479D01*
X117872106Y-122762608D01*
X117873344Y-122762195D01*
X117891995Y-122756231D01*
X117913578Y-122749740D01*
X117933163Y-122744199D01*
X117960232Y-122736897D01*
X117985561Y-122730098D01*
X118007903Y-122724136D01*
X118026010Y-122719341D01*
X118038636Y-122716047D01*
X118043580Y-122714802D01*
X118057360Y-122711638D01*
X118068995Y-122709212D01*
X118075820Y-122708079D01*
X118076049Y-122708063D01*
X118081759Y-122706648D01*
X118088147Y-122704438D01*
X118098797Y-122701214D01*
X118109837Y-122698778D01*
X118121867Y-122696456D01*
X118136283Y-122693395D01*
X118140196Y-122692515D01*
X118156744Y-122688869D01*
X118176394Y-122684743D01*
X118197035Y-122680555D01*
X118216559Y-122676727D01*
X118232855Y-122673679D01*
X118243815Y-122671830D01*
X118244698Y-122671705D01*
X118255498Y-122669605D01*
X118260472Y-122668304D01*
X118269000Y-122666460D01*
X118281602Y-122664446D01*
X118288077Y-122663597D01*
X118301531Y-122661768D01*
X118319335Y-122659078D01*
X118338073Y-122656045D01*
X118341775Y-122655419D01*
X118369771Y-122650933D01*
X118399011Y-122646764D01*
X118428463Y-122643006D01*
X118457099Y-122639756D01*
X118483887Y-122637108D01*
X118507798Y-122635158D01*
X118527801Y-122634001D01*
X118542866Y-122633733D01*
X118551963Y-122634448D01*
X118554253Y-122635752D01*
X118553872Y-122640942D01*
X118552831Y-122652480D01*
X118551269Y-122668865D01*
X118549329Y-122688599D01*
X118548422Y-122697660D01*
X118530527Y-122839991D01*
X118505449Y-122983868D01*
X118473455Y-123128244D01*
X118434810Y-123272074D01*
X118389779Y-123414311D01*
X118338630Y-123553907D01*
X118317672Y-123605977D01*
X118307032Y-123631683D01*
X118298455Y-123652170D01*
X118291028Y-123669526D01*
X118283841Y-123685837D01*
X118275983Y-123703190D01*
X118266542Y-123723671D01*
X118262110Y-123733224D01*
X118255614Y-123748183D01*
X118250977Y-123760761D01*
X118248864Y-123769058D01*
X118248929Y-123770931D01*
X118248181Y-123776597D01*
X118244536Y-123786062D01*
X118239270Y-123796826D01*
X118233658Y-123806388D01*
X118228976Y-123812247D01*
X118227466Y-123813010D01*
X118223846Y-123816068D01*
X118218483Y-123823597D01*
X118217442Y-123825313D01*
X118210175Y-123837616D01*
X118455002Y-124082625D01*
X118699830Y-124327635D01*
X118367473Y-125567619D01*
X118035115Y-126807604D01*
X116795178Y-127139972D01*
X116698477Y-127165893D01*
X116603752Y-127191286D01*
X116511285Y-127216073D01*
X116421358Y-127240181D01*
X116334256Y-127263532D01*
X116250259Y-127286051D01*
X116169651Y-127307662D01*
X116092714Y-127328289D01*
X116019732Y-127347857D01*
X115950986Y-127366290D01*
X115886760Y-127383512D01*
X115827335Y-127399447D01*
X115772996Y-127414020D01*
X115724023Y-127427154D01*
X115680701Y-127438774D01*
X115643311Y-127448804D01*
X115612136Y-127457168D01*
X115587459Y-127463791D01*
X115569563Y-127468596D01*
X115558729Y-127471509D01*
X115555237Y-127472453D01*
X115552483Y-127469708D01*
X115544359Y-127461592D01*
X115531073Y-127448312D01*
X115512831Y-127430076D01*
X115489840Y-127407090D01*
X115462308Y-127379560D01*
X115430440Y-127347694D01*
X115394443Y-127311699D01*
X115354525Y-127271782D01*
X115310893Y-127228149D01*
X115263753Y-127181007D01*
X115213312Y-127130564D01*
X115159777Y-127077025D01*
X115103356Y-127020599D01*
X115044254Y-126961491D01*
X114982678Y-126899910D01*
X114918836Y-126836060D01*
X114852935Y-126770151D01*
X114785181Y-126702387D01*
X114715781Y-126632977D01*
X114647393Y-126564578D01*
X113739552Y-125656590D01*
X113746183Y-125631848D01*
X113828890Y-125631848D01*
X114703892Y-126506857D01*
X114773402Y-126576360D01*
X114841477Y-126644412D01*
X114907905Y-126710803D01*
X114972475Y-126775321D01*
X115034975Y-126837757D01*
X115095195Y-126897898D01*
X115152921Y-126955535D01*
X115207944Y-127010456D01*
X115260052Y-127062450D01*
X115309032Y-127111307D01*
X115354675Y-127156816D01*
X115396768Y-127198766D01*
X115435099Y-127236946D01*
X115469458Y-127271146D01*
X115499633Y-127301153D01*
X115525412Y-127326758D01*
X115546584Y-127347750D01*
X115562938Y-127363918D01*
X115574262Y-127375051D01*
X115580345Y-127380938D01*
X115581388Y-127381866D01*
X115585349Y-127380858D01*
X115596639Y-127377885D01*
X115614968Y-127373024D01*
X115640049Y-127366354D01*
X115671592Y-127357950D01*
X115709307Y-127347891D01*
X115752905Y-127336253D01*
X115802098Y-127323115D01*
X115856597Y-127308552D01*
X115916112Y-127292643D01*
X115980354Y-127275465D01*
X116049035Y-127257095D01*
X116121864Y-127237611D01*
X116198554Y-127217089D01*
X116278815Y-127195607D01*
X116362358Y-127173242D01*
X116448893Y-127150072D01*
X116538133Y-127126174D01*
X116629787Y-127101625D01*
X116723567Y-127076503D01*
X116775901Y-127062481D01*
X116870716Y-127037074D01*
X116963557Y-127012189D01*
X117054136Y-126987905D01*
X117142163Y-126964299D01*
X117227351Y-126941448D01*
X117309410Y-126919431D01*
X117388052Y-126898324D01*
X117462988Y-126878206D01*
X117533929Y-126859154D01*
X117600587Y-126841245D01*
X117662673Y-126824557D01*
X117719897Y-126809169D01*
X117771972Y-126795156D01*
X117818608Y-126782598D01*
X117859518Y-126771571D01*
X117894411Y-126762153D01*
X117923000Y-126754422D01*
X117944995Y-126748456D01*
X117960109Y-126744331D01*
X117968051Y-126742126D01*
X117969259Y-126741759D01*
X117970373Y-126737891D01*
X117973450Y-126726692D01*
X117978411Y-126708452D01*
X117985181Y-126683459D01*
X117993680Y-126652001D01*
X118003831Y-126614367D01*
X118015557Y-126570845D01*
X118028781Y-126521724D01*
X118043424Y-126467293D01*
X118059409Y-126407839D01*
X118076659Y-126343651D01*
X118095096Y-126275018D01*
X118114643Y-126202229D01*
X118135222Y-126125571D01*
X118156755Y-126045333D01*
X118179165Y-125961804D01*
X118202375Y-125875272D01*
X118226307Y-125786026D01*
X118250883Y-125694354D01*
X118276025Y-125600544D01*
X118290542Y-125546373D01*
X118610488Y-124352322D01*
X118390049Y-124131884D01*
X118169611Y-123911445D01*
X118159755Y-123930253D01*
X118146194Y-123955266D01*
X118133167Y-123977678D01*
X118121353Y-123996424D01*
X118111430Y-124010441D01*
X118104078Y-124018663D01*
X118102782Y-124019649D01*
X118095165Y-124026747D01*
X118086644Y-124037682D01*
X118082824Y-124043675D01*
X118076380Y-124053704D01*
X118071150Y-124060150D01*
X118069180Y-124061450D01*
X118065235Y-124064391D01*
X118058621Y-124071929D01*
X118053848Y-124078210D01*
X118045413Y-124089537D01*
X118033046Y-124105684D01*
X118017782Y-124125341D01*
X118000655Y-124147199D01*
X117982700Y-124169950D01*
X117964949Y-124192285D01*
X117948438Y-124212894D01*
X117934201Y-124230470D01*
X117923271Y-124243703D01*
X117920651Y-124246794D01*
X117915545Y-124252773D01*
X117906256Y-124263664D01*
X117893715Y-124278374D01*
X117878853Y-124295810D01*
X117862604Y-124314880D01*
X117860136Y-124317777D01*
X117843100Y-124337719D01*
X117826670Y-124356853D01*
X117811954Y-124373899D01*
X117800058Y-124387575D01*
X117792088Y-124396600D01*
X117791741Y-124396986D01*
X117780981Y-124409095D01*
X117770740Y-124420918D01*
X117765565Y-124427076D01*
X117759059Y-124434664D01*
X117748643Y-124446436D01*
X117735755Y-124460783D01*
X117721888Y-124476031D01*
X117707238Y-124492095D01*
X117692909Y-124507911D01*
X117680619Y-124521576D01*
X117672594Y-124530608D01*
X117661288Y-124543235D01*
X117645241Y-124560794D01*
X117625172Y-124582523D01*
X117601796Y-124607657D01*
X117575830Y-124635436D01*
X117547992Y-124665095D01*
X117518999Y-124695874D01*
X117489566Y-124727008D01*
X117460412Y-124757736D01*
X117432253Y-124787294D01*
X117405806Y-124814921D01*
X117385179Y-124836345D01*
X117368644Y-124853753D01*
X117352360Y-124871406D01*
X117337940Y-124887524D01*
X117326992Y-124900328D01*
X117324713Y-124903147D01*
X117312719Y-124917533D01*
X117300151Y-124931371D01*
X117288204Y-124943488D01*
X117278074Y-124952710D01*
X117270957Y-124957864D01*
X117268410Y-124958423D01*
X117264848Y-124960466D01*
X117257417Y-124967266D01*
X117247393Y-124977606D01*
X117241266Y-124984329D01*
X117230252Y-124996302D01*
X117221053Y-125005638D01*
X117214994Y-125011025D01*
X117213509Y-125011830D01*
X117210469Y-125008646D01*
X117204081Y-124999835D01*
X117195099Y-124986504D01*
X117184276Y-124969764D01*
X117175723Y-124956154D01*
X117162306Y-124934970D01*
X117148482Y-124913849D01*
X117135545Y-124894723D01*
X117124787Y-124879521D01*
X117120888Y-124874327D01*
X117111990Y-124862563D01*
X117099708Y-124845950D01*
X117085206Y-124826080D01*
X117069648Y-124804548D01*
X117055714Y-124785080D01*
X117038349Y-124761304D01*
X117019048Y-124735890D01*
X116999543Y-124711050D01*
X116981560Y-124688999D01*
X116971004Y-124676634D01*
X116954730Y-124657975D01*
X116938070Y-124638696D01*
X116922761Y-124620814D01*
X116910537Y-124606349D01*
X116908312Y-124603679D01*
X116882282Y-124573378D01*
X116851407Y-124539203D01*
X116816814Y-124502281D01*
X116779630Y-124463739D01*
X116740981Y-124424705D01*
X116701995Y-124386304D01*
X116663799Y-124349664D01*
X116627520Y-124315912D01*
X116594284Y-124286174D01*
X116570688Y-124266069D01*
X116555816Y-124253598D01*
X116537418Y-124237935D01*
X116517874Y-124221118D01*
X116508481Y-124212945D01*
X116633784Y-124212945D01*
X116650544Y-124196942D01*
X116657353Y-124190445D01*
X116669077Y-124179267D01*
X116684921Y-124164163D01*
X116704090Y-124145893D01*
X116725788Y-124125214D01*
X116749220Y-124102884D01*
X116767862Y-124085120D01*
X116868421Y-123989301D01*
X117053503Y-124177201D01*
X117238584Y-124365102D01*
X117299971Y-124305197D01*
X117319120Y-124286523D01*
X117337355Y-124268770D01*
X117353565Y-124253013D01*
X117366645Y-124240329D01*
X117375485Y-124231795D01*
X117376976Y-124230365D01*
X117392595Y-124215440D01*
X117381193Y-124203539D01*
X117369791Y-124191638D01*
X117378094Y-124182739D01*
X117386396Y-124173839D01*
X117253696Y-124035817D01*
X118073157Y-124035817D01*
X118075128Y-124037789D01*
X118077100Y-124035817D01*
X118075128Y-124033845D01*
X118073157Y-124035817D01*
X117253696Y-124035817D01*
X117215781Y-123996382D01*
X117045165Y-123818925D01*
X117124392Y-123736876D01*
X117144735Y-123715622D01*
X117163223Y-123695948D01*
X117179154Y-123678632D01*
X117191823Y-123664450D01*
X117200529Y-123654179D01*
X117204567Y-123648596D01*
X117204757Y-123648085D01*
X117204626Y-123642452D01*
X117203674Y-123630228D01*
X117202039Y-123612650D01*
X117199859Y-123590955D01*
X117197270Y-123566380D01*
X117194412Y-123540162D01*
X117191420Y-123513537D01*
X117188434Y-123487745D01*
X117185590Y-123464020D01*
X117183026Y-123443602D01*
X117180880Y-123427726D01*
X117179289Y-123417629D01*
X117178927Y-123415853D01*
X117176013Y-123403187D01*
X116904999Y-123664293D01*
X116633984Y-123925400D01*
X116633884Y-124069172D01*
X116633784Y-124212945D01*
X116508481Y-124212945D01*
X116500200Y-124205739D01*
X116477635Y-124186787D01*
X116449514Y-124164488D01*
X116416977Y-124139663D01*
X116381163Y-124113138D01*
X116372385Y-124106800D01*
X116621953Y-124106800D01*
X116623925Y-124108772D01*
X116625897Y-124106800D01*
X116623925Y-124104828D01*
X116621953Y-124106800D01*
X116372385Y-124106800D01*
X116343210Y-124085734D01*
X116304257Y-124058274D01*
X116265444Y-124031582D01*
X116227908Y-124006481D01*
X116195271Y-123985366D01*
X116172796Y-123971104D01*
X116199929Y-123944909D01*
X116211433Y-123933156D01*
X116220107Y-123923045D01*
X116224786Y-123916004D01*
X116225217Y-123913906D01*
X116226778Y-123908640D01*
X116232806Y-123900542D01*
X116237621Y-123895560D01*
X116248989Y-123884704D01*
X116262110Y-123872099D01*
X116268749Y-123865691D01*
X116281766Y-123854121D01*
X116296087Y-123842871D01*
X116302952Y-123838087D01*
X116311392Y-123831686D01*
X116324154Y-123820860D01*
X116339963Y-123806744D01*
X116357547Y-123790472D01*
X116373514Y-123775234D01*
X116393760Y-123755681D01*
X116415308Y-123734977D01*
X116436245Y-123714953D01*
X116454658Y-123697441D01*
X116464148Y-123688477D01*
X116495162Y-123659324D01*
X116520488Y-123635558D01*
X116540165Y-123617146D01*
X116554231Y-123604052D01*
X116562724Y-123596238D01*
X116565071Y-123594147D01*
X116569916Y-123589759D01*
X116578859Y-123581464D01*
X116590272Y-123570775D01*
X116594828Y-123566487D01*
X116605897Y-123556175D01*
X116621382Y-123541920D01*
X116639830Y-123525052D01*
X116659791Y-123506897D01*
X116678918Y-123489589D01*
X116697654Y-123472670D01*
X116715041Y-123456949D01*
X116729980Y-123443420D01*
X116741374Y-123433077D01*
X116748124Y-123426916D01*
X116748522Y-123426548D01*
X116754416Y-123421243D01*
X116764175Y-123412662D01*
X116778145Y-123400507D01*
X116796669Y-123384481D01*
X116813840Y-123369676D01*
X117211291Y-123369676D01*
X117211421Y-123373001D01*
X117211683Y-123374942D01*
X117213246Y-123387791D01*
X117214752Y-123403266D01*
X117215201Y-123408803D01*
X117216045Y-123418523D01*
X117217517Y-123433912D01*
X117219487Y-123453734D01*
X117221826Y-123476757D01*
X117224403Y-123501749D01*
X117227090Y-123527476D01*
X117229758Y-123552705D01*
X117232276Y-123576203D01*
X117234514Y-123596738D01*
X117236345Y-123613075D01*
X117237637Y-123623982D01*
X117238251Y-123628200D01*
X117241170Y-123626119D01*
X117249123Y-123619114D01*
X117261494Y-123607760D01*
X117277667Y-123592636D01*
X117297024Y-123574319D01*
X117318949Y-123553386D01*
X117342826Y-123530415D01*
X117347737Y-123525669D01*
X117400852Y-123474354D01*
X117448652Y-123428275D01*
X117491452Y-123387146D01*
X117529564Y-123350678D01*
X117563302Y-123318585D01*
X117592982Y-123290577D01*
X117618916Y-123266369D01*
X117641418Y-123245672D01*
X117660802Y-123228198D01*
X117677383Y-123213661D01*
X117691474Y-123201771D01*
X117703388Y-123192243D01*
X117713441Y-123184788D01*
X117721945Y-123179118D01*
X117729215Y-123174946D01*
X117732045Y-123173539D01*
X117755478Y-123165529D01*
X117778857Y-123163069D01*
X117800648Y-123165932D01*
X117819311Y-123173888D01*
X117833312Y-123186713D01*
X117834706Y-123188720D01*
X117838756Y-123200192D01*
X117836826Y-123213814D01*
X117828687Y-123230269D01*
X117814110Y-123250241D01*
X117813960Y-123250425D01*
X117808794Y-123256034D01*
X117798492Y-123266580D01*
X117783599Y-123281534D01*
X117764661Y-123300362D01*
X117742223Y-123322533D01*
X117716831Y-123347517D01*
X117689032Y-123374781D01*
X117659370Y-123403794D01*
X117628391Y-123434025D01*
X117596642Y-123464941D01*
X117564667Y-123496012D01*
X117533013Y-123526706D01*
X117502225Y-123556491D01*
X117472849Y-123584836D01*
X117445431Y-123611210D01*
X117420517Y-123635081D01*
X117398651Y-123655917D01*
X117380380Y-123673187D01*
X117368313Y-123684455D01*
X117347665Y-123703569D01*
X117359956Y-123719087D01*
X117372247Y-123734605D01*
X117361993Y-123745307D01*
X117351739Y-123756010D01*
X117476086Y-123885069D01*
X117501647Y-123911553D01*
X117525526Y-123936208D01*
X117547170Y-123958467D01*
X117566025Y-123977765D01*
X117581537Y-123993537D01*
X117593152Y-124005218D01*
X117600316Y-124012241D01*
X117602484Y-124014128D01*
X117605746Y-124011495D01*
X117613905Y-124004071D01*
X117626207Y-123992565D01*
X117641899Y-123977689D01*
X117660226Y-123960152D01*
X117680436Y-123940665D01*
X117680929Y-123940188D01*
X117757322Y-123866247D01*
X117742955Y-123851518D01*
X117728588Y-123836789D01*
X117737826Y-123826956D01*
X117747064Y-123817122D01*
X117695977Y-123762815D01*
X117644891Y-123708508D01*
X117756952Y-123600260D01*
X117869013Y-123492012D01*
X117977986Y-123502928D01*
X118007323Y-123505886D01*
X118034833Y-123508694D01*
X118059317Y-123511228D01*
X118079577Y-123513363D01*
X118094414Y-123514973D01*
X118102629Y-123515933D01*
X118102733Y-123515947D01*
X118118507Y-123518049D01*
X118218080Y-123420663D01*
X118241185Y-123397967D01*
X118262393Y-123376946D01*
X118281066Y-123358249D01*
X118296564Y-123342522D01*
X118308248Y-123330413D01*
X118315479Y-123322571D01*
X118317653Y-123319703D01*
X118314050Y-123317910D01*
X118304600Y-123316628D01*
X118291337Y-123316131D01*
X118291158Y-123316131D01*
X118264663Y-123316131D01*
X118287488Y-123293065D01*
X118310313Y-123270000D01*
X118169082Y-123267126D01*
X118136564Y-123266447D01*
X118106655Y-123265787D01*
X118080240Y-123265170D01*
X118058207Y-123264617D01*
X118041442Y-123264150D01*
X118030833Y-123263792D01*
X118027263Y-123263573D01*
X118027898Y-123259731D01*
X118030118Y-123250229D01*
X118033462Y-123237022D01*
X118033915Y-123235289D01*
X118037817Y-123216511D01*
X118040535Y-123196036D01*
X118041381Y-123181764D01*
X118040474Y-123164062D01*
X118037771Y-123141734D01*
X118033689Y-123116869D01*
X118028643Y-123091559D01*
X118023049Y-123067895D01*
X118017323Y-123047967D01*
X118012030Y-123034172D01*
X118003446Y-123020207D01*
X117990258Y-123003263D01*
X117973933Y-122984823D01*
X117955938Y-122966371D01*
X117937740Y-122949391D01*
X117920806Y-122935366D01*
X117906604Y-122925780D01*
X117903050Y-122923971D01*
X117867595Y-122912082D01*
X117829176Y-122906947D01*
X117788643Y-122908417D01*
X117746845Y-122916343D01*
X117704631Y-122930575D01*
X117662850Y-122950963D01*
X117629514Y-122972166D01*
X117617943Y-122980552D01*
X117606009Y-122989636D01*
X117593258Y-122999832D01*
X117579240Y-123011551D01*
X117563501Y-123025205D01*
X117545589Y-123041205D01*
X117525051Y-123059963D01*
X117501437Y-123081892D01*
X117474293Y-123107402D01*
X117443167Y-123136906D01*
X117407607Y-123170816D01*
X117367160Y-123209543D01*
X117336767Y-123238712D01*
X117306595Y-123267701D01*
X117281628Y-123291754D01*
X117261384Y-123311398D01*
X117245379Y-123327159D01*
X117233129Y-123339564D01*
X117224151Y-123349139D01*
X117217962Y-123356412D01*
X117214078Y-123361908D01*
X117212015Y-123366154D01*
X117211291Y-123369676D01*
X116813840Y-123369676D01*
X116820094Y-123364284D01*
X116848764Y-123339618D01*
X116883025Y-123310185D01*
X116889878Y-123304300D01*
X116904141Y-123292060D01*
X116915723Y-123282159D01*
X116925768Y-123273657D01*
X116935424Y-123265614D01*
X116945837Y-123257090D01*
X116958151Y-123247144D01*
X116973513Y-123234836D01*
X116993070Y-123219226D01*
X117010387Y-123205417D01*
X117045513Y-123177530D01*
X117074696Y-123154628D01*
X117098040Y-123136632D01*
X117115649Y-123123464D01*
X117127627Y-123115044D01*
X117134077Y-123111296D01*
X117134980Y-123111070D01*
X117138743Y-123107907D01*
X117143264Y-123100454D01*
X117148895Y-123093311D01*
X117159261Y-123083807D01*
X117172378Y-123073712D01*
X117176013Y-123071196D01*
X117189312Y-123062096D01*
X117200389Y-123054299D01*
X117207360Y-123049138D01*
X117208381Y-123048292D01*
X117215067Y-123044464D01*
X117217428Y-123044030D01*
X117222731Y-123042175D01*
X117232765Y-123037280D01*
X117245491Y-123030349D01*
X117247260Y-123029337D01*
X117272808Y-123014643D01*
X117066149Y-122807983D01*
X116859489Y-122601324D01*
X115665459Y-122921269D01*
X115570564Y-122946700D01*
X115477642Y-122971607D01*
X115386982Y-122995915D01*
X115298873Y-123019545D01*
X115213602Y-123042419D01*
X115131458Y-123064461D01*
X115052730Y-123085592D01*
X114977707Y-123105735D01*
X114906676Y-123124813D01*
X114839927Y-123142748D01*
X114777747Y-123159462D01*
X114720426Y-123174878D01*
X114668251Y-123188918D01*
X114621511Y-123201505D01*
X114580495Y-123212562D01*
X114545492Y-123222010D01*
X114516789Y-123229772D01*
X114494675Y-123235771D01*
X114479439Y-123239929D01*
X114471369Y-123242169D01*
X114470086Y-123242557D01*
X114468971Y-123246426D01*
X114465894Y-123257625D01*
X114460932Y-123275866D01*
X114454162Y-123300859D01*
X114445663Y-123332318D01*
X114435511Y-123369952D01*
X114423784Y-123413474D01*
X114410561Y-123462595D01*
X114395917Y-123517027D01*
X114379931Y-123576481D01*
X114362681Y-123640668D01*
X114344244Y-123709301D01*
X114324697Y-123782090D01*
X114304118Y-123858748D01*
X114282585Y-123938985D01*
X114260175Y-124022513D01*
X114236965Y-124109044D01*
X114213034Y-124198289D01*
X114188458Y-124289960D01*
X114163315Y-124383767D01*
X114148816Y-124437874D01*
X113828890Y-125631848D01*
X113746183Y-125631848D01*
X114071885Y-124416652D01*
X114404218Y-123176713D01*
X115644207Y-122844355D01*
X116884195Y-122511996D01*
X117115073Y-122742693D01*
G37*
D14*
%TO.C,J1*%
X185500000Y-114895000D02*
X185500000Y-112655000D01*
X185500000Y-112655000D02*
X183500000Y-112655000D01*
X185260000Y-121315000D02*
X185260000Y-112895000D01*
X185260000Y-121315000D02*
X177140000Y-121315000D01*
X185260000Y-116454000D02*
X184490000Y-116454000D01*
X185260000Y-112895000D02*
X177140000Y-112895000D01*
X184350000Y-120555000D02*
X184350000Y-119095000D01*
X184350000Y-120555000D02*
X181550000Y-120555000D01*
X181550000Y-120555000D02*
X181550000Y-119095000D01*
X181410000Y-116454000D02*
X180583000Y-116454000D01*
X180850000Y-120555000D02*
X180850000Y-118244000D01*
X180850000Y-120555000D02*
X178050000Y-120555000D01*
X180850000Y-116866000D02*
X180850000Y-116805000D01*
X180850000Y-116805000D02*
X180849000Y-116805000D01*
X178316000Y-116454000D02*
X177140000Y-116454000D01*
X178050000Y-120555000D02*
X178050000Y-118244000D01*
X178050000Y-116866000D02*
X178050000Y-116805000D01*
X178050000Y-116805000D02*
X178050000Y-116805000D01*
X177140000Y-121315000D02*
X177140000Y-112895000D01*
X181952001Y-119086000D02*
G75*
G03*
X183947889Y-119084434I997999J-69000D01*
G01*
X178510001Y-118813000D02*
G75*
G03*
X180389914Y-118812767I939999J-342000D01*
G01*
%TO.C,R1*%
X154700000Y-121140000D02*
X154700000Y-120370000D01*
X153330000Y-120370000D02*
X156070000Y-120370000D01*
X156070000Y-120370000D02*
X156070000Y-113830000D01*
X153330000Y-113830000D02*
X153330000Y-120370000D01*
X156070000Y-113830000D02*
X153330000Y-113830000D01*
X154700000Y-113060000D02*
X154700000Y-113830000D01*
%TD*%
M02*
