%TF.GenerationSoftware,KiCad,Pcbnew,9.0.5*%
%TF.CreationDate,2025-10-13T21:09:43-04:00*%
%TF.ProjectId,STM32-flight-computer,53544d33-322d-4666-9c69-6768742d636f,rev?*%
%TF.SameCoordinates,Original*%
%TF.FileFunction,Drillmap*%
%TF.FilePolarity,Positive*%
%FSLAX45Y45*%
G04 Gerber Fmt 4.5, Leading zero omitted, Abs format (unit mm)*
G04 Created by KiCad (PCBNEW 9.0.5) date 2025-10-13 21:09:43*
%MOMM*%
%LPD*%
G01*
G04 APERTURE LIST*
%ADD10C,0.100000*%
%ADD11C,0.200000*%
G04 APERTURE END LIST*
D10*
X6000000Y-10800000D02*
X11300000Y-10800000D01*
X5700000Y-10500000D02*
X5700000Y-7800000D01*
X6000000Y-10800000D02*
G75*
G02*
X5700000Y-10500000I0J300000D01*
G01*
X11300000Y-7500000D02*
G75*
G02*
X11600000Y-7800000I0J-300000D01*
G01*
X6000000Y-7500000D02*
X11300000Y-7500000D01*
X5700000Y-7800000D02*
G75*
G02*
X6000000Y-7500000I300000J0D01*
G01*
X11600000Y-10500000D02*
G75*
G02*
X11300000Y-10800000I-300000J0D01*
G01*
X11600000Y-7800000D02*
X11600000Y-10500000D01*
D11*
D10*
X8653500Y-10125000D02*
X8718500Y-10190000D01*
X8718500Y-10125000D02*
X8653500Y-10190000D01*
X9231500Y-10125000D02*
X9296500Y-10190000D01*
X9296500Y-10125000D02*
X9231500Y-10190000D01*
D11*
X5955777Y-11116484D02*
X5955777Y-10916484D01*
X5955777Y-10916484D02*
X6003396Y-10916484D01*
X6003396Y-10916484D02*
X6031967Y-10926008D01*
X6031967Y-10926008D02*
X6051015Y-10945055D01*
X6051015Y-10945055D02*
X6060539Y-10964103D01*
X6060539Y-10964103D02*
X6070062Y-11002198D01*
X6070062Y-11002198D02*
X6070062Y-11030770D01*
X6070062Y-11030770D02*
X6060539Y-11068865D01*
X6060539Y-11068865D02*
X6051015Y-11087912D01*
X6051015Y-11087912D02*
X6031967Y-11106960D01*
X6031967Y-11106960D02*
X6003396Y-11116484D01*
X6003396Y-11116484D02*
X5955777Y-11116484D01*
X6155777Y-11116484D02*
X6155777Y-10983150D01*
X6155777Y-11021246D02*
X6165301Y-11002198D01*
X6165301Y-11002198D02*
X6174824Y-10992674D01*
X6174824Y-10992674D02*
X6193872Y-10983150D01*
X6193872Y-10983150D02*
X6212920Y-10983150D01*
X6279586Y-11116484D02*
X6279586Y-10983150D01*
X6279586Y-10916484D02*
X6270062Y-10926008D01*
X6270062Y-10926008D02*
X6279586Y-10935531D01*
X6279586Y-10935531D02*
X6289110Y-10926008D01*
X6289110Y-10926008D02*
X6279586Y-10916484D01*
X6279586Y-10916484D02*
X6279586Y-10935531D01*
X6403396Y-11116484D02*
X6384348Y-11106960D01*
X6384348Y-11106960D02*
X6374824Y-11087912D01*
X6374824Y-11087912D02*
X6374824Y-10916484D01*
X6508158Y-11116484D02*
X6489110Y-11106960D01*
X6489110Y-11106960D02*
X6479586Y-11087912D01*
X6479586Y-11087912D02*
X6479586Y-10916484D01*
X6736729Y-11116484D02*
X6736729Y-10916484D01*
X6736729Y-10916484D02*
X6803396Y-11059341D01*
X6803396Y-11059341D02*
X6870062Y-10916484D01*
X6870062Y-10916484D02*
X6870062Y-11116484D01*
X7051015Y-11116484D02*
X7051015Y-11011722D01*
X7051015Y-11011722D02*
X7041491Y-10992674D01*
X7041491Y-10992674D02*
X7022443Y-10983150D01*
X7022443Y-10983150D02*
X6984348Y-10983150D01*
X6984348Y-10983150D02*
X6965301Y-10992674D01*
X7051015Y-11106960D02*
X7031967Y-11116484D01*
X7031967Y-11116484D02*
X6984348Y-11116484D01*
X6984348Y-11116484D02*
X6965301Y-11106960D01*
X6965301Y-11106960D02*
X6955777Y-11087912D01*
X6955777Y-11087912D02*
X6955777Y-11068865D01*
X6955777Y-11068865D02*
X6965301Y-11049817D01*
X6965301Y-11049817D02*
X6984348Y-11040293D01*
X6984348Y-11040293D02*
X7031967Y-11040293D01*
X7031967Y-11040293D02*
X7051015Y-11030770D01*
X7146253Y-10983150D02*
X7146253Y-11183150D01*
X7146253Y-10992674D02*
X7165301Y-10983150D01*
X7165301Y-10983150D02*
X7203396Y-10983150D01*
X7203396Y-10983150D02*
X7222443Y-10992674D01*
X7222443Y-10992674D02*
X7231967Y-11002198D01*
X7231967Y-11002198D02*
X7241491Y-11021246D01*
X7241491Y-11021246D02*
X7241491Y-11078389D01*
X7241491Y-11078389D02*
X7231967Y-11097436D01*
X7231967Y-11097436D02*
X7222443Y-11106960D01*
X7222443Y-11106960D02*
X7203396Y-11116484D01*
X7203396Y-11116484D02*
X7165301Y-11116484D01*
X7165301Y-11116484D02*
X7146253Y-11106960D01*
X7327205Y-11097436D02*
X7336729Y-11106960D01*
X7336729Y-11106960D02*
X7327205Y-11116484D01*
X7327205Y-11116484D02*
X7317682Y-11106960D01*
X7317682Y-11106960D02*
X7327205Y-11097436D01*
X7327205Y-11097436D02*
X7327205Y-11116484D01*
X7327205Y-10992674D02*
X7336729Y-11002198D01*
X7336729Y-11002198D02*
X7327205Y-11011722D01*
X7327205Y-11011722D02*
X7317682Y-11002198D01*
X7317682Y-11002198D02*
X7327205Y-10992674D01*
X7327205Y-10992674D02*
X7327205Y-11011722D01*
D10*
X5630000Y-11412500D02*
X5695000Y-11477500D01*
X5695000Y-11412500D02*
X5630000Y-11477500D01*
D11*
X5993872Y-11336484D02*
X6012920Y-11336484D01*
X6012920Y-11336484D02*
X6031967Y-11346008D01*
X6031967Y-11346008D02*
X6041491Y-11355531D01*
X6041491Y-11355531D02*
X6051015Y-11374579D01*
X6051015Y-11374579D02*
X6060539Y-11412674D01*
X6060539Y-11412674D02*
X6060539Y-11460293D01*
X6060539Y-11460293D02*
X6051015Y-11498388D01*
X6051015Y-11498388D02*
X6041491Y-11517436D01*
X6041491Y-11517436D02*
X6031967Y-11526960D01*
X6031967Y-11526960D02*
X6012920Y-11536484D01*
X6012920Y-11536484D02*
X5993872Y-11536484D01*
X5993872Y-11536484D02*
X5974824Y-11526960D01*
X5974824Y-11526960D02*
X5965301Y-11517436D01*
X5965301Y-11517436D02*
X5955777Y-11498388D01*
X5955777Y-11498388D02*
X5946253Y-11460293D01*
X5946253Y-11460293D02*
X5946253Y-11412674D01*
X5946253Y-11412674D02*
X5955777Y-11374579D01*
X5955777Y-11374579D02*
X5965301Y-11355531D01*
X5965301Y-11355531D02*
X5974824Y-11346008D01*
X5974824Y-11346008D02*
X5993872Y-11336484D01*
X6146253Y-11517436D02*
X6155777Y-11526960D01*
X6155777Y-11526960D02*
X6146253Y-11536484D01*
X6146253Y-11536484D02*
X6136729Y-11526960D01*
X6136729Y-11526960D02*
X6146253Y-11517436D01*
X6146253Y-11517436D02*
X6146253Y-11536484D01*
X6327205Y-11336484D02*
X6289110Y-11336484D01*
X6289110Y-11336484D02*
X6270062Y-11346008D01*
X6270062Y-11346008D02*
X6260539Y-11355531D01*
X6260539Y-11355531D02*
X6241491Y-11384103D01*
X6241491Y-11384103D02*
X6231967Y-11422198D01*
X6231967Y-11422198D02*
X6231967Y-11498388D01*
X6231967Y-11498388D02*
X6241491Y-11517436D01*
X6241491Y-11517436D02*
X6251015Y-11526960D01*
X6251015Y-11526960D02*
X6270062Y-11536484D01*
X6270062Y-11536484D02*
X6308158Y-11536484D01*
X6308158Y-11536484D02*
X6327205Y-11526960D01*
X6327205Y-11526960D02*
X6336729Y-11517436D01*
X6336729Y-11517436D02*
X6346253Y-11498388D01*
X6346253Y-11498388D02*
X6346253Y-11450769D01*
X6346253Y-11450769D02*
X6336729Y-11431722D01*
X6336729Y-11431722D02*
X6327205Y-11422198D01*
X6327205Y-11422198D02*
X6308158Y-11412674D01*
X6308158Y-11412674D02*
X6270062Y-11412674D01*
X6270062Y-11412674D02*
X6251015Y-11422198D01*
X6251015Y-11422198D02*
X6241491Y-11431722D01*
X6241491Y-11431722D02*
X6231967Y-11450769D01*
X6527205Y-11336484D02*
X6431967Y-11336484D01*
X6431967Y-11336484D02*
X6422443Y-11431722D01*
X6422443Y-11431722D02*
X6431967Y-11422198D01*
X6431967Y-11422198D02*
X6451015Y-11412674D01*
X6451015Y-11412674D02*
X6498634Y-11412674D01*
X6498634Y-11412674D02*
X6517682Y-11422198D01*
X6517682Y-11422198D02*
X6527205Y-11431722D01*
X6527205Y-11431722D02*
X6536729Y-11450769D01*
X6536729Y-11450769D02*
X6536729Y-11498388D01*
X6536729Y-11498388D02*
X6527205Y-11517436D01*
X6527205Y-11517436D02*
X6517682Y-11526960D01*
X6517682Y-11526960D02*
X6498634Y-11536484D01*
X6498634Y-11536484D02*
X6451015Y-11536484D01*
X6451015Y-11536484D02*
X6431967Y-11526960D01*
X6431967Y-11526960D02*
X6422443Y-11517436D01*
X6660539Y-11336484D02*
X6679586Y-11336484D01*
X6679586Y-11336484D02*
X6698634Y-11346008D01*
X6698634Y-11346008D02*
X6708158Y-11355531D01*
X6708158Y-11355531D02*
X6717682Y-11374579D01*
X6717682Y-11374579D02*
X6727205Y-11412674D01*
X6727205Y-11412674D02*
X6727205Y-11460293D01*
X6727205Y-11460293D02*
X6717682Y-11498388D01*
X6717682Y-11498388D02*
X6708158Y-11517436D01*
X6708158Y-11517436D02*
X6698634Y-11526960D01*
X6698634Y-11526960D02*
X6679586Y-11536484D01*
X6679586Y-11536484D02*
X6660539Y-11536484D01*
X6660539Y-11536484D02*
X6641491Y-11526960D01*
X6641491Y-11526960D02*
X6631967Y-11517436D01*
X6631967Y-11517436D02*
X6622443Y-11498388D01*
X6622443Y-11498388D02*
X6612920Y-11460293D01*
X6612920Y-11460293D02*
X6612920Y-11412674D01*
X6612920Y-11412674D02*
X6622443Y-11374579D01*
X6622443Y-11374579D02*
X6631967Y-11355531D01*
X6631967Y-11355531D02*
X6641491Y-11346008D01*
X6641491Y-11346008D02*
X6660539Y-11336484D01*
X6812920Y-11536484D02*
X6812920Y-11403150D01*
X6812920Y-11422198D02*
X6822443Y-11412674D01*
X6822443Y-11412674D02*
X6841491Y-11403150D01*
X6841491Y-11403150D02*
X6870063Y-11403150D01*
X6870063Y-11403150D02*
X6889110Y-11412674D01*
X6889110Y-11412674D02*
X6898634Y-11431722D01*
X6898634Y-11431722D02*
X6898634Y-11536484D01*
X6898634Y-11431722D02*
X6908158Y-11412674D01*
X6908158Y-11412674D02*
X6927205Y-11403150D01*
X6927205Y-11403150D02*
X6955777Y-11403150D01*
X6955777Y-11403150D02*
X6974824Y-11412674D01*
X6974824Y-11412674D02*
X6984348Y-11431722D01*
X6984348Y-11431722D02*
X6984348Y-11536484D01*
X7079586Y-11536484D02*
X7079586Y-11403150D01*
X7079586Y-11422198D02*
X7089110Y-11412674D01*
X7089110Y-11412674D02*
X7108158Y-11403150D01*
X7108158Y-11403150D02*
X7136729Y-11403150D01*
X7136729Y-11403150D02*
X7155777Y-11412674D01*
X7155777Y-11412674D02*
X7165301Y-11431722D01*
X7165301Y-11431722D02*
X7165301Y-11536484D01*
X7165301Y-11431722D02*
X7174824Y-11412674D01*
X7174824Y-11412674D02*
X7193872Y-11403150D01*
X7193872Y-11403150D02*
X7222443Y-11403150D01*
X7222443Y-11403150D02*
X7241491Y-11412674D01*
X7241491Y-11412674D02*
X7251015Y-11431722D01*
X7251015Y-11431722D02*
X7251015Y-11536484D01*
X7641491Y-11326960D02*
X7470063Y-11584103D01*
X7898634Y-11336484D02*
X7917682Y-11336484D01*
X7917682Y-11336484D02*
X7936729Y-11346008D01*
X7936729Y-11346008D02*
X7946253Y-11355531D01*
X7946253Y-11355531D02*
X7955777Y-11374579D01*
X7955777Y-11374579D02*
X7965301Y-11412674D01*
X7965301Y-11412674D02*
X7965301Y-11460293D01*
X7965301Y-11460293D02*
X7955777Y-11498388D01*
X7955777Y-11498388D02*
X7946253Y-11517436D01*
X7946253Y-11517436D02*
X7936729Y-11526960D01*
X7936729Y-11526960D02*
X7917682Y-11536484D01*
X7917682Y-11536484D02*
X7898634Y-11536484D01*
X7898634Y-11536484D02*
X7879586Y-11526960D01*
X7879586Y-11526960D02*
X7870063Y-11517436D01*
X7870063Y-11517436D02*
X7860539Y-11498388D01*
X7860539Y-11498388D02*
X7851015Y-11460293D01*
X7851015Y-11460293D02*
X7851015Y-11412674D01*
X7851015Y-11412674D02*
X7860539Y-11374579D01*
X7860539Y-11374579D02*
X7870063Y-11355531D01*
X7870063Y-11355531D02*
X7879586Y-11346008D01*
X7879586Y-11346008D02*
X7898634Y-11336484D01*
X8051015Y-11517436D02*
X8060539Y-11526960D01*
X8060539Y-11526960D02*
X8051015Y-11536484D01*
X8051015Y-11536484D02*
X8041491Y-11526960D01*
X8041491Y-11526960D02*
X8051015Y-11517436D01*
X8051015Y-11517436D02*
X8051015Y-11536484D01*
X8184348Y-11336484D02*
X8203396Y-11336484D01*
X8203396Y-11336484D02*
X8222444Y-11346008D01*
X8222444Y-11346008D02*
X8231967Y-11355531D01*
X8231967Y-11355531D02*
X8241491Y-11374579D01*
X8241491Y-11374579D02*
X8251015Y-11412674D01*
X8251015Y-11412674D02*
X8251015Y-11460293D01*
X8251015Y-11460293D02*
X8241491Y-11498388D01*
X8241491Y-11498388D02*
X8231967Y-11517436D01*
X8231967Y-11517436D02*
X8222444Y-11526960D01*
X8222444Y-11526960D02*
X8203396Y-11536484D01*
X8203396Y-11536484D02*
X8184348Y-11536484D01*
X8184348Y-11536484D02*
X8165301Y-11526960D01*
X8165301Y-11526960D02*
X8155777Y-11517436D01*
X8155777Y-11517436D02*
X8146253Y-11498388D01*
X8146253Y-11498388D02*
X8136729Y-11460293D01*
X8136729Y-11460293D02*
X8136729Y-11412674D01*
X8136729Y-11412674D02*
X8146253Y-11374579D01*
X8146253Y-11374579D02*
X8155777Y-11355531D01*
X8155777Y-11355531D02*
X8165301Y-11346008D01*
X8165301Y-11346008D02*
X8184348Y-11336484D01*
X8327206Y-11355531D02*
X8336729Y-11346008D01*
X8336729Y-11346008D02*
X8355777Y-11336484D01*
X8355777Y-11336484D02*
X8403396Y-11336484D01*
X8403396Y-11336484D02*
X8422444Y-11346008D01*
X8422444Y-11346008D02*
X8431968Y-11355531D01*
X8431968Y-11355531D02*
X8441491Y-11374579D01*
X8441491Y-11374579D02*
X8441491Y-11393627D01*
X8441491Y-11393627D02*
X8431968Y-11422198D01*
X8431968Y-11422198D02*
X8317682Y-11536484D01*
X8317682Y-11536484D02*
X8441491Y-11536484D01*
X8622444Y-11336484D02*
X8527206Y-11336484D01*
X8527206Y-11336484D02*
X8517682Y-11431722D01*
X8517682Y-11431722D02*
X8527206Y-11422198D01*
X8527206Y-11422198D02*
X8546253Y-11412674D01*
X8546253Y-11412674D02*
X8593872Y-11412674D01*
X8593872Y-11412674D02*
X8612920Y-11422198D01*
X8612920Y-11422198D02*
X8622444Y-11431722D01*
X8622444Y-11431722D02*
X8631968Y-11450769D01*
X8631968Y-11450769D02*
X8631968Y-11498388D01*
X8631968Y-11498388D02*
X8622444Y-11517436D01*
X8622444Y-11517436D02*
X8612920Y-11526960D01*
X8612920Y-11526960D02*
X8593872Y-11536484D01*
X8593872Y-11536484D02*
X8546253Y-11536484D01*
X8546253Y-11536484D02*
X8527206Y-11526960D01*
X8527206Y-11526960D02*
X8517682Y-11517436D01*
X8803396Y-11336484D02*
X8765301Y-11336484D01*
X8765301Y-11336484D02*
X8746253Y-11346008D01*
X8746253Y-11346008D02*
X8736729Y-11355531D01*
X8736729Y-11355531D02*
X8717682Y-11384103D01*
X8717682Y-11384103D02*
X8708158Y-11422198D01*
X8708158Y-11422198D02*
X8708158Y-11498388D01*
X8708158Y-11498388D02*
X8717682Y-11517436D01*
X8717682Y-11517436D02*
X8727206Y-11526960D01*
X8727206Y-11526960D02*
X8746253Y-11536484D01*
X8746253Y-11536484D02*
X8784349Y-11536484D01*
X8784349Y-11536484D02*
X8803396Y-11526960D01*
X8803396Y-11526960D02*
X8812920Y-11517436D01*
X8812920Y-11517436D02*
X8822444Y-11498388D01*
X8822444Y-11498388D02*
X8822444Y-11450769D01*
X8822444Y-11450769D02*
X8812920Y-11431722D01*
X8812920Y-11431722D02*
X8803396Y-11422198D01*
X8803396Y-11422198D02*
X8784349Y-11412674D01*
X8784349Y-11412674D02*
X8746253Y-11412674D01*
X8746253Y-11412674D02*
X8727206Y-11422198D01*
X8727206Y-11422198D02*
X8717682Y-11431722D01*
X8717682Y-11431722D02*
X8708158Y-11450769D01*
X8898634Y-11336484D02*
X8898634Y-11374579D01*
X8974825Y-11336484D02*
X8974825Y-11374579D01*
X9270063Y-11612674D02*
X9260539Y-11603150D01*
X9260539Y-11603150D02*
X9241491Y-11574579D01*
X9241491Y-11574579D02*
X9231968Y-11555531D01*
X9231968Y-11555531D02*
X9222444Y-11526960D01*
X9222444Y-11526960D02*
X9212920Y-11479341D01*
X9212920Y-11479341D02*
X9212920Y-11441246D01*
X9212920Y-11441246D02*
X9222444Y-11393627D01*
X9222444Y-11393627D02*
X9231968Y-11365055D01*
X9231968Y-11365055D02*
X9241491Y-11346008D01*
X9241491Y-11346008D02*
X9260539Y-11317436D01*
X9260539Y-11317436D02*
X9270063Y-11307912D01*
X9336730Y-11355531D02*
X9346253Y-11346008D01*
X9346253Y-11346008D02*
X9365301Y-11336484D01*
X9365301Y-11336484D02*
X9412920Y-11336484D01*
X9412920Y-11336484D02*
X9431968Y-11346008D01*
X9431968Y-11346008D02*
X9441491Y-11355531D01*
X9441491Y-11355531D02*
X9451015Y-11374579D01*
X9451015Y-11374579D02*
X9451015Y-11393627D01*
X9451015Y-11393627D02*
X9441491Y-11422198D01*
X9441491Y-11422198D02*
X9327206Y-11536484D01*
X9327206Y-11536484D02*
X9451015Y-11536484D01*
X9689111Y-11536484D02*
X9689111Y-11336484D01*
X9774825Y-11536484D02*
X9774825Y-11431722D01*
X9774825Y-11431722D02*
X9765301Y-11412674D01*
X9765301Y-11412674D02*
X9746253Y-11403150D01*
X9746253Y-11403150D02*
X9717682Y-11403150D01*
X9717682Y-11403150D02*
X9698634Y-11412674D01*
X9698634Y-11412674D02*
X9689111Y-11422198D01*
X9898634Y-11536484D02*
X9879587Y-11526960D01*
X9879587Y-11526960D02*
X9870063Y-11517436D01*
X9870063Y-11517436D02*
X9860539Y-11498388D01*
X9860539Y-11498388D02*
X9860539Y-11441246D01*
X9860539Y-11441246D02*
X9870063Y-11422198D01*
X9870063Y-11422198D02*
X9879587Y-11412674D01*
X9879587Y-11412674D02*
X9898634Y-11403150D01*
X9898634Y-11403150D02*
X9927206Y-11403150D01*
X9927206Y-11403150D02*
X9946253Y-11412674D01*
X9946253Y-11412674D02*
X9955777Y-11422198D01*
X9955777Y-11422198D02*
X9965301Y-11441246D01*
X9965301Y-11441246D02*
X9965301Y-11498388D01*
X9965301Y-11498388D02*
X9955777Y-11517436D01*
X9955777Y-11517436D02*
X9946253Y-11526960D01*
X9946253Y-11526960D02*
X9927206Y-11536484D01*
X9927206Y-11536484D02*
X9898634Y-11536484D01*
X10079587Y-11536484D02*
X10060539Y-11526960D01*
X10060539Y-11526960D02*
X10051015Y-11507912D01*
X10051015Y-11507912D02*
X10051015Y-11336484D01*
X10231968Y-11526960D02*
X10212920Y-11536484D01*
X10212920Y-11536484D02*
X10174825Y-11536484D01*
X10174825Y-11536484D02*
X10155777Y-11526960D01*
X10155777Y-11526960D02*
X10146253Y-11507912D01*
X10146253Y-11507912D02*
X10146253Y-11431722D01*
X10146253Y-11431722D02*
X10155777Y-11412674D01*
X10155777Y-11412674D02*
X10174825Y-11403150D01*
X10174825Y-11403150D02*
X10212920Y-11403150D01*
X10212920Y-11403150D02*
X10231968Y-11412674D01*
X10231968Y-11412674D02*
X10241492Y-11431722D01*
X10241492Y-11431722D02*
X10241492Y-11450769D01*
X10241492Y-11450769D02*
X10146253Y-11469817D01*
X10317682Y-11526960D02*
X10336730Y-11536484D01*
X10336730Y-11536484D02*
X10374825Y-11536484D01*
X10374825Y-11536484D02*
X10393873Y-11526960D01*
X10393873Y-11526960D02*
X10403396Y-11507912D01*
X10403396Y-11507912D02*
X10403396Y-11498388D01*
X10403396Y-11498388D02*
X10393873Y-11479341D01*
X10393873Y-11479341D02*
X10374825Y-11469817D01*
X10374825Y-11469817D02*
X10346253Y-11469817D01*
X10346253Y-11469817D02*
X10327206Y-11460293D01*
X10327206Y-11460293D02*
X10317682Y-11441246D01*
X10317682Y-11441246D02*
X10317682Y-11431722D01*
X10317682Y-11431722D02*
X10327206Y-11412674D01*
X10327206Y-11412674D02*
X10346253Y-11403150D01*
X10346253Y-11403150D02*
X10374825Y-11403150D01*
X10374825Y-11403150D02*
X10393873Y-11412674D01*
X10470063Y-11612674D02*
X10479587Y-11603150D01*
X10479587Y-11603150D02*
X10498634Y-11574579D01*
X10498634Y-11574579D02*
X10508158Y-11555531D01*
X10508158Y-11555531D02*
X10517682Y-11526960D01*
X10517682Y-11526960D02*
X10527206Y-11479341D01*
X10527206Y-11479341D02*
X10527206Y-11441246D01*
X10527206Y-11441246D02*
X10517682Y-11393627D01*
X10517682Y-11393627D02*
X10508158Y-11365055D01*
X10508158Y-11365055D02*
X10498634Y-11346008D01*
X10498634Y-11346008D02*
X10479587Y-11317436D01*
X10479587Y-11317436D02*
X10470063Y-11307912D01*
X10831968Y-11612674D02*
X10822444Y-11603150D01*
X10822444Y-11603150D02*
X10803396Y-11574579D01*
X10803396Y-11574579D02*
X10793873Y-11555531D01*
X10793873Y-11555531D02*
X10784349Y-11526960D01*
X10784349Y-11526960D02*
X10774825Y-11479341D01*
X10774825Y-11479341D02*
X10774825Y-11441246D01*
X10774825Y-11441246D02*
X10784349Y-11393627D01*
X10784349Y-11393627D02*
X10793873Y-11365055D01*
X10793873Y-11365055D02*
X10803396Y-11346008D01*
X10803396Y-11346008D02*
X10822444Y-11317436D01*
X10822444Y-11317436D02*
X10831968Y-11307912D01*
X10908158Y-11403150D02*
X10908158Y-11536484D01*
X10908158Y-11422198D02*
X10917682Y-11412674D01*
X10917682Y-11412674D02*
X10936730Y-11403150D01*
X10936730Y-11403150D02*
X10965301Y-11403150D01*
X10965301Y-11403150D02*
X10984349Y-11412674D01*
X10984349Y-11412674D02*
X10993873Y-11431722D01*
X10993873Y-11431722D02*
X10993873Y-11536484D01*
X11117682Y-11536484D02*
X11098634Y-11526960D01*
X11098634Y-11526960D02*
X11089111Y-11517436D01*
X11089111Y-11517436D02*
X11079587Y-11498388D01*
X11079587Y-11498388D02*
X11079587Y-11441246D01*
X11079587Y-11441246D02*
X11089111Y-11422198D01*
X11089111Y-11422198D02*
X11098634Y-11412674D01*
X11098634Y-11412674D02*
X11117682Y-11403150D01*
X11117682Y-11403150D02*
X11146254Y-11403150D01*
X11146254Y-11403150D02*
X11165301Y-11412674D01*
X11165301Y-11412674D02*
X11174825Y-11422198D01*
X11174825Y-11422198D02*
X11184349Y-11441246D01*
X11184349Y-11441246D02*
X11184349Y-11498388D01*
X11184349Y-11498388D02*
X11174825Y-11517436D01*
X11174825Y-11517436D02*
X11165301Y-11526960D01*
X11165301Y-11526960D02*
X11146254Y-11536484D01*
X11146254Y-11536484D02*
X11117682Y-11536484D01*
X11241492Y-11403150D02*
X11317682Y-11403150D01*
X11270063Y-11336484D02*
X11270063Y-11507912D01*
X11270063Y-11507912D02*
X11279587Y-11526960D01*
X11279587Y-11526960D02*
X11298634Y-11536484D01*
X11298634Y-11536484D02*
X11317682Y-11536484D01*
X11536730Y-11403150D02*
X11536730Y-11603150D01*
X11536730Y-11412674D02*
X11555777Y-11403150D01*
X11555777Y-11403150D02*
X11593873Y-11403150D01*
X11593873Y-11403150D02*
X11612920Y-11412674D01*
X11612920Y-11412674D02*
X11622444Y-11422198D01*
X11622444Y-11422198D02*
X11631968Y-11441246D01*
X11631968Y-11441246D02*
X11631968Y-11498388D01*
X11631968Y-11498388D02*
X11622444Y-11517436D01*
X11622444Y-11517436D02*
X11612920Y-11526960D01*
X11612920Y-11526960D02*
X11593873Y-11536484D01*
X11593873Y-11536484D02*
X11555777Y-11536484D01*
X11555777Y-11536484D02*
X11536730Y-11526960D01*
X11746253Y-11536484D02*
X11727206Y-11526960D01*
X11727206Y-11526960D02*
X11717682Y-11507912D01*
X11717682Y-11507912D02*
X11717682Y-11336484D01*
X11908158Y-11536484D02*
X11908158Y-11431722D01*
X11908158Y-11431722D02*
X11898634Y-11412674D01*
X11898634Y-11412674D02*
X11879587Y-11403150D01*
X11879587Y-11403150D02*
X11841492Y-11403150D01*
X11841492Y-11403150D02*
X11822444Y-11412674D01*
X11908158Y-11526960D02*
X11889111Y-11536484D01*
X11889111Y-11536484D02*
X11841492Y-11536484D01*
X11841492Y-11536484D02*
X11822444Y-11526960D01*
X11822444Y-11526960D02*
X11812920Y-11507912D01*
X11812920Y-11507912D02*
X11812920Y-11488865D01*
X11812920Y-11488865D02*
X11822444Y-11469817D01*
X11822444Y-11469817D02*
X11841492Y-11460293D01*
X11841492Y-11460293D02*
X11889111Y-11460293D01*
X11889111Y-11460293D02*
X11908158Y-11450769D01*
X11974825Y-11403150D02*
X12051015Y-11403150D01*
X12003396Y-11336484D02*
X12003396Y-11507912D01*
X12003396Y-11507912D02*
X12012920Y-11526960D01*
X12012920Y-11526960D02*
X12031968Y-11536484D01*
X12031968Y-11536484D02*
X12051015Y-11536484D01*
X12193873Y-11526960D02*
X12174825Y-11536484D01*
X12174825Y-11536484D02*
X12136730Y-11536484D01*
X12136730Y-11536484D02*
X12117682Y-11526960D01*
X12117682Y-11526960D02*
X12108158Y-11507912D01*
X12108158Y-11507912D02*
X12108158Y-11431722D01*
X12108158Y-11431722D02*
X12117682Y-11412674D01*
X12117682Y-11412674D02*
X12136730Y-11403150D01*
X12136730Y-11403150D02*
X12174825Y-11403150D01*
X12174825Y-11403150D02*
X12193873Y-11412674D01*
X12193873Y-11412674D02*
X12203396Y-11431722D01*
X12203396Y-11431722D02*
X12203396Y-11450769D01*
X12203396Y-11450769D02*
X12108158Y-11469817D01*
X12374825Y-11536484D02*
X12374825Y-11336484D01*
X12374825Y-11526960D02*
X12355777Y-11536484D01*
X12355777Y-11536484D02*
X12317682Y-11536484D01*
X12317682Y-11536484D02*
X12298634Y-11526960D01*
X12298634Y-11526960D02*
X12289111Y-11517436D01*
X12289111Y-11517436D02*
X12279587Y-11498388D01*
X12279587Y-11498388D02*
X12279587Y-11441246D01*
X12279587Y-11441246D02*
X12289111Y-11422198D01*
X12289111Y-11422198D02*
X12298634Y-11412674D01*
X12298634Y-11412674D02*
X12317682Y-11403150D01*
X12317682Y-11403150D02*
X12355777Y-11403150D01*
X12355777Y-11403150D02*
X12374825Y-11412674D01*
X12451015Y-11612674D02*
X12460539Y-11603150D01*
X12460539Y-11603150D02*
X12479587Y-11574579D01*
X12479587Y-11574579D02*
X12489111Y-11555531D01*
X12489111Y-11555531D02*
X12498634Y-11526960D01*
X12498634Y-11526960D02*
X12508158Y-11479341D01*
X12508158Y-11479341D02*
X12508158Y-11441246D01*
X12508158Y-11441246D02*
X12498634Y-11393627D01*
X12498634Y-11393627D02*
X12489111Y-11365055D01*
X12489111Y-11365055D02*
X12479587Y-11346008D01*
X12479587Y-11346008D02*
X12460539Y-11317436D01*
X12460539Y-11317436D02*
X12451015Y-11307912D01*
M02*
