%TF.GenerationSoftware,KiCad,Pcbnew,9.0.5*%
%TF.CreationDate,2025-10-13T21:09:43-04:00*%
%TF.ProjectId,STM32-flight-computer,53544d33-322d-4666-9c69-6768742d636f,rev?*%
%TF.SameCoordinates,Original*%
%TF.FileFunction,Drillmap*%
%TF.FilePolarity,Positive*%
%FSLAX45Y45*%
G04 Gerber Fmt 4.5, Leading zero omitted, Abs format (unit mm)*
G04 Created by KiCad (PCBNEW 9.0.5) date 2025-10-13 21:09:43*
%MOMM*%
%LPD*%
G01*
G04 APERTURE LIST*
%ADD10C,0.100000*%
%ADD11C,0.200000*%
%ADD12C,0.110000*%
%ADD13C,0.320000*%
G04 APERTURE END LIST*
D10*
X6000000Y-10800000D02*
X11300000Y-10800000D01*
X5700000Y-10500000D02*
X5700000Y-7800000D01*
X6000000Y-10800000D02*
G75*
G02*
X5700000Y-10500000I0J300000D01*
G01*
X11300000Y-7500000D02*
G75*
G02*
X11600000Y-7800000I0J-300000D01*
G01*
X6000000Y-7500000D02*
X11300000Y-7500000D01*
X5700000Y-7800000D02*
G75*
G02*
X6000000Y-7500000I300000J0D01*
G01*
X11600000Y-10500000D02*
G75*
G02*
X11300000Y-10800000I-300000J0D01*
G01*
X11600000Y-7800000D02*
X11600000Y-10500000D01*
D11*
D10*
X7240000Y-9940000D02*
X7260000Y-9960000D01*
X7260000Y-9940000D02*
X7240000Y-9960000D01*
X7347500Y-9837500D02*
X7367500Y-9857500D01*
X7367500Y-9837500D02*
X7347500Y-9857500D01*
X7790000Y-8125000D02*
X7810000Y-8145000D01*
X7810000Y-8125000D02*
X7790000Y-8145000D01*
X7802500Y-7815000D02*
X7822500Y-7835000D01*
X7822500Y-7815000D02*
X7802500Y-7835000D01*
X8352500Y-9058671D02*
X8372500Y-9078671D01*
X8372500Y-9058671D02*
X8352500Y-9078671D01*
X8401745Y-9410681D02*
X8421745Y-9430681D01*
X8421745Y-9410681D02*
X8401745Y-9430681D01*
X8413310Y-8785032D02*
X8433310Y-8805032D01*
X8433310Y-8785032D02*
X8413310Y-8805032D01*
X8415000Y-9705000D02*
X8435000Y-9725000D01*
X8435000Y-9705000D02*
X8415000Y-9725000D01*
X8496088Y-9269922D02*
X8516088Y-9289922D01*
X8516088Y-9269922D02*
X8496088Y-9289922D01*
X8558844Y-9161805D02*
X8578844Y-9181805D01*
X8578844Y-9161805D02*
X8558844Y-9181805D01*
X8570000Y-9344004D02*
X8590000Y-9364004D01*
X8590000Y-9344004D02*
X8570000Y-9364004D01*
X8677500Y-9490000D02*
X8697500Y-9510000D01*
X8697500Y-9490000D02*
X8677500Y-9510000D01*
X8720425Y-9327280D02*
X8740425Y-9347280D01*
X8740425Y-9327280D02*
X8720425Y-9347280D01*
X8810000Y-8795000D02*
X8830000Y-8815000D01*
X8830000Y-8795000D02*
X8810000Y-8815000D01*
X8815000Y-9070000D02*
X8835000Y-9090000D01*
X8835000Y-9070000D02*
X8815000Y-9090000D01*
X8890000Y-9115996D02*
X8910000Y-9135996D01*
X8910000Y-9115996D02*
X8890000Y-9135996D01*
X8974276Y-9268472D02*
X8994276Y-9288472D01*
X8994276Y-9268472D02*
X8974276Y-9288472D01*
X9002500Y-10155100D02*
X9022500Y-10175100D01*
X9022500Y-10155100D02*
X9002500Y-10175100D01*
X9050000Y-9184004D02*
X9070000Y-9204004D01*
X9070000Y-9184004D02*
X9050000Y-9204004D01*
X9050000Y-8944004D02*
X9070000Y-8964004D01*
X9070000Y-8944004D02*
X9050000Y-8964004D01*
X9052877Y-8787123D02*
X9072877Y-8807123D01*
X9072877Y-8787123D02*
X9052877Y-8807123D01*
X9055996Y-9270000D02*
X9075996Y-9290000D01*
X9075996Y-9270000D02*
X9055996Y-9290000D01*
X9115000Y-9690000D02*
X9135000Y-9710000D01*
X9135000Y-9690000D02*
X9115000Y-9710000D01*
X9252500Y-9115000D02*
X9272500Y-9135000D01*
X9272500Y-9115000D02*
X9252500Y-9135000D01*
X9302500Y-9040000D02*
X9322500Y-9060000D01*
X9322500Y-9040000D02*
X9302500Y-9060000D01*
X10165000Y-9315000D02*
X10185000Y-9335000D01*
X10185000Y-9315000D02*
X10165000Y-9335000D01*
X10220806Y-9117856D02*
X10240806Y-9137856D01*
X10240806Y-9117856D02*
X10220806Y-9137856D01*
X5890000Y-9775000D02*
G75*
G02*
X5860000Y-9775000I-15000J0D01*
G01*
X5860000Y-9775000D02*
G75*
G02*
X5890000Y-9775000I15000J0D01*
G01*
X5912500Y-9912500D02*
G75*
G02*
X5882500Y-9912500I-15000J0D01*
G01*
X5882500Y-9912500D02*
G75*
G02*
X5912500Y-9912500I15000J0D01*
G01*
X6008750Y-9912500D02*
G75*
G02*
X5978750Y-9912500I-15000J0D01*
G01*
X5978750Y-9912500D02*
G75*
G02*
X6008750Y-9912500I15000J0D01*
G01*
X6467500Y-9965000D02*
G75*
G02*
X6437500Y-9965000I-15000J0D01*
G01*
X6437500Y-9965000D02*
G75*
G02*
X6467500Y-9965000I15000J0D01*
G01*
X6527500Y-10393750D02*
G75*
G02*
X6497500Y-10393750I-15000J0D01*
G01*
X6497500Y-10393750D02*
G75*
G02*
X6527500Y-10393750I15000J0D01*
G01*
X6527500Y-10490000D02*
G75*
G02*
X6497500Y-10490000I-15000J0D01*
G01*
X6497500Y-10490000D02*
G75*
G02*
X6527500Y-10490000I15000J0D01*
G01*
X6640000Y-9287500D02*
G75*
G02*
X6610000Y-9287500I-15000J0D01*
G01*
X6610000Y-9287500D02*
G75*
G02*
X6640000Y-9287500I15000J0D01*
G01*
X6665000Y-10462500D02*
G75*
G02*
X6635000Y-10462500I-15000J0D01*
G01*
X6635000Y-10462500D02*
G75*
G02*
X6665000Y-10462500I15000J0D01*
G01*
X6690000Y-9537500D02*
G75*
G02*
X6660000Y-9537500I-15000J0D01*
G01*
X6660000Y-9537500D02*
G75*
G02*
X6690000Y-9537500I15000J0D01*
G01*
X6690000Y-9746250D02*
G75*
G02*
X6660000Y-9746250I-15000J0D01*
G01*
X6660000Y-9746250D02*
G75*
G02*
X6690000Y-9746250I15000J0D01*
G01*
X6716676Y-10267074D02*
G75*
G02*
X6686676Y-10267074I-15000J0D01*
G01*
X6686676Y-10267074D02*
G75*
G02*
X6716676Y-10267074I15000J0D01*
G01*
X6740143Y-9354532D02*
G75*
G02*
X6710143Y-9354532I-15000J0D01*
G01*
X6710143Y-9354532D02*
G75*
G02*
X6740143Y-9354532I15000J0D01*
G01*
X6752500Y-9252500D02*
G75*
G02*
X6722500Y-9252500I-15000J0D01*
G01*
X6722500Y-9252500D02*
G75*
G02*
X6752500Y-9252500I15000J0D01*
G01*
X6765000Y-8090000D02*
G75*
G02*
X6735000Y-8090000I-15000J0D01*
G01*
X6735000Y-8090000D02*
G75*
G02*
X6765000Y-8090000I15000J0D01*
G01*
X6770000Y-7937500D02*
G75*
G02*
X6740000Y-7937500I-15000J0D01*
G01*
X6740000Y-7937500D02*
G75*
G02*
X6770000Y-7937500I15000J0D01*
G01*
X6770000Y-8507500D02*
G75*
G02*
X6740000Y-8507500I-15000J0D01*
G01*
X6740000Y-8507500D02*
G75*
G02*
X6770000Y-8507500I15000J0D01*
G01*
X6770000Y-8697500D02*
G75*
G02*
X6740000Y-8697500I-15000J0D01*
G01*
X6740000Y-8697500D02*
G75*
G02*
X6770000Y-8697500I15000J0D01*
G01*
X6892500Y-9825000D02*
G75*
G02*
X6862500Y-9825000I-15000J0D01*
G01*
X6862500Y-9825000D02*
G75*
G02*
X6892500Y-9825000I15000J0D01*
G01*
X6910343Y-8292156D02*
G75*
G02*
X6880343Y-8292156I-15000J0D01*
G01*
X6880343Y-8292156D02*
G75*
G02*
X6910343Y-8292156I15000J0D01*
G01*
X6937573Y-8689483D02*
G75*
G02*
X6907573Y-8689483I-15000J0D01*
G01*
X6907573Y-8689483D02*
G75*
G02*
X6937573Y-8689483I15000J0D01*
G01*
X7050000Y-7657500D02*
G75*
G02*
X7020000Y-7657500I-15000J0D01*
G01*
X7020000Y-7657500D02*
G75*
G02*
X7050000Y-7657500I15000J0D01*
G01*
X7050000Y-8977500D02*
G75*
G02*
X7020000Y-8977500I-15000J0D01*
G01*
X7020000Y-8977500D02*
G75*
G02*
X7050000Y-8977500I15000J0D01*
G01*
X7065000Y-9825000D02*
G75*
G02*
X7035000Y-9825000I-15000J0D01*
G01*
X7035000Y-9825000D02*
G75*
G02*
X7065000Y-9825000I15000J0D01*
G01*
X7165000Y-7900000D02*
G75*
G02*
X7135000Y-7900000I-15000J0D01*
G01*
X7135000Y-7900000D02*
G75*
G02*
X7165000Y-7900000I15000J0D01*
G01*
X7190000Y-9425500D02*
G75*
G02*
X7160000Y-9425500I-15000J0D01*
G01*
X7160000Y-9425500D02*
G75*
G02*
X7190000Y-9425500I15000J0D01*
G01*
X7236250Y-9558750D02*
G75*
G02*
X7206250Y-9558750I-15000J0D01*
G01*
X7206250Y-9558750D02*
G75*
G02*
X7236250Y-9558750I15000J0D01*
G01*
X7276250Y-7925000D02*
G75*
G02*
X7246250Y-7925000I-15000J0D01*
G01*
X7246250Y-7925000D02*
G75*
G02*
X7276250Y-7925000I15000J0D01*
G01*
X7276250Y-8150000D02*
G75*
G02*
X7246250Y-8150000I-15000J0D01*
G01*
X7246250Y-8150000D02*
G75*
G02*
X7276250Y-8150000I15000J0D01*
G01*
X7340000Y-8702500D02*
G75*
G02*
X7310000Y-8702500I-15000J0D01*
G01*
X7310000Y-8702500D02*
G75*
G02*
X7340000Y-8702500I15000J0D01*
G01*
X7341785Y-8386600D02*
G75*
G02*
X7311785Y-8386600I-15000J0D01*
G01*
X7311785Y-8386600D02*
G75*
G02*
X7341785Y-8386600I15000J0D01*
G01*
X7349102Y-9558750D02*
G75*
G02*
X7319102Y-9558750I-15000J0D01*
G01*
X7319102Y-9558750D02*
G75*
G02*
X7349102Y-9558750I15000J0D01*
G01*
X7365000Y-8025000D02*
G75*
G02*
X7335000Y-8025000I-15000J0D01*
G01*
X7335000Y-8025000D02*
G75*
G02*
X7365000Y-8025000I15000J0D01*
G01*
X7390000Y-9378000D02*
G75*
G02*
X7360000Y-9378000I-15000J0D01*
G01*
X7360000Y-9378000D02*
G75*
G02*
X7390000Y-9378000I15000J0D01*
G01*
X7404102Y-9641000D02*
G75*
G02*
X7374102Y-9641000I-15000J0D01*
G01*
X7374102Y-9641000D02*
G75*
G02*
X7404102Y-9641000I15000J0D01*
G01*
X7492879Y-7846472D02*
G75*
G02*
X7462879Y-7846472I-15000J0D01*
G01*
X7462879Y-7846472D02*
G75*
G02*
X7492879Y-7846472I15000J0D01*
G01*
X7533750Y-7975000D02*
G75*
G02*
X7503750Y-7975000I-15000J0D01*
G01*
X7503750Y-7975000D02*
G75*
G02*
X7533750Y-7975000I15000J0D01*
G01*
X7620000Y-7657500D02*
G75*
G02*
X7590000Y-7657500I-15000J0D01*
G01*
X7590000Y-7657500D02*
G75*
G02*
X7620000Y-7657500I15000J0D01*
G01*
X7625000Y-9250000D02*
G75*
G02*
X7595000Y-9250000I-15000J0D01*
G01*
X7595000Y-9250000D02*
G75*
G02*
X7625000Y-9250000I15000J0D01*
G01*
X7633750Y-8200000D02*
G75*
G02*
X7603750Y-8200000I-15000J0D01*
G01*
X7603750Y-8200000D02*
G75*
G02*
X7633750Y-8200000I15000J0D01*
G01*
X7665000Y-10180000D02*
G75*
G02*
X7635000Y-10180000I-15000J0D01*
G01*
X7635000Y-10180000D02*
G75*
G02*
X7665000Y-10180000I15000J0D01*
G01*
X7702500Y-9187500D02*
G75*
G02*
X7672500Y-9187500I-15000J0D01*
G01*
X7672500Y-9187500D02*
G75*
G02*
X7702500Y-9187500I15000J0D01*
G01*
X7733750Y-7975000D02*
G75*
G02*
X7703750Y-7975000I-15000J0D01*
G01*
X7703750Y-7975000D02*
G75*
G02*
X7733750Y-7975000I15000J0D01*
G01*
X7810000Y-7657500D02*
G75*
G02*
X7780000Y-7657500I-15000J0D01*
G01*
X7780000Y-7657500D02*
G75*
G02*
X7810000Y-7657500I15000J0D01*
G01*
X7827500Y-9712500D02*
G75*
G02*
X7797500Y-9712500I-15000J0D01*
G01*
X7797500Y-9712500D02*
G75*
G02*
X7827500Y-9712500I15000J0D01*
G01*
X7852500Y-8912500D02*
G75*
G02*
X7822500Y-8912500I-15000J0D01*
G01*
X7822500Y-8912500D02*
G75*
G02*
X7852500Y-8912500I15000J0D01*
G01*
X7865000Y-8250000D02*
G75*
G02*
X7835000Y-8250000I-15000J0D01*
G01*
X7835000Y-8250000D02*
G75*
G02*
X7865000Y-8250000I15000J0D01*
G01*
X7872500Y-9425141D02*
G75*
G02*
X7842500Y-9425141I-15000J0D01*
G01*
X7842500Y-9425141D02*
G75*
G02*
X7872500Y-9425141I15000J0D01*
G01*
X7890000Y-9787500D02*
G75*
G02*
X7860000Y-9787500I-15000J0D01*
G01*
X7860000Y-9787500D02*
G75*
G02*
X7890000Y-9787500I15000J0D01*
G01*
X7902500Y-8462500D02*
G75*
G02*
X7872500Y-8462500I-15000J0D01*
G01*
X7872500Y-8462500D02*
G75*
G02*
X7902500Y-8462500I15000J0D01*
G01*
X7902500Y-8612500D02*
G75*
G02*
X7872500Y-8612500I-15000J0D01*
G01*
X7872500Y-8612500D02*
G75*
G02*
X7902500Y-8612500I15000J0D01*
G01*
X7902500Y-8762500D02*
G75*
G02*
X7872500Y-8762500I-15000J0D01*
G01*
X7872500Y-8762500D02*
G75*
G02*
X7902500Y-8762500I15000J0D01*
G01*
X7908990Y-7845161D02*
G75*
G02*
X7878990Y-7845161I-15000J0D01*
G01*
X7878990Y-7845161D02*
G75*
G02*
X7908990Y-7845161I15000J0D01*
G01*
X7940000Y-8052500D02*
G75*
G02*
X7910000Y-8052500I-15000J0D01*
G01*
X7910000Y-8052500D02*
G75*
G02*
X7940000Y-8052500I15000J0D01*
G01*
X7945422Y-7953686D02*
G75*
G02*
X7915422Y-7953686I-15000J0D01*
G01*
X7915422Y-7953686D02*
G75*
G02*
X7945422Y-7953686I15000J0D01*
G01*
X7952500Y-8250000D02*
G75*
G02*
X7922500Y-8250000I-15000J0D01*
G01*
X7922500Y-8250000D02*
G75*
G02*
X7952500Y-8250000I15000J0D01*
G01*
X7972500Y-10275000D02*
G75*
G02*
X7942500Y-10275000I-15000J0D01*
G01*
X7942500Y-10275000D02*
G75*
G02*
X7972500Y-10275000I15000J0D01*
G01*
X7990000Y-9125000D02*
G75*
G02*
X7960000Y-9125000I-15000J0D01*
G01*
X7960000Y-9125000D02*
G75*
G02*
X7990000Y-9125000I15000J0D01*
G01*
X8027500Y-9587500D02*
G75*
G02*
X7997500Y-9587500I-15000J0D01*
G01*
X7997500Y-9587500D02*
G75*
G02*
X8027500Y-9587500I15000J0D01*
G01*
X8082500Y-9100000D02*
G75*
G02*
X8052500Y-9100000I-15000J0D01*
G01*
X8052500Y-9100000D02*
G75*
G02*
X8082500Y-9100000I15000J0D01*
G01*
X8090000Y-7937500D02*
G75*
G02*
X8060000Y-7937500I-15000J0D01*
G01*
X8060000Y-7937500D02*
G75*
G02*
X8090000Y-7937500I15000J0D01*
G01*
X8090000Y-8697500D02*
G75*
G02*
X8060000Y-8697500I-15000J0D01*
G01*
X8060000Y-8697500D02*
G75*
G02*
X8090000Y-8697500I15000J0D01*
G01*
X8095000Y-9276000D02*
G75*
G02*
X8065000Y-9276000I-15000J0D01*
G01*
X8065000Y-9276000D02*
G75*
G02*
X8095000Y-9276000I15000J0D01*
G01*
X8152500Y-9712500D02*
G75*
G02*
X8122500Y-9712500I-15000J0D01*
G01*
X8122500Y-9712500D02*
G75*
G02*
X8152500Y-9712500I15000J0D01*
G01*
X8180603Y-9063611D02*
G75*
G02*
X8150603Y-9063611I-15000J0D01*
G01*
X8150603Y-9063611D02*
G75*
G02*
X8180603Y-9063611I15000J0D01*
G01*
X8255000Y-8803912D02*
G75*
G02*
X8225000Y-8803912I-15000J0D01*
G01*
X8225000Y-8803912D02*
G75*
G02*
X8255000Y-8803912I15000J0D01*
G01*
X8265000Y-9787500D02*
G75*
G02*
X8235000Y-9787500I-15000J0D01*
G01*
X8235000Y-9787500D02*
G75*
G02*
X8265000Y-9787500I15000J0D01*
G01*
X8292500Y-8722500D02*
G75*
G02*
X8262500Y-8722500I-15000J0D01*
G01*
X8262500Y-8722500D02*
G75*
G02*
X8292500Y-8722500I15000J0D01*
G01*
X8340000Y-9262500D02*
G75*
G02*
X8310000Y-9262500I-15000J0D01*
G01*
X8310000Y-9262500D02*
G75*
G02*
X8340000Y-9262500I15000J0D01*
G01*
X8372500Y-7925000D02*
G75*
G02*
X8342500Y-7925000I-15000J0D01*
G01*
X8342500Y-7925000D02*
G75*
G02*
X8372500Y-7925000I15000J0D01*
G01*
X8376272Y-8818641D02*
G75*
G02*
X8346272Y-8818641I-15000J0D01*
G01*
X8346272Y-8818641D02*
G75*
G02*
X8376272Y-8818641I15000J0D01*
G01*
X8381088Y-8098912D02*
G75*
G02*
X8351088Y-8098912I-15000J0D01*
G01*
X8351088Y-8098912D02*
G75*
G02*
X8381088Y-8098912I15000J0D01*
G01*
X8390000Y-8750000D02*
G75*
G02*
X8360000Y-8750000I-15000J0D01*
G01*
X8360000Y-8750000D02*
G75*
G02*
X8390000Y-8750000I15000J0D01*
G01*
X8429446Y-8864166D02*
G75*
G02*
X8399446Y-8864166I-15000J0D01*
G01*
X8399446Y-8864166D02*
G75*
G02*
X8429446Y-8864166I15000J0D01*
G01*
X8437500Y-8641250D02*
G75*
G02*
X8407500Y-8641250I-15000J0D01*
G01*
X8407500Y-8641250D02*
G75*
G02*
X8437500Y-8641250I15000J0D01*
G01*
X8440000Y-9560000D02*
G75*
G02*
X8410000Y-9560000I-15000J0D01*
G01*
X8410000Y-9560000D02*
G75*
G02*
X8440000Y-9560000I15000J0D01*
G01*
X8445584Y-8947705D02*
G75*
G02*
X8415584Y-8947705I-15000J0D01*
G01*
X8415584Y-8947705D02*
G75*
G02*
X8445584Y-8947705I15000J0D01*
G01*
X8533750Y-8593750D02*
G75*
G02*
X8503750Y-8593750I-15000J0D01*
G01*
X8503750Y-8593750D02*
G75*
G02*
X8533750Y-8593750I15000J0D01*
G01*
X8552500Y-9600000D02*
G75*
G02*
X8522500Y-9600000I-15000J0D01*
G01*
X8522500Y-9600000D02*
G75*
G02*
X8552500Y-9600000I15000J0D01*
G01*
X8640000Y-8350000D02*
G75*
G02*
X8610000Y-8350000I-15000J0D01*
G01*
X8610000Y-8350000D02*
G75*
G02*
X8640000Y-8350000I15000J0D01*
G01*
X8640000Y-8450000D02*
G75*
G02*
X8610000Y-8450000I-15000J0D01*
G01*
X8610000Y-8450000D02*
G75*
G02*
X8640000Y-8450000I15000J0D01*
G01*
X8640000Y-8550000D02*
G75*
G02*
X8610000Y-8550000I-15000J0D01*
G01*
X8610000Y-8550000D02*
G75*
G02*
X8640000Y-8550000I15000J0D01*
G01*
X8640000Y-9600000D02*
G75*
G02*
X8610000Y-9600000I-15000J0D01*
G01*
X8610000Y-9600000D02*
G75*
G02*
X8640000Y-9600000I15000J0D01*
G01*
X8640000Y-10412500D02*
G75*
G02*
X8610000Y-10412500I-15000J0D01*
G01*
X8610000Y-10412500D02*
G75*
G02*
X8640000Y-10412500I15000J0D01*
G01*
X8690000Y-9025000D02*
G75*
G02*
X8660000Y-9025000I-15000J0D01*
G01*
X8660000Y-9025000D02*
G75*
G02*
X8690000Y-9025000I15000J0D01*
G01*
X8765000Y-10412500D02*
G75*
G02*
X8735000Y-10412500I-15000J0D01*
G01*
X8735000Y-10412500D02*
G75*
G02*
X8765000Y-10412500I15000J0D01*
G01*
X8812034Y-8362500D02*
G75*
G02*
X8782034Y-8362500I-15000J0D01*
G01*
X8782034Y-8362500D02*
G75*
G02*
X8812034Y-8362500I15000J0D01*
G01*
X8836857Y-8966316D02*
G75*
G02*
X8806857Y-8966316I-15000J0D01*
G01*
X8806857Y-8966316D02*
G75*
G02*
X8836857Y-8966316I15000J0D01*
G01*
X8865000Y-10175000D02*
G75*
G02*
X8835000Y-10175000I-15000J0D01*
G01*
X8835000Y-10175000D02*
G75*
G02*
X8865000Y-10175000I15000J0D01*
G01*
X8865000Y-10375000D02*
G75*
G02*
X8835000Y-10375000I-15000J0D01*
G01*
X8835000Y-10375000D02*
G75*
G02*
X8865000Y-10375000I15000J0D01*
G01*
X8913905Y-9828595D02*
G75*
G02*
X8883905Y-9828595I-15000J0D01*
G01*
X8883905Y-9828595D02*
G75*
G02*
X8913905Y-9828595I15000J0D01*
G01*
X8965000Y-9925000D02*
G75*
G02*
X8935000Y-9925000I-15000J0D01*
G01*
X8935000Y-9925000D02*
G75*
G02*
X8965000Y-9925000I15000J0D01*
G01*
X8980858Y-8974142D02*
G75*
G02*
X8950858Y-8974142I-15000J0D01*
G01*
X8950858Y-8974142D02*
G75*
G02*
X8980858Y-8974142I15000J0D01*
G01*
X9027610Y-9893695D02*
G75*
G02*
X8997610Y-9893695I-15000J0D01*
G01*
X8997610Y-9893695D02*
G75*
G02*
X9027610Y-9893695I15000J0D01*
G01*
X9031250Y-8412500D02*
G75*
G02*
X9001250Y-8412500I-15000J0D01*
G01*
X9001250Y-8412500D02*
G75*
G02*
X9031250Y-8412500I15000J0D01*
G01*
X9115000Y-10175000D02*
G75*
G02*
X9085000Y-10175000I-15000J0D01*
G01*
X9085000Y-10175000D02*
G75*
G02*
X9115000Y-10175000I15000J0D01*
G01*
X9115000Y-10376000D02*
G75*
G02*
X9085000Y-10376000I-15000J0D01*
G01*
X9085000Y-10376000D02*
G75*
G02*
X9115000Y-10376000I15000J0D01*
G01*
X9127500Y-8412500D02*
G75*
G02*
X9097500Y-8412500I-15000J0D01*
G01*
X9097500Y-8412500D02*
G75*
G02*
X9127500Y-8412500I15000J0D01*
G01*
X9224675Y-8570000D02*
G75*
G02*
X9194675Y-8570000I-15000J0D01*
G01*
X9194675Y-8570000D02*
G75*
G02*
X9224675Y-8570000I15000J0D01*
G01*
X9277500Y-8412500D02*
G75*
G02*
X9247500Y-8412500I-15000J0D01*
G01*
X9247500Y-8412500D02*
G75*
G02*
X9277500Y-8412500I15000J0D01*
G01*
X9277500Y-8737500D02*
G75*
G02*
X9247500Y-8737500I-15000J0D01*
G01*
X9247500Y-8737500D02*
G75*
G02*
X9277500Y-8737500I15000J0D01*
G01*
X9290000Y-8920000D02*
G75*
G02*
X9260000Y-8920000I-15000J0D01*
G01*
X9260000Y-8920000D02*
G75*
G02*
X9290000Y-8920000I15000J0D01*
G01*
X9290000Y-9237760D02*
G75*
G02*
X9260000Y-9237760I-15000J0D01*
G01*
X9260000Y-9237760D02*
G75*
G02*
X9290000Y-9237760I15000J0D01*
G01*
X9290000Y-9320000D02*
G75*
G02*
X9260000Y-9320000I-15000J0D01*
G01*
X9260000Y-9320000D02*
G75*
G02*
X9290000Y-9320000I15000J0D01*
G01*
X9325766Y-8686801D02*
G75*
G02*
X9295766Y-8686801I-15000J0D01*
G01*
X9295766Y-8686801D02*
G75*
G02*
X9325766Y-8686801I15000J0D01*
G01*
X9352500Y-8975000D02*
G75*
G02*
X9322500Y-8975000I-15000J0D01*
G01*
X9322500Y-8975000D02*
G75*
G02*
X9352500Y-8975000I15000J0D01*
G01*
X9373750Y-8412500D02*
G75*
G02*
X9343750Y-8412500I-15000J0D01*
G01*
X9343750Y-8412500D02*
G75*
G02*
X9373750Y-8412500I15000J0D01*
G01*
X9565000Y-10015000D02*
G75*
G02*
X9535000Y-10015000I-15000J0D01*
G01*
X9535000Y-10015000D02*
G75*
G02*
X9565000Y-10015000I15000J0D01*
G01*
X9572500Y-8675000D02*
G75*
G02*
X9542500Y-8675000I-15000J0D01*
G01*
X9542500Y-8675000D02*
G75*
G02*
X9572500Y-8675000I15000J0D01*
G01*
X9572500Y-8825000D02*
G75*
G02*
X9542500Y-8825000I-15000J0D01*
G01*
X9542500Y-8825000D02*
G75*
G02*
X9572500Y-8825000I15000J0D01*
G01*
X9572500Y-8975000D02*
G75*
G02*
X9542500Y-8975000I-15000J0D01*
G01*
X9542500Y-8975000D02*
G75*
G02*
X9572500Y-8975000I15000J0D01*
G01*
X9572500Y-9125000D02*
G75*
G02*
X9542500Y-9125000I-15000J0D01*
G01*
X9542500Y-9125000D02*
G75*
G02*
X9572500Y-9125000I15000J0D01*
G01*
X9577500Y-9262500D02*
G75*
G02*
X9547500Y-9262500I-15000J0D01*
G01*
X9547500Y-9262500D02*
G75*
G02*
X9577500Y-9262500I15000J0D01*
G01*
X9590000Y-9850000D02*
G75*
G02*
X9560000Y-9850000I-15000J0D01*
G01*
X9560000Y-9850000D02*
G75*
G02*
X9590000Y-9850000I15000J0D01*
G01*
X9640000Y-10462500D02*
G75*
G02*
X9610000Y-10462500I-15000J0D01*
G01*
X9610000Y-10462500D02*
G75*
G02*
X9640000Y-10462500I15000J0D01*
G01*
X9665000Y-9825000D02*
G75*
G02*
X9635000Y-9825000I-15000J0D01*
G01*
X9635000Y-9825000D02*
G75*
G02*
X9665000Y-9825000I15000J0D01*
G01*
X9665000Y-10325000D02*
G75*
G02*
X9635000Y-10325000I-15000J0D01*
G01*
X9635000Y-10325000D02*
G75*
G02*
X9665000Y-10325000I15000J0D01*
G01*
X9665000Y-10650000D02*
G75*
G02*
X9635000Y-10650000I-15000J0D01*
G01*
X9635000Y-10650000D02*
G75*
G02*
X9665000Y-10650000I15000J0D01*
G01*
X9740000Y-9100000D02*
G75*
G02*
X9710000Y-9100000I-15000J0D01*
G01*
X9710000Y-9100000D02*
G75*
G02*
X9740000Y-9100000I15000J0D01*
G01*
X9840000Y-9527400D02*
G75*
G02*
X9810000Y-9527400I-15000J0D01*
G01*
X9810000Y-9527400D02*
G75*
G02*
X9840000Y-9527400I15000J0D01*
G01*
X9878912Y-9725000D02*
G75*
G02*
X9848912Y-9725000I-15000J0D01*
G01*
X9848912Y-9725000D02*
G75*
G02*
X9878912Y-9725000I15000J0D01*
G01*
X9885000Y-8625000D02*
G75*
G02*
X9855000Y-8625000I-15000J0D01*
G01*
X9855000Y-8625000D02*
G75*
G02*
X9885000Y-8625000I15000J0D01*
G01*
X9889786Y-9102560D02*
G75*
G02*
X9859786Y-9102560I-15000J0D01*
G01*
X9859786Y-9102560D02*
G75*
G02*
X9889786Y-9102560I15000J0D01*
G01*
X9915000Y-10000000D02*
G75*
G02*
X9885000Y-10000000I-15000J0D01*
G01*
X9885000Y-10000000D02*
G75*
G02*
X9915000Y-10000000I15000J0D01*
G01*
X9915000Y-10250000D02*
G75*
G02*
X9885000Y-10250000I-15000J0D01*
G01*
X9885000Y-10250000D02*
G75*
G02*
X9915000Y-10250000I15000J0D01*
G01*
X9915000Y-10500000D02*
G75*
G02*
X9885000Y-10500000I-15000J0D01*
G01*
X9885000Y-10500000D02*
G75*
G02*
X9915000Y-10500000I15000J0D01*
G01*
X10090000Y-9000000D02*
G75*
G02*
X10060000Y-9000000I-15000J0D01*
G01*
X10060000Y-9000000D02*
G75*
G02*
X10090000Y-9000000I15000J0D01*
G01*
X10102500Y-9400000D02*
G75*
G02*
X10072500Y-9400000I-15000J0D01*
G01*
X10072500Y-9400000D02*
G75*
G02*
X10102500Y-9400000I15000J0D01*
G01*
X10140000Y-8570000D02*
G75*
G02*
X10110000Y-8570000I-15000J0D01*
G01*
X10110000Y-8570000D02*
G75*
G02*
X10140000Y-8570000I15000J0D01*
G01*
X10191671Y-9006154D02*
G75*
G02*
X10161671Y-9006154I-15000J0D01*
G01*
X10161671Y-9006154D02*
G75*
G02*
X10191671Y-9006154I15000J0D01*
G01*
X10240000Y-10000000D02*
G75*
G02*
X10210000Y-10000000I-15000J0D01*
G01*
X10210000Y-10000000D02*
G75*
G02*
X10240000Y-10000000I15000J0D01*
G01*
X10240000Y-10500000D02*
G75*
G02*
X10210000Y-10500000I-15000J0D01*
G01*
X10210000Y-10500000D02*
G75*
G02*
X10240000Y-10500000I15000J0D01*
G01*
X10315000Y-8925000D02*
G75*
G02*
X10285000Y-8925000I-15000J0D01*
G01*
X10285000Y-8925000D02*
G75*
G02*
X10315000Y-8925000I15000J0D01*
G01*
X10315000Y-9025000D02*
G75*
G02*
X10285000Y-9025000I-15000J0D01*
G01*
X10285000Y-9025000D02*
G75*
G02*
X10315000Y-9025000I15000J0D01*
G01*
X10326109Y-8511109D02*
G75*
G02*
X10296109Y-8511109I-15000J0D01*
G01*
X10296109Y-8511109D02*
G75*
G02*
X10326109Y-8511109I15000J0D01*
G01*
X10452500Y-8562500D02*
G75*
G02*
X10422500Y-8562500I-15000J0D01*
G01*
X10422500Y-8562500D02*
G75*
G02*
X10452500Y-8562500I15000J0D01*
G01*
X10565000Y-10000000D02*
G75*
G02*
X10535000Y-10000000I-15000J0D01*
G01*
X10535000Y-10000000D02*
G75*
G02*
X10565000Y-10000000I15000J0D01*
G01*
X10565000Y-10250000D02*
G75*
G02*
X10535000Y-10250000I-15000J0D01*
G01*
X10535000Y-10250000D02*
G75*
G02*
X10565000Y-10250000I15000J0D01*
G01*
X10565000Y-10500000D02*
G75*
G02*
X10535000Y-10500000I-15000J0D01*
G01*
X10535000Y-10500000D02*
G75*
G02*
X10565000Y-10500000I15000J0D01*
G01*
X10595000Y-9772500D02*
G75*
G02*
X10565000Y-9772500I-15000J0D01*
G01*
X10565000Y-9772500D02*
G75*
G02*
X10595000Y-9772500I15000J0D01*
G01*
X10715000Y-9525000D02*
G75*
G02*
X10685000Y-9525000I-15000J0D01*
G01*
X10685000Y-9525000D02*
G75*
G02*
X10715000Y-9525000I15000J0D01*
G01*
X10790000Y-10625000D02*
G75*
G02*
X10760000Y-10625000I-15000J0D01*
G01*
X10760000Y-10625000D02*
G75*
G02*
X10790000Y-10625000I15000J0D01*
G01*
X10815000Y-9777500D02*
G75*
G02*
X10785000Y-9777500I-15000J0D01*
G01*
X10785000Y-9777500D02*
G75*
G02*
X10815000Y-9777500I15000J0D01*
G01*
X10817500Y-10131000D02*
G75*
G02*
X10787500Y-10131000I-15000J0D01*
G01*
X10787500Y-10131000D02*
G75*
G02*
X10817500Y-10131000I15000J0D01*
G01*
X10902500Y-10587500D02*
G75*
G02*
X10872500Y-10587500I-15000J0D01*
G01*
X10872500Y-10587500D02*
G75*
G02*
X10902500Y-10587500I15000J0D01*
G01*
X11015000Y-10700000D02*
G75*
G02*
X10985000Y-10700000I-15000J0D01*
G01*
X10985000Y-10700000D02*
G75*
G02*
X11015000Y-10700000I15000J0D01*
G01*
X6805000Y-10055000D02*
X6805000Y-10095000D01*
X6785000Y-10075000D02*
X6825000Y-10075000D01*
X6837500Y-8805000D02*
X6837500Y-8845000D01*
X6817500Y-8825000D02*
X6857500Y-8825000D01*
X6892500Y-8362500D02*
X6892500Y-8402500D01*
X6872500Y-8382500D02*
X6912500Y-8382500D01*
X7155000Y-10180000D02*
X7155000Y-10220000D01*
X7135000Y-10200000D02*
X7175000Y-10200000D01*
X7212500Y-9630000D02*
X7212500Y-9670000D01*
X7192500Y-9650000D02*
X7232500Y-9650000D01*
X7314999Y-8290001D02*
X7314999Y-8330001D01*
X7294999Y-8310001D02*
X7334999Y-8310001D01*
X7325000Y-8605000D02*
X7325000Y-8645000D01*
X7305000Y-8625000D02*
X7345000Y-8625000D01*
X8125000Y-9835000D02*
X8125000Y-9875000D01*
X8105000Y-9855000D02*
X8145000Y-9855000D01*
X10965264Y-9578264D02*
X10965264Y-9545736D01*
X10932736Y-9545736D01*
X10932736Y-9578264D01*
X10965264Y-9578264D01*
X10965264Y-10454264D02*
X10965264Y-10421736D01*
X10932736Y-10421736D01*
X10932736Y-10454264D01*
X10965264Y-10454264D01*
X8543000Y-10137500D02*
X8573000Y-10107500D01*
X8543000Y-10077500D01*
X8513000Y-10107500D01*
X8543000Y-10137500D01*
X8573000Y-10162500D02*
X8573000Y-10052500D01*
X8513000Y-10052500D02*
G75*
G02*
X8573000Y-10052500I30000J0D01*
G01*
X8513000Y-10052500D02*
X8513000Y-10162500D01*
X8513000Y-10162500D02*
G75*
G03*
X8573000Y-10162500I30000J0D01*
G01*
X8543000Y-10555500D02*
X8573000Y-10525500D01*
X8543000Y-10495500D01*
X8513000Y-10525500D01*
X8543000Y-10555500D01*
X8573000Y-10565500D02*
X8573000Y-10485500D01*
X8513000Y-10485500D02*
G75*
G02*
X8573000Y-10485500I30000J0D01*
G01*
X8513000Y-10485500D02*
X8513000Y-10565500D01*
X8513000Y-10565500D02*
G75*
G03*
X8573000Y-10565500I30000J0D01*
G01*
X9407000Y-10137500D02*
X9437000Y-10107500D01*
X9407000Y-10077500D01*
X9377000Y-10107500D01*
X9407000Y-10137500D01*
X9437000Y-10162500D02*
X9437000Y-10052500D01*
X9377000Y-10052500D02*
G75*
G02*
X9437000Y-10052500I30000J0D01*
G01*
X9377000Y-10052500D02*
X9377000Y-10162500D01*
X9377000Y-10162500D02*
G75*
G03*
X9437000Y-10162500I30000J0D01*
G01*
X9407000Y-10555500D02*
X9437000Y-10525500D01*
X9407000Y-10495500D01*
X9377000Y-10525500D01*
X9407000Y-10555500D01*
X9437000Y-10565500D02*
X9437000Y-10485500D01*
X9377000Y-10485500D02*
G75*
G02*
X9437000Y-10485500I30000J0D01*
G01*
X9377000Y-10485500D02*
X9377000Y-10565500D01*
X9377000Y-10565500D02*
G75*
G03*
X9437000Y-10565500I30000J0D01*
G01*
X8477500Y-7877500D02*
X8572500Y-7972500D01*
X8572500Y-7877500D02*
X8477500Y-7972500D01*
X8572500Y-7925000D02*
G75*
G02*
X8477500Y-7925000I-47500J0D01*
G01*
X8477500Y-7925000D02*
G75*
G02*
X8572500Y-7925000I47500J0D01*
G01*
X8727500Y-7877500D02*
X8822500Y-7972500D01*
X8822500Y-7877500D02*
X8727500Y-7972500D01*
X8822500Y-7925000D02*
G75*
G02*
X8727500Y-7925000I-47500J0D01*
G01*
X8727500Y-7925000D02*
G75*
G02*
X8822500Y-7925000I47500J0D01*
G01*
X8977500Y-7877500D02*
X9072500Y-7972500D01*
X9072500Y-7877500D02*
X8977500Y-7972500D01*
X9072500Y-7925000D02*
G75*
G02*
X8977500Y-7925000I-47500J0D01*
G01*
X8977500Y-7925000D02*
G75*
G02*
X9072500Y-7925000I47500J0D01*
G01*
X9227500Y-7877500D02*
X9322500Y-7972500D01*
X9322500Y-7877500D02*
X9227500Y-7972500D01*
X9322500Y-7925000D02*
G75*
G02*
X9227500Y-7925000I-47500J0D01*
G01*
X9227500Y-7925000D02*
G75*
G02*
X9322500Y-7925000I47500J0D01*
G01*
X6975000Y-10437500D02*
X7075000Y-10537500D01*
X7075000Y-10437500D02*
X6975000Y-10537500D01*
X7025000Y-10437500D02*
X7025000Y-10537500D01*
X6975000Y-10487500D02*
X7075000Y-10487500D01*
X7225000Y-10437500D02*
X7325000Y-10537500D01*
X7325000Y-10437500D02*
X7225000Y-10537500D01*
X7275000Y-10437500D02*
X7275000Y-10537500D01*
X7225000Y-10487500D02*
X7325000Y-10487500D01*
X7825000Y-10437500D02*
X7925000Y-10537500D01*
X7925000Y-10437500D02*
X7825000Y-10537500D01*
X7875000Y-10437500D02*
X7875000Y-10537500D01*
X7825000Y-10487500D02*
X7925000Y-10487500D01*
X8075000Y-10437500D02*
X8175000Y-10537500D01*
X8175000Y-10437500D02*
X8075000Y-10537500D01*
X8125000Y-10437500D02*
X8125000Y-10537500D01*
X8075000Y-10487500D02*
X8175000Y-10487500D01*
X9708500Y-7650000D02*
X9808500Y-7750000D01*
X9808500Y-7650000D02*
X9708500Y-7750000D01*
X9758500Y-7650000D02*
X9758500Y-7750000D01*
X9708500Y-7700000D02*
X9808500Y-7700000D01*
X9962500Y-7650000D02*
X10062500Y-7750000D01*
X10062500Y-7650000D02*
X9962500Y-7750000D01*
X10012500Y-7650000D02*
X10012500Y-7750000D01*
X9962500Y-7700000D02*
X10062500Y-7700000D01*
X10216500Y-7650000D02*
X10316500Y-7750000D01*
X10316500Y-7650000D02*
X10216500Y-7750000D01*
X10266500Y-7650000D02*
X10266500Y-7750000D01*
X10216500Y-7700000D02*
X10316500Y-7700000D01*
X10470500Y-7650000D02*
X10570500Y-7750000D01*
X10570500Y-7650000D02*
X10470500Y-7750000D01*
X10520500Y-7650000D02*
X10520500Y-7750000D01*
X10470500Y-7700000D02*
X10570500Y-7700000D01*
X10724500Y-7650000D02*
X10824500Y-7750000D01*
X10824500Y-7650000D02*
X10724500Y-7750000D01*
X10774500Y-7650000D02*
X10774500Y-7750000D01*
X10724500Y-7700000D02*
X10824500Y-7700000D01*
X10900000Y-8437922D02*
X11000000Y-8537922D01*
X11000000Y-8437922D02*
X10900000Y-8537922D01*
X10950000Y-8437922D02*
X10950000Y-8537922D01*
X10900000Y-8487922D02*
X11000000Y-8487922D01*
X10900000Y-8937922D02*
X11000000Y-9037922D01*
X11000000Y-8937922D02*
X10900000Y-9037922D01*
X10950000Y-8937922D02*
X10950000Y-9037922D01*
X10900000Y-8987922D02*
X11000000Y-8987922D01*
D12*
X6170000Y-7650000D02*
X6280000Y-7760000D01*
X6280000Y-7650000D02*
X6170000Y-7760000D01*
X6263891Y-7743891D02*
X6263891Y-7666109D01*
X6186109Y-7666109D01*
X6186109Y-7743891D01*
X6263891Y-7743891D01*
X6170000Y-7904000D02*
X6280000Y-8014000D01*
X6280000Y-7904000D02*
X6170000Y-8014000D01*
X6263891Y-7997891D02*
X6263891Y-7920109D01*
X6186109Y-7920109D01*
X6186109Y-7997891D01*
X6263891Y-7997891D01*
X6170000Y-8158000D02*
X6280000Y-8268000D01*
X6280000Y-8158000D02*
X6170000Y-8268000D01*
X6263891Y-8251891D02*
X6263891Y-8174109D01*
X6186109Y-8174109D01*
X6186109Y-8251891D01*
X6263891Y-8251891D01*
X6170000Y-8412000D02*
X6280000Y-8522000D01*
X6280000Y-8412000D02*
X6170000Y-8522000D01*
X6263891Y-8505891D02*
X6263891Y-8428109D01*
X6186109Y-8428109D01*
X6186109Y-8505891D01*
X6263891Y-8505891D01*
X6170000Y-8666000D02*
X6280000Y-8776000D01*
X6280000Y-8666000D02*
X6170000Y-8776000D01*
X6263891Y-8759891D02*
X6263891Y-8682109D01*
X6186109Y-8682109D01*
X6186109Y-8759891D01*
X6263891Y-8759891D01*
X6170000Y-8920000D02*
X6280000Y-9030000D01*
X6280000Y-8920000D02*
X6170000Y-9030000D01*
X6263891Y-9013891D02*
X6263891Y-8936109D01*
X6186109Y-8936109D01*
X6186109Y-9013891D01*
X6263891Y-9013891D01*
X6170000Y-9174000D02*
X6280000Y-9284000D01*
X6280000Y-9174000D02*
X6170000Y-9284000D01*
X6263891Y-9267891D02*
X6263891Y-9190109D01*
X6186109Y-9190109D01*
X6186109Y-9267891D01*
X6263891Y-9267891D01*
X6170000Y-9428000D02*
X6280000Y-9538000D01*
X6280000Y-9428000D02*
X6170000Y-9538000D01*
X6263891Y-9521891D02*
X6263891Y-9444109D01*
X6186109Y-9444109D01*
X6186109Y-9521891D01*
X6263891Y-9521891D01*
D13*
X5840000Y-10340000D02*
X6160000Y-10660000D01*
X6160000Y-10340000D02*
X5840000Y-10660000D01*
X6000000Y-10660000D02*
X6160000Y-10500000D01*
X6000000Y-10340000D01*
X5840000Y-10500000D01*
X6000000Y-10660000D01*
X11140000Y-7640000D02*
X11460000Y-7960000D01*
X11460000Y-7640000D02*
X11140000Y-7960000D01*
X11300000Y-7960000D02*
X11460000Y-7800000D01*
X11300000Y-7640000D01*
X11140000Y-7800000D01*
X11300000Y-7960000D01*
D11*
X5955777Y-11116484D02*
X5955777Y-10916484D01*
X5955777Y-10916484D02*
X6003396Y-10916484D01*
X6003396Y-10916484D02*
X6031967Y-10926008D01*
X6031967Y-10926008D02*
X6051015Y-10945055D01*
X6051015Y-10945055D02*
X6060539Y-10964103D01*
X6060539Y-10964103D02*
X6070062Y-11002198D01*
X6070062Y-11002198D02*
X6070062Y-11030770D01*
X6070062Y-11030770D02*
X6060539Y-11068865D01*
X6060539Y-11068865D02*
X6051015Y-11087912D01*
X6051015Y-11087912D02*
X6031967Y-11106960D01*
X6031967Y-11106960D02*
X6003396Y-11116484D01*
X6003396Y-11116484D02*
X5955777Y-11116484D01*
X6155777Y-11116484D02*
X6155777Y-10983150D01*
X6155777Y-11021246D02*
X6165301Y-11002198D01*
X6165301Y-11002198D02*
X6174824Y-10992674D01*
X6174824Y-10992674D02*
X6193872Y-10983150D01*
X6193872Y-10983150D02*
X6212920Y-10983150D01*
X6279586Y-11116484D02*
X6279586Y-10983150D01*
X6279586Y-10916484D02*
X6270062Y-10926008D01*
X6270062Y-10926008D02*
X6279586Y-10935531D01*
X6279586Y-10935531D02*
X6289110Y-10926008D01*
X6289110Y-10926008D02*
X6279586Y-10916484D01*
X6279586Y-10916484D02*
X6279586Y-10935531D01*
X6403396Y-11116484D02*
X6384348Y-11106960D01*
X6384348Y-11106960D02*
X6374824Y-11087912D01*
X6374824Y-11087912D02*
X6374824Y-10916484D01*
X6508158Y-11116484D02*
X6489110Y-11106960D01*
X6489110Y-11106960D02*
X6479586Y-11087912D01*
X6479586Y-11087912D02*
X6479586Y-10916484D01*
X6736729Y-11116484D02*
X6736729Y-10916484D01*
X6736729Y-10916484D02*
X6803396Y-11059341D01*
X6803396Y-11059341D02*
X6870062Y-10916484D01*
X6870062Y-10916484D02*
X6870062Y-11116484D01*
X7051015Y-11116484D02*
X7051015Y-11011722D01*
X7051015Y-11011722D02*
X7041491Y-10992674D01*
X7041491Y-10992674D02*
X7022443Y-10983150D01*
X7022443Y-10983150D02*
X6984348Y-10983150D01*
X6984348Y-10983150D02*
X6965301Y-10992674D01*
X7051015Y-11106960D02*
X7031967Y-11116484D01*
X7031967Y-11116484D02*
X6984348Y-11116484D01*
X6984348Y-11116484D02*
X6965301Y-11106960D01*
X6965301Y-11106960D02*
X6955777Y-11087912D01*
X6955777Y-11087912D02*
X6955777Y-11068865D01*
X6955777Y-11068865D02*
X6965301Y-11049817D01*
X6965301Y-11049817D02*
X6984348Y-11040293D01*
X6984348Y-11040293D02*
X7031967Y-11040293D01*
X7031967Y-11040293D02*
X7051015Y-11030770D01*
X7146253Y-10983150D02*
X7146253Y-11183150D01*
X7146253Y-10992674D02*
X7165301Y-10983150D01*
X7165301Y-10983150D02*
X7203396Y-10983150D01*
X7203396Y-10983150D02*
X7222443Y-10992674D01*
X7222443Y-10992674D02*
X7231967Y-11002198D01*
X7231967Y-11002198D02*
X7241491Y-11021246D01*
X7241491Y-11021246D02*
X7241491Y-11078389D01*
X7241491Y-11078389D02*
X7231967Y-11097436D01*
X7231967Y-11097436D02*
X7222443Y-11106960D01*
X7222443Y-11106960D02*
X7203396Y-11116484D01*
X7203396Y-11116484D02*
X7165301Y-11116484D01*
X7165301Y-11116484D02*
X7146253Y-11106960D01*
X7327205Y-11097436D02*
X7336729Y-11106960D01*
X7336729Y-11106960D02*
X7327205Y-11116484D01*
X7327205Y-11116484D02*
X7317682Y-11106960D01*
X7317682Y-11106960D02*
X7327205Y-11097436D01*
X7327205Y-11097436D02*
X7327205Y-11116484D01*
X7327205Y-10992674D02*
X7336729Y-11002198D01*
X7336729Y-11002198D02*
X7327205Y-11011722D01*
X7327205Y-11011722D02*
X7317682Y-11002198D01*
X7317682Y-11002198D02*
X7327205Y-10992674D01*
X7327205Y-10992674D02*
X7327205Y-11011722D01*
D10*
X5675000Y-11435000D02*
X5695000Y-11455000D01*
X5695000Y-11435000D02*
X5675000Y-11455000D01*
D11*
X5993872Y-11336484D02*
X6012920Y-11336484D01*
X6012920Y-11336484D02*
X6031967Y-11346008D01*
X6031967Y-11346008D02*
X6041491Y-11355531D01*
X6041491Y-11355531D02*
X6051015Y-11374579D01*
X6051015Y-11374579D02*
X6060539Y-11412674D01*
X6060539Y-11412674D02*
X6060539Y-11460293D01*
X6060539Y-11460293D02*
X6051015Y-11498388D01*
X6051015Y-11498388D02*
X6041491Y-11517436D01*
X6041491Y-11517436D02*
X6031967Y-11526960D01*
X6031967Y-11526960D02*
X6012920Y-11536484D01*
X6012920Y-11536484D02*
X5993872Y-11536484D01*
X5993872Y-11536484D02*
X5974824Y-11526960D01*
X5974824Y-11526960D02*
X5965301Y-11517436D01*
X5965301Y-11517436D02*
X5955777Y-11498388D01*
X5955777Y-11498388D02*
X5946253Y-11460293D01*
X5946253Y-11460293D02*
X5946253Y-11412674D01*
X5946253Y-11412674D02*
X5955777Y-11374579D01*
X5955777Y-11374579D02*
X5965301Y-11355531D01*
X5965301Y-11355531D02*
X5974824Y-11346008D01*
X5974824Y-11346008D02*
X5993872Y-11336484D01*
X6146253Y-11517436D02*
X6155777Y-11526960D01*
X6155777Y-11526960D02*
X6146253Y-11536484D01*
X6146253Y-11536484D02*
X6136729Y-11526960D01*
X6136729Y-11526960D02*
X6146253Y-11517436D01*
X6146253Y-11517436D02*
X6146253Y-11536484D01*
X6231967Y-11355531D02*
X6241491Y-11346008D01*
X6241491Y-11346008D02*
X6260539Y-11336484D01*
X6260539Y-11336484D02*
X6308158Y-11336484D01*
X6308158Y-11336484D02*
X6327205Y-11346008D01*
X6327205Y-11346008D02*
X6336729Y-11355531D01*
X6336729Y-11355531D02*
X6346253Y-11374579D01*
X6346253Y-11374579D02*
X6346253Y-11393627D01*
X6346253Y-11393627D02*
X6336729Y-11422198D01*
X6336729Y-11422198D02*
X6222443Y-11536484D01*
X6222443Y-11536484D02*
X6346253Y-11536484D01*
X6470062Y-11336484D02*
X6489110Y-11336484D01*
X6489110Y-11336484D02*
X6508158Y-11346008D01*
X6508158Y-11346008D02*
X6517682Y-11355531D01*
X6517682Y-11355531D02*
X6527205Y-11374579D01*
X6527205Y-11374579D02*
X6536729Y-11412674D01*
X6536729Y-11412674D02*
X6536729Y-11460293D01*
X6536729Y-11460293D02*
X6527205Y-11498388D01*
X6527205Y-11498388D02*
X6517682Y-11517436D01*
X6517682Y-11517436D02*
X6508158Y-11526960D01*
X6508158Y-11526960D02*
X6489110Y-11536484D01*
X6489110Y-11536484D02*
X6470062Y-11536484D01*
X6470062Y-11536484D02*
X6451015Y-11526960D01*
X6451015Y-11526960D02*
X6441491Y-11517436D01*
X6441491Y-11517436D02*
X6431967Y-11498388D01*
X6431967Y-11498388D02*
X6422443Y-11460293D01*
X6422443Y-11460293D02*
X6422443Y-11412674D01*
X6422443Y-11412674D02*
X6431967Y-11374579D01*
X6431967Y-11374579D02*
X6441491Y-11355531D01*
X6441491Y-11355531D02*
X6451015Y-11346008D01*
X6451015Y-11346008D02*
X6470062Y-11336484D01*
X6660539Y-11336484D02*
X6679586Y-11336484D01*
X6679586Y-11336484D02*
X6698634Y-11346008D01*
X6698634Y-11346008D02*
X6708158Y-11355531D01*
X6708158Y-11355531D02*
X6717682Y-11374579D01*
X6717682Y-11374579D02*
X6727205Y-11412674D01*
X6727205Y-11412674D02*
X6727205Y-11460293D01*
X6727205Y-11460293D02*
X6717682Y-11498388D01*
X6717682Y-11498388D02*
X6708158Y-11517436D01*
X6708158Y-11517436D02*
X6698634Y-11526960D01*
X6698634Y-11526960D02*
X6679586Y-11536484D01*
X6679586Y-11536484D02*
X6660539Y-11536484D01*
X6660539Y-11536484D02*
X6641491Y-11526960D01*
X6641491Y-11526960D02*
X6631967Y-11517436D01*
X6631967Y-11517436D02*
X6622443Y-11498388D01*
X6622443Y-11498388D02*
X6612920Y-11460293D01*
X6612920Y-11460293D02*
X6612920Y-11412674D01*
X6612920Y-11412674D02*
X6622443Y-11374579D01*
X6622443Y-11374579D02*
X6631967Y-11355531D01*
X6631967Y-11355531D02*
X6641491Y-11346008D01*
X6641491Y-11346008D02*
X6660539Y-11336484D01*
X6812920Y-11536484D02*
X6812920Y-11403150D01*
X6812920Y-11422198D02*
X6822443Y-11412674D01*
X6822443Y-11412674D02*
X6841491Y-11403150D01*
X6841491Y-11403150D02*
X6870063Y-11403150D01*
X6870063Y-11403150D02*
X6889110Y-11412674D01*
X6889110Y-11412674D02*
X6898634Y-11431722D01*
X6898634Y-11431722D02*
X6898634Y-11536484D01*
X6898634Y-11431722D02*
X6908158Y-11412674D01*
X6908158Y-11412674D02*
X6927205Y-11403150D01*
X6927205Y-11403150D02*
X6955777Y-11403150D01*
X6955777Y-11403150D02*
X6974824Y-11412674D01*
X6974824Y-11412674D02*
X6984348Y-11431722D01*
X6984348Y-11431722D02*
X6984348Y-11536484D01*
X7079586Y-11536484D02*
X7079586Y-11403150D01*
X7079586Y-11422198D02*
X7089110Y-11412674D01*
X7089110Y-11412674D02*
X7108158Y-11403150D01*
X7108158Y-11403150D02*
X7136729Y-11403150D01*
X7136729Y-11403150D02*
X7155777Y-11412674D01*
X7155777Y-11412674D02*
X7165301Y-11431722D01*
X7165301Y-11431722D02*
X7165301Y-11536484D01*
X7165301Y-11431722D02*
X7174824Y-11412674D01*
X7174824Y-11412674D02*
X7193872Y-11403150D01*
X7193872Y-11403150D02*
X7222443Y-11403150D01*
X7222443Y-11403150D02*
X7241491Y-11412674D01*
X7241491Y-11412674D02*
X7251015Y-11431722D01*
X7251015Y-11431722D02*
X7251015Y-11536484D01*
X7641491Y-11326960D02*
X7470063Y-11584103D01*
X7898634Y-11336484D02*
X7917682Y-11336484D01*
X7917682Y-11336484D02*
X7936729Y-11346008D01*
X7936729Y-11346008D02*
X7946253Y-11355531D01*
X7946253Y-11355531D02*
X7955777Y-11374579D01*
X7955777Y-11374579D02*
X7965301Y-11412674D01*
X7965301Y-11412674D02*
X7965301Y-11460293D01*
X7965301Y-11460293D02*
X7955777Y-11498388D01*
X7955777Y-11498388D02*
X7946253Y-11517436D01*
X7946253Y-11517436D02*
X7936729Y-11526960D01*
X7936729Y-11526960D02*
X7917682Y-11536484D01*
X7917682Y-11536484D02*
X7898634Y-11536484D01*
X7898634Y-11536484D02*
X7879586Y-11526960D01*
X7879586Y-11526960D02*
X7870063Y-11517436D01*
X7870063Y-11517436D02*
X7860539Y-11498388D01*
X7860539Y-11498388D02*
X7851015Y-11460293D01*
X7851015Y-11460293D02*
X7851015Y-11412674D01*
X7851015Y-11412674D02*
X7860539Y-11374579D01*
X7860539Y-11374579D02*
X7870063Y-11355531D01*
X7870063Y-11355531D02*
X7879586Y-11346008D01*
X7879586Y-11346008D02*
X7898634Y-11336484D01*
X8051015Y-11517436D02*
X8060539Y-11526960D01*
X8060539Y-11526960D02*
X8051015Y-11536484D01*
X8051015Y-11536484D02*
X8041491Y-11526960D01*
X8041491Y-11526960D02*
X8051015Y-11517436D01*
X8051015Y-11517436D02*
X8051015Y-11536484D01*
X8184348Y-11336484D02*
X8203396Y-11336484D01*
X8203396Y-11336484D02*
X8222444Y-11346008D01*
X8222444Y-11346008D02*
X8231967Y-11355531D01*
X8231967Y-11355531D02*
X8241491Y-11374579D01*
X8241491Y-11374579D02*
X8251015Y-11412674D01*
X8251015Y-11412674D02*
X8251015Y-11460293D01*
X8251015Y-11460293D02*
X8241491Y-11498388D01*
X8241491Y-11498388D02*
X8231967Y-11517436D01*
X8231967Y-11517436D02*
X8222444Y-11526960D01*
X8222444Y-11526960D02*
X8203396Y-11536484D01*
X8203396Y-11536484D02*
X8184348Y-11536484D01*
X8184348Y-11536484D02*
X8165301Y-11526960D01*
X8165301Y-11526960D02*
X8155777Y-11517436D01*
X8155777Y-11517436D02*
X8146253Y-11498388D01*
X8146253Y-11498388D02*
X8136729Y-11460293D01*
X8136729Y-11460293D02*
X8136729Y-11412674D01*
X8136729Y-11412674D02*
X8146253Y-11374579D01*
X8146253Y-11374579D02*
X8155777Y-11355531D01*
X8155777Y-11355531D02*
X8165301Y-11346008D01*
X8165301Y-11346008D02*
X8184348Y-11336484D01*
X8374825Y-11336484D02*
X8393872Y-11336484D01*
X8393872Y-11336484D02*
X8412920Y-11346008D01*
X8412920Y-11346008D02*
X8422444Y-11355531D01*
X8422444Y-11355531D02*
X8431968Y-11374579D01*
X8431968Y-11374579D02*
X8441491Y-11412674D01*
X8441491Y-11412674D02*
X8441491Y-11460293D01*
X8441491Y-11460293D02*
X8431968Y-11498388D01*
X8431968Y-11498388D02*
X8422444Y-11517436D01*
X8422444Y-11517436D02*
X8412920Y-11526960D01*
X8412920Y-11526960D02*
X8393872Y-11536484D01*
X8393872Y-11536484D02*
X8374825Y-11536484D01*
X8374825Y-11536484D02*
X8355777Y-11526960D01*
X8355777Y-11526960D02*
X8346253Y-11517436D01*
X8346253Y-11517436D02*
X8336729Y-11498388D01*
X8336729Y-11498388D02*
X8327206Y-11460293D01*
X8327206Y-11460293D02*
X8327206Y-11412674D01*
X8327206Y-11412674D02*
X8336729Y-11374579D01*
X8336729Y-11374579D02*
X8346253Y-11355531D01*
X8346253Y-11355531D02*
X8355777Y-11346008D01*
X8355777Y-11346008D02*
X8374825Y-11336484D01*
X8508158Y-11336484D02*
X8641491Y-11336484D01*
X8641491Y-11336484D02*
X8555777Y-11536484D01*
X8727206Y-11536484D02*
X8765301Y-11536484D01*
X8765301Y-11536484D02*
X8784349Y-11526960D01*
X8784349Y-11526960D02*
X8793872Y-11517436D01*
X8793872Y-11517436D02*
X8812920Y-11488865D01*
X8812920Y-11488865D02*
X8822444Y-11450769D01*
X8822444Y-11450769D02*
X8822444Y-11374579D01*
X8822444Y-11374579D02*
X8812920Y-11355531D01*
X8812920Y-11355531D02*
X8803396Y-11346008D01*
X8803396Y-11346008D02*
X8784349Y-11336484D01*
X8784349Y-11336484D02*
X8746253Y-11336484D01*
X8746253Y-11336484D02*
X8727206Y-11346008D01*
X8727206Y-11346008D02*
X8717682Y-11355531D01*
X8717682Y-11355531D02*
X8708158Y-11374579D01*
X8708158Y-11374579D02*
X8708158Y-11422198D01*
X8708158Y-11422198D02*
X8717682Y-11441246D01*
X8717682Y-11441246D02*
X8727206Y-11450769D01*
X8727206Y-11450769D02*
X8746253Y-11460293D01*
X8746253Y-11460293D02*
X8784349Y-11460293D01*
X8784349Y-11460293D02*
X8803396Y-11450769D01*
X8803396Y-11450769D02*
X8812920Y-11441246D01*
X8812920Y-11441246D02*
X8822444Y-11422198D01*
X8898634Y-11336484D02*
X8898634Y-11374579D01*
X8974825Y-11336484D02*
X8974825Y-11374579D01*
X9270063Y-11612674D02*
X9260539Y-11603150D01*
X9260539Y-11603150D02*
X9241491Y-11574579D01*
X9241491Y-11574579D02*
X9231968Y-11555531D01*
X9231968Y-11555531D02*
X9222444Y-11526960D01*
X9222444Y-11526960D02*
X9212920Y-11479341D01*
X9212920Y-11479341D02*
X9212920Y-11441246D01*
X9212920Y-11441246D02*
X9222444Y-11393627D01*
X9222444Y-11393627D02*
X9231968Y-11365055D01*
X9231968Y-11365055D02*
X9241491Y-11346008D01*
X9241491Y-11346008D02*
X9260539Y-11317436D01*
X9260539Y-11317436D02*
X9270063Y-11307912D01*
X9336730Y-11355531D02*
X9346253Y-11346008D01*
X9346253Y-11346008D02*
X9365301Y-11336484D01*
X9365301Y-11336484D02*
X9412920Y-11336484D01*
X9412920Y-11336484D02*
X9431968Y-11346008D01*
X9431968Y-11346008D02*
X9441491Y-11355531D01*
X9441491Y-11355531D02*
X9451015Y-11374579D01*
X9451015Y-11374579D02*
X9451015Y-11393627D01*
X9451015Y-11393627D02*
X9441491Y-11422198D01*
X9441491Y-11422198D02*
X9327206Y-11536484D01*
X9327206Y-11536484D02*
X9451015Y-11536484D01*
X9517682Y-11336484D02*
X9651015Y-11336484D01*
X9651015Y-11336484D02*
X9565301Y-11536484D01*
X9879587Y-11536484D02*
X9879587Y-11336484D01*
X9965301Y-11536484D02*
X9965301Y-11431722D01*
X9965301Y-11431722D02*
X9955777Y-11412674D01*
X9955777Y-11412674D02*
X9936730Y-11403150D01*
X9936730Y-11403150D02*
X9908158Y-11403150D01*
X9908158Y-11403150D02*
X9889111Y-11412674D01*
X9889111Y-11412674D02*
X9879587Y-11422198D01*
X10089111Y-11536484D02*
X10070063Y-11526960D01*
X10070063Y-11526960D02*
X10060539Y-11517436D01*
X10060539Y-11517436D02*
X10051015Y-11498388D01*
X10051015Y-11498388D02*
X10051015Y-11441246D01*
X10051015Y-11441246D02*
X10060539Y-11422198D01*
X10060539Y-11422198D02*
X10070063Y-11412674D01*
X10070063Y-11412674D02*
X10089111Y-11403150D01*
X10089111Y-11403150D02*
X10117682Y-11403150D01*
X10117682Y-11403150D02*
X10136730Y-11412674D01*
X10136730Y-11412674D02*
X10146253Y-11422198D01*
X10146253Y-11422198D02*
X10155777Y-11441246D01*
X10155777Y-11441246D02*
X10155777Y-11498388D01*
X10155777Y-11498388D02*
X10146253Y-11517436D01*
X10146253Y-11517436D02*
X10136730Y-11526960D01*
X10136730Y-11526960D02*
X10117682Y-11536484D01*
X10117682Y-11536484D02*
X10089111Y-11536484D01*
X10270063Y-11536484D02*
X10251015Y-11526960D01*
X10251015Y-11526960D02*
X10241492Y-11507912D01*
X10241492Y-11507912D02*
X10241492Y-11336484D01*
X10422444Y-11526960D02*
X10403396Y-11536484D01*
X10403396Y-11536484D02*
X10365301Y-11536484D01*
X10365301Y-11536484D02*
X10346253Y-11526960D01*
X10346253Y-11526960D02*
X10336730Y-11507912D01*
X10336730Y-11507912D02*
X10336730Y-11431722D01*
X10336730Y-11431722D02*
X10346253Y-11412674D01*
X10346253Y-11412674D02*
X10365301Y-11403150D01*
X10365301Y-11403150D02*
X10403396Y-11403150D01*
X10403396Y-11403150D02*
X10422444Y-11412674D01*
X10422444Y-11412674D02*
X10431968Y-11431722D01*
X10431968Y-11431722D02*
X10431968Y-11450769D01*
X10431968Y-11450769D02*
X10336730Y-11469817D01*
X10508158Y-11526960D02*
X10527206Y-11536484D01*
X10527206Y-11536484D02*
X10565301Y-11536484D01*
X10565301Y-11536484D02*
X10584349Y-11526960D01*
X10584349Y-11526960D02*
X10593873Y-11507912D01*
X10593873Y-11507912D02*
X10593873Y-11498388D01*
X10593873Y-11498388D02*
X10584349Y-11479341D01*
X10584349Y-11479341D02*
X10565301Y-11469817D01*
X10565301Y-11469817D02*
X10536730Y-11469817D01*
X10536730Y-11469817D02*
X10517682Y-11460293D01*
X10517682Y-11460293D02*
X10508158Y-11441246D01*
X10508158Y-11441246D02*
X10508158Y-11431722D01*
X10508158Y-11431722D02*
X10517682Y-11412674D01*
X10517682Y-11412674D02*
X10536730Y-11403150D01*
X10536730Y-11403150D02*
X10565301Y-11403150D01*
X10565301Y-11403150D02*
X10584349Y-11412674D01*
X10660539Y-11612674D02*
X10670063Y-11603150D01*
X10670063Y-11603150D02*
X10689111Y-11574579D01*
X10689111Y-11574579D02*
X10698634Y-11555531D01*
X10698634Y-11555531D02*
X10708158Y-11526960D01*
X10708158Y-11526960D02*
X10717682Y-11479341D01*
X10717682Y-11479341D02*
X10717682Y-11441246D01*
X10717682Y-11441246D02*
X10708158Y-11393627D01*
X10708158Y-11393627D02*
X10698634Y-11365055D01*
X10698634Y-11365055D02*
X10689111Y-11346008D01*
X10689111Y-11346008D02*
X10670063Y-11317436D01*
X10670063Y-11317436D02*
X10660539Y-11307912D01*
D10*
X5695000Y-11709000D02*
G75*
G02*
X5665000Y-11709000I-15000J0D01*
G01*
X5665000Y-11709000D02*
G75*
G02*
X5695000Y-11709000I15000J0D01*
G01*
D11*
X5993872Y-11600484D02*
X6012920Y-11600484D01*
X6012920Y-11600484D02*
X6031967Y-11610008D01*
X6031967Y-11610008D02*
X6041491Y-11619531D01*
X6041491Y-11619531D02*
X6051015Y-11638579D01*
X6051015Y-11638579D02*
X6060539Y-11676674D01*
X6060539Y-11676674D02*
X6060539Y-11724293D01*
X6060539Y-11724293D02*
X6051015Y-11762388D01*
X6051015Y-11762388D02*
X6041491Y-11781436D01*
X6041491Y-11781436D02*
X6031967Y-11790960D01*
X6031967Y-11790960D02*
X6012920Y-11800484D01*
X6012920Y-11800484D02*
X5993872Y-11800484D01*
X5993872Y-11800484D02*
X5974824Y-11790960D01*
X5974824Y-11790960D02*
X5965301Y-11781436D01*
X5965301Y-11781436D02*
X5955777Y-11762388D01*
X5955777Y-11762388D02*
X5946253Y-11724293D01*
X5946253Y-11724293D02*
X5946253Y-11676674D01*
X5946253Y-11676674D02*
X5955777Y-11638579D01*
X5955777Y-11638579D02*
X5965301Y-11619531D01*
X5965301Y-11619531D02*
X5974824Y-11610008D01*
X5974824Y-11610008D02*
X5993872Y-11600484D01*
X6146253Y-11781436D02*
X6155777Y-11790960D01*
X6155777Y-11790960D02*
X6146253Y-11800484D01*
X6146253Y-11800484D02*
X6136729Y-11790960D01*
X6136729Y-11790960D02*
X6146253Y-11781436D01*
X6146253Y-11781436D02*
X6146253Y-11800484D01*
X6222443Y-11600484D02*
X6346253Y-11600484D01*
X6346253Y-11600484D02*
X6279586Y-11676674D01*
X6279586Y-11676674D02*
X6308158Y-11676674D01*
X6308158Y-11676674D02*
X6327205Y-11686198D01*
X6327205Y-11686198D02*
X6336729Y-11695722D01*
X6336729Y-11695722D02*
X6346253Y-11714769D01*
X6346253Y-11714769D02*
X6346253Y-11762388D01*
X6346253Y-11762388D02*
X6336729Y-11781436D01*
X6336729Y-11781436D02*
X6327205Y-11790960D01*
X6327205Y-11790960D02*
X6308158Y-11800484D01*
X6308158Y-11800484D02*
X6251015Y-11800484D01*
X6251015Y-11800484D02*
X6231967Y-11790960D01*
X6231967Y-11790960D02*
X6222443Y-11781436D01*
X6470062Y-11600484D02*
X6489110Y-11600484D01*
X6489110Y-11600484D02*
X6508158Y-11610008D01*
X6508158Y-11610008D02*
X6517682Y-11619531D01*
X6517682Y-11619531D02*
X6527205Y-11638579D01*
X6527205Y-11638579D02*
X6536729Y-11676674D01*
X6536729Y-11676674D02*
X6536729Y-11724293D01*
X6536729Y-11724293D02*
X6527205Y-11762388D01*
X6527205Y-11762388D02*
X6517682Y-11781436D01*
X6517682Y-11781436D02*
X6508158Y-11790960D01*
X6508158Y-11790960D02*
X6489110Y-11800484D01*
X6489110Y-11800484D02*
X6470062Y-11800484D01*
X6470062Y-11800484D02*
X6451015Y-11790960D01*
X6451015Y-11790960D02*
X6441491Y-11781436D01*
X6441491Y-11781436D02*
X6431967Y-11762388D01*
X6431967Y-11762388D02*
X6422443Y-11724293D01*
X6422443Y-11724293D02*
X6422443Y-11676674D01*
X6422443Y-11676674D02*
X6431967Y-11638579D01*
X6431967Y-11638579D02*
X6441491Y-11619531D01*
X6441491Y-11619531D02*
X6451015Y-11610008D01*
X6451015Y-11610008D02*
X6470062Y-11600484D01*
X6660539Y-11600484D02*
X6679586Y-11600484D01*
X6679586Y-11600484D02*
X6698634Y-11610008D01*
X6698634Y-11610008D02*
X6708158Y-11619531D01*
X6708158Y-11619531D02*
X6717682Y-11638579D01*
X6717682Y-11638579D02*
X6727205Y-11676674D01*
X6727205Y-11676674D02*
X6727205Y-11724293D01*
X6727205Y-11724293D02*
X6717682Y-11762388D01*
X6717682Y-11762388D02*
X6708158Y-11781436D01*
X6708158Y-11781436D02*
X6698634Y-11790960D01*
X6698634Y-11790960D02*
X6679586Y-11800484D01*
X6679586Y-11800484D02*
X6660539Y-11800484D01*
X6660539Y-11800484D02*
X6641491Y-11790960D01*
X6641491Y-11790960D02*
X6631967Y-11781436D01*
X6631967Y-11781436D02*
X6622443Y-11762388D01*
X6622443Y-11762388D02*
X6612920Y-11724293D01*
X6612920Y-11724293D02*
X6612920Y-11676674D01*
X6612920Y-11676674D02*
X6622443Y-11638579D01*
X6622443Y-11638579D02*
X6631967Y-11619531D01*
X6631967Y-11619531D02*
X6641491Y-11610008D01*
X6641491Y-11610008D02*
X6660539Y-11600484D01*
X6812920Y-11800484D02*
X6812920Y-11667150D01*
X6812920Y-11686198D02*
X6822443Y-11676674D01*
X6822443Y-11676674D02*
X6841491Y-11667150D01*
X6841491Y-11667150D02*
X6870063Y-11667150D01*
X6870063Y-11667150D02*
X6889110Y-11676674D01*
X6889110Y-11676674D02*
X6898634Y-11695722D01*
X6898634Y-11695722D02*
X6898634Y-11800484D01*
X6898634Y-11695722D02*
X6908158Y-11676674D01*
X6908158Y-11676674D02*
X6927205Y-11667150D01*
X6927205Y-11667150D02*
X6955777Y-11667150D01*
X6955777Y-11667150D02*
X6974824Y-11676674D01*
X6974824Y-11676674D02*
X6984348Y-11695722D01*
X6984348Y-11695722D02*
X6984348Y-11800484D01*
X7079586Y-11800484D02*
X7079586Y-11667150D01*
X7079586Y-11686198D02*
X7089110Y-11676674D01*
X7089110Y-11676674D02*
X7108158Y-11667150D01*
X7108158Y-11667150D02*
X7136729Y-11667150D01*
X7136729Y-11667150D02*
X7155777Y-11676674D01*
X7155777Y-11676674D02*
X7165301Y-11695722D01*
X7165301Y-11695722D02*
X7165301Y-11800484D01*
X7165301Y-11695722D02*
X7174824Y-11676674D01*
X7174824Y-11676674D02*
X7193872Y-11667150D01*
X7193872Y-11667150D02*
X7222443Y-11667150D01*
X7222443Y-11667150D02*
X7241491Y-11676674D01*
X7241491Y-11676674D02*
X7251015Y-11695722D01*
X7251015Y-11695722D02*
X7251015Y-11800484D01*
X7641491Y-11590960D02*
X7470063Y-11848103D01*
X7898634Y-11600484D02*
X7917682Y-11600484D01*
X7917682Y-11600484D02*
X7936729Y-11610008D01*
X7936729Y-11610008D02*
X7946253Y-11619531D01*
X7946253Y-11619531D02*
X7955777Y-11638579D01*
X7955777Y-11638579D02*
X7965301Y-11676674D01*
X7965301Y-11676674D02*
X7965301Y-11724293D01*
X7965301Y-11724293D02*
X7955777Y-11762388D01*
X7955777Y-11762388D02*
X7946253Y-11781436D01*
X7946253Y-11781436D02*
X7936729Y-11790960D01*
X7936729Y-11790960D02*
X7917682Y-11800484D01*
X7917682Y-11800484D02*
X7898634Y-11800484D01*
X7898634Y-11800484D02*
X7879586Y-11790960D01*
X7879586Y-11790960D02*
X7870063Y-11781436D01*
X7870063Y-11781436D02*
X7860539Y-11762388D01*
X7860539Y-11762388D02*
X7851015Y-11724293D01*
X7851015Y-11724293D02*
X7851015Y-11676674D01*
X7851015Y-11676674D02*
X7860539Y-11638579D01*
X7860539Y-11638579D02*
X7870063Y-11619531D01*
X7870063Y-11619531D02*
X7879586Y-11610008D01*
X7879586Y-11610008D02*
X7898634Y-11600484D01*
X8051015Y-11781436D02*
X8060539Y-11790960D01*
X8060539Y-11790960D02*
X8051015Y-11800484D01*
X8051015Y-11800484D02*
X8041491Y-11790960D01*
X8041491Y-11790960D02*
X8051015Y-11781436D01*
X8051015Y-11781436D02*
X8051015Y-11800484D01*
X8184348Y-11600484D02*
X8203396Y-11600484D01*
X8203396Y-11600484D02*
X8222444Y-11610008D01*
X8222444Y-11610008D02*
X8231967Y-11619531D01*
X8231967Y-11619531D02*
X8241491Y-11638579D01*
X8241491Y-11638579D02*
X8251015Y-11676674D01*
X8251015Y-11676674D02*
X8251015Y-11724293D01*
X8251015Y-11724293D02*
X8241491Y-11762388D01*
X8241491Y-11762388D02*
X8231967Y-11781436D01*
X8231967Y-11781436D02*
X8222444Y-11790960D01*
X8222444Y-11790960D02*
X8203396Y-11800484D01*
X8203396Y-11800484D02*
X8184348Y-11800484D01*
X8184348Y-11800484D02*
X8165301Y-11790960D01*
X8165301Y-11790960D02*
X8155777Y-11781436D01*
X8155777Y-11781436D02*
X8146253Y-11762388D01*
X8146253Y-11762388D02*
X8136729Y-11724293D01*
X8136729Y-11724293D02*
X8136729Y-11676674D01*
X8136729Y-11676674D02*
X8146253Y-11638579D01*
X8146253Y-11638579D02*
X8155777Y-11619531D01*
X8155777Y-11619531D02*
X8165301Y-11610008D01*
X8165301Y-11610008D02*
X8184348Y-11600484D01*
X8441491Y-11800484D02*
X8327206Y-11800484D01*
X8384348Y-11800484D02*
X8384348Y-11600484D01*
X8384348Y-11600484D02*
X8365301Y-11629055D01*
X8365301Y-11629055D02*
X8346253Y-11648103D01*
X8346253Y-11648103D02*
X8327206Y-11657627D01*
X8631968Y-11800484D02*
X8517682Y-11800484D01*
X8574825Y-11800484D02*
X8574825Y-11600484D01*
X8574825Y-11600484D02*
X8555777Y-11629055D01*
X8555777Y-11629055D02*
X8536729Y-11648103D01*
X8536729Y-11648103D02*
X8517682Y-11657627D01*
X8746253Y-11686198D02*
X8727206Y-11676674D01*
X8727206Y-11676674D02*
X8717682Y-11667150D01*
X8717682Y-11667150D02*
X8708158Y-11648103D01*
X8708158Y-11648103D02*
X8708158Y-11638579D01*
X8708158Y-11638579D02*
X8717682Y-11619531D01*
X8717682Y-11619531D02*
X8727206Y-11610008D01*
X8727206Y-11610008D02*
X8746253Y-11600484D01*
X8746253Y-11600484D02*
X8784349Y-11600484D01*
X8784349Y-11600484D02*
X8803396Y-11610008D01*
X8803396Y-11610008D02*
X8812920Y-11619531D01*
X8812920Y-11619531D02*
X8822444Y-11638579D01*
X8822444Y-11638579D02*
X8822444Y-11648103D01*
X8822444Y-11648103D02*
X8812920Y-11667150D01*
X8812920Y-11667150D02*
X8803396Y-11676674D01*
X8803396Y-11676674D02*
X8784349Y-11686198D01*
X8784349Y-11686198D02*
X8746253Y-11686198D01*
X8746253Y-11686198D02*
X8727206Y-11695722D01*
X8727206Y-11695722D02*
X8717682Y-11705246D01*
X8717682Y-11705246D02*
X8708158Y-11724293D01*
X8708158Y-11724293D02*
X8708158Y-11762388D01*
X8708158Y-11762388D02*
X8717682Y-11781436D01*
X8717682Y-11781436D02*
X8727206Y-11790960D01*
X8727206Y-11790960D02*
X8746253Y-11800484D01*
X8746253Y-11800484D02*
X8784349Y-11800484D01*
X8784349Y-11800484D02*
X8803396Y-11790960D01*
X8803396Y-11790960D02*
X8812920Y-11781436D01*
X8812920Y-11781436D02*
X8822444Y-11762388D01*
X8822444Y-11762388D02*
X8822444Y-11724293D01*
X8822444Y-11724293D02*
X8812920Y-11705246D01*
X8812920Y-11705246D02*
X8803396Y-11695722D01*
X8803396Y-11695722D02*
X8784349Y-11686198D01*
X8898634Y-11600484D02*
X8898634Y-11638579D01*
X8974825Y-11600484D02*
X8974825Y-11638579D01*
X9270063Y-11876674D02*
X9260539Y-11867150D01*
X9260539Y-11867150D02*
X9241491Y-11838579D01*
X9241491Y-11838579D02*
X9231968Y-11819531D01*
X9231968Y-11819531D02*
X9222444Y-11790960D01*
X9222444Y-11790960D02*
X9212920Y-11743341D01*
X9212920Y-11743341D02*
X9212920Y-11705246D01*
X9212920Y-11705246D02*
X9222444Y-11657627D01*
X9222444Y-11657627D02*
X9231968Y-11629055D01*
X9231968Y-11629055D02*
X9241491Y-11610008D01*
X9241491Y-11610008D02*
X9260539Y-11581436D01*
X9260539Y-11581436D02*
X9270063Y-11571912D01*
X9451015Y-11800484D02*
X9336730Y-11800484D01*
X9393872Y-11800484D02*
X9393872Y-11600484D01*
X9393872Y-11600484D02*
X9374825Y-11629055D01*
X9374825Y-11629055D02*
X9355777Y-11648103D01*
X9355777Y-11648103D02*
X9336730Y-11657627D01*
X9622444Y-11667150D02*
X9622444Y-11800484D01*
X9574825Y-11590960D02*
X9527206Y-11733817D01*
X9527206Y-11733817D02*
X9651015Y-11733817D01*
X9822444Y-11600484D02*
X9727206Y-11600484D01*
X9727206Y-11600484D02*
X9717682Y-11695722D01*
X9717682Y-11695722D02*
X9727206Y-11686198D01*
X9727206Y-11686198D02*
X9746253Y-11676674D01*
X9746253Y-11676674D02*
X9793872Y-11676674D01*
X9793872Y-11676674D02*
X9812920Y-11686198D01*
X9812920Y-11686198D02*
X9822444Y-11695722D01*
X9822444Y-11695722D02*
X9831968Y-11714769D01*
X9831968Y-11714769D02*
X9831968Y-11762388D01*
X9831968Y-11762388D02*
X9822444Y-11781436D01*
X9822444Y-11781436D02*
X9812920Y-11790960D01*
X9812920Y-11790960D02*
X9793872Y-11800484D01*
X9793872Y-11800484D02*
X9746253Y-11800484D01*
X9746253Y-11800484D02*
X9727206Y-11790960D01*
X9727206Y-11790960D02*
X9717682Y-11781436D01*
X10070063Y-11800484D02*
X10070063Y-11600484D01*
X10155777Y-11800484D02*
X10155777Y-11695722D01*
X10155777Y-11695722D02*
X10146253Y-11676674D01*
X10146253Y-11676674D02*
X10127206Y-11667150D01*
X10127206Y-11667150D02*
X10098634Y-11667150D01*
X10098634Y-11667150D02*
X10079587Y-11676674D01*
X10079587Y-11676674D02*
X10070063Y-11686198D01*
X10279587Y-11800484D02*
X10260539Y-11790960D01*
X10260539Y-11790960D02*
X10251015Y-11781436D01*
X10251015Y-11781436D02*
X10241492Y-11762388D01*
X10241492Y-11762388D02*
X10241492Y-11705246D01*
X10241492Y-11705246D02*
X10251015Y-11686198D01*
X10251015Y-11686198D02*
X10260539Y-11676674D01*
X10260539Y-11676674D02*
X10279587Y-11667150D01*
X10279587Y-11667150D02*
X10308158Y-11667150D01*
X10308158Y-11667150D02*
X10327206Y-11676674D01*
X10327206Y-11676674D02*
X10336730Y-11686198D01*
X10336730Y-11686198D02*
X10346253Y-11705246D01*
X10346253Y-11705246D02*
X10346253Y-11762388D01*
X10346253Y-11762388D02*
X10336730Y-11781436D01*
X10336730Y-11781436D02*
X10327206Y-11790960D01*
X10327206Y-11790960D02*
X10308158Y-11800484D01*
X10308158Y-11800484D02*
X10279587Y-11800484D01*
X10460539Y-11800484D02*
X10441492Y-11790960D01*
X10441492Y-11790960D02*
X10431968Y-11771912D01*
X10431968Y-11771912D02*
X10431968Y-11600484D01*
X10612920Y-11790960D02*
X10593873Y-11800484D01*
X10593873Y-11800484D02*
X10555777Y-11800484D01*
X10555777Y-11800484D02*
X10536730Y-11790960D01*
X10536730Y-11790960D02*
X10527206Y-11771912D01*
X10527206Y-11771912D02*
X10527206Y-11695722D01*
X10527206Y-11695722D02*
X10536730Y-11676674D01*
X10536730Y-11676674D02*
X10555777Y-11667150D01*
X10555777Y-11667150D02*
X10593873Y-11667150D01*
X10593873Y-11667150D02*
X10612920Y-11676674D01*
X10612920Y-11676674D02*
X10622444Y-11695722D01*
X10622444Y-11695722D02*
X10622444Y-11714769D01*
X10622444Y-11714769D02*
X10527206Y-11733817D01*
X10698634Y-11790960D02*
X10717682Y-11800484D01*
X10717682Y-11800484D02*
X10755777Y-11800484D01*
X10755777Y-11800484D02*
X10774825Y-11790960D01*
X10774825Y-11790960D02*
X10784349Y-11771912D01*
X10784349Y-11771912D02*
X10784349Y-11762388D01*
X10784349Y-11762388D02*
X10774825Y-11743341D01*
X10774825Y-11743341D02*
X10755777Y-11733817D01*
X10755777Y-11733817D02*
X10727206Y-11733817D01*
X10727206Y-11733817D02*
X10708158Y-11724293D01*
X10708158Y-11724293D02*
X10698634Y-11705246D01*
X10698634Y-11705246D02*
X10698634Y-11695722D01*
X10698634Y-11695722D02*
X10708158Y-11676674D01*
X10708158Y-11676674D02*
X10727206Y-11667150D01*
X10727206Y-11667150D02*
X10755777Y-11667150D01*
X10755777Y-11667150D02*
X10774825Y-11676674D01*
X10851015Y-11876674D02*
X10860539Y-11867150D01*
X10860539Y-11867150D02*
X10879587Y-11838579D01*
X10879587Y-11838579D02*
X10889111Y-11819531D01*
X10889111Y-11819531D02*
X10898634Y-11790960D01*
X10898634Y-11790960D02*
X10908158Y-11743341D01*
X10908158Y-11743341D02*
X10908158Y-11705246D01*
X10908158Y-11705246D02*
X10898634Y-11657627D01*
X10898634Y-11657627D02*
X10889111Y-11629055D01*
X10889111Y-11629055D02*
X10879587Y-11610008D01*
X10879587Y-11610008D02*
X10860539Y-11581436D01*
X10860539Y-11581436D02*
X10851015Y-11571912D01*
D10*
X5675000Y-11953000D02*
X5675000Y-11993000D01*
X5655000Y-11973000D02*
X5695000Y-11973000D01*
D11*
X5993872Y-11864484D02*
X6012920Y-11864484D01*
X6012920Y-11864484D02*
X6031967Y-11874008D01*
X6031967Y-11874008D02*
X6041491Y-11883531D01*
X6041491Y-11883531D02*
X6051015Y-11902579D01*
X6051015Y-11902579D02*
X6060539Y-11940674D01*
X6060539Y-11940674D02*
X6060539Y-11988293D01*
X6060539Y-11988293D02*
X6051015Y-12026388D01*
X6051015Y-12026388D02*
X6041491Y-12045436D01*
X6041491Y-12045436D02*
X6031967Y-12054960D01*
X6031967Y-12054960D02*
X6012920Y-12064484D01*
X6012920Y-12064484D02*
X5993872Y-12064484D01*
X5993872Y-12064484D02*
X5974824Y-12054960D01*
X5974824Y-12054960D02*
X5965301Y-12045436D01*
X5965301Y-12045436D02*
X5955777Y-12026388D01*
X5955777Y-12026388D02*
X5946253Y-11988293D01*
X5946253Y-11988293D02*
X5946253Y-11940674D01*
X5946253Y-11940674D02*
X5955777Y-11902579D01*
X5955777Y-11902579D02*
X5965301Y-11883531D01*
X5965301Y-11883531D02*
X5974824Y-11874008D01*
X5974824Y-11874008D02*
X5993872Y-11864484D01*
X6146253Y-12045436D02*
X6155777Y-12054960D01*
X6155777Y-12054960D02*
X6146253Y-12064484D01*
X6146253Y-12064484D02*
X6136729Y-12054960D01*
X6136729Y-12054960D02*
X6146253Y-12045436D01*
X6146253Y-12045436D02*
X6146253Y-12064484D01*
X6327205Y-11931150D02*
X6327205Y-12064484D01*
X6279586Y-11854960D02*
X6231967Y-11997817D01*
X6231967Y-11997817D02*
X6355777Y-11997817D01*
X6470062Y-11864484D02*
X6489110Y-11864484D01*
X6489110Y-11864484D02*
X6508158Y-11874008D01*
X6508158Y-11874008D02*
X6517682Y-11883531D01*
X6517682Y-11883531D02*
X6527205Y-11902579D01*
X6527205Y-11902579D02*
X6536729Y-11940674D01*
X6536729Y-11940674D02*
X6536729Y-11988293D01*
X6536729Y-11988293D02*
X6527205Y-12026388D01*
X6527205Y-12026388D02*
X6517682Y-12045436D01*
X6517682Y-12045436D02*
X6508158Y-12054960D01*
X6508158Y-12054960D02*
X6489110Y-12064484D01*
X6489110Y-12064484D02*
X6470062Y-12064484D01*
X6470062Y-12064484D02*
X6451015Y-12054960D01*
X6451015Y-12054960D02*
X6441491Y-12045436D01*
X6441491Y-12045436D02*
X6431967Y-12026388D01*
X6431967Y-12026388D02*
X6422443Y-11988293D01*
X6422443Y-11988293D02*
X6422443Y-11940674D01*
X6422443Y-11940674D02*
X6431967Y-11902579D01*
X6431967Y-11902579D02*
X6441491Y-11883531D01*
X6441491Y-11883531D02*
X6451015Y-11874008D01*
X6451015Y-11874008D02*
X6470062Y-11864484D01*
X6660539Y-11864484D02*
X6679586Y-11864484D01*
X6679586Y-11864484D02*
X6698634Y-11874008D01*
X6698634Y-11874008D02*
X6708158Y-11883531D01*
X6708158Y-11883531D02*
X6717682Y-11902579D01*
X6717682Y-11902579D02*
X6727205Y-11940674D01*
X6727205Y-11940674D02*
X6727205Y-11988293D01*
X6727205Y-11988293D02*
X6717682Y-12026388D01*
X6717682Y-12026388D02*
X6708158Y-12045436D01*
X6708158Y-12045436D02*
X6698634Y-12054960D01*
X6698634Y-12054960D02*
X6679586Y-12064484D01*
X6679586Y-12064484D02*
X6660539Y-12064484D01*
X6660539Y-12064484D02*
X6641491Y-12054960D01*
X6641491Y-12054960D02*
X6631967Y-12045436D01*
X6631967Y-12045436D02*
X6622443Y-12026388D01*
X6622443Y-12026388D02*
X6612920Y-11988293D01*
X6612920Y-11988293D02*
X6612920Y-11940674D01*
X6612920Y-11940674D02*
X6622443Y-11902579D01*
X6622443Y-11902579D02*
X6631967Y-11883531D01*
X6631967Y-11883531D02*
X6641491Y-11874008D01*
X6641491Y-11874008D02*
X6660539Y-11864484D01*
X6812920Y-12064484D02*
X6812920Y-11931150D01*
X6812920Y-11950198D02*
X6822443Y-11940674D01*
X6822443Y-11940674D02*
X6841491Y-11931150D01*
X6841491Y-11931150D02*
X6870063Y-11931150D01*
X6870063Y-11931150D02*
X6889110Y-11940674D01*
X6889110Y-11940674D02*
X6898634Y-11959722D01*
X6898634Y-11959722D02*
X6898634Y-12064484D01*
X6898634Y-11959722D02*
X6908158Y-11940674D01*
X6908158Y-11940674D02*
X6927205Y-11931150D01*
X6927205Y-11931150D02*
X6955777Y-11931150D01*
X6955777Y-11931150D02*
X6974824Y-11940674D01*
X6974824Y-11940674D02*
X6984348Y-11959722D01*
X6984348Y-11959722D02*
X6984348Y-12064484D01*
X7079586Y-12064484D02*
X7079586Y-11931150D01*
X7079586Y-11950198D02*
X7089110Y-11940674D01*
X7089110Y-11940674D02*
X7108158Y-11931150D01*
X7108158Y-11931150D02*
X7136729Y-11931150D01*
X7136729Y-11931150D02*
X7155777Y-11940674D01*
X7155777Y-11940674D02*
X7165301Y-11959722D01*
X7165301Y-11959722D02*
X7165301Y-12064484D01*
X7165301Y-11959722D02*
X7174824Y-11940674D01*
X7174824Y-11940674D02*
X7193872Y-11931150D01*
X7193872Y-11931150D02*
X7222443Y-11931150D01*
X7222443Y-11931150D02*
X7241491Y-11940674D01*
X7241491Y-11940674D02*
X7251015Y-11959722D01*
X7251015Y-11959722D02*
X7251015Y-12064484D01*
X7641491Y-11854960D02*
X7470063Y-12112103D01*
X7898634Y-11864484D02*
X7917682Y-11864484D01*
X7917682Y-11864484D02*
X7936729Y-11874008D01*
X7936729Y-11874008D02*
X7946253Y-11883531D01*
X7946253Y-11883531D02*
X7955777Y-11902579D01*
X7955777Y-11902579D02*
X7965301Y-11940674D01*
X7965301Y-11940674D02*
X7965301Y-11988293D01*
X7965301Y-11988293D02*
X7955777Y-12026388D01*
X7955777Y-12026388D02*
X7946253Y-12045436D01*
X7946253Y-12045436D02*
X7936729Y-12054960D01*
X7936729Y-12054960D02*
X7917682Y-12064484D01*
X7917682Y-12064484D02*
X7898634Y-12064484D01*
X7898634Y-12064484D02*
X7879586Y-12054960D01*
X7879586Y-12054960D02*
X7870063Y-12045436D01*
X7870063Y-12045436D02*
X7860539Y-12026388D01*
X7860539Y-12026388D02*
X7851015Y-11988293D01*
X7851015Y-11988293D02*
X7851015Y-11940674D01*
X7851015Y-11940674D02*
X7860539Y-11902579D01*
X7860539Y-11902579D02*
X7870063Y-11883531D01*
X7870063Y-11883531D02*
X7879586Y-11874008D01*
X7879586Y-11874008D02*
X7898634Y-11864484D01*
X8051015Y-12045436D02*
X8060539Y-12054960D01*
X8060539Y-12054960D02*
X8051015Y-12064484D01*
X8051015Y-12064484D02*
X8041491Y-12054960D01*
X8041491Y-12054960D02*
X8051015Y-12045436D01*
X8051015Y-12045436D02*
X8051015Y-12064484D01*
X8184348Y-11864484D02*
X8203396Y-11864484D01*
X8203396Y-11864484D02*
X8222444Y-11874008D01*
X8222444Y-11874008D02*
X8231967Y-11883531D01*
X8231967Y-11883531D02*
X8241491Y-11902579D01*
X8241491Y-11902579D02*
X8251015Y-11940674D01*
X8251015Y-11940674D02*
X8251015Y-11988293D01*
X8251015Y-11988293D02*
X8241491Y-12026388D01*
X8241491Y-12026388D02*
X8231967Y-12045436D01*
X8231967Y-12045436D02*
X8222444Y-12054960D01*
X8222444Y-12054960D02*
X8203396Y-12064484D01*
X8203396Y-12064484D02*
X8184348Y-12064484D01*
X8184348Y-12064484D02*
X8165301Y-12054960D01*
X8165301Y-12054960D02*
X8155777Y-12045436D01*
X8155777Y-12045436D02*
X8146253Y-12026388D01*
X8146253Y-12026388D02*
X8136729Y-11988293D01*
X8136729Y-11988293D02*
X8136729Y-11940674D01*
X8136729Y-11940674D02*
X8146253Y-11902579D01*
X8146253Y-11902579D02*
X8155777Y-11883531D01*
X8155777Y-11883531D02*
X8165301Y-11874008D01*
X8165301Y-11874008D02*
X8184348Y-11864484D01*
X8441491Y-12064484D02*
X8327206Y-12064484D01*
X8384348Y-12064484D02*
X8384348Y-11864484D01*
X8384348Y-11864484D02*
X8365301Y-11893055D01*
X8365301Y-11893055D02*
X8346253Y-11912103D01*
X8346253Y-11912103D02*
X8327206Y-11921627D01*
X8622444Y-11864484D02*
X8527206Y-11864484D01*
X8527206Y-11864484D02*
X8517682Y-11959722D01*
X8517682Y-11959722D02*
X8527206Y-11950198D01*
X8527206Y-11950198D02*
X8546253Y-11940674D01*
X8546253Y-11940674D02*
X8593872Y-11940674D01*
X8593872Y-11940674D02*
X8612920Y-11950198D01*
X8612920Y-11950198D02*
X8622444Y-11959722D01*
X8622444Y-11959722D02*
X8631968Y-11978769D01*
X8631968Y-11978769D02*
X8631968Y-12026388D01*
X8631968Y-12026388D02*
X8622444Y-12045436D01*
X8622444Y-12045436D02*
X8612920Y-12054960D01*
X8612920Y-12054960D02*
X8593872Y-12064484D01*
X8593872Y-12064484D02*
X8546253Y-12064484D01*
X8546253Y-12064484D02*
X8527206Y-12054960D01*
X8527206Y-12054960D02*
X8517682Y-12045436D01*
X8698634Y-11864484D02*
X8831968Y-11864484D01*
X8831968Y-11864484D02*
X8746253Y-12064484D01*
X8898634Y-11864484D02*
X8898634Y-11902579D01*
X8974825Y-11864484D02*
X8974825Y-11902579D01*
X9270063Y-12140674D02*
X9260539Y-12131150D01*
X9260539Y-12131150D02*
X9241491Y-12102579D01*
X9241491Y-12102579D02*
X9231968Y-12083531D01*
X9231968Y-12083531D02*
X9222444Y-12054960D01*
X9222444Y-12054960D02*
X9212920Y-12007341D01*
X9212920Y-12007341D02*
X9212920Y-11969246D01*
X9212920Y-11969246D02*
X9222444Y-11921627D01*
X9222444Y-11921627D02*
X9231968Y-11893055D01*
X9231968Y-11893055D02*
X9241491Y-11874008D01*
X9241491Y-11874008D02*
X9260539Y-11845436D01*
X9260539Y-11845436D02*
X9270063Y-11835912D01*
X9374825Y-11950198D02*
X9355777Y-11940674D01*
X9355777Y-11940674D02*
X9346253Y-11931150D01*
X9346253Y-11931150D02*
X9336730Y-11912103D01*
X9336730Y-11912103D02*
X9336730Y-11902579D01*
X9336730Y-11902579D02*
X9346253Y-11883531D01*
X9346253Y-11883531D02*
X9355777Y-11874008D01*
X9355777Y-11874008D02*
X9374825Y-11864484D01*
X9374825Y-11864484D02*
X9412920Y-11864484D01*
X9412920Y-11864484D02*
X9431968Y-11874008D01*
X9431968Y-11874008D02*
X9441491Y-11883531D01*
X9441491Y-11883531D02*
X9451015Y-11902579D01*
X9451015Y-11902579D02*
X9451015Y-11912103D01*
X9451015Y-11912103D02*
X9441491Y-11931150D01*
X9441491Y-11931150D02*
X9431968Y-11940674D01*
X9431968Y-11940674D02*
X9412920Y-11950198D01*
X9412920Y-11950198D02*
X9374825Y-11950198D01*
X9374825Y-11950198D02*
X9355777Y-11959722D01*
X9355777Y-11959722D02*
X9346253Y-11969246D01*
X9346253Y-11969246D02*
X9336730Y-11988293D01*
X9336730Y-11988293D02*
X9336730Y-12026388D01*
X9336730Y-12026388D02*
X9346253Y-12045436D01*
X9346253Y-12045436D02*
X9355777Y-12054960D01*
X9355777Y-12054960D02*
X9374825Y-12064484D01*
X9374825Y-12064484D02*
X9412920Y-12064484D01*
X9412920Y-12064484D02*
X9431968Y-12054960D01*
X9431968Y-12054960D02*
X9441491Y-12045436D01*
X9441491Y-12045436D02*
X9451015Y-12026388D01*
X9451015Y-12026388D02*
X9451015Y-11988293D01*
X9451015Y-11988293D02*
X9441491Y-11969246D01*
X9441491Y-11969246D02*
X9431968Y-11959722D01*
X9431968Y-11959722D02*
X9412920Y-11950198D01*
X9689111Y-12064484D02*
X9689111Y-11864484D01*
X9774825Y-12064484D02*
X9774825Y-11959722D01*
X9774825Y-11959722D02*
X9765301Y-11940674D01*
X9765301Y-11940674D02*
X9746253Y-11931150D01*
X9746253Y-11931150D02*
X9717682Y-11931150D01*
X9717682Y-11931150D02*
X9698634Y-11940674D01*
X9698634Y-11940674D02*
X9689111Y-11950198D01*
X9898634Y-12064484D02*
X9879587Y-12054960D01*
X9879587Y-12054960D02*
X9870063Y-12045436D01*
X9870063Y-12045436D02*
X9860539Y-12026388D01*
X9860539Y-12026388D02*
X9860539Y-11969246D01*
X9860539Y-11969246D02*
X9870063Y-11950198D01*
X9870063Y-11950198D02*
X9879587Y-11940674D01*
X9879587Y-11940674D02*
X9898634Y-11931150D01*
X9898634Y-11931150D02*
X9927206Y-11931150D01*
X9927206Y-11931150D02*
X9946253Y-11940674D01*
X9946253Y-11940674D02*
X9955777Y-11950198D01*
X9955777Y-11950198D02*
X9965301Y-11969246D01*
X9965301Y-11969246D02*
X9965301Y-12026388D01*
X9965301Y-12026388D02*
X9955777Y-12045436D01*
X9955777Y-12045436D02*
X9946253Y-12054960D01*
X9946253Y-12054960D02*
X9927206Y-12064484D01*
X9927206Y-12064484D02*
X9898634Y-12064484D01*
X10079587Y-12064484D02*
X10060539Y-12054960D01*
X10060539Y-12054960D02*
X10051015Y-12035912D01*
X10051015Y-12035912D02*
X10051015Y-11864484D01*
X10231968Y-12054960D02*
X10212920Y-12064484D01*
X10212920Y-12064484D02*
X10174825Y-12064484D01*
X10174825Y-12064484D02*
X10155777Y-12054960D01*
X10155777Y-12054960D02*
X10146253Y-12035912D01*
X10146253Y-12035912D02*
X10146253Y-11959722D01*
X10146253Y-11959722D02*
X10155777Y-11940674D01*
X10155777Y-11940674D02*
X10174825Y-11931150D01*
X10174825Y-11931150D02*
X10212920Y-11931150D01*
X10212920Y-11931150D02*
X10231968Y-11940674D01*
X10231968Y-11940674D02*
X10241492Y-11959722D01*
X10241492Y-11959722D02*
X10241492Y-11978769D01*
X10241492Y-11978769D02*
X10146253Y-11997817D01*
X10317682Y-12054960D02*
X10336730Y-12064484D01*
X10336730Y-12064484D02*
X10374825Y-12064484D01*
X10374825Y-12064484D02*
X10393873Y-12054960D01*
X10393873Y-12054960D02*
X10403396Y-12035912D01*
X10403396Y-12035912D02*
X10403396Y-12026388D01*
X10403396Y-12026388D02*
X10393873Y-12007341D01*
X10393873Y-12007341D02*
X10374825Y-11997817D01*
X10374825Y-11997817D02*
X10346253Y-11997817D01*
X10346253Y-11997817D02*
X10327206Y-11988293D01*
X10327206Y-11988293D02*
X10317682Y-11969246D01*
X10317682Y-11969246D02*
X10317682Y-11959722D01*
X10317682Y-11959722D02*
X10327206Y-11940674D01*
X10327206Y-11940674D02*
X10346253Y-11931150D01*
X10346253Y-11931150D02*
X10374825Y-11931150D01*
X10374825Y-11931150D02*
X10393873Y-11940674D01*
X10470063Y-12140674D02*
X10479587Y-12131150D01*
X10479587Y-12131150D02*
X10498634Y-12102579D01*
X10498634Y-12102579D02*
X10508158Y-12083531D01*
X10508158Y-12083531D02*
X10517682Y-12054960D01*
X10517682Y-12054960D02*
X10527206Y-12007341D01*
X10527206Y-12007341D02*
X10527206Y-11969246D01*
X10527206Y-11969246D02*
X10517682Y-11921627D01*
X10517682Y-11921627D02*
X10508158Y-11893055D01*
X10508158Y-11893055D02*
X10498634Y-11874008D01*
X10498634Y-11874008D02*
X10479587Y-11845436D01*
X10479587Y-11845436D02*
X10470063Y-11835912D01*
D10*
X5688264Y-12253264D02*
X5688264Y-12220736D01*
X5655736Y-12220736D01*
X5655736Y-12253264D01*
X5688264Y-12253264D01*
D11*
X5993872Y-12128484D02*
X6012920Y-12128484D01*
X6012920Y-12128484D02*
X6031967Y-12138008D01*
X6031967Y-12138008D02*
X6041491Y-12147531D01*
X6041491Y-12147531D02*
X6051015Y-12166579D01*
X6051015Y-12166579D02*
X6060539Y-12204674D01*
X6060539Y-12204674D02*
X6060539Y-12252293D01*
X6060539Y-12252293D02*
X6051015Y-12290388D01*
X6051015Y-12290388D02*
X6041491Y-12309436D01*
X6041491Y-12309436D02*
X6031967Y-12318960D01*
X6031967Y-12318960D02*
X6012920Y-12328484D01*
X6012920Y-12328484D02*
X5993872Y-12328484D01*
X5993872Y-12328484D02*
X5974824Y-12318960D01*
X5974824Y-12318960D02*
X5965301Y-12309436D01*
X5965301Y-12309436D02*
X5955777Y-12290388D01*
X5955777Y-12290388D02*
X5946253Y-12252293D01*
X5946253Y-12252293D02*
X5946253Y-12204674D01*
X5946253Y-12204674D02*
X5955777Y-12166579D01*
X5955777Y-12166579D02*
X5965301Y-12147531D01*
X5965301Y-12147531D02*
X5974824Y-12138008D01*
X5974824Y-12138008D02*
X5993872Y-12128484D01*
X6146253Y-12309436D02*
X6155777Y-12318960D01*
X6155777Y-12318960D02*
X6146253Y-12328484D01*
X6146253Y-12328484D02*
X6136729Y-12318960D01*
X6136729Y-12318960D02*
X6146253Y-12309436D01*
X6146253Y-12309436D02*
X6146253Y-12328484D01*
X6327205Y-12195150D02*
X6327205Y-12328484D01*
X6279586Y-12118960D02*
X6231967Y-12261817D01*
X6231967Y-12261817D02*
X6355777Y-12261817D01*
X6517682Y-12128484D02*
X6479586Y-12128484D01*
X6479586Y-12128484D02*
X6460539Y-12138008D01*
X6460539Y-12138008D02*
X6451015Y-12147531D01*
X6451015Y-12147531D02*
X6431967Y-12176103D01*
X6431967Y-12176103D02*
X6422443Y-12214198D01*
X6422443Y-12214198D02*
X6422443Y-12290388D01*
X6422443Y-12290388D02*
X6431967Y-12309436D01*
X6431967Y-12309436D02*
X6441491Y-12318960D01*
X6441491Y-12318960D02*
X6460539Y-12328484D01*
X6460539Y-12328484D02*
X6498634Y-12328484D01*
X6498634Y-12328484D02*
X6517682Y-12318960D01*
X6517682Y-12318960D02*
X6527205Y-12309436D01*
X6527205Y-12309436D02*
X6536729Y-12290388D01*
X6536729Y-12290388D02*
X6536729Y-12242769D01*
X6536729Y-12242769D02*
X6527205Y-12223722D01*
X6527205Y-12223722D02*
X6517682Y-12214198D01*
X6517682Y-12214198D02*
X6498634Y-12204674D01*
X6498634Y-12204674D02*
X6460539Y-12204674D01*
X6460539Y-12204674D02*
X6441491Y-12214198D01*
X6441491Y-12214198D02*
X6431967Y-12223722D01*
X6431967Y-12223722D02*
X6422443Y-12242769D01*
X6660539Y-12128484D02*
X6679586Y-12128484D01*
X6679586Y-12128484D02*
X6698634Y-12138008D01*
X6698634Y-12138008D02*
X6708158Y-12147531D01*
X6708158Y-12147531D02*
X6717682Y-12166579D01*
X6717682Y-12166579D02*
X6727205Y-12204674D01*
X6727205Y-12204674D02*
X6727205Y-12252293D01*
X6727205Y-12252293D02*
X6717682Y-12290388D01*
X6717682Y-12290388D02*
X6708158Y-12309436D01*
X6708158Y-12309436D02*
X6698634Y-12318960D01*
X6698634Y-12318960D02*
X6679586Y-12328484D01*
X6679586Y-12328484D02*
X6660539Y-12328484D01*
X6660539Y-12328484D02*
X6641491Y-12318960D01*
X6641491Y-12318960D02*
X6631967Y-12309436D01*
X6631967Y-12309436D02*
X6622443Y-12290388D01*
X6622443Y-12290388D02*
X6612920Y-12252293D01*
X6612920Y-12252293D02*
X6612920Y-12204674D01*
X6612920Y-12204674D02*
X6622443Y-12166579D01*
X6622443Y-12166579D02*
X6631967Y-12147531D01*
X6631967Y-12147531D02*
X6641491Y-12138008D01*
X6641491Y-12138008D02*
X6660539Y-12128484D01*
X6812920Y-12328484D02*
X6812920Y-12195150D01*
X6812920Y-12214198D02*
X6822443Y-12204674D01*
X6822443Y-12204674D02*
X6841491Y-12195150D01*
X6841491Y-12195150D02*
X6870063Y-12195150D01*
X6870063Y-12195150D02*
X6889110Y-12204674D01*
X6889110Y-12204674D02*
X6898634Y-12223722D01*
X6898634Y-12223722D02*
X6898634Y-12328484D01*
X6898634Y-12223722D02*
X6908158Y-12204674D01*
X6908158Y-12204674D02*
X6927205Y-12195150D01*
X6927205Y-12195150D02*
X6955777Y-12195150D01*
X6955777Y-12195150D02*
X6974824Y-12204674D01*
X6974824Y-12204674D02*
X6984348Y-12223722D01*
X6984348Y-12223722D02*
X6984348Y-12328484D01*
X7079586Y-12328484D02*
X7079586Y-12195150D01*
X7079586Y-12214198D02*
X7089110Y-12204674D01*
X7089110Y-12204674D02*
X7108158Y-12195150D01*
X7108158Y-12195150D02*
X7136729Y-12195150D01*
X7136729Y-12195150D02*
X7155777Y-12204674D01*
X7155777Y-12204674D02*
X7165301Y-12223722D01*
X7165301Y-12223722D02*
X7165301Y-12328484D01*
X7165301Y-12223722D02*
X7174824Y-12204674D01*
X7174824Y-12204674D02*
X7193872Y-12195150D01*
X7193872Y-12195150D02*
X7222443Y-12195150D01*
X7222443Y-12195150D02*
X7241491Y-12204674D01*
X7241491Y-12204674D02*
X7251015Y-12223722D01*
X7251015Y-12223722D02*
X7251015Y-12328484D01*
X7641491Y-12118960D02*
X7470063Y-12376103D01*
X7898634Y-12128484D02*
X7917682Y-12128484D01*
X7917682Y-12128484D02*
X7936729Y-12138008D01*
X7936729Y-12138008D02*
X7946253Y-12147531D01*
X7946253Y-12147531D02*
X7955777Y-12166579D01*
X7955777Y-12166579D02*
X7965301Y-12204674D01*
X7965301Y-12204674D02*
X7965301Y-12252293D01*
X7965301Y-12252293D02*
X7955777Y-12290388D01*
X7955777Y-12290388D02*
X7946253Y-12309436D01*
X7946253Y-12309436D02*
X7936729Y-12318960D01*
X7936729Y-12318960D02*
X7917682Y-12328484D01*
X7917682Y-12328484D02*
X7898634Y-12328484D01*
X7898634Y-12328484D02*
X7879586Y-12318960D01*
X7879586Y-12318960D02*
X7870063Y-12309436D01*
X7870063Y-12309436D02*
X7860539Y-12290388D01*
X7860539Y-12290388D02*
X7851015Y-12252293D01*
X7851015Y-12252293D02*
X7851015Y-12204674D01*
X7851015Y-12204674D02*
X7860539Y-12166579D01*
X7860539Y-12166579D02*
X7870063Y-12147531D01*
X7870063Y-12147531D02*
X7879586Y-12138008D01*
X7879586Y-12138008D02*
X7898634Y-12128484D01*
X8051015Y-12309436D02*
X8060539Y-12318960D01*
X8060539Y-12318960D02*
X8051015Y-12328484D01*
X8051015Y-12328484D02*
X8041491Y-12318960D01*
X8041491Y-12318960D02*
X8051015Y-12309436D01*
X8051015Y-12309436D02*
X8051015Y-12328484D01*
X8184348Y-12128484D02*
X8203396Y-12128484D01*
X8203396Y-12128484D02*
X8222444Y-12138008D01*
X8222444Y-12138008D02*
X8231967Y-12147531D01*
X8231967Y-12147531D02*
X8241491Y-12166579D01*
X8241491Y-12166579D02*
X8251015Y-12204674D01*
X8251015Y-12204674D02*
X8251015Y-12252293D01*
X8251015Y-12252293D02*
X8241491Y-12290388D01*
X8241491Y-12290388D02*
X8231967Y-12309436D01*
X8231967Y-12309436D02*
X8222444Y-12318960D01*
X8222444Y-12318960D02*
X8203396Y-12328484D01*
X8203396Y-12328484D02*
X8184348Y-12328484D01*
X8184348Y-12328484D02*
X8165301Y-12318960D01*
X8165301Y-12318960D02*
X8155777Y-12309436D01*
X8155777Y-12309436D02*
X8146253Y-12290388D01*
X8146253Y-12290388D02*
X8136729Y-12252293D01*
X8136729Y-12252293D02*
X8136729Y-12204674D01*
X8136729Y-12204674D02*
X8146253Y-12166579D01*
X8146253Y-12166579D02*
X8155777Y-12147531D01*
X8155777Y-12147531D02*
X8165301Y-12138008D01*
X8165301Y-12138008D02*
X8184348Y-12128484D01*
X8441491Y-12328484D02*
X8327206Y-12328484D01*
X8384348Y-12328484D02*
X8384348Y-12128484D01*
X8384348Y-12128484D02*
X8365301Y-12157055D01*
X8365301Y-12157055D02*
X8346253Y-12176103D01*
X8346253Y-12176103D02*
X8327206Y-12185627D01*
X8555777Y-12214198D02*
X8536729Y-12204674D01*
X8536729Y-12204674D02*
X8527206Y-12195150D01*
X8527206Y-12195150D02*
X8517682Y-12176103D01*
X8517682Y-12176103D02*
X8517682Y-12166579D01*
X8517682Y-12166579D02*
X8527206Y-12147531D01*
X8527206Y-12147531D02*
X8536729Y-12138008D01*
X8536729Y-12138008D02*
X8555777Y-12128484D01*
X8555777Y-12128484D02*
X8593872Y-12128484D01*
X8593872Y-12128484D02*
X8612920Y-12138008D01*
X8612920Y-12138008D02*
X8622444Y-12147531D01*
X8622444Y-12147531D02*
X8631968Y-12166579D01*
X8631968Y-12166579D02*
X8631968Y-12176103D01*
X8631968Y-12176103D02*
X8622444Y-12195150D01*
X8622444Y-12195150D02*
X8612920Y-12204674D01*
X8612920Y-12204674D02*
X8593872Y-12214198D01*
X8593872Y-12214198D02*
X8555777Y-12214198D01*
X8555777Y-12214198D02*
X8536729Y-12223722D01*
X8536729Y-12223722D02*
X8527206Y-12233246D01*
X8527206Y-12233246D02*
X8517682Y-12252293D01*
X8517682Y-12252293D02*
X8517682Y-12290388D01*
X8517682Y-12290388D02*
X8527206Y-12309436D01*
X8527206Y-12309436D02*
X8536729Y-12318960D01*
X8536729Y-12318960D02*
X8555777Y-12328484D01*
X8555777Y-12328484D02*
X8593872Y-12328484D01*
X8593872Y-12328484D02*
X8612920Y-12318960D01*
X8612920Y-12318960D02*
X8622444Y-12309436D01*
X8622444Y-12309436D02*
X8631968Y-12290388D01*
X8631968Y-12290388D02*
X8631968Y-12252293D01*
X8631968Y-12252293D02*
X8622444Y-12233246D01*
X8622444Y-12233246D02*
X8612920Y-12223722D01*
X8612920Y-12223722D02*
X8593872Y-12214198D01*
X8822444Y-12328484D02*
X8708158Y-12328484D01*
X8765301Y-12328484D02*
X8765301Y-12128484D01*
X8765301Y-12128484D02*
X8746253Y-12157055D01*
X8746253Y-12157055D02*
X8727206Y-12176103D01*
X8727206Y-12176103D02*
X8708158Y-12185627D01*
X8898634Y-12128484D02*
X8898634Y-12166579D01*
X8974825Y-12128484D02*
X8974825Y-12166579D01*
X9270063Y-12404674D02*
X9260539Y-12395150D01*
X9260539Y-12395150D02*
X9241491Y-12366579D01*
X9241491Y-12366579D02*
X9231968Y-12347531D01*
X9231968Y-12347531D02*
X9222444Y-12318960D01*
X9222444Y-12318960D02*
X9212920Y-12271341D01*
X9212920Y-12271341D02*
X9212920Y-12233246D01*
X9212920Y-12233246D02*
X9222444Y-12185627D01*
X9222444Y-12185627D02*
X9231968Y-12157055D01*
X9231968Y-12157055D02*
X9241491Y-12138008D01*
X9241491Y-12138008D02*
X9260539Y-12109436D01*
X9260539Y-12109436D02*
X9270063Y-12099912D01*
X9336730Y-12147531D02*
X9346253Y-12138008D01*
X9346253Y-12138008D02*
X9365301Y-12128484D01*
X9365301Y-12128484D02*
X9412920Y-12128484D01*
X9412920Y-12128484D02*
X9431968Y-12138008D01*
X9431968Y-12138008D02*
X9441491Y-12147531D01*
X9441491Y-12147531D02*
X9451015Y-12166579D01*
X9451015Y-12166579D02*
X9451015Y-12185627D01*
X9451015Y-12185627D02*
X9441491Y-12214198D01*
X9441491Y-12214198D02*
X9327206Y-12328484D01*
X9327206Y-12328484D02*
X9451015Y-12328484D01*
X9689111Y-12328484D02*
X9689111Y-12128484D01*
X9774825Y-12328484D02*
X9774825Y-12223722D01*
X9774825Y-12223722D02*
X9765301Y-12204674D01*
X9765301Y-12204674D02*
X9746253Y-12195150D01*
X9746253Y-12195150D02*
X9717682Y-12195150D01*
X9717682Y-12195150D02*
X9698634Y-12204674D01*
X9698634Y-12204674D02*
X9689111Y-12214198D01*
X9898634Y-12328484D02*
X9879587Y-12318960D01*
X9879587Y-12318960D02*
X9870063Y-12309436D01*
X9870063Y-12309436D02*
X9860539Y-12290388D01*
X9860539Y-12290388D02*
X9860539Y-12233246D01*
X9860539Y-12233246D02*
X9870063Y-12214198D01*
X9870063Y-12214198D02*
X9879587Y-12204674D01*
X9879587Y-12204674D02*
X9898634Y-12195150D01*
X9898634Y-12195150D02*
X9927206Y-12195150D01*
X9927206Y-12195150D02*
X9946253Y-12204674D01*
X9946253Y-12204674D02*
X9955777Y-12214198D01*
X9955777Y-12214198D02*
X9965301Y-12233246D01*
X9965301Y-12233246D02*
X9965301Y-12290388D01*
X9965301Y-12290388D02*
X9955777Y-12309436D01*
X9955777Y-12309436D02*
X9946253Y-12318960D01*
X9946253Y-12318960D02*
X9927206Y-12328484D01*
X9927206Y-12328484D02*
X9898634Y-12328484D01*
X10079587Y-12328484D02*
X10060539Y-12318960D01*
X10060539Y-12318960D02*
X10051015Y-12299912D01*
X10051015Y-12299912D02*
X10051015Y-12128484D01*
X10231968Y-12318960D02*
X10212920Y-12328484D01*
X10212920Y-12328484D02*
X10174825Y-12328484D01*
X10174825Y-12328484D02*
X10155777Y-12318960D01*
X10155777Y-12318960D02*
X10146253Y-12299912D01*
X10146253Y-12299912D02*
X10146253Y-12223722D01*
X10146253Y-12223722D02*
X10155777Y-12204674D01*
X10155777Y-12204674D02*
X10174825Y-12195150D01*
X10174825Y-12195150D02*
X10212920Y-12195150D01*
X10212920Y-12195150D02*
X10231968Y-12204674D01*
X10231968Y-12204674D02*
X10241492Y-12223722D01*
X10241492Y-12223722D02*
X10241492Y-12242769D01*
X10241492Y-12242769D02*
X10146253Y-12261817D01*
X10317682Y-12318960D02*
X10336730Y-12328484D01*
X10336730Y-12328484D02*
X10374825Y-12328484D01*
X10374825Y-12328484D02*
X10393873Y-12318960D01*
X10393873Y-12318960D02*
X10403396Y-12299912D01*
X10403396Y-12299912D02*
X10403396Y-12290388D01*
X10403396Y-12290388D02*
X10393873Y-12271341D01*
X10393873Y-12271341D02*
X10374825Y-12261817D01*
X10374825Y-12261817D02*
X10346253Y-12261817D01*
X10346253Y-12261817D02*
X10327206Y-12252293D01*
X10327206Y-12252293D02*
X10317682Y-12233246D01*
X10317682Y-12233246D02*
X10317682Y-12223722D01*
X10317682Y-12223722D02*
X10327206Y-12204674D01*
X10327206Y-12204674D02*
X10346253Y-12195150D01*
X10346253Y-12195150D02*
X10374825Y-12195150D01*
X10374825Y-12195150D02*
X10393873Y-12204674D01*
X10470063Y-12404674D02*
X10479587Y-12395150D01*
X10479587Y-12395150D02*
X10498634Y-12366579D01*
X10498634Y-12366579D02*
X10508158Y-12347531D01*
X10508158Y-12347531D02*
X10517682Y-12318960D01*
X10517682Y-12318960D02*
X10527206Y-12271341D01*
X10527206Y-12271341D02*
X10527206Y-12233246D01*
X10527206Y-12233246D02*
X10517682Y-12185627D01*
X10517682Y-12185627D02*
X10508158Y-12157055D01*
X10508158Y-12157055D02*
X10498634Y-12138008D01*
X10498634Y-12138008D02*
X10479587Y-12109436D01*
X10479587Y-12109436D02*
X10470063Y-12099912D01*
D10*
X5665000Y-12531000D02*
X5695000Y-12501000D01*
X5665000Y-12471000D01*
X5635000Y-12501000D01*
X5665000Y-12531000D01*
D11*
X5993872Y-12392484D02*
X6012920Y-12392484D01*
X6012920Y-12392484D02*
X6031967Y-12402008D01*
X6031967Y-12402008D02*
X6041491Y-12411531D01*
X6041491Y-12411531D02*
X6051015Y-12430579D01*
X6051015Y-12430579D02*
X6060539Y-12468674D01*
X6060539Y-12468674D02*
X6060539Y-12516293D01*
X6060539Y-12516293D02*
X6051015Y-12554388D01*
X6051015Y-12554388D02*
X6041491Y-12573436D01*
X6041491Y-12573436D02*
X6031967Y-12582960D01*
X6031967Y-12582960D02*
X6012920Y-12592484D01*
X6012920Y-12592484D02*
X5993872Y-12592484D01*
X5993872Y-12592484D02*
X5974824Y-12582960D01*
X5974824Y-12582960D02*
X5965301Y-12573436D01*
X5965301Y-12573436D02*
X5955777Y-12554388D01*
X5955777Y-12554388D02*
X5946253Y-12516293D01*
X5946253Y-12516293D02*
X5946253Y-12468674D01*
X5946253Y-12468674D02*
X5955777Y-12430579D01*
X5955777Y-12430579D02*
X5965301Y-12411531D01*
X5965301Y-12411531D02*
X5974824Y-12402008D01*
X5974824Y-12402008D02*
X5993872Y-12392484D01*
X6146253Y-12573436D02*
X6155777Y-12582960D01*
X6155777Y-12582960D02*
X6146253Y-12592484D01*
X6146253Y-12592484D02*
X6136729Y-12582960D01*
X6136729Y-12582960D02*
X6146253Y-12573436D01*
X6146253Y-12573436D02*
X6146253Y-12592484D01*
X6327205Y-12392484D02*
X6289110Y-12392484D01*
X6289110Y-12392484D02*
X6270062Y-12402008D01*
X6270062Y-12402008D02*
X6260539Y-12411531D01*
X6260539Y-12411531D02*
X6241491Y-12440103D01*
X6241491Y-12440103D02*
X6231967Y-12478198D01*
X6231967Y-12478198D02*
X6231967Y-12554388D01*
X6231967Y-12554388D02*
X6241491Y-12573436D01*
X6241491Y-12573436D02*
X6251015Y-12582960D01*
X6251015Y-12582960D02*
X6270062Y-12592484D01*
X6270062Y-12592484D02*
X6308158Y-12592484D01*
X6308158Y-12592484D02*
X6327205Y-12582960D01*
X6327205Y-12582960D02*
X6336729Y-12573436D01*
X6336729Y-12573436D02*
X6346253Y-12554388D01*
X6346253Y-12554388D02*
X6346253Y-12506769D01*
X6346253Y-12506769D02*
X6336729Y-12487722D01*
X6336729Y-12487722D02*
X6327205Y-12478198D01*
X6327205Y-12478198D02*
X6308158Y-12468674D01*
X6308158Y-12468674D02*
X6270062Y-12468674D01*
X6270062Y-12468674D02*
X6251015Y-12478198D01*
X6251015Y-12478198D02*
X6241491Y-12487722D01*
X6241491Y-12487722D02*
X6231967Y-12506769D01*
X6470062Y-12392484D02*
X6489110Y-12392484D01*
X6489110Y-12392484D02*
X6508158Y-12402008D01*
X6508158Y-12402008D02*
X6517682Y-12411531D01*
X6517682Y-12411531D02*
X6527205Y-12430579D01*
X6527205Y-12430579D02*
X6536729Y-12468674D01*
X6536729Y-12468674D02*
X6536729Y-12516293D01*
X6536729Y-12516293D02*
X6527205Y-12554388D01*
X6527205Y-12554388D02*
X6517682Y-12573436D01*
X6517682Y-12573436D02*
X6508158Y-12582960D01*
X6508158Y-12582960D02*
X6489110Y-12592484D01*
X6489110Y-12592484D02*
X6470062Y-12592484D01*
X6470062Y-12592484D02*
X6451015Y-12582960D01*
X6451015Y-12582960D02*
X6441491Y-12573436D01*
X6441491Y-12573436D02*
X6431967Y-12554388D01*
X6431967Y-12554388D02*
X6422443Y-12516293D01*
X6422443Y-12516293D02*
X6422443Y-12468674D01*
X6422443Y-12468674D02*
X6431967Y-12430579D01*
X6431967Y-12430579D02*
X6441491Y-12411531D01*
X6441491Y-12411531D02*
X6451015Y-12402008D01*
X6451015Y-12402008D02*
X6470062Y-12392484D01*
X6660539Y-12392484D02*
X6679586Y-12392484D01*
X6679586Y-12392484D02*
X6698634Y-12402008D01*
X6698634Y-12402008D02*
X6708158Y-12411531D01*
X6708158Y-12411531D02*
X6717682Y-12430579D01*
X6717682Y-12430579D02*
X6727205Y-12468674D01*
X6727205Y-12468674D02*
X6727205Y-12516293D01*
X6727205Y-12516293D02*
X6717682Y-12554388D01*
X6717682Y-12554388D02*
X6708158Y-12573436D01*
X6708158Y-12573436D02*
X6698634Y-12582960D01*
X6698634Y-12582960D02*
X6679586Y-12592484D01*
X6679586Y-12592484D02*
X6660539Y-12592484D01*
X6660539Y-12592484D02*
X6641491Y-12582960D01*
X6641491Y-12582960D02*
X6631967Y-12573436D01*
X6631967Y-12573436D02*
X6622443Y-12554388D01*
X6622443Y-12554388D02*
X6612920Y-12516293D01*
X6612920Y-12516293D02*
X6612920Y-12468674D01*
X6612920Y-12468674D02*
X6622443Y-12430579D01*
X6622443Y-12430579D02*
X6631967Y-12411531D01*
X6631967Y-12411531D02*
X6641491Y-12402008D01*
X6641491Y-12402008D02*
X6660539Y-12392484D01*
X6812920Y-12592484D02*
X6812920Y-12459150D01*
X6812920Y-12478198D02*
X6822443Y-12468674D01*
X6822443Y-12468674D02*
X6841491Y-12459150D01*
X6841491Y-12459150D02*
X6870063Y-12459150D01*
X6870063Y-12459150D02*
X6889110Y-12468674D01*
X6889110Y-12468674D02*
X6898634Y-12487722D01*
X6898634Y-12487722D02*
X6898634Y-12592484D01*
X6898634Y-12487722D02*
X6908158Y-12468674D01*
X6908158Y-12468674D02*
X6927205Y-12459150D01*
X6927205Y-12459150D02*
X6955777Y-12459150D01*
X6955777Y-12459150D02*
X6974824Y-12468674D01*
X6974824Y-12468674D02*
X6984348Y-12487722D01*
X6984348Y-12487722D02*
X6984348Y-12592484D01*
X7079586Y-12592484D02*
X7079586Y-12459150D01*
X7079586Y-12478198D02*
X7089110Y-12468674D01*
X7089110Y-12468674D02*
X7108158Y-12459150D01*
X7108158Y-12459150D02*
X7136729Y-12459150D01*
X7136729Y-12459150D02*
X7155777Y-12468674D01*
X7155777Y-12468674D02*
X7165301Y-12487722D01*
X7165301Y-12487722D02*
X7165301Y-12592484D01*
X7165301Y-12487722D02*
X7174824Y-12468674D01*
X7174824Y-12468674D02*
X7193872Y-12459150D01*
X7193872Y-12459150D02*
X7222443Y-12459150D01*
X7222443Y-12459150D02*
X7241491Y-12468674D01*
X7241491Y-12468674D02*
X7251015Y-12487722D01*
X7251015Y-12487722D02*
X7251015Y-12592484D01*
X7641491Y-12382960D02*
X7470063Y-12640103D01*
X7898634Y-12392484D02*
X7917682Y-12392484D01*
X7917682Y-12392484D02*
X7936729Y-12402008D01*
X7936729Y-12402008D02*
X7946253Y-12411531D01*
X7946253Y-12411531D02*
X7955777Y-12430579D01*
X7955777Y-12430579D02*
X7965301Y-12468674D01*
X7965301Y-12468674D02*
X7965301Y-12516293D01*
X7965301Y-12516293D02*
X7955777Y-12554388D01*
X7955777Y-12554388D02*
X7946253Y-12573436D01*
X7946253Y-12573436D02*
X7936729Y-12582960D01*
X7936729Y-12582960D02*
X7917682Y-12592484D01*
X7917682Y-12592484D02*
X7898634Y-12592484D01*
X7898634Y-12592484D02*
X7879586Y-12582960D01*
X7879586Y-12582960D02*
X7870063Y-12573436D01*
X7870063Y-12573436D02*
X7860539Y-12554388D01*
X7860539Y-12554388D02*
X7851015Y-12516293D01*
X7851015Y-12516293D02*
X7851015Y-12468674D01*
X7851015Y-12468674D02*
X7860539Y-12430579D01*
X7860539Y-12430579D02*
X7870063Y-12411531D01*
X7870063Y-12411531D02*
X7879586Y-12402008D01*
X7879586Y-12402008D02*
X7898634Y-12392484D01*
X8051015Y-12573436D02*
X8060539Y-12582960D01*
X8060539Y-12582960D02*
X8051015Y-12592484D01*
X8051015Y-12592484D02*
X8041491Y-12582960D01*
X8041491Y-12582960D02*
X8051015Y-12573436D01*
X8051015Y-12573436D02*
X8051015Y-12592484D01*
X8184348Y-12392484D02*
X8203396Y-12392484D01*
X8203396Y-12392484D02*
X8222444Y-12402008D01*
X8222444Y-12402008D02*
X8231967Y-12411531D01*
X8231967Y-12411531D02*
X8241491Y-12430579D01*
X8241491Y-12430579D02*
X8251015Y-12468674D01*
X8251015Y-12468674D02*
X8251015Y-12516293D01*
X8251015Y-12516293D02*
X8241491Y-12554388D01*
X8241491Y-12554388D02*
X8231967Y-12573436D01*
X8231967Y-12573436D02*
X8222444Y-12582960D01*
X8222444Y-12582960D02*
X8203396Y-12592484D01*
X8203396Y-12592484D02*
X8184348Y-12592484D01*
X8184348Y-12592484D02*
X8165301Y-12582960D01*
X8165301Y-12582960D02*
X8155777Y-12573436D01*
X8155777Y-12573436D02*
X8146253Y-12554388D01*
X8146253Y-12554388D02*
X8136729Y-12516293D01*
X8136729Y-12516293D02*
X8136729Y-12468674D01*
X8136729Y-12468674D02*
X8146253Y-12430579D01*
X8146253Y-12430579D02*
X8155777Y-12411531D01*
X8155777Y-12411531D02*
X8165301Y-12402008D01*
X8165301Y-12402008D02*
X8184348Y-12392484D01*
X8327206Y-12411531D02*
X8336729Y-12402008D01*
X8336729Y-12402008D02*
X8355777Y-12392484D01*
X8355777Y-12392484D02*
X8403396Y-12392484D01*
X8403396Y-12392484D02*
X8422444Y-12402008D01*
X8422444Y-12402008D02*
X8431968Y-12411531D01*
X8431968Y-12411531D02*
X8441491Y-12430579D01*
X8441491Y-12430579D02*
X8441491Y-12449627D01*
X8441491Y-12449627D02*
X8431968Y-12478198D01*
X8431968Y-12478198D02*
X8317682Y-12592484D01*
X8317682Y-12592484D02*
X8441491Y-12592484D01*
X8508158Y-12392484D02*
X8631968Y-12392484D01*
X8631968Y-12392484D02*
X8565301Y-12468674D01*
X8565301Y-12468674D02*
X8593872Y-12468674D01*
X8593872Y-12468674D02*
X8612920Y-12478198D01*
X8612920Y-12478198D02*
X8622444Y-12487722D01*
X8622444Y-12487722D02*
X8631968Y-12506769D01*
X8631968Y-12506769D02*
X8631968Y-12554388D01*
X8631968Y-12554388D02*
X8622444Y-12573436D01*
X8622444Y-12573436D02*
X8612920Y-12582960D01*
X8612920Y-12582960D02*
X8593872Y-12592484D01*
X8593872Y-12592484D02*
X8536729Y-12592484D01*
X8536729Y-12592484D02*
X8517682Y-12582960D01*
X8517682Y-12582960D02*
X8508158Y-12573436D01*
X8803396Y-12392484D02*
X8765301Y-12392484D01*
X8765301Y-12392484D02*
X8746253Y-12402008D01*
X8746253Y-12402008D02*
X8736729Y-12411531D01*
X8736729Y-12411531D02*
X8717682Y-12440103D01*
X8717682Y-12440103D02*
X8708158Y-12478198D01*
X8708158Y-12478198D02*
X8708158Y-12554388D01*
X8708158Y-12554388D02*
X8717682Y-12573436D01*
X8717682Y-12573436D02*
X8727206Y-12582960D01*
X8727206Y-12582960D02*
X8746253Y-12592484D01*
X8746253Y-12592484D02*
X8784349Y-12592484D01*
X8784349Y-12592484D02*
X8803396Y-12582960D01*
X8803396Y-12582960D02*
X8812920Y-12573436D01*
X8812920Y-12573436D02*
X8822444Y-12554388D01*
X8822444Y-12554388D02*
X8822444Y-12506769D01*
X8822444Y-12506769D02*
X8812920Y-12487722D01*
X8812920Y-12487722D02*
X8803396Y-12478198D01*
X8803396Y-12478198D02*
X8784349Y-12468674D01*
X8784349Y-12468674D02*
X8746253Y-12468674D01*
X8746253Y-12468674D02*
X8727206Y-12478198D01*
X8727206Y-12478198D02*
X8717682Y-12487722D01*
X8717682Y-12487722D02*
X8708158Y-12506769D01*
X8898634Y-12392484D02*
X8898634Y-12430579D01*
X8974825Y-12392484D02*
X8974825Y-12430579D01*
X9270063Y-12668674D02*
X9260539Y-12659150D01*
X9260539Y-12659150D02*
X9241491Y-12630579D01*
X9241491Y-12630579D02*
X9231968Y-12611531D01*
X9231968Y-12611531D02*
X9222444Y-12582960D01*
X9222444Y-12582960D02*
X9212920Y-12535341D01*
X9212920Y-12535341D02*
X9212920Y-12497246D01*
X9212920Y-12497246D02*
X9222444Y-12449627D01*
X9222444Y-12449627D02*
X9231968Y-12421055D01*
X9231968Y-12421055D02*
X9241491Y-12402008D01*
X9241491Y-12402008D02*
X9260539Y-12373436D01*
X9260539Y-12373436D02*
X9270063Y-12363912D01*
X9384349Y-12392484D02*
X9403396Y-12392484D01*
X9403396Y-12392484D02*
X9422444Y-12402008D01*
X9422444Y-12402008D02*
X9431968Y-12411531D01*
X9431968Y-12411531D02*
X9441491Y-12430579D01*
X9441491Y-12430579D02*
X9451015Y-12468674D01*
X9451015Y-12468674D02*
X9451015Y-12516293D01*
X9451015Y-12516293D02*
X9441491Y-12554388D01*
X9441491Y-12554388D02*
X9431968Y-12573436D01*
X9431968Y-12573436D02*
X9422444Y-12582960D01*
X9422444Y-12582960D02*
X9403396Y-12592484D01*
X9403396Y-12592484D02*
X9384349Y-12592484D01*
X9384349Y-12592484D02*
X9365301Y-12582960D01*
X9365301Y-12582960D02*
X9355777Y-12573436D01*
X9355777Y-12573436D02*
X9346253Y-12554388D01*
X9346253Y-12554388D02*
X9336730Y-12516293D01*
X9336730Y-12516293D02*
X9336730Y-12468674D01*
X9336730Y-12468674D02*
X9346253Y-12430579D01*
X9346253Y-12430579D02*
X9355777Y-12411531D01*
X9355777Y-12411531D02*
X9365301Y-12402008D01*
X9365301Y-12402008D02*
X9384349Y-12392484D01*
X9689111Y-12592484D02*
X9689111Y-12392484D01*
X9774825Y-12592484D02*
X9774825Y-12487722D01*
X9774825Y-12487722D02*
X9765301Y-12468674D01*
X9765301Y-12468674D02*
X9746253Y-12459150D01*
X9746253Y-12459150D02*
X9717682Y-12459150D01*
X9717682Y-12459150D02*
X9698634Y-12468674D01*
X9698634Y-12468674D02*
X9689111Y-12478198D01*
X9898634Y-12592484D02*
X9879587Y-12582960D01*
X9879587Y-12582960D02*
X9870063Y-12573436D01*
X9870063Y-12573436D02*
X9860539Y-12554388D01*
X9860539Y-12554388D02*
X9860539Y-12497246D01*
X9860539Y-12497246D02*
X9870063Y-12478198D01*
X9870063Y-12478198D02*
X9879587Y-12468674D01*
X9879587Y-12468674D02*
X9898634Y-12459150D01*
X9898634Y-12459150D02*
X9927206Y-12459150D01*
X9927206Y-12459150D02*
X9946253Y-12468674D01*
X9946253Y-12468674D02*
X9955777Y-12478198D01*
X9955777Y-12478198D02*
X9965301Y-12497246D01*
X9965301Y-12497246D02*
X9965301Y-12554388D01*
X9965301Y-12554388D02*
X9955777Y-12573436D01*
X9955777Y-12573436D02*
X9946253Y-12582960D01*
X9946253Y-12582960D02*
X9927206Y-12592484D01*
X9927206Y-12592484D02*
X9898634Y-12592484D01*
X10079587Y-12592484D02*
X10060539Y-12582960D01*
X10060539Y-12582960D02*
X10051015Y-12563912D01*
X10051015Y-12563912D02*
X10051015Y-12392484D01*
X10231968Y-12582960D02*
X10212920Y-12592484D01*
X10212920Y-12592484D02*
X10174825Y-12592484D01*
X10174825Y-12592484D02*
X10155777Y-12582960D01*
X10155777Y-12582960D02*
X10146253Y-12563912D01*
X10146253Y-12563912D02*
X10146253Y-12487722D01*
X10146253Y-12487722D02*
X10155777Y-12468674D01*
X10155777Y-12468674D02*
X10174825Y-12459150D01*
X10174825Y-12459150D02*
X10212920Y-12459150D01*
X10212920Y-12459150D02*
X10231968Y-12468674D01*
X10231968Y-12468674D02*
X10241492Y-12487722D01*
X10241492Y-12487722D02*
X10241492Y-12506769D01*
X10241492Y-12506769D02*
X10146253Y-12525817D01*
X10317682Y-12582960D02*
X10336730Y-12592484D01*
X10336730Y-12592484D02*
X10374825Y-12592484D01*
X10374825Y-12592484D02*
X10393873Y-12582960D01*
X10393873Y-12582960D02*
X10403396Y-12563912D01*
X10403396Y-12563912D02*
X10403396Y-12554388D01*
X10403396Y-12554388D02*
X10393873Y-12535341D01*
X10393873Y-12535341D02*
X10374825Y-12525817D01*
X10374825Y-12525817D02*
X10346253Y-12525817D01*
X10346253Y-12525817D02*
X10327206Y-12516293D01*
X10327206Y-12516293D02*
X10317682Y-12497246D01*
X10317682Y-12497246D02*
X10317682Y-12487722D01*
X10317682Y-12487722D02*
X10327206Y-12468674D01*
X10327206Y-12468674D02*
X10346253Y-12459150D01*
X10346253Y-12459150D02*
X10374825Y-12459150D01*
X10374825Y-12459150D02*
X10393873Y-12468674D01*
X10641492Y-12516293D02*
X10793873Y-12516293D01*
X10717682Y-12592484D02*
X10717682Y-12440103D01*
X11127206Y-12459150D02*
X11127206Y-12592484D01*
X11079587Y-12382960D02*
X11031968Y-12525817D01*
X11031968Y-12525817D02*
X11155777Y-12525817D01*
X11374825Y-12582960D02*
X11393873Y-12592484D01*
X11393873Y-12592484D02*
X11431968Y-12592484D01*
X11431968Y-12592484D02*
X11451015Y-12582960D01*
X11451015Y-12582960D02*
X11460539Y-12563912D01*
X11460539Y-12563912D02*
X11460539Y-12554388D01*
X11460539Y-12554388D02*
X11451015Y-12535341D01*
X11451015Y-12535341D02*
X11431968Y-12525817D01*
X11431968Y-12525817D02*
X11403396Y-12525817D01*
X11403396Y-12525817D02*
X11384349Y-12516293D01*
X11384349Y-12516293D02*
X11374825Y-12497246D01*
X11374825Y-12497246D02*
X11374825Y-12487722D01*
X11374825Y-12487722D02*
X11384349Y-12468674D01*
X11384349Y-12468674D02*
X11403396Y-12459150D01*
X11403396Y-12459150D02*
X11431968Y-12459150D01*
X11431968Y-12459150D02*
X11451015Y-12468674D01*
X11574825Y-12592484D02*
X11555777Y-12582960D01*
X11555777Y-12582960D02*
X11546254Y-12563912D01*
X11546254Y-12563912D02*
X11546254Y-12392484D01*
X11679587Y-12592484D02*
X11660539Y-12582960D01*
X11660539Y-12582960D02*
X11651015Y-12573436D01*
X11651015Y-12573436D02*
X11641492Y-12554388D01*
X11641492Y-12554388D02*
X11641492Y-12497246D01*
X11641492Y-12497246D02*
X11651015Y-12478198D01*
X11651015Y-12478198D02*
X11660539Y-12468674D01*
X11660539Y-12468674D02*
X11679587Y-12459150D01*
X11679587Y-12459150D02*
X11708158Y-12459150D01*
X11708158Y-12459150D02*
X11727206Y-12468674D01*
X11727206Y-12468674D02*
X11736730Y-12478198D01*
X11736730Y-12478198D02*
X11746254Y-12497246D01*
X11746254Y-12497246D02*
X11746254Y-12554388D01*
X11746254Y-12554388D02*
X11736730Y-12573436D01*
X11736730Y-12573436D02*
X11727206Y-12582960D01*
X11727206Y-12582960D02*
X11708158Y-12592484D01*
X11708158Y-12592484D02*
X11679587Y-12592484D01*
X11803396Y-12459150D02*
X11879587Y-12459150D01*
X11831968Y-12392484D02*
X11831968Y-12563912D01*
X11831968Y-12563912D02*
X11841492Y-12582960D01*
X11841492Y-12582960D02*
X11860539Y-12592484D01*
X11860539Y-12592484D02*
X11879587Y-12592484D01*
X11936730Y-12582960D02*
X11955777Y-12592484D01*
X11955777Y-12592484D02*
X11993873Y-12592484D01*
X11993873Y-12592484D02*
X12012920Y-12582960D01*
X12012920Y-12582960D02*
X12022444Y-12563912D01*
X12022444Y-12563912D02*
X12022444Y-12554388D01*
X12022444Y-12554388D02*
X12012920Y-12535341D01*
X12012920Y-12535341D02*
X11993873Y-12525817D01*
X11993873Y-12525817D02*
X11965301Y-12525817D01*
X11965301Y-12525817D02*
X11946254Y-12516293D01*
X11946254Y-12516293D02*
X11936730Y-12497246D01*
X11936730Y-12497246D02*
X11936730Y-12487722D01*
X11936730Y-12487722D02*
X11946254Y-12468674D01*
X11946254Y-12468674D02*
X11965301Y-12459150D01*
X11965301Y-12459150D02*
X11993873Y-12459150D01*
X11993873Y-12459150D02*
X12012920Y-12468674D01*
X12089111Y-12668674D02*
X12098635Y-12659150D01*
X12098635Y-12659150D02*
X12117682Y-12630579D01*
X12117682Y-12630579D02*
X12127206Y-12611531D01*
X12127206Y-12611531D02*
X12136730Y-12582960D01*
X12136730Y-12582960D02*
X12146254Y-12535341D01*
X12146254Y-12535341D02*
X12146254Y-12497246D01*
X12146254Y-12497246D02*
X12136730Y-12449627D01*
X12136730Y-12449627D02*
X12127206Y-12421055D01*
X12127206Y-12421055D02*
X12117682Y-12402008D01*
X12117682Y-12402008D02*
X12098635Y-12373436D01*
X12098635Y-12373436D02*
X12089111Y-12363912D01*
D10*
X5600000Y-12717500D02*
X5695000Y-12812500D01*
X5695000Y-12717500D02*
X5600000Y-12812500D01*
X5695000Y-12765000D02*
G75*
G02*
X5600000Y-12765000I-47500J0D01*
G01*
X5600000Y-12765000D02*
G75*
G02*
X5695000Y-12765000I47500J0D01*
G01*
D11*
X5993872Y-12656484D02*
X6012920Y-12656484D01*
X6012920Y-12656484D02*
X6031967Y-12666008D01*
X6031967Y-12666008D02*
X6041491Y-12675531D01*
X6041491Y-12675531D02*
X6051015Y-12694579D01*
X6051015Y-12694579D02*
X6060539Y-12732674D01*
X6060539Y-12732674D02*
X6060539Y-12780293D01*
X6060539Y-12780293D02*
X6051015Y-12818388D01*
X6051015Y-12818388D02*
X6041491Y-12837436D01*
X6041491Y-12837436D02*
X6031967Y-12846960D01*
X6031967Y-12846960D02*
X6012920Y-12856484D01*
X6012920Y-12856484D02*
X5993872Y-12856484D01*
X5993872Y-12856484D02*
X5974824Y-12846960D01*
X5974824Y-12846960D02*
X5965301Y-12837436D01*
X5965301Y-12837436D02*
X5955777Y-12818388D01*
X5955777Y-12818388D02*
X5946253Y-12780293D01*
X5946253Y-12780293D02*
X5946253Y-12732674D01*
X5946253Y-12732674D02*
X5955777Y-12694579D01*
X5955777Y-12694579D02*
X5965301Y-12675531D01*
X5965301Y-12675531D02*
X5974824Y-12666008D01*
X5974824Y-12666008D02*
X5993872Y-12656484D01*
X6146253Y-12837436D02*
X6155777Y-12846960D01*
X6155777Y-12846960D02*
X6146253Y-12856484D01*
X6146253Y-12856484D02*
X6136729Y-12846960D01*
X6136729Y-12846960D02*
X6146253Y-12837436D01*
X6146253Y-12837436D02*
X6146253Y-12856484D01*
X6251015Y-12856484D02*
X6289110Y-12856484D01*
X6289110Y-12856484D02*
X6308158Y-12846960D01*
X6308158Y-12846960D02*
X6317682Y-12837436D01*
X6317682Y-12837436D02*
X6336729Y-12808865D01*
X6336729Y-12808865D02*
X6346253Y-12770769D01*
X6346253Y-12770769D02*
X6346253Y-12694579D01*
X6346253Y-12694579D02*
X6336729Y-12675531D01*
X6336729Y-12675531D02*
X6327205Y-12666008D01*
X6327205Y-12666008D02*
X6308158Y-12656484D01*
X6308158Y-12656484D02*
X6270062Y-12656484D01*
X6270062Y-12656484D02*
X6251015Y-12666008D01*
X6251015Y-12666008D02*
X6241491Y-12675531D01*
X6241491Y-12675531D02*
X6231967Y-12694579D01*
X6231967Y-12694579D02*
X6231967Y-12742198D01*
X6231967Y-12742198D02*
X6241491Y-12761246D01*
X6241491Y-12761246D02*
X6251015Y-12770769D01*
X6251015Y-12770769D02*
X6270062Y-12780293D01*
X6270062Y-12780293D02*
X6308158Y-12780293D01*
X6308158Y-12780293D02*
X6327205Y-12770769D01*
X6327205Y-12770769D02*
X6336729Y-12761246D01*
X6336729Y-12761246D02*
X6346253Y-12742198D01*
X6527205Y-12656484D02*
X6431967Y-12656484D01*
X6431967Y-12656484D02*
X6422443Y-12751722D01*
X6422443Y-12751722D02*
X6431967Y-12742198D01*
X6431967Y-12742198D02*
X6451015Y-12732674D01*
X6451015Y-12732674D02*
X6498634Y-12732674D01*
X6498634Y-12732674D02*
X6517682Y-12742198D01*
X6517682Y-12742198D02*
X6527205Y-12751722D01*
X6527205Y-12751722D02*
X6536729Y-12770769D01*
X6536729Y-12770769D02*
X6536729Y-12818388D01*
X6536729Y-12818388D02*
X6527205Y-12837436D01*
X6527205Y-12837436D02*
X6517682Y-12846960D01*
X6517682Y-12846960D02*
X6498634Y-12856484D01*
X6498634Y-12856484D02*
X6451015Y-12856484D01*
X6451015Y-12856484D02*
X6431967Y-12846960D01*
X6431967Y-12846960D02*
X6422443Y-12837436D01*
X6660539Y-12656484D02*
X6679586Y-12656484D01*
X6679586Y-12656484D02*
X6698634Y-12666008D01*
X6698634Y-12666008D02*
X6708158Y-12675531D01*
X6708158Y-12675531D02*
X6717682Y-12694579D01*
X6717682Y-12694579D02*
X6727205Y-12732674D01*
X6727205Y-12732674D02*
X6727205Y-12780293D01*
X6727205Y-12780293D02*
X6717682Y-12818388D01*
X6717682Y-12818388D02*
X6708158Y-12837436D01*
X6708158Y-12837436D02*
X6698634Y-12846960D01*
X6698634Y-12846960D02*
X6679586Y-12856484D01*
X6679586Y-12856484D02*
X6660539Y-12856484D01*
X6660539Y-12856484D02*
X6641491Y-12846960D01*
X6641491Y-12846960D02*
X6631967Y-12837436D01*
X6631967Y-12837436D02*
X6622443Y-12818388D01*
X6622443Y-12818388D02*
X6612920Y-12780293D01*
X6612920Y-12780293D02*
X6612920Y-12732674D01*
X6612920Y-12732674D02*
X6622443Y-12694579D01*
X6622443Y-12694579D02*
X6631967Y-12675531D01*
X6631967Y-12675531D02*
X6641491Y-12666008D01*
X6641491Y-12666008D02*
X6660539Y-12656484D01*
X6812920Y-12856484D02*
X6812920Y-12723150D01*
X6812920Y-12742198D02*
X6822443Y-12732674D01*
X6822443Y-12732674D02*
X6841491Y-12723150D01*
X6841491Y-12723150D02*
X6870063Y-12723150D01*
X6870063Y-12723150D02*
X6889110Y-12732674D01*
X6889110Y-12732674D02*
X6898634Y-12751722D01*
X6898634Y-12751722D02*
X6898634Y-12856484D01*
X6898634Y-12751722D02*
X6908158Y-12732674D01*
X6908158Y-12732674D02*
X6927205Y-12723150D01*
X6927205Y-12723150D02*
X6955777Y-12723150D01*
X6955777Y-12723150D02*
X6974824Y-12732674D01*
X6974824Y-12732674D02*
X6984348Y-12751722D01*
X6984348Y-12751722D02*
X6984348Y-12856484D01*
X7079586Y-12856484D02*
X7079586Y-12723150D01*
X7079586Y-12742198D02*
X7089110Y-12732674D01*
X7089110Y-12732674D02*
X7108158Y-12723150D01*
X7108158Y-12723150D02*
X7136729Y-12723150D01*
X7136729Y-12723150D02*
X7155777Y-12732674D01*
X7155777Y-12732674D02*
X7165301Y-12751722D01*
X7165301Y-12751722D02*
X7165301Y-12856484D01*
X7165301Y-12751722D02*
X7174824Y-12732674D01*
X7174824Y-12732674D02*
X7193872Y-12723150D01*
X7193872Y-12723150D02*
X7222443Y-12723150D01*
X7222443Y-12723150D02*
X7241491Y-12732674D01*
X7241491Y-12732674D02*
X7251015Y-12751722D01*
X7251015Y-12751722D02*
X7251015Y-12856484D01*
X7641491Y-12646960D02*
X7470063Y-12904103D01*
X7898634Y-12656484D02*
X7917682Y-12656484D01*
X7917682Y-12656484D02*
X7936729Y-12666008D01*
X7936729Y-12666008D02*
X7946253Y-12675531D01*
X7946253Y-12675531D02*
X7955777Y-12694579D01*
X7955777Y-12694579D02*
X7965301Y-12732674D01*
X7965301Y-12732674D02*
X7965301Y-12780293D01*
X7965301Y-12780293D02*
X7955777Y-12818388D01*
X7955777Y-12818388D02*
X7946253Y-12837436D01*
X7946253Y-12837436D02*
X7936729Y-12846960D01*
X7936729Y-12846960D02*
X7917682Y-12856484D01*
X7917682Y-12856484D02*
X7898634Y-12856484D01*
X7898634Y-12856484D02*
X7879586Y-12846960D01*
X7879586Y-12846960D02*
X7870063Y-12837436D01*
X7870063Y-12837436D02*
X7860539Y-12818388D01*
X7860539Y-12818388D02*
X7851015Y-12780293D01*
X7851015Y-12780293D02*
X7851015Y-12732674D01*
X7851015Y-12732674D02*
X7860539Y-12694579D01*
X7860539Y-12694579D02*
X7870063Y-12675531D01*
X7870063Y-12675531D02*
X7879586Y-12666008D01*
X7879586Y-12666008D02*
X7898634Y-12656484D01*
X8051015Y-12837436D02*
X8060539Y-12846960D01*
X8060539Y-12846960D02*
X8051015Y-12856484D01*
X8051015Y-12856484D02*
X8041491Y-12846960D01*
X8041491Y-12846960D02*
X8051015Y-12837436D01*
X8051015Y-12837436D02*
X8051015Y-12856484D01*
X8184348Y-12656484D02*
X8203396Y-12656484D01*
X8203396Y-12656484D02*
X8222444Y-12666008D01*
X8222444Y-12666008D02*
X8231967Y-12675531D01*
X8231967Y-12675531D02*
X8241491Y-12694579D01*
X8241491Y-12694579D02*
X8251015Y-12732674D01*
X8251015Y-12732674D02*
X8251015Y-12780293D01*
X8251015Y-12780293D02*
X8241491Y-12818388D01*
X8241491Y-12818388D02*
X8231967Y-12837436D01*
X8231967Y-12837436D02*
X8222444Y-12846960D01*
X8222444Y-12846960D02*
X8203396Y-12856484D01*
X8203396Y-12856484D02*
X8184348Y-12856484D01*
X8184348Y-12856484D02*
X8165301Y-12846960D01*
X8165301Y-12846960D02*
X8155777Y-12837436D01*
X8155777Y-12837436D02*
X8146253Y-12818388D01*
X8146253Y-12818388D02*
X8136729Y-12780293D01*
X8136729Y-12780293D02*
X8136729Y-12732674D01*
X8136729Y-12732674D02*
X8146253Y-12694579D01*
X8146253Y-12694579D02*
X8155777Y-12675531D01*
X8155777Y-12675531D02*
X8165301Y-12666008D01*
X8165301Y-12666008D02*
X8184348Y-12656484D01*
X8317682Y-12656484D02*
X8441491Y-12656484D01*
X8441491Y-12656484D02*
X8374825Y-12732674D01*
X8374825Y-12732674D02*
X8403396Y-12732674D01*
X8403396Y-12732674D02*
X8422444Y-12742198D01*
X8422444Y-12742198D02*
X8431968Y-12751722D01*
X8431968Y-12751722D02*
X8441491Y-12770769D01*
X8441491Y-12770769D02*
X8441491Y-12818388D01*
X8441491Y-12818388D02*
X8431968Y-12837436D01*
X8431968Y-12837436D02*
X8422444Y-12846960D01*
X8422444Y-12846960D02*
X8403396Y-12856484D01*
X8403396Y-12856484D02*
X8346253Y-12856484D01*
X8346253Y-12856484D02*
X8327206Y-12846960D01*
X8327206Y-12846960D02*
X8317682Y-12837436D01*
X8508158Y-12656484D02*
X8641491Y-12656484D01*
X8641491Y-12656484D02*
X8555777Y-12856484D01*
X8803396Y-12723150D02*
X8803396Y-12856484D01*
X8755777Y-12646960D02*
X8708158Y-12789817D01*
X8708158Y-12789817D02*
X8831968Y-12789817D01*
X8898634Y-12656484D02*
X8898634Y-12694579D01*
X8974825Y-12656484D02*
X8974825Y-12694579D01*
X9270063Y-12932674D02*
X9260539Y-12923150D01*
X9260539Y-12923150D02*
X9241491Y-12894579D01*
X9241491Y-12894579D02*
X9231968Y-12875531D01*
X9231968Y-12875531D02*
X9222444Y-12846960D01*
X9222444Y-12846960D02*
X9212920Y-12799341D01*
X9212920Y-12799341D02*
X9212920Y-12761246D01*
X9212920Y-12761246D02*
X9222444Y-12713627D01*
X9222444Y-12713627D02*
X9231968Y-12685055D01*
X9231968Y-12685055D02*
X9241491Y-12666008D01*
X9241491Y-12666008D02*
X9260539Y-12637436D01*
X9260539Y-12637436D02*
X9270063Y-12627912D01*
X9431968Y-12723150D02*
X9431968Y-12856484D01*
X9384349Y-12646960D02*
X9336730Y-12789817D01*
X9336730Y-12789817D02*
X9460539Y-12789817D01*
X9689111Y-12856484D02*
X9689111Y-12656484D01*
X9774825Y-12856484D02*
X9774825Y-12751722D01*
X9774825Y-12751722D02*
X9765301Y-12732674D01*
X9765301Y-12732674D02*
X9746253Y-12723150D01*
X9746253Y-12723150D02*
X9717682Y-12723150D01*
X9717682Y-12723150D02*
X9698634Y-12732674D01*
X9698634Y-12732674D02*
X9689111Y-12742198D01*
X9898634Y-12856484D02*
X9879587Y-12846960D01*
X9879587Y-12846960D02*
X9870063Y-12837436D01*
X9870063Y-12837436D02*
X9860539Y-12818388D01*
X9860539Y-12818388D02*
X9860539Y-12761246D01*
X9860539Y-12761246D02*
X9870063Y-12742198D01*
X9870063Y-12742198D02*
X9879587Y-12732674D01*
X9879587Y-12732674D02*
X9898634Y-12723150D01*
X9898634Y-12723150D02*
X9927206Y-12723150D01*
X9927206Y-12723150D02*
X9946253Y-12732674D01*
X9946253Y-12732674D02*
X9955777Y-12742198D01*
X9955777Y-12742198D02*
X9965301Y-12761246D01*
X9965301Y-12761246D02*
X9965301Y-12818388D01*
X9965301Y-12818388D02*
X9955777Y-12837436D01*
X9955777Y-12837436D02*
X9946253Y-12846960D01*
X9946253Y-12846960D02*
X9927206Y-12856484D01*
X9927206Y-12856484D02*
X9898634Y-12856484D01*
X10079587Y-12856484D02*
X10060539Y-12846960D01*
X10060539Y-12846960D02*
X10051015Y-12827912D01*
X10051015Y-12827912D02*
X10051015Y-12656484D01*
X10231968Y-12846960D02*
X10212920Y-12856484D01*
X10212920Y-12856484D02*
X10174825Y-12856484D01*
X10174825Y-12856484D02*
X10155777Y-12846960D01*
X10155777Y-12846960D02*
X10146253Y-12827912D01*
X10146253Y-12827912D02*
X10146253Y-12751722D01*
X10146253Y-12751722D02*
X10155777Y-12732674D01*
X10155777Y-12732674D02*
X10174825Y-12723150D01*
X10174825Y-12723150D02*
X10212920Y-12723150D01*
X10212920Y-12723150D02*
X10231968Y-12732674D01*
X10231968Y-12732674D02*
X10241492Y-12751722D01*
X10241492Y-12751722D02*
X10241492Y-12770769D01*
X10241492Y-12770769D02*
X10146253Y-12789817D01*
X10317682Y-12846960D02*
X10336730Y-12856484D01*
X10336730Y-12856484D02*
X10374825Y-12856484D01*
X10374825Y-12856484D02*
X10393873Y-12846960D01*
X10393873Y-12846960D02*
X10403396Y-12827912D01*
X10403396Y-12827912D02*
X10403396Y-12818388D01*
X10403396Y-12818388D02*
X10393873Y-12799341D01*
X10393873Y-12799341D02*
X10374825Y-12789817D01*
X10374825Y-12789817D02*
X10346253Y-12789817D01*
X10346253Y-12789817D02*
X10327206Y-12780293D01*
X10327206Y-12780293D02*
X10317682Y-12761246D01*
X10317682Y-12761246D02*
X10317682Y-12751722D01*
X10317682Y-12751722D02*
X10327206Y-12732674D01*
X10327206Y-12732674D02*
X10346253Y-12723150D01*
X10346253Y-12723150D02*
X10374825Y-12723150D01*
X10374825Y-12723150D02*
X10393873Y-12732674D01*
X10470063Y-12932674D02*
X10479587Y-12923150D01*
X10479587Y-12923150D02*
X10498634Y-12894579D01*
X10498634Y-12894579D02*
X10508158Y-12875531D01*
X10508158Y-12875531D02*
X10517682Y-12846960D01*
X10517682Y-12846960D02*
X10527206Y-12799341D01*
X10527206Y-12799341D02*
X10527206Y-12761246D01*
X10527206Y-12761246D02*
X10517682Y-12713627D01*
X10517682Y-12713627D02*
X10508158Y-12685055D01*
X10508158Y-12685055D02*
X10498634Y-12666008D01*
X10498634Y-12666008D02*
X10479587Y-12637436D01*
X10479587Y-12637436D02*
X10470063Y-12627912D01*
D10*
X5595000Y-12979000D02*
X5695000Y-13079000D01*
X5695000Y-12979000D02*
X5595000Y-13079000D01*
X5645000Y-12979000D02*
X5645000Y-13079000D01*
X5595000Y-13029000D02*
X5695000Y-13029000D01*
D11*
X6060539Y-13120484D02*
X5946253Y-13120484D01*
X6003396Y-13120484D02*
X6003396Y-12920484D01*
X6003396Y-12920484D02*
X5984348Y-12949055D01*
X5984348Y-12949055D02*
X5965301Y-12968103D01*
X5965301Y-12968103D02*
X5946253Y-12977627D01*
X6146253Y-13101436D02*
X6155777Y-13110960D01*
X6155777Y-13110960D02*
X6146253Y-13120484D01*
X6146253Y-13120484D02*
X6136729Y-13110960D01*
X6136729Y-13110960D02*
X6146253Y-13101436D01*
X6146253Y-13101436D02*
X6146253Y-13120484D01*
X6279586Y-12920484D02*
X6298634Y-12920484D01*
X6298634Y-12920484D02*
X6317682Y-12930008D01*
X6317682Y-12930008D02*
X6327205Y-12939531D01*
X6327205Y-12939531D02*
X6336729Y-12958579D01*
X6336729Y-12958579D02*
X6346253Y-12996674D01*
X6346253Y-12996674D02*
X6346253Y-13044293D01*
X6346253Y-13044293D02*
X6336729Y-13082388D01*
X6336729Y-13082388D02*
X6327205Y-13101436D01*
X6327205Y-13101436D02*
X6317682Y-13110960D01*
X6317682Y-13110960D02*
X6298634Y-13120484D01*
X6298634Y-13120484D02*
X6279586Y-13120484D01*
X6279586Y-13120484D02*
X6260539Y-13110960D01*
X6260539Y-13110960D02*
X6251015Y-13101436D01*
X6251015Y-13101436D02*
X6241491Y-13082388D01*
X6241491Y-13082388D02*
X6231967Y-13044293D01*
X6231967Y-13044293D02*
X6231967Y-12996674D01*
X6231967Y-12996674D02*
X6241491Y-12958579D01*
X6241491Y-12958579D02*
X6251015Y-12939531D01*
X6251015Y-12939531D02*
X6260539Y-12930008D01*
X6260539Y-12930008D02*
X6279586Y-12920484D01*
X6470062Y-12920484D02*
X6489110Y-12920484D01*
X6489110Y-12920484D02*
X6508158Y-12930008D01*
X6508158Y-12930008D02*
X6517682Y-12939531D01*
X6517682Y-12939531D02*
X6527205Y-12958579D01*
X6527205Y-12958579D02*
X6536729Y-12996674D01*
X6536729Y-12996674D02*
X6536729Y-13044293D01*
X6536729Y-13044293D02*
X6527205Y-13082388D01*
X6527205Y-13082388D02*
X6517682Y-13101436D01*
X6517682Y-13101436D02*
X6508158Y-13110960D01*
X6508158Y-13110960D02*
X6489110Y-13120484D01*
X6489110Y-13120484D02*
X6470062Y-13120484D01*
X6470062Y-13120484D02*
X6451015Y-13110960D01*
X6451015Y-13110960D02*
X6441491Y-13101436D01*
X6441491Y-13101436D02*
X6431967Y-13082388D01*
X6431967Y-13082388D02*
X6422443Y-13044293D01*
X6422443Y-13044293D02*
X6422443Y-12996674D01*
X6422443Y-12996674D02*
X6431967Y-12958579D01*
X6431967Y-12958579D02*
X6441491Y-12939531D01*
X6441491Y-12939531D02*
X6451015Y-12930008D01*
X6451015Y-12930008D02*
X6470062Y-12920484D01*
X6660539Y-12920484D02*
X6679586Y-12920484D01*
X6679586Y-12920484D02*
X6698634Y-12930008D01*
X6698634Y-12930008D02*
X6708158Y-12939531D01*
X6708158Y-12939531D02*
X6717682Y-12958579D01*
X6717682Y-12958579D02*
X6727205Y-12996674D01*
X6727205Y-12996674D02*
X6727205Y-13044293D01*
X6727205Y-13044293D02*
X6717682Y-13082388D01*
X6717682Y-13082388D02*
X6708158Y-13101436D01*
X6708158Y-13101436D02*
X6698634Y-13110960D01*
X6698634Y-13110960D02*
X6679586Y-13120484D01*
X6679586Y-13120484D02*
X6660539Y-13120484D01*
X6660539Y-13120484D02*
X6641491Y-13110960D01*
X6641491Y-13110960D02*
X6631967Y-13101436D01*
X6631967Y-13101436D02*
X6622443Y-13082388D01*
X6622443Y-13082388D02*
X6612920Y-13044293D01*
X6612920Y-13044293D02*
X6612920Y-12996674D01*
X6612920Y-12996674D02*
X6622443Y-12958579D01*
X6622443Y-12958579D02*
X6631967Y-12939531D01*
X6631967Y-12939531D02*
X6641491Y-12930008D01*
X6641491Y-12930008D02*
X6660539Y-12920484D01*
X6812920Y-13120484D02*
X6812920Y-12987150D01*
X6812920Y-13006198D02*
X6822443Y-12996674D01*
X6822443Y-12996674D02*
X6841491Y-12987150D01*
X6841491Y-12987150D02*
X6870063Y-12987150D01*
X6870063Y-12987150D02*
X6889110Y-12996674D01*
X6889110Y-12996674D02*
X6898634Y-13015722D01*
X6898634Y-13015722D02*
X6898634Y-13120484D01*
X6898634Y-13015722D02*
X6908158Y-12996674D01*
X6908158Y-12996674D02*
X6927205Y-12987150D01*
X6927205Y-12987150D02*
X6955777Y-12987150D01*
X6955777Y-12987150D02*
X6974824Y-12996674D01*
X6974824Y-12996674D02*
X6984348Y-13015722D01*
X6984348Y-13015722D02*
X6984348Y-13120484D01*
X7079586Y-13120484D02*
X7079586Y-12987150D01*
X7079586Y-13006198D02*
X7089110Y-12996674D01*
X7089110Y-12996674D02*
X7108158Y-12987150D01*
X7108158Y-12987150D02*
X7136729Y-12987150D01*
X7136729Y-12987150D02*
X7155777Y-12996674D01*
X7155777Y-12996674D02*
X7165301Y-13015722D01*
X7165301Y-13015722D02*
X7165301Y-13120484D01*
X7165301Y-13015722D02*
X7174824Y-12996674D01*
X7174824Y-12996674D02*
X7193872Y-12987150D01*
X7193872Y-12987150D02*
X7222443Y-12987150D01*
X7222443Y-12987150D02*
X7241491Y-12996674D01*
X7241491Y-12996674D02*
X7251015Y-13015722D01*
X7251015Y-13015722D02*
X7251015Y-13120484D01*
X7641491Y-12910960D02*
X7470063Y-13168103D01*
X7898634Y-12920484D02*
X7917682Y-12920484D01*
X7917682Y-12920484D02*
X7936729Y-12930008D01*
X7936729Y-12930008D02*
X7946253Y-12939531D01*
X7946253Y-12939531D02*
X7955777Y-12958579D01*
X7955777Y-12958579D02*
X7965301Y-12996674D01*
X7965301Y-12996674D02*
X7965301Y-13044293D01*
X7965301Y-13044293D02*
X7955777Y-13082388D01*
X7955777Y-13082388D02*
X7946253Y-13101436D01*
X7946253Y-13101436D02*
X7936729Y-13110960D01*
X7936729Y-13110960D02*
X7917682Y-13120484D01*
X7917682Y-13120484D02*
X7898634Y-13120484D01*
X7898634Y-13120484D02*
X7879586Y-13110960D01*
X7879586Y-13110960D02*
X7870063Y-13101436D01*
X7870063Y-13101436D02*
X7860539Y-13082388D01*
X7860539Y-13082388D02*
X7851015Y-13044293D01*
X7851015Y-13044293D02*
X7851015Y-12996674D01*
X7851015Y-12996674D02*
X7860539Y-12958579D01*
X7860539Y-12958579D02*
X7870063Y-12939531D01*
X7870063Y-12939531D02*
X7879586Y-12930008D01*
X7879586Y-12930008D02*
X7898634Y-12920484D01*
X8051015Y-13101436D02*
X8060539Y-13110960D01*
X8060539Y-13110960D02*
X8051015Y-13120484D01*
X8051015Y-13120484D02*
X8041491Y-13110960D01*
X8041491Y-13110960D02*
X8051015Y-13101436D01*
X8051015Y-13101436D02*
X8051015Y-13120484D01*
X8184348Y-12920484D02*
X8203396Y-12920484D01*
X8203396Y-12920484D02*
X8222444Y-12930008D01*
X8222444Y-12930008D02*
X8231967Y-12939531D01*
X8231967Y-12939531D02*
X8241491Y-12958579D01*
X8241491Y-12958579D02*
X8251015Y-12996674D01*
X8251015Y-12996674D02*
X8251015Y-13044293D01*
X8251015Y-13044293D02*
X8241491Y-13082388D01*
X8241491Y-13082388D02*
X8231967Y-13101436D01*
X8231967Y-13101436D02*
X8222444Y-13110960D01*
X8222444Y-13110960D02*
X8203396Y-13120484D01*
X8203396Y-13120484D02*
X8184348Y-13120484D01*
X8184348Y-13120484D02*
X8165301Y-13110960D01*
X8165301Y-13110960D02*
X8155777Y-13101436D01*
X8155777Y-13101436D02*
X8146253Y-13082388D01*
X8146253Y-13082388D02*
X8136729Y-13044293D01*
X8136729Y-13044293D02*
X8136729Y-12996674D01*
X8136729Y-12996674D02*
X8146253Y-12958579D01*
X8146253Y-12958579D02*
X8155777Y-12939531D01*
X8155777Y-12939531D02*
X8165301Y-12930008D01*
X8165301Y-12930008D02*
X8184348Y-12920484D01*
X8317682Y-12920484D02*
X8441491Y-12920484D01*
X8441491Y-12920484D02*
X8374825Y-12996674D01*
X8374825Y-12996674D02*
X8403396Y-12996674D01*
X8403396Y-12996674D02*
X8422444Y-13006198D01*
X8422444Y-13006198D02*
X8431968Y-13015722D01*
X8431968Y-13015722D02*
X8441491Y-13034769D01*
X8441491Y-13034769D02*
X8441491Y-13082388D01*
X8441491Y-13082388D02*
X8431968Y-13101436D01*
X8431968Y-13101436D02*
X8422444Y-13110960D01*
X8422444Y-13110960D02*
X8403396Y-13120484D01*
X8403396Y-13120484D02*
X8346253Y-13120484D01*
X8346253Y-13120484D02*
X8327206Y-13110960D01*
X8327206Y-13110960D02*
X8317682Y-13101436D01*
X8536729Y-13120484D02*
X8574825Y-13120484D01*
X8574825Y-13120484D02*
X8593872Y-13110960D01*
X8593872Y-13110960D02*
X8603396Y-13101436D01*
X8603396Y-13101436D02*
X8622444Y-13072865D01*
X8622444Y-13072865D02*
X8631968Y-13034769D01*
X8631968Y-13034769D02*
X8631968Y-12958579D01*
X8631968Y-12958579D02*
X8622444Y-12939531D01*
X8622444Y-12939531D02*
X8612920Y-12930008D01*
X8612920Y-12930008D02*
X8593872Y-12920484D01*
X8593872Y-12920484D02*
X8555777Y-12920484D01*
X8555777Y-12920484D02*
X8536729Y-12930008D01*
X8536729Y-12930008D02*
X8527206Y-12939531D01*
X8527206Y-12939531D02*
X8517682Y-12958579D01*
X8517682Y-12958579D02*
X8517682Y-13006198D01*
X8517682Y-13006198D02*
X8527206Y-13025246D01*
X8527206Y-13025246D02*
X8536729Y-13034769D01*
X8536729Y-13034769D02*
X8555777Y-13044293D01*
X8555777Y-13044293D02*
X8593872Y-13044293D01*
X8593872Y-13044293D02*
X8612920Y-13034769D01*
X8612920Y-13034769D02*
X8622444Y-13025246D01*
X8622444Y-13025246D02*
X8631968Y-13006198D01*
X8803396Y-12987150D02*
X8803396Y-13120484D01*
X8755777Y-12910960D02*
X8708158Y-13053817D01*
X8708158Y-13053817D02*
X8831968Y-13053817D01*
X8898634Y-12920484D02*
X8898634Y-12958579D01*
X8974825Y-12920484D02*
X8974825Y-12958579D01*
X9270063Y-13196674D02*
X9260539Y-13187150D01*
X9260539Y-13187150D02*
X9241491Y-13158579D01*
X9241491Y-13158579D02*
X9231968Y-13139531D01*
X9231968Y-13139531D02*
X9222444Y-13110960D01*
X9222444Y-13110960D02*
X9212920Y-13063341D01*
X9212920Y-13063341D02*
X9212920Y-13025246D01*
X9212920Y-13025246D02*
X9222444Y-12977627D01*
X9222444Y-12977627D02*
X9231968Y-12949055D01*
X9231968Y-12949055D02*
X9241491Y-12930008D01*
X9241491Y-12930008D02*
X9260539Y-12901436D01*
X9260539Y-12901436D02*
X9270063Y-12891912D01*
X9451015Y-13120484D02*
X9336730Y-13120484D01*
X9393872Y-13120484D02*
X9393872Y-12920484D01*
X9393872Y-12920484D02*
X9374825Y-12949055D01*
X9374825Y-12949055D02*
X9355777Y-12968103D01*
X9355777Y-12968103D02*
X9336730Y-12977627D01*
X9641491Y-13120484D02*
X9527206Y-13120484D01*
X9584349Y-13120484D02*
X9584349Y-12920484D01*
X9584349Y-12920484D02*
X9565301Y-12949055D01*
X9565301Y-12949055D02*
X9546253Y-12968103D01*
X9546253Y-12968103D02*
X9527206Y-12977627D01*
X9879587Y-13120484D02*
X9879587Y-12920484D01*
X9965301Y-13120484D02*
X9965301Y-13015722D01*
X9965301Y-13015722D02*
X9955777Y-12996674D01*
X9955777Y-12996674D02*
X9936730Y-12987150D01*
X9936730Y-12987150D02*
X9908158Y-12987150D01*
X9908158Y-12987150D02*
X9889111Y-12996674D01*
X9889111Y-12996674D02*
X9879587Y-13006198D01*
X10089111Y-13120484D02*
X10070063Y-13110960D01*
X10070063Y-13110960D02*
X10060539Y-13101436D01*
X10060539Y-13101436D02*
X10051015Y-13082388D01*
X10051015Y-13082388D02*
X10051015Y-13025246D01*
X10051015Y-13025246D02*
X10060539Y-13006198D01*
X10060539Y-13006198D02*
X10070063Y-12996674D01*
X10070063Y-12996674D02*
X10089111Y-12987150D01*
X10089111Y-12987150D02*
X10117682Y-12987150D01*
X10117682Y-12987150D02*
X10136730Y-12996674D01*
X10136730Y-12996674D02*
X10146253Y-13006198D01*
X10146253Y-13006198D02*
X10155777Y-13025246D01*
X10155777Y-13025246D02*
X10155777Y-13082388D01*
X10155777Y-13082388D02*
X10146253Y-13101436D01*
X10146253Y-13101436D02*
X10136730Y-13110960D01*
X10136730Y-13110960D02*
X10117682Y-13120484D01*
X10117682Y-13120484D02*
X10089111Y-13120484D01*
X10270063Y-13120484D02*
X10251015Y-13110960D01*
X10251015Y-13110960D02*
X10241492Y-13091912D01*
X10241492Y-13091912D02*
X10241492Y-12920484D01*
X10422444Y-13110960D02*
X10403396Y-13120484D01*
X10403396Y-13120484D02*
X10365301Y-13120484D01*
X10365301Y-13120484D02*
X10346253Y-13110960D01*
X10346253Y-13110960D02*
X10336730Y-13091912D01*
X10336730Y-13091912D02*
X10336730Y-13015722D01*
X10336730Y-13015722D02*
X10346253Y-12996674D01*
X10346253Y-12996674D02*
X10365301Y-12987150D01*
X10365301Y-12987150D02*
X10403396Y-12987150D01*
X10403396Y-12987150D02*
X10422444Y-12996674D01*
X10422444Y-12996674D02*
X10431968Y-13015722D01*
X10431968Y-13015722D02*
X10431968Y-13034769D01*
X10431968Y-13034769D02*
X10336730Y-13053817D01*
X10508158Y-13110960D02*
X10527206Y-13120484D01*
X10527206Y-13120484D02*
X10565301Y-13120484D01*
X10565301Y-13120484D02*
X10584349Y-13110960D01*
X10584349Y-13110960D02*
X10593873Y-13091912D01*
X10593873Y-13091912D02*
X10593873Y-13082388D01*
X10593873Y-13082388D02*
X10584349Y-13063341D01*
X10584349Y-13063341D02*
X10565301Y-13053817D01*
X10565301Y-13053817D02*
X10536730Y-13053817D01*
X10536730Y-13053817D02*
X10517682Y-13044293D01*
X10517682Y-13044293D02*
X10508158Y-13025246D01*
X10508158Y-13025246D02*
X10508158Y-13015722D01*
X10508158Y-13015722D02*
X10517682Y-12996674D01*
X10517682Y-12996674D02*
X10536730Y-12987150D01*
X10536730Y-12987150D02*
X10565301Y-12987150D01*
X10565301Y-12987150D02*
X10584349Y-12996674D01*
X10660539Y-13196674D02*
X10670063Y-13187150D01*
X10670063Y-13187150D02*
X10689111Y-13158579D01*
X10689111Y-13158579D02*
X10698634Y-13139531D01*
X10698634Y-13139531D02*
X10708158Y-13110960D01*
X10708158Y-13110960D02*
X10717682Y-13063341D01*
X10717682Y-13063341D02*
X10717682Y-13025246D01*
X10717682Y-13025246D02*
X10708158Y-12977627D01*
X10708158Y-12977627D02*
X10698634Y-12949055D01*
X10698634Y-12949055D02*
X10689111Y-12930008D01*
X10689111Y-12930008D02*
X10670063Y-12901436D01*
X10670063Y-12901436D02*
X10660539Y-12891912D01*
D12*
X5585000Y-13238000D02*
X5695000Y-13348000D01*
X5695000Y-13238000D02*
X5585000Y-13348000D01*
X5678891Y-13331891D02*
X5678891Y-13254109D01*
X5601109Y-13254109D01*
X5601109Y-13331891D01*
X5678891Y-13331891D01*
D11*
X6060539Y-13384484D02*
X5946253Y-13384484D01*
X6003396Y-13384484D02*
X6003396Y-13184484D01*
X6003396Y-13184484D02*
X5984348Y-13213055D01*
X5984348Y-13213055D02*
X5965301Y-13232103D01*
X5965301Y-13232103D02*
X5946253Y-13241627D01*
X6146253Y-13365436D02*
X6155777Y-13374960D01*
X6155777Y-13374960D02*
X6146253Y-13384484D01*
X6146253Y-13384484D02*
X6136729Y-13374960D01*
X6136729Y-13374960D02*
X6146253Y-13365436D01*
X6146253Y-13365436D02*
X6146253Y-13384484D01*
X6346253Y-13384484D02*
X6231967Y-13384484D01*
X6289110Y-13384484D02*
X6289110Y-13184484D01*
X6289110Y-13184484D02*
X6270062Y-13213055D01*
X6270062Y-13213055D02*
X6251015Y-13232103D01*
X6251015Y-13232103D02*
X6231967Y-13241627D01*
X6470062Y-13184484D02*
X6489110Y-13184484D01*
X6489110Y-13184484D02*
X6508158Y-13194008D01*
X6508158Y-13194008D02*
X6517682Y-13203531D01*
X6517682Y-13203531D02*
X6527205Y-13222579D01*
X6527205Y-13222579D02*
X6536729Y-13260674D01*
X6536729Y-13260674D02*
X6536729Y-13308293D01*
X6536729Y-13308293D02*
X6527205Y-13346388D01*
X6527205Y-13346388D02*
X6517682Y-13365436D01*
X6517682Y-13365436D02*
X6508158Y-13374960D01*
X6508158Y-13374960D02*
X6489110Y-13384484D01*
X6489110Y-13384484D02*
X6470062Y-13384484D01*
X6470062Y-13384484D02*
X6451015Y-13374960D01*
X6451015Y-13374960D02*
X6441491Y-13365436D01*
X6441491Y-13365436D02*
X6431967Y-13346388D01*
X6431967Y-13346388D02*
X6422443Y-13308293D01*
X6422443Y-13308293D02*
X6422443Y-13260674D01*
X6422443Y-13260674D02*
X6431967Y-13222579D01*
X6431967Y-13222579D02*
X6441491Y-13203531D01*
X6441491Y-13203531D02*
X6451015Y-13194008D01*
X6451015Y-13194008D02*
X6470062Y-13184484D01*
X6660539Y-13184484D02*
X6679586Y-13184484D01*
X6679586Y-13184484D02*
X6698634Y-13194008D01*
X6698634Y-13194008D02*
X6708158Y-13203531D01*
X6708158Y-13203531D02*
X6717682Y-13222579D01*
X6717682Y-13222579D02*
X6727205Y-13260674D01*
X6727205Y-13260674D02*
X6727205Y-13308293D01*
X6727205Y-13308293D02*
X6717682Y-13346388D01*
X6717682Y-13346388D02*
X6708158Y-13365436D01*
X6708158Y-13365436D02*
X6698634Y-13374960D01*
X6698634Y-13374960D02*
X6679586Y-13384484D01*
X6679586Y-13384484D02*
X6660539Y-13384484D01*
X6660539Y-13384484D02*
X6641491Y-13374960D01*
X6641491Y-13374960D02*
X6631967Y-13365436D01*
X6631967Y-13365436D02*
X6622443Y-13346388D01*
X6622443Y-13346388D02*
X6612920Y-13308293D01*
X6612920Y-13308293D02*
X6612920Y-13260674D01*
X6612920Y-13260674D02*
X6622443Y-13222579D01*
X6622443Y-13222579D02*
X6631967Y-13203531D01*
X6631967Y-13203531D02*
X6641491Y-13194008D01*
X6641491Y-13194008D02*
X6660539Y-13184484D01*
X6812920Y-13384484D02*
X6812920Y-13251150D01*
X6812920Y-13270198D02*
X6822443Y-13260674D01*
X6822443Y-13260674D02*
X6841491Y-13251150D01*
X6841491Y-13251150D02*
X6870063Y-13251150D01*
X6870063Y-13251150D02*
X6889110Y-13260674D01*
X6889110Y-13260674D02*
X6898634Y-13279722D01*
X6898634Y-13279722D02*
X6898634Y-13384484D01*
X6898634Y-13279722D02*
X6908158Y-13260674D01*
X6908158Y-13260674D02*
X6927205Y-13251150D01*
X6927205Y-13251150D02*
X6955777Y-13251150D01*
X6955777Y-13251150D02*
X6974824Y-13260674D01*
X6974824Y-13260674D02*
X6984348Y-13279722D01*
X6984348Y-13279722D02*
X6984348Y-13384484D01*
X7079586Y-13384484D02*
X7079586Y-13251150D01*
X7079586Y-13270198D02*
X7089110Y-13260674D01*
X7089110Y-13260674D02*
X7108158Y-13251150D01*
X7108158Y-13251150D02*
X7136729Y-13251150D01*
X7136729Y-13251150D02*
X7155777Y-13260674D01*
X7155777Y-13260674D02*
X7165301Y-13279722D01*
X7165301Y-13279722D02*
X7165301Y-13384484D01*
X7165301Y-13279722D02*
X7174824Y-13260674D01*
X7174824Y-13260674D02*
X7193872Y-13251150D01*
X7193872Y-13251150D02*
X7222443Y-13251150D01*
X7222443Y-13251150D02*
X7241491Y-13260674D01*
X7241491Y-13260674D02*
X7251015Y-13279722D01*
X7251015Y-13279722D02*
X7251015Y-13384484D01*
X7641491Y-13174960D02*
X7470063Y-13432103D01*
X7898634Y-13184484D02*
X7917682Y-13184484D01*
X7917682Y-13184484D02*
X7936729Y-13194008D01*
X7936729Y-13194008D02*
X7946253Y-13203531D01*
X7946253Y-13203531D02*
X7955777Y-13222579D01*
X7955777Y-13222579D02*
X7965301Y-13260674D01*
X7965301Y-13260674D02*
X7965301Y-13308293D01*
X7965301Y-13308293D02*
X7955777Y-13346388D01*
X7955777Y-13346388D02*
X7946253Y-13365436D01*
X7946253Y-13365436D02*
X7936729Y-13374960D01*
X7936729Y-13374960D02*
X7917682Y-13384484D01*
X7917682Y-13384484D02*
X7898634Y-13384484D01*
X7898634Y-13384484D02*
X7879586Y-13374960D01*
X7879586Y-13374960D02*
X7870063Y-13365436D01*
X7870063Y-13365436D02*
X7860539Y-13346388D01*
X7860539Y-13346388D02*
X7851015Y-13308293D01*
X7851015Y-13308293D02*
X7851015Y-13260674D01*
X7851015Y-13260674D02*
X7860539Y-13222579D01*
X7860539Y-13222579D02*
X7870063Y-13203531D01*
X7870063Y-13203531D02*
X7879586Y-13194008D01*
X7879586Y-13194008D02*
X7898634Y-13184484D01*
X8051015Y-13365436D02*
X8060539Y-13374960D01*
X8060539Y-13374960D02*
X8051015Y-13384484D01*
X8051015Y-13384484D02*
X8041491Y-13374960D01*
X8041491Y-13374960D02*
X8051015Y-13365436D01*
X8051015Y-13365436D02*
X8051015Y-13384484D01*
X8184348Y-13184484D02*
X8203396Y-13184484D01*
X8203396Y-13184484D02*
X8222444Y-13194008D01*
X8222444Y-13194008D02*
X8231967Y-13203531D01*
X8231967Y-13203531D02*
X8241491Y-13222579D01*
X8241491Y-13222579D02*
X8251015Y-13260674D01*
X8251015Y-13260674D02*
X8251015Y-13308293D01*
X8251015Y-13308293D02*
X8241491Y-13346388D01*
X8241491Y-13346388D02*
X8231967Y-13365436D01*
X8231967Y-13365436D02*
X8222444Y-13374960D01*
X8222444Y-13374960D02*
X8203396Y-13384484D01*
X8203396Y-13384484D02*
X8184348Y-13384484D01*
X8184348Y-13384484D02*
X8165301Y-13374960D01*
X8165301Y-13374960D02*
X8155777Y-13365436D01*
X8155777Y-13365436D02*
X8146253Y-13346388D01*
X8146253Y-13346388D02*
X8136729Y-13308293D01*
X8136729Y-13308293D02*
X8136729Y-13260674D01*
X8136729Y-13260674D02*
X8146253Y-13222579D01*
X8146253Y-13222579D02*
X8155777Y-13203531D01*
X8155777Y-13203531D02*
X8165301Y-13194008D01*
X8165301Y-13194008D02*
X8184348Y-13184484D01*
X8422444Y-13251150D02*
X8422444Y-13384484D01*
X8374825Y-13174960D02*
X8327206Y-13317817D01*
X8327206Y-13317817D02*
X8451015Y-13317817D01*
X8508158Y-13184484D02*
X8631968Y-13184484D01*
X8631968Y-13184484D02*
X8565301Y-13260674D01*
X8565301Y-13260674D02*
X8593872Y-13260674D01*
X8593872Y-13260674D02*
X8612920Y-13270198D01*
X8612920Y-13270198D02*
X8622444Y-13279722D01*
X8622444Y-13279722D02*
X8631968Y-13298769D01*
X8631968Y-13298769D02*
X8631968Y-13346388D01*
X8631968Y-13346388D02*
X8622444Y-13365436D01*
X8622444Y-13365436D02*
X8612920Y-13374960D01*
X8612920Y-13374960D02*
X8593872Y-13384484D01*
X8593872Y-13384484D02*
X8536729Y-13384484D01*
X8536729Y-13384484D02*
X8517682Y-13374960D01*
X8517682Y-13374960D02*
X8508158Y-13365436D01*
X8698634Y-13184484D02*
X8822444Y-13184484D01*
X8822444Y-13184484D02*
X8755777Y-13260674D01*
X8755777Y-13260674D02*
X8784349Y-13260674D01*
X8784349Y-13260674D02*
X8803396Y-13270198D01*
X8803396Y-13270198D02*
X8812920Y-13279722D01*
X8812920Y-13279722D02*
X8822444Y-13298769D01*
X8822444Y-13298769D02*
X8822444Y-13346388D01*
X8822444Y-13346388D02*
X8812920Y-13365436D01*
X8812920Y-13365436D02*
X8803396Y-13374960D01*
X8803396Y-13374960D02*
X8784349Y-13384484D01*
X8784349Y-13384484D02*
X8727206Y-13384484D01*
X8727206Y-13384484D02*
X8708158Y-13374960D01*
X8708158Y-13374960D02*
X8698634Y-13365436D01*
X8898634Y-13184484D02*
X8898634Y-13222579D01*
X8974825Y-13184484D02*
X8974825Y-13222579D01*
X9270063Y-13460674D02*
X9260539Y-13451150D01*
X9260539Y-13451150D02*
X9241491Y-13422579D01*
X9241491Y-13422579D02*
X9231968Y-13403531D01*
X9231968Y-13403531D02*
X9222444Y-13374960D01*
X9222444Y-13374960D02*
X9212920Y-13327341D01*
X9212920Y-13327341D02*
X9212920Y-13289246D01*
X9212920Y-13289246D02*
X9222444Y-13241627D01*
X9222444Y-13241627D02*
X9231968Y-13213055D01*
X9231968Y-13213055D02*
X9241491Y-13194008D01*
X9241491Y-13194008D02*
X9260539Y-13165436D01*
X9260539Y-13165436D02*
X9270063Y-13155912D01*
X9374825Y-13270198D02*
X9355777Y-13260674D01*
X9355777Y-13260674D02*
X9346253Y-13251150D01*
X9346253Y-13251150D02*
X9336730Y-13232103D01*
X9336730Y-13232103D02*
X9336730Y-13222579D01*
X9336730Y-13222579D02*
X9346253Y-13203531D01*
X9346253Y-13203531D02*
X9355777Y-13194008D01*
X9355777Y-13194008D02*
X9374825Y-13184484D01*
X9374825Y-13184484D02*
X9412920Y-13184484D01*
X9412920Y-13184484D02*
X9431968Y-13194008D01*
X9431968Y-13194008D02*
X9441491Y-13203531D01*
X9441491Y-13203531D02*
X9451015Y-13222579D01*
X9451015Y-13222579D02*
X9451015Y-13232103D01*
X9451015Y-13232103D02*
X9441491Y-13251150D01*
X9441491Y-13251150D02*
X9431968Y-13260674D01*
X9431968Y-13260674D02*
X9412920Y-13270198D01*
X9412920Y-13270198D02*
X9374825Y-13270198D01*
X9374825Y-13270198D02*
X9355777Y-13279722D01*
X9355777Y-13279722D02*
X9346253Y-13289246D01*
X9346253Y-13289246D02*
X9336730Y-13308293D01*
X9336730Y-13308293D02*
X9336730Y-13346388D01*
X9336730Y-13346388D02*
X9346253Y-13365436D01*
X9346253Y-13365436D02*
X9355777Y-13374960D01*
X9355777Y-13374960D02*
X9374825Y-13384484D01*
X9374825Y-13384484D02*
X9412920Y-13384484D01*
X9412920Y-13384484D02*
X9431968Y-13374960D01*
X9431968Y-13374960D02*
X9441491Y-13365436D01*
X9441491Y-13365436D02*
X9451015Y-13346388D01*
X9451015Y-13346388D02*
X9451015Y-13308293D01*
X9451015Y-13308293D02*
X9441491Y-13289246D01*
X9441491Y-13289246D02*
X9431968Y-13279722D01*
X9431968Y-13279722D02*
X9412920Y-13270198D01*
X9689111Y-13384484D02*
X9689111Y-13184484D01*
X9774825Y-13384484D02*
X9774825Y-13279722D01*
X9774825Y-13279722D02*
X9765301Y-13260674D01*
X9765301Y-13260674D02*
X9746253Y-13251150D01*
X9746253Y-13251150D02*
X9717682Y-13251150D01*
X9717682Y-13251150D02*
X9698634Y-13260674D01*
X9698634Y-13260674D02*
X9689111Y-13270198D01*
X9898634Y-13384484D02*
X9879587Y-13374960D01*
X9879587Y-13374960D02*
X9870063Y-13365436D01*
X9870063Y-13365436D02*
X9860539Y-13346388D01*
X9860539Y-13346388D02*
X9860539Y-13289246D01*
X9860539Y-13289246D02*
X9870063Y-13270198D01*
X9870063Y-13270198D02*
X9879587Y-13260674D01*
X9879587Y-13260674D02*
X9898634Y-13251150D01*
X9898634Y-13251150D02*
X9927206Y-13251150D01*
X9927206Y-13251150D02*
X9946253Y-13260674D01*
X9946253Y-13260674D02*
X9955777Y-13270198D01*
X9955777Y-13270198D02*
X9965301Y-13289246D01*
X9965301Y-13289246D02*
X9965301Y-13346388D01*
X9965301Y-13346388D02*
X9955777Y-13365436D01*
X9955777Y-13365436D02*
X9946253Y-13374960D01*
X9946253Y-13374960D02*
X9927206Y-13384484D01*
X9927206Y-13384484D02*
X9898634Y-13384484D01*
X10079587Y-13384484D02*
X10060539Y-13374960D01*
X10060539Y-13374960D02*
X10051015Y-13355912D01*
X10051015Y-13355912D02*
X10051015Y-13184484D01*
X10231968Y-13374960D02*
X10212920Y-13384484D01*
X10212920Y-13384484D02*
X10174825Y-13384484D01*
X10174825Y-13384484D02*
X10155777Y-13374960D01*
X10155777Y-13374960D02*
X10146253Y-13355912D01*
X10146253Y-13355912D02*
X10146253Y-13279722D01*
X10146253Y-13279722D02*
X10155777Y-13260674D01*
X10155777Y-13260674D02*
X10174825Y-13251150D01*
X10174825Y-13251150D02*
X10212920Y-13251150D01*
X10212920Y-13251150D02*
X10231968Y-13260674D01*
X10231968Y-13260674D02*
X10241492Y-13279722D01*
X10241492Y-13279722D02*
X10241492Y-13298769D01*
X10241492Y-13298769D02*
X10146253Y-13317817D01*
X10317682Y-13374960D02*
X10336730Y-13384484D01*
X10336730Y-13384484D02*
X10374825Y-13384484D01*
X10374825Y-13384484D02*
X10393873Y-13374960D01*
X10393873Y-13374960D02*
X10403396Y-13355912D01*
X10403396Y-13355912D02*
X10403396Y-13346388D01*
X10403396Y-13346388D02*
X10393873Y-13327341D01*
X10393873Y-13327341D02*
X10374825Y-13317817D01*
X10374825Y-13317817D02*
X10346253Y-13317817D01*
X10346253Y-13317817D02*
X10327206Y-13308293D01*
X10327206Y-13308293D02*
X10317682Y-13289246D01*
X10317682Y-13289246D02*
X10317682Y-13279722D01*
X10317682Y-13279722D02*
X10327206Y-13260674D01*
X10327206Y-13260674D02*
X10346253Y-13251150D01*
X10346253Y-13251150D02*
X10374825Y-13251150D01*
X10374825Y-13251150D02*
X10393873Y-13260674D01*
X10470063Y-13460674D02*
X10479587Y-13451150D01*
X10479587Y-13451150D02*
X10498634Y-13422579D01*
X10498634Y-13422579D02*
X10508158Y-13403531D01*
X10508158Y-13403531D02*
X10517682Y-13374960D01*
X10517682Y-13374960D02*
X10527206Y-13327341D01*
X10527206Y-13327341D02*
X10527206Y-13289246D01*
X10527206Y-13289246D02*
X10517682Y-13241627D01*
X10517682Y-13241627D02*
X10508158Y-13213055D01*
X10508158Y-13213055D02*
X10498634Y-13194008D01*
X10498634Y-13194008D02*
X10479587Y-13165436D01*
X10479587Y-13165436D02*
X10470063Y-13155912D01*
X5495000Y-13457000D02*
X5695000Y-13657000D01*
X5695000Y-13457000D02*
X5495000Y-13657000D01*
X5595000Y-13657000D02*
X5695000Y-13557000D01*
X5595000Y-13457000D01*
X5495000Y-13557000D01*
X5595000Y-13657000D01*
X5936729Y-13448484D02*
X6060539Y-13448484D01*
X6060539Y-13448484D02*
X5993872Y-13524674D01*
X5993872Y-13524674D02*
X6022443Y-13524674D01*
X6022443Y-13524674D02*
X6041491Y-13534198D01*
X6041491Y-13534198D02*
X6051015Y-13543722D01*
X6051015Y-13543722D02*
X6060539Y-13562769D01*
X6060539Y-13562769D02*
X6060539Y-13610388D01*
X6060539Y-13610388D02*
X6051015Y-13629436D01*
X6051015Y-13629436D02*
X6041491Y-13638960D01*
X6041491Y-13638960D02*
X6022443Y-13648484D01*
X6022443Y-13648484D02*
X5965301Y-13648484D01*
X5965301Y-13648484D02*
X5946253Y-13638960D01*
X5946253Y-13638960D02*
X5936729Y-13629436D01*
X6146253Y-13629436D02*
X6155777Y-13638960D01*
X6155777Y-13638960D02*
X6146253Y-13648484D01*
X6146253Y-13648484D02*
X6136729Y-13638960D01*
X6136729Y-13638960D02*
X6146253Y-13629436D01*
X6146253Y-13629436D02*
X6146253Y-13648484D01*
X6231967Y-13467531D02*
X6241491Y-13458008D01*
X6241491Y-13458008D02*
X6260539Y-13448484D01*
X6260539Y-13448484D02*
X6308158Y-13448484D01*
X6308158Y-13448484D02*
X6327205Y-13458008D01*
X6327205Y-13458008D02*
X6336729Y-13467531D01*
X6336729Y-13467531D02*
X6346253Y-13486579D01*
X6346253Y-13486579D02*
X6346253Y-13505627D01*
X6346253Y-13505627D02*
X6336729Y-13534198D01*
X6336729Y-13534198D02*
X6222443Y-13648484D01*
X6222443Y-13648484D02*
X6346253Y-13648484D01*
X6470062Y-13448484D02*
X6489110Y-13448484D01*
X6489110Y-13448484D02*
X6508158Y-13458008D01*
X6508158Y-13458008D02*
X6517682Y-13467531D01*
X6517682Y-13467531D02*
X6527205Y-13486579D01*
X6527205Y-13486579D02*
X6536729Y-13524674D01*
X6536729Y-13524674D02*
X6536729Y-13572293D01*
X6536729Y-13572293D02*
X6527205Y-13610388D01*
X6527205Y-13610388D02*
X6517682Y-13629436D01*
X6517682Y-13629436D02*
X6508158Y-13638960D01*
X6508158Y-13638960D02*
X6489110Y-13648484D01*
X6489110Y-13648484D02*
X6470062Y-13648484D01*
X6470062Y-13648484D02*
X6451015Y-13638960D01*
X6451015Y-13638960D02*
X6441491Y-13629436D01*
X6441491Y-13629436D02*
X6431967Y-13610388D01*
X6431967Y-13610388D02*
X6422443Y-13572293D01*
X6422443Y-13572293D02*
X6422443Y-13524674D01*
X6422443Y-13524674D02*
X6431967Y-13486579D01*
X6431967Y-13486579D02*
X6441491Y-13467531D01*
X6441491Y-13467531D02*
X6451015Y-13458008D01*
X6451015Y-13458008D02*
X6470062Y-13448484D01*
X6660539Y-13448484D02*
X6679586Y-13448484D01*
X6679586Y-13448484D02*
X6698634Y-13458008D01*
X6698634Y-13458008D02*
X6708158Y-13467531D01*
X6708158Y-13467531D02*
X6717682Y-13486579D01*
X6717682Y-13486579D02*
X6727205Y-13524674D01*
X6727205Y-13524674D02*
X6727205Y-13572293D01*
X6727205Y-13572293D02*
X6717682Y-13610388D01*
X6717682Y-13610388D02*
X6708158Y-13629436D01*
X6708158Y-13629436D02*
X6698634Y-13638960D01*
X6698634Y-13638960D02*
X6679586Y-13648484D01*
X6679586Y-13648484D02*
X6660539Y-13648484D01*
X6660539Y-13648484D02*
X6641491Y-13638960D01*
X6641491Y-13638960D02*
X6631967Y-13629436D01*
X6631967Y-13629436D02*
X6622443Y-13610388D01*
X6622443Y-13610388D02*
X6612920Y-13572293D01*
X6612920Y-13572293D02*
X6612920Y-13524674D01*
X6612920Y-13524674D02*
X6622443Y-13486579D01*
X6622443Y-13486579D02*
X6631967Y-13467531D01*
X6631967Y-13467531D02*
X6641491Y-13458008D01*
X6641491Y-13458008D02*
X6660539Y-13448484D01*
X6812920Y-13648484D02*
X6812920Y-13515150D01*
X6812920Y-13534198D02*
X6822443Y-13524674D01*
X6822443Y-13524674D02*
X6841491Y-13515150D01*
X6841491Y-13515150D02*
X6870063Y-13515150D01*
X6870063Y-13515150D02*
X6889110Y-13524674D01*
X6889110Y-13524674D02*
X6898634Y-13543722D01*
X6898634Y-13543722D02*
X6898634Y-13648484D01*
X6898634Y-13543722D02*
X6908158Y-13524674D01*
X6908158Y-13524674D02*
X6927205Y-13515150D01*
X6927205Y-13515150D02*
X6955777Y-13515150D01*
X6955777Y-13515150D02*
X6974824Y-13524674D01*
X6974824Y-13524674D02*
X6984348Y-13543722D01*
X6984348Y-13543722D02*
X6984348Y-13648484D01*
X7079586Y-13648484D02*
X7079586Y-13515150D01*
X7079586Y-13534198D02*
X7089110Y-13524674D01*
X7089110Y-13524674D02*
X7108158Y-13515150D01*
X7108158Y-13515150D02*
X7136729Y-13515150D01*
X7136729Y-13515150D02*
X7155777Y-13524674D01*
X7155777Y-13524674D02*
X7165301Y-13543722D01*
X7165301Y-13543722D02*
X7165301Y-13648484D01*
X7165301Y-13543722D02*
X7174824Y-13524674D01*
X7174824Y-13524674D02*
X7193872Y-13515150D01*
X7193872Y-13515150D02*
X7222443Y-13515150D01*
X7222443Y-13515150D02*
X7241491Y-13524674D01*
X7241491Y-13524674D02*
X7251015Y-13543722D01*
X7251015Y-13543722D02*
X7251015Y-13648484D01*
X7641491Y-13438960D02*
X7470063Y-13696103D01*
X7898634Y-13448484D02*
X7917682Y-13448484D01*
X7917682Y-13448484D02*
X7936729Y-13458008D01*
X7936729Y-13458008D02*
X7946253Y-13467531D01*
X7946253Y-13467531D02*
X7955777Y-13486579D01*
X7955777Y-13486579D02*
X7965301Y-13524674D01*
X7965301Y-13524674D02*
X7965301Y-13572293D01*
X7965301Y-13572293D02*
X7955777Y-13610388D01*
X7955777Y-13610388D02*
X7946253Y-13629436D01*
X7946253Y-13629436D02*
X7936729Y-13638960D01*
X7936729Y-13638960D02*
X7917682Y-13648484D01*
X7917682Y-13648484D02*
X7898634Y-13648484D01*
X7898634Y-13648484D02*
X7879586Y-13638960D01*
X7879586Y-13638960D02*
X7870063Y-13629436D01*
X7870063Y-13629436D02*
X7860539Y-13610388D01*
X7860539Y-13610388D02*
X7851015Y-13572293D01*
X7851015Y-13572293D02*
X7851015Y-13524674D01*
X7851015Y-13524674D02*
X7860539Y-13486579D01*
X7860539Y-13486579D02*
X7870063Y-13467531D01*
X7870063Y-13467531D02*
X7879586Y-13458008D01*
X7879586Y-13458008D02*
X7898634Y-13448484D01*
X8051015Y-13629436D02*
X8060539Y-13638960D01*
X8060539Y-13638960D02*
X8051015Y-13648484D01*
X8051015Y-13648484D02*
X8041491Y-13638960D01*
X8041491Y-13638960D02*
X8051015Y-13629436D01*
X8051015Y-13629436D02*
X8051015Y-13648484D01*
X8251015Y-13648484D02*
X8136729Y-13648484D01*
X8193872Y-13648484D02*
X8193872Y-13448484D01*
X8193872Y-13448484D02*
X8174825Y-13477055D01*
X8174825Y-13477055D02*
X8155777Y-13496103D01*
X8155777Y-13496103D02*
X8136729Y-13505627D01*
X8327206Y-13467531D02*
X8336729Y-13458008D01*
X8336729Y-13458008D02*
X8355777Y-13448484D01*
X8355777Y-13448484D02*
X8403396Y-13448484D01*
X8403396Y-13448484D02*
X8422444Y-13458008D01*
X8422444Y-13458008D02*
X8431968Y-13467531D01*
X8431968Y-13467531D02*
X8441491Y-13486579D01*
X8441491Y-13486579D02*
X8441491Y-13505627D01*
X8441491Y-13505627D02*
X8431968Y-13534198D01*
X8431968Y-13534198D02*
X8317682Y-13648484D01*
X8317682Y-13648484D02*
X8441491Y-13648484D01*
X8612920Y-13448484D02*
X8574825Y-13448484D01*
X8574825Y-13448484D02*
X8555777Y-13458008D01*
X8555777Y-13458008D02*
X8546253Y-13467531D01*
X8546253Y-13467531D02*
X8527206Y-13496103D01*
X8527206Y-13496103D02*
X8517682Y-13534198D01*
X8517682Y-13534198D02*
X8517682Y-13610388D01*
X8517682Y-13610388D02*
X8527206Y-13629436D01*
X8527206Y-13629436D02*
X8536729Y-13638960D01*
X8536729Y-13638960D02*
X8555777Y-13648484D01*
X8555777Y-13648484D02*
X8593872Y-13648484D01*
X8593872Y-13648484D02*
X8612920Y-13638960D01*
X8612920Y-13638960D02*
X8622444Y-13629436D01*
X8622444Y-13629436D02*
X8631968Y-13610388D01*
X8631968Y-13610388D02*
X8631968Y-13562769D01*
X8631968Y-13562769D02*
X8622444Y-13543722D01*
X8622444Y-13543722D02*
X8612920Y-13534198D01*
X8612920Y-13534198D02*
X8593872Y-13524674D01*
X8593872Y-13524674D02*
X8555777Y-13524674D01*
X8555777Y-13524674D02*
X8536729Y-13534198D01*
X8536729Y-13534198D02*
X8527206Y-13543722D01*
X8527206Y-13543722D02*
X8517682Y-13562769D01*
X8755777Y-13448484D02*
X8774825Y-13448484D01*
X8774825Y-13448484D02*
X8793872Y-13458008D01*
X8793872Y-13458008D02*
X8803396Y-13467531D01*
X8803396Y-13467531D02*
X8812920Y-13486579D01*
X8812920Y-13486579D02*
X8822444Y-13524674D01*
X8822444Y-13524674D02*
X8822444Y-13572293D01*
X8822444Y-13572293D02*
X8812920Y-13610388D01*
X8812920Y-13610388D02*
X8803396Y-13629436D01*
X8803396Y-13629436D02*
X8793872Y-13638960D01*
X8793872Y-13638960D02*
X8774825Y-13648484D01*
X8774825Y-13648484D02*
X8755777Y-13648484D01*
X8755777Y-13648484D02*
X8736729Y-13638960D01*
X8736729Y-13638960D02*
X8727206Y-13629436D01*
X8727206Y-13629436D02*
X8717682Y-13610388D01*
X8717682Y-13610388D02*
X8708158Y-13572293D01*
X8708158Y-13572293D02*
X8708158Y-13524674D01*
X8708158Y-13524674D02*
X8717682Y-13486579D01*
X8717682Y-13486579D02*
X8727206Y-13467531D01*
X8727206Y-13467531D02*
X8736729Y-13458008D01*
X8736729Y-13458008D02*
X8755777Y-13448484D01*
X8898634Y-13448484D02*
X8898634Y-13486579D01*
X8974825Y-13448484D02*
X8974825Y-13486579D01*
X9270063Y-13724674D02*
X9260539Y-13715150D01*
X9260539Y-13715150D02*
X9241491Y-13686579D01*
X9241491Y-13686579D02*
X9231968Y-13667531D01*
X9231968Y-13667531D02*
X9222444Y-13638960D01*
X9222444Y-13638960D02*
X9212920Y-13591341D01*
X9212920Y-13591341D02*
X9212920Y-13553246D01*
X9212920Y-13553246D02*
X9222444Y-13505627D01*
X9222444Y-13505627D02*
X9231968Y-13477055D01*
X9231968Y-13477055D02*
X9241491Y-13458008D01*
X9241491Y-13458008D02*
X9260539Y-13429436D01*
X9260539Y-13429436D02*
X9270063Y-13419912D01*
X9336730Y-13467531D02*
X9346253Y-13458008D01*
X9346253Y-13458008D02*
X9365301Y-13448484D01*
X9365301Y-13448484D02*
X9412920Y-13448484D01*
X9412920Y-13448484D02*
X9431968Y-13458008D01*
X9431968Y-13458008D02*
X9441491Y-13467531D01*
X9441491Y-13467531D02*
X9451015Y-13486579D01*
X9451015Y-13486579D02*
X9451015Y-13505627D01*
X9451015Y-13505627D02*
X9441491Y-13534198D01*
X9441491Y-13534198D02*
X9327206Y-13648484D01*
X9327206Y-13648484D02*
X9451015Y-13648484D01*
X9689111Y-13648484D02*
X9689111Y-13448484D01*
X9774825Y-13648484D02*
X9774825Y-13543722D01*
X9774825Y-13543722D02*
X9765301Y-13524674D01*
X9765301Y-13524674D02*
X9746253Y-13515150D01*
X9746253Y-13515150D02*
X9717682Y-13515150D01*
X9717682Y-13515150D02*
X9698634Y-13524674D01*
X9698634Y-13524674D02*
X9689111Y-13534198D01*
X9898634Y-13648484D02*
X9879587Y-13638960D01*
X9879587Y-13638960D02*
X9870063Y-13629436D01*
X9870063Y-13629436D02*
X9860539Y-13610388D01*
X9860539Y-13610388D02*
X9860539Y-13553246D01*
X9860539Y-13553246D02*
X9870063Y-13534198D01*
X9870063Y-13534198D02*
X9879587Y-13524674D01*
X9879587Y-13524674D02*
X9898634Y-13515150D01*
X9898634Y-13515150D02*
X9927206Y-13515150D01*
X9927206Y-13515150D02*
X9946253Y-13524674D01*
X9946253Y-13524674D02*
X9955777Y-13534198D01*
X9955777Y-13534198D02*
X9965301Y-13553246D01*
X9965301Y-13553246D02*
X9965301Y-13610388D01*
X9965301Y-13610388D02*
X9955777Y-13629436D01*
X9955777Y-13629436D02*
X9946253Y-13638960D01*
X9946253Y-13638960D02*
X9927206Y-13648484D01*
X9927206Y-13648484D02*
X9898634Y-13648484D01*
X10079587Y-13648484D02*
X10060539Y-13638960D01*
X10060539Y-13638960D02*
X10051015Y-13619912D01*
X10051015Y-13619912D02*
X10051015Y-13448484D01*
X10231968Y-13638960D02*
X10212920Y-13648484D01*
X10212920Y-13648484D02*
X10174825Y-13648484D01*
X10174825Y-13648484D02*
X10155777Y-13638960D01*
X10155777Y-13638960D02*
X10146253Y-13619912D01*
X10146253Y-13619912D02*
X10146253Y-13543722D01*
X10146253Y-13543722D02*
X10155777Y-13524674D01*
X10155777Y-13524674D02*
X10174825Y-13515150D01*
X10174825Y-13515150D02*
X10212920Y-13515150D01*
X10212920Y-13515150D02*
X10231968Y-13524674D01*
X10231968Y-13524674D02*
X10241492Y-13543722D01*
X10241492Y-13543722D02*
X10241492Y-13562769D01*
X10241492Y-13562769D02*
X10146253Y-13581817D01*
X10317682Y-13638960D02*
X10336730Y-13648484D01*
X10336730Y-13648484D02*
X10374825Y-13648484D01*
X10374825Y-13648484D02*
X10393873Y-13638960D01*
X10393873Y-13638960D02*
X10403396Y-13619912D01*
X10403396Y-13619912D02*
X10403396Y-13610388D01*
X10403396Y-13610388D02*
X10393873Y-13591341D01*
X10393873Y-13591341D02*
X10374825Y-13581817D01*
X10374825Y-13581817D02*
X10346253Y-13581817D01*
X10346253Y-13581817D02*
X10327206Y-13572293D01*
X10327206Y-13572293D02*
X10317682Y-13553246D01*
X10317682Y-13553246D02*
X10317682Y-13543722D01*
X10317682Y-13543722D02*
X10327206Y-13524674D01*
X10327206Y-13524674D02*
X10346253Y-13515150D01*
X10346253Y-13515150D02*
X10374825Y-13515150D01*
X10374825Y-13515150D02*
X10393873Y-13524674D01*
X10470063Y-13724674D02*
X10479587Y-13715150D01*
X10479587Y-13715150D02*
X10498634Y-13686579D01*
X10498634Y-13686579D02*
X10508158Y-13667531D01*
X10508158Y-13667531D02*
X10517682Y-13638960D01*
X10517682Y-13638960D02*
X10527206Y-13591341D01*
X10527206Y-13591341D02*
X10527206Y-13553246D01*
X10527206Y-13553246D02*
X10517682Y-13505627D01*
X10517682Y-13505627D02*
X10508158Y-13477055D01*
X10508158Y-13477055D02*
X10498634Y-13458008D01*
X10498634Y-13458008D02*
X10479587Y-13429436D01*
X10479587Y-13429436D02*
X10470063Y-13419912D01*
M02*
