%TF.GenerationSoftware,KiCad,Pcbnew,9.0.5*%
%TF.CreationDate,2025-10-13T21:08:30-04:00*%
%TF.ProjectId,STM32-flight-computer,53544d33-322d-4666-9c69-6768742d636f,rev?*%
%TF.SameCoordinates,Original*%
%TF.FileFunction,Soldermask,Top*%
%TF.FilePolarity,Negative*%
%FSLAX46Y46*%
G04 Gerber Fmt 4.6, Leading zero omitted, Abs format (unit mm)*
G04 Created by KiCad (PCBNEW 9.0.5) date 2025-10-13 21:08:30*
%MOMM*%
%LPD*%
G01*
G04 APERTURE LIST*
G04 Aperture macros list*
%AMRoundRect*
0 Rectangle with rounded corners*
0 $1 Rounding radius*
0 $2 $3 $4 $5 $6 $7 $8 $9 X,Y pos of 4 corners*
0 Add a 4 corners polygon primitive as box body*
4,1,4,$2,$3,$4,$5,$6,$7,$8,$9,$2,$3,0*
0 Add four circle primitives for the rounded corners*
1,1,$1+$1,$2,$3*
1,1,$1+$1,$4,$5*
1,1,$1+$1,$6,$7*
1,1,$1+$1,$8,$9*
0 Add four rect primitives between the rounded corners*
20,1,$1+$1,$2,$3,$4,$5,0*
20,1,$1+$1,$4,$5,$6,$7,0*
20,1,$1+$1,$6,$7,$8,$9,0*
20,1,$1+$1,$8,$9,$2,$3,0*%
G04 Aperture macros list end*
%ADD10RoundRect,0.225000X0.250000X-0.225000X0.250000X0.225000X-0.250000X0.225000X-0.250000X-0.225000X0*%
%ADD11RoundRect,0.075000X-0.106066X0.000000X0.000000X-0.106066X0.106066X0.000000X0.000000X0.106066X0*%
%ADD12RoundRect,0.102000X0.415000X0.135000X-0.415000X0.135000X-0.415000X-0.135000X0.415000X-0.135000X0*%
%ADD13RoundRect,0.102000X0.135000X0.415000X-0.135000X0.415000X-0.135000X-0.415000X0.135000X-0.415000X0*%
%ADD14C,0.250000*%
%ADD15RoundRect,0.200000X-0.275000X0.200000X-0.275000X-0.200000X0.275000X-0.200000X0.275000X0.200000X0*%
%ADD16RoundRect,0.249999X-0.850001X0.850001X-0.850001X-0.850001X0.850001X-0.850001X0.850001X0.850001X0*%
%ADD17C,2.200000*%
%ADD18RoundRect,0.243750X-0.243750X-0.456250X0.243750X-0.456250X0.243750X0.456250X-0.243750X0.456250X0*%
%ADD19RoundRect,0.250000X0.600000X0.750000X-0.600000X0.750000X-0.600000X-0.750000X0.600000X-0.750000X0*%
%ADD20O,1.700000X2.000000*%
%ADD21RoundRect,0.225000X0.225000X0.250000X-0.225000X0.250000X-0.225000X-0.250000X0.225000X-0.250000X0*%
%ADD22R,0.350000X0.590000*%
%ADD23R,0.590000X0.350000*%
%ADD24RoundRect,0.250000X-0.600000X-0.725000X0.600000X-0.725000X0.600000X0.725000X-0.600000X0.725000X0*%
%ADD25O,1.700000X1.950000*%
%ADD26RoundRect,0.135000X-0.185000X0.135000X-0.185000X-0.135000X0.185000X-0.135000X0.185000X0.135000X0*%
%ADD27RoundRect,0.225000X-0.250000X0.225000X-0.250000X-0.225000X0.250000X-0.225000X0.250000X0.225000X0*%
%ADD28RoundRect,0.225000X-0.225000X-0.250000X0.225000X-0.250000X0.225000X0.250000X-0.225000X0.250000X0*%
%ADD29R,1.700000X1.700000*%
%ADD30C,1.700000*%
%ADD31RoundRect,0.135000X0.185000X-0.135000X0.185000X0.135000X-0.185000X0.135000X-0.185000X-0.135000X0*%
%ADD32RoundRect,0.000001X-0.900000X-0.750000X0.900000X-0.750000X0.900000X0.750000X-0.900000X0.750000X0*%
%ADD33RoundRect,0.000001X-0.750000X-0.900000X0.750000X-0.900000X0.750000X0.900000X-0.750000X0.900000X0*%
%ADD34RoundRect,0.225000X-0.017678X0.335876X-0.335876X0.017678X0.017678X-0.335876X0.335876X-0.017678X0*%
%ADD35R,1.250000X0.600000*%
%ADD36R,0.600000X1.250000*%
%ADD37C,6.400000*%
%ADD38R,2.000000X2.000000*%
%ADD39C,2.000000*%
%ADD40RoundRect,0.250000X-1.075000X0.375000X-1.075000X-0.375000X1.075000X-0.375000X1.075000X0.375000X0*%
%ADD41RoundRect,0.102000X0.175000X0.175000X-0.175000X0.175000X-0.175000X-0.175000X0.175000X-0.175000X0*%
%ADD42RoundRect,0.250000X-0.250000X-0.475000X0.250000X-0.475000X0.250000X0.475000X-0.250000X0.475000X0*%
%ADD43RoundRect,0.243750X0.243750X0.456250X-0.243750X0.456250X-0.243750X-0.456250X0.243750X-0.456250X0*%
%ADD44RoundRect,0.243750X0.456250X-0.243750X0.456250X0.243750X-0.456250X0.243750X-0.456250X-0.243750X0*%
%ADD45RoundRect,0.225000X0.017678X-0.335876X0.335876X-0.017678X-0.017678X0.335876X-0.335876X0.017678X0*%
%ADD46R,5.080000X2.420000*%
%ADD47C,0.650000*%
%ADD48O,1.000000X1.800000*%
%ADD49O,1.000000X2.100000*%
G04 APERTURE END LIST*
D10*
%TO.C,C5*%
X84375000Y-91150000D03*
X84375000Y-89600000D03*
%TD*%
D11*
%TO.C,U9*%
X89851992Y-97878033D03*
X90346967Y-98373008D03*
X90700520Y-97524480D03*
%TD*%
D12*
%TO.C,U11*%
X70720000Y-96250000D03*
X70720000Y-95750000D03*
X70720000Y-95250000D03*
X70720000Y-94750000D03*
X70720000Y-94250000D03*
D13*
X69750000Y-93780000D03*
X69250000Y-93780000D03*
X68750000Y-93780000D03*
D12*
X67780000Y-94250000D03*
X67780000Y-94750000D03*
X67780000Y-95250000D03*
X67780000Y-95750000D03*
X67780000Y-96250000D03*
D13*
X68750000Y-96720000D03*
X69250000Y-96720000D03*
X69750000Y-96720000D03*
%TD*%
D14*
%TO.C,U10*%
X62375000Y-99500000D03*
X61975000Y-99500000D03*
X62375000Y-99100000D03*
X61975000Y-99100000D03*
%TD*%
D15*
%TO.C,R36*%
X101500000Y-90675000D03*
X101500000Y-92325000D03*
%TD*%
D16*
%TO.C,J1*%
X62250000Y-77050000D03*
D17*
X62250000Y-79590000D03*
X62250000Y-82129999D03*
X62250000Y-84670000D03*
X62250000Y-87210000D03*
X62250000Y-89750000D03*
X62250000Y-92290000D03*
X62250000Y-94830001D03*
%TD*%
D18*
%TO.C,D6*%
X58062500Y-99125000D03*
X59937500Y-99125000D03*
%TD*%
D19*
%TO.C,J3*%
X81250001Y-104875000D03*
D20*
X78750001Y-104875000D03*
%TD*%
D21*
%TO.C,C18*%
X77125000Y-97750000D03*
X75575000Y-97750000D03*
%TD*%
%TO.C,C17*%
X77650000Y-92500000D03*
X76100000Y-92500000D03*
%TD*%
D22*
%TO.C,U14*%
X78125000Y-96277500D03*
X77625000Y-96277500D03*
X77125000Y-96277500D03*
X76625000Y-96277500D03*
X76125000Y-96277500D03*
X75625000Y-96277500D03*
X75125000Y-96277500D03*
D23*
X74710000Y-95112500D03*
D22*
X75125000Y-93947500D03*
X75625000Y-93947500D03*
X76125000Y-93947500D03*
X76625000Y-93947500D03*
X77125000Y-93947500D03*
X77625000Y-93947500D03*
X78125000Y-93947500D03*
D23*
X78540000Y-95112500D03*
%TD*%
D24*
%TO.C,J6*%
X85250000Y-79250000D03*
D25*
X87750000Y-79250000D03*
X90250000Y-79250000D03*
X92750000Y-79250000D03*
%TD*%
D26*
%TO.C,R29*%
X88500000Y-102500000D03*
X88500000Y-103519998D03*
%TD*%
D27*
%TO.C,C15*%
X90750000Y-87850000D03*
X90750000Y-89400000D03*
%TD*%
D28*
%TO.C,C3*%
X85850000Y-87250000D03*
X87400000Y-87250000D03*
%TD*%
D10*
%TO.C,C25*%
X84375000Y-94150000D03*
X84375000Y-92600000D03*
%TD*%
D29*
%TO.C,J5*%
X107745000Y-77000000D03*
D30*
X105205000Y-77000000D03*
X102665001Y-77000000D03*
X100125000Y-77000000D03*
X97585000Y-77000000D03*
%TD*%
D31*
%TO.C,R19*%
X85812500Y-93135000D03*
X85812500Y-92115000D03*
%TD*%
D32*
%TO.C,U12*%
X67550000Y-79375000D03*
X67550000Y-81275000D03*
X67550000Y-83175000D03*
X67550000Y-85075000D03*
X67550000Y-86975000D03*
D33*
X70350000Y-89775000D03*
X72250000Y-89775000D03*
X74150000Y-89775000D03*
X76050000Y-89775000D03*
X77950000Y-89775000D03*
D32*
X80750000Y-86975000D03*
X80750000Y-85075000D03*
X80750000Y-83175000D03*
X80750000Y-81275000D03*
X80750000Y-79375000D03*
D33*
X77950000Y-76575000D03*
X76050000Y-76575000D03*
X74150000Y-76575000D03*
X72250000Y-76575000D03*
X70350000Y-76575000D03*
%TD*%
D34*
%TO.C,C19*%
X72298008Y-97701992D03*
X71201992Y-98798008D03*
%TD*%
D26*
%TO.C,R28*%
X91000000Y-102500000D03*
X91000000Y-103519998D03*
%TD*%
D28*
%TO.C,C4*%
X87350000Y-88750000D03*
X88900000Y-88750000D03*
%TD*%
D27*
%TO.C,C6*%
X82875000Y-89600000D03*
X82875000Y-91150000D03*
%TD*%
D35*
%TO.C,U4*%
X107000000Y-103750000D03*
X107000000Y-102650000D03*
X107000000Y-101550000D03*
X107000000Y-100450000D03*
X107000000Y-99350000D03*
X107000000Y-98250000D03*
X107000000Y-97150000D03*
X107000000Y-96050000D03*
D36*
X104500000Y-95350000D03*
X103300000Y-95350000D03*
D35*
X97600000Y-96050000D03*
X97600000Y-97150000D03*
X97600000Y-98250000D03*
X97600000Y-99350000D03*
X97600000Y-100450000D03*
X97600000Y-101550000D03*
X97600000Y-102650000D03*
X97600000Y-103750000D03*
X97600000Y-104850000D03*
X97600000Y-105950000D03*
%TD*%
D37*
%TO.C,H2*%
X60000000Y-105000000D03*
%TD*%
D38*
%TO.C,BZ1*%
X109500000Y-84879216D03*
D39*
X109500000Y-89879216D03*
%TD*%
D40*
%TO.C,L1*%
X94000000Y-95850001D03*
X94000000Y-98649999D03*
%TD*%
D10*
%TO.C,C24*%
X84375000Y-97150000D03*
X84375000Y-95600000D03*
%TD*%
D28*
%TO.C,C20*%
X67225000Y-98250000D03*
X68775000Y-98250000D03*
%TD*%
D41*
%TO.C,U13*%
X81400000Y-96100000D03*
X81400000Y-95450000D03*
X81400000Y-94800000D03*
X81400000Y-94150000D03*
X82850000Y-94150000D03*
X82850000Y-94800000D03*
X82850000Y-95450000D03*
X82850000Y-96100000D03*
%TD*%
D37*
%TO.C,H1*%
X113000000Y-78000000D03*
%TD*%
D10*
%TO.C,C7*%
X85875000Y-90275000D03*
X85875000Y-88725000D03*
%TD*%
D42*
%TO.C,C21*%
X66050000Y-100000000D03*
X67950000Y-100000000D03*
%TD*%
D31*
%TO.C,R16*%
X87375000Y-93385000D03*
X87375000Y-92365000D03*
%TD*%
D27*
%TO.C,C13*%
X102125000Y-86725000D03*
X102125000Y-88275000D03*
%TD*%
D43*
%TO.C,D8*%
X94500000Y-84125000D03*
X92624998Y-84125000D03*
%TD*%
D27*
%TO.C,C26*%
X64525000Y-98100000D03*
X64525000Y-99650000D03*
%TD*%
D28*
%TO.C,C16*%
X97225000Y-91000000D03*
X98775000Y-91000000D03*
%TD*%
D44*
%TO.C,D5*%
X65125000Y-105812501D03*
X65125000Y-103937499D03*
%TD*%
D10*
%TO.C,C12*%
X103000000Y-92275000D03*
X103000000Y-90725000D03*
%TD*%
%TO.C,C14*%
X89000000Y-93150000D03*
X89000000Y-91600000D03*
%TD*%
D19*
%TO.C,J4*%
X72750000Y-104875000D03*
D20*
X70250000Y-104875000D03*
%TD*%
D18*
%TO.C,D7*%
X89249998Y-84125000D03*
X91125000Y-84125000D03*
%TD*%
D45*
%TO.C,C1*%
X90201992Y-100548008D03*
X91298008Y-99451992D03*
%TD*%
D46*
%TO.C,J2*%
X112930000Y-104380000D03*
X112930000Y-95620000D03*
%TD*%
D47*
%TO.C,J7*%
X92640000Y-101575000D03*
X86860000Y-101575000D03*
D48*
X94070000Y-105255000D03*
D49*
X94070000Y-101075000D03*
D48*
X85430000Y-105255000D03*
D49*
X85430000Y-101075000D03*
%TD*%
M02*
