%TF.GenerationSoftware,KiCad,Pcbnew,8.0.8*%
%TF.CreationDate,2025-02-07T05:59:22-05:00*%
%TF.ProjectId,SensorBoardNoMCU,53656e73-6f72-4426-9f61-72644e6f4d43,rev?*%
%TF.SameCoordinates,Original*%
%TF.FileFunction,Copper,L4,Bot*%
%TF.FilePolarity,Positive*%
%FSLAX46Y46*%
G04 Gerber Fmt 4.6, Leading zero omitted, Abs format (unit mm)*
G04 Created by KiCad (PCBNEW 8.0.8) date 2025-02-07 05:59:22*
%MOMM*%
%LPD*%
G01*
G04 APERTURE LIST*
G04 Aperture macros list*
%AMRoundRect*
0 Rectangle with rounded corners*
0 $1 Rounding radius*
0 $2 $3 $4 $5 $6 $7 $8 $9 X,Y pos of 4 corners*
0 Add a 4 corners polygon primitive as box body*
4,1,4,$2,$3,$4,$5,$6,$7,$8,$9,$2,$3,0*
0 Add four circle primitives for the rounded corners*
1,1,$1+$1,$2,$3*
1,1,$1+$1,$4,$5*
1,1,$1+$1,$6,$7*
1,1,$1+$1,$8,$9*
0 Add four rect primitives between the rounded corners*
20,1,$1+$1,$2,$3,$4,$5,0*
20,1,$1+$1,$4,$5,$6,$7,0*
20,1,$1+$1,$6,$7,$8,$9,0*
20,1,$1+$1,$8,$9,$2,$3,0*%
G04 Aperture macros list end*
%TA.AperFunction,ComponentPad*%
%ADD10RoundRect,0.200100X-0.949900X0.949900X-0.949900X-0.949900X0.949900X-0.949900X0.949900X0.949900X0*%
%TD*%
%TA.AperFunction,ComponentPad*%
%ADD11C,2.500000*%
%TD*%
%TA.AperFunction,ComponentPad*%
%ADD12RoundRect,0.250000X-0.725000X0.600000X-0.725000X-0.600000X0.725000X-0.600000X0.725000X0.600000X0*%
%TD*%
%TA.AperFunction,ComponentPad*%
%ADD13O,1.950000X1.700000*%
%TD*%
%TA.AperFunction,ViaPad*%
%ADD14C,0.600000*%
%TD*%
%TA.AperFunction,Conductor*%
%ADD15C,0.200000*%
%TD*%
G04 APERTURE END LIST*
D10*
%TO.P,J1,1,In*%
%TO.N,/RF_IN*%
X98125000Y-62750000D03*
D11*
%TO.P,J1,2,Ext*%
%TO.N,GND*%
X100665000Y-60210000D03*
X95585000Y-60210000D03*
X100665000Y-65290000D03*
X95585000Y-65290000D03*
%TD*%
D12*
%TO.P,J2,1,Pin_1*%
%TO.N,+3.3V*%
X94250000Y-83750000D03*
D13*
%TO.P,J2,2,Pin_2*%
%TO.N,SDA1*%
X94250000Y-86250000D03*
%TO.P,J2,3,Pin_3*%
%TO.N,SCL1*%
X94250000Y-88750000D03*
%TO.P,J2,4,Pin_4*%
%TO.N,GND*%
X94250000Y-91250000D03*
%TD*%
D14*
%TO.N,GND*%
X99750000Y-86500000D03*
X101750000Y-75500000D03*
X100000000Y-71375000D03*
X99250000Y-93250000D03*
X97375000Y-87250000D03*
X97750000Y-81000000D03*
X99375000Y-91875000D03*
X105125000Y-85125000D03*
X99375000Y-84375000D03*
X103875000Y-85125000D03*
X89875000Y-65500000D03*
X102500000Y-90625000D03*
X103396446Y-83103554D03*
X99750000Y-87250000D03*
X99500000Y-81000000D03*
X104500000Y-81000000D03*
X103125000Y-87000000D03*
X103500000Y-82000000D03*
X91000000Y-78000000D03*
X103500000Y-84000000D03*
X96750000Y-97750000D03*
X99250000Y-89125000D03*
X98250000Y-92500000D03*
X97750000Y-71375000D03*
X97625000Y-84500000D03*
X99750000Y-95250000D03*
X101500000Y-85750000D03*
%TO.N,SCL1*%
X99250000Y-94750000D03*
X97375000Y-86500000D03*
%TO.N,SDA1*%
X103850000Y-85875000D03*
X105150000Y-85875000D03*
X97250000Y-85125000D03*
%TD*%
D15*
%TO.N,SCL1*%
X99250000Y-94750000D02*
X97750000Y-93250000D01*
X97750000Y-92250000D02*
X94250000Y-88750000D01*
X95125000Y-88750000D02*
X94250000Y-88750000D01*
X97750000Y-93250000D02*
X97750000Y-92250000D01*
X97375000Y-86500000D02*
X95125000Y-88750000D01*
%TO.N,SDA1*%
X103850000Y-85875000D02*
X105150000Y-85875000D01*
X94250000Y-86250000D02*
X96125000Y-86250000D01*
X103100000Y-85125000D02*
X103850000Y-85875000D01*
X96125000Y-86250000D02*
X97250000Y-85125000D01*
X97250000Y-85125000D02*
X103100000Y-85125000D01*
%TD*%
M02*
