M48
; DRILL file {KiCad 7.0.7} date Wed Feb 14 21:09:03 2024
; FORMAT={-:-/ absolute / inch / decimal}
; #@! TF.CreationDate,2024-02-14T21:09:03-05:00
; #@! TF.GenerationSoftware,Kicad,Pcbnew,7.0.7
; #@! TF.FileFunction,Plated,1,4,PTH
FMAT,2
INCH
; #@! TA.AperFunction,Plated,PTH,ViaDrill
T1C0.0157
; #@! TA.AperFunction,Plated,PTH,ComponentDrill
T2C0.0300
; #@! TA.AperFunction,Plated,PTH,ComponentDrill
T3C0.0394
; #@! TA.AperFunction,Plated,PTH,ComponentDrill
T4C0.0402
; #@! TA.AperFunction,Plated,PTH,ComponentDrill
T5C0.0512
%
G90
G05
T1
X3.9075Y-4.0256
X3.9449Y-3.5276
X3.9449Y-3.6614
X3.9764Y-3.4252
X4.0079Y-2.7402
X4.1181Y-3.2598
X4.1181Y-3.4803
X4.2283Y-3.4488
X4.5118Y-3.2205
X4.6772Y-2.748
X5.0866Y-3.5984
X5.2554Y-3.6314
X5.2598Y-3.5433
X5.3041Y-3.6239
X5.4016Y-2.7402
X5.4094Y-2.6929
X5.5748Y-3.2677
X5.5984Y-2.6693
X5.6378Y-3.4094
X5.6614Y-2.8189
X5.748Y-3.0787
X5.8583Y-3.0472
X5.937Y-2.6535
X5.9449Y-2.7323
X6.1102Y-3.685
X6.1339Y-2.6299
T2
X5.2461Y-3.9016
X5.5413Y-3.9016
T3
X4.2362Y-3.7795
X4.2362Y-3.8795
X4.2362Y-3.9795
X4.2362Y-4.0795
X4.5118Y-3.7795
X4.5118Y-3.8795
X4.5118Y-3.9795
X4.5118Y-4.0795
X4.7795Y-3.7795
X4.7795Y-3.8795
X4.7795Y-3.9795
X4.7795Y-4.0795
X4.9449Y-1.4717
X4.9449Y-1.5717
X4.9449Y-1.6717
X4.9449Y-1.7717
X4.9449Y-1.8717
X4.9449Y-1.9717
X4.9449Y-2.0717
X4.9449Y-2.1717
X4.9449Y-2.2717
X5.9449Y-1.4717
X5.9449Y-1.5717
X5.9449Y-1.6717
X5.9449Y-1.7717
X5.9449Y-1.8717
T4
X3.1646Y-1.7713
X3.1646Y-1.8713
X3.1646Y-1.9713
X3.1646Y-2.0713
X3.1646Y-2.1713
X3.1646Y-2.2713
X3.1646Y-2.3713
X3.1646Y-2.4713
X3.1646Y-2.5713
X3.1646Y-2.6713
X3.1646Y-2.7713
X3.1646Y-2.8713
X3.1646Y-2.9713
X3.1646Y-3.0713
X3.1646Y-3.1713
X3.1646Y-3.2713
X3.1646Y-3.3713
X3.1646Y-3.4713
X3.1646Y-3.5713
X3.1646Y-3.6713
X3.1646Y-3.7713
X3.1646Y-3.8713
X3.1646Y-3.9713
X3.1646Y-4.0713
X3.7646Y-1.7713
X3.7646Y-1.8713
X3.7646Y-1.9713
X3.7646Y-2.0713
X3.7646Y-2.1713
X3.7646Y-2.2713
X3.7646Y-2.3713
X3.7646Y-2.4713
X3.7646Y-2.5713
X3.7646Y-2.6713
X3.7646Y-2.7713
X3.7646Y-2.8713
X3.7646Y-2.9713
X3.7646Y-3.0713
X3.7646Y-3.1713
X3.7646Y-3.2713
X3.7646Y-3.3713
X3.7646Y-3.4713
X3.7646Y-3.5713
X3.7646Y-3.6713
X3.7646Y-3.7713
X3.7646Y-3.8713
X3.7646Y-3.9713
X3.7646Y-4.0713
T5
X4.0453Y-1.6437
X4.1831Y-1.6437
X4.498Y-1.6437
X4.6358Y-1.6437
T0
M30
