%TF.GenerationSoftware,KiCad,Pcbnew,8.0.8*%
%TF.CreationDate,2025-03-09T10:32:03-07:00*%
%TF.ProjectId,live-video-multi-function-board,6c697665-2d76-4696-9465-6f2d6d756c74,rev?*%
%TF.SameCoordinates,Original*%
%TF.FileFunction,Copper,L4,Bot*%
%TF.FilePolarity,Positive*%
%FSLAX46Y46*%
G04 Gerber Fmt 4.6, Leading zero omitted, Abs format (unit mm)*
G04 Created by KiCad (PCBNEW 8.0.8) date 2025-03-09 10:32:03*
%MOMM*%
%LPD*%
G01*
G04 APERTURE LIST*
G04 Aperture macros list*
%AMRoundRect*
0 Rectangle with rounded corners*
0 $1 Rounding radius*
0 $2 $3 $4 $5 $6 $7 $8 $9 X,Y pos of 4 corners*
0 Add a 4 corners polygon primitive as box body*
4,1,4,$2,$3,$4,$5,$6,$7,$8,$9,$2,$3,0*
0 Add four circle primitives for the rounded corners*
1,1,$1+$1,$2,$3*
1,1,$1+$1,$4,$5*
1,1,$1+$1,$6,$7*
1,1,$1+$1,$8,$9*
0 Add four rect primitives between the rounded corners*
20,1,$1+$1,$2,$3,$4,$5,0*
20,1,$1+$1,$4,$5,$6,$7,0*
20,1,$1+$1,$6,$7,$8,$9,0*
20,1,$1+$1,$8,$9,$2,$3,0*%
G04 Aperture macros list end*
%TA.AperFunction,ComponentPad*%
%ADD10RoundRect,0.250000X-0.600000X-0.750000X0.600000X-0.750000X0.600000X0.750000X-0.600000X0.750000X0*%
%TD*%
%TA.AperFunction,ComponentPad*%
%ADD11O,1.700000X2.000000*%
%TD*%
%TA.AperFunction,ComponentPad*%
%ADD12RoundRect,0.250000X0.600000X0.750000X-0.600000X0.750000X-0.600000X-0.750000X0.600000X-0.750000X0*%
%TD*%
%TA.AperFunction,ComponentPad*%
%ADD13RoundRect,0.250000X-0.600000X-0.725000X0.600000X-0.725000X0.600000X0.725000X-0.600000X0.725000X0*%
%TD*%
%TA.AperFunction,ComponentPad*%
%ADD14O,1.700000X1.950000*%
%TD*%
%TA.AperFunction,ComponentPad*%
%ADD15RoundRect,0.250000X0.600000X0.725000X-0.600000X0.725000X-0.600000X-0.725000X0.600000X-0.725000X0*%
%TD*%
%TA.AperFunction,HeatsinkPad*%
%ADD16O,2.100000X1.000000*%
%TD*%
%TA.AperFunction,HeatsinkPad*%
%ADD17O,1.800000X1.000000*%
%TD*%
%TA.AperFunction,ComponentPad*%
%ADD18R,1.700000X1.700000*%
%TD*%
%TA.AperFunction,ComponentPad*%
%ADD19O,1.700000X1.700000*%
%TD*%
%TA.AperFunction,ComponentPad*%
%ADD20C,1.524000*%
%TD*%
%TA.AperFunction,ComponentPad*%
%ADD21O,1.500000X2.250000*%
%TD*%
%TA.AperFunction,ViaPad*%
%ADD22C,0.600000*%
%TD*%
%TA.AperFunction,Conductor*%
%ADD23C,0.609600*%
%TD*%
%TA.AperFunction,Conductor*%
%ADD24C,0.508000*%
%TD*%
%TA.AperFunction,Conductor*%
%ADD25C,0.300000*%
%TD*%
%TA.AperFunction,Conductor*%
%ADD26C,0.152400*%
%TD*%
%TA.AperFunction,Conductor*%
%ADD27C,0.200000*%
%TD*%
G04 APERTURE END LIST*
D10*
%TO.P,J8,1,Pin_1*%
%TO.N,+3.3V*%
X152500000Y-114400000D03*
D11*
%TO.P,J8,2,Pin_2*%
%TO.N,GND*%
X155000000Y-114400000D03*
%TD*%
D12*
%TO.P,J4,1,Pin_1*%
%TO.N,VBAT*%
X142100000Y-90060000D03*
D11*
%TO.P,J4,2,Pin_2*%
%TO.N,Net-(J4-Pin_2)*%
X139600000Y-90060000D03*
%TD*%
D13*
%TO.P,J9,1,Pin_1*%
%TO.N,SDN*%
X114900000Y-114425000D03*
D14*
%TO.P,J9,2,Pin_2*%
%TO.N,GPIO3*%
X117400000Y-114425000D03*
%TO.P,J9,3,Pin_3*%
%TO.N,GPIO2*%
X119900000Y-114425000D03*
%TO.P,J9,4,Pin_4*%
%TO.N,GPIO1*%
X122400000Y-114425000D03*
%TO.P,J9,5,Pin_5*%
%TO.N,GPIO0*%
X124900000Y-114425000D03*
%TO.P,J9,6,Pin_6*%
%TO.N,IRQ*%
X127400000Y-114425000D03*
%TD*%
D15*
%TO.P,J1,1,Pin_1*%
%TO.N,GND*%
X125200000Y-90060000D03*
D14*
%TO.P,J1,2,Pin_2*%
%TO.N,PWR*%
X122700000Y-90060000D03*
%TO.P,J1,3,Pin_3*%
%TO.N,IN_TG*%
X120200000Y-90060000D03*
%TO.P,J1,4,Pin_4*%
%TO.N,TXC*%
X117700000Y-90060000D03*
%TO.P,J1,5,Pin_5*%
%TO.N,RXC*%
X115200000Y-90060000D03*
%TD*%
D16*
%TO.P,J10,S1,SHIELD*%
%TO.N,GND*%
X183000000Y-90280000D03*
D17*
X187180000Y-90280000D03*
D16*
X183000000Y-81640000D03*
D17*
X187180000Y-81640000D03*
%TD*%
D18*
%TO.P,J6,1,Pin_1*%
%TO.N,+5V*%
X179350000Y-95040000D03*
D19*
%TO.P,J6,2,Pin_2*%
%TO.N,GND*%
X179350000Y-97580000D03*
%TO.P,J6,3,Pin_3*%
%TO.N,TXD*%
X179350000Y-100120000D03*
%TO.P,J6,4,Pin_4*%
%TO.N,RXD*%
X179350000Y-102660000D03*
%TD*%
D12*
%TO.P,J7,1,Pin_1*%
%TO.N,Net-(J4-Pin_2)*%
X133650000Y-90060000D03*
D11*
%TO.P,J7,2,Pin_2*%
%TO.N,GND*%
X131150000Y-90060000D03*
%TD*%
D20*
%TO.P,BZ1,1,-*%
%TO.N,Net-(BZ1--)*%
X179200000Y-110710000D03*
%TO.P,BZ1,2,+*%
%TO.N,GND*%
X179200000Y-118210000D03*
%TD*%
D13*
%TO.P,J3,1,Pin_1*%
%TO.N,CS*%
X133700000Y-114400000D03*
D14*
%TO.P,J3,2,Pin_2*%
%TO.N,MOSI*%
X136200000Y-114400000D03*
%TO.P,J3,3,Pin_3*%
%TO.N,MISO*%
X138700000Y-114400000D03*
%TO.P,J3,4,Pin_4*%
%TO.N,SCLK*%
X141200000Y-114400000D03*
%TO.P,J3,5,Pin_5*%
%TO.N,GND*%
X143700000Y-114400000D03*
%TO.P,J3,6,Pin_6*%
%TO.N,+5V*%
X146200000Y-114400000D03*
%TD*%
D21*
%TO.P,Teensy4.1,0,RX1*%
%TO.N,unconnected-(Teensy4.1-RX1-Pad0)*%
X109770000Y-109400000D03*
%TO.P,Teensy4.1,1,TX1*%
%TO.N,unconnected-(Teensy4.1-TX1-Pad1)*%
X112310000Y-109400000D03*
%TO.P,Teensy4.1,2,PWM*%
%TO.N,SDN*%
X114850000Y-109400000D03*
%TO.P,Teensy4.1,3,PWM*%
%TO.N,GPIO3*%
X117390000Y-109400000D03*
%TO.P,Teensy4.1,3V,3.3V*%
%TO.N,+3.3V*%
X142790000Y-109400000D03*
%TO.P,Teensy4.1,3V1,3.3V*%
%TO.N,+3.3V1*%
X112310000Y-94160000D03*
%TO.P,Teensy4.1,4,PWM*%
%TO.N,GPIO2*%
X119930000Y-109400000D03*
%TO.P,Teensy4.1,5,PWM*%
%TO.N,GPIO1*%
X122470000Y-109400000D03*
%TO.P,Teensy4.1,5V,VIN*%
%TO.N,+5V*%
X107230000Y-94160000D03*
%TO.P,Teensy4.1,6,PWM*%
%TO.N,GPIO0*%
X125010000Y-109400000D03*
%TO.P,Teensy4.1,7,RX2*%
%TO.N,IRQ*%
X127550000Y-109400000D03*
%TO.P,Teensy4.1,8,TX2*%
%TO.N,unconnected-(Teensy4.1-TX2-Pad8)*%
X130090000Y-109400000D03*
%TO.P,Teensy4.1,9,PWM*%
%TO.N,unconnected-(Teensy4.1-PWM-Pad9)*%
X132630000Y-109400000D03*
%TO.P,Teensy4.1,10,CS*%
%TO.N,CS*%
X135170000Y-109400000D03*
%TO.P,Teensy4.1,11,MOSI*%
%TO.N,MOSI*%
X137710000Y-109400000D03*
%TO.P,Teensy4.1,12,MISO*%
%TO.N,MISO*%
X140250000Y-109400000D03*
%TO.P,Teensy4.1,13,SCK*%
%TO.N,SCLK*%
X140250000Y-94160000D03*
%TO.P,Teensy4.1,14,A0*%
%TO.N,unconnected-(Teensy4.1-A0-Pad14)*%
X137710000Y-94160000D03*
%TO.P,Teensy4.1,15,A1*%
%TO.N,unconnected-(Teensy4.1-A1-Pad15)*%
X135170000Y-94160000D03*
%TO.P,Teensy4.1,16,A2*%
%TO.N,unconnected-(Teensy4.1-A2-Pad16)*%
X132630000Y-94160000D03*
%TO.P,Teensy4.1,17,A3*%
%TO.N,unconnected-(Teensy4.1-A3-Pad17)*%
X130090000Y-94160000D03*
%TO.P,Teensy4.1,18,SDA*%
%TO.N,SDA1*%
X127550000Y-94160000D03*
%TO.P,Teensy4.1,19,SCL*%
%TO.N,SCL1*%
X125010000Y-94160000D03*
%TO.P,Teensy4.1,20,TX5*%
%TO.N,TXC*%
X122470000Y-94160000D03*
%TO.P,Teensy4.1,21,RX5*%
%TO.N,RXC*%
X119930000Y-94160000D03*
%TO.P,Teensy4.1,22,PWM*%
%TO.N,unconnected-(Teensy4.1-PWM-Pad22)*%
X117390000Y-94160000D03*
%TO.P,Teensy4.1,23,PWM*%
%TO.N,unconnected-(Teensy4.1-PWM-Pad23)*%
X114850000Y-94160000D03*
%TO.P,Teensy4.1,24,SCL2*%
%TO.N,unconnected-(Teensy4.1-SCL2-Pad24)*%
X145330000Y-109400000D03*
%TO.P,Teensy4.1,25,SDA2*%
%TO.N,unconnected-(Teensy4.1-SDA2-Pad25)*%
X147870000Y-109400000D03*
%TO.P,Teensy4.1,26,MOSI1*%
%TO.N,unconnected-(Teensy4.1-MOSI1-Pad26)*%
X150410000Y-109400000D03*
%TO.P,Teensy4.1,27,SCK1*%
%TO.N,unconnected-(Teensy4.1-SCK1-Pad27)*%
X152950000Y-109400000D03*
%TO.P,Teensy4.1,28,RX7*%
%TO.N,unconnected-(Teensy4.1-RX7-Pad28)*%
X155490000Y-109400000D03*
%TO.P,Teensy4.1,29,TX7*%
%TO.N,unconnected-(Teensy4.1-TX7-Pad29)*%
X158030000Y-109400000D03*
%TO.P,Teensy4.1,30,GPIO*%
%TO.N,unconnected-(Teensy4.1-GPIO-Pad30)*%
X160570000Y-109400000D03*
%TO.P,Teensy4.1,31,GPIO*%
%TO.N,unconnected-(Teensy4.1-GPIO-Pad31)*%
X163110000Y-109400000D03*
%TO.P,Teensy4.1,32,GPIO*%
%TO.N,STAT1*%
X165650000Y-109400000D03*
%TO.P,Teensy4.1,33,PWM*%
%TO.N,Net-(BZ1--)*%
X165650000Y-94160000D03*
%TO.P,Teensy4.1,34,RX8*%
%TO.N,unconnected-(Teensy4.1-RX8-Pad34)*%
X163110000Y-94160000D03*
%TO.P,Teensy4.1,35,TX8*%
%TO.N,unconnected-(Teensy4.1-TX8-Pad35)*%
X160570000Y-94160000D03*
%TO.P,Teensy4.1,36,PWM*%
%TO.N,unconnected-(Teensy4.1-PWM-Pad36)*%
X158030000Y-94160000D03*
%TO.P,Teensy4.1,37,PWM*%
%TO.N,unconnected-(Teensy4.1-PWM-Pad37)*%
X155490000Y-94160000D03*
%TO.P,Teensy4.1,38,CS1*%
%TO.N,unconnected-(Teensy4.1-CS1-Pad38)*%
X152950000Y-94160000D03*
%TO.P,Teensy4.1,39,MISO1*%
%TO.N,unconnected-(Teensy4.1-MISO1-Pad39)*%
X150410000Y-94160000D03*
%TO.P,Teensy4.1,40,A16*%
%TO.N,unconnected-(Teensy4.1-A16-Pad40)*%
X147870000Y-94160000D03*
%TO.P,Teensy4.1,41,A17*%
%TO.N,unconnected-(Teensy4.1-A17-Pad41)*%
X145330000Y-94160000D03*
%TO.P,Teensy4.1,G,GND*%
%TO.N,GND*%
X107230000Y-109400000D03*
%TO.P,Teensy4.1,G1,GND*%
X109770000Y-94160000D03*
%TO.P,Teensy4.1,G2,GND*%
X142790000Y-94160000D03*
%TD*%
D18*
%TO.P,J2,1,3.3V*%
%TO.N,unconnected-(J2-3.3V-Pad1)*%
X113200000Y-72780000D03*
D19*
%TO.P,J2,2,5V*%
%TO.N,+5V*%
X113200000Y-70240000D03*
%TO.P,J2,3,SDA*%
%TO.N,SDA1*%
X115740000Y-72780000D03*
%TO.P,J2,4,5V*%
%TO.N,+5V*%
X115740000Y-70240000D03*
%TO.P,J2,5,SCL*%
%TO.N,SCL1*%
X118280000Y-72780000D03*
%TO.P,J2,6,GND*%
%TO.N,GND*%
X118280000Y-70240000D03*
%TO.P,J2,7,GPIO4*%
%TO.N,unconnected-(J2-GPIO4-Pad7)*%
X120820000Y-72780000D03*
%TO.P,J2,8,TXD*%
%TO.N,TXD*%
X120820000Y-70240000D03*
%TO.P,J2,9,GND*%
%TO.N,GND*%
X123360000Y-72780000D03*
%TO.P,J2,10,RXD*%
%TO.N,RXD*%
X123360000Y-70240000D03*
%TO.P,J2,11,GPIO17*%
%TO.N,unconnected-(J2-GPIO17-Pad11)*%
X125900000Y-72780000D03*
%TO.P,J2,12,GPIO18*%
%TO.N,unconnected-(J2-GPIO18-Pad12)*%
X125900000Y-70240000D03*
%TO.P,J2,13,GPIO27*%
%TO.N,unconnected-(J2-GPIO27-Pad13)*%
X128440000Y-72780000D03*
%TO.P,J2,14,GND*%
%TO.N,GND*%
X128440000Y-70240000D03*
%TO.P,J2,15,GPIO22*%
%TO.N,unconnected-(J2-GPIO22-Pad15)*%
X130980000Y-72780000D03*
%TO.P,J2,16,GPIO23*%
%TO.N,unconnected-(J2-GPIO23-Pad16)*%
X130980000Y-70240000D03*
%TO.P,J2,17,3.3V*%
%TO.N,unconnected-(J2-3.3V-Pad17)*%
X133520000Y-72780000D03*
%TO.P,J2,18,GPIO24*%
%TO.N,unconnected-(J2-GPIO24-Pad18)*%
X133520000Y-70240000D03*
%TO.P,J2,19,MOSI*%
%TO.N,unconnected-(J2-MOSI-Pad19)*%
X136060000Y-72780000D03*
%TO.P,J2,20,GND*%
%TO.N,GND*%
X136060000Y-70240000D03*
%TO.P,J2,21,MISO*%
%TO.N,unconnected-(J2-MISO-Pad21)*%
X138600000Y-72780000D03*
%TO.P,J2,22,GPIO25*%
%TO.N,unconnected-(J2-GPIO25-Pad22)*%
X138600000Y-70240000D03*
%TO.P,J2,23,SCLK*%
%TO.N,unconnected-(J2-SCLK-Pad23)*%
X141140000Y-72780000D03*
%TO.P,J2,24,GPIO8*%
%TO.N,unconnected-(J2-GPIO8-Pad24)*%
X141140000Y-70240000D03*
%TO.P,J2,25,GND*%
%TO.N,GND*%
X143680000Y-72780000D03*
%TO.P,J2,26,GPIO7*%
%TO.N,unconnected-(J2-GPIO7-Pad26)*%
X143680000Y-70240000D03*
%TO.P,J2,27,GPIO0*%
%TO.N,unconnected-(J2-GPIO0-Pad27)*%
X146220000Y-72780000D03*
%TO.P,J2,28,GPIO1*%
%TO.N,unconnected-(J2-GPIO1-Pad28)*%
X146220000Y-70240000D03*
%TO.P,J2,29,GPIO5*%
%TO.N,unconnected-(J2-GPIO5-Pad29)*%
X148760000Y-72780000D03*
%TO.P,J2,30,GND*%
%TO.N,GND*%
X148760000Y-70240000D03*
%TO.P,J2,31,GPIO6*%
%TO.N,TG*%
X151300000Y-72780000D03*
%TO.P,J2,32,GPIO12*%
%TO.N,unconnected-(J2-GPIO12-Pad32)*%
X151300000Y-70240000D03*
%TO.P,J2,33,GPIO13*%
%TO.N,unconnected-(J2-GPIO13-Pad33)*%
X153840000Y-72780000D03*
%TO.P,J2,34,GND*%
%TO.N,GND*%
X153840000Y-70240000D03*
%TO.P,J2,35,GPIO19*%
%TO.N,unconnected-(J2-GPIO19-Pad35)*%
X156380000Y-72780000D03*
%TO.P,J2,36,GPIO16*%
%TO.N,unconnected-(J2-GPIO16-Pad36)*%
X156380000Y-70240000D03*
%TO.P,J2,37,GPIO26*%
%TO.N,unconnected-(J2-GPIO26-Pad37)*%
X158920000Y-72780000D03*
%TO.P,J2,38,GPIO20*%
%TO.N,unconnected-(J2-GPIO20-Pad38)*%
X158920000Y-70240000D03*
%TO.P,J2,39,GND*%
%TO.N,GND*%
X161460000Y-72780000D03*
%TO.P,J2,40,GPIO21*%
%TO.N,unconnected-(J2-GPIO21-Pad40)*%
X161460000Y-70240000D03*
%TD*%
D22*
%TO.N,GND*%
X156000000Y-78160000D03*
X153000000Y-85110000D03*
X170918800Y-86010000D03*
X154074265Y-81460000D03*
X181950000Y-92260000D03*
X147000000Y-85774600D03*
X169200000Y-87010000D03*
X180350000Y-77460000D03*
X153000000Y-86510000D03*
X176800000Y-82310000D03*
X180238779Y-86010001D03*
X164300000Y-84310000D03*
X155350000Y-81460000D03*
X159050000Y-84410000D03*
X173100000Y-77910000D03*
X145400000Y-90410000D03*
X164299017Y-85608240D03*
X165800000Y-83210000D03*
X145600000Y-74960000D03*
X156100000Y-81510000D03*
X172223800Y-86010000D03*
X170850000Y-118660000D03*
X107915000Y-81490000D03*
X166200000Y-81610000D03*
X178000000Y-76560000D03*
X155300000Y-91210000D03*
X166600000Y-90410000D03*
X173200000Y-76010000D03*
X172600000Y-80010000D03*
X109715000Y-81390000D03*
X183050000Y-78360000D03*
X179300000Y-89760000D03*
X156600000Y-87860000D03*
X169400000Y-81010000D03*
X159900000Y-87310000D03*
X149900000Y-89755400D03*
X154700000Y-78160000D03*
X164100000Y-80410000D03*
%TO.N,+5V*%
X147100000Y-91910000D03*
%TO.N,VBUS*%
X181305000Y-88350000D03*
X177500000Y-86010000D03*
X181205000Y-83050000D03*
%TO.N,Net-(U4-3V3OUT)*%
X171495000Y-88510000D03*
X172203889Y-83779821D03*
%TO.N,VBAT*%
X157040000Y-84000000D03*
%TO.N,RXD*%
X172295003Y-88510000D03*
%TO.N,TXD*%
X173000000Y-89456000D03*
%TO.N,PWR*%
X153000000Y-80910000D03*
%TO.N,IN_TG*%
X153591433Y-78418567D03*
%TD*%
D23*
%TO.N,+5V*%
X148790000Y-111810000D02*
X146200000Y-114400000D01*
X173300000Y-111810000D02*
X148790000Y-111810000D01*
X179350000Y-95040000D02*
X181900000Y-97590000D01*
X109480000Y-91910000D02*
X107230000Y-94160000D01*
X181900000Y-103210000D02*
X173300000Y-111810000D01*
X181900000Y-97590000D02*
X181900000Y-103210000D01*
X145500000Y-91910000D02*
X147100000Y-91910000D01*
X145500000Y-91910000D02*
X109480000Y-91910000D01*
D24*
%TO.N,VBUS*%
X181305000Y-83150000D02*
X181205000Y-83050000D01*
D25*
X177500000Y-86010000D02*
X179840000Y-88350000D01*
D26*
X181105000Y-88350000D02*
X181305000Y-88350000D01*
D24*
X181305000Y-88350000D02*
X181305000Y-83150000D01*
D25*
X179840000Y-88350000D02*
X181305000Y-88350000D01*
D26*
%TO.N,Net-(U4-3V3OUT)*%
X172203889Y-84606111D02*
X172203889Y-83779821D01*
X171495000Y-88510000D02*
X171495000Y-85315000D01*
X171495000Y-85315000D02*
X171700000Y-85110000D01*
X171700000Y-85110000D02*
X172203889Y-84606111D01*
D23*
%TO.N,VBAT*%
X142100000Y-90060000D02*
X144611840Y-90060000D01*
X150671840Y-84000000D02*
X157040000Y-84000000D01*
X144611840Y-90060000D02*
X150671840Y-84000000D01*
D26*
%TO.N,RXD*%
X172800000Y-88005003D02*
X172800000Y-83110000D01*
X124873800Y-77583800D02*
X122100000Y-74810000D01*
X122100000Y-74810000D02*
X122100000Y-71500000D01*
X179350000Y-102660000D02*
X172295003Y-95605003D01*
X122100000Y-71500000D02*
X123360000Y-70240000D01*
X172295003Y-88510000D02*
X172800000Y-88005003D01*
X167300000Y-77610000D02*
X156264870Y-77610000D01*
X156238670Y-77583800D02*
X124873800Y-77583800D01*
X172800000Y-83110000D02*
X167300000Y-77610000D01*
X172295003Y-95605003D02*
X172295003Y-88510000D01*
X156264870Y-77610000D02*
X156238670Y-77583800D01*
%TO.N,TXD*%
X179350000Y-100120000D02*
X173000000Y-93770000D01*
X126300000Y-76510000D02*
X167898368Y-76510000D01*
X124600000Y-74810000D02*
X126300000Y-76510000D01*
X122050000Y-69010000D02*
X124100000Y-69010000D01*
X173000000Y-93770000D02*
X173000000Y-89456000D01*
X124100000Y-69010000D02*
X124600000Y-69510000D01*
X173750000Y-82361632D02*
X173750000Y-88706000D01*
X124600000Y-69510000D02*
X124600000Y-74810000D01*
X167898368Y-76510000D02*
X173750000Y-82361632D01*
X173750000Y-88706000D02*
X173000000Y-89456000D01*
X120820000Y-70240000D02*
X122050000Y-69010000D01*
D27*
%TO.N,PWR*%
X122700000Y-89610000D02*
X131400000Y-80910000D01*
X153000000Y-80910000D02*
X131400000Y-80910000D01*
X122700000Y-90060000D02*
X122700000Y-89610000D01*
%TO.N,IN_TG*%
X153591433Y-78418567D02*
X131391433Y-78418567D01*
X120200000Y-89610000D02*
X131391433Y-78418567D01*
X120200000Y-90060000D02*
X120200000Y-89610000D01*
%TD*%
M02*
