M48
; DRILL file {KiCad 8.0.8} date 2025-03-09T10:31:59-0700
; FORMAT={-:-/ absolute / inch / decimal}
; #@! TF.CreationDate,2025-03-09T10:31:59-07:00
; #@! TF.GenerationSoftware,Kicad,Pcbnew,8.0.8
; #@! TF.FileFunction,Plated,1,4,PTH
FMAT,2
INCH
; #@! TA.AperFunction,Plated,PTH,ViaDrill
T1C0.0118
; #@! TA.AperFunction,Plated,PTH,ComponentDrill
T2C0.0236
; #@! TA.AperFunction,Plated,PTH,ComponentDrill
T3C0.0300
; #@! TA.AperFunction,Plated,PTH,ComponentDrill
T4C0.0374
; #@! TA.AperFunction,Plated,PTH,ComponentDrill
T5C0.0394
; #@! TA.AperFunction,Plated,PTH,ComponentDrill
T6C0.0402
%
G90
G05
T1
X4.2486Y-3.2083
X4.3195Y-3.2043
X5.7244Y-3.5594
X5.7323Y-2.9512
X5.7874Y-3.377
X5.7913Y-3.6185
X5.9016Y-3.5337
X6.0236Y-3.1854
X6.0236Y-3.3508
X6.0236Y-3.4059
X6.0469Y-3.0873
X6.0659Y-3.2071
X6.0906Y-3.0772
X6.1142Y-3.5909
X6.1161Y-3.2071
X6.1417Y-3.0772
X6.1457Y-3.2091
X6.1654Y-3.4591
X6.1827Y-3.3071
X6.2618Y-3.3232
X6.2953Y-3.4374
X6.4606Y-3.1657
X6.4685Y-3.3704
X6.4685Y-3.3193
X6.5276Y-3.276
X6.5433Y-3.213
X6.5591Y-3.5594
X6.6614Y-3.4256
X6.6693Y-3.1894
X6.7264Y-4.6717
X6.7291Y-3.3862
X6.7518Y-3.4846
X6.7797Y-3.2984
X6.7805Y-3.3862
X6.7833Y-3.4846
X6.7953Y-3.15
X6.811Y-3.5219
X6.815Y-3.0673
X6.8189Y-2.9925
X6.9606Y-3.2406
X6.9882Y-3.3862
X7.0079Y-3.0142
X7.0591Y-3.5339
X7.096Y-3.3862
X7.1004Y-3.0496
X7.1341Y-3.2697
X7.138Y-3.4783
X7.1634Y-3.6323
X7.2067Y-3.085
T3
X7.0551Y-4.3587
X7.0551Y-4.6539
T4
X4.5236Y-4.5049
X4.5354Y-3.5457
X4.622Y-4.5049
X4.6339Y-3.5457
X4.7205Y-4.5049
X4.7323Y-3.5457
X4.8189Y-4.5049
X4.8307Y-3.5457
X4.9173Y-4.5049
X4.9291Y-3.5457
X5.0157Y-4.5049
X5.2638Y-4.5039
X5.3622Y-4.5039
X5.4606Y-4.5039
X5.5591Y-4.5039
X5.6575Y-4.5039
X5.7559Y-4.5039
T5
X4.4567Y-2.7654
X4.4567Y-2.8654
X4.5567Y-2.7654
X4.5567Y-2.8654
X4.6567Y-2.7654
X4.6567Y-2.8654
X4.7567Y-2.7654
X4.7567Y-2.8654
X4.8567Y-2.7654
X4.8567Y-2.8654
X4.9567Y-2.7654
X4.9567Y-2.8654
X5.0567Y-2.7654
X5.0567Y-2.8654
X5.1567Y-2.7654
X5.1567Y-2.8654
X5.1634Y-3.5457
X5.2567Y-2.7654
X5.2567Y-2.8654
X5.2618Y-3.5457
X5.3567Y-2.7654
X5.3567Y-2.8654
X5.4567Y-2.7654
X5.4567Y-2.8654
X5.4961Y-3.5457
X5.5567Y-2.7654
X5.5567Y-2.8654
X5.5945Y-3.5457
X5.6567Y-2.7654
X5.6567Y-2.8654
X5.7567Y-2.7654
X5.7567Y-2.8654
X5.8567Y-2.7654
X5.8567Y-2.8654
X5.9567Y-2.7654
X5.9567Y-2.8654
X6.0039Y-4.5039
X6.0567Y-2.7654
X6.0567Y-2.8654
X6.1024Y-4.5039
X6.1567Y-2.7654
X6.1567Y-2.8654
X6.2567Y-2.7654
X6.2567Y-2.8654
X6.3567Y-2.7654
X6.3567Y-2.8654
X7.061Y-3.7417
X7.061Y-3.8417
X7.061Y-3.9417
X7.061Y-4.0417
T6
X4.2217Y-3.7071
X4.2217Y-4.3071
X4.3217Y-3.7071
X4.3217Y-4.3071
X4.4217Y-3.7071
X4.4217Y-4.3071
X4.5217Y-3.7071
X4.5217Y-4.3071
X4.6217Y-3.7071
X4.6217Y-4.3071
X4.7217Y-3.7071
X4.7217Y-4.3071
X4.8217Y-3.7071
X4.8217Y-4.3071
X4.9217Y-3.7071
X4.9217Y-4.3071
X5.0217Y-3.7071
X5.0217Y-4.3071
X5.1217Y-3.7071
X5.1217Y-4.3071
X5.2217Y-3.7071
X5.2217Y-4.3071
X5.3217Y-3.7071
X5.3217Y-4.3071
X5.4217Y-3.7071
X5.4217Y-4.3071
X5.5217Y-3.7071
X5.5217Y-4.3071
X5.6217Y-3.7071
X5.6217Y-4.3071
X5.7217Y-3.7071
X5.7217Y-4.3071
X5.8217Y-3.7071
X5.8217Y-4.3071
X5.9217Y-3.7071
X5.9217Y-4.3071
X6.0217Y-3.7071
X6.0217Y-4.3071
X6.1217Y-3.7071
X6.1217Y-4.3071
X6.2217Y-3.7071
X6.2217Y-4.3071
X6.3217Y-3.7071
X6.3217Y-4.3071
X6.4217Y-3.7071
X6.4217Y-4.3071
X6.5217Y-3.7071
X6.5217Y-4.3071
T2
G00X7.1831Y-3.2142
M15
G01X7.2264Y-3.2142
M16
G05
G00X7.1831Y-3.5543
M15
G01X7.2264Y-3.5543
M16
G05
G00X7.3535Y-3.2142
M15
G01X7.385Y-3.2142
M16
G05
G00X7.3535Y-3.5543
M15
G01X7.385Y-3.5543
M16
G05
M30
