%TF.GenerationSoftware,KiCad,Pcbnew,8.0.8*%
%TF.CreationDate,2025-03-09T10:32:03-07:00*%
%TF.ProjectId,live-video-multi-function-board,6c697665-2d76-4696-9465-6f2d6d756c74,rev?*%
%TF.SameCoordinates,Original*%
%TF.FileFunction,Soldermask,Bot*%
%TF.FilePolarity,Negative*%
%FSLAX46Y46*%
G04 Gerber Fmt 4.6, Leading zero omitted, Abs format (unit mm)*
G04 Created by KiCad (PCBNEW 8.0.8) date 2025-03-09 10:32:03*
%MOMM*%
%LPD*%
G01*
G04 APERTURE LIST*
G04 Aperture macros list*
%AMRoundRect*
0 Rectangle with rounded corners*
0 $1 Rounding radius*
0 $2 $3 $4 $5 $6 $7 $8 $9 X,Y pos of 4 corners*
0 Add a 4 corners polygon primitive as box body*
4,1,4,$2,$3,$4,$5,$6,$7,$8,$9,$2,$3,0*
0 Add four circle primitives for the rounded corners*
1,1,$1+$1,$2,$3*
1,1,$1+$1,$4,$5*
1,1,$1+$1,$6,$7*
1,1,$1+$1,$8,$9*
0 Add four rect primitives between the rounded corners*
20,1,$1+$1,$2,$3,$4,$5,0*
20,1,$1+$1,$4,$5,$6,$7,0*
20,1,$1+$1,$6,$7,$8,$9,0*
20,1,$1+$1,$8,$9,$2,$3,0*%
G04 Aperture macros list end*
%ADD10RoundRect,0.250000X-0.600000X-0.750000X0.600000X-0.750000X0.600000X0.750000X-0.600000X0.750000X0*%
%ADD11O,1.700000X2.000000*%
%ADD12RoundRect,0.250000X0.600000X0.750000X-0.600000X0.750000X-0.600000X-0.750000X0.600000X-0.750000X0*%
%ADD13RoundRect,0.250000X-0.600000X-0.725000X0.600000X-0.725000X0.600000X0.725000X-0.600000X0.725000X0*%
%ADD14O,1.700000X1.950000*%
%ADD15RoundRect,0.250000X0.600000X0.725000X-0.600000X0.725000X-0.600000X-0.725000X0.600000X-0.725000X0*%
%ADD16C,0.650000*%
%ADD17O,2.100000X1.000000*%
%ADD18O,1.800000X1.000000*%
%ADD19C,3.200000*%
%ADD20R,1.700000X1.700000*%
%ADD21O,1.700000X1.700000*%
%ADD22C,1.524000*%
%ADD23O,1.500000X2.250000*%
G04 APERTURE END LIST*
D10*
%TO.C,J8*%
X152500000Y-114400000D03*
D11*
X155000000Y-114400000D03*
%TD*%
D12*
%TO.C,J4*%
X142100000Y-90060000D03*
D11*
X139600000Y-90060000D03*
%TD*%
D13*
%TO.C,J9*%
X114900000Y-114425000D03*
D14*
X117400000Y-114425000D03*
X119900000Y-114425000D03*
X122400000Y-114425000D03*
X124900000Y-114425000D03*
X127400000Y-114425000D03*
%TD*%
D15*
%TO.C,J1*%
X125200000Y-90060000D03*
D14*
X122700000Y-90060000D03*
X120200000Y-90060000D03*
X117700000Y-90060000D03*
X115200000Y-90060000D03*
%TD*%
D16*
%TO.C,J10*%
X183500000Y-88850000D03*
X183500000Y-83070000D03*
D17*
X183000000Y-90280000D03*
D18*
X187180000Y-90280000D03*
D17*
X183000000Y-81640000D03*
D18*
X187180000Y-81640000D03*
%TD*%
D19*
%TO.C,H3*%
X108300000Y-120510000D03*
%TD*%
D20*
%TO.C,J6*%
X179350000Y-95040000D03*
D21*
X179350000Y-97580000D03*
X179350000Y-100120000D03*
X179350000Y-102660000D03*
%TD*%
D19*
%TO.C,H4*%
X166300000Y-120510000D03*
%TD*%
%TO.C,H2*%
X166300000Y-71510000D03*
%TD*%
%TO.C,H1*%
X108300000Y-71510000D03*
%TD*%
D12*
%TO.C,J7*%
X133650000Y-90060000D03*
D11*
X131150000Y-90060000D03*
%TD*%
D22*
%TO.C,BZ1*%
X179200000Y-110710000D03*
X179200000Y-118210000D03*
%TD*%
D13*
%TO.C,J3*%
X133700000Y-114400000D03*
D14*
X136200000Y-114400000D03*
X138700000Y-114400000D03*
X141200000Y-114400000D03*
X143700000Y-114400000D03*
X146200000Y-114400000D03*
%TD*%
D23*
%TO.C,Teensy4.1*%
X109770000Y-109400000D03*
X112310000Y-109400000D03*
X114850000Y-109400000D03*
X117390000Y-109400000D03*
X142790000Y-109400000D03*
X112310000Y-94160000D03*
X119930000Y-109400000D03*
X122470000Y-109400000D03*
X107230000Y-94160000D03*
X125010000Y-109400000D03*
X127550000Y-109400000D03*
X130090000Y-109400000D03*
X132630000Y-109400000D03*
X135170000Y-109400000D03*
X137710000Y-109400000D03*
X140250000Y-109400000D03*
X140250000Y-94160000D03*
X137710000Y-94160000D03*
X135170000Y-94160000D03*
X132630000Y-94160000D03*
X130090000Y-94160000D03*
X127550000Y-94160000D03*
X125010000Y-94160000D03*
X122470000Y-94160000D03*
X119930000Y-94160000D03*
X117390000Y-94160000D03*
X114850000Y-94160000D03*
X145330000Y-109400000D03*
X147870000Y-109400000D03*
X150410000Y-109400000D03*
X152950000Y-109400000D03*
X155490000Y-109400000D03*
X158030000Y-109400000D03*
X160570000Y-109400000D03*
X163110000Y-109400000D03*
X165650000Y-109400000D03*
X165650000Y-94160000D03*
X163110000Y-94160000D03*
X160570000Y-94160000D03*
X158030000Y-94160000D03*
X155490000Y-94160000D03*
X152950000Y-94160000D03*
X150410000Y-94160000D03*
X147870000Y-94160000D03*
X145330000Y-94160000D03*
X107230000Y-109400000D03*
X109770000Y-94160000D03*
X142790000Y-94160000D03*
%TD*%
D20*
%TO.C,J2*%
X113200000Y-72780000D03*
D21*
X113200000Y-70240000D03*
X115740000Y-72780000D03*
X115740000Y-70240000D03*
X118280000Y-72780000D03*
X118280000Y-70240000D03*
X120820000Y-72780000D03*
X120820000Y-70240000D03*
X123360000Y-72780000D03*
X123360000Y-70240000D03*
X125900000Y-72780000D03*
X125900000Y-70240000D03*
X128440000Y-72780000D03*
X128440000Y-70240000D03*
X130980000Y-72780000D03*
X130980000Y-70240000D03*
X133520000Y-72780000D03*
X133520000Y-70240000D03*
X136060000Y-72780000D03*
X136060000Y-70240000D03*
X138600000Y-72780000D03*
X138600000Y-70240000D03*
X141140000Y-72780000D03*
X141140000Y-70240000D03*
X143680000Y-72780000D03*
X143680000Y-70240000D03*
X146220000Y-72780000D03*
X146220000Y-70240000D03*
X148760000Y-72780000D03*
X148760000Y-70240000D03*
X151300000Y-72780000D03*
X151300000Y-70240000D03*
X153840000Y-72780000D03*
X153840000Y-70240000D03*
X156380000Y-72780000D03*
X156380000Y-70240000D03*
X158920000Y-72780000D03*
X158920000Y-70240000D03*
X161460000Y-72780000D03*
X161460000Y-70240000D03*
%TD*%
M02*
