%TF.GenerationSoftware,KiCad,Pcbnew,8.0.8*%
%TF.CreationDate,2025-03-09T10:32:03-07:00*%
%TF.ProjectId,live-video-multi-function-board,6c697665-2d76-4696-9465-6f2d6d756c74,rev?*%
%TF.SameCoordinates,Original*%
%TF.FileFunction,Soldermask,Top*%
%TF.FilePolarity,Negative*%
%FSLAX46Y46*%
G04 Gerber Fmt 4.6, Leading zero omitted, Abs format (unit mm)*
G04 Created by KiCad (PCBNEW 8.0.8) date 2025-03-09 10:32:03*
%MOMM*%
%LPD*%
G01*
G04 APERTURE LIST*
G04 Aperture macros list*
%AMRoundRect*
0 Rectangle with rounded corners*
0 $1 Rounding radius*
0 $2 $3 $4 $5 $6 $7 $8 $9 X,Y pos of 4 corners*
0 Add a 4 corners polygon primitive as box body*
4,1,4,$2,$3,$4,$5,$6,$7,$8,$9,$2,$3,0*
0 Add four circle primitives for the rounded corners*
1,1,$1+$1,$2,$3*
1,1,$1+$1,$4,$5*
1,1,$1+$1,$6,$7*
1,1,$1+$1,$8,$9*
0 Add four rect primitives between the rounded corners*
20,1,$1+$1,$2,$3,$4,$5,0*
20,1,$1+$1,$4,$5,$6,$7,0*
20,1,$1+$1,$6,$7,$8,$9,0*
20,1,$1+$1,$8,$9,$2,$3,0*%
G04 Aperture macros list end*
%ADD10C,0.000000*%
%ADD11RoundRect,0.050000X-0.050000X0.350000X-0.050000X-0.350000X0.050000X-0.350000X0.050000X0.350000X0*%
%ADD12R,2.500000X1.700000*%
%ADD13RoundRect,0.250000X-0.350000X-0.450000X0.350000X-0.450000X0.350000X0.450000X-0.350000X0.450000X0*%
%ADD14RoundRect,0.250000X0.262500X0.450000X-0.262500X0.450000X-0.262500X-0.450000X0.262500X-0.450000X0*%
%ADD15RoundRect,0.250000X-0.600000X-0.750000X0.600000X-0.750000X0.600000X0.750000X-0.600000X0.750000X0*%
%ADD16O,1.700000X2.000000*%
%ADD17RoundRect,0.250000X0.600000X0.750000X-0.600000X0.750000X-0.600000X-0.750000X0.600000X-0.750000X0*%
%ADD18RoundRect,0.250000X-0.600000X-0.725000X0.600000X-0.725000X0.600000X0.725000X-0.600000X0.725000X0*%
%ADD19O,1.700000X1.950000*%
%ADD20RoundRect,0.250000X-0.450000X0.350000X-0.450000X-0.350000X0.450000X-0.350000X0.450000X0.350000X0*%
%ADD21RoundRect,0.250000X0.325000X0.450000X-0.325000X0.450000X-0.325000X-0.450000X0.325000X-0.450000X0*%
%ADD22RoundRect,0.250000X-0.262500X-0.450000X0.262500X-0.450000X0.262500X0.450000X-0.262500X0.450000X0*%
%ADD23RoundRect,0.250000X0.350000X0.450000X-0.350000X0.450000X-0.350000X-0.450000X0.350000X-0.450000X0*%
%ADD24RoundRect,0.250000X0.450000X-0.350000X0.450000X0.350000X-0.450000X0.350000X-0.450000X-0.350000X0*%
%ADD25RoundRect,0.250000X-0.450000X0.325000X-0.450000X-0.325000X0.450000X-0.325000X0.450000X0.325000X0*%
%ADD26RoundRect,0.250000X0.475000X-0.250000X0.475000X0.250000X-0.475000X0.250000X-0.475000X-0.250000X0*%
%ADD27RoundRect,0.250000X0.600000X0.725000X-0.600000X0.725000X-0.600000X-0.725000X0.600000X-0.725000X0*%
%ADD28C,0.650000*%
%ADD29RoundRect,0.150000X0.425000X-0.150000X0.425000X0.150000X-0.425000X0.150000X-0.425000X-0.150000X0*%
%ADD30RoundRect,0.075000X0.500000X-0.075000X0.500000X0.075000X-0.500000X0.075000X-0.500000X-0.075000X0*%
%ADD31O,2.100000X1.000000*%
%ADD32O,1.800000X1.000000*%
%ADD33C,3.200000*%
%ADD34R,0.812800X0.254000*%
%ADD35R,1.650000X2.400000*%
%ADD36R,1.700000X1.700000*%
%ADD37O,1.700000X1.700000*%
%ADD38RoundRect,0.250000X0.250000X0.475000X-0.250000X0.475000X-0.250000X-0.475000X0.250000X-0.475000X0*%
%ADD39RoundRect,0.076750X0.230250X-0.810250X0.230250X0.810250X-0.230250X0.810250X-0.230250X-0.810250X0*%
%ADD40RoundRect,0.250000X-0.475000X0.250000X-0.475000X-0.250000X0.475000X-0.250000X0.475000X0.250000X0*%
%ADD41R,0.584200X0.279400*%
%ADD42RoundRect,0.250000X0.450000X-0.262500X0.450000X0.262500X-0.450000X0.262500X-0.450000X-0.262500X0*%
%ADD43R,0.800000X0.300000*%
%ADD44R,1.750000X2.500000*%
%ADD45C,1.524000*%
%ADD46RoundRect,0.250000X-0.450000X0.262500X-0.450000X-0.262500X0.450000X-0.262500X0.450000X0.262500X0*%
%ADD47RoundRect,0.250000X-0.250000X-0.475000X0.250000X-0.475000X0.250000X0.475000X-0.250000X0.475000X0*%
%ADD48RoundRect,0.250000X0.450000X-0.325000X0.450000X0.325000X-0.450000X0.325000X-0.450000X-0.325000X0*%
%ADD49O,1.500000X2.250000*%
%ADD50RoundRect,0.218750X0.218750X0.381250X-0.218750X0.381250X-0.218750X-0.381250X0.218750X-0.381250X0*%
G04 APERTURE END LIST*
D10*
%TO.C,U2*%
G36*
X164042737Y-83644748D02*
G01*
X163792737Y-83644748D01*
X163792737Y-83344748D01*
X164042737Y-83344748D01*
X164042737Y-83644748D01*
G37*
G36*
X164042737Y-83644748D02*
G01*
X163792737Y-83644748D01*
X163792737Y-83344748D01*
X164042737Y-83344748D01*
X164042737Y-83644748D01*
G37*
G36*
X164042737Y-86344748D02*
G01*
X163792737Y-86344748D01*
X163792737Y-86044748D01*
X164042737Y-86044748D01*
X164042737Y-86344748D01*
G37*
G36*
X164042737Y-86344748D02*
G01*
X163792737Y-86344748D01*
X163792737Y-86044748D01*
X164042737Y-86044748D01*
X164042737Y-86344748D01*
G37*
G36*
X164792863Y-83644748D02*
G01*
X164542863Y-83644748D01*
X164542863Y-83344748D01*
X164792863Y-83344748D01*
X164792863Y-83644748D01*
G37*
G36*
X164792863Y-83644748D02*
G01*
X164542863Y-83644748D01*
X164542863Y-83344748D01*
X164792863Y-83344748D01*
X164792863Y-83644748D01*
G37*
G36*
X164792863Y-86344748D02*
G01*
X164542863Y-86344748D01*
X164542863Y-86044748D01*
X164792863Y-86044748D01*
X164792863Y-86344748D01*
G37*
G36*
X164792863Y-86344748D02*
G01*
X164542863Y-86344748D01*
X164542863Y-86044748D01*
X164792863Y-86044748D01*
X164792863Y-86344748D01*
G37*
%TD*%
D11*
%TO.C,U4*%
X172995000Y-84520000D03*
X172545000Y-84520000D03*
X172095000Y-84520000D03*
X171645000Y-84520000D03*
X171195000Y-84520000D03*
X170745000Y-84520000D03*
X170745000Y-87420000D03*
X171195000Y-87420000D03*
X171645000Y-87420000D03*
X172095000Y-87420000D03*
X172545000Y-87420000D03*
X172995000Y-87420000D03*
D12*
X171870000Y-85970000D03*
%TD*%
D13*
%TO.C,R19*%
X170030000Y-76005000D03*
X172030000Y-76005000D03*
%TD*%
%TO.C,FB1*%
X176500000Y-80210000D03*
X178500000Y-80210000D03*
%TD*%
D14*
%TO.C,R18*%
X159437500Y-78015000D03*
X157612500Y-78015000D03*
%TD*%
D15*
%TO.C,J8*%
X152500000Y-114400000D03*
D16*
X155000000Y-114400000D03*
%TD*%
D17*
%TO.C,J4*%
X142100000Y-90060000D03*
D16*
X139600000Y-90060000D03*
%TD*%
D18*
%TO.C,J9*%
X114900000Y-114425000D03*
D19*
X117400000Y-114425000D03*
X119900000Y-114425000D03*
X122400000Y-114425000D03*
X124900000Y-114425000D03*
X127400000Y-114425000D03*
%TD*%
D20*
%TO.C,R5*%
X176750000Y-74560000D03*
X176750000Y-76560000D03*
%TD*%
D21*
%TO.C,BSTAT2*%
X168300000Y-76010000D03*
X166250000Y-76010000D03*
%TD*%
D22*
%TO.C,R9*%
X183025000Y-92260000D03*
X184850000Y-92260000D03*
%TD*%
D23*
%TO.C,R22*%
X152300000Y-74960000D03*
X150300000Y-74960000D03*
%TD*%
D24*
%TO.C,R6*%
X109750000Y-79860000D03*
X109750000Y-77860000D03*
%TD*%
D25*
%TO.C,VBus1*%
X174725000Y-74562500D03*
X174725000Y-76612500D03*
%TD*%
D26*
%TO.C,C8*%
X178000000Y-89710000D03*
X178000000Y-87810000D03*
%TD*%
D27*
%TO.C,J1*%
X125200000Y-90060000D03*
D19*
X122700000Y-90060000D03*
X120200000Y-90060000D03*
X117700000Y-90060000D03*
X115200000Y-90060000D03*
%TD*%
D14*
%TO.C,R7*%
X169170000Y-85720000D03*
X167345000Y-85720000D03*
%TD*%
D22*
%TO.C,R13*%
X174420000Y-85010000D03*
X176245000Y-85010000D03*
%TD*%
D28*
%TO.C,J10*%
X183500000Y-88850000D03*
X183500000Y-83070000D03*
D29*
X182425000Y-89160000D03*
X182425000Y-88360000D03*
D30*
X182425000Y-87210000D03*
X182425000Y-86210000D03*
X182425000Y-85710000D03*
X182425000Y-84710000D03*
D29*
X182425000Y-83560000D03*
X182425000Y-82760000D03*
X182425000Y-82760000D03*
X182425000Y-83560000D03*
D30*
X182425000Y-84210000D03*
X182425000Y-85210000D03*
X182425000Y-86710000D03*
X182425000Y-87710000D03*
D29*
X182425000Y-88360000D03*
X182425000Y-89160000D03*
D31*
X183000000Y-90280000D03*
D32*
X187180000Y-90280000D03*
D31*
X183000000Y-81640000D03*
D32*
X187180000Y-81640000D03*
%TD*%
D26*
%TO.C,C4*%
X149875000Y-84965000D03*
X149875000Y-83065000D03*
%TD*%
D20*
%TO.C,R4*%
X107800000Y-77860000D03*
X107800000Y-79860000D03*
%TD*%
D23*
%TO.C,R23*%
X148550000Y-74960000D03*
X146550000Y-74960000D03*
%TD*%
D13*
%TO.C,R20*%
X170000000Y-77910000D03*
X172000000Y-77910000D03*
%TD*%
D33*
%TO.C,H3*%
X108300000Y-120510000D03*
%TD*%
D24*
%TO.C,R16*%
X107800000Y-84760000D03*
X107800000Y-82760000D03*
%TD*%
D20*
%TO.C,R21*%
X170850000Y-115460000D03*
X170850000Y-117460000D03*
%TD*%
D34*
%TO.C,U2*%
X165740600Y-85845000D03*
X165740600Y-85344874D03*
X165740600Y-84844748D03*
X165740600Y-84344622D03*
X165740600Y-83844496D03*
X162845000Y-83844496D03*
X162845000Y-84344622D03*
X162845000Y-84844748D03*
X162845000Y-85344874D03*
X162845000Y-85845000D03*
D35*
X164292800Y-84844748D03*
%TD*%
D36*
%TO.C,J6*%
X179350000Y-95040000D03*
D37*
X179350000Y-97580000D03*
X179350000Y-100120000D03*
X179350000Y-102660000D03*
%TD*%
D24*
%TO.C,R15*%
X109750000Y-84760000D03*
X109750000Y-82760000D03*
%TD*%
D33*
%TO.C,H4*%
X166300000Y-120510000D03*
%TD*%
D25*
%TO.C,3V3*%
X109800000Y-86535000D03*
X109800000Y-88585000D03*
%TD*%
D38*
%TO.C,C3*%
X148075000Y-86665000D03*
X146175000Y-86665000D03*
%TD*%
D39*
%TO.C,U5*%
X152075000Y-82755000D03*
X152725000Y-82755000D03*
X153375000Y-82755000D03*
X154025000Y-82755000D03*
X154675000Y-82755000D03*
X155325000Y-82755000D03*
X155975000Y-82755000D03*
X155975000Y-77015000D03*
X155325000Y-77015000D03*
X154675000Y-77015000D03*
X154025000Y-77015000D03*
X153375000Y-77015000D03*
X152725000Y-77015000D03*
X152075000Y-77015000D03*
%TD*%
D40*
%TO.C,C7*%
X170645000Y-81020000D03*
X170645000Y-82920000D03*
%TD*%
D41*
%TO.C,U3*%
X179600000Y-86510000D03*
X179600000Y-86010001D03*
X179600000Y-85510002D03*
X178279200Y-85510002D03*
X178279200Y-86010001D03*
X178279200Y-86510000D03*
%TD*%
D33*
%TO.C,H2*%
X166300000Y-71510000D03*
%TD*%
%TO.C,H1*%
X108300000Y-71510000D03*
%TD*%
D14*
%TO.C,R14*%
X161357500Y-85610000D03*
X159532500Y-85610000D03*
%TD*%
D42*
%TO.C,R1*%
X155275000Y-90290000D03*
X155275000Y-88465000D03*
%TD*%
D17*
%TO.C,J7*%
X133650000Y-90060000D03*
D16*
X131150000Y-90060000D03*
%TD*%
D43*
%TO.C,U1*%
X151475000Y-84765000D03*
X151475000Y-85265000D03*
X151475000Y-85765000D03*
X151475000Y-86265000D03*
X151475000Y-86765000D03*
X154475000Y-86765000D03*
X154475000Y-86265000D03*
X154475000Y-85765000D03*
X154475000Y-85265000D03*
X154475000Y-84765000D03*
D44*
X152975000Y-85765000D03*
%TD*%
D45*
%TO.C,BZ1*%
X179200000Y-110710000D03*
X179200000Y-118210000D03*
%TD*%
D46*
%TO.C,R3*%
X149875000Y-86765000D03*
X149875000Y-88590000D03*
%TD*%
D47*
%TO.C,C2*%
X146175000Y-90465000D03*
X148075000Y-90465000D03*
%TD*%
D25*
%TO.C,5V0*%
X107815000Y-86540000D03*
X107815000Y-88590000D03*
%TD*%
D47*
%TO.C,C11*%
X160995000Y-87620000D03*
X162895000Y-87620000D03*
%TD*%
D22*
%TO.C,R10*%
X183025000Y-79660000D03*
X184850000Y-79660000D03*
%TD*%
D40*
%TO.C,C10*%
X172645000Y-81020000D03*
X172645000Y-82920000D03*
%TD*%
D18*
%TO.C,J3*%
X133700000Y-114400000D03*
D19*
X136200000Y-114400000D03*
X138700000Y-114400000D03*
X141200000Y-114400000D03*
X143700000Y-114400000D03*
X146200000Y-114400000D03*
%TD*%
D14*
%TO.C,R17*%
X159425000Y-81365000D03*
X157600000Y-81365000D03*
%TD*%
D40*
%TO.C,C6*%
X180350000Y-78510000D03*
X180350000Y-80410000D03*
%TD*%
D48*
%TO.C,STAT1*%
X170845000Y-113740000D03*
X170845000Y-111690000D03*
%TD*%
D49*
%TO.C,Teensy4.1*%
X109770000Y-109400000D03*
X112310000Y-109400000D03*
X114850000Y-109400000D03*
X117390000Y-109400000D03*
X142790000Y-109400000D03*
X112310000Y-94160000D03*
X119930000Y-109400000D03*
X122470000Y-109400000D03*
X107230000Y-94160000D03*
X125010000Y-109400000D03*
X127550000Y-109400000D03*
X130090000Y-109400000D03*
X132630000Y-109400000D03*
X135170000Y-109400000D03*
X137710000Y-109400000D03*
X140250000Y-109400000D03*
X140250000Y-94160000D03*
X137710000Y-94160000D03*
X135170000Y-94160000D03*
X132630000Y-94160000D03*
X130090000Y-94160000D03*
X127550000Y-94160000D03*
X125010000Y-94160000D03*
X122470000Y-94160000D03*
X119930000Y-94160000D03*
X117390000Y-94160000D03*
X114850000Y-94160000D03*
X145330000Y-109400000D03*
X147870000Y-109400000D03*
X150410000Y-109400000D03*
X152950000Y-109400000D03*
X155490000Y-109400000D03*
X158030000Y-109400000D03*
X160570000Y-109400000D03*
X163110000Y-109400000D03*
X165650000Y-109400000D03*
X165650000Y-94160000D03*
X163110000Y-94160000D03*
X160570000Y-94160000D03*
X158030000Y-94160000D03*
X155490000Y-94160000D03*
X152950000Y-94160000D03*
X150410000Y-94160000D03*
X147870000Y-94160000D03*
X145330000Y-94160000D03*
X107230000Y-109400000D03*
X109770000Y-94160000D03*
X142790000Y-94160000D03*
%TD*%
D38*
%TO.C,C1*%
X153525000Y-90565000D03*
X151625000Y-90565000D03*
%TD*%
D22*
%TO.C,R12*%
X174420000Y-86910000D03*
X176245000Y-86910000D03*
%TD*%
D26*
%TO.C,C5*%
X166545000Y-89345000D03*
X166545000Y-87445000D03*
%TD*%
D42*
%TO.C,R8*%
X167545000Y-83432500D03*
X167545000Y-81607500D03*
%TD*%
D21*
%TO.C,BSTAT1*%
X168270000Y-77975000D03*
X166220000Y-77975000D03*
%TD*%
D42*
%TO.C,R11*%
X162845000Y-82232500D03*
X162845000Y-80407500D03*
%TD*%
D50*
%TO.C,L1*%
X148175000Y-88565000D03*
X146050000Y-88565000D03*
%TD*%
D40*
%TO.C,C9*%
X178000000Y-82310000D03*
X178000000Y-84210000D03*
%TD*%
D14*
%TO.C,R2*%
X153425000Y-88565000D03*
X151600000Y-88565000D03*
%TD*%
D40*
%TO.C,CIN1*%
X156075000Y-84965000D03*
X156075000Y-86865000D03*
%TD*%
D36*
%TO.C,J2*%
X113200000Y-72780000D03*
D37*
X113200000Y-70240000D03*
X115740000Y-72780000D03*
X115740000Y-70240000D03*
X118280000Y-72780000D03*
X118280000Y-70240000D03*
X120820000Y-72780000D03*
X120820000Y-70240000D03*
X123360000Y-72780000D03*
X123360000Y-70240000D03*
X125900000Y-72780000D03*
X125900000Y-70240000D03*
X128440000Y-72780000D03*
X128440000Y-70240000D03*
X130980000Y-72780000D03*
X130980000Y-70240000D03*
X133520000Y-72780000D03*
X133520000Y-70240000D03*
X136060000Y-72780000D03*
X136060000Y-70240000D03*
X138600000Y-72780000D03*
X138600000Y-70240000D03*
X141140000Y-72780000D03*
X141140000Y-70240000D03*
X143680000Y-72780000D03*
X143680000Y-70240000D03*
X146220000Y-72780000D03*
X146220000Y-70240000D03*
X148760000Y-72780000D03*
X148760000Y-70240000D03*
X151300000Y-72780000D03*
X151300000Y-70240000D03*
X153840000Y-72780000D03*
X153840000Y-70240000D03*
X156380000Y-72780000D03*
X156380000Y-70240000D03*
X158920000Y-72780000D03*
X158920000Y-70240000D03*
X161460000Y-72780000D03*
X161460000Y-70240000D03*
%TD*%
M02*
