%TF.GenerationSoftware,KiCad,Pcbnew,8.0.3*%
%TF.CreationDate,2024-10-28T17:10:34-04:00*%
%TF.ProjectId,PatchAntennaBreakout,50617463-6841-46e7-9465-6e6e61427265,rev?*%
%TF.SameCoordinates,Original*%
%TF.FileFunction,Copper,L2,Bot*%
%TF.FilePolarity,Positive*%
%FSLAX46Y46*%
G04 Gerber Fmt 4.6, Leading zero omitted, Abs format (unit mm)*
G04 Created by KiCad (PCBNEW 8.0.3) date 2024-10-28 17:10:34*
%MOMM*%
%LPD*%
G01*
G04 APERTURE LIST*
%TA.AperFunction,SMDPad,CuDef*%
%ADD10R,1.500000X5.080000*%
%TD*%
%TA.AperFunction,ViaPad*%
%ADD11C,0.600000*%
%TD*%
G04 APERTURE END LIST*
D10*
%TO.P,J1,2,Ext*%
%TO.N,Net-(J1-Ext)*%
X141250000Y-101000000D03*
X132750000Y-101000000D03*
%TD*%
D11*
%TO.N,Net-(J1-Ext)*%
X148000000Y-81000000D03*
X130000000Y-96000000D03*
X137000000Y-70000000D03*
X153000000Y-77000000D03*
X129000000Y-102000000D03*
X126000000Y-89000000D03*
X132000000Y-75000000D03*
X121000000Y-85000000D03*
X153000000Y-93000000D03*
X148000000Y-90000000D03*
X144000000Y-96000000D03*
X121000000Y-93000000D03*
X153000000Y-85000000D03*
X121000000Y-77000000D03*
X129000000Y-70000000D03*
X142000000Y-75000000D03*
X145000000Y-102000000D03*
X126000000Y-81000000D03*
X145000000Y-70000000D03*
%TD*%
%TA.AperFunction,Conductor*%
%TO.N,Net-(J1-Ext)*%
G36*
X154442539Y-68520185D02*
G01*
X154488294Y-68572989D01*
X154499500Y-68624500D01*
X154499500Y-103625500D01*
X154479815Y-103692539D01*
X154427011Y-103738294D01*
X154375500Y-103749500D01*
X142620665Y-103749500D01*
X142553626Y-103729815D01*
X142507871Y-103677011D01*
X142497375Y-103612245D01*
X142499999Y-103587828D01*
X142500000Y-103587827D01*
X142500000Y-101250000D01*
X140000000Y-101250000D01*
X140000000Y-103587828D01*
X140002625Y-103612245D01*
X139990219Y-103681005D01*
X139942608Y-103732142D01*
X139879335Y-103749500D01*
X134120665Y-103749500D01*
X134053626Y-103729815D01*
X134007871Y-103677011D01*
X133997375Y-103612245D01*
X133999999Y-103587828D01*
X134000000Y-103587827D01*
X134000000Y-101250000D01*
X131500000Y-101250000D01*
X131500000Y-103587828D01*
X131502625Y-103612245D01*
X131490219Y-103681005D01*
X131442608Y-103732142D01*
X131379335Y-103749500D01*
X119624500Y-103749500D01*
X119557461Y-103729815D01*
X119511706Y-103677011D01*
X119500500Y-103625500D01*
X119500500Y-100874038D01*
X120399500Y-100874038D01*
X120399500Y-101125961D01*
X120438910Y-101374785D01*
X120516760Y-101614383D01*
X120631132Y-101838848D01*
X120779201Y-102042649D01*
X120779205Y-102042654D01*
X120957345Y-102220794D01*
X120957350Y-102220798D01*
X121135117Y-102349952D01*
X121161155Y-102368870D01*
X121304184Y-102441747D01*
X121385616Y-102483239D01*
X121385618Y-102483239D01*
X121385621Y-102483241D01*
X121625215Y-102561090D01*
X121874038Y-102600500D01*
X121874039Y-102600500D01*
X122125961Y-102600500D01*
X122125962Y-102600500D01*
X122374785Y-102561090D01*
X122614379Y-102483241D01*
X122838845Y-102368870D01*
X123042656Y-102220793D01*
X123220793Y-102042656D01*
X123368870Y-101838845D01*
X123483241Y-101614379D01*
X123561090Y-101374785D01*
X123600500Y-101125962D01*
X123600500Y-100874038D01*
X150399500Y-100874038D01*
X150399500Y-101125961D01*
X150438910Y-101374785D01*
X150516760Y-101614383D01*
X150631132Y-101838848D01*
X150779201Y-102042649D01*
X150779205Y-102042654D01*
X150957345Y-102220794D01*
X150957350Y-102220798D01*
X151135117Y-102349952D01*
X151161155Y-102368870D01*
X151304184Y-102441747D01*
X151385616Y-102483239D01*
X151385618Y-102483239D01*
X151385621Y-102483241D01*
X151625215Y-102561090D01*
X151874038Y-102600500D01*
X151874039Y-102600500D01*
X152125961Y-102600500D01*
X152125962Y-102600500D01*
X152374785Y-102561090D01*
X152614379Y-102483241D01*
X152838845Y-102368870D01*
X153042656Y-102220793D01*
X153220793Y-102042656D01*
X153368870Y-101838845D01*
X153483241Y-101614379D01*
X153561090Y-101374785D01*
X153600500Y-101125962D01*
X153600500Y-100874038D01*
X153561090Y-100625215D01*
X153483241Y-100385621D01*
X153483239Y-100385618D01*
X153483239Y-100385616D01*
X153441747Y-100304184D01*
X153368870Y-100161155D01*
X153349952Y-100135117D01*
X153220798Y-99957350D01*
X153220794Y-99957345D01*
X153042654Y-99779205D01*
X153042649Y-99779201D01*
X152838848Y-99631132D01*
X152838847Y-99631131D01*
X152838845Y-99631130D01*
X152768747Y-99595413D01*
X152614383Y-99516760D01*
X152374785Y-99438910D01*
X152125962Y-99399500D01*
X151874038Y-99399500D01*
X151749626Y-99419205D01*
X151625214Y-99438910D01*
X151385616Y-99516760D01*
X151161151Y-99631132D01*
X150957350Y-99779201D01*
X150957345Y-99779205D01*
X150779205Y-99957345D01*
X150779201Y-99957350D01*
X150631132Y-100161151D01*
X150516760Y-100385616D01*
X150438910Y-100625214D01*
X150399500Y-100874038D01*
X123600500Y-100874038D01*
X123561090Y-100625215D01*
X123483241Y-100385621D01*
X123483239Y-100385618D01*
X123483239Y-100385616D01*
X123441747Y-100304184D01*
X123368870Y-100161155D01*
X123349952Y-100135117D01*
X123220798Y-99957350D01*
X123220794Y-99957345D01*
X123042654Y-99779205D01*
X123042649Y-99779201D01*
X122838848Y-99631132D01*
X122838847Y-99631131D01*
X122838845Y-99631130D01*
X122768747Y-99595413D01*
X122614383Y-99516760D01*
X122374785Y-99438910D01*
X122125962Y-99399500D01*
X121874038Y-99399500D01*
X121749626Y-99419205D01*
X121625214Y-99438910D01*
X121385616Y-99516760D01*
X121161151Y-99631132D01*
X120957350Y-99779201D01*
X120957345Y-99779205D01*
X120779205Y-99957345D01*
X120779201Y-99957350D01*
X120631132Y-100161151D01*
X120516760Y-100385616D01*
X120438910Y-100625214D01*
X120399500Y-100874038D01*
X119500500Y-100874038D01*
X119500500Y-98412155D01*
X131500000Y-98412155D01*
X131500000Y-100750000D01*
X132500000Y-100750000D01*
X133000000Y-100750000D01*
X134000000Y-100750000D01*
X134000000Y-98412172D01*
X133999999Y-98412155D01*
X140000000Y-98412155D01*
X140000000Y-100750000D01*
X141000000Y-100750000D01*
X141500000Y-100750000D01*
X142500000Y-100750000D01*
X142500000Y-98412172D01*
X142499999Y-98412155D01*
X142493598Y-98352627D01*
X142493596Y-98352620D01*
X142443354Y-98217913D01*
X142443350Y-98217906D01*
X142357190Y-98102812D01*
X142357187Y-98102809D01*
X142242093Y-98016649D01*
X142242086Y-98016645D01*
X142107379Y-97966403D01*
X142107372Y-97966401D01*
X142047844Y-97960000D01*
X141500000Y-97960000D01*
X141500000Y-100750000D01*
X141000000Y-100750000D01*
X141000000Y-97960000D01*
X140452155Y-97960000D01*
X140392627Y-97966401D01*
X140392620Y-97966403D01*
X140257913Y-98016645D01*
X140257906Y-98016649D01*
X140142812Y-98102809D01*
X140142809Y-98102812D01*
X140056649Y-98217906D01*
X140056645Y-98217913D01*
X140006403Y-98352620D01*
X140006401Y-98352627D01*
X140000000Y-98412155D01*
X133999999Y-98412155D01*
X133993598Y-98352627D01*
X133993596Y-98352620D01*
X133943354Y-98217913D01*
X133943350Y-98217906D01*
X133857190Y-98102812D01*
X133857187Y-98102809D01*
X133742093Y-98016649D01*
X133742086Y-98016645D01*
X133607379Y-97966403D01*
X133607372Y-97966401D01*
X133547844Y-97960000D01*
X133000000Y-97960000D01*
X133000000Y-100750000D01*
X132500000Y-100750000D01*
X132500000Y-97960000D01*
X131952155Y-97960000D01*
X131892627Y-97966401D01*
X131892620Y-97966403D01*
X131757913Y-98016645D01*
X131757906Y-98016649D01*
X131642812Y-98102809D01*
X131642809Y-98102812D01*
X131556649Y-98217906D01*
X131556645Y-98217913D01*
X131506403Y-98352620D01*
X131506401Y-98352627D01*
X131500000Y-98412155D01*
X119500500Y-98412155D01*
X119500500Y-70874038D01*
X120399500Y-70874038D01*
X120399500Y-71125961D01*
X120438910Y-71374785D01*
X120516760Y-71614383D01*
X120631132Y-71838848D01*
X120779201Y-72042649D01*
X120779205Y-72042654D01*
X120957345Y-72220794D01*
X120957350Y-72220798D01*
X121135117Y-72349952D01*
X121161155Y-72368870D01*
X121304184Y-72441747D01*
X121385616Y-72483239D01*
X121385618Y-72483239D01*
X121385621Y-72483241D01*
X121625215Y-72561090D01*
X121874038Y-72600500D01*
X121874039Y-72600500D01*
X122125961Y-72600500D01*
X122125962Y-72600500D01*
X122374785Y-72561090D01*
X122614379Y-72483241D01*
X122838845Y-72368870D01*
X123042656Y-72220793D01*
X123220793Y-72042656D01*
X123368870Y-71838845D01*
X123483241Y-71614379D01*
X123561090Y-71374785D01*
X123600500Y-71125962D01*
X123600500Y-70874038D01*
X150399500Y-70874038D01*
X150399500Y-71125961D01*
X150438910Y-71374785D01*
X150516760Y-71614383D01*
X150631132Y-71838848D01*
X150779201Y-72042649D01*
X150779205Y-72042654D01*
X150957345Y-72220794D01*
X150957350Y-72220798D01*
X151135117Y-72349952D01*
X151161155Y-72368870D01*
X151304184Y-72441747D01*
X151385616Y-72483239D01*
X151385618Y-72483239D01*
X151385621Y-72483241D01*
X151625215Y-72561090D01*
X151874038Y-72600500D01*
X151874039Y-72600500D01*
X152125961Y-72600500D01*
X152125962Y-72600500D01*
X152374785Y-72561090D01*
X152614379Y-72483241D01*
X152838845Y-72368870D01*
X153042656Y-72220793D01*
X153220793Y-72042656D01*
X153368870Y-71838845D01*
X153483241Y-71614379D01*
X153561090Y-71374785D01*
X153600500Y-71125962D01*
X153600500Y-70874038D01*
X153561090Y-70625215D01*
X153483241Y-70385621D01*
X153483239Y-70385618D01*
X153483239Y-70385616D01*
X153441747Y-70304184D01*
X153368870Y-70161155D01*
X153349952Y-70135117D01*
X153220798Y-69957350D01*
X153220794Y-69957345D01*
X153042654Y-69779205D01*
X153042649Y-69779201D01*
X152838848Y-69631132D01*
X152838847Y-69631131D01*
X152838845Y-69631130D01*
X152768747Y-69595413D01*
X152614383Y-69516760D01*
X152374785Y-69438910D01*
X152125962Y-69399500D01*
X151874038Y-69399500D01*
X151749626Y-69419205D01*
X151625214Y-69438910D01*
X151385616Y-69516760D01*
X151161151Y-69631132D01*
X150957350Y-69779201D01*
X150957345Y-69779205D01*
X150779205Y-69957345D01*
X150779201Y-69957350D01*
X150631132Y-70161151D01*
X150516760Y-70385616D01*
X150438910Y-70625214D01*
X150399500Y-70874038D01*
X123600500Y-70874038D01*
X123561090Y-70625215D01*
X123483241Y-70385621D01*
X123483239Y-70385618D01*
X123483239Y-70385616D01*
X123441747Y-70304184D01*
X123368870Y-70161155D01*
X123349952Y-70135117D01*
X123220798Y-69957350D01*
X123220794Y-69957345D01*
X123042654Y-69779205D01*
X123042649Y-69779201D01*
X122838848Y-69631132D01*
X122838847Y-69631131D01*
X122838845Y-69631130D01*
X122768747Y-69595413D01*
X122614383Y-69516760D01*
X122374785Y-69438910D01*
X122125962Y-69399500D01*
X121874038Y-69399500D01*
X121749626Y-69419205D01*
X121625214Y-69438910D01*
X121385616Y-69516760D01*
X121161151Y-69631132D01*
X120957350Y-69779201D01*
X120957345Y-69779205D01*
X120779205Y-69957345D01*
X120779201Y-69957350D01*
X120631132Y-70161151D01*
X120516760Y-70385616D01*
X120438910Y-70625214D01*
X120399500Y-70874038D01*
X119500500Y-70874038D01*
X119500500Y-68624500D01*
X119520185Y-68557461D01*
X119572989Y-68511706D01*
X119624500Y-68500500D01*
X154375500Y-68500500D01*
X154442539Y-68520185D01*
G37*
%TD.AperFunction*%
%TD*%
M02*
