%TF.GenerationSoftware,KiCad,Pcbnew,7.0.7*%
%TF.CreationDate,2024-02-14T21:09:05-05:00*%
%TF.ProjectId,Unified_Board,556e6966-6965-4645-9f42-6f6172642e6b,rev?*%
%TF.SameCoordinates,Original*%
%TF.FileFunction,Copper,L2,Inr*%
%TF.FilePolarity,Positive*%
%FSLAX46Y46*%
G04 Gerber Fmt 4.6, Leading zero omitted, Abs format (unit mm)*
G04 Created by KiCad (PCBNEW 7.0.7) date 2024-02-14 21:09:05*
%MOMM*%
%LPD*%
G01*
G04 APERTURE LIST*
%TA.AperFunction,ComponentPad*%
%ADD10R,1.700000X1.700000*%
%TD*%
%TA.AperFunction,ComponentPad*%
%ADD11O,1.700000X1.700000*%
%TD*%
%TA.AperFunction,ComponentPad*%
%ADD12R,2.600000X2.600000*%
%TD*%
%TA.AperFunction,ComponentPad*%
%ADD13C,2.600000*%
%TD*%
%TA.AperFunction,ComponentPad*%
%ADD14C,1.524000*%
%TD*%
%TA.AperFunction,ComponentPad*%
%ADD15C,2.000000*%
%TD*%
%TA.AperFunction,ViaPad*%
%ADD16C,0.800000*%
%TD*%
G04 APERTURE END LIST*
D10*
%TO.N,/3.3V*%
%TO.C,J3*%
X107600000Y-96000000D03*
D11*
%TO.N,/SCL*%
X107600000Y-98540000D03*
%TO.N,/SDA*%
X107600000Y-101080000D03*
%TO.N,GND*%
X107600000Y-103620000D03*
%TD*%
D12*
%TO.N,Net-(J1-Pin_1)*%
%TO.C,J1*%
X102750000Y-41750000D03*
D13*
%TO.N,Net-(J1-Pin_2)*%
X106250000Y-41750000D03*
%TD*%
D12*
%TO.N,Net-(J1-Pin_2)*%
%TO.C,J7*%
X114250000Y-41750000D03*
D13*
%TO.N,Net-(D6-K)*%
X117750000Y-41750000D03*
%TD*%
D10*
%TO.N,/3.3V*%
%TO.C,J2*%
X114600000Y-96000000D03*
D11*
%TO.N,/Breakout_RX2*%
X114600000Y-98540000D03*
%TO.N,/Breakout_TX2*%
X114600000Y-101080000D03*
%TO.N,GND*%
X114600000Y-103620000D03*
%TD*%
D10*
%TO.N,/3.3V*%
%TO.C,J4*%
X121400000Y-96000000D03*
D11*
%TO.N,/Breakout_RX1*%
X121400000Y-98540000D03*
%TO.N,/Breakout_TX1*%
X121400000Y-101080000D03*
%TO.N,GND*%
X121400000Y-103620000D03*
%TD*%
D10*
%TO.N,unconnected-(J5-Pin_1-Pad1)*%
%TO.C,J5*%
X151000000Y-37380000D03*
D11*
%TO.N,unconnected-(J5-Pin_2-Pad2)*%
X151000000Y-39920000D03*
%TO.N,unconnected-(J5-Pin_3-Pad3)*%
X151000000Y-42460000D03*
%TO.N,unconnected-(J5-Pin_4-Pad4)*%
X151000000Y-45000000D03*
%TO.N,unconnected-(J5-Pin_5-Pad5)*%
X151000000Y-47540000D03*
%TD*%
D10*
%TO.N,/3.3V*%
%TO.C,J6*%
X125600000Y-37380000D03*
D11*
%TO.N,GND*%
X125600000Y-39920000D03*
%TO.N,unconnected-(J6-Pin_3-Pad3)*%
X125600000Y-42460000D03*
%TO.N,/Radio_INT*%
X125600000Y-45000000D03*
%TO.N,/Radio_SCK*%
X125600000Y-47540000D03*
%TO.N,/Radio_MISO*%
X125600000Y-50080000D03*
%TO.N,/Radio_MOSI*%
X125600000Y-52620000D03*
%TO.N,/Radio_CS*%
X125600000Y-55160000D03*
%TO.N,/Radio_RST*%
X125600000Y-57700000D03*
%TD*%
D14*
%TO.N,Net-(BZ1--)*%
%TO.C,BZ1*%
X133250000Y-99100000D03*
%TO.N,GND*%
X140750000Y-99100000D03*
%TD*%
D15*
%TO.N,GND*%
%TO.C,Teensy4.1*%
X80380000Y-44990000D03*
%TO.N,/Breakout_RX1*%
X80380000Y-47530000D03*
%TO.N,/Breakout_TX1*%
X80380000Y-50070000D03*
%TO.N,unconnected-(Teensy4.1-PWM-Pad3)*%
X80380000Y-52610000D03*
%TO.N,unconnected-(Teensy4.1-PWM-Pad4)*%
X80380000Y-55150000D03*
%TO.N,unconnected-(Teensy4.1-PWM-Pad5)*%
X80380000Y-57690000D03*
%TO.N,unconnected-(Teensy4.1-PWM-Pad6)*%
X80380000Y-60230000D03*
%TO.N,unconnected-(Teensy4.1-PWM-Pad7)*%
X80380000Y-62770000D03*
%TO.N,/Breakout_RX2*%
X80380000Y-65310000D03*
%TO.N,/Breakout_TX2*%
X80380000Y-67850000D03*
%TO.N,unconnected-(Teensy4.1-PWM-Pad10)*%
X80380000Y-70390000D03*
%TO.N,/Radio_CS*%
X80380000Y-72930000D03*
%TO.N,/Radio_MOSI*%
X80380000Y-75470000D03*
%TO.N,/Radio_MISO*%
X80380000Y-78010000D03*
%TO.N,unconnected-(Teensy4.1-3.3V-Pad14)*%
X80380000Y-80550000D03*
%TO.N,unconnected-(Teensy4.1-SCL2-Pad15)*%
X80380000Y-83090000D03*
%TO.N,unconnected-(Teensy4.1-SDA2-Pad16)*%
X80380000Y-85630000D03*
%TO.N,unconnected-(Teensy4.1-MOSI1-Pad17)*%
X80380000Y-88170000D03*
%TO.N,unconnected-(Teensy4.1-SCK1-Pad18)*%
X80380000Y-90710000D03*
%TO.N,unconnected-(Teensy4.1-RX7-Pad19)*%
X80380000Y-93250000D03*
%TO.N,unconnected-(Teensy4.1-TX7-Pad20)*%
X80380000Y-95790000D03*
%TO.N,unconnected-(Teensy4.1-GPIO-Pad21)*%
X80380000Y-98330000D03*
%TO.N,/Radio_INT*%
X80380000Y-100870000D03*
%TO.N,/Radio_RST*%
X80380000Y-103410000D03*
%TO.N,Net-(BZ1--)*%
X95620000Y-103410000D03*
%TO.N,unconnected-(Teensy4.1-RX8-Pad25)*%
X95620000Y-100870000D03*
%TO.N,unconnected-(Teensy4.1-TX8-Pad26)*%
X95620000Y-98330000D03*
%TO.N,/BMP_I2C_ADDR*%
X95620000Y-95790000D03*
%TO.N,/BMP_INT*%
X95620000Y-93250000D03*
%TO.N,unconnected-(Teensy4.1-CS1-Pad29)*%
X95620000Y-90710000D03*
%TO.N,unconnected-(Teensy4.1-MISO-Pad30)*%
X95620000Y-88170000D03*
%TO.N,unconnected-(Teensy4.1-A16-Pad31)*%
X95620000Y-85630000D03*
%TO.N,unconnected-(Teensy4.1-A17-Pad32)*%
X95620000Y-83090000D03*
%TO.N,unconnected-(Teensy4.1-GND-Pad33)*%
X95620000Y-80550000D03*
%TO.N,/Radio_SCK*%
X95620000Y-78010000D03*
%TO.N,unconnected-(Teensy4.1-A0-Pad35)*%
X95620000Y-75470000D03*
%TO.N,unconnected-(Teensy4.1-A1-Pad36)*%
X95620000Y-72930000D03*
%TO.N,unconnected-(Teensy4.1-A2-Pad37)*%
X95620000Y-70390000D03*
%TO.N,unconnected-(Teensy4.1-A3-Pad38)*%
X95620000Y-67850000D03*
%TO.N,/SDA*%
X95620000Y-65310000D03*
%TO.N,/SCL*%
X95620000Y-62770000D03*
%TO.N,unconnected-(Teensy4.1-TX5-Pad41)*%
X95620000Y-60230000D03*
%TO.N,unconnected-(Teensy4.1-RX5-Pad42)*%
X95620000Y-57690000D03*
%TO.N,unconnected-(Teensy4.1-PWM-Pad43)*%
X95620000Y-55150000D03*
%TO.N,unconnected-(Teensy4.1-PWM-Pad44)*%
X95620000Y-52610000D03*
%TO.N,/3.3V*%
X95620000Y-50070000D03*
%TO.N,Net-(D6-K)*%
X95620000Y-47530000D03*
%TO.N,Net-(J1-Pin_1)*%
X95620000Y-44990000D03*
%TD*%
D16*
%TO.N,/3.3V*%
X143800000Y-71600000D03*
X101800000Y-69600000D03*
X146000000Y-78200000D03*
X104600000Y-82800000D03*
X151000000Y-69400000D03*
X155800000Y-66800000D03*
X155200000Y-93600000D03*
X104600000Y-88400000D03*
%TO.N,/SCL*%
X134723090Y-92046012D03*
X100200000Y-89600000D03*
X137400000Y-68400000D03*
%TO.N,GND*%
X141600000Y-83000000D03*
X142200000Y-67800000D03*
X150800000Y-67400000D03*
X148800000Y-77400000D03*
X129200000Y-91400000D03*
%TO.N,/BACKUP*%
X143200000Y-86600000D03*
X133600000Y-90000000D03*
%TO.N,Net-(BZ1--)*%
X99250000Y-102250000D03*
%TO.N,/SDA*%
X100200000Y-93000000D03*
X133487701Y-92237701D03*
X137200000Y-69600000D03*
%TD*%
%TA.AperFunction,Conductor*%
%TO.N,/3.3V*%
G36*
X124341494Y-36019685D02*
G01*
X124387249Y-36072489D01*
X124397193Y-36141647D01*
X124373721Y-36198311D01*
X124306649Y-36287906D01*
X124306645Y-36287913D01*
X124256403Y-36422620D01*
X124256401Y-36422627D01*
X124250000Y-36482155D01*
X124250000Y-37130000D01*
X124986653Y-37130000D01*
X125053692Y-37149685D01*
X125099447Y-37202489D01*
X125109391Y-37271647D01*
X125105631Y-37288933D01*
X125100000Y-37308111D01*
X125100000Y-37451888D01*
X125105631Y-37471067D01*
X125105630Y-37540936D01*
X125067855Y-37599714D01*
X125004299Y-37628738D01*
X124986653Y-37630000D01*
X124250000Y-37630000D01*
X124250000Y-38277844D01*
X124256401Y-38337372D01*
X124256403Y-38337379D01*
X124306645Y-38472086D01*
X124306649Y-38472093D01*
X124392809Y-38587187D01*
X124392812Y-38587190D01*
X124507906Y-38673350D01*
X124507913Y-38673354D01*
X124639470Y-38722421D01*
X124695403Y-38764292D01*
X124719821Y-38829756D01*
X124704970Y-38898029D01*
X124683819Y-38926284D01*
X124561503Y-39048600D01*
X124425965Y-39242169D01*
X124425964Y-39242171D01*
X124326098Y-39456335D01*
X124326094Y-39456344D01*
X124264938Y-39684586D01*
X124264936Y-39684596D01*
X124244341Y-39919999D01*
X124244341Y-39920000D01*
X124264936Y-40155403D01*
X124264938Y-40155413D01*
X124326094Y-40383655D01*
X124326096Y-40383659D01*
X124326097Y-40383663D01*
X124334708Y-40402129D01*
X124425965Y-40597830D01*
X124425967Y-40597834D01*
X124561501Y-40791395D01*
X124561506Y-40791402D01*
X124728597Y-40958493D01*
X124728603Y-40958498D01*
X124914158Y-41088425D01*
X124957783Y-41143002D01*
X124964977Y-41212500D01*
X124933454Y-41274855D01*
X124914158Y-41291575D01*
X124728597Y-41421505D01*
X124561505Y-41588597D01*
X124425965Y-41782169D01*
X124425964Y-41782171D01*
X124326098Y-41996335D01*
X124326094Y-41996344D01*
X124264938Y-42224586D01*
X124264936Y-42224596D01*
X124244341Y-42459999D01*
X124244341Y-42460000D01*
X124264936Y-42695403D01*
X124264938Y-42695413D01*
X124326094Y-42923655D01*
X124326096Y-42923659D01*
X124326097Y-42923663D01*
X124407331Y-43097870D01*
X124425965Y-43137830D01*
X124425967Y-43137834D01*
X124442633Y-43161635D01*
X124549078Y-43313654D01*
X124561501Y-43331395D01*
X124561506Y-43331402D01*
X124728597Y-43498493D01*
X124728603Y-43498498D01*
X124914158Y-43628425D01*
X124957783Y-43683002D01*
X124964977Y-43752500D01*
X124933454Y-43814855D01*
X124914158Y-43831575D01*
X124728597Y-43961505D01*
X124561505Y-44128597D01*
X124425965Y-44322169D01*
X124425964Y-44322171D01*
X124326098Y-44536335D01*
X124326094Y-44536344D01*
X124264938Y-44764586D01*
X124264936Y-44764596D01*
X124244341Y-44999999D01*
X124244341Y-45000000D01*
X124264936Y-45235403D01*
X124264938Y-45235413D01*
X124326094Y-45463655D01*
X124326096Y-45463659D01*
X124326097Y-45463663D01*
X124425965Y-45677829D01*
X124425965Y-45677830D01*
X124425967Y-45677834D01*
X124561501Y-45871395D01*
X124561506Y-45871402D01*
X124728597Y-46038493D01*
X124728603Y-46038498D01*
X124914158Y-46168425D01*
X124957783Y-46223002D01*
X124964977Y-46292500D01*
X124933454Y-46354855D01*
X124914158Y-46371575D01*
X124728597Y-46501505D01*
X124561505Y-46668597D01*
X124425965Y-46862169D01*
X124425964Y-46862171D01*
X124326098Y-47076335D01*
X124326094Y-47076344D01*
X124264938Y-47304586D01*
X124264936Y-47304596D01*
X124244341Y-47539999D01*
X124244341Y-47540000D01*
X124264936Y-47775403D01*
X124264938Y-47775413D01*
X124326094Y-48003655D01*
X124326096Y-48003659D01*
X124326097Y-48003663D01*
X124425965Y-48217829D01*
X124425965Y-48217830D01*
X124425967Y-48217834D01*
X124561501Y-48411395D01*
X124561506Y-48411402D01*
X124728597Y-48578493D01*
X124728603Y-48578498D01*
X124914158Y-48708425D01*
X124957783Y-48763002D01*
X124964977Y-48832500D01*
X124933454Y-48894855D01*
X124914158Y-48911575D01*
X124728597Y-49041505D01*
X124561505Y-49208597D01*
X124425965Y-49402169D01*
X124425964Y-49402171D01*
X124326098Y-49616335D01*
X124326094Y-49616344D01*
X124264938Y-49844586D01*
X124264936Y-49844596D01*
X124244341Y-50079999D01*
X124244341Y-50080000D01*
X124264936Y-50315403D01*
X124264938Y-50315413D01*
X124326094Y-50543655D01*
X124326096Y-50543659D01*
X124326097Y-50543663D01*
X124394267Y-50689854D01*
X124425965Y-50757830D01*
X124425967Y-50757834D01*
X124561501Y-50951395D01*
X124561506Y-50951402D01*
X124728597Y-51118493D01*
X124728603Y-51118498D01*
X124914158Y-51248425D01*
X124957783Y-51303002D01*
X124964977Y-51372500D01*
X124933454Y-51434855D01*
X124914158Y-51451575D01*
X124728597Y-51581505D01*
X124561505Y-51748597D01*
X124425965Y-51942169D01*
X124425964Y-51942171D01*
X124326098Y-52156335D01*
X124326094Y-52156344D01*
X124264938Y-52384586D01*
X124264936Y-52384596D01*
X124244341Y-52619999D01*
X124244341Y-52620000D01*
X124264936Y-52855403D01*
X124264938Y-52855413D01*
X124326094Y-53083655D01*
X124326096Y-53083659D01*
X124326097Y-53083663D01*
X124425965Y-53297830D01*
X124425967Y-53297834D01*
X124561501Y-53491395D01*
X124561506Y-53491402D01*
X124728597Y-53658493D01*
X124728603Y-53658498D01*
X124914158Y-53788425D01*
X124957783Y-53843002D01*
X124964977Y-53912500D01*
X124933454Y-53974855D01*
X124914158Y-53991575D01*
X124728597Y-54121505D01*
X124561505Y-54288597D01*
X124425965Y-54482169D01*
X124425964Y-54482171D01*
X124326098Y-54696335D01*
X124326094Y-54696344D01*
X124264938Y-54924586D01*
X124264936Y-54924596D01*
X124244341Y-55159999D01*
X124244341Y-55160000D01*
X124264936Y-55395403D01*
X124264938Y-55395413D01*
X124326094Y-55623655D01*
X124326096Y-55623659D01*
X124326097Y-55623663D01*
X124425965Y-55837829D01*
X124425965Y-55837830D01*
X124425967Y-55837834D01*
X124561501Y-56031395D01*
X124561506Y-56031402D01*
X124728597Y-56198493D01*
X124728603Y-56198498D01*
X124914158Y-56328425D01*
X124957783Y-56383002D01*
X124964977Y-56452500D01*
X124933454Y-56514855D01*
X124914158Y-56531575D01*
X124728597Y-56661505D01*
X124561505Y-56828597D01*
X124425965Y-57022169D01*
X124425964Y-57022171D01*
X124326098Y-57236335D01*
X124326094Y-57236344D01*
X124264938Y-57464586D01*
X124264936Y-57464596D01*
X124244341Y-57699999D01*
X124244341Y-57700000D01*
X124264936Y-57935403D01*
X124264938Y-57935413D01*
X124326094Y-58163655D01*
X124326096Y-58163659D01*
X124326097Y-58163663D01*
X124425965Y-58377829D01*
X124425965Y-58377830D01*
X124425967Y-58377834D01*
X124534281Y-58532521D01*
X124561505Y-58571401D01*
X124728599Y-58738495D01*
X124813207Y-58797738D01*
X124922165Y-58874032D01*
X124922167Y-58874033D01*
X124922170Y-58874035D01*
X125136337Y-58973903D01*
X125364592Y-59035063D01*
X125527467Y-59049313D01*
X125599999Y-59055659D01*
X125600000Y-59055659D01*
X125600001Y-59055659D01*
X125672533Y-59049313D01*
X125835408Y-59035063D01*
X126063663Y-58973903D01*
X126277830Y-58874035D01*
X126471401Y-58738495D01*
X126638495Y-58571401D01*
X126774035Y-58377830D01*
X126873903Y-58163663D01*
X126935063Y-57935408D01*
X126955659Y-57700000D01*
X126935063Y-57464592D01*
X126873903Y-57236337D01*
X126774035Y-57022171D01*
X126739881Y-56973393D01*
X126638494Y-56828597D01*
X126471402Y-56661506D01*
X126471396Y-56661501D01*
X126285842Y-56531575D01*
X126242217Y-56476998D01*
X126235023Y-56407500D01*
X126266546Y-56345145D01*
X126285842Y-56328425D01*
X126386793Y-56257738D01*
X126471401Y-56198495D01*
X126638495Y-56031401D01*
X126774035Y-55837830D01*
X126873903Y-55623663D01*
X126935063Y-55395408D01*
X126955659Y-55160000D01*
X126935063Y-54924592D01*
X126873903Y-54696337D01*
X126774035Y-54482171D01*
X126739881Y-54433393D01*
X126638494Y-54288597D01*
X126471402Y-54121506D01*
X126471396Y-54121501D01*
X126285842Y-53991575D01*
X126242217Y-53936998D01*
X126235023Y-53867500D01*
X126266546Y-53805145D01*
X126285842Y-53788425D01*
X126386793Y-53717738D01*
X126471401Y-53658495D01*
X126638495Y-53491401D01*
X126774035Y-53297830D01*
X126873903Y-53083663D01*
X126935063Y-52855408D01*
X126955659Y-52620000D01*
X126935063Y-52384592D01*
X126873903Y-52156337D01*
X126774035Y-51942171D01*
X126739881Y-51893393D01*
X126638494Y-51748597D01*
X126471402Y-51581506D01*
X126471396Y-51581501D01*
X126285842Y-51451575D01*
X126242217Y-51396998D01*
X126235023Y-51327500D01*
X126266546Y-51265145D01*
X126285842Y-51248425D01*
X126386793Y-51177738D01*
X126471401Y-51118495D01*
X126638495Y-50951401D01*
X126774035Y-50757830D01*
X126873903Y-50543663D01*
X126935063Y-50315408D01*
X126955659Y-50080000D01*
X126935063Y-49844592D01*
X126873903Y-49616337D01*
X126774035Y-49402171D01*
X126740047Y-49353630D01*
X126638494Y-49208597D01*
X126471402Y-49041506D01*
X126471396Y-49041501D01*
X126285842Y-48911575D01*
X126242217Y-48856998D01*
X126235023Y-48787500D01*
X126266546Y-48725145D01*
X126285842Y-48708425D01*
X126386793Y-48637738D01*
X126471401Y-48578495D01*
X126638495Y-48411401D01*
X126774035Y-48217830D01*
X126873903Y-48003663D01*
X126935063Y-47775408D01*
X126955659Y-47540000D01*
X126935063Y-47304592D01*
X126873903Y-47076337D01*
X126774035Y-46862171D01*
X126739881Y-46813393D01*
X126638494Y-46668597D01*
X126471402Y-46501506D01*
X126471396Y-46501501D01*
X126285842Y-46371575D01*
X126242217Y-46316998D01*
X126235023Y-46247500D01*
X126266546Y-46185145D01*
X126285842Y-46168425D01*
X126386793Y-46097738D01*
X126471401Y-46038495D01*
X126638495Y-45871401D01*
X126774035Y-45677830D01*
X126873903Y-45463663D01*
X126935063Y-45235408D01*
X126955659Y-45000000D01*
X126935063Y-44764592D01*
X126873903Y-44536337D01*
X126774035Y-44322171D01*
X126739881Y-44273393D01*
X126638494Y-44128597D01*
X126471402Y-43961506D01*
X126471396Y-43961501D01*
X126285842Y-43831575D01*
X126242217Y-43776998D01*
X126235023Y-43707500D01*
X126266546Y-43645145D01*
X126285842Y-43628425D01*
X126397130Y-43550500D01*
X126471401Y-43498495D01*
X126638495Y-43331401D01*
X126774035Y-43137830D01*
X126873903Y-42923663D01*
X126935063Y-42695408D01*
X126955659Y-42460000D01*
X126935063Y-42224592D01*
X126873903Y-41996337D01*
X126774035Y-41782171D01*
X126751506Y-41749995D01*
X126638494Y-41588597D01*
X126471402Y-41421506D01*
X126471396Y-41421501D01*
X126285842Y-41291575D01*
X126242217Y-41236998D01*
X126235023Y-41167500D01*
X126266546Y-41105145D01*
X126285842Y-41088425D01*
X126308026Y-41072891D01*
X126471401Y-40958495D01*
X126638495Y-40791401D01*
X126774035Y-40597830D01*
X126873903Y-40383663D01*
X126935063Y-40155408D01*
X126955659Y-39920000D01*
X126935063Y-39684592D01*
X126873903Y-39456337D01*
X126774035Y-39242171D01*
X126638495Y-39048599D01*
X126516179Y-38926283D01*
X126482696Y-38864963D01*
X126487680Y-38795271D01*
X126529551Y-38739337D01*
X126560529Y-38722422D01*
X126692086Y-38673354D01*
X126692093Y-38673350D01*
X126807187Y-38587190D01*
X126807190Y-38587187D01*
X126893350Y-38472093D01*
X126893354Y-38472086D01*
X126943596Y-38337379D01*
X126943598Y-38337372D01*
X126949999Y-38277844D01*
X126950000Y-38277827D01*
X126950000Y-37630000D01*
X126213347Y-37630000D01*
X126146308Y-37610315D01*
X126100553Y-37557511D01*
X126090609Y-37488353D01*
X126094369Y-37471067D01*
X126100000Y-37451888D01*
X126100000Y-37308111D01*
X126094369Y-37288933D01*
X126094370Y-37219064D01*
X126132145Y-37160286D01*
X126195701Y-37131262D01*
X126213347Y-37130000D01*
X126950000Y-37130000D01*
X126950000Y-36482172D01*
X126949999Y-36482155D01*
X126943598Y-36422627D01*
X126943596Y-36422620D01*
X126893354Y-36287913D01*
X126893350Y-36287906D01*
X126826279Y-36198311D01*
X126801861Y-36132847D01*
X126816712Y-36064574D01*
X126866117Y-36015168D01*
X126925545Y-36000000D01*
X149673831Y-36000000D01*
X149740870Y-36019685D01*
X149786625Y-36072489D01*
X149796569Y-36141647D01*
X149773097Y-36198311D01*
X149706206Y-36287664D01*
X149706202Y-36287671D01*
X149655908Y-36422517D01*
X149649501Y-36482116D01*
X149649501Y-36482123D01*
X149649500Y-36482135D01*
X149649500Y-38277870D01*
X149649501Y-38277876D01*
X149655908Y-38337483D01*
X149706202Y-38472328D01*
X149706206Y-38472335D01*
X149792452Y-38587544D01*
X149792455Y-38587547D01*
X149907664Y-38673793D01*
X149907671Y-38673797D01*
X150039081Y-38722810D01*
X150095015Y-38764681D01*
X150119432Y-38830145D01*
X150104580Y-38898418D01*
X150083430Y-38926673D01*
X149961503Y-39048600D01*
X149825965Y-39242169D01*
X149825964Y-39242171D01*
X149726098Y-39456335D01*
X149726094Y-39456344D01*
X149664938Y-39684586D01*
X149664936Y-39684596D01*
X149644341Y-39919999D01*
X149644341Y-39920000D01*
X149664936Y-40155403D01*
X149664938Y-40155413D01*
X149726094Y-40383655D01*
X149726096Y-40383659D01*
X149726097Y-40383663D01*
X149734708Y-40402129D01*
X149825965Y-40597830D01*
X149825967Y-40597834D01*
X149961501Y-40791395D01*
X149961506Y-40791402D01*
X150128597Y-40958493D01*
X150128603Y-40958498D01*
X150314158Y-41088425D01*
X150357783Y-41143002D01*
X150364977Y-41212500D01*
X150333454Y-41274855D01*
X150314158Y-41291575D01*
X150128597Y-41421505D01*
X149961505Y-41588597D01*
X149825965Y-41782169D01*
X149825964Y-41782171D01*
X149726098Y-41996335D01*
X149726094Y-41996344D01*
X149664938Y-42224586D01*
X149664936Y-42224596D01*
X149644341Y-42459999D01*
X149644341Y-42460000D01*
X149664936Y-42695403D01*
X149664938Y-42695413D01*
X149726094Y-42923655D01*
X149726096Y-42923659D01*
X149726097Y-42923663D01*
X149807331Y-43097870D01*
X149825965Y-43137830D01*
X149825967Y-43137834D01*
X149842633Y-43161635D01*
X149949078Y-43313654D01*
X149961501Y-43331395D01*
X149961506Y-43331402D01*
X150128597Y-43498493D01*
X150128603Y-43498498D01*
X150314158Y-43628425D01*
X150357783Y-43683002D01*
X150364977Y-43752500D01*
X150333454Y-43814855D01*
X150314158Y-43831575D01*
X150128597Y-43961505D01*
X149961505Y-44128597D01*
X149825965Y-44322169D01*
X149825964Y-44322171D01*
X149726098Y-44536335D01*
X149726094Y-44536344D01*
X149664938Y-44764586D01*
X149664936Y-44764596D01*
X149644341Y-44999999D01*
X149644341Y-45000000D01*
X149664936Y-45235403D01*
X149664938Y-45235413D01*
X149726094Y-45463655D01*
X149726096Y-45463659D01*
X149726097Y-45463663D01*
X149825964Y-45677829D01*
X149825965Y-45677830D01*
X149825967Y-45677834D01*
X149961501Y-45871395D01*
X149961506Y-45871402D01*
X150128597Y-46038493D01*
X150128603Y-46038498D01*
X150314158Y-46168425D01*
X150357783Y-46223002D01*
X150364977Y-46292500D01*
X150333454Y-46354855D01*
X150314158Y-46371575D01*
X150128597Y-46501505D01*
X149961505Y-46668597D01*
X149825965Y-46862169D01*
X149825964Y-46862171D01*
X149726098Y-47076335D01*
X149726094Y-47076344D01*
X149664938Y-47304586D01*
X149664936Y-47304596D01*
X149644341Y-47539999D01*
X149644341Y-47540000D01*
X149664936Y-47775403D01*
X149664938Y-47775413D01*
X149726094Y-48003655D01*
X149726096Y-48003659D01*
X149726097Y-48003663D01*
X149825965Y-48217829D01*
X149825965Y-48217830D01*
X149825967Y-48217834D01*
X149934281Y-48372521D01*
X149961505Y-48411401D01*
X150128599Y-48578495D01*
X150213207Y-48637738D01*
X150322165Y-48714032D01*
X150322167Y-48714033D01*
X150322170Y-48714035D01*
X150536337Y-48813903D01*
X150764592Y-48875063D01*
X150927467Y-48889313D01*
X150999999Y-48895659D01*
X151000000Y-48895659D01*
X151000001Y-48895659D01*
X151072533Y-48889313D01*
X151235408Y-48875063D01*
X151463663Y-48813903D01*
X151677830Y-48714035D01*
X151871401Y-48578495D01*
X152038495Y-48411401D01*
X152174035Y-48217830D01*
X152273903Y-48003663D01*
X152335063Y-47775408D01*
X152355659Y-47540000D01*
X152335063Y-47304592D01*
X152273903Y-47076337D01*
X152174035Y-46862171D01*
X152139881Y-46813393D01*
X152038494Y-46668597D01*
X151871402Y-46501506D01*
X151871401Y-46501505D01*
X151685842Y-46371575D01*
X151685841Y-46371574D01*
X151642216Y-46316997D01*
X151635024Y-46247498D01*
X151666546Y-46185144D01*
X151685836Y-46168428D01*
X151871401Y-46038495D01*
X152038495Y-45871401D01*
X152174035Y-45677830D01*
X152273903Y-45463663D01*
X152335063Y-45235408D01*
X152355659Y-45000000D01*
X152335063Y-44764592D01*
X152273903Y-44536337D01*
X152174035Y-44322171D01*
X152139881Y-44273393D01*
X152038494Y-44128597D01*
X151871402Y-43961506D01*
X151871401Y-43961505D01*
X151685842Y-43831575D01*
X151685841Y-43831574D01*
X151642216Y-43776997D01*
X151635024Y-43707498D01*
X151666546Y-43645144D01*
X151685836Y-43628428D01*
X151871401Y-43498495D01*
X152038495Y-43331401D01*
X152174035Y-43137830D01*
X152273903Y-42923663D01*
X152335063Y-42695408D01*
X152355659Y-42460000D01*
X152335063Y-42224592D01*
X152273903Y-41996337D01*
X152174035Y-41782171D01*
X152151506Y-41749995D01*
X152038494Y-41588597D01*
X151871402Y-41421506D01*
X151871401Y-41421505D01*
X151685842Y-41291575D01*
X151685841Y-41291574D01*
X151642216Y-41236997D01*
X151635024Y-41167498D01*
X151666546Y-41105144D01*
X151685836Y-41088428D01*
X151871401Y-40958495D01*
X152038495Y-40791401D01*
X152174035Y-40597830D01*
X152273903Y-40383663D01*
X152335063Y-40155408D01*
X152355659Y-39920000D01*
X152335063Y-39684592D01*
X152273903Y-39456337D01*
X152174035Y-39242171D01*
X152038495Y-39048599D01*
X151916567Y-38926671D01*
X151883084Y-38865351D01*
X151888068Y-38795659D01*
X151929939Y-38739725D01*
X151960915Y-38722810D01*
X152092331Y-38673796D01*
X152207546Y-38587546D01*
X152293796Y-38472331D01*
X152344091Y-38337483D01*
X152350500Y-38277873D01*
X152350499Y-36482128D01*
X152344091Y-36422517D01*
X152293884Y-36287906D01*
X152293797Y-36287671D01*
X152293793Y-36287664D01*
X152226903Y-36198311D01*
X152202485Y-36132847D01*
X152217336Y-36064574D01*
X152266741Y-36015168D01*
X152326169Y-36000000D01*
X157325211Y-36000000D01*
X157392250Y-36019685D01*
X157438005Y-36072489D01*
X157449209Y-36124786D01*
X157442606Y-37166441D01*
X157422496Y-37233354D01*
X157369403Y-37278774D01*
X157366062Y-37280215D01*
X157271140Y-37319534D01*
X157271137Y-37319535D01*
X157056346Y-37451160D01*
X157056343Y-37451161D01*
X156864776Y-37614776D01*
X156701161Y-37806343D01*
X156701160Y-37806346D01*
X156569533Y-38021140D01*
X156473126Y-38253889D01*
X156414317Y-38498848D01*
X156394551Y-38749999D01*
X156394551Y-38750000D01*
X156399492Y-38812787D01*
X156414317Y-39001151D01*
X156473126Y-39246110D01*
X156569533Y-39478859D01*
X156701160Y-39693653D01*
X156701161Y-39693656D01*
X156701164Y-39693659D01*
X156864776Y-39885224D01*
X156987123Y-39989718D01*
X157056343Y-40048838D01*
X157056346Y-40048839D01*
X157271141Y-40180466D01*
X157271143Y-40180467D01*
X157346030Y-40211486D01*
X157400434Y-40255326D01*
X157422499Y-40321620D01*
X157422576Y-40326833D01*
X157019481Y-103926263D01*
X156999371Y-103993176D01*
X156976015Y-104019767D01*
X156864782Y-104114770D01*
X156864776Y-104114776D01*
X156701161Y-104306343D01*
X156701160Y-104306346D01*
X156569533Y-104521140D01*
X156473126Y-104753889D01*
X156414317Y-104998848D01*
X156394551Y-105250000D01*
X156414317Y-105501151D01*
X156473126Y-105746110D01*
X156569533Y-105978859D01*
X156701160Y-106193653D01*
X156701161Y-106193656D01*
X156701164Y-106193659D01*
X156864776Y-106385224D01*
X156954851Y-106462155D01*
X156959315Y-106465968D01*
X156997508Y-106524475D01*
X157002781Y-106561043D01*
X157000781Y-106876785D01*
X156980672Y-106943699D01*
X156927579Y-106989118D01*
X156876783Y-107000000D01*
X76923283Y-107000000D01*
X76856244Y-106980315D01*
X76810489Y-106927511D01*
X76799285Y-106876719D01*
X76795325Y-106193656D01*
X76779188Y-103410005D01*
X78874357Y-103410005D01*
X78894890Y-103657812D01*
X78894892Y-103657824D01*
X78955936Y-103898881D01*
X79055826Y-104126606D01*
X79191833Y-104334782D01*
X79191836Y-104334785D01*
X79360256Y-104517738D01*
X79556491Y-104670474D01*
X79775190Y-104788828D01*
X80010386Y-104869571D01*
X80255665Y-104910500D01*
X80504335Y-104910500D01*
X80749614Y-104869571D01*
X80984810Y-104788828D01*
X81203509Y-104670474D01*
X81399744Y-104517738D01*
X81568164Y-104334785D01*
X81704173Y-104126607D01*
X81804063Y-103898881D01*
X81865108Y-103657821D01*
X81865109Y-103657812D01*
X81885643Y-103410005D01*
X94114357Y-103410005D01*
X94134890Y-103657812D01*
X94134892Y-103657824D01*
X94195936Y-103898881D01*
X94295826Y-104126606D01*
X94431833Y-104334782D01*
X94431836Y-104334785D01*
X94600256Y-104517738D01*
X94796491Y-104670474D01*
X95015190Y-104788828D01*
X95250386Y-104869571D01*
X95495665Y-104910500D01*
X95744335Y-104910500D01*
X95989614Y-104869571D01*
X96224810Y-104788828D01*
X96443509Y-104670474D01*
X96639744Y-104517738D01*
X96808164Y-104334785D01*
X96944173Y-104126607D01*
X97044063Y-103898881D01*
X97105108Y-103657821D01*
X97105109Y-103657812D01*
X97108242Y-103620000D01*
X106244341Y-103620000D01*
X106264936Y-103855403D01*
X106264938Y-103855413D01*
X106326094Y-104083655D01*
X106326096Y-104083659D01*
X106326097Y-104083663D01*
X106425964Y-104297829D01*
X106425965Y-104297830D01*
X106425967Y-104297834D01*
X106451841Y-104334785D01*
X106561505Y-104491401D01*
X106728599Y-104658495D01*
X106825384Y-104726264D01*
X106922165Y-104794032D01*
X106922167Y-104794033D01*
X106922170Y-104794035D01*
X107136337Y-104893903D01*
X107364592Y-104955063D01*
X107552918Y-104971539D01*
X107599999Y-104975659D01*
X107600000Y-104975659D01*
X107600001Y-104975659D01*
X107639234Y-104972226D01*
X107835408Y-104955063D01*
X108063663Y-104893903D01*
X108277830Y-104794035D01*
X108471401Y-104658495D01*
X108638495Y-104491401D01*
X108774035Y-104297830D01*
X108873903Y-104083663D01*
X108935063Y-103855408D01*
X108955659Y-103620000D01*
X113244341Y-103620000D01*
X113264936Y-103855403D01*
X113264938Y-103855413D01*
X113326094Y-104083655D01*
X113326096Y-104083659D01*
X113326097Y-104083663D01*
X113425965Y-104297829D01*
X113425965Y-104297830D01*
X113425967Y-104297834D01*
X113451841Y-104334785D01*
X113561505Y-104491401D01*
X113728599Y-104658495D01*
X113825384Y-104726264D01*
X113922165Y-104794032D01*
X113922167Y-104794033D01*
X113922170Y-104794035D01*
X114136337Y-104893903D01*
X114364592Y-104955063D01*
X114552918Y-104971539D01*
X114599999Y-104975659D01*
X114600000Y-104975659D01*
X114600001Y-104975659D01*
X114639234Y-104972226D01*
X114835408Y-104955063D01*
X115063663Y-104893903D01*
X115277830Y-104794035D01*
X115471401Y-104658495D01*
X115638495Y-104491401D01*
X115774035Y-104297830D01*
X115873903Y-104083663D01*
X115935063Y-103855408D01*
X115955659Y-103620000D01*
X120044341Y-103620000D01*
X120064936Y-103855403D01*
X120064938Y-103855413D01*
X120126094Y-104083655D01*
X120126096Y-104083659D01*
X120126097Y-104083663D01*
X120225964Y-104297829D01*
X120225965Y-104297830D01*
X120225967Y-104297834D01*
X120251841Y-104334785D01*
X120361505Y-104491401D01*
X120528599Y-104658495D01*
X120625384Y-104726264D01*
X120722165Y-104794032D01*
X120722167Y-104794033D01*
X120722170Y-104794035D01*
X120936337Y-104893903D01*
X121164592Y-104955063D01*
X121352918Y-104971539D01*
X121399999Y-104975659D01*
X121400000Y-104975659D01*
X121400001Y-104975659D01*
X121439234Y-104972226D01*
X121635408Y-104955063D01*
X121863663Y-104893903D01*
X122077830Y-104794035D01*
X122271401Y-104658495D01*
X122438495Y-104491401D01*
X122574035Y-104297830D01*
X122673903Y-104083663D01*
X122735063Y-103855408D01*
X122755659Y-103620000D01*
X122735063Y-103384592D01*
X122688626Y-103211285D01*
X122673905Y-103156344D01*
X122673904Y-103156343D01*
X122673903Y-103156337D01*
X122574035Y-102942171D01*
X122559295Y-102921119D01*
X122438494Y-102748597D01*
X122271402Y-102581506D01*
X122271396Y-102581501D01*
X122085842Y-102451575D01*
X122042217Y-102396998D01*
X122035023Y-102327500D01*
X122066546Y-102265145D01*
X122085842Y-102248425D01*
X122181930Y-102181143D01*
X122271401Y-102118495D01*
X122438495Y-101951401D01*
X122574035Y-101757830D01*
X122673903Y-101543663D01*
X122735063Y-101315408D01*
X122755659Y-101080000D01*
X122735063Y-100844592D01*
X122688626Y-100671285D01*
X122673905Y-100616344D01*
X122673904Y-100616343D01*
X122673903Y-100616337D01*
X122574035Y-100402171D01*
X122559295Y-100381119D01*
X122438494Y-100208597D01*
X122271402Y-100041506D01*
X122271401Y-100041505D01*
X122133885Y-99945215D01*
X122085841Y-99911574D01*
X122042216Y-99856997D01*
X122035024Y-99787498D01*
X122066546Y-99725144D01*
X122085836Y-99708428D01*
X122271401Y-99578495D01*
X122438495Y-99411401D01*
X122574035Y-99217830D01*
X122628979Y-99100002D01*
X131982677Y-99100002D01*
X132001929Y-99320062D01*
X132001930Y-99320070D01*
X132059104Y-99533445D01*
X132059105Y-99533447D01*
X132059106Y-99533450D01*
X132090139Y-99600000D01*
X132152466Y-99733662D01*
X132152468Y-99733666D01*
X132279170Y-99914615D01*
X132279175Y-99914621D01*
X132435378Y-100070824D01*
X132435384Y-100070829D01*
X132616333Y-100197531D01*
X132616335Y-100197532D01*
X132616338Y-100197534D01*
X132816550Y-100290894D01*
X133029932Y-100348070D01*
X133187123Y-100361822D01*
X133249998Y-100367323D01*
X133250000Y-100367323D01*
X133250002Y-100367323D01*
X133305017Y-100362509D01*
X133470068Y-100348070D01*
X133683450Y-100290894D01*
X133883662Y-100197534D01*
X134064620Y-100070826D01*
X134220826Y-99914620D01*
X134347534Y-99733662D01*
X134440894Y-99533450D01*
X134498070Y-99320068D01*
X134517323Y-99100002D01*
X139482677Y-99100002D01*
X139501929Y-99320062D01*
X139501930Y-99320070D01*
X139559104Y-99533445D01*
X139559105Y-99533447D01*
X139559106Y-99533450D01*
X139590139Y-99600000D01*
X139652466Y-99733662D01*
X139652468Y-99733666D01*
X139779170Y-99914615D01*
X139779175Y-99914621D01*
X139935378Y-100070824D01*
X139935384Y-100070829D01*
X140116333Y-100197531D01*
X140116335Y-100197532D01*
X140116338Y-100197534D01*
X140316550Y-100290894D01*
X140529932Y-100348070D01*
X140687123Y-100361822D01*
X140749998Y-100367323D01*
X140750000Y-100367323D01*
X140750002Y-100367323D01*
X140805016Y-100362509D01*
X140970068Y-100348070D01*
X141183450Y-100290894D01*
X141383662Y-100197534D01*
X141564620Y-100070826D01*
X141720826Y-99914620D01*
X141847534Y-99733662D01*
X141940894Y-99533450D01*
X141998070Y-99320068D01*
X142017323Y-99100000D01*
X141998070Y-98879932D01*
X141940894Y-98666550D01*
X141847534Y-98466339D01*
X141734281Y-98304596D01*
X141720827Y-98285381D01*
X141720823Y-98285377D01*
X141564620Y-98129174D01*
X141564616Y-98129171D01*
X141564615Y-98129170D01*
X141383666Y-98002468D01*
X141383662Y-98002466D01*
X141383660Y-98002465D01*
X141183450Y-97909106D01*
X141183447Y-97909105D01*
X141183445Y-97909104D01*
X140970070Y-97851930D01*
X140970062Y-97851929D01*
X140750002Y-97832677D01*
X140749998Y-97832677D01*
X140529937Y-97851929D01*
X140529929Y-97851930D01*
X140316554Y-97909104D01*
X140316548Y-97909107D01*
X140116340Y-98002465D01*
X140116338Y-98002466D01*
X139935377Y-98129175D01*
X139779175Y-98285377D01*
X139652466Y-98466338D01*
X139652465Y-98466340D01*
X139559107Y-98666548D01*
X139559104Y-98666554D01*
X139501930Y-98879929D01*
X139501929Y-98879937D01*
X139482677Y-99099997D01*
X139482677Y-99100002D01*
X134517323Y-99100002D01*
X134517323Y-99100000D01*
X134498070Y-98879932D01*
X134440894Y-98666550D01*
X134347534Y-98466339D01*
X134234281Y-98304596D01*
X134220827Y-98285381D01*
X134220823Y-98285377D01*
X134064620Y-98129174D01*
X134064616Y-98129171D01*
X134064615Y-98129170D01*
X133883666Y-98002468D01*
X133883662Y-98002466D01*
X133883660Y-98002465D01*
X133683450Y-97909106D01*
X133683447Y-97909105D01*
X133683445Y-97909104D01*
X133470070Y-97851930D01*
X133470062Y-97851929D01*
X133250002Y-97832677D01*
X133249998Y-97832677D01*
X133029937Y-97851929D01*
X133029929Y-97851930D01*
X132816554Y-97909104D01*
X132816548Y-97909107D01*
X132616340Y-98002465D01*
X132616338Y-98002466D01*
X132435377Y-98129175D01*
X132279175Y-98285377D01*
X132152466Y-98466338D01*
X132152465Y-98466340D01*
X132059107Y-98666548D01*
X132059104Y-98666554D01*
X132001930Y-98879929D01*
X132001929Y-98879937D01*
X131982677Y-99099997D01*
X131982677Y-99100002D01*
X122628979Y-99100002D01*
X122673903Y-99003663D01*
X122735063Y-98775408D01*
X122755659Y-98540000D01*
X122735063Y-98304592D01*
X122688059Y-98129170D01*
X122673905Y-98076344D01*
X122673904Y-98076343D01*
X122673903Y-98076337D01*
X122574035Y-97862171D01*
X122566864Y-97851930D01*
X122438496Y-97668600D01*
X122383289Y-97613393D01*
X122316179Y-97546283D01*
X122282696Y-97484963D01*
X122287680Y-97415271D01*
X122329551Y-97359337D01*
X122360529Y-97342422D01*
X122492086Y-97293354D01*
X122492093Y-97293350D01*
X122607187Y-97207190D01*
X122607190Y-97207187D01*
X122693350Y-97092093D01*
X122693354Y-97092086D01*
X122743596Y-96957379D01*
X122743598Y-96957372D01*
X122749999Y-96897844D01*
X122750000Y-96897827D01*
X122750000Y-96250000D01*
X122013347Y-96250000D01*
X121946308Y-96230315D01*
X121900553Y-96177511D01*
X121890609Y-96108353D01*
X121894369Y-96091067D01*
X121900000Y-96071888D01*
X121900000Y-95928111D01*
X121894369Y-95908933D01*
X121894370Y-95839064D01*
X121932145Y-95780286D01*
X121995701Y-95751262D01*
X122013347Y-95750000D01*
X122750000Y-95750000D01*
X122750000Y-95102172D01*
X122749999Y-95102155D01*
X122743598Y-95042627D01*
X122743596Y-95042620D01*
X122693354Y-94907913D01*
X122693350Y-94907906D01*
X122607190Y-94792812D01*
X122607187Y-94792809D01*
X122492093Y-94706649D01*
X122492086Y-94706645D01*
X122357379Y-94656403D01*
X122357372Y-94656401D01*
X122297844Y-94650000D01*
X121650000Y-94650000D01*
X121649999Y-95387698D01*
X121630314Y-95454738D01*
X121577510Y-95500492D01*
X121508353Y-95510436D01*
X121435764Y-95500000D01*
X121435763Y-95500000D01*
X121364237Y-95500000D01*
X121364233Y-95500000D01*
X121291645Y-95510436D01*
X121222487Y-95500492D01*
X121169684Y-95454736D01*
X121150000Y-95387698D01*
X121150000Y-94650000D01*
X120502155Y-94650000D01*
X120442627Y-94656401D01*
X120442620Y-94656403D01*
X120307913Y-94706645D01*
X120307906Y-94706649D01*
X120192812Y-94792809D01*
X120192809Y-94792812D01*
X120106649Y-94907906D01*
X120106645Y-94907913D01*
X120056403Y-95042620D01*
X120056401Y-95042627D01*
X120050000Y-95102155D01*
X120050000Y-95750000D01*
X120786653Y-95750000D01*
X120853692Y-95769685D01*
X120899447Y-95822489D01*
X120909391Y-95891647D01*
X120905631Y-95908933D01*
X120900000Y-95928111D01*
X120900000Y-96071888D01*
X120905631Y-96091067D01*
X120905630Y-96160936D01*
X120867855Y-96219714D01*
X120804299Y-96248738D01*
X120786653Y-96250000D01*
X120050000Y-96250000D01*
X120050000Y-96897844D01*
X120056401Y-96957372D01*
X120056403Y-96957379D01*
X120106645Y-97092086D01*
X120106649Y-97092093D01*
X120192809Y-97207187D01*
X120192812Y-97207190D01*
X120307906Y-97293350D01*
X120307913Y-97293354D01*
X120439470Y-97342421D01*
X120495403Y-97384292D01*
X120519821Y-97449756D01*
X120504970Y-97518029D01*
X120483819Y-97546284D01*
X120361503Y-97668600D01*
X120225965Y-97862169D01*
X120225964Y-97862171D01*
X120126098Y-98076335D01*
X120126094Y-98076344D01*
X120064938Y-98304586D01*
X120064936Y-98304596D01*
X120044341Y-98539999D01*
X120044341Y-98540000D01*
X120064936Y-98775403D01*
X120064938Y-98775413D01*
X120126094Y-99003655D01*
X120126096Y-99003659D01*
X120126097Y-99003663D01*
X120171020Y-99100000D01*
X120225965Y-99217830D01*
X120225967Y-99217834D01*
X120361501Y-99411395D01*
X120361506Y-99411402D01*
X120528597Y-99578493D01*
X120528603Y-99578498D01*
X120714158Y-99708425D01*
X120757783Y-99763002D01*
X120764977Y-99832500D01*
X120733454Y-99894855D01*
X120714158Y-99911575D01*
X120528597Y-100041505D01*
X120361505Y-100208597D01*
X120225965Y-100402169D01*
X120225964Y-100402171D01*
X120126098Y-100616335D01*
X120126094Y-100616344D01*
X120064938Y-100844586D01*
X120064936Y-100844596D01*
X120044341Y-101079999D01*
X120044341Y-101080000D01*
X120064936Y-101315403D01*
X120064938Y-101315413D01*
X120126094Y-101543655D01*
X120126096Y-101543659D01*
X120126097Y-101543663D01*
X120207291Y-101717784D01*
X120225965Y-101757830D01*
X120225967Y-101757834D01*
X120361501Y-101951395D01*
X120361506Y-101951402D01*
X120528597Y-102118493D01*
X120528603Y-102118498D01*
X120714158Y-102248425D01*
X120757783Y-102303002D01*
X120764977Y-102372500D01*
X120733454Y-102434855D01*
X120714158Y-102451575D01*
X120528597Y-102581505D01*
X120361505Y-102748597D01*
X120225965Y-102942169D01*
X120225964Y-102942171D01*
X120126098Y-103156335D01*
X120126094Y-103156344D01*
X120064938Y-103384586D01*
X120064936Y-103384596D01*
X120044341Y-103619999D01*
X120044341Y-103620000D01*
X115955659Y-103620000D01*
X115935063Y-103384592D01*
X115888626Y-103211285D01*
X115873905Y-103156344D01*
X115873904Y-103156343D01*
X115873903Y-103156337D01*
X115774035Y-102942171D01*
X115759295Y-102921119D01*
X115638494Y-102748597D01*
X115471402Y-102581506D01*
X115471401Y-102581505D01*
X115285842Y-102451575D01*
X115285841Y-102451574D01*
X115242216Y-102396997D01*
X115235024Y-102327498D01*
X115266546Y-102265144D01*
X115285836Y-102248428D01*
X115471401Y-102118495D01*
X115638495Y-101951401D01*
X115774035Y-101757830D01*
X115873903Y-101543663D01*
X115935063Y-101315408D01*
X115955659Y-101080000D01*
X115935063Y-100844592D01*
X115888626Y-100671285D01*
X115873905Y-100616344D01*
X115873904Y-100616343D01*
X115873903Y-100616337D01*
X115774035Y-100402171D01*
X115759295Y-100381119D01*
X115638494Y-100208597D01*
X115471402Y-100041506D01*
X115471396Y-100041501D01*
X115285842Y-99911575D01*
X115242217Y-99856998D01*
X115235023Y-99787500D01*
X115266546Y-99725145D01*
X115285842Y-99708425D01*
X115381933Y-99641141D01*
X115471401Y-99578495D01*
X115638495Y-99411401D01*
X115774035Y-99217830D01*
X115873903Y-99003663D01*
X115935063Y-98775408D01*
X115955659Y-98540000D01*
X115935063Y-98304592D01*
X115888059Y-98129170D01*
X115873905Y-98076344D01*
X115873904Y-98076343D01*
X115873903Y-98076337D01*
X115774035Y-97862171D01*
X115766864Y-97851930D01*
X115638496Y-97668600D01*
X115583289Y-97613393D01*
X115516179Y-97546283D01*
X115482696Y-97484963D01*
X115487680Y-97415271D01*
X115529551Y-97359337D01*
X115560529Y-97342422D01*
X115692086Y-97293354D01*
X115692093Y-97293350D01*
X115807187Y-97207190D01*
X115807190Y-97207187D01*
X115893350Y-97092093D01*
X115893354Y-97092086D01*
X115943596Y-96957379D01*
X115943598Y-96957372D01*
X115949999Y-96897844D01*
X115950000Y-96897827D01*
X115950000Y-96250000D01*
X115213347Y-96250000D01*
X115146308Y-96230315D01*
X115100553Y-96177511D01*
X115090609Y-96108353D01*
X115094369Y-96091067D01*
X115100000Y-96071888D01*
X115100000Y-95928111D01*
X115094369Y-95908933D01*
X115094370Y-95839064D01*
X115132145Y-95780286D01*
X115195701Y-95751262D01*
X115213347Y-95750000D01*
X115950000Y-95750000D01*
X115950000Y-95102172D01*
X115949999Y-95102155D01*
X115943598Y-95042627D01*
X115943596Y-95042620D01*
X115893354Y-94907913D01*
X115893350Y-94907906D01*
X115807190Y-94792812D01*
X115807187Y-94792809D01*
X115692093Y-94706649D01*
X115692086Y-94706645D01*
X115557379Y-94656403D01*
X115557372Y-94656401D01*
X115497844Y-94650000D01*
X114850000Y-94650000D01*
X114850000Y-95387698D01*
X114830315Y-95454737D01*
X114777511Y-95500492D01*
X114708355Y-95510436D01*
X114635766Y-95500000D01*
X114635763Y-95500000D01*
X114564237Y-95500000D01*
X114564233Y-95500000D01*
X114491645Y-95510436D01*
X114422487Y-95500492D01*
X114369684Y-95454736D01*
X114350000Y-95387698D01*
X114350000Y-94650000D01*
X113702155Y-94650000D01*
X113642627Y-94656401D01*
X113642620Y-94656403D01*
X113507913Y-94706645D01*
X113507906Y-94706649D01*
X113392812Y-94792809D01*
X113392809Y-94792812D01*
X113306649Y-94907906D01*
X113306645Y-94907913D01*
X113256403Y-95042620D01*
X113256401Y-95042627D01*
X113250000Y-95102155D01*
X113250000Y-95750000D01*
X113986653Y-95750000D01*
X114053692Y-95769685D01*
X114099447Y-95822489D01*
X114109391Y-95891647D01*
X114105631Y-95908933D01*
X114100000Y-95928111D01*
X114100000Y-96071888D01*
X114105631Y-96091067D01*
X114105630Y-96160936D01*
X114067855Y-96219714D01*
X114004299Y-96248738D01*
X113986653Y-96250000D01*
X113250000Y-96250000D01*
X113250000Y-96897844D01*
X113256401Y-96957372D01*
X113256403Y-96957379D01*
X113306645Y-97092086D01*
X113306649Y-97092093D01*
X113392809Y-97207187D01*
X113392812Y-97207190D01*
X113507906Y-97293350D01*
X113507913Y-97293354D01*
X113639470Y-97342421D01*
X113695403Y-97384292D01*
X113719821Y-97449756D01*
X113704970Y-97518029D01*
X113683819Y-97546284D01*
X113561503Y-97668600D01*
X113425965Y-97862169D01*
X113425964Y-97862171D01*
X113326098Y-98076335D01*
X113326094Y-98076344D01*
X113264938Y-98304586D01*
X113264936Y-98304596D01*
X113244341Y-98539999D01*
X113244341Y-98540000D01*
X113264936Y-98775403D01*
X113264938Y-98775413D01*
X113326094Y-99003655D01*
X113326096Y-99003659D01*
X113326097Y-99003663D01*
X113371020Y-99100000D01*
X113425965Y-99217830D01*
X113425967Y-99217834D01*
X113561501Y-99411395D01*
X113561506Y-99411402D01*
X113728597Y-99578493D01*
X113728603Y-99578498D01*
X113914158Y-99708425D01*
X113957783Y-99763002D01*
X113964977Y-99832500D01*
X113933454Y-99894855D01*
X113914158Y-99911575D01*
X113728597Y-100041505D01*
X113561505Y-100208597D01*
X113425965Y-100402169D01*
X113425964Y-100402171D01*
X113326098Y-100616335D01*
X113326094Y-100616344D01*
X113264938Y-100844586D01*
X113264936Y-100844596D01*
X113244341Y-101079999D01*
X113244341Y-101080000D01*
X113264936Y-101315403D01*
X113264938Y-101315413D01*
X113326094Y-101543655D01*
X113326096Y-101543659D01*
X113326097Y-101543663D01*
X113407291Y-101717784D01*
X113425965Y-101757830D01*
X113425967Y-101757834D01*
X113561501Y-101951395D01*
X113561506Y-101951402D01*
X113728597Y-102118493D01*
X113728603Y-102118498D01*
X113914158Y-102248425D01*
X113957783Y-102303002D01*
X113964977Y-102372500D01*
X113933454Y-102434855D01*
X113914158Y-102451575D01*
X113728597Y-102581505D01*
X113561505Y-102748597D01*
X113425965Y-102942169D01*
X113425964Y-102942171D01*
X113326098Y-103156335D01*
X113326094Y-103156344D01*
X113264938Y-103384586D01*
X113264936Y-103384596D01*
X113244341Y-103619999D01*
X113244341Y-103620000D01*
X108955659Y-103620000D01*
X108935063Y-103384592D01*
X108888626Y-103211285D01*
X108873905Y-103156344D01*
X108873904Y-103156343D01*
X108873903Y-103156337D01*
X108774035Y-102942171D01*
X108759295Y-102921119D01*
X108638494Y-102748597D01*
X108471402Y-102581506D01*
X108471401Y-102581505D01*
X108285842Y-102451575D01*
X108285841Y-102451574D01*
X108242216Y-102396997D01*
X108235024Y-102327498D01*
X108266546Y-102265144D01*
X108285836Y-102248428D01*
X108471401Y-102118495D01*
X108638495Y-101951401D01*
X108774035Y-101757830D01*
X108873903Y-101543663D01*
X108935063Y-101315408D01*
X108955659Y-101080000D01*
X108935063Y-100844592D01*
X108888626Y-100671285D01*
X108873905Y-100616344D01*
X108873904Y-100616343D01*
X108873903Y-100616337D01*
X108774035Y-100402171D01*
X108759295Y-100381119D01*
X108638494Y-100208597D01*
X108471402Y-100041506D01*
X108471396Y-100041501D01*
X108285842Y-99911575D01*
X108242217Y-99856998D01*
X108235023Y-99787500D01*
X108266546Y-99725145D01*
X108285842Y-99708425D01*
X108381933Y-99641141D01*
X108471401Y-99578495D01*
X108638495Y-99411401D01*
X108774035Y-99217830D01*
X108873903Y-99003663D01*
X108935063Y-98775408D01*
X108955659Y-98540000D01*
X108935063Y-98304592D01*
X108888059Y-98129170D01*
X108873905Y-98076344D01*
X108873904Y-98076343D01*
X108873903Y-98076337D01*
X108774035Y-97862171D01*
X108766864Y-97851930D01*
X108638496Y-97668600D01*
X108583289Y-97613393D01*
X108516179Y-97546283D01*
X108482696Y-97484963D01*
X108487680Y-97415271D01*
X108529551Y-97359337D01*
X108560529Y-97342422D01*
X108692086Y-97293354D01*
X108692093Y-97293350D01*
X108807187Y-97207190D01*
X108807190Y-97207187D01*
X108893350Y-97092093D01*
X108893354Y-97092086D01*
X108943596Y-96957379D01*
X108943598Y-96957372D01*
X108949999Y-96897844D01*
X108950000Y-96897827D01*
X108950000Y-96250000D01*
X108213347Y-96250000D01*
X108146308Y-96230315D01*
X108100553Y-96177511D01*
X108090609Y-96108353D01*
X108094369Y-96091067D01*
X108100000Y-96071888D01*
X108100000Y-95928111D01*
X108094369Y-95908933D01*
X108094370Y-95839064D01*
X108132145Y-95780286D01*
X108195701Y-95751262D01*
X108213347Y-95750000D01*
X108949999Y-95750000D01*
X108950000Y-95102172D01*
X108949999Y-95102155D01*
X108943598Y-95042627D01*
X108943596Y-95042620D01*
X108893354Y-94907913D01*
X108893350Y-94907906D01*
X108807190Y-94792812D01*
X108807187Y-94792809D01*
X108692093Y-94706649D01*
X108692086Y-94706645D01*
X108557379Y-94656403D01*
X108557372Y-94656401D01*
X108497844Y-94650000D01*
X107850000Y-94650000D01*
X107850000Y-95387698D01*
X107830315Y-95454737D01*
X107777511Y-95500492D01*
X107708355Y-95510436D01*
X107635766Y-95500000D01*
X107635763Y-95500000D01*
X107564237Y-95500000D01*
X107564233Y-95500000D01*
X107491645Y-95510436D01*
X107422487Y-95500492D01*
X107369684Y-95454736D01*
X107350000Y-95387698D01*
X107350000Y-94650000D01*
X106702155Y-94650000D01*
X106642627Y-94656401D01*
X106642620Y-94656403D01*
X106507913Y-94706645D01*
X106507906Y-94706649D01*
X106392812Y-94792809D01*
X106392809Y-94792812D01*
X106306649Y-94907906D01*
X106306645Y-94907913D01*
X106256403Y-95042620D01*
X106256401Y-95042627D01*
X106250000Y-95102155D01*
X106250000Y-95750000D01*
X106986653Y-95750000D01*
X107053692Y-95769685D01*
X107099447Y-95822489D01*
X107109391Y-95891647D01*
X107105631Y-95908933D01*
X107100000Y-95928111D01*
X107100000Y-96071888D01*
X107105631Y-96091067D01*
X107105630Y-96160936D01*
X107067855Y-96219714D01*
X107004299Y-96248738D01*
X106986653Y-96250000D01*
X106250000Y-96250000D01*
X106250000Y-96897844D01*
X106256401Y-96957372D01*
X106256403Y-96957379D01*
X106306645Y-97092086D01*
X106306649Y-97092093D01*
X106392809Y-97207187D01*
X106392812Y-97207190D01*
X106507906Y-97293350D01*
X106507913Y-97293354D01*
X106639470Y-97342421D01*
X106695403Y-97384292D01*
X106719821Y-97449756D01*
X106704970Y-97518029D01*
X106683819Y-97546284D01*
X106561503Y-97668600D01*
X106425965Y-97862169D01*
X106425964Y-97862171D01*
X106326098Y-98076335D01*
X106326094Y-98076344D01*
X106264938Y-98304586D01*
X106264936Y-98304596D01*
X106244341Y-98539999D01*
X106244341Y-98540000D01*
X106264936Y-98775403D01*
X106264938Y-98775413D01*
X106326094Y-99003655D01*
X106326096Y-99003659D01*
X106326097Y-99003663D01*
X106371020Y-99100000D01*
X106425965Y-99217830D01*
X106425967Y-99217834D01*
X106561501Y-99411395D01*
X106561506Y-99411402D01*
X106728597Y-99578493D01*
X106728603Y-99578498D01*
X106914158Y-99708425D01*
X106957783Y-99763002D01*
X106964977Y-99832500D01*
X106933454Y-99894855D01*
X106914158Y-99911575D01*
X106728597Y-100041505D01*
X106561505Y-100208597D01*
X106425965Y-100402169D01*
X106425964Y-100402171D01*
X106326098Y-100616335D01*
X106326094Y-100616344D01*
X106264938Y-100844586D01*
X106264936Y-100844596D01*
X106244341Y-101079999D01*
X106244341Y-101080000D01*
X106264936Y-101315403D01*
X106264938Y-101315413D01*
X106326094Y-101543655D01*
X106326096Y-101543659D01*
X106326097Y-101543663D01*
X106407291Y-101717784D01*
X106425965Y-101757830D01*
X106425967Y-101757834D01*
X106561501Y-101951395D01*
X106561506Y-101951402D01*
X106728597Y-102118493D01*
X106728603Y-102118498D01*
X106914158Y-102248425D01*
X106957783Y-102303002D01*
X106964977Y-102372500D01*
X106933454Y-102434855D01*
X106914158Y-102451575D01*
X106728597Y-102581505D01*
X106561505Y-102748597D01*
X106425965Y-102942169D01*
X106425964Y-102942171D01*
X106326098Y-103156335D01*
X106326094Y-103156344D01*
X106264938Y-103384586D01*
X106264936Y-103384596D01*
X106244341Y-103619999D01*
X106244341Y-103620000D01*
X97108242Y-103620000D01*
X97125643Y-103410005D01*
X97125643Y-103409994D01*
X97105109Y-103162187D01*
X97105107Y-103162175D01*
X97044063Y-102921118D01*
X96944173Y-102693393D01*
X96808166Y-102485217D01*
X96761804Y-102434855D01*
X96639744Y-102302262D01*
X96572599Y-102250000D01*
X98344540Y-102250000D01*
X98364326Y-102438256D01*
X98364327Y-102438259D01*
X98422818Y-102618277D01*
X98422821Y-102618284D01*
X98517467Y-102782216D01*
X98642535Y-102921118D01*
X98644129Y-102922888D01*
X98797265Y-103034148D01*
X98797270Y-103034151D01*
X98970192Y-103111142D01*
X98970197Y-103111144D01*
X99155354Y-103150500D01*
X99155355Y-103150500D01*
X99344644Y-103150500D01*
X99344646Y-103150500D01*
X99529803Y-103111144D01*
X99702730Y-103034151D01*
X99855871Y-102922888D01*
X99982533Y-102782216D01*
X100077179Y-102618284D01*
X100135674Y-102438256D01*
X100155460Y-102250000D01*
X100135674Y-102061744D01*
X100077179Y-101881716D01*
X99982533Y-101717784D01*
X99855871Y-101577112D01*
X99809834Y-101543664D01*
X99702734Y-101465851D01*
X99702729Y-101465848D01*
X99529807Y-101388857D01*
X99529802Y-101388855D01*
X99384001Y-101357865D01*
X99344646Y-101349500D01*
X99155354Y-101349500D01*
X99122897Y-101356398D01*
X98970197Y-101388855D01*
X98970192Y-101388857D01*
X98797270Y-101465848D01*
X98797265Y-101465851D01*
X98644129Y-101577111D01*
X98517466Y-101717785D01*
X98422821Y-101881715D01*
X98422818Y-101881722D01*
X98364327Y-102061740D01*
X98364326Y-102061744D01*
X98344540Y-102250000D01*
X96572599Y-102250000D01*
X96556991Y-102237852D01*
X96516179Y-102181143D01*
X96512504Y-102111370D01*
X96547136Y-102050687D01*
X96556985Y-102042151D01*
X96639744Y-101977738D01*
X96808164Y-101794785D01*
X96944173Y-101586607D01*
X97044063Y-101358881D01*
X97105108Y-101117821D01*
X97125643Y-100870000D01*
X97123537Y-100844586D01*
X97105109Y-100622187D01*
X97105107Y-100622175D01*
X97044063Y-100381118D01*
X96944173Y-100153393D01*
X96808166Y-99945217D01*
X96761804Y-99894855D01*
X96639744Y-99762262D01*
X96556991Y-99697852D01*
X96516179Y-99641143D01*
X96512504Y-99571370D01*
X96547136Y-99510687D01*
X96556985Y-99502151D01*
X96639744Y-99437738D01*
X96808164Y-99254785D01*
X96944173Y-99046607D01*
X97044063Y-98818881D01*
X97105108Y-98577821D01*
X97125643Y-98330000D01*
X97123537Y-98304586D01*
X97105109Y-98082187D01*
X97105107Y-98082175D01*
X97044063Y-97841118D01*
X96944173Y-97613393D01*
X96808166Y-97405217D01*
X96750358Y-97342421D01*
X96639744Y-97222262D01*
X96556991Y-97157852D01*
X96516179Y-97101143D01*
X96512504Y-97031370D01*
X96547136Y-96970687D01*
X96556985Y-96962151D01*
X96639744Y-96897738D01*
X96808164Y-96714785D01*
X96944173Y-96506607D01*
X97044063Y-96278881D01*
X97105108Y-96037821D01*
X97115788Y-95908933D01*
X97125643Y-95790005D01*
X97125643Y-95789994D01*
X97105109Y-95542187D01*
X97105107Y-95542175D01*
X97044063Y-95301118D01*
X96944173Y-95073393D01*
X96808166Y-94865217D01*
X96741512Y-94792812D01*
X96639744Y-94682262D01*
X96556991Y-94617852D01*
X96516179Y-94561143D01*
X96512504Y-94491370D01*
X96547136Y-94430687D01*
X96556985Y-94422151D01*
X96639744Y-94357738D01*
X96808164Y-94174785D01*
X96944173Y-93966607D01*
X97044063Y-93738881D01*
X97105108Y-93497821D01*
X97115842Y-93368284D01*
X97125643Y-93250005D01*
X97125643Y-93249994D01*
X97105109Y-93002187D01*
X97105107Y-93002175D01*
X97104556Y-93000000D01*
X99294540Y-93000000D01*
X99314326Y-93188256D01*
X99314327Y-93188259D01*
X99372818Y-93368277D01*
X99372821Y-93368284D01*
X99467467Y-93532216D01*
X99594129Y-93672887D01*
X99594129Y-93672888D01*
X99747265Y-93784148D01*
X99747270Y-93784151D01*
X99920192Y-93861142D01*
X99920197Y-93861144D01*
X100105354Y-93900500D01*
X100105355Y-93900500D01*
X100294644Y-93900500D01*
X100294646Y-93900500D01*
X100479803Y-93861144D01*
X100652730Y-93784151D01*
X100805871Y-93672888D01*
X100932533Y-93532216D01*
X101027179Y-93368284D01*
X101085674Y-93188256D01*
X101105460Y-93000000D01*
X101085674Y-92811744D01*
X101027179Y-92631716D01*
X100932533Y-92467784D01*
X100805871Y-92327112D01*
X100769243Y-92300500D01*
X100652734Y-92215851D01*
X100652729Y-92215848D01*
X100479807Y-92138857D01*
X100479802Y-92138855D01*
X100334001Y-92107865D01*
X100294646Y-92099500D01*
X100105354Y-92099500D01*
X100072897Y-92106398D01*
X99920197Y-92138855D01*
X99920192Y-92138857D01*
X99747270Y-92215848D01*
X99747265Y-92215851D01*
X99594129Y-92327111D01*
X99467466Y-92467785D01*
X99372821Y-92631715D01*
X99372818Y-92631722D01*
X99330775Y-92761118D01*
X99314326Y-92811744D01*
X99294540Y-93000000D01*
X97104556Y-93000000D01*
X97044063Y-92761118D01*
X96944173Y-92533393D01*
X96808166Y-92325217D01*
X96785412Y-92300500D01*
X96639744Y-92142262D01*
X96556991Y-92077852D01*
X96516179Y-92021143D01*
X96512504Y-91951370D01*
X96547136Y-91890687D01*
X96556985Y-91882151D01*
X96639744Y-91817738D01*
X96808164Y-91634785D01*
X96944173Y-91426607D01*
X96955844Y-91400000D01*
X128294540Y-91400000D01*
X128314326Y-91588256D01*
X128314327Y-91588259D01*
X128372818Y-91768277D01*
X128372821Y-91768284D01*
X128467467Y-91932216D01*
X128569930Y-92046012D01*
X128594129Y-92072888D01*
X128747265Y-92184148D01*
X128747270Y-92184151D01*
X128920192Y-92261142D01*
X128920197Y-92261144D01*
X129105354Y-92300500D01*
X129105355Y-92300500D01*
X129294644Y-92300500D01*
X129294646Y-92300500D01*
X129479803Y-92261144D01*
X129532456Y-92237701D01*
X132582241Y-92237701D01*
X132602027Y-92425957D01*
X132602028Y-92425960D01*
X132660519Y-92605978D01*
X132660522Y-92605985D01*
X132755168Y-92769917D01*
X132839830Y-92863943D01*
X132881830Y-92910589D01*
X133034966Y-93021849D01*
X133034971Y-93021852D01*
X133207893Y-93098843D01*
X133207898Y-93098845D01*
X133393055Y-93138201D01*
X133393056Y-93138201D01*
X133582345Y-93138201D01*
X133582347Y-93138201D01*
X133767504Y-93098845D01*
X133940431Y-93021852D01*
X134093572Y-92910589D01*
X134135572Y-92863942D01*
X134195058Y-92827294D01*
X134264915Y-92828623D01*
X134278153Y-92833632D01*
X134443287Y-92907156D01*
X134628444Y-92946512D01*
X134628445Y-92946512D01*
X134817734Y-92946512D01*
X134817736Y-92946512D01*
X135002893Y-92907156D01*
X135175820Y-92830163D01*
X135328961Y-92718900D01*
X135455623Y-92578228D01*
X135550269Y-92414296D01*
X135608764Y-92234268D01*
X135628550Y-92046012D01*
X135608764Y-91857756D01*
X135550269Y-91677728D01*
X135455623Y-91513796D01*
X135328961Y-91373124D01*
X135328960Y-91373123D01*
X135175824Y-91261863D01*
X135175819Y-91261860D01*
X135002897Y-91184869D01*
X135002892Y-91184867D01*
X134857090Y-91153877D01*
X134817736Y-91145512D01*
X134628444Y-91145512D01*
X134595987Y-91152410D01*
X134443287Y-91184867D01*
X134443282Y-91184869D01*
X134270360Y-91261860D01*
X134270355Y-91261863D01*
X134117221Y-91373122D01*
X134117217Y-91373125D01*
X134075215Y-91419772D01*
X134015728Y-91456419D01*
X133945871Y-91455088D01*
X133932631Y-91450077D01*
X133767508Y-91376558D01*
X133767503Y-91376556D01*
X133621701Y-91345566D01*
X133582347Y-91337201D01*
X133393055Y-91337201D01*
X133360598Y-91344099D01*
X133207898Y-91376556D01*
X133207893Y-91376558D01*
X133034971Y-91453549D01*
X133034966Y-91453552D01*
X132881830Y-91564812D01*
X132755167Y-91705486D01*
X132660522Y-91869416D01*
X132660519Y-91869423D01*
X132615289Y-92008628D01*
X132602027Y-92049445D01*
X132582241Y-92237701D01*
X129532456Y-92237701D01*
X129652730Y-92184151D01*
X129805871Y-92072888D01*
X129932533Y-91932216D01*
X130027179Y-91768284D01*
X130085674Y-91588256D01*
X130105460Y-91400000D01*
X130085674Y-91211744D01*
X130027179Y-91031716D01*
X129932533Y-90867784D01*
X129805871Y-90727112D01*
X129805870Y-90727111D01*
X129652734Y-90615851D01*
X129652729Y-90615848D01*
X129479807Y-90538857D01*
X129479802Y-90538855D01*
X129334000Y-90507865D01*
X129294646Y-90499500D01*
X129105354Y-90499500D01*
X129072897Y-90506398D01*
X128920197Y-90538855D01*
X128920192Y-90538857D01*
X128747270Y-90615848D01*
X128747265Y-90615851D01*
X128594129Y-90727111D01*
X128467466Y-90867785D01*
X128372821Y-91031715D01*
X128372818Y-91031722D01*
X128323058Y-91184869D01*
X128314326Y-91211744D01*
X128294540Y-91400000D01*
X96955844Y-91400000D01*
X97044063Y-91198881D01*
X97105108Y-90957821D01*
X97124225Y-90727112D01*
X97125643Y-90710005D01*
X97125643Y-90709994D01*
X97105109Y-90462187D01*
X97105107Y-90462175D01*
X97044063Y-90221118D01*
X96944173Y-89993393D01*
X96808166Y-89785217D01*
X96786557Y-89761744D01*
X96639744Y-89602262D01*
X96636838Y-89600000D01*
X99294540Y-89600000D01*
X99314326Y-89788256D01*
X99314327Y-89788259D01*
X99372818Y-89968277D01*
X99372821Y-89968284D01*
X99467467Y-90132216D01*
X99547515Y-90221118D01*
X99594129Y-90272888D01*
X99747265Y-90384148D01*
X99747270Y-90384151D01*
X99920192Y-90461142D01*
X99920197Y-90461144D01*
X100105354Y-90500500D01*
X100105355Y-90500500D01*
X100294644Y-90500500D01*
X100294646Y-90500500D01*
X100479803Y-90461144D01*
X100652730Y-90384151D01*
X100805871Y-90272888D01*
X100932533Y-90132216D01*
X101008868Y-90000000D01*
X132694540Y-90000000D01*
X132714326Y-90188256D01*
X132714327Y-90188259D01*
X132772818Y-90368277D01*
X132772821Y-90368284D01*
X132867467Y-90532216D01*
X132873446Y-90538856D01*
X132994129Y-90672888D01*
X133147265Y-90784148D01*
X133147270Y-90784151D01*
X133320192Y-90861142D01*
X133320197Y-90861144D01*
X133505354Y-90900500D01*
X133505355Y-90900500D01*
X133694644Y-90900500D01*
X133694646Y-90900500D01*
X133879803Y-90861144D01*
X134052730Y-90784151D01*
X134205871Y-90672888D01*
X134332533Y-90532216D01*
X134427179Y-90368284D01*
X134485674Y-90188256D01*
X134505460Y-90000000D01*
X134485674Y-89811744D01*
X134427179Y-89631716D01*
X134332533Y-89467784D01*
X134205871Y-89327112D01*
X134205870Y-89327111D01*
X134052734Y-89215851D01*
X134052729Y-89215848D01*
X133879807Y-89138857D01*
X133879802Y-89138855D01*
X133734000Y-89107865D01*
X133694646Y-89099500D01*
X133505354Y-89099500D01*
X133472897Y-89106398D01*
X133320197Y-89138855D01*
X133320192Y-89138857D01*
X133147270Y-89215848D01*
X133147265Y-89215851D01*
X132994129Y-89327111D01*
X132867466Y-89467785D01*
X132772821Y-89631715D01*
X132772818Y-89631722D01*
X132714327Y-89811740D01*
X132714326Y-89811744D01*
X132694540Y-90000000D01*
X101008868Y-90000000D01*
X101027179Y-89968284D01*
X101085674Y-89788256D01*
X101105460Y-89600000D01*
X101085674Y-89411744D01*
X101027179Y-89231716D01*
X100932533Y-89067784D01*
X100805871Y-88927112D01*
X100805870Y-88927111D01*
X100652734Y-88815851D01*
X100652729Y-88815848D01*
X100479807Y-88738857D01*
X100479802Y-88738855D01*
X100334000Y-88707865D01*
X100294646Y-88699500D01*
X100105354Y-88699500D01*
X100072897Y-88706398D01*
X99920197Y-88738855D01*
X99920192Y-88738857D01*
X99747270Y-88815848D01*
X99747265Y-88815851D01*
X99594129Y-88927111D01*
X99467466Y-89067785D01*
X99372821Y-89231715D01*
X99372818Y-89231722D01*
X99314327Y-89411740D01*
X99314326Y-89411744D01*
X99294540Y-89600000D01*
X96636838Y-89600000D01*
X96556991Y-89537852D01*
X96516179Y-89481143D01*
X96512504Y-89411370D01*
X96547136Y-89350687D01*
X96556985Y-89342151D01*
X96639744Y-89277738D01*
X96808164Y-89094785D01*
X96944173Y-88886607D01*
X97044063Y-88658881D01*
X97105108Y-88417821D01*
X97105109Y-88417812D01*
X97125643Y-88170005D01*
X97125643Y-88169994D01*
X97105109Y-87922187D01*
X97105107Y-87922175D01*
X97044063Y-87681118D01*
X96944173Y-87453393D01*
X96808166Y-87245217D01*
X96737885Y-87168872D01*
X96639744Y-87062262D01*
X96559749Y-86999999D01*
X100294355Y-86999999D01*
X100314859Y-87168869D01*
X100314860Y-87168874D01*
X100375182Y-87327931D01*
X100413989Y-87384151D01*
X100471817Y-87467929D01*
X100577505Y-87561560D01*
X100599150Y-87580736D01*
X100749773Y-87659789D01*
X100749775Y-87659790D01*
X100914944Y-87700500D01*
X101085056Y-87700500D01*
X101250225Y-87659790D01*
X101364144Y-87600000D01*
X106694355Y-87600000D01*
X106714859Y-87768869D01*
X106714860Y-87768874D01*
X106775182Y-87927931D01*
X106837475Y-88018177D01*
X106871817Y-88067929D01*
X106977505Y-88161560D01*
X106999150Y-88180736D01*
X107149773Y-88259789D01*
X107149775Y-88259790D01*
X107314944Y-88300500D01*
X107485056Y-88300500D01*
X107650225Y-88259790D01*
X107729692Y-88218081D01*
X107800849Y-88180736D01*
X107800850Y-88180734D01*
X107800852Y-88180734D01*
X107928183Y-88067929D01*
X108024818Y-87927930D01*
X108085140Y-87768872D01*
X108105645Y-87600000D01*
X108085140Y-87431128D01*
X108024818Y-87272070D01*
X107928183Y-87132071D01*
X107800852Y-87019266D01*
X107800849Y-87019263D01*
X107650226Y-86940210D01*
X107485056Y-86899500D01*
X107314944Y-86899500D01*
X107149773Y-86940210D01*
X106999150Y-87019263D01*
X106871816Y-87132072D01*
X106775182Y-87272068D01*
X106714860Y-87431125D01*
X106714859Y-87431130D01*
X106694355Y-87600000D01*
X101364144Y-87600000D01*
X101364146Y-87599999D01*
X101400849Y-87580736D01*
X101400850Y-87580734D01*
X101400852Y-87580734D01*
X101528183Y-87467929D01*
X101624818Y-87327930D01*
X101685140Y-87168872D01*
X101705645Y-87000000D01*
X101685140Y-86831128D01*
X101624818Y-86672070D01*
X101575071Y-86600000D01*
X142294540Y-86600000D01*
X142314326Y-86788256D01*
X142314327Y-86788259D01*
X142372818Y-86968277D01*
X142372821Y-86968284D01*
X142467467Y-87132216D01*
X142569212Y-87245215D01*
X142594129Y-87272888D01*
X142747265Y-87384148D01*
X142747270Y-87384151D01*
X142920192Y-87461142D01*
X142920197Y-87461144D01*
X143105354Y-87500500D01*
X143105355Y-87500500D01*
X143294644Y-87500500D01*
X143294646Y-87500500D01*
X143479803Y-87461144D01*
X143652730Y-87384151D01*
X143805871Y-87272888D01*
X143932533Y-87132216D01*
X144027179Y-86968284D01*
X144085674Y-86788256D01*
X144105460Y-86600000D01*
X144085674Y-86411744D01*
X144027179Y-86231716D01*
X143932533Y-86067784D01*
X143805871Y-85927112D01*
X143738032Y-85877824D01*
X143652734Y-85815851D01*
X143652729Y-85815848D01*
X143479807Y-85738857D01*
X143479802Y-85738855D01*
X143334000Y-85707865D01*
X143294646Y-85699500D01*
X143105354Y-85699500D01*
X143072897Y-85706398D01*
X142920197Y-85738855D01*
X142920192Y-85738857D01*
X142747270Y-85815848D01*
X142747265Y-85815851D01*
X142594129Y-85927111D01*
X142467466Y-86067785D01*
X142372821Y-86231715D01*
X142372818Y-86231722D01*
X142335490Y-86346607D01*
X142314326Y-86411744D01*
X142294540Y-86600000D01*
X101575071Y-86600000D01*
X101528183Y-86532071D01*
X101400852Y-86419266D01*
X101400849Y-86419263D01*
X101250226Y-86340210D01*
X101085056Y-86299500D01*
X100914944Y-86299500D01*
X100749773Y-86340210D01*
X100599150Y-86419263D01*
X100471816Y-86532072D01*
X100375182Y-86672068D01*
X100314860Y-86831125D01*
X100314859Y-86831130D01*
X100294355Y-86999999D01*
X96559749Y-86999999D01*
X96556991Y-86997852D01*
X96516179Y-86941143D01*
X96512504Y-86871370D01*
X96547136Y-86810687D01*
X96556985Y-86802151D01*
X96639744Y-86737738D01*
X96808164Y-86554785D01*
X96944173Y-86346607D01*
X97044063Y-86118881D01*
X97105108Y-85877821D01*
X97110243Y-85815849D01*
X97125643Y-85630005D01*
X97125643Y-85629994D01*
X97105109Y-85382187D01*
X97105107Y-85382175D01*
X97044063Y-85141118D01*
X96944173Y-84913393D01*
X96808166Y-84705217D01*
X96786557Y-84681744D01*
X96639744Y-84522262D01*
X96556991Y-84457852D01*
X96516179Y-84401143D01*
X96512504Y-84331370D01*
X96547136Y-84270687D01*
X96556985Y-84262151D01*
X96639744Y-84197738D01*
X96808164Y-84014785D01*
X96944173Y-83806607D01*
X97044063Y-83578881D01*
X97105108Y-83337821D01*
X97117501Y-83188259D01*
X97125643Y-83090005D01*
X97125643Y-83089994D01*
X97118186Y-83000000D01*
X140694540Y-83000000D01*
X140714326Y-83188256D01*
X140714327Y-83188259D01*
X140772818Y-83368277D01*
X140772821Y-83368284D01*
X140867467Y-83532216D01*
X140994129Y-83672888D01*
X141147265Y-83784148D01*
X141147270Y-83784151D01*
X141320192Y-83861142D01*
X141320197Y-83861144D01*
X141505354Y-83900500D01*
X141505355Y-83900500D01*
X141694644Y-83900500D01*
X141694646Y-83900500D01*
X141879803Y-83861144D01*
X142052730Y-83784151D01*
X142205871Y-83672888D01*
X142332533Y-83532216D01*
X142427179Y-83368284D01*
X142485674Y-83188256D01*
X142505460Y-83000000D01*
X142485674Y-82811744D01*
X142427179Y-82631716D01*
X142332533Y-82467784D01*
X142205871Y-82327112D01*
X142205870Y-82327111D01*
X142052734Y-82215851D01*
X142052729Y-82215848D01*
X141879807Y-82138857D01*
X141879802Y-82138855D01*
X141734000Y-82107865D01*
X141694646Y-82099500D01*
X141505354Y-82099500D01*
X141472897Y-82106398D01*
X141320197Y-82138855D01*
X141320192Y-82138857D01*
X141147270Y-82215848D01*
X141147265Y-82215851D01*
X140994129Y-82327111D01*
X140867466Y-82467785D01*
X140772821Y-82631715D01*
X140772818Y-82631722D01*
X140714327Y-82811740D01*
X140714326Y-82811744D01*
X140694540Y-83000000D01*
X97118186Y-83000000D01*
X97105109Y-82842187D01*
X97105107Y-82842175D01*
X97044063Y-82601118D01*
X96944173Y-82373393D01*
X96808166Y-82165217D01*
X96747669Y-82099500D01*
X96639744Y-81982262D01*
X96556991Y-81917852D01*
X96516179Y-81861143D01*
X96512959Y-81800000D01*
X113894355Y-81800000D01*
X113914859Y-81968869D01*
X113914860Y-81968874D01*
X113975182Y-82127931D01*
X114035868Y-82215848D01*
X114071817Y-82267929D01*
X114177505Y-82361560D01*
X114199150Y-82380736D01*
X114349773Y-82459789D01*
X114349775Y-82459790D01*
X114514944Y-82500500D01*
X114685056Y-82500500D01*
X114850225Y-82459790D01*
X114929692Y-82418081D01*
X115000849Y-82380736D01*
X115000850Y-82380734D01*
X115000852Y-82380734D01*
X115128183Y-82267929D01*
X115224818Y-82127930D01*
X115285140Y-81968872D01*
X115305645Y-81800000D01*
X115285140Y-81631128D01*
X115224818Y-81472070D01*
X115128183Y-81332071D01*
X115000852Y-81219266D01*
X115000849Y-81219263D01*
X114850226Y-81140210D01*
X114685056Y-81099500D01*
X114514944Y-81099500D01*
X114349773Y-81140210D01*
X114199150Y-81219263D01*
X114071816Y-81332072D01*
X113975182Y-81472068D01*
X113914860Y-81631125D01*
X113914859Y-81631130D01*
X113894355Y-81800000D01*
X96512959Y-81800000D01*
X96512504Y-81791370D01*
X96547136Y-81730687D01*
X96556985Y-81722151D01*
X96639744Y-81657738D01*
X96808164Y-81474785D01*
X96944173Y-81266607D01*
X97044063Y-81038881D01*
X97105108Y-80797821D01*
X97125643Y-80550000D01*
X97105108Y-80302179D01*
X97044063Y-80061119D01*
X96944173Y-79833393D01*
X96944173Y-79833392D01*
X96808166Y-79625217D01*
X96786557Y-79601744D01*
X96639744Y-79442262D01*
X96556991Y-79377852D01*
X96516179Y-79321143D01*
X96512504Y-79251370D01*
X96547136Y-79190687D01*
X96556985Y-79182151D01*
X96639744Y-79117738D01*
X96808164Y-78934785D01*
X96944173Y-78726607D01*
X97044063Y-78498881D01*
X97105108Y-78257821D01*
X97105109Y-78257812D01*
X97125643Y-78010005D01*
X97125643Y-78009994D01*
X97105109Y-77762187D01*
X97105107Y-77762175D01*
X97044063Y-77521118D01*
X96990935Y-77400000D01*
X147894540Y-77400000D01*
X147914326Y-77588256D01*
X147914327Y-77588259D01*
X147972818Y-77768277D01*
X147972821Y-77768284D01*
X148067467Y-77932216D01*
X148137509Y-78010005D01*
X148194129Y-78072888D01*
X148347265Y-78184148D01*
X148347270Y-78184151D01*
X148520192Y-78261142D01*
X148520197Y-78261144D01*
X148705354Y-78300500D01*
X148705355Y-78300500D01*
X148894644Y-78300500D01*
X148894646Y-78300500D01*
X149079803Y-78261144D01*
X149252730Y-78184151D01*
X149405871Y-78072888D01*
X149532533Y-77932216D01*
X149627179Y-77768284D01*
X149685674Y-77588256D01*
X149705460Y-77400000D01*
X149685674Y-77211744D01*
X149627179Y-77031716D01*
X149532533Y-76867784D01*
X149405871Y-76727112D01*
X149384204Y-76711370D01*
X149252734Y-76615851D01*
X149252729Y-76615848D01*
X149079807Y-76538857D01*
X149079802Y-76538855D01*
X148934000Y-76507865D01*
X148894646Y-76499500D01*
X148705354Y-76499500D01*
X148672897Y-76506398D01*
X148520197Y-76538855D01*
X148520192Y-76538857D01*
X148347270Y-76615848D01*
X148347265Y-76615851D01*
X148194129Y-76727111D01*
X148067466Y-76867785D01*
X147972821Y-77031715D01*
X147972818Y-77031722D01*
X147955437Y-77085217D01*
X147914326Y-77211744D01*
X147894540Y-77400000D01*
X96990935Y-77400000D01*
X96944173Y-77293393D01*
X96808166Y-77085217D01*
X96758914Y-77031715D01*
X96639744Y-76902262D01*
X96595447Y-76867784D01*
X96556991Y-76837852D01*
X96516178Y-76781141D01*
X96512505Y-76711368D01*
X96547136Y-76650685D01*
X96556974Y-76642160D01*
X96639744Y-76577738D01*
X96808164Y-76394785D01*
X96944173Y-76186607D01*
X97044063Y-75958881D01*
X97105108Y-75717821D01*
X97125643Y-75470000D01*
X97105108Y-75222179D01*
X97044063Y-74981119D01*
X96944173Y-74753393D01*
X96808166Y-74545217D01*
X96787860Y-74523159D01*
X96639744Y-74362262D01*
X96612525Y-74341077D01*
X96556991Y-74297852D01*
X96516178Y-74241141D01*
X96512505Y-74171368D01*
X96547136Y-74110685D01*
X96556974Y-74102160D01*
X96639744Y-74037738D01*
X96808164Y-73854785D01*
X96944173Y-73646607D01*
X97044063Y-73418881D01*
X97105108Y-73177821D01*
X97125643Y-72930000D01*
X97105108Y-72682179D01*
X97044063Y-72441119D01*
X96944173Y-72213393D01*
X96808166Y-72005217D01*
X96787860Y-71983159D01*
X96639744Y-71822262D01*
X96612525Y-71801077D01*
X96556991Y-71757852D01*
X96516178Y-71701141D01*
X96512505Y-71631368D01*
X96547136Y-71570685D01*
X96556974Y-71562160D01*
X96639744Y-71497738D01*
X96808164Y-71314785D01*
X96944173Y-71106607D01*
X97044063Y-70878881D01*
X97105108Y-70637821D01*
X97125643Y-70390000D01*
X97125158Y-70384151D01*
X97105109Y-70142187D01*
X97105107Y-70142175D01*
X97044063Y-69901118D01*
X96999708Y-69799999D01*
X118094355Y-69799999D01*
X118114859Y-69968869D01*
X118114860Y-69968874D01*
X118175182Y-70127931D01*
X118237475Y-70218177D01*
X118271817Y-70267929D01*
X118377505Y-70361560D01*
X118399150Y-70380736D01*
X118549773Y-70459789D01*
X118549775Y-70459790D01*
X118714944Y-70500500D01*
X118885056Y-70500500D01*
X119050225Y-70459790D01*
X119183188Y-70390005D01*
X119200849Y-70380736D01*
X119200850Y-70380734D01*
X119200852Y-70380734D01*
X119328183Y-70267929D01*
X119424818Y-70127930D01*
X119485140Y-69968872D01*
X119505645Y-69800000D01*
X119485140Y-69631128D01*
X119473335Y-69600000D01*
X136294540Y-69600000D01*
X136314326Y-69788256D01*
X136314327Y-69788259D01*
X136372818Y-69968277D01*
X136372821Y-69968284D01*
X136467467Y-70132216D01*
X136589662Y-70267927D01*
X136594129Y-70272888D01*
X136747265Y-70384148D01*
X136747270Y-70384151D01*
X136920192Y-70461142D01*
X136920197Y-70461144D01*
X137105354Y-70500500D01*
X137105355Y-70500500D01*
X137294644Y-70500500D01*
X137294646Y-70500500D01*
X137479803Y-70461144D01*
X137652730Y-70384151D01*
X137805871Y-70272888D01*
X137932533Y-70132216D01*
X138027179Y-69968284D01*
X138085674Y-69788256D01*
X138105460Y-69600000D01*
X138085674Y-69411744D01*
X138027179Y-69231716D01*
X138008025Y-69198541D01*
X137991553Y-69130643D01*
X138014405Y-69064616D01*
X138023255Y-69053580D01*
X138132533Y-68932216D01*
X138227179Y-68768284D01*
X138285674Y-68588256D01*
X138305460Y-68400000D01*
X138285674Y-68211744D01*
X138227179Y-68031716D01*
X138132533Y-67867784D01*
X138071500Y-67800000D01*
X141294540Y-67800000D01*
X141314326Y-67988256D01*
X141314327Y-67988259D01*
X141372818Y-68168277D01*
X141372821Y-68168284D01*
X141467467Y-68332216D01*
X141594129Y-68472888D01*
X141747265Y-68584148D01*
X141747270Y-68584151D01*
X141920192Y-68661142D01*
X141920197Y-68661144D01*
X142105354Y-68700500D01*
X142105355Y-68700500D01*
X142294644Y-68700500D01*
X142294646Y-68700500D01*
X142479803Y-68661144D01*
X142652730Y-68584151D01*
X142805871Y-68472888D01*
X142932533Y-68332216D01*
X143027179Y-68168284D01*
X143085674Y-67988256D01*
X143105460Y-67800000D01*
X143085674Y-67611744D01*
X143027179Y-67431716D01*
X143008868Y-67400000D01*
X149894540Y-67400000D01*
X149914326Y-67588256D01*
X149914327Y-67588259D01*
X149972818Y-67768277D01*
X149972821Y-67768284D01*
X150067467Y-67932216D01*
X150157063Y-68031722D01*
X150194129Y-68072888D01*
X150347265Y-68184148D01*
X150347270Y-68184151D01*
X150520192Y-68261142D01*
X150520197Y-68261144D01*
X150705354Y-68300500D01*
X150705355Y-68300500D01*
X150894644Y-68300500D01*
X150894646Y-68300500D01*
X151079803Y-68261144D01*
X151252730Y-68184151D01*
X151405871Y-68072888D01*
X151532533Y-67932216D01*
X151627179Y-67768284D01*
X151685674Y-67588256D01*
X151705460Y-67400000D01*
X151685674Y-67211744D01*
X151627179Y-67031716D01*
X151532533Y-66867784D01*
X151405871Y-66727112D01*
X151405870Y-66727111D01*
X151252734Y-66615851D01*
X151252729Y-66615848D01*
X151079807Y-66538857D01*
X151079802Y-66538855D01*
X150934000Y-66507865D01*
X150894646Y-66499500D01*
X150705354Y-66499500D01*
X150672897Y-66506398D01*
X150520197Y-66538855D01*
X150520192Y-66538857D01*
X150347270Y-66615848D01*
X150347265Y-66615851D01*
X150194129Y-66727111D01*
X150067466Y-66867785D01*
X149972821Y-67031715D01*
X149972818Y-67031722D01*
X149914327Y-67211740D01*
X149914326Y-67211744D01*
X149894540Y-67400000D01*
X143008868Y-67400000D01*
X142932533Y-67267784D01*
X142805871Y-67127112D01*
X142805870Y-67127111D01*
X142652734Y-67015851D01*
X142652729Y-67015848D01*
X142479807Y-66938857D01*
X142479802Y-66938855D01*
X142334000Y-66907865D01*
X142294646Y-66899500D01*
X142105354Y-66899500D01*
X142072897Y-66906398D01*
X141920197Y-66938855D01*
X141920192Y-66938857D01*
X141747270Y-67015848D01*
X141747265Y-67015851D01*
X141594129Y-67127111D01*
X141467466Y-67267785D01*
X141372821Y-67431715D01*
X141372818Y-67431722D01*
X141317435Y-67602175D01*
X141314326Y-67611744D01*
X141294540Y-67800000D01*
X138071500Y-67800000D01*
X138005871Y-67727112D01*
X138005870Y-67727111D01*
X137852734Y-67615851D01*
X137852729Y-67615848D01*
X137679807Y-67538857D01*
X137679802Y-67538855D01*
X137534000Y-67507865D01*
X137494646Y-67499500D01*
X137305354Y-67499500D01*
X137272897Y-67506398D01*
X137120197Y-67538855D01*
X137120192Y-67538857D01*
X136947270Y-67615848D01*
X136947265Y-67615851D01*
X136794129Y-67727111D01*
X136667466Y-67867785D01*
X136572821Y-68031715D01*
X136572818Y-68031722D01*
X136514327Y-68211740D01*
X136514326Y-68211744D01*
X136494540Y-68400000D01*
X136514326Y-68588256D01*
X136514327Y-68588259D01*
X136572821Y-68768285D01*
X136591972Y-68801456D01*
X136608445Y-68869357D01*
X136585592Y-68935383D01*
X136576735Y-68946428D01*
X136467466Y-69067784D01*
X136372821Y-69231715D01*
X136372818Y-69231722D01*
X136340213Y-69332071D01*
X136314326Y-69411744D01*
X136294540Y-69600000D01*
X119473335Y-69600000D01*
X119424818Y-69472070D01*
X119420086Y-69465215D01*
X119383175Y-69411740D01*
X119328183Y-69332071D01*
X119200852Y-69219266D01*
X119200849Y-69219263D01*
X119050226Y-69140210D01*
X118885056Y-69099500D01*
X118714944Y-69099500D01*
X118549773Y-69140210D01*
X118399150Y-69219263D01*
X118271816Y-69332072D01*
X118175182Y-69472068D01*
X118114860Y-69631125D01*
X118114859Y-69631130D01*
X118094355Y-69799999D01*
X96999708Y-69799999D01*
X96944173Y-69673393D01*
X96808166Y-69465217D01*
X96786557Y-69441744D01*
X96639744Y-69282262D01*
X96556991Y-69217852D01*
X96516179Y-69161143D01*
X96512504Y-69091370D01*
X96547136Y-69030687D01*
X96556985Y-69022151D01*
X96639744Y-68957738D01*
X96808164Y-68774785D01*
X96944173Y-68566607D01*
X97044063Y-68338881D01*
X97105108Y-68097821D01*
X97114187Y-67988256D01*
X97125643Y-67850005D01*
X97125643Y-67849994D01*
X97105109Y-67602187D01*
X97105107Y-67602175D01*
X97044063Y-67361118D01*
X96944173Y-67133393D01*
X96808166Y-66925217D01*
X96755295Y-66867784D01*
X96639744Y-66742262D01*
X96556991Y-66677852D01*
X96516179Y-66621143D01*
X96512504Y-66551370D01*
X96547136Y-66490687D01*
X96556985Y-66482151D01*
X96639744Y-66417738D01*
X96808164Y-66234785D01*
X96944173Y-66026607D01*
X97044063Y-65798881D01*
X97105108Y-65557821D01*
X97125643Y-65310000D01*
X97105108Y-65062179D01*
X97044063Y-64821119D01*
X96944173Y-64593393D01*
X96944173Y-64593392D01*
X96808166Y-64385217D01*
X96787860Y-64363159D01*
X96639744Y-64202262D01*
X96612525Y-64181077D01*
X96556991Y-64137852D01*
X96516178Y-64081141D01*
X96512505Y-64011368D01*
X96547136Y-63950685D01*
X96556974Y-63942160D01*
X96639744Y-63877738D01*
X96808164Y-63694785D01*
X96944173Y-63486607D01*
X97044063Y-63258881D01*
X97105108Y-63017821D01*
X97125643Y-62770000D01*
X97105108Y-62522179D01*
X97044063Y-62281119D01*
X96944173Y-62053393D01*
X96808166Y-61845217D01*
X96787860Y-61823159D01*
X96639744Y-61662262D01*
X96612525Y-61641077D01*
X96556991Y-61597852D01*
X96516178Y-61541141D01*
X96512505Y-61471368D01*
X96547136Y-61410685D01*
X96556974Y-61402160D01*
X96639744Y-61337738D01*
X96808164Y-61154785D01*
X96944173Y-60946607D01*
X97044063Y-60718881D01*
X97105108Y-60477821D01*
X97125643Y-60230000D01*
X97105108Y-59982179D01*
X97044063Y-59741119D01*
X96944173Y-59513393D01*
X96808166Y-59305217D01*
X96786557Y-59281744D01*
X96639744Y-59122262D01*
X96556991Y-59057852D01*
X96516179Y-59001143D01*
X96512504Y-58931370D01*
X96547136Y-58870687D01*
X96556985Y-58862151D01*
X96639744Y-58797738D01*
X96808164Y-58614785D01*
X96944173Y-58406607D01*
X97044063Y-58178881D01*
X97105108Y-57937821D01*
X97105308Y-57935408D01*
X97125643Y-57690005D01*
X97125643Y-57689994D01*
X97105109Y-57442187D01*
X97105107Y-57442175D01*
X97044063Y-57201118D01*
X96944173Y-56973393D01*
X96808166Y-56765217D01*
X96712692Y-56661505D01*
X96639744Y-56582262D01*
X96556991Y-56517852D01*
X96516179Y-56461143D01*
X96512504Y-56391370D01*
X96547136Y-56330687D01*
X96556985Y-56322151D01*
X96639744Y-56257738D01*
X96808164Y-56074785D01*
X96944173Y-55866607D01*
X97044063Y-55638881D01*
X97105108Y-55397821D01*
X97105308Y-55395408D01*
X97125643Y-55150005D01*
X97125643Y-55149994D01*
X97105109Y-54902187D01*
X97105107Y-54902175D01*
X97044063Y-54661118D01*
X96944173Y-54433393D01*
X96808166Y-54225217D01*
X96712692Y-54121505D01*
X96639744Y-54042262D01*
X96556991Y-53977852D01*
X96516179Y-53921143D01*
X96512504Y-53851370D01*
X96547136Y-53790687D01*
X96556985Y-53782151D01*
X96639744Y-53717738D01*
X96808164Y-53534785D01*
X96944173Y-53326607D01*
X97044063Y-53098881D01*
X97105108Y-52857821D01*
X97105308Y-52855408D01*
X97125643Y-52610005D01*
X97125643Y-52609994D01*
X97105109Y-52362187D01*
X97105107Y-52362175D01*
X97044063Y-52121118D01*
X96944173Y-51893393D01*
X96808166Y-51685217D01*
X96712692Y-51581505D01*
X96639744Y-51502262D01*
X96536253Y-51421712D01*
X96495442Y-51365003D01*
X96488655Y-51316176D01*
X96490056Y-51293609D01*
X95886301Y-50689854D01*
X95852816Y-50628531D01*
X95857800Y-50558839D01*
X95892780Y-50508460D01*
X95898559Y-50503452D01*
X95898562Y-50503451D01*
X96009395Y-50407413D01*
X96044187Y-50353274D01*
X96096990Y-50307519D01*
X96166149Y-50297575D01*
X96229705Y-50326599D01*
X96236184Y-50332632D01*
X96843434Y-50939882D01*
X96943731Y-50786369D01*
X97043587Y-50558717D01*
X97104612Y-50317738D01*
X97104614Y-50317729D01*
X97125141Y-50070005D01*
X97125141Y-50069994D01*
X97104614Y-49822270D01*
X97104612Y-49822261D01*
X97043587Y-49581282D01*
X96943731Y-49353630D01*
X96843434Y-49200116D01*
X96236184Y-49807367D01*
X96174861Y-49840852D01*
X96105169Y-49835868D01*
X96049236Y-49793996D01*
X96044187Y-49786725D01*
X96009395Y-49732587D01*
X96009392Y-49732584D01*
X95892779Y-49631537D01*
X95855005Y-49572759D01*
X95855005Y-49502889D01*
X95886301Y-49450144D01*
X96490056Y-48846389D01*
X96488655Y-48823823D01*
X96504148Y-48755693D01*
X96536250Y-48718290D01*
X96639744Y-48637738D01*
X96808164Y-48454785D01*
X96944173Y-48246607D01*
X97044063Y-48018881D01*
X97105108Y-47777821D01*
X97105308Y-47775408D01*
X97125643Y-47530005D01*
X97125643Y-47529994D01*
X97105109Y-47282187D01*
X97105107Y-47282175D01*
X97044063Y-47041118D01*
X96944173Y-46813393D01*
X96808166Y-46605217D01*
X96712692Y-46501505D01*
X96639744Y-46422262D01*
X96556991Y-46357852D01*
X96516179Y-46301143D01*
X96512504Y-46231370D01*
X96547136Y-46170687D01*
X96556985Y-46162151D01*
X96639744Y-46097738D01*
X96808164Y-45914785D01*
X96944173Y-45706607D01*
X97044063Y-45478881D01*
X97105108Y-45237821D01*
X97105308Y-45235408D01*
X97125643Y-44990005D01*
X97125643Y-44989994D01*
X97105109Y-44742187D01*
X97105107Y-44742175D01*
X97044063Y-44501118D01*
X96944173Y-44273393D01*
X96808166Y-44065217D01*
X96712692Y-43961505D01*
X96639744Y-43882262D01*
X96443509Y-43729526D01*
X96443507Y-43729525D01*
X96443506Y-43729524D01*
X96224811Y-43611172D01*
X96224802Y-43611169D01*
X95989616Y-43530429D01*
X95744335Y-43489500D01*
X95495665Y-43489500D01*
X95250383Y-43530429D01*
X95015197Y-43611169D01*
X95015188Y-43611172D01*
X94796493Y-43729524D01*
X94600257Y-43882261D01*
X94431833Y-44065217D01*
X94295826Y-44273393D01*
X94195936Y-44501118D01*
X94134892Y-44742175D01*
X94134890Y-44742187D01*
X94114357Y-44989994D01*
X94114357Y-44990005D01*
X94134890Y-45237812D01*
X94134892Y-45237824D01*
X94195936Y-45478881D01*
X94295826Y-45706606D01*
X94431833Y-45914782D01*
X94431836Y-45914785D01*
X94600256Y-46097738D01*
X94683008Y-46162147D01*
X94723821Y-46218857D01*
X94727496Y-46288630D01*
X94692864Y-46349313D01*
X94683014Y-46357848D01*
X94665380Y-46371574D01*
X94600257Y-46422261D01*
X94431833Y-46605217D01*
X94295826Y-46813393D01*
X94195936Y-47041118D01*
X94134892Y-47282175D01*
X94134890Y-47282187D01*
X94114357Y-47529994D01*
X94114357Y-47530005D01*
X94134890Y-47777812D01*
X94134892Y-47777824D01*
X94195936Y-48018881D01*
X94295826Y-48246606D01*
X94431833Y-48454782D01*
X94431836Y-48454785D01*
X94600256Y-48637738D01*
X94600259Y-48637740D01*
X94600262Y-48637743D01*
X94703743Y-48718286D01*
X94744556Y-48774996D01*
X94751343Y-48823823D01*
X94749941Y-48846389D01*
X95353697Y-49450145D01*
X95387182Y-49511468D01*
X95382198Y-49581160D01*
X95347220Y-49631538D01*
X95246692Y-49718647D01*
X95230609Y-49732584D01*
X95230604Y-49732588D01*
X95230603Y-49732589D01*
X95195811Y-49786726D01*
X95143007Y-49832481D01*
X95073848Y-49842424D01*
X95010292Y-49813398D01*
X95003815Y-49807367D01*
X94396564Y-49200116D01*
X94296267Y-49353632D01*
X94196412Y-49581282D01*
X94135387Y-49822261D01*
X94135385Y-49822270D01*
X94114858Y-50069994D01*
X94114858Y-50070005D01*
X94135385Y-50317729D01*
X94135387Y-50317738D01*
X94196412Y-50558717D01*
X94296266Y-50786364D01*
X94396564Y-50939882D01*
X95003814Y-50332631D01*
X95065137Y-50299146D01*
X95134828Y-50304130D01*
X95190762Y-50346001D01*
X95195810Y-50353272D01*
X95230603Y-50407410D01*
X95230603Y-50407411D01*
X95347219Y-50508460D01*
X95384993Y-50567239D01*
X95384993Y-50637108D01*
X95353697Y-50689854D01*
X94749942Y-51293609D01*
X94751343Y-51316177D01*
X94735850Y-51384307D01*
X94703744Y-51421713D01*
X94600258Y-51502260D01*
X94431833Y-51685217D01*
X94295826Y-51893393D01*
X94195936Y-52121118D01*
X94134892Y-52362175D01*
X94134890Y-52362187D01*
X94114357Y-52609994D01*
X94114357Y-52610005D01*
X94134890Y-52857812D01*
X94134892Y-52857824D01*
X94195936Y-53098881D01*
X94295826Y-53326606D01*
X94431833Y-53534782D01*
X94431836Y-53534785D01*
X94600256Y-53717738D01*
X94683008Y-53782147D01*
X94723821Y-53838857D01*
X94727496Y-53908630D01*
X94692864Y-53969313D01*
X94683014Y-53977848D01*
X94665379Y-53991575D01*
X94600257Y-54042261D01*
X94431833Y-54225217D01*
X94295826Y-54433393D01*
X94195936Y-54661118D01*
X94134892Y-54902175D01*
X94134890Y-54902187D01*
X94114357Y-55149994D01*
X94114357Y-55150005D01*
X94134890Y-55397812D01*
X94134892Y-55397824D01*
X94195936Y-55638881D01*
X94295826Y-55866606D01*
X94431833Y-56074782D01*
X94431836Y-56074785D01*
X94600256Y-56257738D01*
X94683008Y-56322146D01*
X94723820Y-56378856D01*
X94727495Y-56448629D01*
X94692864Y-56509312D01*
X94683009Y-56517852D01*
X94600255Y-56582262D01*
X94431833Y-56765217D01*
X94295826Y-56973393D01*
X94195936Y-57201118D01*
X94134892Y-57442175D01*
X94134890Y-57442187D01*
X94114357Y-57689994D01*
X94114357Y-57690005D01*
X94134890Y-57937812D01*
X94134892Y-57937824D01*
X94195936Y-58178881D01*
X94295826Y-58406606D01*
X94431833Y-58614782D01*
X94431836Y-58614785D01*
X94600256Y-58797738D01*
X94683008Y-58862147D01*
X94723821Y-58918857D01*
X94727496Y-58988630D01*
X94692864Y-59049313D01*
X94683014Y-59057848D01*
X94624400Y-59103469D01*
X94600257Y-59122261D01*
X94431833Y-59305217D01*
X94295826Y-59513393D01*
X94195936Y-59741118D01*
X94134892Y-59982175D01*
X94134890Y-59982187D01*
X94114357Y-60229994D01*
X94114357Y-60230005D01*
X94134890Y-60477812D01*
X94134892Y-60477824D01*
X94195936Y-60718881D01*
X94295826Y-60946606D01*
X94431833Y-61154782D01*
X94431836Y-61154785D01*
X94600256Y-61337738D01*
X94683008Y-61402147D01*
X94723821Y-61458857D01*
X94727496Y-61528630D01*
X94692864Y-61589313D01*
X94683014Y-61597848D01*
X94624400Y-61643469D01*
X94600257Y-61662261D01*
X94431833Y-61845217D01*
X94295826Y-62053393D01*
X94195936Y-62281118D01*
X94134892Y-62522175D01*
X94134890Y-62522187D01*
X94114357Y-62769994D01*
X94114357Y-62770005D01*
X94134890Y-63017812D01*
X94134892Y-63017824D01*
X94195936Y-63258881D01*
X94295826Y-63486606D01*
X94431833Y-63694782D01*
X94431836Y-63694785D01*
X94600256Y-63877738D01*
X94683008Y-63942146D01*
X94723820Y-63998856D01*
X94727495Y-64068629D01*
X94692864Y-64129312D01*
X94683009Y-64137852D01*
X94600255Y-64202262D01*
X94431833Y-64385217D01*
X94295826Y-64593393D01*
X94195936Y-64821118D01*
X94134892Y-65062175D01*
X94134890Y-65062187D01*
X94114357Y-65309994D01*
X94114357Y-65310005D01*
X94134890Y-65557812D01*
X94134892Y-65557824D01*
X94195936Y-65798881D01*
X94295826Y-66026606D01*
X94431833Y-66234782D01*
X94431836Y-66234785D01*
X94600256Y-66417738D01*
X94683008Y-66482147D01*
X94723821Y-66538857D01*
X94727496Y-66608630D01*
X94692864Y-66669313D01*
X94683014Y-66677848D01*
X94624400Y-66723469D01*
X94600257Y-66742261D01*
X94431833Y-66925217D01*
X94295826Y-67133393D01*
X94195936Y-67361118D01*
X94134892Y-67602175D01*
X94134890Y-67602187D01*
X94114357Y-67849994D01*
X94114357Y-67850005D01*
X94134890Y-68097812D01*
X94134892Y-68097824D01*
X94195936Y-68338881D01*
X94295826Y-68566606D01*
X94431833Y-68774782D01*
X94431836Y-68774785D01*
X94600256Y-68957738D01*
X94683008Y-69022147D01*
X94723821Y-69078857D01*
X94727496Y-69148630D01*
X94692864Y-69209313D01*
X94683014Y-69217848D01*
X94665190Y-69231722D01*
X94600257Y-69282261D01*
X94431833Y-69465217D01*
X94295826Y-69673393D01*
X94195936Y-69901118D01*
X94134892Y-70142175D01*
X94134890Y-70142187D01*
X94114357Y-70389994D01*
X94114357Y-70390005D01*
X94134890Y-70637812D01*
X94134892Y-70637824D01*
X94195936Y-70878881D01*
X94295826Y-71106606D01*
X94431833Y-71314782D01*
X94431836Y-71314785D01*
X94600256Y-71497738D01*
X94683008Y-71562147D01*
X94723821Y-71618857D01*
X94727496Y-71688630D01*
X94692864Y-71749313D01*
X94683014Y-71757848D01*
X94624400Y-71803469D01*
X94600257Y-71822261D01*
X94431833Y-72005217D01*
X94295826Y-72213393D01*
X94195936Y-72441118D01*
X94134892Y-72682175D01*
X94134890Y-72682187D01*
X94114357Y-72929994D01*
X94114357Y-72930005D01*
X94134890Y-73177812D01*
X94134892Y-73177824D01*
X94195936Y-73418881D01*
X94295826Y-73646606D01*
X94431833Y-73854782D01*
X94431836Y-73854785D01*
X94600256Y-74037738D01*
X94683008Y-74102147D01*
X94723821Y-74158857D01*
X94727496Y-74228630D01*
X94692864Y-74289313D01*
X94683014Y-74297848D01*
X94624400Y-74343469D01*
X94600257Y-74362261D01*
X94431833Y-74545217D01*
X94295826Y-74753393D01*
X94195936Y-74981118D01*
X94134892Y-75222175D01*
X94134890Y-75222187D01*
X94114357Y-75469994D01*
X94114357Y-75470005D01*
X94134890Y-75717812D01*
X94134892Y-75717824D01*
X94195936Y-75958881D01*
X94295826Y-76186606D01*
X94431833Y-76394782D01*
X94431836Y-76394785D01*
X94600256Y-76577738D01*
X94683010Y-76642148D01*
X94723821Y-76698855D01*
X94727496Y-76768628D01*
X94692865Y-76829311D01*
X94683009Y-76837852D01*
X94600258Y-76902260D01*
X94431833Y-77085217D01*
X94295826Y-77293393D01*
X94195936Y-77521118D01*
X94134892Y-77762175D01*
X94134890Y-77762187D01*
X94114357Y-78009994D01*
X94114357Y-78010005D01*
X94134890Y-78257812D01*
X94134892Y-78257824D01*
X94195936Y-78498881D01*
X94295826Y-78726606D01*
X94431833Y-78934782D01*
X94431836Y-78934785D01*
X94600256Y-79117738D01*
X94683008Y-79182147D01*
X94723821Y-79238857D01*
X94727496Y-79308630D01*
X94692864Y-79369313D01*
X94683014Y-79377848D01*
X94624400Y-79423469D01*
X94600257Y-79442261D01*
X94431833Y-79625217D01*
X94295826Y-79833393D01*
X94195936Y-80061118D01*
X94134892Y-80302175D01*
X94134890Y-80302187D01*
X94114357Y-80549994D01*
X94114357Y-80550005D01*
X94134890Y-80797812D01*
X94134892Y-80797824D01*
X94195936Y-81038881D01*
X94295826Y-81266606D01*
X94431833Y-81474782D01*
X94431836Y-81474785D01*
X94600256Y-81657738D01*
X94683008Y-81722147D01*
X94723821Y-81778857D01*
X94727496Y-81848630D01*
X94692864Y-81909313D01*
X94683014Y-81917848D01*
X94624400Y-81963469D01*
X94600257Y-81982261D01*
X94431833Y-82165217D01*
X94295826Y-82373393D01*
X94195936Y-82601118D01*
X94134892Y-82842175D01*
X94134890Y-82842187D01*
X94114357Y-83089994D01*
X94114357Y-83090005D01*
X94134890Y-83337812D01*
X94134892Y-83337824D01*
X94195936Y-83578881D01*
X94295826Y-83806606D01*
X94431833Y-84014782D01*
X94431836Y-84014785D01*
X94600256Y-84197738D01*
X94683008Y-84262147D01*
X94723821Y-84318857D01*
X94727496Y-84388630D01*
X94692864Y-84449313D01*
X94683014Y-84457848D01*
X94624400Y-84503469D01*
X94600257Y-84522261D01*
X94431833Y-84705217D01*
X94295826Y-84913393D01*
X94195936Y-85141118D01*
X94134892Y-85382175D01*
X94134890Y-85382187D01*
X94114357Y-85629994D01*
X94114357Y-85630005D01*
X94134890Y-85877812D01*
X94134892Y-85877824D01*
X94195936Y-86118881D01*
X94295826Y-86346606D01*
X94431833Y-86554782D01*
X94431836Y-86554785D01*
X94600256Y-86737738D01*
X94683010Y-86802148D01*
X94723821Y-86858855D01*
X94727496Y-86928628D01*
X94692865Y-86989311D01*
X94683009Y-86997852D01*
X94600258Y-87062260D01*
X94431833Y-87245217D01*
X94295826Y-87453393D01*
X94195936Y-87681118D01*
X94134892Y-87922175D01*
X94134890Y-87922187D01*
X94114357Y-88169994D01*
X94114357Y-88170005D01*
X94134890Y-88417812D01*
X94134892Y-88417824D01*
X94195936Y-88658881D01*
X94295826Y-88886606D01*
X94431833Y-89094782D01*
X94431836Y-89094785D01*
X94600256Y-89277738D01*
X94683008Y-89342147D01*
X94723821Y-89398857D01*
X94727496Y-89468630D01*
X94692864Y-89529313D01*
X94683014Y-89537848D01*
X94624400Y-89583469D01*
X94600257Y-89602261D01*
X94431833Y-89785217D01*
X94295826Y-89993393D01*
X94195936Y-90221118D01*
X94134892Y-90462175D01*
X94134890Y-90462187D01*
X94114357Y-90709994D01*
X94114357Y-90710005D01*
X94134890Y-90957812D01*
X94134892Y-90957824D01*
X94195936Y-91198881D01*
X94295826Y-91426606D01*
X94431833Y-91634782D01*
X94431836Y-91634785D01*
X94600256Y-91817738D01*
X94683008Y-91882146D01*
X94723820Y-91938856D01*
X94727495Y-92008629D01*
X94692864Y-92069312D01*
X94683009Y-92077852D01*
X94600255Y-92142262D01*
X94431833Y-92325217D01*
X94295826Y-92533393D01*
X94195936Y-92761118D01*
X94134892Y-93002175D01*
X94134890Y-93002187D01*
X94114357Y-93249994D01*
X94114357Y-93250005D01*
X94134890Y-93497812D01*
X94134892Y-93497824D01*
X94195936Y-93738881D01*
X94295826Y-93966606D01*
X94431833Y-94174782D01*
X94431836Y-94174785D01*
X94600256Y-94357738D01*
X94683008Y-94422147D01*
X94723821Y-94478857D01*
X94727496Y-94548630D01*
X94692864Y-94609313D01*
X94683014Y-94617848D01*
X94641706Y-94650000D01*
X94600257Y-94682261D01*
X94431833Y-94865217D01*
X94295826Y-95073393D01*
X94195936Y-95301118D01*
X94134892Y-95542175D01*
X94134890Y-95542187D01*
X94114357Y-95789994D01*
X94114357Y-95790005D01*
X94134890Y-96037812D01*
X94134892Y-96037824D01*
X94195936Y-96278881D01*
X94295826Y-96506606D01*
X94431833Y-96714782D01*
X94431836Y-96714785D01*
X94600256Y-96897738D01*
X94683010Y-96962148D01*
X94723821Y-97018855D01*
X94727496Y-97088628D01*
X94692865Y-97149311D01*
X94683009Y-97157852D01*
X94600258Y-97222260D01*
X94431833Y-97405217D01*
X94295826Y-97613393D01*
X94195936Y-97841118D01*
X94134892Y-98082175D01*
X94134890Y-98082187D01*
X94114357Y-98329994D01*
X94114357Y-98330005D01*
X94134890Y-98577812D01*
X94134892Y-98577824D01*
X94195936Y-98818881D01*
X94295826Y-99046606D01*
X94431833Y-99254782D01*
X94431836Y-99254785D01*
X94600256Y-99437738D01*
X94683008Y-99502147D01*
X94723821Y-99558857D01*
X94727496Y-99628630D01*
X94692864Y-99689313D01*
X94683014Y-99697848D01*
X94669426Y-99708425D01*
X94600257Y-99762261D01*
X94431833Y-99945217D01*
X94295826Y-100153393D01*
X94195936Y-100381118D01*
X94134892Y-100622175D01*
X94134890Y-100622187D01*
X94114357Y-100869994D01*
X94114357Y-100870005D01*
X94134890Y-101117812D01*
X94134892Y-101117824D01*
X94195936Y-101358881D01*
X94295826Y-101586606D01*
X94431833Y-101794782D01*
X94431836Y-101794785D01*
X94600256Y-101977738D01*
X94683010Y-102042148D01*
X94723821Y-102098855D01*
X94727496Y-102168628D01*
X94692865Y-102229311D01*
X94683009Y-102237852D01*
X94600258Y-102302260D01*
X94431833Y-102485217D01*
X94295826Y-102693393D01*
X94195936Y-102921118D01*
X94134892Y-103162175D01*
X94134890Y-103162187D01*
X94114357Y-103409994D01*
X94114357Y-103410005D01*
X81885643Y-103410005D01*
X81885643Y-103409994D01*
X81865109Y-103162187D01*
X81865107Y-103162175D01*
X81804063Y-102921118D01*
X81704173Y-102693393D01*
X81568166Y-102485217D01*
X81521804Y-102434855D01*
X81399744Y-102302262D01*
X81316991Y-102237852D01*
X81276179Y-102181143D01*
X81272504Y-102111370D01*
X81307136Y-102050687D01*
X81316985Y-102042151D01*
X81399744Y-101977738D01*
X81568164Y-101794785D01*
X81704173Y-101586607D01*
X81804063Y-101358881D01*
X81865108Y-101117821D01*
X81885643Y-100870000D01*
X81883537Y-100844586D01*
X81865109Y-100622187D01*
X81865107Y-100622175D01*
X81804063Y-100381118D01*
X81704173Y-100153393D01*
X81568166Y-99945217D01*
X81521804Y-99894855D01*
X81399744Y-99762262D01*
X81352055Y-99725144D01*
X81316991Y-99697852D01*
X81276178Y-99641141D01*
X81272505Y-99571368D01*
X81307136Y-99510685D01*
X81316974Y-99502160D01*
X81399744Y-99437738D01*
X81568164Y-99254785D01*
X81704173Y-99046607D01*
X81804063Y-98818881D01*
X81865108Y-98577821D01*
X81885643Y-98330000D01*
X81883537Y-98304586D01*
X81865109Y-98082187D01*
X81865107Y-98082175D01*
X81804063Y-97841118D01*
X81704173Y-97613393D01*
X81568166Y-97405217D01*
X81510358Y-97342421D01*
X81399744Y-97222262D01*
X81316991Y-97157852D01*
X81276179Y-97101143D01*
X81272504Y-97031370D01*
X81307136Y-96970687D01*
X81316985Y-96962151D01*
X81399744Y-96897738D01*
X81568164Y-96714785D01*
X81704173Y-96506607D01*
X81804063Y-96278881D01*
X81865108Y-96037821D01*
X81875788Y-95908933D01*
X81885643Y-95790005D01*
X81885643Y-95789994D01*
X81865109Y-95542187D01*
X81865107Y-95542175D01*
X81804063Y-95301118D01*
X81704173Y-95073393D01*
X81568166Y-94865217D01*
X81501512Y-94792812D01*
X81399744Y-94682262D01*
X81316991Y-94617852D01*
X81276179Y-94561143D01*
X81272504Y-94491370D01*
X81307136Y-94430687D01*
X81316985Y-94422151D01*
X81399744Y-94357738D01*
X81568164Y-94174785D01*
X81704173Y-93966607D01*
X81804063Y-93738881D01*
X81865108Y-93497821D01*
X81875842Y-93368284D01*
X81885643Y-93250005D01*
X81885643Y-93249994D01*
X81865109Y-93002187D01*
X81865107Y-93002175D01*
X81804063Y-92761118D01*
X81704173Y-92533393D01*
X81568166Y-92325217D01*
X81545412Y-92300500D01*
X81399744Y-92142262D01*
X81316991Y-92077852D01*
X81276179Y-92021143D01*
X81272504Y-91951370D01*
X81307136Y-91890687D01*
X81316985Y-91882151D01*
X81399744Y-91817738D01*
X81568164Y-91634785D01*
X81704173Y-91426607D01*
X81804063Y-91198881D01*
X81865108Y-90957821D01*
X81884225Y-90727112D01*
X81885643Y-90710005D01*
X81885643Y-90709994D01*
X81865109Y-90462187D01*
X81865107Y-90462175D01*
X81804063Y-90221118D01*
X81704173Y-89993393D01*
X81568166Y-89785217D01*
X81546557Y-89761744D01*
X81399744Y-89602262D01*
X81316991Y-89537852D01*
X81276179Y-89481143D01*
X81272504Y-89411370D01*
X81307136Y-89350687D01*
X81316985Y-89342151D01*
X81399744Y-89277738D01*
X81568164Y-89094785D01*
X81704173Y-88886607D01*
X81804063Y-88658881D01*
X81865108Y-88417821D01*
X81865109Y-88417812D01*
X81885643Y-88170005D01*
X81885643Y-88169994D01*
X81865109Y-87922187D01*
X81865107Y-87922175D01*
X81804063Y-87681118D01*
X81704173Y-87453393D01*
X81568166Y-87245217D01*
X81497885Y-87168872D01*
X81399744Y-87062262D01*
X81316991Y-86997852D01*
X81276179Y-86941143D01*
X81272504Y-86871370D01*
X81307136Y-86810687D01*
X81316985Y-86802151D01*
X81399744Y-86737738D01*
X81568164Y-86554785D01*
X81704173Y-86346607D01*
X81804063Y-86118881D01*
X81865108Y-85877821D01*
X81870243Y-85815849D01*
X81885643Y-85630005D01*
X81885643Y-85629994D01*
X81865109Y-85382187D01*
X81865107Y-85382175D01*
X81804063Y-85141118D01*
X81704173Y-84913393D01*
X81568166Y-84705217D01*
X81546557Y-84681744D01*
X81399744Y-84522262D01*
X81316991Y-84457852D01*
X81276179Y-84401143D01*
X81272504Y-84331370D01*
X81307136Y-84270687D01*
X81316985Y-84262151D01*
X81399744Y-84197738D01*
X81568164Y-84014785D01*
X81704173Y-83806607D01*
X81804063Y-83578881D01*
X81865108Y-83337821D01*
X81877501Y-83188259D01*
X81885643Y-83090005D01*
X81885643Y-83089994D01*
X81865109Y-82842187D01*
X81865107Y-82842175D01*
X81804063Y-82601118D01*
X81704173Y-82373393D01*
X81568166Y-82165217D01*
X81507669Y-82099500D01*
X81399744Y-81982262D01*
X81316991Y-81917852D01*
X81276179Y-81861143D01*
X81272504Y-81791370D01*
X81307136Y-81730687D01*
X81316985Y-81722151D01*
X81399744Y-81657738D01*
X81568164Y-81474785D01*
X81704173Y-81266607D01*
X81804063Y-81038881D01*
X81865108Y-80797821D01*
X81885643Y-80550000D01*
X81865108Y-80302179D01*
X81804063Y-80061119D01*
X81704173Y-79833393D01*
X81704173Y-79833392D01*
X81568166Y-79625217D01*
X81546557Y-79601744D01*
X81399744Y-79442262D01*
X81316991Y-79377852D01*
X81276179Y-79321143D01*
X81272504Y-79251370D01*
X81307136Y-79190687D01*
X81316985Y-79182151D01*
X81399744Y-79117738D01*
X81568164Y-78934785D01*
X81704173Y-78726607D01*
X81804063Y-78498881D01*
X81865108Y-78257821D01*
X81865109Y-78257812D01*
X81885643Y-78010005D01*
X81885643Y-78009994D01*
X81865109Y-77762187D01*
X81865107Y-77762175D01*
X81804063Y-77521118D01*
X81704173Y-77293393D01*
X81568166Y-77085217D01*
X81518914Y-77031715D01*
X81399744Y-76902262D01*
X81316991Y-76837852D01*
X81276179Y-76781143D01*
X81272504Y-76711370D01*
X81307136Y-76650687D01*
X81316985Y-76642151D01*
X81399744Y-76577738D01*
X81568164Y-76394785D01*
X81704173Y-76186607D01*
X81804063Y-75958881D01*
X81865108Y-75717821D01*
X81885643Y-75470000D01*
X81865108Y-75222179D01*
X81804063Y-74981119D01*
X81704173Y-74753393D01*
X81568166Y-74545217D01*
X81546557Y-74521744D01*
X81399744Y-74362262D01*
X81316991Y-74297852D01*
X81276179Y-74241143D01*
X81272504Y-74171370D01*
X81307136Y-74110687D01*
X81316985Y-74102151D01*
X81399744Y-74037738D01*
X81568164Y-73854785D01*
X81704173Y-73646607D01*
X81804063Y-73418881D01*
X81865108Y-73177821D01*
X81885643Y-72930000D01*
X81865108Y-72682179D01*
X81804063Y-72441119D01*
X81704173Y-72213393D01*
X81568166Y-72005217D01*
X81546557Y-71981744D01*
X81399744Y-71822262D01*
X81316991Y-71757852D01*
X81276179Y-71701143D01*
X81272504Y-71631370D01*
X81307136Y-71570687D01*
X81316985Y-71562151D01*
X81399744Y-71497738D01*
X81568164Y-71314785D01*
X81704173Y-71106607D01*
X81804063Y-70878881D01*
X81865108Y-70637821D01*
X81885643Y-70390000D01*
X81885158Y-70384151D01*
X81865109Y-70142187D01*
X81865107Y-70142175D01*
X81804063Y-69901118D01*
X81704173Y-69673393D01*
X81568166Y-69465217D01*
X81546557Y-69441744D01*
X81399744Y-69282262D01*
X81316991Y-69217852D01*
X81276179Y-69161143D01*
X81272504Y-69091370D01*
X81307136Y-69030687D01*
X81316985Y-69022151D01*
X81399744Y-68957738D01*
X81568164Y-68774785D01*
X81704173Y-68566607D01*
X81804063Y-68338881D01*
X81865108Y-68097821D01*
X81874187Y-67988256D01*
X81885643Y-67850005D01*
X81885643Y-67849994D01*
X81865109Y-67602187D01*
X81865107Y-67602175D01*
X81804063Y-67361118D01*
X81704173Y-67133393D01*
X81568166Y-66925217D01*
X81515295Y-66867784D01*
X81399744Y-66742262D01*
X81316991Y-66677852D01*
X81276179Y-66621143D01*
X81272504Y-66551370D01*
X81307136Y-66490687D01*
X81316985Y-66482151D01*
X81399744Y-66417738D01*
X81568164Y-66234785D01*
X81704173Y-66026607D01*
X81804063Y-65798881D01*
X81865108Y-65557821D01*
X81885643Y-65310000D01*
X81865108Y-65062179D01*
X81804063Y-64821119D01*
X81704173Y-64593393D01*
X81568166Y-64385217D01*
X81546557Y-64361744D01*
X81399744Y-64202262D01*
X81316991Y-64137852D01*
X81276179Y-64081143D01*
X81272504Y-64011370D01*
X81307136Y-63950687D01*
X81316985Y-63942151D01*
X81399744Y-63877738D01*
X81568164Y-63694785D01*
X81704173Y-63486607D01*
X81804063Y-63258881D01*
X81865108Y-63017821D01*
X81885643Y-62770000D01*
X81865108Y-62522179D01*
X81804063Y-62281119D01*
X81704173Y-62053393D01*
X81568166Y-61845217D01*
X81546557Y-61821744D01*
X81399744Y-61662262D01*
X81316991Y-61597852D01*
X81276179Y-61541143D01*
X81272504Y-61471370D01*
X81307136Y-61410687D01*
X81316985Y-61402151D01*
X81399744Y-61337738D01*
X81568164Y-61154785D01*
X81704173Y-60946607D01*
X81804063Y-60718881D01*
X81865108Y-60477821D01*
X81885643Y-60230000D01*
X81865108Y-59982179D01*
X81804063Y-59741119D01*
X81704173Y-59513393D01*
X81704173Y-59513392D01*
X81568166Y-59305217D01*
X81546557Y-59281744D01*
X81399744Y-59122262D01*
X81316991Y-59057852D01*
X81276179Y-59001143D01*
X81272504Y-58931370D01*
X81307136Y-58870687D01*
X81316985Y-58862151D01*
X81399744Y-58797738D01*
X81568164Y-58614785D01*
X81704173Y-58406607D01*
X81804063Y-58178881D01*
X81865108Y-57937821D01*
X81865308Y-57935408D01*
X81885643Y-57690005D01*
X81885643Y-57689994D01*
X81865109Y-57442187D01*
X81865107Y-57442175D01*
X81804063Y-57201118D01*
X81704173Y-56973393D01*
X81568166Y-56765217D01*
X81472692Y-56661505D01*
X81399744Y-56582262D01*
X81316991Y-56517852D01*
X81276179Y-56461143D01*
X81272504Y-56391370D01*
X81307136Y-56330687D01*
X81316985Y-56322151D01*
X81399744Y-56257738D01*
X81568164Y-56074785D01*
X81704173Y-55866607D01*
X81804063Y-55638881D01*
X81865108Y-55397821D01*
X81865308Y-55395408D01*
X81885643Y-55150005D01*
X81885643Y-55149994D01*
X81865109Y-54902187D01*
X81865107Y-54902175D01*
X81804063Y-54661118D01*
X81704173Y-54433393D01*
X81568166Y-54225217D01*
X81472692Y-54121505D01*
X81399744Y-54042262D01*
X81372525Y-54021077D01*
X81316991Y-53977852D01*
X81276178Y-53921141D01*
X81272505Y-53851368D01*
X81307136Y-53790685D01*
X81316974Y-53782160D01*
X81399744Y-53717738D01*
X81568164Y-53534785D01*
X81704173Y-53326607D01*
X81804063Y-53098881D01*
X81865108Y-52857821D01*
X81865308Y-52855408D01*
X81885643Y-52610005D01*
X81885643Y-52609994D01*
X81865109Y-52362187D01*
X81865107Y-52362175D01*
X81804063Y-52121118D01*
X81704173Y-51893393D01*
X81568166Y-51685217D01*
X81472692Y-51581505D01*
X81399744Y-51502262D01*
X81316991Y-51437852D01*
X81276179Y-51381143D01*
X81272504Y-51311370D01*
X81307136Y-51250687D01*
X81316985Y-51242151D01*
X81399744Y-51177738D01*
X81568164Y-50994785D01*
X81704173Y-50786607D01*
X81804063Y-50558881D01*
X81865108Y-50317821D01*
X81865308Y-50315408D01*
X81885643Y-50070005D01*
X81885643Y-50069994D01*
X81865109Y-49822187D01*
X81865107Y-49822175D01*
X81804063Y-49581118D01*
X81704173Y-49353393D01*
X81568166Y-49145217D01*
X81472692Y-49041505D01*
X81399744Y-48962262D01*
X81316991Y-48897852D01*
X81276179Y-48841143D01*
X81272504Y-48771370D01*
X81307136Y-48710687D01*
X81316985Y-48702151D01*
X81399744Y-48637738D01*
X81568164Y-48454785D01*
X81704173Y-48246607D01*
X81804063Y-48018881D01*
X81865108Y-47777821D01*
X81865308Y-47775408D01*
X81885643Y-47530005D01*
X81885643Y-47529994D01*
X81865109Y-47282187D01*
X81865107Y-47282175D01*
X81804063Y-47041118D01*
X81704173Y-46813393D01*
X81568166Y-46605217D01*
X81472692Y-46501505D01*
X81399744Y-46422262D01*
X81316991Y-46357852D01*
X81276179Y-46301143D01*
X81272504Y-46231370D01*
X81307136Y-46170687D01*
X81316985Y-46162151D01*
X81399744Y-46097738D01*
X81568164Y-45914785D01*
X81704173Y-45706607D01*
X81804063Y-45478881D01*
X81865108Y-45237821D01*
X81865308Y-45235408D01*
X81885643Y-44990005D01*
X81885643Y-44989994D01*
X81865109Y-44742187D01*
X81865107Y-44742175D01*
X81804063Y-44501118D01*
X81704173Y-44273393D01*
X81568166Y-44065217D01*
X81472692Y-43961505D01*
X81399744Y-43882262D01*
X81203509Y-43729526D01*
X81203507Y-43729525D01*
X81203506Y-43729524D01*
X80984811Y-43611172D01*
X80984802Y-43611169D01*
X80749616Y-43530429D01*
X80504335Y-43489500D01*
X80255665Y-43489500D01*
X80010383Y-43530429D01*
X79775197Y-43611169D01*
X79775188Y-43611172D01*
X79556493Y-43729524D01*
X79360257Y-43882261D01*
X79191833Y-44065217D01*
X79055826Y-44273393D01*
X78955936Y-44501118D01*
X78894892Y-44742175D01*
X78894890Y-44742187D01*
X78874357Y-44989994D01*
X78874357Y-44990005D01*
X78894890Y-45237812D01*
X78894892Y-45237824D01*
X78955936Y-45478881D01*
X79055826Y-45706606D01*
X79191833Y-45914782D01*
X79191836Y-45914785D01*
X79360256Y-46097738D01*
X79443008Y-46162146D01*
X79483820Y-46218856D01*
X79487495Y-46288629D01*
X79452864Y-46349312D01*
X79443009Y-46357852D01*
X79360255Y-46422262D01*
X79191833Y-46605217D01*
X79055826Y-46813393D01*
X78955936Y-47041118D01*
X78894892Y-47282175D01*
X78894890Y-47282187D01*
X78874357Y-47529994D01*
X78874357Y-47530005D01*
X78894890Y-47777812D01*
X78894892Y-47777824D01*
X78955936Y-48018881D01*
X79055826Y-48246606D01*
X79191833Y-48454782D01*
X79191836Y-48454785D01*
X79360256Y-48637738D01*
X79443008Y-48702147D01*
X79483821Y-48758857D01*
X79487496Y-48828630D01*
X79452864Y-48889313D01*
X79443014Y-48897848D01*
X79428908Y-48908828D01*
X79360257Y-48962261D01*
X79191833Y-49145217D01*
X79055826Y-49353393D01*
X78955936Y-49581118D01*
X78894892Y-49822175D01*
X78894890Y-49822187D01*
X78874357Y-50069994D01*
X78874357Y-50070005D01*
X78894890Y-50317812D01*
X78894892Y-50317824D01*
X78955936Y-50558881D01*
X79055826Y-50786606D01*
X79191833Y-50994782D01*
X79191836Y-50994785D01*
X79360256Y-51177738D01*
X79443008Y-51242147D01*
X79483821Y-51298857D01*
X79487496Y-51368630D01*
X79452864Y-51429313D01*
X79443014Y-51437848D01*
X79425379Y-51451575D01*
X79360257Y-51502261D01*
X79191833Y-51685217D01*
X79055826Y-51893393D01*
X78955936Y-52121118D01*
X78894892Y-52362175D01*
X78894890Y-52362187D01*
X78874357Y-52609994D01*
X78874357Y-52610005D01*
X78894890Y-52857812D01*
X78894892Y-52857824D01*
X78955936Y-53098881D01*
X79055826Y-53326606D01*
X79191833Y-53534782D01*
X79191836Y-53534785D01*
X79360256Y-53717738D01*
X79443008Y-53782146D01*
X79483820Y-53838856D01*
X79487495Y-53908629D01*
X79452864Y-53969312D01*
X79443009Y-53977852D01*
X79360255Y-54042262D01*
X79191833Y-54225217D01*
X79055826Y-54433393D01*
X78955936Y-54661118D01*
X78894892Y-54902175D01*
X78894890Y-54902187D01*
X78874357Y-55149994D01*
X78874357Y-55150005D01*
X78894890Y-55397812D01*
X78894892Y-55397824D01*
X78955936Y-55638881D01*
X79055826Y-55866606D01*
X79191833Y-56074782D01*
X79191836Y-56074785D01*
X79360256Y-56257738D01*
X79443008Y-56322147D01*
X79483821Y-56378857D01*
X79487496Y-56448630D01*
X79452864Y-56509313D01*
X79443014Y-56517848D01*
X79425379Y-56531575D01*
X79360257Y-56582261D01*
X79191833Y-56765217D01*
X79055826Y-56973393D01*
X78955936Y-57201118D01*
X78894892Y-57442175D01*
X78894890Y-57442187D01*
X78874357Y-57689994D01*
X78874357Y-57690005D01*
X78894890Y-57937812D01*
X78894892Y-57937824D01*
X78955936Y-58178881D01*
X79055826Y-58406606D01*
X79191833Y-58614782D01*
X79191836Y-58614785D01*
X79360256Y-58797738D01*
X79443008Y-58862147D01*
X79483821Y-58918857D01*
X79487496Y-58988630D01*
X79452864Y-59049313D01*
X79443014Y-59057848D01*
X79384400Y-59103469D01*
X79360257Y-59122261D01*
X79191833Y-59305217D01*
X79055826Y-59513393D01*
X78955936Y-59741118D01*
X78894892Y-59982175D01*
X78894890Y-59982187D01*
X78874357Y-60229994D01*
X78874357Y-60230005D01*
X78894890Y-60477812D01*
X78894892Y-60477824D01*
X78955936Y-60718881D01*
X79055826Y-60946606D01*
X79191833Y-61154782D01*
X79191836Y-61154785D01*
X79360256Y-61337738D01*
X79443008Y-61402147D01*
X79483821Y-61458857D01*
X79487496Y-61528630D01*
X79452864Y-61589313D01*
X79443014Y-61597848D01*
X79384400Y-61643469D01*
X79360257Y-61662261D01*
X79191833Y-61845217D01*
X79055826Y-62053393D01*
X78955936Y-62281118D01*
X78894892Y-62522175D01*
X78894890Y-62522187D01*
X78874357Y-62769994D01*
X78874357Y-62770005D01*
X78894890Y-63017812D01*
X78894892Y-63017824D01*
X78955936Y-63258881D01*
X79055826Y-63486606D01*
X79191833Y-63694782D01*
X79191836Y-63694785D01*
X79360256Y-63877738D01*
X79443008Y-63942147D01*
X79483821Y-63998857D01*
X79487496Y-64068630D01*
X79452864Y-64129313D01*
X79443014Y-64137848D01*
X79384400Y-64183469D01*
X79360257Y-64202261D01*
X79191833Y-64385217D01*
X79055826Y-64593393D01*
X78955936Y-64821118D01*
X78894892Y-65062175D01*
X78894890Y-65062187D01*
X78874357Y-65309994D01*
X78874357Y-65310005D01*
X78894890Y-65557812D01*
X78894892Y-65557824D01*
X78955936Y-65798881D01*
X79055826Y-66026606D01*
X79191833Y-66234782D01*
X79191836Y-66234785D01*
X79360256Y-66417738D01*
X79443008Y-66482146D01*
X79483820Y-66538856D01*
X79487495Y-66608629D01*
X79452864Y-66669312D01*
X79443009Y-66677852D01*
X79360255Y-66742262D01*
X79191833Y-66925217D01*
X79055826Y-67133393D01*
X78955936Y-67361118D01*
X78894892Y-67602175D01*
X78894890Y-67602187D01*
X78874357Y-67849994D01*
X78874357Y-67850005D01*
X78894890Y-68097812D01*
X78894892Y-68097824D01*
X78955936Y-68338881D01*
X79055826Y-68566606D01*
X79191833Y-68774782D01*
X79191836Y-68774785D01*
X79360256Y-68957738D01*
X79443008Y-69022147D01*
X79483821Y-69078857D01*
X79487496Y-69148630D01*
X79452864Y-69209313D01*
X79443014Y-69217848D01*
X79425190Y-69231722D01*
X79360257Y-69282261D01*
X79191833Y-69465217D01*
X79055826Y-69673393D01*
X78955936Y-69901118D01*
X78894892Y-70142175D01*
X78894890Y-70142187D01*
X78874357Y-70389994D01*
X78874357Y-70390005D01*
X78894890Y-70637812D01*
X78894892Y-70637824D01*
X78955936Y-70878881D01*
X79055826Y-71106606D01*
X79191833Y-71314782D01*
X79191836Y-71314785D01*
X79360256Y-71497738D01*
X79443008Y-71562147D01*
X79483821Y-71618857D01*
X79487496Y-71688630D01*
X79452864Y-71749313D01*
X79443014Y-71757848D01*
X79384400Y-71803469D01*
X79360257Y-71822261D01*
X79191833Y-72005217D01*
X79055826Y-72213393D01*
X78955936Y-72441118D01*
X78894892Y-72682175D01*
X78894890Y-72682187D01*
X78874357Y-72929994D01*
X78874357Y-72930005D01*
X78894890Y-73177812D01*
X78894892Y-73177824D01*
X78955936Y-73418881D01*
X79055826Y-73646606D01*
X79191833Y-73854782D01*
X79191836Y-73854785D01*
X79360256Y-74037738D01*
X79443008Y-74102147D01*
X79483821Y-74158857D01*
X79487496Y-74228630D01*
X79452864Y-74289313D01*
X79443014Y-74297848D01*
X79384400Y-74343469D01*
X79360257Y-74362261D01*
X79191833Y-74545217D01*
X79055826Y-74753393D01*
X78955936Y-74981118D01*
X78894892Y-75222175D01*
X78894890Y-75222187D01*
X78874357Y-75469994D01*
X78874357Y-75470005D01*
X78894890Y-75717812D01*
X78894892Y-75717824D01*
X78955936Y-75958881D01*
X79055826Y-76186606D01*
X79191833Y-76394782D01*
X79191836Y-76394785D01*
X79360256Y-76577738D01*
X79443008Y-76642147D01*
X79483821Y-76698857D01*
X79487496Y-76768630D01*
X79452864Y-76829313D01*
X79443014Y-76837848D01*
X79404552Y-76867785D01*
X79360257Y-76902261D01*
X79191833Y-77085217D01*
X79055826Y-77293393D01*
X78955936Y-77521118D01*
X78894892Y-77762175D01*
X78894890Y-77762187D01*
X78874357Y-78009994D01*
X78874357Y-78010005D01*
X78894890Y-78257812D01*
X78894892Y-78257824D01*
X78955936Y-78498881D01*
X79055826Y-78726606D01*
X79191833Y-78934782D01*
X79191836Y-78934785D01*
X79360256Y-79117738D01*
X79443008Y-79182147D01*
X79483821Y-79238857D01*
X79487496Y-79308630D01*
X79452864Y-79369313D01*
X79443014Y-79377848D01*
X79384400Y-79423469D01*
X79360257Y-79442261D01*
X79191833Y-79625217D01*
X79055826Y-79833393D01*
X78955936Y-80061118D01*
X78894892Y-80302175D01*
X78894890Y-80302187D01*
X78874357Y-80549994D01*
X78874357Y-80550005D01*
X78894890Y-80797812D01*
X78894892Y-80797824D01*
X78955936Y-81038881D01*
X79055826Y-81266606D01*
X79191833Y-81474782D01*
X79191836Y-81474785D01*
X79360256Y-81657738D01*
X79443010Y-81722148D01*
X79483821Y-81778855D01*
X79487496Y-81848628D01*
X79452865Y-81909311D01*
X79443009Y-81917852D01*
X79360258Y-81982260D01*
X79191833Y-82165217D01*
X79055826Y-82373393D01*
X78955936Y-82601118D01*
X78894892Y-82842175D01*
X78894890Y-82842187D01*
X78874357Y-83089994D01*
X78874357Y-83090005D01*
X78894890Y-83337812D01*
X78894892Y-83337824D01*
X78955936Y-83578881D01*
X79055826Y-83806606D01*
X79191833Y-84014782D01*
X79191836Y-84014785D01*
X79360256Y-84197738D01*
X79443008Y-84262147D01*
X79483821Y-84318857D01*
X79487496Y-84388630D01*
X79452864Y-84449313D01*
X79443014Y-84457848D01*
X79384400Y-84503469D01*
X79360257Y-84522261D01*
X79191833Y-84705217D01*
X79055826Y-84913393D01*
X78955936Y-85141118D01*
X78894892Y-85382175D01*
X78894890Y-85382187D01*
X78874357Y-85629994D01*
X78874357Y-85630005D01*
X78894890Y-85877812D01*
X78894892Y-85877824D01*
X78955936Y-86118881D01*
X79055826Y-86346606D01*
X79191833Y-86554782D01*
X79191836Y-86554785D01*
X79360256Y-86737738D01*
X79443010Y-86802148D01*
X79483821Y-86858855D01*
X79487496Y-86928628D01*
X79452865Y-86989311D01*
X79443009Y-86997852D01*
X79360258Y-87062260D01*
X79191833Y-87245217D01*
X79055826Y-87453393D01*
X78955936Y-87681118D01*
X78894892Y-87922175D01*
X78894890Y-87922187D01*
X78874357Y-88169994D01*
X78874357Y-88170005D01*
X78894890Y-88417812D01*
X78894892Y-88417824D01*
X78955936Y-88658881D01*
X79055826Y-88886606D01*
X79191833Y-89094782D01*
X79191836Y-89094785D01*
X79360256Y-89277738D01*
X79443008Y-89342147D01*
X79483821Y-89398857D01*
X79487496Y-89468630D01*
X79452864Y-89529313D01*
X79443014Y-89537848D01*
X79384400Y-89583469D01*
X79360257Y-89602261D01*
X79191833Y-89785217D01*
X79055826Y-89993393D01*
X78955936Y-90221118D01*
X78894892Y-90462175D01*
X78894890Y-90462187D01*
X78874357Y-90709994D01*
X78874357Y-90710005D01*
X78894890Y-90957812D01*
X78894892Y-90957824D01*
X78955936Y-91198881D01*
X79055826Y-91426606D01*
X79191833Y-91634782D01*
X79191836Y-91634785D01*
X79360256Y-91817738D01*
X79443010Y-91882148D01*
X79483821Y-91938855D01*
X79487496Y-92008628D01*
X79452865Y-92069311D01*
X79443009Y-92077852D01*
X79360258Y-92142260D01*
X79191833Y-92325217D01*
X79055826Y-92533393D01*
X78955936Y-92761118D01*
X78894892Y-93002175D01*
X78894890Y-93002187D01*
X78874357Y-93249994D01*
X78874357Y-93250005D01*
X78894890Y-93497812D01*
X78894892Y-93497824D01*
X78955936Y-93738881D01*
X79055826Y-93966606D01*
X79191833Y-94174782D01*
X79191836Y-94174785D01*
X79360256Y-94357738D01*
X79443008Y-94422147D01*
X79483821Y-94478857D01*
X79487496Y-94548630D01*
X79452864Y-94609313D01*
X79443014Y-94617848D01*
X79401706Y-94650000D01*
X79360257Y-94682261D01*
X79191833Y-94865217D01*
X79055826Y-95073393D01*
X78955936Y-95301118D01*
X78894892Y-95542175D01*
X78894890Y-95542187D01*
X78874357Y-95789994D01*
X78874357Y-95790005D01*
X78894890Y-96037812D01*
X78894892Y-96037824D01*
X78955936Y-96278881D01*
X79055826Y-96506606D01*
X79191833Y-96714782D01*
X79191836Y-96714785D01*
X79360256Y-96897738D01*
X79443010Y-96962148D01*
X79483821Y-97018855D01*
X79487496Y-97088628D01*
X79452865Y-97149311D01*
X79443009Y-97157852D01*
X79360258Y-97222260D01*
X79191833Y-97405217D01*
X79055826Y-97613393D01*
X78955936Y-97841118D01*
X78894892Y-98082175D01*
X78894890Y-98082187D01*
X78874357Y-98329994D01*
X78874357Y-98330005D01*
X78894890Y-98577812D01*
X78894892Y-98577824D01*
X78955936Y-98818881D01*
X79055826Y-99046606D01*
X79191833Y-99254782D01*
X79191836Y-99254785D01*
X79360256Y-99437738D01*
X79443008Y-99502147D01*
X79483821Y-99558857D01*
X79487496Y-99628630D01*
X79452864Y-99689313D01*
X79443014Y-99697848D01*
X79429426Y-99708425D01*
X79360257Y-99762261D01*
X79191833Y-99945217D01*
X79055826Y-100153393D01*
X78955936Y-100381118D01*
X78894892Y-100622175D01*
X78894890Y-100622187D01*
X78874357Y-100869994D01*
X78874357Y-100870005D01*
X78894890Y-101117812D01*
X78894892Y-101117824D01*
X78955936Y-101358881D01*
X79055826Y-101586606D01*
X79191833Y-101794782D01*
X79191836Y-101794785D01*
X79360256Y-101977738D01*
X79443010Y-102042148D01*
X79483821Y-102098855D01*
X79487496Y-102168628D01*
X79452865Y-102229311D01*
X79443009Y-102237852D01*
X79360258Y-102302260D01*
X79191833Y-102485217D01*
X79055826Y-102693393D01*
X78955936Y-102921118D01*
X78894892Y-103162175D01*
X78894890Y-103162187D01*
X78874357Y-103409994D01*
X78874357Y-103410005D01*
X76779188Y-103410005D01*
X76429553Y-43097870D01*
X100949500Y-43097870D01*
X100949501Y-43097876D01*
X100955908Y-43157483D01*
X101006202Y-43292328D01*
X101006206Y-43292335D01*
X101092452Y-43407544D01*
X101092455Y-43407547D01*
X101207664Y-43493793D01*
X101207671Y-43493797D01*
X101342517Y-43544091D01*
X101342516Y-43544091D01*
X101349444Y-43544835D01*
X101402127Y-43550500D01*
X104097872Y-43550499D01*
X104157483Y-43544091D01*
X104292331Y-43493796D01*
X104407546Y-43407546D01*
X104493796Y-43292331D01*
X104544091Y-43157483D01*
X104550500Y-43097873D01*
X104550499Y-42861042D01*
X104570183Y-42794005D01*
X104622987Y-42748250D01*
X104692146Y-42738306D01*
X104755701Y-42767331D01*
X104771446Y-42783731D01*
X104926442Y-42978089D01*
X105055543Y-43097876D01*
X105124259Y-43161635D01*
X105347226Y-43313651D01*
X105590359Y-43430738D01*
X105848228Y-43510280D01*
X105848229Y-43510280D01*
X105848232Y-43510281D01*
X106115063Y-43550499D01*
X106115068Y-43550499D01*
X106115071Y-43550500D01*
X106115072Y-43550500D01*
X106384928Y-43550500D01*
X106384929Y-43550500D01*
X106384936Y-43550499D01*
X106651767Y-43510281D01*
X106651768Y-43510280D01*
X106651772Y-43510280D01*
X106909641Y-43430738D01*
X107152775Y-43313651D01*
X107375741Y-43161635D01*
X107444463Y-43097870D01*
X112449500Y-43097870D01*
X112449501Y-43097876D01*
X112455908Y-43157483D01*
X112506202Y-43292328D01*
X112506206Y-43292335D01*
X112592452Y-43407544D01*
X112592455Y-43407547D01*
X112707664Y-43493793D01*
X112707671Y-43493797D01*
X112842517Y-43544091D01*
X112842516Y-43544091D01*
X112849444Y-43544835D01*
X112902127Y-43550500D01*
X115597872Y-43550499D01*
X115657483Y-43544091D01*
X115792331Y-43493796D01*
X115907546Y-43407546D01*
X115993796Y-43292331D01*
X116044091Y-43157483D01*
X116050500Y-43097873D01*
X116050499Y-42861042D01*
X116070183Y-42794005D01*
X116122987Y-42748250D01*
X116192146Y-42738306D01*
X116255701Y-42767331D01*
X116271446Y-42783731D01*
X116426442Y-42978089D01*
X116555543Y-43097876D01*
X116624259Y-43161635D01*
X116847226Y-43313651D01*
X117090359Y-43430738D01*
X117348228Y-43510280D01*
X117348229Y-43510280D01*
X117348232Y-43510281D01*
X117615063Y-43550499D01*
X117615068Y-43550499D01*
X117615071Y-43550500D01*
X117615072Y-43550500D01*
X117884928Y-43550500D01*
X117884929Y-43550500D01*
X117884936Y-43550499D01*
X118151767Y-43510281D01*
X118151768Y-43510280D01*
X118151772Y-43510280D01*
X118409641Y-43430738D01*
X118652775Y-43313651D01*
X118875741Y-43161635D01*
X119073561Y-42978085D01*
X119241815Y-42767102D01*
X119376743Y-42533398D01*
X119475334Y-42282195D01*
X119535383Y-42019103D01*
X119553138Y-41782171D01*
X119555549Y-41750004D01*
X119555549Y-41749995D01*
X119535383Y-41480898D01*
X119521826Y-41421501D01*
X119475334Y-41217805D01*
X119376743Y-40966602D01*
X119241815Y-40732898D01*
X119073561Y-40521915D01*
X119073560Y-40521914D01*
X119073557Y-40521910D01*
X118875741Y-40338365D01*
X118753945Y-40255326D01*
X118652775Y-40186349D01*
X118652769Y-40186346D01*
X118652768Y-40186345D01*
X118652767Y-40186344D01*
X118409643Y-40069263D01*
X118409645Y-40069263D01*
X118151773Y-39989720D01*
X118151767Y-39989718D01*
X117884936Y-39949500D01*
X117884929Y-39949500D01*
X117615071Y-39949500D01*
X117615063Y-39949500D01*
X117348232Y-39989718D01*
X117348226Y-39989720D01*
X117090358Y-40069262D01*
X116847230Y-40186346D01*
X116624258Y-40338365D01*
X116426442Y-40521910D01*
X116271446Y-40716269D01*
X116214257Y-40756409D01*
X116144446Y-40759259D01*
X116084176Y-40723913D01*
X116052583Y-40661594D01*
X116050499Y-40638956D01*
X116050499Y-40402129D01*
X116050498Y-40402123D01*
X116050497Y-40402116D01*
X116044091Y-40342517D01*
X116042542Y-40338365D01*
X115993797Y-40207671D01*
X115993793Y-40207664D01*
X115907547Y-40092455D01*
X115907544Y-40092452D01*
X115792335Y-40006206D01*
X115792328Y-40006202D01*
X115657482Y-39955908D01*
X115657483Y-39955908D01*
X115597883Y-39949501D01*
X115597881Y-39949500D01*
X115597873Y-39949500D01*
X115597864Y-39949500D01*
X112902129Y-39949500D01*
X112902123Y-39949501D01*
X112842516Y-39955908D01*
X112707671Y-40006202D01*
X112707664Y-40006206D01*
X112592455Y-40092452D01*
X112592452Y-40092455D01*
X112506206Y-40207664D01*
X112506202Y-40207671D01*
X112455908Y-40342517D01*
X112451486Y-40383655D01*
X112449501Y-40402123D01*
X112449500Y-40402135D01*
X112449500Y-43097870D01*
X107444463Y-43097870D01*
X107573561Y-42978085D01*
X107741815Y-42767102D01*
X107876743Y-42533398D01*
X107975334Y-42282195D01*
X108035383Y-42019103D01*
X108053138Y-41782171D01*
X108055549Y-41750004D01*
X108055549Y-41749995D01*
X108035383Y-41480898D01*
X108021826Y-41421501D01*
X107975334Y-41217805D01*
X107876743Y-40966602D01*
X107741815Y-40732898D01*
X107573561Y-40521915D01*
X107573560Y-40521914D01*
X107573557Y-40521910D01*
X107375741Y-40338365D01*
X107253945Y-40255326D01*
X107152775Y-40186349D01*
X107152769Y-40186346D01*
X107152768Y-40186345D01*
X107152767Y-40186344D01*
X106909643Y-40069263D01*
X106909645Y-40069263D01*
X106651773Y-39989720D01*
X106651767Y-39989718D01*
X106384936Y-39949500D01*
X106384929Y-39949500D01*
X106115071Y-39949500D01*
X106115063Y-39949500D01*
X105848232Y-39989718D01*
X105848226Y-39989720D01*
X105590358Y-40069262D01*
X105347230Y-40186346D01*
X105124258Y-40338365D01*
X104926442Y-40521910D01*
X104771446Y-40716269D01*
X104714257Y-40756409D01*
X104644446Y-40759259D01*
X104584176Y-40723913D01*
X104552583Y-40661594D01*
X104550499Y-40638956D01*
X104550499Y-40402129D01*
X104550498Y-40402123D01*
X104550497Y-40402116D01*
X104544091Y-40342517D01*
X104542542Y-40338365D01*
X104493797Y-40207671D01*
X104493793Y-40207664D01*
X104407547Y-40092455D01*
X104407544Y-40092452D01*
X104292335Y-40006206D01*
X104292328Y-40006202D01*
X104157482Y-39955908D01*
X104157483Y-39955908D01*
X104097883Y-39949501D01*
X104097881Y-39949500D01*
X104097873Y-39949500D01*
X104097864Y-39949500D01*
X101402129Y-39949500D01*
X101402123Y-39949501D01*
X101342516Y-39955908D01*
X101207671Y-40006202D01*
X101207664Y-40006206D01*
X101092455Y-40092452D01*
X101092452Y-40092455D01*
X101006206Y-40207664D01*
X101006202Y-40207671D01*
X100955908Y-40342517D01*
X100951486Y-40383655D01*
X100949501Y-40402123D01*
X100949500Y-40402135D01*
X100949500Y-43097870D01*
X76429553Y-43097870D01*
X76400723Y-38124718D01*
X76420019Y-38057566D01*
X76472557Y-38011506D01*
X76524721Y-38000000D01*
X76600000Y-38000000D01*
X77028224Y-36096780D01*
X77062145Y-36035697D01*
X77123705Y-36002649D01*
X77149200Y-36000000D01*
X124274455Y-36000000D01*
X124341494Y-36019685D01*
G37*
%TD.AperFunction*%
%TD*%
M02*
