%TF.GenerationSoftware,KiCad,Pcbnew,7.0.7*%
%TF.CreationDate,2024-01-17T14:09:09-05:00*%
%TF.ProjectId,Unified_Board,556e6966-6965-4645-9f42-6f6172642e6b,rev?*%
%TF.SameCoordinates,Original*%
%TF.FileFunction,Copper,L3,Inr*%
%TF.FilePolarity,Positive*%
%FSLAX46Y46*%
G04 Gerber Fmt 4.6, Leading zero omitted, Abs format (unit mm)*
G04 Created by KiCad (PCBNEW 7.0.7) date 2024-01-17 14:09:09*
%MOMM*%
%LPD*%
G01*
G04 APERTURE LIST*
%TA.AperFunction,ComponentPad*%
%ADD10R,1.700000X1.700000*%
%TD*%
%TA.AperFunction,ComponentPad*%
%ADD11O,1.700000X1.700000*%
%TD*%
%TA.AperFunction,ComponentPad*%
%ADD12R,2.600000X2.600000*%
%TD*%
%TA.AperFunction,ComponentPad*%
%ADD13C,2.600000*%
%TD*%
%TA.AperFunction,ComponentPad*%
%ADD14C,1.524000*%
%TD*%
%TA.AperFunction,ComponentPad*%
%ADD15C,2.000000*%
%TD*%
%TA.AperFunction,ViaPad*%
%ADD16C,0.800000*%
%TD*%
G04 APERTURE END LIST*
D10*
%TO.N,/3.3V*%
%TO.C,J3*%
X107600000Y-96000000D03*
D11*
%TO.N,/SCL*%
X107600000Y-98540000D03*
%TO.N,/SDA*%
X107600000Y-101080000D03*
%TO.N,GND*%
X107600000Y-103620000D03*
%TD*%
D12*
%TO.N,Net-(J1-Pin_1)*%
%TO.C,J1*%
X114500000Y-47000000D03*
D13*
%TO.N,Net-(D6-K)*%
X118000000Y-47000000D03*
%TD*%
D14*
%TO.N,Net-(BZ1--)*%
%TO.C,BZ1*%
X136100000Y-49750000D03*
%TO.N,GND*%
X143600000Y-49750000D03*
%TD*%
D10*
%TO.N,/3.3V*%
%TO.C,J2*%
X114600000Y-96000000D03*
D11*
%TO.N,/Breakout_RX2*%
X114600000Y-98540000D03*
%TO.N,/Breakout_TX2*%
X114600000Y-101080000D03*
%TO.N,GND*%
X114600000Y-103620000D03*
%TD*%
D10*
%TO.N,/3.3V*%
%TO.C,J4*%
X121400000Y-96000000D03*
D11*
%TO.N,/Breakout_RX1*%
X121400000Y-98540000D03*
%TO.N,/Breakout_TX1*%
X121400000Y-101080000D03*
%TO.N,GND*%
X121400000Y-103620000D03*
%TD*%
D15*
%TO.N,GND*%
%TO.C,Teensy4.1*%
X80380000Y-44990000D03*
%TO.N,/Breakout_RX1*%
X80380000Y-47530000D03*
%TO.N,/Breakout_TX1*%
X80380000Y-50070000D03*
%TO.N,unconnected-(Teensy4.1-PWM-Pad3)*%
X80380000Y-52610000D03*
%TO.N,unconnected-(Teensy4.1-PWM-Pad4)*%
X80380000Y-55150000D03*
%TO.N,unconnected-(Teensy4.1-PWM-Pad5)*%
X80380000Y-57690000D03*
%TO.N,unconnected-(Teensy4.1-PWM-Pad6)*%
X80380000Y-60230000D03*
%TO.N,unconnected-(Teensy4.1-PWM-Pad7)*%
X80380000Y-62770000D03*
%TO.N,/Breakout_RX2*%
X80380000Y-65310000D03*
%TO.N,/Breakout_TX2*%
X80380000Y-67850000D03*
%TO.N,unconnected-(Teensy4.1-PWM-Pad10)*%
X80380000Y-70390000D03*
%TO.N,unconnected-(Teensy4.1-CS-Pad11)*%
X80380000Y-72930000D03*
%TO.N,unconnected-(Teensy4.1-MOSI-Pad12)*%
X80380000Y-75470000D03*
%TO.N,unconnected-(Teensy4.1-MISO-Pad13)*%
X80380000Y-78010000D03*
%TO.N,unconnected-(Teensy4.1-3.3V-Pad14)*%
X80380000Y-80550000D03*
%TO.N,unconnected-(Teensy4.1-SCL2-Pad15)*%
X80380000Y-83090000D03*
%TO.N,unconnected-(Teensy4.1-SDA2-Pad16)*%
X80380000Y-85630000D03*
%TO.N,unconnected-(Teensy4.1-MOSI1-Pad17)*%
X80380000Y-88170000D03*
%TO.N,unconnected-(Teensy4.1-SCK1-Pad18)*%
X80380000Y-90710000D03*
%TO.N,unconnected-(Teensy4.1-RX7-Pad19)*%
X80380000Y-93250000D03*
%TO.N,unconnected-(Teensy4.1-TX7-Pad20)*%
X80380000Y-95790000D03*
%TO.N,unconnected-(Teensy4.1-GPIO-Pad21)*%
X80380000Y-98330000D03*
%TO.N,unconnected-(Teensy4.1-GPIO-Pad22)*%
X80380000Y-100870000D03*
%TO.N,unconnected-(Teensy4.1-GPIO-Pad23)*%
X80380000Y-103410000D03*
%TO.N,Net-(R14-Pad1)*%
X95620000Y-103410000D03*
%TO.N,unconnected-(Teensy4.1-RX8-Pad25)*%
X95620000Y-100870000D03*
%TO.N,unconnected-(Teensy4.1-TX8-Pad26)*%
X95620000Y-98330000D03*
%TO.N,/BMP_I2C_ADDR*%
X95620000Y-95790000D03*
%TO.N,/BMP_INT*%
X95620000Y-93250000D03*
%TO.N,unconnected-(Teensy4.1-CS1-Pad29)*%
X95620000Y-90710000D03*
%TO.N,unconnected-(Teensy4.1-MISO-Pad30)*%
X95620000Y-88170000D03*
%TO.N,unconnected-(Teensy4.1-A16-Pad31)*%
X95620000Y-85630000D03*
%TO.N,unconnected-(Teensy4.1-A17-Pad32)*%
X95620000Y-83090000D03*
%TO.N,unconnected-(Teensy4.1-GND-Pad33)*%
X95620000Y-80550000D03*
%TO.N,unconnected-(Teensy4.1-SCK-Pad34)*%
X95620000Y-78010000D03*
%TO.N,unconnected-(Teensy4.1-A0-Pad35)*%
X95620000Y-75470000D03*
%TO.N,unconnected-(Teensy4.1-A1-Pad36)*%
X95620000Y-72930000D03*
%TO.N,unconnected-(Teensy4.1-A2-Pad37)*%
X95620000Y-70390000D03*
%TO.N,unconnected-(Teensy4.1-A3-Pad38)*%
X95620000Y-67850000D03*
%TO.N,/SDA*%
X95620000Y-65310000D03*
%TO.N,/SCL*%
X95620000Y-62770000D03*
%TO.N,unconnected-(Teensy4.1-TX5-Pad41)*%
X95620000Y-60230000D03*
%TO.N,unconnected-(Teensy4.1-RX5-Pad42)*%
X95620000Y-57690000D03*
%TO.N,unconnected-(Teensy4.1-PWM-Pad43)*%
X95620000Y-55150000D03*
%TO.N,unconnected-(Teensy4.1-PWM-Pad44)*%
X95620000Y-52610000D03*
%TO.N,/3.3V*%
X95620000Y-50070000D03*
%TO.N,Net-(D6-K)*%
X95620000Y-47530000D03*
%TO.N,Net-(J1-Pin_1)*%
X95620000Y-44990000D03*
%TD*%
D16*
%TO.N,GND*%
X118800000Y-69800000D03*
X107400000Y-87600000D03*
X114600000Y-81800000D03*
X102535137Y-86118906D03*
%TD*%
%TA.AperFunction,Conductor*%
%TO.N,GND*%
G36*
X157142680Y-38019685D02*
G01*
X157188435Y-38072489D01*
X157199639Y-38124356D01*
X157101434Y-72005217D01*
X157000358Y-106876359D01*
X156980480Y-106943342D01*
X156927543Y-106988943D01*
X156876359Y-107000000D01*
X76923283Y-107000000D01*
X76856244Y-106980315D01*
X76810489Y-106927511D01*
X76799285Y-106876719D01*
X76788119Y-104950634D01*
X76779188Y-103410005D01*
X78874357Y-103410005D01*
X78894890Y-103657812D01*
X78894892Y-103657824D01*
X78955936Y-103898881D01*
X79055826Y-104126606D01*
X79191833Y-104334782D01*
X79191836Y-104334785D01*
X79360256Y-104517738D01*
X79556491Y-104670474D01*
X79775190Y-104788828D01*
X80010386Y-104869571D01*
X80255665Y-104910500D01*
X80504335Y-104910500D01*
X80749614Y-104869571D01*
X80984810Y-104788828D01*
X81203509Y-104670474D01*
X81399744Y-104517738D01*
X81568164Y-104334785D01*
X81704173Y-104126607D01*
X81804063Y-103898881D01*
X81865108Y-103657821D01*
X81875788Y-103528933D01*
X81885643Y-103410005D01*
X94114357Y-103410005D01*
X94134890Y-103657812D01*
X94134892Y-103657824D01*
X94195936Y-103898881D01*
X94295826Y-104126606D01*
X94431833Y-104334782D01*
X94431836Y-104334785D01*
X94600256Y-104517738D01*
X94796491Y-104670474D01*
X95015190Y-104788828D01*
X95250386Y-104869571D01*
X95495665Y-104910500D01*
X95744335Y-104910500D01*
X95989614Y-104869571D01*
X96224810Y-104788828D01*
X96443509Y-104670474D01*
X96639744Y-104517738D01*
X96808164Y-104334785D01*
X96944173Y-104126607D01*
X97044063Y-103898881D01*
X97105108Y-103657821D01*
X97115788Y-103528933D01*
X97125643Y-103410005D01*
X97125643Y-103409994D01*
X97105109Y-103162187D01*
X97105107Y-103162175D01*
X97044063Y-102921118D01*
X96944173Y-102693393D01*
X96808166Y-102485217D01*
X96777476Y-102451879D01*
X96639744Y-102302262D01*
X96556991Y-102237852D01*
X96516179Y-102181143D01*
X96512504Y-102111370D01*
X96547136Y-102050687D01*
X96556985Y-102042151D01*
X96639744Y-101977738D01*
X96808164Y-101794785D01*
X96944173Y-101586607D01*
X97044063Y-101358881D01*
X97105108Y-101117821D01*
X97108242Y-101080000D01*
X106244341Y-101080000D01*
X106264936Y-101315403D01*
X106264938Y-101315413D01*
X106326094Y-101543655D01*
X106326096Y-101543659D01*
X106326097Y-101543663D01*
X106425965Y-101757829D01*
X106425965Y-101757830D01*
X106425967Y-101757834D01*
X106451841Y-101794785D01*
X106561505Y-101951401D01*
X106728599Y-102118495D01*
X106899058Y-102237852D01*
X106914594Y-102248730D01*
X106958219Y-102303307D01*
X106965413Y-102372805D01*
X106933890Y-102435160D01*
X106914595Y-102451880D01*
X106728922Y-102581890D01*
X106728920Y-102581891D01*
X106561891Y-102748920D01*
X106561886Y-102748926D01*
X106426400Y-102942420D01*
X106426399Y-102942422D01*
X106326570Y-103156507D01*
X106326567Y-103156513D01*
X106269364Y-103369999D01*
X106269364Y-103370000D01*
X106986653Y-103370000D01*
X107053692Y-103389685D01*
X107099447Y-103442489D01*
X107109391Y-103511647D01*
X107105631Y-103528933D01*
X107100000Y-103548111D01*
X107100000Y-103691888D01*
X107105631Y-103711067D01*
X107105630Y-103780936D01*
X107067855Y-103839714D01*
X107004299Y-103868738D01*
X106986653Y-103870000D01*
X106269364Y-103870000D01*
X106326567Y-104083486D01*
X106326570Y-104083492D01*
X106426399Y-104297578D01*
X106561894Y-104491082D01*
X106728917Y-104658105D01*
X106922421Y-104793600D01*
X107136507Y-104893429D01*
X107136516Y-104893433D01*
X107350000Y-104950634D01*
X107350000Y-104232301D01*
X107369685Y-104165262D01*
X107422489Y-104119507D01*
X107491647Y-104109563D01*
X107564237Y-104120000D01*
X107564238Y-104120000D01*
X107635762Y-104120000D01*
X107635763Y-104120000D01*
X107708353Y-104109563D01*
X107777512Y-104119507D01*
X107830315Y-104165262D01*
X107850000Y-104232301D01*
X107850000Y-104950633D01*
X108063483Y-104893433D01*
X108063492Y-104893429D01*
X108277578Y-104793600D01*
X108471082Y-104658105D01*
X108638105Y-104491082D01*
X108773600Y-104297578D01*
X108873429Y-104083492D01*
X108873432Y-104083486D01*
X108930636Y-103870000D01*
X108213347Y-103870000D01*
X108146308Y-103850315D01*
X108100553Y-103797511D01*
X108090609Y-103728353D01*
X108094369Y-103711067D01*
X108100000Y-103691888D01*
X108100000Y-103548111D01*
X108094369Y-103528933D01*
X108094370Y-103459064D01*
X108132145Y-103400286D01*
X108195701Y-103371262D01*
X108213347Y-103370000D01*
X108930636Y-103370000D01*
X108930635Y-103369999D01*
X108873432Y-103156513D01*
X108873429Y-103156507D01*
X108773600Y-102942422D01*
X108773599Y-102942420D01*
X108638113Y-102748926D01*
X108638108Y-102748920D01*
X108471078Y-102581890D01*
X108285405Y-102451879D01*
X108241780Y-102397302D01*
X108234588Y-102327804D01*
X108266110Y-102265449D01*
X108285406Y-102248730D01*
X108471401Y-102118495D01*
X108638495Y-101951401D01*
X108774035Y-101757830D01*
X108873903Y-101543663D01*
X108935063Y-101315408D01*
X108955659Y-101080000D01*
X113244341Y-101080000D01*
X113264936Y-101315403D01*
X113264938Y-101315413D01*
X113326094Y-101543655D01*
X113326096Y-101543659D01*
X113326097Y-101543663D01*
X113425965Y-101757829D01*
X113425965Y-101757830D01*
X113425967Y-101757834D01*
X113451841Y-101794785D01*
X113561505Y-101951401D01*
X113728599Y-102118495D01*
X113899058Y-102237852D01*
X113914594Y-102248730D01*
X113958219Y-102303307D01*
X113965413Y-102372805D01*
X113933890Y-102435160D01*
X113914595Y-102451880D01*
X113728922Y-102581890D01*
X113728920Y-102581891D01*
X113561891Y-102748920D01*
X113561886Y-102748926D01*
X113426400Y-102942420D01*
X113426399Y-102942422D01*
X113326570Y-103156507D01*
X113326567Y-103156513D01*
X113269364Y-103369999D01*
X113269364Y-103370000D01*
X113986653Y-103370000D01*
X114053692Y-103389685D01*
X114099447Y-103442489D01*
X114109391Y-103511647D01*
X114105631Y-103528933D01*
X114100000Y-103548111D01*
X114100000Y-103691888D01*
X114105631Y-103711067D01*
X114105630Y-103780936D01*
X114067855Y-103839714D01*
X114004299Y-103868738D01*
X113986653Y-103870000D01*
X113269364Y-103870000D01*
X113326567Y-104083486D01*
X113326570Y-104083492D01*
X113426399Y-104297578D01*
X113561894Y-104491082D01*
X113728917Y-104658105D01*
X113922421Y-104793600D01*
X114136507Y-104893429D01*
X114136516Y-104893433D01*
X114350000Y-104950634D01*
X114350000Y-104232301D01*
X114369685Y-104165262D01*
X114422489Y-104119507D01*
X114491647Y-104109563D01*
X114564237Y-104120000D01*
X114564238Y-104120000D01*
X114635762Y-104120000D01*
X114635763Y-104120000D01*
X114708353Y-104109563D01*
X114777512Y-104119507D01*
X114830315Y-104165262D01*
X114850000Y-104232301D01*
X114850000Y-104950633D01*
X115063483Y-104893433D01*
X115063492Y-104893429D01*
X115277578Y-104793600D01*
X115471082Y-104658105D01*
X115638105Y-104491082D01*
X115773600Y-104297578D01*
X115873429Y-104083492D01*
X115873432Y-104083486D01*
X115930636Y-103870000D01*
X115213347Y-103870000D01*
X115146308Y-103850315D01*
X115100553Y-103797511D01*
X115090609Y-103728353D01*
X115094369Y-103711067D01*
X115100000Y-103691888D01*
X115100000Y-103548111D01*
X115094369Y-103528933D01*
X115094370Y-103459064D01*
X115132145Y-103400286D01*
X115195701Y-103371262D01*
X115213347Y-103370000D01*
X115930636Y-103370000D01*
X115930635Y-103369999D01*
X115873432Y-103156513D01*
X115873429Y-103156507D01*
X115773600Y-102942422D01*
X115773599Y-102942420D01*
X115638113Y-102748926D01*
X115638108Y-102748920D01*
X115471078Y-102581890D01*
X115285405Y-102451879D01*
X115241780Y-102397302D01*
X115234588Y-102327804D01*
X115266110Y-102265449D01*
X115285406Y-102248730D01*
X115471401Y-102118495D01*
X115638495Y-101951401D01*
X115774035Y-101757830D01*
X115873903Y-101543663D01*
X115935063Y-101315408D01*
X115955659Y-101080000D01*
X120044341Y-101080000D01*
X120064936Y-101315403D01*
X120064938Y-101315413D01*
X120126094Y-101543655D01*
X120126096Y-101543659D01*
X120126097Y-101543663D01*
X120225965Y-101757830D01*
X120225967Y-101757834D01*
X120251841Y-101794785D01*
X120361505Y-101951401D01*
X120528599Y-102118495D01*
X120699058Y-102237852D01*
X120714594Y-102248730D01*
X120758219Y-102303307D01*
X120765413Y-102372805D01*
X120733890Y-102435160D01*
X120714595Y-102451880D01*
X120528922Y-102581890D01*
X120528920Y-102581891D01*
X120361891Y-102748920D01*
X120361886Y-102748926D01*
X120226400Y-102942420D01*
X120226399Y-102942422D01*
X120126570Y-103156507D01*
X120126567Y-103156513D01*
X120069364Y-103369999D01*
X120069364Y-103370000D01*
X120786653Y-103370000D01*
X120853692Y-103389685D01*
X120899447Y-103442489D01*
X120909391Y-103511647D01*
X120905631Y-103528933D01*
X120900000Y-103548111D01*
X120900000Y-103691888D01*
X120905631Y-103711067D01*
X120905630Y-103780936D01*
X120867855Y-103839714D01*
X120804299Y-103868738D01*
X120786653Y-103870000D01*
X120069364Y-103870000D01*
X120126567Y-104083486D01*
X120126570Y-104083492D01*
X120226399Y-104297578D01*
X120361894Y-104491082D01*
X120528917Y-104658105D01*
X120722421Y-104793600D01*
X120936507Y-104893429D01*
X120936516Y-104893433D01*
X121149999Y-104950633D01*
X121149999Y-104232301D01*
X121169683Y-104165262D01*
X121222487Y-104119507D01*
X121291646Y-104109563D01*
X121298380Y-104110531D01*
X121364237Y-104120000D01*
X121364238Y-104120000D01*
X121435762Y-104120000D01*
X121435763Y-104120000D01*
X121508353Y-104109563D01*
X121577512Y-104119507D01*
X121630315Y-104165262D01*
X121650000Y-104232301D01*
X121649999Y-104950633D01*
X121863483Y-104893433D01*
X121863492Y-104893429D01*
X122077578Y-104793600D01*
X122271082Y-104658105D01*
X122438105Y-104491082D01*
X122573600Y-104297578D01*
X122673429Y-104083492D01*
X122673432Y-104083486D01*
X122730636Y-103870000D01*
X122013347Y-103870000D01*
X121946308Y-103850315D01*
X121900553Y-103797511D01*
X121890609Y-103728353D01*
X121894369Y-103711067D01*
X121900000Y-103691888D01*
X121900000Y-103548111D01*
X121894369Y-103528933D01*
X121894370Y-103459064D01*
X121932145Y-103400286D01*
X121995701Y-103371262D01*
X122013347Y-103370000D01*
X122730636Y-103370000D01*
X122730635Y-103369999D01*
X122673432Y-103156513D01*
X122673429Y-103156507D01*
X122573600Y-102942422D01*
X122573599Y-102942420D01*
X122438113Y-102748926D01*
X122438108Y-102748920D01*
X122271078Y-102581890D01*
X122085405Y-102451879D01*
X122041780Y-102397302D01*
X122034588Y-102327804D01*
X122066110Y-102265449D01*
X122085406Y-102248730D01*
X122271401Y-102118495D01*
X122438495Y-101951401D01*
X122574035Y-101757830D01*
X122673903Y-101543663D01*
X122735063Y-101315408D01*
X122755659Y-101080000D01*
X122735063Y-100844592D01*
X122688626Y-100671285D01*
X122673905Y-100616344D01*
X122673904Y-100616343D01*
X122673903Y-100616337D01*
X122574035Y-100402171D01*
X122559295Y-100381119D01*
X122438494Y-100208597D01*
X122271402Y-100041506D01*
X122271401Y-100041505D01*
X122085842Y-99911575D01*
X122085841Y-99911574D01*
X122042216Y-99856997D01*
X122035024Y-99787498D01*
X122066546Y-99725144D01*
X122085836Y-99708428D01*
X122271401Y-99578495D01*
X122438495Y-99411401D01*
X122574035Y-99217830D01*
X122673903Y-99003663D01*
X122735063Y-98775408D01*
X122755659Y-98540000D01*
X122735063Y-98304592D01*
X122688626Y-98131285D01*
X122673905Y-98076344D01*
X122673904Y-98076343D01*
X122673903Y-98076337D01*
X122574035Y-97862171D01*
X122559294Y-97841119D01*
X122438496Y-97668600D01*
X122383289Y-97613393D01*
X122316567Y-97546671D01*
X122283084Y-97485351D01*
X122288068Y-97415659D01*
X122329939Y-97359725D01*
X122360915Y-97342810D01*
X122492331Y-97293796D01*
X122607546Y-97207546D01*
X122693796Y-97092331D01*
X122744091Y-96957483D01*
X122750500Y-96897873D01*
X122750499Y-95102128D01*
X122744091Y-95042517D01*
X122693796Y-94907669D01*
X122693795Y-94907668D01*
X122693793Y-94907664D01*
X122607547Y-94792455D01*
X122607544Y-94792452D01*
X122492335Y-94706206D01*
X122492328Y-94706202D01*
X122357482Y-94655908D01*
X122357483Y-94655908D01*
X122297883Y-94649501D01*
X122297881Y-94649500D01*
X122297873Y-94649500D01*
X122297864Y-94649500D01*
X120502129Y-94649500D01*
X120502123Y-94649501D01*
X120442516Y-94655908D01*
X120307671Y-94706202D01*
X120307664Y-94706206D01*
X120192455Y-94792452D01*
X120192452Y-94792455D01*
X120106206Y-94907664D01*
X120106202Y-94907671D01*
X120055908Y-95042517D01*
X120052589Y-95073393D01*
X120049501Y-95102123D01*
X120049500Y-95102135D01*
X120049500Y-96897870D01*
X120049501Y-96897876D01*
X120055908Y-96957483D01*
X120106202Y-97092328D01*
X120106206Y-97092335D01*
X120192452Y-97207544D01*
X120192455Y-97207547D01*
X120307664Y-97293793D01*
X120307671Y-97293797D01*
X120439081Y-97342810D01*
X120495015Y-97384681D01*
X120519432Y-97450145D01*
X120504580Y-97518418D01*
X120483430Y-97546673D01*
X120361503Y-97668600D01*
X120225965Y-97862169D01*
X120225964Y-97862171D01*
X120126098Y-98076335D01*
X120126094Y-98076344D01*
X120064938Y-98304586D01*
X120064936Y-98304596D01*
X120044341Y-98539999D01*
X120044341Y-98540000D01*
X120064936Y-98775403D01*
X120064938Y-98775413D01*
X120126094Y-99003655D01*
X120126096Y-99003659D01*
X120126097Y-99003663D01*
X120225964Y-99217829D01*
X120225965Y-99217830D01*
X120225967Y-99217834D01*
X120361501Y-99411395D01*
X120361506Y-99411402D01*
X120528597Y-99578493D01*
X120528603Y-99578498D01*
X120714158Y-99708425D01*
X120757783Y-99763002D01*
X120764977Y-99832500D01*
X120733454Y-99894855D01*
X120714158Y-99911575D01*
X120528597Y-100041505D01*
X120361505Y-100208597D01*
X120225965Y-100402169D01*
X120225964Y-100402171D01*
X120126098Y-100616335D01*
X120126094Y-100616344D01*
X120064938Y-100844586D01*
X120064936Y-100844596D01*
X120044341Y-101079999D01*
X120044341Y-101080000D01*
X115955659Y-101080000D01*
X115935063Y-100844592D01*
X115888626Y-100671285D01*
X115873905Y-100616344D01*
X115873904Y-100616343D01*
X115873903Y-100616337D01*
X115774035Y-100402171D01*
X115759295Y-100381119D01*
X115638494Y-100208597D01*
X115471402Y-100041506D01*
X115471396Y-100041501D01*
X115285842Y-99911575D01*
X115242217Y-99856998D01*
X115235023Y-99787500D01*
X115266546Y-99725145D01*
X115285842Y-99708425D01*
X115381933Y-99641141D01*
X115471401Y-99578495D01*
X115638495Y-99411401D01*
X115774035Y-99217830D01*
X115873903Y-99003663D01*
X115935063Y-98775408D01*
X115955659Y-98540000D01*
X115935063Y-98304592D01*
X115888626Y-98131285D01*
X115873905Y-98076344D01*
X115873904Y-98076343D01*
X115873903Y-98076337D01*
X115774035Y-97862171D01*
X115759294Y-97841119D01*
X115638496Y-97668600D01*
X115583289Y-97613393D01*
X115516567Y-97546671D01*
X115483084Y-97485351D01*
X115488068Y-97415659D01*
X115529939Y-97359725D01*
X115560915Y-97342810D01*
X115692331Y-97293796D01*
X115807546Y-97207546D01*
X115893796Y-97092331D01*
X115944091Y-96957483D01*
X115950500Y-96897873D01*
X115950499Y-95102128D01*
X115944091Y-95042517D01*
X115893796Y-94907669D01*
X115893795Y-94907668D01*
X115893793Y-94907664D01*
X115807547Y-94792455D01*
X115807544Y-94792452D01*
X115692335Y-94706206D01*
X115692328Y-94706202D01*
X115557482Y-94655908D01*
X115557483Y-94655908D01*
X115497883Y-94649501D01*
X115497881Y-94649500D01*
X115497873Y-94649500D01*
X115497864Y-94649500D01*
X113702129Y-94649500D01*
X113702123Y-94649501D01*
X113642516Y-94655908D01*
X113507671Y-94706202D01*
X113507664Y-94706206D01*
X113392455Y-94792452D01*
X113392452Y-94792455D01*
X113306206Y-94907664D01*
X113306202Y-94907671D01*
X113255908Y-95042517D01*
X113252589Y-95073393D01*
X113249501Y-95102123D01*
X113249500Y-95102135D01*
X113249500Y-96897870D01*
X113249501Y-96897876D01*
X113255908Y-96957483D01*
X113306202Y-97092328D01*
X113306206Y-97092335D01*
X113392452Y-97207544D01*
X113392455Y-97207547D01*
X113507664Y-97293793D01*
X113507671Y-97293797D01*
X113639081Y-97342810D01*
X113695015Y-97384681D01*
X113719432Y-97450145D01*
X113704580Y-97518418D01*
X113683430Y-97546673D01*
X113561503Y-97668600D01*
X113425965Y-97862169D01*
X113425964Y-97862171D01*
X113326098Y-98076335D01*
X113326094Y-98076344D01*
X113264938Y-98304586D01*
X113264936Y-98304596D01*
X113244341Y-98539999D01*
X113244341Y-98540000D01*
X113264936Y-98775403D01*
X113264938Y-98775413D01*
X113326094Y-99003655D01*
X113326096Y-99003659D01*
X113326097Y-99003663D01*
X113425965Y-99217829D01*
X113425965Y-99217830D01*
X113425967Y-99217834D01*
X113561501Y-99411395D01*
X113561506Y-99411402D01*
X113728597Y-99578493D01*
X113728603Y-99578498D01*
X113914158Y-99708425D01*
X113957783Y-99763002D01*
X113964977Y-99832500D01*
X113933454Y-99894855D01*
X113914158Y-99911575D01*
X113728597Y-100041505D01*
X113561505Y-100208597D01*
X113425965Y-100402169D01*
X113425964Y-100402171D01*
X113326098Y-100616335D01*
X113326094Y-100616344D01*
X113264938Y-100844586D01*
X113264936Y-100844596D01*
X113244341Y-101079999D01*
X113244341Y-101080000D01*
X108955659Y-101080000D01*
X108935063Y-100844592D01*
X108888626Y-100671285D01*
X108873905Y-100616344D01*
X108873904Y-100616343D01*
X108873903Y-100616337D01*
X108774035Y-100402171D01*
X108759295Y-100381119D01*
X108638494Y-100208597D01*
X108471402Y-100041506D01*
X108471396Y-100041501D01*
X108285842Y-99911575D01*
X108242217Y-99856998D01*
X108235023Y-99787500D01*
X108266546Y-99725145D01*
X108285842Y-99708425D01*
X108381933Y-99641141D01*
X108471401Y-99578495D01*
X108638495Y-99411401D01*
X108774035Y-99217830D01*
X108873903Y-99003663D01*
X108935063Y-98775408D01*
X108955659Y-98540000D01*
X108935063Y-98304592D01*
X108888626Y-98131285D01*
X108873905Y-98076344D01*
X108873904Y-98076343D01*
X108873903Y-98076337D01*
X108774035Y-97862171D01*
X108759294Y-97841119D01*
X108638496Y-97668600D01*
X108583289Y-97613393D01*
X108516567Y-97546671D01*
X108483084Y-97485351D01*
X108488068Y-97415659D01*
X108529939Y-97359725D01*
X108560915Y-97342810D01*
X108692331Y-97293796D01*
X108807546Y-97207546D01*
X108893796Y-97092331D01*
X108944091Y-96957483D01*
X108950500Y-96897873D01*
X108950499Y-95102128D01*
X108944091Y-95042517D01*
X108893796Y-94907669D01*
X108893795Y-94907668D01*
X108893793Y-94907664D01*
X108807547Y-94792455D01*
X108807544Y-94792452D01*
X108692335Y-94706206D01*
X108692328Y-94706202D01*
X108557482Y-94655908D01*
X108557483Y-94655908D01*
X108497883Y-94649501D01*
X108497881Y-94649500D01*
X108497873Y-94649500D01*
X108497864Y-94649500D01*
X106702129Y-94649500D01*
X106702123Y-94649501D01*
X106642516Y-94655908D01*
X106507671Y-94706202D01*
X106507664Y-94706206D01*
X106392455Y-94792452D01*
X106392452Y-94792455D01*
X106306206Y-94907664D01*
X106306202Y-94907671D01*
X106255908Y-95042517D01*
X106252589Y-95073393D01*
X106249501Y-95102123D01*
X106249500Y-95102135D01*
X106249500Y-96897870D01*
X106249501Y-96897876D01*
X106255908Y-96957483D01*
X106306202Y-97092328D01*
X106306206Y-97092335D01*
X106392452Y-97207544D01*
X106392455Y-97207547D01*
X106507664Y-97293793D01*
X106507671Y-97293797D01*
X106639081Y-97342810D01*
X106695015Y-97384681D01*
X106719432Y-97450145D01*
X106704580Y-97518418D01*
X106683430Y-97546673D01*
X106561503Y-97668600D01*
X106425965Y-97862169D01*
X106425964Y-97862171D01*
X106326098Y-98076335D01*
X106326094Y-98076344D01*
X106264938Y-98304586D01*
X106264936Y-98304596D01*
X106244341Y-98539999D01*
X106244341Y-98540000D01*
X106264936Y-98775403D01*
X106264938Y-98775413D01*
X106326094Y-99003655D01*
X106326096Y-99003659D01*
X106326097Y-99003663D01*
X106425964Y-99217830D01*
X106425965Y-99217830D01*
X106425967Y-99217834D01*
X106561501Y-99411395D01*
X106561506Y-99411402D01*
X106728597Y-99578493D01*
X106728603Y-99578498D01*
X106914158Y-99708425D01*
X106957783Y-99763002D01*
X106964977Y-99832500D01*
X106933454Y-99894855D01*
X106914158Y-99911575D01*
X106728597Y-100041505D01*
X106561505Y-100208597D01*
X106425965Y-100402169D01*
X106425964Y-100402171D01*
X106326098Y-100616335D01*
X106326094Y-100616344D01*
X106264938Y-100844586D01*
X106264936Y-100844596D01*
X106244341Y-101079999D01*
X106244341Y-101080000D01*
X97108242Y-101080000D01*
X97125643Y-100870000D01*
X97123537Y-100844586D01*
X97105109Y-100622187D01*
X97105107Y-100622175D01*
X97044063Y-100381118D01*
X96944173Y-100153393D01*
X96808166Y-99945217D01*
X96761804Y-99894855D01*
X96639744Y-99762262D01*
X96556991Y-99697852D01*
X96516179Y-99641143D01*
X96512504Y-99571370D01*
X96547136Y-99510687D01*
X96556985Y-99502151D01*
X96639744Y-99437738D01*
X96808164Y-99254785D01*
X96944173Y-99046607D01*
X97044063Y-98818881D01*
X97105108Y-98577821D01*
X97125643Y-98330000D01*
X97123537Y-98304586D01*
X97105109Y-98082187D01*
X97105107Y-98082175D01*
X97044063Y-97841118D01*
X96944173Y-97613393D01*
X96808166Y-97405217D01*
X96772032Y-97365965D01*
X96639744Y-97222262D01*
X96556991Y-97157852D01*
X96516179Y-97101143D01*
X96512504Y-97031370D01*
X96547136Y-96970687D01*
X96556985Y-96962151D01*
X96639744Y-96897738D01*
X96808164Y-96714785D01*
X96944173Y-96506607D01*
X97044063Y-96278881D01*
X97105108Y-96037821D01*
X97125643Y-95790000D01*
X97105108Y-95542179D01*
X97044063Y-95301119D01*
X96944173Y-95073393D01*
X96835902Y-94907671D01*
X96808166Y-94865217D01*
X96786557Y-94841744D01*
X96639744Y-94682262D01*
X96556991Y-94617852D01*
X96516179Y-94561143D01*
X96512504Y-94491370D01*
X96547136Y-94430687D01*
X96556985Y-94422151D01*
X96639744Y-94357738D01*
X96808164Y-94174785D01*
X96944173Y-93966607D01*
X97044063Y-93738881D01*
X97105108Y-93497821D01*
X97125643Y-93250000D01*
X97105108Y-93002179D01*
X97044063Y-92761119D01*
X96944173Y-92533393D01*
X96808166Y-92325217D01*
X96786557Y-92301744D01*
X96639744Y-92142262D01*
X96556991Y-92077852D01*
X96516179Y-92021143D01*
X96512504Y-91951370D01*
X96547136Y-91890687D01*
X96556985Y-91882151D01*
X96639744Y-91817738D01*
X96808164Y-91634785D01*
X96944173Y-91426607D01*
X97044063Y-91198881D01*
X97105108Y-90957821D01*
X97125643Y-90710000D01*
X97105108Y-90462179D01*
X97044063Y-90221119D01*
X96944173Y-89993393D01*
X96944173Y-89993392D01*
X96808166Y-89785217D01*
X96786557Y-89761744D01*
X96639744Y-89602262D01*
X96556991Y-89537852D01*
X96516179Y-89481143D01*
X96512504Y-89411370D01*
X96547136Y-89350687D01*
X96556985Y-89342151D01*
X96639744Y-89277738D01*
X96808164Y-89094785D01*
X96944173Y-88886607D01*
X97044063Y-88658881D01*
X97105108Y-88417821D01*
X97125643Y-88170000D01*
X97105108Y-87922179D01*
X97044063Y-87681119D01*
X96944173Y-87453393D01*
X96808166Y-87245217D01*
X96786557Y-87221744D01*
X96639744Y-87062262D01*
X96556991Y-86997852D01*
X96516179Y-86941143D01*
X96512504Y-86871370D01*
X96547136Y-86810687D01*
X96556985Y-86802151D01*
X96639744Y-86737738D01*
X96808164Y-86554785D01*
X96944173Y-86346607D01*
X97044063Y-86118881D01*
X97105108Y-85877821D01*
X97125643Y-85630000D01*
X97105108Y-85382179D01*
X97044063Y-85141119D01*
X96944173Y-84913393D01*
X96808166Y-84705217D01*
X96786557Y-84681744D01*
X96639744Y-84522262D01*
X96556991Y-84457852D01*
X96516179Y-84401143D01*
X96512504Y-84331370D01*
X96547136Y-84270687D01*
X96556985Y-84262151D01*
X96639744Y-84197738D01*
X96808164Y-84014785D01*
X96944173Y-83806607D01*
X97044063Y-83578881D01*
X97105108Y-83337821D01*
X97125643Y-83090000D01*
X97105108Y-82842179D01*
X97044063Y-82601119D01*
X96944173Y-82373393D01*
X96808166Y-82165217D01*
X96786557Y-82141744D01*
X96639744Y-81982262D01*
X96556991Y-81917852D01*
X96516179Y-81861143D01*
X96512504Y-81791370D01*
X96547136Y-81730687D01*
X96556985Y-81722151D01*
X96639744Y-81657738D01*
X96808164Y-81474785D01*
X96944173Y-81266607D01*
X97044063Y-81038881D01*
X97105108Y-80797821D01*
X97125643Y-80550000D01*
X97105108Y-80302179D01*
X97044063Y-80061119D01*
X96944173Y-79833393D01*
X96944173Y-79833392D01*
X96808166Y-79625217D01*
X96786557Y-79601744D01*
X96639744Y-79442262D01*
X96556991Y-79377852D01*
X96516179Y-79321143D01*
X96512504Y-79251370D01*
X96547136Y-79190687D01*
X96556985Y-79182151D01*
X96639744Y-79117738D01*
X96808164Y-78934785D01*
X96944173Y-78726607D01*
X97044063Y-78498881D01*
X97105108Y-78257821D01*
X97125643Y-78010000D01*
X97105108Y-77762179D01*
X97044063Y-77521119D01*
X96944173Y-77293393D01*
X96808166Y-77085217D01*
X96787860Y-77063159D01*
X96639744Y-76902262D01*
X96612525Y-76881077D01*
X96556991Y-76837852D01*
X96516178Y-76781141D01*
X96512505Y-76711368D01*
X96547136Y-76650685D01*
X96556974Y-76642160D01*
X96639744Y-76577738D01*
X96808164Y-76394785D01*
X96944173Y-76186607D01*
X97044063Y-75958881D01*
X97105108Y-75717821D01*
X97125643Y-75470000D01*
X97105108Y-75222179D01*
X97044063Y-74981119D01*
X96944173Y-74753393D01*
X96808166Y-74545217D01*
X96787860Y-74523159D01*
X96639744Y-74362262D01*
X96612525Y-74341077D01*
X96556991Y-74297852D01*
X96516178Y-74241141D01*
X96512505Y-74171368D01*
X96547136Y-74110685D01*
X96556974Y-74102160D01*
X96639744Y-74037738D01*
X96808164Y-73854785D01*
X96944173Y-73646607D01*
X97044063Y-73418881D01*
X97105108Y-73177821D01*
X97125643Y-72930000D01*
X97105108Y-72682179D01*
X97044063Y-72441119D01*
X96944173Y-72213393D01*
X96808166Y-72005217D01*
X96787860Y-71983159D01*
X96639744Y-71822262D01*
X96612525Y-71801077D01*
X96556991Y-71757852D01*
X96516178Y-71701141D01*
X96512505Y-71631368D01*
X96547136Y-71570685D01*
X96556974Y-71562160D01*
X96639744Y-71497738D01*
X96808164Y-71314785D01*
X96944173Y-71106607D01*
X97044063Y-70878881D01*
X97105108Y-70637821D01*
X97125643Y-70390000D01*
X97105108Y-70142179D01*
X97044063Y-69901119D01*
X96944173Y-69673393D01*
X96944173Y-69673392D01*
X96808166Y-69465217D01*
X96786557Y-69441744D01*
X96639744Y-69282262D01*
X96556991Y-69217852D01*
X96516179Y-69161143D01*
X96512504Y-69091370D01*
X96547136Y-69030687D01*
X96556985Y-69022151D01*
X96639744Y-68957738D01*
X96808164Y-68774785D01*
X96944173Y-68566607D01*
X97044063Y-68338881D01*
X97105108Y-68097821D01*
X97125643Y-67850000D01*
X97105108Y-67602179D01*
X97044063Y-67361119D01*
X96944173Y-67133393D01*
X96808166Y-66925217D01*
X96786557Y-66901744D01*
X96639744Y-66742262D01*
X96556991Y-66677852D01*
X96516179Y-66621143D01*
X96512504Y-66551370D01*
X96547136Y-66490687D01*
X96556985Y-66482151D01*
X96639744Y-66417738D01*
X96808164Y-66234785D01*
X96944173Y-66026607D01*
X97044063Y-65798881D01*
X97105108Y-65557821D01*
X97125643Y-65310000D01*
X97105108Y-65062179D01*
X97044063Y-64821119D01*
X96944173Y-64593393D01*
X96944173Y-64593392D01*
X96808166Y-64385217D01*
X96787860Y-64363159D01*
X96639744Y-64202262D01*
X96612525Y-64181077D01*
X96556991Y-64137852D01*
X96516178Y-64081141D01*
X96512505Y-64011368D01*
X96547136Y-63950685D01*
X96556974Y-63942160D01*
X96639744Y-63877738D01*
X96808164Y-63694785D01*
X96944173Y-63486607D01*
X97044063Y-63258881D01*
X97105108Y-63017821D01*
X97125643Y-62770000D01*
X97105108Y-62522179D01*
X97044063Y-62281119D01*
X96944173Y-62053393D01*
X96808166Y-61845217D01*
X96787860Y-61823159D01*
X96639744Y-61662262D01*
X96612525Y-61641077D01*
X96556991Y-61597852D01*
X96516178Y-61541141D01*
X96512505Y-61471368D01*
X96547136Y-61410685D01*
X96556974Y-61402160D01*
X96639744Y-61337738D01*
X96808164Y-61154785D01*
X96944173Y-60946607D01*
X97044063Y-60718881D01*
X97105108Y-60477821D01*
X97125643Y-60230000D01*
X97105108Y-59982179D01*
X97044063Y-59741119D01*
X96944173Y-59513393D01*
X96808166Y-59305217D01*
X96786557Y-59281744D01*
X96639744Y-59122262D01*
X96556991Y-59057852D01*
X96516179Y-59001143D01*
X96512504Y-58931370D01*
X96547136Y-58870687D01*
X96556985Y-58862151D01*
X96639744Y-58797738D01*
X96808164Y-58614785D01*
X96944173Y-58406607D01*
X97044063Y-58178881D01*
X97105108Y-57937821D01*
X97125643Y-57690000D01*
X97105108Y-57442179D01*
X97044063Y-57201119D01*
X96944173Y-56973393D01*
X96808166Y-56765217D01*
X96786557Y-56741744D01*
X96639744Y-56582262D01*
X96556991Y-56517852D01*
X96516179Y-56461143D01*
X96512504Y-56391370D01*
X96547136Y-56330687D01*
X96556985Y-56322151D01*
X96639744Y-56257738D01*
X96808164Y-56074785D01*
X96944173Y-55866607D01*
X97044063Y-55638881D01*
X97105108Y-55397821D01*
X97125643Y-55150000D01*
X97105108Y-54902179D01*
X97044063Y-54661119D01*
X96944173Y-54433393D01*
X96808166Y-54225217D01*
X96786557Y-54201744D01*
X96639744Y-54042262D01*
X96556991Y-53977852D01*
X96516179Y-53921143D01*
X96512504Y-53851370D01*
X96547136Y-53790687D01*
X96556985Y-53782151D01*
X96639744Y-53717738D01*
X96808164Y-53534785D01*
X96944173Y-53326607D01*
X97044063Y-53098881D01*
X97105108Y-52857821D01*
X97125643Y-52610000D01*
X97105108Y-52362179D01*
X97044063Y-52121119D01*
X96944173Y-51893393D01*
X96808166Y-51685217D01*
X96786557Y-51661744D01*
X96639744Y-51502262D01*
X96556991Y-51437852D01*
X96516179Y-51381143D01*
X96512504Y-51311370D01*
X96547136Y-51250687D01*
X96556985Y-51242151D01*
X96639744Y-51177738D01*
X96808164Y-50994785D01*
X96944173Y-50786607D01*
X97044063Y-50558881D01*
X97105108Y-50317821D01*
X97113506Y-50216470D01*
X97125643Y-50070005D01*
X97125643Y-50069994D01*
X97105109Y-49822187D01*
X97105107Y-49822175D01*
X97086830Y-49750002D01*
X134832677Y-49750002D01*
X134851929Y-49970062D01*
X134851930Y-49970070D01*
X134909104Y-50183445D01*
X134909105Y-50183447D01*
X134909106Y-50183450D01*
X135002347Y-50383407D01*
X135002466Y-50383662D01*
X135002468Y-50383666D01*
X135129170Y-50564615D01*
X135129175Y-50564621D01*
X135285378Y-50720824D01*
X135285384Y-50720829D01*
X135466333Y-50847531D01*
X135466335Y-50847532D01*
X135466338Y-50847534D01*
X135666550Y-50940894D01*
X135879932Y-50998070D01*
X136037123Y-51011822D01*
X136099998Y-51017323D01*
X136100000Y-51017323D01*
X136100002Y-51017323D01*
X136155017Y-51012509D01*
X136320068Y-50998070D01*
X136533450Y-50940894D01*
X136733662Y-50847534D01*
X136914620Y-50720826D01*
X137070826Y-50564620D01*
X137197534Y-50383662D01*
X137290894Y-50183450D01*
X137348070Y-49970068D01*
X137367323Y-49750000D01*
X142333179Y-49750000D01*
X142352424Y-49969976D01*
X142352426Y-49969986D01*
X142409575Y-50183270D01*
X142409580Y-50183284D01*
X142502899Y-50383407D01*
X142502900Y-50383409D01*
X142548258Y-50448187D01*
X143077050Y-49919395D01*
X143138373Y-49885910D01*
X143208064Y-49890894D01*
X143263998Y-49932765D01*
X143268539Y-49939254D01*
X143315813Y-50011612D01*
X143416157Y-50089713D01*
X143416160Y-50089714D01*
X143416511Y-50089987D01*
X143457324Y-50146697D01*
X143460999Y-50216470D01*
X143428030Y-50275522D01*
X142901811Y-50801741D01*
X142966582Y-50847094D01*
X142966592Y-50847100D01*
X143166715Y-50940419D01*
X143166729Y-50940424D01*
X143380013Y-50997573D01*
X143380023Y-50997575D01*
X143599999Y-51016821D01*
X143600001Y-51016821D01*
X143819976Y-50997575D01*
X143819986Y-50997573D01*
X144033270Y-50940424D01*
X144033284Y-50940419D01*
X144233408Y-50847100D01*
X144233420Y-50847093D01*
X144298186Y-50801742D01*
X144298187Y-50801740D01*
X143769276Y-50272829D01*
X143735791Y-50211506D01*
X143740775Y-50141814D01*
X143782647Y-50085881D01*
X143797933Y-50076097D01*
X143837251Y-50054820D01*
X143923371Y-49961269D01*
X143924083Y-49959643D01*
X143925652Y-49957777D01*
X143928992Y-49952666D01*
X143929609Y-49953069D01*
X143969036Y-49906158D01*
X144035770Y-49885464D01*
X144103099Y-49904135D01*
X144125322Y-49921769D01*
X144651740Y-50448187D01*
X144651742Y-50448186D01*
X144697093Y-50383420D01*
X144697100Y-50383408D01*
X144790419Y-50183284D01*
X144790424Y-50183270D01*
X144847573Y-49969986D01*
X144847575Y-49969976D01*
X144866821Y-49750000D01*
X144866821Y-49749999D01*
X144847575Y-49530023D01*
X144847573Y-49530013D01*
X144790424Y-49316729D01*
X144790420Y-49316720D01*
X144697098Y-49116590D01*
X144651740Y-49051811D01*
X144122949Y-49580602D01*
X144061626Y-49614087D01*
X143991934Y-49609103D01*
X143936001Y-49567231D01*
X143931460Y-49560743D01*
X143884189Y-49488391D01*
X143884187Y-49488388D01*
X143828673Y-49445180D01*
X143783843Y-49410287D01*
X143783840Y-49410285D01*
X143783488Y-49410012D01*
X143742675Y-49353301D01*
X143739000Y-49283529D01*
X143771969Y-49224477D01*
X144298187Y-48698258D01*
X144233409Y-48652900D01*
X144233407Y-48652899D01*
X144033284Y-48559580D01*
X144033270Y-48559575D01*
X143819986Y-48502426D01*
X143819976Y-48502424D01*
X143600001Y-48483179D01*
X143599999Y-48483179D01*
X143380023Y-48502424D01*
X143380013Y-48502426D01*
X143166729Y-48559575D01*
X143166720Y-48559579D01*
X142966586Y-48652903D01*
X142901812Y-48698257D01*
X142901811Y-48698258D01*
X143430723Y-49227170D01*
X143464208Y-49288493D01*
X143459224Y-49358185D01*
X143417352Y-49414118D01*
X143402059Y-49423906D01*
X143362749Y-49445179D01*
X143362748Y-49445179D01*
X143276626Y-49538733D01*
X143276626Y-49538734D01*
X143275911Y-49540365D01*
X143274340Y-49542233D01*
X143271008Y-49547334D01*
X143270391Y-49546931D01*
X143230952Y-49593849D01*
X143164215Y-49614535D01*
X143096888Y-49595857D01*
X143074677Y-49578230D01*
X142548258Y-49051811D01*
X142548257Y-49051812D01*
X142502903Y-49116586D01*
X142409579Y-49316720D01*
X142409575Y-49316729D01*
X142352426Y-49530013D01*
X142352424Y-49530023D01*
X142333179Y-49749999D01*
X142333179Y-49750000D01*
X137367323Y-49750000D01*
X137364532Y-49718102D01*
X137359027Y-49655177D01*
X137348070Y-49529932D01*
X137290894Y-49316550D01*
X137197534Y-49116339D01*
X137070826Y-48935380D01*
X136914620Y-48779174D01*
X136914616Y-48779171D01*
X136914615Y-48779170D01*
X136733666Y-48652468D01*
X136733662Y-48652466D01*
X136733661Y-48652465D01*
X136533450Y-48559106D01*
X136533447Y-48559105D01*
X136533445Y-48559104D01*
X136320070Y-48501930D01*
X136320062Y-48501929D01*
X136100002Y-48482677D01*
X136099998Y-48482677D01*
X135879937Y-48501929D01*
X135879929Y-48501930D01*
X135666554Y-48559104D01*
X135666548Y-48559107D01*
X135466340Y-48652465D01*
X135466338Y-48652466D01*
X135285377Y-48779175D01*
X135129175Y-48935377D01*
X135002466Y-49116338D01*
X135002465Y-49116340D01*
X134909107Y-49316548D01*
X134909104Y-49316554D01*
X134851930Y-49529929D01*
X134851929Y-49529937D01*
X134832677Y-49749997D01*
X134832677Y-49750002D01*
X97086830Y-49750002D01*
X97044063Y-49581118D01*
X96944173Y-49353393D01*
X96808166Y-49145217D01*
X96781581Y-49116338D01*
X96639744Y-48962262D01*
X96556991Y-48897852D01*
X96516179Y-48841143D01*
X96512504Y-48771370D01*
X96547136Y-48710687D01*
X96556985Y-48702151D01*
X96639744Y-48637738D01*
X96808164Y-48454785D01*
X96878015Y-48347870D01*
X112699500Y-48347870D01*
X112699501Y-48347876D01*
X112705908Y-48407483D01*
X112756202Y-48542328D01*
X112756206Y-48542335D01*
X112842452Y-48657544D01*
X112842455Y-48657547D01*
X112957664Y-48743793D01*
X112957671Y-48743797D01*
X113092517Y-48794091D01*
X113092516Y-48794091D01*
X113099444Y-48794835D01*
X113152127Y-48800500D01*
X115847872Y-48800499D01*
X115907483Y-48794091D01*
X116042331Y-48743796D01*
X116157546Y-48657546D01*
X116243796Y-48542331D01*
X116294091Y-48407483D01*
X116300500Y-48347873D01*
X116300499Y-48111042D01*
X116320183Y-48044005D01*
X116372987Y-47998250D01*
X116442146Y-47988306D01*
X116505701Y-48017331D01*
X116521446Y-48033731D01*
X116676442Y-48228089D01*
X116805543Y-48347876D01*
X116874259Y-48411635D01*
X117097226Y-48563651D01*
X117340359Y-48680738D01*
X117598228Y-48760280D01*
X117598229Y-48760280D01*
X117598232Y-48760281D01*
X117865063Y-48800499D01*
X117865068Y-48800499D01*
X117865071Y-48800500D01*
X117865072Y-48800500D01*
X118134928Y-48800500D01*
X118134929Y-48800500D01*
X118134936Y-48800499D01*
X118401767Y-48760281D01*
X118401768Y-48760280D01*
X118401772Y-48760280D01*
X118659641Y-48680738D01*
X118902775Y-48563651D01*
X119125741Y-48411635D01*
X119323561Y-48228085D01*
X119491815Y-48017102D01*
X119626743Y-47783398D01*
X119725334Y-47532195D01*
X119785383Y-47269103D01*
X119805549Y-47000000D01*
X119785383Y-46730897D01*
X119725334Y-46467805D01*
X119626743Y-46216602D01*
X119491815Y-45982898D01*
X119323561Y-45771915D01*
X119323560Y-45771914D01*
X119323557Y-45771910D01*
X119125741Y-45588365D01*
X118902775Y-45436349D01*
X118902769Y-45436346D01*
X118902768Y-45436345D01*
X118902767Y-45436344D01*
X118659643Y-45319263D01*
X118659645Y-45319263D01*
X118401773Y-45239720D01*
X118401767Y-45239718D01*
X118134936Y-45199500D01*
X118134929Y-45199500D01*
X117865071Y-45199500D01*
X117865063Y-45199500D01*
X117598232Y-45239718D01*
X117598226Y-45239720D01*
X117340358Y-45319262D01*
X117097230Y-45436346D01*
X116874258Y-45588365D01*
X116676442Y-45771910D01*
X116521446Y-45966269D01*
X116464257Y-46006409D01*
X116394446Y-46009259D01*
X116334176Y-45973913D01*
X116302583Y-45911594D01*
X116300499Y-45888956D01*
X116300499Y-45652129D01*
X116300498Y-45652123D01*
X116300497Y-45652116D01*
X116294091Y-45592517D01*
X116292542Y-45588365D01*
X116243797Y-45457671D01*
X116243793Y-45457664D01*
X116157547Y-45342455D01*
X116157544Y-45342452D01*
X116042335Y-45256206D01*
X116042328Y-45256202D01*
X115907482Y-45205908D01*
X115907483Y-45205908D01*
X115847883Y-45199501D01*
X115847881Y-45199500D01*
X115847873Y-45199500D01*
X115847864Y-45199500D01*
X113152129Y-45199500D01*
X113152123Y-45199501D01*
X113092516Y-45205908D01*
X112957671Y-45256202D01*
X112957664Y-45256206D01*
X112842455Y-45342452D01*
X112842452Y-45342455D01*
X112756206Y-45457664D01*
X112756202Y-45457671D01*
X112705908Y-45592517D01*
X112699501Y-45652116D01*
X112699501Y-45652123D01*
X112699500Y-45652135D01*
X112699500Y-48347870D01*
X96878015Y-48347870D01*
X96944173Y-48246607D01*
X97044063Y-48018881D01*
X97105108Y-47777821D01*
X97120007Y-47598017D01*
X97125643Y-47530005D01*
X97125643Y-47529994D01*
X97105109Y-47282187D01*
X97105107Y-47282175D01*
X97044063Y-47041118D01*
X96944173Y-46813393D01*
X96808166Y-46605217D01*
X96786557Y-46581744D01*
X96639744Y-46422262D01*
X96556991Y-46357852D01*
X96516179Y-46301143D01*
X96512504Y-46231370D01*
X96547136Y-46170687D01*
X96556985Y-46162151D01*
X96639744Y-46097738D01*
X96808164Y-45914785D01*
X96944173Y-45706607D01*
X97044063Y-45478881D01*
X97105108Y-45237821D01*
X97105962Y-45227519D01*
X97125643Y-44990005D01*
X97125643Y-44989994D01*
X97105109Y-44742187D01*
X97105107Y-44742175D01*
X97044063Y-44501118D01*
X96944173Y-44273393D01*
X96808166Y-44065217D01*
X96786557Y-44041744D01*
X96639744Y-43882262D01*
X96443509Y-43729526D01*
X96443507Y-43729525D01*
X96443506Y-43729524D01*
X96224811Y-43611172D01*
X96224802Y-43611169D01*
X95989616Y-43530429D01*
X95744335Y-43489500D01*
X95495665Y-43489500D01*
X95250383Y-43530429D01*
X95015197Y-43611169D01*
X95015188Y-43611172D01*
X94796493Y-43729524D01*
X94600257Y-43882261D01*
X94431833Y-44065217D01*
X94295826Y-44273393D01*
X94195936Y-44501118D01*
X94134892Y-44742175D01*
X94134890Y-44742187D01*
X94114357Y-44989994D01*
X94114357Y-44990005D01*
X94134890Y-45237812D01*
X94134892Y-45237824D01*
X94195936Y-45478881D01*
X94295826Y-45706606D01*
X94431833Y-45914782D01*
X94431836Y-45914785D01*
X94600256Y-46097738D01*
X94683008Y-46162147D01*
X94723821Y-46218857D01*
X94727496Y-46288630D01*
X94692864Y-46349313D01*
X94683014Y-46357848D01*
X94626310Y-46401983D01*
X94600257Y-46422261D01*
X94431833Y-46605217D01*
X94295826Y-46813393D01*
X94195936Y-47041118D01*
X94134892Y-47282175D01*
X94134890Y-47282187D01*
X94114357Y-47529994D01*
X94114357Y-47530005D01*
X94134890Y-47777812D01*
X94134892Y-47777824D01*
X94195936Y-48018881D01*
X94295826Y-48246606D01*
X94431833Y-48454782D01*
X94464245Y-48489991D01*
X94600256Y-48637738D01*
X94683008Y-48702147D01*
X94723821Y-48758857D01*
X94727496Y-48828630D01*
X94692864Y-48889313D01*
X94683014Y-48897848D01*
X94634798Y-48935377D01*
X94600257Y-48962261D01*
X94431833Y-49145217D01*
X94295826Y-49353393D01*
X94195936Y-49581118D01*
X94134892Y-49822175D01*
X94134890Y-49822187D01*
X94114357Y-50069994D01*
X94114357Y-50070005D01*
X94134890Y-50317812D01*
X94134892Y-50317824D01*
X94195936Y-50558881D01*
X94295826Y-50786606D01*
X94431833Y-50994782D01*
X94452584Y-51017323D01*
X94600256Y-51177738D01*
X94683008Y-51242147D01*
X94723821Y-51298857D01*
X94727496Y-51368630D01*
X94692864Y-51429313D01*
X94683014Y-51437848D01*
X94624400Y-51483469D01*
X94600257Y-51502261D01*
X94431833Y-51685217D01*
X94295826Y-51893393D01*
X94195936Y-52121118D01*
X94134892Y-52362175D01*
X94134890Y-52362187D01*
X94114357Y-52609994D01*
X94114357Y-52610005D01*
X94134890Y-52857812D01*
X94134892Y-52857824D01*
X94195936Y-53098881D01*
X94295826Y-53326606D01*
X94431833Y-53534782D01*
X94431836Y-53534785D01*
X94600256Y-53717738D01*
X94683008Y-53782147D01*
X94723821Y-53838857D01*
X94727496Y-53908630D01*
X94692864Y-53969313D01*
X94683014Y-53977848D01*
X94624400Y-54023469D01*
X94600257Y-54042261D01*
X94431833Y-54225217D01*
X94295826Y-54433393D01*
X94195936Y-54661118D01*
X94134892Y-54902175D01*
X94134890Y-54902187D01*
X94114357Y-55149994D01*
X94114357Y-55150005D01*
X94134890Y-55397812D01*
X94134892Y-55397824D01*
X94195936Y-55638881D01*
X94295826Y-55866606D01*
X94431833Y-56074782D01*
X94431836Y-56074785D01*
X94600256Y-56257738D01*
X94683008Y-56322146D01*
X94723820Y-56378856D01*
X94727495Y-56448629D01*
X94692864Y-56509312D01*
X94683009Y-56517852D01*
X94600255Y-56582262D01*
X94431833Y-56765217D01*
X94295826Y-56973393D01*
X94195936Y-57201118D01*
X94134892Y-57442175D01*
X94134890Y-57442187D01*
X94114357Y-57689994D01*
X94114357Y-57690005D01*
X94134890Y-57937812D01*
X94134892Y-57937824D01*
X94195936Y-58178881D01*
X94295826Y-58406606D01*
X94431833Y-58614782D01*
X94431836Y-58614785D01*
X94600256Y-58797738D01*
X94683008Y-58862147D01*
X94723821Y-58918857D01*
X94727496Y-58988630D01*
X94692864Y-59049313D01*
X94683014Y-59057848D01*
X94624400Y-59103469D01*
X94600257Y-59122261D01*
X94431833Y-59305217D01*
X94295826Y-59513393D01*
X94195936Y-59741118D01*
X94134892Y-59982175D01*
X94134890Y-59982187D01*
X94114357Y-60229994D01*
X94114357Y-60230005D01*
X94134890Y-60477812D01*
X94134892Y-60477824D01*
X94195936Y-60718881D01*
X94295826Y-60946606D01*
X94431833Y-61154782D01*
X94431836Y-61154785D01*
X94600256Y-61337738D01*
X94683008Y-61402147D01*
X94723821Y-61458857D01*
X94727496Y-61528630D01*
X94692864Y-61589313D01*
X94683014Y-61597848D01*
X94624400Y-61643469D01*
X94600257Y-61662261D01*
X94431833Y-61845217D01*
X94295826Y-62053393D01*
X94195936Y-62281118D01*
X94134892Y-62522175D01*
X94134890Y-62522187D01*
X94114357Y-62769994D01*
X94114357Y-62770005D01*
X94134890Y-63017812D01*
X94134892Y-63017824D01*
X94195936Y-63258881D01*
X94295826Y-63486606D01*
X94431833Y-63694782D01*
X94431836Y-63694785D01*
X94600256Y-63877738D01*
X94683008Y-63942146D01*
X94723820Y-63998856D01*
X94727495Y-64068629D01*
X94692864Y-64129312D01*
X94683009Y-64137852D01*
X94600255Y-64202262D01*
X94431833Y-64385217D01*
X94295826Y-64593393D01*
X94195936Y-64821118D01*
X94134892Y-65062175D01*
X94134890Y-65062187D01*
X94114357Y-65309994D01*
X94114357Y-65310005D01*
X94134890Y-65557812D01*
X94134892Y-65557824D01*
X94195936Y-65798881D01*
X94295826Y-66026606D01*
X94431833Y-66234782D01*
X94431836Y-66234785D01*
X94600256Y-66417738D01*
X94683008Y-66482147D01*
X94723821Y-66538857D01*
X94727496Y-66608630D01*
X94692864Y-66669313D01*
X94683014Y-66677848D01*
X94624400Y-66723469D01*
X94600257Y-66742261D01*
X94431833Y-66925217D01*
X94295826Y-67133393D01*
X94195936Y-67361118D01*
X94134892Y-67602175D01*
X94134890Y-67602187D01*
X94114357Y-67849994D01*
X94114357Y-67850005D01*
X94134890Y-68097812D01*
X94134892Y-68097824D01*
X94195936Y-68338881D01*
X94295826Y-68566606D01*
X94431833Y-68774782D01*
X94431836Y-68774785D01*
X94600256Y-68957738D01*
X94683008Y-69022147D01*
X94723821Y-69078857D01*
X94727496Y-69148630D01*
X94692864Y-69209313D01*
X94683014Y-69217848D01*
X94624400Y-69263469D01*
X94600257Y-69282261D01*
X94431833Y-69465217D01*
X94295826Y-69673393D01*
X94195936Y-69901118D01*
X94134892Y-70142175D01*
X94134890Y-70142187D01*
X94114357Y-70389994D01*
X94114357Y-70390005D01*
X94134890Y-70637812D01*
X94134892Y-70637824D01*
X94195936Y-70878881D01*
X94295826Y-71106606D01*
X94431833Y-71314782D01*
X94431836Y-71314785D01*
X94600256Y-71497738D01*
X94683008Y-71562147D01*
X94723821Y-71618857D01*
X94727496Y-71688630D01*
X94692864Y-71749313D01*
X94683014Y-71757848D01*
X94624400Y-71803469D01*
X94600257Y-71822261D01*
X94431833Y-72005217D01*
X94295826Y-72213393D01*
X94195936Y-72441118D01*
X94134892Y-72682175D01*
X94134890Y-72682187D01*
X94114357Y-72929994D01*
X94114357Y-72930005D01*
X94134890Y-73177812D01*
X94134892Y-73177824D01*
X94195936Y-73418881D01*
X94295826Y-73646606D01*
X94431833Y-73854782D01*
X94431836Y-73854785D01*
X94600256Y-74037738D01*
X94683008Y-74102147D01*
X94723821Y-74158857D01*
X94727496Y-74228630D01*
X94692864Y-74289313D01*
X94683014Y-74297848D01*
X94624400Y-74343469D01*
X94600257Y-74362261D01*
X94431833Y-74545217D01*
X94295826Y-74753393D01*
X94195936Y-74981118D01*
X94134892Y-75222175D01*
X94134890Y-75222187D01*
X94114357Y-75469994D01*
X94114357Y-75470005D01*
X94134890Y-75717812D01*
X94134892Y-75717824D01*
X94195936Y-75958881D01*
X94295826Y-76186606D01*
X94431833Y-76394782D01*
X94431836Y-76394785D01*
X94600256Y-76577738D01*
X94683010Y-76642148D01*
X94723821Y-76698855D01*
X94727496Y-76768628D01*
X94692865Y-76829311D01*
X94683009Y-76837852D01*
X94600258Y-76902260D01*
X94431833Y-77085217D01*
X94295826Y-77293393D01*
X94195936Y-77521118D01*
X94134892Y-77762175D01*
X94134890Y-77762187D01*
X94114357Y-78009994D01*
X94114357Y-78010005D01*
X94134890Y-78257812D01*
X94134892Y-78257824D01*
X94195936Y-78498881D01*
X94295826Y-78726606D01*
X94431833Y-78934782D01*
X94431836Y-78934785D01*
X94600256Y-79117738D01*
X94683008Y-79182147D01*
X94723821Y-79238857D01*
X94727496Y-79308630D01*
X94692864Y-79369313D01*
X94683014Y-79377848D01*
X94624400Y-79423469D01*
X94600257Y-79442261D01*
X94431833Y-79625217D01*
X94295826Y-79833393D01*
X94195936Y-80061118D01*
X94134892Y-80302175D01*
X94134890Y-80302187D01*
X94114357Y-80549994D01*
X94114357Y-80550005D01*
X94134890Y-80797812D01*
X94134892Y-80797824D01*
X94195936Y-81038881D01*
X94295826Y-81266606D01*
X94431833Y-81474782D01*
X94431836Y-81474785D01*
X94600256Y-81657738D01*
X94683008Y-81722147D01*
X94723821Y-81778857D01*
X94727496Y-81848630D01*
X94692864Y-81909313D01*
X94683014Y-81917848D01*
X94624400Y-81963469D01*
X94600257Y-81982261D01*
X94431833Y-82165217D01*
X94295826Y-82373393D01*
X94195936Y-82601118D01*
X94134892Y-82842175D01*
X94134890Y-82842187D01*
X94114357Y-83089994D01*
X94114357Y-83090005D01*
X94134890Y-83337812D01*
X94134892Y-83337824D01*
X94195936Y-83578881D01*
X94295826Y-83806606D01*
X94431833Y-84014782D01*
X94431836Y-84014785D01*
X94600256Y-84197738D01*
X94683008Y-84262147D01*
X94723821Y-84318857D01*
X94727496Y-84388630D01*
X94692864Y-84449313D01*
X94683014Y-84457848D01*
X94624400Y-84503469D01*
X94600257Y-84522261D01*
X94431833Y-84705217D01*
X94295826Y-84913393D01*
X94195936Y-85141118D01*
X94134892Y-85382175D01*
X94134890Y-85382187D01*
X94114357Y-85629994D01*
X94114357Y-85630005D01*
X94134890Y-85877812D01*
X94134892Y-85877824D01*
X94195936Y-86118881D01*
X94295826Y-86346606D01*
X94431833Y-86554782D01*
X94431836Y-86554785D01*
X94600256Y-86737738D01*
X94683010Y-86802148D01*
X94723821Y-86858855D01*
X94727496Y-86928628D01*
X94692865Y-86989311D01*
X94683009Y-86997852D01*
X94600258Y-87062260D01*
X94431833Y-87245217D01*
X94295826Y-87453393D01*
X94195936Y-87681118D01*
X94134892Y-87922175D01*
X94134890Y-87922187D01*
X94114357Y-88169994D01*
X94114357Y-88170005D01*
X94134890Y-88417812D01*
X94134892Y-88417824D01*
X94195936Y-88658881D01*
X94295826Y-88886606D01*
X94431833Y-89094782D01*
X94431836Y-89094785D01*
X94600256Y-89277738D01*
X94683008Y-89342147D01*
X94723821Y-89398857D01*
X94727496Y-89468630D01*
X94692864Y-89529313D01*
X94683014Y-89537848D01*
X94624400Y-89583469D01*
X94600257Y-89602261D01*
X94431833Y-89785217D01*
X94295826Y-89993393D01*
X94195936Y-90221118D01*
X94134892Y-90462175D01*
X94134890Y-90462187D01*
X94114357Y-90709994D01*
X94114357Y-90710005D01*
X94134890Y-90957812D01*
X94134892Y-90957824D01*
X94195936Y-91198881D01*
X94295826Y-91426606D01*
X94431833Y-91634782D01*
X94431836Y-91634785D01*
X94600256Y-91817738D01*
X94683008Y-91882146D01*
X94723820Y-91938856D01*
X94727495Y-92008629D01*
X94692864Y-92069312D01*
X94683009Y-92077852D01*
X94600255Y-92142262D01*
X94431833Y-92325217D01*
X94295826Y-92533393D01*
X94195936Y-92761118D01*
X94134892Y-93002175D01*
X94134890Y-93002187D01*
X94114357Y-93249994D01*
X94114357Y-93250005D01*
X94134890Y-93497812D01*
X94134892Y-93497824D01*
X94195936Y-93738881D01*
X94295826Y-93966606D01*
X94431833Y-94174782D01*
X94431836Y-94174785D01*
X94600256Y-94357738D01*
X94683008Y-94422147D01*
X94723821Y-94478857D01*
X94727496Y-94548630D01*
X94692864Y-94609313D01*
X94683014Y-94617848D01*
X94642349Y-94649500D01*
X94600257Y-94682261D01*
X94431833Y-94865217D01*
X94295826Y-95073393D01*
X94195936Y-95301118D01*
X94134892Y-95542175D01*
X94134890Y-95542187D01*
X94114357Y-95789994D01*
X94114357Y-95790005D01*
X94134890Y-96037812D01*
X94134892Y-96037824D01*
X94195936Y-96278881D01*
X94295826Y-96506606D01*
X94431833Y-96714782D01*
X94431836Y-96714785D01*
X94600256Y-96897738D01*
X94683010Y-96962148D01*
X94723821Y-97018855D01*
X94727496Y-97088628D01*
X94692865Y-97149311D01*
X94683009Y-97157852D01*
X94600258Y-97222260D01*
X94431833Y-97405217D01*
X94295826Y-97613393D01*
X94195936Y-97841118D01*
X94134892Y-98082175D01*
X94134890Y-98082187D01*
X94114357Y-98329994D01*
X94114357Y-98330005D01*
X94134890Y-98577812D01*
X94134892Y-98577824D01*
X94195936Y-98818881D01*
X94295826Y-99046606D01*
X94431833Y-99254782D01*
X94431836Y-99254785D01*
X94600256Y-99437738D01*
X94683008Y-99502147D01*
X94723821Y-99558857D01*
X94727496Y-99628630D01*
X94692864Y-99689313D01*
X94683014Y-99697848D01*
X94669426Y-99708425D01*
X94600257Y-99762261D01*
X94431833Y-99945217D01*
X94295826Y-100153393D01*
X94195936Y-100381118D01*
X94134892Y-100622175D01*
X94134890Y-100622187D01*
X94114357Y-100869994D01*
X94114357Y-100870005D01*
X94134890Y-101117812D01*
X94134892Y-101117824D01*
X94195936Y-101358881D01*
X94295826Y-101586606D01*
X94431833Y-101794782D01*
X94431836Y-101794785D01*
X94600256Y-101977738D01*
X94683010Y-102042148D01*
X94723821Y-102098855D01*
X94727496Y-102168628D01*
X94692865Y-102229311D01*
X94683009Y-102237852D01*
X94600258Y-102302260D01*
X94431833Y-102485217D01*
X94295826Y-102693393D01*
X94195936Y-102921118D01*
X94134892Y-103162175D01*
X94134890Y-103162187D01*
X94114357Y-103409994D01*
X94114357Y-103410005D01*
X81885643Y-103410005D01*
X81885643Y-103409994D01*
X81865109Y-103162187D01*
X81865107Y-103162175D01*
X81804063Y-102921118D01*
X81704173Y-102693393D01*
X81568166Y-102485217D01*
X81537476Y-102451879D01*
X81399744Y-102302262D01*
X81316991Y-102237852D01*
X81276179Y-102181143D01*
X81272504Y-102111370D01*
X81307136Y-102050687D01*
X81316985Y-102042151D01*
X81399744Y-101977738D01*
X81568164Y-101794785D01*
X81704173Y-101586607D01*
X81804063Y-101358881D01*
X81865108Y-101117821D01*
X81885643Y-100870000D01*
X81883537Y-100844586D01*
X81865109Y-100622187D01*
X81865107Y-100622175D01*
X81804063Y-100381118D01*
X81704173Y-100153393D01*
X81568166Y-99945217D01*
X81521804Y-99894855D01*
X81399744Y-99762262D01*
X81352055Y-99725144D01*
X81316991Y-99697852D01*
X81276178Y-99641141D01*
X81272505Y-99571368D01*
X81307136Y-99510685D01*
X81316974Y-99502160D01*
X81399744Y-99437738D01*
X81568164Y-99254785D01*
X81704173Y-99046607D01*
X81804063Y-98818881D01*
X81865108Y-98577821D01*
X81885643Y-98330000D01*
X81883537Y-98304586D01*
X81865109Y-98082187D01*
X81865107Y-98082175D01*
X81804063Y-97841118D01*
X81704173Y-97613393D01*
X81568166Y-97405217D01*
X81532032Y-97365965D01*
X81399744Y-97222262D01*
X81316991Y-97157852D01*
X81276179Y-97101143D01*
X81272504Y-97031370D01*
X81307136Y-96970687D01*
X81316985Y-96962151D01*
X81399744Y-96897738D01*
X81568164Y-96714785D01*
X81704173Y-96506607D01*
X81804063Y-96278881D01*
X81865108Y-96037821D01*
X81885643Y-95790000D01*
X81865108Y-95542179D01*
X81804063Y-95301119D01*
X81704173Y-95073393D01*
X81595902Y-94907671D01*
X81568166Y-94865217D01*
X81546557Y-94841744D01*
X81399744Y-94682262D01*
X81316991Y-94617852D01*
X81276179Y-94561143D01*
X81272504Y-94491370D01*
X81307136Y-94430687D01*
X81316985Y-94422151D01*
X81399744Y-94357738D01*
X81568164Y-94174785D01*
X81704173Y-93966607D01*
X81804063Y-93738881D01*
X81865108Y-93497821D01*
X81885643Y-93250000D01*
X81865108Y-93002179D01*
X81804063Y-92761119D01*
X81704173Y-92533393D01*
X81568166Y-92325217D01*
X81546557Y-92301744D01*
X81399744Y-92142262D01*
X81316991Y-92077852D01*
X81276179Y-92021143D01*
X81272504Y-91951370D01*
X81307136Y-91890687D01*
X81316985Y-91882151D01*
X81399744Y-91817738D01*
X81568164Y-91634785D01*
X81704173Y-91426607D01*
X81804063Y-91198881D01*
X81865108Y-90957821D01*
X81885643Y-90710000D01*
X81865108Y-90462179D01*
X81804063Y-90221119D01*
X81704173Y-89993393D01*
X81568166Y-89785217D01*
X81546557Y-89761744D01*
X81399744Y-89602262D01*
X81316991Y-89537852D01*
X81276179Y-89481143D01*
X81272504Y-89411370D01*
X81307136Y-89350687D01*
X81316985Y-89342151D01*
X81399744Y-89277738D01*
X81568164Y-89094785D01*
X81704173Y-88886607D01*
X81804063Y-88658881D01*
X81865108Y-88417821D01*
X81885643Y-88170000D01*
X81865108Y-87922179D01*
X81804063Y-87681119D01*
X81704173Y-87453393D01*
X81568166Y-87245217D01*
X81546557Y-87221744D01*
X81399744Y-87062262D01*
X81316991Y-86997852D01*
X81276179Y-86941143D01*
X81272504Y-86871370D01*
X81307136Y-86810687D01*
X81316985Y-86802151D01*
X81399744Y-86737738D01*
X81568164Y-86554785D01*
X81704173Y-86346607D01*
X81804063Y-86118881D01*
X81865108Y-85877821D01*
X81885643Y-85630000D01*
X81865108Y-85382179D01*
X81804063Y-85141119D01*
X81704173Y-84913393D01*
X81568166Y-84705217D01*
X81546557Y-84681744D01*
X81399744Y-84522262D01*
X81316991Y-84457852D01*
X81276179Y-84401143D01*
X81272504Y-84331370D01*
X81307136Y-84270687D01*
X81316985Y-84262151D01*
X81399744Y-84197738D01*
X81568164Y-84014785D01*
X81704173Y-83806607D01*
X81804063Y-83578881D01*
X81865108Y-83337821D01*
X81885643Y-83090000D01*
X81865108Y-82842179D01*
X81804063Y-82601119D01*
X81704173Y-82373393D01*
X81568166Y-82165217D01*
X81546557Y-82141744D01*
X81399744Y-81982262D01*
X81316991Y-81917852D01*
X81276179Y-81861143D01*
X81272504Y-81791370D01*
X81307136Y-81730687D01*
X81316985Y-81722151D01*
X81399744Y-81657738D01*
X81568164Y-81474785D01*
X81704173Y-81266607D01*
X81804063Y-81038881D01*
X81865108Y-80797821D01*
X81885643Y-80550000D01*
X81865108Y-80302179D01*
X81804063Y-80061119D01*
X81704173Y-79833393D01*
X81704173Y-79833392D01*
X81568166Y-79625217D01*
X81546557Y-79601744D01*
X81399744Y-79442262D01*
X81316991Y-79377852D01*
X81276179Y-79321143D01*
X81272504Y-79251370D01*
X81307136Y-79190687D01*
X81316985Y-79182151D01*
X81399744Y-79117738D01*
X81568164Y-78934785D01*
X81704173Y-78726607D01*
X81804063Y-78498881D01*
X81865108Y-78257821D01*
X81885643Y-78010000D01*
X81865108Y-77762179D01*
X81804063Y-77521119D01*
X81704173Y-77293393D01*
X81568166Y-77085217D01*
X81546557Y-77061744D01*
X81399744Y-76902262D01*
X81316991Y-76837852D01*
X81276179Y-76781143D01*
X81272504Y-76711370D01*
X81307136Y-76650687D01*
X81316985Y-76642151D01*
X81399744Y-76577738D01*
X81568164Y-76394785D01*
X81704173Y-76186607D01*
X81804063Y-75958881D01*
X81865108Y-75717821D01*
X81885643Y-75470000D01*
X81865108Y-75222179D01*
X81804063Y-74981119D01*
X81704173Y-74753393D01*
X81568166Y-74545217D01*
X81546557Y-74521744D01*
X81399744Y-74362262D01*
X81316991Y-74297852D01*
X81276179Y-74241143D01*
X81272504Y-74171370D01*
X81307136Y-74110687D01*
X81316985Y-74102151D01*
X81399744Y-74037738D01*
X81568164Y-73854785D01*
X81704173Y-73646607D01*
X81804063Y-73418881D01*
X81865108Y-73177821D01*
X81885643Y-72930000D01*
X81865108Y-72682179D01*
X81804063Y-72441119D01*
X81704173Y-72213393D01*
X81568166Y-72005217D01*
X81546557Y-71981744D01*
X81399744Y-71822262D01*
X81316991Y-71757852D01*
X81276179Y-71701143D01*
X81272504Y-71631370D01*
X81307136Y-71570687D01*
X81316985Y-71562151D01*
X81399744Y-71497738D01*
X81568164Y-71314785D01*
X81704173Y-71106607D01*
X81804063Y-70878881D01*
X81865108Y-70637821D01*
X81885643Y-70390000D01*
X81865108Y-70142179D01*
X81804063Y-69901119D01*
X81704173Y-69673393D01*
X81704173Y-69673392D01*
X81568166Y-69465217D01*
X81546557Y-69441744D01*
X81399744Y-69282262D01*
X81316991Y-69217852D01*
X81276179Y-69161143D01*
X81272504Y-69091370D01*
X81307136Y-69030687D01*
X81316985Y-69022151D01*
X81399744Y-68957738D01*
X81568164Y-68774785D01*
X81704173Y-68566607D01*
X81804063Y-68338881D01*
X81865108Y-68097821D01*
X81885643Y-67850000D01*
X81865108Y-67602179D01*
X81804063Y-67361119D01*
X81704173Y-67133393D01*
X81568166Y-66925217D01*
X81546557Y-66901744D01*
X81399744Y-66742262D01*
X81316991Y-66677852D01*
X81276179Y-66621143D01*
X81272504Y-66551370D01*
X81307136Y-66490687D01*
X81316985Y-66482151D01*
X81399744Y-66417738D01*
X81568164Y-66234785D01*
X81704173Y-66026607D01*
X81804063Y-65798881D01*
X81865108Y-65557821D01*
X81885643Y-65310000D01*
X81865108Y-65062179D01*
X81804063Y-64821119D01*
X81704173Y-64593393D01*
X81568166Y-64385217D01*
X81546557Y-64361744D01*
X81399744Y-64202262D01*
X81316991Y-64137852D01*
X81276179Y-64081143D01*
X81272504Y-64011370D01*
X81307136Y-63950687D01*
X81316985Y-63942151D01*
X81399744Y-63877738D01*
X81568164Y-63694785D01*
X81704173Y-63486607D01*
X81804063Y-63258881D01*
X81865108Y-63017821D01*
X81885643Y-62770000D01*
X81865108Y-62522179D01*
X81804063Y-62281119D01*
X81704173Y-62053393D01*
X81568166Y-61845217D01*
X81546557Y-61821744D01*
X81399744Y-61662262D01*
X81316991Y-61597852D01*
X81276179Y-61541143D01*
X81272504Y-61471370D01*
X81307136Y-61410687D01*
X81316985Y-61402151D01*
X81399744Y-61337738D01*
X81568164Y-61154785D01*
X81704173Y-60946607D01*
X81804063Y-60718881D01*
X81865108Y-60477821D01*
X81885643Y-60230000D01*
X81865108Y-59982179D01*
X81804063Y-59741119D01*
X81704173Y-59513393D01*
X81704173Y-59513392D01*
X81568166Y-59305217D01*
X81546557Y-59281744D01*
X81399744Y-59122262D01*
X81316991Y-59057852D01*
X81276179Y-59001143D01*
X81272504Y-58931370D01*
X81307136Y-58870687D01*
X81316985Y-58862151D01*
X81399744Y-58797738D01*
X81568164Y-58614785D01*
X81704173Y-58406607D01*
X81804063Y-58178881D01*
X81865108Y-57937821D01*
X81885643Y-57690000D01*
X81865108Y-57442179D01*
X81804063Y-57201119D01*
X81704173Y-56973393D01*
X81704172Y-56973393D01*
X81568166Y-56765217D01*
X81546557Y-56741744D01*
X81399744Y-56582262D01*
X81316991Y-56517852D01*
X81276179Y-56461143D01*
X81272504Y-56391370D01*
X81307136Y-56330687D01*
X81316985Y-56322151D01*
X81399744Y-56257738D01*
X81568164Y-56074785D01*
X81704173Y-55866607D01*
X81804063Y-55638881D01*
X81865108Y-55397821D01*
X81885643Y-55150000D01*
X81865108Y-54902179D01*
X81804063Y-54661119D01*
X81704173Y-54433393D01*
X81704172Y-54433393D01*
X81568166Y-54225217D01*
X81547860Y-54203159D01*
X81399744Y-54042262D01*
X81372525Y-54021077D01*
X81316991Y-53977852D01*
X81276178Y-53921141D01*
X81272505Y-53851368D01*
X81307136Y-53790685D01*
X81316974Y-53782160D01*
X81399744Y-53717738D01*
X81568164Y-53534785D01*
X81704173Y-53326607D01*
X81804063Y-53098881D01*
X81865108Y-52857821D01*
X81885643Y-52610000D01*
X81865108Y-52362179D01*
X81804063Y-52121119D01*
X81704173Y-51893393D01*
X81704172Y-51893393D01*
X81568166Y-51685217D01*
X81546557Y-51661744D01*
X81399744Y-51502262D01*
X81316991Y-51437852D01*
X81276179Y-51381143D01*
X81272504Y-51311370D01*
X81307136Y-51250687D01*
X81316985Y-51242151D01*
X81399744Y-51177738D01*
X81568164Y-50994785D01*
X81704173Y-50786607D01*
X81804063Y-50558881D01*
X81865108Y-50317821D01*
X81873506Y-50216470D01*
X81885643Y-50070005D01*
X81885643Y-50069994D01*
X81865109Y-49822187D01*
X81865107Y-49822175D01*
X81804063Y-49581118D01*
X81704173Y-49353393D01*
X81568166Y-49145217D01*
X81541581Y-49116338D01*
X81399744Y-48962262D01*
X81316991Y-48897852D01*
X81276179Y-48841143D01*
X81272504Y-48771370D01*
X81307136Y-48710687D01*
X81316985Y-48702151D01*
X81399744Y-48637738D01*
X81568164Y-48454785D01*
X81704173Y-48246607D01*
X81804063Y-48018881D01*
X81865108Y-47777821D01*
X81880007Y-47598017D01*
X81885643Y-47530005D01*
X81885643Y-47529994D01*
X81865109Y-47282187D01*
X81865107Y-47282175D01*
X81804063Y-47041118D01*
X81704173Y-46813393D01*
X81568166Y-46605217D01*
X81546557Y-46581744D01*
X81399744Y-46422262D01*
X81296253Y-46341712D01*
X81255442Y-46285003D01*
X81248655Y-46236176D01*
X81250056Y-46213609D01*
X80646301Y-45609854D01*
X80612816Y-45548531D01*
X80617800Y-45478839D01*
X80652780Y-45428460D01*
X80658559Y-45423452D01*
X80658562Y-45423451D01*
X80769395Y-45327413D01*
X80804187Y-45273274D01*
X80856990Y-45227519D01*
X80926149Y-45217575D01*
X80989705Y-45246599D01*
X80996184Y-45252632D01*
X81603434Y-45859882D01*
X81703731Y-45706369D01*
X81803587Y-45478717D01*
X81864612Y-45237738D01*
X81864614Y-45237729D01*
X81885141Y-44990005D01*
X81885141Y-44989994D01*
X81864614Y-44742270D01*
X81864612Y-44742261D01*
X81803587Y-44501282D01*
X81703731Y-44273630D01*
X81603434Y-44120116D01*
X80996184Y-44727367D01*
X80934861Y-44760852D01*
X80865169Y-44755868D01*
X80809236Y-44713996D01*
X80804187Y-44706725D01*
X80769395Y-44652587D01*
X80769392Y-44652584D01*
X80652779Y-44551537D01*
X80615005Y-44492759D01*
X80615005Y-44422889D01*
X80646301Y-44370144D01*
X81250056Y-43766389D01*
X81203229Y-43729943D01*
X80984614Y-43611635D01*
X80984603Y-43611630D01*
X80749493Y-43530916D01*
X80504293Y-43490000D01*
X80255707Y-43490000D01*
X80010506Y-43530916D01*
X79775396Y-43611630D01*
X79775390Y-43611632D01*
X79556761Y-43729949D01*
X79509942Y-43766388D01*
X79509942Y-43766390D01*
X80113697Y-44370145D01*
X80147182Y-44431468D01*
X80142198Y-44501160D01*
X80107220Y-44551538D01*
X80006692Y-44638647D01*
X79990609Y-44652584D01*
X79990604Y-44652588D01*
X79990603Y-44652589D01*
X79955811Y-44706726D01*
X79903007Y-44752481D01*
X79833848Y-44762424D01*
X79770292Y-44733398D01*
X79763815Y-44727367D01*
X79156564Y-44120116D01*
X79056267Y-44273632D01*
X78956412Y-44501282D01*
X78895387Y-44742261D01*
X78895385Y-44742270D01*
X78874859Y-44989994D01*
X78874859Y-44990005D01*
X78895385Y-45237729D01*
X78895387Y-45237738D01*
X78956412Y-45478717D01*
X79056266Y-45706364D01*
X79156564Y-45859882D01*
X79763814Y-45252631D01*
X79825137Y-45219146D01*
X79894828Y-45224130D01*
X79950762Y-45266001D01*
X79955810Y-45273272D01*
X79990603Y-45327410D01*
X79990603Y-45327411D01*
X79990604Y-45327412D01*
X79990605Y-45327413D01*
X80007964Y-45342455D01*
X80107219Y-45428460D01*
X80144993Y-45487239D01*
X80144993Y-45557108D01*
X80113697Y-45609854D01*
X79509942Y-46213609D01*
X79511343Y-46236177D01*
X79495850Y-46304307D01*
X79463744Y-46341713D01*
X79360258Y-46422260D01*
X79191833Y-46605217D01*
X79055826Y-46813393D01*
X78955936Y-47041118D01*
X78894892Y-47282175D01*
X78894890Y-47282187D01*
X78874357Y-47529994D01*
X78874357Y-47530005D01*
X78894890Y-47777812D01*
X78894892Y-47777824D01*
X78955936Y-48018881D01*
X79055826Y-48246606D01*
X79191833Y-48454782D01*
X79224245Y-48489991D01*
X79360256Y-48637738D01*
X79443008Y-48702147D01*
X79483821Y-48758857D01*
X79487496Y-48828630D01*
X79452864Y-48889313D01*
X79443014Y-48897848D01*
X79394798Y-48935377D01*
X79360257Y-48962261D01*
X79191833Y-49145217D01*
X79055826Y-49353393D01*
X78955936Y-49581118D01*
X78894892Y-49822175D01*
X78894890Y-49822187D01*
X78874357Y-50069994D01*
X78874357Y-50070005D01*
X78894890Y-50317812D01*
X78894892Y-50317824D01*
X78955936Y-50558881D01*
X79055826Y-50786606D01*
X79191833Y-50994782D01*
X79212584Y-51017323D01*
X79360256Y-51177738D01*
X79443008Y-51242147D01*
X79483821Y-51298857D01*
X79487496Y-51368630D01*
X79452864Y-51429313D01*
X79443014Y-51437848D01*
X79384400Y-51483469D01*
X79360257Y-51502261D01*
X79191833Y-51685217D01*
X79055826Y-51893393D01*
X78955936Y-52121118D01*
X78894892Y-52362175D01*
X78894890Y-52362187D01*
X78874357Y-52609994D01*
X78874357Y-52610005D01*
X78894890Y-52857812D01*
X78894892Y-52857824D01*
X78955936Y-53098881D01*
X79055826Y-53326606D01*
X79191833Y-53534782D01*
X79191836Y-53534785D01*
X79360256Y-53717738D01*
X79443008Y-53782146D01*
X79483820Y-53838856D01*
X79487495Y-53908629D01*
X79452864Y-53969312D01*
X79443009Y-53977852D01*
X79360255Y-54042262D01*
X79191833Y-54225217D01*
X79055826Y-54433393D01*
X78955936Y-54661118D01*
X78894892Y-54902175D01*
X78894890Y-54902187D01*
X78874357Y-55149994D01*
X78874357Y-55150005D01*
X78894890Y-55397812D01*
X78894892Y-55397824D01*
X78955936Y-55638881D01*
X79055826Y-55866606D01*
X79191833Y-56074782D01*
X79191836Y-56074785D01*
X79360256Y-56257738D01*
X79443008Y-56322147D01*
X79483821Y-56378857D01*
X79487496Y-56448630D01*
X79452864Y-56509313D01*
X79443014Y-56517848D01*
X79384400Y-56563469D01*
X79360257Y-56582261D01*
X79191833Y-56765217D01*
X79055826Y-56973393D01*
X78955936Y-57201118D01*
X78894892Y-57442175D01*
X78894890Y-57442187D01*
X78874357Y-57689994D01*
X78874357Y-57690005D01*
X78894890Y-57937812D01*
X78894892Y-57937824D01*
X78955936Y-58178881D01*
X79055826Y-58406606D01*
X79191833Y-58614782D01*
X79191836Y-58614785D01*
X79360256Y-58797738D01*
X79443008Y-58862147D01*
X79483821Y-58918857D01*
X79487496Y-58988630D01*
X79452864Y-59049313D01*
X79443014Y-59057848D01*
X79384400Y-59103469D01*
X79360257Y-59122261D01*
X79191833Y-59305217D01*
X79055826Y-59513393D01*
X78955936Y-59741118D01*
X78894892Y-59982175D01*
X78894890Y-59982187D01*
X78874357Y-60229994D01*
X78874357Y-60230005D01*
X78894890Y-60477812D01*
X78894892Y-60477824D01*
X78955936Y-60718881D01*
X79055826Y-60946606D01*
X79191833Y-61154782D01*
X79191836Y-61154785D01*
X79360256Y-61337738D01*
X79443008Y-61402147D01*
X79483821Y-61458857D01*
X79487496Y-61528630D01*
X79452864Y-61589313D01*
X79443014Y-61597848D01*
X79384400Y-61643469D01*
X79360257Y-61662261D01*
X79191833Y-61845217D01*
X79055826Y-62053393D01*
X78955936Y-62281118D01*
X78894892Y-62522175D01*
X78894890Y-62522187D01*
X78874357Y-62769994D01*
X78874357Y-62770005D01*
X78894890Y-63017812D01*
X78894892Y-63017824D01*
X78955936Y-63258881D01*
X79055826Y-63486606D01*
X79191833Y-63694782D01*
X79191836Y-63694785D01*
X79360256Y-63877738D01*
X79443008Y-63942147D01*
X79483821Y-63998857D01*
X79487496Y-64068630D01*
X79452864Y-64129313D01*
X79443014Y-64137848D01*
X79384400Y-64183469D01*
X79360257Y-64202261D01*
X79191833Y-64385217D01*
X79055826Y-64593393D01*
X78955936Y-64821118D01*
X78894892Y-65062175D01*
X78894890Y-65062187D01*
X78874357Y-65309994D01*
X78874357Y-65310005D01*
X78894890Y-65557812D01*
X78894892Y-65557824D01*
X78955936Y-65798881D01*
X79055826Y-66026606D01*
X79191833Y-66234782D01*
X79191836Y-66234785D01*
X79360256Y-66417738D01*
X79443008Y-66482146D01*
X79483820Y-66538856D01*
X79487495Y-66608629D01*
X79452864Y-66669312D01*
X79443009Y-66677852D01*
X79360255Y-66742262D01*
X79191833Y-66925217D01*
X79055826Y-67133393D01*
X78955936Y-67361118D01*
X78894892Y-67602175D01*
X78894890Y-67602187D01*
X78874357Y-67849994D01*
X78874357Y-67850005D01*
X78894890Y-68097812D01*
X78894892Y-68097824D01*
X78955936Y-68338881D01*
X79055826Y-68566606D01*
X79191833Y-68774782D01*
X79191836Y-68774785D01*
X79360256Y-68957738D01*
X79443008Y-69022147D01*
X79483821Y-69078857D01*
X79487496Y-69148630D01*
X79452864Y-69209313D01*
X79443014Y-69217848D01*
X79384400Y-69263469D01*
X79360257Y-69282261D01*
X79191833Y-69465217D01*
X79055826Y-69673393D01*
X78955936Y-69901118D01*
X78894892Y-70142175D01*
X78894890Y-70142187D01*
X78874357Y-70389994D01*
X78874357Y-70390005D01*
X78894890Y-70637812D01*
X78894892Y-70637824D01*
X78955936Y-70878881D01*
X79055826Y-71106606D01*
X79191833Y-71314782D01*
X79191836Y-71314785D01*
X79360256Y-71497738D01*
X79443008Y-71562147D01*
X79483821Y-71618857D01*
X79487496Y-71688630D01*
X79452864Y-71749313D01*
X79443014Y-71757848D01*
X79384400Y-71803469D01*
X79360257Y-71822261D01*
X79191833Y-72005217D01*
X79055826Y-72213393D01*
X78955936Y-72441118D01*
X78894892Y-72682175D01*
X78894890Y-72682187D01*
X78874357Y-72929994D01*
X78874357Y-72930005D01*
X78894890Y-73177812D01*
X78894892Y-73177824D01*
X78955936Y-73418881D01*
X79055826Y-73646606D01*
X79191833Y-73854782D01*
X79191836Y-73854785D01*
X79360256Y-74037738D01*
X79443008Y-74102147D01*
X79483821Y-74158857D01*
X79487496Y-74228630D01*
X79452864Y-74289313D01*
X79443014Y-74297848D01*
X79384400Y-74343469D01*
X79360257Y-74362261D01*
X79191833Y-74545217D01*
X79055826Y-74753393D01*
X78955936Y-74981118D01*
X78894892Y-75222175D01*
X78894890Y-75222187D01*
X78874357Y-75469994D01*
X78874357Y-75470005D01*
X78894890Y-75717812D01*
X78894892Y-75717824D01*
X78955936Y-75958881D01*
X79055826Y-76186606D01*
X79191833Y-76394782D01*
X79191836Y-76394785D01*
X79360256Y-76577738D01*
X79443008Y-76642147D01*
X79483821Y-76698857D01*
X79487496Y-76768630D01*
X79452864Y-76829313D01*
X79443014Y-76837848D01*
X79384400Y-76883469D01*
X79360257Y-76902261D01*
X79191833Y-77085217D01*
X79055826Y-77293393D01*
X78955936Y-77521118D01*
X78894892Y-77762175D01*
X78894890Y-77762187D01*
X78874357Y-78009994D01*
X78874357Y-78010005D01*
X78894890Y-78257812D01*
X78894892Y-78257824D01*
X78955936Y-78498881D01*
X79055826Y-78726606D01*
X79191833Y-78934782D01*
X79191836Y-78934785D01*
X79360256Y-79117738D01*
X79443008Y-79182147D01*
X79483821Y-79238857D01*
X79487496Y-79308630D01*
X79452864Y-79369313D01*
X79443014Y-79377848D01*
X79384400Y-79423469D01*
X79360257Y-79442261D01*
X79191833Y-79625217D01*
X79055826Y-79833393D01*
X78955936Y-80061118D01*
X78894892Y-80302175D01*
X78894890Y-80302187D01*
X78874357Y-80549994D01*
X78874357Y-80550005D01*
X78894890Y-80797812D01*
X78894892Y-80797824D01*
X78955936Y-81038881D01*
X79055826Y-81266606D01*
X79191833Y-81474782D01*
X79191836Y-81474785D01*
X79360256Y-81657738D01*
X79443010Y-81722148D01*
X79483821Y-81778855D01*
X79487496Y-81848628D01*
X79452865Y-81909311D01*
X79443009Y-81917852D01*
X79360258Y-81982260D01*
X79191833Y-82165217D01*
X79055826Y-82373393D01*
X78955936Y-82601118D01*
X78894892Y-82842175D01*
X78894890Y-82842187D01*
X78874357Y-83089994D01*
X78874357Y-83090005D01*
X78894890Y-83337812D01*
X78894892Y-83337824D01*
X78955936Y-83578881D01*
X79055826Y-83806606D01*
X79191833Y-84014782D01*
X79191836Y-84014785D01*
X79360256Y-84197738D01*
X79443008Y-84262147D01*
X79483821Y-84318857D01*
X79487496Y-84388630D01*
X79452864Y-84449313D01*
X79443014Y-84457848D01*
X79384400Y-84503469D01*
X79360257Y-84522261D01*
X79191833Y-84705217D01*
X79055826Y-84913393D01*
X78955936Y-85141118D01*
X78894892Y-85382175D01*
X78894890Y-85382187D01*
X78874357Y-85629994D01*
X78874357Y-85630005D01*
X78894890Y-85877812D01*
X78894892Y-85877824D01*
X78955936Y-86118881D01*
X79055826Y-86346606D01*
X79191833Y-86554782D01*
X79191836Y-86554785D01*
X79360256Y-86737738D01*
X79443010Y-86802148D01*
X79483821Y-86858855D01*
X79487496Y-86928628D01*
X79452865Y-86989311D01*
X79443009Y-86997852D01*
X79360258Y-87062260D01*
X79191833Y-87245217D01*
X79055826Y-87453393D01*
X78955936Y-87681118D01*
X78894892Y-87922175D01*
X78894890Y-87922187D01*
X78874357Y-88169994D01*
X78874357Y-88170005D01*
X78894890Y-88417812D01*
X78894892Y-88417824D01*
X78955936Y-88658881D01*
X79055826Y-88886606D01*
X79191833Y-89094782D01*
X79191836Y-89094785D01*
X79360256Y-89277738D01*
X79443008Y-89342147D01*
X79483821Y-89398857D01*
X79487496Y-89468630D01*
X79452864Y-89529313D01*
X79443014Y-89537848D01*
X79384400Y-89583469D01*
X79360257Y-89602261D01*
X79191833Y-89785217D01*
X79055826Y-89993393D01*
X78955936Y-90221118D01*
X78894892Y-90462175D01*
X78894890Y-90462187D01*
X78874357Y-90709994D01*
X78874357Y-90710005D01*
X78894890Y-90957812D01*
X78894892Y-90957824D01*
X78955936Y-91198881D01*
X79055826Y-91426606D01*
X79191833Y-91634782D01*
X79191836Y-91634785D01*
X79360256Y-91817738D01*
X79443010Y-91882148D01*
X79483821Y-91938855D01*
X79487496Y-92008628D01*
X79452865Y-92069311D01*
X79443009Y-92077852D01*
X79360258Y-92142260D01*
X79191833Y-92325217D01*
X79055826Y-92533393D01*
X78955936Y-92761118D01*
X78894892Y-93002175D01*
X78894890Y-93002187D01*
X78874357Y-93249994D01*
X78874357Y-93250005D01*
X78894890Y-93497812D01*
X78894892Y-93497824D01*
X78955936Y-93738881D01*
X79055826Y-93966606D01*
X79191833Y-94174782D01*
X79191836Y-94174785D01*
X79360256Y-94357738D01*
X79443008Y-94422147D01*
X79483821Y-94478857D01*
X79487496Y-94548630D01*
X79452864Y-94609313D01*
X79443014Y-94617848D01*
X79402349Y-94649500D01*
X79360257Y-94682261D01*
X79191833Y-94865217D01*
X79055826Y-95073393D01*
X78955936Y-95301118D01*
X78894892Y-95542175D01*
X78894890Y-95542187D01*
X78874357Y-95789994D01*
X78874357Y-95790005D01*
X78894890Y-96037812D01*
X78894892Y-96037824D01*
X78955936Y-96278881D01*
X79055826Y-96506606D01*
X79191833Y-96714782D01*
X79191836Y-96714785D01*
X79360256Y-96897738D01*
X79443010Y-96962148D01*
X79483821Y-97018855D01*
X79487496Y-97088628D01*
X79452865Y-97149311D01*
X79443009Y-97157852D01*
X79360258Y-97222260D01*
X79191833Y-97405217D01*
X79055826Y-97613393D01*
X78955936Y-97841118D01*
X78894892Y-98082175D01*
X78894890Y-98082187D01*
X78874357Y-98329994D01*
X78874357Y-98330005D01*
X78894890Y-98577812D01*
X78894892Y-98577824D01*
X78955936Y-98818881D01*
X79055826Y-99046606D01*
X79191833Y-99254782D01*
X79191836Y-99254785D01*
X79360256Y-99437738D01*
X79443008Y-99502147D01*
X79483821Y-99558857D01*
X79487496Y-99628630D01*
X79452864Y-99689313D01*
X79443014Y-99697848D01*
X79429426Y-99708425D01*
X79360257Y-99762261D01*
X79191833Y-99945217D01*
X79055826Y-100153393D01*
X78955936Y-100381118D01*
X78894892Y-100622175D01*
X78894890Y-100622187D01*
X78874357Y-100869994D01*
X78874357Y-100870005D01*
X78894890Y-101117812D01*
X78894892Y-101117824D01*
X78955936Y-101358881D01*
X79055826Y-101586606D01*
X79191833Y-101794782D01*
X79191836Y-101794785D01*
X79360256Y-101977738D01*
X79443010Y-102042148D01*
X79483821Y-102098855D01*
X79487496Y-102168628D01*
X79452865Y-102229311D01*
X79443009Y-102237852D01*
X79360258Y-102302260D01*
X79191833Y-102485217D01*
X79055826Y-102693393D01*
X78955936Y-102921118D01*
X78894892Y-103162175D01*
X78894890Y-103162187D01*
X78874357Y-103409994D01*
X78874357Y-103410005D01*
X76779188Y-103410005D01*
X76400723Y-38124718D01*
X76420019Y-38057566D01*
X76472557Y-38011506D01*
X76524721Y-38000000D01*
X157075641Y-38000000D01*
X157142680Y-38019685D01*
G37*
%TD.AperFunction*%
%TD*%
M02*
