M48
; DRILL file {KiCad 7.0.7} date Wed Jan 17 14:09:04 2024
; FORMAT={-:-/ absolute / inch / decimal}
; #@! TF.CreationDate,2024-01-17T14:09:04-05:00
; #@! TF.GenerationSoftware,Kicad,Pcbnew,7.0.7
; #@! TF.FileFunction,Plated,1,4,PTH
FMAT,2
INCH
; #@! TA.AperFunction,Plated,PTH,ComponentDrill
T1C0.0300
; #@! TA.AperFunction,Plated,PTH,ComponentDrill
T2C0.0394
; #@! TA.AperFunction,Plated,PTH,ComponentDrill
T3C0.0402
; #@! TA.AperFunction,Plated,PTH,ComponentDrill
T4C0.0512
%
G90
G05
T1
X5.3583Y-1.9587
X5.6535Y-1.9587
T2
X4.2362Y-3.7795
X4.2362Y-3.8795
X4.2362Y-3.9795
X4.2362Y-4.0795
X4.5118Y-3.7795
X4.5118Y-3.8795
X4.5118Y-3.9795
X4.5118Y-4.0795
X4.7795Y-3.7795
X4.7795Y-3.8795
X4.7795Y-3.9795
X4.7795Y-4.0795
T3
X3.1646Y-1.7713
X3.1646Y-1.8713
X3.1646Y-1.9713
X3.1646Y-2.0713
X3.1646Y-2.1713
X3.1646Y-2.2713
X3.1646Y-2.3713
X3.1646Y-2.4713
X3.1646Y-2.5713
X3.1646Y-2.6713
X3.1646Y-2.7713
X3.1646Y-2.8713
X3.1646Y-2.9713
X3.1646Y-3.0713
X3.1646Y-3.1713
X3.1646Y-3.2713
X3.1646Y-3.3713
X3.1646Y-3.4713
X3.1646Y-3.5713
X3.1646Y-3.6713
X3.1646Y-3.7713
X3.1646Y-3.8713
X3.1646Y-3.9713
X3.1646Y-4.0713
X3.7646Y-1.7713
X3.7646Y-1.8713
X3.7646Y-1.9713
X3.7646Y-2.0713
X3.7646Y-2.1713
X3.7646Y-2.2713
X3.7646Y-2.3713
X3.7646Y-2.4713
X3.7646Y-2.5713
X3.7646Y-2.6713
X3.7646Y-2.7713
X3.7646Y-2.8713
X3.7646Y-2.9713
X3.7646Y-3.0713
X3.7646Y-3.1713
X3.7646Y-3.2713
X3.7646Y-3.3713
X3.7646Y-3.4713
X3.7646Y-3.5713
X3.7646Y-3.6713
X3.7646Y-3.7713
X3.7646Y-3.8713
X3.7646Y-3.9713
X3.7646Y-4.0713
T4
X4.5079Y-1.8504
X4.6457Y-1.8504
T0
M30
