<?xml version="1.0" encoding="UTF-8" standalone="no"?>
<!-- Created with Inkscape (http://www.inkscape.org/) -->

<svg
   width="151.35576mm"
   height="151.35576mm"
   viewBox="0 0 151.35576 151.35576"
   version="1.1"
   id="svg5"
   sodipodi:docname="logo3.svg"
   inkscape:export-filename="D:\Productivity\Projects\terp-rockets-ground-station\assets\logo3.png"
   inkscape:export-xdpi="171.84413"
   inkscape:export-ydpi="171.84413"
   inkscape:version="1.1.1 (3bf5ae0d25, 2021-09-20)"
   xmlns:inkscape="http://www.inkscape.org/namespaces/inkscape"
   xmlns:sodipodi="http://sodipodi.sourceforge.net/DTD/sodipodi-0.dtd"
   xmlns="http://www.w3.org/2000/svg"
   xmlns:svg="http://www.w3.org/2000/svg">
  <sodipodi:namedview
     id="namedview7"
     pagecolor="#ffffff"
     bordercolor="#666666"
     borderopacity="1.0"
     inkscape:pageshadow="2"
     inkscape:pageopacity="0.0"
     inkscape:pagecheckerboard="0"
     inkscape:document-units="mm"
     showgrid="false"
     inkscape:zoom="1"
     inkscape:cx="304"
     inkscape:cy="210.5"
     inkscape:window-width="1920"
     inkscape:window-height="1017"
     inkscape:window-x="-8"
     inkscape:window-y="-8"
     inkscape:window-maximized="1"
     inkscape:current-layer="layer1" />
  <defs
     id="defs2">
    <inkscape:path-effect
       effect="powerclip"
       id="path-effect1033"
       is_visible="true"
       lpeversion="1"
       inverse="true"
       flatten="false"
       hide_clip="false"
       message="Use fill-rule evenodd on &lt;b&gt;fill and stroke&lt;/b&gt; dialog if no flatten result after convert clip to paths." />
    <inkscape:path-effect
       effect="powerclip"
       id="path-effect3253"
       is_visible="true"
       lpeversion="1"
       inverse="true"
       flatten="false"
       hide_clip="false"
       message="Use fill-rule evenodd on &lt;b&gt;fill and stroke&lt;/b&gt; dialog if no flatten result after convert clip to paths." />
    <inkscape:path-effect
       effect="powerclip"
       id="path-effect1960"
       is_visible="true"
       lpeversion="1"
       inverse="true"
       flatten="false"
       hide_clip="false"
       message="Use fill-rule evenodd on &lt;b&gt;fill and stroke&lt;/b&gt; dialog if no flatten result after convert clip to paths." />
    <inkscape:path-effect
       effect="powerclip"
       id="path-effect1801"
       is_visible="true"
       lpeversion="1"
       inverse="true"
       flatten="false"
       hide_clip="false"
       message="Use fill-rule evenodd on &lt;b&gt;fill and stroke&lt;/b&gt; dialog if no flatten result after convert clip to paths." />
    <inkscape:path-effect
       effect="powerclip"
       id="path-effect1791"
       is_visible="true"
       lpeversion="1"
       inverse="true"
       flatten="false"
       hide_clip="false"
       message="Use fill-rule evenodd on &lt;b&gt;fill and stroke&lt;/b&gt; dialog if no flatten result after convert clip to paths." />
    <inkscape:path-effect
       effect="powerclip"
       id="path-effect1446"
       is_visible="true"
       lpeversion="1"
       inverse="true"
       flatten="false"
       hide_clip="false"
       message="Use fill-rule evenodd on &lt;b&gt;fill and stroke&lt;/b&gt; dialog if no flatten result after convert clip to paths." />
    <inkscape:path-effect
       effect="powerclip"
       id="path-effect1436"
       is_visible="true"
       lpeversion="1"
       inverse="true"
       flatten="false"
       hide_clip="false"
       message="Use fill-rule evenodd on &lt;b&gt;fill and stroke&lt;/b&gt; dialog if no flatten result after convert clip to paths." />
    <inkscape:path-effect
       effect="powerclip"
       id="path-effect1321"
       is_visible="true"
       lpeversion="1"
       inverse="true"
       flatten="false"
       hide_clip="false"
       message="Use fill-rule evenodd on &lt;b&gt;fill and stroke&lt;/b&gt; dialog if no flatten result after convert clip to paths." />
    <inkscape:path-effect
       effect="powerclip"
       id="path-effect1303"
       is_visible="true"
       lpeversion="1"
       inverse="true"
       flatten="false"
       hide_clip="false"
       message="Use fill-rule evenodd on &lt;b&gt;fill and stroke&lt;/b&gt; dialog if no flatten result after convert clip to paths." />
    <inkscape:path-effect
       effect="powerclip"
       id="path-effect1293"
       is_visible="true"
       lpeversion="1"
       inverse="true"
       flatten="false"
       hide_clip="false"
       message="Use fill-rule evenodd on &lt;b&gt;fill and stroke&lt;/b&gt; dialog if no flatten result after convert clip to paths." />
    <inkscape:path-effect
       effect="powerclip"
       id="path-effect1088"
       is_visible="true"
       lpeversion="1"
       inverse="true"
       flatten="false"
       hide_clip="false"
       message="Use fill-rule evenodd on &lt;b&gt;fill and stroke&lt;/b&gt; dialog if no flatten result after convert clip to paths." />
    <inkscape:path-effect
       effect="powerclip"
       id="path-effect1080"
       is_visible="true"
       lpeversion="1"
       inverse="true"
       flatten="false"
       hide_clip="false"
       message="Use fill-rule evenodd on &lt;b&gt;fill and stroke&lt;/b&gt; dialog if no flatten result after convert clip to paths." />
    <inkscape:path-effect
       effect="powerclip"
       id="path-effect1068"
       is_visible="true"
       lpeversion="1"
       inverse="true"
       flatten="false"
       hide_clip="false"
       message="Use fill-rule evenodd on &lt;b&gt;fill and stroke&lt;/b&gt; dialog if no flatten result after convert clip to paths." />
    <inkscape:path-effect
       effect="powerclip"
       id="path-effect1058"
       is_visible="true"
       lpeversion="1"
       inverse="true"
       flatten="false"
       hide_clip="false"
       message="Use fill-rule evenodd on &lt;b&gt;fill and stroke&lt;/b&gt; dialog if no flatten result after convert clip to paths." />
    <inkscape:path-effect
       effect="powerclip"
       id="path-effect1048"
       is_visible="true"
       lpeversion="1"
       inverse="true"
       flatten="false"
       hide_clip="false"
       message="Use fill-rule evenodd on &lt;b&gt;fill and stroke&lt;/b&gt; dialog if no flatten result after convert clip to paths." />
    <inkscape:path-effect
       effect="powerclip"
       id="path-effect1024"
       is_visible="true"
       lpeversion="1"
       inverse="true"
       flatten="false"
       hide_clip="false"
       message="Use fill-rule evenodd on &lt;b&gt;fill and stroke&lt;/b&gt; dialog if no flatten result after convert clip to paths." />
    <inkscape:path-effect
       effect="powerclip"
       id="path-effect913"
       is_visible="true"
       lpeversion="1"
       inverse="true"
       flatten="false"
       hide_clip="false"
       message="Use fill-rule evenodd on &lt;b&gt;fill and stroke&lt;/b&gt; dialog if no flatten result after convert clip to paths." />
    <inkscape:path-effect
       effect="powerclip"
       id="path-effect880"
       is_visible="true"
       lpeversion="1"
       inverse="true"
       flatten="false"
       hide_clip="false"
       message="Use fill-rule evenodd on &lt;b&gt;fill and stroke&lt;/b&gt; dialog if no flatten result after convert clip to paths." />
    <inkscape:path-effect
       effect="powerclip"
       id="path-effect858"
       is_visible="true"
       lpeversion="1"
       inverse="true"
       flatten="false"
       hide_clip="false"
       message="Use fill-rule evenodd on &lt;b&gt;fill and stroke&lt;/b&gt; dialog if no flatten result after convert clip to paths." />
    <clipPath
       clipPathUnits="userSpaceOnUse"
       id="clipPath854">
      <path
         style="color:#000000;display:none;fill:#ffffff;stroke-width:1;stroke-linecap:square;stroke-linejoin:bevel;-inkscape-stroke:none"
         d="m 174.73828,81.386719 c -0.51408,0.0044 -0.9489,0.116973 -1.40039,0.273437 -0.90298,0.312929 -1.87992,0.837951 -3.07031,1.583985 -2.38079,1.492068 -5.55884,3.887767 -9.59766,7.251953 -8.07764,6.728372 -19.55311,17.313426 -34.27148,31.974606 l -0.01,0.01 -70.189454,71.01953 0.01367,2.4043 8.001953,7.9082 2.404297,-0.0137 70.189444,-71.01953 0.0137,-0.0156 c 14.44391,-14.96939 24.85156,-26.62011 31.45117,-34.80469 3.2998,-4.092284 5.64547,-7.306366 7.09765,-9.708983 0.72609,-1.201309 1.2339,-2.186051 1.53125,-3.09375 0.14868,-0.453849 0.25332,-0.889176 0.24805,-1.404297 -0.005,-0.515121 -0.17001,-1.204678 -0.68945,-1.712891 -0.51944,-0.508212 -1.20857,-0.656779 -1.72266,-0.652343 z m -1.88281,4.324218 c -0.15996,0.297638 -0.18152,0.428822 -0.39453,0.78125 -1.3053,2.159601 -3.58776,5.30814 -6.83399,9.333985 -6.49245,8.051688 -16.85157,19.655878 -31.25,34.578128 l -68.982418,69.79492 -5.582031,-5.51758 68.994139,-69.81055 c 14.66707,-14.60968 26.09427,-25.145963 34.03906,-31.763668 3.97331,-3.309611 7.08575,-5.642698 9.22657,-6.984375 0.35251,-0.220926 0.48558,-0.246027 0.7832,-0.41211 z"
         id="path856" />
      <path
         id="lpe_path-effect858"
         style="color:#000000;fill:#ffffff;stroke-width:1;stroke-linecap:square;stroke-linejoin:bevel;-inkscape-stroke:none"
         class="powerclip"
         d="M 52.40787,78.085584 H 180.45142 V 207.60347 H 52.40787 Z m 122.33041,3.301135 c -0.51408,0.0044 -0.9489,0.116973 -1.40039,0.273437 -0.90298,0.312929 -1.87992,0.837951 -3.07031,1.583985 -2.38079,1.492068 -5.55884,3.887767 -9.59766,7.251953 -8.07764,6.728372 -19.55311,17.313426 -34.27148,31.974606 l -0.01,0.01 -70.189454,71.01953 0.01367,2.4043 8.001953,7.9082 2.404297,-0.0137 70.189444,-71.01953 0.0137,-0.0156 c 14.44391,-14.96939 24.85156,-26.62011 31.45117,-34.80469 3.2998,-4.092284 5.64547,-7.306366 7.09765,-9.708983 0.72609,-1.201309 1.2339,-2.186051 1.53125,-3.09375 0.14868,-0.453849 0.25332,-0.889176 0.24805,-1.404297 -0.005,-0.515121 -0.17001,-1.204678 -0.68945,-1.712891 -0.51944,-0.508212 -1.20857,-0.656779 -1.72266,-0.652343 z m -1.88281,4.324218 c -0.29762,0.166083 -0.43069,0.191184 -0.7832,0.41211 -2.14082,1.341677 -5.25326,3.674764 -9.22657,6.984375 -7.94479,6.617705 -19.37199,17.153988 -34.03906,31.763668 l -68.994139,69.81055 5.582031,5.51758 68.982418,-69.79492 c 14.39843,-14.92225 24.75755,-26.52644 31.25,-34.578128 3.24623,-4.025845 5.52869,-7.174384 6.83399,-9.333985 0.21301,-0.352428 0.23457,-0.483612 0.39453,-0.78125 z" />
    </clipPath>
    <clipPath
       clipPathUnits="userSpaceOnUse"
       id="clipPath876">
      <path
         style="color:#000000;display:none;fill:#ffffff;stroke-width:1;stroke-linecap:square;stroke-linejoin:bevel;-inkscape-stroke:none"
         d="m 174.73828,81.386719 c -0.51408,0.0044 -0.9489,0.116973 -1.40039,0.273437 -0.90298,0.312929 -1.87992,0.837951 -3.07031,1.583985 -2.38079,1.492068 -5.55884,3.887767 -9.59766,7.251953 -8.07764,6.728372 -19.55311,17.313426 -34.27148,31.974606 l -0.01,0.01 -70.189454,71.01953 0.01367,2.4043 8.001953,7.9082 2.404297,-0.0137 70.189444,-71.01953 0.0137,-0.0156 c 14.44391,-14.96939 24.85156,-26.62011 31.45117,-34.80469 3.2998,-4.092284 5.64547,-7.306366 7.09765,-9.708983 0.72609,-1.201309 1.2339,-2.186051 1.53125,-3.09375 0.14868,-0.453849 0.25332,-0.889176 0.24805,-1.404297 -0.005,-0.515121 -0.17001,-1.204678 -0.68945,-1.712891 -0.51944,-0.508212 -1.20857,-0.656779 -1.72266,-0.652343 z m -1.88281,4.324218 c -0.15996,0.297638 -0.18152,0.428822 -0.39453,0.78125 -1.3053,2.159601 -3.58776,5.30814 -6.83399,9.333985 -6.49245,8.051688 -16.85157,19.655878 -31.25,34.578128 l -68.982418,69.79492 -5.582031,-5.51758 68.994139,-69.81055 c 14.66707,-14.60968 26.09427,-25.145963 34.03906,-31.763668 3.97331,-3.309611 7.08575,-5.642698 9.22657,-6.984375 0.35251,-0.220926 0.48558,-0.246027 0.7832,-0.41211 z"
         id="path878" />
      <path
         id="lpe_path-effect880"
         style="color:#000000;fill:#ffffff;stroke-width:1;stroke-linecap:square;stroke-linejoin:bevel;-inkscape-stroke:none"
         class="powerclip"
         d="m 61.710399,131.33029 h 47.095071 v 39.24825 H 61.710399 Z m 10e-7,0 v 26.9875 h 16.933332 v -26.9875 z" />
    </clipPath>
    <clipPath
       clipPathUnits="userSpaceOnUse"
       id="clipPath909">
      <path
         style="color:#000000;display:none;fill:#ffffff;stroke-width:1;stroke-linecap:square;stroke-linejoin:bevel;-inkscape-stroke:none"
         d="m 174.73828,81.386719 c -0.51408,0.0044 -0.9489,0.116973 -1.40039,0.273437 -0.90298,0.312929 -1.87992,0.837951 -3.07031,1.583985 -2.38079,1.492068 -5.55884,3.887767 -9.59766,7.251953 -8.07764,6.728372 -19.55311,17.313426 -34.27148,31.974606 l -0.01,0.01 -70.189454,71.01953 0.01367,2.4043 8.001953,7.9082 2.404297,-0.0137 70.189444,-71.01953 0.0137,-0.0156 c 14.44391,-14.96939 24.85156,-26.62011 31.45117,-34.80469 3.2998,-4.092284 5.64547,-7.306366 7.09765,-9.708983 0.72609,-1.201309 1.2339,-2.186051 1.53125,-3.09375 0.14868,-0.453849 0.25332,-0.889176 0.24805,-1.404297 -0.005,-0.515121 -0.17001,-1.204678 -0.68945,-1.712891 -0.51944,-0.508212 -1.20857,-0.656779 -1.72266,-0.652343 z m -1.88281,4.324218 c -0.15996,0.297638 -0.18152,0.428822 -0.39453,0.78125 -1.3053,2.159601 -3.58776,5.30814 -6.83399,9.333985 -6.49245,8.051688 -16.85157,19.655878 -31.25,34.578128 l -68.982418,69.79492 -5.582031,-5.51758 68.994139,-69.81055 c 14.66707,-14.60968 26.09427,-25.145963 34.03906,-31.763668 3.97331,-3.309611 7.08575,-5.642698 9.22657,-6.984375 0.35251,-0.220926 0.48558,-0.246027 0.7832,-0.41211 z"
         id="path911" />
      <path
         id="lpe_path-effect913"
         style="color:#000000;fill:#ffffff;stroke-width:1;stroke-linecap:square;stroke-linejoin:bevel;-inkscape-stroke:none"
         class="powerclip"
         d="m 108.40434,85.982858 h 56.2869 v 53.211012 h -56.2869 z m 66.33394,-4.596139 c -0.51408,0.0044 -0.9489,0.116973 -1.40039,0.273437 -0.90298,0.312929 -1.87992,0.837951 -3.07031,1.583985 -2.38079,1.492068 -5.55884,3.887767 -9.59766,7.251953 -8.07764,6.728372 -19.55311,17.313426 -34.27148,31.974606 l -0.01,0.01 -70.189454,71.01953 0.01367,2.4043 8.001953,7.9082 2.404297,-0.0137 70.189444,-71.01953 0.0137,-0.0156 c 14.44391,-14.96939 24.85156,-26.62011 31.45117,-34.80469 3.2998,-4.092284 5.64547,-7.306366 7.09765,-9.708983 0.72609,-1.201309 1.2339,-2.186051 1.53125,-3.09375 0.14868,-0.453849 0.25332,-0.889176 0.24805,-1.404297 -0.005,-0.515121 -0.17001,-1.204678 -0.68945,-1.712891 -0.51944,-0.508212 -1.20857,-0.656779 -1.72266,-0.652343 z m -1.88281,4.324218 c -0.29762,0.166083 -0.43069,0.191184 -0.7832,0.41211 -2.14082,1.341677 -5.25326,3.674764 -9.22657,6.984375 -7.94479,6.617705 -19.37199,17.153988 -34.03906,31.763668 l -68.994139,69.81055 5.582031,5.51758 68.982418,-69.79492 c 14.39843,-14.92225 24.75755,-26.52644 31.25,-34.578128 3.24623,-4.025845 5.52869,-7.174384 6.83399,-9.333985 0.21301,-0.352428 0.23457,-0.483612 0.39453,-0.78125 z" />
    </clipPath>
    <clipPath
       clipPathUnits="userSpaceOnUse"
       id="clipPath1020">
      <path
         style="color:#000000;display:none;fill:#ffffff;stroke-width:1;stroke-linecap:square;stroke-linejoin:bevel;-inkscape-stroke:none"
         d="m 174.73828,81.386719 c -0.51408,0.0044 -0.9489,0.116973 -1.40039,0.273437 -0.90298,0.312929 -1.87992,0.837951 -3.07031,1.583985 -2.38079,1.492068 -5.55884,3.887767 -9.59766,7.251953 -8.07764,6.728372 -19.55311,17.313426 -34.27148,31.974606 l -0.01,0.01 -70.189454,71.01953 0.01367,2.4043 8.001953,7.9082 2.404297,-0.0137 70.189444,-71.01953 0.0137,-0.0156 c 14.44391,-14.96939 24.85156,-26.62011 31.45117,-34.80469 3.2998,-4.092284 5.64547,-7.306366 7.09765,-9.708983 0.72609,-1.201309 1.2339,-2.186051 1.53125,-3.09375 0.14868,-0.453849 0.25332,-0.889176 0.24805,-1.404297 -0.005,-0.515121 -0.17001,-1.204678 -0.68945,-1.712891 -0.51944,-0.508212 -1.20857,-0.656779 -1.72266,-0.652343 z m -1.88281,4.324218 c -0.15996,0.297638 -0.18152,0.428822 -0.39453,0.78125 -1.3053,2.159601 -3.58776,5.30814 -6.83399,9.333985 -6.49245,8.051688 -16.85157,19.655878 -31.25,34.578128 l -68.982418,69.79492 -5.582031,-5.51758 68.994139,-69.81055 c 14.66707,-14.60968 26.09427,-25.145963 34.03906,-31.763668 3.97331,-3.309611 7.08575,-5.642698 9.22657,-6.984375 0.35251,-0.220926 0.48558,-0.246027 0.7832,-0.41211 z"
         id="path1022" />
      <path
         id="lpe_path-effect1024"
         style="color:#000000;fill:#ffffff;stroke-width:1;stroke-linecap:square;stroke-linejoin:bevel;-inkscape-stroke:none"
         class="powerclip"
         d="m 157.52427,85.983829 h 24.54721 v 23.765521 h -24.54721 z m 17.21401,-4.59711 c -0.51408,0.0044 -0.9489,0.116973 -1.40039,0.273437 -0.90298,0.312929 -1.87992,0.837951 -3.07031,1.583985 -2.38079,1.492068 -5.55884,3.887767 -9.59766,7.251953 -8.07764,6.728372 -19.55311,17.313426 -34.27148,31.974606 l -0.01,0.01 -70.189454,71.01953 0.01367,2.4043 8.001953,7.9082 2.404297,-0.0137 70.189444,-71.01953 0.0137,-0.0156 c 14.44391,-14.96939 24.85156,-26.62011 31.45117,-34.80469 3.2998,-4.092284 5.64547,-7.306366 7.09765,-9.708983 0.72609,-1.201309 1.2339,-2.186051 1.53125,-3.09375 0.14868,-0.453849 0.25332,-0.889176 0.24805,-1.404297 -0.005,-0.515121 -0.17001,-1.204678 -0.68945,-1.712891 -0.51944,-0.508212 -1.20857,-0.656779 -1.72266,-0.652343 z m -1.88281,4.324218 c -0.29762,0.166083 -0.43069,0.191184 -0.7832,0.41211 -2.14082,1.341677 -5.25326,3.674764 -9.22657,6.984375 -7.94479,6.617705 -19.37199,17.153988 -34.03906,31.763668 l -68.994139,69.81055 5.582031,5.51758 68.982418,-69.79492 c 14.39843,-14.92225 24.75755,-26.52644 31.25,-34.578128 3.24623,-4.025845 5.52869,-7.174384 6.83399,-9.333985 0.21301,-0.352428 0.23457,-0.483612 0.39453,-0.78125 z" />
    </clipPath>
    <clipPath
       clipPathUnits="userSpaceOnUse"
       id="clipPath1044">
      <path
         style="color:#000000;display:none;fill:#ffffff;stroke-width:1;stroke-linecap:square;stroke-linejoin:bevel;-inkscape-stroke:none"
         d="m 174.73828,81.386719 c -0.51408,0.0044 -0.9489,0.116973 -1.40039,0.273437 -0.90298,0.312929 -1.87992,0.837951 -3.07031,1.583985 -2.38079,1.492068 -5.55884,3.887767 -9.59766,7.251953 -8.07764,6.728372 -19.55311,17.313426 -34.27148,31.974606 l -0.01,0.01 -70.189454,71.01953 0.01367,2.4043 8.001953,7.9082 2.404297,-0.0137 70.189444,-71.01953 0.0137,-0.0156 c 14.44391,-14.96939 24.85156,-26.62011 31.45117,-34.80469 3.2998,-4.092284 5.64547,-7.306366 7.09765,-9.708983 0.72609,-1.201309 1.2339,-2.186051 1.53125,-3.09375 0.14868,-0.453849 0.25332,-0.889176 0.24805,-1.404297 -0.005,-0.515121 -0.17001,-1.204678 -0.68945,-1.712891 -0.51944,-0.508212 -1.20857,-0.656779 -1.72266,-0.652343 z m -1.88281,4.324218 c -0.15996,0.297638 -0.18152,0.428822 -0.39453,0.78125 -1.3053,2.159601 -3.58776,5.30814 -6.83399,9.333985 -6.49245,8.051688 -16.85157,19.655878 -31.25,34.578128 l -68.982418,69.79492 -5.582031,-5.51758 68.994139,-69.81055 c 14.66707,-14.60968 26.09427,-25.145963 34.03906,-31.763668 3.97331,-3.309611 7.08575,-5.642698 9.22657,-6.984375 0.35251,-0.220926 0.48558,-0.246027 0.7832,-0.41211 z"
         id="path1046" />
      <path
         id="lpe_path-effect1048"
         style="color:#000000;fill:#ffffff;stroke-width:1;stroke-linecap:square;stroke-linejoin:bevel;-inkscape-stroke:none"
         class="powerclip"
         d="m 111.98243,126.98949 h 74.89426 v 75.21723 h -74.89426 z m 62.75585,-45.602771 c -0.51408,0.0044 -0.9489,0.116973 -1.40039,0.273437 -0.90298,0.312929 -1.87992,0.837951 -3.07031,1.583985 -2.38079,1.492068 -5.55884,3.887767 -9.59766,7.251953 -8.07764,6.728372 -19.55311,17.313426 -34.27148,31.974606 l -0.01,0.01 -70.189454,71.01953 0.01367,2.4043 8.001953,7.9082 2.404297,-0.0137 70.189444,-71.01953 0.0137,-0.0156 c 14.44391,-14.96939 24.85156,-26.62011 31.45117,-34.80469 3.2998,-4.092284 5.64547,-7.306366 7.09765,-9.708983 0.72609,-1.201309 1.2339,-2.186051 1.53125,-3.09375 0.14868,-0.453849 0.25332,-0.889176 0.24805,-1.404297 -0.005,-0.515121 -0.17001,-1.204678 -0.68945,-1.712891 -0.51944,-0.508212 -1.20857,-0.656779 -1.72266,-0.652343 z m -1.88281,4.324218 c -0.29762,0.166083 -0.43069,0.191184 -0.7832,0.41211 -2.14082,1.341677 -5.25326,3.674764 -9.22657,6.984375 -7.94479,6.617705 -19.37199,17.153988 -34.03906,31.763668 l -68.994139,69.81055 5.582031,5.51758 68.982418,-69.79492 c 14.39843,-14.92225 24.75755,-26.52644 31.25,-34.578128 3.24623,-4.025845 5.52869,-7.174384 6.83399,-9.333985 0.21301,-0.352428 0.23457,-0.483612 0.39453,-0.78125 z" />
    </clipPath>
    <clipPath
       clipPathUnits="userSpaceOnUse"
       id="clipPath1054">
      <path
         style="color:#000000;display:none;fill:#ffffff;stroke-width:1;stroke-linecap:square;stroke-linejoin:bevel;-inkscape-stroke:none"
         d="m 174.73828,81.386719 c -0.51408,0.0044 -0.9489,0.116973 -1.40039,0.273437 -0.90298,0.312929 -1.87992,0.837951 -3.07031,1.583985 -2.38079,1.492068 -5.55884,3.887767 -9.59766,7.251953 -8.07764,6.728372 -19.55311,17.313426 -34.27148,31.974606 l -0.01,0.01 -70.189454,71.01953 0.01367,2.4043 8.001953,7.9082 2.404297,-0.0137 70.189444,-71.01953 0.0137,-0.0156 c 14.44391,-14.96939 24.85156,-26.62011 31.45117,-34.80469 3.2998,-4.092284 5.64547,-7.306366 7.09765,-9.708983 0.72609,-1.201309 1.2339,-2.186051 1.53125,-3.09375 0.14868,-0.453849 0.25332,-0.889176 0.24805,-1.404297 -0.005,-0.515121 -0.17001,-1.204678 -0.68945,-1.712891 -0.51944,-0.508212 -1.20857,-0.656779 -1.72266,-0.652343 z m -1.88281,4.324218 c -0.15996,0.297638 -0.18152,0.428822 -0.39453,0.78125 -1.3053,2.159601 -3.58776,5.30814 -6.83399,9.333985 -6.49245,8.051688 -16.85157,19.655878 -31.25,34.578128 l -68.982418,69.79492 -5.582031,-5.51758 68.994139,-69.81055 c 14.66707,-14.60968 26.09427,-25.145963 34.03906,-31.763668 3.97331,-3.309611 7.08575,-5.642698 9.22657,-6.984375 0.35251,-0.220926 0.48558,-0.246027 0.7832,-0.41211 z"
         id="path1056" />
      <path
         id="lpe_path-effect1058"
         style="color:#000000;fill:#ffffff;stroke-width:1;stroke-linecap:square;stroke-linejoin:bevel;-inkscape-stroke:none"
         class="powerclip"
         d="m 81.03686,160.63147 h 27.64485 v 41.03834 H 81.03686 Z m 16.029546,8.09119 -32.849608,32.66992 -0.0059,0.006 a 1.699605,1.699605 0 0 0 -0.22461,0.54101 1.699605,1.699605 0 0 0 -0.275391,0.65039 1.699605,1.699605 0 0 0 0.0021,0.002 1.699605,1.699605 0 0 0 0.492189,1.21093 1.699605,1.699605 0 0 0 0.701172,0.002 1.699605,1.699605 0 0 0 0.490233,0.49804 l 13.679689,0.10547 12.09375,-12.09375 z m -6.257811,11.01757 -21.3125,21.19532 8.181639,0.0625 10.421874,-10.42188 z" />
    </clipPath>
    <clipPath
       clipPathUnits="userSpaceOnUse"
       id="clipPath1064">
      <path
         style="color:#000000;display:none;fill:#ffffff;stroke-width:1;stroke-linecap:square;stroke-linejoin:bevel;-inkscape-stroke:none"
         d="m 174.73828,81.386719 c -0.51408,0.0044 -0.9489,0.116973 -1.40039,0.273437 -0.90298,0.312929 -1.87992,0.837951 -3.07031,1.583985 -2.38079,1.492068 -5.55884,3.887767 -9.59766,7.251953 -8.07764,6.728372 -19.55311,17.313426 -34.27148,31.974606 l -0.01,0.01 -70.189454,71.01953 0.01367,2.4043 8.001953,7.9082 2.404297,-0.0137 70.189444,-71.01953 0.0137,-0.0156 c 14.44391,-14.96939 24.85156,-26.62011 31.45117,-34.80469 3.2998,-4.092284 5.64547,-7.306366 7.09765,-9.708983 0.72609,-1.201309 1.2339,-2.186051 1.53125,-3.09375 0.14868,-0.453849 0.25332,-0.889176 0.24805,-1.404297 -0.005,-0.515121 -0.17001,-1.204678 -0.68945,-1.712891 -0.51944,-0.508212 -1.20857,-0.656779 -1.72266,-0.652343 z m -1.88281,4.324218 c -0.15996,0.297638 -0.18152,0.428822 -0.39453,0.78125 -1.3053,2.159601 -3.58776,5.30814 -6.83399,9.333985 -6.49245,8.051688 -16.85157,19.655878 -31.25,34.578128 l -68.982418,69.79492 -5.582031,-5.51758 68.994139,-69.81055 c 14.66707,-14.60968 26.09427,-25.145963 34.03906,-31.763668 3.97331,-3.309611 7.08575,-5.642698 9.22657,-6.984375 0.35251,-0.220926 0.48558,-0.246027 0.7832,-0.41211 z"
         id="path1066" />
      <path
         id="lpe_path-effect1068"
         style="color:#000000;fill:#ffffff;stroke-width:1;stroke-linecap:square;stroke-linejoin:bevel;-inkscape-stroke:none"
         class="powerclip"
         d="M 31.577806,84.629529 H 108.02055 V 202.53043 H 31.577806 Z m 35.785475,84.638051 -11.759765,11.76172 0.109375,14.38086 8.501954,8.40234 2.390624,-2.41797 -7.503907,-7.41406 -0.08789,-11.55469 10.753907,-10.75391 z" />
    </clipPath>
    <clipPath
       clipPathUnits="userSpaceOnUse"
       id="clipPath1076">
      <path
         id="lpe_path-effect1080"
         style="color:#000000;fill:#ffffff;stroke-width:1;stroke-linecap:square;stroke-linejoin:bevel;-inkscape-stroke:none"
         class="powerclip"
         d="m 50.608615,159.51788 h 41.376774 v 41.87686 H 50.608615 Z M 174.73828,81.386719 c -0.51408,0.0044 -0.9489,0.116973 -1.40039,0.273437 -0.90298,0.312929 -1.87992,0.837951 -3.07031,1.583985 -2.38079,1.492068 -5.55884,3.887767 -9.59766,7.251953 -8.07764,6.728372 -19.55311,17.313426 -34.27148,31.974606 l -0.01,0.01 -70.189454,71.01953 0.01367,2.4043 8.001953,7.9082 2.404297,-0.0137 70.189444,-71.01953 0.0137,-0.0156 c 14.44391,-14.96939 24.85156,-26.62011 31.45117,-34.80469 3.2998,-4.092284 5.64547,-7.306366 7.09765,-9.708983 0.72609,-1.201309 1.2339,-2.186051 1.53125,-3.09375 0.14868,-0.453849 0.25332,-0.889176 0.24805,-1.404297 -0.005,-0.515121 -0.17001,-1.204678 -0.68945,-1.712891 -0.51944,-0.508212 -1.20857,-0.656779 -1.72266,-0.652343 z m -1.88281,4.324218 c -0.29762,0.166083 -0.43069,0.191184 -0.7832,0.41211 -2.14082,1.341677 -5.25326,3.674764 -9.22657,6.984375 -7.94479,6.617705 -19.37199,17.153988 -34.03906,31.763668 l -68.994139,69.81055 5.582031,5.51758 68.982418,-69.79492 c 14.39843,-14.92225 24.75755,-26.52644 31.25,-34.578128 3.24623,-4.025845 5.52869,-7.174384 6.83399,-9.333985 0.21301,-0.352428 0.23457,-0.483612 0.39453,-0.78125 z" />
    </clipPath>
    <clipPath
       clipPathUnits="userSpaceOnUse"
       id="clipPath1084">
      <path
         id="lpe_path-effect1088"
         style="color:#000000;fill:#ffffff;stroke-width:1;stroke-linecap:square;stroke-linejoin:bevel;-inkscape-stroke:none"
         class="powerclip"
         d="M 58.710107,163.72203 H 102.06716 V 209.4082 H 58.710107 Z M 174.73828,81.386719 c -0.51408,0.0044 -0.9489,0.116973 -1.40039,0.273437 -0.90298,0.312929 -1.87992,0.837951 -3.07031,1.583985 -2.38079,1.492068 -5.55884,3.887767 -9.59766,7.251953 -8.07764,6.728372 -19.55311,17.313426 -34.27148,31.974606 l -0.01,0.01 -70.189454,71.01953 0.01367,2.4043 8.001953,7.9082 2.404297,-0.0137 70.189444,-71.01953 0.0137,-0.0156 c 14.44391,-14.96939 24.85156,-26.62011 31.45117,-34.80469 3.2998,-4.092284 5.64547,-7.306366 7.09765,-9.708983 0.72609,-1.201309 1.2339,-2.186051 1.53125,-3.09375 0.14868,-0.453849 0.25332,-0.889176 0.24805,-1.404297 -0.005,-0.515121 -0.17001,-1.204678 -0.68945,-1.712891 -0.51944,-0.508212 -1.20857,-0.656779 -1.72266,-0.652343 z m -1.88281,4.324218 c -0.29762,0.166083 -0.43069,0.191184 -0.7832,0.41211 -2.14082,1.341677 -5.25326,3.674764 -9.22657,6.984375 -7.94479,6.617705 -19.37199,17.153988 -34.03906,31.763668 l -68.994139,69.81055 5.582031,5.51758 68.982418,-69.79492 c 14.39843,-14.92225 24.75755,-26.52644 31.25,-34.578128 3.24623,-4.025845 5.52869,-7.174384 6.83399,-9.333985 0.21301,-0.352428 0.23457,-0.483612 0.39453,-0.78125 z" />
    </clipPath>
    <clipPath
       clipPathUnits="userSpaceOnUse"
       id="clipPath1289">
      <path
         style="color:#000000;display:none;fill:#ffffff;stroke-width:1;stroke-linecap:round;stroke-linejoin:bevel;-inkscape-stroke:none"
         d="m 85.367187,164.51758 -17.212889,4.30273 -0.791017,0.44727 -11.257812,11.25781 -0.496094,1.21484 0.09961,12.95899 v 0.01 a 1.699605,1.699605 0 0 0 0.0078,0.006 1.699605,1.699605 0 0 0 0.492187,1.18555 1.699605,1.699605 0 0 0 0.708985,-0.002 1.699605,1.699605 0 0 0 0.503906,0.49609 1.699605,1.699605 0 0 0 1.109375,-0.5 1.699605,1.699605 0 0 0 0.08203,0 l 28.373047,-28.52919 z m -5.095703,4.77929 -21.195312,21.31055 -0.0625,-8.18164 10.421876,-10.42187 z"
         id="path1291" />
      <path
         id="lpe_path-effect1293"
         style="color:#000000;fill:#ffffff;stroke-width:1;stroke-linecap:round;stroke-linejoin:bevel;-inkscape-stroke:none"
         class="powerclip"
         d="M 31.577806,84.629529 H 108.02055 V 202.53043 H 31.577806 Z m 35.785475,84.638051 -11.759765,11.76172 0.109375,14.38086 8.501954,8.40234 2.390624,-2.41797 -7.503907,-7.41406 -0.08789,-11.55469 10.753907,-10.75391 z" />
    </clipPath>
    <clipPath
       clipPathUnits="userSpaceOnUse"
       id="clipPath1299">
      <path
         style="color:#000000;display:none;fill:#ffffff;stroke-width:1;stroke-linecap:round;stroke-linejoin:bevel;-inkscape-stroke:none"
         d="m 85.367187,164.51758 -17.212889,4.30273 -0.791017,0.44727 -11.257812,11.25781 -0.496094,1.21484 0.09961,12.95899 v 0.01 a 1.699605,1.699605 0 0 0 0.0078,0.006 1.699605,1.699605 0 0 0 0.492187,1.18555 1.699605,1.699605 0 0 0 0.708985,-0.002 1.699605,1.699605 0 0 0 0.503906,0.49609 1.699605,1.699605 0 0 0 1.109375,-0.5 1.699605,1.699605 0 0 0 0.08203,0 l 28.373047,-28.52919 z m -5.095703,4.77929 -21.195312,21.31055 -0.0625,-8.18164 10.421876,-10.42187 z"
         id="path1301" />
      <path
         id="lpe_path-effect1303"
         style="color:#000000;fill:#ffffff;stroke-width:1;stroke-linecap:round;stroke-linejoin:bevel;-inkscape-stroke:none"
         class="powerclip"
         d="m 61.710399,131.33029 h 47.095071 v 39.24825 H 61.710399 Z m 10e-7,0 v 26.9875 h 16.933332 v -26.9875 z" />
    </clipPath>
    <clipPath
       clipPathUnits="userSpaceOnUse"
       id="clipPath1317">
      <path
         style="color:#000000;display:none;fill:#ffffff;stroke-width:1;stroke-linecap:square;stroke-linejoin:bevel;-inkscape-stroke:none"
         d="m 174.73828,81.386719 c -0.51408,0.0044 -0.9489,0.116973 -1.40039,0.273437 -0.90298,0.312929 -1.87992,0.837951 -3.07031,1.583985 -2.38079,1.492068 -5.55884,3.887767 -9.59766,7.251953 -8.07764,6.728372 -19.55311,17.313426 -34.27148,31.974606 l -0.01,0.01 -70.189454,71.01953 0.01367,2.4043 8.001953,7.9082 2.404297,-0.0137 70.189444,-71.01953 0.0137,-0.0156 c 14.44391,-14.96939 24.85156,-26.62011 31.45117,-34.80469 3.2998,-4.092284 5.64547,-7.306366 7.09765,-9.708983 0.72609,-1.201309 1.2339,-2.186051 1.53125,-3.09375 0.14868,-0.453849 0.25332,-0.889176 0.24805,-1.404297 -0.005,-0.515121 -0.17001,-1.204678 -0.68945,-1.712891 -0.51944,-0.508212 -1.20857,-0.656779 -1.72266,-0.652343 z m -1.88281,4.324218 c -0.15996,0.297638 -0.18152,0.428822 -0.39453,0.78125 -1.3053,2.159601 -3.58776,5.30814 -6.83399,9.333985 -6.49245,8.051688 -16.85157,19.655878 -31.25,34.578128 l -68.982418,69.79492 -5.582031,-5.51758 68.994139,-69.81055 c 14.66707,-14.60968 26.09427,-25.145963 34.03906,-31.763668 3.97331,-3.309611 7.08575,-5.642698 9.22657,-6.984375 0.35251,-0.220926 0.48558,-0.246027 0.7832,-0.41211 z"
         id="path1319" />
      <path
         id="lpe_path-effect1321"
         style="color:#000000;fill:#ffffff;stroke-width:1;stroke-linecap:square;stroke-linejoin:bevel;-inkscape-stroke:none"
         class="powerclip"
         d="M 31.577806,84.629529 H 108.02055 V 202.53043 H 31.577806 Z m 35.785475,84.638051 -11.759765,11.76172 0.109375,14.38086 8.501954,8.40234 2.390624,-2.41797 -7.503907,-7.41406 -0.08789,-11.55469 10.753907,-10.75391 z" />
    </clipPath>
    <clipPath
       clipPathUnits="userSpaceOnUse"
       id="clipPath1432">
      <path
         style="color:#000000;display:none;fill:#ffffff;stroke-width:1;stroke-linecap:round;stroke-linejoin:bevel;-inkscape-stroke:none"
         d="m 85.367187,164.51758 -17.212889,4.30273 -0.791017,0.44727 -11.257812,11.25781 -0.496094,1.21484 0.09961,12.95899 v 0.01 a 1.699605,1.699605 0 0 0 0.0078,0.006 1.699605,1.699605 0 0 0 0.492187,1.18555 1.699605,1.699605 0 0 0 0.708985,-0.002 1.699605,1.699605 0 0 0 0.503906,0.49609 1.699605,1.699605 0 0 0 1.109375,-0.5 1.699605,1.699605 0 0 0 0.08203,0 l 28.373047,-28.52919 z m -5.095703,4.77929 -21.195312,21.31055 -0.0625,-8.18164 10.421876,-10.42187 z"
         id="path1434" />
      <path
         id="lpe_path-effect1436"
         style="color:#000000;fill:#ffffff;stroke-width:1;stroke-linecap:round;stroke-linejoin:bevel;-inkscape-stroke:none"
         class="powerclip"
         d="M 31.577806,84.629529 H 108.02055 V 202.53043 H 31.577806 Z m 35.785475,84.638051 -11.759765,11.76172 0.109375,14.38086 8.501954,8.40234 2.390624,-2.41797 -7.503907,-7.41406 -0.08789,-11.55469 10.753907,-10.75391 z" />
    </clipPath>
    <clipPath
       clipPathUnits="userSpaceOnUse"
       id="clipPath1442">
      <path
         style="color:#000000;display:none;fill:#ffffff;stroke-width:1;stroke-linecap:round;stroke-linejoin:bevel;-inkscape-stroke:none"
         d="m 85.367187,164.51758 -17.212889,4.30273 -0.791017,0.44727 -11.257812,11.25781 -0.496094,1.21484 0.09961,12.95899 v 0.01 a 1.699605,1.699605 0 0 0 0.0078,0.006 1.699605,1.699605 0 0 0 0.492187,1.18555 1.699605,1.699605 0 0 0 0.708985,-0.002 1.699605,1.699605 0 0 0 0.503906,0.49609 1.699605,1.699605 0 0 0 1.109375,-0.5 1.699605,1.699605 0 0 0 0.08203,0 l 28.373047,-28.52919 z m -5.095703,4.77929 -21.195312,21.31055 -0.0625,-8.18164 10.421876,-10.42187 z"
         id="path1444" />
      <path
         id="lpe_path-effect1446"
         style="color:#000000;fill:#ffffff;stroke-width:1;stroke-linecap:round;stroke-linejoin:bevel;-inkscape-stroke:none"
         class="powerclip"
         d="m 52.30817,161.16675 h 38.472127 v 38.52839 H 52.30817 Z m 33.059017,3.35083 -17.212889,4.30273 -0.791017,0.44727 -11.257812,11.25781 -0.496094,1.21484 0.09961,12.95899 v 0.01 a 1.699605,1.699605 0 0 0 0.0078,0.006 1.699605,1.699605 0 0 0 0.492187,1.18555 1.699605,1.699605 0 0 0 0.708985,-0.002 1.699605,1.699605 0 0 0 0.503906,0.49609 1.699605,1.699605 0 0 0 1.109375,-0.5 1.699605,1.699605 0 0 0 0.08203,0 l 28.373047,-28.52919 z m -5.095703,4.77929 -10.835936,2.70704 -10.421876,10.42187 0.0625,8.18164 z" />
    </clipPath>
    <clipPath
       clipPathUnits="userSpaceOnUse"
       id="clipPath1787">
      <path
         style="color:#000000;display:none;fill:#ffffff;stroke-width:1;stroke-linecap:round;-inkscape-stroke:none"
         d="m 97.066406,168.72266 -32.849608,32.66992 -0.0059,0.006 a 1.699605,1.699605 0 0 0 -0.22461,0.54101 1.699605,1.699605 0 0 0 -0.275391,0.65039 1.699605,1.699605 0 0 0 0.0021,0.002 1.699605,1.699605 0 0 0 0.492189,1.21093 1.699605,1.699605 0 0 0 0.701172,0.002 1.699605,1.699605 0 0 0 0.490233,0.49804 l 13.679689,0.10547 12.09375,-12.09375 z m -6.257811,11.01757 -2.708987,10.83594 -10.421874,10.42188 -8.181639,-0.0625 z"
         id="path1789" />
      <path
         id="lpe_path-effect1791"
         style="color:#000000;fill:#ffffff;stroke-width:1;stroke-linecap:round;-inkscape-stroke:none"
         class="powerclip"
         d="m 81.03686,160.63147 h 27.64485 v 41.03834 H 81.03686 Z m 16.029546,8.09119 -32.849608,32.66992 -0.0059,0.006 a 1.699605,1.699605 0 0 0 -0.22461,0.54101 1.699605,1.699605 0 0 0 -0.275391,0.65039 1.699605,1.699605 0 0 0 0.0021,0.002 1.699605,1.699605 0 0 0 0.492189,1.21093 1.699605,1.699605 0 0 0 0.701172,0.002 1.699605,1.699605 0 0 0 0.490233,0.49804 l 13.679689,0.10547 12.09375,-12.09375 z m -6.257811,11.01757 -21.3125,21.19532 8.181639,0.0625 10.421874,-10.42188 z" />
    </clipPath>
    <clipPath
       clipPathUnits="userSpaceOnUse"
       id="clipPath1797">
      <path
         style="color:#000000;display:none;fill:#ffffff;stroke-width:1;stroke-linecap:round;-inkscape-stroke:none"
         d="m 97.066406,168.72266 -32.849608,32.66992 -0.0059,0.006 a 1.699605,1.699605 0 0 0 -0.22461,0.54101 1.699605,1.699605 0 0 0 -0.275391,0.65039 1.699605,1.699605 0 0 0 0.0021,0.002 1.699605,1.699605 0 0 0 0.492189,1.21093 1.699605,1.699605 0 0 0 0.701172,0.002 1.699605,1.699605 0 0 0 0.490233,0.49804 l 13.679689,0.10547 12.09375,-12.09375 z m -6.257811,11.01757 -2.708987,10.83594 -10.421874,10.42188 -8.181639,-0.0625 z"
         id="path1799" />
      <path
         id="lpe_path-effect1801"
         style="color:#000000;fill:#ffffff;stroke-width:1;stroke-linecap:round;-inkscape-stroke:none"
         class="powerclip"
         d="m 60.409712,169.23103 h 38.52839 v 38.47214 h -38.52839 z m 36.656694,-0.50837 -32.849608,32.66992 -0.0059,0.006 a 1.699605,1.699605 0 0 0 -0.22461,0.54101 1.699605,1.699605 0 0 0 -0.275391,0.65039 1.699605,1.699605 0 0 0 0.0021,0.002 1.699605,1.699605 0 0 0 0.492189,1.21093 1.699605,1.699605 0 0 0 0.701172,0.002 1.699605,1.699605 0 0 0 0.490233,0.49804 l 13.679689,0.10547 12.09375,-12.09375 z m -6.257811,11.01757 -21.3125,21.19532 8.181639,0.0625 10.421874,-10.42188 z" />
    </clipPath>
    <clipPath
       clipPathUnits="userSpaceOnUse"
       id="clipPath1956">
      <path
         style="display:none;fill:none;stroke:#000000;stroke-width:3.4;stroke-linecap:butt;stroke-linejoin:miter;stroke-miterlimit:4;stroke-dasharray:none;stroke-opacity:1"
         d="m 66.61891,203.79903 -9.21104,-9.10389 -0.0997,-12.96735 11.257745,-11.25774"
         id="path1958" />
      <path
         id="lpe_path-effect1960"
         style="fill:none;stroke:#000000;stroke-width:3.4;stroke-linecap:butt;stroke-linejoin:miter;stroke-miterlimit:4;stroke-dasharray:none;stroke-opacity:1"
         class="powerclip"
         d="M 31.577806,84.629529 H 108.02055 V 202.53043 H 31.577806 Z m 35.785475,84.638051 -11.759765,11.76172 0.109375,14.38086 8.501954,8.40234 2.390624,-2.41797 -7.503907,-7.41406 -0.08789,-11.55469 10.753907,-10.75391 z" />
    </clipPath>
    <clipPath
       clipPathUnits="userSpaceOnUse"
       id="clipPath3249">
      <path
         style="color:#000000;display:none;fill:#000000;stroke-width:1;-inkscape-stroke:none"
         d="m 67.363281,169.26758 -11.759765,11.76172 0.109375,14.38086 8.501954,8.40234 2.390624,-2.41797 -7.503907,-7.41406 -0.08789,-11.55469 10.753907,-10.75391 z"
         id="path3251" />
      <path
         id="lpe_path-effect3253"
         style="color:#000000;fill:#000000;stroke-width:1;-inkscape-stroke:none"
         class="powerclip"
         d="M 31.577806,84.629529 H 108.02055 V 202.53043 H 31.577806 Z m 35.785475,84.638051 -11.759765,11.76172 0.109375,14.38086 8.501954,8.40234 2.390624,-2.41797 -7.503907,-7.41406 -0.08789,-11.55469 10.753907,-10.75391 z" />
    </clipPath>
    <clipPath
       clipPathUnits="userSpaceOnUse"
       id="clipPath1029">
      <rect
         style="display:none;fill:#ffcc00;stroke:none;stroke-width:2.38808;stroke-linecap:square"
         id="rect1031"
         width="16.933332"
         height="26.987499"
         x="61.7104"
         y="131.33029"
         d="m 61.7104,131.33029 h 16.933332 v 26.9875 H 61.7104 Z" />
      <path
         id="lpe_path-effect1033"
         style="fill:#ffcc00;stroke:none;stroke-width:2.38808;stroke-linecap:square"
         class="powerclip"
         d="m 61.710399,131.33029 h 47.095071 v 39.24825 H 61.710399 Z m 10e-7,0 v 26.9875 h 16.933332 v -26.9875 z" />
    </clipPath>
  </defs>
  <g
     inkscape:label="Layer 1"
     inkscape:groupmode="layer"
     id="layer1"
     transform="translate(-33.198315,-67.824516)">
    <path
       style="fill:#ca0000;fill-opacity:1;stroke:#ca0000;stroke-width:2.44371;stroke-linecap:square;stroke-linejoin:miter;stroke-miterlimit:4;stroke-dasharray:none;stroke-opacity:1"
       d="m 54.388939,195.90853 c -3.398692,-0.73242 -6.164535,-2.31518 -8.820574,-5.04759 -3.962746,-4.0767 -6.609872,-10.3506 -7.545951,-17.88452 -0.148332,-1.19383 -0.225432,-11.3412 -0.222682,-29.30785 0.0034,-22.46245 0.05994,-27.90038 0.309349,-29.77387 1.358024,-10.20094 6.422322,-18.637764 12.94447,-21.564733 3.194049,-1.433405 1.468971,-1.344148 27.309633,-1.412936 l 23.435506,-0.06239 v 6.464731 6.464748 l -18.586777,0.0596 -18.58678,0.0596 -1.03066,0.51191 c -3.179961,1.57944 -5.927966,6.43476 -6.617967,11.69296 -0.164516,1.2537 -0.213244,10.00463 -0.160034,28.73992 0.08367,29.46264 0.0034,27.59884 1.3493,31.32997 l 0.573023,1.58855 -1.193322,1.21164 c -0.656324,0.66641 -1.295636,1.48463 -1.420685,1.81829 -0.256932,0.68555 -0.298165,5.98578 -0.08489,10.913 0.13258,3.06309 0.178766,3.33461 0.665652,3.91324 l 0.523188,0.62177 -0.719527,-0.0171 c -0.395741,-0.009 -1.349864,-0.15296 -2.120271,-0.31898 z"
       id="path5666"
       clip-path="url(#clipPath3249)"
       inkscape:original-d="m 54.388939,195.90853 c -3.398692,-0.73242 -6.164535,-2.31518 -8.820574,-5.04759 -3.962746,-4.0767 -6.609872,-10.3506 -7.545951,-17.88452 -0.148332,-1.19383 -0.225432,-11.3412 -0.222682,-29.30785 0.0034,-22.46245 0.05994,-27.90038 0.309349,-29.77387 1.358024,-10.20094 6.422322,-18.637764 12.94447,-21.564733 3.194049,-1.433405 1.468971,-1.344148 27.309633,-1.412936 l 23.435506,-0.06239 v 6.464731 6.464748 l -18.586777,0.0596 -18.58678,0.0596 -1.03066,0.51191 c -3.179961,1.57944 -5.927966,6.43476 -6.617967,11.69296 -0.164516,1.2537 -0.213244,10.00463 -0.160034,28.73992 0.08367,29.46264 0.0034,27.59884 1.3493,31.32997 l 0.573023,1.58855 -1.193322,1.21164 c -0.656324,0.66641 -1.295636,1.48463 -1.420685,1.81829 -0.256932,0.68555 -0.298165,5.98578 -0.08489,10.913 0.13258,3.06309 0.178766,3.33461 0.665652,3.91324 l 0.523188,0.62177 -0.719527,-0.0171 c -0.395741,-0.009 -1.349864,-0.15296 -2.120271,-0.31898 z"
       inkscape:path-effect="#path-effect1068;#path-effect1293;#path-effect1321;#path-effect1436;#path-effect1960;#path-effect3253"
       transform="matrix(1.043703,0,0,1.043703,-5.0381439,-3.8956742)" />
    <path
       style="fill:#ca0000;fill-opacity:1;stroke:#ca0000;stroke-width:0.954967;stroke-linecap:square;stroke-linejoin:miter;stroke-miterlimit:4;stroke-dasharray:none;stroke-opacity:1;paint-order:normal"
       d="m 84.731365,160.58258 c -0.0025,-2.10995 -0.0059,-5.39239 -0.0073,-7.29433 l -0.0025,-3.45806 -3.772163,-0.0384 c -2.07469,-0.0211 -6.019399,-0.0192 -8.76602,0.004 l -4.993854,0.0426 0.02215,-6.49234 c 0.0122,-3.57078 0.03182,-6.5041 0.04361,-6.51848 0.0213,-0.026 16.165422,-0.0265 29.233748,-8.3e-4 l 6.815524,0.0134 0.0199,3.56969 c 0.0109,1.96334 -0.008,3.96585 -0.0426,4.45002 l -0.0626,0.88034 -9.241481,9.33924 -9.241472,9.33924 z"
       id="path6327"
       clip-path="url(#clipPath1029)"
       inkscape:path-effect="#path-effect880;#path-effect1303;#path-effect1033"
       inkscape:original-d="m 84.731365,160.58258 c -0.0025,-2.10995 -0.0059,-5.39239 -0.0073,-7.29433 l -0.0025,-3.45806 -3.772163,-0.0384 c -2.07469,-0.0211 -6.019399,-0.0192 -8.76602,0.004 l -4.993854,0.0426 0.02215,-6.49234 c 0.0122,-3.57078 0.03182,-6.5041 0.04361,-6.51848 0.0213,-0.026 16.165422,-0.0265 29.233748,-8.3e-4 l 6.815524,0.0134 0.0199,3.56969 c 0.0109,1.96334 -0.008,3.96585 -0.0426,4.45002 l -0.0626,0.88034 -9.241481,9.33924 -9.241472,9.33924 z"
       transform="matrix(1.043703,0,0,1.043703,-5.0381439,-3.8956742)" />
    <path
       style="fill:#ca0000;fill-opacity:1;stroke:#ca0000;stroke-width:0.746066;stroke-linecap:square;stroke-linejoin:miter;stroke-miterlimit:4;stroke-dasharray:none;stroke-opacity:1;paint-order:normal"
       d="m 114.92023,132.48565 c -0.92077,-3.52879 -1.37808,-9.9974 -1.01828,-14.40334 1.13222,-13.86418 7.51809,-24.108041 16.36016,-26.244065 1.21021,-0.292359 3.49357,-0.357846 15.20565,-0.43609 7.57988,-0.05064 13.81281,-0.06139 13.85096,-0.02388 0.0382,0.0375 -1.35279,1.289399 -3.09097,2.781998 -1.73818,1.492598 -4.99731,4.383769 -7.2425,6.424837 l -4.08218,3.71102 -2.24252,0.11199 c -2.93326,0.1465 -4.0353,0.62581 -5.76574,2.50771 -1.51142,1.64372 -2.63292,3.91417 -3.27411,6.62841 l -0.44626,1.88904 -8.99882,9.01784 -8.99881,9.01785 z"
       id="path6791"
       clip-path="url(#clipPath909)"
       inkscape:path-effect="#path-effect913"
       inkscape:original-d="m 114.92023,132.48565 c -0.92077,-3.52879 -1.37808,-9.9974 -1.01828,-14.40334 1.13222,-13.86418 7.51809,-24.108041 16.36016,-26.244065 1.21021,-0.292359 3.49357,-0.357846 15.20565,-0.43609 7.57988,-0.05064 13.81281,-0.06139 13.85096,-0.02388 0.0382,0.0375 -1.35279,1.289399 -3.09097,2.781998 -1.73818,1.492598 -4.99731,4.383769 -7.2425,6.424837 l -4.08218,3.71102 -2.24252,0.11199 c -2.93326,0.1465 -4.0353,0.62581 -5.76574,2.50771 -1.51142,1.64372 -2.63292,3.91417 -3.27411,6.62841 l -0.44626,1.88904 -8.99882,9.01784 -8.99881,9.01785 z"
       transform="matrix(1.043703,0,0,1.043703,-5.0381439,-3.8956742)" />
    <path
       style="fill:#ffcc00;fill-opacity:1;stroke:#ffcc00;stroke-width:0.746066;stroke-linecap:square;stroke-linejoin:miter;stroke-miterlimit:4;stroke-dasharray:none;stroke-opacity:1;paint-order:normal"
       d="m 142.50177,196.82363 c -7.82306,-0.0188 -16.67238,-0.0272 -19.66515,-0.0189 l -5.44142,0.0153 -0.0348,-4.0608 c -0.0192,-2.23345 0.0199,-5.10112 0.0868,-6.3726 l 0.12157,-2.31178 18.55305,-0.0907 18.55306,-0.0907 0.99208,-0.50431 c 2.86169,-1.45469 5.26974,-5.44663 6.2366,-10.33865 0.76911,-3.89144 0.71283,-10.10473 -0.12398,-13.68881 -1.10952,-4.75206 -3.90334,-7.20642 -9.2302,-8.10869 -0.7691,-0.13027 -5.47569,-0.27808 -10.54859,-0.33127 -9.94273,-0.10425 -10.87196,-0.19739 -13.96649,-1.39993 -1.58154,-0.61459 -3.66282,-1.80012 -4.52733,-2.57883 l -0.46853,-0.42204 6.97191,-7.01645 6.97192,-7.01646 0.76528,0.6017 c 0.4209,0.33093 1.25204,0.81928 1.84696,1.0852 1.0692,0.47793 1.20965,0.48388 12.18055,0.51634 11.03752,0.0326 11.11033,0.0358 13.16758,0.56772 6.42316,1.66082 11.41495,6.43537 13.96925,13.36129 3.40121,9.22235 3.45461,21.16155 0.14044,31.40074 -2.75072,8.49844 -8.2205,14.74362 -14.269,16.29183 -1.85356,0.47445 -5.21907,0.55157 -22.28157,0.51063 z"
       id="path7207"
       clip-path="url(#clipPath1044)"
       inkscape:path-effect="#path-effect1048"
       inkscape:original-d="m 142.50177,196.82363 c -7.82306,-0.0188 -16.67238,-0.0272 -19.66515,-0.0189 l -5.44142,0.0153 -0.0348,-4.0608 c -0.0192,-2.23345 0.0199,-5.10112 0.0868,-6.3726 l 0.12157,-2.31178 18.55305,-0.0907 18.55306,-0.0907 0.99208,-0.50431 c 2.86169,-1.45469 5.26974,-5.44663 6.2366,-10.33865 0.76911,-3.89144 0.71283,-10.10473 -0.12398,-13.68881 -1.10952,-4.75206 -3.90334,-7.20642 -9.2302,-8.10869 -0.7691,-0.13027 -5.47569,-0.27808 -10.54859,-0.33127 -9.94273,-0.10425 -10.87196,-0.19739 -13.96649,-1.39993 -1.58154,-0.61459 -3.66282,-1.80012 -4.52733,-2.57883 l -0.46853,-0.42204 6.97191,-7.01645 6.97192,-7.01646 0.76528,0.6017 c 0.4209,0.33093 1.25204,0.81928 1.84696,1.0852 1.0692,0.47793 1.20965,0.48388 12.18055,0.51634 11.03752,0.0326 11.11033,0.0358 13.16758,0.56772 6.42316,1.66082 11.41495,6.43537 13.96925,13.36129 3.40121,9.22235 3.45461,21.16155 0.14044,31.40074 -2.75072,8.49844 -8.2205,14.74362 -14.269,16.29183 -1.85356,0.47445 -5.21907,0.55157 -22.28157,0.51063 z"
       transform="matrix(1.043703,0,0,1.043703,-5.0381439,-3.8956742)" />
    <path
       style="fill:#ffcc00;fill-opacity:1;stroke:#ffcc00;stroke-width:0.746458;stroke-linecap:square;stroke-linejoin:miter;stroke-miterlimit:4;stroke-dasharray:none;stroke-opacity:1;paint-order:normal"
       d="m 162.96102,104.03125 c 0.16046,-0.20882 1.06644,-1.30758 2.01328,-2.44171 2.26121,-2.708513 5.81493,-7.257375 6.94792,-8.893528 l 0.90197,-1.302535 1.93074,-0.01656 1.93073,-0.01654 -0.11169,3.395189 c -0.0614,1.867353 -0.10019,4.777029 -0.0861,6.465944 l 0.0256,3.07075 -6.92209,0.0593 c -6.56119,0.0562 -6.90689,0.0395 -6.63035,-0.32033 z"
       id="path7320"
       clip-path="url(#clipPath1020)"
       inkscape:path-effect="#path-effect1024"
       inkscape:original-d="m 162.96102,104.03125 c 0.16046,-0.20882 1.06644,-1.30758 2.01328,-2.44171 2.26121,-2.708513 5.81493,-7.257375 6.94792,-8.893528 l 0.90197,-1.302535 1.93074,-0.01656 1.93073,-0.01654 -0.11169,3.395189 c -0.0614,1.867353 -0.10019,4.777029 -0.0861,6.465944 l 0.0256,3.07075 -6.92209,0.0593 c -6.56119,0.0562 -6.90689,0.0395 -6.63035,-0.32033 z"
       transform="matrix(1.043703,0,0,1.043703,-5.0381439,-3.8956742)" />
    <path
       style="fill:#ffcc00;fill-opacity:1;stroke:#ffcc00;stroke-width:0.746066;stroke-linecap:square;stroke-linejoin:miter;stroke-miterlimit:4;stroke-dasharray:none;stroke-opacity:1;paint-order:normal"
       d="m 90.67651,196.24099 -3.762534,-0.0323 2.165736,-2.22221 2.165731,-2.22221 2.133389,-8.63855 2.133391,-8.63854 3.861722,-3.97066 3.861725,-3.97066 0.0587,13.09611 c 0.0323,7.20286 0.008,13.89661 -0.0536,14.87501 l -0.11225,1.77888 -4.344769,-0.0113 c -2.389617,-0.006 -6.037902,-0.0258 -8.107293,-0.0436 z"
       id="path7359"
       clip-path="url(#clipPath1787)"
       inkscape:path-effect="#path-effect1058;#path-effect1791"
       inkscape:original-d="m 90.67651,196.24099 -3.762534,-0.0323 2.165736,-2.22221 2.165731,-2.22221 2.133389,-8.63855 2.133391,-8.63854 3.861722,-3.97066 3.861725,-3.97066 0.0587,13.09611 c 0.0323,7.20286 0.008,13.89661 -0.0536,14.87501 l -0.11225,1.77888 -4.344769,-0.0113 c -2.389617,-0.006 -6.037902,-0.0258 -8.107293,-0.0436 z"
       transform="matrix(1.043703,0,0,1.043703,-5.0381439,-3.8956742)" />
    <g
       id="path4120-3"
       clip-path="url(#clipPath1442)"
       inkscape:path-effect="#path-effect1446"
       transform="matrix(1.043703,0,0,1.043703,-5.0381439,-3.8956742)"
       style="fill:#888888;fill-opacity:1">
      <path
         style="color:#000000;fill:#888888;stroke-width:3.39921;stroke-linecap:round;stroke-linejoin:bevel;-inkscape-stroke:none;fill-opacity:1"
         d="m 57.40787,194.69514 -0.0997,-12.96735 11.257745,-11.25774 17.214382,-4.3033 -28.372431,28.52839"
         id="path1202"
         inkscape:original-d="m 57.40787,194.69514 -0.0997,-12.96735 11.257745,-11.25774 17.214382,-4.3033 -28.372431,28.52839" />
    </g>
    <g
       id="path3109"
       clip-path="url(#clipPath854)"
       inkscape:path-effect="#path-effect858"
       transform="matrix(1.043703,0,0,1.043703,-5.0381439,-3.8956742)"
       style="fill:#888888;fill-opacity:1">
      <path
         style="color:#000000;fill:#888888;stroke-width:3.39921;stroke-linecap:square;stroke-linejoin:bevel;-inkscape-stroke:none;fill-opacity:1"
         d="m 57.40787,194.69514 8.001842,7.90833 70.189628,-71.01972 c 57.68474,-59.78333 50.7788,-66.460516 -8.00184,-7.90831 z"
         id="path1772"
         inkscape:original-d="m 57.40787,194.69514 8.001842,7.90833 70.189628,-71.01972 c 57.68474,-59.78333 50.7788,-66.460516 -8.00184,-7.90831 z" />
    </g>
    <g
       id="path4120-3-7"
       clip-path="url(#clipPath1797)"
       inkscape:path-effect="#path-effect1801"
       transform="matrix(1.043703,0,0,1.043703,-5.0381439,-3.8956742)"
       style="fill:#888888;fill-opacity:1">
      <path
         style="color:#000000;fill:#888888;stroke-width:3.39921;stroke-linecap:round;-inkscape-stroke:none;fill-opacity:1"
         d="m 65.409712,202.60347 12.967347,0.0997 11.257744,-11.25776 4.303299,-17.21438 -28.52839,28.37244"
         id="path1700"
         inkscape:original-d="m 65.409712,202.60347 12.967347,0.0997 11.257744,-11.25776 4.303299,-17.21438 -28.52839,28.37244" />
    </g>
  </g>
</svg>
