%TF.GenerationSoftware,KiCad,Pcbnew,7.0.7*%
%TF.CreationDate,2023-10-19T21:28:01-04:00*%
%TF.ProjectId,BNO055,424e4f30-3535-42e6-9b69-6361645f7063,rev?*%
%TF.SameCoordinates,Original*%
%TF.FileFunction,Paste,Top*%
%TF.FilePolarity,Positive*%
%FSLAX46Y46*%
G04 Gerber Fmt 4.6, Leading zero omitted, Abs format (unit mm)*
G04 Created by KiCad (PCBNEW 7.0.7) date 2023-10-19 21:28:01*
%MOMM*%
%LPD*%
G01*
G04 APERTURE LIST*
G04 Aperture macros list*
%AMRoundRect*
0 Rectangle with rounded corners*
0 $1 Rounding radius*
0 $2 $3 $4 $5 $6 $7 $8 $9 X,Y pos of 4 corners*
0 Add a 4 corners polygon primitive as box body*
4,1,4,$2,$3,$4,$5,$6,$7,$8,$9,$2,$3,0*
0 Add four circle primitives for the rounded corners*
1,1,$1+$1,$2,$3*
1,1,$1+$1,$4,$5*
1,1,$1+$1,$6,$7*
1,1,$1+$1,$8,$9*
0 Add four rect primitives between the rounded corners*
20,1,$1+$1,$2,$3,$4,$5,0*
20,1,$1+$1,$4,$5,$6,$7,0*
20,1,$1+$1,$6,$7,$8,$9,0*
20,1,$1+$1,$8,$9,$2,$3,0*%
G04 Aperture macros list end*
%ADD10RoundRect,0.250000X0.250000X0.475000X-0.250000X0.475000X-0.250000X-0.475000X0.250000X-0.475000X0*%
%ADD11RoundRect,0.250000X0.262500X0.450000X-0.262500X0.450000X-0.262500X-0.450000X0.262500X-0.450000X0*%
%ADD12RoundRect,0.250000X-0.262500X-0.450000X0.262500X-0.450000X0.262500X0.450000X-0.262500X0.450000X0*%
%ADD13R,1.000000X1.800000*%
%ADD14R,0.254000X0.675000*%
%ADD15R,0.675000X0.254000*%
G04 APERTURE END LIST*
D10*
%TO.C,C3*%
X143190000Y-86360000D03*
X141290000Y-86360000D03*
%TD*%
D11*
%TO.C,R4*%
X135532500Y-96520000D03*
X133707500Y-96520000D03*
%TD*%
%TO.C,R2*%
X137160000Y-86360000D03*
X135335000Y-86360000D03*
%TD*%
D12*
%TO.C,R3*%
X151487500Y-106680000D03*
X153312500Y-106680000D03*
%TD*%
D13*
%TO.C,Y1*%
X159980000Y-86360000D03*
X157480000Y-86360000D03*
%TD*%
D10*
%TO.C,C4*%
X136520000Y-106680000D03*
X134620000Y-106680000D03*
%TD*%
%TO.C,C2*%
X148270000Y-106680000D03*
X146370000Y-106680000D03*
%TD*%
%TO.C,C1*%
X150810000Y-86360000D03*
X148910000Y-86360000D03*
%TD*%
D14*
%TO.C,U1*%
X142682500Y-95607500D03*
D15*
X142545000Y-96520000D03*
X142545000Y-97020000D03*
X142545000Y-97520000D03*
X142545000Y-98020000D03*
D14*
X142682500Y-98932500D03*
X143182500Y-98932500D03*
X143682500Y-98932500D03*
X144182500Y-98932500D03*
X144682500Y-98932500D03*
X145182500Y-98932500D03*
X145682500Y-98932500D03*
X146182500Y-98932500D03*
X146682500Y-98932500D03*
X147182500Y-98932500D03*
D15*
X147320000Y-98020000D03*
X147320000Y-97520000D03*
X147320000Y-97020000D03*
X147320000Y-96520000D03*
D14*
X147182500Y-95607500D03*
X146682500Y-95607500D03*
X146182500Y-95607500D03*
X145682500Y-95607500D03*
X145182500Y-95607500D03*
X144682500Y-95607500D03*
X144182500Y-95607500D03*
X143682500Y-95607500D03*
X143182500Y-95607500D03*
%TD*%
D11*
%TO.C,R1*%
X143152500Y-106680000D03*
X141327500Y-106680000D03*
%TD*%
M02*
