%TF.GenerationSoftware,KiCad,Pcbnew,8.0.8*%
%TF.CreationDate,2025-02-07T05:57:41-05:00*%
%TF.ProjectId,mcu-board,6d63752d-626f-4617-9264-2e6b69636164,rev?*%
%TF.SameCoordinates,Original*%
%TF.FileFunction,Copper,L1,Top*%
%TF.FilePolarity,Positive*%
%FSLAX46Y46*%
G04 Gerber Fmt 4.6, Leading zero omitted, Abs format (unit mm)*
G04 Created by KiCad (PCBNEW 8.0.8) date 2025-02-07 05:57:41*
%MOMM*%
%LPD*%
G01*
G04 APERTURE LIST*
G04 Aperture macros list*
%AMRoundRect*
0 Rectangle with rounded corners*
0 $1 Rounding radius*
0 $2 $3 $4 $5 $6 $7 $8 $9 X,Y pos of 4 corners*
0 Add a 4 corners polygon primitive as box body*
4,1,4,$2,$3,$4,$5,$6,$7,$8,$9,$2,$3,0*
0 Add four circle primitives for the rounded corners*
1,1,$1+$1,$2,$3*
1,1,$1+$1,$4,$5*
1,1,$1+$1,$6,$7*
1,1,$1+$1,$8,$9*
0 Add four rect primitives between the rounded corners*
20,1,$1+$1,$2,$3,$4,$5,0*
20,1,$1+$1,$4,$5,$6,$7,0*
20,1,$1+$1,$6,$7,$8,$9,0*
20,1,$1+$1,$8,$9,$2,$3,0*%
G04 Aperture macros list end*
%TA.AperFunction,ComponentPad*%
%ADD10RoundRect,0.250000X0.725000X-0.600000X0.725000X0.600000X-0.725000X0.600000X-0.725000X-0.600000X0*%
%TD*%
%TA.AperFunction,ComponentPad*%
%ADD11O,1.950000X1.700000*%
%TD*%
%TA.AperFunction,ComponentPad*%
%ADD12RoundRect,0.250000X0.750000X-0.600000X0.750000X0.600000X-0.750000X0.600000X-0.750000X-0.600000X0*%
%TD*%
%TA.AperFunction,ComponentPad*%
%ADD13O,2.000000X1.700000*%
%TD*%
%TA.AperFunction,ComponentPad*%
%ADD14RoundRect,0.250000X-0.725000X0.600000X-0.725000X-0.600000X0.725000X-0.600000X0.725000X0.600000X0*%
%TD*%
%TA.AperFunction,SMDPad,CuDef*%
%ADD15RoundRect,0.250000X0.450000X-0.325000X0.450000X0.325000X-0.450000X0.325000X-0.450000X-0.325000X0*%
%TD*%
%TA.AperFunction,SMDPad,CuDef*%
%ADD16RoundRect,0.250000X0.325000X0.450000X-0.325000X0.450000X-0.325000X-0.450000X0.325000X-0.450000X0*%
%TD*%
%TA.AperFunction,ComponentPad*%
%ADD17O,2.250000X1.500000*%
%TD*%
%TA.AperFunction,ComponentPad*%
%ADD18R,2.000000X2.000000*%
%TD*%
%TA.AperFunction,ComponentPad*%
%ADD19C,2.000000*%
%TD*%
%TA.AperFunction,ViaPad*%
%ADD20C,0.600000*%
%TD*%
%TA.AperFunction,Conductor*%
%ADD21C,0.300000*%
%TD*%
%TA.AperFunction,Conductor*%
%ADD22C,0.500000*%
%TD*%
%TA.AperFunction,Conductor*%
%ADD23C,0.508000*%
%TD*%
%TA.AperFunction,Conductor*%
%ADD24C,0.200000*%
%TD*%
G04 APERTURE END LIST*
D10*
%TO.P,J8,1,Pin_1*%
%TO.N,+3.3V*%
X177000000Y-91750000D03*
D11*
%TO.P,J8,2,Pin_2*%
%TO.N,/RX8*%
X177000000Y-89250000D03*
%TO.P,J8,3,Pin_3*%
%TO.N,/TX8*%
X177000000Y-86750000D03*
%TO.P,J8,4,Pin_4*%
%TO.N,GND*%
X177000000Y-84250000D03*
%TD*%
D12*
%TO.P,J3,1,Pin_1*%
%TO.N,+5V*%
X177250000Y-61125000D03*
D13*
%TO.P,J3,2,Pin_2*%
%TO.N,Net-(J3-Pin_2)*%
X177250000Y-58625000D03*
%TD*%
D10*
%TO.P,J1,1,Pin_1*%
%TO.N,+3.3V*%
X177125000Y-77750000D03*
D11*
%TO.P,J1,2,Pin_2*%
%TO.N,/SDA0*%
X177125000Y-75250000D03*
%TO.P,J1,3,Pin_3*%
%TO.N,/SCL0*%
X177125000Y-72750000D03*
%TO.P,J1,4,Pin_4*%
%TO.N,GND*%
X177125000Y-70250000D03*
%TD*%
D12*
%TO.P,J4,1,Pin_1*%
%TO.N,GND*%
X177325000Y-52125000D03*
D13*
%TO.P,J4,2,Pin_2*%
%TO.N,Net-(J3-Pin_2)*%
X177325000Y-49625000D03*
%TD*%
D14*
%TO.P,J6,1,Pin_1*%
%TO.N,+3.3V*%
X153000000Y-50500000D03*
D11*
%TO.P,J6,2,Pin_2*%
%TO.N,/RX1*%
X153000000Y-53000000D03*
%TO.P,J6,3,Pin_3*%
%TO.N,/TX1*%
X153000000Y-55500000D03*
%TO.P,J6,4,Pin_4*%
%TO.N,GND*%
X153000000Y-58000000D03*
%TD*%
D14*
%TO.P,J2,1,Pin_1*%
%TO.N,+3.3V*%
X153000000Y-78250000D03*
D11*
%TO.P,J2,2,Pin_2*%
%TO.N,/SDA2*%
X153000000Y-80750000D03*
%TO.P,J2,3,Pin_3*%
%TO.N,/SCL2*%
X153000000Y-83250000D03*
%TO.P,J2,4,Pin_4*%
%TO.N,GND*%
X153000000Y-85750000D03*
%TD*%
D14*
%TO.P,J7,1,Pin_1*%
%TO.N,+3.3V*%
X153000000Y-64250000D03*
D11*
%TO.P,J7,2,Pin_2*%
%TO.N,/RX2*%
X153000000Y-66750000D03*
%TO.P,J7,3,Pin_3*%
%TO.N,/TX2*%
X153000000Y-69250000D03*
%TO.P,J7,4,Pin_4*%
%TO.N,GND*%
X153000000Y-71750000D03*
%TD*%
D15*
%TO.P,D2,1,K*%
%TO.N,GND*%
X153000000Y-93024999D03*
%TO.P,D2,2,A*%
%TO.N,Net-(D2-A)*%
X153000000Y-90975001D03*
%TD*%
D16*
%TO.P,D1,1,K*%
%TO.N,GND*%
X178399999Y-65625000D03*
%TO.P,D1,2,A*%
%TO.N,Net-(D1-A)*%
X176350001Y-65625000D03*
%TD*%
D17*
%TO.P,Teensy4.2,0,GND*%
%TO.N,GND*%
X157480000Y-41910000D03*
%TO.P,Teensy4.2,1,RX1*%
%TO.N,/RX1*%
X157480000Y-44450000D03*
%TO.P,Teensy4.2,2,TX1*%
%TO.N,/TX1*%
X157480000Y-46990000D03*
%TO.P,Teensy4.2,3,PWM*%
%TO.N,unconnected-(Teensy4.2-PWM-Pad3)*%
X157480000Y-49530000D03*
%TO.P,Teensy4.2,4,PWM*%
%TO.N,unconnected-(Teensy4.2-PWM-Pad4)*%
X157480000Y-52070000D03*
%TO.P,Teensy4.2,5,PWM*%
%TO.N,unconnected-(Teensy4.2-PWM-Pad5)*%
X157480000Y-54610000D03*
%TO.P,Teensy4.2,6,PWM*%
%TO.N,unconnected-(Teensy4.2-PWM-Pad6)*%
X157480000Y-57150000D03*
%TO.P,Teensy4.2,7,PWM*%
%TO.N,unconnected-(Teensy4.2-PWM-Pad7)*%
X157480000Y-59690000D03*
%TO.P,Teensy4.2,8,RX2*%
%TO.N,/RX2*%
X157480000Y-62230000D03*
%TO.P,Teensy4.2,9,TX2*%
%TO.N,/TX2*%
X157480000Y-64770000D03*
%TO.P,Teensy4.2,10,PWM*%
%TO.N,unconnected-(Teensy4.2-PWM-Pad10)*%
X157480000Y-67310000D03*
%TO.P,Teensy4.2,11,CS*%
%TO.N,/CS0*%
X157480000Y-69850000D03*
%TO.P,Teensy4.2,12,MOSI*%
%TO.N,/MOSI0*%
X157480000Y-72390000D03*
%TO.P,Teensy4.2,13,MISO*%
%TO.N,/MISO0*%
X157480000Y-74930000D03*
%TO.P,Teensy4.2,14,3.3V*%
%TO.N,+3.3V*%
X157480000Y-77470000D03*
%TO.P,Teensy4.2,15,SCL2*%
%TO.N,/SCL2*%
X157480000Y-80010000D03*
%TO.P,Teensy4.2,16,SDA2*%
%TO.N,/SDA2*%
X157480000Y-82550000D03*
%TO.P,Teensy4.2,17,MOSI1*%
%TO.N,/MOSI1*%
X157480000Y-85090000D03*
%TO.P,Teensy4.2,18,SCK1*%
%TO.N,/SCK1*%
X157480000Y-87630000D03*
%TO.P,Teensy4.2,19,RX7*%
%TO.N,/RX7*%
X157480000Y-90170000D03*
%TO.P,Teensy4.2,20,TX7*%
%TO.N,/TX7*%
X157480000Y-92710000D03*
%TO.P,Teensy4.2,21,GPIO*%
%TO.N,unconnected-(Teensy4.2-GPIO-Pad21)*%
X157480000Y-95250000D03*
%TO.P,Teensy4.2,22,GPIO*%
%TO.N,unconnected-(Teensy4.2-GPIO-Pad22)*%
X157480000Y-97790000D03*
%TO.P,Teensy4.2,23,GPIO*%
%TO.N,Net-(R6-Pad2)*%
X157480000Y-100330000D03*
%TO.P,Teensy4.2,24,PWM*%
%TO.N,Net-(BZ1-+)*%
X172720000Y-100330000D03*
%TO.P,Teensy4.2,25,RX8*%
%TO.N,/RX8*%
X172720000Y-97790000D03*
%TO.P,Teensy4.2,26,TX8*%
%TO.N,/TX8*%
X172720000Y-95250000D03*
%TO.P,Teensy4.2,27,PWM*%
%TO.N,unconnected-(Teensy4.2-PWM-Pad27)*%
X172720000Y-92710000D03*
%TO.P,Teensy4.2,28,PWM*%
%TO.N,unconnected-(Teensy4.2-PWM-Pad28)*%
X172720000Y-90170000D03*
%TO.P,Teensy4.2,29,CS1*%
%TO.N,/CS1*%
X172720000Y-87630000D03*
%TO.P,Teensy4.2,30,MISO*%
%TO.N,/MISO1*%
X172720000Y-85090000D03*
%TO.P,Teensy4.2,31,A16*%
%TO.N,unconnected-(Teensy4.2-A16-Pad31)*%
X172720000Y-82550000D03*
%TO.P,Teensy4.2,32,A17*%
%TO.N,unconnected-(Teensy4.2-A17-Pad32)*%
X172720000Y-80010000D03*
%TO.P,Teensy4.2,33,GND*%
%TO.N,GND*%
X172720000Y-77470000D03*
%TO.P,Teensy4.2,34,SCK*%
%TO.N,N/C*%
X172720000Y-74930000D03*
%TO.P,Teensy4.2,35,A0*%
%TO.N,unconnected-(Teensy4.2-A0-Pad35)*%
X172720000Y-72390000D03*
%TO.P,Teensy4.2,36,A1*%
%TO.N,unconnected-(Teensy4.2-A1-Pad36)*%
X172720000Y-69850000D03*
%TO.P,Teensy4.2,37,A2*%
%TO.N,unconnected-(Teensy4.2-A2-Pad37)*%
X172720000Y-67310000D03*
%TO.P,Teensy4.2,38,A3*%
%TO.N,unconnected-(Teensy4.2-A3-Pad38)*%
X172720000Y-64770000D03*
%TO.P,Teensy4.2,39,SDA*%
%TO.N,/SDA0*%
X172720000Y-62230000D03*
%TO.P,Teensy4.2,40,SCL*%
%TO.N,/SCL0*%
X172720000Y-59690000D03*
%TO.P,Teensy4.2,41,TX5*%
%TO.N,/RX5*%
X172720000Y-57150000D03*
%TO.P,Teensy4.2,42,RX5*%
%TO.N,/TX5*%
X172720000Y-54610000D03*
%TO.P,Teensy4.2,43,PWM*%
%TO.N,unconnected-(Teensy4.2-PWM-Pad43)*%
X172720000Y-52070000D03*
%TO.P,Teensy4.2,44,PWM*%
%TO.N,unconnected-(Teensy4.2-PWM-Pad44)*%
X172720000Y-49530000D03*
%TO.P,Teensy4.2,45,3.3V*%
%TO.N,+3.3V*%
X172720000Y-46990000D03*
%TO.P,Teensy4.2,46,GND*%
%TO.N,GND*%
X172720000Y-44450000D03*
%TO.P,Teensy4.2,47,Vin*%
%TO.N,+5V*%
X172720000Y-41910000D03*
%TD*%
D18*
%TO.P,BZ1,1,+*%
%TO.N,Net-(BZ1-+)*%
X169000000Y-95000000D03*
D19*
%TO.P,BZ1,2,-*%
%TO.N,GND*%
X161399999Y-95000000D03*
%TD*%
D20*
%TO.N,GND*%
X179562499Y-65625000D03*
X153000000Y-94100000D03*
%TO.N,+3.3V*%
X167500000Y-60500000D03*
%TO.N,Net-(D1-A)*%
X177250000Y-65625000D03*
%TO.N,Net-(D2-A)*%
X153002819Y-91900000D03*
%TD*%
D21*
%TO.N,/SCL0*%
X175425001Y-62395001D02*
X175425001Y-71050001D01*
X175425001Y-71050001D02*
X177125000Y-72750000D01*
X172720000Y-59690000D02*
X175425001Y-62395001D01*
%TO.N,GND*%
X153000000Y-93024999D02*
X153000000Y-94100000D01*
D22*
X179562499Y-65625000D02*
X178487498Y-65625000D01*
D21*
%TO.N,/SDA0*%
X174925001Y-64435001D02*
X174925001Y-73050001D01*
X174925001Y-73050001D02*
X177125000Y-75250000D01*
X172720000Y-62230000D02*
X174925001Y-64435001D01*
D22*
%TO.N,+3.3V*%
X153780000Y-77470000D02*
X153000000Y-78250000D01*
X168980000Y-59020000D02*
X167500000Y-60500000D01*
X153000000Y-50500000D02*
X153230000Y-50730000D01*
X176205000Y-78670000D02*
X171847944Y-78670000D01*
X157510000Y-77500000D02*
X157480000Y-77470000D01*
X171847944Y-78670000D02*
X170677944Y-77500000D01*
X167500000Y-67450000D02*
X162975000Y-71975000D01*
X178425000Y-90325000D02*
X178425000Y-79050000D01*
X162250000Y-50730000D02*
X168980000Y-50730000D01*
X168980000Y-58500000D02*
X168980000Y-59020000D01*
X177125000Y-77750000D02*
X176205000Y-78670000D01*
X168980000Y-50730000D02*
X172720000Y-46990000D01*
X154425000Y-62825000D02*
X154425000Y-51925000D01*
X167500000Y-60500000D02*
X167500000Y-67450000D01*
X168980000Y-50730000D02*
X168980000Y-58500000D01*
X177000000Y-91750000D02*
X178425000Y-90325000D01*
X154425000Y-51925000D02*
X153000000Y-50500000D01*
X157480000Y-77470000D02*
X153780000Y-77470000D01*
X178425000Y-79050000D02*
X177125000Y-77750000D01*
X170677944Y-77500000D02*
X157510000Y-77500000D01*
X162975000Y-71975000D02*
X157480000Y-77470000D01*
X153000000Y-64250000D02*
X154425000Y-62825000D01*
X153230000Y-50730000D02*
X162250000Y-50730000D01*
%TO.N,Net-(J3-Pin_2)*%
X178775000Y-57100000D02*
X177250000Y-58625000D01*
X177325000Y-49625000D02*
X178775000Y-51075000D01*
X178775000Y-51075000D02*
X178775000Y-57100000D01*
D21*
%TO.N,Net-(D1-A)*%
X177362498Y-65625000D02*
X176437499Y-65625000D01*
D22*
%TO.N,+5V*%
X175800000Y-59675000D02*
X175800000Y-44990000D01*
X177250000Y-61125000D02*
X175800000Y-59675000D01*
X175800000Y-44990000D02*
X172720000Y-41910000D01*
D23*
X172960000Y-41670000D02*
X172720000Y-41910000D01*
D24*
%TO.N,Net-(D2-A)*%
X153002819Y-91900000D02*
X153000000Y-91897181D01*
X153000000Y-91897181D02*
X153000000Y-90975001D01*
%TD*%
M02*
