%TF.GenerationSoftware,KiCad,Pcbnew,8.0.3*%
%TF.CreationDate,2024-09-25T15:44:19-04:00*%
%TF.ProjectId,RF4463F30-test-board,52463434-3633-4463-9330-2d746573742d,rev?*%
%TF.SameCoordinates,Original*%
%TF.FileFunction,Copper,L2,Bot*%
%TF.FilePolarity,Positive*%
%FSLAX46Y46*%
G04 Gerber Fmt 4.6, Leading zero omitted, Abs format (unit mm)*
G04 Created by KiCad (PCBNEW 8.0.3) date 2024-09-25 15:44:19*
%MOMM*%
%LPD*%
G01*
G04 APERTURE LIST*
%TA.AperFunction,ComponentPad*%
%ADD10R,1.700000X1.700000*%
%TD*%
%TA.AperFunction,ComponentPad*%
%ADD11O,1.700000X1.700000*%
%TD*%
%TA.AperFunction,ComponentPad*%
%ADD12C,1.524000*%
%TD*%
%TA.AperFunction,SMDPad,CuDef*%
%ADD13R,1.500000X5.080000*%
%TD*%
%TA.AperFunction,ComponentPad*%
%ADD14C,2.000000*%
%TD*%
%TA.AperFunction,ViaPad*%
%ADD15C,0.800000*%
%TD*%
%TA.AperFunction,Conductor*%
%ADD16C,0.250000*%
%TD*%
G04 APERTURE END LIST*
D10*
%TO.P,JPower1,1,Pin_1*%
%TO.N,/5V*%
X159350000Y-110050000D03*
D11*
%TO.P,JPower1,2,Pin_2*%
%TO.N,/GND*%
X156810000Y-110050000D03*
%TO.P,JPower1,3,Pin_3*%
%TO.N,unconnected-(JPower1-Pin_3-Pad3)*%
X154270000Y-110050000D03*
%TD*%
D12*
%TO.P,BZ1,1,+*%
%TO.N,Net-(BZ1-+)*%
X146050000Y-133100000D03*
%TO.P,BZ1,2,-*%
%TO.N,/GND*%
X146050000Y-125600000D03*
%TD*%
D13*
%TO.P,ANT1,2,Ext*%
%TO.N,Net-(ANT1-Ext)*%
X163300000Y-79600000D03*
X171800000Y-79600000D03*
%TD*%
D14*
%TO.P,Teensy4.1,0,RX1*%
%TO.N,Net-(BZ1-+)*%
X132900000Y-134710000D03*
%TO.P,Teensy4.1,1,TX1*%
%TO.N,unconnected-(Teensy4.1-TX1-Pad1)*%
X132900000Y-132170000D03*
%TO.P,Teensy4.1,2,PWM*%
%TO.N,unconnected-(Teensy4.1-PWM-Pad2)*%
X132900000Y-129630000D03*
%TO.P,Teensy4.1,3,PWM*%
%TO.N,unconnected-(Teensy4.1-PWM-Pad3)*%
X132900000Y-127090000D03*
%TO.P,Teensy4.1,3V,3.3V*%
%TO.N,unconnected-(Teensy4.1-3.3V-Pad3V)*%
X132900000Y-101690000D03*
%TO.P,Teensy4.1,3V1,3.3V*%
%TO.N,unconnected-(Teensy4.1-3.3V-Pad3V1)*%
X117660000Y-132170000D03*
%TO.P,Teensy4.1,4,PWM*%
%TO.N,unconnected-(Teensy4.1-PWM-Pad4)*%
X132900000Y-124550000D03*
%TO.P,Teensy4.1,5,PWM*%
%TO.N,unconnected-(Teensy4.1-PWM-Pad5)*%
X132900000Y-122010000D03*
%TO.P,Teensy4.1,5V,VIN*%
%TO.N,/5V*%
X117660000Y-137250000D03*
%TO.P,Teensy4.1,6,PWM*%
%TO.N,/SDN*%
X132900000Y-119470000D03*
%TO.P,Teensy4.1,7,RX2*%
%TO.N,/IRQ*%
X132900000Y-116930000D03*
%TO.P,Teensy4.1,8,TX2*%
%TO.N,/CS*%
X132900000Y-114390000D03*
%TO.P,Teensy4.1,9,PWM*%
%TO.N,/GPIO0*%
X132900000Y-111850000D03*
%TO.P,Teensy4.1,10,CS*%
%TO.N,/GPIO1*%
X132900000Y-109310000D03*
%TO.P,Teensy4.1,11,MOSI*%
%TO.N,/MOSI*%
X132900000Y-106770000D03*
%TO.P,Teensy4.1,12,MISO*%
%TO.N,/MISO*%
X132900000Y-104230000D03*
%TO.P,Teensy4.1,13,SCK*%
%TO.N,/SCK*%
X117660000Y-104230000D03*
%TO.P,Teensy4.1,14,A0*%
%TO.N,unconnected-(Teensy4.1-A0-Pad14)*%
X117660000Y-106770000D03*
%TO.P,Teensy4.1,15,A1*%
%TO.N,unconnected-(Teensy4.1-A1-Pad15)*%
X117660000Y-109310000D03*
%TO.P,Teensy4.1,16,A2*%
%TO.N,unconnected-(Teensy4.1-A2-Pad16)*%
X117660000Y-111850000D03*
%TO.P,Teensy4.1,17,A3*%
%TO.N,unconnected-(Teensy4.1-A3-Pad17)*%
X117660000Y-114390000D03*
%TO.P,Teensy4.1,18,SDA*%
%TO.N,unconnected-(Teensy4.1-SDA-Pad18)*%
X117660000Y-116930000D03*
%TO.P,Teensy4.1,19,SCL*%
%TO.N,unconnected-(Teensy4.1-SCL-Pad19)*%
X117660000Y-119470000D03*
%TO.P,Teensy4.1,20,TX5*%
%TO.N,unconnected-(Teensy4.1-TX5-Pad20)*%
X117660000Y-122010000D03*
%TO.P,Teensy4.1,21,RX5*%
%TO.N,unconnected-(Teensy4.1-RX5-Pad21)*%
X117660000Y-124550000D03*
%TO.P,Teensy4.1,22,PWM*%
%TO.N,unconnected-(Teensy4.1-PWM-Pad22)*%
X117660000Y-127090000D03*
%TO.P,Teensy4.1,23,PWM*%
%TO.N,unconnected-(Teensy4.1-PWM-Pad23)*%
X117660000Y-129630000D03*
%TO.P,Teensy4.1,24,SCL2*%
%TO.N,unconnected-(Teensy4.1-SCL2-Pad24)*%
X132900000Y-99150000D03*
%TO.P,Teensy4.1,25,SDA2*%
%TO.N,unconnected-(Teensy4.1-SDA2-Pad25)*%
X132900000Y-96610000D03*
%TO.P,Teensy4.1,26,MOSI1*%
%TO.N,unconnected-(Teensy4.1-MOSI1-Pad26)*%
X132900000Y-94070000D03*
%TO.P,Teensy4.1,27,SCK1*%
%TO.N,unconnected-(Teensy4.1-SCK1-Pad27)*%
X132900000Y-91530000D03*
%TO.P,Teensy4.1,28,RX7*%
%TO.N,unconnected-(Teensy4.1-RX7-Pad28)*%
X132900000Y-88990000D03*
%TO.P,Teensy4.1,29,TX7*%
%TO.N,unconnected-(Teensy4.1-TX7-Pad29)*%
X132900000Y-86450000D03*
%TO.P,Teensy4.1,30,GPIO*%
%TO.N,unconnected-(Teensy4.1-GPIO-Pad30)*%
X132900000Y-83910000D03*
%TO.P,Teensy4.1,31,GPIO*%
%TO.N,unconnected-(Teensy4.1-GPIO-Pad31)*%
X132900000Y-81370000D03*
%TO.P,Teensy4.1,32,GPIO*%
%TO.N,unconnected-(Teensy4.1-GPIO-Pad32)*%
X132900000Y-78830000D03*
%TO.P,Teensy4.1,33,PWM*%
%TO.N,unconnected-(Teensy4.1-PWM-Pad33)*%
X117660000Y-78830000D03*
%TO.P,Teensy4.1,34,RX8*%
%TO.N,unconnected-(Teensy4.1-RX8-Pad34)*%
X117660000Y-81370000D03*
%TO.P,Teensy4.1,35,TX8*%
%TO.N,unconnected-(Teensy4.1-TX8-Pad35)*%
X117660000Y-83910000D03*
%TO.P,Teensy4.1,36,PWM*%
%TO.N,unconnected-(Teensy4.1-PWM-Pad36)*%
X117660000Y-86450000D03*
%TO.P,Teensy4.1,37,PWM*%
%TO.N,unconnected-(Teensy4.1-PWM-Pad37)*%
X117660000Y-88990000D03*
%TO.P,Teensy4.1,38,CS1*%
%TO.N,unconnected-(Teensy4.1-CS1-Pad38)*%
X117660000Y-91530000D03*
%TO.P,Teensy4.1,39,MISO1*%
%TO.N,unconnected-(Teensy4.1-MISO1-Pad39)*%
X117660000Y-94070000D03*
%TO.P,Teensy4.1,40,A16*%
%TO.N,unconnected-(Teensy4.1-A16-Pad40)*%
X117660000Y-96610000D03*
%TO.P,Teensy4.1,41,A17*%
%TO.N,unconnected-(Teensy4.1-A17-Pad41)*%
X117660000Y-99150000D03*
%TO.P,Teensy4.1,G,GND*%
%TO.N,/GND*%
X132900000Y-137250000D03*
%TO.P,Teensy4.1,G1,GND*%
%TO.N,unconnected-(Teensy4.1-GND-PadG1)*%
X117660000Y-134710000D03*
%TO.P,Teensy4.1,G2,GND*%
%TO.N,unconnected-(Teensy4.1-GND-PadG2)*%
X117660000Y-101690000D03*
%TD*%
D15*
%TO.N,Net-(ANT1-Ext)*%
X169000000Y-86400000D03*
X166200000Y-82800000D03*
X166200000Y-86400000D03*
X169000000Y-82800000D03*
%TO.N,/GND*%
X135125000Y-118650000D03*
X135125000Y-121450000D03*
X135125000Y-116150000D03*
%TO.N,/MOSI*%
X136600000Y-95000000D03*
%TD*%
D16*
%TO.N,/5V*%
X117660000Y-137250000D02*
X119110000Y-138700000D01*
X119110000Y-138700000D02*
X146250000Y-138700000D01*
X146250000Y-138700000D02*
X159350000Y-125600000D01*
X159350000Y-125600000D02*
X159350000Y-110050000D01*
%TO.N,/GND*%
X139275000Y-125600000D02*
X146050000Y-125600000D01*
X135125000Y-118650000D02*
X135125000Y-121450000D01*
X135125000Y-116150000D02*
X135125000Y-118650000D01*
X135125000Y-121450000D02*
X139275000Y-125600000D01*
%TO.N,/MOSI*%
X136400000Y-95200000D02*
X136400000Y-103270000D01*
X136400000Y-103270000D02*
X132900000Y-106770000D01*
X136600000Y-95000000D02*
X136400000Y-95200000D01*
%TD*%
%TA.AperFunction,Conductor*%
%TO.N,Net-(ANT1-Ext)*%
G36*
X170492949Y-77022082D02*
G01*
X170538749Y-77074846D01*
X170550000Y-77126456D01*
X170550000Y-79350000D01*
X171926000Y-79350000D01*
X171993039Y-79369685D01*
X172038794Y-79422489D01*
X172050000Y-79474000D01*
X172050000Y-82640000D01*
X172597828Y-82640000D01*
X172597844Y-82639999D01*
X172657372Y-82633598D01*
X172657379Y-82633596D01*
X172792086Y-82583354D01*
X172792093Y-82583350D01*
X172907187Y-82497190D01*
X172907190Y-82497187D01*
X172993350Y-82382093D01*
X172993354Y-82382086D01*
X173009818Y-82337945D01*
X173051689Y-82282011D01*
X173117153Y-82257594D01*
X173185426Y-82272445D01*
X173234832Y-82321851D01*
X173250000Y-82381278D01*
X173250000Y-138876000D01*
X173230315Y-138943039D01*
X173177511Y-138988794D01*
X173126000Y-139000000D01*
X146709689Y-139000000D01*
X146642650Y-138980315D01*
X146596895Y-138927511D01*
X146586951Y-138858353D01*
X146615976Y-138794797D01*
X146622008Y-138788319D01*
X148704041Y-136706286D01*
X148916614Y-136493713D01*
X169449500Y-136493713D01*
X169449500Y-136706286D01*
X169466635Y-136814476D01*
X169482754Y-136916243D01*
X169519216Y-137028462D01*
X169548444Y-137118414D01*
X169644951Y-137307820D01*
X169769890Y-137479786D01*
X169920213Y-137630109D01*
X170092179Y-137755048D01*
X170092181Y-137755049D01*
X170092184Y-137755051D01*
X170281588Y-137851557D01*
X170483757Y-137917246D01*
X170693713Y-137950500D01*
X170693714Y-137950500D01*
X170906286Y-137950500D01*
X170906287Y-137950500D01*
X171116243Y-137917246D01*
X171318412Y-137851557D01*
X171507816Y-137755051D01*
X171529789Y-137739086D01*
X171679786Y-137630109D01*
X171679788Y-137630106D01*
X171679792Y-137630104D01*
X171830104Y-137479792D01*
X171830106Y-137479788D01*
X171830109Y-137479786D01*
X171955048Y-137307820D01*
X171955047Y-137307820D01*
X171955051Y-137307816D01*
X172051557Y-137118412D01*
X172117246Y-136916243D01*
X172150500Y-136706287D01*
X172150500Y-136493713D01*
X172117246Y-136283757D01*
X172051557Y-136081588D01*
X171955051Y-135892184D01*
X171955049Y-135892181D01*
X171955048Y-135892179D01*
X171830109Y-135720213D01*
X171679786Y-135569890D01*
X171507820Y-135444951D01*
X171318414Y-135348444D01*
X171318413Y-135348443D01*
X171318412Y-135348443D01*
X171116243Y-135282754D01*
X171116241Y-135282753D01*
X171116240Y-135282753D01*
X170954957Y-135257208D01*
X170906287Y-135249500D01*
X170693713Y-135249500D01*
X170645042Y-135257208D01*
X170483760Y-135282753D01*
X170281585Y-135348444D01*
X170092179Y-135444951D01*
X169920213Y-135569890D01*
X169769890Y-135720213D01*
X169644951Y-135892179D01*
X169548444Y-136081585D01*
X169482753Y-136283760D01*
X169449500Y-136493713D01*
X148916614Y-136493713D01*
X159539652Y-125870672D01*
X159539657Y-125870669D01*
X159549860Y-125860465D01*
X159549862Y-125860465D01*
X159610465Y-125799862D01*
X159653318Y-125725638D01*
X159657611Y-125709618D01*
X159675501Y-125642853D01*
X159675501Y-125557147D01*
X159675501Y-125549552D01*
X159675500Y-125549534D01*
X159675500Y-111224500D01*
X159695185Y-111157461D01*
X159747989Y-111111706D01*
X159799500Y-111100500D01*
X160219750Y-111100500D01*
X160219751Y-111100499D01*
X160234568Y-111097552D01*
X160278229Y-111088868D01*
X160278229Y-111088867D01*
X160278231Y-111088867D01*
X160344552Y-111044552D01*
X160388867Y-110978231D01*
X160388867Y-110978229D01*
X160388868Y-110978229D01*
X160400499Y-110919752D01*
X160400500Y-110919750D01*
X160400500Y-109180249D01*
X160400499Y-109180247D01*
X160388868Y-109121770D01*
X160388867Y-109121769D01*
X160344552Y-109055447D01*
X160278230Y-109011132D01*
X160278229Y-109011131D01*
X160219752Y-108999500D01*
X160219748Y-108999500D01*
X158480252Y-108999500D01*
X158480247Y-108999500D01*
X158421770Y-109011131D01*
X158421769Y-109011132D01*
X158355447Y-109055447D01*
X158311132Y-109121769D01*
X158311131Y-109121770D01*
X158299500Y-109180247D01*
X158299500Y-110919752D01*
X158311131Y-110978229D01*
X158311132Y-110978230D01*
X158355447Y-111044552D01*
X158421769Y-111088867D01*
X158421770Y-111088868D01*
X158480247Y-111100499D01*
X158480250Y-111100500D01*
X158480252Y-111100500D01*
X158900500Y-111100500D01*
X158967539Y-111120185D01*
X159013294Y-111172989D01*
X159024500Y-111224500D01*
X159024500Y-125413811D01*
X159004815Y-125480850D01*
X158988181Y-125501492D01*
X146151492Y-138338181D01*
X146090169Y-138371666D01*
X146063811Y-138374500D01*
X133768525Y-138374500D01*
X133701486Y-138354815D01*
X133655731Y-138302011D01*
X133645787Y-138232853D01*
X133674812Y-138169297D01*
X133684987Y-138158863D01*
X133790979Y-138062238D01*
X133875360Y-137950500D01*
X133925058Y-137884689D01*
X134024229Y-137685528D01*
X134085115Y-137471536D01*
X134105643Y-137250000D01*
X134085115Y-137028464D01*
X134024229Y-136814472D01*
X133970359Y-136706287D01*
X133925061Y-136615316D01*
X133925056Y-136615308D01*
X133790979Y-136437761D01*
X133626562Y-136287876D01*
X133626560Y-136287874D01*
X133437404Y-136170754D01*
X133437395Y-136170750D01*
X133343956Y-136134552D01*
X133243475Y-136095625D01*
X133188075Y-136053054D01*
X133164484Y-135987288D01*
X133180195Y-135919207D01*
X133230219Y-135870428D01*
X133243466Y-135864377D01*
X133437401Y-135789247D01*
X133626562Y-135672124D01*
X133790981Y-135522236D01*
X133925058Y-135344689D01*
X134024229Y-135145528D01*
X134085115Y-134931536D01*
X134105643Y-134710000D01*
X134085115Y-134488464D01*
X134024229Y-134274472D01*
X134024224Y-134274461D01*
X133925061Y-134075316D01*
X133925056Y-134075308D01*
X133790979Y-133897761D01*
X133626562Y-133747876D01*
X133626560Y-133747874D01*
X133437404Y-133630754D01*
X133437395Y-133630750D01*
X133343956Y-133594552D01*
X133243475Y-133555625D01*
X133188075Y-133513054D01*
X133164484Y-133447288D01*
X133180195Y-133379207D01*
X133230219Y-133330428D01*
X133243466Y-133324377D01*
X133437401Y-133249247D01*
X133626562Y-133132124D01*
X133790981Y-132982236D01*
X133925058Y-132804689D01*
X134024229Y-132605528D01*
X134085115Y-132391536D01*
X134105643Y-132170000D01*
X134085115Y-131948464D01*
X134083763Y-131943713D01*
X135449500Y-131943713D01*
X135449500Y-132156287D01*
X135482754Y-132366243D01*
X135546579Y-132562676D01*
X135548444Y-132568414D01*
X135644951Y-132757820D01*
X135769890Y-132929786D01*
X135920213Y-133080109D01*
X136092179Y-133205048D01*
X136092181Y-133205049D01*
X136092184Y-133205051D01*
X136281588Y-133301557D01*
X136483757Y-133367246D01*
X136693713Y-133400500D01*
X136693714Y-133400500D01*
X136906286Y-133400500D01*
X136906287Y-133400500D01*
X137116243Y-133367246D01*
X137318412Y-133301557D01*
X137507816Y-133205051D01*
X137608191Y-133132125D01*
X137652408Y-133100000D01*
X145082843Y-133100000D01*
X145101426Y-133288681D01*
X145105332Y-133301557D01*
X145156463Y-133470115D01*
X145156464Y-133470118D01*
X145156465Y-133470119D01*
X145156466Y-133470122D01*
X145245834Y-133637318D01*
X145245838Y-133637325D01*
X145366116Y-133783883D01*
X145512674Y-133904161D01*
X145512681Y-133904165D01*
X145679877Y-133993533D01*
X145679878Y-133993533D01*
X145679885Y-133993537D01*
X145861317Y-134048573D01*
X145861316Y-134048573D01*
X145878233Y-134050239D01*
X146050000Y-134067157D01*
X146238683Y-134048573D01*
X146420115Y-133993537D01*
X146587324Y-133904162D01*
X146733883Y-133783883D01*
X146854162Y-133637324D01*
X146943537Y-133470115D01*
X146998573Y-133288683D01*
X147017157Y-133100000D01*
X146998573Y-132911317D01*
X146943537Y-132729885D01*
X146943533Y-132729877D01*
X146854165Y-132562681D01*
X146854161Y-132562674D01*
X146733883Y-132416116D01*
X146587325Y-132295838D01*
X146587318Y-132295834D01*
X146420122Y-132206466D01*
X146420119Y-132206465D01*
X146420118Y-132206464D01*
X146420115Y-132206463D01*
X146238683Y-132151427D01*
X146238681Y-132151426D01*
X146238683Y-132151426D01*
X146050000Y-132132843D01*
X145861318Y-132151426D01*
X145754194Y-132183921D01*
X145679885Y-132206463D01*
X145679882Y-132206464D01*
X145679880Y-132206465D01*
X145679877Y-132206466D01*
X145512681Y-132295834D01*
X145512674Y-132295838D01*
X145366116Y-132416116D01*
X145245838Y-132562674D01*
X145245834Y-132562681D01*
X145156466Y-132729877D01*
X145156465Y-132729880D01*
X145156464Y-132729882D01*
X145156463Y-132729885D01*
X145147989Y-132757820D01*
X145101426Y-132911318D01*
X145082843Y-133100000D01*
X137652408Y-133100000D01*
X137679786Y-133080109D01*
X137679788Y-133080106D01*
X137679792Y-133080104D01*
X137830104Y-132929792D01*
X137830106Y-132929788D01*
X137830109Y-132929786D01*
X137955048Y-132757820D01*
X137955047Y-132757820D01*
X137955051Y-132757816D01*
X138051557Y-132568412D01*
X138117246Y-132366243D01*
X138150500Y-132156287D01*
X138150500Y-131943713D01*
X138117246Y-131733757D01*
X138051557Y-131531588D01*
X137955051Y-131342184D01*
X137955049Y-131342181D01*
X137955048Y-131342179D01*
X137830109Y-131170213D01*
X137679786Y-131019890D01*
X137507820Y-130894951D01*
X137318414Y-130798444D01*
X137318413Y-130798443D01*
X137318412Y-130798443D01*
X137116243Y-130732754D01*
X137116241Y-130732753D01*
X137116240Y-130732753D01*
X136954957Y-130707208D01*
X136906287Y-130699500D01*
X136693713Y-130699500D01*
X136645042Y-130707208D01*
X136483760Y-130732753D01*
X136281585Y-130798444D01*
X136092179Y-130894951D01*
X135920213Y-131019890D01*
X135769890Y-131170213D01*
X135644951Y-131342179D01*
X135548444Y-131531585D01*
X135482753Y-131733760D01*
X135482640Y-131734476D01*
X135449500Y-131943713D01*
X134083763Y-131943713D01*
X134024229Y-131734472D01*
X134024224Y-131734461D01*
X133925061Y-131535316D01*
X133925056Y-131535308D01*
X133790979Y-131357761D01*
X133626562Y-131207876D01*
X133626560Y-131207874D01*
X133437404Y-131090754D01*
X133437395Y-131090750D01*
X133343956Y-131054552D01*
X133243475Y-131015625D01*
X133188075Y-130973054D01*
X133164484Y-130907288D01*
X133180195Y-130839207D01*
X133230219Y-130790428D01*
X133243466Y-130784377D01*
X133437401Y-130709247D01*
X133626562Y-130592124D01*
X133790981Y-130442236D01*
X133925058Y-130264689D01*
X134024229Y-130065528D01*
X134085115Y-129851536D01*
X134105643Y-129630000D01*
X134085115Y-129408464D01*
X134024229Y-129194472D01*
X134024224Y-129194461D01*
X133925061Y-128995316D01*
X133925056Y-128995308D01*
X133790979Y-128817761D01*
X133626562Y-128667876D01*
X133626560Y-128667874D01*
X133437404Y-128550754D01*
X133437395Y-128550750D01*
X133343956Y-128514552D01*
X133243475Y-128475625D01*
X133188075Y-128433054D01*
X133164484Y-128367288D01*
X133180195Y-128299207D01*
X133230219Y-128250428D01*
X133243466Y-128244377D01*
X133437401Y-128169247D01*
X133626562Y-128052124D01*
X133790981Y-127902236D01*
X133925058Y-127724689D01*
X134024229Y-127525528D01*
X134085115Y-127311536D01*
X134105643Y-127090000D01*
X134085115Y-126868464D01*
X134024229Y-126654472D01*
X134024224Y-126654461D01*
X133925061Y-126455316D01*
X133925056Y-126455308D01*
X133790979Y-126277761D01*
X133626562Y-126127876D01*
X133626560Y-126127874D01*
X133437404Y-126010754D01*
X133437395Y-126010750D01*
X133343956Y-125974552D01*
X133243475Y-125935625D01*
X133188075Y-125893054D01*
X133164484Y-125827288D01*
X133180195Y-125759207D01*
X133230219Y-125710428D01*
X133243466Y-125704377D01*
X133437401Y-125629247D01*
X133626562Y-125512124D01*
X133790981Y-125362236D01*
X133925058Y-125184689D01*
X134024229Y-124985528D01*
X134085115Y-124771536D01*
X134105643Y-124550000D01*
X134085115Y-124328464D01*
X134024229Y-124114472D01*
X134024224Y-124114461D01*
X133925061Y-123915316D01*
X133925056Y-123915308D01*
X133790979Y-123737761D01*
X133626562Y-123587876D01*
X133626560Y-123587874D01*
X133437404Y-123470754D01*
X133437395Y-123470750D01*
X133343956Y-123434552D01*
X133243475Y-123395625D01*
X133188075Y-123353054D01*
X133164484Y-123287288D01*
X133180195Y-123219207D01*
X133230219Y-123170428D01*
X133243466Y-123164377D01*
X133437401Y-123089247D01*
X133626562Y-122972124D01*
X133790981Y-122822236D01*
X133925058Y-122644689D01*
X134024229Y-122445528D01*
X134085115Y-122231536D01*
X134105643Y-122010000D01*
X134085115Y-121788464D01*
X134024229Y-121574472D01*
X134017203Y-121560361D01*
X133925061Y-121375316D01*
X133925056Y-121375308D01*
X133790979Y-121197761D01*
X133626562Y-121047876D01*
X133626560Y-121047874D01*
X133437404Y-120930754D01*
X133437395Y-120930750D01*
X133310778Y-120881699D01*
X133243475Y-120855625D01*
X133188075Y-120813054D01*
X133164484Y-120747288D01*
X133180195Y-120679207D01*
X133230219Y-120630428D01*
X133243466Y-120624377D01*
X133437401Y-120549247D01*
X133626562Y-120432124D01*
X133790981Y-120282236D01*
X133925058Y-120104689D01*
X134024229Y-119905528D01*
X134085115Y-119691536D01*
X134105643Y-119470000D01*
X134085115Y-119248464D01*
X134024229Y-119034472D01*
X134024224Y-119034461D01*
X133925061Y-118835316D01*
X133925056Y-118835308D01*
X133790979Y-118657761D01*
X133626562Y-118507876D01*
X133626560Y-118507874D01*
X133437404Y-118390754D01*
X133437395Y-118390750D01*
X133343956Y-118354552D01*
X133243475Y-118315625D01*
X133188075Y-118273054D01*
X133164484Y-118207288D01*
X133180195Y-118139207D01*
X133230219Y-118090428D01*
X133243466Y-118084377D01*
X133437401Y-118009247D01*
X133626562Y-117892124D01*
X133790981Y-117742236D01*
X133925058Y-117564689D01*
X134024229Y-117365528D01*
X134085115Y-117151536D01*
X134105643Y-116930000D01*
X134085115Y-116708464D01*
X134024229Y-116494472D01*
X134024224Y-116494461D01*
X133925061Y-116295316D01*
X133925056Y-116295308D01*
X133815323Y-116149998D01*
X134519318Y-116149998D01*
X134519318Y-116150001D01*
X134539955Y-116306760D01*
X134539956Y-116306762D01*
X134600464Y-116452841D01*
X134696718Y-116578282D01*
X134750987Y-116619924D01*
X134792189Y-116676349D01*
X134799500Y-116718298D01*
X134799500Y-118081699D01*
X134779815Y-118148738D01*
X134750988Y-118180074D01*
X134696720Y-118221715D01*
X134600463Y-118347160D01*
X134539956Y-118493237D01*
X134539955Y-118493239D01*
X134519318Y-118649998D01*
X134519318Y-118650001D01*
X134539955Y-118806760D01*
X134539956Y-118806762D01*
X134600464Y-118952841D01*
X134696718Y-119078282D01*
X134750987Y-119119924D01*
X134792189Y-119176349D01*
X134799500Y-119218298D01*
X134799500Y-120881699D01*
X134779815Y-120948738D01*
X134750988Y-120980074D01*
X134696720Y-121021715D01*
X134600463Y-121147160D01*
X134539956Y-121293237D01*
X134539955Y-121293239D01*
X134519318Y-121449998D01*
X134519318Y-121450001D01*
X134539955Y-121606760D01*
X134539956Y-121606762D01*
X134600464Y-121752841D01*
X134696718Y-121878282D01*
X134822159Y-121974536D01*
X134968238Y-122035044D01*
X134996548Y-122038771D01*
X135124999Y-122055682D01*
X135124999Y-122055681D01*
X135125000Y-122055682D01*
X135192817Y-122046753D01*
X135261852Y-122057518D01*
X135296684Y-122082011D01*
X139014534Y-125799861D01*
X139014535Y-125799862D01*
X139075138Y-125860465D01*
X139075140Y-125860466D01*
X139075144Y-125860469D01*
X139110347Y-125880793D01*
X139149362Y-125903318D01*
X139232147Y-125925500D01*
X139317853Y-125925500D01*
X145058293Y-125925500D01*
X145125332Y-125945185D01*
X145167651Y-125991047D01*
X145245834Y-126137318D01*
X145245838Y-126137325D01*
X145366116Y-126283883D01*
X145512674Y-126404161D01*
X145512681Y-126404165D01*
X145679877Y-126493533D01*
X145679878Y-126493533D01*
X145679885Y-126493537D01*
X145861317Y-126548573D01*
X145861316Y-126548573D01*
X145878233Y-126550239D01*
X146050000Y-126567157D01*
X146238683Y-126548573D01*
X146420115Y-126493537D01*
X146587324Y-126404162D01*
X146733883Y-126283883D01*
X146854162Y-126137324D01*
X146943537Y-125970115D01*
X146998573Y-125788683D01*
X147017157Y-125600000D01*
X146998573Y-125411317D01*
X146943537Y-125229885D01*
X146932349Y-125208953D01*
X146854165Y-125062681D01*
X146854161Y-125062674D01*
X146733883Y-124916116D01*
X146587325Y-124795838D01*
X146587318Y-124795834D01*
X146420122Y-124706466D01*
X146420119Y-124706465D01*
X146420118Y-124706464D01*
X146420115Y-124706463D01*
X146238683Y-124651427D01*
X146238681Y-124651426D01*
X146238683Y-124651426D01*
X146050000Y-124632843D01*
X145861318Y-124651426D01*
X145754194Y-124683921D01*
X145679885Y-124706463D01*
X145679882Y-124706464D01*
X145679880Y-124706465D01*
X145679877Y-124706466D01*
X145512681Y-124795834D01*
X145512674Y-124795838D01*
X145366116Y-124916116D01*
X145245838Y-125062674D01*
X145245834Y-125062681D01*
X145167651Y-125208953D01*
X145118689Y-125258797D01*
X145058293Y-125274500D01*
X139461189Y-125274500D01*
X139394150Y-125254815D01*
X139373508Y-125238181D01*
X135757011Y-121621684D01*
X135723526Y-121560361D01*
X135721753Y-121517816D01*
X135730682Y-121449999D01*
X135730682Y-121449998D01*
X135710044Y-121293239D01*
X135710044Y-121293238D01*
X135649536Y-121147159D01*
X135553282Y-121021718D01*
X135553280Y-121021716D01*
X135553279Y-121021715D01*
X135499012Y-120980074D01*
X135457810Y-120923646D01*
X135450500Y-120881699D01*
X135450500Y-119218298D01*
X135470185Y-119151259D01*
X135499010Y-119119925D01*
X135553282Y-119078282D01*
X135649536Y-118952841D01*
X135710044Y-118806762D01*
X135730682Y-118650000D01*
X135710044Y-118493238D01*
X135649536Y-118347159D01*
X135553282Y-118221718D01*
X135553280Y-118221716D01*
X135553279Y-118221715D01*
X135499012Y-118180074D01*
X135457810Y-118123646D01*
X135450500Y-118081699D01*
X135450500Y-116718298D01*
X135470185Y-116651259D01*
X135499010Y-116619925D01*
X135553282Y-116578282D01*
X135649536Y-116452841D01*
X135710044Y-116306762D01*
X135730682Y-116150000D01*
X135710044Y-115993238D01*
X135649536Y-115847159D01*
X135553282Y-115721718D01*
X135427841Y-115625464D01*
X135334850Y-115586946D01*
X135281762Y-115564956D01*
X135281760Y-115564955D01*
X135125001Y-115544318D01*
X135124999Y-115544318D01*
X134968239Y-115564955D01*
X134968237Y-115564956D01*
X134822160Y-115625463D01*
X134696718Y-115721718D01*
X134600463Y-115847160D01*
X134539956Y-115993237D01*
X134539955Y-115993239D01*
X134519318Y-116149998D01*
X133815323Y-116149998D01*
X133790979Y-116117761D01*
X133626562Y-115967876D01*
X133626560Y-115967874D01*
X133437404Y-115850754D01*
X133437395Y-115850750D01*
X133343956Y-115814552D01*
X133243475Y-115775625D01*
X133188075Y-115733054D01*
X133164484Y-115667288D01*
X133180195Y-115599207D01*
X133230219Y-115550428D01*
X133243466Y-115544377D01*
X133437401Y-115469247D01*
X133626562Y-115352124D01*
X133790981Y-115202236D01*
X133925058Y-115024689D01*
X134024229Y-114825528D01*
X134085115Y-114611536D01*
X134105643Y-114390000D01*
X134085115Y-114168464D01*
X134024229Y-113954472D01*
X134024224Y-113954461D01*
X133925061Y-113755316D01*
X133925056Y-113755308D01*
X133790979Y-113577761D01*
X133626562Y-113427876D01*
X133626560Y-113427874D01*
X133437404Y-113310754D01*
X133437395Y-113310750D01*
X133343956Y-113274552D01*
X133243475Y-113235625D01*
X133188075Y-113193054D01*
X133164484Y-113127288D01*
X133180195Y-113059207D01*
X133230219Y-113010428D01*
X133243466Y-113004377D01*
X133437401Y-112929247D01*
X133626562Y-112812124D01*
X133790981Y-112662236D01*
X133925058Y-112484689D01*
X134024229Y-112285528D01*
X134085115Y-112071536D01*
X134105643Y-111850000D01*
X134085115Y-111628464D01*
X134024229Y-111414472D01*
X133929634Y-111224500D01*
X133925061Y-111215316D01*
X133925056Y-111215308D01*
X133790979Y-111037761D01*
X133626562Y-110887876D01*
X133626560Y-110887874D01*
X133437404Y-110770754D01*
X133437395Y-110770750D01*
X133343956Y-110734552D01*
X133243475Y-110695625D01*
X133188075Y-110653054D01*
X133164484Y-110587288D01*
X133180195Y-110519207D01*
X133230219Y-110470428D01*
X133243466Y-110464377D01*
X133437401Y-110389247D01*
X133626562Y-110272124D01*
X133790981Y-110122236D01*
X133845531Y-110050000D01*
X153214417Y-110050000D01*
X153234699Y-110255932D01*
X153239611Y-110272124D01*
X153294768Y-110453954D01*
X153392315Y-110636450D01*
X153426969Y-110678677D01*
X153523589Y-110796410D01*
X153620209Y-110875702D01*
X153683550Y-110927685D01*
X153866046Y-111025232D01*
X154064066Y-111085300D01*
X154064065Y-111085300D01*
X154082529Y-111087118D01*
X154270000Y-111105583D01*
X154475934Y-111085300D01*
X154673954Y-111025232D01*
X154856450Y-110927685D01*
X155016410Y-110796410D01*
X155147685Y-110636450D01*
X155245232Y-110453954D01*
X155305300Y-110255934D01*
X155325583Y-110050000D01*
X155754417Y-110050000D01*
X155774699Y-110255932D01*
X155779611Y-110272124D01*
X155834768Y-110453954D01*
X155932315Y-110636450D01*
X155966969Y-110678677D01*
X156063589Y-110796410D01*
X156160209Y-110875702D01*
X156223550Y-110927685D01*
X156406046Y-111025232D01*
X156604066Y-111085300D01*
X156604065Y-111085300D01*
X156622529Y-111087118D01*
X156810000Y-111105583D01*
X157015934Y-111085300D01*
X157213954Y-111025232D01*
X157396450Y-110927685D01*
X157556410Y-110796410D01*
X157687685Y-110636450D01*
X157785232Y-110453954D01*
X157845300Y-110255934D01*
X157865583Y-110050000D01*
X157845300Y-109844066D01*
X157785232Y-109646046D01*
X157687685Y-109463550D01*
X157561670Y-109309999D01*
X157556410Y-109303589D01*
X157406121Y-109180252D01*
X157396450Y-109172315D01*
X157213954Y-109074768D01*
X157015934Y-109014700D01*
X157015932Y-109014699D01*
X157015934Y-109014699D01*
X156810000Y-108994417D01*
X156604067Y-109014699D01*
X156406043Y-109074769D01*
X156318114Y-109121769D01*
X156223550Y-109172315D01*
X156223548Y-109172316D01*
X156223547Y-109172317D01*
X156063589Y-109303589D01*
X155932317Y-109463547D01*
X155834769Y-109646043D01*
X155774699Y-109844067D01*
X155754417Y-110050000D01*
X155325583Y-110050000D01*
X155305300Y-109844066D01*
X155245232Y-109646046D01*
X155147685Y-109463550D01*
X155021670Y-109309999D01*
X155016410Y-109303589D01*
X154866121Y-109180252D01*
X154856450Y-109172315D01*
X154673954Y-109074768D01*
X154475934Y-109014700D01*
X154475932Y-109014699D01*
X154475934Y-109014699D01*
X154270000Y-108994417D01*
X154064067Y-109014699D01*
X153866043Y-109074769D01*
X153778114Y-109121769D01*
X153683550Y-109172315D01*
X153683548Y-109172316D01*
X153683547Y-109172317D01*
X153523589Y-109303589D01*
X153392317Y-109463547D01*
X153294769Y-109646043D01*
X153234699Y-109844067D01*
X153214417Y-110050000D01*
X133845531Y-110050000D01*
X133925058Y-109944689D01*
X134024229Y-109745528D01*
X134085115Y-109531536D01*
X134105643Y-109310000D01*
X134085115Y-109088464D01*
X134024229Y-108874472D01*
X134024224Y-108874461D01*
X133925061Y-108675316D01*
X133925056Y-108675308D01*
X133790979Y-108497761D01*
X133626562Y-108347876D01*
X133626560Y-108347874D01*
X133437404Y-108230754D01*
X133437395Y-108230750D01*
X133343956Y-108194552D01*
X133243475Y-108155625D01*
X133188075Y-108113054D01*
X133164484Y-108047288D01*
X133180195Y-107979207D01*
X133230219Y-107930428D01*
X133243466Y-107924377D01*
X133437401Y-107849247D01*
X133626562Y-107732124D01*
X133790981Y-107582236D01*
X133925058Y-107404689D01*
X134024229Y-107205528D01*
X134085115Y-106991536D01*
X134105643Y-106770000D01*
X134085115Y-106548464D01*
X134024229Y-106334472D01*
X133988080Y-106261876D01*
X133975819Y-106193093D01*
X134002692Y-106128598D01*
X134011390Y-106118935D01*
X136660465Y-103469862D01*
X136660674Y-103469500D01*
X136703318Y-103395638D01*
X136725500Y-103312853D01*
X136725500Y-95680847D01*
X136745185Y-95613808D01*
X136797989Y-95568053D01*
X136802032Y-95566292D01*
X136902841Y-95524536D01*
X137028282Y-95428282D01*
X137124536Y-95302841D01*
X137185044Y-95156762D01*
X137205682Y-95000000D01*
X137185044Y-94843238D01*
X137124536Y-94697159D01*
X137028282Y-94571718D01*
X136902841Y-94475464D01*
X136756762Y-94414956D01*
X136756760Y-94414955D01*
X136600001Y-94394318D01*
X136599999Y-94394318D01*
X136443239Y-94414955D01*
X136443237Y-94414956D01*
X136297160Y-94475463D01*
X136171718Y-94571718D01*
X136075463Y-94697160D01*
X136014956Y-94843237D01*
X136014955Y-94843239D01*
X135994318Y-94999998D01*
X135994318Y-95000001D01*
X136014955Y-95156760D01*
X136014956Y-95156762D01*
X136065061Y-95277725D01*
X136074500Y-95325178D01*
X136074500Y-103083810D01*
X136054815Y-103150849D01*
X136038181Y-103171491D01*
X133553290Y-105656381D01*
X133491967Y-105689866D01*
X133422275Y-105684882D01*
X133420816Y-105684327D01*
X133321613Y-105645896D01*
X133243475Y-105615625D01*
X133188075Y-105573055D01*
X133164484Y-105507288D01*
X133180195Y-105439207D01*
X133230218Y-105390428D01*
X133243466Y-105384377D01*
X133437401Y-105309247D01*
X133626562Y-105192124D01*
X133790981Y-105042236D01*
X133925058Y-104864689D01*
X134024229Y-104665528D01*
X134085115Y-104451536D01*
X134105643Y-104230000D01*
X134085115Y-104008464D01*
X134024229Y-103794472D01*
X134024224Y-103794461D01*
X133925061Y-103595316D01*
X133925056Y-103595308D01*
X133790979Y-103417761D01*
X133626562Y-103267876D01*
X133626560Y-103267874D01*
X133437404Y-103150754D01*
X133437395Y-103150750D01*
X133343956Y-103114552D01*
X133243475Y-103075625D01*
X133188075Y-103033054D01*
X133164484Y-102967288D01*
X133180195Y-102899207D01*
X133230219Y-102850428D01*
X133243466Y-102844377D01*
X133437401Y-102769247D01*
X133626562Y-102652124D01*
X133790981Y-102502236D01*
X133925058Y-102324689D01*
X134024229Y-102125528D01*
X134085115Y-101911536D01*
X134105643Y-101690000D01*
X134085115Y-101468464D01*
X134024229Y-101254472D01*
X134024224Y-101254461D01*
X133925061Y-101055316D01*
X133925056Y-101055308D01*
X133790979Y-100877761D01*
X133626562Y-100727876D01*
X133626560Y-100727874D01*
X133437404Y-100610754D01*
X133437395Y-100610750D01*
X133343956Y-100574552D01*
X133243475Y-100535625D01*
X133188075Y-100493054D01*
X133164484Y-100427288D01*
X133180195Y-100359207D01*
X133230219Y-100310428D01*
X133243466Y-100304377D01*
X133437401Y-100229247D01*
X133626562Y-100112124D01*
X133790981Y-99962236D01*
X133925058Y-99784689D01*
X134024229Y-99585528D01*
X134085115Y-99371536D01*
X134105643Y-99150000D01*
X134085115Y-98928464D01*
X134024229Y-98714472D01*
X134024224Y-98714461D01*
X133925061Y-98515316D01*
X133925056Y-98515308D01*
X133790979Y-98337761D01*
X133626562Y-98187876D01*
X133626560Y-98187874D01*
X133437404Y-98070754D01*
X133437395Y-98070750D01*
X133343956Y-98034552D01*
X133243475Y-97995625D01*
X133188075Y-97953054D01*
X133164484Y-97887288D01*
X133180195Y-97819207D01*
X133230219Y-97770428D01*
X133243466Y-97764377D01*
X133437401Y-97689247D01*
X133626562Y-97572124D01*
X133790981Y-97422236D01*
X133925058Y-97244689D01*
X134024229Y-97045528D01*
X134085115Y-96831536D01*
X134105643Y-96610000D01*
X134085115Y-96388464D01*
X134024229Y-96174472D01*
X134024224Y-96174461D01*
X133925061Y-95975316D01*
X133925056Y-95975308D01*
X133790979Y-95797761D01*
X133626562Y-95647876D01*
X133626560Y-95647874D01*
X133437404Y-95530754D01*
X133437395Y-95530750D01*
X133343956Y-95494552D01*
X133243475Y-95455625D01*
X133188075Y-95413054D01*
X133164484Y-95347288D01*
X133180195Y-95279207D01*
X133230219Y-95230428D01*
X133243466Y-95224377D01*
X133437401Y-95149247D01*
X133626562Y-95032124D01*
X133790981Y-94882236D01*
X133925058Y-94704689D01*
X134024229Y-94505528D01*
X134085115Y-94291536D01*
X134105643Y-94070000D01*
X134085115Y-93848464D01*
X134024229Y-93634472D01*
X134024224Y-93634461D01*
X133925061Y-93435316D01*
X133925056Y-93435308D01*
X133790979Y-93257761D01*
X133626562Y-93107876D01*
X133626560Y-93107874D01*
X133437404Y-92990754D01*
X133437395Y-92990750D01*
X133343956Y-92954552D01*
X133243475Y-92915625D01*
X133188075Y-92873054D01*
X133164484Y-92807288D01*
X133180195Y-92739207D01*
X133230219Y-92690428D01*
X133243466Y-92684377D01*
X133437401Y-92609247D01*
X133626562Y-92492124D01*
X133790981Y-92342236D01*
X133925058Y-92164689D01*
X134024229Y-91965528D01*
X134085115Y-91751536D01*
X134105643Y-91530000D01*
X134085115Y-91308464D01*
X134024229Y-91094472D01*
X134024224Y-91094461D01*
X133925061Y-90895316D01*
X133925056Y-90895308D01*
X133790979Y-90717761D01*
X133626562Y-90567876D01*
X133626560Y-90567874D01*
X133437404Y-90450754D01*
X133437395Y-90450750D01*
X133343956Y-90414552D01*
X133243475Y-90375625D01*
X133188075Y-90333054D01*
X133164484Y-90267288D01*
X133180195Y-90199207D01*
X133230219Y-90150428D01*
X133243466Y-90144377D01*
X133437401Y-90069247D01*
X133626562Y-89952124D01*
X133790981Y-89802236D01*
X133925058Y-89624689D01*
X134024229Y-89425528D01*
X134085115Y-89211536D01*
X134105643Y-88990000D01*
X134085115Y-88768464D01*
X134024229Y-88554472D01*
X134024224Y-88554461D01*
X133925061Y-88355316D01*
X133925056Y-88355308D01*
X133790979Y-88177761D01*
X133626562Y-88027876D01*
X133626560Y-88027874D01*
X133437404Y-87910754D01*
X133437395Y-87910750D01*
X133343956Y-87874552D01*
X133243475Y-87835625D01*
X133188075Y-87793054D01*
X133164484Y-87727288D01*
X133180195Y-87659207D01*
X133230219Y-87610428D01*
X133243466Y-87604377D01*
X133437401Y-87529247D01*
X133626562Y-87412124D01*
X133790981Y-87262236D01*
X133925058Y-87084689D01*
X134024229Y-86885528D01*
X134085115Y-86671536D01*
X134105643Y-86450000D01*
X134085115Y-86228464D01*
X134024229Y-86014472D01*
X134024224Y-86014461D01*
X133925061Y-85815316D01*
X133925056Y-85815308D01*
X133790979Y-85637761D01*
X133626562Y-85487876D01*
X133626560Y-85487874D01*
X133437404Y-85370754D01*
X133437395Y-85370750D01*
X133343956Y-85334552D01*
X133243475Y-85295625D01*
X133188075Y-85253054D01*
X133164484Y-85187288D01*
X133180195Y-85119207D01*
X133230219Y-85070428D01*
X133243466Y-85064377D01*
X133437401Y-84989247D01*
X133626562Y-84872124D01*
X133790981Y-84722236D01*
X133925058Y-84544689D01*
X134024229Y-84345528D01*
X134085115Y-84131536D01*
X134105643Y-83910000D01*
X134085115Y-83688464D01*
X134024229Y-83474472D01*
X134024224Y-83474461D01*
X133925061Y-83275316D01*
X133925056Y-83275308D01*
X133790979Y-83097761D01*
X133626562Y-82947876D01*
X133626560Y-82947874D01*
X133437404Y-82830754D01*
X133437395Y-82830750D01*
X133343956Y-82794552D01*
X133243475Y-82755625D01*
X133188075Y-82713054D01*
X133164484Y-82647288D01*
X133180195Y-82579207D01*
X133230219Y-82530428D01*
X133243466Y-82524377D01*
X133437401Y-82449247D01*
X133626562Y-82332124D01*
X133784829Y-82187844D01*
X162050000Y-82187844D01*
X162056401Y-82247372D01*
X162056403Y-82247379D01*
X162106645Y-82382086D01*
X162106649Y-82382093D01*
X162192809Y-82497187D01*
X162192812Y-82497190D01*
X162307906Y-82583350D01*
X162307913Y-82583354D01*
X162442620Y-82633596D01*
X162442627Y-82633598D01*
X162502155Y-82639999D01*
X162502172Y-82640000D01*
X163050000Y-82640000D01*
X163550000Y-82640000D01*
X164097828Y-82640000D01*
X164097844Y-82639999D01*
X164157372Y-82633598D01*
X164157379Y-82633596D01*
X164292086Y-82583354D01*
X164292093Y-82583350D01*
X164407187Y-82497190D01*
X164407190Y-82497187D01*
X164493350Y-82382093D01*
X164493354Y-82382086D01*
X164543596Y-82247379D01*
X164543598Y-82247372D01*
X164549999Y-82187844D01*
X170550000Y-82187844D01*
X170556401Y-82247372D01*
X170556403Y-82247379D01*
X170606645Y-82382086D01*
X170606649Y-82382093D01*
X170692809Y-82497187D01*
X170692812Y-82497190D01*
X170807906Y-82583350D01*
X170807913Y-82583354D01*
X170942620Y-82633596D01*
X170942627Y-82633598D01*
X171002155Y-82639999D01*
X171002172Y-82640000D01*
X171550000Y-82640000D01*
X171550000Y-79850000D01*
X170550000Y-79850000D01*
X170550000Y-82187844D01*
X164549999Y-82187844D01*
X164550000Y-82187827D01*
X164550000Y-79850000D01*
X163550000Y-79850000D01*
X163550000Y-82640000D01*
X163050000Y-82640000D01*
X163050000Y-79850000D01*
X162050000Y-79850000D01*
X162050000Y-82187844D01*
X133784829Y-82187844D01*
X133790981Y-82182236D01*
X133925058Y-82004689D01*
X134024229Y-81805528D01*
X134085115Y-81591536D01*
X134105643Y-81370000D01*
X134085115Y-81148464D01*
X134024229Y-80934472D01*
X133982416Y-80850500D01*
X133925061Y-80735316D01*
X133925056Y-80735308D01*
X133790979Y-80557761D01*
X133626562Y-80407876D01*
X133626560Y-80407874D01*
X133437404Y-80290754D01*
X133437395Y-80290750D01*
X133343956Y-80254552D01*
X133243475Y-80215625D01*
X133188075Y-80173054D01*
X133164484Y-80107288D01*
X133180195Y-80039207D01*
X133230219Y-79990428D01*
X133243466Y-79984377D01*
X133437401Y-79909247D01*
X133626562Y-79792124D01*
X133790981Y-79642236D01*
X133925058Y-79464689D01*
X133960400Y-79393713D01*
X135349500Y-79393713D01*
X135349500Y-79606286D01*
X135378933Y-79792123D01*
X135382754Y-79816243D01*
X135439350Y-79990428D01*
X135448444Y-80018414D01*
X135544951Y-80207820D01*
X135669890Y-80379786D01*
X135820213Y-80530109D01*
X135992179Y-80655048D01*
X135992181Y-80655049D01*
X135992184Y-80655051D01*
X136181588Y-80751557D01*
X136383757Y-80817246D01*
X136593713Y-80850500D01*
X136593714Y-80850500D01*
X136806286Y-80850500D01*
X136806287Y-80850500D01*
X137016243Y-80817246D01*
X137218412Y-80751557D01*
X137407816Y-80655051D01*
X137429789Y-80639086D01*
X137579786Y-80530109D01*
X137579788Y-80530106D01*
X137579792Y-80530104D01*
X137730104Y-80379792D01*
X137730106Y-80379788D01*
X137730109Y-80379786D01*
X137855048Y-80207820D01*
X137855047Y-80207820D01*
X137855051Y-80207816D01*
X137951557Y-80018412D01*
X138017246Y-79816243D01*
X138050500Y-79606287D01*
X138050500Y-79393713D01*
X158099500Y-79393713D01*
X158099500Y-79606286D01*
X158128933Y-79792123D01*
X158132754Y-79816243D01*
X158189350Y-79990428D01*
X158198444Y-80018414D01*
X158294951Y-80207820D01*
X158419890Y-80379786D01*
X158570213Y-80530109D01*
X158742179Y-80655048D01*
X158742181Y-80655049D01*
X158742184Y-80655051D01*
X158931588Y-80751557D01*
X159133757Y-80817246D01*
X159343713Y-80850500D01*
X159343714Y-80850500D01*
X159556286Y-80850500D01*
X159556287Y-80850500D01*
X159766243Y-80817246D01*
X159968412Y-80751557D01*
X160157816Y-80655051D01*
X160179789Y-80639086D01*
X160329786Y-80530109D01*
X160329788Y-80530106D01*
X160329792Y-80530104D01*
X160480104Y-80379792D01*
X160480106Y-80379788D01*
X160480109Y-80379786D01*
X160605048Y-80207820D01*
X160605047Y-80207820D01*
X160605051Y-80207816D01*
X160701557Y-80018412D01*
X160767246Y-79816243D01*
X160800500Y-79606287D01*
X160800500Y-79393713D01*
X160767246Y-79183757D01*
X160701557Y-78981588D01*
X160605051Y-78792184D01*
X160605049Y-78792181D01*
X160605048Y-78792179D01*
X160480109Y-78620213D01*
X160329786Y-78469890D01*
X160157820Y-78344951D01*
X159968414Y-78248444D01*
X159968413Y-78248443D01*
X159968412Y-78248443D01*
X159766243Y-78182754D01*
X159766241Y-78182753D01*
X159766240Y-78182753D01*
X159604957Y-78157208D01*
X159556287Y-78149500D01*
X159343713Y-78149500D01*
X159295042Y-78157208D01*
X159133760Y-78182753D01*
X158931585Y-78248444D01*
X158742179Y-78344951D01*
X158570213Y-78469890D01*
X158419890Y-78620213D01*
X158294951Y-78792179D01*
X158198444Y-78981585D01*
X158132753Y-79183760D01*
X158099500Y-79393713D01*
X138050500Y-79393713D01*
X138017246Y-79183757D01*
X137951557Y-78981588D01*
X137855051Y-78792184D01*
X137855049Y-78792181D01*
X137855048Y-78792179D01*
X137730109Y-78620213D01*
X137579786Y-78469890D01*
X137407820Y-78344951D01*
X137218414Y-78248444D01*
X137218413Y-78248443D01*
X137218412Y-78248443D01*
X137016243Y-78182754D01*
X137016241Y-78182753D01*
X137016240Y-78182753D01*
X136854957Y-78157208D01*
X136806287Y-78149500D01*
X136593713Y-78149500D01*
X136545042Y-78157208D01*
X136383760Y-78182753D01*
X136181585Y-78248444D01*
X135992179Y-78344951D01*
X135820213Y-78469890D01*
X135669890Y-78620213D01*
X135544951Y-78792179D01*
X135448444Y-78981585D01*
X135382753Y-79183760D01*
X135349500Y-79393713D01*
X133960400Y-79393713D01*
X134024229Y-79265528D01*
X134085115Y-79051536D01*
X134105643Y-78830000D01*
X134102138Y-78792179D01*
X134085115Y-78608464D01*
X134085114Y-78608462D01*
X134024230Y-78394476D01*
X134024229Y-78394472D01*
X134024224Y-78394461D01*
X133925061Y-78195316D01*
X133925056Y-78195308D01*
X133790979Y-78017761D01*
X133626562Y-77867876D01*
X133626560Y-77867874D01*
X133437404Y-77750754D01*
X133437398Y-77750752D01*
X133229940Y-77670382D01*
X133011243Y-77629500D01*
X132788757Y-77629500D01*
X132570060Y-77670382D01*
X132438864Y-77721207D01*
X132362601Y-77750752D01*
X132362595Y-77750754D01*
X132173439Y-77867874D01*
X132173437Y-77867876D01*
X132009020Y-78017761D01*
X131874943Y-78195308D01*
X131874938Y-78195316D01*
X131775775Y-78394461D01*
X131775769Y-78394476D01*
X131714885Y-78608462D01*
X131714884Y-78608464D01*
X131694357Y-78829999D01*
X131694357Y-78830000D01*
X131714884Y-79051535D01*
X131714885Y-79051537D01*
X131775769Y-79265523D01*
X131775775Y-79265538D01*
X131874938Y-79464683D01*
X131874943Y-79464691D01*
X132009020Y-79642238D01*
X132173437Y-79792123D01*
X132173439Y-79792125D01*
X132362595Y-79909245D01*
X132362596Y-79909245D01*
X132362599Y-79909247D01*
X132556524Y-79984374D01*
X132611924Y-80026946D01*
X132635515Y-80092713D01*
X132619804Y-80160793D01*
X132569780Y-80209572D01*
X132556533Y-80215622D01*
X132408488Y-80272975D01*
X132362601Y-80290752D01*
X132362595Y-80290754D01*
X132173439Y-80407874D01*
X132173437Y-80407876D01*
X132009020Y-80557761D01*
X131874943Y-80735308D01*
X131874938Y-80735316D01*
X131775775Y-80934461D01*
X131775769Y-80934476D01*
X131714885Y-81148462D01*
X131714884Y-81148464D01*
X131694357Y-81369999D01*
X131694357Y-81370000D01*
X131714884Y-81591535D01*
X131714885Y-81591537D01*
X131775769Y-81805523D01*
X131775775Y-81805538D01*
X131874938Y-82004683D01*
X131874943Y-82004691D01*
X132009020Y-82182238D01*
X132173437Y-82332123D01*
X132173439Y-82332125D01*
X132362595Y-82449245D01*
X132362596Y-82449245D01*
X132362599Y-82449247D01*
X132556524Y-82524374D01*
X132611924Y-82566946D01*
X132635515Y-82632713D01*
X132619804Y-82700793D01*
X132569780Y-82749572D01*
X132556533Y-82755622D01*
X132408488Y-82812975D01*
X132362601Y-82830752D01*
X132362595Y-82830754D01*
X132173439Y-82947874D01*
X132173437Y-82947876D01*
X132009020Y-83097761D01*
X131874943Y-83275308D01*
X131874938Y-83275316D01*
X131775775Y-83474461D01*
X131775769Y-83474476D01*
X131714885Y-83688462D01*
X131714884Y-83688464D01*
X131694357Y-83909999D01*
X131694357Y-83910000D01*
X131714884Y-84131535D01*
X131714885Y-84131537D01*
X131775769Y-84345523D01*
X131775775Y-84345538D01*
X131874938Y-84544683D01*
X131874943Y-84544691D01*
X132009020Y-84722238D01*
X132173437Y-84872123D01*
X132173439Y-84872125D01*
X132362595Y-84989245D01*
X132362596Y-84989245D01*
X132362599Y-84989247D01*
X132556524Y-85064374D01*
X132611924Y-85106946D01*
X132635515Y-85172713D01*
X132619804Y-85240793D01*
X132569780Y-85289572D01*
X132556533Y-85295622D01*
X132408488Y-85352975D01*
X132362601Y-85370752D01*
X132362595Y-85370754D01*
X132173439Y-85487874D01*
X132173437Y-85487876D01*
X132009020Y-85637761D01*
X131874943Y-85815308D01*
X131874938Y-85815316D01*
X131775775Y-86014461D01*
X131775769Y-86014476D01*
X131714885Y-86228462D01*
X131714884Y-86228464D01*
X131694357Y-86449999D01*
X131694357Y-86450000D01*
X131714884Y-86671535D01*
X131714885Y-86671537D01*
X131775769Y-86885523D01*
X131775775Y-86885538D01*
X131874938Y-87084683D01*
X131874943Y-87084691D01*
X132009020Y-87262238D01*
X132173437Y-87412123D01*
X132173439Y-87412125D01*
X132362595Y-87529245D01*
X132362596Y-87529245D01*
X132362599Y-87529247D01*
X132556524Y-87604374D01*
X132611924Y-87646946D01*
X132635515Y-87712713D01*
X132619804Y-87780793D01*
X132569780Y-87829572D01*
X132556533Y-87835622D01*
X132408488Y-87892975D01*
X132362601Y-87910752D01*
X132362595Y-87910754D01*
X132173439Y-88027874D01*
X132173437Y-88027876D01*
X132009020Y-88177761D01*
X131874943Y-88355308D01*
X131874938Y-88355316D01*
X131775775Y-88554461D01*
X131775769Y-88554476D01*
X131714885Y-88768462D01*
X131714884Y-88768464D01*
X131694357Y-88989999D01*
X131694357Y-88990000D01*
X131714884Y-89211535D01*
X131714885Y-89211537D01*
X131775769Y-89425523D01*
X131775775Y-89425538D01*
X131874938Y-89624683D01*
X131874943Y-89624691D01*
X132009020Y-89802238D01*
X132173437Y-89952123D01*
X132173439Y-89952125D01*
X132362595Y-90069245D01*
X132362596Y-90069245D01*
X132362599Y-90069247D01*
X132556524Y-90144374D01*
X132611924Y-90186946D01*
X132635515Y-90252713D01*
X132619804Y-90320793D01*
X132569780Y-90369572D01*
X132556533Y-90375622D01*
X132408488Y-90432975D01*
X132362601Y-90450752D01*
X132362595Y-90450754D01*
X132173439Y-90567874D01*
X132173437Y-90567876D01*
X132009020Y-90717761D01*
X131874943Y-90895308D01*
X131874938Y-90895316D01*
X131775775Y-91094461D01*
X131775769Y-91094476D01*
X131714885Y-91308462D01*
X131714884Y-91308464D01*
X131694357Y-91529999D01*
X131694357Y-91530000D01*
X131714884Y-91751535D01*
X131714885Y-91751537D01*
X131775769Y-91965523D01*
X131775775Y-91965538D01*
X131874938Y-92164683D01*
X131874943Y-92164691D01*
X132009020Y-92342238D01*
X132173437Y-92492123D01*
X132173439Y-92492125D01*
X132362595Y-92609245D01*
X132362596Y-92609245D01*
X132362599Y-92609247D01*
X132556524Y-92684374D01*
X132611924Y-92726946D01*
X132635515Y-92792713D01*
X132619804Y-92860793D01*
X132569780Y-92909572D01*
X132556533Y-92915622D01*
X132408488Y-92972975D01*
X132362601Y-92990752D01*
X132362595Y-92990754D01*
X132173439Y-93107874D01*
X132173437Y-93107876D01*
X132009020Y-93257761D01*
X131874943Y-93435308D01*
X131874938Y-93435316D01*
X131775775Y-93634461D01*
X131775769Y-93634476D01*
X131714885Y-93848462D01*
X131714884Y-93848464D01*
X131694357Y-94069999D01*
X131694357Y-94070000D01*
X131714884Y-94291535D01*
X131714885Y-94291537D01*
X131775769Y-94505523D01*
X131775775Y-94505538D01*
X131874938Y-94704683D01*
X131874943Y-94704691D01*
X132009020Y-94882238D01*
X132173437Y-95032123D01*
X132173439Y-95032125D01*
X132362595Y-95149245D01*
X132362596Y-95149245D01*
X132362599Y-95149247D01*
X132556524Y-95224374D01*
X132611924Y-95266946D01*
X132635515Y-95332713D01*
X132619804Y-95400793D01*
X132569780Y-95449572D01*
X132556533Y-95455622D01*
X132408488Y-95512975D01*
X132362601Y-95530752D01*
X132362595Y-95530754D01*
X132173439Y-95647874D01*
X132173437Y-95647876D01*
X132009020Y-95797761D01*
X131874943Y-95975308D01*
X131874938Y-95975316D01*
X131775775Y-96174461D01*
X131775769Y-96174476D01*
X131714885Y-96388462D01*
X131714884Y-96388464D01*
X131694357Y-96609999D01*
X131694357Y-96610000D01*
X131714884Y-96831535D01*
X131714885Y-96831537D01*
X131775769Y-97045523D01*
X131775775Y-97045538D01*
X131874938Y-97244683D01*
X131874943Y-97244691D01*
X132009020Y-97422238D01*
X132173437Y-97572123D01*
X132173439Y-97572125D01*
X132362595Y-97689245D01*
X132362596Y-97689245D01*
X132362599Y-97689247D01*
X132556524Y-97764374D01*
X132611924Y-97806946D01*
X132635515Y-97872713D01*
X132619804Y-97940793D01*
X132569780Y-97989572D01*
X132556533Y-97995622D01*
X132408488Y-98052975D01*
X132362601Y-98070752D01*
X132362595Y-98070754D01*
X132173439Y-98187874D01*
X132173437Y-98187876D01*
X132009020Y-98337761D01*
X131874943Y-98515308D01*
X131874938Y-98515316D01*
X131775775Y-98714461D01*
X131775769Y-98714476D01*
X131714885Y-98928462D01*
X131714884Y-98928464D01*
X131694357Y-99149999D01*
X131694357Y-99150000D01*
X131714884Y-99371535D01*
X131714885Y-99371537D01*
X131775769Y-99585523D01*
X131775775Y-99585538D01*
X131874938Y-99784683D01*
X131874943Y-99784691D01*
X132009020Y-99962238D01*
X132173437Y-100112123D01*
X132173439Y-100112125D01*
X132362595Y-100229245D01*
X132362596Y-100229245D01*
X132362599Y-100229247D01*
X132556524Y-100304374D01*
X132611924Y-100346946D01*
X132635515Y-100412713D01*
X132619804Y-100480793D01*
X132569780Y-100529572D01*
X132556533Y-100535622D01*
X132408488Y-100592975D01*
X132362601Y-100610752D01*
X132362595Y-100610754D01*
X132173439Y-100727874D01*
X132173437Y-100727876D01*
X132009020Y-100877761D01*
X131874943Y-101055308D01*
X131874938Y-101055316D01*
X131775775Y-101254461D01*
X131775769Y-101254476D01*
X131714885Y-101468462D01*
X131714884Y-101468464D01*
X131694357Y-101689999D01*
X131694357Y-101690000D01*
X131714884Y-101911535D01*
X131714885Y-101911537D01*
X131775769Y-102125523D01*
X131775775Y-102125538D01*
X131874938Y-102324683D01*
X131874943Y-102324691D01*
X132009020Y-102502238D01*
X132173437Y-102652123D01*
X132173439Y-102652125D01*
X132362595Y-102769245D01*
X132362596Y-102769245D01*
X132362599Y-102769247D01*
X132556524Y-102844374D01*
X132611924Y-102886946D01*
X132635515Y-102952713D01*
X132619804Y-103020793D01*
X132569780Y-103069572D01*
X132556533Y-103075622D01*
X132408488Y-103132975D01*
X132362601Y-103150752D01*
X132362595Y-103150754D01*
X132173439Y-103267874D01*
X132173437Y-103267876D01*
X132009020Y-103417761D01*
X131874943Y-103595308D01*
X131874938Y-103595316D01*
X131775775Y-103794461D01*
X131775769Y-103794476D01*
X131714885Y-104008462D01*
X131714884Y-104008464D01*
X131694357Y-104229999D01*
X131694357Y-104230000D01*
X131714884Y-104451535D01*
X131714885Y-104451537D01*
X131775769Y-104665523D01*
X131775775Y-104665538D01*
X131874938Y-104864683D01*
X131874943Y-104864691D01*
X132009020Y-105042238D01*
X132173437Y-105192123D01*
X132173439Y-105192125D01*
X132362595Y-105309245D01*
X132362596Y-105309245D01*
X132362599Y-105309247D01*
X132556524Y-105384374D01*
X132611924Y-105426946D01*
X132635515Y-105492713D01*
X132619804Y-105560793D01*
X132569780Y-105609572D01*
X132556533Y-105615622D01*
X132408488Y-105672975D01*
X132362601Y-105690752D01*
X132362595Y-105690754D01*
X132173439Y-105807874D01*
X132173437Y-105807876D01*
X132009020Y-105957761D01*
X131874943Y-106135308D01*
X131874938Y-106135316D01*
X131775775Y-106334461D01*
X131775769Y-106334476D01*
X131714885Y-106548462D01*
X131714884Y-106548464D01*
X131694357Y-106769999D01*
X131694357Y-106770000D01*
X131714884Y-106991535D01*
X131714885Y-106991537D01*
X131775769Y-107205523D01*
X131775775Y-107205538D01*
X131874938Y-107404683D01*
X131874943Y-107404691D01*
X132009020Y-107582238D01*
X132173437Y-107732123D01*
X132173439Y-107732125D01*
X132362595Y-107849245D01*
X132362596Y-107849245D01*
X132362599Y-107849247D01*
X132556524Y-107924374D01*
X132611924Y-107966946D01*
X132635515Y-108032713D01*
X132619804Y-108100793D01*
X132569780Y-108149572D01*
X132556533Y-108155622D01*
X132408488Y-108212975D01*
X132362601Y-108230752D01*
X132362595Y-108230754D01*
X132173439Y-108347874D01*
X132173437Y-108347876D01*
X132009020Y-108497761D01*
X131874943Y-108675308D01*
X131874938Y-108675316D01*
X131775775Y-108874461D01*
X131775769Y-108874476D01*
X131714885Y-109088462D01*
X131714884Y-109088464D01*
X131694357Y-109309999D01*
X131694357Y-109310000D01*
X131714884Y-109531535D01*
X131714885Y-109531537D01*
X131775769Y-109745523D01*
X131775775Y-109745538D01*
X131874938Y-109944683D01*
X131874943Y-109944691D01*
X132009020Y-110122238D01*
X132173437Y-110272123D01*
X132173439Y-110272125D01*
X132362595Y-110389245D01*
X132362596Y-110389245D01*
X132362599Y-110389247D01*
X132556524Y-110464374D01*
X132611924Y-110506946D01*
X132635515Y-110572713D01*
X132619804Y-110640793D01*
X132569780Y-110689572D01*
X132556533Y-110695622D01*
X132408488Y-110752975D01*
X132362601Y-110770752D01*
X132362595Y-110770754D01*
X132173439Y-110887874D01*
X132173437Y-110887876D01*
X132009020Y-111037761D01*
X131874943Y-111215308D01*
X131874938Y-111215316D01*
X131775775Y-111414461D01*
X131775769Y-111414476D01*
X131714885Y-111628462D01*
X131714884Y-111628464D01*
X131694357Y-111849999D01*
X131694357Y-111850000D01*
X131714884Y-112071535D01*
X131714885Y-112071537D01*
X131775769Y-112285523D01*
X131775775Y-112285538D01*
X131874938Y-112484683D01*
X131874943Y-112484691D01*
X132009020Y-112662238D01*
X132173437Y-112812123D01*
X132173439Y-112812125D01*
X132362595Y-112929245D01*
X132362596Y-112929245D01*
X132362599Y-112929247D01*
X132556524Y-113004374D01*
X132611924Y-113046946D01*
X132635515Y-113112713D01*
X132619804Y-113180793D01*
X132569780Y-113229572D01*
X132556533Y-113235622D01*
X132408488Y-113292975D01*
X132362601Y-113310752D01*
X132362595Y-113310754D01*
X132173439Y-113427874D01*
X132173437Y-113427876D01*
X132009020Y-113577761D01*
X131874943Y-113755308D01*
X131874938Y-113755316D01*
X131775775Y-113954461D01*
X131775769Y-113954476D01*
X131714885Y-114168462D01*
X131714884Y-114168464D01*
X131694357Y-114389999D01*
X131694357Y-114390000D01*
X131714884Y-114611535D01*
X131714885Y-114611537D01*
X131775769Y-114825523D01*
X131775775Y-114825538D01*
X131874938Y-115024683D01*
X131874943Y-115024691D01*
X132009020Y-115202238D01*
X132173437Y-115352123D01*
X132173439Y-115352125D01*
X132362595Y-115469245D01*
X132362596Y-115469245D01*
X132362599Y-115469247D01*
X132556524Y-115544374D01*
X132611924Y-115586946D01*
X132635515Y-115652713D01*
X132619804Y-115720793D01*
X132569780Y-115769572D01*
X132556533Y-115775622D01*
X132408488Y-115832975D01*
X132362601Y-115850752D01*
X132362595Y-115850754D01*
X132173439Y-115967874D01*
X132173437Y-115967876D01*
X132009020Y-116117761D01*
X131874943Y-116295308D01*
X131874938Y-116295316D01*
X131775775Y-116494461D01*
X131775769Y-116494476D01*
X131714885Y-116708462D01*
X131714884Y-116708464D01*
X131694357Y-116929999D01*
X131694357Y-116930000D01*
X131714884Y-117151535D01*
X131714885Y-117151537D01*
X131775769Y-117365523D01*
X131775775Y-117365538D01*
X131874938Y-117564683D01*
X131874943Y-117564691D01*
X132009020Y-117742238D01*
X132173437Y-117892123D01*
X132173439Y-117892125D01*
X132362595Y-118009245D01*
X132362596Y-118009245D01*
X132362599Y-118009247D01*
X132556524Y-118084374D01*
X132611924Y-118126946D01*
X132635515Y-118192713D01*
X132619804Y-118260793D01*
X132569780Y-118309572D01*
X132556533Y-118315622D01*
X132408488Y-118372975D01*
X132362601Y-118390752D01*
X132362595Y-118390754D01*
X132173439Y-118507874D01*
X132173437Y-118507876D01*
X132009020Y-118657761D01*
X131874943Y-118835308D01*
X131874938Y-118835316D01*
X131775775Y-119034461D01*
X131775769Y-119034476D01*
X131714885Y-119248462D01*
X131714884Y-119248464D01*
X131694357Y-119469999D01*
X131694357Y-119470000D01*
X131714884Y-119691535D01*
X131714885Y-119691537D01*
X131775769Y-119905523D01*
X131775775Y-119905538D01*
X131874938Y-120104683D01*
X131874943Y-120104691D01*
X132009020Y-120282238D01*
X132173437Y-120432123D01*
X132173439Y-120432125D01*
X132362595Y-120549245D01*
X132362596Y-120549245D01*
X132362599Y-120549247D01*
X132556524Y-120624374D01*
X132611924Y-120666946D01*
X132635515Y-120732713D01*
X132619804Y-120800793D01*
X132569780Y-120849572D01*
X132556533Y-120855622D01*
X132408488Y-120912975D01*
X132362601Y-120930752D01*
X132362595Y-120930754D01*
X132173439Y-121047874D01*
X132173437Y-121047876D01*
X132009020Y-121197761D01*
X131874943Y-121375308D01*
X131874938Y-121375316D01*
X131775775Y-121574461D01*
X131775769Y-121574476D01*
X131714885Y-121788462D01*
X131714884Y-121788464D01*
X131694357Y-122009999D01*
X131694357Y-122010000D01*
X131714884Y-122231535D01*
X131714885Y-122231537D01*
X131775769Y-122445523D01*
X131775775Y-122445538D01*
X131874938Y-122644683D01*
X131874943Y-122644691D01*
X132009020Y-122822238D01*
X132173437Y-122972123D01*
X132173439Y-122972125D01*
X132362595Y-123089245D01*
X132362596Y-123089245D01*
X132362599Y-123089247D01*
X132556524Y-123164374D01*
X132611924Y-123206946D01*
X132635515Y-123272713D01*
X132619804Y-123340793D01*
X132569780Y-123389572D01*
X132556533Y-123395622D01*
X132408488Y-123452975D01*
X132362601Y-123470752D01*
X132362595Y-123470754D01*
X132173439Y-123587874D01*
X132173437Y-123587876D01*
X132009020Y-123737761D01*
X131874943Y-123915308D01*
X131874938Y-123915316D01*
X131775775Y-124114461D01*
X131775769Y-124114476D01*
X131714885Y-124328462D01*
X131714884Y-124328464D01*
X131694357Y-124549999D01*
X131694357Y-124550000D01*
X131714884Y-124771535D01*
X131714885Y-124771537D01*
X131775769Y-124985523D01*
X131775775Y-124985538D01*
X131874938Y-125184683D01*
X131874943Y-125184691D01*
X132009020Y-125362238D01*
X132173437Y-125512123D01*
X132173439Y-125512125D01*
X132362595Y-125629245D01*
X132362596Y-125629245D01*
X132362599Y-125629247D01*
X132556524Y-125704374D01*
X132611924Y-125746946D01*
X132635515Y-125812713D01*
X132619804Y-125880793D01*
X132569780Y-125929572D01*
X132556533Y-125935622D01*
X132413466Y-125991047D01*
X132362601Y-126010752D01*
X132362595Y-126010754D01*
X132173439Y-126127874D01*
X132173437Y-126127876D01*
X132009020Y-126277761D01*
X131874943Y-126455308D01*
X131874938Y-126455316D01*
X131775775Y-126654461D01*
X131775769Y-126654476D01*
X131714885Y-126868462D01*
X131714884Y-126868464D01*
X131694357Y-127089999D01*
X131694357Y-127090000D01*
X131714884Y-127311535D01*
X131714885Y-127311537D01*
X131775769Y-127525523D01*
X131775775Y-127525538D01*
X131874938Y-127724683D01*
X131874943Y-127724691D01*
X132009020Y-127902238D01*
X132173437Y-128052123D01*
X132173439Y-128052125D01*
X132362595Y-128169245D01*
X132362596Y-128169245D01*
X132362599Y-128169247D01*
X132556524Y-128244374D01*
X132611924Y-128286946D01*
X132635515Y-128352713D01*
X132619804Y-128420793D01*
X132569780Y-128469572D01*
X132556533Y-128475622D01*
X132408488Y-128532975D01*
X132362601Y-128550752D01*
X132362595Y-128550754D01*
X132173439Y-128667874D01*
X132173437Y-128667876D01*
X132009020Y-128817761D01*
X131874943Y-128995308D01*
X131874938Y-128995316D01*
X131775775Y-129194461D01*
X131775769Y-129194476D01*
X131714885Y-129408462D01*
X131714884Y-129408464D01*
X131694357Y-129629999D01*
X131694357Y-129630000D01*
X131714884Y-129851535D01*
X131714885Y-129851537D01*
X131775769Y-130065523D01*
X131775775Y-130065538D01*
X131874938Y-130264683D01*
X131874943Y-130264691D01*
X132009020Y-130442238D01*
X132173437Y-130592123D01*
X132173439Y-130592125D01*
X132362595Y-130709245D01*
X132362596Y-130709245D01*
X132362599Y-130709247D01*
X132556524Y-130784374D01*
X132611924Y-130826946D01*
X132635515Y-130892713D01*
X132619804Y-130960793D01*
X132569780Y-131009572D01*
X132556533Y-131015622D01*
X132408488Y-131072975D01*
X132362601Y-131090752D01*
X132362595Y-131090754D01*
X132173439Y-131207874D01*
X132173437Y-131207876D01*
X132009020Y-131357761D01*
X131874943Y-131535308D01*
X131874938Y-131535316D01*
X131775775Y-131734461D01*
X131775769Y-131734476D01*
X131714885Y-131948462D01*
X131714884Y-131948464D01*
X131694357Y-132169999D01*
X131694357Y-132170000D01*
X131714884Y-132391535D01*
X131714885Y-132391537D01*
X131775769Y-132605523D01*
X131775775Y-132605538D01*
X131874938Y-132804683D01*
X131874943Y-132804691D01*
X132009020Y-132982238D01*
X132173437Y-133132123D01*
X132173439Y-133132125D01*
X132362595Y-133249245D01*
X132362596Y-133249245D01*
X132362599Y-133249247D01*
X132556524Y-133324374D01*
X132611924Y-133366946D01*
X132635515Y-133432713D01*
X132619804Y-133500793D01*
X132569780Y-133549572D01*
X132556533Y-133555622D01*
X132408488Y-133612975D01*
X132362601Y-133630752D01*
X132362595Y-133630754D01*
X132173439Y-133747874D01*
X132173437Y-133747876D01*
X132009020Y-133897761D01*
X131874943Y-134075308D01*
X131874938Y-134075316D01*
X131775775Y-134274461D01*
X131775769Y-134274476D01*
X131714885Y-134488462D01*
X131714884Y-134488464D01*
X131694357Y-134709999D01*
X131694357Y-134710000D01*
X131714884Y-134931535D01*
X131714885Y-134931537D01*
X131775769Y-135145523D01*
X131775775Y-135145538D01*
X131874938Y-135344683D01*
X131874943Y-135344691D01*
X132009020Y-135522238D01*
X132173437Y-135672123D01*
X132173439Y-135672125D01*
X132362595Y-135789245D01*
X132362596Y-135789245D01*
X132362599Y-135789247D01*
X132556524Y-135864374D01*
X132611924Y-135906946D01*
X132635515Y-135972713D01*
X132619804Y-136040793D01*
X132569780Y-136089572D01*
X132556533Y-136095622D01*
X132408488Y-136152975D01*
X132362601Y-136170752D01*
X132362595Y-136170754D01*
X132173439Y-136287874D01*
X132173437Y-136287876D01*
X132009020Y-136437761D01*
X131874943Y-136615308D01*
X131874938Y-136615316D01*
X131775775Y-136814461D01*
X131775769Y-136814476D01*
X131714885Y-137028462D01*
X131714884Y-137028464D01*
X131694357Y-137249999D01*
X131694357Y-137250000D01*
X131714884Y-137471535D01*
X131714885Y-137471537D01*
X131775769Y-137685523D01*
X131775775Y-137685538D01*
X131874938Y-137884683D01*
X131874943Y-137884691D01*
X132009020Y-138062238D01*
X132115013Y-138158863D01*
X132151295Y-138218574D01*
X132149534Y-138288422D01*
X132110291Y-138346229D01*
X132046024Y-138373644D01*
X132031475Y-138374500D01*
X119296188Y-138374500D01*
X119229149Y-138354815D01*
X119208507Y-138338181D01*
X118771400Y-137901073D01*
X118737915Y-137839750D01*
X118742899Y-137770058D01*
X118748070Y-137758142D01*
X118784229Y-137685528D01*
X118845115Y-137471536D01*
X118865643Y-137250000D01*
X118845115Y-137028464D01*
X118784229Y-136814472D01*
X118730359Y-136706287D01*
X118685061Y-136615316D01*
X118685056Y-136615308D01*
X118550979Y-136437761D01*
X118386562Y-136287876D01*
X118386560Y-136287874D01*
X118197404Y-136170754D01*
X118197395Y-136170750D01*
X118103956Y-136134552D01*
X118003475Y-136095625D01*
X117948075Y-136053054D01*
X117924484Y-135987288D01*
X117940195Y-135919207D01*
X117990219Y-135870428D01*
X118003466Y-135864377D01*
X118197401Y-135789247D01*
X118386562Y-135672124D01*
X118550981Y-135522236D01*
X118685058Y-135344689D01*
X118784229Y-135145528D01*
X118845115Y-134931536D01*
X118865643Y-134710000D01*
X118845115Y-134488464D01*
X118784229Y-134274472D01*
X118784224Y-134274461D01*
X118685061Y-134075316D01*
X118685056Y-134075308D01*
X118550979Y-133897761D01*
X118386562Y-133747876D01*
X118386560Y-133747874D01*
X118197404Y-133630754D01*
X118197395Y-133630750D01*
X118103956Y-133594552D01*
X118003475Y-133555625D01*
X117948075Y-133513054D01*
X117924484Y-133447288D01*
X117940195Y-133379207D01*
X117990219Y-133330428D01*
X118003466Y-133324377D01*
X118197401Y-133249247D01*
X118386562Y-133132124D01*
X118550981Y-132982236D01*
X118685058Y-132804689D01*
X118784229Y-132605528D01*
X118845115Y-132391536D01*
X118865643Y-132170000D01*
X118845115Y-131948464D01*
X118784229Y-131734472D01*
X118784224Y-131734461D01*
X118685061Y-131535316D01*
X118685056Y-131535308D01*
X118550979Y-131357761D01*
X118386562Y-131207876D01*
X118386560Y-131207874D01*
X118197404Y-131090754D01*
X118197395Y-131090750D01*
X118103956Y-131054552D01*
X118003475Y-131015625D01*
X117948075Y-130973054D01*
X117924484Y-130907288D01*
X117940195Y-130839207D01*
X117990219Y-130790428D01*
X118003466Y-130784377D01*
X118197401Y-130709247D01*
X118386562Y-130592124D01*
X118550981Y-130442236D01*
X118685058Y-130264689D01*
X118784229Y-130065528D01*
X118845115Y-129851536D01*
X118865643Y-129630000D01*
X118845115Y-129408464D01*
X118784229Y-129194472D01*
X118784224Y-129194461D01*
X118685061Y-128995316D01*
X118685056Y-128995308D01*
X118550979Y-128817761D01*
X118386562Y-128667876D01*
X118386560Y-128667874D01*
X118197404Y-128550754D01*
X118197395Y-128550750D01*
X118103956Y-128514552D01*
X118003475Y-128475625D01*
X117948075Y-128433054D01*
X117924484Y-128367288D01*
X117940195Y-128299207D01*
X117990219Y-128250428D01*
X118003466Y-128244377D01*
X118197401Y-128169247D01*
X118386562Y-128052124D01*
X118550981Y-127902236D01*
X118685058Y-127724689D01*
X118784229Y-127525528D01*
X118845115Y-127311536D01*
X118865643Y-127090000D01*
X118845115Y-126868464D01*
X118784229Y-126654472D01*
X118784224Y-126654461D01*
X118685061Y-126455316D01*
X118685056Y-126455308D01*
X118550979Y-126277761D01*
X118386562Y-126127876D01*
X118386560Y-126127874D01*
X118197404Y-126010754D01*
X118197395Y-126010750D01*
X118103956Y-125974552D01*
X118003475Y-125935625D01*
X117948075Y-125893054D01*
X117924484Y-125827288D01*
X117940195Y-125759207D01*
X117990219Y-125710428D01*
X118003466Y-125704377D01*
X118197401Y-125629247D01*
X118386562Y-125512124D01*
X118550981Y-125362236D01*
X118685058Y-125184689D01*
X118784229Y-124985528D01*
X118845115Y-124771536D01*
X118865643Y-124550000D01*
X118845115Y-124328464D01*
X118784229Y-124114472D01*
X118784224Y-124114461D01*
X118685061Y-123915316D01*
X118685056Y-123915308D01*
X118550979Y-123737761D01*
X118386562Y-123587876D01*
X118386560Y-123587874D01*
X118197404Y-123470754D01*
X118197395Y-123470750D01*
X118103956Y-123434552D01*
X118003475Y-123395625D01*
X117948075Y-123353054D01*
X117924484Y-123287288D01*
X117940195Y-123219207D01*
X117990219Y-123170428D01*
X118003466Y-123164377D01*
X118197401Y-123089247D01*
X118386562Y-122972124D01*
X118550981Y-122822236D01*
X118685058Y-122644689D01*
X118784229Y-122445528D01*
X118845115Y-122231536D01*
X118865643Y-122010000D01*
X118845115Y-121788464D01*
X118784229Y-121574472D01*
X118777203Y-121560361D01*
X118685061Y-121375316D01*
X118685056Y-121375308D01*
X118550979Y-121197761D01*
X118386562Y-121047876D01*
X118386560Y-121047874D01*
X118197404Y-120930754D01*
X118197395Y-120930750D01*
X118070778Y-120881699D01*
X118003475Y-120855625D01*
X117948075Y-120813054D01*
X117924484Y-120747288D01*
X117940195Y-120679207D01*
X117990219Y-120630428D01*
X118003466Y-120624377D01*
X118197401Y-120549247D01*
X118386562Y-120432124D01*
X118550981Y-120282236D01*
X118685058Y-120104689D01*
X118784229Y-119905528D01*
X118845115Y-119691536D01*
X118865643Y-119470000D01*
X118845115Y-119248464D01*
X118784229Y-119034472D01*
X118784224Y-119034461D01*
X118685061Y-118835316D01*
X118685056Y-118835308D01*
X118550979Y-118657761D01*
X118386562Y-118507876D01*
X118386560Y-118507874D01*
X118197404Y-118390754D01*
X118197395Y-118390750D01*
X118103956Y-118354552D01*
X118003475Y-118315625D01*
X117948075Y-118273054D01*
X117924484Y-118207288D01*
X117940195Y-118139207D01*
X117990219Y-118090428D01*
X118003466Y-118084377D01*
X118197401Y-118009247D01*
X118386562Y-117892124D01*
X118550981Y-117742236D01*
X118685058Y-117564689D01*
X118784229Y-117365528D01*
X118845115Y-117151536D01*
X118865643Y-116930000D01*
X118845115Y-116708464D01*
X118784229Y-116494472D01*
X118784224Y-116494461D01*
X118685061Y-116295316D01*
X118685056Y-116295308D01*
X118550979Y-116117761D01*
X118386562Y-115967876D01*
X118386560Y-115967874D01*
X118197404Y-115850754D01*
X118197395Y-115850750D01*
X118103956Y-115814552D01*
X118003475Y-115775625D01*
X117948075Y-115733054D01*
X117924484Y-115667288D01*
X117940195Y-115599207D01*
X117990219Y-115550428D01*
X118003466Y-115544377D01*
X118197401Y-115469247D01*
X118386562Y-115352124D01*
X118550981Y-115202236D01*
X118685058Y-115024689D01*
X118784229Y-114825528D01*
X118845115Y-114611536D01*
X118865643Y-114390000D01*
X118845115Y-114168464D01*
X118784229Y-113954472D01*
X118784224Y-113954461D01*
X118685061Y-113755316D01*
X118685056Y-113755308D01*
X118550979Y-113577761D01*
X118386562Y-113427876D01*
X118386560Y-113427874D01*
X118197404Y-113310754D01*
X118197395Y-113310750D01*
X118103956Y-113274552D01*
X118003475Y-113235625D01*
X117948075Y-113193054D01*
X117924484Y-113127288D01*
X117940195Y-113059207D01*
X117990219Y-113010428D01*
X118003466Y-113004377D01*
X118197401Y-112929247D01*
X118386562Y-112812124D01*
X118550981Y-112662236D01*
X118685058Y-112484689D01*
X118784229Y-112285528D01*
X118845115Y-112071536D01*
X118865643Y-111850000D01*
X118845115Y-111628464D01*
X118784229Y-111414472D01*
X118689634Y-111224500D01*
X118685061Y-111215316D01*
X118685056Y-111215308D01*
X118550979Y-111037761D01*
X118386562Y-110887876D01*
X118386560Y-110887874D01*
X118197404Y-110770754D01*
X118197395Y-110770750D01*
X118103956Y-110734552D01*
X118003475Y-110695625D01*
X117948075Y-110653054D01*
X117924484Y-110587288D01*
X117940195Y-110519207D01*
X117990219Y-110470428D01*
X118003466Y-110464377D01*
X118197401Y-110389247D01*
X118386562Y-110272124D01*
X118550981Y-110122236D01*
X118685058Y-109944689D01*
X118784229Y-109745528D01*
X118845115Y-109531536D01*
X118865643Y-109310000D01*
X118845115Y-109088464D01*
X118784229Y-108874472D01*
X118784224Y-108874461D01*
X118685061Y-108675316D01*
X118685056Y-108675308D01*
X118550979Y-108497761D01*
X118386562Y-108347876D01*
X118386560Y-108347874D01*
X118197404Y-108230754D01*
X118197395Y-108230750D01*
X118103956Y-108194552D01*
X118003475Y-108155625D01*
X117948075Y-108113054D01*
X117924484Y-108047288D01*
X117940195Y-107979207D01*
X117990219Y-107930428D01*
X118003466Y-107924377D01*
X118197401Y-107849247D01*
X118386562Y-107732124D01*
X118550981Y-107582236D01*
X118685058Y-107404689D01*
X118784229Y-107205528D01*
X118845115Y-106991536D01*
X118865643Y-106770000D01*
X118845115Y-106548464D01*
X118784229Y-106334472D01*
X118748082Y-106261879D01*
X118685061Y-106135316D01*
X118685056Y-106135308D01*
X118550979Y-105957761D01*
X118386562Y-105807876D01*
X118386560Y-105807874D01*
X118197404Y-105690754D01*
X118197395Y-105690750D01*
X118103956Y-105654552D01*
X118003475Y-105615625D01*
X117948075Y-105573054D01*
X117924484Y-105507288D01*
X117940195Y-105439207D01*
X117990219Y-105390428D01*
X118003466Y-105384377D01*
X118197401Y-105309247D01*
X118386562Y-105192124D01*
X118550981Y-105042236D01*
X118685058Y-104864689D01*
X118784229Y-104665528D01*
X118845115Y-104451536D01*
X118865643Y-104230000D01*
X118845115Y-104008464D01*
X118784229Y-103794472D01*
X118784224Y-103794461D01*
X118685061Y-103595316D01*
X118685056Y-103595308D01*
X118550979Y-103417761D01*
X118386562Y-103267876D01*
X118386560Y-103267874D01*
X118197404Y-103150754D01*
X118197395Y-103150750D01*
X118103956Y-103114552D01*
X118003475Y-103075625D01*
X117948075Y-103033054D01*
X117924484Y-102967288D01*
X117940195Y-102899207D01*
X117990219Y-102850428D01*
X118003466Y-102844377D01*
X118197401Y-102769247D01*
X118386562Y-102652124D01*
X118550981Y-102502236D01*
X118685058Y-102324689D01*
X118784229Y-102125528D01*
X118845115Y-101911536D01*
X118865643Y-101690000D01*
X118845115Y-101468464D01*
X118784229Y-101254472D01*
X118784224Y-101254461D01*
X118685061Y-101055316D01*
X118685056Y-101055308D01*
X118550979Y-100877761D01*
X118386562Y-100727876D01*
X118386560Y-100727874D01*
X118197404Y-100610754D01*
X118197395Y-100610750D01*
X118103956Y-100574552D01*
X118003475Y-100535625D01*
X117948075Y-100493054D01*
X117924484Y-100427288D01*
X117940195Y-100359207D01*
X117990219Y-100310428D01*
X118003466Y-100304377D01*
X118197401Y-100229247D01*
X118386562Y-100112124D01*
X118550981Y-99962236D01*
X118685058Y-99784689D01*
X118784229Y-99585528D01*
X118845115Y-99371536D01*
X118865643Y-99150000D01*
X118845115Y-98928464D01*
X118784229Y-98714472D01*
X118784224Y-98714461D01*
X118685061Y-98515316D01*
X118685056Y-98515308D01*
X118550979Y-98337761D01*
X118386562Y-98187876D01*
X118386560Y-98187874D01*
X118197404Y-98070754D01*
X118197395Y-98070750D01*
X118103956Y-98034552D01*
X118003475Y-97995625D01*
X117948075Y-97953054D01*
X117924484Y-97887288D01*
X117940195Y-97819207D01*
X117990219Y-97770428D01*
X118003466Y-97764377D01*
X118197401Y-97689247D01*
X118386562Y-97572124D01*
X118550981Y-97422236D01*
X118685058Y-97244689D01*
X118784229Y-97045528D01*
X118845115Y-96831536D01*
X118865643Y-96610000D01*
X118845115Y-96388464D01*
X118784229Y-96174472D01*
X118784224Y-96174461D01*
X118685061Y-95975316D01*
X118685056Y-95975308D01*
X118550979Y-95797761D01*
X118386562Y-95647876D01*
X118386560Y-95647874D01*
X118197404Y-95530754D01*
X118197395Y-95530750D01*
X118103956Y-95494552D01*
X118003475Y-95455625D01*
X117948075Y-95413054D01*
X117924484Y-95347288D01*
X117940195Y-95279207D01*
X117990219Y-95230428D01*
X118003466Y-95224377D01*
X118197401Y-95149247D01*
X118386562Y-95032124D01*
X118550981Y-94882236D01*
X118685058Y-94704689D01*
X118784229Y-94505528D01*
X118845115Y-94291536D01*
X118865643Y-94070000D01*
X118845115Y-93848464D01*
X118784229Y-93634472D01*
X118784224Y-93634461D01*
X118685061Y-93435316D01*
X118685056Y-93435308D01*
X118550979Y-93257761D01*
X118386562Y-93107876D01*
X118386560Y-93107874D01*
X118197404Y-92990754D01*
X118197395Y-92990750D01*
X118103956Y-92954552D01*
X118003475Y-92915625D01*
X117948075Y-92873054D01*
X117924484Y-92807288D01*
X117940195Y-92739207D01*
X117990219Y-92690428D01*
X118003466Y-92684377D01*
X118197401Y-92609247D01*
X118386562Y-92492124D01*
X118550981Y-92342236D01*
X118685058Y-92164689D01*
X118784229Y-91965528D01*
X118845115Y-91751536D01*
X118865643Y-91530000D01*
X118845115Y-91308464D01*
X118784229Y-91094472D01*
X118784224Y-91094461D01*
X118685061Y-90895316D01*
X118685056Y-90895308D01*
X118550979Y-90717761D01*
X118386562Y-90567876D01*
X118386560Y-90567874D01*
X118197404Y-90450754D01*
X118197395Y-90450750D01*
X118103956Y-90414552D01*
X118003475Y-90375625D01*
X117948075Y-90333054D01*
X117924484Y-90267288D01*
X117940195Y-90199207D01*
X117990219Y-90150428D01*
X118003466Y-90144377D01*
X118197401Y-90069247D01*
X118386562Y-89952124D01*
X118550981Y-89802236D01*
X118685058Y-89624689D01*
X118784229Y-89425528D01*
X118845115Y-89211536D01*
X118865643Y-88990000D01*
X118845115Y-88768464D01*
X118784229Y-88554472D01*
X118784224Y-88554461D01*
X118685061Y-88355316D01*
X118685056Y-88355308D01*
X118550979Y-88177761D01*
X118386562Y-88027876D01*
X118386560Y-88027874D01*
X118197404Y-87910754D01*
X118197395Y-87910750D01*
X118103956Y-87874552D01*
X118003475Y-87835625D01*
X117948075Y-87793054D01*
X117924484Y-87727288D01*
X117940195Y-87659207D01*
X117990219Y-87610428D01*
X118003466Y-87604377D01*
X118197401Y-87529247D01*
X118386562Y-87412124D01*
X118550981Y-87262236D01*
X118685058Y-87084689D01*
X118784229Y-86885528D01*
X118845115Y-86671536D01*
X118865643Y-86450000D01*
X118845115Y-86228464D01*
X118784229Y-86014472D01*
X118784224Y-86014461D01*
X118685061Y-85815316D01*
X118685056Y-85815308D01*
X118550979Y-85637761D01*
X118386562Y-85487876D01*
X118386560Y-85487874D01*
X118197404Y-85370754D01*
X118197395Y-85370750D01*
X118103956Y-85334552D01*
X118003475Y-85295625D01*
X117948075Y-85253054D01*
X117924484Y-85187288D01*
X117940195Y-85119207D01*
X117990219Y-85070428D01*
X118003466Y-85064377D01*
X118197401Y-84989247D01*
X118386562Y-84872124D01*
X118550981Y-84722236D01*
X118685058Y-84544689D01*
X118784229Y-84345528D01*
X118845115Y-84131536D01*
X118865643Y-83910000D01*
X118845115Y-83688464D01*
X118784229Y-83474472D01*
X118784224Y-83474461D01*
X118685061Y-83275316D01*
X118685056Y-83275308D01*
X118550979Y-83097761D01*
X118386562Y-82947876D01*
X118386560Y-82947874D01*
X118197404Y-82830754D01*
X118197395Y-82830750D01*
X118103956Y-82794552D01*
X118003475Y-82755625D01*
X117948075Y-82713054D01*
X117924484Y-82647288D01*
X117940195Y-82579207D01*
X117990219Y-82530428D01*
X118003466Y-82524377D01*
X118197401Y-82449247D01*
X118386562Y-82332124D01*
X118550981Y-82182236D01*
X118685058Y-82004689D01*
X118784229Y-81805528D01*
X118845115Y-81591536D01*
X118865643Y-81370000D01*
X118845115Y-81148464D01*
X118784229Y-80934472D01*
X118742416Y-80850500D01*
X118685061Y-80735316D01*
X118685056Y-80735308D01*
X118550979Y-80557761D01*
X118386562Y-80407876D01*
X118386560Y-80407874D01*
X118197404Y-80290754D01*
X118197395Y-80290750D01*
X118103956Y-80254552D01*
X118003475Y-80215625D01*
X117948075Y-80173054D01*
X117924484Y-80107288D01*
X117940195Y-80039207D01*
X117990219Y-79990428D01*
X118003466Y-79984377D01*
X118197401Y-79909247D01*
X118386562Y-79792124D01*
X118550981Y-79642236D01*
X118685058Y-79464689D01*
X118784229Y-79265528D01*
X118845115Y-79051536D01*
X118865643Y-78830000D01*
X118862138Y-78792179D01*
X118845115Y-78608464D01*
X118845114Y-78608462D01*
X118784230Y-78394476D01*
X118784229Y-78394472D01*
X118784224Y-78394461D01*
X118685061Y-78195316D01*
X118685056Y-78195308D01*
X118550979Y-78017761D01*
X118386562Y-77867876D01*
X118386560Y-77867874D01*
X118197404Y-77750754D01*
X118197398Y-77750752D01*
X117989940Y-77670382D01*
X117771243Y-77629500D01*
X117548757Y-77629500D01*
X117330060Y-77670382D01*
X117198864Y-77721207D01*
X117122601Y-77750752D01*
X117122595Y-77750754D01*
X116933439Y-77867874D01*
X116933437Y-77867876D01*
X116769020Y-78017761D01*
X116634943Y-78195308D01*
X116634938Y-78195316D01*
X116535775Y-78394461D01*
X116535769Y-78394476D01*
X116474885Y-78608462D01*
X116474884Y-78608464D01*
X116454357Y-78829999D01*
X116454357Y-78830000D01*
X116474884Y-79051535D01*
X116474885Y-79051537D01*
X116535769Y-79265523D01*
X116535775Y-79265538D01*
X116634938Y-79464683D01*
X116634943Y-79464691D01*
X116769020Y-79642238D01*
X116933437Y-79792123D01*
X116933439Y-79792125D01*
X117122595Y-79909245D01*
X117122596Y-79909245D01*
X117122599Y-79909247D01*
X117316524Y-79984374D01*
X117371924Y-80026946D01*
X117395515Y-80092713D01*
X117379804Y-80160793D01*
X117329780Y-80209572D01*
X117316533Y-80215622D01*
X117168488Y-80272975D01*
X117122601Y-80290752D01*
X117122595Y-80290754D01*
X116933439Y-80407874D01*
X116933437Y-80407876D01*
X116769020Y-80557761D01*
X116634943Y-80735308D01*
X116634938Y-80735316D01*
X116535775Y-80934461D01*
X116535769Y-80934476D01*
X116474885Y-81148462D01*
X116474884Y-81148464D01*
X116454357Y-81369999D01*
X116454357Y-81370000D01*
X116474884Y-81591535D01*
X116474885Y-81591537D01*
X116535769Y-81805523D01*
X116535775Y-81805538D01*
X116634938Y-82004683D01*
X116634943Y-82004691D01*
X116769020Y-82182238D01*
X116933437Y-82332123D01*
X116933439Y-82332125D01*
X117122595Y-82449245D01*
X117122596Y-82449245D01*
X117122599Y-82449247D01*
X117316524Y-82524374D01*
X117371924Y-82566946D01*
X117395515Y-82632713D01*
X117379804Y-82700793D01*
X117329780Y-82749572D01*
X117316533Y-82755622D01*
X117168488Y-82812975D01*
X117122601Y-82830752D01*
X117122595Y-82830754D01*
X116933439Y-82947874D01*
X116933437Y-82947876D01*
X116769020Y-83097761D01*
X116634943Y-83275308D01*
X116634938Y-83275316D01*
X116535775Y-83474461D01*
X116535769Y-83474476D01*
X116474885Y-83688462D01*
X116474884Y-83688464D01*
X116454357Y-83909999D01*
X116454357Y-83910000D01*
X116474884Y-84131535D01*
X116474885Y-84131537D01*
X116535769Y-84345523D01*
X116535775Y-84345538D01*
X116634938Y-84544683D01*
X116634943Y-84544691D01*
X116769020Y-84722238D01*
X116933437Y-84872123D01*
X116933439Y-84872125D01*
X117122595Y-84989245D01*
X117122596Y-84989245D01*
X117122599Y-84989247D01*
X117316524Y-85064374D01*
X117371924Y-85106946D01*
X117395515Y-85172713D01*
X117379804Y-85240793D01*
X117329780Y-85289572D01*
X117316533Y-85295622D01*
X117168488Y-85352975D01*
X117122601Y-85370752D01*
X117122595Y-85370754D01*
X116933439Y-85487874D01*
X116933437Y-85487876D01*
X116769020Y-85637761D01*
X116634943Y-85815308D01*
X116634938Y-85815316D01*
X116535775Y-86014461D01*
X116535769Y-86014476D01*
X116474885Y-86228462D01*
X116474884Y-86228464D01*
X116454357Y-86449999D01*
X116454357Y-86450000D01*
X116474884Y-86671535D01*
X116474885Y-86671537D01*
X116535769Y-86885523D01*
X116535775Y-86885538D01*
X116634938Y-87084683D01*
X116634943Y-87084691D01*
X116769020Y-87262238D01*
X116933437Y-87412123D01*
X116933439Y-87412125D01*
X117122595Y-87529245D01*
X117122596Y-87529245D01*
X117122599Y-87529247D01*
X117316524Y-87604374D01*
X117371924Y-87646946D01*
X117395515Y-87712713D01*
X117379804Y-87780793D01*
X117329780Y-87829572D01*
X117316533Y-87835622D01*
X117168488Y-87892975D01*
X117122601Y-87910752D01*
X117122595Y-87910754D01*
X116933439Y-88027874D01*
X116933437Y-88027876D01*
X116769020Y-88177761D01*
X116634943Y-88355308D01*
X116634938Y-88355316D01*
X116535775Y-88554461D01*
X116535769Y-88554476D01*
X116474885Y-88768462D01*
X116474884Y-88768464D01*
X116454357Y-88989999D01*
X116454357Y-88990000D01*
X116474884Y-89211535D01*
X116474885Y-89211537D01*
X116535769Y-89425523D01*
X116535775Y-89425538D01*
X116634938Y-89624683D01*
X116634943Y-89624691D01*
X116769020Y-89802238D01*
X116933437Y-89952123D01*
X116933439Y-89952125D01*
X117122595Y-90069245D01*
X117122596Y-90069245D01*
X117122599Y-90069247D01*
X117316524Y-90144374D01*
X117371924Y-90186946D01*
X117395515Y-90252713D01*
X117379804Y-90320793D01*
X117329780Y-90369572D01*
X117316533Y-90375622D01*
X117168488Y-90432975D01*
X117122601Y-90450752D01*
X117122595Y-90450754D01*
X116933439Y-90567874D01*
X116933437Y-90567876D01*
X116769020Y-90717761D01*
X116634943Y-90895308D01*
X116634938Y-90895316D01*
X116535775Y-91094461D01*
X116535769Y-91094476D01*
X116474885Y-91308462D01*
X116474884Y-91308464D01*
X116454357Y-91529999D01*
X116454357Y-91530000D01*
X116474884Y-91751535D01*
X116474885Y-91751537D01*
X116535769Y-91965523D01*
X116535775Y-91965538D01*
X116634938Y-92164683D01*
X116634943Y-92164691D01*
X116769020Y-92342238D01*
X116933437Y-92492123D01*
X116933439Y-92492125D01*
X117122595Y-92609245D01*
X117122596Y-92609245D01*
X117122599Y-92609247D01*
X117316524Y-92684374D01*
X117371924Y-92726946D01*
X117395515Y-92792713D01*
X117379804Y-92860793D01*
X117329780Y-92909572D01*
X117316533Y-92915622D01*
X117168488Y-92972975D01*
X117122601Y-92990752D01*
X117122595Y-92990754D01*
X116933439Y-93107874D01*
X116933437Y-93107876D01*
X116769020Y-93257761D01*
X116634943Y-93435308D01*
X116634938Y-93435316D01*
X116535775Y-93634461D01*
X116535769Y-93634476D01*
X116474885Y-93848462D01*
X116474884Y-93848464D01*
X116454357Y-94069999D01*
X116454357Y-94070000D01*
X116474884Y-94291535D01*
X116474885Y-94291537D01*
X116535769Y-94505523D01*
X116535775Y-94505538D01*
X116634938Y-94704683D01*
X116634943Y-94704691D01*
X116769020Y-94882238D01*
X116933437Y-95032123D01*
X116933439Y-95032125D01*
X117122595Y-95149245D01*
X117122596Y-95149245D01*
X117122599Y-95149247D01*
X117316524Y-95224374D01*
X117371924Y-95266946D01*
X117395515Y-95332713D01*
X117379804Y-95400793D01*
X117329780Y-95449572D01*
X117316533Y-95455622D01*
X117168488Y-95512975D01*
X117122601Y-95530752D01*
X117122595Y-95530754D01*
X116933439Y-95647874D01*
X116933437Y-95647876D01*
X116769020Y-95797761D01*
X116634943Y-95975308D01*
X116634938Y-95975316D01*
X116535775Y-96174461D01*
X116535769Y-96174476D01*
X116474885Y-96388462D01*
X116474884Y-96388464D01*
X116454357Y-96609999D01*
X116454357Y-96610000D01*
X116474884Y-96831535D01*
X116474885Y-96831537D01*
X116535769Y-97045523D01*
X116535775Y-97045538D01*
X116634938Y-97244683D01*
X116634943Y-97244691D01*
X116769020Y-97422238D01*
X116933437Y-97572123D01*
X116933439Y-97572125D01*
X117122595Y-97689245D01*
X117122596Y-97689245D01*
X117122599Y-97689247D01*
X117316524Y-97764374D01*
X117371924Y-97806946D01*
X117395515Y-97872713D01*
X117379804Y-97940793D01*
X117329780Y-97989572D01*
X117316533Y-97995622D01*
X117168488Y-98052975D01*
X117122601Y-98070752D01*
X117122595Y-98070754D01*
X116933439Y-98187874D01*
X116933437Y-98187876D01*
X116769020Y-98337761D01*
X116634943Y-98515308D01*
X116634938Y-98515316D01*
X116535775Y-98714461D01*
X116535769Y-98714476D01*
X116474885Y-98928462D01*
X116474884Y-98928464D01*
X116454357Y-99149999D01*
X116454357Y-99150000D01*
X116474884Y-99371535D01*
X116474885Y-99371537D01*
X116535769Y-99585523D01*
X116535775Y-99585538D01*
X116634938Y-99784683D01*
X116634943Y-99784691D01*
X116769020Y-99962238D01*
X116933437Y-100112123D01*
X116933439Y-100112125D01*
X117122595Y-100229245D01*
X117122596Y-100229245D01*
X117122599Y-100229247D01*
X117316524Y-100304374D01*
X117371924Y-100346946D01*
X117395515Y-100412713D01*
X117379804Y-100480793D01*
X117329780Y-100529572D01*
X117316533Y-100535622D01*
X117168488Y-100592975D01*
X117122601Y-100610752D01*
X117122595Y-100610754D01*
X116933439Y-100727874D01*
X116933437Y-100727876D01*
X116769020Y-100877761D01*
X116634943Y-101055308D01*
X116634938Y-101055316D01*
X116535775Y-101254461D01*
X116535769Y-101254476D01*
X116474885Y-101468462D01*
X116474884Y-101468464D01*
X116454357Y-101689999D01*
X116454357Y-101690000D01*
X116474884Y-101911535D01*
X116474885Y-101911537D01*
X116535769Y-102125523D01*
X116535775Y-102125538D01*
X116634938Y-102324683D01*
X116634943Y-102324691D01*
X116769020Y-102502238D01*
X116933437Y-102652123D01*
X116933439Y-102652125D01*
X117122595Y-102769245D01*
X117122596Y-102769245D01*
X117122599Y-102769247D01*
X117316524Y-102844374D01*
X117371924Y-102886946D01*
X117395515Y-102952713D01*
X117379804Y-103020793D01*
X117329780Y-103069572D01*
X117316533Y-103075622D01*
X117168488Y-103132975D01*
X117122601Y-103150752D01*
X117122595Y-103150754D01*
X116933439Y-103267874D01*
X116933437Y-103267876D01*
X116769020Y-103417761D01*
X116634943Y-103595308D01*
X116634938Y-103595316D01*
X116535775Y-103794461D01*
X116535769Y-103794476D01*
X116474885Y-104008462D01*
X116474884Y-104008464D01*
X116454357Y-104229999D01*
X116454357Y-104230000D01*
X116474884Y-104451535D01*
X116474885Y-104451537D01*
X116535769Y-104665523D01*
X116535775Y-104665538D01*
X116634938Y-104864683D01*
X116634943Y-104864691D01*
X116769020Y-105042238D01*
X116933437Y-105192123D01*
X116933439Y-105192125D01*
X117122595Y-105309245D01*
X117122596Y-105309245D01*
X117122599Y-105309247D01*
X117316524Y-105384374D01*
X117371924Y-105426946D01*
X117395515Y-105492713D01*
X117379804Y-105560793D01*
X117329780Y-105609572D01*
X117316533Y-105615622D01*
X117168488Y-105672975D01*
X117122601Y-105690752D01*
X117122595Y-105690754D01*
X116933439Y-105807874D01*
X116933437Y-105807876D01*
X116769020Y-105957761D01*
X116634943Y-106135308D01*
X116634938Y-106135316D01*
X116535775Y-106334461D01*
X116535769Y-106334476D01*
X116474885Y-106548462D01*
X116474884Y-106548464D01*
X116454357Y-106769999D01*
X116454357Y-106770000D01*
X116474884Y-106991535D01*
X116474885Y-106991537D01*
X116535769Y-107205523D01*
X116535775Y-107205538D01*
X116634938Y-107404683D01*
X116634943Y-107404691D01*
X116769020Y-107582238D01*
X116933437Y-107732123D01*
X116933439Y-107732125D01*
X117122595Y-107849245D01*
X117122596Y-107849245D01*
X117122599Y-107849247D01*
X117316524Y-107924374D01*
X117371924Y-107966946D01*
X117395515Y-108032713D01*
X117379804Y-108100793D01*
X117329780Y-108149572D01*
X117316533Y-108155622D01*
X117168488Y-108212975D01*
X117122601Y-108230752D01*
X117122595Y-108230754D01*
X116933439Y-108347874D01*
X116933437Y-108347876D01*
X116769020Y-108497761D01*
X116634943Y-108675308D01*
X116634938Y-108675316D01*
X116535775Y-108874461D01*
X116535769Y-108874476D01*
X116474885Y-109088462D01*
X116474884Y-109088464D01*
X116454357Y-109309999D01*
X116454357Y-109310000D01*
X116474884Y-109531535D01*
X116474885Y-109531537D01*
X116535769Y-109745523D01*
X116535775Y-109745538D01*
X116634938Y-109944683D01*
X116634943Y-109944691D01*
X116769020Y-110122238D01*
X116933437Y-110272123D01*
X116933439Y-110272125D01*
X117122595Y-110389245D01*
X117122596Y-110389245D01*
X117122599Y-110389247D01*
X117316524Y-110464374D01*
X117371924Y-110506946D01*
X117395515Y-110572713D01*
X117379804Y-110640793D01*
X117329780Y-110689572D01*
X117316533Y-110695622D01*
X117168488Y-110752975D01*
X117122601Y-110770752D01*
X117122595Y-110770754D01*
X116933439Y-110887874D01*
X116933437Y-110887876D01*
X116769020Y-111037761D01*
X116634943Y-111215308D01*
X116634938Y-111215316D01*
X116535775Y-111414461D01*
X116535769Y-111414476D01*
X116474885Y-111628462D01*
X116474884Y-111628464D01*
X116454357Y-111849999D01*
X116454357Y-111850000D01*
X116474884Y-112071535D01*
X116474885Y-112071537D01*
X116535769Y-112285523D01*
X116535775Y-112285538D01*
X116634938Y-112484683D01*
X116634943Y-112484691D01*
X116769020Y-112662238D01*
X116933437Y-112812123D01*
X116933439Y-112812125D01*
X117122595Y-112929245D01*
X117122596Y-112929245D01*
X117122599Y-112929247D01*
X117316524Y-113004374D01*
X117371924Y-113046946D01*
X117395515Y-113112713D01*
X117379804Y-113180793D01*
X117329780Y-113229572D01*
X117316533Y-113235622D01*
X117168488Y-113292975D01*
X117122601Y-113310752D01*
X117122595Y-113310754D01*
X116933439Y-113427874D01*
X116933437Y-113427876D01*
X116769020Y-113577761D01*
X116634943Y-113755308D01*
X116634938Y-113755316D01*
X116535775Y-113954461D01*
X116535769Y-113954476D01*
X116474885Y-114168462D01*
X116474884Y-114168464D01*
X116454357Y-114389999D01*
X116454357Y-114390000D01*
X116474884Y-114611535D01*
X116474885Y-114611537D01*
X116535769Y-114825523D01*
X116535775Y-114825538D01*
X116634938Y-115024683D01*
X116634943Y-115024691D01*
X116769020Y-115202238D01*
X116933437Y-115352123D01*
X116933439Y-115352125D01*
X117122595Y-115469245D01*
X117122596Y-115469245D01*
X117122599Y-115469247D01*
X117316524Y-115544374D01*
X117371924Y-115586946D01*
X117395515Y-115652713D01*
X117379804Y-115720793D01*
X117329780Y-115769572D01*
X117316533Y-115775622D01*
X117168488Y-115832975D01*
X117122601Y-115850752D01*
X117122595Y-115850754D01*
X116933439Y-115967874D01*
X116933437Y-115967876D01*
X116769020Y-116117761D01*
X116634943Y-116295308D01*
X116634938Y-116295316D01*
X116535775Y-116494461D01*
X116535769Y-116494476D01*
X116474885Y-116708462D01*
X116474884Y-116708464D01*
X116454357Y-116929999D01*
X116454357Y-116930000D01*
X116474884Y-117151535D01*
X116474885Y-117151537D01*
X116535769Y-117365523D01*
X116535775Y-117365538D01*
X116634938Y-117564683D01*
X116634943Y-117564691D01*
X116769020Y-117742238D01*
X116933437Y-117892123D01*
X116933439Y-117892125D01*
X117122595Y-118009245D01*
X117122596Y-118009245D01*
X117122599Y-118009247D01*
X117316524Y-118084374D01*
X117371924Y-118126946D01*
X117395515Y-118192713D01*
X117379804Y-118260793D01*
X117329780Y-118309572D01*
X117316533Y-118315622D01*
X117168488Y-118372975D01*
X117122601Y-118390752D01*
X117122595Y-118390754D01*
X116933439Y-118507874D01*
X116933437Y-118507876D01*
X116769020Y-118657761D01*
X116634943Y-118835308D01*
X116634938Y-118835316D01*
X116535775Y-119034461D01*
X116535769Y-119034476D01*
X116474885Y-119248462D01*
X116474884Y-119248464D01*
X116454357Y-119469999D01*
X116454357Y-119470000D01*
X116474884Y-119691535D01*
X116474885Y-119691537D01*
X116535769Y-119905523D01*
X116535775Y-119905538D01*
X116634938Y-120104683D01*
X116634943Y-120104691D01*
X116769020Y-120282238D01*
X116933437Y-120432123D01*
X116933439Y-120432125D01*
X117122595Y-120549245D01*
X117122596Y-120549245D01*
X117122599Y-120549247D01*
X117316524Y-120624374D01*
X117371924Y-120666946D01*
X117395515Y-120732713D01*
X117379804Y-120800793D01*
X117329780Y-120849572D01*
X117316533Y-120855622D01*
X117168488Y-120912975D01*
X117122601Y-120930752D01*
X117122595Y-120930754D01*
X116933439Y-121047874D01*
X116933437Y-121047876D01*
X116769020Y-121197761D01*
X116634943Y-121375308D01*
X116634938Y-121375316D01*
X116535775Y-121574461D01*
X116535769Y-121574476D01*
X116474885Y-121788462D01*
X116474884Y-121788464D01*
X116454357Y-122009999D01*
X116454357Y-122010000D01*
X116474884Y-122231535D01*
X116474885Y-122231537D01*
X116535769Y-122445523D01*
X116535775Y-122445538D01*
X116634938Y-122644683D01*
X116634943Y-122644691D01*
X116769020Y-122822238D01*
X116933437Y-122972123D01*
X116933439Y-122972125D01*
X117122595Y-123089245D01*
X117122596Y-123089245D01*
X117122599Y-123089247D01*
X117316524Y-123164374D01*
X117371924Y-123206946D01*
X117395515Y-123272713D01*
X117379804Y-123340793D01*
X117329780Y-123389572D01*
X117316533Y-123395622D01*
X117168488Y-123452975D01*
X117122601Y-123470752D01*
X117122595Y-123470754D01*
X116933439Y-123587874D01*
X116933437Y-123587876D01*
X116769020Y-123737761D01*
X116634943Y-123915308D01*
X116634938Y-123915316D01*
X116535775Y-124114461D01*
X116535769Y-124114476D01*
X116474885Y-124328462D01*
X116474884Y-124328464D01*
X116454357Y-124549999D01*
X116454357Y-124550000D01*
X116474884Y-124771535D01*
X116474885Y-124771537D01*
X116535769Y-124985523D01*
X116535775Y-124985538D01*
X116634938Y-125184683D01*
X116634943Y-125184691D01*
X116769020Y-125362238D01*
X116933437Y-125512123D01*
X116933439Y-125512125D01*
X117122595Y-125629245D01*
X117122596Y-125629245D01*
X117122599Y-125629247D01*
X117316524Y-125704374D01*
X117371924Y-125746946D01*
X117395515Y-125812713D01*
X117379804Y-125880793D01*
X117329780Y-125929572D01*
X117316533Y-125935622D01*
X117173466Y-125991047D01*
X117122601Y-126010752D01*
X117122595Y-126010754D01*
X116933439Y-126127874D01*
X116933437Y-126127876D01*
X116769020Y-126277761D01*
X116634943Y-126455308D01*
X116634938Y-126455316D01*
X116535775Y-126654461D01*
X116535769Y-126654476D01*
X116474885Y-126868462D01*
X116474884Y-126868464D01*
X116454357Y-127089999D01*
X116454357Y-127090000D01*
X116474884Y-127311535D01*
X116474885Y-127311537D01*
X116535769Y-127525523D01*
X116535775Y-127525538D01*
X116634938Y-127724683D01*
X116634943Y-127724691D01*
X116769020Y-127902238D01*
X116933437Y-128052123D01*
X116933439Y-128052125D01*
X117122595Y-128169245D01*
X117122596Y-128169245D01*
X117122599Y-128169247D01*
X117316524Y-128244374D01*
X117371924Y-128286946D01*
X117395515Y-128352713D01*
X117379804Y-128420793D01*
X117329780Y-128469572D01*
X117316533Y-128475622D01*
X117168488Y-128532975D01*
X117122601Y-128550752D01*
X117122595Y-128550754D01*
X116933439Y-128667874D01*
X116933437Y-128667876D01*
X116769020Y-128817761D01*
X116634943Y-128995308D01*
X116634938Y-128995316D01*
X116535775Y-129194461D01*
X116535769Y-129194476D01*
X116474885Y-129408462D01*
X116474884Y-129408464D01*
X116454357Y-129629999D01*
X116454357Y-129630000D01*
X116474884Y-129851535D01*
X116474885Y-129851537D01*
X116535769Y-130065523D01*
X116535775Y-130065538D01*
X116634938Y-130264683D01*
X116634943Y-130264691D01*
X116769020Y-130442238D01*
X116933437Y-130592123D01*
X116933439Y-130592125D01*
X117122595Y-130709245D01*
X117122596Y-130709245D01*
X117122599Y-130709247D01*
X117316524Y-130784374D01*
X117371924Y-130826946D01*
X117395515Y-130892713D01*
X117379804Y-130960793D01*
X117329780Y-131009572D01*
X117316533Y-131015622D01*
X117168488Y-131072975D01*
X117122601Y-131090752D01*
X117122595Y-131090754D01*
X116933439Y-131207874D01*
X116933437Y-131207876D01*
X116769020Y-131357761D01*
X116634943Y-131535308D01*
X116634938Y-131535316D01*
X116535775Y-131734461D01*
X116535769Y-131734476D01*
X116474885Y-131948462D01*
X116474884Y-131948464D01*
X116454357Y-132169999D01*
X116454357Y-132170000D01*
X116474884Y-132391535D01*
X116474885Y-132391537D01*
X116535769Y-132605523D01*
X116535775Y-132605538D01*
X116634938Y-132804683D01*
X116634943Y-132804691D01*
X116769020Y-132982238D01*
X116933437Y-133132123D01*
X116933439Y-133132125D01*
X117122595Y-133249245D01*
X117122596Y-133249245D01*
X117122599Y-133249247D01*
X117316524Y-133324374D01*
X117371924Y-133366946D01*
X117395515Y-133432713D01*
X117379804Y-133500793D01*
X117329780Y-133549572D01*
X117316533Y-133555622D01*
X117168488Y-133612975D01*
X117122601Y-133630752D01*
X117122595Y-133630754D01*
X116933439Y-133747874D01*
X116933437Y-133747876D01*
X116769020Y-133897761D01*
X116634943Y-134075308D01*
X116634938Y-134075316D01*
X116535775Y-134274461D01*
X116535769Y-134274476D01*
X116474885Y-134488462D01*
X116474884Y-134488464D01*
X116454357Y-134709999D01*
X116454357Y-134710000D01*
X116474884Y-134931535D01*
X116474885Y-134931537D01*
X116535769Y-135145523D01*
X116535775Y-135145538D01*
X116634938Y-135344683D01*
X116634943Y-135344691D01*
X116769020Y-135522238D01*
X116933437Y-135672123D01*
X116933439Y-135672125D01*
X117122595Y-135789245D01*
X117122596Y-135789245D01*
X117122599Y-135789247D01*
X117316524Y-135864374D01*
X117371924Y-135906946D01*
X117395515Y-135972713D01*
X117379804Y-136040793D01*
X117329780Y-136089572D01*
X117316533Y-136095622D01*
X117168488Y-136152975D01*
X117122601Y-136170752D01*
X117122595Y-136170754D01*
X116933439Y-136287874D01*
X116933437Y-136287876D01*
X116769020Y-136437761D01*
X116634943Y-136615308D01*
X116634938Y-136615316D01*
X116535775Y-136814461D01*
X116535769Y-136814476D01*
X116474885Y-137028462D01*
X116474884Y-137028464D01*
X116454357Y-137249999D01*
X116454357Y-137250000D01*
X116474884Y-137471535D01*
X116474885Y-137471537D01*
X116535769Y-137685523D01*
X116535775Y-137685538D01*
X116634938Y-137884683D01*
X116634943Y-137884691D01*
X116769020Y-138062238D01*
X116933437Y-138212123D01*
X116933439Y-138212125D01*
X117122595Y-138329245D01*
X117122596Y-138329245D01*
X117122599Y-138329247D01*
X117330060Y-138409618D01*
X117548757Y-138450500D01*
X117548759Y-138450500D01*
X117771241Y-138450500D01*
X117771243Y-138450500D01*
X117989940Y-138409618D01*
X118180819Y-138335670D01*
X118250439Y-138329809D01*
X118312179Y-138362519D01*
X118313291Y-138363617D01*
X118737993Y-138788319D01*
X118771478Y-138849642D01*
X118766494Y-138919334D01*
X118724622Y-138975267D01*
X118659158Y-138999684D01*
X118650312Y-139000000D01*
X115924000Y-139000000D01*
X115856961Y-138980315D01*
X115811206Y-138927511D01*
X115800000Y-138876000D01*
X115800000Y-77173892D01*
X115819685Y-77106853D01*
X115872489Y-77061098D01*
X115923891Y-77049892D01*
X161925894Y-77009855D01*
X161992949Y-77029481D01*
X162038749Y-77082245D01*
X162050000Y-77133855D01*
X162050000Y-79350000D01*
X164550000Y-79350000D01*
X164550000Y-77131463D01*
X164569685Y-77064424D01*
X164622489Y-77018669D01*
X164673887Y-77007463D01*
X170425898Y-77002457D01*
X170492949Y-77022082D01*
G37*
%TD.AperFunction*%
%TD*%
M02*
