%TF.GenerationSoftware,KiCad,Pcbnew,9.0.4*%
%TF.CreationDate,2026-03-03T22:43:28-05:00*%
%TF.ProjectId,medium-power-module-telemetry-2,6d656469-756d-42d7-906f-7765722d6d6f,rev?*%
%TF.SameCoordinates,Original*%
%TF.FileFunction,Soldermask,Top*%
%TF.FilePolarity,Negative*%
%FSLAX46Y46*%
G04 Gerber Fmt 4.6, Leading zero omitted, Abs format (unit mm)*
G04 Created by KiCad (PCBNEW 9.0.4) date 2026-03-03 22:43:28*
%MOMM*%
%LPD*%
G01*
G04 APERTURE LIST*
G04 Aperture macros list*
%AMRoundRect*
0 Rectangle with rounded corners*
0 $1 Rounding radius*
0 $2 $3 $4 $5 $6 $7 $8 $9 X,Y pos of 4 corners*
0 Add a 4 corners polygon primitive as box body*
4,1,4,$2,$3,$4,$5,$6,$7,$8,$9,$2,$3,0*
0 Add four circle primitives for the rounded corners*
1,1,$1+$1,$2,$3*
1,1,$1+$1,$4,$5*
1,1,$1+$1,$6,$7*
1,1,$1+$1,$8,$9*
0 Add four rect primitives between the rounded corners*
20,1,$1+$1,$2,$3,$4,$5,0*
20,1,$1+$1,$4,$5,$6,$7,0*
20,1,$1+$1,$6,$7,$8,$9,0*
20,1,$1+$1,$8,$9,$2,$3,0*%
G04 Aperture macros list end*
%ADD10C,0.000000*%
%ADD11RoundRect,0.225000X0.225000X0.250000X-0.225000X0.250000X-0.225000X-0.250000X0.225000X-0.250000X0*%
%ADD12RoundRect,0.110000X-1.590000X0.440000X-1.590000X-0.440000X1.590000X-0.440000X1.590000X0.440000X0*%
%ADD13RoundRect,0.222222X-0.627778X0.577778X-0.627778X-0.577778X0.627778X-0.577778X0.627778X0.577778X0*%
%ADD14RoundRect,0.225000X-0.250000X0.225000X-0.250000X-0.225000X0.250000X-0.225000X0.250000X0.225000X0*%
%ADD15RoundRect,0.200000X-0.275000X0.200000X-0.275000X-0.200000X0.275000X-0.200000X0.275000X0.200000X0*%
%ADD16R,0.558800X0.977900*%
%ADD17RoundRect,0.250000X0.325000X0.450000X-0.325000X0.450000X-0.325000X-0.450000X0.325000X-0.450000X0*%
%ADD18RoundRect,0.250000X0.450000X-0.325000X0.450000X0.325000X-0.450000X0.325000X-0.450000X-0.325000X0*%
%ADD19C,3.200000*%
%ADD20RoundRect,0.200000X0.275000X-0.200000X0.275000X0.200000X-0.275000X0.200000X-0.275000X-0.200000X0*%
%ADD21RoundRect,0.160000X0.160000X-0.197500X0.160000X0.197500X-0.160000X0.197500X-0.160000X-0.197500X0*%
%ADD22RoundRect,0.200000X0.200000X0.275000X-0.200000X0.275000X-0.200000X-0.275000X0.200000X-0.275000X0*%
%ADD23R,0.660400X0.304800*%
%ADD24R,1.016000X1.549400*%
%ADD25RoundRect,0.225000X-0.225000X-0.250000X0.225000X-0.250000X0.225000X0.250000X-0.225000X0.250000X0*%
%ADD26RoundRect,0.225000X0.250000X-0.225000X0.250000X0.225000X-0.250000X0.225000X-0.250000X-0.225000X0*%
%ADD27R,0.600000X0.300000*%
%ADD28R,0.300000X0.600000*%
%ADD29RoundRect,0.250000X-0.600000X-0.725000X0.600000X-0.725000X0.600000X0.725000X-0.600000X0.725000X0*%
%ADD30O,1.700000X1.950000*%
%ADD31R,1.700000X1.700000*%
%ADD32C,1.700000*%
%ADD33RoundRect,0.101600X0.762000X2.032000X-0.762000X2.032000X-0.762000X-2.032000X0.762000X-2.032000X0*%
G04 APERTURE END LIST*
D10*
%TO.C,U2*%
G36*
X154549999Y-116650000D02*
G01*
X153950000Y-116650000D01*
X153950000Y-116350000D01*
X154549999Y-116350000D01*
X154549999Y-116650000D01*
G37*
G36*
X154549999Y-117149999D02*
G01*
X153950000Y-117149999D01*
X153950000Y-116849999D01*
X154549999Y-116849999D01*
X154549999Y-117149999D01*
G37*
G36*
X154549999Y-117650000D02*
G01*
X153950000Y-117650000D01*
X153950000Y-117349998D01*
X154549999Y-117349998D01*
X154549999Y-117650000D01*
G37*
G36*
X154549999Y-118149999D02*
G01*
X153950000Y-118149999D01*
X153950000Y-117850000D01*
X154549999Y-117850000D01*
X154549999Y-118149999D01*
G37*
G36*
X154549999Y-118649998D02*
G01*
X153950000Y-118649998D01*
X153950000Y-118349999D01*
X154549999Y-118349999D01*
X154549999Y-118649998D01*
G37*
G36*
X154549999Y-119150000D02*
G01*
X153950000Y-119150000D01*
X153950000Y-118850000D01*
X154549999Y-118850000D01*
X154549999Y-119150000D01*
G37*
G36*
X154549999Y-119649999D02*
G01*
X153950000Y-119649999D01*
X153950000Y-119349999D01*
X154549999Y-119349999D01*
X154549999Y-119649999D01*
G37*
G36*
X154549999Y-120150000D02*
G01*
X153950000Y-120150000D01*
X153950000Y-119849998D01*
X154549999Y-119849998D01*
X154549999Y-120150000D01*
G37*
G36*
X155000001Y-116199998D02*
G01*
X154699999Y-116199998D01*
X154699999Y-115599999D01*
X155000001Y-115599999D01*
X155000001Y-116199998D01*
G37*
G36*
X155000001Y-120899999D02*
G01*
X154700001Y-120899999D01*
X154700001Y-120300000D01*
X155000001Y-120300000D01*
X155000001Y-120899999D01*
G37*
G36*
X155500000Y-116199998D02*
G01*
X155200000Y-116199998D01*
X155200000Y-115599999D01*
X155500000Y-115599999D01*
X155500000Y-116199998D01*
G37*
G36*
X155500000Y-120899999D02*
G01*
X155200000Y-120899999D01*
X155200000Y-120300000D01*
X155500000Y-120300000D01*
X155500000Y-120899999D01*
G37*
G36*
X155999999Y-116199998D02*
G01*
X155699999Y-116199998D01*
X155699999Y-115599999D01*
X155999999Y-115599999D01*
X155999999Y-116199998D01*
G37*
G36*
X156000001Y-120899999D02*
G01*
X155699999Y-120899999D01*
X155699999Y-120300000D01*
X156000001Y-120300000D01*
X156000001Y-120899999D01*
G37*
G36*
X156500000Y-116199998D02*
G01*
X156200001Y-116199998D01*
X156200001Y-115599999D01*
X156500000Y-115599999D01*
X156500000Y-116199998D01*
G37*
G36*
X156500000Y-120899999D02*
G01*
X156200001Y-120899999D01*
X156200001Y-120300000D01*
X156500000Y-120300000D01*
X156500000Y-120899999D01*
G37*
G36*
X156999999Y-116199998D02*
G01*
X156700000Y-116199998D01*
X156700000Y-115599999D01*
X156999999Y-115599999D01*
X156999999Y-116199998D01*
G37*
G36*
X156999999Y-120899999D02*
G01*
X156700000Y-120899999D01*
X156700000Y-120300000D01*
X156999999Y-120300000D01*
X156999999Y-120899999D01*
G37*
G36*
X157500001Y-116199998D02*
G01*
X157199999Y-116199998D01*
X157199999Y-115599999D01*
X157500001Y-115599999D01*
X157500001Y-116199998D01*
G37*
G36*
X157500001Y-120899999D02*
G01*
X157200001Y-120899999D01*
X157200001Y-120300000D01*
X157500001Y-120300000D01*
X157500001Y-120899999D01*
G37*
G36*
X158000000Y-116199998D02*
G01*
X157700000Y-116199998D01*
X157700000Y-115599999D01*
X158000000Y-115599999D01*
X158000000Y-116199998D01*
G37*
G36*
X158000000Y-120899999D02*
G01*
X157700000Y-120899999D01*
X157700000Y-120300000D01*
X158000000Y-120300000D01*
X158000000Y-120899999D01*
G37*
G36*
X158499999Y-116199998D02*
G01*
X158199999Y-116199998D01*
X158199999Y-115599999D01*
X158499999Y-115599999D01*
X158499999Y-116199998D01*
G37*
G36*
X158500001Y-120899999D02*
G01*
X158199999Y-120899999D01*
X158199999Y-120300000D01*
X158500001Y-120300000D01*
X158500001Y-120899999D01*
G37*
G36*
X159250000Y-116650000D02*
G01*
X158650001Y-116650000D01*
X158650001Y-116349998D01*
X159250000Y-116349998D01*
X159250000Y-116650000D01*
G37*
G36*
X159250000Y-117149999D02*
G01*
X158650001Y-117149999D01*
X158650001Y-116849999D01*
X159250000Y-116849999D01*
X159250000Y-117149999D01*
G37*
G36*
X159250000Y-117649998D02*
G01*
X158650001Y-117649998D01*
X158650001Y-117349998D01*
X159250000Y-117349998D01*
X159250000Y-117649998D01*
G37*
G36*
X159250000Y-118149999D02*
G01*
X158650001Y-118149999D01*
X158650001Y-117850000D01*
X159250000Y-117850000D01*
X159250000Y-118149999D01*
G37*
G36*
X159250000Y-118649998D02*
G01*
X158650001Y-118649998D01*
X158650001Y-118349999D01*
X159250000Y-118349999D01*
X159250000Y-118649998D01*
G37*
G36*
X159250000Y-119150000D02*
G01*
X158650001Y-119150000D01*
X158650001Y-118849998D01*
X159250000Y-118849998D01*
X159250000Y-119150000D01*
G37*
G36*
X159250000Y-119649999D02*
G01*
X158650001Y-119649999D01*
X158650001Y-119349999D01*
X159250000Y-119349999D01*
X159250000Y-119649999D01*
G37*
G36*
X159250000Y-120149998D02*
G01*
X158650001Y-120149998D01*
X158650001Y-119849998D01*
X159250000Y-119849998D01*
X159250000Y-120149998D01*
G37*
%TD*%
D11*
%TO.C,C7*%
X148050000Y-103900000D03*
X149600000Y-103900000D03*
%TD*%
D12*
%TO.C,L2*%
X153800000Y-109100000D03*
X153800000Y-112100000D03*
%TD*%
D13*
%TO.C,D1*%
X152100000Y-106150000D03*
X152100000Y-102150000D03*
%TD*%
D14*
%TO.C,C6*%
X146800000Y-113375000D03*
X146800000Y-111825000D03*
%TD*%
D15*
%TO.C,R5*%
X148000000Y-107100000D03*
X148000000Y-105450000D03*
%TD*%
D16*
%TO.C,U4*%
X150450001Y-111350000D03*
X149500000Y-111350000D03*
X148549999Y-111350000D03*
X148549999Y-108619500D03*
X149500000Y-108619500D03*
X150450001Y-108619500D03*
%TD*%
D15*
%TO.C,R6*%
X146800000Y-110200000D03*
X146800000Y-108550000D03*
%TD*%
D17*
%TO.C,GPIO3*%
X156950000Y-108760000D03*
X159000000Y-108760000D03*
%TD*%
%TO.C,GPIO1*%
X156950000Y-113460000D03*
X159000000Y-113460000D03*
%TD*%
D18*
%TO.C,STAT*%
X164915000Y-131800000D03*
X164915000Y-129750000D03*
%TD*%
D19*
%TO.C,H3*%
X167200000Y-136200000D03*
%TD*%
D20*
%TO.C,R8*%
X160900000Y-102250000D03*
X160900000Y-103900000D03*
%TD*%
D17*
%TO.C,8V0*%
X165325000Y-102900000D03*
X163275000Y-102900000D03*
%TD*%
D21*
%TO.C,R13*%
X160400000Y-114055000D03*
X160400000Y-112860000D03*
%TD*%
D17*
%TO.C,GPIO2*%
X159000000Y-111060000D03*
X156950000Y-111060000D03*
%TD*%
D15*
%TO.C,R7*%
X160600000Y-105250000D03*
X160600000Y-106900000D03*
%TD*%
D21*
%TO.C,R14*%
X166725000Y-103455000D03*
X166725000Y-102260000D03*
%TD*%
D19*
%TO.C,H2*%
X167200000Y-98000000D03*
%TD*%
D18*
%TO.C,3V3*%
X149215000Y-132000000D03*
X149215000Y-129950000D03*
%TD*%
D21*
%TO.C,R16*%
X147700000Y-131997500D03*
X147700000Y-130802500D03*
%TD*%
D20*
%TO.C,R9*%
X159400000Y-100500000D03*
X159400000Y-102150000D03*
%TD*%
D11*
%TO.C,C1*%
X152800000Y-116500000D03*
X151250000Y-116500000D03*
%TD*%
D14*
%TO.C,C4*%
X153600000Y-124250000D03*
X153600000Y-125800000D03*
%TD*%
D22*
%TO.C,R4*%
X151950000Y-123850000D03*
X150300000Y-123850000D03*
%TD*%
D21*
%TO.C,R15*%
X166500000Y-131795000D03*
X166500000Y-130600000D03*
%TD*%
D23*
%TO.C,U6*%
X157930800Y-102685002D03*
X157930800Y-102184876D03*
X157930800Y-101684750D03*
X155975000Y-101684750D03*
X155975000Y-102184876D03*
X155975000Y-102685002D03*
D24*
X156952900Y-102184876D03*
%TD*%
D23*
%TO.C,U3*%
X150244200Y-125350000D03*
X150244200Y-125850126D03*
X150244200Y-126350252D03*
X152200000Y-126350252D03*
X152200000Y-125850126D03*
X152200000Y-125350000D03*
D24*
X151222100Y-125850126D03*
%TD*%
D14*
%TO.C,C21*%
X160100000Y-121950000D03*
X160100000Y-123500000D03*
%TD*%
D25*
%TO.C,C13*%
X155750000Y-100084750D03*
X157300000Y-100084750D03*
%TD*%
D26*
%TO.C,C14*%
X154575000Y-103734750D03*
X154575000Y-102184750D03*
%TD*%
D27*
%TO.C,U2*%
X154250000Y-116500000D03*
X154250000Y-116999999D03*
X154250000Y-117499998D03*
X154250000Y-117999999D03*
X154250000Y-118499999D03*
X154250000Y-119000000D03*
X154250000Y-119499999D03*
X154250000Y-119999998D03*
D28*
X154850001Y-120599999D03*
X155350000Y-120599999D03*
X155849999Y-120599999D03*
X156350000Y-120599999D03*
X156850000Y-120599999D03*
X157350001Y-120599999D03*
X157850000Y-120599999D03*
X158349999Y-120599999D03*
D27*
X158950000Y-119999998D03*
X158950000Y-119499999D03*
X158950000Y-119000000D03*
X158950000Y-118499999D03*
X158950000Y-117999999D03*
X158950000Y-117499998D03*
X158950000Y-116999999D03*
X158950000Y-116500000D03*
D28*
X158349999Y-115899999D03*
X157850000Y-115899999D03*
X157350001Y-115899999D03*
X156850000Y-115899999D03*
X156350000Y-115899999D03*
X155849999Y-115899999D03*
X155350000Y-115899999D03*
X154850001Y-115899999D03*
%TD*%
D19*
%TO.C,H1*%
X146800000Y-98000000D03*
%TD*%
D21*
%TO.C,R1*%
X160400000Y-109335000D03*
X160400000Y-108140000D03*
%TD*%
D29*
%TO.C,J7*%
X153250000Y-129955000D03*
D30*
X155750000Y-129955000D03*
X158250000Y-129955000D03*
X160750000Y-129955000D03*
%TD*%
D21*
%TO.C,R12*%
X160400000Y-111695000D03*
X160400000Y-110500000D03*
%TD*%
D15*
%TO.C,R3*%
X148500000Y-124400000D03*
X148500000Y-126050000D03*
%TD*%
D25*
%TO.C,C5*%
X148050000Y-127850252D03*
X149600000Y-127850252D03*
%TD*%
D11*
%TO.C,C20*%
X152875000Y-118300000D03*
X151325000Y-118300000D03*
%TD*%
D31*
%TO.C,J1*%
X167700000Y-128240000D03*
D32*
X167700000Y-125700000D03*
X167700000Y-123160000D03*
X167700000Y-120620000D03*
X167700000Y-118080000D03*
%TD*%
D19*
%TO.C,H4*%
X146800000Y-136200000D03*
%TD*%
D33*
%TO.C,J2*%
X159115000Y-96600000D03*
X154035000Y-96600000D03*
%TD*%
M02*
