%TF.GenerationSoftware,KiCad,Pcbnew,9.0.4*%
%TF.CreationDate,2026-03-03T22:43:29-05:00*%
%TF.ProjectId,medium-power-module-telemetry-2,6d656469-756d-42d7-906f-7765722d6d6f,rev?*%
%TF.SameCoordinates,Original*%
%TF.FileFunction,Soldermask,Bot*%
%TF.FilePolarity,Negative*%
%FSLAX46Y46*%
G04 Gerber Fmt 4.6, Leading zero omitted, Abs format (unit mm)*
G04 Created by KiCad (PCBNEW 9.0.4) date 2026-03-03 22:43:29*
%MOMM*%
%LPD*%
G01*
G04 APERTURE LIST*
G04 Aperture macros list*
%AMRoundRect*
0 Rectangle with rounded corners*
0 $1 Rounding radius*
0 $2 $3 $4 $5 $6 $7 $8 $9 X,Y pos of 4 corners*
0 Add a 4 corners polygon primitive as box body*
4,1,4,$2,$3,$4,$5,$6,$7,$8,$9,$2,$3,0*
0 Add four circle primitives for the rounded corners*
1,1,$1+$1,$2,$3*
1,1,$1+$1,$4,$5*
1,1,$1+$1,$6,$7*
1,1,$1+$1,$8,$9*
0 Add four rect primitives between the rounded corners*
20,1,$1+$1,$2,$3,$4,$5,0*
20,1,$1+$1,$4,$5,$6,$7,0*
20,1,$1+$1,$6,$7,$8,$9,0*
20,1,$1+$1,$8,$9,$2,$3,0*%
G04 Aperture macros list end*
%ADD10RoundRect,0.218750X0.256250X-0.218750X0.256250X0.218750X-0.256250X0.218750X-0.256250X-0.218750X0*%
%ADD11RoundRect,0.062500X0.350000X0.062500X-0.350000X0.062500X-0.350000X-0.062500X0.350000X-0.062500X0*%
%ADD12RoundRect,0.062500X0.062500X0.350000X-0.062500X0.350000X-0.062500X-0.350000X0.062500X-0.350000X0*%
%ADD13R,1.700000X1.700000*%
%ADD14RoundRect,0.225000X-0.225000X-0.250000X0.225000X-0.250000X0.225000X0.250000X-0.225000X0.250000X0*%
%ADD15RoundRect,0.218750X-0.256250X0.218750X-0.256250X-0.218750X0.256250X-0.218750X0.256250X0.218750X0*%
%ADD16R,0.250000X0.250000*%
%ADD17C,3.200000*%
%ADD18RoundRect,0.250000X-0.600000X-0.725000X0.600000X-0.725000X0.600000X0.725000X-0.600000X0.725000X0*%
%ADD19O,1.700000X1.950000*%
%ADD20C,1.700000*%
%ADD21RoundRect,0.225000X-0.250000X0.225000X-0.250000X-0.225000X0.250000X-0.225000X0.250000X0.225000X0*%
%ADD22RoundRect,0.200000X-0.200000X-0.275000X0.200000X-0.275000X0.200000X0.275000X-0.200000X0.275000X0*%
%ADD23RoundRect,0.218750X0.218750X0.256250X-0.218750X0.256250X-0.218750X-0.256250X0.218750X-0.256250X0*%
%ADD24RoundRect,0.200000X-0.275000X0.200000X-0.275000X-0.200000X0.275000X-0.200000X0.275000X0.200000X0*%
%ADD25RoundRect,0.218750X-0.218750X-0.256250X0.218750X-0.256250X0.218750X0.256250X-0.218750X0.256250X0*%
%ADD26RoundRect,0.225000X0.250000X-0.225000X0.250000X0.225000X-0.250000X0.225000X-0.250000X-0.225000X0*%
%ADD27RoundRect,0.225000X0.225000X0.250000X-0.225000X0.250000X-0.225000X-0.250000X0.225000X-0.250000X0*%
%ADD28RoundRect,0.062500X-0.062500X0.362500X-0.062500X-0.362500X0.062500X-0.362500X0.062500X0.362500X0*%
%ADD29RoundRect,0.062500X-0.362500X0.062500X-0.362500X-0.062500X0.362500X-0.062500X0.362500X0.062500X0*%
%ADD30R,2.600000X2.600000*%
%ADD31RoundRect,0.101600X0.635000X2.032000X-0.635000X2.032000X-0.635000X-2.032000X0.635000X-2.032000X0*%
%ADD32RoundRect,0.101600X0.762000X2.032000X-0.762000X2.032000X-0.762000X-2.032000X0.762000X-2.032000X0*%
%ADD33RoundRect,0.200000X-0.200000X-0.300000X0.200000X-0.300000X0.200000X0.300000X-0.200000X0.300000X0*%
G04 APERTURE END LIST*
D10*
%TO.C,LR2*%
X155675000Y-117700000D03*
X155675000Y-119275000D03*
%TD*%
D11*
%TO.C,U5*%
X156412500Y-108687500D03*
X156412500Y-109187500D03*
D12*
X157125000Y-107975000D03*
X157125000Y-110900000D03*
X157625000Y-107975000D03*
X157625000Y-110900000D03*
D13*
X157875000Y-109437500D03*
D12*
X158125000Y-107975000D03*
X158125000Y-110900000D03*
X158625000Y-107975000D03*
X158625000Y-110900000D03*
D11*
X159337500Y-109187500D03*
X156412500Y-109687500D03*
X156412500Y-110187500D03*
X159337500Y-110187500D03*
X159337500Y-109687500D03*
X159337500Y-108687500D03*
%TD*%
D14*
%TO.C,C12*%
X158587500Y-106487500D03*
X157037500Y-106487500D03*
%TD*%
D15*
%TO.C,L4*%
X154937500Y-108387500D03*
X154937500Y-106812500D03*
%TD*%
D16*
%TO.C,U9*%
X158570000Y-104100000D03*
X158170000Y-104100000D03*
X157770000Y-104100000D03*
X157770000Y-103700000D03*
X158170000Y-103700000D03*
X158570000Y-103700000D03*
%TD*%
%TO.C,U7*%
X152025000Y-110387500D03*
X152025000Y-109987500D03*
X152025000Y-109587500D03*
X152425000Y-109587500D03*
X152425000Y-109987500D03*
X152425000Y-110387500D03*
%TD*%
D17*
%TO.C,H3*%
X167200000Y-136200000D03*
%TD*%
%TO.C,H2*%
X167200000Y-98000000D03*
%TD*%
%TO.C,H1*%
X146800000Y-98000000D03*
%TD*%
D18*
%TO.C,J7*%
X153250000Y-129955000D03*
D19*
X155750000Y-129955000D03*
X158250000Y-129955000D03*
X160750000Y-129955000D03*
%TD*%
D13*
%TO.C,J1*%
X167700000Y-128240000D03*
D20*
X167700000Y-125700000D03*
X167700000Y-123160000D03*
X167700000Y-120620000D03*
X167700000Y-118080000D03*
%TD*%
D17*
%TO.C,H4*%
X146800000Y-136200000D03*
%TD*%
D21*
%TO.C,CB3*%
X154175000Y-125250000D03*
X154175000Y-126800000D03*
%TD*%
D22*
%TO.C,R2*%
X152600000Y-122300000D03*
X154250000Y-122300000D03*
%TD*%
D23*
%TO.C,L3*%
X162300000Y-108500000D03*
X160725000Y-108500000D03*
%TD*%
D14*
%TO.C,CD1*%
X150325000Y-128000000D03*
X151875000Y-128000000D03*
%TD*%
D24*
%TO.C,R10*%
X163300000Y-117675000D03*
X163300000Y-119325000D03*
%TD*%
D16*
%TO.C,U8*%
X163725000Y-109600000D03*
X163725000Y-110000000D03*
X163725000Y-110400000D03*
X163325000Y-110400000D03*
X163325000Y-110000000D03*
X163325000Y-109600000D03*
%TD*%
D14*
%TO.C,C19*%
X159700000Y-101100000D03*
X161250000Y-101100000D03*
%TD*%
D25*
%TO.C,L9*%
X160225000Y-116300000D03*
X161800000Y-116300000D03*
%TD*%
D26*
%TO.C,CR2*%
X157175000Y-119275000D03*
X157175000Y-117725000D03*
%TD*%
D27*
%TO.C,C9*%
X152575000Y-116100000D03*
X151025000Y-116100000D03*
%TD*%
D28*
%TO.C,U1*%
X156550000Y-122275000D03*
X157050000Y-122275000D03*
X157550000Y-122275000D03*
X158050000Y-122275000D03*
X158550000Y-122275000D03*
D29*
X159475000Y-123200000D03*
X159475000Y-123700000D03*
X159475000Y-124200000D03*
X159475000Y-124700000D03*
X159475000Y-125200000D03*
D28*
X158550000Y-126125000D03*
X158050000Y-126125000D03*
X157550000Y-126125000D03*
X157050000Y-126125000D03*
X156550000Y-126125000D03*
D29*
X155625000Y-125200000D03*
X155625000Y-124700000D03*
X155625000Y-124200000D03*
X155625000Y-123700000D03*
X155625000Y-123200000D03*
D30*
X157550000Y-124200000D03*
%TD*%
D21*
%TO.C,C3*%
X161100000Y-124200000D03*
X161100000Y-125750000D03*
%TD*%
D27*
%TO.C,C8*%
X162325000Y-110000000D03*
X160775000Y-110000000D03*
%TD*%
D14*
%TO.C,C0*%
X158700000Y-119300000D03*
X160250000Y-119300000D03*
%TD*%
D21*
%TO.C,C10*%
X161800000Y-114775000D03*
X161800000Y-113225000D03*
%TD*%
D10*
%TO.C,L12*%
X158175000Y-102687500D03*
X158175000Y-101112500D03*
%TD*%
D21*
%TO.C,C2*%
X162600000Y-124200000D03*
X162600000Y-125750000D03*
%TD*%
D10*
%TO.C,L6*%
X152575000Y-114675000D03*
X152575000Y-113100000D03*
%TD*%
%TO.C,L8*%
X163500000Y-113187500D03*
X163500000Y-111612500D03*
%TD*%
D14*
%TO.C,CR1*%
X152675000Y-119300000D03*
X154225000Y-119300000D03*
%TD*%
D23*
%TO.C,L5*%
X154175000Y-117600000D03*
X152600000Y-117600000D03*
%TD*%
D31*
%TO.C,J2*%
X156575000Y-96600000D03*
D32*
X159115000Y-96600000D03*
X154035000Y-96600000D03*
%TD*%
D14*
%TO.C,C15*%
X160225000Y-117800000D03*
X161775000Y-117800000D03*
%TD*%
D10*
%TO.C,L7*%
X160275000Y-114800000D03*
X160275000Y-113225000D03*
%TD*%
D23*
%TO.C,LC1*%
X160250000Y-120800000D03*
X158675000Y-120800000D03*
%TD*%
D33*
%TO.C,TCXO1*%
X150100000Y-125300000D03*
X152200000Y-125300000D03*
X152200000Y-126700000D03*
X150100000Y-126700000D03*
%TD*%
D23*
%TO.C,L13*%
X158150000Y-99600000D03*
X156575000Y-99600000D03*
%TD*%
D25*
%TO.C,LR1*%
X155700000Y-120800000D03*
X157275000Y-120800000D03*
%TD*%
D27*
%TO.C,C11*%
X155012500Y-109987500D03*
X153462500Y-109987500D03*
%TD*%
M02*
