%TF.GenerationSoftware,KiCad,Pcbnew,8.0.3*%
%TF.CreationDate,2024-07-11T15:18:24-04:00*%
%TF.ProjectId,SensorBoard,53656e73-6f72-4426-9f61-72642e6b6963,rev?*%
%TF.SameCoordinates,Original*%
%TF.FileFunction,Paste,Top*%
%TF.FilePolarity,Positive*%
%FSLAX46Y46*%
G04 Gerber Fmt 4.6, Leading zero omitted, Abs format (unit mm)*
G04 Created by KiCad (PCBNEW 8.0.3) date 2024-07-11 15:18:24*
%MOMM*%
%LPD*%
G01*
G04 APERTURE LIST*
G04 Aperture macros list*
%AMRoundRect*
0 Rectangle with rounded corners*
0 $1 Rounding radius*
0 $2 $3 $4 $5 $6 $7 $8 $9 X,Y pos of 4 corners*
0 Add a 4 corners polygon primitive as box body*
4,1,4,$2,$3,$4,$5,$6,$7,$8,$9,$2,$3,0*
0 Add four circle primitives for the rounded corners*
1,1,$1+$1,$2,$3*
1,1,$1+$1,$4,$5*
1,1,$1+$1,$6,$7*
1,1,$1+$1,$8,$9*
0 Add four rect primitives between the rounded corners*
20,1,$1+$1,$2,$3,$4,$5,0*
20,1,$1+$1,$4,$5,$6,$7,0*
20,1,$1+$1,$6,$7,$8,$9,0*
20,1,$1+$1,$8,$9,$2,$3,0*%
G04 Aperture macros list end*
%ADD10RoundRect,0.250000X-0.250000X-0.475000X0.250000X-0.475000X0.250000X0.475000X-0.250000X0.475000X0*%
%ADD11RoundRect,0.250000X0.475000X-0.250000X0.475000X0.250000X-0.475000X0.250000X-0.475000X-0.250000X0*%
%ADD12RoundRect,0.243750X-0.243750X-0.456250X0.243750X-0.456250X0.243750X0.456250X-0.243750X0.456250X0*%
%ADD13RoundRect,0.250000X-0.262500X-0.450000X0.262500X-0.450000X0.262500X0.450000X-0.262500X0.450000X0*%
%ADD14R,0.230000X0.350000*%
%ADD15R,0.350000X0.230000*%
%ADD16RoundRect,0.250000X-0.450000X0.262500X-0.450000X-0.262500X0.450000X-0.262500X0.450000X0.262500X0*%
%ADD17RoundRect,0.250000X-0.475000X0.250000X-0.475000X-0.250000X0.475000X-0.250000X0.475000X0.250000X0*%
%ADD18RoundRect,0.250000X0.250000X0.475000X-0.250000X0.475000X-0.250000X-0.475000X0.250000X-0.475000X0*%
%ADD19RoundRect,0.175000X-0.725000X-0.175000X0.725000X-0.175000X0.725000X0.175000X-0.725000X0.175000X0*%
%ADD20RoundRect,0.200000X-0.700000X-0.200000X0.700000X-0.200000X0.700000X0.200000X-0.700000X0.200000X0*%
%ADD21R,0.950000X0.550000*%
%ADD22RoundRect,0.218750X0.218750X0.381250X-0.218750X0.381250X-0.218750X-0.381250X0.218750X-0.381250X0*%
%ADD23RoundRect,0.218750X-0.381250X0.218750X-0.381250X-0.218750X0.381250X-0.218750X0.381250X0.218750X0*%
%ADD24R,0.900000X0.800000*%
%ADD25R,1.500000X1.500000*%
%ADD26R,2.300000X2.300000*%
%ADD27RoundRect,0.075000X-0.662500X-0.075000X0.662500X-0.075000X0.662500X0.075000X-0.662500X0.075000X0*%
%ADD28RoundRect,0.075000X-0.075000X-0.662500X0.075000X-0.662500X0.075000X0.662500X-0.075000X0.662500X0*%
G04 APERTURE END LIST*
D10*
%TO.C,C22*%
X91250000Y-84250000D03*
X93150000Y-84250000D03*
%TD*%
D11*
%TO.C,C21*%
X91000000Y-82150000D03*
X91000000Y-80250000D03*
%TD*%
D12*
%TO.C,D3*%
X81875000Y-57040000D03*
X83750000Y-57040000D03*
%TD*%
D13*
%TO.C,R6*%
X86175000Y-57000000D03*
X88000000Y-57000000D03*
%TD*%
D11*
%TO.C,C5*%
X83500000Y-69000000D03*
X83500000Y-67100000D03*
%TD*%
D14*
%TO.C,U4*%
X86460000Y-84500000D03*
D15*
X86490000Y-85080000D03*
X86490000Y-85510000D03*
X86490000Y-85940000D03*
X86490000Y-86370000D03*
D14*
X86460000Y-86950000D03*
X86890000Y-86950000D03*
X87320000Y-86950000D03*
X87750000Y-86950000D03*
X88180000Y-86950000D03*
X88610000Y-86950000D03*
X89040000Y-86950000D03*
X89470000Y-86950000D03*
D15*
X89440000Y-86370000D03*
X89440000Y-85940000D03*
X89440000Y-85510000D03*
X89440000Y-85080000D03*
D14*
X89470000Y-84500000D03*
X89040000Y-84500000D03*
X88610000Y-84500000D03*
X88180000Y-84500000D03*
X87750000Y-84500000D03*
X87320000Y-84500000D03*
X86890000Y-84500000D03*
%TD*%
D10*
%TO.C,C17*%
X81350000Y-77500000D03*
X83250000Y-77500000D03*
%TD*%
%TO.C,C8*%
X78750000Y-78750000D03*
X76850000Y-78750000D03*
%TD*%
D12*
%TO.C,D1*%
X81875000Y-50960000D03*
X83750000Y-50960000D03*
%TD*%
D16*
%TO.C,R9*%
X117250000Y-64250000D03*
X117250000Y-66075000D03*
%TD*%
D10*
%TO.C,C2*%
X86350000Y-65250000D03*
X88250000Y-65250000D03*
%TD*%
D17*
%TO.C,C10*%
X79000000Y-66750000D03*
X79000000Y-68650000D03*
%TD*%
D18*
%TO.C,C9*%
X111250000Y-57250000D03*
X109350000Y-57250000D03*
%TD*%
D10*
%TO.C,C1*%
X86350000Y-63000000D03*
X88250000Y-63000000D03*
%TD*%
D11*
%TO.C,C6*%
X83500000Y-74400000D03*
X83500000Y-72500000D03*
%TD*%
D19*
%TO.C,U3*%
X104880000Y-65980000D03*
D20*
X104880000Y-67080000D03*
X104880000Y-68180000D03*
X104880000Y-69280000D03*
X104880000Y-70380000D03*
X104880000Y-71480000D03*
X104880000Y-72580000D03*
X104880000Y-73680000D03*
D19*
X104880000Y-74780000D03*
X114380000Y-74780000D03*
D20*
X114380000Y-73680000D03*
X114380000Y-72580000D03*
X114380000Y-71480000D03*
X114380000Y-70380000D03*
X114380000Y-69280000D03*
X114380000Y-68180000D03*
X114380000Y-67080000D03*
D19*
X114380000Y-65980000D03*
%TD*%
D13*
%TO.C,R4*%
X103425000Y-60750000D03*
X105250000Y-60750000D03*
%TD*%
%TO.C,R2*%
X86175000Y-51000000D03*
X88000000Y-51000000D03*
%TD*%
D11*
%TO.C,C19*%
X83500000Y-85900000D03*
X83500000Y-84000000D03*
%TD*%
%TO.C,C11*%
X79000000Y-72400000D03*
X79000000Y-70500000D03*
%TD*%
D21*
%TO.C,U2*%
X86850000Y-89450000D03*
X86850000Y-90700000D03*
X86850000Y-91950000D03*
X86850000Y-93200000D03*
X89000000Y-93200000D03*
X89000000Y-91950000D03*
X89000000Y-90700000D03*
X89000000Y-89450000D03*
%TD*%
D13*
%TO.C,R5*%
X103425000Y-63000000D03*
X105250000Y-63000000D03*
%TD*%
D22*
%TO.C,FB1*%
X78750000Y-76750000D03*
X76625000Y-76750000D03*
%TD*%
D17*
%TO.C,C16*%
X117250000Y-68000000D03*
X117250000Y-69900000D03*
%TD*%
%TO.C,C12*%
X84500000Y-89250000D03*
X84500000Y-91150000D03*
%TD*%
D18*
%TO.C,C7*%
X78750000Y-74875000D03*
X76850000Y-74875000D03*
%TD*%
D12*
%TO.C,D2*%
X81875000Y-54000000D03*
X83750000Y-54000000D03*
%TD*%
D23*
%TO.C,L1*%
X117250000Y-71750000D03*
X117250000Y-73875000D03*
%TD*%
D11*
%TO.C,C20*%
X88750000Y-82150000D03*
X88750000Y-80250000D03*
%TD*%
%TO.C,C18*%
X84250000Y-82150000D03*
X84250000Y-80250000D03*
%TD*%
D18*
%TO.C,C15*%
X102500000Y-73250000D03*
X100600000Y-73250000D03*
%TD*%
D24*
%TO.C,Y1*%
X76500000Y-69150000D03*
X74850000Y-69150000D03*
X74850000Y-70400000D03*
X76500000Y-70400000D03*
%TD*%
D18*
%TO.C,C14*%
X102500000Y-75750000D03*
X100600000Y-75750000D03*
%TD*%
D11*
%TO.C,C23*%
X86500000Y-82150000D03*
X86500000Y-80250000D03*
%TD*%
D13*
%TO.C,R1*%
X81675000Y-62750000D03*
X83500000Y-62750000D03*
%TD*%
D18*
%TO.C,C4*%
X94400000Y-78000000D03*
X92500000Y-78000000D03*
%TD*%
D25*
%TO.C,Antenna1*%
X108750000Y-81600000D03*
D26*
X113250000Y-83000000D03*
X104250000Y-83000000D03*
X113250000Y-87500000D03*
X108750000Y-87500000D03*
X104250000Y-87500000D03*
X113250000Y-92000000D03*
X108750000Y-92000000D03*
X104250000Y-92000000D03*
%TD*%
D17*
%TO.C,C3*%
X96250000Y-68100000D03*
X96250000Y-70000000D03*
%TD*%
D13*
%TO.C,R3*%
X86175000Y-54000000D03*
X88000000Y-54000000D03*
%TD*%
D27*
%TO.C,U1*%
X85750000Y-68912500D03*
X85750000Y-69412500D03*
X85750000Y-69912500D03*
X85750000Y-70412500D03*
X85750000Y-70912500D03*
X85750000Y-71412500D03*
X85750000Y-71912500D03*
X85750000Y-72412500D03*
X85750000Y-72912500D03*
X85750000Y-73412500D03*
X85750000Y-73912500D03*
X85750000Y-74412500D03*
D28*
X87162500Y-75825000D03*
X87662500Y-75825000D03*
X88162500Y-75825000D03*
X88662500Y-75825000D03*
X89162500Y-75825000D03*
X89662500Y-75825000D03*
X90162500Y-75825000D03*
X90662500Y-75825000D03*
X91162500Y-75825000D03*
X91662500Y-75825000D03*
X92162500Y-75825000D03*
X92662500Y-75825000D03*
D27*
X94075000Y-74412500D03*
X94075000Y-73912500D03*
X94075000Y-73412500D03*
X94075000Y-72912500D03*
X94075000Y-72412500D03*
X94075000Y-71912500D03*
X94075000Y-71412500D03*
X94075000Y-70912500D03*
X94075000Y-70412500D03*
X94075000Y-69912500D03*
X94075000Y-69412500D03*
X94075000Y-68912500D03*
D28*
X92662500Y-67500000D03*
X92162500Y-67500000D03*
X91662500Y-67500000D03*
X91162500Y-67500000D03*
X90662500Y-67500000D03*
X90162500Y-67500000D03*
X89662500Y-67500000D03*
X89162500Y-67500000D03*
X88662500Y-67500000D03*
X88162500Y-67500000D03*
X87662500Y-67500000D03*
X87162500Y-67500000D03*
%TD*%
D11*
%TO.C,C13*%
X102250000Y-70950000D03*
X102250000Y-69050000D03*
%TD*%
M02*
