%TF.GenerationSoftware,KiCad,Pcbnew,7.0.7*%
%TF.CreationDate,2023-10-19T21:29:00-04:00*%
%TF.ProjectId,BMP390_I2C_breakout,424d5033-3930-45f4-9932-435f62726561,rev?*%
%TF.SameCoordinates,Original*%
%TF.FileFunction,Legend,Top*%
%TF.FilePolarity,Positive*%
%FSLAX46Y46*%
G04 Gerber Fmt 4.6, Leading zero omitted, Abs format (unit mm)*
G04 Created by KiCad (PCBNEW 7.0.7) date 2023-10-19 21:29:00*
%MOMM*%
%LPD*%
G01*
G04 APERTURE LIST*
%ADD10C,0.100000*%
%ADD11C,0.120000*%
G04 APERTURE END LIST*
D10*
X139933609Y-89828571D02*
X139981228Y-89685714D01*
X139981228Y-89685714D02*
X140028847Y-89638095D01*
X140028847Y-89638095D02*
X140124085Y-89590476D01*
X140124085Y-89590476D02*
X140266942Y-89590476D01*
X140266942Y-89590476D02*
X140362180Y-89638095D01*
X140362180Y-89638095D02*
X140409800Y-89685714D01*
X140409800Y-89685714D02*
X140457419Y-89780952D01*
X140457419Y-89780952D02*
X140457419Y-90161904D01*
X140457419Y-90161904D02*
X139457419Y-90161904D01*
X139457419Y-90161904D02*
X139457419Y-89828571D01*
X139457419Y-89828571D02*
X139505038Y-89733333D01*
X139505038Y-89733333D02*
X139552657Y-89685714D01*
X139552657Y-89685714D02*
X139647895Y-89638095D01*
X139647895Y-89638095D02*
X139743133Y-89638095D01*
X139743133Y-89638095D02*
X139838371Y-89685714D01*
X139838371Y-89685714D02*
X139885990Y-89733333D01*
X139885990Y-89733333D02*
X139933609Y-89828571D01*
X139933609Y-89828571D02*
X139933609Y-90161904D01*
X140457419Y-89161904D02*
X139457419Y-89161904D01*
X139457419Y-89161904D02*
X140171704Y-88828571D01*
X140171704Y-88828571D02*
X139457419Y-88495238D01*
X139457419Y-88495238D02*
X140457419Y-88495238D01*
X140457419Y-88019047D02*
X139457419Y-88019047D01*
X139457419Y-88019047D02*
X139457419Y-87638095D01*
X139457419Y-87638095D02*
X139505038Y-87542857D01*
X139505038Y-87542857D02*
X139552657Y-87495238D01*
X139552657Y-87495238D02*
X139647895Y-87447619D01*
X139647895Y-87447619D02*
X139790752Y-87447619D01*
X139790752Y-87447619D02*
X139885990Y-87495238D01*
X139885990Y-87495238D02*
X139933609Y-87542857D01*
X139933609Y-87542857D02*
X139981228Y-87638095D01*
X139981228Y-87638095D02*
X139981228Y-88019047D01*
X139457419Y-87114285D02*
X139457419Y-86495238D01*
X139457419Y-86495238D02*
X139838371Y-86828571D01*
X139838371Y-86828571D02*
X139838371Y-86685714D01*
X139838371Y-86685714D02*
X139885990Y-86590476D01*
X139885990Y-86590476D02*
X139933609Y-86542857D01*
X139933609Y-86542857D02*
X140028847Y-86495238D01*
X140028847Y-86495238D02*
X140266942Y-86495238D01*
X140266942Y-86495238D02*
X140362180Y-86542857D01*
X140362180Y-86542857D02*
X140409800Y-86590476D01*
X140409800Y-86590476D02*
X140457419Y-86685714D01*
X140457419Y-86685714D02*
X140457419Y-86971428D01*
X140457419Y-86971428D02*
X140409800Y-87066666D01*
X140409800Y-87066666D02*
X140362180Y-87114285D01*
X140457419Y-86019047D02*
X140457419Y-85828571D01*
X140457419Y-85828571D02*
X140409800Y-85733333D01*
X140409800Y-85733333D02*
X140362180Y-85685714D01*
X140362180Y-85685714D02*
X140219323Y-85590476D01*
X140219323Y-85590476D02*
X140028847Y-85542857D01*
X140028847Y-85542857D02*
X139647895Y-85542857D01*
X139647895Y-85542857D02*
X139552657Y-85590476D01*
X139552657Y-85590476D02*
X139505038Y-85638095D01*
X139505038Y-85638095D02*
X139457419Y-85733333D01*
X139457419Y-85733333D02*
X139457419Y-85923809D01*
X139457419Y-85923809D02*
X139505038Y-86019047D01*
X139505038Y-86019047D02*
X139552657Y-86066666D01*
X139552657Y-86066666D02*
X139647895Y-86114285D01*
X139647895Y-86114285D02*
X139885990Y-86114285D01*
X139885990Y-86114285D02*
X139981228Y-86066666D01*
X139981228Y-86066666D02*
X140028847Y-86019047D01*
X140028847Y-86019047D02*
X140076466Y-85923809D01*
X140076466Y-85923809D02*
X140076466Y-85733333D01*
X140076466Y-85733333D02*
X140028847Y-85638095D01*
X140028847Y-85638095D02*
X139981228Y-85590476D01*
X139981228Y-85590476D02*
X139885990Y-85542857D01*
X139457419Y-84923809D02*
X139457419Y-84828571D01*
X139457419Y-84828571D02*
X139505038Y-84733333D01*
X139505038Y-84733333D02*
X139552657Y-84685714D01*
X139552657Y-84685714D02*
X139647895Y-84638095D01*
X139647895Y-84638095D02*
X139838371Y-84590476D01*
X139838371Y-84590476D02*
X140076466Y-84590476D01*
X140076466Y-84590476D02*
X140266942Y-84638095D01*
X140266942Y-84638095D02*
X140362180Y-84685714D01*
X140362180Y-84685714D02*
X140409800Y-84733333D01*
X140409800Y-84733333D02*
X140457419Y-84828571D01*
X140457419Y-84828571D02*
X140457419Y-84923809D01*
X140457419Y-84923809D02*
X140409800Y-85019047D01*
X140409800Y-85019047D02*
X140362180Y-85066666D01*
X140362180Y-85066666D02*
X140266942Y-85114285D01*
X140266942Y-85114285D02*
X140076466Y-85161904D01*
X140076466Y-85161904D02*
X139838371Y-85161904D01*
X139838371Y-85161904D02*
X139647895Y-85114285D01*
X139647895Y-85114285D02*
X139552657Y-85066666D01*
X139552657Y-85066666D02*
X139505038Y-85019047D01*
X139505038Y-85019047D02*
X139457419Y-84923809D01*
D11*
%TO.C,J2*%
X142315000Y-87130000D02*
X142315000Y-85800000D01*
X143645000Y-87130000D02*
X142315000Y-87130000D01*
X144915000Y-87130000D02*
X150055000Y-87130000D01*
X144915000Y-87130000D02*
X144915000Y-84470000D01*
X150055000Y-87130000D02*
X150055000Y-84470000D01*
X144915000Y-84470000D02*
X150055000Y-84470000D01*
%TO.C,C3*%
X143135000Y-89138748D02*
X143135000Y-89661252D01*
X141665000Y-89138748D02*
X141665000Y-89661252D01*
%TO.C,C4*%
X148135000Y-89138748D02*
X148135000Y-89661252D01*
X146665000Y-89138748D02*
X146665000Y-89661252D01*
D10*
%TO.C,BMP390*%
X143900000Y-88400000D02*
X145900000Y-88400000D01*
X145900000Y-88400000D02*
X145900000Y-90400000D01*
X145900000Y-90400000D02*
X143900000Y-90400000D01*
X143900000Y-90400000D02*
X143900000Y-88400000D01*
X145900000Y-88500000D02*
G75*
G03*
X145900000Y-88500000I-100000J0D01*
G01*
D11*
%TO.C,J1*%
X139770000Y-94750000D02*
X139770000Y-93420000D01*
X141100000Y-94750000D02*
X139770000Y-94750000D01*
X142370000Y-94750000D02*
X150050000Y-94750000D01*
X142370000Y-94750000D02*
X142370000Y-92090000D01*
X150050000Y-94750000D02*
X150050000Y-92090000D01*
X142370000Y-92090000D02*
X150050000Y-92090000D01*
%TD*%
M02*
