%TF.GenerationSoftware,KiCad,Pcbnew,7.0.7*%
%TF.CreationDate,2023-10-19T21:29:00-04:00*%
%TF.ProjectId,BMP390_I2C_breakout,424d5033-3930-45f4-9932-435f62726561,rev?*%
%TF.SameCoordinates,Original*%
%TF.FileFunction,Copper,L2,Bot*%
%TF.FilePolarity,Positive*%
%FSLAX46Y46*%
G04 Gerber Fmt 4.6, Leading zero omitted, Abs format (unit mm)*
G04 Created by KiCad (PCBNEW 7.0.7) date 2023-10-19 21:29:00*
%MOMM*%
%LPD*%
G01*
G04 APERTURE LIST*
G04 Aperture macros list*
%AMRoundRect*
0 Rectangle with rounded corners*
0 $1 Rounding radius*
0 $2 $3 $4 $5 $6 $7 $8 $9 X,Y pos of 4 corners*
0 Add a 4 corners polygon primitive as box body*
4,1,4,$2,$3,$4,$5,$6,$7,$8,$9,$2,$3,0*
0 Add four circle primitives for the rounded corners*
1,1,$1+$1,$2,$3*
1,1,$1+$1,$4,$5*
1,1,$1+$1,$6,$7*
1,1,$1+$1,$8,$9*
0 Add four rect primitives between the rounded corners*
20,1,$1+$1,$2,$3,$4,$5,0*
20,1,$1+$1,$4,$5,$6,$7,0*
20,1,$1+$1,$6,$7,$8,$9,0*
20,1,$1+$1,$8,$9,$2,$3,0*%
G04 Aperture macros list end*
%TA.AperFunction,ComponentPad*%
%ADD10R,1.700000X1.700000*%
%TD*%
%TA.AperFunction,ComponentPad*%
%ADD11O,1.700000X1.700000*%
%TD*%
%TA.AperFunction,SMDPad,CuDef*%
%ADD12RoundRect,0.250000X0.450000X-0.262500X0.450000X0.262500X-0.450000X0.262500X-0.450000X-0.262500X0*%
%TD*%
%TA.AperFunction,ViaPad*%
%ADD13C,0.600000*%
%TD*%
%TA.AperFunction,Conductor*%
%ADD14C,0.200000*%
%TD*%
G04 APERTURE END LIST*
D10*
%TO.P,J2,1,Pin_1*%
%TO.N,+3.3V*%
X143645000Y-85800000D03*
D11*
%TO.P,J2,2,Pin_2*%
%TO.N,GND*%
X146185000Y-85800000D03*
%TO.P,J2,3,Pin_3*%
%TO.N,/SCL*%
X148725000Y-85800000D03*
%TD*%
D10*
%TO.P,J1,1,Pin_1*%
%TO.N,/SDA*%
X141100000Y-93420000D03*
D11*
%TO.P,J1,2,Pin_2*%
%TO.N,/I2C_ADDR*%
X143640000Y-93420000D03*
%TO.P,J1,3,Pin_3*%
%TO.N,/CSB*%
X146180000Y-93420000D03*
%TO.P,J1,4,Pin_4*%
%TO.N,/INT*%
X148720000Y-93420000D03*
%TD*%
D12*
%TO.P,R1,1*%
%TO.N,/SCL*%
X147400000Y-90312500D03*
%TO.P,R1,2*%
%TO.N,+3.3V*%
X147400000Y-88487500D03*
%TD*%
%TO.P,R2,1*%
%TO.N,/SDA*%
X142400000Y-90312500D03*
%TO.P,R2,2*%
%TO.N,+3.3V*%
X142400000Y-88487500D03*
%TD*%
D13*
%TO.N,/SCL*%
X144400000Y-88000000D03*
%TO.N,/SDA*%
X143700000Y-90800000D03*
%TD*%
D14*
%TO.N,+3.3V*%
X146332500Y-88487500D02*
X143645000Y-85800000D01*
X142400000Y-88487500D02*
X143645000Y-87242500D01*
X142400000Y-88487500D02*
X142400000Y-88060000D01*
X147400000Y-88487500D02*
X146332500Y-88487500D01*
X147400000Y-88487500D02*
X147400000Y-88300000D01*
X143645000Y-87242500D02*
X143645000Y-85800000D01*
%TO.N,/SCL*%
X144400000Y-88000000D02*
X146712500Y-90312500D01*
X146712500Y-90312500D02*
X147400000Y-90312500D01*
X147400000Y-90312500D02*
X148725000Y-88987500D01*
X148725000Y-88987500D02*
X148725000Y-85800000D01*
%TO.N,/SDA*%
X142400000Y-90312500D02*
X141100000Y-91612500D01*
X142887500Y-90800000D02*
X142400000Y-90312500D01*
X141100000Y-91612500D02*
X141100000Y-93000000D01*
X143700000Y-90800000D02*
X142887500Y-90800000D01*
%TD*%
M02*
