%TF.GenerationSoftware,KiCad,Pcbnew,7.0.7*%
%TF.CreationDate,2023-11-29T00:46:18-05:00*%
%TF.ProjectId,charge_deployment,63686172-6765-45f6-9465-706c6f796d65,rev?*%
%TF.SameCoordinates,Original*%
%TF.FileFunction,Legend,Top*%
%TF.FilePolarity,Positive*%
%FSLAX46Y46*%
G04 Gerber Fmt 4.6, Leading zero omitted, Abs format (unit mm)*
G04 Created by KiCad (PCBNEW 7.0.7) date 2023-11-29 00:46:18*
%MOMM*%
%LPD*%
G01*
G04 APERTURE LIST*
%ADD10C,0.600000*%
%ADD11C,0.120000*%
G04 APERTURE END LIST*
D10*
X164300000Y-106250000D02*
G75*
G03*
X164300000Y-106250000I-300000J0D01*
G01*
X126300000Y-106250000D02*
G75*
G03*
X126300000Y-106250000I-300000J0D01*
G01*
D11*
%TO.C,Q1*%
X153270000Y-94590000D02*
X150730000Y-94590000D01*
X153270000Y-94590000D02*
X153270000Y-101410000D01*
X152531000Y-94590000D02*
X152531000Y-94701000D01*
X150730000Y-94590000D02*
X150730000Y-101410000D01*
X152531000Y-96719000D02*
X152531000Y-96992000D01*
X152531000Y-99009000D02*
X152531000Y-99282000D01*
X152531000Y-101299000D02*
X152531000Y-101410000D01*
X153270000Y-101410000D02*
X150730000Y-101410000D01*
%TO.C,J2*%
X166415000Y-105300000D02*
X166415000Y-92700000D01*
X166415000Y-92700000D02*
X156065000Y-92700000D01*
X156065000Y-100500000D02*
X155565000Y-100200000D01*
X156065000Y-95100000D02*
X156065000Y-100500000D01*
X156065000Y-93650000D02*
X155565000Y-93400000D01*
X156065000Y-92700000D02*
X156065000Y-93650000D01*
X155565000Y-105300000D02*
X166415000Y-105300000D01*
X155565000Y-100200000D02*
X155565000Y-105300000D01*
X155565000Y-95350000D02*
X156065000Y-95100000D01*
X155565000Y-95300000D02*
X155565000Y-95350000D01*
X155565000Y-93400000D02*
X155565000Y-95300000D01*
%TO.C,BT1*%
X186250000Y-87000000D02*
X183750000Y-87000000D01*
X185000000Y-85750000D02*
X185000000Y-88250000D01*
X181140000Y-91440000D02*
X181140000Y-84440000D01*
X181140000Y-84440000D02*
X185500000Y-84440000D01*
X181140000Y-70560000D02*
X181140000Y-77560000D01*
X103860000Y-91440000D02*
X181140000Y-91440000D01*
X103860000Y-84440000D02*
X103860000Y-91420000D01*
X103860000Y-77560000D02*
X103860000Y-70560000D01*
X103860000Y-70560000D02*
X181140000Y-70560000D01*
X98750000Y-87000000D02*
X101250000Y-87000000D01*
%TO.C,Q2*%
X134390000Y-94590000D02*
X131850000Y-94590000D01*
X134390000Y-94590000D02*
X134390000Y-101410000D01*
X133651000Y-94590000D02*
X133651000Y-94701000D01*
X131850000Y-94590000D02*
X131850000Y-101410000D01*
X133651000Y-96719000D02*
X133651000Y-96992000D01*
X133651000Y-99009000D02*
X133651000Y-99282000D01*
X133651000Y-101299000D02*
X133651000Y-101410000D01*
X134390000Y-101410000D02*
X131850000Y-101410000D01*
%TO.C,R2*%
X148235000Y-96272936D02*
X148235000Y-96727064D01*
X146765000Y-96272936D02*
X146765000Y-96727064D01*
%TO.C,R1*%
X138235000Y-96272936D02*
X138235000Y-96727064D01*
X136765000Y-96272936D02*
X136765000Y-96727064D01*
%TO.C,J3*%
X128415000Y-105300000D02*
X128415000Y-92700000D01*
X128415000Y-92700000D02*
X118065000Y-92700000D01*
X118065000Y-100500000D02*
X117565000Y-100200000D01*
X118065000Y-95100000D02*
X118065000Y-100500000D01*
X118065000Y-93650000D02*
X117565000Y-93400000D01*
X118065000Y-92700000D02*
X118065000Y-93650000D01*
X117565000Y-105300000D02*
X128415000Y-105300000D01*
X117565000Y-100200000D02*
X117565000Y-105300000D01*
X117565000Y-95350000D02*
X118065000Y-95100000D01*
X117565000Y-95300000D02*
X117565000Y-95350000D01*
X117565000Y-93400000D02*
X117565000Y-95300000D01*
%TO.C,J1*%
X143830000Y-101830000D02*
X142500000Y-101830000D01*
X143830000Y-100500000D02*
X143830000Y-101830000D01*
X143830000Y-99230000D02*
X143830000Y-94090000D01*
X143830000Y-99230000D02*
X141170000Y-99230000D01*
X143830000Y-94090000D02*
X141170000Y-94090000D01*
X141170000Y-99230000D02*
X141170000Y-94090000D01*
%TD*%
M02*
