%TF.GenerationSoftware,KiCad,Pcbnew,8.0.8*%
%TF.CreationDate,2025-02-07T16:47:41-05:00*%
%TF.ProjectId,power-delivery-board,706f7765-722d-4646-956c-69766572792d,rev?*%
%TF.SameCoordinates,Original*%
%TF.FileFunction,Soldermask,Bot*%
%TF.FilePolarity,Negative*%
%FSLAX46Y46*%
G04 Gerber Fmt 4.6, Leading zero omitted, Abs format (unit mm)*
G04 Created by KiCad (PCBNEW 8.0.8) date 2025-02-07 16:47:41*
%MOMM*%
%LPD*%
G01*
G04 APERTURE LIST*
G04 Aperture macros list*
%AMRoundRect*
0 Rectangle with rounded corners*
0 $1 Rounding radius*
0 $2 $3 $4 $5 $6 $7 $8 $9 X,Y pos of 4 corners*
0 Add a 4 corners polygon primitive as box body*
4,1,4,$2,$3,$4,$5,$6,$7,$8,$9,$2,$3,0*
0 Add four circle primitives for the rounded corners*
1,1,$1+$1,$2,$3*
1,1,$1+$1,$4,$5*
1,1,$1+$1,$6,$7*
1,1,$1+$1,$8,$9*
0 Add four rect primitives between the rounded corners*
20,1,$1+$1,$2,$3,$4,$5,0*
20,1,$1+$1,$4,$5,$6,$7,0*
20,1,$1+$1,$6,$7,$8,$9,0*
20,1,$1+$1,$8,$9,$2,$3,0*%
G04 Aperture macros list end*
%ADD10C,0.010000*%
%ADD11C,3.200000*%
%ADD12RoundRect,0.250000X-0.600000X-0.750000X0.600000X-0.750000X0.600000X0.750000X-0.600000X0.750000X0*%
%ADD13O,1.700000X2.000000*%
%ADD14RoundRect,0.250000X-0.750000X0.600000X-0.750000X-0.600000X0.750000X-0.600000X0.750000X0.600000X0*%
%ADD15O,2.000000X1.700000*%
%ADD16RoundRect,0.250000X0.600000X0.750000X-0.600000X0.750000X-0.600000X-0.750000X0.600000X-0.750000X0*%
%ADD17C,0.650000*%
%ADD18O,2.304000X1.204000*%
%ADD19C,0.604000*%
G04 APERTURE END LIST*
D10*
%TO.C,P1*%
X92829844Y-61987581D02*
X92861843Y-61989581D01*
X92892844Y-61993581D01*
X92923844Y-61999581D01*
X92953844Y-62006581D01*
X92983844Y-62015581D01*
X93013844Y-62026581D01*
X93042844Y-62038581D01*
X93070844Y-62051581D01*
X93098844Y-62066581D01*
X93125845Y-62083581D01*
X93151843Y-62101581D01*
X93176844Y-62120581D01*
X93199844Y-62140582D01*
X93222844Y-62162580D01*
X93244844Y-62185581D01*
X93264844Y-62208581D01*
X93283844Y-62233582D01*
X93301844Y-62259581D01*
X93318844Y-62286581D01*
X93333844Y-62314581D01*
X93346844Y-62342581D01*
X93358844Y-62371581D01*
X93369844Y-62401581D01*
X93378844Y-62431581D01*
X93385844Y-62461581D01*
X93391844Y-62492581D01*
X93395843Y-62523581D01*
X93397844Y-62555581D01*
X93398844Y-62586581D01*
X93397844Y-62617581D01*
X93395844Y-62649581D01*
X93391844Y-62680581D01*
X93385843Y-62711581D01*
X93378844Y-62741581D01*
X93369844Y-62771581D01*
X93358844Y-62801581D01*
X93346844Y-62830581D01*
X93333844Y-62858581D01*
X93318844Y-62886581D01*
X93301844Y-62913581D01*
X93283844Y-62939581D01*
X93264844Y-62964582D01*
X93244844Y-62987581D01*
X93222844Y-63010581D01*
X93199844Y-63032581D01*
X93176845Y-63052581D01*
X93151844Y-63071581D01*
X93125844Y-63089581D01*
X93098844Y-63106581D01*
X93070844Y-63121581D01*
X93042844Y-63134581D01*
X93013844Y-63146581D01*
X92983844Y-63157581D01*
X92953844Y-63166581D01*
X92923844Y-63173580D01*
X92892844Y-63179581D01*
X92861844Y-63183581D01*
X92829844Y-63185581D01*
X92798844Y-63186581D01*
X92398844Y-63186581D01*
X91998844Y-63186581D01*
X91967844Y-63185581D01*
X91935844Y-63183581D01*
X91904844Y-63179581D01*
X91873844Y-63173580D01*
X91843844Y-63166581D01*
X91813844Y-63157581D01*
X91783844Y-63146581D01*
X91754844Y-63134581D01*
X91726844Y-63121581D01*
X91698844Y-63106581D01*
X91671844Y-63089581D01*
X91645844Y-63071581D01*
X91620843Y-63052581D01*
X91597844Y-63032581D01*
X91574844Y-63010581D01*
X91552844Y-62987581D01*
X91532844Y-62964582D01*
X91513844Y-62939581D01*
X91495844Y-62913581D01*
X91478844Y-62886581D01*
X91463844Y-62858581D01*
X91450844Y-62830581D01*
X91438844Y-62801581D01*
X91427844Y-62771581D01*
X91418844Y-62741581D01*
X91411845Y-62711581D01*
X91405844Y-62680581D01*
X91401844Y-62649581D01*
X91399844Y-62617581D01*
X91398844Y-62586581D01*
X91399844Y-62555581D01*
X91401845Y-62523581D01*
X91405844Y-62492581D01*
X91411844Y-62461581D01*
X91418844Y-62431581D01*
X91427844Y-62401581D01*
X91438844Y-62371581D01*
X91450844Y-62342581D01*
X91463844Y-62314581D01*
X91478844Y-62286581D01*
X91495844Y-62259581D01*
X91513844Y-62233582D01*
X91532844Y-62208581D01*
X91552844Y-62185581D01*
X91574844Y-62162580D01*
X91597844Y-62140582D01*
X91620844Y-62120581D01*
X91645845Y-62101581D01*
X91671843Y-62083581D01*
X91698844Y-62066581D01*
X91726844Y-62051581D01*
X91754844Y-62038581D01*
X91783844Y-62026581D01*
X91813844Y-62015581D01*
X91843844Y-62006581D01*
X91873844Y-61999581D01*
X91904844Y-61993581D01*
X91935845Y-61989581D01*
X91967844Y-61987581D01*
X91998844Y-61986581D01*
X92398844Y-61986582D01*
X92798844Y-61986581D01*
X92829844Y-61987581D01*
G36*
X92829844Y-61987581D02*
G01*
X92861843Y-61989581D01*
X92892844Y-61993581D01*
X92923844Y-61999581D01*
X92953844Y-62006581D01*
X92983844Y-62015581D01*
X93013844Y-62026581D01*
X93042844Y-62038581D01*
X93070844Y-62051581D01*
X93098844Y-62066581D01*
X93125845Y-62083581D01*
X93151843Y-62101581D01*
X93176844Y-62120581D01*
X93199844Y-62140582D01*
X93222844Y-62162580D01*
X93244844Y-62185581D01*
X93264844Y-62208581D01*
X93283844Y-62233582D01*
X93301844Y-62259581D01*
X93318844Y-62286581D01*
X93333844Y-62314581D01*
X93346844Y-62342581D01*
X93358844Y-62371581D01*
X93369844Y-62401581D01*
X93378844Y-62431581D01*
X93385844Y-62461581D01*
X93391844Y-62492581D01*
X93395843Y-62523581D01*
X93397844Y-62555581D01*
X93398844Y-62586581D01*
X93397844Y-62617581D01*
X93395844Y-62649581D01*
X93391844Y-62680581D01*
X93385843Y-62711581D01*
X93378844Y-62741581D01*
X93369844Y-62771581D01*
X93358844Y-62801581D01*
X93346844Y-62830581D01*
X93333844Y-62858581D01*
X93318844Y-62886581D01*
X93301844Y-62913581D01*
X93283844Y-62939581D01*
X93264844Y-62964582D01*
X93244844Y-62987581D01*
X93222844Y-63010581D01*
X93199844Y-63032581D01*
X93176845Y-63052581D01*
X93151844Y-63071581D01*
X93125844Y-63089581D01*
X93098844Y-63106581D01*
X93070844Y-63121581D01*
X93042844Y-63134581D01*
X93013844Y-63146581D01*
X92983844Y-63157581D01*
X92953844Y-63166581D01*
X92923844Y-63173580D01*
X92892844Y-63179581D01*
X92861844Y-63183581D01*
X92829844Y-63185581D01*
X92798844Y-63186581D01*
X92398844Y-63186581D01*
X91998844Y-63186581D01*
X91967844Y-63185581D01*
X91935844Y-63183581D01*
X91904844Y-63179581D01*
X91873844Y-63173580D01*
X91843844Y-63166581D01*
X91813844Y-63157581D01*
X91783844Y-63146581D01*
X91754844Y-63134581D01*
X91726844Y-63121581D01*
X91698844Y-63106581D01*
X91671844Y-63089581D01*
X91645844Y-63071581D01*
X91620843Y-63052581D01*
X91597844Y-63032581D01*
X91574844Y-63010581D01*
X91552844Y-62987581D01*
X91532844Y-62964582D01*
X91513844Y-62939581D01*
X91495844Y-62913581D01*
X91478844Y-62886581D01*
X91463844Y-62858581D01*
X91450844Y-62830581D01*
X91438844Y-62801581D01*
X91427844Y-62771581D01*
X91418844Y-62741581D01*
X91411845Y-62711581D01*
X91405844Y-62680581D01*
X91401844Y-62649581D01*
X91399844Y-62617581D01*
X91398844Y-62586581D01*
X91399844Y-62555581D01*
X91401845Y-62523581D01*
X91405844Y-62492581D01*
X91411844Y-62461581D01*
X91418844Y-62431581D01*
X91427844Y-62401581D01*
X91438844Y-62371581D01*
X91450844Y-62342581D01*
X91463844Y-62314581D01*
X91478844Y-62286581D01*
X91495844Y-62259581D01*
X91513844Y-62233582D01*
X91532844Y-62208581D01*
X91552844Y-62185581D01*
X91574844Y-62162580D01*
X91597844Y-62140582D01*
X91620844Y-62120581D01*
X91645845Y-62101581D01*
X91671843Y-62083581D01*
X91698844Y-62066581D01*
X91726844Y-62051581D01*
X91754844Y-62038581D01*
X91783844Y-62026581D01*
X91813844Y-62015581D01*
X91843844Y-62006581D01*
X91873844Y-61999581D01*
X91904844Y-61993581D01*
X91935845Y-61989581D01*
X91967844Y-61987581D01*
X91998844Y-61986581D01*
X92398844Y-61986582D01*
X92798844Y-61986581D01*
X92829844Y-61987581D01*
G37*
X92829844Y-70627581D02*
X92861844Y-70629581D01*
X92892844Y-70633581D01*
X92923844Y-70639582D01*
X92953844Y-70646581D01*
X92983844Y-70655581D01*
X93013844Y-70666581D01*
X93042844Y-70678581D01*
X93070844Y-70691581D01*
X93098844Y-70706581D01*
X93125844Y-70723581D01*
X93151844Y-70741581D01*
X93176845Y-70760581D01*
X93199844Y-70780581D01*
X93222844Y-70802581D01*
X93244844Y-70825581D01*
X93264844Y-70848580D01*
X93283844Y-70873581D01*
X93301844Y-70899581D01*
X93318844Y-70926581D01*
X93333844Y-70954581D01*
X93346844Y-70982581D01*
X93358844Y-71011581D01*
X93369844Y-71041581D01*
X93378844Y-71071581D01*
X93385843Y-71101581D01*
X93391844Y-71132581D01*
X93395844Y-71163581D01*
X93397844Y-71195581D01*
X93398844Y-71226581D01*
X93397844Y-71257581D01*
X93395843Y-71289581D01*
X93391844Y-71320581D01*
X93385844Y-71351581D01*
X93378844Y-71381581D01*
X93369844Y-71411581D01*
X93358844Y-71441581D01*
X93346844Y-71470581D01*
X93333844Y-71498581D01*
X93318844Y-71526581D01*
X93301844Y-71553581D01*
X93283844Y-71579580D01*
X93264844Y-71604581D01*
X93244844Y-71627581D01*
X93222844Y-71650582D01*
X93199844Y-71672580D01*
X93176844Y-71692581D01*
X93151843Y-71711581D01*
X93125845Y-71729581D01*
X93098844Y-71746581D01*
X93070844Y-71761581D01*
X93042844Y-71774581D01*
X93013844Y-71786581D01*
X92983844Y-71797581D01*
X92953844Y-71806581D01*
X92923844Y-71813581D01*
X92892844Y-71819581D01*
X92861843Y-71823581D01*
X92829844Y-71825581D01*
X92798844Y-71826581D01*
X92398844Y-71826580D01*
X91998844Y-71826581D01*
X91967844Y-71825581D01*
X91935845Y-71823581D01*
X91904844Y-71819581D01*
X91873844Y-71813581D01*
X91843844Y-71806581D01*
X91813844Y-71797581D01*
X91783844Y-71786581D01*
X91754844Y-71774581D01*
X91726844Y-71761581D01*
X91698844Y-71746581D01*
X91671843Y-71729581D01*
X91645845Y-71711581D01*
X91620844Y-71692581D01*
X91597844Y-71672580D01*
X91574844Y-71650582D01*
X91552844Y-71627581D01*
X91532844Y-71604581D01*
X91513844Y-71579580D01*
X91495844Y-71553581D01*
X91478844Y-71526581D01*
X91463844Y-71498581D01*
X91450844Y-71470581D01*
X91438844Y-71441581D01*
X91427844Y-71411581D01*
X91418844Y-71381581D01*
X91411844Y-71351581D01*
X91405844Y-71320581D01*
X91401845Y-71289581D01*
X91399844Y-71257581D01*
X91398844Y-71226581D01*
X91399844Y-71195581D01*
X91401844Y-71163581D01*
X91405844Y-71132581D01*
X91411845Y-71101581D01*
X91418844Y-71071581D01*
X91427844Y-71041581D01*
X91438844Y-71011581D01*
X91450844Y-70982581D01*
X91463844Y-70954581D01*
X91478844Y-70926581D01*
X91495844Y-70899581D01*
X91513844Y-70873581D01*
X91532844Y-70848580D01*
X91552844Y-70825581D01*
X91574844Y-70802581D01*
X91597844Y-70780581D01*
X91620843Y-70760581D01*
X91645844Y-70741581D01*
X91671844Y-70723581D01*
X91698844Y-70706581D01*
X91726844Y-70691581D01*
X91754844Y-70678581D01*
X91783844Y-70666581D01*
X91813844Y-70655581D01*
X91843844Y-70646581D01*
X91873844Y-70639582D01*
X91904844Y-70633581D01*
X91935844Y-70629581D01*
X91967844Y-70627581D01*
X91998844Y-70626581D01*
X92398844Y-70626581D01*
X92798844Y-70626581D01*
X92829844Y-70627581D01*
G36*
X92829844Y-70627581D02*
G01*
X92861844Y-70629581D01*
X92892844Y-70633581D01*
X92923844Y-70639582D01*
X92953844Y-70646581D01*
X92983844Y-70655581D01*
X93013844Y-70666581D01*
X93042844Y-70678581D01*
X93070844Y-70691581D01*
X93098844Y-70706581D01*
X93125844Y-70723581D01*
X93151844Y-70741581D01*
X93176845Y-70760581D01*
X93199844Y-70780581D01*
X93222844Y-70802581D01*
X93244844Y-70825581D01*
X93264844Y-70848580D01*
X93283844Y-70873581D01*
X93301844Y-70899581D01*
X93318844Y-70926581D01*
X93333844Y-70954581D01*
X93346844Y-70982581D01*
X93358844Y-71011581D01*
X93369844Y-71041581D01*
X93378844Y-71071581D01*
X93385843Y-71101581D01*
X93391844Y-71132581D01*
X93395844Y-71163581D01*
X93397844Y-71195581D01*
X93398844Y-71226581D01*
X93397844Y-71257581D01*
X93395843Y-71289581D01*
X93391844Y-71320581D01*
X93385844Y-71351581D01*
X93378844Y-71381581D01*
X93369844Y-71411581D01*
X93358844Y-71441581D01*
X93346844Y-71470581D01*
X93333844Y-71498581D01*
X93318844Y-71526581D01*
X93301844Y-71553581D01*
X93283844Y-71579580D01*
X93264844Y-71604581D01*
X93244844Y-71627581D01*
X93222844Y-71650582D01*
X93199844Y-71672580D01*
X93176844Y-71692581D01*
X93151843Y-71711581D01*
X93125845Y-71729581D01*
X93098844Y-71746581D01*
X93070844Y-71761581D01*
X93042844Y-71774581D01*
X93013844Y-71786581D01*
X92983844Y-71797581D01*
X92953844Y-71806581D01*
X92923844Y-71813581D01*
X92892844Y-71819581D01*
X92861843Y-71823581D01*
X92829844Y-71825581D01*
X92798844Y-71826581D01*
X92398844Y-71826580D01*
X91998844Y-71826581D01*
X91967844Y-71825581D01*
X91935845Y-71823581D01*
X91904844Y-71819581D01*
X91873844Y-71813581D01*
X91843844Y-71806581D01*
X91813844Y-71797581D01*
X91783844Y-71786581D01*
X91754844Y-71774581D01*
X91726844Y-71761581D01*
X91698844Y-71746581D01*
X91671843Y-71729581D01*
X91645845Y-71711581D01*
X91620844Y-71692581D01*
X91597844Y-71672580D01*
X91574844Y-71650582D01*
X91552844Y-71627581D01*
X91532844Y-71604581D01*
X91513844Y-71579580D01*
X91495844Y-71553581D01*
X91478844Y-71526581D01*
X91463844Y-71498581D01*
X91450844Y-71470581D01*
X91438844Y-71441581D01*
X91427844Y-71411581D01*
X91418844Y-71381581D01*
X91411844Y-71351581D01*
X91405844Y-71320581D01*
X91401845Y-71289581D01*
X91399844Y-71257581D01*
X91398844Y-71226581D01*
X91399844Y-71195581D01*
X91401844Y-71163581D01*
X91405844Y-71132581D01*
X91411845Y-71101581D01*
X91418844Y-71071581D01*
X91427844Y-71041581D01*
X91438844Y-71011581D01*
X91450844Y-70982581D01*
X91463844Y-70954581D01*
X91478844Y-70926581D01*
X91495844Y-70899581D01*
X91513844Y-70873581D01*
X91532844Y-70848580D01*
X91552844Y-70825581D01*
X91574844Y-70802581D01*
X91597844Y-70780581D01*
X91620843Y-70760581D01*
X91645844Y-70741581D01*
X91671844Y-70723581D01*
X91698844Y-70706581D01*
X91726844Y-70691581D01*
X91754844Y-70678581D01*
X91783844Y-70666581D01*
X91813844Y-70655581D01*
X91843844Y-70646581D01*
X91873844Y-70639582D01*
X91904844Y-70633581D01*
X91935844Y-70629581D01*
X91967844Y-70627581D01*
X91998844Y-70626581D01*
X92398844Y-70626581D01*
X92798844Y-70626581D01*
X92829844Y-70627581D01*
G37*
%TD*%
D11*
%TO.C,H3*%
X86198845Y-81104083D03*
%TD*%
D12*
%TO.C,J2*%
X59698845Y-56104083D03*
D13*
X62198845Y-56104083D03*
%TD*%
D14*
%TO.C,J7*%
X93198845Y-55604083D03*
D15*
X93198845Y-58104083D03*
%TD*%
D12*
%TO.C,J4*%
X59698845Y-68104083D03*
D13*
X62198845Y-68104083D03*
%TD*%
D11*
%TO.C,H1*%
X55198845Y-44104083D03*
%TD*%
%TO.C,H4*%
X55198845Y-81104083D03*
%TD*%
D16*
%TO.C,J5*%
X71698845Y-81104083D03*
D13*
X69198845Y-81104083D03*
%TD*%
D17*
%TO.C,P1*%
X88718844Y-69796582D03*
X88718844Y-64016580D03*
D18*
X88218844Y-71226581D03*
X88218844Y-62586581D03*
%TD*%
D12*
%TO.C,J3*%
X59698845Y-62104083D03*
D13*
X62198845Y-62104083D03*
%TD*%
D12*
%TO.C,J1*%
X59698845Y-50104083D03*
D13*
X62198845Y-50104083D03*
%TD*%
D11*
%TO.C,H2*%
X86198845Y-44104083D03*
%TD*%
D14*
%TO.C,J6*%
X93198845Y-76104083D03*
D15*
X93198845Y-78604083D03*
%TD*%
D19*
%TO.C,U1*%
X74274791Y-48174083D03*
X74274791Y-47224084D03*
X74274791Y-46274085D03*
%TD*%
M02*
