M48
; DRILL file {KiCad 8.0.8} date 2025-02-07T06:01:19-0500
; FORMAT={-:-/ absolute / inch / decimal}
; #@! TF.CreationDate,2025-02-07T06:01:19-05:00
; #@! TF.GenerationSoftware,Kicad,Pcbnew,8.0.8
; #@! TF.FileFunction,Plated,1,2,PTH
FMAT,2
INCH
; #@! TA.AperFunction,Plated,PTH,ViaDrill
T1C0.0118
; #@! TA.AperFunction,Plated,PTH,ComponentDrill
T2C0.0197
; #@! TA.AperFunction,Plated,PTH,ComponentDrill
T3C0.0236
; #@! TA.AperFunction,Plated,PTH,ComponentDrill
T4C0.0394
%
G90
G05
T1
X4.1712Y-3.5376
X4.624Y-4.0592
X4.6437Y-3.0848
X4.683Y-3.7147
X4.7716Y-3.1537
X4.8011Y-2.5828
X4.8405Y-2.8978
X4.8896Y-3.656
X4.8996Y-3.5622
X4.8996Y-3.6261
X4.9236Y-3.5166
X4.9685Y-2.8486
X5.121Y-3.0848
X5.1259Y-2.9569
X5.2342Y-2.573
X5.2539Y-3.7147
X5.3897Y-3.071
X5.4595Y-3.6388
X5.4704Y-3.5474
X5.4704Y-3.6093
X5.5Y-3.508
X5.5196Y-4.0986
X5.6614Y-2.8781
X5.6673Y-4.0986
X5.7559Y-3.012
X5.8149Y-3.636
X5.8385Y-2.9844
X5.8444Y-3.6065
X5.9035Y-2.5828
X5.933Y-3.7443
X6.0216Y-2.5828
X6.0393Y-3.6065
X6.0511Y-3.6852
X6.0773Y-3.6316
X6.1397Y-2.8683
X6.1417Y-3.5946
X6.1682Y-3.0414
X6.1791Y-3.0061
X6.1791Y-3.1045
X6.3759Y-4.0986
X6.3858Y-2.9372
X6.435Y-3.0258
X6.5728Y-3.4293
X6.8482Y-2.9964
X6.8779Y-3.3166
X6.8809Y-2.9429
X6.8877Y-3.3658
X6.9173Y-2.9864
X7.0157Y-3.3506
X7.0537Y-3.539
X7.0649Y-3.4588
X7.0846Y-3.1537
X7.1141Y-2.9962
X7.1535Y-3.5277
T2
X6.9639Y-3.579
X7.0033Y-3.579
T3
X7.2953Y-3.3115
X7.2953Y-3.6517
T4
X4.3353Y-3.3431
X4.3353Y-3.4415
X4.5776Y-2.7143
X4.6761Y-2.7143
X4.7421Y-3.9135
X4.8405Y-3.9135
X5.3393Y-2.7379
X5.3562Y-3.9003
X5.4377Y-2.7379
X5.4546Y-3.9003
X5.7008Y-2.7143
X5.7876Y-3.9239
X5.7993Y-2.7143
X5.886Y-3.9239
X6.1301Y-2.7379
X6.1728Y-3.9003
X6.2285Y-2.7379
X6.2713Y-3.9003
X6.7075Y-3.2304
X6.7075Y-3.3288
T3
G00X7.1091Y-3.3115
M15
G01X7.1524Y-3.3115
M16
G05
G00X7.1091Y-3.6517
M15
G01X7.1524Y-3.6517
M16
G05
M30
