%TF.GenerationSoftware,KiCad,Pcbnew,8.0.8*%
%TF.CreationDate,2025-02-07T16:47:41-05:00*%
%TF.ProjectId,power-delivery-board,706f7765-722d-4646-956c-69766572792d,rev?*%
%TF.SameCoordinates,Original*%
%TF.FileFunction,Paste,Top*%
%TF.FilePolarity,Positive*%
%FSLAX46Y46*%
G04 Gerber Fmt 4.6, Leading zero omitted, Abs format (unit mm)*
G04 Created by KiCad (PCBNEW 8.0.8) date 2025-02-07 16:47:41*
%MOMM*%
%LPD*%
G01*
G04 APERTURE LIST*
G04 Aperture macros list*
%AMRoundRect*
0 Rectangle with rounded corners*
0 $1 Rounding radius*
0 $2 $3 $4 $5 $6 $7 $8 $9 X,Y pos of 4 corners*
0 Add a 4 corners polygon primitive as box body*
4,1,4,$2,$3,$4,$5,$6,$7,$8,$9,$2,$3,0*
0 Add four circle primitives for the rounded corners*
1,1,$1+$1,$2,$3*
1,1,$1+$1,$4,$5*
1,1,$1+$1,$6,$7*
1,1,$1+$1,$8,$9*
0 Add four rect primitives between the rounded corners*
20,1,$1+$1,$2,$3,$4,$5,0*
20,1,$1+$1,$4,$5,$6,$7,0*
20,1,$1+$1,$6,$7,$8,$9,0*
20,1,$1+$1,$8,$9,$2,$3,0*%
G04 Aperture macros list end*
%ADD10RoundRect,0.250000X-0.250000X-0.475000X0.250000X-0.475000X0.250000X0.475000X-0.250000X0.475000X0*%
%ADD11RoundRect,0.218750X-0.218750X-0.381250X0.218750X-0.381250X0.218750X0.381250X-0.218750X0.381250X0*%
%ADD12R,0.300000X0.800000*%
%ADD13R,2.500000X1.750000*%
%ADD14RoundRect,0.243750X-0.243750X-0.456250X0.243750X-0.456250X0.243750X0.456250X-0.243750X0.456250X0*%
%ADD15RoundRect,0.250000X0.250000X0.475000X-0.250000X0.475000X-0.250000X-0.475000X0.250000X-0.475000X0*%
%ADD16RoundRect,0.250000X-0.450000X0.262500X-0.450000X-0.262500X0.450000X-0.262500X0.450000X0.262500X0*%
%ADD17RoundRect,0.250000X0.475000X-0.250000X0.475000X0.250000X-0.475000X0.250000X-0.475000X-0.250000X0*%
%ADD18RoundRect,0.250000X0.262500X0.450000X-0.262500X0.450000X-0.262500X-0.450000X0.262500X-0.450000X0*%
%ADD19RoundRect,0.250000X-0.262500X-0.450000X0.262500X-0.450000X0.262500X0.450000X-0.262500X0.450000X0*%
%ADD20RoundRect,0.218750X0.218750X0.381250X-0.218750X0.381250X-0.218750X-0.381250X0.218750X-0.381250X0*%
%ADD21R,1.150000X0.600000*%
%ADD22R,1.150000X0.300000*%
%ADD23RoundRect,0.250000X-0.475000X0.250000X-0.475000X-0.250000X0.475000X-0.250000X0.475000X0.250000X0*%
%ADD24R,0.800000X0.300000*%
%ADD25R,1.750000X2.500000*%
%ADD26RoundRect,0.250000X0.450000X-0.262500X0.450000X0.262500X-0.450000X0.262500X-0.450000X-0.262500X0*%
%ADD27RoundRect,0.243750X0.456250X-0.243750X0.456250X0.243750X-0.456250X0.243750X-0.456250X-0.243750X0*%
%ADD28RoundRect,0.017550X0.352450X0.117450X-0.352450X0.117450X-0.352450X-0.117450X0.352450X-0.117450X0*%
%ADD29R,0.840000X2.400000*%
%ADD30R,0.549999X0.800001*%
%ADD31R,0.584200X0.279400*%
G04 APERTURE END LIST*
D10*
%TO.C,CIN3*%
X77048846Y-59454082D03*
X78948844Y-59454082D03*
%TD*%
D11*
%TO.C,L2*%
X68799791Y-69279083D03*
X70924791Y-69279083D03*
%TD*%
D12*
%TO.C,U5*%
X84398844Y-50406581D03*
X83898844Y-50406581D03*
X83398844Y-50406581D03*
X82898844Y-50406581D03*
X82398844Y-50406581D03*
X82398844Y-53406581D03*
X82898844Y-53406581D03*
X83398844Y-53406581D03*
X83898844Y-53406581D03*
X84398844Y-53406581D03*
D13*
X83398844Y-51906581D03*
%TD*%
D14*
%TO.C,D6*%
X53761345Y-60954083D03*
X55636345Y-60954083D03*
%TD*%
D15*
%TO.C,COUT1*%
X71874790Y-48624083D03*
X69974792Y-48624083D03*
%TD*%
D16*
%TO.C,R18*%
X76198845Y-80231583D03*
X76198845Y-82056583D03*
%TD*%
D10*
%TO.C,CIN4*%
X76649791Y-70279083D03*
X78549791Y-70279083D03*
%TD*%
D17*
%TO.C,COUT2*%
X69474791Y-57149083D03*
X69474791Y-55249085D03*
%TD*%
D14*
%TO.C,D4*%
X53698845Y-48954083D03*
X55573845Y-48954083D03*
%TD*%
D18*
%TO.C,R4*%
X84311344Y-55906581D03*
X82486344Y-55906581D03*
%TD*%
D19*
%TO.C,R16*%
X53786345Y-62954083D03*
X55611345Y-62954083D03*
%TD*%
D10*
%TO.C,C3*%
X73249791Y-73979083D03*
X75149791Y-73979083D03*
%TD*%
D14*
%TO.C,D1*%
X93261344Y-49104083D03*
X95136346Y-49104083D03*
%TD*%
D19*
%TO.C,R7*%
X53786345Y-50954083D03*
X55611345Y-50954083D03*
%TD*%
D20*
%TO.C,L1*%
X71799791Y-46724083D03*
X69674791Y-46724083D03*
%TD*%
D10*
%TO.C,C2*%
X76699791Y-72279083D03*
X78599791Y-72279083D03*
%TD*%
D19*
%TO.C,R5*%
X86486344Y-55906582D03*
X88311344Y-55906582D03*
%TD*%
D18*
%TO.C,R3*%
X71699791Y-44824083D03*
X69874791Y-44824083D03*
%TD*%
D21*
%TO.C,P1*%
X87643844Y-70106581D03*
X87643844Y-69306581D03*
D22*
X87643844Y-68156581D03*
X87643844Y-67156581D03*
X87643844Y-66656581D03*
X87643844Y-65656581D03*
D21*
X87643844Y-63706581D03*
X87643844Y-64506581D03*
D22*
X87643844Y-65156581D03*
X87643844Y-66156581D03*
X87643844Y-67656581D03*
X87643844Y-68656581D03*
%TD*%
D19*
%TO.C,R15*%
X53786345Y-56954083D03*
X55611345Y-56954083D03*
%TD*%
D15*
%TO.C,C6*%
X70648845Y-71504083D03*
X68748845Y-71504083D03*
%TD*%
D23*
%TO.C,COUT3*%
X80898842Y-59154084D03*
X80898842Y-61054082D03*
%TD*%
D14*
%TO.C,D5*%
X53698845Y-54954083D03*
X55573845Y-54954083D03*
%TD*%
D15*
%TO.C,C4*%
X73124790Y-51399084D03*
X71224792Y-51399084D03*
%TD*%
D14*
%TO.C,D7*%
X53761345Y-66954083D03*
X55636345Y-66954083D03*
%TD*%
D15*
%TO.C,CIN2*%
X73224789Y-56999084D03*
X71324791Y-56999084D03*
%TD*%
D24*
%TO.C,U4*%
X72274791Y-70174083D03*
X72274791Y-70674083D03*
X72274791Y-71174083D03*
X72274791Y-71674083D03*
X72274791Y-72174083D03*
X75274791Y-72174083D03*
X75274791Y-71674083D03*
X75274791Y-71174083D03*
X75274791Y-70674083D03*
X75274791Y-70174083D03*
D25*
X73774791Y-71174083D03*
%TD*%
D14*
%TO.C,D2*%
X93261344Y-51104083D03*
X95136346Y-51104083D03*
%TD*%
D16*
%TO.C,R11*%
X77174790Y-53274085D03*
X77174790Y-55099085D03*
%TD*%
D23*
%TO.C,C5*%
X80698845Y-62654084D03*
X80698845Y-64554082D03*
%TD*%
D15*
%TO.C,C7*%
X74224790Y-68174083D03*
X72324792Y-68174083D03*
%TD*%
D26*
%TO.C,R13*%
X73098844Y-63466583D03*
X73098844Y-61641583D03*
%TD*%
D27*
%TO.C,D8*%
X78198845Y-82041584D03*
X78198845Y-80166582D03*
%TD*%
D18*
%TO.C,R8*%
X78612291Y-76379083D03*
X76787291Y-76379083D03*
%TD*%
D19*
%TO.C,R9*%
X76787291Y-74279083D03*
X78612291Y-74279083D03*
%TD*%
D14*
%TO.C,D3*%
X93261344Y-47104083D03*
X95136346Y-47104083D03*
%TD*%
D28*
%TO.C,U1*%
X75269791Y-48224084D03*
X75269791Y-47724084D03*
X75269791Y-47224084D03*
X75269791Y-46724084D03*
X75269791Y-46224084D03*
X73279791Y-46224084D03*
X73279791Y-46724084D03*
X73279791Y-47224084D03*
X73279791Y-47724084D03*
X73279791Y-48224084D03*
D29*
X74274791Y-47224084D03*
%TD*%
D15*
%TO.C,C1*%
X88348843Y-53104083D03*
X86448845Y-53104083D03*
%TD*%
D18*
%TO.C,R12*%
X76587290Y-51299084D03*
X74762290Y-51299084D03*
%TD*%
%TO.C,R10*%
X70812291Y-73604083D03*
X68987291Y-73604083D03*
%TD*%
D17*
%TO.C,C8*%
X75074790Y-55149083D03*
X75074790Y-53249085D03*
%TD*%
D11*
%TO.C,L4*%
X77836345Y-57554083D03*
X79961345Y-57554083D03*
%TD*%
D10*
%TO.C,CIN1*%
X77198845Y-47604083D03*
X79098843Y-47604083D03*
%TD*%
D19*
%TO.C,R17*%
X53786345Y-68954083D03*
X55611345Y-68954083D03*
%TD*%
D20*
%TO.C,L3*%
X69761345Y-53604083D03*
X67636345Y-53604083D03*
%TD*%
D30*
%TO.C,U2*%
X71324790Y-55449084D03*
X72274791Y-55449084D03*
X73224789Y-55449084D03*
X73224789Y-52899085D03*
X72274791Y-52899085D03*
X71324790Y-52899084D03*
%TD*%
D31*
%TO.C,U6*%
X84844644Y-67354084D03*
X84844644Y-66854085D03*
X84844644Y-66354086D03*
X83523844Y-66354086D03*
X83523844Y-66854085D03*
X83523844Y-67354084D03*
%TD*%
D30*
%TO.C,U3*%
X78958841Y-61174083D03*
X78008840Y-61174083D03*
X77058842Y-61174083D03*
X77058842Y-63724082D03*
X78008840Y-63724082D03*
X78958841Y-63724083D03*
%TD*%
D23*
%TO.C,C9*%
X75198845Y-61604083D03*
X75198845Y-63504081D03*
%TD*%
D18*
%TO.C,R6*%
X91111345Y-47104083D03*
X89286345Y-47104083D03*
%TD*%
%TO.C,R2*%
X91111345Y-49104083D03*
X89286345Y-49104083D03*
%TD*%
D19*
%TO.C,R14*%
X73486343Y-65354083D03*
X75311343Y-65354083D03*
%TD*%
%TO.C,R1*%
X89286345Y-51104083D03*
X91111345Y-51104083D03*
%TD*%
M02*
