%TF.GenerationSoftware,KiCad,Pcbnew,7.0.7*%
%TF.CreationDate,2024-01-17T19:34:37-05:00*%
%TF.ProjectId,Unified_Board,556e6966-6965-4645-9f42-6f6172642e6b,rev?*%
%TF.SameCoordinates,Original*%
%TF.FileFunction,Soldermask,Bot*%
%TF.FilePolarity,Negative*%
%FSLAX46Y46*%
G04 Gerber Fmt 4.6, Leading zero omitted, Abs format (unit mm)*
G04 Created by KiCad (PCBNEW 7.0.7) date 2024-01-17 19:34:37*
%MOMM*%
%LPD*%
G01*
G04 APERTURE LIST*
%ADD10R,1.700000X1.700000*%
%ADD11O,1.700000X1.700000*%
%ADD12R,2.600000X2.600000*%
%ADD13C,2.600000*%
%ADD14C,2.700000*%
%ADD15C,1.524000*%
%ADD16R,5.080000X1.780000*%
%ADD17R,3.960000X3.960000*%
%ADD18C,2.000000*%
G04 APERTURE END LIST*
D10*
%TO.C,J3*%
X107600000Y-96000000D03*
D11*
X107600000Y-98540000D03*
X107600000Y-101080000D03*
X107600000Y-103620000D03*
%TD*%
D12*
%TO.C,J1*%
X114500000Y-47000000D03*
D13*
X118000000Y-47000000D03*
%TD*%
D14*
%TO.C,H1*%
X157000000Y-40000000D03*
%TD*%
D15*
%TO.C,BZ1*%
X137650000Y-51500000D03*
X145150000Y-51500000D03*
%TD*%
D10*
%TO.C,J2*%
X114600000Y-96000000D03*
D11*
X114600000Y-98540000D03*
X114600000Y-101080000D03*
X114600000Y-103620000D03*
%TD*%
D16*
%TO.C,BT1*%
X151000000Y-89400000D03*
X151000000Y-80000000D03*
D17*
X151000000Y-84700000D03*
%TD*%
D10*
%TO.C,J4*%
X121400000Y-96000000D03*
D11*
X121400000Y-98540000D03*
X121400000Y-101080000D03*
X121400000Y-103620000D03*
%TD*%
D14*
%TO.C,H3*%
X73000000Y-105000000D03*
%TD*%
D16*
%TO.C,BT2*%
X151000000Y-63100000D03*
X151000000Y-53700000D03*
D17*
X151000000Y-58400000D03*
%TD*%
D14*
%TO.C,H2*%
X73000000Y-40000000D03*
%TD*%
%TO.C,H4*%
X157000000Y-105000000D03*
%TD*%
D18*
%TO.C,Teensy4.1*%
X95620000Y-44990000D03*
X95620000Y-47530000D03*
X95620000Y-50070000D03*
X95620000Y-52610000D03*
X95620000Y-55150000D03*
X95620000Y-57690000D03*
X95620000Y-60230000D03*
X95620000Y-62770000D03*
X95620000Y-65310000D03*
X95620000Y-67850000D03*
X95620000Y-70390000D03*
X95620000Y-72930000D03*
X95620000Y-75470000D03*
X95620000Y-78010000D03*
X95620000Y-80550000D03*
X95620000Y-83090000D03*
X95620000Y-85630000D03*
X95620000Y-88170000D03*
X95620000Y-90710000D03*
X95620000Y-93250000D03*
X95620000Y-95790000D03*
X95620000Y-98330000D03*
X95620000Y-100870000D03*
X95620000Y-103410000D03*
X80380000Y-103410000D03*
X80380000Y-100870000D03*
X80380000Y-98330000D03*
X80380000Y-95790000D03*
X80380000Y-93250000D03*
X80380000Y-90710000D03*
X80380000Y-88170000D03*
X80380000Y-85630000D03*
X80380000Y-83090000D03*
X80380000Y-80550000D03*
X80380000Y-78010000D03*
X80380000Y-75470000D03*
X80380000Y-72930000D03*
X80380000Y-70390000D03*
X80380000Y-67850000D03*
X80380000Y-65310000D03*
X80380000Y-62770000D03*
X80380000Y-60230000D03*
X80380000Y-57690000D03*
X80380000Y-55150000D03*
X80380000Y-52610000D03*
X80380000Y-50070000D03*
X80380000Y-47530000D03*
X80380000Y-44990000D03*
%TD*%
M02*
