M48
; DRILL file {KiCad 8.0.8} date 2025-02-07T05:45:50-0500
; FORMAT={-:-/ absolute / inch / decimal}
; #@! TF.CreationDate,2025-02-07T05:45:50-05:00
; #@! TF.GenerationSoftware,Kicad,Pcbnew,8.0.8
; #@! TF.FileFunction,Plated,1,2,PTH
FMAT,2
INCH
; #@! TA.AperFunction,Plated,PTH,ComponentDrill
T1C0.0079
; #@! TA.AperFunction,Plated,PTH,ViaDrill
T2C0.0118
; #@! TA.AperFunction,Plated,PTH,ComponentDrill
T3C0.0374
; #@! TA.AperFunction,Plated,PTH,ComponentDrill
T4C0.0394
%
G90
G05
T1
X4.6004Y-4.4787
X4.6004Y-4.5339
X4.628Y-4.4512
X4.628Y-4.5063
X4.628Y-4.5614
X4.6555Y-4.4787
X4.6555Y-4.5339
X4.6831Y-4.4512
X4.6831Y-4.5063
X4.6831Y-4.5614
X4.7106Y-4.4787
X4.7106Y-4.5339
T2
X4.1339Y-4.2323
X4.1339Y-4.311
X4.1732Y-4.5866
X4.311Y-4.4685
X4.4488Y-4.2126
X4.9803Y-4.2126
X5.1378Y-4.8425
T3
X4.4488Y-5.1378
X4.5472Y-5.1378
X4.6457Y-5.1378
X4.7441Y-5.1378
X4.8425Y-5.1378
X4.9409Y-5.1378
X5.1969Y-4.311
X5.1969Y-4.4094
X5.1969Y-4.5079
X5.1969Y-4.6063
T4
X4.2323Y-4.7244
X4.2323Y-4.8228
M30
