%TF.GenerationSoftware,KiCad,Pcbnew,8.0.8*%
%TF.CreationDate,2025-02-12T11:28:01-05:00*%
%TF.ProjectId,pa-test-board,70612d74-6573-4742-9d62-6f6172642e6b,rev?*%
%TF.SameCoordinates,Original*%
%TF.FileFunction,Copper,L2,Bot*%
%TF.FilePolarity,Positive*%
%FSLAX46Y46*%
G04 Gerber Fmt 4.6, Leading zero omitted, Abs format (unit mm)*
G04 Created by KiCad (PCBNEW 8.0.8) date 2025-02-12 11:28:01*
%MOMM*%
%LPD*%
G01*
G04 APERTURE LIST*
%TA.AperFunction,ComponentPad*%
%ADD10R,1.700000X1.700000*%
%TD*%
%TA.AperFunction,ComponentPad*%
%ADD11O,1.700000X1.700000*%
%TD*%
%TA.AperFunction,SMDPad,CuDef*%
%ADD12R,4.064000X1.524000*%
%TD*%
%TA.AperFunction,ComponentPad*%
%ADD13C,0.500000*%
%TD*%
%TA.AperFunction,SMDPad,CuDef*%
%ADD14R,2.700000X2.700000*%
%TD*%
%TA.AperFunction,ViaPad*%
%ADD15C,0.600000*%
%TD*%
G04 APERTURE END LIST*
D10*
%TO.P,J1,1,Pin_1*%
%TO.N,+5V*%
X144050000Y-94950000D03*
D11*
%TO.P,J1,2,Pin_2*%
%TO.N,GND*%
X146590000Y-94950000D03*
%TO.P,J1,3,Pin_3*%
%TO.N,unconnected-(J1-Pin_3-Pad3)*%
X149130000Y-94950000D03*
%TD*%
D12*
%TO.P,J2,2,Ext*%
%TO.N,GND*%
X136132000Y-108810000D03*
X136132000Y-113890000D03*
%TD*%
D10*
%TO.P,J4,1,Pin_1*%
%TO.N,Net-(J4-Pin_1)*%
X142932550Y-100500000D03*
D11*
%TO.P,J4,2,Pin_2*%
%TO.N,Net-(J4-Pin_2)*%
X145472550Y-100500000D03*
%TO.P,J4,3,Pin_3*%
%TO.N,Net-(J4-Pin_3)*%
X148012550Y-100500000D03*
%TO.P,J4,4,Pin_4*%
%TO.N,AND*%
X150552550Y-100500000D03*
%TD*%
D10*
%TO.P,J5,1,Pin_1*%
%TO.N,Net-(J5-Pin_1)*%
X155400000Y-94900000D03*
D11*
%TO.P,J5,2,Pin_2*%
%TO.N,GND*%
X152860000Y-94900000D03*
%TD*%
D12*
%TO.P,J3,2,Ext*%
%TO.N,GND*%
X164845450Y-113690000D03*
X164845450Y-108610000D03*
%TD*%
D13*
%TO.P,PA1,25,GND*%
%TO.N,GND*%
X149627450Y-109940000D03*
X149627450Y-110580000D03*
X149627450Y-111220000D03*
X149627450Y-111860000D03*
X150267450Y-109940000D03*
X150267450Y-110580000D03*
X150267450Y-111220000D03*
X150267450Y-111860000D03*
D14*
X150587450Y-110900000D03*
D13*
X150907450Y-109940000D03*
X150907450Y-110580000D03*
X150907450Y-111220000D03*
X150907450Y-111860000D03*
X151547450Y-109940000D03*
X151547450Y-110580000D03*
X151547450Y-111220000D03*
X151547450Y-111860000D03*
%TD*%
D15*
%TO.N,GND*%
X138677450Y-108950000D03*
X141877450Y-107550000D03*
X138677450Y-113950000D03*
X159877450Y-108150000D03*
X149100000Y-103800000D03*
X159077450Y-108950000D03*
X160300000Y-93700000D03*
X162277450Y-113750000D03*
X156800000Y-99000000D03*
X156000000Y-103600000D03*
X141877450Y-109150000D03*
X162277450Y-108750000D03*
X152600000Y-99600000D03*
X156800000Y-103300000D03*
X140952550Y-97800000D03*
%TD*%
%TA.AperFunction,Conductor*%
%TO.N,GND*%
G36*
X166319989Y-92670185D02*
G01*
X166365744Y-92722989D01*
X166376950Y-92774500D01*
X166376950Y-107224000D01*
X166357265Y-107291039D01*
X166304461Y-107336794D01*
X166252950Y-107348000D01*
X165095450Y-107348000D01*
X165095450Y-109872000D01*
X166252950Y-109872000D01*
X166319989Y-109891685D01*
X166365744Y-109944489D01*
X166376950Y-109996000D01*
X166376950Y-112304000D01*
X166357265Y-112371039D01*
X166304461Y-112416794D01*
X166252950Y-112428000D01*
X165095450Y-112428000D01*
X165095450Y-114952000D01*
X166252950Y-114952000D01*
X166319989Y-114971685D01*
X166365744Y-115024489D01*
X166376950Y-115076000D01*
X166376950Y-122225500D01*
X166357265Y-122292539D01*
X166304461Y-122338294D01*
X166252950Y-122349500D01*
X134701950Y-122349500D01*
X134634911Y-122329815D01*
X134589156Y-122277011D01*
X134577950Y-122225500D01*
X134577950Y-119178711D01*
X135749500Y-119178711D01*
X135749500Y-119421288D01*
X135781161Y-119661785D01*
X135843947Y-119896104D01*
X135936773Y-120120205D01*
X135936776Y-120120212D01*
X136058064Y-120330289D01*
X136058066Y-120330292D01*
X136058067Y-120330293D01*
X136205733Y-120522736D01*
X136205739Y-120522743D01*
X136377256Y-120694260D01*
X136377262Y-120694265D01*
X136569711Y-120841936D01*
X136779788Y-120963224D01*
X137003900Y-121056054D01*
X137238211Y-121118838D01*
X137418586Y-121142584D01*
X137478711Y-121150500D01*
X137478712Y-121150500D01*
X137721289Y-121150500D01*
X137769388Y-121144167D01*
X137961789Y-121118838D01*
X138196100Y-121056054D01*
X138420212Y-120963224D01*
X138630289Y-120841936D01*
X138822738Y-120694265D01*
X138994265Y-120522738D01*
X139141936Y-120330289D01*
X139263224Y-120120212D01*
X139356054Y-119896100D01*
X139418838Y-119661789D01*
X139450500Y-119421288D01*
X139450500Y-119178712D01*
X139450500Y-119178711D01*
X161449500Y-119178711D01*
X161449500Y-119421288D01*
X161481161Y-119661785D01*
X161543947Y-119896104D01*
X161636773Y-120120205D01*
X161636776Y-120120212D01*
X161758064Y-120330289D01*
X161758066Y-120330292D01*
X161758067Y-120330293D01*
X161905733Y-120522736D01*
X161905739Y-120522743D01*
X162077256Y-120694260D01*
X162077262Y-120694265D01*
X162269711Y-120841936D01*
X162479788Y-120963224D01*
X162703900Y-121056054D01*
X162938211Y-121118838D01*
X163118586Y-121142584D01*
X163178711Y-121150500D01*
X163178712Y-121150500D01*
X163421289Y-121150500D01*
X163469388Y-121144167D01*
X163661789Y-121118838D01*
X163896100Y-121056054D01*
X164120212Y-120963224D01*
X164330289Y-120841936D01*
X164522738Y-120694265D01*
X164694265Y-120522738D01*
X164841936Y-120330289D01*
X164963224Y-120120212D01*
X165056054Y-119896100D01*
X165118838Y-119661789D01*
X165150500Y-119421288D01*
X165150500Y-119178712D01*
X165118838Y-118938211D01*
X165056054Y-118703900D01*
X164963224Y-118479788D01*
X164841936Y-118269711D01*
X164694265Y-118077262D01*
X164694260Y-118077256D01*
X164522743Y-117905739D01*
X164522736Y-117905733D01*
X164330293Y-117758067D01*
X164330292Y-117758066D01*
X164330289Y-117758064D01*
X164120212Y-117636776D01*
X164120205Y-117636773D01*
X163896104Y-117543947D01*
X163661785Y-117481161D01*
X163421289Y-117449500D01*
X163421288Y-117449500D01*
X163178712Y-117449500D01*
X163178711Y-117449500D01*
X162938214Y-117481161D01*
X162703895Y-117543947D01*
X162479794Y-117636773D01*
X162479785Y-117636777D01*
X162269706Y-117758067D01*
X162077263Y-117905733D01*
X162077256Y-117905739D01*
X161905739Y-118077256D01*
X161905733Y-118077263D01*
X161758067Y-118269706D01*
X161636777Y-118479785D01*
X161636773Y-118479794D01*
X161543947Y-118703895D01*
X161481161Y-118938214D01*
X161449500Y-119178711D01*
X139450500Y-119178711D01*
X139418838Y-118938211D01*
X139356054Y-118703900D01*
X139263224Y-118479788D01*
X139141936Y-118269711D01*
X138994265Y-118077262D01*
X138994260Y-118077256D01*
X138822743Y-117905739D01*
X138822736Y-117905733D01*
X138630293Y-117758067D01*
X138630292Y-117758066D01*
X138630289Y-117758064D01*
X138420212Y-117636776D01*
X138420205Y-117636773D01*
X138196104Y-117543947D01*
X137961785Y-117481161D01*
X137721289Y-117449500D01*
X137721288Y-117449500D01*
X137478712Y-117449500D01*
X137478711Y-117449500D01*
X137238214Y-117481161D01*
X137003895Y-117543947D01*
X136779794Y-117636773D01*
X136779785Y-117636777D01*
X136569706Y-117758067D01*
X136377263Y-117905733D01*
X136377256Y-117905739D01*
X136205739Y-118077256D01*
X136205733Y-118077263D01*
X136058067Y-118269706D01*
X135936777Y-118479785D01*
X135936773Y-118479794D01*
X135843947Y-118703895D01*
X135781161Y-118938214D01*
X135749500Y-119178711D01*
X134577950Y-119178711D01*
X134577950Y-115276000D01*
X134597635Y-115208961D01*
X134650439Y-115163206D01*
X134701950Y-115152000D01*
X135882000Y-115152000D01*
X136382000Y-115152000D01*
X138211828Y-115152000D01*
X138211844Y-115151999D01*
X138271372Y-115145598D01*
X138271379Y-115145596D01*
X138406086Y-115095354D01*
X138406093Y-115095350D01*
X138521187Y-115009190D01*
X138521190Y-115009187D01*
X138607350Y-114894093D01*
X138607354Y-114894086D01*
X138657596Y-114759379D01*
X138657598Y-114759372D01*
X138663999Y-114699844D01*
X138664000Y-114699827D01*
X138664000Y-114499844D01*
X162313450Y-114499844D01*
X162319851Y-114559372D01*
X162319853Y-114559379D01*
X162370095Y-114694086D01*
X162370099Y-114694093D01*
X162456259Y-114809187D01*
X162456262Y-114809190D01*
X162571356Y-114895350D01*
X162571363Y-114895354D01*
X162706070Y-114945596D01*
X162706077Y-114945598D01*
X162765605Y-114951999D01*
X162765622Y-114952000D01*
X164595450Y-114952000D01*
X164595450Y-113940000D01*
X162313450Y-113940000D01*
X162313450Y-114499844D01*
X138664000Y-114499844D01*
X138664000Y-114140000D01*
X136382000Y-114140000D01*
X136382000Y-115152000D01*
X135882000Y-115152000D01*
X135882000Y-113640000D01*
X136382000Y-113640000D01*
X138664000Y-113640000D01*
X138664000Y-113080172D01*
X138663999Y-113080155D01*
X138657598Y-113020627D01*
X138657596Y-113020620D01*
X138607354Y-112885913D01*
X138607350Y-112885906D01*
X138603045Y-112880155D01*
X162313450Y-112880155D01*
X162313450Y-113440000D01*
X164595450Y-113440000D01*
X164595450Y-112428000D01*
X162765605Y-112428000D01*
X162706077Y-112434401D01*
X162706070Y-112434403D01*
X162571363Y-112484645D01*
X162571356Y-112484649D01*
X162456262Y-112570809D01*
X162456259Y-112570812D01*
X162370099Y-112685906D01*
X162370095Y-112685913D01*
X162319853Y-112820620D01*
X162319851Y-112820627D01*
X162313450Y-112880155D01*
X138603045Y-112880155D01*
X138521190Y-112770812D01*
X138521187Y-112770809D01*
X138472979Y-112734720D01*
X149106279Y-112734720D01*
X149106279Y-112734722D01*
X149130072Y-112743597D01*
X149130073Y-112743598D01*
X149189605Y-112749999D01*
X149189622Y-112750000D01*
X151985278Y-112750000D01*
X151985294Y-112749999D01*
X152044826Y-112743598D01*
X152044827Y-112743597D01*
X152068620Y-112734722D01*
X152068620Y-112734720D01*
X151325805Y-111991905D01*
X151325785Y-111991889D01*
X151227450Y-111893554D01*
X151171908Y-111949096D01*
X151110585Y-111982581D01*
X151040893Y-111977597D01*
X151017207Y-111962374D01*
X151034614Y-111944968D01*
X151057450Y-111889837D01*
X151057450Y-111830163D01*
X151397450Y-111830163D01*
X151397450Y-111889837D01*
X151420286Y-111944968D01*
X151462482Y-111987164D01*
X151517613Y-112010000D01*
X151577287Y-112010000D01*
X151632418Y-111987164D01*
X151674614Y-111944968D01*
X151697450Y-111889837D01*
X151697450Y-111830163D01*
X151674614Y-111775032D01*
X151632418Y-111732836D01*
X151577287Y-111710000D01*
X151517613Y-111710000D01*
X151462482Y-111732836D01*
X151420286Y-111775032D01*
X151397450Y-111830163D01*
X151057450Y-111830163D01*
X151034614Y-111775032D01*
X150992418Y-111732836D01*
X150937287Y-111710000D01*
X150877613Y-111710000D01*
X150822482Y-111732836D01*
X150780286Y-111775032D01*
X150757450Y-111830163D01*
X150757450Y-111889837D01*
X150780286Y-111944968D01*
X150796401Y-111961083D01*
X150757031Y-111982581D01*
X150687339Y-111977597D01*
X150642992Y-111949096D01*
X150587450Y-111893554D01*
X150531908Y-111949096D01*
X150470585Y-111982581D01*
X150400893Y-111977597D01*
X150377207Y-111962374D01*
X150394614Y-111944968D01*
X150417450Y-111889837D01*
X150417450Y-111830163D01*
X150394614Y-111775032D01*
X150352418Y-111732836D01*
X150297287Y-111710000D01*
X150237613Y-111710000D01*
X150182482Y-111732836D01*
X150140286Y-111775032D01*
X150117450Y-111830163D01*
X150117450Y-111889837D01*
X150140286Y-111944968D01*
X150156401Y-111961083D01*
X150117031Y-111982581D01*
X150047339Y-111977597D01*
X150002992Y-111949096D01*
X149947450Y-111893554D01*
X149840547Y-112000457D01*
X149840542Y-112000459D01*
X149106279Y-112734720D01*
X138472979Y-112734720D01*
X138406093Y-112684649D01*
X138406086Y-112684645D01*
X138271379Y-112634403D01*
X138271372Y-112634401D01*
X138211844Y-112628000D01*
X136382000Y-112628000D01*
X136382000Y-113640000D01*
X135882000Y-113640000D01*
X135882000Y-112628000D01*
X134701950Y-112628000D01*
X134634911Y-112608315D01*
X134589156Y-112555511D01*
X134577950Y-112504000D01*
X134577950Y-110196000D01*
X134597635Y-110128961D01*
X134650439Y-110083206D01*
X134701950Y-110072000D01*
X135882000Y-110072000D01*
X136382000Y-110072000D01*
X138211828Y-110072000D01*
X138211844Y-110071999D01*
X138271372Y-110065598D01*
X138271379Y-110065596D01*
X138406086Y-110015354D01*
X138406093Y-110015350D01*
X138521187Y-109929190D01*
X138521190Y-109929187D01*
X138607350Y-109814093D01*
X138607354Y-109814086D01*
X138657596Y-109679379D01*
X138657598Y-109679372D01*
X138663999Y-109619844D01*
X138664000Y-109619827D01*
X138664000Y-109502157D01*
X148737450Y-109502157D01*
X148737450Y-112297844D01*
X148743851Y-112357375D01*
X148752727Y-112381170D01*
X149303735Y-111830163D01*
X149477450Y-111830163D01*
X149477450Y-111889837D01*
X149500286Y-111944968D01*
X149542482Y-111987164D01*
X149597613Y-112010000D01*
X149657287Y-112010000D01*
X149712418Y-111987164D01*
X149754614Y-111944968D01*
X149777450Y-111889837D01*
X149777450Y-111830163D01*
X149754614Y-111775032D01*
X149712418Y-111732836D01*
X149657287Y-111710000D01*
X149597613Y-111710000D01*
X149542482Y-111732836D01*
X149500286Y-111775032D01*
X149477450Y-111830163D01*
X149303735Y-111830163D01*
X149486980Y-111646918D01*
X149486993Y-111646903D01*
X149593896Y-111540000D01*
X149538354Y-111484458D01*
X149504869Y-111423135D01*
X149509853Y-111353443D01*
X149525075Y-111329757D01*
X149542482Y-111347164D01*
X149597613Y-111370000D01*
X149657287Y-111370000D01*
X149712418Y-111347164D01*
X149754614Y-111304968D01*
X149777450Y-111249837D01*
X149777450Y-111190163D01*
X150117450Y-111190163D01*
X150117450Y-111249837D01*
X150140286Y-111304968D01*
X150182482Y-111347164D01*
X150237613Y-111370000D01*
X150297287Y-111370000D01*
X150352418Y-111347164D01*
X150394614Y-111304968D01*
X150417450Y-111249837D01*
X150417450Y-111190163D01*
X150757450Y-111190163D01*
X150757450Y-111249837D01*
X150780286Y-111304968D01*
X150822482Y-111347164D01*
X150877613Y-111370000D01*
X150937287Y-111370000D01*
X150992418Y-111347164D01*
X151034614Y-111304968D01*
X151057450Y-111249837D01*
X151057450Y-111190163D01*
X151034614Y-111135032D01*
X150992418Y-111092836D01*
X150937287Y-111070000D01*
X150877613Y-111070000D01*
X150822482Y-111092836D01*
X150780286Y-111135032D01*
X150757450Y-111190163D01*
X150417450Y-111190163D01*
X150394614Y-111135032D01*
X150352418Y-111092836D01*
X150297287Y-111070000D01*
X150237613Y-111070000D01*
X150182482Y-111092836D01*
X150140286Y-111135032D01*
X150117450Y-111190163D01*
X149777450Y-111190163D01*
X149754614Y-111135032D01*
X149712418Y-111092836D01*
X149657287Y-111070000D01*
X149597613Y-111070000D01*
X149542482Y-111092836D01*
X149526366Y-111108951D01*
X149504869Y-111069581D01*
X149509853Y-110999889D01*
X149538354Y-110955542D01*
X149593896Y-110900000D01*
X149538354Y-110844458D01*
X149504869Y-110783135D01*
X149509853Y-110713443D01*
X149525075Y-110689757D01*
X149542482Y-110707164D01*
X149597613Y-110730000D01*
X149657287Y-110730000D01*
X149712418Y-110707164D01*
X149754614Y-110664968D01*
X149777450Y-110609837D01*
X149777450Y-110550163D01*
X150117450Y-110550163D01*
X150117450Y-110609837D01*
X150140286Y-110664968D01*
X150182482Y-110707164D01*
X150237613Y-110730000D01*
X150297287Y-110730000D01*
X150352418Y-110707164D01*
X150394614Y-110664968D01*
X150417450Y-110609837D01*
X150417450Y-110550163D01*
X150757450Y-110550163D01*
X150757450Y-110609837D01*
X150780286Y-110664968D01*
X150822482Y-110707164D01*
X150877613Y-110730000D01*
X150937287Y-110730000D01*
X150992418Y-110707164D01*
X151034614Y-110664968D01*
X151057450Y-110609837D01*
X151057450Y-110550163D01*
X151397450Y-110550163D01*
X151397450Y-110609837D01*
X151420286Y-110664968D01*
X151462482Y-110707164D01*
X151517613Y-110730000D01*
X151577287Y-110730000D01*
X151632418Y-110707164D01*
X151648533Y-110691048D01*
X151670031Y-110730419D01*
X151665047Y-110800111D01*
X151636546Y-110844458D01*
X151581004Y-110900000D01*
X151636546Y-110955542D01*
X151670031Y-111016865D01*
X151665047Y-111086557D01*
X151649824Y-111110242D01*
X151632418Y-111092836D01*
X151577287Y-111070000D01*
X151517613Y-111070000D01*
X151462482Y-111092836D01*
X151420286Y-111135032D01*
X151397450Y-111190163D01*
X151397450Y-111249837D01*
X151420286Y-111304968D01*
X151462482Y-111347164D01*
X151517613Y-111370000D01*
X151577287Y-111370000D01*
X151632418Y-111347164D01*
X151648533Y-111331048D01*
X151670031Y-111370419D01*
X151665047Y-111440111D01*
X151636546Y-111484458D01*
X151581004Y-111540000D01*
X151665639Y-111624635D01*
X151665641Y-111624639D01*
X152422172Y-112381170D01*
X152422173Y-112381170D01*
X152431048Y-112357375D01*
X152437449Y-112297844D01*
X152437450Y-112297827D01*
X152437450Y-109502172D01*
X152437449Y-109502155D01*
X152431048Y-109442626D01*
X152422550Y-109419844D01*
X162313450Y-109419844D01*
X162319851Y-109479372D01*
X162319853Y-109479379D01*
X162370095Y-109614086D01*
X162370099Y-109614093D01*
X162456259Y-109729187D01*
X162456262Y-109729190D01*
X162571356Y-109815350D01*
X162571363Y-109815354D01*
X162706070Y-109865596D01*
X162706077Y-109865598D01*
X162765605Y-109871999D01*
X162765622Y-109872000D01*
X164595450Y-109872000D01*
X164595450Y-108860000D01*
X162313450Y-108860000D01*
X162313450Y-109419844D01*
X152422550Y-109419844D01*
X152422171Y-109418828D01*
X151687922Y-110153077D01*
X151687906Y-110153098D01*
X151581004Y-110260000D01*
X151636546Y-110315542D01*
X151670031Y-110376865D01*
X151665047Y-110446557D01*
X151649824Y-110470242D01*
X151632418Y-110452836D01*
X151577287Y-110430000D01*
X151517613Y-110430000D01*
X151462482Y-110452836D01*
X151420286Y-110495032D01*
X151397450Y-110550163D01*
X151057450Y-110550163D01*
X151034614Y-110495032D01*
X150992418Y-110452836D01*
X150937287Y-110430000D01*
X150877613Y-110430000D01*
X150822482Y-110452836D01*
X150780286Y-110495032D01*
X150757450Y-110550163D01*
X150417450Y-110550163D01*
X150394614Y-110495032D01*
X150352418Y-110452836D01*
X150297287Y-110430000D01*
X150237613Y-110430000D01*
X150182482Y-110452836D01*
X150140286Y-110495032D01*
X150117450Y-110550163D01*
X149777450Y-110550163D01*
X149754614Y-110495032D01*
X149712418Y-110452836D01*
X149657287Y-110430000D01*
X149597613Y-110430000D01*
X149542482Y-110452836D01*
X149526366Y-110468951D01*
X149504869Y-110429581D01*
X149509853Y-110359889D01*
X149538354Y-110315542D01*
X149593896Y-110260000D01*
X149468114Y-110134218D01*
X149468112Y-110134215D01*
X149244060Y-109910163D01*
X149477450Y-109910163D01*
X149477450Y-109969837D01*
X149500286Y-110024968D01*
X149542482Y-110067164D01*
X149597613Y-110090000D01*
X149657287Y-110090000D01*
X149712418Y-110067164D01*
X149754614Y-110024968D01*
X149777450Y-109969837D01*
X149777450Y-109910163D01*
X149754614Y-109855032D01*
X149712418Y-109812836D01*
X149657287Y-109790000D01*
X149597613Y-109790000D01*
X149542482Y-109812836D01*
X149500286Y-109855032D01*
X149477450Y-109910163D01*
X149244060Y-109910163D01*
X148752727Y-109418829D01*
X148752724Y-109418829D01*
X148743854Y-109442615D01*
X148743851Y-109442625D01*
X148737450Y-109502157D01*
X138664000Y-109502157D01*
X138664000Y-109065277D01*
X149106277Y-109065277D01*
X149832513Y-109791513D01*
X149832534Y-109791530D01*
X149947450Y-109906446D01*
X150002992Y-109850904D01*
X150064315Y-109817419D01*
X150134007Y-109822403D01*
X150157692Y-109837625D01*
X150140286Y-109855032D01*
X150117450Y-109910163D01*
X150117450Y-109969837D01*
X150140286Y-110024968D01*
X150182482Y-110067164D01*
X150237613Y-110090000D01*
X150297287Y-110090000D01*
X150352418Y-110067164D01*
X150394614Y-110024968D01*
X150417450Y-109969837D01*
X150417450Y-109910163D01*
X150394614Y-109855032D01*
X150378498Y-109838916D01*
X150417869Y-109817419D01*
X150487561Y-109822403D01*
X150531908Y-109850904D01*
X150587450Y-109906446D01*
X150642992Y-109850904D01*
X150704315Y-109817419D01*
X150774007Y-109822403D01*
X150797692Y-109837625D01*
X150780286Y-109855032D01*
X150757450Y-109910163D01*
X150757450Y-109969837D01*
X150780286Y-110024968D01*
X150822482Y-110067164D01*
X150877613Y-110090000D01*
X150937287Y-110090000D01*
X150992418Y-110067164D01*
X151034614Y-110024968D01*
X151057450Y-109969837D01*
X151057450Y-109910163D01*
X151397450Y-109910163D01*
X151397450Y-109969837D01*
X151420286Y-110024968D01*
X151462482Y-110067164D01*
X151517613Y-110090000D01*
X151577287Y-110090000D01*
X151632418Y-110067164D01*
X151674614Y-110024968D01*
X151697450Y-109969837D01*
X151697450Y-109910163D01*
X151674614Y-109855032D01*
X151632418Y-109812836D01*
X151577287Y-109790000D01*
X151517613Y-109790000D01*
X151462482Y-109812836D01*
X151420286Y-109855032D01*
X151397450Y-109910163D01*
X151057450Y-109910163D01*
X151034614Y-109855032D01*
X151018498Y-109838916D01*
X151057869Y-109817419D01*
X151127561Y-109822403D01*
X151171908Y-109850904D01*
X151227450Y-109906446D01*
X152068620Y-109065276D01*
X152044823Y-109056401D01*
X151985294Y-109050000D01*
X149189605Y-109050000D01*
X149130074Y-109056401D01*
X149130072Y-109056402D01*
X149106278Y-109065276D01*
X149106277Y-109065277D01*
X138664000Y-109065277D01*
X138664000Y-109060000D01*
X136382000Y-109060000D01*
X136382000Y-110072000D01*
X135882000Y-110072000D01*
X135882000Y-108560000D01*
X136382000Y-108560000D01*
X138664000Y-108560000D01*
X138664000Y-108000172D01*
X138663999Y-108000155D01*
X138657598Y-107940627D01*
X138657596Y-107940620D01*
X138607354Y-107805913D01*
X138607350Y-107805906D01*
X138603045Y-107800155D01*
X162313450Y-107800155D01*
X162313450Y-108360000D01*
X164595450Y-108360000D01*
X164595450Y-107348000D01*
X162765605Y-107348000D01*
X162706077Y-107354401D01*
X162706070Y-107354403D01*
X162571363Y-107404645D01*
X162571356Y-107404649D01*
X162456262Y-107490809D01*
X162456259Y-107490812D01*
X162370099Y-107605906D01*
X162370095Y-107605913D01*
X162319853Y-107740620D01*
X162319851Y-107740627D01*
X162313450Y-107800155D01*
X138603045Y-107800155D01*
X138521190Y-107690812D01*
X138521187Y-107690809D01*
X138406093Y-107604649D01*
X138406086Y-107604645D01*
X138271379Y-107554403D01*
X138271372Y-107554401D01*
X138211844Y-107548000D01*
X136382000Y-107548000D01*
X136382000Y-108560000D01*
X135882000Y-108560000D01*
X135882000Y-107548000D01*
X134701950Y-107548000D01*
X134634911Y-107528315D01*
X134589156Y-107475511D01*
X134577950Y-107424000D01*
X134577950Y-99602135D01*
X141582050Y-99602135D01*
X141582050Y-101397870D01*
X141582051Y-101397876D01*
X141588458Y-101457483D01*
X141638752Y-101592328D01*
X141638756Y-101592335D01*
X141725002Y-101707544D01*
X141725005Y-101707547D01*
X141840214Y-101793793D01*
X141840221Y-101793797D01*
X141975067Y-101844091D01*
X141975066Y-101844091D01*
X141981994Y-101844835D01*
X142034677Y-101850500D01*
X143830422Y-101850499D01*
X143890033Y-101844091D01*
X144024881Y-101793796D01*
X144140096Y-101707546D01*
X144226346Y-101592331D01*
X144275360Y-101460916D01*
X144317231Y-101404984D01*
X144382695Y-101380566D01*
X144450968Y-101395417D01*
X144479223Y-101416569D01*
X144601149Y-101538495D01*
X144697934Y-101606265D01*
X144794715Y-101674032D01*
X144794717Y-101674033D01*
X144794720Y-101674035D01*
X145008887Y-101773903D01*
X145237142Y-101835063D01*
X145413584Y-101850500D01*
X145472549Y-101855659D01*
X145472550Y-101855659D01*
X145472551Y-101855659D01*
X145531516Y-101850500D01*
X145707958Y-101835063D01*
X145936213Y-101773903D01*
X146150380Y-101674035D01*
X146343951Y-101538495D01*
X146511045Y-101371401D01*
X146640975Y-101185842D01*
X146695552Y-101142217D01*
X146765050Y-101135023D01*
X146827405Y-101166546D01*
X146844125Y-101185842D01*
X146974050Y-101371395D01*
X146974055Y-101371401D01*
X147141149Y-101538495D01*
X147237934Y-101606265D01*
X147334715Y-101674032D01*
X147334717Y-101674033D01*
X147334720Y-101674035D01*
X147548887Y-101773903D01*
X147777142Y-101835063D01*
X147953584Y-101850500D01*
X148012549Y-101855659D01*
X148012550Y-101855659D01*
X148012551Y-101855659D01*
X148071516Y-101850500D01*
X148247958Y-101835063D01*
X148476213Y-101773903D01*
X148690380Y-101674035D01*
X148883951Y-101538495D01*
X149051045Y-101371401D01*
X149180975Y-101185842D01*
X149235552Y-101142217D01*
X149305050Y-101135023D01*
X149367405Y-101166546D01*
X149384125Y-101185842D01*
X149514050Y-101371395D01*
X149514055Y-101371401D01*
X149681149Y-101538495D01*
X149777934Y-101606265D01*
X149874715Y-101674032D01*
X149874717Y-101674033D01*
X149874720Y-101674035D01*
X150088887Y-101773903D01*
X150317142Y-101835063D01*
X150493584Y-101850500D01*
X150552549Y-101855659D01*
X150552550Y-101855659D01*
X150552551Y-101855659D01*
X150611516Y-101850500D01*
X150787958Y-101835063D01*
X151016213Y-101773903D01*
X151230380Y-101674035D01*
X151423951Y-101538495D01*
X151591045Y-101371401D01*
X151726585Y-101177830D01*
X151826453Y-100963663D01*
X151887613Y-100735408D01*
X151908209Y-100500000D01*
X151887613Y-100264592D01*
X151826453Y-100036337D01*
X151726585Y-99822171D01*
X151720975Y-99814158D01*
X151591044Y-99628597D01*
X151423952Y-99461506D01*
X151423945Y-99461501D01*
X151230384Y-99325967D01*
X151230380Y-99325965D01*
X151230378Y-99325964D01*
X151016213Y-99226097D01*
X151016209Y-99226096D01*
X151016205Y-99226094D01*
X150787963Y-99164938D01*
X150787953Y-99164936D01*
X150552551Y-99144341D01*
X150552549Y-99144341D01*
X150317146Y-99164936D01*
X150317136Y-99164938D01*
X150088894Y-99226094D01*
X150088885Y-99226098D01*
X149874721Y-99325964D01*
X149874719Y-99325965D01*
X149681147Y-99461505D01*
X149514055Y-99628597D01*
X149384125Y-99814158D01*
X149329548Y-99857783D01*
X149260050Y-99864977D01*
X149197695Y-99833454D01*
X149180975Y-99814158D01*
X149051044Y-99628597D01*
X148883952Y-99461506D01*
X148883945Y-99461501D01*
X148690384Y-99325967D01*
X148690380Y-99325965D01*
X148690378Y-99325964D01*
X148476213Y-99226097D01*
X148476209Y-99226096D01*
X148476205Y-99226094D01*
X148247963Y-99164938D01*
X148247953Y-99164936D01*
X148012551Y-99144341D01*
X148012549Y-99144341D01*
X147777146Y-99164936D01*
X147777136Y-99164938D01*
X147548894Y-99226094D01*
X147548885Y-99226098D01*
X147334721Y-99325964D01*
X147334719Y-99325965D01*
X147141147Y-99461505D01*
X146974055Y-99628597D01*
X146844125Y-99814158D01*
X146789548Y-99857783D01*
X146720050Y-99864977D01*
X146657695Y-99833454D01*
X146640975Y-99814158D01*
X146511044Y-99628597D01*
X146343952Y-99461506D01*
X146343945Y-99461501D01*
X146150384Y-99325967D01*
X146150380Y-99325965D01*
X146150378Y-99325964D01*
X145936213Y-99226097D01*
X145936209Y-99226096D01*
X145936205Y-99226094D01*
X145707963Y-99164938D01*
X145707953Y-99164936D01*
X145472551Y-99144341D01*
X145472549Y-99144341D01*
X145237146Y-99164936D01*
X145237136Y-99164938D01*
X145008894Y-99226094D01*
X145008885Y-99226098D01*
X144794721Y-99325964D01*
X144794719Y-99325965D01*
X144601150Y-99461503D01*
X144479223Y-99583430D01*
X144417900Y-99616914D01*
X144348208Y-99611930D01*
X144292275Y-99570058D01*
X144275360Y-99539081D01*
X144226347Y-99407671D01*
X144226343Y-99407664D01*
X144140097Y-99292455D01*
X144140094Y-99292452D01*
X144024885Y-99206206D01*
X144024878Y-99206202D01*
X143890032Y-99155908D01*
X143890033Y-99155908D01*
X143830433Y-99149501D01*
X143830431Y-99149500D01*
X143830423Y-99149500D01*
X143830414Y-99149500D01*
X142034679Y-99149500D01*
X142034673Y-99149501D01*
X141975066Y-99155908D01*
X141840221Y-99206202D01*
X141840214Y-99206206D01*
X141725005Y-99292452D01*
X141725002Y-99292455D01*
X141638756Y-99407664D01*
X141638752Y-99407671D01*
X141588458Y-99542517D01*
X141582051Y-99602116D01*
X141582050Y-99602135D01*
X134577950Y-99602135D01*
X134577950Y-95478711D01*
X135649500Y-95478711D01*
X135649500Y-95721288D01*
X135681161Y-95961785D01*
X135743947Y-96196104D01*
X135836773Y-96420205D01*
X135836776Y-96420212D01*
X135958064Y-96630289D01*
X135958066Y-96630292D01*
X135958067Y-96630293D01*
X136105733Y-96822736D01*
X136105739Y-96822743D01*
X136277256Y-96994260D01*
X136277262Y-96994265D01*
X136469711Y-97141936D01*
X136679788Y-97263224D01*
X136903900Y-97356054D01*
X137138211Y-97418838D01*
X137318586Y-97442584D01*
X137378711Y-97450500D01*
X137378712Y-97450500D01*
X137621289Y-97450500D01*
X137669388Y-97444167D01*
X137861789Y-97418838D01*
X138096100Y-97356054D01*
X138320212Y-97263224D01*
X138530289Y-97141936D01*
X138722738Y-96994265D01*
X138894265Y-96822738D01*
X139041936Y-96630289D01*
X139163224Y-96420212D01*
X139256054Y-96196100D01*
X139318838Y-95961789D01*
X139350500Y-95721288D01*
X139350500Y-95478712D01*
X139318838Y-95238211D01*
X139256054Y-95003900D01*
X139163224Y-94779788D01*
X139041936Y-94569711D01*
X138937859Y-94434075D01*
X138894266Y-94377263D01*
X138894260Y-94377256D01*
X138722743Y-94205739D01*
X138722736Y-94205733D01*
X138530293Y-94058067D01*
X138530292Y-94058066D01*
X138530289Y-94058064D01*
X138520020Y-94052135D01*
X142699500Y-94052135D01*
X142699500Y-95847870D01*
X142699501Y-95847876D01*
X142705908Y-95907483D01*
X142756202Y-96042328D01*
X142756206Y-96042335D01*
X142842452Y-96157544D01*
X142842455Y-96157547D01*
X142957664Y-96243793D01*
X142957671Y-96243797D01*
X143092517Y-96294091D01*
X143092516Y-96294091D01*
X143099444Y-96294835D01*
X143152127Y-96300500D01*
X144947872Y-96300499D01*
X145007483Y-96294091D01*
X145142331Y-96243796D01*
X145257546Y-96157546D01*
X145343796Y-96042331D01*
X145393002Y-95910401D01*
X145434872Y-95854468D01*
X145500337Y-95830050D01*
X145568610Y-95844901D01*
X145596865Y-95866053D01*
X145718917Y-95988105D01*
X145912421Y-96123600D01*
X146126507Y-96223429D01*
X146126516Y-96223433D01*
X146340000Y-96280634D01*
X146340000Y-95383012D01*
X146397007Y-95415925D01*
X146524174Y-95450000D01*
X146655826Y-95450000D01*
X146782993Y-95415925D01*
X146840000Y-95383012D01*
X146840000Y-96280633D01*
X147053483Y-96223433D01*
X147053492Y-96223429D01*
X147267578Y-96123600D01*
X147461082Y-95988105D01*
X147628105Y-95821082D01*
X147758119Y-95635405D01*
X147812696Y-95591781D01*
X147882195Y-95584588D01*
X147944549Y-95616110D01*
X147961269Y-95635405D01*
X148091505Y-95821401D01*
X148258599Y-95988495D01*
X148355384Y-96056265D01*
X148452165Y-96124032D01*
X148452167Y-96124033D01*
X148452170Y-96124035D01*
X148666337Y-96223903D01*
X148666343Y-96223904D01*
X148666344Y-96223905D01*
X148721285Y-96238626D01*
X148894592Y-96285063D01*
X149071034Y-96300500D01*
X149129999Y-96305659D01*
X149130000Y-96305659D01*
X149130001Y-96305659D01*
X149188966Y-96300500D01*
X149365408Y-96285063D01*
X149593663Y-96223903D01*
X149807830Y-96124035D01*
X150001401Y-95988495D01*
X150168495Y-95821401D01*
X150304035Y-95627830D01*
X150403903Y-95413663D01*
X150465063Y-95185408D01*
X150485659Y-94950000D01*
X150465063Y-94714592D01*
X150447756Y-94649999D01*
X151529364Y-94649999D01*
X151529364Y-94650000D01*
X152426988Y-94650000D01*
X152394075Y-94707007D01*
X152360000Y-94834174D01*
X152360000Y-94965826D01*
X152394075Y-95092993D01*
X152426988Y-95150000D01*
X151529364Y-95150000D01*
X151586567Y-95363486D01*
X151586570Y-95363492D01*
X151686399Y-95577578D01*
X151821894Y-95771082D01*
X151988917Y-95938105D01*
X152182421Y-96073600D01*
X152396507Y-96173429D01*
X152396516Y-96173433D01*
X152610000Y-96230634D01*
X152610000Y-95333012D01*
X152667007Y-95365925D01*
X152794174Y-95400000D01*
X152925826Y-95400000D01*
X153052993Y-95365925D01*
X153110000Y-95333012D01*
X153110000Y-96230633D01*
X153323483Y-96173433D01*
X153323492Y-96173429D01*
X153537578Y-96073600D01*
X153731078Y-95938108D01*
X153853133Y-95816053D01*
X153914456Y-95782568D01*
X153984148Y-95787552D01*
X154040082Y-95829423D01*
X154056997Y-95860401D01*
X154106202Y-95992328D01*
X154106206Y-95992335D01*
X154192452Y-96107544D01*
X154192455Y-96107547D01*
X154307664Y-96193793D01*
X154307671Y-96193797D01*
X154442517Y-96244091D01*
X154442516Y-96244091D01*
X154449444Y-96244835D01*
X154502127Y-96250500D01*
X156297872Y-96250499D01*
X156357483Y-96244091D01*
X156492331Y-96193796D01*
X156607546Y-96107546D01*
X156693796Y-95992331D01*
X156744091Y-95857483D01*
X156750500Y-95797873D01*
X156750500Y-95478711D01*
X161549500Y-95478711D01*
X161549500Y-95721288D01*
X161581161Y-95961785D01*
X161643947Y-96196104D01*
X161736773Y-96420205D01*
X161736776Y-96420212D01*
X161858064Y-96630289D01*
X161858066Y-96630292D01*
X161858067Y-96630293D01*
X162005733Y-96822736D01*
X162005739Y-96822743D01*
X162177256Y-96994260D01*
X162177262Y-96994265D01*
X162369711Y-97141936D01*
X162579788Y-97263224D01*
X162803900Y-97356054D01*
X163038211Y-97418838D01*
X163218586Y-97442584D01*
X163278711Y-97450500D01*
X163278712Y-97450500D01*
X163521289Y-97450500D01*
X163569388Y-97444167D01*
X163761789Y-97418838D01*
X163996100Y-97356054D01*
X164220212Y-97263224D01*
X164430289Y-97141936D01*
X164622738Y-96994265D01*
X164794265Y-96822738D01*
X164941936Y-96630289D01*
X165063224Y-96420212D01*
X165156054Y-96196100D01*
X165218838Y-95961789D01*
X165250500Y-95721288D01*
X165250500Y-95478712D01*
X165218838Y-95238211D01*
X165156054Y-95003900D01*
X165063224Y-94779788D01*
X164941936Y-94569711D01*
X164837859Y-94434075D01*
X164794266Y-94377263D01*
X164794260Y-94377256D01*
X164622743Y-94205739D01*
X164622736Y-94205733D01*
X164430293Y-94058067D01*
X164430292Y-94058066D01*
X164430289Y-94058064D01*
X164220212Y-93936776D01*
X164220205Y-93936773D01*
X163996104Y-93843947D01*
X163761785Y-93781161D01*
X163521289Y-93749500D01*
X163521288Y-93749500D01*
X163278712Y-93749500D01*
X163278711Y-93749500D01*
X163038214Y-93781161D01*
X162803895Y-93843947D01*
X162579794Y-93936773D01*
X162579785Y-93936777D01*
X162411483Y-94033947D01*
X162379993Y-94052128D01*
X162369706Y-94058067D01*
X162177263Y-94205733D01*
X162177256Y-94205739D01*
X162005739Y-94377256D01*
X162005733Y-94377263D01*
X161858067Y-94569706D01*
X161736777Y-94779785D01*
X161736773Y-94779794D01*
X161643947Y-95003895D01*
X161581161Y-95238214D01*
X161549500Y-95478711D01*
X156750500Y-95478711D01*
X156750499Y-94002128D01*
X156744091Y-93942517D01*
X156743002Y-93939598D01*
X156693797Y-93807671D01*
X156693793Y-93807664D01*
X156607547Y-93692455D01*
X156607544Y-93692452D01*
X156492335Y-93606206D01*
X156492328Y-93606202D01*
X156357482Y-93555908D01*
X156357483Y-93555908D01*
X156297883Y-93549501D01*
X156297881Y-93549500D01*
X156297873Y-93549500D01*
X156297864Y-93549500D01*
X154502129Y-93549500D01*
X154502123Y-93549501D01*
X154442516Y-93555908D01*
X154307671Y-93606202D01*
X154307664Y-93606206D01*
X154192455Y-93692452D01*
X154192452Y-93692455D01*
X154106206Y-93807664D01*
X154106202Y-93807671D01*
X154056997Y-93939598D01*
X154015126Y-93995532D01*
X153949661Y-94019949D01*
X153881388Y-94005097D01*
X153853134Y-93983946D01*
X153731082Y-93861894D01*
X153537578Y-93726399D01*
X153323492Y-93626570D01*
X153323486Y-93626567D01*
X153110000Y-93569364D01*
X153110000Y-94466988D01*
X153052993Y-94434075D01*
X152925826Y-94400000D01*
X152794174Y-94400000D01*
X152667007Y-94434075D01*
X152610000Y-94466988D01*
X152610000Y-93569364D01*
X152609999Y-93569364D01*
X152396513Y-93626567D01*
X152396507Y-93626570D01*
X152182422Y-93726399D01*
X152182420Y-93726400D01*
X151988926Y-93861886D01*
X151988920Y-93861891D01*
X151821891Y-94028920D01*
X151821886Y-94028926D01*
X151686400Y-94222420D01*
X151686399Y-94222422D01*
X151586570Y-94436507D01*
X151586567Y-94436513D01*
X151529364Y-94649999D01*
X150447756Y-94649999D01*
X150418626Y-94541285D01*
X150403905Y-94486344D01*
X150403904Y-94486343D01*
X150403903Y-94486337D01*
X150304035Y-94272171D01*
X150298731Y-94264595D01*
X150168494Y-94078597D01*
X150001402Y-93911506D01*
X150001395Y-93911501D01*
X149807834Y-93775967D01*
X149807830Y-93775965D01*
X149807828Y-93775964D01*
X149593663Y-93676097D01*
X149593659Y-93676096D01*
X149593655Y-93676094D01*
X149365413Y-93614938D01*
X149365403Y-93614936D01*
X149130001Y-93594341D01*
X149129999Y-93594341D01*
X148894596Y-93614936D01*
X148894586Y-93614938D01*
X148666344Y-93676094D01*
X148666335Y-93676098D01*
X148452171Y-93775964D01*
X148452169Y-93775965D01*
X148258597Y-93911505D01*
X148091508Y-94078594D01*
X147961269Y-94264595D01*
X147906692Y-94308219D01*
X147837193Y-94315412D01*
X147774839Y-94283890D01*
X147758119Y-94264594D01*
X147628113Y-94078926D01*
X147628108Y-94078920D01*
X147461082Y-93911894D01*
X147267578Y-93776399D01*
X147053492Y-93676570D01*
X147053486Y-93676567D01*
X146840000Y-93619364D01*
X146840000Y-94516988D01*
X146782993Y-94484075D01*
X146655826Y-94450000D01*
X146524174Y-94450000D01*
X146397007Y-94484075D01*
X146340000Y-94516988D01*
X146340000Y-93619364D01*
X146339999Y-93619364D01*
X146126513Y-93676567D01*
X146126507Y-93676570D01*
X145912422Y-93776399D01*
X145912420Y-93776400D01*
X145718926Y-93911886D01*
X145596865Y-94033947D01*
X145535542Y-94067431D01*
X145465850Y-94062447D01*
X145409917Y-94020575D01*
X145393002Y-93989598D01*
X145374353Y-93939598D01*
X145343796Y-93857669D01*
X145343795Y-93857668D01*
X145343793Y-93857664D01*
X145257547Y-93742455D01*
X145257544Y-93742452D01*
X145142335Y-93656206D01*
X145142328Y-93656202D01*
X145007482Y-93605908D01*
X145007483Y-93605908D01*
X144947883Y-93599501D01*
X144947881Y-93599500D01*
X144947873Y-93599500D01*
X144947864Y-93599500D01*
X143152129Y-93599500D01*
X143152123Y-93599501D01*
X143092516Y-93605908D01*
X142957671Y-93656202D01*
X142957664Y-93656206D01*
X142842455Y-93742452D01*
X142842452Y-93742455D01*
X142756206Y-93857664D01*
X142756202Y-93857671D01*
X142705908Y-93992517D01*
X142699501Y-94052116D01*
X142699500Y-94052135D01*
X138520020Y-94052135D01*
X138320212Y-93936776D01*
X138320205Y-93936773D01*
X138096104Y-93843947D01*
X137861785Y-93781161D01*
X137621289Y-93749500D01*
X137621288Y-93749500D01*
X137378712Y-93749500D01*
X137378711Y-93749500D01*
X137138214Y-93781161D01*
X136903895Y-93843947D01*
X136679794Y-93936773D01*
X136679785Y-93936777D01*
X136511483Y-94033947D01*
X136479993Y-94052128D01*
X136469706Y-94058067D01*
X136277263Y-94205733D01*
X136277256Y-94205739D01*
X136105739Y-94377256D01*
X136105733Y-94377263D01*
X135958067Y-94569706D01*
X135836777Y-94779785D01*
X135836773Y-94779794D01*
X135743947Y-95003895D01*
X135681161Y-95238214D01*
X135649500Y-95478711D01*
X134577950Y-95478711D01*
X134577950Y-92774500D01*
X134597635Y-92707461D01*
X134650439Y-92661706D01*
X134701950Y-92650500D01*
X166252950Y-92650500D01*
X166319989Y-92670185D01*
G37*
%TD.AperFunction*%
%TD*%
M02*
