%TF.GenerationSoftware,KiCad,Pcbnew,8.0.8*%
%TF.CreationDate,2025-02-12T15:11:31-05:00*%
%TF.ProjectId,pa-test-board,70612d74-6573-4742-9d62-6f6172642e6b,rev?*%
%TF.SameCoordinates,Original*%
%TF.FileFunction,Legend,Top*%
%TF.FilePolarity,Positive*%
%FSLAX46Y46*%
G04 Gerber Fmt 4.6, Leading zero omitted, Abs format (unit mm)*
G04 Created by KiCad (PCBNEW 8.0.8) date 2025-02-12 15:11:31*
%MOMM*%
%LPD*%
G01*
G04 APERTURE LIST*
G04 Aperture macros list*
%AMRoundRect*
0 Rectangle with rounded corners*
0 $1 Rounding radius*
0 $2 $3 $4 $5 $6 $7 $8 $9 X,Y pos of 4 corners*
0 Add a 4 corners polygon primitive as box body*
4,1,4,$2,$3,$4,$5,$6,$7,$8,$9,$2,$3,0*
0 Add four circle primitives for the rounded corners*
1,1,$1+$1,$2,$3*
1,1,$1+$1,$4,$5*
1,1,$1+$1,$6,$7*
1,1,$1+$1,$8,$9*
0 Add four rect primitives between the rounded corners*
20,1,$1+$1,$2,$3,$4,$5,0*
20,1,$1+$1,$4,$5,$6,$7,0*
20,1,$1+$1,$6,$7,$8,$9,0*
20,1,$1+$1,$8,$9,$2,$3,0*%
G04 Aperture macros list end*
%ADD10C,0.100000*%
%ADD11C,0.150000*%
%ADD12C,0.120000*%
%ADD13C,0.200000*%
%ADD14RoundRect,0.250000X0.337500X0.475000X-0.337500X0.475000X-0.337500X-0.475000X0.337500X-0.475000X0*%
%ADD15RoundRect,0.250000X0.450000X-0.350000X0.450000X0.350000X-0.450000X0.350000X-0.450000X-0.350000X0*%
%ADD16RoundRect,0.250000X-0.350000X-0.450000X0.350000X-0.450000X0.350000X0.450000X-0.350000X0.450000X0*%
%ADD17RoundRect,0.250000X-0.450000X0.350000X-0.450000X-0.350000X0.450000X-0.350000X0.450000X0.350000X0*%
%ADD18R,1.700000X1.700000*%
%ADD19O,1.700000X1.700000*%
%ADD20RoundRect,0.250000X0.450000X-0.325000X0.450000X0.325000X-0.450000X0.325000X-0.450000X-0.325000X0*%
%ADD21C,3.200000*%
%ADD22RoundRect,0.162500X0.162500X-0.447500X0.162500X0.447500X-0.162500X0.447500X-0.162500X-0.447500X0*%
%ADD23RoundRect,0.250000X-0.325000X-0.450000X0.325000X-0.450000X0.325000X0.450000X-0.325000X0.450000X0*%
%ADD24RoundRect,0.250000X-0.337500X-0.475000X0.337500X-0.475000X0.337500X0.475000X-0.337500X0.475000X0*%
%ADD25RoundRect,0.101600X2.032000X-0.635000X2.032000X0.635000X-2.032000X0.635000X-2.032000X-0.635000X0*%
%ADD26RoundRect,0.101600X2.032000X-0.762000X2.032000X0.762000X-2.032000X0.762000X-2.032000X-0.762000X0*%
%ADD27RoundRect,0.250000X-0.475000X0.337500X-0.475000X-0.337500X0.475000X-0.337500X0.475000X0.337500X0*%
%ADD28RoundRect,0.250000X-0.450000X0.325000X-0.450000X-0.325000X0.450000X-0.325000X0.450000X0.325000X0*%
%ADD29RoundRect,0.150000X-0.512500X-0.150000X0.512500X-0.150000X0.512500X0.150000X-0.512500X0.150000X0*%
%ADD30RoundRect,0.101600X-2.032000X0.635000X-2.032000X-0.635000X2.032000X-0.635000X2.032000X0.635000X0*%
%ADD31RoundRect,0.101600X-2.032000X0.762000X-2.032000X-0.762000X2.032000X-0.762000X2.032000X0.762000X0*%
%ADD32O,0.700000X0.380000*%
%ADD33O,0.380000X0.700000*%
%ADD34C,0.500000*%
%ADD35R,2.700000X2.700000*%
%ADD36RoundRect,0.250000X0.475000X-0.337500X0.475000X0.337500X-0.475000X0.337500X-0.475000X-0.337500X0*%
G04 APERTURE END LIST*
D10*
X141437217Y-94596895D02*
X141056265Y-94596895D01*
X141056265Y-94596895D02*
X141018169Y-94977847D01*
X141018169Y-94977847D02*
X141056265Y-94939752D01*
X141056265Y-94939752D02*
X141132455Y-94901657D01*
X141132455Y-94901657D02*
X141322931Y-94901657D01*
X141322931Y-94901657D02*
X141399122Y-94939752D01*
X141399122Y-94939752D02*
X141437217Y-94977847D01*
X141437217Y-94977847D02*
X141475312Y-95054038D01*
X141475312Y-95054038D02*
X141475312Y-95244514D01*
X141475312Y-95244514D02*
X141437217Y-95320704D01*
X141437217Y-95320704D02*
X141399122Y-95358800D01*
X141399122Y-95358800D02*
X141322931Y-95396895D01*
X141322931Y-95396895D02*
X141132455Y-95396895D01*
X141132455Y-95396895D02*
X141056265Y-95358800D01*
X141056265Y-95358800D02*
X141018169Y-95320704D01*
X141703884Y-94596895D02*
X141970551Y-95396895D01*
X141970551Y-95396895D02*
X142237217Y-94596895D01*
X135613408Y-107196895D02*
X135346741Y-106815942D01*
X135156265Y-107196895D02*
X135156265Y-106396895D01*
X135156265Y-106396895D02*
X135461027Y-106396895D01*
X135461027Y-106396895D02*
X135537217Y-106434990D01*
X135537217Y-106434990D02*
X135575312Y-106473085D01*
X135575312Y-106473085D02*
X135613408Y-106549276D01*
X135613408Y-106549276D02*
X135613408Y-106663561D01*
X135613408Y-106663561D02*
X135575312Y-106739752D01*
X135575312Y-106739752D02*
X135537217Y-106777847D01*
X135537217Y-106777847D02*
X135461027Y-106815942D01*
X135461027Y-106815942D02*
X135156265Y-106815942D01*
X136222931Y-106777847D02*
X135956265Y-106777847D01*
X135956265Y-107196895D02*
X135956265Y-106396895D01*
X135956265Y-106396895D02*
X136337217Y-106396895D01*
X136451503Y-107273085D02*
X137061026Y-107273085D01*
X137251503Y-107196895D02*
X137251503Y-106396895D01*
X137632455Y-107196895D02*
X137632455Y-106396895D01*
X137632455Y-106396895D02*
X138089598Y-107196895D01*
X138089598Y-107196895D02*
X138089598Y-106396895D01*
X156956265Y-96496895D02*
X156956265Y-95696895D01*
X157337217Y-96496895D02*
X157337217Y-95696895D01*
X157337217Y-95696895D02*
X157794360Y-96496895D01*
X157794360Y-96496895D02*
X157794360Y-95696895D01*
X162713408Y-106896895D02*
X162446741Y-106515942D01*
X162256265Y-106896895D02*
X162256265Y-106096895D01*
X162256265Y-106096895D02*
X162561027Y-106096895D01*
X162561027Y-106096895D02*
X162637217Y-106134990D01*
X162637217Y-106134990D02*
X162675312Y-106173085D01*
X162675312Y-106173085D02*
X162713408Y-106249276D01*
X162713408Y-106249276D02*
X162713408Y-106363561D01*
X162713408Y-106363561D02*
X162675312Y-106439752D01*
X162675312Y-106439752D02*
X162637217Y-106477847D01*
X162637217Y-106477847D02*
X162561027Y-106515942D01*
X162561027Y-106515942D02*
X162256265Y-106515942D01*
X163322931Y-106477847D02*
X163056265Y-106477847D01*
X163056265Y-106896895D02*
X163056265Y-106096895D01*
X163056265Y-106096895D02*
X163437217Y-106096895D01*
X163551503Y-106973085D02*
X164161026Y-106973085D01*
X164503884Y-106096895D02*
X164656265Y-106096895D01*
X164656265Y-106096895D02*
X164732455Y-106134990D01*
X164732455Y-106134990D02*
X164808646Y-106211180D01*
X164808646Y-106211180D02*
X164846741Y-106363561D01*
X164846741Y-106363561D02*
X164846741Y-106630228D01*
X164846741Y-106630228D02*
X164808646Y-106782609D01*
X164808646Y-106782609D02*
X164732455Y-106858800D01*
X164732455Y-106858800D02*
X164656265Y-106896895D01*
X164656265Y-106896895D02*
X164503884Y-106896895D01*
X164503884Y-106896895D02*
X164427693Y-106858800D01*
X164427693Y-106858800D02*
X164351503Y-106782609D01*
X164351503Y-106782609D02*
X164313407Y-106630228D01*
X164313407Y-106630228D02*
X164313407Y-106363561D01*
X164313407Y-106363561D02*
X164351503Y-106211180D01*
X164351503Y-106211180D02*
X164427693Y-106134990D01*
X164427693Y-106134990D02*
X164503884Y-106096895D01*
X165189598Y-106096895D02*
X165189598Y-106744514D01*
X165189598Y-106744514D02*
X165227693Y-106820704D01*
X165227693Y-106820704D02*
X165265788Y-106858800D01*
X165265788Y-106858800D02*
X165341979Y-106896895D01*
X165341979Y-106896895D02*
X165494360Y-106896895D01*
X165494360Y-106896895D02*
X165570550Y-106858800D01*
X165570550Y-106858800D02*
X165608645Y-106820704D01*
X165608645Y-106820704D02*
X165646741Y-106744514D01*
X165646741Y-106744514D02*
X165646741Y-106096895D01*
X165913407Y-106096895D02*
X166370550Y-106096895D01*
X166141978Y-106896895D02*
X166141978Y-106096895D01*
X142075312Y-102334990D02*
X141999122Y-102296895D01*
X141999122Y-102296895D02*
X141884836Y-102296895D01*
X141884836Y-102296895D02*
X141770550Y-102334990D01*
X141770550Y-102334990D02*
X141694360Y-102411180D01*
X141694360Y-102411180D02*
X141656265Y-102487371D01*
X141656265Y-102487371D02*
X141618169Y-102639752D01*
X141618169Y-102639752D02*
X141618169Y-102754038D01*
X141618169Y-102754038D02*
X141656265Y-102906419D01*
X141656265Y-102906419D02*
X141694360Y-102982609D01*
X141694360Y-102982609D02*
X141770550Y-103058800D01*
X141770550Y-103058800D02*
X141884836Y-103096895D01*
X141884836Y-103096895D02*
X141961027Y-103096895D01*
X141961027Y-103096895D02*
X142075312Y-103058800D01*
X142075312Y-103058800D02*
X142113408Y-103020704D01*
X142113408Y-103020704D02*
X142113408Y-102754038D01*
X142113408Y-102754038D02*
X141961027Y-102754038D01*
X142456265Y-103096895D02*
X142456265Y-102296895D01*
X142456265Y-102296895D02*
X142913408Y-103096895D01*
X142913408Y-103096895D02*
X142913408Y-102296895D01*
X143294360Y-103096895D02*
X143294360Y-102296895D01*
X143294360Y-102296895D02*
X143484836Y-102296895D01*
X143484836Y-102296895D02*
X143599122Y-102334990D01*
X143599122Y-102334990D02*
X143675312Y-102411180D01*
X143675312Y-102411180D02*
X143713407Y-102487371D01*
X143713407Y-102487371D02*
X143751503Y-102639752D01*
X143751503Y-102639752D02*
X143751503Y-102754038D01*
X143751503Y-102754038D02*
X143713407Y-102906419D01*
X143713407Y-102906419D02*
X143675312Y-102982609D01*
X143675312Y-102982609D02*
X143599122Y-103058800D01*
X143599122Y-103058800D02*
X143484836Y-103096895D01*
X143484836Y-103096895D02*
X143294360Y-103096895D01*
X144856265Y-102296895D02*
X145008646Y-102296895D01*
X145008646Y-102296895D02*
X145084836Y-102334990D01*
X145084836Y-102334990D02*
X145161027Y-102411180D01*
X145161027Y-102411180D02*
X145199122Y-102563561D01*
X145199122Y-102563561D02*
X145199122Y-102830228D01*
X145199122Y-102830228D02*
X145161027Y-102982609D01*
X145161027Y-102982609D02*
X145084836Y-103058800D01*
X145084836Y-103058800D02*
X145008646Y-103096895D01*
X145008646Y-103096895D02*
X144856265Y-103096895D01*
X144856265Y-103096895D02*
X144780074Y-103058800D01*
X144780074Y-103058800D02*
X144703884Y-102982609D01*
X144703884Y-102982609D02*
X144665788Y-102830228D01*
X144665788Y-102830228D02*
X144665788Y-102563561D01*
X144665788Y-102563561D02*
X144703884Y-102411180D01*
X144703884Y-102411180D02*
X144780074Y-102334990D01*
X144780074Y-102334990D02*
X144856265Y-102296895D01*
X145541979Y-102296895D02*
X145541979Y-102944514D01*
X145541979Y-102944514D02*
X145580074Y-103020704D01*
X145580074Y-103020704D02*
X145618169Y-103058800D01*
X145618169Y-103058800D02*
X145694360Y-103096895D01*
X145694360Y-103096895D02*
X145846741Y-103096895D01*
X145846741Y-103096895D02*
X145922931Y-103058800D01*
X145922931Y-103058800D02*
X145961026Y-103020704D01*
X145961026Y-103020704D02*
X145999122Y-102944514D01*
X145999122Y-102944514D02*
X145999122Y-102296895D01*
X146265788Y-102296895D02*
X146722931Y-102296895D01*
X146494359Y-103096895D02*
X146494359Y-102296895D01*
X147980074Y-102296895D02*
X147599122Y-102296895D01*
X147599122Y-102296895D02*
X147561026Y-102677847D01*
X147561026Y-102677847D02*
X147599122Y-102639752D01*
X147599122Y-102639752D02*
X147675312Y-102601657D01*
X147675312Y-102601657D02*
X147865788Y-102601657D01*
X147865788Y-102601657D02*
X147941979Y-102639752D01*
X147941979Y-102639752D02*
X147980074Y-102677847D01*
X147980074Y-102677847D02*
X148018169Y-102754038D01*
X148018169Y-102754038D02*
X148018169Y-102944514D01*
X148018169Y-102944514D02*
X147980074Y-103020704D01*
X147980074Y-103020704D02*
X147941979Y-103058800D01*
X147941979Y-103058800D02*
X147865788Y-103096895D01*
X147865788Y-103096895D02*
X147675312Y-103096895D01*
X147675312Y-103096895D02*
X147599122Y-103058800D01*
X147599122Y-103058800D02*
X147561026Y-103020704D01*
X148246741Y-102296895D02*
X148513408Y-103096895D01*
X148513408Y-103096895D02*
X148780074Y-102296895D01*
X149618169Y-102868323D02*
X149999122Y-102868323D01*
X149541979Y-103096895D02*
X149808646Y-102296895D01*
X149808646Y-102296895D02*
X150075312Y-103096895D01*
X150341979Y-103096895D02*
X150341979Y-102296895D01*
X150341979Y-102296895D02*
X150799122Y-103096895D01*
X150799122Y-103096895D02*
X150799122Y-102296895D01*
X151180074Y-103096895D02*
X151180074Y-102296895D01*
X151180074Y-102296895D02*
X151370550Y-102296895D01*
X151370550Y-102296895D02*
X151484836Y-102334990D01*
X151484836Y-102334990D02*
X151561026Y-102411180D01*
X151561026Y-102411180D02*
X151599121Y-102487371D01*
X151599121Y-102487371D02*
X151637217Y-102639752D01*
X151637217Y-102639752D02*
X151637217Y-102754038D01*
X151637217Y-102754038D02*
X151599121Y-102906419D01*
X151599121Y-102906419D02*
X151561026Y-102982609D01*
X151561026Y-102982609D02*
X151484836Y-103058800D01*
X151484836Y-103058800D02*
X151370550Y-103096895D01*
X151370550Y-103096895D02*
X151180074Y-103096895D01*
D11*
X156357142Y-105359580D02*
X156309523Y-105407200D01*
X156309523Y-105407200D02*
X156166666Y-105454819D01*
X156166666Y-105454819D02*
X156071428Y-105454819D01*
X156071428Y-105454819D02*
X155928571Y-105407200D01*
X155928571Y-105407200D02*
X155833333Y-105311961D01*
X155833333Y-105311961D02*
X155785714Y-105216723D01*
X155785714Y-105216723D02*
X155738095Y-105026247D01*
X155738095Y-105026247D02*
X155738095Y-104883390D01*
X155738095Y-104883390D02*
X155785714Y-104692914D01*
X155785714Y-104692914D02*
X155833333Y-104597676D01*
X155833333Y-104597676D02*
X155928571Y-104502438D01*
X155928571Y-104502438D02*
X156071428Y-104454819D01*
X156071428Y-104454819D02*
X156166666Y-104454819D01*
X156166666Y-104454819D02*
X156309523Y-104502438D01*
X156309523Y-104502438D02*
X156357142Y-104550057D01*
X157309523Y-105454819D02*
X156738095Y-105454819D01*
X157023809Y-105454819D02*
X157023809Y-104454819D01*
X157023809Y-104454819D02*
X156928571Y-104597676D01*
X156928571Y-104597676D02*
X156833333Y-104692914D01*
X156833333Y-104692914D02*
X156738095Y-104740533D01*
X157642857Y-104454819D02*
X158261904Y-104454819D01*
X158261904Y-104454819D02*
X157928571Y-104835771D01*
X157928571Y-104835771D02*
X158071428Y-104835771D01*
X158071428Y-104835771D02*
X158166666Y-104883390D01*
X158166666Y-104883390D02*
X158214285Y-104931009D01*
X158214285Y-104931009D02*
X158261904Y-105026247D01*
X158261904Y-105026247D02*
X158261904Y-105264342D01*
X158261904Y-105264342D02*
X158214285Y-105359580D01*
X158214285Y-105359580D02*
X158166666Y-105407200D01*
X158166666Y-105407200D02*
X158071428Y-105454819D01*
X158071428Y-105454819D02*
X157785714Y-105454819D01*
X157785714Y-105454819D02*
X157690476Y-105407200D01*
X157690476Y-105407200D02*
X157642857Y-105359580D01*
X152654819Y-97866666D02*
X152178628Y-98199999D01*
X152654819Y-98438094D02*
X151654819Y-98438094D01*
X151654819Y-98438094D02*
X151654819Y-98057142D01*
X151654819Y-98057142D02*
X151702438Y-97961904D01*
X151702438Y-97961904D02*
X151750057Y-97914285D01*
X151750057Y-97914285D02*
X151845295Y-97866666D01*
X151845295Y-97866666D02*
X151988152Y-97866666D01*
X151988152Y-97866666D02*
X152083390Y-97914285D01*
X152083390Y-97914285D02*
X152131009Y-97961904D01*
X152131009Y-97961904D02*
X152178628Y-98057142D01*
X152178628Y-98057142D02*
X152178628Y-98438094D01*
X151654819Y-97533332D02*
X151654819Y-96914285D01*
X151654819Y-96914285D02*
X152035771Y-97247618D01*
X152035771Y-97247618D02*
X152035771Y-97104761D01*
X152035771Y-97104761D02*
X152083390Y-97009523D01*
X152083390Y-97009523D02*
X152131009Y-96961904D01*
X152131009Y-96961904D02*
X152226247Y-96914285D01*
X152226247Y-96914285D02*
X152464342Y-96914285D01*
X152464342Y-96914285D02*
X152559580Y-96961904D01*
X152559580Y-96961904D02*
X152607200Y-97009523D01*
X152607200Y-97009523D02*
X152654819Y-97104761D01*
X152654819Y-97104761D02*
X152654819Y-97390475D01*
X152654819Y-97390475D02*
X152607200Y-97485713D01*
X152607200Y-97485713D02*
X152559580Y-97533332D01*
X153154819Y-101766666D02*
X152678628Y-102099999D01*
X153154819Y-102338094D02*
X152154819Y-102338094D01*
X152154819Y-102338094D02*
X152154819Y-101957142D01*
X152154819Y-101957142D02*
X152202438Y-101861904D01*
X152202438Y-101861904D02*
X152250057Y-101814285D01*
X152250057Y-101814285D02*
X152345295Y-101766666D01*
X152345295Y-101766666D02*
X152488152Y-101766666D01*
X152488152Y-101766666D02*
X152583390Y-101814285D01*
X152583390Y-101814285D02*
X152631009Y-101861904D01*
X152631009Y-101861904D02*
X152678628Y-101957142D01*
X152678628Y-101957142D02*
X152678628Y-102338094D01*
X152154819Y-100861904D02*
X152154819Y-101338094D01*
X152154819Y-101338094D02*
X152631009Y-101385713D01*
X152631009Y-101385713D02*
X152583390Y-101338094D01*
X152583390Y-101338094D02*
X152535771Y-101242856D01*
X152535771Y-101242856D02*
X152535771Y-101004761D01*
X152535771Y-101004761D02*
X152583390Y-100909523D01*
X152583390Y-100909523D02*
X152631009Y-100861904D01*
X152631009Y-100861904D02*
X152726247Y-100814285D01*
X152726247Y-100814285D02*
X152964342Y-100814285D01*
X152964342Y-100814285D02*
X153059580Y-100861904D01*
X153059580Y-100861904D02*
X153107200Y-100909523D01*
X153107200Y-100909523D02*
X153154819Y-101004761D01*
X153154819Y-101004761D02*
X153154819Y-101242856D01*
X153154819Y-101242856D02*
X153107200Y-101338094D01*
X153107200Y-101338094D02*
X153059580Y-101385713D01*
X147854819Y-109466666D02*
X147378628Y-109799999D01*
X147854819Y-110038094D02*
X146854819Y-110038094D01*
X146854819Y-110038094D02*
X146854819Y-109657142D01*
X146854819Y-109657142D02*
X146902438Y-109561904D01*
X146902438Y-109561904D02*
X146950057Y-109514285D01*
X146950057Y-109514285D02*
X147045295Y-109466666D01*
X147045295Y-109466666D02*
X147188152Y-109466666D01*
X147188152Y-109466666D02*
X147283390Y-109514285D01*
X147283390Y-109514285D02*
X147331009Y-109561904D01*
X147331009Y-109561904D02*
X147378628Y-109657142D01*
X147378628Y-109657142D02*
X147378628Y-110038094D01*
X146854819Y-108609523D02*
X146854819Y-108799999D01*
X146854819Y-108799999D02*
X146902438Y-108895237D01*
X146902438Y-108895237D02*
X146950057Y-108942856D01*
X146950057Y-108942856D02*
X147092914Y-109038094D01*
X147092914Y-109038094D02*
X147283390Y-109085713D01*
X147283390Y-109085713D02*
X147664342Y-109085713D01*
X147664342Y-109085713D02*
X147759580Y-109038094D01*
X147759580Y-109038094D02*
X147807200Y-108990475D01*
X147807200Y-108990475D02*
X147854819Y-108895237D01*
X147854819Y-108895237D02*
X147854819Y-108704761D01*
X147854819Y-108704761D02*
X147807200Y-108609523D01*
X147807200Y-108609523D02*
X147759580Y-108561904D01*
X147759580Y-108561904D02*
X147664342Y-108514285D01*
X147664342Y-108514285D02*
X147426247Y-108514285D01*
X147426247Y-108514285D02*
X147331009Y-108561904D01*
X147331009Y-108561904D02*
X147283390Y-108609523D01*
X147283390Y-108609523D02*
X147235771Y-108704761D01*
X147235771Y-108704761D02*
X147235771Y-108895237D01*
X147235771Y-108895237D02*
X147283390Y-108990475D01*
X147283390Y-108990475D02*
X147331009Y-109038094D01*
X147331009Y-109038094D02*
X147426247Y-109085713D01*
X143754819Y-113266666D02*
X143754819Y-113742856D01*
X143754819Y-113742856D02*
X142754819Y-113742856D01*
X142850057Y-112980951D02*
X142802438Y-112933332D01*
X142802438Y-112933332D02*
X142754819Y-112838094D01*
X142754819Y-112838094D02*
X142754819Y-112599999D01*
X142754819Y-112599999D02*
X142802438Y-112504761D01*
X142802438Y-112504761D02*
X142850057Y-112457142D01*
X142850057Y-112457142D02*
X142945295Y-112409523D01*
X142945295Y-112409523D02*
X143040533Y-112409523D01*
X143040533Y-112409523D02*
X143183390Y-112457142D01*
X143183390Y-112457142D02*
X143754819Y-113028570D01*
X143754819Y-113028570D02*
X143754819Y-112409523D01*
X150532269Y-108338094D02*
X149532269Y-108338094D01*
X149532269Y-108338094D02*
X149532269Y-108099999D01*
X149532269Y-108099999D02*
X149579888Y-107957142D01*
X149579888Y-107957142D02*
X149675126Y-107861904D01*
X149675126Y-107861904D02*
X149770364Y-107814285D01*
X149770364Y-107814285D02*
X149960840Y-107766666D01*
X149960840Y-107766666D02*
X150103697Y-107766666D01*
X150103697Y-107766666D02*
X150294173Y-107814285D01*
X150294173Y-107814285D02*
X150389411Y-107861904D01*
X150389411Y-107861904D02*
X150484650Y-107957142D01*
X150484650Y-107957142D02*
X150532269Y-108099999D01*
X150532269Y-108099999D02*
X150532269Y-108338094D01*
X149627507Y-107385713D02*
X149579888Y-107338094D01*
X149579888Y-107338094D02*
X149532269Y-107242856D01*
X149532269Y-107242856D02*
X149532269Y-107004761D01*
X149532269Y-107004761D02*
X149579888Y-106909523D01*
X149579888Y-106909523D02*
X149627507Y-106861904D01*
X149627507Y-106861904D02*
X149722745Y-106814285D01*
X149722745Y-106814285D02*
X149817983Y-106814285D01*
X149817983Y-106814285D02*
X149960840Y-106861904D01*
X149960840Y-106861904D02*
X150532269Y-107433332D01*
X150532269Y-107433332D02*
X150532269Y-106814285D01*
X154234592Y-113404819D02*
X153758402Y-113404819D01*
X153758402Y-113404819D02*
X153758402Y-112404819D01*
X155091735Y-113404819D02*
X154520307Y-113404819D01*
X154806021Y-113404819D02*
X154806021Y-112404819D01*
X154806021Y-112404819D02*
X154710783Y-112547676D01*
X154710783Y-112547676D02*
X154615545Y-112642914D01*
X154615545Y-112642914D02*
X154520307Y-112690533D01*
X156044116Y-113404819D02*
X155472688Y-113404819D01*
X155758402Y-113404819D02*
X155758402Y-112404819D01*
X155758402Y-112404819D02*
X155663164Y-112547676D01*
X155663164Y-112547676D02*
X155567926Y-112642914D01*
X155567926Y-112642914D02*
X155472688Y-112690533D01*
X143397092Y-106029580D02*
X143349473Y-106077200D01*
X143349473Y-106077200D02*
X143206616Y-106124819D01*
X143206616Y-106124819D02*
X143111378Y-106124819D01*
X143111378Y-106124819D02*
X142968521Y-106077200D01*
X142968521Y-106077200D02*
X142873283Y-105981961D01*
X142873283Y-105981961D02*
X142825664Y-105886723D01*
X142825664Y-105886723D02*
X142778045Y-105696247D01*
X142778045Y-105696247D02*
X142778045Y-105553390D01*
X142778045Y-105553390D02*
X142825664Y-105362914D01*
X142825664Y-105362914D02*
X142873283Y-105267676D01*
X142873283Y-105267676D02*
X142968521Y-105172438D01*
X142968521Y-105172438D02*
X143111378Y-105124819D01*
X143111378Y-105124819D02*
X143206616Y-105124819D01*
X143206616Y-105124819D02*
X143349473Y-105172438D01*
X143349473Y-105172438D02*
X143397092Y-105220057D01*
X144349473Y-106124819D02*
X143778045Y-106124819D01*
X144063759Y-106124819D02*
X144063759Y-105124819D01*
X144063759Y-105124819D02*
X143968521Y-105267676D01*
X143968521Y-105267676D02*
X143873283Y-105362914D01*
X143873283Y-105362914D02*
X143778045Y-105410533D01*
X145206616Y-105458152D02*
X145206616Y-106124819D01*
X144968521Y-105077200D02*
X144730426Y-105791485D01*
X144730426Y-105791485D02*
X145349473Y-105791485D01*
X158037030Y-113992857D02*
X158084650Y-114040476D01*
X158084650Y-114040476D02*
X158132269Y-114183333D01*
X158132269Y-114183333D02*
X158132269Y-114278571D01*
X158132269Y-114278571D02*
X158084650Y-114421428D01*
X158084650Y-114421428D02*
X157989411Y-114516666D01*
X157989411Y-114516666D02*
X157894173Y-114564285D01*
X157894173Y-114564285D02*
X157703697Y-114611904D01*
X157703697Y-114611904D02*
X157560840Y-114611904D01*
X157560840Y-114611904D02*
X157370364Y-114564285D01*
X157370364Y-114564285D02*
X157275126Y-114516666D01*
X157275126Y-114516666D02*
X157179888Y-114421428D01*
X157179888Y-114421428D02*
X157132269Y-114278571D01*
X157132269Y-114278571D02*
X157132269Y-114183333D01*
X157132269Y-114183333D02*
X157179888Y-114040476D01*
X157179888Y-114040476D02*
X157227507Y-113992857D01*
X158132269Y-113040476D02*
X158132269Y-113611904D01*
X158132269Y-113326190D02*
X157132269Y-113326190D01*
X157132269Y-113326190D02*
X157275126Y-113421428D01*
X157275126Y-113421428D02*
X157370364Y-113516666D01*
X157370364Y-113516666D02*
X157417983Y-113611904D01*
X158132269Y-112088095D02*
X158132269Y-112659523D01*
X158132269Y-112373809D02*
X157132269Y-112373809D01*
X157132269Y-112373809D02*
X157275126Y-112469047D01*
X157275126Y-112469047D02*
X157370364Y-112564285D01*
X157370364Y-112564285D02*
X157417983Y-112659523D01*
X153932269Y-109416666D02*
X153932269Y-109892856D01*
X153932269Y-109892856D02*
X152932269Y-109892856D01*
X153932269Y-108559523D02*
X153932269Y-109130951D01*
X153932269Y-108845237D02*
X152932269Y-108845237D01*
X152932269Y-108845237D02*
X153075126Y-108940475D01*
X153075126Y-108940475D02*
X153170364Y-109035713D01*
X153170364Y-109035713D02*
X153217983Y-109130951D01*
X160473283Y-113309580D02*
X160425664Y-113357200D01*
X160425664Y-113357200D02*
X160282807Y-113404819D01*
X160282807Y-113404819D02*
X160187569Y-113404819D01*
X160187569Y-113404819D02*
X160044712Y-113357200D01*
X160044712Y-113357200D02*
X159949474Y-113261961D01*
X159949474Y-113261961D02*
X159901855Y-113166723D01*
X159901855Y-113166723D02*
X159854236Y-112976247D01*
X159854236Y-112976247D02*
X159854236Y-112833390D01*
X159854236Y-112833390D02*
X159901855Y-112642914D01*
X159901855Y-112642914D02*
X159949474Y-112547676D01*
X159949474Y-112547676D02*
X160044712Y-112452438D01*
X160044712Y-112452438D02*
X160187569Y-112404819D01*
X160187569Y-112404819D02*
X160282807Y-112404819D01*
X160282807Y-112404819D02*
X160425664Y-112452438D01*
X160425664Y-112452438D02*
X160473283Y-112500057D01*
X160854236Y-112500057D02*
X160901855Y-112452438D01*
X160901855Y-112452438D02*
X160997093Y-112404819D01*
X160997093Y-112404819D02*
X161235188Y-112404819D01*
X161235188Y-112404819D02*
X161330426Y-112452438D01*
X161330426Y-112452438D02*
X161378045Y-112500057D01*
X161378045Y-112500057D02*
X161425664Y-112595295D01*
X161425664Y-112595295D02*
X161425664Y-112690533D01*
X161425664Y-112690533D02*
X161378045Y-112833390D01*
X161378045Y-112833390D02*
X160806617Y-113404819D01*
X160806617Y-113404819D02*
X161425664Y-113404819D01*
X140033333Y-113439580D02*
X139985714Y-113487200D01*
X139985714Y-113487200D02*
X139842857Y-113534819D01*
X139842857Y-113534819D02*
X139747619Y-113534819D01*
X139747619Y-113534819D02*
X139604762Y-113487200D01*
X139604762Y-113487200D02*
X139509524Y-113391961D01*
X139509524Y-113391961D02*
X139461905Y-113296723D01*
X139461905Y-113296723D02*
X139414286Y-113106247D01*
X139414286Y-113106247D02*
X139414286Y-112963390D01*
X139414286Y-112963390D02*
X139461905Y-112772914D01*
X139461905Y-112772914D02*
X139509524Y-112677676D01*
X139509524Y-112677676D02*
X139604762Y-112582438D01*
X139604762Y-112582438D02*
X139747619Y-112534819D01*
X139747619Y-112534819D02*
X139842857Y-112534819D01*
X139842857Y-112534819D02*
X139985714Y-112582438D01*
X139985714Y-112582438D02*
X140033333Y-112630057D01*
X140366667Y-112534819D02*
X140985714Y-112534819D01*
X140985714Y-112534819D02*
X140652381Y-112915771D01*
X140652381Y-112915771D02*
X140795238Y-112915771D01*
X140795238Y-112915771D02*
X140890476Y-112963390D01*
X140890476Y-112963390D02*
X140938095Y-113011009D01*
X140938095Y-113011009D02*
X140985714Y-113106247D01*
X140985714Y-113106247D02*
X140985714Y-113344342D01*
X140985714Y-113344342D02*
X140938095Y-113439580D01*
X140938095Y-113439580D02*
X140890476Y-113487200D01*
X140890476Y-113487200D02*
X140795238Y-113534819D01*
X140795238Y-113534819D02*
X140509524Y-113534819D01*
X140509524Y-113534819D02*
X140414286Y-113487200D01*
X140414286Y-113487200D02*
X140366667Y-113439580D01*
X155082269Y-105716666D02*
X154606078Y-106049999D01*
X155082269Y-106288094D02*
X154082269Y-106288094D01*
X154082269Y-106288094D02*
X154082269Y-105907142D01*
X154082269Y-105907142D02*
X154129888Y-105811904D01*
X154129888Y-105811904D02*
X154177507Y-105764285D01*
X154177507Y-105764285D02*
X154272745Y-105716666D01*
X154272745Y-105716666D02*
X154415602Y-105716666D01*
X154415602Y-105716666D02*
X154510840Y-105764285D01*
X154510840Y-105764285D02*
X154558459Y-105811904D01*
X154558459Y-105811904D02*
X154606078Y-105907142D01*
X154606078Y-105907142D02*
X154606078Y-106288094D01*
X155082269Y-104764285D02*
X155082269Y-105335713D01*
X155082269Y-105049999D02*
X154082269Y-105049999D01*
X154082269Y-105049999D02*
X154225126Y-105145237D01*
X154225126Y-105145237D02*
X154320364Y-105240475D01*
X154320364Y-105240475D02*
X154367983Y-105335713D01*
X160560783Y-107509580D02*
X160513164Y-107557200D01*
X160513164Y-107557200D02*
X160370307Y-107604819D01*
X160370307Y-107604819D02*
X160275069Y-107604819D01*
X160275069Y-107604819D02*
X160132212Y-107557200D01*
X160132212Y-107557200D02*
X160036974Y-107461961D01*
X160036974Y-107461961D02*
X159989355Y-107366723D01*
X159989355Y-107366723D02*
X159941736Y-107176247D01*
X159941736Y-107176247D02*
X159941736Y-107033390D01*
X159941736Y-107033390D02*
X159989355Y-106842914D01*
X159989355Y-106842914D02*
X160036974Y-106747676D01*
X160036974Y-106747676D02*
X160132212Y-106652438D01*
X160132212Y-106652438D02*
X160275069Y-106604819D01*
X160275069Y-106604819D02*
X160370307Y-106604819D01*
X160370307Y-106604819D02*
X160513164Y-106652438D01*
X160513164Y-106652438D02*
X160560783Y-106700057D01*
X160894117Y-106604819D02*
X161560783Y-106604819D01*
X161560783Y-106604819D02*
X161132212Y-107604819D01*
X146195833Y-113509580D02*
X146148214Y-113557200D01*
X146148214Y-113557200D02*
X146005357Y-113604819D01*
X146005357Y-113604819D02*
X145910119Y-113604819D01*
X145910119Y-113604819D02*
X145767262Y-113557200D01*
X145767262Y-113557200D02*
X145672024Y-113461961D01*
X145672024Y-113461961D02*
X145624405Y-113366723D01*
X145624405Y-113366723D02*
X145576786Y-113176247D01*
X145576786Y-113176247D02*
X145576786Y-113033390D01*
X145576786Y-113033390D02*
X145624405Y-112842914D01*
X145624405Y-112842914D02*
X145672024Y-112747676D01*
X145672024Y-112747676D02*
X145767262Y-112652438D01*
X145767262Y-112652438D02*
X145910119Y-112604819D01*
X145910119Y-112604819D02*
X146005357Y-112604819D01*
X146005357Y-112604819D02*
X146148214Y-112652438D01*
X146148214Y-112652438D02*
X146195833Y-112700057D01*
X147148214Y-113604819D02*
X146576786Y-113604819D01*
X146862500Y-113604819D02*
X146862500Y-112604819D01*
X146862500Y-112604819D02*
X146767262Y-112747676D01*
X146767262Y-112747676D02*
X146672024Y-112842914D01*
X146672024Y-112842914D02*
X146576786Y-112890533D01*
X139533333Y-98254819D02*
X139200000Y-97778628D01*
X138961905Y-98254819D02*
X138961905Y-97254819D01*
X138961905Y-97254819D02*
X139342857Y-97254819D01*
X139342857Y-97254819D02*
X139438095Y-97302438D01*
X139438095Y-97302438D02*
X139485714Y-97350057D01*
X139485714Y-97350057D02*
X139533333Y-97445295D01*
X139533333Y-97445295D02*
X139533333Y-97588152D01*
X139533333Y-97588152D02*
X139485714Y-97683390D01*
X139485714Y-97683390D02*
X139438095Y-97731009D01*
X139438095Y-97731009D02*
X139342857Y-97778628D01*
X139342857Y-97778628D02*
X138961905Y-97778628D01*
X140104762Y-97683390D02*
X140009524Y-97635771D01*
X140009524Y-97635771D02*
X139961905Y-97588152D01*
X139961905Y-97588152D02*
X139914286Y-97492914D01*
X139914286Y-97492914D02*
X139914286Y-97445295D01*
X139914286Y-97445295D02*
X139961905Y-97350057D01*
X139961905Y-97350057D02*
X140009524Y-97302438D01*
X140009524Y-97302438D02*
X140104762Y-97254819D01*
X140104762Y-97254819D02*
X140295238Y-97254819D01*
X140295238Y-97254819D02*
X140390476Y-97302438D01*
X140390476Y-97302438D02*
X140438095Y-97350057D01*
X140438095Y-97350057D02*
X140485714Y-97445295D01*
X140485714Y-97445295D02*
X140485714Y-97492914D01*
X140485714Y-97492914D02*
X140438095Y-97588152D01*
X140438095Y-97588152D02*
X140390476Y-97635771D01*
X140390476Y-97635771D02*
X140295238Y-97683390D01*
X140295238Y-97683390D02*
X140104762Y-97683390D01*
X140104762Y-97683390D02*
X140009524Y-97731009D01*
X140009524Y-97731009D02*
X139961905Y-97778628D01*
X139961905Y-97778628D02*
X139914286Y-97873866D01*
X139914286Y-97873866D02*
X139914286Y-98064342D01*
X139914286Y-98064342D02*
X139961905Y-98159580D01*
X139961905Y-98159580D02*
X140009524Y-98207200D01*
X140009524Y-98207200D02*
X140104762Y-98254819D01*
X140104762Y-98254819D02*
X140295238Y-98254819D01*
X140295238Y-98254819D02*
X140390476Y-98207200D01*
X140390476Y-98207200D02*
X140438095Y-98159580D01*
X140438095Y-98159580D02*
X140485714Y-98064342D01*
X140485714Y-98064342D02*
X140485714Y-97873866D01*
X140485714Y-97873866D02*
X140438095Y-97778628D01*
X140438095Y-97778628D02*
X140390476Y-97731009D01*
X140390476Y-97731009D02*
X140295238Y-97683390D01*
D10*
X149420783Y-114357419D02*
X149420783Y-113357419D01*
X149420783Y-113357419D02*
X149801735Y-113357419D01*
X149801735Y-113357419D02*
X149896973Y-113405038D01*
X149896973Y-113405038D02*
X149944592Y-113452657D01*
X149944592Y-113452657D02*
X149992211Y-113547895D01*
X149992211Y-113547895D02*
X149992211Y-113690752D01*
X149992211Y-113690752D02*
X149944592Y-113785990D01*
X149944592Y-113785990D02*
X149896973Y-113833609D01*
X149896973Y-113833609D02*
X149801735Y-113881228D01*
X149801735Y-113881228D02*
X149420783Y-113881228D01*
X150373164Y-114071704D02*
X150849354Y-114071704D01*
X150277926Y-114357419D02*
X150611259Y-113357419D01*
X150611259Y-113357419D02*
X150944592Y-114357419D01*
X151801735Y-114357419D02*
X151230307Y-114357419D01*
X151516021Y-114357419D02*
X151516021Y-113357419D01*
X151516021Y-113357419D02*
X151420783Y-113500276D01*
X151420783Y-113500276D02*
X151325545Y-113595514D01*
X151325545Y-113595514D02*
X151230307Y-113643133D01*
D11*
X160154819Y-103466666D02*
X159678628Y-103799999D01*
X160154819Y-104038094D02*
X159154819Y-104038094D01*
X159154819Y-104038094D02*
X159154819Y-103657142D01*
X159154819Y-103657142D02*
X159202438Y-103561904D01*
X159202438Y-103561904D02*
X159250057Y-103514285D01*
X159250057Y-103514285D02*
X159345295Y-103466666D01*
X159345295Y-103466666D02*
X159488152Y-103466666D01*
X159488152Y-103466666D02*
X159583390Y-103514285D01*
X159583390Y-103514285D02*
X159631009Y-103561904D01*
X159631009Y-103561904D02*
X159678628Y-103657142D01*
X159678628Y-103657142D02*
X159678628Y-104038094D01*
X159250057Y-103085713D02*
X159202438Y-103038094D01*
X159202438Y-103038094D02*
X159154819Y-102942856D01*
X159154819Y-102942856D02*
X159154819Y-102704761D01*
X159154819Y-102704761D02*
X159202438Y-102609523D01*
X159202438Y-102609523D02*
X159250057Y-102561904D01*
X159250057Y-102561904D02*
X159345295Y-102514285D01*
X159345295Y-102514285D02*
X159440533Y-102514285D01*
X159440533Y-102514285D02*
X159583390Y-102561904D01*
X159583390Y-102561904D02*
X160154819Y-103133332D01*
X160154819Y-103133332D02*
X160154819Y-102514285D01*
X160159580Y-97766666D02*
X160207200Y-97814285D01*
X160207200Y-97814285D02*
X160254819Y-97957142D01*
X160254819Y-97957142D02*
X160254819Y-98052380D01*
X160254819Y-98052380D02*
X160207200Y-98195237D01*
X160207200Y-98195237D02*
X160111961Y-98290475D01*
X160111961Y-98290475D02*
X160016723Y-98338094D01*
X160016723Y-98338094D02*
X159826247Y-98385713D01*
X159826247Y-98385713D02*
X159683390Y-98385713D01*
X159683390Y-98385713D02*
X159492914Y-98338094D01*
X159492914Y-98338094D02*
X159397676Y-98290475D01*
X159397676Y-98290475D02*
X159302438Y-98195237D01*
X159302438Y-98195237D02*
X159254819Y-98052380D01*
X159254819Y-98052380D02*
X159254819Y-97957142D01*
X159254819Y-97957142D02*
X159302438Y-97814285D01*
X159302438Y-97814285D02*
X159350057Y-97766666D01*
X159588152Y-96909523D02*
X160254819Y-96909523D01*
X159207200Y-97147618D02*
X159921485Y-97385713D01*
X159921485Y-97385713D02*
X159921485Y-96766666D01*
X145933333Y-98254819D02*
X145600000Y-97778628D01*
X145361905Y-98254819D02*
X145361905Y-97254819D01*
X145361905Y-97254819D02*
X145742857Y-97254819D01*
X145742857Y-97254819D02*
X145838095Y-97302438D01*
X145838095Y-97302438D02*
X145885714Y-97350057D01*
X145885714Y-97350057D02*
X145933333Y-97445295D01*
X145933333Y-97445295D02*
X145933333Y-97588152D01*
X145933333Y-97588152D02*
X145885714Y-97683390D01*
X145885714Y-97683390D02*
X145838095Y-97731009D01*
X145838095Y-97731009D02*
X145742857Y-97778628D01*
X145742857Y-97778628D02*
X145361905Y-97778628D01*
X146790476Y-97588152D02*
X146790476Y-98254819D01*
X146552381Y-97207200D02*
X146314286Y-97921485D01*
X146314286Y-97921485D02*
X146933333Y-97921485D01*
D12*
%TO.C,C13*%
X154101202Y-102815000D02*
X153578698Y-102815000D01*
X154101202Y-104285000D02*
X153578698Y-104285000D01*
%TO.C,R3*%
X152965000Y-98827064D02*
X152965000Y-98372936D01*
X154435000Y-98827064D02*
X154435000Y-98372936D01*
%TO.C,R5*%
X154872936Y-100765000D02*
X155327064Y-100765000D01*
X154872936Y-102235000D02*
X155327064Y-102235000D01*
%TO.C,R6*%
X146542450Y-106322936D02*
X146542450Y-106777064D01*
X148012450Y-106322936D02*
X148012450Y-106777064D01*
%TO.C,J1*%
X142720000Y-96280000D02*
X142720000Y-94950000D01*
X144050000Y-96280000D02*
X142720000Y-96280000D01*
X145320000Y-93620000D02*
X150460000Y-93620000D01*
X145320000Y-96280000D02*
X145320000Y-93620000D01*
X145320000Y-96280000D02*
X150460000Y-96280000D01*
X150460000Y-96280000D02*
X150460000Y-93620000D01*
%TO.C,L2*%
X142590000Y-110686252D02*
X142590000Y-110163748D01*
X144010000Y-110686252D02*
X144010000Y-110163748D01*
%TO.C,D2*%
X148537450Y-104280000D02*
X148537450Y-106130000D01*
X148537450Y-104280000D02*
X149427450Y-104280000D01*
X150767450Y-104295000D02*
X151657450Y-104295000D01*
X151657450Y-104295000D02*
X151657450Y-106145000D01*
X148527450Y-106520000D02*
X148197450Y-106760000D01*
X148197450Y-106280000D01*
X148527450Y-106520000D01*
G36*
X148527450Y-106520000D02*
G01*
X148197450Y-106760000D01*
X148197450Y-106280000D01*
X148527450Y-106520000D01*
G37*
%TO.C,L11*%
X154591198Y-110440000D02*
X155113702Y-110440000D01*
X154591198Y-111860000D02*
X155113702Y-111860000D01*
%TO.C,C14*%
X143778698Y-106615000D02*
X144301202Y-106615000D01*
X143778698Y-108085000D02*
X144301202Y-108085000D01*
%TO.C,C11*%
X156942450Y-109851248D02*
X156942450Y-110373752D01*
X158412450Y-109851248D02*
X158412450Y-110373752D01*
%TO.C,L1*%
X154167450Y-108063748D02*
X154167450Y-108586252D01*
X155587450Y-108063748D02*
X155587450Y-108586252D01*
%TO.C,C2*%
X160901202Y-110415000D02*
X160378698Y-110415000D01*
X160901202Y-111885000D02*
X160378698Y-111885000D01*
%TO.C,C3*%
X140461252Y-110665000D02*
X139938748Y-110665000D01*
X140461252Y-112135000D02*
X139938748Y-112135000D01*
%TO.C,J4*%
X141602550Y-101830000D02*
X141602550Y-100500000D01*
X142932550Y-101830000D02*
X141602550Y-101830000D01*
X144202550Y-99170000D02*
X151882550Y-99170000D01*
X144202550Y-101830000D02*
X144202550Y-99170000D01*
X144202550Y-101830000D02*
X151882550Y-101830000D01*
X151882550Y-101830000D02*
X151882550Y-99170000D01*
%TO.C,R1*%
X152167450Y-106263748D02*
X152167450Y-106786252D01*
X153587450Y-106263748D02*
X153587450Y-106786252D01*
%TO.C,J5*%
X151530000Y-93570000D02*
X151530000Y-96230000D01*
X154130000Y-93570000D02*
X151530000Y-93570000D01*
X154130000Y-93570000D02*
X154130000Y-96230000D01*
X154130000Y-96230000D02*
X151530000Y-96230000D01*
X155400000Y-93570000D02*
X156730000Y-93570000D01*
X156730000Y-93570000D02*
X156730000Y-94900000D01*
%TO.C,C7*%
X157578698Y-106415000D02*
X158101202Y-106415000D01*
X157578698Y-107885000D02*
X158101202Y-107885000D01*
%TO.C,U1*%
X156862500Y-96890000D02*
X156062500Y-96890000D01*
X156862500Y-96890000D02*
X157662500Y-96890000D01*
X156862500Y-100010000D02*
X156062500Y-100010000D01*
X156862500Y-100010000D02*
X157662500Y-100010000D01*
X155562500Y-96940000D02*
X155322500Y-96610000D01*
X155802500Y-96610000D01*
X155562500Y-96940000D01*
G36*
X155562500Y-96940000D02*
G01*
X155322500Y-96610000D01*
X155802500Y-96610000D01*
X155562500Y-96940000D01*
G37*
%TO.C,C1*%
X146623752Y-110665000D02*
X146101248Y-110665000D01*
X146623752Y-112135000D02*
X146101248Y-112135000D01*
%TO.C,R8*%
X142902936Y-97015000D02*
X143357064Y-97015000D01*
X142902936Y-98485000D02*
X143357064Y-98485000D01*
D10*
%TO.C,PA1*%
X148587450Y-108900000D02*
X148587450Y-109400000D01*
X148587450Y-108900000D02*
X149087450Y-108900000D01*
X148587450Y-112900000D02*
X148587450Y-112400000D01*
X148587450Y-112900000D02*
X149087450Y-112900000D01*
X152587450Y-108900000D02*
X152087450Y-108900000D01*
X152587450Y-108900000D02*
X152587450Y-109400000D01*
X152587450Y-112900000D02*
X152087450Y-112900000D01*
X152587450Y-112900000D02*
X152587450Y-112400000D01*
D13*
X148787450Y-109000000D02*
G75*
G02*
X148587450Y-109000000I-100000J0D01*
G01*
X148587450Y-109000000D02*
G75*
G02*
X148787450Y-109000000I100000J0D01*
G01*
D12*
%TO.C,R2*%
X157265000Y-102527064D02*
X157265000Y-102072936D01*
X158735000Y-102527064D02*
X158735000Y-102072936D01*
%TO.C,C4*%
X158165000Y-94998752D02*
X158165000Y-94476248D01*
X159635000Y-94998752D02*
X159635000Y-94476248D01*
%TO.C,R4*%
X148625486Y-96965000D02*
X149079614Y-96965000D01*
X148625486Y-98435000D02*
X149079614Y-98435000D01*
%TD*%
%LPC*%
D14*
%TO.C,C13*%
X154877450Y-103550000D03*
X152802450Y-103550000D03*
%TD*%
D15*
%TO.C,R3*%
X153700000Y-99600000D03*
X153700000Y-97600000D03*
%TD*%
D16*
%TO.C,R5*%
X154100000Y-101500000D03*
X156100000Y-101500000D03*
%TD*%
D17*
%TO.C,R6*%
X147277450Y-105550000D03*
X147277450Y-107550000D03*
%TD*%
D18*
%TO.C,J1*%
X144050000Y-94950000D03*
D19*
X146590000Y-94950000D03*
X149130000Y-94950000D03*
%TD*%
D20*
%TO.C,L2*%
X143300000Y-111450000D03*
X143300000Y-109400000D03*
%TD*%
D21*
%TO.C,H3*%
X137600000Y-119300000D03*
%TD*%
D22*
%TO.C,D2*%
X149127450Y-106550000D03*
X151027450Y-106550000D03*
X150077450Y-103930000D03*
%TD*%
D23*
%TO.C,L11*%
X153827450Y-111150000D03*
X155877450Y-111150000D03*
%TD*%
D24*
%TO.C,C14*%
X143002450Y-107350000D03*
X145077450Y-107350000D03*
%TD*%
D25*
%TO.C,J2*%
X136132000Y-111350000D03*
D26*
X136132000Y-108810000D03*
X136132000Y-113890000D03*
%TD*%
D27*
%TO.C,C11*%
X157677450Y-109075000D03*
X157677450Y-111150000D03*
%TD*%
D28*
%TO.C,L1*%
X154877450Y-107300000D03*
X154877450Y-109350000D03*
%TD*%
D21*
%TO.C,H4*%
X163400000Y-95600000D03*
%TD*%
D14*
%TO.C,C2*%
X161677450Y-111150000D03*
X159602450Y-111150000D03*
%TD*%
D21*
%TO.C,H2*%
X163300000Y-119300000D03*
%TD*%
D14*
%TO.C,C3*%
X141237500Y-111400000D03*
X139162500Y-111400000D03*
%TD*%
D18*
%TO.C,J4*%
X142932550Y-100500000D03*
D19*
X145472550Y-100500000D03*
X148012550Y-100500000D03*
X150552550Y-100500000D03*
%TD*%
D28*
%TO.C,R1*%
X152877450Y-105500000D03*
X152877450Y-107550000D03*
%TD*%
D18*
%TO.C,J5*%
X155400000Y-94900000D03*
D19*
X152860000Y-94900000D03*
%TD*%
D24*
%TO.C,C7*%
X156802450Y-107150000D03*
X158877450Y-107150000D03*
%TD*%
D21*
%TO.C,H1*%
X137500000Y-95600000D03*
%TD*%
D29*
%TO.C,U1*%
X155725000Y-97500000D03*
X155725000Y-98450000D03*
X155725000Y-99400000D03*
X158000000Y-99400000D03*
X158000000Y-97500000D03*
%TD*%
D14*
%TO.C,C1*%
X147400000Y-111400000D03*
X145325000Y-111400000D03*
%TD*%
D16*
%TO.C,R8*%
X142130000Y-97750000D03*
X144130000Y-97750000D03*
%TD*%
D30*
%TO.C,J3*%
X164845450Y-111150000D03*
D31*
X164845450Y-113690000D03*
X164845450Y-108610000D03*
%TD*%
D32*
%TO.C,PA1*%
X148697450Y-109650000D03*
X148697450Y-110150000D03*
X148697450Y-110650000D03*
X148697450Y-111150000D03*
X148697450Y-111650000D03*
X148697450Y-112150000D03*
D33*
X149337450Y-112790000D03*
X149837450Y-112790000D03*
X150337450Y-112790000D03*
X150837450Y-112790000D03*
X151337450Y-112790000D03*
X151837450Y-112790000D03*
D32*
X152477450Y-112150000D03*
X152477450Y-111650000D03*
X152477450Y-111150000D03*
X152477450Y-110650000D03*
X152477450Y-110150000D03*
X152477450Y-109650000D03*
D33*
X151837450Y-109010000D03*
X151337450Y-109010000D03*
X150837450Y-109010000D03*
X150337450Y-109010000D03*
X149837450Y-109010000D03*
X149337450Y-109010000D03*
D34*
X149627450Y-109940000D03*
X149627450Y-110580000D03*
X149627450Y-111220000D03*
X149627450Y-111860000D03*
X150267450Y-109940000D03*
X150267450Y-110580000D03*
X150267450Y-111220000D03*
X150267450Y-111860000D03*
D35*
X150587450Y-110900000D03*
D34*
X150907450Y-109940000D03*
X150907450Y-110580000D03*
X150907450Y-111220000D03*
X150907450Y-111860000D03*
X151547450Y-109940000D03*
X151547450Y-110580000D03*
X151547450Y-111220000D03*
X151547450Y-111860000D03*
%TD*%
D15*
%TO.C,R2*%
X158000000Y-103300000D03*
X158000000Y-101300000D03*
%TD*%
D36*
%TO.C,C4*%
X158900000Y-95775000D03*
X158900000Y-93700000D03*
%TD*%
D16*
%TO.C,R4*%
X147852550Y-97700000D03*
X149852550Y-97700000D03*
%TD*%
%LPD*%
M02*
