%TF.GenerationSoftware,KiCad,Pcbnew,8.0.8*%
%TF.CreationDate,2025-02-12T15:11:35-05:00*%
%TF.ProjectId,pa-test-board,70612d74-6573-4742-9d62-6f6172642e6b,rev?*%
%TF.SameCoordinates,Original*%
%TF.FileFunction,Drillmap*%
%TF.FilePolarity,Positive*%
%FSLAX45Y45*%
G04 Gerber Fmt 4.5, Leading zero omitted, Abs format (unit mm)*
G04 Created by KiCad (PCBNEW 8.0.8) date 2025-02-12 15:11:35*
%MOMM*%
%LPD*%
G01*
G04 APERTURE LIST*
%ADD10C,0.050000*%
%ADD11C,0.200000*%
%ADD12C,0.320000*%
G04 APERTURE END LIST*
D10*
X13407745Y-9215000D02*
X16687745Y-9215000D01*
X16687745Y-12285000D01*
X13407745Y-12285000D01*
X13407745Y-9215000D01*
D11*
D12*
X13590000Y-9400000D02*
X13910000Y-9720000D01*
X13910000Y-9400000D02*
X13590000Y-9720000D01*
X13600000Y-11770000D02*
X13920000Y-12090000D01*
X13920000Y-11770000D02*
X13600000Y-12090000D01*
X16170000Y-11770000D02*
X16490000Y-12090000D01*
X16490000Y-11770000D02*
X16170000Y-12090000D01*
X16180000Y-9400000D02*
X16500000Y-9720000D01*
X16500000Y-9400000D02*
X16180000Y-9720000D01*
D11*
X13666022Y-12598984D02*
X13666022Y-12398984D01*
X13666022Y-12398984D02*
X13713641Y-12398984D01*
X13713641Y-12398984D02*
X13742212Y-12408508D01*
X13742212Y-12408508D02*
X13761260Y-12427555D01*
X13761260Y-12427555D02*
X13770784Y-12446603D01*
X13770784Y-12446603D02*
X13780307Y-12484698D01*
X13780307Y-12484698D02*
X13780307Y-12513269D01*
X13780307Y-12513269D02*
X13770784Y-12551365D01*
X13770784Y-12551365D02*
X13761260Y-12570412D01*
X13761260Y-12570412D02*
X13742212Y-12589460D01*
X13742212Y-12589460D02*
X13713641Y-12598984D01*
X13713641Y-12598984D02*
X13666022Y-12598984D01*
X13866022Y-12598984D02*
X13866022Y-12465650D01*
X13866022Y-12503746D02*
X13875546Y-12484698D01*
X13875546Y-12484698D02*
X13885069Y-12475174D01*
X13885069Y-12475174D02*
X13904117Y-12465650D01*
X13904117Y-12465650D02*
X13923165Y-12465650D01*
X13989831Y-12598984D02*
X13989831Y-12465650D01*
X13989831Y-12398984D02*
X13980307Y-12408508D01*
X13980307Y-12408508D02*
X13989831Y-12418031D01*
X13989831Y-12418031D02*
X13999355Y-12408508D01*
X13999355Y-12408508D02*
X13989831Y-12398984D01*
X13989831Y-12398984D02*
X13989831Y-12418031D01*
X14113641Y-12598984D02*
X14094593Y-12589460D01*
X14094593Y-12589460D02*
X14085069Y-12570412D01*
X14085069Y-12570412D02*
X14085069Y-12398984D01*
X14218403Y-12598984D02*
X14199355Y-12589460D01*
X14199355Y-12589460D02*
X14189831Y-12570412D01*
X14189831Y-12570412D02*
X14189831Y-12398984D01*
X14446974Y-12598984D02*
X14446974Y-12398984D01*
X14446974Y-12398984D02*
X14513641Y-12541841D01*
X14513641Y-12541841D02*
X14580307Y-12398984D01*
X14580307Y-12398984D02*
X14580307Y-12598984D01*
X14761260Y-12598984D02*
X14761260Y-12494222D01*
X14761260Y-12494222D02*
X14751736Y-12475174D01*
X14751736Y-12475174D02*
X14732688Y-12465650D01*
X14732688Y-12465650D02*
X14694593Y-12465650D01*
X14694593Y-12465650D02*
X14675546Y-12475174D01*
X14761260Y-12589460D02*
X14742212Y-12598984D01*
X14742212Y-12598984D02*
X14694593Y-12598984D01*
X14694593Y-12598984D02*
X14675546Y-12589460D01*
X14675546Y-12589460D02*
X14666022Y-12570412D01*
X14666022Y-12570412D02*
X14666022Y-12551365D01*
X14666022Y-12551365D02*
X14675546Y-12532317D01*
X14675546Y-12532317D02*
X14694593Y-12522793D01*
X14694593Y-12522793D02*
X14742212Y-12522793D01*
X14742212Y-12522793D02*
X14761260Y-12513269D01*
X14856498Y-12465650D02*
X14856498Y-12665650D01*
X14856498Y-12475174D02*
X14875546Y-12465650D01*
X14875546Y-12465650D02*
X14913641Y-12465650D01*
X14913641Y-12465650D02*
X14932688Y-12475174D01*
X14932688Y-12475174D02*
X14942212Y-12484698D01*
X14942212Y-12484698D02*
X14951736Y-12503746D01*
X14951736Y-12503746D02*
X14951736Y-12560888D01*
X14951736Y-12560888D02*
X14942212Y-12579936D01*
X14942212Y-12579936D02*
X14932688Y-12589460D01*
X14932688Y-12589460D02*
X14913641Y-12598984D01*
X14913641Y-12598984D02*
X14875546Y-12598984D01*
X14875546Y-12598984D02*
X14856498Y-12589460D01*
X15037450Y-12579936D02*
X15046974Y-12589460D01*
X15046974Y-12589460D02*
X15037450Y-12598984D01*
X15037450Y-12598984D02*
X15027927Y-12589460D01*
X15027927Y-12589460D02*
X15037450Y-12579936D01*
X15037450Y-12579936D02*
X15037450Y-12598984D01*
X15037450Y-12475174D02*
X15046974Y-12484698D01*
X15046974Y-12484698D02*
X15037450Y-12494222D01*
X15037450Y-12494222D02*
X15027927Y-12484698D01*
X15027927Y-12484698D02*
X15037450Y-12475174D01*
X15037450Y-12475174D02*
X15037450Y-12494222D01*
X13205245Y-12827500D02*
X13405245Y-13027500D01*
X13405245Y-12827500D02*
X13205245Y-13027500D01*
X13646974Y-12818984D02*
X13770784Y-12818984D01*
X13770784Y-12818984D02*
X13704117Y-12895174D01*
X13704117Y-12895174D02*
X13732688Y-12895174D01*
X13732688Y-12895174D02*
X13751736Y-12904698D01*
X13751736Y-12904698D02*
X13761260Y-12914222D01*
X13761260Y-12914222D02*
X13770784Y-12933269D01*
X13770784Y-12933269D02*
X13770784Y-12980888D01*
X13770784Y-12980888D02*
X13761260Y-12999936D01*
X13761260Y-12999936D02*
X13751736Y-13009460D01*
X13751736Y-13009460D02*
X13732688Y-13018984D01*
X13732688Y-13018984D02*
X13675546Y-13018984D01*
X13675546Y-13018984D02*
X13656498Y-13009460D01*
X13656498Y-13009460D02*
X13646974Y-12999936D01*
X13856498Y-12999936D02*
X13866022Y-13009460D01*
X13866022Y-13009460D02*
X13856498Y-13018984D01*
X13856498Y-13018984D02*
X13846974Y-13009460D01*
X13846974Y-13009460D02*
X13856498Y-12999936D01*
X13856498Y-12999936D02*
X13856498Y-13018984D01*
X13942212Y-12838031D02*
X13951736Y-12828508D01*
X13951736Y-12828508D02*
X13970784Y-12818984D01*
X13970784Y-12818984D02*
X14018403Y-12818984D01*
X14018403Y-12818984D02*
X14037450Y-12828508D01*
X14037450Y-12828508D02*
X14046974Y-12838031D01*
X14046974Y-12838031D02*
X14056498Y-12857079D01*
X14056498Y-12857079D02*
X14056498Y-12876127D01*
X14056498Y-12876127D02*
X14046974Y-12904698D01*
X14046974Y-12904698D02*
X13932688Y-13018984D01*
X13932688Y-13018984D02*
X14056498Y-13018984D01*
X14180307Y-12818984D02*
X14199355Y-12818984D01*
X14199355Y-12818984D02*
X14218403Y-12828508D01*
X14218403Y-12828508D02*
X14227927Y-12838031D01*
X14227927Y-12838031D02*
X14237450Y-12857079D01*
X14237450Y-12857079D02*
X14246974Y-12895174D01*
X14246974Y-12895174D02*
X14246974Y-12942793D01*
X14246974Y-12942793D02*
X14237450Y-12980888D01*
X14237450Y-12980888D02*
X14227927Y-12999936D01*
X14227927Y-12999936D02*
X14218403Y-13009460D01*
X14218403Y-13009460D02*
X14199355Y-13018984D01*
X14199355Y-13018984D02*
X14180307Y-13018984D01*
X14180307Y-13018984D02*
X14161260Y-13009460D01*
X14161260Y-13009460D02*
X14151736Y-12999936D01*
X14151736Y-12999936D02*
X14142212Y-12980888D01*
X14142212Y-12980888D02*
X14132688Y-12942793D01*
X14132688Y-12942793D02*
X14132688Y-12895174D01*
X14132688Y-12895174D02*
X14142212Y-12857079D01*
X14142212Y-12857079D02*
X14151736Y-12838031D01*
X14151736Y-12838031D02*
X14161260Y-12828508D01*
X14161260Y-12828508D02*
X14180307Y-12818984D01*
X14370784Y-12818984D02*
X14389831Y-12818984D01*
X14389831Y-12818984D02*
X14408879Y-12828508D01*
X14408879Y-12828508D02*
X14418403Y-12838031D01*
X14418403Y-12838031D02*
X14427927Y-12857079D01*
X14427927Y-12857079D02*
X14437450Y-12895174D01*
X14437450Y-12895174D02*
X14437450Y-12942793D01*
X14437450Y-12942793D02*
X14427927Y-12980888D01*
X14427927Y-12980888D02*
X14418403Y-12999936D01*
X14418403Y-12999936D02*
X14408879Y-13009460D01*
X14408879Y-13009460D02*
X14389831Y-13018984D01*
X14389831Y-13018984D02*
X14370784Y-13018984D01*
X14370784Y-13018984D02*
X14351736Y-13009460D01*
X14351736Y-13009460D02*
X14342212Y-12999936D01*
X14342212Y-12999936D02*
X14332688Y-12980888D01*
X14332688Y-12980888D02*
X14323165Y-12942793D01*
X14323165Y-12942793D02*
X14323165Y-12895174D01*
X14323165Y-12895174D02*
X14332688Y-12857079D01*
X14332688Y-12857079D02*
X14342212Y-12838031D01*
X14342212Y-12838031D02*
X14351736Y-12828508D01*
X14351736Y-12828508D02*
X14370784Y-12818984D01*
X14523165Y-13018984D02*
X14523165Y-12885650D01*
X14523165Y-12904698D02*
X14532688Y-12895174D01*
X14532688Y-12895174D02*
X14551736Y-12885650D01*
X14551736Y-12885650D02*
X14580308Y-12885650D01*
X14580308Y-12885650D02*
X14599355Y-12895174D01*
X14599355Y-12895174D02*
X14608879Y-12914222D01*
X14608879Y-12914222D02*
X14608879Y-13018984D01*
X14608879Y-12914222D02*
X14618403Y-12895174D01*
X14618403Y-12895174D02*
X14637450Y-12885650D01*
X14637450Y-12885650D02*
X14666022Y-12885650D01*
X14666022Y-12885650D02*
X14685069Y-12895174D01*
X14685069Y-12895174D02*
X14694593Y-12914222D01*
X14694593Y-12914222D02*
X14694593Y-13018984D01*
X14789831Y-13018984D02*
X14789831Y-12885650D01*
X14789831Y-12904698D02*
X14799355Y-12895174D01*
X14799355Y-12895174D02*
X14818403Y-12885650D01*
X14818403Y-12885650D02*
X14846974Y-12885650D01*
X14846974Y-12885650D02*
X14866022Y-12895174D01*
X14866022Y-12895174D02*
X14875546Y-12914222D01*
X14875546Y-12914222D02*
X14875546Y-13018984D01*
X14875546Y-12914222D02*
X14885069Y-12895174D01*
X14885069Y-12895174D02*
X14904117Y-12885650D01*
X14904117Y-12885650D02*
X14932688Y-12885650D01*
X14932688Y-12885650D02*
X14951736Y-12895174D01*
X14951736Y-12895174D02*
X14961260Y-12914222D01*
X14961260Y-12914222D02*
X14961260Y-13018984D01*
X15351736Y-12809460D02*
X15180308Y-13066603D01*
X15608879Y-12818984D02*
X15627927Y-12818984D01*
X15627927Y-12818984D02*
X15646974Y-12828508D01*
X15646974Y-12828508D02*
X15656498Y-12838031D01*
X15656498Y-12838031D02*
X15666022Y-12857079D01*
X15666022Y-12857079D02*
X15675546Y-12895174D01*
X15675546Y-12895174D02*
X15675546Y-12942793D01*
X15675546Y-12942793D02*
X15666022Y-12980888D01*
X15666022Y-12980888D02*
X15656498Y-12999936D01*
X15656498Y-12999936D02*
X15646974Y-13009460D01*
X15646974Y-13009460D02*
X15627927Y-13018984D01*
X15627927Y-13018984D02*
X15608879Y-13018984D01*
X15608879Y-13018984D02*
X15589831Y-13009460D01*
X15589831Y-13009460D02*
X15580308Y-12999936D01*
X15580308Y-12999936D02*
X15570784Y-12980888D01*
X15570784Y-12980888D02*
X15561260Y-12942793D01*
X15561260Y-12942793D02*
X15561260Y-12895174D01*
X15561260Y-12895174D02*
X15570784Y-12857079D01*
X15570784Y-12857079D02*
X15580308Y-12838031D01*
X15580308Y-12838031D02*
X15589831Y-12828508D01*
X15589831Y-12828508D02*
X15608879Y-12818984D01*
X15761260Y-12999936D02*
X15770784Y-13009460D01*
X15770784Y-13009460D02*
X15761260Y-13018984D01*
X15761260Y-13018984D02*
X15751736Y-13009460D01*
X15751736Y-13009460D02*
X15761260Y-12999936D01*
X15761260Y-12999936D02*
X15761260Y-13018984D01*
X15961260Y-13018984D02*
X15846974Y-13018984D01*
X15904117Y-13018984D02*
X15904117Y-12818984D01*
X15904117Y-12818984D02*
X15885070Y-12847555D01*
X15885070Y-12847555D02*
X15866022Y-12866603D01*
X15866022Y-12866603D02*
X15846974Y-12876127D01*
X16037451Y-12838031D02*
X16046974Y-12828508D01*
X16046974Y-12828508D02*
X16066022Y-12818984D01*
X16066022Y-12818984D02*
X16113641Y-12818984D01*
X16113641Y-12818984D02*
X16132689Y-12828508D01*
X16132689Y-12828508D02*
X16142212Y-12838031D01*
X16142212Y-12838031D02*
X16151736Y-12857079D01*
X16151736Y-12857079D02*
X16151736Y-12876127D01*
X16151736Y-12876127D02*
X16142212Y-12904698D01*
X16142212Y-12904698D02*
X16027927Y-13018984D01*
X16027927Y-13018984D02*
X16151736Y-13018984D01*
X16323165Y-12818984D02*
X16285070Y-12818984D01*
X16285070Y-12818984D02*
X16266022Y-12828508D01*
X16266022Y-12828508D02*
X16256498Y-12838031D01*
X16256498Y-12838031D02*
X16237451Y-12866603D01*
X16237451Y-12866603D02*
X16227927Y-12904698D01*
X16227927Y-12904698D02*
X16227927Y-12980888D01*
X16227927Y-12980888D02*
X16237451Y-12999936D01*
X16237451Y-12999936D02*
X16246974Y-13009460D01*
X16246974Y-13009460D02*
X16266022Y-13018984D01*
X16266022Y-13018984D02*
X16304117Y-13018984D01*
X16304117Y-13018984D02*
X16323165Y-13009460D01*
X16323165Y-13009460D02*
X16332689Y-12999936D01*
X16332689Y-12999936D02*
X16342212Y-12980888D01*
X16342212Y-12980888D02*
X16342212Y-12933269D01*
X16342212Y-12933269D02*
X16332689Y-12914222D01*
X16332689Y-12914222D02*
X16323165Y-12904698D01*
X16323165Y-12904698D02*
X16304117Y-12895174D01*
X16304117Y-12895174D02*
X16266022Y-12895174D01*
X16266022Y-12895174D02*
X16246974Y-12904698D01*
X16246974Y-12904698D02*
X16237451Y-12914222D01*
X16237451Y-12914222D02*
X16227927Y-12933269D01*
X16466022Y-12818984D02*
X16485070Y-12818984D01*
X16485070Y-12818984D02*
X16504117Y-12828508D01*
X16504117Y-12828508D02*
X16513641Y-12838031D01*
X16513641Y-12838031D02*
X16523165Y-12857079D01*
X16523165Y-12857079D02*
X16532689Y-12895174D01*
X16532689Y-12895174D02*
X16532689Y-12942793D01*
X16532689Y-12942793D02*
X16523165Y-12980888D01*
X16523165Y-12980888D02*
X16513641Y-12999936D01*
X16513641Y-12999936D02*
X16504117Y-13009460D01*
X16504117Y-13009460D02*
X16485070Y-13018984D01*
X16485070Y-13018984D02*
X16466022Y-13018984D01*
X16466022Y-13018984D02*
X16446974Y-13009460D01*
X16446974Y-13009460D02*
X16437451Y-12999936D01*
X16437451Y-12999936D02*
X16427927Y-12980888D01*
X16427927Y-12980888D02*
X16418403Y-12942793D01*
X16418403Y-12942793D02*
X16418403Y-12895174D01*
X16418403Y-12895174D02*
X16427927Y-12857079D01*
X16427927Y-12857079D02*
X16437451Y-12838031D01*
X16437451Y-12838031D02*
X16446974Y-12828508D01*
X16446974Y-12828508D02*
X16466022Y-12818984D01*
X16608879Y-12818984D02*
X16608879Y-12857079D01*
X16685070Y-12818984D02*
X16685070Y-12857079D01*
X16980308Y-13095174D02*
X16970784Y-13085650D01*
X16970784Y-13085650D02*
X16951736Y-13057079D01*
X16951736Y-13057079D02*
X16942213Y-13038031D01*
X16942213Y-13038031D02*
X16932689Y-13009460D01*
X16932689Y-13009460D02*
X16923165Y-12961841D01*
X16923165Y-12961841D02*
X16923165Y-12923746D01*
X16923165Y-12923746D02*
X16932689Y-12876127D01*
X16932689Y-12876127D02*
X16942213Y-12847555D01*
X16942213Y-12847555D02*
X16951736Y-12828508D01*
X16951736Y-12828508D02*
X16970784Y-12799936D01*
X16970784Y-12799936D02*
X16980308Y-12790412D01*
X17142213Y-12885650D02*
X17142213Y-13018984D01*
X17094594Y-12809460D02*
X17046975Y-12952317D01*
X17046975Y-12952317D02*
X17170784Y-12952317D01*
X17399356Y-13018984D02*
X17399356Y-12818984D01*
X17485070Y-13018984D02*
X17485070Y-12914222D01*
X17485070Y-12914222D02*
X17475546Y-12895174D01*
X17475546Y-12895174D02*
X17456498Y-12885650D01*
X17456498Y-12885650D02*
X17427927Y-12885650D01*
X17427927Y-12885650D02*
X17408879Y-12895174D01*
X17408879Y-12895174D02*
X17399356Y-12904698D01*
X17608879Y-13018984D02*
X17589832Y-13009460D01*
X17589832Y-13009460D02*
X17580308Y-12999936D01*
X17580308Y-12999936D02*
X17570784Y-12980888D01*
X17570784Y-12980888D02*
X17570784Y-12923746D01*
X17570784Y-12923746D02*
X17580308Y-12904698D01*
X17580308Y-12904698D02*
X17589832Y-12895174D01*
X17589832Y-12895174D02*
X17608879Y-12885650D01*
X17608879Y-12885650D02*
X17637451Y-12885650D01*
X17637451Y-12885650D02*
X17656498Y-12895174D01*
X17656498Y-12895174D02*
X17666022Y-12904698D01*
X17666022Y-12904698D02*
X17675546Y-12923746D01*
X17675546Y-12923746D02*
X17675546Y-12980888D01*
X17675546Y-12980888D02*
X17666022Y-12999936D01*
X17666022Y-12999936D02*
X17656498Y-13009460D01*
X17656498Y-13009460D02*
X17637451Y-13018984D01*
X17637451Y-13018984D02*
X17608879Y-13018984D01*
X17789832Y-13018984D02*
X17770784Y-13009460D01*
X17770784Y-13009460D02*
X17761260Y-12990412D01*
X17761260Y-12990412D02*
X17761260Y-12818984D01*
X17942213Y-13009460D02*
X17923165Y-13018984D01*
X17923165Y-13018984D02*
X17885070Y-13018984D01*
X17885070Y-13018984D02*
X17866022Y-13009460D01*
X17866022Y-13009460D02*
X17856498Y-12990412D01*
X17856498Y-12990412D02*
X17856498Y-12914222D01*
X17856498Y-12914222D02*
X17866022Y-12895174D01*
X17866022Y-12895174D02*
X17885070Y-12885650D01*
X17885070Y-12885650D02*
X17923165Y-12885650D01*
X17923165Y-12885650D02*
X17942213Y-12895174D01*
X17942213Y-12895174D02*
X17951737Y-12914222D01*
X17951737Y-12914222D02*
X17951737Y-12933269D01*
X17951737Y-12933269D02*
X17856498Y-12952317D01*
X18027927Y-13009460D02*
X18046975Y-13018984D01*
X18046975Y-13018984D02*
X18085070Y-13018984D01*
X18085070Y-13018984D02*
X18104118Y-13009460D01*
X18104118Y-13009460D02*
X18113641Y-12990412D01*
X18113641Y-12990412D02*
X18113641Y-12980888D01*
X18113641Y-12980888D02*
X18104118Y-12961841D01*
X18104118Y-12961841D02*
X18085070Y-12952317D01*
X18085070Y-12952317D02*
X18056498Y-12952317D01*
X18056498Y-12952317D02*
X18037451Y-12942793D01*
X18037451Y-12942793D02*
X18027927Y-12923746D01*
X18027927Y-12923746D02*
X18027927Y-12914222D01*
X18027927Y-12914222D02*
X18037451Y-12895174D01*
X18037451Y-12895174D02*
X18056498Y-12885650D01*
X18056498Y-12885650D02*
X18085070Y-12885650D01*
X18085070Y-12885650D02*
X18104118Y-12895174D01*
X18180308Y-13095174D02*
X18189832Y-13085650D01*
X18189832Y-13085650D02*
X18208879Y-13057079D01*
X18208879Y-13057079D02*
X18218403Y-13038031D01*
X18218403Y-13038031D02*
X18227927Y-13009460D01*
X18227927Y-13009460D02*
X18237451Y-12961841D01*
X18237451Y-12961841D02*
X18237451Y-12923746D01*
X18237451Y-12923746D02*
X18227927Y-12876127D01*
X18227927Y-12876127D02*
X18218403Y-12847555D01*
X18218403Y-12847555D02*
X18208879Y-12828508D01*
X18208879Y-12828508D02*
X18189832Y-12799936D01*
X18189832Y-12799936D02*
X18180308Y-12790412D01*
X18542213Y-13095174D02*
X18532689Y-13085650D01*
X18532689Y-13085650D02*
X18513641Y-13057079D01*
X18513641Y-13057079D02*
X18504118Y-13038031D01*
X18504118Y-13038031D02*
X18494594Y-13009460D01*
X18494594Y-13009460D02*
X18485070Y-12961841D01*
X18485070Y-12961841D02*
X18485070Y-12923746D01*
X18485070Y-12923746D02*
X18494594Y-12876127D01*
X18494594Y-12876127D02*
X18504118Y-12847555D01*
X18504118Y-12847555D02*
X18513641Y-12828508D01*
X18513641Y-12828508D02*
X18532689Y-12799936D01*
X18532689Y-12799936D02*
X18542213Y-12790412D01*
X18618403Y-12885650D02*
X18618403Y-13018984D01*
X18618403Y-12904698D02*
X18627927Y-12895174D01*
X18627927Y-12895174D02*
X18646975Y-12885650D01*
X18646975Y-12885650D02*
X18675546Y-12885650D01*
X18675546Y-12885650D02*
X18694594Y-12895174D01*
X18694594Y-12895174D02*
X18704118Y-12914222D01*
X18704118Y-12914222D02*
X18704118Y-13018984D01*
X18827927Y-13018984D02*
X18808879Y-13009460D01*
X18808879Y-13009460D02*
X18799356Y-12999936D01*
X18799356Y-12999936D02*
X18789832Y-12980888D01*
X18789832Y-12980888D02*
X18789832Y-12923746D01*
X18789832Y-12923746D02*
X18799356Y-12904698D01*
X18799356Y-12904698D02*
X18808879Y-12895174D01*
X18808879Y-12895174D02*
X18827927Y-12885650D01*
X18827927Y-12885650D02*
X18856499Y-12885650D01*
X18856499Y-12885650D02*
X18875546Y-12895174D01*
X18875546Y-12895174D02*
X18885070Y-12904698D01*
X18885070Y-12904698D02*
X18894594Y-12923746D01*
X18894594Y-12923746D02*
X18894594Y-12980888D01*
X18894594Y-12980888D02*
X18885070Y-12999936D01*
X18885070Y-12999936D02*
X18875546Y-13009460D01*
X18875546Y-13009460D02*
X18856499Y-13018984D01*
X18856499Y-13018984D02*
X18827927Y-13018984D01*
X18951737Y-12885650D02*
X19027927Y-12885650D01*
X18980308Y-12818984D02*
X18980308Y-12990412D01*
X18980308Y-12990412D02*
X18989832Y-13009460D01*
X18989832Y-13009460D02*
X19008879Y-13018984D01*
X19008879Y-13018984D02*
X19027927Y-13018984D01*
X19246975Y-12885650D02*
X19246975Y-13085650D01*
X19246975Y-12895174D02*
X19266022Y-12885650D01*
X19266022Y-12885650D02*
X19304118Y-12885650D01*
X19304118Y-12885650D02*
X19323165Y-12895174D01*
X19323165Y-12895174D02*
X19332689Y-12904698D01*
X19332689Y-12904698D02*
X19342213Y-12923746D01*
X19342213Y-12923746D02*
X19342213Y-12980888D01*
X19342213Y-12980888D02*
X19332689Y-12999936D01*
X19332689Y-12999936D02*
X19323165Y-13009460D01*
X19323165Y-13009460D02*
X19304118Y-13018984D01*
X19304118Y-13018984D02*
X19266022Y-13018984D01*
X19266022Y-13018984D02*
X19246975Y-13009460D01*
X19456499Y-13018984D02*
X19437451Y-13009460D01*
X19437451Y-13009460D02*
X19427927Y-12990412D01*
X19427927Y-12990412D02*
X19427927Y-12818984D01*
X19618403Y-13018984D02*
X19618403Y-12914222D01*
X19618403Y-12914222D02*
X19608880Y-12895174D01*
X19608880Y-12895174D02*
X19589832Y-12885650D01*
X19589832Y-12885650D02*
X19551737Y-12885650D01*
X19551737Y-12885650D02*
X19532689Y-12895174D01*
X19618403Y-13009460D02*
X19599356Y-13018984D01*
X19599356Y-13018984D02*
X19551737Y-13018984D01*
X19551737Y-13018984D02*
X19532689Y-13009460D01*
X19532689Y-13009460D02*
X19523165Y-12990412D01*
X19523165Y-12990412D02*
X19523165Y-12971365D01*
X19523165Y-12971365D02*
X19532689Y-12952317D01*
X19532689Y-12952317D02*
X19551737Y-12942793D01*
X19551737Y-12942793D02*
X19599356Y-12942793D01*
X19599356Y-12942793D02*
X19618403Y-12933269D01*
X19685070Y-12885650D02*
X19761260Y-12885650D01*
X19713641Y-12818984D02*
X19713641Y-12990412D01*
X19713641Y-12990412D02*
X19723165Y-13009460D01*
X19723165Y-13009460D02*
X19742213Y-13018984D01*
X19742213Y-13018984D02*
X19761260Y-13018984D01*
X19904118Y-13009460D02*
X19885070Y-13018984D01*
X19885070Y-13018984D02*
X19846975Y-13018984D01*
X19846975Y-13018984D02*
X19827927Y-13009460D01*
X19827927Y-13009460D02*
X19818403Y-12990412D01*
X19818403Y-12990412D02*
X19818403Y-12914222D01*
X19818403Y-12914222D02*
X19827927Y-12895174D01*
X19827927Y-12895174D02*
X19846975Y-12885650D01*
X19846975Y-12885650D02*
X19885070Y-12885650D01*
X19885070Y-12885650D02*
X19904118Y-12895174D01*
X19904118Y-12895174D02*
X19913641Y-12914222D01*
X19913641Y-12914222D02*
X19913641Y-12933269D01*
X19913641Y-12933269D02*
X19818403Y-12952317D01*
X20085070Y-13018984D02*
X20085070Y-12818984D01*
X20085070Y-13009460D02*
X20066022Y-13018984D01*
X20066022Y-13018984D02*
X20027927Y-13018984D01*
X20027927Y-13018984D02*
X20008880Y-13009460D01*
X20008880Y-13009460D02*
X19999356Y-12999936D01*
X19999356Y-12999936D02*
X19989832Y-12980888D01*
X19989832Y-12980888D02*
X19989832Y-12923746D01*
X19989832Y-12923746D02*
X19999356Y-12904698D01*
X19999356Y-12904698D02*
X20008880Y-12895174D01*
X20008880Y-12895174D02*
X20027927Y-12885650D01*
X20027927Y-12885650D02*
X20066022Y-12885650D01*
X20066022Y-12885650D02*
X20085070Y-12895174D01*
X20161261Y-13095174D02*
X20170784Y-13085650D01*
X20170784Y-13085650D02*
X20189832Y-13057079D01*
X20189832Y-13057079D02*
X20199356Y-13038031D01*
X20199356Y-13038031D02*
X20208880Y-13009460D01*
X20208880Y-13009460D02*
X20218403Y-12961841D01*
X20218403Y-12961841D02*
X20218403Y-12923746D01*
X20218403Y-12923746D02*
X20208880Y-12876127D01*
X20208880Y-12876127D02*
X20199356Y-12847555D01*
X20199356Y-12847555D02*
X20189832Y-12828508D01*
X20189832Y-12828508D02*
X20170784Y-12799936D01*
X20170784Y-12799936D02*
X20161261Y-12790412D01*
M02*
