%TF.GenerationSoftware,KiCad,Pcbnew,8.0.8*%
%TF.CreationDate,2025-02-12T11:28:01-05:00*%
%TF.ProjectId,pa-test-board,70612d74-6573-4742-9d62-6f6172642e6b,rev?*%
%TF.SameCoordinates,Original*%
%TF.FileFunction,Soldermask,Top*%
%TF.FilePolarity,Negative*%
%FSLAX46Y46*%
G04 Gerber Fmt 4.6, Leading zero omitted, Abs format (unit mm)*
G04 Created by KiCad (PCBNEW 8.0.8) date 2025-02-12 11:28:01*
%MOMM*%
%LPD*%
G01*
G04 APERTURE LIST*
G04 Aperture macros list*
%AMRoundRect*
0 Rectangle with rounded corners*
0 $1 Rounding radius*
0 $2 $3 $4 $5 $6 $7 $8 $9 X,Y pos of 4 corners*
0 Add a 4 corners polygon primitive as box body*
4,1,4,$2,$3,$4,$5,$6,$7,$8,$9,$2,$3,0*
0 Add four circle primitives for the rounded corners*
1,1,$1+$1,$2,$3*
1,1,$1+$1,$4,$5*
1,1,$1+$1,$6,$7*
1,1,$1+$1,$8,$9*
0 Add four rect primitives between the rounded corners*
20,1,$1+$1,$2,$3,$4,$5,0*
20,1,$1+$1,$4,$5,$6,$7,0*
20,1,$1+$1,$6,$7,$8,$9,0*
20,1,$1+$1,$8,$9,$2,$3,0*%
G04 Aperture macros list end*
%ADD10RoundRect,0.250000X0.337500X0.475000X-0.337500X0.475000X-0.337500X-0.475000X0.337500X-0.475000X0*%
%ADD11RoundRect,0.250000X0.450000X-0.350000X0.450000X0.350000X-0.450000X0.350000X-0.450000X-0.350000X0*%
%ADD12RoundRect,0.250000X-0.350000X-0.450000X0.350000X-0.450000X0.350000X0.450000X-0.350000X0.450000X0*%
%ADD13RoundRect,0.250000X-0.450000X0.350000X-0.450000X-0.350000X0.450000X-0.350000X0.450000X0.350000X0*%
%ADD14R,1.700000X1.700000*%
%ADD15O,1.700000X1.700000*%
%ADD16RoundRect,0.250000X0.450000X-0.325000X0.450000X0.325000X-0.450000X0.325000X-0.450000X-0.325000X0*%
%ADD17C,3.200000*%
%ADD18RoundRect,0.162500X0.162500X-0.447500X0.162500X0.447500X-0.162500X0.447500X-0.162500X-0.447500X0*%
%ADD19RoundRect,0.250000X-0.325000X-0.450000X0.325000X-0.450000X0.325000X0.450000X-0.325000X0.450000X0*%
%ADD20RoundRect,0.250000X-0.337500X-0.475000X0.337500X-0.475000X0.337500X0.475000X-0.337500X0.475000X0*%
%ADD21RoundRect,0.101600X2.032000X-0.635000X2.032000X0.635000X-2.032000X0.635000X-2.032000X-0.635000X0*%
%ADD22RoundRect,0.101600X2.032000X-0.762000X2.032000X0.762000X-2.032000X0.762000X-2.032000X-0.762000X0*%
%ADD23RoundRect,0.250000X-0.475000X0.337500X-0.475000X-0.337500X0.475000X-0.337500X0.475000X0.337500X0*%
%ADD24RoundRect,0.250000X-0.450000X0.325000X-0.450000X-0.325000X0.450000X-0.325000X0.450000X0.325000X0*%
%ADD25RoundRect,0.150000X-0.512500X-0.150000X0.512500X-0.150000X0.512500X0.150000X-0.512500X0.150000X0*%
%ADD26RoundRect,0.101600X-2.032000X0.635000X-2.032000X-0.635000X2.032000X-0.635000X2.032000X0.635000X0*%
%ADD27RoundRect,0.101600X-2.032000X0.762000X-2.032000X-0.762000X2.032000X-0.762000X2.032000X0.762000X0*%
%ADD28O,0.700000X0.380000*%
%ADD29O,0.380000X0.700000*%
%ADD30C,0.500000*%
%ADD31R,2.700000X2.700000*%
%ADD32RoundRect,0.250000X0.475000X-0.337500X0.475000X0.337500X-0.475000X0.337500X-0.475000X-0.337500X0*%
G04 APERTURE END LIST*
D10*
%TO.C,C13*%
X154877450Y-103550000D03*
X152802450Y-103550000D03*
%TD*%
D11*
%TO.C,R3*%
X153700000Y-99600000D03*
X153700000Y-97600000D03*
%TD*%
D12*
%TO.C,R5*%
X154100000Y-101500000D03*
X156100000Y-101500000D03*
%TD*%
D13*
%TO.C,R6*%
X147277450Y-105550000D03*
X147277450Y-107550000D03*
%TD*%
D14*
%TO.C,J1*%
X144050000Y-94950000D03*
D15*
X146590000Y-94950000D03*
X149130000Y-94950000D03*
%TD*%
D16*
%TO.C,L2*%
X143300000Y-111450000D03*
X143300000Y-109400000D03*
%TD*%
D17*
%TO.C,H3*%
X137600000Y-119300000D03*
%TD*%
D18*
%TO.C,D2*%
X149127450Y-106550000D03*
X151027450Y-106550000D03*
X150077450Y-103930000D03*
%TD*%
D19*
%TO.C,L11*%
X153827450Y-111150000D03*
X155877450Y-111150000D03*
%TD*%
D20*
%TO.C,C14*%
X143002450Y-107350000D03*
X145077450Y-107350000D03*
%TD*%
D21*
%TO.C,J2*%
X136132000Y-111350000D03*
D22*
X136132000Y-108810000D03*
X136132000Y-113890000D03*
%TD*%
D23*
%TO.C,C11*%
X157677450Y-109075000D03*
X157677450Y-111150000D03*
%TD*%
D24*
%TO.C,L1*%
X154877450Y-107300000D03*
X154877450Y-109350000D03*
%TD*%
D17*
%TO.C,H4*%
X163400000Y-95600000D03*
%TD*%
D10*
%TO.C,C2*%
X161677450Y-111150000D03*
X159602450Y-111150000D03*
%TD*%
D17*
%TO.C,H2*%
X163300000Y-119300000D03*
%TD*%
D10*
%TO.C,C3*%
X141237500Y-111400000D03*
X139162500Y-111400000D03*
%TD*%
D14*
%TO.C,J4*%
X142932550Y-100500000D03*
D15*
X145472550Y-100500000D03*
X148012550Y-100500000D03*
X150552550Y-100500000D03*
%TD*%
D24*
%TO.C,R1*%
X152877450Y-105500000D03*
X152877450Y-107550000D03*
%TD*%
D14*
%TO.C,J5*%
X155400000Y-94900000D03*
D15*
X152860000Y-94900000D03*
%TD*%
D20*
%TO.C,C7*%
X156802450Y-107150000D03*
X158877450Y-107150000D03*
%TD*%
D17*
%TO.C,H1*%
X137500000Y-95600000D03*
%TD*%
D25*
%TO.C,U1*%
X155725000Y-97500000D03*
X155725000Y-98450000D03*
X155725000Y-99400000D03*
X158000000Y-99400000D03*
X158000000Y-97500000D03*
%TD*%
D10*
%TO.C,C1*%
X147400000Y-111400000D03*
X145325000Y-111400000D03*
%TD*%
D12*
%TO.C,R8*%
X142130000Y-97750000D03*
X144130000Y-97750000D03*
%TD*%
D26*
%TO.C,J3*%
X164845450Y-111150000D03*
D27*
X164845450Y-113690000D03*
X164845450Y-108610000D03*
%TD*%
D28*
%TO.C,PA1*%
X148697450Y-109650000D03*
X148697450Y-110150000D03*
X148697450Y-110650000D03*
X148697450Y-111150000D03*
X148697450Y-111650000D03*
X148697450Y-112150000D03*
D29*
X149337450Y-112790000D03*
X149837450Y-112790000D03*
X150337450Y-112790000D03*
X150837450Y-112790000D03*
X151337450Y-112790000D03*
X151837450Y-112790000D03*
D28*
X152477450Y-112150000D03*
X152477450Y-111650000D03*
X152477450Y-111150000D03*
X152477450Y-110650000D03*
X152477450Y-110150000D03*
X152477450Y-109650000D03*
D29*
X151837450Y-109010000D03*
X151337450Y-109010000D03*
X150837450Y-109010000D03*
X150337450Y-109010000D03*
X149837450Y-109010000D03*
X149337450Y-109010000D03*
D30*
X149627450Y-109940000D03*
X149627450Y-110580000D03*
X149627450Y-111220000D03*
X149627450Y-111860000D03*
X150267450Y-109940000D03*
X150267450Y-110580000D03*
X150267450Y-111220000D03*
X150267450Y-111860000D03*
D31*
X150587450Y-110900000D03*
D30*
X150907450Y-109940000D03*
X150907450Y-110580000D03*
X150907450Y-111220000D03*
X150907450Y-111860000D03*
X151547450Y-109940000D03*
X151547450Y-110580000D03*
X151547450Y-111220000D03*
X151547450Y-111860000D03*
%TD*%
D11*
%TO.C,R2*%
X158000000Y-103300000D03*
X158000000Y-101300000D03*
%TD*%
D32*
%TO.C,C4*%
X158900000Y-95775000D03*
X158900000Y-93700000D03*
%TD*%
D12*
%TO.C,R4*%
X147852550Y-97700000D03*
X149852550Y-97700000D03*
%TD*%
M02*
