%TF.GenerationSoftware,KiCad,Pcbnew,7.0.7*%
%TF.CreationDate,2024-05-20T18:34:11-04:00*%
%TF.ProjectId,LVPD-board_v2,4c565044-2d62-46f6-9172-645f76322e6b,rev?*%
%TF.SameCoordinates,Original*%
%TF.FileFunction,Legend,Top*%
%TF.FilePolarity,Positive*%
%FSLAX46Y46*%
G04 Gerber Fmt 4.6, Leading zero omitted, Abs format (unit mm)*
G04 Created by KiCad (PCBNEW 7.0.7) date 2024-05-20 18:34:11*
%MOMM*%
%LPD*%
G01*
G04 APERTURE LIST*
%ADD10C,0.150000*%
%ADD11C,0.100000*%
%ADD12C,0.120000*%
G04 APERTURE END LIST*
D10*
X115291666Y-87634819D02*
X115291666Y-88349104D01*
X115291666Y-88349104D02*
X115244047Y-88491961D01*
X115244047Y-88491961D02*
X115148809Y-88587200D01*
X115148809Y-88587200D02*
X115005952Y-88634819D01*
X115005952Y-88634819D02*
X114910714Y-88634819D01*
X116196428Y-87968152D02*
X116196428Y-88634819D01*
X115958333Y-87587200D02*
X115720238Y-88301485D01*
X115720238Y-88301485D02*
X116339285Y-88301485D01*
D11*
X110833609Y-93680952D02*
X110881228Y-93538095D01*
X110881228Y-93538095D02*
X110928847Y-93490476D01*
X110928847Y-93490476D02*
X111024085Y-93442857D01*
X111024085Y-93442857D02*
X111166942Y-93442857D01*
X111166942Y-93442857D02*
X111262180Y-93490476D01*
X111262180Y-93490476D02*
X111309800Y-93538095D01*
X111309800Y-93538095D02*
X111357419Y-93633333D01*
X111357419Y-93633333D02*
X111357419Y-94014285D01*
X111357419Y-94014285D02*
X110357419Y-94014285D01*
X110357419Y-94014285D02*
X110357419Y-93680952D01*
X110357419Y-93680952D02*
X110405038Y-93585714D01*
X110405038Y-93585714D02*
X110452657Y-93538095D01*
X110452657Y-93538095D02*
X110547895Y-93490476D01*
X110547895Y-93490476D02*
X110643133Y-93490476D01*
X110643133Y-93490476D02*
X110738371Y-93538095D01*
X110738371Y-93538095D02*
X110785990Y-93585714D01*
X110785990Y-93585714D02*
X110833609Y-93680952D01*
X110833609Y-93680952D02*
X110833609Y-94014285D01*
X110357419Y-93109523D02*
X110357419Y-92442857D01*
X110357419Y-92442857D02*
X111357419Y-93109523D01*
X111357419Y-93109523D02*
X111357419Y-92442857D01*
X111357419Y-91538095D02*
X111357419Y-92109523D01*
X111357419Y-91823809D02*
X110357419Y-91823809D01*
X110357419Y-91823809D02*
X110500276Y-91919047D01*
X110500276Y-91919047D02*
X110595514Y-92014285D01*
X110595514Y-92014285D02*
X110643133Y-92109523D01*
X105141466Y-96996115D02*
X105141466Y-96234211D01*
X105522419Y-96615163D02*
X104760514Y-96615163D01*
X129242580Y-86578571D02*
X129242580Y-87149999D01*
X128242580Y-86864285D02*
X129242580Y-86864285D01*
X128290200Y-87864285D02*
X128242580Y-87769047D01*
X128242580Y-87769047D02*
X128242580Y-87578571D01*
X128242580Y-87578571D02*
X128290200Y-87483333D01*
X128290200Y-87483333D02*
X128385438Y-87435714D01*
X128385438Y-87435714D02*
X128766390Y-87435714D01*
X128766390Y-87435714D02*
X128861628Y-87483333D01*
X128861628Y-87483333D02*
X128909247Y-87578571D01*
X128909247Y-87578571D02*
X128909247Y-87769047D01*
X128909247Y-87769047D02*
X128861628Y-87864285D01*
X128861628Y-87864285D02*
X128766390Y-87911904D01*
X128766390Y-87911904D02*
X128671152Y-87911904D01*
X128671152Y-87911904D02*
X128575914Y-87435714D01*
X128290200Y-88721428D02*
X128242580Y-88626190D01*
X128242580Y-88626190D02*
X128242580Y-88435714D01*
X128242580Y-88435714D02*
X128290200Y-88340476D01*
X128290200Y-88340476D02*
X128385438Y-88292857D01*
X128385438Y-88292857D02*
X128766390Y-88292857D01*
X128766390Y-88292857D02*
X128861628Y-88340476D01*
X128861628Y-88340476D02*
X128909247Y-88435714D01*
X128909247Y-88435714D02*
X128909247Y-88626190D01*
X128909247Y-88626190D02*
X128861628Y-88721428D01*
X128861628Y-88721428D02*
X128766390Y-88769047D01*
X128766390Y-88769047D02*
X128671152Y-88769047D01*
X128671152Y-88769047D02*
X128575914Y-88292857D01*
X128909247Y-89197619D02*
X128242580Y-89197619D01*
X128814009Y-89197619D02*
X128861628Y-89245238D01*
X128861628Y-89245238D02*
X128909247Y-89340476D01*
X128909247Y-89340476D02*
X128909247Y-89483333D01*
X128909247Y-89483333D02*
X128861628Y-89578571D01*
X128861628Y-89578571D02*
X128766390Y-89626190D01*
X128766390Y-89626190D02*
X128242580Y-89626190D01*
X128290200Y-90054762D02*
X128242580Y-90150000D01*
X128242580Y-90150000D02*
X128242580Y-90340476D01*
X128242580Y-90340476D02*
X128290200Y-90435714D01*
X128290200Y-90435714D02*
X128385438Y-90483333D01*
X128385438Y-90483333D02*
X128433057Y-90483333D01*
X128433057Y-90483333D02*
X128528295Y-90435714D01*
X128528295Y-90435714D02*
X128575914Y-90340476D01*
X128575914Y-90340476D02*
X128575914Y-90197619D01*
X128575914Y-90197619D02*
X128623533Y-90102381D01*
X128623533Y-90102381D02*
X128718771Y-90054762D01*
X128718771Y-90054762D02*
X128766390Y-90054762D01*
X128766390Y-90054762D02*
X128861628Y-90102381D01*
X128861628Y-90102381D02*
X128909247Y-90197619D01*
X128909247Y-90197619D02*
X128909247Y-90340476D01*
X128909247Y-90340476D02*
X128861628Y-90435714D01*
X128909247Y-90816667D02*
X128242580Y-91054762D01*
X128909247Y-91292857D02*
X128242580Y-91054762D01*
X128242580Y-91054762D02*
X128004485Y-90959524D01*
X128004485Y-90959524D02*
X127956866Y-90911905D01*
X127956866Y-90911905D02*
X127909247Y-90816667D01*
X128909247Y-92102381D02*
X128242580Y-92102381D01*
X129290200Y-91864286D02*
X128575914Y-91626191D01*
X128575914Y-91626191D02*
X128575914Y-92245238D01*
X128337819Y-92626191D02*
X128290200Y-92673810D01*
X128290200Y-92673810D02*
X128242580Y-92626191D01*
X128242580Y-92626191D02*
X128290200Y-92578572D01*
X128290200Y-92578572D02*
X128337819Y-92626191D01*
X128337819Y-92626191D02*
X128242580Y-92626191D01*
X128242580Y-93626190D02*
X128242580Y-93054762D01*
X128242580Y-93340476D02*
X129242580Y-93340476D01*
X129242580Y-93340476D02*
X129099723Y-93245238D01*
X129099723Y-93245238D02*
X129004485Y-93150000D01*
X129004485Y-93150000D02*
X128956866Y-93054762D01*
X131296265Y-100396704D02*
X131772455Y-100396704D01*
X131201027Y-100682419D02*
X131534360Y-99682419D01*
X131534360Y-99682419D02*
X131867693Y-100682419D01*
X132724836Y-100682419D02*
X132153408Y-100682419D01*
X132439122Y-100682419D02*
X132439122Y-99682419D01*
X132439122Y-99682419D02*
X132343884Y-99825276D01*
X132343884Y-99825276D02*
X132248646Y-99920514D01*
X132248646Y-99920514D02*
X132153408Y-99968133D01*
X133058170Y-99682419D02*
X133724836Y-99682419D01*
X133724836Y-99682419D02*
X133296265Y-100682419D01*
X122977693Y-120050038D02*
X122882455Y-120002419D01*
X122882455Y-120002419D02*
X122739598Y-120002419D01*
X122739598Y-120002419D02*
X122596741Y-120050038D01*
X122596741Y-120050038D02*
X122501503Y-120145276D01*
X122501503Y-120145276D02*
X122453884Y-120240514D01*
X122453884Y-120240514D02*
X122406265Y-120430990D01*
X122406265Y-120430990D02*
X122406265Y-120573847D01*
X122406265Y-120573847D02*
X122453884Y-120764323D01*
X122453884Y-120764323D02*
X122501503Y-120859561D01*
X122501503Y-120859561D02*
X122596741Y-120954800D01*
X122596741Y-120954800D02*
X122739598Y-121002419D01*
X122739598Y-121002419D02*
X122834836Y-121002419D01*
X122834836Y-121002419D02*
X122977693Y-120954800D01*
X122977693Y-120954800D02*
X123025312Y-120907180D01*
X123025312Y-120907180D02*
X123025312Y-120573847D01*
X123025312Y-120573847D02*
X122834836Y-120573847D01*
X123453884Y-121002419D02*
X123453884Y-120002419D01*
X123453884Y-120002419D02*
X123834836Y-120002419D01*
X123834836Y-120002419D02*
X123930074Y-120050038D01*
X123930074Y-120050038D02*
X123977693Y-120097657D01*
X123977693Y-120097657D02*
X124025312Y-120192895D01*
X124025312Y-120192895D02*
X124025312Y-120335752D01*
X124025312Y-120335752D02*
X123977693Y-120430990D01*
X123977693Y-120430990D02*
X123930074Y-120478609D01*
X123930074Y-120478609D02*
X123834836Y-120526228D01*
X123834836Y-120526228D02*
X123453884Y-120526228D01*
X124453884Y-121002419D02*
X124453884Y-120002419D01*
X125120550Y-120002419D02*
X125311026Y-120002419D01*
X125311026Y-120002419D02*
X125406264Y-120050038D01*
X125406264Y-120050038D02*
X125501502Y-120145276D01*
X125501502Y-120145276D02*
X125549121Y-120335752D01*
X125549121Y-120335752D02*
X125549121Y-120669085D01*
X125549121Y-120669085D02*
X125501502Y-120859561D01*
X125501502Y-120859561D02*
X125406264Y-120954800D01*
X125406264Y-120954800D02*
X125311026Y-121002419D01*
X125311026Y-121002419D02*
X125120550Y-121002419D01*
X125120550Y-121002419D02*
X125025312Y-120954800D01*
X125025312Y-120954800D02*
X124930074Y-120859561D01*
X124930074Y-120859561D02*
X124882455Y-120669085D01*
X124882455Y-120669085D02*
X124882455Y-120335752D01*
X124882455Y-120335752D02*
X124930074Y-120145276D01*
X124930074Y-120145276D02*
X125025312Y-120050038D01*
X125025312Y-120050038D02*
X125120550Y-120002419D01*
X131201027Y-114922419D02*
X131772455Y-114922419D01*
X131486741Y-115922419D02*
X131486741Y-114922419D01*
X132010551Y-114922419D02*
X132677217Y-115922419D01*
X132677217Y-114922419D02*
X132010551Y-115922419D01*
X133201027Y-115350990D02*
X133105789Y-115303371D01*
X133105789Y-115303371D02*
X133058170Y-115255752D01*
X133058170Y-115255752D02*
X133010551Y-115160514D01*
X133010551Y-115160514D02*
X133010551Y-115112895D01*
X133010551Y-115112895D02*
X133058170Y-115017657D01*
X133058170Y-115017657D02*
X133105789Y-114970038D01*
X133105789Y-114970038D02*
X133201027Y-114922419D01*
X133201027Y-114922419D02*
X133391503Y-114922419D01*
X133391503Y-114922419D02*
X133486741Y-114970038D01*
X133486741Y-114970038D02*
X133534360Y-115017657D01*
X133534360Y-115017657D02*
X133581979Y-115112895D01*
X133581979Y-115112895D02*
X133581979Y-115160514D01*
X133581979Y-115160514D02*
X133534360Y-115255752D01*
X133534360Y-115255752D02*
X133486741Y-115303371D01*
X133486741Y-115303371D02*
X133391503Y-115350990D01*
X133391503Y-115350990D02*
X133201027Y-115350990D01*
X133201027Y-115350990D02*
X133105789Y-115398609D01*
X133105789Y-115398609D02*
X133058170Y-115446228D01*
X133058170Y-115446228D02*
X133010551Y-115541466D01*
X133010551Y-115541466D02*
X133010551Y-115731942D01*
X133010551Y-115731942D02*
X133058170Y-115827180D01*
X133058170Y-115827180D02*
X133105789Y-115874800D01*
X133105789Y-115874800D02*
X133201027Y-115922419D01*
X133201027Y-115922419D02*
X133391503Y-115922419D01*
X133391503Y-115922419D02*
X133486741Y-115874800D01*
X133486741Y-115874800D02*
X133534360Y-115827180D01*
X133534360Y-115827180D02*
X133581979Y-115731942D01*
X133581979Y-115731942D02*
X133581979Y-115541466D01*
X133581979Y-115541466D02*
X133534360Y-115446228D01*
X133534360Y-115446228D02*
X133486741Y-115398609D01*
X133486741Y-115398609D02*
X133391503Y-115350990D01*
X122453884Y-72742419D02*
X122453884Y-71742419D01*
X122453884Y-71742419D02*
X122834836Y-71742419D01*
X122834836Y-71742419D02*
X122930074Y-71790038D01*
X122930074Y-71790038D02*
X122977693Y-71837657D01*
X122977693Y-71837657D02*
X123025312Y-71932895D01*
X123025312Y-71932895D02*
X123025312Y-72075752D01*
X123025312Y-72075752D02*
X122977693Y-72170990D01*
X122977693Y-72170990D02*
X122930074Y-72218609D01*
X122930074Y-72218609D02*
X122834836Y-72266228D01*
X122834836Y-72266228D02*
X122453884Y-72266228D01*
X123358646Y-71742419D02*
X123596741Y-72742419D01*
X123596741Y-72742419D02*
X123787217Y-72028133D01*
X123787217Y-72028133D02*
X123977693Y-72742419D01*
X123977693Y-72742419D02*
X124215789Y-71742419D01*
X124596741Y-72742419D02*
X124596741Y-71742419D01*
X124596741Y-71742419D02*
X124930074Y-72456704D01*
X124930074Y-72456704D02*
X125263407Y-71742419D01*
X125263407Y-71742419D02*
X125263407Y-72742419D01*
X122453884Y-95602419D02*
X122453884Y-94602419D01*
X122453884Y-94602419D02*
X122787217Y-95316704D01*
X122787217Y-95316704D02*
X123120550Y-94602419D01*
X123120550Y-94602419D02*
X123120550Y-95602419D01*
X123596741Y-95602419D02*
X123596741Y-94602419D01*
X124025312Y-95554800D02*
X124168169Y-95602419D01*
X124168169Y-95602419D02*
X124406264Y-95602419D01*
X124406264Y-95602419D02*
X124501502Y-95554800D01*
X124501502Y-95554800D02*
X124549121Y-95507180D01*
X124549121Y-95507180D02*
X124596740Y-95411942D01*
X124596740Y-95411942D02*
X124596740Y-95316704D01*
X124596740Y-95316704D02*
X124549121Y-95221466D01*
X124549121Y-95221466D02*
X124501502Y-95173847D01*
X124501502Y-95173847D02*
X124406264Y-95126228D01*
X124406264Y-95126228D02*
X124215788Y-95078609D01*
X124215788Y-95078609D02*
X124120550Y-95030990D01*
X124120550Y-95030990D02*
X124072931Y-94983371D01*
X124072931Y-94983371D02*
X124025312Y-94888133D01*
X124025312Y-94888133D02*
X124025312Y-94792895D01*
X124025312Y-94792895D02*
X124072931Y-94697657D01*
X124072931Y-94697657D02*
X124120550Y-94650038D01*
X124120550Y-94650038D02*
X124215788Y-94602419D01*
X124215788Y-94602419D02*
X124453883Y-94602419D01*
X124453883Y-94602419D02*
X124596740Y-94650038D01*
X125215788Y-94602419D02*
X125406264Y-94602419D01*
X125406264Y-94602419D02*
X125501502Y-94650038D01*
X125501502Y-94650038D02*
X125596740Y-94745276D01*
X125596740Y-94745276D02*
X125644359Y-94935752D01*
X125644359Y-94935752D02*
X125644359Y-95269085D01*
X125644359Y-95269085D02*
X125596740Y-95459561D01*
X125596740Y-95459561D02*
X125501502Y-95554800D01*
X125501502Y-95554800D02*
X125406264Y-95602419D01*
X125406264Y-95602419D02*
X125215788Y-95602419D01*
X125215788Y-95602419D02*
X125120550Y-95554800D01*
X125120550Y-95554800D02*
X125025312Y-95459561D01*
X125025312Y-95459561D02*
X124977693Y-95269085D01*
X124977693Y-95269085D02*
X124977693Y-94935752D01*
X124977693Y-94935752D02*
X125025312Y-94745276D01*
X125025312Y-94745276D02*
X125120550Y-94650038D01*
X125120550Y-94650038D02*
X125215788Y-94602419D01*
X122977693Y-61630038D02*
X122882455Y-61582419D01*
X122882455Y-61582419D02*
X122739598Y-61582419D01*
X122739598Y-61582419D02*
X122596741Y-61630038D01*
X122596741Y-61630038D02*
X122501503Y-61725276D01*
X122501503Y-61725276D02*
X122453884Y-61820514D01*
X122453884Y-61820514D02*
X122406265Y-62010990D01*
X122406265Y-62010990D02*
X122406265Y-62153847D01*
X122406265Y-62153847D02*
X122453884Y-62344323D01*
X122453884Y-62344323D02*
X122501503Y-62439561D01*
X122501503Y-62439561D02*
X122596741Y-62534800D01*
X122596741Y-62534800D02*
X122739598Y-62582419D01*
X122739598Y-62582419D02*
X122834836Y-62582419D01*
X122834836Y-62582419D02*
X122977693Y-62534800D01*
X122977693Y-62534800D02*
X123025312Y-62487180D01*
X123025312Y-62487180D02*
X123025312Y-62153847D01*
X123025312Y-62153847D02*
X122834836Y-62153847D01*
X123453884Y-62582419D02*
X123453884Y-61582419D01*
X123453884Y-61582419D02*
X124025312Y-62582419D01*
X124025312Y-62582419D02*
X124025312Y-61582419D01*
X124501503Y-62582419D02*
X124501503Y-61582419D01*
X124501503Y-61582419D02*
X124739598Y-61582419D01*
X124739598Y-61582419D02*
X124882455Y-61630038D01*
X124882455Y-61630038D02*
X124977693Y-61725276D01*
X124977693Y-61725276D02*
X125025312Y-61820514D01*
X125025312Y-61820514D02*
X125072931Y-62010990D01*
X125072931Y-62010990D02*
X125072931Y-62153847D01*
X125072931Y-62153847D02*
X125025312Y-62344323D01*
X125025312Y-62344323D02*
X124977693Y-62439561D01*
X124977693Y-62439561D02*
X124882455Y-62534800D01*
X124882455Y-62534800D02*
X124739598Y-62582419D01*
X124739598Y-62582419D02*
X124501503Y-62582419D01*
X128027580Y-112543884D02*
X129027580Y-112543884D01*
X129027580Y-112543884D02*
X128313295Y-112877217D01*
X128313295Y-112877217D02*
X129027580Y-113210550D01*
X129027580Y-113210550D02*
X128027580Y-113210550D01*
X128027580Y-113686741D02*
X129027580Y-113686741D01*
X128122819Y-114734359D02*
X128075200Y-114686740D01*
X128075200Y-114686740D02*
X128027580Y-114543883D01*
X128027580Y-114543883D02*
X128027580Y-114448645D01*
X128027580Y-114448645D02*
X128075200Y-114305788D01*
X128075200Y-114305788D02*
X128170438Y-114210550D01*
X128170438Y-114210550D02*
X128265676Y-114162931D01*
X128265676Y-114162931D02*
X128456152Y-114115312D01*
X128456152Y-114115312D02*
X128599009Y-114115312D01*
X128599009Y-114115312D02*
X128789485Y-114162931D01*
X128789485Y-114162931D02*
X128884723Y-114210550D01*
X128884723Y-114210550D02*
X128979961Y-114305788D01*
X128979961Y-114305788D02*
X129027580Y-114448645D01*
X129027580Y-114448645D02*
X129027580Y-114543883D01*
X129027580Y-114543883D02*
X128979961Y-114686740D01*
X128979961Y-114686740D02*
X128932342Y-114734359D01*
X128027580Y-115734359D02*
X128503771Y-115401026D01*
X128027580Y-115162931D02*
X129027580Y-115162931D01*
X129027580Y-115162931D02*
X129027580Y-115543883D01*
X129027580Y-115543883D02*
X128979961Y-115639121D01*
X128979961Y-115639121D02*
X128932342Y-115686740D01*
X128932342Y-115686740D02*
X128837104Y-115734359D01*
X128837104Y-115734359D02*
X128694247Y-115734359D01*
X128694247Y-115734359D02*
X128599009Y-115686740D01*
X128599009Y-115686740D02*
X128551390Y-115639121D01*
X128551390Y-115639121D02*
X128503771Y-115543883D01*
X128503771Y-115543883D02*
X128503771Y-115162931D01*
X129027580Y-116353407D02*
X129027580Y-116543883D01*
X129027580Y-116543883D02*
X128979961Y-116639121D01*
X128979961Y-116639121D02*
X128884723Y-116734359D01*
X128884723Y-116734359D02*
X128694247Y-116781978D01*
X128694247Y-116781978D02*
X128360914Y-116781978D01*
X128360914Y-116781978D02*
X128170438Y-116734359D01*
X128170438Y-116734359D02*
X128075200Y-116639121D01*
X128075200Y-116639121D02*
X128027580Y-116543883D01*
X128027580Y-116543883D02*
X128027580Y-116353407D01*
X128027580Y-116353407D02*
X128075200Y-116258169D01*
X128075200Y-116258169D02*
X128170438Y-116162931D01*
X128170438Y-116162931D02*
X128360914Y-116115312D01*
X128360914Y-116115312D02*
X128694247Y-116115312D01*
X128694247Y-116115312D02*
X128884723Y-116162931D01*
X128884723Y-116162931D02*
X128979961Y-116258169D01*
X128979961Y-116258169D02*
X129027580Y-116353407D01*
X128075200Y-117924836D02*
X128027580Y-118067693D01*
X128027580Y-118067693D02*
X128027580Y-118305788D01*
X128027580Y-118305788D02*
X128075200Y-118401026D01*
X128075200Y-118401026D02*
X128122819Y-118448645D01*
X128122819Y-118448645D02*
X128218057Y-118496264D01*
X128218057Y-118496264D02*
X128313295Y-118496264D01*
X128313295Y-118496264D02*
X128408533Y-118448645D01*
X128408533Y-118448645D02*
X128456152Y-118401026D01*
X128456152Y-118401026D02*
X128503771Y-118305788D01*
X128503771Y-118305788D02*
X128551390Y-118115312D01*
X128551390Y-118115312D02*
X128599009Y-118020074D01*
X128599009Y-118020074D02*
X128646628Y-117972455D01*
X128646628Y-117972455D02*
X128741866Y-117924836D01*
X128741866Y-117924836D02*
X128837104Y-117924836D01*
X128837104Y-117924836D02*
X128932342Y-117972455D01*
X128932342Y-117972455D02*
X128979961Y-118020074D01*
X128979961Y-118020074D02*
X129027580Y-118115312D01*
X129027580Y-118115312D02*
X129027580Y-118353407D01*
X129027580Y-118353407D02*
X128979961Y-118496264D01*
X128027580Y-118924836D02*
X129027580Y-118924836D01*
X129027580Y-118924836D02*
X129027580Y-119162931D01*
X129027580Y-119162931D02*
X128979961Y-119305788D01*
X128979961Y-119305788D02*
X128884723Y-119401026D01*
X128884723Y-119401026D02*
X128789485Y-119448645D01*
X128789485Y-119448645D02*
X128599009Y-119496264D01*
X128599009Y-119496264D02*
X128456152Y-119496264D01*
X128456152Y-119496264D02*
X128265676Y-119448645D01*
X128265676Y-119448645D02*
X128170438Y-119401026D01*
X128170438Y-119401026D02*
X128075200Y-119305788D01*
X128075200Y-119305788D02*
X128027580Y-119162931D01*
X128027580Y-119162931D02*
X128027580Y-118924836D01*
X131867693Y-64170038D02*
X131772455Y-64122419D01*
X131772455Y-64122419D02*
X131629598Y-64122419D01*
X131629598Y-64122419D02*
X131486741Y-64170038D01*
X131486741Y-64170038D02*
X131391503Y-64265276D01*
X131391503Y-64265276D02*
X131343884Y-64360514D01*
X131343884Y-64360514D02*
X131296265Y-64550990D01*
X131296265Y-64550990D02*
X131296265Y-64693847D01*
X131296265Y-64693847D02*
X131343884Y-64884323D01*
X131343884Y-64884323D02*
X131391503Y-64979561D01*
X131391503Y-64979561D02*
X131486741Y-65074800D01*
X131486741Y-65074800D02*
X131629598Y-65122419D01*
X131629598Y-65122419D02*
X131724836Y-65122419D01*
X131724836Y-65122419D02*
X131867693Y-65074800D01*
X131867693Y-65074800D02*
X131915312Y-65027180D01*
X131915312Y-65027180D02*
X131915312Y-64693847D01*
X131915312Y-64693847D02*
X131724836Y-64693847D01*
X132343884Y-65122419D02*
X132343884Y-64122419D01*
X132343884Y-64122419D02*
X132915312Y-65122419D01*
X132915312Y-65122419D02*
X132915312Y-64122419D01*
X133391503Y-65122419D02*
X133391503Y-64122419D01*
X133391503Y-64122419D02*
X133629598Y-64122419D01*
X133629598Y-64122419D02*
X133772455Y-64170038D01*
X133772455Y-64170038D02*
X133867693Y-64265276D01*
X133867693Y-64265276D02*
X133915312Y-64360514D01*
X133915312Y-64360514D02*
X133962931Y-64550990D01*
X133962931Y-64550990D02*
X133962931Y-64693847D01*
X133962931Y-64693847D02*
X133915312Y-64884323D01*
X133915312Y-64884323D02*
X133867693Y-64979561D01*
X133867693Y-64979561D02*
X133772455Y-65074800D01*
X133772455Y-65074800D02*
X133629598Y-65122419D01*
X133629598Y-65122419D02*
X133391503Y-65122419D01*
X131201027Y-76822419D02*
X131772455Y-76822419D01*
X131486741Y-77822419D02*
X131486741Y-76822419D01*
X132010551Y-76822419D02*
X132677217Y-77822419D01*
X132677217Y-76822419D02*
X132010551Y-77822419D01*
X133534360Y-76822419D02*
X133058170Y-76822419D01*
X133058170Y-76822419D02*
X133010551Y-77298609D01*
X133010551Y-77298609D02*
X133058170Y-77250990D01*
X133058170Y-77250990D02*
X133153408Y-77203371D01*
X133153408Y-77203371D02*
X133391503Y-77203371D01*
X133391503Y-77203371D02*
X133486741Y-77250990D01*
X133486741Y-77250990D02*
X133534360Y-77298609D01*
X133534360Y-77298609D02*
X133581979Y-77393847D01*
X133581979Y-77393847D02*
X133581979Y-77631942D01*
X133581979Y-77631942D02*
X133534360Y-77727180D01*
X133534360Y-77727180D02*
X133486741Y-77774800D01*
X133486741Y-77774800D02*
X133391503Y-77822419D01*
X133391503Y-77822419D02*
X133153408Y-77822419D01*
X133153408Y-77822419D02*
X133058170Y-77774800D01*
X133058170Y-77774800D02*
X133010551Y-77727180D01*
X122977693Y-114970038D02*
X122882455Y-114922419D01*
X122882455Y-114922419D02*
X122739598Y-114922419D01*
X122739598Y-114922419D02*
X122596741Y-114970038D01*
X122596741Y-114970038D02*
X122501503Y-115065276D01*
X122501503Y-115065276D02*
X122453884Y-115160514D01*
X122453884Y-115160514D02*
X122406265Y-115350990D01*
X122406265Y-115350990D02*
X122406265Y-115493847D01*
X122406265Y-115493847D02*
X122453884Y-115684323D01*
X122453884Y-115684323D02*
X122501503Y-115779561D01*
X122501503Y-115779561D02*
X122596741Y-115874800D01*
X122596741Y-115874800D02*
X122739598Y-115922419D01*
X122739598Y-115922419D02*
X122834836Y-115922419D01*
X122834836Y-115922419D02*
X122977693Y-115874800D01*
X122977693Y-115874800D02*
X123025312Y-115827180D01*
X123025312Y-115827180D02*
X123025312Y-115493847D01*
X123025312Y-115493847D02*
X122834836Y-115493847D01*
X123453884Y-115922419D02*
X123453884Y-114922419D01*
X123453884Y-114922419D02*
X123834836Y-114922419D01*
X123834836Y-114922419D02*
X123930074Y-114970038D01*
X123930074Y-114970038D02*
X123977693Y-115017657D01*
X123977693Y-115017657D02*
X124025312Y-115112895D01*
X124025312Y-115112895D02*
X124025312Y-115255752D01*
X124025312Y-115255752D02*
X123977693Y-115350990D01*
X123977693Y-115350990D02*
X123930074Y-115398609D01*
X123930074Y-115398609D02*
X123834836Y-115446228D01*
X123834836Y-115446228D02*
X123453884Y-115446228D01*
X124453884Y-115922419D02*
X124453884Y-114922419D01*
X125120550Y-114922419D02*
X125311026Y-114922419D01*
X125311026Y-114922419D02*
X125406264Y-114970038D01*
X125406264Y-114970038D02*
X125501502Y-115065276D01*
X125501502Y-115065276D02*
X125549121Y-115255752D01*
X125549121Y-115255752D02*
X125549121Y-115589085D01*
X125549121Y-115589085D02*
X125501502Y-115779561D01*
X125501502Y-115779561D02*
X125406264Y-115874800D01*
X125406264Y-115874800D02*
X125311026Y-115922419D01*
X125311026Y-115922419D02*
X125120550Y-115922419D01*
X125120550Y-115922419D02*
X125025312Y-115874800D01*
X125025312Y-115874800D02*
X124930074Y-115779561D01*
X124930074Y-115779561D02*
X124882455Y-115589085D01*
X124882455Y-115589085D02*
X124882455Y-115255752D01*
X124882455Y-115255752D02*
X124930074Y-115065276D01*
X124930074Y-115065276D02*
X125025312Y-114970038D01*
X125025312Y-114970038D02*
X125120550Y-114922419D01*
X131296265Y-90236704D02*
X131772455Y-90236704D01*
X131201027Y-90522419D02*
X131534360Y-89522419D01*
X131534360Y-89522419D02*
X131867693Y-90522419D01*
X132724836Y-90522419D02*
X132153408Y-90522419D01*
X132439122Y-90522419D02*
X132439122Y-89522419D01*
X132439122Y-89522419D02*
X132343884Y-89665276D01*
X132343884Y-89665276D02*
X132248646Y-89760514D01*
X132248646Y-89760514D02*
X132153408Y-89808133D01*
X131343884Y-105762419D02*
X131343884Y-104762419D01*
X131343884Y-104762419D02*
X131677217Y-105476704D01*
X131677217Y-105476704D02*
X132010550Y-104762419D01*
X132010550Y-104762419D02*
X132010550Y-105762419D01*
X132486741Y-105762419D02*
X132486741Y-104762419D01*
X132915312Y-105714800D02*
X133058169Y-105762419D01*
X133058169Y-105762419D02*
X133296264Y-105762419D01*
X133296264Y-105762419D02*
X133391502Y-105714800D01*
X133391502Y-105714800D02*
X133439121Y-105667180D01*
X133439121Y-105667180D02*
X133486740Y-105571942D01*
X133486740Y-105571942D02*
X133486740Y-105476704D01*
X133486740Y-105476704D02*
X133439121Y-105381466D01*
X133439121Y-105381466D02*
X133391502Y-105333847D01*
X133391502Y-105333847D02*
X133296264Y-105286228D01*
X133296264Y-105286228D02*
X133105788Y-105238609D01*
X133105788Y-105238609D02*
X133010550Y-105190990D01*
X133010550Y-105190990D02*
X132962931Y-105143371D01*
X132962931Y-105143371D02*
X132915312Y-105048133D01*
X132915312Y-105048133D02*
X132915312Y-104952895D01*
X132915312Y-104952895D02*
X132962931Y-104857657D01*
X132962931Y-104857657D02*
X133010550Y-104810038D01*
X133010550Y-104810038D02*
X133105788Y-104762419D01*
X133105788Y-104762419D02*
X133343883Y-104762419D01*
X133343883Y-104762419D02*
X133486740Y-104810038D01*
X134105788Y-104762419D02*
X134296264Y-104762419D01*
X134296264Y-104762419D02*
X134391502Y-104810038D01*
X134391502Y-104810038D02*
X134486740Y-104905276D01*
X134486740Y-104905276D02*
X134534359Y-105095752D01*
X134534359Y-105095752D02*
X134534359Y-105429085D01*
X134534359Y-105429085D02*
X134486740Y-105619561D01*
X134486740Y-105619561D02*
X134391502Y-105714800D01*
X134391502Y-105714800D02*
X134296264Y-105762419D01*
X134296264Y-105762419D02*
X134105788Y-105762419D01*
X134105788Y-105762419D02*
X134010550Y-105714800D01*
X134010550Y-105714800D02*
X133915312Y-105619561D01*
X133915312Y-105619561D02*
X133867693Y-105429085D01*
X133867693Y-105429085D02*
X133867693Y-105095752D01*
X133867693Y-105095752D02*
X133915312Y-104905276D01*
X133915312Y-104905276D02*
X134010550Y-104810038D01*
X134010550Y-104810038D02*
X134105788Y-104762419D01*
X122453884Y-80362419D02*
X122453884Y-79362419D01*
X122453884Y-79362419D02*
X122834836Y-79362419D01*
X122834836Y-79362419D02*
X122930074Y-79410038D01*
X122930074Y-79410038D02*
X122977693Y-79457657D01*
X122977693Y-79457657D02*
X123025312Y-79552895D01*
X123025312Y-79552895D02*
X123025312Y-79695752D01*
X123025312Y-79695752D02*
X122977693Y-79790990D01*
X122977693Y-79790990D02*
X122930074Y-79838609D01*
X122930074Y-79838609D02*
X122834836Y-79886228D01*
X122834836Y-79886228D02*
X122453884Y-79886228D01*
X123358646Y-79362419D02*
X123596741Y-80362419D01*
X123596741Y-80362419D02*
X123787217Y-79648133D01*
X123787217Y-79648133D02*
X123977693Y-80362419D01*
X123977693Y-80362419D02*
X124215789Y-79362419D01*
X124596741Y-80362419D02*
X124596741Y-79362419D01*
X124596741Y-79362419D02*
X124930074Y-80076704D01*
X124930074Y-80076704D02*
X125263407Y-79362419D01*
X125263407Y-79362419D02*
X125263407Y-80362419D01*
X122406265Y-108254800D02*
X122549122Y-108302419D01*
X122549122Y-108302419D02*
X122787217Y-108302419D01*
X122787217Y-108302419D02*
X122882455Y-108254800D01*
X122882455Y-108254800D02*
X122930074Y-108207180D01*
X122930074Y-108207180D02*
X122977693Y-108111942D01*
X122977693Y-108111942D02*
X122977693Y-108016704D01*
X122977693Y-108016704D02*
X122930074Y-107921466D01*
X122930074Y-107921466D02*
X122882455Y-107873847D01*
X122882455Y-107873847D02*
X122787217Y-107826228D01*
X122787217Y-107826228D02*
X122596741Y-107778609D01*
X122596741Y-107778609D02*
X122501503Y-107730990D01*
X122501503Y-107730990D02*
X122453884Y-107683371D01*
X122453884Y-107683371D02*
X122406265Y-107588133D01*
X122406265Y-107588133D02*
X122406265Y-107492895D01*
X122406265Y-107492895D02*
X122453884Y-107397657D01*
X122453884Y-107397657D02*
X122501503Y-107350038D01*
X122501503Y-107350038D02*
X122596741Y-107302419D01*
X122596741Y-107302419D02*
X122834836Y-107302419D01*
X122834836Y-107302419D02*
X122977693Y-107350038D01*
X123977693Y-108207180D02*
X123930074Y-108254800D01*
X123930074Y-108254800D02*
X123787217Y-108302419D01*
X123787217Y-108302419D02*
X123691979Y-108302419D01*
X123691979Y-108302419D02*
X123549122Y-108254800D01*
X123549122Y-108254800D02*
X123453884Y-108159561D01*
X123453884Y-108159561D02*
X123406265Y-108064323D01*
X123406265Y-108064323D02*
X123358646Y-107873847D01*
X123358646Y-107873847D02*
X123358646Y-107730990D01*
X123358646Y-107730990D02*
X123406265Y-107540514D01*
X123406265Y-107540514D02*
X123453884Y-107445276D01*
X123453884Y-107445276D02*
X123549122Y-107350038D01*
X123549122Y-107350038D02*
X123691979Y-107302419D01*
X123691979Y-107302419D02*
X123787217Y-107302419D01*
X123787217Y-107302419D02*
X123930074Y-107350038D01*
X123930074Y-107350038D02*
X123977693Y-107397657D01*
X124406265Y-108302419D02*
X124406265Y-107302419D01*
X124977693Y-108302419D02*
X124549122Y-107730990D01*
X124977693Y-107302419D02*
X124406265Y-107873847D01*
X125930074Y-108302419D02*
X125358646Y-108302419D01*
X125644360Y-108302419D02*
X125644360Y-107302419D01*
X125644360Y-107302419D02*
X125549122Y-107445276D01*
X125549122Y-107445276D02*
X125453884Y-107540514D01*
X125453884Y-107540514D02*
X125358646Y-107588133D01*
X122311027Y-84442419D02*
X122882455Y-84442419D01*
X122596741Y-85442419D02*
X122596741Y-84442419D01*
X123120551Y-84442419D02*
X123787217Y-85442419D01*
X123787217Y-84442419D02*
X123120551Y-85442419D01*
X124120551Y-84537657D02*
X124168170Y-84490038D01*
X124168170Y-84490038D02*
X124263408Y-84442419D01*
X124263408Y-84442419D02*
X124501503Y-84442419D01*
X124501503Y-84442419D02*
X124596741Y-84490038D01*
X124596741Y-84490038D02*
X124644360Y-84537657D01*
X124644360Y-84537657D02*
X124691979Y-84632895D01*
X124691979Y-84632895D02*
X124691979Y-84728133D01*
X124691979Y-84728133D02*
X124644360Y-84870990D01*
X124644360Y-84870990D02*
X124072932Y-85442419D01*
X124072932Y-85442419D02*
X124691979Y-85442419D01*
X131296265Y-87696704D02*
X131772455Y-87696704D01*
X131201027Y-87982419D02*
X131534360Y-86982419D01*
X131534360Y-86982419D02*
X131867693Y-87982419D01*
X132153408Y-87077657D02*
X132201027Y-87030038D01*
X132201027Y-87030038D02*
X132296265Y-86982419D01*
X132296265Y-86982419D02*
X132534360Y-86982419D01*
X132534360Y-86982419D02*
X132629598Y-87030038D01*
X132629598Y-87030038D02*
X132677217Y-87077657D01*
X132677217Y-87077657D02*
X132724836Y-87172895D01*
X132724836Y-87172895D02*
X132724836Y-87268133D01*
X132724836Y-87268133D02*
X132677217Y-87410990D01*
X132677217Y-87410990D02*
X132105789Y-87982419D01*
X132105789Y-87982419D02*
X132724836Y-87982419D01*
X122406265Y-100634800D02*
X122549122Y-100682419D01*
X122549122Y-100682419D02*
X122787217Y-100682419D01*
X122787217Y-100682419D02*
X122882455Y-100634800D01*
X122882455Y-100634800D02*
X122930074Y-100587180D01*
X122930074Y-100587180D02*
X122977693Y-100491942D01*
X122977693Y-100491942D02*
X122977693Y-100396704D01*
X122977693Y-100396704D02*
X122930074Y-100301466D01*
X122930074Y-100301466D02*
X122882455Y-100253847D01*
X122882455Y-100253847D02*
X122787217Y-100206228D01*
X122787217Y-100206228D02*
X122596741Y-100158609D01*
X122596741Y-100158609D02*
X122501503Y-100110990D01*
X122501503Y-100110990D02*
X122453884Y-100063371D01*
X122453884Y-100063371D02*
X122406265Y-99968133D01*
X122406265Y-99968133D02*
X122406265Y-99872895D01*
X122406265Y-99872895D02*
X122453884Y-99777657D01*
X122453884Y-99777657D02*
X122501503Y-99730038D01*
X122501503Y-99730038D02*
X122596741Y-99682419D01*
X122596741Y-99682419D02*
X122834836Y-99682419D01*
X122834836Y-99682419D02*
X122977693Y-99730038D01*
X123977693Y-100587180D02*
X123930074Y-100634800D01*
X123930074Y-100634800D02*
X123787217Y-100682419D01*
X123787217Y-100682419D02*
X123691979Y-100682419D01*
X123691979Y-100682419D02*
X123549122Y-100634800D01*
X123549122Y-100634800D02*
X123453884Y-100539561D01*
X123453884Y-100539561D02*
X123406265Y-100444323D01*
X123406265Y-100444323D02*
X123358646Y-100253847D01*
X123358646Y-100253847D02*
X123358646Y-100110990D01*
X123358646Y-100110990D02*
X123406265Y-99920514D01*
X123406265Y-99920514D02*
X123453884Y-99825276D01*
X123453884Y-99825276D02*
X123549122Y-99730038D01*
X123549122Y-99730038D02*
X123691979Y-99682419D01*
X123691979Y-99682419D02*
X123787217Y-99682419D01*
X123787217Y-99682419D02*
X123930074Y-99730038D01*
X123930074Y-99730038D02*
X123977693Y-99777657D01*
X124882455Y-100682419D02*
X124406265Y-100682419D01*
X124406265Y-100682419D02*
X124406265Y-99682419D01*
X125168170Y-99777657D02*
X125215789Y-99730038D01*
X125215789Y-99730038D02*
X125311027Y-99682419D01*
X125311027Y-99682419D02*
X125549122Y-99682419D01*
X125549122Y-99682419D02*
X125644360Y-99730038D01*
X125644360Y-99730038D02*
X125691979Y-99777657D01*
X125691979Y-99777657D02*
X125739598Y-99872895D01*
X125739598Y-99872895D02*
X125739598Y-99968133D01*
X125739598Y-99968133D02*
X125691979Y-100110990D01*
X125691979Y-100110990D02*
X125120551Y-100682419D01*
X125120551Y-100682419D02*
X125739598Y-100682419D01*
X131915312Y-118462419D02*
X131581979Y-117986228D01*
X131343884Y-118462419D02*
X131343884Y-117462419D01*
X131343884Y-117462419D02*
X131724836Y-117462419D01*
X131724836Y-117462419D02*
X131820074Y-117510038D01*
X131820074Y-117510038D02*
X131867693Y-117557657D01*
X131867693Y-117557657D02*
X131915312Y-117652895D01*
X131915312Y-117652895D02*
X131915312Y-117795752D01*
X131915312Y-117795752D02*
X131867693Y-117890990D01*
X131867693Y-117890990D02*
X131820074Y-117938609D01*
X131820074Y-117938609D02*
X131724836Y-117986228D01*
X131724836Y-117986228D02*
X131343884Y-117986228D01*
X132248646Y-117462419D02*
X132915312Y-118462419D01*
X132915312Y-117462419D02*
X132248646Y-118462419D01*
X133439122Y-117890990D02*
X133343884Y-117843371D01*
X133343884Y-117843371D02*
X133296265Y-117795752D01*
X133296265Y-117795752D02*
X133248646Y-117700514D01*
X133248646Y-117700514D02*
X133248646Y-117652895D01*
X133248646Y-117652895D02*
X133296265Y-117557657D01*
X133296265Y-117557657D02*
X133343884Y-117510038D01*
X133343884Y-117510038D02*
X133439122Y-117462419D01*
X133439122Y-117462419D02*
X133629598Y-117462419D01*
X133629598Y-117462419D02*
X133724836Y-117510038D01*
X133724836Y-117510038D02*
X133772455Y-117557657D01*
X133772455Y-117557657D02*
X133820074Y-117652895D01*
X133820074Y-117652895D02*
X133820074Y-117700514D01*
X133820074Y-117700514D02*
X133772455Y-117795752D01*
X133772455Y-117795752D02*
X133724836Y-117843371D01*
X133724836Y-117843371D02*
X133629598Y-117890990D01*
X133629598Y-117890990D02*
X133439122Y-117890990D01*
X133439122Y-117890990D02*
X133343884Y-117938609D01*
X133343884Y-117938609D02*
X133296265Y-117986228D01*
X133296265Y-117986228D02*
X133248646Y-118081466D01*
X133248646Y-118081466D02*
X133248646Y-118271942D01*
X133248646Y-118271942D02*
X133296265Y-118367180D01*
X133296265Y-118367180D02*
X133343884Y-118414800D01*
X133343884Y-118414800D02*
X133439122Y-118462419D01*
X133439122Y-118462419D02*
X133629598Y-118462419D01*
X133629598Y-118462419D02*
X133724836Y-118414800D01*
X133724836Y-118414800D02*
X133772455Y-118367180D01*
X133772455Y-118367180D02*
X133820074Y-118271942D01*
X133820074Y-118271942D02*
X133820074Y-118081466D01*
X133820074Y-118081466D02*
X133772455Y-117986228D01*
X133772455Y-117986228D02*
X133724836Y-117938609D01*
X133724836Y-117938609D02*
X133629598Y-117890990D01*
X122406265Y-103174800D02*
X122549122Y-103222419D01*
X122549122Y-103222419D02*
X122787217Y-103222419D01*
X122787217Y-103222419D02*
X122882455Y-103174800D01*
X122882455Y-103174800D02*
X122930074Y-103127180D01*
X122930074Y-103127180D02*
X122977693Y-103031942D01*
X122977693Y-103031942D02*
X122977693Y-102936704D01*
X122977693Y-102936704D02*
X122930074Y-102841466D01*
X122930074Y-102841466D02*
X122882455Y-102793847D01*
X122882455Y-102793847D02*
X122787217Y-102746228D01*
X122787217Y-102746228D02*
X122596741Y-102698609D01*
X122596741Y-102698609D02*
X122501503Y-102650990D01*
X122501503Y-102650990D02*
X122453884Y-102603371D01*
X122453884Y-102603371D02*
X122406265Y-102508133D01*
X122406265Y-102508133D02*
X122406265Y-102412895D01*
X122406265Y-102412895D02*
X122453884Y-102317657D01*
X122453884Y-102317657D02*
X122501503Y-102270038D01*
X122501503Y-102270038D02*
X122596741Y-102222419D01*
X122596741Y-102222419D02*
X122834836Y-102222419D01*
X122834836Y-102222419D02*
X122977693Y-102270038D01*
X123406265Y-103222419D02*
X123406265Y-102222419D01*
X123406265Y-102222419D02*
X123644360Y-102222419D01*
X123644360Y-102222419D02*
X123787217Y-102270038D01*
X123787217Y-102270038D02*
X123882455Y-102365276D01*
X123882455Y-102365276D02*
X123930074Y-102460514D01*
X123930074Y-102460514D02*
X123977693Y-102650990D01*
X123977693Y-102650990D02*
X123977693Y-102793847D01*
X123977693Y-102793847D02*
X123930074Y-102984323D01*
X123930074Y-102984323D02*
X123882455Y-103079561D01*
X123882455Y-103079561D02*
X123787217Y-103174800D01*
X123787217Y-103174800D02*
X123644360Y-103222419D01*
X123644360Y-103222419D02*
X123406265Y-103222419D01*
X124358646Y-102936704D02*
X124834836Y-102936704D01*
X124263408Y-103222419D02*
X124596741Y-102222419D01*
X124596741Y-102222419D02*
X124930074Y-103222419D01*
X125215789Y-102317657D02*
X125263408Y-102270038D01*
X125263408Y-102270038D02*
X125358646Y-102222419D01*
X125358646Y-102222419D02*
X125596741Y-102222419D01*
X125596741Y-102222419D02*
X125691979Y-102270038D01*
X125691979Y-102270038D02*
X125739598Y-102317657D01*
X125739598Y-102317657D02*
X125787217Y-102412895D01*
X125787217Y-102412895D02*
X125787217Y-102508133D01*
X125787217Y-102508133D02*
X125739598Y-102650990D01*
X125739598Y-102650990D02*
X125168170Y-103222419D01*
X125168170Y-103222419D02*
X125787217Y-103222419D01*
X123025312Y-110842419D02*
X122691979Y-110366228D01*
X122453884Y-110842419D02*
X122453884Y-109842419D01*
X122453884Y-109842419D02*
X122834836Y-109842419D01*
X122834836Y-109842419D02*
X122930074Y-109890038D01*
X122930074Y-109890038D02*
X122977693Y-109937657D01*
X122977693Y-109937657D02*
X123025312Y-110032895D01*
X123025312Y-110032895D02*
X123025312Y-110175752D01*
X123025312Y-110175752D02*
X122977693Y-110270990D01*
X122977693Y-110270990D02*
X122930074Y-110318609D01*
X122930074Y-110318609D02*
X122834836Y-110366228D01*
X122834836Y-110366228D02*
X122453884Y-110366228D01*
X123358646Y-109842419D02*
X124025312Y-110842419D01*
X124025312Y-109842419D02*
X123358646Y-110842419D01*
X124311027Y-109842419D02*
X124977693Y-109842419D01*
X124977693Y-109842419D02*
X124549122Y-110842419D01*
X122453884Y-75282419D02*
X122453884Y-74282419D01*
X122453884Y-74282419D02*
X122834836Y-74282419D01*
X122834836Y-74282419D02*
X122930074Y-74330038D01*
X122930074Y-74330038D02*
X122977693Y-74377657D01*
X122977693Y-74377657D02*
X123025312Y-74472895D01*
X123025312Y-74472895D02*
X123025312Y-74615752D01*
X123025312Y-74615752D02*
X122977693Y-74710990D01*
X122977693Y-74710990D02*
X122930074Y-74758609D01*
X122930074Y-74758609D02*
X122834836Y-74806228D01*
X122834836Y-74806228D02*
X122453884Y-74806228D01*
X123358646Y-74282419D02*
X123596741Y-75282419D01*
X123596741Y-75282419D02*
X123787217Y-74568133D01*
X123787217Y-74568133D02*
X123977693Y-75282419D01*
X123977693Y-75282419D02*
X124215789Y-74282419D01*
X124596741Y-75282419D02*
X124596741Y-74282419D01*
X124596741Y-74282419D02*
X124930074Y-74996704D01*
X124930074Y-74996704D02*
X125263407Y-74282419D01*
X125263407Y-74282419D02*
X125263407Y-75282419D01*
X122453884Y-93062419D02*
X122453884Y-92062419D01*
X122453884Y-92062419D02*
X122787217Y-92776704D01*
X122787217Y-92776704D02*
X123120550Y-92062419D01*
X123120550Y-92062419D02*
X123120550Y-93062419D01*
X123787217Y-92062419D02*
X123977693Y-92062419D01*
X123977693Y-92062419D02*
X124072931Y-92110038D01*
X124072931Y-92110038D02*
X124168169Y-92205276D01*
X124168169Y-92205276D02*
X124215788Y-92395752D01*
X124215788Y-92395752D02*
X124215788Y-92729085D01*
X124215788Y-92729085D02*
X124168169Y-92919561D01*
X124168169Y-92919561D02*
X124072931Y-93014800D01*
X124072931Y-93014800D02*
X123977693Y-93062419D01*
X123977693Y-93062419D02*
X123787217Y-93062419D01*
X123787217Y-93062419D02*
X123691979Y-93014800D01*
X123691979Y-93014800D02*
X123596741Y-92919561D01*
X123596741Y-92919561D02*
X123549122Y-92729085D01*
X123549122Y-92729085D02*
X123549122Y-92395752D01*
X123549122Y-92395752D02*
X123596741Y-92205276D01*
X123596741Y-92205276D02*
X123691979Y-92110038D01*
X123691979Y-92110038D02*
X123787217Y-92062419D01*
X124596741Y-93014800D02*
X124739598Y-93062419D01*
X124739598Y-93062419D02*
X124977693Y-93062419D01*
X124977693Y-93062419D02*
X125072931Y-93014800D01*
X125072931Y-93014800D02*
X125120550Y-92967180D01*
X125120550Y-92967180D02*
X125168169Y-92871942D01*
X125168169Y-92871942D02*
X125168169Y-92776704D01*
X125168169Y-92776704D02*
X125120550Y-92681466D01*
X125120550Y-92681466D02*
X125072931Y-92633847D01*
X125072931Y-92633847D02*
X124977693Y-92586228D01*
X124977693Y-92586228D02*
X124787217Y-92538609D01*
X124787217Y-92538609D02*
X124691979Y-92490990D01*
X124691979Y-92490990D02*
X124644360Y-92443371D01*
X124644360Y-92443371D02*
X124596741Y-92348133D01*
X124596741Y-92348133D02*
X124596741Y-92252895D01*
X124596741Y-92252895D02*
X124644360Y-92157657D01*
X124644360Y-92157657D02*
X124691979Y-92110038D01*
X124691979Y-92110038D02*
X124787217Y-92062419D01*
X124787217Y-92062419D02*
X125025312Y-92062419D01*
X125025312Y-92062419D02*
X125168169Y-92110038D01*
X125596741Y-93062419D02*
X125596741Y-92062419D01*
X131296265Y-82854800D02*
X131439122Y-82902419D01*
X131439122Y-82902419D02*
X131677217Y-82902419D01*
X131677217Y-82902419D02*
X131772455Y-82854800D01*
X131772455Y-82854800D02*
X131820074Y-82807180D01*
X131820074Y-82807180D02*
X131867693Y-82711942D01*
X131867693Y-82711942D02*
X131867693Y-82616704D01*
X131867693Y-82616704D02*
X131820074Y-82521466D01*
X131820074Y-82521466D02*
X131772455Y-82473847D01*
X131772455Y-82473847D02*
X131677217Y-82426228D01*
X131677217Y-82426228D02*
X131486741Y-82378609D01*
X131486741Y-82378609D02*
X131391503Y-82330990D01*
X131391503Y-82330990D02*
X131343884Y-82283371D01*
X131343884Y-82283371D02*
X131296265Y-82188133D01*
X131296265Y-82188133D02*
X131296265Y-82092895D01*
X131296265Y-82092895D02*
X131343884Y-81997657D01*
X131343884Y-81997657D02*
X131391503Y-81950038D01*
X131391503Y-81950038D02*
X131486741Y-81902419D01*
X131486741Y-81902419D02*
X131724836Y-81902419D01*
X131724836Y-81902419D02*
X131867693Y-81950038D01*
X132296265Y-82902419D02*
X132296265Y-81902419D01*
X132296265Y-81902419D02*
X132534360Y-81902419D01*
X132534360Y-81902419D02*
X132677217Y-81950038D01*
X132677217Y-81950038D02*
X132772455Y-82045276D01*
X132772455Y-82045276D02*
X132820074Y-82140514D01*
X132820074Y-82140514D02*
X132867693Y-82330990D01*
X132867693Y-82330990D02*
X132867693Y-82473847D01*
X132867693Y-82473847D02*
X132820074Y-82664323D01*
X132820074Y-82664323D02*
X132772455Y-82759561D01*
X132772455Y-82759561D02*
X132677217Y-82854800D01*
X132677217Y-82854800D02*
X132534360Y-82902419D01*
X132534360Y-82902419D02*
X132296265Y-82902419D01*
X133248646Y-82616704D02*
X133724836Y-82616704D01*
X133153408Y-82902419D02*
X133486741Y-81902419D01*
X133486741Y-81902419D02*
X133820074Y-82902419D01*
X122453884Y-77822419D02*
X122453884Y-76822419D01*
X122453884Y-76822419D02*
X122834836Y-76822419D01*
X122834836Y-76822419D02*
X122930074Y-76870038D01*
X122930074Y-76870038D02*
X122977693Y-76917657D01*
X122977693Y-76917657D02*
X123025312Y-77012895D01*
X123025312Y-77012895D02*
X123025312Y-77155752D01*
X123025312Y-77155752D02*
X122977693Y-77250990D01*
X122977693Y-77250990D02*
X122930074Y-77298609D01*
X122930074Y-77298609D02*
X122834836Y-77346228D01*
X122834836Y-77346228D02*
X122453884Y-77346228D01*
X123358646Y-76822419D02*
X123596741Y-77822419D01*
X123596741Y-77822419D02*
X123787217Y-77108133D01*
X123787217Y-77108133D02*
X123977693Y-77822419D01*
X123977693Y-77822419D02*
X124215789Y-76822419D01*
X124596741Y-77822419D02*
X124596741Y-76822419D01*
X124596741Y-76822419D02*
X124930074Y-77536704D01*
X124930074Y-77536704D02*
X125263407Y-76822419D01*
X125263407Y-76822419D02*
X125263407Y-77822419D01*
X122453884Y-87982419D02*
X122453884Y-86982419D01*
X122453884Y-86982419D02*
X122834836Y-86982419D01*
X122834836Y-86982419D02*
X122930074Y-87030038D01*
X122930074Y-87030038D02*
X122977693Y-87077657D01*
X122977693Y-87077657D02*
X123025312Y-87172895D01*
X123025312Y-87172895D02*
X123025312Y-87315752D01*
X123025312Y-87315752D02*
X122977693Y-87410990D01*
X122977693Y-87410990D02*
X122930074Y-87458609D01*
X122930074Y-87458609D02*
X122834836Y-87506228D01*
X122834836Y-87506228D02*
X122453884Y-87506228D01*
X123358646Y-86982419D02*
X123596741Y-87982419D01*
X123596741Y-87982419D02*
X123787217Y-87268133D01*
X123787217Y-87268133D02*
X123977693Y-87982419D01*
X123977693Y-87982419D02*
X124215789Y-86982419D01*
X124596741Y-87982419D02*
X124596741Y-86982419D01*
X124596741Y-86982419D02*
X124930074Y-87696704D01*
X124930074Y-87696704D02*
X125263407Y-86982419D01*
X125263407Y-86982419D02*
X125263407Y-87982419D01*
X131343884Y-121002419D02*
X131343884Y-120002419D01*
X131343884Y-120002419D02*
X131724836Y-120002419D01*
X131724836Y-120002419D02*
X131820074Y-120050038D01*
X131820074Y-120050038D02*
X131867693Y-120097657D01*
X131867693Y-120097657D02*
X131915312Y-120192895D01*
X131915312Y-120192895D02*
X131915312Y-120335752D01*
X131915312Y-120335752D02*
X131867693Y-120430990D01*
X131867693Y-120430990D02*
X131820074Y-120478609D01*
X131820074Y-120478609D02*
X131724836Y-120526228D01*
X131724836Y-120526228D02*
X131343884Y-120526228D01*
X132248646Y-120002419D02*
X132486741Y-121002419D01*
X132486741Y-121002419D02*
X132677217Y-120288133D01*
X132677217Y-120288133D02*
X132867693Y-121002419D01*
X132867693Y-121002419D02*
X133105789Y-120002419D01*
X133486741Y-121002419D02*
X133486741Y-120002419D01*
X133486741Y-120002419D02*
X133820074Y-120716704D01*
X133820074Y-120716704D02*
X134153407Y-120002419D01*
X134153407Y-120002419D02*
X134153407Y-121002419D01*
X131915312Y-75282419D02*
X131581979Y-74806228D01*
X131343884Y-75282419D02*
X131343884Y-74282419D01*
X131343884Y-74282419D02*
X131724836Y-74282419D01*
X131724836Y-74282419D02*
X131820074Y-74330038D01*
X131820074Y-74330038D02*
X131867693Y-74377657D01*
X131867693Y-74377657D02*
X131915312Y-74472895D01*
X131915312Y-74472895D02*
X131915312Y-74615752D01*
X131915312Y-74615752D02*
X131867693Y-74710990D01*
X131867693Y-74710990D02*
X131820074Y-74758609D01*
X131820074Y-74758609D02*
X131724836Y-74806228D01*
X131724836Y-74806228D02*
X131343884Y-74806228D01*
X132248646Y-74282419D02*
X132915312Y-75282419D01*
X132915312Y-74282419D02*
X132248646Y-75282419D01*
X133772455Y-74282419D02*
X133296265Y-74282419D01*
X133296265Y-74282419D02*
X133248646Y-74758609D01*
X133248646Y-74758609D02*
X133296265Y-74710990D01*
X133296265Y-74710990D02*
X133391503Y-74663371D01*
X133391503Y-74663371D02*
X133629598Y-74663371D01*
X133629598Y-74663371D02*
X133724836Y-74710990D01*
X133724836Y-74710990D02*
X133772455Y-74758609D01*
X133772455Y-74758609D02*
X133820074Y-74853847D01*
X133820074Y-74853847D02*
X133820074Y-75091942D01*
X133820074Y-75091942D02*
X133772455Y-75187180D01*
X133772455Y-75187180D02*
X133724836Y-75234800D01*
X133724836Y-75234800D02*
X133629598Y-75282419D01*
X133629598Y-75282419D02*
X133391503Y-75282419D01*
X133391503Y-75282419D02*
X133296265Y-75234800D01*
X133296265Y-75234800D02*
X133248646Y-75187180D01*
X131867693Y-97190038D02*
X131772455Y-97142419D01*
X131772455Y-97142419D02*
X131629598Y-97142419D01*
X131629598Y-97142419D02*
X131486741Y-97190038D01*
X131486741Y-97190038D02*
X131391503Y-97285276D01*
X131391503Y-97285276D02*
X131343884Y-97380514D01*
X131343884Y-97380514D02*
X131296265Y-97570990D01*
X131296265Y-97570990D02*
X131296265Y-97713847D01*
X131296265Y-97713847D02*
X131343884Y-97904323D01*
X131343884Y-97904323D02*
X131391503Y-97999561D01*
X131391503Y-97999561D02*
X131486741Y-98094800D01*
X131486741Y-98094800D02*
X131629598Y-98142419D01*
X131629598Y-98142419D02*
X131724836Y-98142419D01*
X131724836Y-98142419D02*
X131867693Y-98094800D01*
X131867693Y-98094800D02*
X131915312Y-98047180D01*
X131915312Y-98047180D02*
X131915312Y-97713847D01*
X131915312Y-97713847D02*
X131724836Y-97713847D01*
X132343884Y-98142419D02*
X132343884Y-97142419D01*
X132343884Y-97142419D02*
X132915312Y-98142419D01*
X132915312Y-98142419D02*
X132915312Y-97142419D01*
X133391503Y-98142419D02*
X133391503Y-97142419D01*
X133391503Y-97142419D02*
X133629598Y-97142419D01*
X133629598Y-97142419D02*
X133772455Y-97190038D01*
X133772455Y-97190038D02*
X133867693Y-97285276D01*
X133867693Y-97285276D02*
X133915312Y-97380514D01*
X133915312Y-97380514D02*
X133962931Y-97570990D01*
X133962931Y-97570990D02*
X133962931Y-97713847D01*
X133962931Y-97713847D02*
X133915312Y-97904323D01*
X133915312Y-97904323D02*
X133867693Y-97999561D01*
X133867693Y-97999561D02*
X133772455Y-98094800D01*
X133772455Y-98094800D02*
X133629598Y-98142419D01*
X133629598Y-98142419D02*
X133391503Y-98142419D01*
X131296265Y-102936704D02*
X131772455Y-102936704D01*
X131201027Y-103222419D02*
X131534360Y-102222419D01*
X131534360Y-102222419D02*
X131867693Y-103222419D01*
X132724836Y-103222419D02*
X132153408Y-103222419D01*
X132439122Y-103222419D02*
X132439122Y-102222419D01*
X132439122Y-102222419D02*
X132343884Y-102365276D01*
X132343884Y-102365276D02*
X132248646Y-102460514D01*
X132248646Y-102460514D02*
X132153408Y-102508133D01*
X133581979Y-102222419D02*
X133391503Y-102222419D01*
X133391503Y-102222419D02*
X133296265Y-102270038D01*
X133296265Y-102270038D02*
X133248646Y-102317657D01*
X133248646Y-102317657D02*
X133153408Y-102460514D01*
X133153408Y-102460514D02*
X133105789Y-102650990D01*
X133105789Y-102650990D02*
X133105789Y-103031942D01*
X133105789Y-103031942D02*
X133153408Y-103127180D01*
X133153408Y-103127180D02*
X133201027Y-103174800D01*
X133201027Y-103174800D02*
X133296265Y-103222419D01*
X133296265Y-103222419D02*
X133486741Y-103222419D01*
X133486741Y-103222419D02*
X133581979Y-103174800D01*
X133581979Y-103174800D02*
X133629598Y-103127180D01*
X133629598Y-103127180D02*
X133677217Y-103031942D01*
X133677217Y-103031942D02*
X133677217Y-102793847D01*
X133677217Y-102793847D02*
X133629598Y-102698609D01*
X133629598Y-102698609D02*
X133581979Y-102650990D01*
X133581979Y-102650990D02*
X133486741Y-102603371D01*
X133486741Y-102603371D02*
X133296265Y-102603371D01*
X133296265Y-102603371D02*
X133201027Y-102650990D01*
X133201027Y-102650990D02*
X133153408Y-102698609D01*
X133153408Y-102698609D02*
X133105789Y-102793847D01*
X123025312Y-82902419D02*
X122691979Y-82426228D01*
X122453884Y-82902419D02*
X122453884Y-81902419D01*
X122453884Y-81902419D02*
X122834836Y-81902419D01*
X122834836Y-81902419D02*
X122930074Y-81950038D01*
X122930074Y-81950038D02*
X122977693Y-81997657D01*
X122977693Y-81997657D02*
X123025312Y-82092895D01*
X123025312Y-82092895D02*
X123025312Y-82235752D01*
X123025312Y-82235752D02*
X122977693Y-82330990D01*
X122977693Y-82330990D02*
X122930074Y-82378609D01*
X122930074Y-82378609D02*
X122834836Y-82426228D01*
X122834836Y-82426228D02*
X122453884Y-82426228D01*
X123358646Y-81902419D02*
X124025312Y-82902419D01*
X124025312Y-81902419D02*
X123358646Y-82902419D01*
X124358646Y-81997657D02*
X124406265Y-81950038D01*
X124406265Y-81950038D02*
X124501503Y-81902419D01*
X124501503Y-81902419D02*
X124739598Y-81902419D01*
X124739598Y-81902419D02*
X124834836Y-81950038D01*
X124834836Y-81950038D02*
X124882455Y-81997657D01*
X124882455Y-81997657D02*
X124930074Y-82092895D01*
X124930074Y-82092895D02*
X124930074Y-82188133D01*
X124930074Y-82188133D02*
X124882455Y-82330990D01*
X124882455Y-82330990D02*
X124311027Y-82902419D01*
X124311027Y-82902419D02*
X124930074Y-82902419D01*
X123025312Y-90427180D02*
X122977693Y-90474800D01*
X122977693Y-90474800D02*
X122834836Y-90522419D01*
X122834836Y-90522419D02*
X122739598Y-90522419D01*
X122739598Y-90522419D02*
X122596741Y-90474800D01*
X122596741Y-90474800D02*
X122501503Y-90379561D01*
X122501503Y-90379561D02*
X122453884Y-90284323D01*
X122453884Y-90284323D02*
X122406265Y-90093847D01*
X122406265Y-90093847D02*
X122406265Y-89950990D01*
X122406265Y-89950990D02*
X122453884Y-89760514D01*
X122453884Y-89760514D02*
X122501503Y-89665276D01*
X122501503Y-89665276D02*
X122596741Y-89570038D01*
X122596741Y-89570038D02*
X122739598Y-89522419D01*
X122739598Y-89522419D02*
X122834836Y-89522419D01*
X122834836Y-89522419D02*
X122977693Y-89570038D01*
X122977693Y-89570038D02*
X123025312Y-89617657D01*
X123406265Y-90474800D02*
X123549122Y-90522419D01*
X123549122Y-90522419D02*
X123787217Y-90522419D01*
X123787217Y-90522419D02*
X123882455Y-90474800D01*
X123882455Y-90474800D02*
X123930074Y-90427180D01*
X123930074Y-90427180D02*
X123977693Y-90331942D01*
X123977693Y-90331942D02*
X123977693Y-90236704D01*
X123977693Y-90236704D02*
X123930074Y-90141466D01*
X123930074Y-90141466D02*
X123882455Y-90093847D01*
X123882455Y-90093847D02*
X123787217Y-90046228D01*
X123787217Y-90046228D02*
X123596741Y-89998609D01*
X123596741Y-89998609D02*
X123501503Y-89950990D01*
X123501503Y-89950990D02*
X123453884Y-89903371D01*
X123453884Y-89903371D02*
X123406265Y-89808133D01*
X123406265Y-89808133D02*
X123406265Y-89712895D01*
X123406265Y-89712895D02*
X123453884Y-89617657D01*
X123453884Y-89617657D02*
X123501503Y-89570038D01*
X123501503Y-89570038D02*
X123596741Y-89522419D01*
X123596741Y-89522419D02*
X123834836Y-89522419D01*
X123834836Y-89522419D02*
X123977693Y-89570038D01*
X122453884Y-70202419D02*
X122453884Y-69202419D01*
X122453884Y-69202419D02*
X122834836Y-69202419D01*
X122834836Y-69202419D02*
X122930074Y-69250038D01*
X122930074Y-69250038D02*
X122977693Y-69297657D01*
X122977693Y-69297657D02*
X123025312Y-69392895D01*
X123025312Y-69392895D02*
X123025312Y-69535752D01*
X123025312Y-69535752D02*
X122977693Y-69630990D01*
X122977693Y-69630990D02*
X122930074Y-69678609D01*
X122930074Y-69678609D02*
X122834836Y-69726228D01*
X122834836Y-69726228D02*
X122453884Y-69726228D01*
X123358646Y-69202419D02*
X123596741Y-70202419D01*
X123596741Y-70202419D02*
X123787217Y-69488133D01*
X123787217Y-69488133D02*
X123977693Y-70202419D01*
X123977693Y-70202419D02*
X124215789Y-69202419D01*
X124596741Y-70202419D02*
X124596741Y-69202419D01*
X124596741Y-69202419D02*
X124930074Y-69916704D01*
X124930074Y-69916704D02*
X125263407Y-69202419D01*
X125263407Y-69202419D02*
X125263407Y-70202419D01*
X123025312Y-65122419D02*
X122691979Y-64646228D01*
X122453884Y-65122419D02*
X122453884Y-64122419D01*
X122453884Y-64122419D02*
X122834836Y-64122419D01*
X122834836Y-64122419D02*
X122930074Y-64170038D01*
X122930074Y-64170038D02*
X122977693Y-64217657D01*
X122977693Y-64217657D02*
X123025312Y-64312895D01*
X123025312Y-64312895D02*
X123025312Y-64455752D01*
X123025312Y-64455752D02*
X122977693Y-64550990D01*
X122977693Y-64550990D02*
X122930074Y-64598609D01*
X122930074Y-64598609D02*
X122834836Y-64646228D01*
X122834836Y-64646228D02*
X122453884Y-64646228D01*
X123358646Y-64122419D02*
X124025312Y-65122419D01*
X124025312Y-64122419D02*
X123358646Y-65122419D01*
X124930074Y-65122419D02*
X124358646Y-65122419D01*
X124644360Y-65122419D02*
X124644360Y-64122419D01*
X124644360Y-64122419D02*
X124549122Y-64265276D01*
X124549122Y-64265276D02*
X124453884Y-64360514D01*
X124453884Y-64360514D02*
X124358646Y-64408133D01*
X131343884Y-110842419D02*
X131343884Y-109842419D01*
X131343884Y-109842419D02*
X131724836Y-109842419D01*
X131724836Y-109842419D02*
X131820074Y-109890038D01*
X131820074Y-109890038D02*
X131867693Y-109937657D01*
X131867693Y-109937657D02*
X131915312Y-110032895D01*
X131915312Y-110032895D02*
X131915312Y-110175752D01*
X131915312Y-110175752D02*
X131867693Y-110270990D01*
X131867693Y-110270990D02*
X131820074Y-110318609D01*
X131820074Y-110318609D02*
X131724836Y-110366228D01*
X131724836Y-110366228D02*
X131343884Y-110366228D01*
X132248646Y-109842419D02*
X132486741Y-110842419D01*
X132486741Y-110842419D02*
X132677217Y-110128133D01*
X132677217Y-110128133D02*
X132867693Y-110842419D01*
X132867693Y-110842419D02*
X133105789Y-109842419D01*
X133486741Y-110842419D02*
X133486741Y-109842419D01*
X133486741Y-109842419D02*
X133820074Y-110556704D01*
X133820074Y-110556704D02*
X134153407Y-109842419D01*
X134153407Y-109842419D02*
X134153407Y-110842419D01*
X131343884Y-70202419D02*
X131343884Y-69202419D01*
X131343884Y-69202419D02*
X131724836Y-69202419D01*
X131724836Y-69202419D02*
X131820074Y-69250038D01*
X131820074Y-69250038D02*
X131867693Y-69297657D01*
X131867693Y-69297657D02*
X131915312Y-69392895D01*
X131915312Y-69392895D02*
X131915312Y-69535752D01*
X131915312Y-69535752D02*
X131867693Y-69630990D01*
X131867693Y-69630990D02*
X131820074Y-69678609D01*
X131820074Y-69678609D02*
X131724836Y-69726228D01*
X131724836Y-69726228D02*
X131343884Y-69726228D01*
X132248646Y-69202419D02*
X132486741Y-70202419D01*
X132486741Y-70202419D02*
X132677217Y-69488133D01*
X132677217Y-69488133D02*
X132867693Y-70202419D01*
X132867693Y-70202419D02*
X133105789Y-69202419D01*
X133486741Y-70202419D02*
X133486741Y-69202419D01*
X133486741Y-69202419D02*
X133820074Y-69916704D01*
X133820074Y-69916704D02*
X134153407Y-69202419D01*
X134153407Y-69202419D02*
X134153407Y-70202419D01*
X131296265Y-80314800D02*
X131439122Y-80362419D01*
X131439122Y-80362419D02*
X131677217Y-80362419D01*
X131677217Y-80362419D02*
X131772455Y-80314800D01*
X131772455Y-80314800D02*
X131820074Y-80267180D01*
X131820074Y-80267180D02*
X131867693Y-80171942D01*
X131867693Y-80171942D02*
X131867693Y-80076704D01*
X131867693Y-80076704D02*
X131820074Y-79981466D01*
X131820074Y-79981466D02*
X131772455Y-79933847D01*
X131772455Y-79933847D02*
X131677217Y-79886228D01*
X131677217Y-79886228D02*
X131486741Y-79838609D01*
X131486741Y-79838609D02*
X131391503Y-79790990D01*
X131391503Y-79790990D02*
X131343884Y-79743371D01*
X131343884Y-79743371D02*
X131296265Y-79648133D01*
X131296265Y-79648133D02*
X131296265Y-79552895D01*
X131296265Y-79552895D02*
X131343884Y-79457657D01*
X131343884Y-79457657D02*
X131391503Y-79410038D01*
X131391503Y-79410038D02*
X131486741Y-79362419D01*
X131486741Y-79362419D02*
X131724836Y-79362419D01*
X131724836Y-79362419D02*
X131867693Y-79410038D01*
X132867693Y-80267180D02*
X132820074Y-80314800D01*
X132820074Y-80314800D02*
X132677217Y-80362419D01*
X132677217Y-80362419D02*
X132581979Y-80362419D01*
X132581979Y-80362419D02*
X132439122Y-80314800D01*
X132439122Y-80314800D02*
X132343884Y-80219561D01*
X132343884Y-80219561D02*
X132296265Y-80124323D01*
X132296265Y-80124323D02*
X132248646Y-79933847D01*
X132248646Y-79933847D02*
X132248646Y-79790990D01*
X132248646Y-79790990D02*
X132296265Y-79600514D01*
X132296265Y-79600514D02*
X132343884Y-79505276D01*
X132343884Y-79505276D02*
X132439122Y-79410038D01*
X132439122Y-79410038D02*
X132581979Y-79362419D01*
X132581979Y-79362419D02*
X132677217Y-79362419D01*
X132677217Y-79362419D02*
X132820074Y-79410038D01*
X132820074Y-79410038D02*
X132867693Y-79457657D01*
X133772455Y-80362419D02*
X133296265Y-80362419D01*
X133296265Y-80362419D02*
X133296265Y-79362419D01*
X131343884Y-72742419D02*
X131343884Y-71742419D01*
X131343884Y-71742419D02*
X131724836Y-71742419D01*
X131724836Y-71742419D02*
X131820074Y-71790038D01*
X131820074Y-71790038D02*
X131867693Y-71837657D01*
X131867693Y-71837657D02*
X131915312Y-71932895D01*
X131915312Y-71932895D02*
X131915312Y-72075752D01*
X131915312Y-72075752D02*
X131867693Y-72170990D01*
X131867693Y-72170990D02*
X131820074Y-72218609D01*
X131820074Y-72218609D02*
X131724836Y-72266228D01*
X131724836Y-72266228D02*
X131343884Y-72266228D01*
X132248646Y-71742419D02*
X132486741Y-72742419D01*
X132486741Y-72742419D02*
X132677217Y-72028133D01*
X132677217Y-72028133D02*
X132867693Y-72742419D01*
X132867693Y-72742419D02*
X133105789Y-71742419D01*
X133486741Y-72742419D02*
X133486741Y-71742419D01*
X133486741Y-71742419D02*
X133820074Y-72456704D01*
X133820074Y-72456704D02*
X134153407Y-71742419D01*
X134153407Y-71742419D02*
X134153407Y-72742419D01*
X122311027Y-66662419D02*
X122882455Y-66662419D01*
X122596741Y-67662419D02*
X122596741Y-66662419D01*
X123120551Y-66662419D02*
X123787217Y-67662419D01*
X123787217Y-66662419D02*
X123120551Y-67662419D01*
X124691979Y-67662419D02*
X124120551Y-67662419D01*
X124406265Y-67662419D02*
X124406265Y-66662419D01*
X124406265Y-66662419D02*
X124311027Y-66805276D01*
X124311027Y-66805276D02*
X124215789Y-66900514D01*
X124215789Y-66900514D02*
X124120551Y-66948133D01*
X131296265Y-85156704D02*
X131772455Y-85156704D01*
X131201027Y-85442419D02*
X131534360Y-84442419D01*
X131534360Y-84442419D02*
X131867693Y-85442419D01*
X132105789Y-84442419D02*
X132724836Y-84442419D01*
X132724836Y-84442419D02*
X132391503Y-84823371D01*
X132391503Y-84823371D02*
X132534360Y-84823371D01*
X132534360Y-84823371D02*
X132629598Y-84870990D01*
X132629598Y-84870990D02*
X132677217Y-84918609D01*
X132677217Y-84918609D02*
X132724836Y-85013847D01*
X132724836Y-85013847D02*
X132724836Y-85251942D01*
X132724836Y-85251942D02*
X132677217Y-85347180D01*
X132677217Y-85347180D02*
X132629598Y-85394800D01*
X132629598Y-85394800D02*
X132534360Y-85442419D01*
X132534360Y-85442419D02*
X132248646Y-85442419D01*
X132248646Y-85442419D02*
X132153408Y-85394800D01*
X132153408Y-85394800D02*
X132105789Y-85347180D01*
X122358646Y-97142419D02*
X122977693Y-97142419D01*
X122977693Y-97142419D02*
X122644360Y-97523371D01*
X122644360Y-97523371D02*
X122787217Y-97523371D01*
X122787217Y-97523371D02*
X122882455Y-97570990D01*
X122882455Y-97570990D02*
X122930074Y-97618609D01*
X122930074Y-97618609D02*
X122977693Y-97713847D01*
X122977693Y-97713847D02*
X122977693Y-97951942D01*
X122977693Y-97951942D02*
X122930074Y-98047180D01*
X122930074Y-98047180D02*
X122882455Y-98094800D01*
X122882455Y-98094800D02*
X122787217Y-98142419D01*
X122787217Y-98142419D02*
X122501503Y-98142419D01*
X122501503Y-98142419D02*
X122406265Y-98094800D01*
X122406265Y-98094800D02*
X122358646Y-98047180D01*
X123406265Y-98047180D02*
X123453884Y-98094800D01*
X123453884Y-98094800D02*
X123406265Y-98142419D01*
X123406265Y-98142419D02*
X123358646Y-98094800D01*
X123358646Y-98094800D02*
X123406265Y-98047180D01*
X123406265Y-98047180D02*
X123406265Y-98142419D01*
X123787217Y-97142419D02*
X124406264Y-97142419D01*
X124406264Y-97142419D02*
X124072931Y-97523371D01*
X124072931Y-97523371D02*
X124215788Y-97523371D01*
X124215788Y-97523371D02*
X124311026Y-97570990D01*
X124311026Y-97570990D02*
X124358645Y-97618609D01*
X124358645Y-97618609D02*
X124406264Y-97713847D01*
X124406264Y-97713847D02*
X124406264Y-97951942D01*
X124406264Y-97951942D02*
X124358645Y-98047180D01*
X124358645Y-98047180D02*
X124311026Y-98094800D01*
X124311026Y-98094800D02*
X124215788Y-98142419D01*
X124215788Y-98142419D02*
X123930074Y-98142419D01*
X123930074Y-98142419D02*
X123834836Y-98094800D01*
X123834836Y-98094800D02*
X123787217Y-98047180D01*
X124691979Y-97142419D02*
X125025312Y-98142419D01*
X125025312Y-98142419D02*
X125358645Y-97142419D01*
X128827580Y-61753884D02*
X128018057Y-61753884D01*
X128018057Y-61753884D02*
X127922819Y-61801503D01*
X127922819Y-61801503D02*
X127875200Y-61849122D01*
X127875200Y-61849122D02*
X127827580Y-61944360D01*
X127827580Y-61944360D02*
X127827580Y-62134836D01*
X127827580Y-62134836D02*
X127875200Y-62230074D01*
X127875200Y-62230074D02*
X127922819Y-62277693D01*
X127922819Y-62277693D02*
X128018057Y-62325312D01*
X128018057Y-62325312D02*
X128827580Y-62325312D01*
X127875200Y-62753884D02*
X127827580Y-62896741D01*
X127827580Y-62896741D02*
X127827580Y-63134836D01*
X127827580Y-63134836D02*
X127875200Y-63230074D01*
X127875200Y-63230074D02*
X127922819Y-63277693D01*
X127922819Y-63277693D02*
X128018057Y-63325312D01*
X128018057Y-63325312D02*
X128113295Y-63325312D01*
X128113295Y-63325312D02*
X128208533Y-63277693D01*
X128208533Y-63277693D02*
X128256152Y-63230074D01*
X128256152Y-63230074D02*
X128303771Y-63134836D01*
X128303771Y-63134836D02*
X128351390Y-62944360D01*
X128351390Y-62944360D02*
X128399009Y-62849122D01*
X128399009Y-62849122D02*
X128446628Y-62801503D01*
X128446628Y-62801503D02*
X128541866Y-62753884D01*
X128541866Y-62753884D02*
X128637104Y-62753884D01*
X128637104Y-62753884D02*
X128732342Y-62801503D01*
X128732342Y-62801503D02*
X128779961Y-62849122D01*
X128779961Y-62849122D02*
X128827580Y-62944360D01*
X128827580Y-62944360D02*
X128827580Y-63182455D01*
X128827580Y-63182455D02*
X128779961Y-63325312D01*
X128351390Y-64087217D02*
X128303771Y-64230074D01*
X128303771Y-64230074D02*
X128256152Y-64277693D01*
X128256152Y-64277693D02*
X128160914Y-64325312D01*
X128160914Y-64325312D02*
X128018057Y-64325312D01*
X128018057Y-64325312D02*
X127922819Y-64277693D01*
X127922819Y-64277693D02*
X127875200Y-64230074D01*
X127875200Y-64230074D02*
X127827580Y-64134836D01*
X127827580Y-64134836D02*
X127827580Y-63753884D01*
X127827580Y-63753884D02*
X128827580Y-63753884D01*
X128827580Y-63753884D02*
X128827580Y-64087217D01*
X128827580Y-64087217D02*
X128779961Y-64182455D01*
X128779961Y-64182455D02*
X128732342Y-64230074D01*
X128732342Y-64230074D02*
X128637104Y-64277693D01*
X128637104Y-64277693D02*
X128541866Y-64277693D01*
X128541866Y-64277693D02*
X128446628Y-64230074D01*
X128446628Y-64230074D02*
X128399009Y-64182455D01*
X128399009Y-64182455D02*
X128351390Y-64087217D01*
X128351390Y-64087217D02*
X128351390Y-63753884D01*
X127922819Y-66087217D02*
X127875200Y-66039598D01*
X127875200Y-66039598D02*
X127827580Y-65896741D01*
X127827580Y-65896741D02*
X127827580Y-65801503D01*
X127827580Y-65801503D02*
X127875200Y-65658646D01*
X127875200Y-65658646D02*
X127970438Y-65563408D01*
X127970438Y-65563408D02*
X128065676Y-65515789D01*
X128065676Y-65515789D02*
X128256152Y-65468170D01*
X128256152Y-65468170D02*
X128399009Y-65468170D01*
X128399009Y-65468170D02*
X128589485Y-65515789D01*
X128589485Y-65515789D02*
X128684723Y-65563408D01*
X128684723Y-65563408D02*
X128779961Y-65658646D01*
X128779961Y-65658646D02*
X128827580Y-65801503D01*
X128827580Y-65801503D02*
X128827580Y-65896741D01*
X128827580Y-65896741D02*
X128779961Y-66039598D01*
X128779961Y-66039598D02*
X128732342Y-66087217D01*
X131915312Y-108207180D02*
X131867693Y-108254800D01*
X131867693Y-108254800D02*
X131724836Y-108302419D01*
X131724836Y-108302419D02*
X131629598Y-108302419D01*
X131629598Y-108302419D02*
X131486741Y-108254800D01*
X131486741Y-108254800D02*
X131391503Y-108159561D01*
X131391503Y-108159561D02*
X131343884Y-108064323D01*
X131343884Y-108064323D02*
X131296265Y-107873847D01*
X131296265Y-107873847D02*
X131296265Y-107730990D01*
X131296265Y-107730990D02*
X131343884Y-107540514D01*
X131343884Y-107540514D02*
X131391503Y-107445276D01*
X131391503Y-107445276D02*
X131486741Y-107350038D01*
X131486741Y-107350038D02*
X131629598Y-107302419D01*
X131629598Y-107302419D02*
X131724836Y-107302419D01*
X131724836Y-107302419D02*
X131867693Y-107350038D01*
X131867693Y-107350038D02*
X131915312Y-107397657D01*
X132296265Y-108254800D02*
X132439122Y-108302419D01*
X132439122Y-108302419D02*
X132677217Y-108302419D01*
X132677217Y-108302419D02*
X132772455Y-108254800D01*
X132772455Y-108254800D02*
X132820074Y-108207180D01*
X132820074Y-108207180D02*
X132867693Y-108111942D01*
X132867693Y-108111942D02*
X132867693Y-108016704D01*
X132867693Y-108016704D02*
X132820074Y-107921466D01*
X132820074Y-107921466D02*
X132772455Y-107873847D01*
X132772455Y-107873847D02*
X132677217Y-107826228D01*
X132677217Y-107826228D02*
X132486741Y-107778609D01*
X132486741Y-107778609D02*
X132391503Y-107730990D01*
X132391503Y-107730990D02*
X132343884Y-107683371D01*
X132343884Y-107683371D02*
X132296265Y-107588133D01*
X132296265Y-107588133D02*
X132296265Y-107492895D01*
X132296265Y-107492895D02*
X132343884Y-107397657D01*
X132343884Y-107397657D02*
X132391503Y-107350038D01*
X132391503Y-107350038D02*
X132486741Y-107302419D01*
X132486741Y-107302419D02*
X132724836Y-107302419D01*
X132724836Y-107302419D02*
X132867693Y-107350038D01*
X133820074Y-108302419D02*
X133248646Y-108302419D01*
X133534360Y-108302419D02*
X133534360Y-107302419D01*
X133534360Y-107302419D02*
X133439122Y-107445276D01*
X133439122Y-107445276D02*
X133343884Y-107540514D01*
X133343884Y-107540514D02*
X133248646Y-107588133D01*
X131343884Y-113382419D02*
X131343884Y-112382419D01*
X131343884Y-112382419D02*
X131724836Y-112382419D01*
X131724836Y-112382419D02*
X131820074Y-112430038D01*
X131820074Y-112430038D02*
X131867693Y-112477657D01*
X131867693Y-112477657D02*
X131915312Y-112572895D01*
X131915312Y-112572895D02*
X131915312Y-112715752D01*
X131915312Y-112715752D02*
X131867693Y-112810990D01*
X131867693Y-112810990D02*
X131820074Y-112858609D01*
X131820074Y-112858609D02*
X131724836Y-112906228D01*
X131724836Y-112906228D02*
X131343884Y-112906228D01*
X132248646Y-112382419D02*
X132486741Y-113382419D01*
X132486741Y-113382419D02*
X132677217Y-112668133D01*
X132677217Y-112668133D02*
X132867693Y-113382419D01*
X132867693Y-113382419D02*
X133105789Y-112382419D01*
X133486741Y-113382419D02*
X133486741Y-112382419D01*
X133486741Y-112382419D02*
X133820074Y-113096704D01*
X133820074Y-113096704D02*
X134153407Y-112382419D01*
X134153407Y-112382419D02*
X134153407Y-113382419D01*
X131296265Y-95554800D02*
X131439122Y-95602419D01*
X131439122Y-95602419D02*
X131677217Y-95602419D01*
X131677217Y-95602419D02*
X131772455Y-95554800D01*
X131772455Y-95554800D02*
X131820074Y-95507180D01*
X131820074Y-95507180D02*
X131867693Y-95411942D01*
X131867693Y-95411942D02*
X131867693Y-95316704D01*
X131867693Y-95316704D02*
X131820074Y-95221466D01*
X131820074Y-95221466D02*
X131772455Y-95173847D01*
X131772455Y-95173847D02*
X131677217Y-95126228D01*
X131677217Y-95126228D02*
X131486741Y-95078609D01*
X131486741Y-95078609D02*
X131391503Y-95030990D01*
X131391503Y-95030990D02*
X131343884Y-94983371D01*
X131343884Y-94983371D02*
X131296265Y-94888133D01*
X131296265Y-94888133D02*
X131296265Y-94792895D01*
X131296265Y-94792895D02*
X131343884Y-94697657D01*
X131343884Y-94697657D02*
X131391503Y-94650038D01*
X131391503Y-94650038D02*
X131486741Y-94602419D01*
X131486741Y-94602419D02*
X131724836Y-94602419D01*
X131724836Y-94602419D02*
X131867693Y-94650038D01*
X132867693Y-95507180D02*
X132820074Y-95554800D01*
X132820074Y-95554800D02*
X132677217Y-95602419D01*
X132677217Y-95602419D02*
X132581979Y-95602419D01*
X132581979Y-95602419D02*
X132439122Y-95554800D01*
X132439122Y-95554800D02*
X132343884Y-95459561D01*
X132343884Y-95459561D02*
X132296265Y-95364323D01*
X132296265Y-95364323D02*
X132248646Y-95173847D01*
X132248646Y-95173847D02*
X132248646Y-95030990D01*
X132248646Y-95030990D02*
X132296265Y-94840514D01*
X132296265Y-94840514D02*
X132343884Y-94745276D01*
X132343884Y-94745276D02*
X132439122Y-94650038D01*
X132439122Y-94650038D02*
X132581979Y-94602419D01*
X132581979Y-94602419D02*
X132677217Y-94602419D01*
X132677217Y-94602419D02*
X132820074Y-94650038D01*
X132820074Y-94650038D02*
X132867693Y-94697657D01*
X133296265Y-95602419D02*
X133296265Y-94602419D01*
X133867693Y-95602419D02*
X133439122Y-95030990D01*
X133867693Y-94602419D02*
X133296265Y-95173847D01*
X131296265Y-92776704D02*
X131772455Y-92776704D01*
X131201027Y-93062419D02*
X131534360Y-92062419D01*
X131534360Y-92062419D02*
X131867693Y-93062419D01*
X132391503Y-92062419D02*
X132486741Y-92062419D01*
X132486741Y-92062419D02*
X132581979Y-92110038D01*
X132581979Y-92110038D02*
X132629598Y-92157657D01*
X132629598Y-92157657D02*
X132677217Y-92252895D01*
X132677217Y-92252895D02*
X132724836Y-92443371D01*
X132724836Y-92443371D02*
X132724836Y-92681466D01*
X132724836Y-92681466D02*
X132677217Y-92871942D01*
X132677217Y-92871942D02*
X132629598Y-92967180D01*
X132629598Y-92967180D02*
X132581979Y-93014800D01*
X132581979Y-93014800D02*
X132486741Y-93062419D01*
X132486741Y-93062419D02*
X132391503Y-93062419D01*
X132391503Y-93062419D02*
X132296265Y-93014800D01*
X132296265Y-93014800D02*
X132248646Y-92967180D01*
X132248646Y-92967180D02*
X132201027Y-92871942D01*
X132201027Y-92871942D02*
X132153408Y-92681466D01*
X132153408Y-92681466D02*
X132153408Y-92443371D01*
X132153408Y-92443371D02*
X132201027Y-92252895D01*
X132201027Y-92252895D02*
X132248646Y-92157657D01*
X132248646Y-92157657D02*
X132296265Y-92110038D01*
X132296265Y-92110038D02*
X132391503Y-92062419D01*
X122311027Y-112382419D02*
X122882455Y-112382419D01*
X122596741Y-113382419D02*
X122596741Y-112382419D01*
X123120551Y-112382419D02*
X123787217Y-113382419D01*
X123787217Y-112382419D02*
X123120551Y-113382419D01*
X124072932Y-112382419D02*
X124739598Y-112382419D01*
X124739598Y-112382419D02*
X124311027Y-113382419D01*
X122453884Y-105762419D02*
X122453884Y-104762419D01*
X122453884Y-104762419D02*
X122787217Y-105476704D01*
X122787217Y-105476704D02*
X123120550Y-104762419D01*
X123120550Y-104762419D02*
X123120550Y-105762419D01*
X123787217Y-104762419D02*
X123977693Y-104762419D01*
X123977693Y-104762419D02*
X124072931Y-104810038D01*
X124072931Y-104810038D02*
X124168169Y-104905276D01*
X124168169Y-104905276D02*
X124215788Y-105095752D01*
X124215788Y-105095752D02*
X124215788Y-105429085D01*
X124215788Y-105429085D02*
X124168169Y-105619561D01*
X124168169Y-105619561D02*
X124072931Y-105714800D01*
X124072931Y-105714800D02*
X123977693Y-105762419D01*
X123977693Y-105762419D02*
X123787217Y-105762419D01*
X123787217Y-105762419D02*
X123691979Y-105714800D01*
X123691979Y-105714800D02*
X123596741Y-105619561D01*
X123596741Y-105619561D02*
X123549122Y-105429085D01*
X123549122Y-105429085D02*
X123549122Y-105095752D01*
X123549122Y-105095752D02*
X123596741Y-104905276D01*
X123596741Y-104905276D02*
X123691979Y-104810038D01*
X123691979Y-104810038D02*
X123787217Y-104762419D01*
X124596741Y-105714800D02*
X124739598Y-105762419D01*
X124739598Y-105762419D02*
X124977693Y-105762419D01*
X124977693Y-105762419D02*
X125072931Y-105714800D01*
X125072931Y-105714800D02*
X125120550Y-105667180D01*
X125120550Y-105667180D02*
X125168169Y-105571942D01*
X125168169Y-105571942D02*
X125168169Y-105476704D01*
X125168169Y-105476704D02*
X125120550Y-105381466D01*
X125120550Y-105381466D02*
X125072931Y-105333847D01*
X125072931Y-105333847D02*
X124977693Y-105286228D01*
X124977693Y-105286228D02*
X124787217Y-105238609D01*
X124787217Y-105238609D02*
X124691979Y-105190990D01*
X124691979Y-105190990D02*
X124644360Y-105143371D01*
X124644360Y-105143371D02*
X124596741Y-105048133D01*
X124596741Y-105048133D02*
X124596741Y-104952895D01*
X124596741Y-104952895D02*
X124644360Y-104857657D01*
X124644360Y-104857657D02*
X124691979Y-104810038D01*
X124691979Y-104810038D02*
X124787217Y-104762419D01*
X124787217Y-104762419D02*
X125025312Y-104762419D01*
X125025312Y-104762419D02*
X125168169Y-104810038D01*
X125596741Y-105762419D02*
X125596741Y-104762419D01*
X126596740Y-105762419D02*
X126025312Y-105762419D01*
X126311026Y-105762419D02*
X126311026Y-104762419D01*
X126311026Y-104762419D02*
X126215788Y-104905276D01*
X126215788Y-104905276D02*
X126120550Y-105000514D01*
X126120550Y-105000514D02*
X126025312Y-105048133D01*
X131248646Y-66662419D02*
X131867693Y-66662419D01*
X131867693Y-66662419D02*
X131534360Y-67043371D01*
X131534360Y-67043371D02*
X131677217Y-67043371D01*
X131677217Y-67043371D02*
X131772455Y-67090990D01*
X131772455Y-67090990D02*
X131820074Y-67138609D01*
X131820074Y-67138609D02*
X131867693Y-67233847D01*
X131867693Y-67233847D02*
X131867693Y-67471942D01*
X131867693Y-67471942D02*
X131820074Y-67567180D01*
X131820074Y-67567180D02*
X131772455Y-67614800D01*
X131772455Y-67614800D02*
X131677217Y-67662419D01*
X131677217Y-67662419D02*
X131391503Y-67662419D01*
X131391503Y-67662419D02*
X131296265Y-67614800D01*
X131296265Y-67614800D02*
X131248646Y-67567180D01*
X132296265Y-67567180D02*
X132343884Y-67614800D01*
X132343884Y-67614800D02*
X132296265Y-67662419D01*
X132296265Y-67662419D02*
X132248646Y-67614800D01*
X132248646Y-67614800D02*
X132296265Y-67567180D01*
X132296265Y-67567180D02*
X132296265Y-67662419D01*
X132677217Y-66662419D02*
X133296264Y-66662419D01*
X133296264Y-66662419D02*
X132962931Y-67043371D01*
X132962931Y-67043371D02*
X133105788Y-67043371D01*
X133105788Y-67043371D02*
X133201026Y-67090990D01*
X133201026Y-67090990D02*
X133248645Y-67138609D01*
X133248645Y-67138609D02*
X133296264Y-67233847D01*
X133296264Y-67233847D02*
X133296264Y-67471942D01*
X133296264Y-67471942D02*
X133248645Y-67567180D01*
X133248645Y-67567180D02*
X133201026Y-67614800D01*
X133201026Y-67614800D02*
X133105788Y-67662419D01*
X133105788Y-67662419D02*
X132820074Y-67662419D01*
X132820074Y-67662419D02*
X132724836Y-67614800D01*
X132724836Y-67614800D02*
X132677217Y-67567180D01*
X133581979Y-66662419D02*
X133915312Y-67662419D01*
X133915312Y-67662419D02*
X134248645Y-66662419D01*
X131201027Y-61582419D02*
X131534360Y-62582419D01*
X131534360Y-62582419D02*
X131867693Y-61582419D01*
X132201027Y-62582419D02*
X132201027Y-61915752D01*
X132201027Y-61582419D02*
X132153408Y-61630038D01*
X132153408Y-61630038D02*
X132201027Y-61677657D01*
X132201027Y-61677657D02*
X132248646Y-61630038D01*
X132248646Y-61630038D02*
X132201027Y-61582419D01*
X132201027Y-61582419D02*
X132201027Y-61677657D01*
X132677217Y-61915752D02*
X132677217Y-62582419D01*
X132677217Y-62010990D02*
X132724836Y-61963371D01*
X132724836Y-61963371D02*
X132820074Y-61915752D01*
X132820074Y-61915752D02*
X132962931Y-61915752D01*
X132962931Y-61915752D02*
X133058169Y-61963371D01*
X133058169Y-61963371D02*
X133105788Y-62058609D01*
X133105788Y-62058609D02*
X133105788Y-62582419D01*
X122977693Y-117510038D02*
X122882455Y-117462419D01*
X122882455Y-117462419D02*
X122739598Y-117462419D01*
X122739598Y-117462419D02*
X122596741Y-117510038D01*
X122596741Y-117510038D02*
X122501503Y-117605276D01*
X122501503Y-117605276D02*
X122453884Y-117700514D01*
X122453884Y-117700514D02*
X122406265Y-117890990D01*
X122406265Y-117890990D02*
X122406265Y-118033847D01*
X122406265Y-118033847D02*
X122453884Y-118224323D01*
X122453884Y-118224323D02*
X122501503Y-118319561D01*
X122501503Y-118319561D02*
X122596741Y-118414800D01*
X122596741Y-118414800D02*
X122739598Y-118462419D01*
X122739598Y-118462419D02*
X122834836Y-118462419D01*
X122834836Y-118462419D02*
X122977693Y-118414800D01*
X122977693Y-118414800D02*
X123025312Y-118367180D01*
X123025312Y-118367180D02*
X123025312Y-118033847D01*
X123025312Y-118033847D02*
X122834836Y-118033847D01*
X123453884Y-118462419D02*
X123453884Y-117462419D01*
X123453884Y-117462419D02*
X123834836Y-117462419D01*
X123834836Y-117462419D02*
X123930074Y-117510038D01*
X123930074Y-117510038D02*
X123977693Y-117557657D01*
X123977693Y-117557657D02*
X124025312Y-117652895D01*
X124025312Y-117652895D02*
X124025312Y-117795752D01*
X124025312Y-117795752D02*
X123977693Y-117890990D01*
X123977693Y-117890990D02*
X123930074Y-117938609D01*
X123930074Y-117938609D02*
X123834836Y-117986228D01*
X123834836Y-117986228D02*
X123453884Y-117986228D01*
X124453884Y-118462419D02*
X124453884Y-117462419D01*
X125120550Y-117462419D02*
X125311026Y-117462419D01*
X125311026Y-117462419D02*
X125406264Y-117510038D01*
X125406264Y-117510038D02*
X125501502Y-117605276D01*
X125501502Y-117605276D02*
X125549121Y-117795752D01*
X125549121Y-117795752D02*
X125549121Y-118129085D01*
X125549121Y-118129085D02*
X125501502Y-118319561D01*
X125501502Y-118319561D02*
X125406264Y-118414800D01*
X125406264Y-118414800D02*
X125311026Y-118462419D01*
X125311026Y-118462419D02*
X125120550Y-118462419D01*
X125120550Y-118462419D02*
X125025312Y-118414800D01*
X125025312Y-118414800D02*
X124930074Y-118319561D01*
X124930074Y-118319561D02*
X124882455Y-118129085D01*
X124882455Y-118129085D02*
X124882455Y-117795752D01*
X124882455Y-117795752D02*
X124930074Y-117605276D01*
X124930074Y-117605276D02*
X125025312Y-117510038D01*
X125025312Y-117510038D02*
X125120550Y-117462419D01*
D10*
X140691666Y-87634819D02*
X140691666Y-88349104D01*
X140691666Y-88349104D02*
X140644047Y-88491961D01*
X140644047Y-88491961D02*
X140548809Y-88587200D01*
X140548809Y-88587200D02*
X140405952Y-88634819D01*
X140405952Y-88634819D02*
X140310714Y-88634819D01*
X141644047Y-87634819D02*
X141167857Y-87634819D01*
X141167857Y-87634819D02*
X141120238Y-88111009D01*
X141120238Y-88111009D02*
X141167857Y-88063390D01*
X141167857Y-88063390D02*
X141263095Y-88015771D01*
X141263095Y-88015771D02*
X141501190Y-88015771D01*
X141501190Y-88015771D02*
X141596428Y-88063390D01*
X141596428Y-88063390D02*
X141644047Y-88111009D01*
X141644047Y-88111009D02*
X141691666Y-88206247D01*
X141691666Y-88206247D02*
X141691666Y-88444342D01*
X141691666Y-88444342D02*
X141644047Y-88539580D01*
X141644047Y-88539580D02*
X141596428Y-88587200D01*
X141596428Y-88587200D02*
X141501190Y-88634819D01*
X141501190Y-88634819D02*
X141263095Y-88634819D01*
X141263095Y-88634819D02*
X141167857Y-88587200D01*
X141167857Y-88587200D02*
X141120238Y-88539580D01*
D12*
%TO.C,J4*%
X114295000Y-92220000D02*
X114295000Y-112600000D01*
X114295000Y-92220000D02*
X116955000Y-92220000D01*
X114295000Y-112600000D02*
X116955000Y-112600000D01*
X115625000Y-89620000D02*
X116955000Y-89620000D01*
X116955000Y-89620000D02*
X116955000Y-90950000D01*
X116955000Y-92220000D02*
X116955000Y-112600000D01*
%TO.C,J1*%
X153330000Y-69330000D02*
X152000000Y-69330000D01*
X153330000Y-68000000D02*
X153330000Y-69330000D01*
X153330000Y-66730000D02*
X153330000Y-59050000D01*
X153330000Y-66730000D02*
X150670000Y-66730000D01*
X153330000Y-59050000D02*
X150670000Y-59050000D01*
X150670000Y-66730000D02*
X150670000Y-59050000D01*
%TO.C,J2*%
X108775000Y-114650000D02*
X107525000Y-114650000D01*
X108485000Y-114940000D02*
X102515000Y-114940000D01*
X102515000Y-114940000D02*
X102515000Y-125060000D01*
X108475000Y-114950000D02*
X107725000Y-114950000D01*
X107725000Y-114950000D02*
X107725000Y-116750000D01*
X106225000Y-114950000D02*
X106225000Y-115700000D01*
X106225000Y-115700000D02*
X103275000Y-115700000D01*
X103275000Y-115700000D02*
X103275000Y-120000000D01*
X108775000Y-115900000D02*
X108775000Y-114650000D01*
X108475000Y-116750000D02*
X108475000Y-114950000D01*
X107725000Y-116750000D02*
X108475000Y-116750000D01*
X108475000Y-118250000D02*
X107725000Y-118250000D01*
X107725000Y-118250000D02*
X107725000Y-121750000D01*
X108475000Y-121750000D02*
X108475000Y-118250000D01*
X107725000Y-121750000D02*
X108475000Y-121750000D01*
X108475000Y-123250000D02*
X107725000Y-123250000D01*
X107725000Y-123250000D02*
X107725000Y-125050000D01*
X106225000Y-124300000D02*
X103275000Y-124300000D01*
X103275000Y-124300000D02*
X103275000Y-120000000D01*
X108475000Y-125050000D02*
X108475000Y-123250000D01*
X107725000Y-125050000D02*
X108475000Y-125050000D01*
X106225000Y-125050000D02*
X106225000Y-124300000D01*
X108485000Y-125060000D02*
X108485000Y-114940000D01*
X102515000Y-125060000D02*
X108485000Y-125060000D01*
D11*
%TO.C,BZ1*%
X112801875Y-92800000D02*
G75*
G03*
X112801875Y-92800000I-6001875J0D01*
G01*
D12*
%TO.C,J3*%
X104670000Y-57870000D02*
X106000000Y-57870000D01*
X104670000Y-59200000D02*
X104670000Y-57870000D01*
X104670000Y-60470000D02*
X104670000Y-68150000D01*
X104670000Y-60470000D02*
X107330000Y-60470000D01*
X104670000Y-68150000D02*
X107330000Y-68150000D01*
X107330000Y-60470000D02*
X107330000Y-68150000D01*
D11*
%TO.C,Teensy4.1*%
X119610000Y-89380000D02*
X119610000Y-60170000D01*
X119610000Y-89380000D02*
X119610000Y-90650000D01*
X119610000Y-90650000D02*
X119610000Y-121130000D01*
X119610000Y-121130000D02*
X137390000Y-121130000D01*
X137390000Y-60170000D02*
X119610000Y-60170000D01*
X137390000Y-60170000D02*
X137390000Y-88110000D01*
X137390000Y-121130000D02*
X137390000Y-88110000D01*
D12*
%TO.C,J5*%
X139695000Y-92220000D02*
X139695000Y-102440000D01*
X139695000Y-92220000D02*
X142355000Y-92220000D01*
X139695000Y-102440000D02*
X142355000Y-102440000D01*
X141025000Y-89620000D02*
X142355000Y-89620000D01*
X142355000Y-89620000D02*
X142355000Y-90950000D01*
X142355000Y-92220000D02*
X142355000Y-102440000D01*
%TD*%
M02*
