M48
; DRILL file {KiCad 7.0.7} date Wed Jun  5 22:00:49 2024
; FORMAT={-:-/ absolute / inch / decimal}
; #@! TF.CreationDate,2024-06-05T22:00:49-04:00
; #@! TF.GenerationSoftware,Kicad,Pcbnew,7.0.7
; #@! TF.FileFunction,Plated,1,2,PTH
FMAT,2
INCH
; #@! TA.AperFunction,Plated,PTH,ViaDrill
T1C0.0157
; #@! TA.AperFunction,Plated,PTH,ComponentDrill
T2C0.0394
; #@! TA.AperFunction,Plated,PTH,ComponentDrill
T3C0.0402
%
G90
G05
T1
X4.7047Y-3.7008
X4.7047Y-3.8976
X4.7047Y-4.0945
X4.7047Y-4.2717
X4.7047Y-4.6063
X4.7244Y-4.4685
X5.2953Y-3.0118
X5.2953Y-4.9606
X5.3154Y-4.9995
X5.8702Y-5.2403
X5.9252Y-5.0197
X5.9252Y-5.1969
X6.0236Y-3.3622
X6.2598Y-3.7402
X6.2992Y-3.7402
X6.3386Y-3.7402
T2
X4.626Y-2.8693
X4.626Y-2.9693
X4.626Y-3.0693
X4.626Y-3.1693
X4.6654Y-4.8622
X4.6654Y-4.9622
X4.6654Y-5.0622
X4.6654Y-5.1622
X6.1417Y-4.7185
X6.1417Y-4.8185
X6.1417Y-4.9185
X6.1417Y-5.0185
X6.1417Y-5.1185
X6.1417Y-5.2185
X6.1417Y-5.3185
X6.1417Y-5.4185
X6.1417Y-5.5185
X6.1476Y-3.6142
X6.1476Y-3.7142
X6.1476Y-3.8142
X6.1476Y-3.9142
X6.1476Y-4.0142
X6.1476Y-4.1142
X6.1476Y-4.2142
X6.1476Y-4.3142
X6.1476Y-4.4142
X6.1516Y-2.5197
X6.1516Y-2.6197
X6.1516Y-2.7197
X6.1516Y-2.8197
X6.1516Y-2.9197
X6.1516Y-3.0197
X6.1516Y-3.1197
X6.1516Y-3.2197
X6.1516Y-3.3197
X7.1417Y-4.7185
X7.1417Y-4.8185
X7.1417Y-4.9185
X7.1417Y-5.0185
X7.1417Y-5.1185
X7.1476Y-3.6142
X7.1476Y-3.7142
X7.1476Y-3.8142
X7.1476Y-3.9142
X7.1476Y-4.0142
X7.1516Y-2.5197
X7.1516Y-2.6197
X7.1516Y-2.7197
X7.1516Y-2.8197
X7.1516Y-2.9197
T3
X4.9337Y-2.8593
X4.9337Y-2.9593
X4.9337Y-3.0593
X4.9337Y-3.1593
X4.9337Y-3.2593
X4.9337Y-3.3593
X4.9337Y-3.4593
X4.9337Y-3.5593
X4.9337Y-3.6593
X4.9337Y-3.7593
X4.9337Y-3.8593
X4.9337Y-3.9593
X4.9337Y-4.0593
X4.9337Y-4.1593
X4.9337Y-4.2593
X4.9337Y-4.3593
X4.9337Y-4.4593
X4.9337Y-4.5593
X4.9337Y-4.6593
X4.9337Y-4.7593
X4.9337Y-4.8593
X4.9337Y-4.9593
X4.9337Y-5.0593
X4.9337Y-5.1593
X5.5337Y-2.8593
X5.5337Y-2.9593
X5.5337Y-3.0593
X5.5337Y-3.1593
X5.5337Y-3.2593
X5.5337Y-3.3593
X5.5337Y-3.4593
X5.5337Y-3.5593
X5.5337Y-3.6593
X5.5337Y-3.7593
X5.5337Y-3.8593
X5.5337Y-3.9593
X5.5337Y-4.0593
X5.5337Y-4.1593
X5.5337Y-4.2593
X5.5337Y-4.3593
X5.5337Y-4.4593
X5.5337Y-4.5593
X5.5337Y-4.6593
X5.5337Y-4.7593
X5.5337Y-4.8593
X5.5337Y-4.9593
X5.5337Y-5.0593
X5.5337Y-5.1593
T0
M30
