%TF.GenerationSoftware,KiCad,Pcbnew,7.0.7*%
%TF.CreationDate,2024-06-05T22:00:53-04:00*%
%TF.ProjectId,Ground Receiver v2,47726f75-6e64-4205-9265-636569766572,rev?*%
%TF.SameCoordinates,Original*%
%TF.FileFunction,Legend,Top*%
%TF.FilePolarity,Positive*%
%FSLAX46Y46*%
G04 Gerber Fmt 4.6, Leading zero omitted, Abs format (unit mm)*
G04 Created by KiCad (PCBNEW 7.0.7) date 2024-06-05 22:00:53*
%MOMM*%
%LPD*%
G01*
G04 APERTURE LIST*
%ADD10C,0.150000*%
%ADD11C,0.100000*%
%ADD12C,0.120000*%
G04 APERTURE END LIST*
D10*
X122954819Y-101666666D02*
X122478628Y-101999999D01*
X122954819Y-102238094D02*
X121954819Y-102238094D01*
X121954819Y-102238094D02*
X121954819Y-101857142D01*
X121954819Y-101857142D02*
X122002438Y-101761904D01*
X122002438Y-101761904D02*
X122050057Y-101714285D01*
X122050057Y-101714285D02*
X122145295Y-101666666D01*
X122145295Y-101666666D02*
X122288152Y-101666666D01*
X122288152Y-101666666D02*
X122383390Y-101714285D01*
X122383390Y-101714285D02*
X122431009Y-101761904D01*
X122431009Y-101761904D02*
X122478628Y-101857142D01*
X122478628Y-101857142D02*
X122478628Y-102238094D01*
X121954819Y-101333332D02*
X121954819Y-100714285D01*
X121954819Y-100714285D02*
X122335771Y-101047618D01*
X122335771Y-101047618D02*
X122335771Y-100904761D01*
X122335771Y-100904761D02*
X122383390Y-100809523D01*
X122383390Y-100809523D02*
X122431009Y-100761904D01*
X122431009Y-100761904D02*
X122526247Y-100714285D01*
X122526247Y-100714285D02*
X122764342Y-100714285D01*
X122764342Y-100714285D02*
X122859580Y-100761904D01*
X122859580Y-100761904D02*
X122907200Y-100809523D01*
X122907200Y-100809523D02*
X122954819Y-100904761D01*
X122954819Y-100904761D02*
X122954819Y-101190475D01*
X122954819Y-101190475D02*
X122907200Y-101285713D01*
X122907200Y-101285713D02*
X122859580Y-101333332D01*
X118166666Y-132904819D02*
X118166666Y-133619104D01*
X118166666Y-133619104D02*
X118119047Y-133761961D01*
X118119047Y-133761961D02*
X118023809Y-133857200D01*
X118023809Y-133857200D02*
X117880952Y-133904819D01*
X117880952Y-133904819D02*
X117785714Y-133904819D01*
X118785714Y-133333390D02*
X118690476Y-133285771D01*
X118690476Y-133285771D02*
X118642857Y-133238152D01*
X118642857Y-133238152D02*
X118595238Y-133142914D01*
X118595238Y-133142914D02*
X118595238Y-133095295D01*
X118595238Y-133095295D02*
X118642857Y-133000057D01*
X118642857Y-133000057D02*
X118690476Y-132952438D01*
X118690476Y-132952438D02*
X118785714Y-132904819D01*
X118785714Y-132904819D02*
X118976190Y-132904819D01*
X118976190Y-132904819D02*
X119071428Y-132952438D01*
X119071428Y-132952438D02*
X119119047Y-133000057D01*
X119119047Y-133000057D02*
X119166666Y-133095295D01*
X119166666Y-133095295D02*
X119166666Y-133142914D01*
X119166666Y-133142914D02*
X119119047Y-133238152D01*
X119119047Y-133238152D02*
X119071428Y-133285771D01*
X119071428Y-133285771D02*
X118976190Y-133333390D01*
X118976190Y-133333390D02*
X118785714Y-133333390D01*
X118785714Y-133333390D02*
X118690476Y-133381009D01*
X118690476Y-133381009D02*
X118642857Y-133428628D01*
X118642857Y-133428628D02*
X118595238Y-133523866D01*
X118595238Y-133523866D02*
X118595238Y-133714342D01*
X118595238Y-133714342D02*
X118642857Y-133809580D01*
X118642857Y-133809580D02*
X118690476Y-133857200D01*
X118690476Y-133857200D02*
X118785714Y-133904819D01*
X118785714Y-133904819D02*
X118976190Y-133904819D01*
X118976190Y-133904819D02*
X119071428Y-133857200D01*
X119071428Y-133857200D02*
X119119047Y-133809580D01*
X119119047Y-133809580D02*
X119166666Y-133714342D01*
X119166666Y-133714342D02*
X119166666Y-133523866D01*
X119166666Y-133523866D02*
X119119047Y-133428628D01*
X119119047Y-133428628D02*
X119071428Y-133381009D01*
X119071428Y-133381009D02*
X118976190Y-133333390D01*
X117166666Y-82284819D02*
X117166666Y-82999104D01*
X117166666Y-82999104D02*
X117119047Y-83141961D01*
X117119047Y-83141961D02*
X117023809Y-83237200D01*
X117023809Y-83237200D02*
X116880952Y-83284819D01*
X116880952Y-83284819D02*
X116785714Y-83284819D01*
X117547619Y-82284819D02*
X118214285Y-82284819D01*
X118214285Y-82284819D02*
X117785714Y-83284819D01*
D11*
X133677580Y-97763571D02*
X133677580Y-98334999D01*
X132677580Y-98049285D02*
X133677580Y-98049285D01*
X132725200Y-99049285D02*
X132677580Y-98954047D01*
X132677580Y-98954047D02*
X132677580Y-98763571D01*
X132677580Y-98763571D02*
X132725200Y-98668333D01*
X132725200Y-98668333D02*
X132820438Y-98620714D01*
X132820438Y-98620714D02*
X133201390Y-98620714D01*
X133201390Y-98620714D02*
X133296628Y-98668333D01*
X133296628Y-98668333D02*
X133344247Y-98763571D01*
X133344247Y-98763571D02*
X133344247Y-98954047D01*
X133344247Y-98954047D02*
X133296628Y-99049285D01*
X133296628Y-99049285D02*
X133201390Y-99096904D01*
X133201390Y-99096904D02*
X133106152Y-99096904D01*
X133106152Y-99096904D02*
X133010914Y-98620714D01*
X132725200Y-99906428D02*
X132677580Y-99811190D01*
X132677580Y-99811190D02*
X132677580Y-99620714D01*
X132677580Y-99620714D02*
X132725200Y-99525476D01*
X132725200Y-99525476D02*
X132820438Y-99477857D01*
X132820438Y-99477857D02*
X133201390Y-99477857D01*
X133201390Y-99477857D02*
X133296628Y-99525476D01*
X133296628Y-99525476D02*
X133344247Y-99620714D01*
X133344247Y-99620714D02*
X133344247Y-99811190D01*
X133344247Y-99811190D02*
X133296628Y-99906428D01*
X133296628Y-99906428D02*
X133201390Y-99954047D01*
X133201390Y-99954047D02*
X133106152Y-99954047D01*
X133106152Y-99954047D02*
X133010914Y-99477857D01*
X133344247Y-100382619D02*
X132677580Y-100382619D01*
X133249009Y-100382619D02*
X133296628Y-100430238D01*
X133296628Y-100430238D02*
X133344247Y-100525476D01*
X133344247Y-100525476D02*
X133344247Y-100668333D01*
X133344247Y-100668333D02*
X133296628Y-100763571D01*
X133296628Y-100763571D02*
X133201390Y-100811190D01*
X133201390Y-100811190D02*
X132677580Y-100811190D01*
X132725200Y-101239762D02*
X132677580Y-101335000D01*
X132677580Y-101335000D02*
X132677580Y-101525476D01*
X132677580Y-101525476D02*
X132725200Y-101620714D01*
X132725200Y-101620714D02*
X132820438Y-101668333D01*
X132820438Y-101668333D02*
X132868057Y-101668333D01*
X132868057Y-101668333D02*
X132963295Y-101620714D01*
X132963295Y-101620714D02*
X133010914Y-101525476D01*
X133010914Y-101525476D02*
X133010914Y-101382619D01*
X133010914Y-101382619D02*
X133058533Y-101287381D01*
X133058533Y-101287381D02*
X133153771Y-101239762D01*
X133153771Y-101239762D02*
X133201390Y-101239762D01*
X133201390Y-101239762D02*
X133296628Y-101287381D01*
X133296628Y-101287381D02*
X133344247Y-101382619D01*
X133344247Y-101382619D02*
X133344247Y-101525476D01*
X133344247Y-101525476D02*
X133296628Y-101620714D01*
X133344247Y-102001667D02*
X132677580Y-102239762D01*
X133344247Y-102477857D02*
X132677580Y-102239762D01*
X132677580Y-102239762D02*
X132439485Y-102144524D01*
X132439485Y-102144524D02*
X132391866Y-102096905D01*
X132391866Y-102096905D02*
X132344247Y-102001667D01*
X133344247Y-103287381D02*
X132677580Y-103287381D01*
X133725200Y-103049286D02*
X133010914Y-102811191D01*
X133010914Y-102811191D02*
X133010914Y-103430238D01*
X132772819Y-103811191D02*
X132725200Y-103858810D01*
X132725200Y-103858810D02*
X132677580Y-103811191D01*
X132677580Y-103811191D02*
X132725200Y-103763572D01*
X132725200Y-103763572D02*
X132772819Y-103811191D01*
X132772819Y-103811191D02*
X132677580Y-103811191D01*
X132677580Y-104811190D02*
X132677580Y-104239762D01*
X132677580Y-104525476D02*
X133677580Y-104525476D01*
X133677580Y-104525476D02*
X133534723Y-104430238D01*
X133534723Y-104430238D02*
X133439485Y-104335000D01*
X133439485Y-104335000D02*
X133391866Y-104239762D01*
X136302693Y-108375038D02*
X136207455Y-108327419D01*
X136207455Y-108327419D02*
X136064598Y-108327419D01*
X136064598Y-108327419D02*
X135921741Y-108375038D01*
X135921741Y-108375038D02*
X135826503Y-108470276D01*
X135826503Y-108470276D02*
X135778884Y-108565514D01*
X135778884Y-108565514D02*
X135731265Y-108755990D01*
X135731265Y-108755990D02*
X135731265Y-108898847D01*
X135731265Y-108898847D02*
X135778884Y-109089323D01*
X135778884Y-109089323D02*
X135826503Y-109184561D01*
X135826503Y-109184561D02*
X135921741Y-109279800D01*
X135921741Y-109279800D02*
X136064598Y-109327419D01*
X136064598Y-109327419D02*
X136159836Y-109327419D01*
X136159836Y-109327419D02*
X136302693Y-109279800D01*
X136302693Y-109279800D02*
X136350312Y-109232180D01*
X136350312Y-109232180D02*
X136350312Y-108898847D01*
X136350312Y-108898847D02*
X136159836Y-108898847D01*
X136778884Y-109327419D02*
X136778884Y-108327419D01*
X136778884Y-108327419D02*
X137350312Y-109327419D01*
X137350312Y-109327419D02*
X137350312Y-108327419D01*
X137826503Y-109327419D02*
X137826503Y-108327419D01*
X137826503Y-108327419D02*
X138064598Y-108327419D01*
X138064598Y-108327419D02*
X138207455Y-108375038D01*
X138207455Y-108375038D02*
X138302693Y-108470276D01*
X138302693Y-108470276D02*
X138350312Y-108565514D01*
X138350312Y-108565514D02*
X138397931Y-108755990D01*
X138397931Y-108755990D02*
X138397931Y-108898847D01*
X138397931Y-108898847D02*
X138350312Y-109089323D01*
X138350312Y-109089323D02*
X138302693Y-109184561D01*
X138302693Y-109184561D02*
X138207455Y-109279800D01*
X138207455Y-109279800D02*
X138064598Y-109327419D01*
X138064598Y-109327419D02*
X137826503Y-109327419D01*
X135778884Y-122027419D02*
X135778884Y-121027419D01*
X135778884Y-121027419D02*
X136159836Y-121027419D01*
X136159836Y-121027419D02*
X136255074Y-121075038D01*
X136255074Y-121075038D02*
X136302693Y-121122657D01*
X136302693Y-121122657D02*
X136350312Y-121217895D01*
X136350312Y-121217895D02*
X136350312Y-121360752D01*
X136350312Y-121360752D02*
X136302693Y-121455990D01*
X136302693Y-121455990D02*
X136255074Y-121503609D01*
X136255074Y-121503609D02*
X136159836Y-121551228D01*
X136159836Y-121551228D02*
X135778884Y-121551228D01*
X136683646Y-121027419D02*
X136921741Y-122027419D01*
X136921741Y-122027419D02*
X137112217Y-121313133D01*
X137112217Y-121313133D02*
X137302693Y-122027419D01*
X137302693Y-122027419D02*
X137540789Y-121027419D01*
X137921741Y-122027419D02*
X137921741Y-121027419D01*
X137921741Y-121027419D02*
X138255074Y-121741704D01*
X138255074Y-121741704D02*
X138588407Y-121027419D01*
X138588407Y-121027419D02*
X138588407Y-122027419D01*
X126888884Y-83927419D02*
X126888884Y-82927419D01*
X126888884Y-82927419D02*
X127269836Y-82927419D01*
X127269836Y-82927419D02*
X127365074Y-82975038D01*
X127365074Y-82975038D02*
X127412693Y-83022657D01*
X127412693Y-83022657D02*
X127460312Y-83117895D01*
X127460312Y-83117895D02*
X127460312Y-83260752D01*
X127460312Y-83260752D02*
X127412693Y-83355990D01*
X127412693Y-83355990D02*
X127365074Y-83403609D01*
X127365074Y-83403609D02*
X127269836Y-83451228D01*
X127269836Y-83451228D02*
X126888884Y-83451228D01*
X127793646Y-82927419D02*
X128031741Y-83927419D01*
X128031741Y-83927419D02*
X128222217Y-83213133D01*
X128222217Y-83213133D02*
X128412693Y-83927419D01*
X128412693Y-83927419D02*
X128650789Y-82927419D01*
X129031741Y-83927419D02*
X129031741Y-82927419D01*
X129031741Y-82927419D02*
X129365074Y-83641704D01*
X129365074Y-83641704D02*
X129698407Y-82927419D01*
X129698407Y-82927419D02*
X129698407Y-83927419D01*
X135683646Y-77847419D02*
X136302693Y-77847419D01*
X136302693Y-77847419D02*
X135969360Y-78228371D01*
X135969360Y-78228371D02*
X136112217Y-78228371D01*
X136112217Y-78228371D02*
X136207455Y-78275990D01*
X136207455Y-78275990D02*
X136255074Y-78323609D01*
X136255074Y-78323609D02*
X136302693Y-78418847D01*
X136302693Y-78418847D02*
X136302693Y-78656942D01*
X136302693Y-78656942D02*
X136255074Y-78752180D01*
X136255074Y-78752180D02*
X136207455Y-78799800D01*
X136207455Y-78799800D02*
X136112217Y-78847419D01*
X136112217Y-78847419D02*
X135826503Y-78847419D01*
X135826503Y-78847419D02*
X135731265Y-78799800D01*
X135731265Y-78799800D02*
X135683646Y-78752180D01*
X136731265Y-78752180D02*
X136778884Y-78799800D01*
X136778884Y-78799800D02*
X136731265Y-78847419D01*
X136731265Y-78847419D02*
X136683646Y-78799800D01*
X136683646Y-78799800D02*
X136731265Y-78752180D01*
X136731265Y-78752180D02*
X136731265Y-78847419D01*
X137112217Y-77847419D02*
X137731264Y-77847419D01*
X137731264Y-77847419D02*
X137397931Y-78228371D01*
X137397931Y-78228371D02*
X137540788Y-78228371D01*
X137540788Y-78228371D02*
X137636026Y-78275990D01*
X137636026Y-78275990D02*
X137683645Y-78323609D01*
X137683645Y-78323609D02*
X137731264Y-78418847D01*
X137731264Y-78418847D02*
X137731264Y-78656942D01*
X137731264Y-78656942D02*
X137683645Y-78752180D01*
X137683645Y-78752180D02*
X137636026Y-78799800D01*
X137636026Y-78799800D02*
X137540788Y-78847419D01*
X137540788Y-78847419D02*
X137255074Y-78847419D01*
X137255074Y-78847419D02*
X137159836Y-78799800D01*
X137159836Y-78799800D02*
X137112217Y-78752180D01*
X138016979Y-77847419D02*
X138350312Y-78847419D01*
X138350312Y-78847419D02*
X138683645Y-77847419D01*
X127412693Y-126155038D02*
X127317455Y-126107419D01*
X127317455Y-126107419D02*
X127174598Y-126107419D01*
X127174598Y-126107419D02*
X127031741Y-126155038D01*
X127031741Y-126155038D02*
X126936503Y-126250276D01*
X126936503Y-126250276D02*
X126888884Y-126345514D01*
X126888884Y-126345514D02*
X126841265Y-126535990D01*
X126841265Y-126535990D02*
X126841265Y-126678847D01*
X126841265Y-126678847D02*
X126888884Y-126869323D01*
X126888884Y-126869323D02*
X126936503Y-126964561D01*
X126936503Y-126964561D02*
X127031741Y-127059800D01*
X127031741Y-127059800D02*
X127174598Y-127107419D01*
X127174598Y-127107419D02*
X127269836Y-127107419D01*
X127269836Y-127107419D02*
X127412693Y-127059800D01*
X127412693Y-127059800D02*
X127460312Y-127012180D01*
X127460312Y-127012180D02*
X127460312Y-126678847D01*
X127460312Y-126678847D02*
X127269836Y-126678847D01*
X127888884Y-127107419D02*
X127888884Y-126107419D01*
X127888884Y-126107419D02*
X128269836Y-126107419D01*
X128269836Y-126107419D02*
X128365074Y-126155038D01*
X128365074Y-126155038D02*
X128412693Y-126202657D01*
X128412693Y-126202657D02*
X128460312Y-126297895D01*
X128460312Y-126297895D02*
X128460312Y-126440752D01*
X128460312Y-126440752D02*
X128412693Y-126535990D01*
X128412693Y-126535990D02*
X128365074Y-126583609D01*
X128365074Y-126583609D02*
X128269836Y-126631228D01*
X128269836Y-126631228D02*
X127888884Y-126631228D01*
X128888884Y-127107419D02*
X128888884Y-126107419D01*
X129555550Y-126107419D02*
X129746026Y-126107419D01*
X129746026Y-126107419D02*
X129841264Y-126155038D01*
X129841264Y-126155038D02*
X129936502Y-126250276D01*
X129936502Y-126250276D02*
X129984121Y-126440752D01*
X129984121Y-126440752D02*
X129984121Y-126774085D01*
X129984121Y-126774085D02*
X129936502Y-126964561D01*
X129936502Y-126964561D02*
X129841264Y-127059800D01*
X129841264Y-127059800D02*
X129746026Y-127107419D01*
X129746026Y-127107419D02*
X129555550Y-127107419D01*
X129555550Y-127107419D02*
X129460312Y-127059800D01*
X129460312Y-127059800D02*
X129365074Y-126964561D01*
X129365074Y-126964561D02*
X129317455Y-126774085D01*
X129317455Y-126774085D02*
X129317455Y-126440752D01*
X129317455Y-126440752D02*
X129365074Y-126250276D01*
X129365074Y-126250276D02*
X129460312Y-126155038D01*
X129460312Y-126155038D02*
X129555550Y-126107419D01*
X127460312Y-122027419D02*
X127126979Y-121551228D01*
X126888884Y-122027419D02*
X126888884Y-121027419D01*
X126888884Y-121027419D02*
X127269836Y-121027419D01*
X127269836Y-121027419D02*
X127365074Y-121075038D01*
X127365074Y-121075038D02*
X127412693Y-121122657D01*
X127412693Y-121122657D02*
X127460312Y-121217895D01*
X127460312Y-121217895D02*
X127460312Y-121360752D01*
X127460312Y-121360752D02*
X127412693Y-121455990D01*
X127412693Y-121455990D02*
X127365074Y-121503609D01*
X127365074Y-121503609D02*
X127269836Y-121551228D01*
X127269836Y-121551228D02*
X126888884Y-121551228D01*
X127793646Y-121027419D02*
X128460312Y-122027419D01*
X128460312Y-121027419D02*
X127793646Y-122027419D01*
X128746027Y-121027419D02*
X129412693Y-121027419D01*
X129412693Y-121027419D02*
X128984122Y-122027419D01*
X126841265Y-114359800D02*
X126984122Y-114407419D01*
X126984122Y-114407419D02*
X127222217Y-114407419D01*
X127222217Y-114407419D02*
X127317455Y-114359800D01*
X127317455Y-114359800D02*
X127365074Y-114312180D01*
X127365074Y-114312180D02*
X127412693Y-114216942D01*
X127412693Y-114216942D02*
X127412693Y-114121704D01*
X127412693Y-114121704D02*
X127365074Y-114026466D01*
X127365074Y-114026466D02*
X127317455Y-113978847D01*
X127317455Y-113978847D02*
X127222217Y-113931228D01*
X127222217Y-113931228D02*
X127031741Y-113883609D01*
X127031741Y-113883609D02*
X126936503Y-113835990D01*
X126936503Y-113835990D02*
X126888884Y-113788371D01*
X126888884Y-113788371D02*
X126841265Y-113693133D01*
X126841265Y-113693133D02*
X126841265Y-113597895D01*
X126841265Y-113597895D02*
X126888884Y-113502657D01*
X126888884Y-113502657D02*
X126936503Y-113455038D01*
X126936503Y-113455038D02*
X127031741Y-113407419D01*
X127031741Y-113407419D02*
X127269836Y-113407419D01*
X127269836Y-113407419D02*
X127412693Y-113455038D01*
X127841265Y-114407419D02*
X127841265Y-113407419D01*
X127841265Y-113407419D02*
X128079360Y-113407419D01*
X128079360Y-113407419D02*
X128222217Y-113455038D01*
X128222217Y-113455038D02*
X128317455Y-113550276D01*
X128317455Y-113550276D02*
X128365074Y-113645514D01*
X128365074Y-113645514D02*
X128412693Y-113835990D01*
X128412693Y-113835990D02*
X128412693Y-113978847D01*
X128412693Y-113978847D02*
X128365074Y-114169323D01*
X128365074Y-114169323D02*
X128317455Y-114264561D01*
X128317455Y-114264561D02*
X128222217Y-114359800D01*
X128222217Y-114359800D02*
X128079360Y-114407419D01*
X128079360Y-114407419D02*
X127841265Y-114407419D01*
X128793646Y-114121704D02*
X129269836Y-114121704D01*
X128698408Y-114407419D02*
X129031741Y-113407419D01*
X129031741Y-113407419D02*
X129365074Y-114407419D01*
X129650789Y-113502657D02*
X129698408Y-113455038D01*
X129698408Y-113455038D02*
X129793646Y-113407419D01*
X129793646Y-113407419D02*
X130031741Y-113407419D01*
X130031741Y-113407419D02*
X130126979Y-113455038D01*
X130126979Y-113455038D02*
X130174598Y-113502657D01*
X130174598Y-113502657D02*
X130222217Y-113597895D01*
X130222217Y-113597895D02*
X130222217Y-113693133D01*
X130222217Y-113693133D02*
X130174598Y-113835990D01*
X130174598Y-113835990D02*
X129603170Y-114407419D01*
X129603170Y-114407419D02*
X130222217Y-114407419D01*
X126888884Y-89007419D02*
X126888884Y-88007419D01*
X126888884Y-88007419D02*
X127269836Y-88007419D01*
X127269836Y-88007419D02*
X127365074Y-88055038D01*
X127365074Y-88055038D02*
X127412693Y-88102657D01*
X127412693Y-88102657D02*
X127460312Y-88197895D01*
X127460312Y-88197895D02*
X127460312Y-88340752D01*
X127460312Y-88340752D02*
X127412693Y-88435990D01*
X127412693Y-88435990D02*
X127365074Y-88483609D01*
X127365074Y-88483609D02*
X127269836Y-88531228D01*
X127269836Y-88531228D02*
X126888884Y-88531228D01*
X127793646Y-88007419D02*
X128031741Y-89007419D01*
X128031741Y-89007419D02*
X128222217Y-88293133D01*
X128222217Y-88293133D02*
X128412693Y-89007419D01*
X128412693Y-89007419D02*
X128650789Y-88007419D01*
X129031741Y-89007419D02*
X129031741Y-88007419D01*
X129031741Y-88007419D02*
X129365074Y-88721704D01*
X129365074Y-88721704D02*
X129698407Y-88007419D01*
X129698407Y-88007419D02*
X129698407Y-89007419D01*
X135778884Y-81387419D02*
X135778884Y-80387419D01*
X135778884Y-80387419D02*
X136159836Y-80387419D01*
X136159836Y-80387419D02*
X136255074Y-80435038D01*
X136255074Y-80435038D02*
X136302693Y-80482657D01*
X136302693Y-80482657D02*
X136350312Y-80577895D01*
X136350312Y-80577895D02*
X136350312Y-80720752D01*
X136350312Y-80720752D02*
X136302693Y-80815990D01*
X136302693Y-80815990D02*
X136255074Y-80863609D01*
X136255074Y-80863609D02*
X136159836Y-80911228D01*
X136159836Y-80911228D02*
X135778884Y-80911228D01*
X136683646Y-80387419D02*
X136921741Y-81387419D01*
X136921741Y-81387419D02*
X137112217Y-80673133D01*
X137112217Y-80673133D02*
X137302693Y-81387419D01*
X137302693Y-81387419D02*
X137540789Y-80387419D01*
X137921741Y-81387419D02*
X137921741Y-80387419D01*
X137921741Y-80387419D02*
X138255074Y-81101704D01*
X138255074Y-81101704D02*
X138588407Y-80387419D01*
X138588407Y-80387419D02*
X138588407Y-81387419D01*
X127412693Y-72815038D02*
X127317455Y-72767419D01*
X127317455Y-72767419D02*
X127174598Y-72767419D01*
X127174598Y-72767419D02*
X127031741Y-72815038D01*
X127031741Y-72815038D02*
X126936503Y-72910276D01*
X126936503Y-72910276D02*
X126888884Y-73005514D01*
X126888884Y-73005514D02*
X126841265Y-73195990D01*
X126841265Y-73195990D02*
X126841265Y-73338847D01*
X126841265Y-73338847D02*
X126888884Y-73529323D01*
X126888884Y-73529323D02*
X126936503Y-73624561D01*
X126936503Y-73624561D02*
X127031741Y-73719800D01*
X127031741Y-73719800D02*
X127174598Y-73767419D01*
X127174598Y-73767419D02*
X127269836Y-73767419D01*
X127269836Y-73767419D02*
X127412693Y-73719800D01*
X127412693Y-73719800D02*
X127460312Y-73672180D01*
X127460312Y-73672180D02*
X127460312Y-73338847D01*
X127460312Y-73338847D02*
X127269836Y-73338847D01*
X127888884Y-73767419D02*
X127888884Y-72767419D01*
X127888884Y-72767419D02*
X128460312Y-73767419D01*
X128460312Y-73767419D02*
X128460312Y-72767419D01*
X128936503Y-73767419D02*
X128936503Y-72767419D01*
X128936503Y-72767419D02*
X129174598Y-72767419D01*
X129174598Y-72767419D02*
X129317455Y-72815038D01*
X129317455Y-72815038D02*
X129412693Y-72910276D01*
X129412693Y-72910276D02*
X129460312Y-73005514D01*
X129460312Y-73005514D02*
X129507931Y-73195990D01*
X129507931Y-73195990D02*
X129507931Y-73338847D01*
X129507931Y-73338847D02*
X129460312Y-73529323D01*
X129460312Y-73529323D02*
X129412693Y-73624561D01*
X129412693Y-73624561D02*
X129317455Y-73719800D01*
X129317455Y-73719800D02*
X129174598Y-73767419D01*
X129174598Y-73767419D02*
X128936503Y-73767419D01*
X135731265Y-98881704D02*
X136207455Y-98881704D01*
X135636027Y-99167419D02*
X135969360Y-98167419D01*
X135969360Y-98167419D02*
X136302693Y-99167419D01*
X136588408Y-98262657D02*
X136636027Y-98215038D01*
X136636027Y-98215038D02*
X136731265Y-98167419D01*
X136731265Y-98167419D02*
X136969360Y-98167419D01*
X136969360Y-98167419D02*
X137064598Y-98215038D01*
X137064598Y-98215038D02*
X137112217Y-98262657D01*
X137112217Y-98262657D02*
X137159836Y-98357895D01*
X137159836Y-98357895D02*
X137159836Y-98453133D01*
X137159836Y-98453133D02*
X137112217Y-98595990D01*
X137112217Y-98595990D02*
X136540789Y-99167419D01*
X136540789Y-99167419D02*
X137159836Y-99167419D01*
X127412693Y-131235038D02*
X127317455Y-131187419D01*
X127317455Y-131187419D02*
X127174598Y-131187419D01*
X127174598Y-131187419D02*
X127031741Y-131235038D01*
X127031741Y-131235038D02*
X126936503Y-131330276D01*
X126936503Y-131330276D02*
X126888884Y-131425514D01*
X126888884Y-131425514D02*
X126841265Y-131615990D01*
X126841265Y-131615990D02*
X126841265Y-131758847D01*
X126841265Y-131758847D02*
X126888884Y-131949323D01*
X126888884Y-131949323D02*
X126936503Y-132044561D01*
X126936503Y-132044561D02*
X127031741Y-132139800D01*
X127031741Y-132139800D02*
X127174598Y-132187419D01*
X127174598Y-132187419D02*
X127269836Y-132187419D01*
X127269836Y-132187419D02*
X127412693Y-132139800D01*
X127412693Y-132139800D02*
X127460312Y-132092180D01*
X127460312Y-132092180D02*
X127460312Y-131758847D01*
X127460312Y-131758847D02*
X127269836Y-131758847D01*
X127888884Y-132187419D02*
X127888884Y-131187419D01*
X127888884Y-131187419D02*
X128269836Y-131187419D01*
X128269836Y-131187419D02*
X128365074Y-131235038D01*
X128365074Y-131235038D02*
X128412693Y-131282657D01*
X128412693Y-131282657D02*
X128460312Y-131377895D01*
X128460312Y-131377895D02*
X128460312Y-131520752D01*
X128460312Y-131520752D02*
X128412693Y-131615990D01*
X128412693Y-131615990D02*
X128365074Y-131663609D01*
X128365074Y-131663609D02*
X128269836Y-131711228D01*
X128269836Y-131711228D02*
X127888884Y-131711228D01*
X128888884Y-132187419D02*
X128888884Y-131187419D01*
X129555550Y-131187419D02*
X129746026Y-131187419D01*
X129746026Y-131187419D02*
X129841264Y-131235038D01*
X129841264Y-131235038D02*
X129936502Y-131330276D01*
X129936502Y-131330276D02*
X129984121Y-131520752D01*
X129984121Y-131520752D02*
X129984121Y-131854085D01*
X129984121Y-131854085D02*
X129936502Y-132044561D01*
X129936502Y-132044561D02*
X129841264Y-132139800D01*
X129841264Y-132139800D02*
X129746026Y-132187419D01*
X129746026Y-132187419D02*
X129555550Y-132187419D01*
X129555550Y-132187419D02*
X129460312Y-132139800D01*
X129460312Y-132139800D02*
X129365074Y-132044561D01*
X129365074Y-132044561D02*
X129317455Y-131854085D01*
X129317455Y-131854085D02*
X129317455Y-131520752D01*
X129317455Y-131520752D02*
X129365074Y-131330276D01*
X129365074Y-131330276D02*
X129460312Y-131235038D01*
X129460312Y-131235038D02*
X129555550Y-131187419D01*
X136350312Y-86467419D02*
X136016979Y-85991228D01*
X135778884Y-86467419D02*
X135778884Y-85467419D01*
X135778884Y-85467419D02*
X136159836Y-85467419D01*
X136159836Y-85467419D02*
X136255074Y-85515038D01*
X136255074Y-85515038D02*
X136302693Y-85562657D01*
X136302693Y-85562657D02*
X136350312Y-85657895D01*
X136350312Y-85657895D02*
X136350312Y-85800752D01*
X136350312Y-85800752D02*
X136302693Y-85895990D01*
X136302693Y-85895990D02*
X136255074Y-85943609D01*
X136255074Y-85943609D02*
X136159836Y-85991228D01*
X136159836Y-85991228D02*
X135778884Y-85991228D01*
X136683646Y-85467419D02*
X137350312Y-86467419D01*
X137350312Y-85467419D02*
X136683646Y-86467419D01*
X138207455Y-85467419D02*
X137731265Y-85467419D01*
X137731265Y-85467419D02*
X137683646Y-85943609D01*
X137683646Y-85943609D02*
X137731265Y-85895990D01*
X137731265Y-85895990D02*
X137826503Y-85848371D01*
X137826503Y-85848371D02*
X138064598Y-85848371D01*
X138064598Y-85848371D02*
X138159836Y-85895990D01*
X138159836Y-85895990D02*
X138207455Y-85943609D01*
X138207455Y-85943609D02*
X138255074Y-86038847D01*
X138255074Y-86038847D02*
X138255074Y-86276942D01*
X138255074Y-86276942D02*
X138207455Y-86372180D01*
X138207455Y-86372180D02*
X138159836Y-86419800D01*
X138159836Y-86419800D02*
X138064598Y-86467419D01*
X138064598Y-86467419D02*
X137826503Y-86467419D01*
X137826503Y-86467419D02*
X137731265Y-86419800D01*
X137731265Y-86419800D02*
X137683646Y-86372180D01*
X126888884Y-91547419D02*
X126888884Y-90547419D01*
X126888884Y-90547419D02*
X127269836Y-90547419D01*
X127269836Y-90547419D02*
X127365074Y-90595038D01*
X127365074Y-90595038D02*
X127412693Y-90642657D01*
X127412693Y-90642657D02*
X127460312Y-90737895D01*
X127460312Y-90737895D02*
X127460312Y-90880752D01*
X127460312Y-90880752D02*
X127412693Y-90975990D01*
X127412693Y-90975990D02*
X127365074Y-91023609D01*
X127365074Y-91023609D02*
X127269836Y-91071228D01*
X127269836Y-91071228D02*
X126888884Y-91071228D01*
X127793646Y-90547419D02*
X128031741Y-91547419D01*
X128031741Y-91547419D02*
X128222217Y-90833133D01*
X128222217Y-90833133D02*
X128412693Y-91547419D01*
X128412693Y-91547419D02*
X128650789Y-90547419D01*
X129031741Y-91547419D02*
X129031741Y-90547419D01*
X129031741Y-90547419D02*
X129365074Y-91261704D01*
X129365074Y-91261704D02*
X129698407Y-90547419D01*
X129698407Y-90547419D02*
X129698407Y-91547419D01*
X132462580Y-123728884D02*
X133462580Y-123728884D01*
X133462580Y-123728884D02*
X132748295Y-124062217D01*
X132748295Y-124062217D02*
X133462580Y-124395550D01*
X133462580Y-124395550D02*
X132462580Y-124395550D01*
X132462580Y-124871741D02*
X133462580Y-124871741D01*
X132557819Y-125919359D02*
X132510200Y-125871740D01*
X132510200Y-125871740D02*
X132462580Y-125728883D01*
X132462580Y-125728883D02*
X132462580Y-125633645D01*
X132462580Y-125633645D02*
X132510200Y-125490788D01*
X132510200Y-125490788D02*
X132605438Y-125395550D01*
X132605438Y-125395550D02*
X132700676Y-125347931D01*
X132700676Y-125347931D02*
X132891152Y-125300312D01*
X132891152Y-125300312D02*
X133034009Y-125300312D01*
X133034009Y-125300312D02*
X133224485Y-125347931D01*
X133224485Y-125347931D02*
X133319723Y-125395550D01*
X133319723Y-125395550D02*
X133414961Y-125490788D01*
X133414961Y-125490788D02*
X133462580Y-125633645D01*
X133462580Y-125633645D02*
X133462580Y-125728883D01*
X133462580Y-125728883D02*
X133414961Y-125871740D01*
X133414961Y-125871740D02*
X133367342Y-125919359D01*
X132462580Y-126919359D02*
X132938771Y-126586026D01*
X132462580Y-126347931D02*
X133462580Y-126347931D01*
X133462580Y-126347931D02*
X133462580Y-126728883D01*
X133462580Y-126728883D02*
X133414961Y-126824121D01*
X133414961Y-126824121D02*
X133367342Y-126871740D01*
X133367342Y-126871740D02*
X133272104Y-126919359D01*
X133272104Y-126919359D02*
X133129247Y-126919359D01*
X133129247Y-126919359D02*
X133034009Y-126871740D01*
X133034009Y-126871740D02*
X132986390Y-126824121D01*
X132986390Y-126824121D02*
X132938771Y-126728883D01*
X132938771Y-126728883D02*
X132938771Y-126347931D01*
X133462580Y-127538407D02*
X133462580Y-127728883D01*
X133462580Y-127728883D02*
X133414961Y-127824121D01*
X133414961Y-127824121D02*
X133319723Y-127919359D01*
X133319723Y-127919359D02*
X133129247Y-127966978D01*
X133129247Y-127966978D02*
X132795914Y-127966978D01*
X132795914Y-127966978D02*
X132605438Y-127919359D01*
X132605438Y-127919359D02*
X132510200Y-127824121D01*
X132510200Y-127824121D02*
X132462580Y-127728883D01*
X132462580Y-127728883D02*
X132462580Y-127538407D01*
X132462580Y-127538407D02*
X132510200Y-127443169D01*
X132510200Y-127443169D02*
X132605438Y-127347931D01*
X132605438Y-127347931D02*
X132795914Y-127300312D01*
X132795914Y-127300312D02*
X133129247Y-127300312D01*
X133129247Y-127300312D02*
X133319723Y-127347931D01*
X133319723Y-127347931D02*
X133414961Y-127443169D01*
X133414961Y-127443169D02*
X133462580Y-127538407D01*
X132510200Y-129109836D02*
X132462580Y-129252693D01*
X132462580Y-129252693D02*
X132462580Y-129490788D01*
X132462580Y-129490788D02*
X132510200Y-129586026D01*
X132510200Y-129586026D02*
X132557819Y-129633645D01*
X132557819Y-129633645D02*
X132653057Y-129681264D01*
X132653057Y-129681264D02*
X132748295Y-129681264D01*
X132748295Y-129681264D02*
X132843533Y-129633645D01*
X132843533Y-129633645D02*
X132891152Y-129586026D01*
X132891152Y-129586026D02*
X132938771Y-129490788D01*
X132938771Y-129490788D02*
X132986390Y-129300312D01*
X132986390Y-129300312D02*
X133034009Y-129205074D01*
X133034009Y-129205074D02*
X133081628Y-129157455D01*
X133081628Y-129157455D02*
X133176866Y-129109836D01*
X133176866Y-129109836D02*
X133272104Y-129109836D01*
X133272104Y-129109836D02*
X133367342Y-129157455D01*
X133367342Y-129157455D02*
X133414961Y-129205074D01*
X133414961Y-129205074D02*
X133462580Y-129300312D01*
X133462580Y-129300312D02*
X133462580Y-129538407D01*
X133462580Y-129538407D02*
X133414961Y-129681264D01*
X132462580Y-130109836D02*
X133462580Y-130109836D01*
X133462580Y-130109836D02*
X133462580Y-130347931D01*
X133462580Y-130347931D02*
X133414961Y-130490788D01*
X133414961Y-130490788D02*
X133319723Y-130586026D01*
X133319723Y-130586026D02*
X133224485Y-130633645D01*
X133224485Y-130633645D02*
X133034009Y-130681264D01*
X133034009Y-130681264D02*
X132891152Y-130681264D01*
X132891152Y-130681264D02*
X132700676Y-130633645D01*
X132700676Y-130633645D02*
X132605438Y-130586026D01*
X132605438Y-130586026D02*
X132510200Y-130490788D01*
X132510200Y-130490788D02*
X132462580Y-130347931D01*
X132462580Y-130347931D02*
X132462580Y-130109836D01*
X126888884Y-106787419D02*
X126888884Y-105787419D01*
X126888884Y-105787419D02*
X127222217Y-106501704D01*
X127222217Y-106501704D02*
X127555550Y-105787419D01*
X127555550Y-105787419D02*
X127555550Y-106787419D01*
X128031741Y-106787419D02*
X128031741Y-105787419D01*
X128460312Y-106739800D02*
X128603169Y-106787419D01*
X128603169Y-106787419D02*
X128841264Y-106787419D01*
X128841264Y-106787419D02*
X128936502Y-106739800D01*
X128936502Y-106739800D02*
X128984121Y-106692180D01*
X128984121Y-106692180D02*
X129031740Y-106596942D01*
X129031740Y-106596942D02*
X129031740Y-106501704D01*
X129031740Y-106501704D02*
X128984121Y-106406466D01*
X128984121Y-106406466D02*
X128936502Y-106358847D01*
X128936502Y-106358847D02*
X128841264Y-106311228D01*
X128841264Y-106311228D02*
X128650788Y-106263609D01*
X128650788Y-106263609D02*
X128555550Y-106215990D01*
X128555550Y-106215990D02*
X128507931Y-106168371D01*
X128507931Y-106168371D02*
X128460312Y-106073133D01*
X128460312Y-106073133D02*
X128460312Y-105977895D01*
X128460312Y-105977895D02*
X128507931Y-105882657D01*
X128507931Y-105882657D02*
X128555550Y-105835038D01*
X128555550Y-105835038D02*
X128650788Y-105787419D01*
X128650788Y-105787419D02*
X128888883Y-105787419D01*
X128888883Y-105787419D02*
X129031740Y-105835038D01*
X129650788Y-105787419D02*
X129841264Y-105787419D01*
X129841264Y-105787419D02*
X129936502Y-105835038D01*
X129936502Y-105835038D02*
X130031740Y-105930276D01*
X130031740Y-105930276D02*
X130079359Y-106120752D01*
X130079359Y-106120752D02*
X130079359Y-106454085D01*
X130079359Y-106454085D02*
X130031740Y-106644561D01*
X130031740Y-106644561D02*
X129936502Y-106739800D01*
X129936502Y-106739800D02*
X129841264Y-106787419D01*
X129841264Y-106787419D02*
X129650788Y-106787419D01*
X129650788Y-106787419D02*
X129555550Y-106739800D01*
X129555550Y-106739800D02*
X129460312Y-106644561D01*
X129460312Y-106644561D02*
X129412693Y-106454085D01*
X129412693Y-106454085D02*
X129412693Y-106120752D01*
X129412693Y-106120752D02*
X129460312Y-105930276D01*
X129460312Y-105930276D02*
X129555550Y-105835038D01*
X129555550Y-105835038D02*
X129650788Y-105787419D01*
X127460312Y-76307419D02*
X127126979Y-75831228D01*
X126888884Y-76307419D02*
X126888884Y-75307419D01*
X126888884Y-75307419D02*
X127269836Y-75307419D01*
X127269836Y-75307419D02*
X127365074Y-75355038D01*
X127365074Y-75355038D02*
X127412693Y-75402657D01*
X127412693Y-75402657D02*
X127460312Y-75497895D01*
X127460312Y-75497895D02*
X127460312Y-75640752D01*
X127460312Y-75640752D02*
X127412693Y-75735990D01*
X127412693Y-75735990D02*
X127365074Y-75783609D01*
X127365074Y-75783609D02*
X127269836Y-75831228D01*
X127269836Y-75831228D02*
X126888884Y-75831228D01*
X127793646Y-75307419D02*
X128460312Y-76307419D01*
X128460312Y-75307419D02*
X127793646Y-76307419D01*
X129365074Y-76307419D02*
X128793646Y-76307419D01*
X129079360Y-76307419D02*
X129079360Y-75307419D01*
X129079360Y-75307419D02*
X128984122Y-75450276D01*
X128984122Y-75450276D02*
X128888884Y-75545514D01*
X128888884Y-75545514D02*
X128793646Y-75593133D01*
X126746027Y-77847419D02*
X127317455Y-77847419D01*
X127031741Y-78847419D02*
X127031741Y-77847419D01*
X127555551Y-77847419D02*
X128222217Y-78847419D01*
X128222217Y-77847419D02*
X127555551Y-78847419D01*
X129126979Y-78847419D02*
X128555551Y-78847419D01*
X128841265Y-78847419D02*
X128841265Y-77847419D01*
X128841265Y-77847419D02*
X128746027Y-77990276D01*
X128746027Y-77990276D02*
X128650789Y-78085514D01*
X128650789Y-78085514D02*
X128555551Y-78133133D01*
X126841265Y-119439800D02*
X126984122Y-119487419D01*
X126984122Y-119487419D02*
X127222217Y-119487419D01*
X127222217Y-119487419D02*
X127317455Y-119439800D01*
X127317455Y-119439800D02*
X127365074Y-119392180D01*
X127365074Y-119392180D02*
X127412693Y-119296942D01*
X127412693Y-119296942D02*
X127412693Y-119201704D01*
X127412693Y-119201704D02*
X127365074Y-119106466D01*
X127365074Y-119106466D02*
X127317455Y-119058847D01*
X127317455Y-119058847D02*
X127222217Y-119011228D01*
X127222217Y-119011228D02*
X127031741Y-118963609D01*
X127031741Y-118963609D02*
X126936503Y-118915990D01*
X126936503Y-118915990D02*
X126888884Y-118868371D01*
X126888884Y-118868371D02*
X126841265Y-118773133D01*
X126841265Y-118773133D02*
X126841265Y-118677895D01*
X126841265Y-118677895D02*
X126888884Y-118582657D01*
X126888884Y-118582657D02*
X126936503Y-118535038D01*
X126936503Y-118535038D02*
X127031741Y-118487419D01*
X127031741Y-118487419D02*
X127269836Y-118487419D01*
X127269836Y-118487419D02*
X127412693Y-118535038D01*
X128412693Y-119392180D02*
X128365074Y-119439800D01*
X128365074Y-119439800D02*
X128222217Y-119487419D01*
X128222217Y-119487419D02*
X128126979Y-119487419D01*
X128126979Y-119487419D02*
X127984122Y-119439800D01*
X127984122Y-119439800D02*
X127888884Y-119344561D01*
X127888884Y-119344561D02*
X127841265Y-119249323D01*
X127841265Y-119249323D02*
X127793646Y-119058847D01*
X127793646Y-119058847D02*
X127793646Y-118915990D01*
X127793646Y-118915990D02*
X127841265Y-118725514D01*
X127841265Y-118725514D02*
X127888884Y-118630276D01*
X127888884Y-118630276D02*
X127984122Y-118535038D01*
X127984122Y-118535038D02*
X128126979Y-118487419D01*
X128126979Y-118487419D02*
X128222217Y-118487419D01*
X128222217Y-118487419D02*
X128365074Y-118535038D01*
X128365074Y-118535038D02*
X128412693Y-118582657D01*
X128841265Y-119487419D02*
X128841265Y-118487419D01*
X129412693Y-119487419D02*
X128984122Y-118915990D01*
X129412693Y-118487419D02*
X128841265Y-119058847D01*
X130365074Y-119487419D02*
X129793646Y-119487419D01*
X130079360Y-119487419D02*
X130079360Y-118487419D01*
X130079360Y-118487419D02*
X129984122Y-118630276D01*
X129984122Y-118630276D02*
X129888884Y-118725514D01*
X129888884Y-118725514D02*
X129793646Y-118773133D01*
X126888884Y-81387419D02*
X126888884Y-80387419D01*
X126888884Y-80387419D02*
X127269836Y-80387419D01*
X127269836Y-80387419D02*
X127365074Y-80435038D01*
X127365074Y-80435038D02*
X127412693Y-80482657D01*
X127412693Y-80482657D02*
X127460312Y-80577895D01*
X127460312Y-80577895D02*
X127460312Y-80720752D01*
X127460312Y-80720752D02*
X127412693Y-80815990D01*
X127412693Y-80815990D02*
X127365074Y-80863609D01*
X127365074Y-80863609D02*
X127269836Y-80911228D01*
X127269836Y-80911228D02*
X126888884Y-80911228D01*
X127793646Y-80387419D02*
X128031741Y-81387419D01*
X128031741Y-81387419D02*
X128222217Y-80673133D01*
X128222217Y-80673133D02*
X128412693Y-81387419D01*
X128412693Y-81387419D02*
X128650789Y-80387419D01*
X129031741Y-81387419D02*
X129031741Y-80387419D01*
X129031741Y-80387419D02*
X129365074Y-81101704D01*
X129365074Y-81101704D02*
X129698407Y-80387419D01*
X129698407Y-80387419D02*
X129698407Y-81387419D01*
X135731265Y-103961704D02*
X136207455Y-103961704D01*
X135636027Y-104247419D02*
X135969360Y-103247419D01*
X135969360Y-103247419D02*
X136302693Y-104247419D01*
X136826503Y-103247419D02*
X136921741Y-103247419D01*
X136921741Y-103247419D02*
X137016979Y-103295038D01*
X137016979Y-103295038D02*
X137064598Y-103342657D01*
X137064598Y-103342657D02*
X137112217Y-103437895D01*
X137112217Y-103437895D02*
X137159836Y-103628371D01*
X137159836Y-103628371D02*
X137159836Y-103866466D01*
X137159836Y-103866466D02*
X137112217Y-104056942D01*
X137112217Y-104056942D02*
X137064598Y-104152180D01*
X137064598Y-104152180D02*
X137016979Y-104199800D01*
X137016979Y-104199800D02*
X136921741Y-104247419D01*
X136921741Y-104247419D02*
X136826503Y-104247419D01*
X136826503Y-104247419D02*
X136731265Y-104199800D01*
X136731265Y-104199800D02*
X136683646Y-104152180D01*
X136683646Y-104152180D02*
X136636027Y-104056942D01*
X136636027Y-104056942D02*
X136588408Y-103866466D01*
X136588408Y-103866466D02*
X136588408Y-103628371D01*
X136588408Y-103628371D02*
X136636027Y-103437895D01*
X136636027Y-103437895D02*
X136683646Y-103342657D01*
X136683646Y-103342657D02*
X136731265Y-103295038D01*
X136731265Y-103295038D02*
X136826503Y-103247419D01*
X135636027Y-88007419D02*
X136207455Y-88007419D01*
X135921741Y-89007419D02*
X135921741Y-88007419D01*
X136445551Y-88007419D02*
X137112217Y-89007419D01*
X137112217Y-88007419D02*
X136445551Y-89007419D01*
X137969360Y-88007419D02*
X137493170Y-88007419D01*
X137493170Y-88007419D02*
X137445551Y-88483609D01*
X137445551Y-88483609D02*
X137493170Y-88435990D01*
X137493170Y-88435990D02*
X137588408Y-88388371D01*
X137588408Y-88388371D02*
X137826503Y-88388371D01*
X137826503Y-88388371D02*
X137921741Y-88435990D01*
X137921741Y-88435990D02*
X137969360Y-88483609D01*
X137969360Y-88483609D02*
X138016979Y-88578847D01*
X138016979Y-88578847D02*
X138016979Y-88816942D01*
X138016979Y-88816942D02*
X137969360Y-88912180D01*
X137969360Y-88912180D02*
X137921741Y-88959800D01*
X137921741Y-88959800D02*
X137826503Y-89007419D01*
X137826503Y-89007419D02*
X137588408Y-89007419D01*
X137588408Y-89007419D02*
X137493170Y-88959800D01*
X137493170Y-88959800D02*
X137445551Y-88912180D01*
X126888884Y-104247419D02*
X126888884Y-103247419D01*
X126888884Y-103247419D02*
X127222217Y-103961704D01*
X127222217Y-103961704D02*
X127555550Y-103247419D01*
X127555550Y-103247419D02*
X127555550Y-104247419D01*
X128222217Y-103247419D02*
X128412693Y-103247419D01*
X128412693Y-103247419D02*
X128507931Y-103295038D01*
X128507931Y-103295038D02*
X128603169Y-103390276D01*
X128603169Y-103390276D02*
X128650788Y-103580752D01*
X128650788Y-103580752D02*
X128650788Y-103914085D01*
X128650788Y-103914085D02*
X128603169Y-104104561D01*
X128603169Y-104104561D02*
X128507931Y-104199800D01*
X128507931Y-104199800D02*
X128412693Y-104247419D01*
X128412693Y-104247419D02*
X128222217Y-104247419D01*
X128222217Y-104247419D02*
X128126979Y-104199800D01*
X128126979Y-104199800D02*
X128031741Y-104104561D01*
X128031741Y-104104561D02*
X127984122Y-103914085D01*
X127984122Y-103914085D02*
X127984122Y-103580752D01*
X127984122Y-103580752D02*
X128031741Y-103390276D01*
X128031741Y-103390276D02*
X128126979Y-103295038D01*
X128126979Y-103295038D02*
X128222217Y-103247419D01*
X129031741Y-104199800D02*
X129174598Y-104247419D01*
X129174598Y-104247419D02*
X129412693Y-104247419D01*
X129412693Y-104247419D02*
X129507931Y-104199800D01*
X129507931Y-104199800D02*
X129555550Y-104152180D01*
X129555550Y-104152180D02*
X129603169Y-104056942D01*
X129603169Y-104056942D02*
X129603169Y-103961704D01*
X129603169Y-103961704D02*
X129555550Y-103866466D01*
X129555550Y-103866466D02*
X129507931Y-103818847D01*
X129507931Y-103818847D02*
X129412693Y-103771228D01*
X129412693Y-103771228D02*
X129222217Y-103723609D01*
X129222217Y-103723609D02*
X129126979Y-103675990D01*
X129126979Y-103675990D02*
X129079360Y-103628371D01*
X129079360Y-103628371D02*
X129031741Y-103533133D01*
X129031741Y-103533133D02*
X129031741Y-103437895D01*
X129031741Y-103437895D02*
X129079360Y-103342657D01*
X129079360Y-103342657D02*
X129126979Y-103295038D01*
X129126979Y-103295038D02*
X129222217Y-103247419D01*
X129222217Y-103247419D02*
X129460312Y-103247419D01*
X129460312Y-103247419D02*
X129603169Y-103295038D01*
X130031741Y-104247419D02*
X130031741Y-103247419D01*
X135778884Y-124567419D02*
X135778884Y-123567419D01*
X135778884Y-123567419D02*
X136159836Y-123567419D01*
X136159836Y-123567419D02*
X136255074Y-123615038D01*
X136255074Y-123615038D02*
X136302693Y-123662657D01*
X136302693Y-123662657D02*
X136350312Y-123757895D01*
X136350312Y-123757895D02*
X136350312Y-123900752D01*
X136350312Y-123900752D02*
X136302693Y-123995990D01*
X136302693Y-123995990D02*
X136255074Y-124043609D01*
X136255074Y-124043609D02*
X136159836Y-124091228D01*
X136159836Y-124091228D02*
X135778884Y-124091228D01*
X136683646Y-123567419D02*
X136921741Y-124567419D01*
X136921741Y-124567419D02*
X137112217Y-123853133D01*
X137112217Y-123853133D02*
X137302693Y-124567419D01*
X137302693Y-124567419D02*
X137540789Y-123567419D01*
X137921741Y-124567419D02*
X137921741Y-123567419D01*
X137921741Y-123567419D02*
X138255074Y-124281704D01*
X138255074Y-124281704D02*
X138588407Y-123567419D01*
X138588407Y-123567419D02*
X138588407Y-124567419D01*
X135731265Y-96341704D02*
X136207455Y-96341704D01*
X135636027Y-96627419D02*
X135969360Y-95627419D01*
X135969360Y-95627419D02*
X136302693Y-96627419D01*
X136540789Y-95627419D02*
X137159836Y-95627419D01*
X137159836Y-95627419D02*
X136826503Y-96008371D01*
X136826503Y-96008371D02*
X136969360Y-96008371D01*
X136969360Y-96008371D02*
X137064598Y-96055990D01*
X137064598Y-96055990D02*
X137112217Y-96103609D01*
X137112217Y-96103609D02*
X137159836Y-96198847D01*
X137159836Y-96198847D02*
X137159836Y-96436942D01*
X137159836Y-96436942D02*
X137112217Y-96532180D01*
X137112217Y-96532180D02*
X137064598Y-96579800D01*
X137064598Y-96579800D02*
X136969360Y-96627419D01*
X136969360Y-96627419D02*
X136683646Y-96627419D01*
X136683646Y-96627419D02*
X136588408Y-96579800D01*
X136588408Y-96579800D02*
X136540789Y-96532180D01*
X135636027Y-126107419D02*
X136207455Y-126107419D01*
X135921741Y-127107419D02*
X135921741Y-126107419D01*
X136445551Y-126107419D02*
X137112217Y-127107419D01*
X137112217Y-126107419D02*
X136445551Y-127107419D01*
X137636027Y-126535990D02*
X137540789Y-126488371D01*
X137540789Y-126488371D02*
X137493170Y-126440752D01*
X137493170Y-126440752D02*
X137445551Y-126345514D01*
X137445551Y-126345514D02*
X137445551Y-126297895D01*
X137445551Y-126297895D02*
X137493170Y-126202657D01*
X137493170Y-126202657D02*
X137540789Y-126155038D01*
X137540789Y-126155038D02*
X137636027Y-126107419D01*
X137636027Y-126107419D02*
X137826503Y-126107419D01*
X137826503Y-126107419D02*
X137921741Y-126155038D01*
X137921741Y-126155038D02*
X137969360Y-126202657D01*
X137969360Y-126202657D02*
X138016979Y-126297895D01*
X138016979Y-126297895D02*
X138016979Y-126345514D01*
X138016979Y-126345514D02*
X137969360Y-126440752D01*
X137969360Y-126440752D02*
X137921741Y-126488371D01*
X137921741Y-126488371D02*
X137826503Y-126535990D01*
X137826503Y-126535990D02*
X137636027Y-126535990D01*
X137636027Y-126535990D02*
X137540789Y-126583609D01*
X137540789Y-126583609D02*
X137493170Y-126631228D01*
X137493170Y-126631228D02*
X137445551Y-126726466D01*
X137445551Y-126726466D02*
X137445551Y-126916942D01*
X137445551Y-126916942D02*
X137493170Y-127012180D01*
X137493170Y-127012180D02*
X137540789Y-127059800D01*
X137540789Y-127059800D02*
X137636027Y-127107419D01*
X137636027Y-127107419D02*
X137826503Y-127107419D01*
X137826503Y-127107419D02*
X137921741Y-127059800D01*
X137921741Y-127059800D02*
X137969360Y-127012180D01*
X137969360Y-127012180D02*
X138016979Y-126916942D01*
X138016979Y-126916942D02*
X138016979Y-126726466D01*
X138016979Y-126726466D02*
X137969360Y-126631228D01*
X137969360Y-126631228D02*
X137921741Y-126583609D01*
X137921741Y-126583609D02*
X137826503Y-126535990D01*
X135778884Y-83927419D02*
X135778884Y-82927419D01*
X135778884Y-82927419D02*
X136159836Y-82927419D01*
X136159836Y-82927419D02*
X136255074Y-82975038D01*
X136255074Y-82975038D02*
X136302693Y-83022657D01*
X136302693Y-83022657D02*
X136350312Y-83117895D01*
X136350312Y-83117895D02*
X136350312Y-83260752D01*
X136350312Y-83260752D02*
X136302693Y-83355990D01*
X136302693Y-83355990D02*
X136255074Y-83403609D01*
X136255074Y-83403609D02*
X136159836Y-83451228D01*
X136159836Y-83451228D02*
X135778884Y-83451228D01*
X136683646Y-82927419D02*
X136921741Y-83927419D01*
X136921741Y-83927419D02*
X137112217Y-83213133D01*
X137112217Y-83213133D02*
X137302693Y-83927419D01*
X137302693Y-83927419D02*
X137540789Y-82927419D01*
X137921741Y-83927419D02*
X137921741Y-82927419D01*
X137921741Y-82927419D02*
X138255074Y-83641704D01*
X138255074Y-83641704D02*
X138588407Y-82927419D01*
X138588407Y-82927419D02*
X138588407Y-83927419D01*
X126746027Y-123567419D02*
X127317455Y-123567419D01*
X127031741Y-124567419D02*
X127031741Y-123567419D01*
X127555551Y-123567419D02*
X128222217Y-124567419D01*
X128222217Y-123567419D02*
X127555551Y-124567419D01*
X128507932Y-123567419D02*
X129174598Y-123567419D01*
X129174598Y-123567419D02*
X128746027Y-124567419D01*
X136350312Y-119392180D02*
X136302693Y-119439800D01*
X136302693Y-119439800D02*
X136159836Y-119487419D01*
X136159836Y-119487419D02*
X136064598Y-119487419D01*
X136064598Y-119487419D02*
X135921741Y-119439800D01*
X135921741Y-119439800D02*
X135826503Y-119344561D01*
X135826503Y-119344561D02*
X135778884Y-119249323D01*
X135778884Y-119249323D02*
X135731265Y-119058847D01*
X135731265Y-119058847D02*
X135731265Y-118915990D01*
X135731265Y-118915990D02*
X135778884Y-118725514D01*
X135778884Y-118725514D02*
X135826503Y-118630276D01*
X135826503Y-118630276D02*
X135921741Y-118535038D01*
X135921741Y-118535038D02*
X136064598Y-118487419D01*
X136064598Y-118487419D02*
X136159836Y-118487419D01*
X136159836Y-118487419D02*
X136302693Y-118535038D01*
X136302693Y-118535038D02*
X136350312Y-118582657D01*
X136731265Y-119439800D02*
X136874122Y-119487419D01*
X136874122Y-119487419D02*
X137112217Y-119487419D01*
X137112217Y-119487419D02*
X137207455Y-119439800D01*
X137207455Y-119439800D02*
X137255074Y-119392180D01*
X137255074Y-119392180D02*
X137302693Y-119296942D01*
X137302693Y-119296942D02*
X137302693Y-119201704D01*
X137302693Y-119201704D02*
X137255074Y-119106466D01*
X137255074Y-119106466D02*
X137207455Y-119058847D01*
X137207455Y-119058847D02*
X137112217Y-119011228D01*
X137112217Y-119011228D02*
X136921741Y-118963609D01*
X136921741Y-118963609D02*
X136826503Y-118915990D01*
X136826503Y-118915990D02*
X136778884Y-118868371D01*
X136778884Y-118868371D02*
X136731265Y-118773133D01*
X136731265Y-118773133D02*
X136731265Y-118677895D01*
X136731265Y-118677895D02*
X136778884Y-118582657D01*
X136778884Y-118582657D02*
X136826503Y-118535038D01*
X136826503Y-118535038D02*
X136921741Y-118487419D01*
X136921741Y-118487419D02*
X137159836Y-118487419D01*
X137159836Y-118487419D02*
X137302693Y-118535038D01*
X138255074Y-119487419D02*
X137683646Y-119487419D01*
X137969360Y-119487419D02*
X137969360Y-118487419D01*
X137969360Y-118487419D02*
X137874122Y-118630276D01*
X137874122Y-118630276D02*
X137778884Y-118725514D01*
X137778884Y-118725514D02*
X137683646Y-118773133D01*
X135731265Y-91499800D02*
X135874122Y-91547419D01*
X135874122Y-91547419D02*
X136112217Y-91547419D01*
X136112217Y-91547419D02*
X136207455Y-91499800D01*
X136207455Y-91499800D02*
X136255074Y-91452180D01*
X136255074Y-91452180D02*
X136302693Y-91356942D01*
X136302693Y-91356942D02*
X136302693Y-91261704D01*
X136302693Y-91261704D02*
X136255074Y-91166466D01*
X136255074Y-91166466D02*
X136207455Y-91118847D01*
X136207455Y-91118847D02*
X136112217Y-91071228D01*
X136112217Y-91071228D02*
X135921741Y-91023609D01*
X135921741Y-91023609D02*
X135826503Y-90975990D01*
X135826503Y-90975990D02*
X135778884Y-90928371D01*
X135778884Y-90928371D02*
X135731265Y-90833133D01*
X135731265Y-90833133D02*
X135731265Y-90737895D01*
X135731265Y-90737895D02*
X135778884Y-90642657D01*
X135778884Y-90642657D02*
X135826503Y-90595038D01*
X135826503Y-90595038D02*
X135921741Y-90547419D01*
X135921741Y-90547419D02*
X136159836Y-90547419D01*
X136159836Y-90547419D02*
X136302693Y-90595038D01*
X137302693Y-91452180D02*
X137255074Y-91499800D01*
X137255074Y-91499800D02*
X137112217Y-91547419D01*
X137112217Y-91547419D02*
X137016979Y-91547419D01*
X137016979Y-91547419D02*
X136874122Y-91499800D01*
X136874122Y-91499800D02*
X136778884Y-91404561D01*
X136778884Y-91404561D02*
X136731265Y-91309323D01*
X136731265Y-91309323D02*
X136683646Y-91118847D01*
X136683646Y-91118847D02*
X136683646Y-90975990D01*
X136683646Y-90975990D02*
X136731265Y-90785514D01*
X136731265Y-90785514D02*
X136778884Y-90690276D01*
X136778884Y-90690276D02*
X136874122Y-90595038D01*
X136874122Y-90595038D02*
X137016979Y-90547419D01*
X137016979Y-90547419D02*
X137112217Y-90547419D01*
X137112217Y-90547419D02*
X137255074Y-90595038D01*
X137255074Y-90595038D02*
X137302693Y-90642657D01*
X138207455Y-91547419D02*
X137731265Y-91547419D01*
X137731265Y-91547419D02*
X137731265Y-90547419D01*
X135731265Y-114121704D02*
X136207455Y-114121704D01*
X135636027Y-114407419D02*
X135969360Y-113407419D01*
X135969360Y-113407419D02*
X136302693Y-114407419D01*
X137159836Y-114407419D02*
X136588408Y-114407419D01*
X136874122Y-114407419D02*
X136874122Y-113407419D01*
X136874122Y-113407419D02*
X136778884Y-113550276D01*
X136778884Y-113550276D02*
X136683646Y-113645514D01*
X136683646Y-113645514D02*
X136588408Y-113693133D01*
X138016979Y-113407419D02*
X137826503Y-113407419D01*
X137826503Y-113407419D02*
X137731265Y-113455038D01*
X137731265Y-113455038D02*
X137683646Y-113502657D01*
X137683646Y-113502657D02*
X137588408Y-113645514D01*
X137588408Y-113645514D02*
X137540789Y-113835990D01*
X137540789Y-113835990D02*
X137540789Y-114216942D01*
X137540789Y-114216942D02*
X137588408Y-114312180D01*
X137588408Y-114312180D02*
X137636027Y-114359800D01*
X137636027Y-114359800D02*
X137731265Y-114407419D01*
X137731265Y-114407419D02*
X137921741Y-114407419D01*
X137921741Y-114407419D02*
X138016979Y-114359800D01*
X138016979Y-114359800D02*
X138064598Y-114312180D01*
X138064598Y-114312180D02*
X138112217Y-114216942D01*
X138112217Y-114216942D02*
X138112217Y-113978847D01*
X138112217Y-113978847D02*
X138064598Y-113883609D01*
X138064598Y-113883609D02*
X138016979Y-113835990D01*
X138016979Y-113835990D02*
X137921741Y-113788371D01*
X137921741Y-113788371D02*
X137731265Y-113788371D01*
X137731265Y-113788371D02*
X137636027Y-113835990D01*
X137636027Y-113835990D02*
X137588408Y-113883609D01*
X137588408Y-113883609D02*
X137540789Y-113978847D01*
X126746027Y-95627419D02*
X127317455Y-95627419D01*
X127031741Y-96627419D02*
X127031741Y-95627419D01*
X127555551Y-95627419D02*
X128222217Y-96627419D01*
X128222217Y-95627419D02*
X127555551Y-96627419D01*
X128555551Y-95722657D02*
X128603170Y-95675038D01*
X128603170Y-95675038D02*
X128698408Y-95627419D01*
X128698408Y-95627419D02*
X128936503Y-95627419D01*
X128936503Y-95627419D02*
X129031741Y-95675038D01*
X129031741Y-95675038D02*
X129079360Y-95722657D01*
X129079360Y-95722657D02*
X129126979Y-95817895D01*
X129126979Y-95817895D02*
X129126979Y-95913133D01*
X129126979Y-95913133D02*
X129079360Y-96055990D01*
X129079360Y-96055990D02*
X128507932Y-96627419D01*
X128507932Y-96627419D02*
X129126979Y-96627419D01*
X127460312Y-101612180D02*
X127412693Y-101659800D01*
X127412693Y-101659800D02*
X127269836Y-101707419D01*
X127269836Y-101707419D02*
X127174598Y-101707419D01*
X127174598Y-101707419D02*
X127031741Y-101659800D01*
X127031741Y-101659800D02*
X126936503Y-101564561D01*
X126936503Y-101564561D02*
X126888884Y-101469323D01*
X126888884Y-101469323D02*
X126841265Y-101278847D01*
X126841265Y-101278847D02*
X126841265Y-101135990D01*
X126841265Y-101135990D02*
X126888884Y-100945514D01*
X126888884Y-100945514D02*
X126936503Y-100850276D01*
X126936503Y-100850276D02*
X127031741Y-100755038D01*
X127031741Y-100755038D02*
X127174598Y-100707419D01*
X127174598Y-100707419D02*
X127269836Y-100707419D01*
X127269836Y-100707419D02*
X127412693Y-100755038D01*
X127412693Y-100755038D02*
X127460312Y-100802657D01*
X127841265Y-101659800D02*
X127984122Y-101707419D01*
X127984122Y-101707419D02*
X128222217Y-101707419D01*
X128222217Y-101707419D02*
X128317455Y-101659800D01*
X128317455Y-101659800D02*
X128365074Y-101612180D01*
X128365074Y-101612180D02*
X128412693Y-101516942D01*
X128412693Y-101516942D02*
X128412693Y-101421704D01*
X128412693Y-101421704D02*
X128365074Y-101326466D01*
X128365074Y-101326466D02*
X128317455Y-101278847D01*
X128317455Y-101278847D02*
X128222217Y-101231228D01*
X128222217Y-101231228D02*
X128031741Y-101183609D01*
X128031741Y-101183609D02*
X127936503Y-101135990D01*
X127936503Y-101135990D02*
X127888884Y-101088371D01*
X127888884Y-101088371D02*
X127841265Y-100993133D01*
X127841265Y-100993133D02*
X127841265Y-100897895D01*
X127841265Y-100897895D02*
X127888884Y-100802657D01*
X127888884Y-100802657D02*
X127936503Y-100755038D01*
X127936503Y-100755038D02*
X128031741Y-100707419D01*
X128031741Y-100707419D02*
X128269836Y-100707419D01*
X128269836Y-100707419D02*
X128412693Y-100755038D01*
X136302693Y-75355038D02*
X136207455Y-75307419D01*
X136207455Y-75307419D02*
X136064598Y-75307419D01*
X136064598Y-75307419D02*
X135921741Y-75355038D01*
X135921741Y-75355038D02*
X135826503Y-75450276D01*
X135826503Y-75450276D02*
X135778884Y-75545514D01*
X135778884Y-75545514D02*
X135731265Y-75735990D01*
X135731265Y-75735990D02*
X135731265Y-75878847D01*
X135731265Y-75878847D02*
X135778884Y-76069323D01*
X135778884Y-76069323D02*
X135826503Y-76164561D01*
X135826503Y-76164561D02*
X135921741Y-76259800D01*
X135921741Y-76259800D02*
X136064598Y-76307419D01*
X136064598Y-76307419D02*
X136159836Y-76307419D01*
X136159836Y-76307419D02*
X136302693Y-76259800D01*
X136302693Y-76259800D02*
X136350312Y-76212180D01*
X136350312Y-76212180D02*
X136350312Y-75878847D01*
X136350312Y-75878847D02*
X136159836Y-75878847D01*
X136778884Y-76307419D02*
X136778884Y-75307419D01*
X136778884Y-75307419D02*
X137350312Y-76307419D01*
X137350312Y-76307419D02*
X137350312Y-75307419D01*
X137826503Y-76307419D02*
X137826503Y-75307419D01*
X137826503Y-75307419D02*
X138064598Y-75307419D01*
X138064598Y-75307419D02*
X138207455Y-75355038D01*
X138207455Y-75355038D02*
X138302693Y-75450276D01*
X138302693Y-75450276D02*
X138350312Y-75545514D01*
X138350312Y-75545514D02*
X138397931Y-75735990D01*
X138397931Y-75735990D02*
X138397931Y-75878847D01*
X138397931Y-75878847D02*
X138350312Y-76069323D01*
X138350312Y-76069323D02*
X138302693Y-76164561D01*
X138302693Y-76164561D02*
X138207455Y-76259800D01*
X138207455Y-76259800D02*
X138064598Y-76307419D01*
X138064598Y-76307419D02*
X137826503Y-76307419D01*
X127460312Y-94087419D02*
X127126979Y-93611228D01*
X126888884Y-94087419D02*
X126888884Y-93087419D01*
X126888884Y-93087419D02*
X127269836Y-93087419D01*
X127269836Y-93087419D02*
X127365074Y-93135038D01*
X127365074Y-93135038D02*
X127412693Y-93182657D01*
X127412693Y-93182657D02*
X127460312Y-93277895D01*
X127460312Y-93277895D02*
X127460312Y-93420752D01*
X127460312Y-93420752D02*
X127412693Y-93515990D01*
X127412693Y-93515990D02*
X127365074Y-93563609D01*
X127365074Y-93563609D02*
X127269836Y-93611228D01*
X127269836Y-93611228D02*
X126888884Y-93611228D01*
X127793646Y-93087419D02*
X128460312Y-94087419D01*
X128460312Y-93087419D02*
X127793646Y-94087419D01*
X128793646Y-93182657D02*
X128841265Y-93135038D01*
X128841265Y-93135038D02*
X128936503Y-93087419D01*
X128936503Y-93087419D02*
X129174598Y-93087419D01*
X129174598Y-93087419D02*
X129269836Y-93135038D01*
X129269836Y-93135038D02*
X129317455Y-93182657D01*
X129317455Y-93182657D02*
X129365074Y-93277895D01*
X129365074Y-93277895D02*
X129365074Y-93373133D01*
X129365074Y-93373133D02*
X129317455Y-93515990D01*
X129317455Y-93515990D02*
X128746027Y-94087419D01*
X128746027Y-94087419D02*
X129365074Y-94087419D01*
X135778884Y-132187419D02*
X135778884Y-131187419D01*
X135778884Y-131187419D02*
X136159836Y-131187419D01*
X136159836Y-131187419D02*
X136255074Y-131235038D01*
X136255074Y-131235038D02*
X136302693Y-131282657D01*
X136302693Y-131282657D02*
X136350312Y-131377895D01*
X136350312Y-131377895D02*
X136350312Y-131520752D01*
X136350312Y-131520752D02*
X136302693Y-131615990D01*
X136302693Y-131615990D02*
X136255074Y-131663609D01*
X136255074Y-131663609D02*
X136159836Y-131711228D01*
X136159836Y-131711228D02*
X135778884Y-131711228D01*
X136683646Y-131187419D02*
X136921741Y-132187419D01*
X136921741Y-132187419D02*
X137112217Y-131473133D01*
X137112217Y-131473133D02*
X137302693Y-132187419D01*
X137302693Y-132187419D02*
X137540789Y-131187419D01*
X137921741Y-132187419D02*
X137921741Y-131187419D01*
X137921741Y-131187419D02*
X138255074Y-131901704D01*
X138255074Y-131901704D02*
X138588407Y-131187419D01*
X138588407Y-131187419D02*
X138588407Y-132187419D01*
X133262580Y-72938884D02*
X132453057Y-72938884D01*
X132453057Y-72938884D02*
X132357819Y-72986503D01*
X132357819Y-72986503D02*
X132310200Y-73034122D01*
X132310200Y-73034122D02*
X132262580Y-73129360D01*
X132262580Y-73129360D02*
X132262580Y-73319836D01*
X132262580Y-73319836D02*
X132310200Y-73415074D01*
X132310200Y-73415074D02*
X132357819Y-73462693D01*
X132357819Y-73462693D02*
X132453057Y-73510312D01*
X132453057Y-73510312D02*
X133262580Y-73510312D01*
X132310200Y-73938884D02*
X132262580Y-74081741D01*
X132262580Y-74081741D02*
X132262580Y-74319836D01*
X132262580Y-74319836D02*
X132310200Y-74415074D01*
X132310200Y-74415074D02*
X132357819Y-74462693D01*
X132357819Y-74462693D02*
X132453057Y-74510312D01*
X132453057Y-74510312D02*
X132548295Y-74510312D01*
X132548295Y-74510312D02*
X132643533Y-74462693D01*
X132643533Y-74462693D02*
X132691152Y-74415074D01*
X132691152Y-74415074D02*
X132738771Y-74319836D01*
X132738771Y-74319836D02*
X132786390Y-74129360D01*
X132786390Y-74129360D02*
X132834009Y-74034122D01*
X132834009Y-74034122D02*
X132881628Y-73986503D01*
X132881628Y-73986503D02*
X132976866Y-73938884D01*
X132976866Y-73938884D02*
X133072104Y-73938884D01*
X133072104Y-73938884D02*
X133167342Y-73986503D01*
X133167342Y-73986503D02*
X133214961Y-74034122D01*
X133214961Y-74034122D02*
X133262580Y-74129360D01*
X133262580Y-74129360D02*
X133262580Y-74367455D01*
X133262580Y-74367455D02*
X133214961Y-74510312D01*
X132786390Y-75272217D02*
X132738771Y-75415074D01*
X132738771Y-75415074D02*
X132691152Y-75462693D01*
X132691152Y-75462693D02*
X132595914Y-75510312D01*
X132595914Y-75510312D02*
X132453057Y-75510312D01*
X132453057Y-75510312D02*
X132357819Y-75462693D01*
X132357819Y-75462693D02*
X132310200Y-75415074D01*
X132310200Y-75415074D02*
X132262580Y-75319836D01*
X132262580Y-75319836D02*
X132262580Y-74938884D01*
X132262580Y-74938884D02*
X133262580Y-74938884D01*
X133262580Y-74938884D02*
X133262580Y-75272217D01*
X133262580Y-75272217D02*
X133214961Y-75367455D01*
X133214961Y-75367455D02*
X133167342Y-75415074D01*
X133167342Y-75415074D02*
X133072104Y-75462693D01*
X133072104Y-75462693D02*
X132976866Y-75462693D01*
X132976866Y-75462693D02*
X132881628Y-75415074D01*
X132881628Y-75415074D02*
X132834009Y-75367455D01*
X132834009Y-75367455D02*
X132786390Y-75272217D01*
X132786390Y-75272217D02*
X132786390Y-74938884D01*
X132357819Y-77272217D02*
X132310200Y-77224598D01*
X132310200Y-77224598D02*
X132262580Y-77081741D01*
X132262580Y-77081741D02*
X132262580Y-76986503D01*
X132262580Y-76986503D02*
X132310200Y-76843646D01*
X132310200Y-76843646D02*
X132405438Y-76748408D01*
X132405438Y-76748408D02*
X132500676Y-76700789D01*
X132500676Y-76700789D02*
X132691152Y-76653170D01*
X132691152Y-76653170D02*
X132834009Y-76653170D01*
X132834009Y-76653170D02*
X133024485Y-76700789D01*
X133024485Y-76700789D02*
X133119723Y-76748408D01*
X133119723Y-76748408D02*
X133214961Y-76843646D01*
X133214961Y-76843646D02*
X133262580Y-76986503D01*
X133262580Y-76986503D02*
X133262580Y-77081741D01*
X133262580Y-77081741D02*
X133214961Y-77224598D01*
X133214961Y-77224598D02*
X133167342Y-77272217D01*
X135731265Y-101421704D02*
X136207455Y-101421704D01*
X135636027Y-101707419D02*
X135969360Y-100707419D01*
X135969360Y-100707419D02*
X136302693Y-101707419D01*
X137159836Y-101707419D02*
X136588408Y-101707419D01*
X136874122Y-101707419D02*
X136874122Y-100707419D01*
X136874122Y-100707419D02*
X136778884Y-100850276D01*
X136778884Y-100850276D02*
X136683646Y-100945514D01*
X136683646Y-100945514D02*
X136588408Y-100993133D01*
X135731265Y-111581704D02*
X136207455Y-111581704D01*
X135636027Y-111867419D02*
X135969360Y-110867419D01*
X135969360Y-110867419D02*
X136302693Y-111867419D01*
X137159836Y-111867419D02*
X136588408Y-111867419D01*
X136874122Y-111867419D02*
X136874122Y-110867419D01*
X136874122Y-110867419D02*
X136778884Y-111010276D01*
X136778884Y-111010276D02*
X136683646Y-111105514D01*
X136683646Y-111105514D02*
X136588408Y-111153133D01*
X137493170Y-110867419D02*
X138159836Y-110867419D01*
X138159836Y-110867419D02*
X137731265Y-111867419D01*
X126793646Y-108327419D02*
X127412693Y-108327419D01*
X127412693Y-108327419D02*
X127079360Y-108708371D01*
X127079360Y-108708371D02*
X127222217Y-108708371D01*
X127222217Y-108708371D02*
X127317455Y-108755990D01*
X127317455Y-108755990D02*
X127365074Y-108803609D01*
X127365074Y-108803609D02*
X127412693Y-108898847D01*
X127412693Y-108898847D02*
X127412693Y-109136942D01*
X127412693Y-109136942D02*
X127365074Y-109232180D01*
X127365074Y-109232180D02*
X127317455Y-109279800D01*
X127317455Y-109279800D02*
X127222217Y-109327419D01*
X127222217Y-109327419D02*
X126936503Y-109327419D01*
X126936503Y-109327419D02*
X126841265Y-109279800D01*
X126841265Y-109279800D02*
X126793646Y-109232180D01*
X127841265Y-109232180D02*
X127888884Y-109279800D01*
X127888884Y-109279800D02*
X127841265Y-109327419D01*
X127841265Y-109327419D02*
X127793646Y-109279800D01*
X127793646Y-109279800D02*
X127841265Y-109232180D01*
X127841265Y-109232180D02*
X127841265Y-109327419D01*
X128222217Y-108327419D02*
X128841264Y-108327419D01*
X128841264Y-108327419D02*
X128507931Y-108708371D01*
X128507931Y-108708371D02*
X128650788Y-108708371D01*
X128650788Y-108708371D02*
X128746026Y-108755990D01*
X128746026Y-108755990D02*
X128793645Y-108803609D01*
X128793645Y-108803609D02*
X128841264Y-108898847D01*
X128841264Y-108898847D02*
X128841264Y-109136942D01*
X128841264Y-109136942D02*
X128793645Y-109232180D01*
X128793645Y-109232180D02*
X128746026Y-109279800D01*
X128746026Y-109279800D02*
X128650788Y-109327419D01*
X128650788Y-109327419D02*
X128365074Y-109327419D01*
X128365074Y-109327419D02*
X128269836Y-109279800D01*
X128269836Y-109279800D02*
X128222217Y-109232180D01*
X129126979Y-108327419D02*
X129460312Y-109327419D01*
X129460312Y-109327419D02*
X129793645Y-108327419D01*
X135636027Y-72767419D02*
X135969360Y-73767419D01*
X135969360Y-73767419D02*
X136302693Y-72767419D01*
X136636027Y-73767419D02*
X136636027Y-73100752D01*
X136636027Y-72767419D02*
X136588408Y-72815038D01*
X136588408Y-72815038D02*
X136636027Y-72862657D01*
X136636027Y-72862657D02*
X136683646Y-72815038D01*
X136683646Y-72815038D02*
X136636027Y-72767419D01*
X136636027Y-72767419D02*
X136636027Y-72862657D01*
X137112217Y-73100752D02*
X137112217Y-73767419D01*
X137112217Y-73195990D02*
X137159836Y-73148371D01*
X137159836Y-73148371D02*
X137255074Y-73100752D01*
X137255074Y-73100752D02*
X137397931Y-73100752D01*
X137397931Y-73100752D02*
X137493169Y-73148371D01*
X137493169Y-73148371D02*
X137540788Y-73243609D01*
X137540788Y-73243609D02*
X137540788Y-73767419D01*
X126841265Y-111819800D02*
X126984122Y-111867419D01*
X126984122Y-111867419D02*
X127222217Y-111867419D01*
X127222217Y-111867419D02*
X127317455Y-111819800D01*
X127317455Y-111819800D02*
X127365074Y-111772180D01*
X127365074Y-111772180D02*
X127412693Y-111676942D01*
X127412693Y-111676942D02*
X127412693Y-111581704D01*
X127412693Y-111581704D02*
X127365074Y-111486466D01*
X127365074Y-111486466D02*
X127317455Y-111438847D01*
X127317455Y-111438847D02*
X127222217Y-111391228D01*
X127222217Y-111391228D02*
X127031741Y-111343609D01*
X127031741Y-111343609D02*
X126936503Y-111295990D01*
X126936503Y-111295990D02*
X126888884Y-111248371D01*
X126888884Y-111248371D02*
X126841265Y-111153133D01*
X126841265Y-111153133D02*
X126841265Y-111057895D01*
X126841265Y-111057895D02*
X126888884Y-110962657D01*
X126888884Y-110962657D02*
X126936503Y-110915038D01*
X126936503Y-110915038D02*
X127031741Y-110867419D01*
X127031741Y-110867419D02*
X127269836Y-110867419D01*
X127269836Y-110867419D02*
X127412693Y-110915038D01*
X128412693Y-111772180D02*
X128365074Y-111819800D01*
X128365074Y-111819800D02*
X128222217Y-111867419D01*
X128222217Y-111867419D02*
X128126979Y-111867419D01*
X128126979Y-111867419D02*
X127984122Y-111819800D01*
X127984122Y-111819800D02*
X127888884Y-111724561D01*
X127888884Y-111724561D02*
X127841265Y-111629323D01*
X127841265Y-111629323D02*
X127793646Y-111438847D01*
X127793646Y-111438847D02*
X127793646Y-111295990D01*
X127793646Y-111295990D02*
X127841265Y-111105514D01*
X127841265Y-111105514D02*
X127888884Y-111010276D01*
X127888884Y-111010276D02*
X127984122Y-110915038D01*
X127984122Y-110915038D02*
X128126979Y-110867419D01*
X128126979Y-110867419D02*
X128222217Y-110867419D01*
X128222217Y-110867419D02*
X128365074Y-110915038D01*
X128365074Y-110915038D02*
X128412693Y-110962657D01*
X129317455Y-111867419D02*
X128841265Y-111867419D01*
X128841265Y-111867419D02*
X128841265Y-110867419D01*
X129603170Y-110962657D02*
X129650789Y-110915038D01*
X129650789Y-110915038D02*
X129746027Y-110867419D01*
X129746027Y-110867419D02*
X129984122Y-110867419D01*
X129984122Y-110867419D02*
X130079360Y-110915038D01*
X130079360Y-110915038D02*
X130126979Y-110962657D01*
X130126979Y-110962657D02*
X130174598Y-111057895D01*
X130174598Y-111057895D02*
X130174598Y-111153133D01*
X130174598Y-111153133D02*
X130126979Y-111295990D01*
X130126979Y-111295990D02*
X129555551Y-111867419D01*
X129555551Y-111867419D02*
X130174598Y-111867419D01*
X127412693Y-128695038D02*
X127317455Y-128647419D01*
X127317455Y-128647419D02*
X127174598Y-128647419D01*
X127174598Y-128647419D02*
X127031741Y-128695038D01*
X127031741Y-128695038D02*
X126936503Y-128790276D01*
X126936503Y-128790276D02*
X126888884Y-128885514D01*
X126888884Y-128885514D02*
X126841265Y-129075990D01*
X126841265Y-129075990D02*
X126841265Y-129218847D01*
X126841265Y-129218847D02*
X126888884Y-129409323D01*
X126888884Y-129409323D02*
X126936503Y-129504561D01*
X126936503Y-129504561D02*
X127031741Y-129599800D01*
X127031741Y-129599800D02*
X127174598Y-129647419D01*
X127174598Y-129647419D02*
X127269836Y-129647419D01*
X127269836Y-129647419D02*
X127412693Y-129599800D01*
X127412693Y-129599800D02*
X127460312Y-129552180D01*
X127460312Y-129552180D02*
X127460312Y-129218847D01*
X127460312Y-129218847D02*
X127269836Y-129218847D01*
X127888884Y-129647419D02*
X127888884Y-128647419D01*
X127888884Y-128647419D02*
X128269836Y-128647419D01*
X128269836Y-128647419D02*
X128365074Y-128695038D01*
X128365074Y-128695038D02*
X128412693Y-128742657D01*
X128412693Y-128742657D02*
X128460312Y-128837895D01*
X128460312Y-128837895D02*
X128460312Y-128980752D01*
X128460312Y-128980752D02*
X128412693Y-129075990D01*
X128412693Y-129075990D02*
X128365074Y-129123609D01*
X128365074Y-129123609D02*
X128269836Y-129171228D01*
X128269836Y-129171228D02*
X127888884Y-129171228D01*
X128888884Y-129647419D02*
X128888884Y-128647419D01*
X129555550Y-128647419D02*
X129746026Y-128647419D01*
X129746026Y-128647419D02*
X129841264Y-128695038D01*
X129841264Y-128695038D02*
X129936502Y-128790276D01*
X129936502Y-128790276D02*
X129984121Y-128980752D01*
X129984121Y-128980752D02*
X129984121Y-129314085D01*
X129984121Y-129314085D02*
X129936502Y-129504561D01*
X129936502Y-129504561D02*
X129841264Y-129599800D01*
X129841264Y-129599800D02*
X129746026Y-129647419D01*
X129746026Y-129647419D02*
X129555550Y-129647419D01*
X129555550Y-129647419D02*
X129460312Y-129599800D01*
X129460312Y-129599800D02*
X129365074Y-129504561D01*
X129365074Y-129504561D02*
X129317455Y-129314085D01*
X129317455Y-129314085D02*
X129317455Y-128980752D01*
X129317455Y-128980752D02*
X129365074Y-128790276D01*
X129365074Y-128790276D02*
X129460312Y-128695038D01*
X129460312Y-128695038D02*
X129555550Y-128647419D01*
X126888884Y-116947419D02*
X126888884Y-115947419D01*
X126888884Y-115947419D02*
X127222217Y-116661704D01*
X127222217Y-116661704D02*
X127555550Y-115947419D01*
X127555550Y-115947419D02*
X127555550Y-116947419D01*
X128222217Y-115947419D02*
X128412693Y-115947419D01*
X128412693Y-115947419D02*
X128507931Y-115995038D01*
X128507931Y-115995038D02*
X128603169Y-116090276D01*
X128603169Y-116090276D02*
X128650788Y-116280752D01*
X128650788Y-116280752D02*
X128650788Y-116614085D01*
X128650788Y-116614085D02*
X128603169Y-116804561D01*
X128603169Y-116804561D02*
X128507931Y-116899800D01*
X128507931Y-116899800D02*
X128412693Y-116947419D01*
X128412693Y-116947419D02*
X128222217Y-116947419D01*
X128222217Y-116947419D02*
X128126979Y-116899800D01*
X128126979Y-116899800D02*
X128031741Y-116804561D01*
X128031741Y-116804561D02*
X127984122Y-116614085D01*
X127984122Y-116614085D02*
X127984122Y-116280752D01*
X127984122Y-116280752D02*
X128031741Y-116090276D01*
X128031741Y-116090276D02*
X128126979Y-115995038D01*
X128126979Y-115995038D02*
X128222217Y-115947419D01*
X129031741Y-116899800D02*
X129174598Y-116947419D01*
X129174598Y-116947419D02*
X129412693Y-116947419D01*
X129412693Y-116947419D02*
X129507931Y-116899800D01*
X129507931Y-116899800D02*
X129555550Y-116852180D01*
X129555550Y-116852180D02*
X129603169Y-116756942D01*
X129603169Y-116756942D02*
X129603169Y-116661704D01*
X129603169Y-116661704D02*
X129555550Y-116566466D01*
X129555550Y-116566466D02*
X129507931Y-116518847D01*
X129507931Y-116518847D02*
X129412693Y-116471228D01*
X129412693Y-116471228D02*
X129222217Y-116423609D01*
X129222217Y-116423609D02*
X129126979Y-116375990D01*
X129126979Y-116375990D02*
X129079360Y-116328371D01*
X129079360Y-116328371D02*
X129031741Y-116233133D01*
X129031741Y-116233133D02*
X129031741Y-116137895D01*
X129031741Y-116137895D02*
X129079360Y-116042657D01*
X129079360Y-116042657D02*
X129126979Y-115995038D01*
X129126979Y-115995038D02*
X129222217Y-115947419D01*
X129222217Y-115947419D02*
X129460312Y-115947419D01*
X129460312Y-115947419D02*
X129603169Y-115995038D01*
X130031741Y-116947419D02*
X130031741Y-115947419D01*
X131031740Y-116947419D02*
X130460312Y-116947419D01*
X130746026Y-116947419D02*
X130746026Y-115947419D01*
X130746026Y-115947419D02*
X130650788Y-116090276D01*
X130650788Y-116090276D02*
X130555550Y-116185514D01*
X130555550Y-116185514D02*
X130460312Y-116233133D01*
X135731265Y-106739800D02*
X135874122Y-106787419D01*
X135874122Y-106787419D02*
X136112217Y-106787419D01*
X136112217Y-106787419D02*
X136207455Y-106739800D01*
X136207455Y-106739800D02*
X136255074Y-106692180D01*
X136255074Y-106692180D02*
X136302693Y-106596942D01*
X136302693Y-106596942D02*
X136302693Y-106501704D01*
X136302693Y-106501704D02*
X136255074Y-106406466D01*
X136255074Y-106406466D02*
X136207455Y-106358847D01*
X136207455Y-106358847D02*
X136112217Y-106311228D01*
X136112217Y-106311228D02*
X135921741Y-106263609D01*
X135921741Y-106263609D02*
X135826503Y-106215990D01*
X135826503Y-106215990D02*
X135778884Y-106168371D01*
X135778884Y-106168371D02*
X135731265Y-106073133D01*
X135731265Y-106073133D02*
X135731265Y-105977895D01*
X135731265Y-105977895D02*
X135778884Y-105882657D01*
X135778884Y-105882657D02*
X135826503Y-105835038D01*
X135826503Y-105835038D02*
X135921741Y-105787419D01*
X135921741Y-105787419D02*
X136159836Y-105787419D01*
X136159836Y-105787419D02*
X136302693Y-105835038D01*
X137302693Y-106692180D02*
X137255074Y-106739800D01*
X137255074Y-106739800D02*
X137112217Y-106787419D01*
X137112217Y-106787419D02*
X137016979Y-106787419D01*
X137016979Y-106787419D02*
X136874122Y-106739800D01*
X136874122Y-106739800D02*
X136778884Y-106644561D01*
X136778884Y-106644561D02*
X136731265Y-106549323D01*
X136731265Y-106549323D02*
X136683646Y-106358847D01*
X136683646Y-106358847D02*
X136683646Y-106215990D01*
X136683646Y-106215990D02*
X136731265Y-106025514D01*
X136731265Y-106025514D02*
X136778884Y-105930276D01*
X136778884Y-105930276D02*
X136874122Y-105835038D01*
X136874122Y-105835038D02*
X137016979Y-105787419D01*
X137016979Y-105787419D02*
X137112217Y-105787419D01*
X137112217Y-105787419D02*
X137255074Y-105835038D01*
X137255074Y-105835038D02*
X137302693Y-105882657D01*
X137731265Y-106787419D02*
X137731265Y-105787419D01*
X138302693Y-106787419D02*
X137874122Y-106215990D01*
X138302693Y-105787419D02*
X137731265Y-106358847D01*
X135778884Y-116947419D02*
X135778884Y-115947419D01*
X135778884Y-115947419D02*
X136112217Y-116661704D01*
X136112217Y-116661704D02*
X136445550Y-115947419D01*
X136445550Y-115947419D02*
X136445550Y-116947419D01*
X136921741Y-116947419D02*
X136921741Y-115947419D01*
X137350312Y-116899800D02*
X137493169Y-116947419D01*
X137493169Y-116947419D02*
X137731264Y-116947419D01*
X137731264Y-116947419D02*
X137826502Y-116899800D01*
X137826502Y-116899800D02*
X137874121Y-116852180D01*
X137874121Y-116852180D02*
X137921740Y-116756942D01*
X137921740Y-116756942D02*
X137921740Y-116661704D01*
X137921740Y-116661704D02*
X137874121Y-116566466D01*
X137874121Y-116566466D02*
X137826502Y-116518847D01*
X137826502Y-116518847D02*
X137731264Y-116471228D01*
X137731264Y-116471228D02*
X137540788Y-116423609D01*
X137540788Y-116423609D02*
X137445550Y-116375990D01*
X137445550Y-116375990D02*
X137397931Y-116328371D01*
X137397931Y-116328371D02*
X137350312Y-116233133D01*
X137350312Y-116233133D02*
X137350312Y-116137895D01*
X137350312Y-116137895D02*
X137397931Y-116042657D01*
X137397931Y-116042657D02*
X137445550Y-115995038D01*
X137445550Y-115995038D02*
X137540788Y-115947419D01*
X137540788Y-115947419D02*
X137778883Y-115947419D01*
X137778883Y-115947419D02*
X137921740Y-115995038D01*
X138540788Y-115947419D02*
X138731264Y-115947419D01*
X138731264Y-115947419D02*
X138826502Y-115995038D01*
X138826502Y-115995038D02*
X138921740Y-116090276D01*
X138921740Y-116090276D02*
X138969359Y-116280752D01*
X138969359Y-116280752D02*
X138969359Y-116614085D01*
X138969359Y-116614085D02*
X138921740Y-116804561D01*
X138921740Y-116804561D02*
X138826502Y-116899800D01*
X138826502Y-116899800D02*
X138731264Y-116947419D01*
X138731264Y-116947419D02*
X138540788Y-116947419D01*
X138540788Y-116947419D02*
X138445550Y-116899800D01*
X138445550Y-116899800D02*
X138350312Y-116804561D01*
X138350312Y-116804561D02*
X138302693Y-116614085D01*
X138302693Y-116614085D02*
X138302693Y-116280752D01*
X138302693Y-116280752D02*
X138350312Y-116090276D01*
X138350312Y-116090276D02*
X138445550Y-115995038D01*
X138445550Y-115995038D02*
X138540788Y-115947419D01*
X126888884Y-99167419D02*
X126888884Y-98167419D01*
X126888884Y-98167419D02*
X127269836Y-98167419D01*
X127269836Y-98167419D02*
X127365074Y-98215038D01*
X127365074Y-98215038D02*
X127412693Y-98262657D01*
X127412693Y-98262657D02*
X127460312Y-98357895D01*
X127460312Y-98357895D02*
X127460312Y-98500752D01*
X127460312Y-98500752D02*
X127412693Y-98595990D01*
X127412693Y-98595990D02*
X127365074Y-98643609D01*
X127365074Y-98643609D02*
X127269836Y-98691228D01*
X127269836Y-98691228D02*
X126888884Y-98691228D01*
X127793646Y-98167419D02*
X128031741Y-99167419D01*
X128031741Y-99167419D02*
X128222217Y-98453133D01*
X128222217Y-98453133D02*
X128412693Y-99167419D01*
X128412693Y-99167419D02*
X128650789Y-98167419D01*
X129031741Y-99167419D02*
X129031741Y-98167419D01*
X129031741Y-98167419D02*
X129365074Y-98881704D01*
X129365074Y-98881704D02*
X129698407Y-98167419D01*
X129698407Y-98167419D02*
X129698407Y-99167419D01*
X135731265Y-94039800D02*
X135874122Y-94087419D01*
X135874122Y-94087419D02*
X136112217Y-94087419D01*
X136112217Y-94087419D02*
X136207455Y-94039800D01*
X136207455Y-94039800D02*
X136255074Y-93992180D01*
X136255074Y-93992180D02*
X136302693Y-93896942D01*
X136302693Y-93896942D02*
X136302693Y-93801704D01*
X136302693Y-93801704D02*
X136255074Y-93706466D01*
X136255074Y-93706466D02*
X136207455Y-93658847D01*
X136207455Y-93658847D02*
X136112217Y-93611228D01*
X136112217Y-93611228D02*
X135921741Y-93563609D01*
X135921741Y-93563609D02*
X135826503Y-93515990D01*
X135826503Y-93515990D02*
X135778884Y-93468371D01*
X135778884Y-93468371D02*
X135731265Y-93373133D01*
X135731265Y-93373133D02*
X135731265Y-93277895D01*
X135731265Y-93277895D02*
X135778884Y-93182657D01*
X135778884Y-93182657D02*
X135826503Y-93135038D01*
X135826503Y-93135038D02*
X135921741Y-93087419D01*
X135921741Y-93087419D02*
X136159836Y-93087419D01*
X136159836Y-93087419D02*
X136302693Y-93135038D01*
X136731265Y-94087419D02*
X136731265Y-93087419D01*
X136731265Y-93087419D02*
X136969360Y-93087419D01*
X136969360Y-93087419D02*
X137112217Y-93135038D01*
X137112217Y-93135038D02*
X137207455Y-93230276D01*
X137207455Y-93230276D02*
X137255074Y-93325514D01*
X137255074Y-93325514D02*
X137302693Y-93515990D01*
X137302693Y-93515990D02*
X137302693Y-93658847D01*
X137302693Y-93658847D02*
X137255074Y-93849323D01*
X137255074Y-93849323D02*
X137207455Y-93944561D01*
X137207455Y-93944561D02*
X137112217Y-94039800D01*
X137112217Y-94039800D02*
X136969360Y-94087419D01*
X136969360Y-94087419D02*
X136731265Y-94087419D01*
X137683646Y-93801704D02*
X138159836Y-93801704D01*
X137588408Y-94087419D02*
X137921741Y-93087419D01*
X137921741Y-93087419D02*
X138255074Y-94087419D01*
X126888884Y-86467419D02*
X126888884Y-85467419D01*
X126888884Y-85467419D02*
X127269836Y-85467419D01*
X127269836Y-85467419D02*
X127365074Y-85515038D01*
X127365074Y-85515038D02*
X127412693Y-85562657D01*
X127412693Y-85562657D02*
X127460312Y-85657895D01*
X127460312Y-85657895D02*
X127460312Y-85800752D01*
X127460312Y-85800752D02*
X127412693Y-85895990D01*
X127412693Y-85895990D02*
X127365074Y-85943609D01*
X127365074Y-85943609D02*
X127269836Y-85991228D01*
X127269836Y-85991228D02*
X126888884Y-85991228D01*
X127793646Y-85467419D02*
X128031741Y-86467419D01*
X128031741Y-86467419D02*
X128222217Y-85753133D01*
X128222217Y-85753133D02*
X128412693Y-86467419D01*
X128412693Y-86467419D02*
X128650789Y-85467419D01*
X129031741Y-86467419D02*
X129031741Y-85467419D01*
X129031741Y-85467419D02*
X129365074Y-86181704D01*
X129365074Y-86181704D02*
X129698407Y-85467419D01*
X129698407Y-85467419D02*
X129698407Y-86467419D01*
X136350312Y-129647419D02*
X136016979Y-129171228D01*
X135778884Y-129647419D02*
X135778884Y-128647419D01*
X135778884Y-128647419D02*
X136159836Y-128647419D01*
X136159836Y-128647419D02*
X136255074Y-128695038D01*
X136255074Y-128695038D02*
X136302693Y-128742657D01*
X136302693Y-128742657D02*
X136350312Y-128837895D01*
X136350312Y-128837895D02*
X136350312Y-128980752D01*
X136350312Y-128980752D02*
X136302693Y-129075990D01*
X136302693Y-129075990D02*
X136255074Y-129123609D01*
X136255074Y-129123609D02*
X136159836Y-129171228D01*
X136159836Y-129171228D02*
X135778884Y-129171228D01*
X136683646Y-128647419D02*
X137350312Y-129647419D01*
X137350312Y-128647419D02*
X136683646Y-129647419D01*
X137874122Y-129075990D02*
X137778884Y-129028371D01*
X137778884Y-129028371D02*
X137731265Y-128980752D01*
X137731265Y-128980752D02*
X137683646Y-128885514D01*
X137683646Y-128885514D02*
X137683646Y-128837895D01*
X137683646Y-128837895D02*
X137731265Y-128742657D01*
X137731265Y-128742657D02*
X137778884Y-128695038D01*
X137778884Y-128695038D02*
X137874122Y-128647419D01*
X137874122Y-128647419D02*
X138064598Y-128647419D01*
X138064598Y-128647419D02*
X138159836Y-128695038D01*
X138159836Y-128695038D02*
X138207455Y-128742657D01*
X138207455Y-128742657D02*
X138255074Y-128837895D01*
X138255074Y-128837895D02*
X138255074Y-128885514D01*
X138255074Y-128885514D02*
X138207455Y-128980752D01*
X138207455Y-128980752D02*
X138159836Y-129028371D01*
X138159836Y-129028371D02*
X138064598Y-129075990D01*
X138064598Y-129075990D02*
X137874122Y-129075990D01*
X137874122Y-129075990D02*
X137778884Y-129123609D01*
X137778884Y-129123609D02*
X137731265Y-129171228D01*
X137731265Y-129171228D02*
X137683646Y-129266466D01*
X137683646Y-129266466D02*
X137683646Y-129456942D01*
X137683646Y-129456942D02*
X137731265Y-129552180D01*
X137731265Y-129552180D02*
X137778884Y-129599800D01*
X137778884Y-129599800D02*
X137874122Y-129647419D01*
X137874122Y-129647419D02*
X138064598Y-129647419D01*
X138064598Y-129647419D02*
X138159836Y-129599800D01*
X138159836Y-129599800D02*
X138207455Y-129552180D01*
X138207455Y-129552180D02*
X138255074Y-129456942D01*
X138255074Y-129456942D02*
X138255074Y-129266466D01*
X138255074Y-129266466D02*
X138207455Y-129171228D01*
X138207455Y-129171228D02*
X138159836Y-129123609D01*
X138159836Y-129123609D02*
X138064598Y-129075990D01*
D10*
X122954819Y-113095238D02*
X122478628Y-113428571D01*
X122954819Y-113666666D02*
X121954819Y-113666666D01*
X121954819Y-113666666D02*
X121954819Y-113285714D01*
X121954819Y-113285714D02*
X122002438Y-113190476D01*
X122002438Y-113190476D02*
X122050057Y-113142857D01*
X122050057Y-113142857D02*
X122145295Y-113095238D01*
X122145295Y-113095238D02*
X122288152Y-113095238D01*
X122288152Y-113095238D02*
X122383390Y-113142857D01*
X122383390Y-113142857D02*
X122431009Y-113190476D01*
X122431009Y-113190476D02*
X122478628Y-113285714D01*
X122478628Y-113285714D02*
X122478628Y-113666666D01*
X121954819Y-112809523D02*
X122954819Y-112476190D01*
X122954819Y-112476190D02*
X121954819Y-112142857D01*
X122431009Y-111476190D02*
X122478628Y-111333333D01*
X122478628Y-111333333D02*
X122526247Y-111285714D01*
X122526247Y-111285714D02*
X122621485Y-111238095D01*
X122621485Y-111238095D02*
X122764342Y-111238095D01*
X122764342Y-111238095D02*
X122859580Y-111285714D01*
X122859580Y-111285714D02*
X122907200Y-111333333D01*
X122907200Y-111333333D02*
X122954819Y-111428571D01*
X122954819Y-111428571D02*
X122954819Y-111809523D01*
X122954819Y-111809523D02*
X121954819Y-111809523D01*
X121954819Y-111809523D02*
X121954819Y-111476190D01*
X121954819Y-111476190D02*
X122002438Y-111380952D01*
X122002438Y-111380952D02*
X122050057Y-111333333D01*
X122050057Y-111333333D02*
X122145295Y-111285714D01*
X122145295Y-111285714D02*
X122240533Y-111285714D01*
X122240533Y-111285714D02*
X122335771Y-111333333D01*
X122335771Y-111333333D02*
X122383390Y-111380952D01*
X122383390Y-111380952D02*
X122431009Y-111476190D01*
X122431009Y-111476190D02*
X122431009Y-111809523D01*
X122954819Y-110285714D02*
X122954819Y-110857142D01*
X122954819Y-110571428D02*
X121954819Y-110571428D01*
X121954819Y-110571428D02*
X122097676Y-110666666D01*
X122097676Y-110666666D02*
X122192914Y-110761904D01*
X122192914Y-110761904D02*
X122240533Y-110857142D01*
X155666666Y-116974819D02*
X155666666Y-117689104D01*
X155666666Y-117689104D02*
X155619047Y-117831961D01*
X155619047Y-117831961D02*
X155523809Y-117927200D01*
X155523809Y-117927200D02*
X155380952Y-117974819D01*
X155380952Y-117974819D02*
X155285714Y-117974819D01*
X156047619Y-116974819D02*
X156666666Y-116974819D01*
X156666666Y-116974819D02*
X156333333Y-117355771D01*
X156333333Y-117355771D02*
X156476190Y-117355771D01*
X156476190Y-117355771D02*
X156571428Y-117403390D01*
X156571428Y-117403390D02*
X156619047Y-117451009D01*
X156619047Y-117451009D02*
X156666666Y-117546247D01*
X156666666Y-117546247D02*
X156666666Y-117784342D01*
X156666666Y-117784342D02*
X156619047Y-117879580D01*
X156619047Y-117879580D02*
X156571428Y-117927200D01*
X156571428Y-117927200D02*
X156476190Y-117974819D01*
X156476190Y-117974819D02*
X156190476Y-117974819D01*
X156190476Y-117974819D02*
X156095238Y-117927200D01*
X156095238Y-117927200D02*
X156047619Y-117879580D01*
X181216666Y-88924819D02*
X181216666Y-89639104D01*
X181216666Y-89639104D02*
X181169047Y-89781961D01*
X181169047Y-89781961D02*
X181073809Y-89877200D01*
X181073809Y-89877200D02*
X180930952Y-89924819D01*
X180930952Y-89924819D02*
X180835714Y-89924819D01*
X182169047Y-88924819D02*
X181692857Y-88924819D01*
X181692857Y-88924819D02*
X181645238Y-89401009D01*
X181645238Y-89401009D02*
X181692857Y-89353390D01*
X181692857Y-89353390D02*
X181788095Y-89305771D01*
X181788095Y-89305771D02*
X182026190Y-89305771D01*
X182026190Y-89305771D02*
X182121428Y-89353390D01*
X182121428Y-89353390D02*
X182169047Y-89401009D01*
X182169047Y-89401009D02*
X182216666Y-89496247D01*
X182216666Y-89496247D02*
X182216666Y-89734342D01*
X182216666Y-89734342D02*
X182169047Y-89829580D01*
X182169047Y-89829580D02*
X182121428Y-89877200D01*
X182121428Y-89877200D02*
X182026190Y-89924819D01*
X182026190Y-89924819D02*
X181788095Y-89924819D01*
X181788095Y-89924819D02*
X181692857Y-89877200D01*
X181692857Y-89877200D02*
X181645238Y-89829580D01*
X117604819Y-110620237D02*
X116604819Y-110620237D01*
X116604819Y-110620237D02*
X116604819Y-110382142D01*
X116604819Y-110382142D02*
X116652438Y-110239285D01*
X116652438Y-110239285D02*
X116747676Y-110144047D01*
X116747676Y-110144047D02*
X116842914Y-110096428D01*
X116842914Y-110096428D02*
X117033390Y-110048809D01*
X117033390Y-110048809D02*
X117176247Y-110048809D01*
X117176247Y-110048809D02*
X117366723Y-110096428D01*
X117366723Y-110096428D02*
X117461961Y-110144047D01*
X117461961Y-110144047D02*
X117557200Y-110239285D01*
X117557200Y-110239285D02*
X117604819Y-110382142D01*
X117604819Y-110382142D02*
X117604819Y-110620237D01*
X116604819Y-109763094D02*
X117604819Y-109429761D01*
X117604819Y-109429761D02*
X116604819Y-109096428D01*
X117319104Y-108810713D02*
X117319104Y-108334523D01*
X117604819Y-108905951D02*
X116604819Y-108572618D01*
X116604819Y-108572618D02*
X117604819Y-108239285D01*
X117604819Y-107382142D02*
X117604819Y-107953570D01*
X117604819Y-107667856D02*
X116604819Y-107667856D01*
X116604819Y-107667856D02*
X116747676Y-107763094D01*
X116747676Y-107763094D02*
X116842914Y-107858332D01*
X116842914Y-107858332D02*
X116890533Y-107953570D01*
X117604819Y-99713094D02*
X116604819Y-99713094D01*
X116604819Y-99713094D02*
X116604819Y-99474999D01*
X116604819Y-99474999D02*
X116652438Y-99332142D01*
X116652438Y-99332142D02*
X116747676Y-99236904D01*
X116747676Y-99236904D02*
X116842914Y-99189285D01*
X116842914Y-99189285D02*
X117033390Y-99141666D01*
X117033390Y-99141666D02*
X117176247Y-99141666D01*
X117176247Y-99141666D02*
X117366723Y-99189285D01*
X117366723Y-99189285D02*
X117461961Y-99236904D01*
X117461961Y-99236904D02*
X117557200Y-99332142D01*
X117557200Y-99332142D02*
X117604819Y-99474999D01*
X117604819Y-99474999D02*
X117604819Y-99713094D01*
X116700057Y-98760713D02*
X116652438Y-98713094D01*
X116652438Y-98713094D02*
X116604819Y-98617856D01*
X116604819Y-98617856D02*
X116604819Y-98379761D01*
X116604819Y-98379761D02*
X116652438Y-98284523D01*
X116652438Y-98284523D02*
X116700057Y-98236904D01*
X116700057Y-98236904D02*
X116795295Y-98189285D01*
X116795295Y-98189285D02*
X116890533Y-98189285D01*
X116890533Y-98189285D02*
X117033390Y-98236904D01*
X117033390Y-98236904D02*
X117604819Y-98808332D01*
X117604819Y-98808332D02*
X117604819Y-98189285D01*
X155816666Y-88924819D02*
X155816666Y-89639104D01*
X155816666Y-89639104D02*
X155769047Y-89781961D01*
X155769047Y-89781961D02*
X155673809Y-89877200D01*
X155673809Y-89877200D02*
X155530952Y-89924819D01*
X155530952Y-89924819D02*
X155435714Y-89924819D01*
X156245238Y-89020057D02*
X156292857Y-88972438D01*
X156292857Y-88972438D02*
X156388095Y-88924819D01*
X156388095Y-88924819D02*
X156626190Y-88924819D01*
X156626190Y-88924819D02*
X156721428Y-88972438D01*
X156721428Y-88972438D02*
X156769047Y-89020057D01*
X156769047Y-89020057D02*
X156816666Y-89115295D01*
X156816666Y-89115295D02*
X156816666Y-89210533D01*
X156816666Y-89210533D02*
X156769047Y-89353390D01*
X156769047Y-89353390D02*
X156197619Y-89924819D01*
X156197619Y-89924819D02*
X156816666Y-89924819D01*
X122954819Y-91666666D02*
X122478628Y-91999999D01*
X122954819Y-92238094D02*
X121954819Y-92238094D01*
X121954819Y-92238094D02*
X121954819Y-91857142D01*
X121954819Y-91857142D02*
X122002438Y-91761904D01*
X122002438Y-91761904D02*
X122050057Y-91714285D01*
X122050057Y-91714285D02*
X122145295Y-91666666D01*
X122145295Y-91666666D02*
X122288152Y-91666666D01*
X122288152Y-91666666D02*
X122383390Y-91714285D01*
X122383390Y-91714285D02*
X122431009Y-91761904D01*
X122431009Y-91761904D02*
X122478628Y-91857142D01*
X122478628Y-91857142D02*
X122478628Y-92238094D01*
X122954819Y-90714285D02*
X122954819Y-91285713D01*
X122954819Y-90999999D02*
X121954819Y-90999999D01*
X121954819Y-90999999D02*
X122097676Y-91095237D01*
X122097676Y-91095237D02*
X122192914Y-91190475D01*
X122192914Y-91190475D02*
X122240533Y-91285713D01*
X122954819Y-107523809D02*
X122478628Y-107857142D01*
X122954819Y-108095237D02*
X121954819Y-108095237D01*
X121954819Y-108095237D02*
X121954819Y-107714285D01*
X121954819Y-107714285D02*
X122002438Y-107619047D01*
X122002438Y-107619047D02*
X122050057Y-107571428D01*
X122050057Y-107571428D02*
X122145295Y-107523809D01*
X122145295Y-107523809D02*
X122288152Y-107523809D01*
X122288152Y-107523809D02*
X122383390Y-107571428D01*
X122383390Y-107571428D02*
X122431009Y-107619047D01*
X122431009Y-107619047D02*
X122478628Y-107714285D01*
X122478628Y-107714285D02*
X122478628Y-108095237D01*
X121954819Y-107238094D02*
X122954819Y-106904761D01*
X122954819Y-106904761D02*
X121954819Y-106571428D01*
X122669104Y-106285713D02*
X122669104Y-105809523D01*
X122954819Y-106380951D02*
X121954819Y-106047618D01*
X121954819Y-106047618D02*
X122954819Y-105714285D01*
X122954819Y-104857142D02*
X122954819Y-105428570D01*
X122954819Y-105142856D02*
X121954819Y-105142856D01*
X121954819Y-105142856D02*
X122097676Y-105238094D01*
X122097676Y-105238094D02*
X122192914Y-105333332D01*
X122192914Y-105333332D02*
X122240533Y-105428570D01*
X117579819Y-94738094D02*
X116579819Y-94738094D01*
X116579819Y-94738094D02*
X116579819Y-94499999D01*
X116579819Y-94499999D02*
X116627438Y-94357142D01*
X116627438Y-94357142D02*
X116722676Y-94261904D01*
X116722676Y-94261904D02*
X116817914Y-94214285D01*
X116817914Y-94214285D02*
X117008390Y-94166666D01*
X117008390Y-94166666D02*
X117151247Y-94166666D01*
X117151247Y-94166666D02*
X117341723Y-94214285D01*
X117341723Y-94214285D02*
X117436961Y-94261904D01*
X117436961Y-94261904D02*
X117532200Y-94357142D01*
X117532200Y-94357142D02*
X117579819Y-94499999D01*
X117579819Y-94499999D02*
X117579819Y-94738094D01*
X117579819Y-93214285D02*
X117579819Y-93785713D01*
X117579819Y-93499999D02*
X116579819Y-93499999D01*
X116579819Y-93499999D02*
X116722676Y-93595237D01*
X116722676Y-93595237D02*
X116817914Y-93690475D01*
X116817914Y-93690475D02*
X116865533Y-93785713D01*
X117604819Y-115691666D02*
X116604819Y-115691666D01*
X116604819Y-115691666D02*
X116604819Y-115453571D01*
X116604819Y-115453571D02*
X116652438Y-115310714D01*
X116652438Y-115310714D02*
X116747676Y-115215476D01*
X116747676Y-115215476D02*
X116842914Y-115167857D01*
X116842914Y-115167857D02*
X117033390Y-115120238D01*
X117033390Y-115120238D02*
X117176247Y-115120238D01*
X117176247Y-115120238D02*
X117366723Y-115167857D01*
X117366723Y-115167857D02*
X117461961Y-115215476D01*
X117461961Y-115215476D02*
X117557200Y-115310714D01*
X117557200Y-115310714D02*
X117604819Y-115453571D01*
X117604819Y-115453571D02*
X117604819Y-115691666D01*
X116604819Y-114834523D02*
X117604819Y-114501190D01*
X117604819Y-114501190D02*
X116604819Y-114167857D01*
X117081009Y-113501190D02*
X117128628Y-113358333D01*
X117128628Y-113358333D02*
X117176247Y-113310714D01*
X117176247Y-113310714D02*
X117271485Y-113263095D01*
X117271485Y-113263095D02*
X117414342Y-113263095D01*
X117414342Y-113263095D02*
X117509580Y-113310714D01*
X117509580Y-113310714D02*
X117557200Y-113358333D01*
X117557200Y-113358333D02*
X117604819Y-113453571D01*
X117604819Y-113453571D02*
X117604819Y-113834523D01*
X117604819Y-113834523D02*
X116604819Y-113834523D01*
X116604819Y-113834523D02*
X116604819Y-113501190D01*
X116604819Y-113501190D02*
X116652438Y-113405952D01*
X116652438Y-113405952D02*
X116700057Y-113358333D01*
X116700057Y-113358333D02*
X116795295Y-113310714D01*
X116795295Y-113310714D02*
X116890533Y-113310714D01*
X116890533Y-113310714D02*
X116985771Y-113358333D01*
X116985771Y-113358333D02*
X117033390Y-113405952D01*
X117033390Y-113405952D02*
X117081009Y-113501190D01*
X117081009Y-113501190D02*
X117081009Y-113834523D01*
X117604819Y-112310714D02*
X117604819Y-112882142D01*
X117604819Y-112596428D02*
X116604819Y-112596428D01*
X116604819Y-112596428D02*
X116747676Y-112691666D01*
X116747676Y-112691666D02*
X116842914Y-112786904D01*
X116842914Y-112786904D02*
X116890533Y-112882142D01*
X181316666Y-61124819D02*
X181316666Y-61839104D01*
X181316666Y-61839104D02*
X181269047Y-61981961D01*
X181269047Y-61981961D02*
X181173809Y-62077200D01*
X181173809Y-62077200D02*
X181030952Y-62124819D01*
X181030952Y-62124819D02*
X180935714Y-62124819D01*
X182221428Y-61458152D02*
X182221428Y-62124819D01*
X181983333Y-61077200D02*
X181745238Y-61791485D01*
X181745238Y-61791485D02*
X182364285Y-61791485D01*
X155916666Y-61124819D02*
X155916666Y-61839104D01*
X155916666Y-61839104D02*
X155869047Y-61981961D01*
X155869047Y-61981961D02*
X155773809Y-62077200D01*
X155773809Y-62077200D02*
X155630952Y-62124819D01*
X155630952Y-62124819D02*
X155535714Y-62124819D01*
X156916666Y-62124819D02*
X156345238Y-62124819D01*
X156630952Y-62124819D02*
X156630952Y-61124819D01*
X156630952Y-61124819D02*
X156535714Y-61267676D01*
X156535714Y-61267676D02*
X156440476Y-61362914D01*
X156440476Y-61362914D02*
X156345238Y-61410533D01*
X122954819Y-96666666D02*
X122478628Y-96999999D01*
X122954819Y-97238094D02*
X121954819Y-97238094D01*
X121954819Y-97238094D02*
X121954819Y-96857142D01*
X121954819Y-96857142D02*
X122002438Y-96761904D01*
X122002438Y-96761904D02*
X122050057Y-96714285D01*
X122050057Y-96714285D02*
X122145295Y-96666666D01*
X122145295Y-96666666D02*
X122288152Y-96666666D01*
X122288152Y-96666666D02*
X122383390Y-96714285D01*
X122383390Y-96714285D02*
X122431009Y-96761904D01*
X122431009Y-96761904D02*
X122478628Y-96857142D01*
X122478628Y-96857142D02*
X122478628Y-97238094D01*
X122050057Y-96285713D02*
X122002438Y-96238094D01*
X122002438Y-96238094D02*
X121954819Y-96142856D01*
X121954819Y-96142856D02*
X121954819Y-95904761D01*
X121954819Y-95904761D02*
X122002438Y-95809523D01*
X122002438Y-95809523D02*
X122050057Y-95761904D01*
X122050057Y-95761904D02*
X122145295Y-95714285D01*
X122145295Y-95714285D02*
X122240533Y-95714285D01*
X122240533Y-95714285D02*
X122383390Y-95761904D01*
X122383390Y-95761904D02*
X122954819Y-96333332D01*
X122954819Y-96333332D02*
X122954819Y-95714285D01*
X181066666Y-116974819D02*
X181066666Y-117689104D01*
X181066666Y-117689104D02*
X181019047Y-117831961D01*
X181019047Y-117831961D02*
X180923809Y-117927200D01*
X180923809Y-117927200D02*
X180780952Y-117974819D01*
X180780952Y-117974819D02*
X180685714Y-117974819D01*
X181971428Y-116974819D02*
X181780952Y-116974819D01*
X181780952Y-116974819D02*
X181685714Y-117022438D01*
X181685714Y-117022438D02*
X181638095Y-117070057D01*
X181638095Y-117070057D02*
X181542857Y-117212914D01*
X181542857Y-117212914D02*
X181495238Y-117403390D01*
X181495238Y-117403390D02*
X181495238Y-117784342D01*
X181495238Y-117784342D02*
X181542857Y-117879580D01*
X181542857Y-117879580D02*
X181590476Y-117927200D01*
X181590476Y-117927200D02*
X181685714Y-117974819D01*
X181685714Y-117974819D02*
X181876190Y-117974819D01*
X181876190Y-117974819D02*
X181971428Y-117927200D01*
X181971428Y-117927200D02*
X182019047Y-117879580D01*
X182019047Y-117879580D02*
X182066666Y-117784342D01*
X182066666Y-117784342D02*
X182066666Y-117546247D01*
X182066666Y-117546247D02*
X182019047Y-117451009D01*
X182019047Y-117451009D02*
X181971428Y-117403390D01*
X181971428Y-117403390D02*
X181876190Y-117355771D01*
X181876190Y-117355771D02*
X181685714Y-117355771D01*
X181685714Y-117355771D02*
X181590476Y-117403390D01*
X181590476Y-117403390D02*
X181542857Y-117451009D01*
X181542857Y-117451009D02*
X181495238Y-117546247D01*
X117604819Y-104763094D02*
X116604819Y-104763094D01*
X116604819Y-104763094D02*
X116604819Y-104524999D01*
X116604819Y-104524999D02*
X116652438Y-104382142D01*
X116652438Y-104382142D02*
X116747676Y-104286904D01*
X116747676Y-104286904D02*
X116842914Y-104239285D01*
X116842914Y-104239285D02*
X117033390Y-104191666D01*
X117033390Y-104191666D02*
X117176247Y-104191666D01*
X117176247Y-104191666D02*
X117366723Y-104239285D01*
X117366723Y-104239285D02*
X117461961Y-104286904D01*
X117461961Y-104286904D02*
X117557200Y-104382142D01*
X117557200Y-104382142D02*
X117604819Y-104524999D01*
X117604819Y-104524999D02*
X117604819Y-104763094D01*
X116604819Y-103858332D02*
X116604819Y-103239285D01*
X116604819Y-103239285D02*
X116985771Y-103572618D01*
X116985771Y-103572618D02*
X116985771Y-103429761D01*
X116985771Y-103429761D02*
X117033390Y-103334523D01*
X117033390Y-103334523D02*
X117081009Y-103286904D01*
X117081009Y-103286904D02*
X117176247Y-103239285D01*
X117176247Y-103239285D02*
X117414342Y-103239285D01*
X117414342Y-103239285D02*
X117509580Y-103286904D01*
X117509580Y-103286904D02*
X117557200Y-103334523D01*
X117557200Y-103334523D02*
X117604819Y-103429761D01*
X117604819Y-103429761D02*
X117604819Y-103715475D01*
X117604819Y-103715475D02*
X117557200Y-103810713D01*
X117557200Y-103810713D02*
X117509580Y-103858332D01*
D12*
%TO.C,R3*%
X119272936Y-100765000D02*
X119727064Y-100765000D01*
X119272936Y-102235000D02*
X119727064Y-102235000D01*
%TO.C,J8*%
X119830000Y-132450000D02*
X118500000Y-132450000D01*
X119830000Y-131120000D02*
X119830000Y-132450000D01*
X119830000Y-129850000D02*
X119830000Y-122170000D01*
X119830000Y-129850000D02*
X117170000Y-129850000D01*
X119830000Y-122170000D02*
X117170000Y-122170000D01*
X117170000Y-129850000D02*
X117170000Y-122170000D01*
%TO.C,J7*%
X118830000Y-81830000D02*
X117500000Y-81830000D01*
X118830000Y-80500000D02*
X118830000Y-81830000D01*
X118830000Y-79230000D02*
X118830000Y-71550000D01*
X118830000Y-79230000D02*
X116170000Y-79230000D01*
X118830000Y-71550000D02*
X116170000Y-71550000D01*
X116170000Y-79230000D02*
X116170000Y-71550000D01*
D11*
%TO.C,Teensy4.1*%
X124045000Y-100565000D02*
X124045000Y-71355000D01*
X124045000Y-100565000D02*
X124045000Y-101835000D01*
X124045000Y-101835000D02*
X124045000Y-132315000D01*
X124045000Y-132315000D02*
X141825000Y-132315000D01*
X141825000Y-71355000D02*
X124045000Y-71355000D01*
X141825000Y-71355000D02*
X141825000Y-99295000D01*
X141825000Y-132315000D02*
X141825000Y-99295000D01*
D12*
%TO.C,RVB1*%
X119727064Y-112735000D02*
X119272936Y-112735000D01*
X119727064Y-111265000D02*
X119272936Y-111265000D01*
%TO.C,J3*%
X154670000Y-118520000D02*
X156000000Y-118520000D01*
X154670000Y-119850000D02*
X154670000Y-118520000D01*
X154670000Y-121120000D02*
X154670000Y-141500000D01*
X154670000Y-121120000D02*
X157330000Y-121120000D01*
X154670000Y-141500000D02*
X157330000Y-141500000D01*
X157330000Y-121120000D02*
X157330000Y-141500000D01*
%TO.C,J5*%
X180220000Y-90470000D02*
X181550000Y-90470000D01*
X180220000Y-91800000D02*
X180220000Y-90470000D01*
X180220000Y-93070000D02*
X180220000Y-103290000D01*
X180220000Y-93070000D02*
X182880000Y-93070000D01*
X180220000Y-103290000D02*
X182880000Y-103290000D01*
X182880000Y-93070000D02*
X182880000Y-103290000D01*
%TO.C,DVA1*%
X116460000Y-107165000D02*
X114540000Y-107165000D01*
X114540000Y-107165000D02*
X114540000Y-110025000D01*
X116460000Y-110025000D02*
X116460000Y-107165000D01*
%TO.C,D2*%
X116460000Y-97115000D02*
X114540000Y-97115000D01*
X114540000Y-97115000D02*
X114540000Y-99975000D01*
X116460000Y-99975000D02*
X116460000Y-97115000D01*
%TO.C,J2*%
X154820000Y-90470000D02*
X156150000Y-90470000D01*
X154820000Y-91800000D02*
X154820000Y-90470000D01*
X154820000Y-93070000D02*
X154820000Y-113450000D01*
X154820000Y-93070000D02*
X157480000Y-93070000D01*
X154820000Y-113450000D02*
X157480000Y-113450000D01*
X157480000Y-93070000D02*
X157480000Y-113450000D01*
%TO.C,R1*%
X119272936Y-90765000D02*
X119727064Y-90765000D01*
X119272936Y-92235000D02*
X119727064Y-92235000D01*
%TO.C,RVA1*%
X119727064Y-107235000D02*
X119272936Y-107235000D01*
X119727064Y-105765000D02*
X119272936Y-105765000D01*
%TO.C,D1*%
X116435000Y-92140000D02*
X114515000Y-92140000D01*
X114515000Y-92140000D02*
X114515000Y-95000000D01*
X116435000Y-95000000D02*
X116435000Y-92140000D01*
%TO.C,DVB1*%
X116460000Y-112165000D02*
X114540000Y-112165000D01*
X114540000Y-112165000D02*
X114540000Y-115025000D01*
X116460000Y-115025000D02*
X116460000Y-112165000D01*
%TO.C,J4*%
X180320000Y-62670000D02*
X181650000Y-62670000D01*
X180320000Y-64000000D02*
X180320000Y-62670000D01*
X180320000Y-65270000D02*
X180320000Y-75490000D01*
X180320000Y-65270000D02*
X182980000Y-65270000D01*
X180320000Y-75490000D02*
X182980000Y-75490000D01*
X182980000Y-65270000D02*
X182980000Y-75490000D01*
%TO.C,J1*%
X154920000Y-62670000D02*
X156250000Y-62670000D01*
X154920000Y-64000000D02*
X154920000Y-62670000D01*
X154920000Y-65270000D02*
X154920000Y-85650000D01*
X154920000Y-65270000D02*
X157580000Y-65270000D01*
X154920000Y-85650000D02*
X157580000Y-85650000D01*
X157580000Y-65270000D02*
X157580000Y-85650000D01*
%TO.C,R2*%
X119272936Y-95765000D02*
X119727064Y-95765000D01*
X119272936Y-97235000D02*
X119727064Y-97235000D01*
%TO.C,J6*%
X180070000Y-118520000D02*
X181400000Y-118520000D01*
X180070000Y-119850000D02*
X180070000Y-118520000D01*
X180070000Y-121120000D02*
X180070000Y-131340000D01*
X180070000Y-121120000D02*
X182730000Y-121120000D01*
X180070000Y-131340000D02*
X182730000Y-131340000D01*
X182730000Y-121120000D02*
X182730000Y-131340000D01*
%TO.C,D3*%
X116460000Y-102165000D02*
X114540000Y-102165000D01*
X114540000Y-102165000D02*
X114540000Y-105025000D01*
X116460000Y-105025000D02*
X116460000Y-102165000D01*
%TD*%
M02*
