%TF.GenerationSoftware,KiCad,Pcbnew,7.0.7*%
%TF.CreationDate,2024-06-05T22:00:53-04:00*%
%TF.ProjectId,Ground Receiver v2,47726f75-6e64-4205-9265-636569766572,rev?*%
%TF.SameCoordinates,Original*%
%TF.FileFunction,Soldermask,Top*%
%TF.FilePolarity,Negative*%
%FSLAX46Y46*%
G04 Gerber Fmt 4.6, Leading zero omitted, Abs format (unit mm)*
G04 Created by KiCad (PCBNEW 7.0.7) date 2024-06-05 22:00:53*
%MOMM*%
%LPD*%
G01*
G04 APERTURE LIST*
G04 Aperture macros list*
%AMRoundRect*
0 Rectangle with rounded corners*
0 $1 Rounding radius*
0 $2 $3 $4 $5 $6 $7 $8 $9 X,Y pos of 4 corners*
0 Add a 4 corners polygon primitive as box body*
4,1,4,$2,$3,$4,$5,$6,$7,$8,$9,$2,$3,0*
0 Add four circle primitives for the rounded corners*
1,1,$1+$1,$2,$3*
1,1,$1+$1,$4,$5*
1,1,$1+$1,$6,$7*
1,1,$1+$1,$8,$9*
0 Add four rect primitives between the rounded corners*
20,1,$1+$1,$2,$3,$4,$5,0*
20,1,$1+$1,$4,$5,$6,$7,0*
20,1,$1+$1,$6,$7,$8,$9,0*
20,1,$1+$1,$8,$9,$2,$3,0*%
G04 Aperture macros list end*
%ADD10C,2.100000*%
%ADD11RoundRect,0.250000X-0.350000X-0.450000X0.350000X-0.450000X0.350000X0.450000X-0.350000X0.450000X0*%
%ADD12R,1.700000X1.700000*%
%ADD13O,1.700000X1.700000*%
%ADD14C,2.000000*%
%ADD15RoundRect,0.250000X0.350000X0.450000X-0.350000X0.450000X-0.350000X-0.450000X0.350000X-0.450000X0*%
%ADD16RoundRect,0.250000X-0.450000X0.325000X-0.450000X-0.325000X0.450000X-0.325000X0.450000X0.325000X0*%
G04 APERTURE END LIST*
D10*
%TO.C,H1*%
X118200000Y-63600000D03*
%TD*%
D11*
%TO.C,R3*%
X118500000Y-101500000D03*
X120500000Y-101500000D03*
%TD*%
D10*
%TO.C,H2*%
X118200000Y-140400000D03*
%TD*%
D12*
%TO.C,J8*%
X118500000Y-131120000D03*
D13*
X118500000Y-128580000D03*
X118500000Y-126040000D03*
X118500000Y-123500000D03*
%TD*%
D12*
%TO.C,J7*%
X117500000Y-80500000D03*
D13*
X117500000Y-77960000D03*
X117500000Y-75420000D03*
X117500000Y-72880000D03*
%TD*%
D14*
%TO.C,Teensy4.1*%
X125315000Y-72625000D03*
X125315000Y-75165000D03*
X125315000Y-77705000D03*
X125315000Y-80245000D03*
X125315000Y-82785000D03*
X125315000Y-85325000D03*
X125315000Y-87865000D03*
X125315000Y-90405000D03*
X125315000Y-92945000D03*
X125315000Y-95485000D03*
X125315000Y-98025000D03*
X125315000Y-100565000D03*
X125315000Y-103105000D03*
X125315000Y-105645000D03*
X125315000Y-108185000D03*
X125315000Y-110725000D03*
X125315000Y-113265000D03*
X125315000Y-115805000D03*
X125315000Y-118345000D03*
X125315000Y-120885000D03*
X125315000Y-123425000D03*
X125315000Y-125965000D03*
X125315000Y-128505000D03*
X125315000Y-131045000D03*
X140555000Y-131045000D03*
X140555000Y-128505000D03*
X140555000Y-125965000D03*
X140555000Y-123425000D03*
X140555000Y-120885000D03*
X140555000Y-118345000D03*
X140555000Y-115805000D03*
X140555000Y-113265000D03*
X140555000Y-110725000D03*
X140555000Y-108185000D03*
X140555000Y-105645000D03*
X140555000Y-103105000D03*
X140555000Y-100565000D03*
X140555000Y-98025000D03*
X140555000Y-95485000D03*
X140555000Y-92945000D03*
X140555000Y-90405000D03*
X140555000Y-87865000D03*
X140555000Y-85325000D03*
X140555000Y-82785000D03*
X140555000Y-80245000D03*
X140555000Y-77705000D03*
X140555000Y-75165000D03*
X140555000Y-72625000D03*
%TD*%
D15*
%TO.C,RVB1*%
X120500000Y-112000000D03*
X118500000Y-112000000D03*
%TD*%
D12*
%TO.C,J3*%
X156000000Y-119850000D03*
D13*
X156000000Y-122390000D03*
X156000000Y-124930000D03*
X156000000Y-127470000D03*
X156000000Y-130010000D03*
X156000000Y-132550000D03*
X156000000Y-135090000D03*
X156000000Y-137630000D03*
X156000000Y-140170000D03*
%TD*%
D12*
%TO.C,J5*%
X181550000Y-91800000D03*
D13*
X181550000Y-94340000D03*
X181550000Y-96880000D03*
X181550000Y-99420000D03*
X181550000Y-101960000D03*
%TD*%
D16*
%TO.C,DVA1*%
X115500000Y-108000000D03*
X115500000Y-110050000D03*
%TD*%
%TO.C,D2*%
X115500000Y-97950000D03*
X115500000Y-100000000D03*
%TD*%
D12*
%TO.C,J2*%
X156150000Y-91800000D03*
D13*
X156150000Y-94340000D03*
X156150000Y-96880000D03*
X156150000Y-99420000D03*
X156150000Y-101960000D03*
X156150000Y-104500000D03*
X156150000Y-107040000D03*
X156150000Y-109580000D03*
X156150000Y-112120000D03*
%TD*%
D11*
%TO.C,R1*%
X118500000Y-91500000D03*
X120500000Y-91500000D03*
%TD*%
D15*
%TO.C,RVA1*%
X120500000Y-106500000D03*
X118500000Y-106500000D03*
%TD*%
D16*
%TO.C,D1*%
X115475000Y-92975000D03*
X115475000Y-95025000D03*
%TD*%
%TO.C,DVB1*%
X115500000Y-113000000D03*
X115500000Y-115050000D03*
%TD*%
D12*
%TO.C,J4*%
X181650000Y-64000000D03*
D13*
X181650000Y-66540000D03*
X181650000Y-69080000D03*
X181650000Y-71620000D03*
X181650000Y-74160000D03*
%TD*%
D12*
%TO.C,J1*%
X156250000Y-64000000D03*
D13*
X156250000Y-66540000D03*
X156250000Y-69080000D03*
X156250000Y-71620000D03*
X156250000Y-74160000D03*
X156250000Y-76700000D03*
X156250000Y-79240000D03*
X156250000Y-81780000D03*
X156250000Y-84320000D03*
%TD*%
D11*
%TO.C,R2*%
X118500000Y-96500000D03*
X120500000Y-96500000D03*
%TD*%
D12*
%TO.C,J6*%
X181400000Y-119850000D03*
D13*
X181400000Y-122390000D03*
X181400000Y-124930000D03*
X181400000Y-127470000D03*
X181400000Y-130010000D03*
%TD*%
D16*
%TO.C,D3*%
X115500000Y-103000000D03*
X115500000Y-105050000D03*
%TD*%
D10*
%TO.C,H3*%
X179200000Y-140400000D03*
%TD*%
M02*
