%TF.GenerationSoftware,KiCad,Pcbnew,10.0.0*%
%TF.CreationDate,2026-03-28T09:32:16-04:00*%
%TF.ProjectId,flight-computer,666c6967-6874-42d6-936f-6d7075746572,rev?*%
%TF.SameCoordinates,Original*%
%TF.FileFunction,Legend,Bot*%
%TF.FilePolarity,Positive*%
%FSLAX46Y46*%
G04 Gerber Fmt 4.6, Leading zero omitted, Abs format (unit mm)*
G04 Created by KiCad (PCBNEW 10.0.0) date 2026-03-28 09:32:16*
%MOMM*%
%LPD*%
G01*
G04 APERTURE LIST*
G04 Aperture macros list*
%AMRoundRect*
0 Rectangle with rounded corners*
0 $1 Rounding radius*
0 $2 $3 $4 $5 $6 $7 $8 $9 X,Y pos of 4 corners*
0 Add a 4 corners polygon primitive as box body*
4,1,4,$2,$3,$4,$5,$6,$7,$8,$9,$2,$3,0*
0 Add four circle primitives for the rounded corners*
1,1,$1+$1,$2,$3*
1,1,$1+$1,$4,$5*
1,1,$1+$1,$6,$7*
1,1,$1+$1,$8,$9*
0 Add four rect primitives between the rounded corners*
20,1,$1+$1,$2,$3,$4,$5,0*
20,1,$1+$1,$4,$5,$6,$7,0*
20,1,$1+$1,$6,$7,$8,$9,0*
20,1,$1+$1,$8,$9,$2,$3,0*%
G04 Aperture macros list end*
%ADD10C,0.150000*%
%ADD11C,0.120000*%
%ADD12C,0.152400*%
%ADD13C,0.508000*%
%ADD14RoundRect,0.250000X-0.600000X-0.725000X0.600000X-0.725000X0.600000X0.725000X-0.600000X0.725000X0*%
%ADD15O,1.700000X1.950000*%
%ADD16RoundRect,0.250000X0.600000X0.750000X-0.600000X0.750000X-0.600000X-0.750000X0.600000X-0.750000X0*%
%ADD17O,1.700000X2.000000*%
%ADD18R,1.700000X1.700000*%
%ADD19C,1.700000*%
%ADD20RoundRect,0.250001X-0.949999X-0.949999X0.949999X-0.949999X0.949999X0.949999X-0.949999X0.949999X0*%
%ADD21C,2.400000*%
%ADD22C,3.200000*%
%ADD23RoundRect,0.250000X-0.600000X-0.750000X0.600000X-0.750000X0.600000X0.750000X-0.600000X0.750000X0*%
%ADD24C,0.650000*%
%ADD25O,2.100000X1.000000*%
%ADD26O,1.800000X1.000000*%
%ADD27RoundRect,0.237500X-0.300000X-0.237500X0.300000X-0.237500X0.300000X0.237500X-0.300000X0.237500X0*%
%ADD28RoundRect,0.237500X-0.250000X-0.237500X0.250000X-0.237500X0.250000X0.237500X-0.250000X0.237500X0*%
%ADD29RoundRect,0.237500X0.237500X-0.250000X0.237500X0.250000X-0.237500X0.250000X-0.237500X-0.250000X0*%
%ADD30RoundRect,0.237500X0.250000X0.237500X-0.250000X0.237500X-0.250000X-0.237500X0.250000X-0.237500X0*%
%ADD31RoundRect,0.237500X0.300000X0.237500X-0.300000X0.237500X-0.300000X-0.237500X0.300000X-0.237500X0*%
%ADD32RoundRect,0.237500X0.237500X-0.300000X0.237500X0.300000X-0.237500X0.300000X-0.237500X-0.300000X0*%
%ADD33RoundRect,0.150000X0.512500X0.150000X-0.512500X0.150000X-0.512500X-0.150000X0.512500X-0.150000X0*%
%ADD34RoundRect,0.250000X-1.000000X-0.650000X1.000000X-0.650000X1.000000X0.650000X-1.000000X0.650000X0*%
%ADD35RoundRect,0.150000X-0.825000X-0.150000X0.825000X-0.150000X0.825000X0.150000X-0.825000X0.150000X0*%
%ADD36RoundRect,0.237500X-0.237500X0.250000X-0.237500X-0.250000X0.237500X-0.250000X0.237500X0.250000X0*%
%ADD37R,1.803400X1.803400*%
%ADD38R,1.500000X0.800000*%
%ADD39R,2.000000X1.450000*%
G04 APERTURE END LIST*
D10*
X228567266Y-101931380D02*
X228614885Y-101979000D01*
X228614885Y-101979000D02*
X228757742Y-102026619D01*
X228757742Y-102026619D02*
X228852980Y-102026619D01*
X228852980Y-102026619D02*
X228995837Y-101979000D01*
X228995837Y-101979000D02*
X229091075Y-101883761D01*
X229091075Y-101883761D02*
X229138694Y-101788523D01*
X229138694Y-101788523D02*
X229186313Y-101598047D01*
X229186313Y-101598047D02*
X229186313Y-101455190D01*
X229186313Y-101455190D02*
X229138694Y-101264714D01*
X229138694Y-101264714D02*
X229091075Y-101169476D01*
X229091075Y-101169476D02*
X228995837Y-101074238D01*
X228995837Y-101074238D02*
X228852980Y-101026619D01*
X228852980Y-101026619D02*
X228757742Y-101026619D01*
X228757742Y-101026619D02*
X228614885Y-101074238D01*
X228614885Y-101074238D02*
X228567266Y-101121857D01*
X228186313Y-101121857D02*
X228138694Y-101074238D01*
X228138694Y-101074238D02*
X228043456Y-101026619D01*
X228043456Y-101026619D02*
X227805361Y-101026619D01*
X227805361Y-101026619D02*
X227710123Y-101074238D01*
X227710123Y-101074238D02*
X227662504Y-101121857D01*
X227662504Y-101121857D02*
X227614885Y-101217095D01*
X227614885Y-101217095D02*
X227614885Y-101312333D01*
X227614885Y-101312333D02*
X227662504Y-101455190D01*
X227662504Y-101455190D02*
X228233932Y-102026619D01*
X228233932Y-102026619D02*
X227614885Y-102026619D01*
X228191666Y-137604819D02*
X228524999Y-137128628D01*
X228763094Y-137604819D02*
X228763094Y-136604819D01*
X228763094Y-136604819D02*
X228382142Y-136604819D01*
X228382142Y-136604819D02*
X228286904Y-136652438D01*
X228286904Y-136652438D02*
X228239285Y-136700057D01*
X228239285Y-136700057D02*
X228191666Y-136795295D01*
X228191666Y-136795295D02*
X228191666Y-136938152D01*
X228191666Y-136938152D02*
X228239285Y-137033390D01*
X228239285Y-137033390D02*
X228286904Y-137081009D01*
X228286904Y-137081009D02*
X228382142Y-137128628D01*
X228382142Y-137128628D02*
X228763094Y-137128628D01*
X227810713Y-136700057D02*
X227763094Y-136652438D01*
X227763094Y-136652438D02*
X227667856Y-136604819D01*
X227667856Y-136604819D02*
X227429761Y-136604819D01*
X227429761Y-136604819D02*
X227334523Y-136652438D01*
X227334523Y-136652438D02*
X227286904Y-136700057D01*
X227286904Y-136700057D02*
X227239285Y-136795295D01*
X227239285Y-136795295D02*
X227239285Y-136890533D01*
X227239285Y-136890533D02*
X227286904Y-137033390D01*
X227286904Y-137033390D02*
X227858332Y-137604819D01*
X227858332Y-137604819D02*
X227239285Y-137604819D01*
X225767857Y-93591569D02*
X226101190Y-93115378D01*
X226339285Y-93591569D02*
X226339285Y-92591569D01*
X226339285Y-92591569D02*
X225958333Y-92591569D01*
X225958333Y-92591569D02*
X225863095Y-92639188D01*
X225863095Y-92639188D02*
X225815476Y-92686807D01*
X225815476Y-92686807D02*
X225767857Y-92782045D01*
X225767857Y-92782045D02*
X225767857Y-92924902D01*
X225767857Y-92924902D02*
X225815476Y-93020140D01*
X225815476Y-93020140D02*
X225863095Y-93067759D01*
X225863095Y-93067759D02*
X225958333Y-93115378D01*
X225958333Y-93115378D02*
X226339285Y-93115378D01*
X224815476Y-93591569D02*
X225386904Y-93591569D01*
X225101190Y-93591569D02*
X225101190Y-92591569D01*
X225101190Y-92591569D02*
X225196428Y-92734426D01*
X225196428Y-92734426D02*
X225291666Y-92829664D01*
X225291666Y-92829664D02*
X225386904Y-92877283D01*
X224339285Y-93591569D02*
X224148809Y-93591569D01*
X224148809Y-93591569D02*
X224053571Y-93543950D01*
X224053571Y-93543950D02*
X224005952Y-93496330D01*
X224005952Y-93496330D02*
X223910714Y-93353473D01*
X223910714Y-93353473D02*
X223863095Y-93162997D01*
X223863095Y-93162997D02*
X223863095Y-92782045D01*
X223863095Y-92782045D02*
X223910714Y-92686807D01*
X223910714Y-92686807D02*
X223958333Y-92639188D01*
X223958333Y-92639188D02*
X224053571Y-92591569D01*
X224053571Y-92591569D02*
X224244047Y-92591569D01*
X224244047Y-92591569D02*
X224339285Y-92639188D01*
X224339285Y-92639188D02*
X224386904Y-92686807D01*
X224386904Y-92686807D02*
X224434523Y-92782045D01*
X224434523Y-92782045D02*
X224434523Y-93020140D01*
X224434523Y-93020140D02*
X224386904Y-93115378D01*
X224386904Y-93115378D02*
X224339285Y-93162997D01*
X224339285Y-93162997D02*
X224244047Y-93210616D01*
X224244047Y-93210616D02*
X224053571Y-93210616D01*
X224053571Y-93210616D02*
X223958333Y-93162997D01*
X223958333Y-93162997D02*
X223910714Y-93115378D01*
X223910714Y-93115378D02*
X223863095Y-93020140D01*
X250642857Y-110609580D02*
X250690476Y-110657200D01*
X250690476Y-110657200D02*
X250833333Y-110704819D01*
X250833333Y-110704819D02*
X250928571Y-110704819D01*
X250928571Y-110704819D02*
X251071428Y-110657200D01*
X251071428Y-110657200D02*
X251166666Y-110561961D01*
X251166666Y-110561961D02*
X251214285Y-110466723D01*
X251214285Y-110466723D02*
X251261904Y-110276247D01*
X251261904Y-110276247D02*
X251261904Y-110133390D01*
X251261904Y-110133390D02*
X251214285Y-109942914D01*
X251214285Y-109942914D02*
X251166666Y-109847676D01*
X251166666Y-109847676D02*
X251071428Y-109752438D01*
X251071428Y-109752438D02*
X250928571Y-109704819D01*
X250928571Y-109704819D02*
X250833333Y-109704819D01*
X250833333Y-109704819D02*
X250690476Y-109752438D01*
X250690476Y-109752438D02*
X250642857Y-109800057D01*
X249690476Y-110704819D02*
X250261904Y-110704819D01*
X249976190Y-110704819D02*
X249976190Y-109704819D01*
X249976190Y-109704819D02*
X250071428Y-109847676D01*
X250071428Y-109847676D02*
X250166666Y-109942914D01*
X250166666Y-109942914D02*
X250261904Y-109990533D01*
X249214285Y-110704819D02*
X249023809Y-110704819D01*
X249023809Y-110704819D02*
X248928571Y-110657200D01*
X248928571Y-110657200D02*
X248880952Y-110609580D01*
X248880952Y-110609580D02*
X248785714Y-110466723D01*
X248785714Y-110466723D02*
X248738095Y-110276247D01*
X248738095Y-110276247D02*
X248738095Y-109895295D01*
X248738095Y-109895295D02*
X248785714Y-109800057D01*
X248785714Y-109800057D02*
X248833333Y-109752438D01*
X248833333Y-109752438D02*
X248928571Y-109704819D01*
X248928571Y-109704819D02*
X249119047Y-109704819D01*
X249119047Y-109704819D02*
X249214285Y-109752438D01*
X249214285Y-109752438D02*
X249261904Y-109800057D01*
X249261904Y-109800057D02*
X249309523Y-109895295D01*
X249309523Y-109895295D02*
X249309523Y-110133390D01*
X249309523Y-110133390D02*
X249261904Y-110228628D01*
X249261904Y-110228628D02*
X249214285Y-110276247D01*
X249214285Y-110276247D02*
X249119047Y-110323866D01*
X249119047Y-110323866D02*
X248928571Y-110323866D01*
X248928571Y-110323866D02*
X248833333Y-110276247D01*
X248833333Y-110276247D02*
X248785714Y-110228628D01*
X248785714Y-110228628D02*
X248738095Y-110133390D01*
X235484819Y-92655392D02*
X235008628Y-92322059D01*
X235484819Y-92083964D02*
X234484819Y-92083964D01*
X234484819Y-92083964D02*
X234484819Y-92464916D01*
X234484819Y-92464916D02*
X234532438Y-92560154D01*
X234532438Y-92560154D02*
X234580057Y-92607773D01*
X234580057Y-92607773D02*
X234675295Y-92655392D01*
X234675295Y-92655392D02*
X234818152Y-92655392D01*
X234818152Y-92655392D02*
X234913390Y-92607773D01*
X234913390Y-92607773D02*
X234961009Y-92560154D01*
X234961009Y-92560154D02*
X235008628Y-92464916D01*
X235008628Y-92464916D02*
X235008628Y-92083964D01*
X235484819Y-93607773D02*
X235484819Y-93036345D01*
X235484819Y-93322059D02*
X234484819Y-93322059D01*
X234484819Y-93322059D02*
X234627676Y-93226821D01*
X234627676Y-93226821D02*
X234722914Y-93131583D01*
X234722914Y-93131583D02*
X234770533Y-93036345D01*
X235484819Y-94560154D02*
X235484819Y-93988726D01*
X235484819Y-94274440D02*
X234484819Y-94274440D01*
X234484819Y-94274440D02*
X234627676Y-94179202D01*
X234627676Y-94179202D02*
X234722914Y-94083964D01*
X234722914Y-94083964D02*
X234770533Y-93988726D01*
X269072857Y-109574819D02*
X269406190Y-109098628D01*
X269644285Y-109574819D02*
X269644285Y-108574819D01*
X269644285Y-108574819D02*
X269263333Y-108574819D01*
X269263333Y-108574819D02*
X269168095Y-108622438D01*
X269168095Y-108622438D02*
X269120476Y-108670057D01*
X269120476Y-108670057D02*
X269072857Y-108765295D01*
X269072857Y-108765295D02*
X269072857Y-108908152D01*
X269072857Y-108908152D02*
X269120476Y-109003390D01*
X269120476Y-109003390D02*
X269168095Y-109051009D01*
X269168095Y-109051009D02*
X269263333Y-109098628D01*
X269263333Y-109098628D02*
X269644285Y-109098628D01*
X268120476Y-109574819D02*
X268691904Y-109574819D01*
X268406190Y-109574819D02*
X268406190Y-108574819D01*
X268406190Y-108574819D02*
X268501428Y-108717676D01*
X268501428Y-108717676D02*
X268596666Y-108812914D01*
X268596666Y-108812914D02*
X268691904Y-108860533D01*
X267549047Y-109003390D02*
X267644285Y-108955771D01*
X267644285Y-108955771D02*
X267691904Y-108908152D01*
X267691904Y-108908152D02*
X267739523Y-108812914D01*
X267739523Y-108812914D02*
X267739523Y-108765295D01*
X267739523Y-108765295D02*
X267691904Y-108670057D01*
X267691904Y-108670057D02*
X267644285Y-108622438D01*
X267644285Y-108622438D02*
X267549047Y-108574819D01*
X267549047Y-108574819D02*
X267358571Y-108574819D01*
X267358571Y-108574819D02*
X267263333Y-108622438D01*
X267263333Y-108622438D02*
X267215714Y-108670057D01*
X267215714Y-108670057D02*
X267168095Y-108765295D01*
X267168095Y-108765295D02*
X267168095Y-108812914D01*
X267168095Y-108812914D02*
X267215714Y-108908152D01*
X267215714Y-108908152D02*
X267263333Y-108955771D01*
X267263333Y-108955771D02*
X267358571Y-109003390D01*
X267358571Y-109003390D02*
X267549047Y-109003390D01*
X267549047Y-109003390D02*
X267644285Y-109051009D01*
X267644285Y-109051009D02*
X267691904Y-109098628D01*
X267691904Y-109098628D02*
X267739523Y-109193866D01*
X267739523Y-109193866D02*
X267739523Y-109384342D01*
X267739523Y-109384342D02*
X267691904Y-109479580D01*
X267691904Y-109479580D02*
X267644285Y-109527200D01*
X267644285Y-109527200D02*
X267549047Y-109574819D01*
X267549047Y-109574819D02*
X267358571Y-109574819D01*
X267358571Y-109574819D02*
X267263333Y-109527200D01*
X267263333Y-109527200D02*
X267215714Y-109479580D01*
X267215714Y-109479580D02*
X267168095Y-109384342D01*
X267168095Y-109384342D02*
X267168095Y-109193866D01*
X267168095Y-109193866D02*
X267215714Y-109098628D01*
X267215714Y-109098628D02*
X267263333Y-109051009D01*
X267263333Y-109051009D02*
X267358571Y-109003390D01*
X237667857Y-92399819D02*
X238001190Y-91923628D01*
X238239285Y-92399819D02*
X238239285Y-91399819D01*
X238239285Y-91399819D02*
X237858333Y-91399819D01*
X237858333Y-91399819D02*
X237763095Y-91447438D01*
X237763095Y-91447438D02*
X237715476Y-91495057D01*
X237715476Y-91495057D02*
X237667857Y-91590295D01*
X237667857Y-91590295D02*
X237667857Y-91733152D01*
X237667857Y-91733152D02*
X237715476Y-91828390D01*
X237715476Y-91828390D02*
X237763095Y-91876009D01*
X237763095Y-91876009D02*
X237858333Y-91923628D01*
X237858333Y-91923628D02*
X238239285Y-91923628D01*
X236715476Y-92399819D02*
X237286904Y-92399819D01*
X237001190Y-92399819D02*
X237001190Y-91399819D01*
X237001190Y-91399819D02*
X237096428Y-91542676D01*
X237096428Y-91542676D02*
X237191666Y-91637914D01*
X237191666Y-91637914D02*
X237286904Y-91685533D01*
X235858333Y-91399819D02*
X236048809Y-91399819D01*
X236048809Y-91399819D02*
X236144047Y-91447438D01*
X236144047Y-91447438D02*
X236191666Y-91495057D01*
X236191666Y-91495057D02*
X236286904Y-91637914D01*
X236286904Y-91637914D02*
X236334523Y-91828390D01*
X236334523Y-91828390D02*
X236334523Y-92209342D01*
X236334523Y-92209342D02*
X236286904Y-92304580D01*
X236286904Y-92304580D02*
X236239285Y-92352200D01*
X236239285Y-92352200D02*
X236144047Y-92399819D01*
X236144047Y-92399819D02*
X235953571Y-92399819D01*
X235953571Y-92399819D02*
X235858333Y-92352200D01*
X235858333Y-92352200D02*
X235810714Y-92304580D01*
X235810714Y-92304580D02*
X235763095Y-92209342D01*
X235763095Y-92209342D02*
X235763095Y-91971247D01*
X235763095Y-91971247D02*
X235810714Y-91876009D01*
X235810714Y-91876009D02*
X235858333Y-91828390D01*
X235858333Y-91828390D02*
X235953571Y-91780771D01*
X235953571Y-91780771D02*
X236144047Y-91780771D01*
X236144047Y-91780771D02*
X236239285Y-91828390D01*
X236239285Y-91828390D02*
X236286904Y-91876009D01*
X236286904Y-91876009D02*
X236334523Y-91971247D01*
X228503066Y-104135280D02*
X228550685Y-104182900D01*
X228550685Y-104182900D02*
X228693542Y-104230519D01*
X228693542Y-104230519D02*
X228788780Y-104230519D01*
X228788780Y-104230519D02*
X228931637Y-104182900D01*
X228931637Y-104182900D02*
X229026875Y-104087661D01*
X229026875Y-104087661D02*
X229074494Y-103992423D01*
X229074494Y-103992423D02*
X229122113Y-103801947D01*
X229122113Y-103801947D02*
X229122113Y-103659090D01*
X229122113Y-103659090D02*
X229074494Y-103468614D01*
X229074494Y-103468614D02*
X229026875Y-103373376D01*
X229026875Y-103373376D02*
X228931637Y-103278138D01*
X228931637Y-103278138D02*
X228788780Y-103230519D01*
X228788780Y-103230519D02*
X228693542Y-103230519D01*
X228693542Y-103230519D02*
X228550685Y-103278138D01*
X228550685Y-103278138D02*
X228503066Y-103325757D01*
X228169732Y-103230519D02*
X227550685Y-103230519D01*
X227550685Y-103230519D02*
X227884018Y-103611471D01*
X227884018Y-103611471D02*
X227741161Y-103611471D01*
X227741161Y-103611471D02*
X227645923Y-103659090D01*
X227645923Y-103659090D02*
X227598304Y-103706709D01*
X227598304Y-103706709D02*
X227550685Y-103801947D01*
X227550685Y-103801947D02*
X227550685Y-104040042D01*
X227550685Y-104040042D02*
X227598304Y-104135280D01*
X227598304Y-104135280D02*
X227645923Y-104182900D01*
X227645923Y-104182900D02*
X227741161Y-104230519D01*
X227741161Y-104230519D02*
X228026875Y-104230519D01*
X228026875Y-104230519D02*
X228122113Y-104182900D01*
X228122113Y-104182900D02*
X228169732Y-104135280D01*
X233804580Y-96188333D02*
X233852200Y-96140714D01*
X233852200Y-96140714D02*
X233899819Y-95997857D01*
X233899819Y-95997857D02*
X233899819Y-95902619D01*
X233899819Y-95902619D02*
X233852200Y-95759762D01*
X233852200Y-95759762D02*
X233756961Y-95664524D01*
X233756961Y-95664524D02*
X233661723Y-95616905D01*
X233661723Y-95616905D02*
X233471247Y-95569286D01*
X233471247Y-95569286D02*
X233328390Y-95569286D01*
X233328390Y-95569286D02*
X233137914Y-95616905D01*
X233137914Y-95616905D02*
X233042676Y-95664524D01*
X233042676Y-95664524D02*
X232947438Y-95759762D01*
X232947438Y-95759762D02*
X232899819Y-95902619D01*
X232899819Y-95902619D02*
X232899819Y-95997857D01*
X232899819Y-95997857D02*
X232947438Y-96140714D01*
X232947438Y-96140714D02*
X232995057Y-96188333D01*
X232899819Y-97045476D02*
X232899819Y-96855000D01*
X232899819Y-96855000D02*
X232947438Y-96759762D01*
X232947438Y-96759762D02*
X232995057Y-96712143D01*
X232995057Y-96712143D02*
X233137914Y-96616905D01*
X233137914Y-96616905D02*
X233328390Y-96569286D01*
X233328390Y-96569286D02*
X233709342Y-96569286D01*
X233709342Y-96569286D02*
X233804580Y-96616905D01*
X233804580Y-96616905D02*
X233852200Y-96664524D01*
X233852200Y-96664524D02*
X233899819Y-96759762D01*
X233899819Y-96759762D02*
X233899819Y-96950238D01*
X233899819Y-96950238D02*
X233852200Y-97045476D01*
X233852200Y-97045476D02*
X233804580Y-97093095D01*
X233804580Y-97093095D02*
X233709342Y-97140714D01*
X233709342Y-97140714D02*
X233471247Y-97140714D01*
X233471247Y-97140714D02*
X233376009Y-97093095D01*
X233376009Y-97093095D02*
X233328390Y-97045476D01*
X233328390Y-97045476D02*
X233280771Y-96950238D01*
X233280771Y-96950238D02*
X233280771Y-96759762D01*
X233280771Y-96759762D02*
X233328390Y-96664524D01*
X233328390Y-96664524D02*
X233376009Y-96616905D01*
X233376009Y-96616905D02*
X233471247Y-96569286D01*
X242719819Y-90182142D02*
X242243628Y-89848809D01*
X242719819Y-89610714D02*
X241719819Y-89610714D01*
X241719819Y-89610714D02*
X241719819Y-89991666D01*
X241719819Y-89991666D02*
X241767438Y-90086904D01*
X241767438Y-90086904D02*
X241815057Y-90134523D01*
X241815057Y-90134523D02*
X241910295Y-90182142D01*
X241910295Y-90182142D02*
X242053152Y-90182142D01*
X242053152Y-90182142D02*
X242148390Y-90134523D01*
X242148390Y-90134523D02*
X242196009Y-90086904D01*
X242196009Y-90086904D02*
X242243628Y-89991666D01*
X242243628Y-89991666D02*
X242243628Y-89610714D01*
X241815057Y-90563095D02*
X241767438Y-90610714D01*
X241767438Y-90610714D02*
X241719819Y-90705952D01*
X241719819Y-90705952D02*
X241719819Y-90944047D01*
X241719819Y-90944047D02*
X241767438Y-91039285D01*
X241767438Y-91039285D02*
X241815057Y-91086904D01*
X241815057Y-91086904D02*
X241910295Y-91134523D01*
X241910295Y-91134523D02*
X242005533Y-91134523D01*
X242005533Y-91134523D02*
X242148390Y-91086904D01*
X242148390Y-91086904D02*
X242719819Y-90515476D01*
X242719819Y-90515476D02*
X242719819Y-91134523D01*
X241719819Y-91991666D02*
X241719819Y-91801190D01*
X241719819Y-91801190D02*
X241767438Y-91705952D01*
X241767438Y-91705952D02*
X241815057Y-91658333D01*
X241815057Y-91658333D02*
X241957914Y-91563095D01*
X241957914Y-91563095D02*
X242148390Y-91515476D01*
X242148390Y-91515476D02*
X242529342Y-91515476D01*
X242529342Y-91515476D02*
X242624580Y-91563095D01*
X242624580Y-91563095D02*
X242672200Y-91610714D01*
X242672200Y-91610714D02*
X242719819Y-91705952D01*
X242719819Y-91705952D02*
X242719819Y-91896428D01*
X242719819Y-91896428D02*
X242672200Y-91991666D01*
X242672200Y-91991666D02*
X242624580Y-92039285D01*
X242624580Y-92039285D02*
X242529342Y-92086904D01*
X242529342Y-92086904D02*
X242291247Y-92086904D01*
X242291247Y-92086904D02*
X242196009Y-92039285D01*
X242196009Y-92039285D02*
X242148390Y-91991666D01*
X242148390Y-91991666D02*
X242100771Y-91896428D01*
X242100771Y-91896428D02*
X242100771Y-91705952D01*
X242100771Y-91705952D02*
X242148390Y-91610714D01*
X242148390Y-91610714D02*
X242196009Y-91563095D01*
X242196009Y-91563095D02*
X242291247Y-91515476D01*
X250667857Y-109074580D02*
X250715476Y-109122200D01*
X250715476Y-109122200D02*
X250858333Y-109169819D01*
X250858333Y-109169819D02*
X250953571Y-109169819D01*
X250953571Y-109169819D02*
X251096428Y-109122200D01*
X251096428Y-109122200D02*
X251191666Y-109026961D01*
X251191666Y-109026961D02*
X251239285Y-108931723D01*
X251239285Y-108931723D02*
X251286904Y-108741247D01*
X251286904Y-108741247D02*
X251286904Y-108598390D01*
X251286904Y-108598390D02*
X251239285Y-108407914D01*
X251239285Y-108407914D02*
X251191666Y-108312676D01*
X251191666Y-108312676D02*
X251096428Y-108217438D01*
X251096428Y-108217438D02*
X250953571Y-108169819D01*
X250953571Y-108169819D02*
X250858333Y-108169819D01*
X250858333Y-108169819D02*
X250715476Y-108217438D01*
X250715476Y-108217438D02*
X250667857Y-108265057D01*
X250286904Y-108265057D02*
X250239285Y-108217438D01*
X250239285Y-108217438D02*
X250144047Y-108169819D01*
X250144047Y-108169819D02*
X249905952Y-108169819D01*
X249905952Y-108169819D02*
X249810714Y-108217438D01*
X249810714Y-108217438D02*
X249763095Y-108265057D01*
X249763095Y-108265057D02*
X249715476Y-108360295D01*
X249715476Y-108360295D02*
X249715476Y-108455533D01*
X249715476Y-108455533D02*
X249763095Y-108598390D01*
X249763095Y-108598390D02*
X250334523Y-109169819D01*
X250334523Y-109169819D02*
X249715476Y-109169819D01*
X248763095Y-109169819D02*
X249334523Y-109169819D01*
X249048809Y-109169819D02*
X249048809Y-108169819D01*
X249048809Y-108169819D02*
X249144047Y-108312676D01*
X249144047Y-108312676D02*
X249239285Y-108407914D01*
X249239285Y-108407914D02*
X249334523Y-108455533D01*
X259368094Y-106364819D02*
X259368094Y-105364819D01*
X259368094Y-105364819D02*
X259129999Y-105364819D01*
X259129999Y-105364819D02*
X258987142Y-105412438D01*
X258987142Y-105412438D02*
X258891904Y-105507676D01*
X258891904Y-105507676D02*
X258844285Y-105602914D01*
X258844285Y-105602914D02*
X258796666Y-105793390D01*
X258796666Y-105793390D02*
X258796666Y-105936247D01*
X258796666Y-105936247D02*
X258844285Y-106126723D01*
X258844285Y-106126723D02*
X258891904Y-106221961D01*
X258891904Y-106221961D02*
X258987142Y-106317200D01*
X258987142Y-106317200D02*
X259129999Y-106364819D01*
X259129999Y-106364819D02*
X259368094Y-106364819D01*
X258415713Y-105460057D02*
X258368094Y-105412438D01*
X258368094Y-105412438D02*
X258272856Y-105364819D01*
X258272856Y-105364819D02*
X258034761Y-105364819D01*
X258034761Y-105364819D02*
X257939523Y-105412438D01*
X257939523Y-105412438D02*
X257891904Y-105460057D01*
X257891904Y-105460057D02*
X257844285Y-105555295D01*
X257844285Y-105555295D02*
X257844285Y-105650533D01*
X257844285Y-105650533D02*
X257891904Y-105793390D01*
X257891904Y-105793390D02*
X258463332Y-106364819D01*
X258463332Y-106364819D02*
X257844285Y-106364819D01*
X265579166Y-85349819D02*
X265912499Y-84873628D01*
X266150594Y-85349819D02*
X266150594Y-84349819D01*
X266150594Y-84349819D02*
X265769642Y-84349819D01*
X265769642Y-84349819D02*
X265674404Y-84397438D01*
X265674404Y-84397438D02*
X265626785Y-84445057D01*
X265626785Y-84445057D02*
X265579166Y-84540295D01*
X265579166Y-84540295D02*
X265579166Y-84683152D01*
X265579166Y-84683152D02*
X265626785Y-84778390D01*
X265626785Y-84778390D02*
X265674404Y-84826009D01*
X265674404Y-84826009D02*
X265769642Y-84873628D01*
X265769642Y-84873628D02*
X266150594Y-84873628D01*
X264722023Y-84683152D02*
X264722023Y-85349819D01*
X264960118Y-84302200D02*
X265198213Y-85016485D01*
X265198213Y-85016485D02*
X264579166Y-85016485D01*
X252667857Y-115439819D02*
X253001190Y-114963628D01*
X253239285Y-115439819D02*
X253239285Y-114439819D01*
X253239285Y-114439819D02*
X252858333Y-114439819D01*
X252858333Y-114439819D02*
X252763095Y-114487438D01*
X252763095Y-114487438D02*
X252715476Y-114535057D01*
X252715476Y-114535057D02*
X252667857Y-114630295D01*
X252667857Y-114630295D02*
X252667857Y-114773152D01*
X252667857Y-114773152D02*
X252715476Y-114868390D01*
X252715476Y-114868390D02*
X252763095Y-114916009D01*
X252763095Y-114916009D02*
X252858333Y-114963628D01*
X252858333Y-114963628D02*
X253239285Y-114963628D01*
X252286904Y-114535057D02*
X252239285Y-114487438D01*
X252239285Y-114487438D02*
X252144047Y-114439819D01*
X252144047Y-114439819D02*
X251905952Y-114439819D01*
X251905952Y-114439819D02*
X251810714Y-114487438D01*
X251810714Y-114487438D02*
X251763095Y-114535057D01*
X251763095Y-114535057D02*
X251715476Y-114630295D01*
X251715476Y-114630295D02*
X251715476Y-114725533D01*
X251715476Y-114725533D02*
X251763095Y-114868390D01*
X251763095Y-114868390D02*
X252334523Y-115439819D01*
X252334523Y-115439819D02*
X251715476Y-115439819D01*
X251382142Y-114439819D02*
X250763095Y-114439819D01*
X250763095Y-114439819D02*
X251096428Y-114820771D01*
X251096428Y-114820771D02*
X250953571Y-114820771D01*
X250953571Y-114820771D02*
X250858333Y-114868390D01*
X250858333Y-114868390D02*
X250810714Y-114916009D01*
X250810714Y-114916009D02*
X250763095Y-115011247D01*
X250763095Y-115011247D02*
X250763095Y-115249342D01*
X250763095Y-115249342D02*
X250810714Y-115344580D01*
X250810714Y-115344580D02*
X250858333Y-115392200D01*
X250858333Y-115392200D02*
X250953571Y-115439819D01*
X250953571Y-115439819D02*
X251239285Y-115439819D01*
X251239285Y-115439819D02*
X251334523Y-115392200D01*
X251334523Y-115392200D02*
X251382142Y-115344580D01*
X235787857Y-104544580D02*
X235835476Y-104592200D01*
X235835476Y-104592200D02*
X235978333Y-104639819D01*
X235978333Y-104639819D02*
X236073571Y-104639819D01*
X236073571Y-104639819D02*
X236216428Y-104592200D01*
X236216428Y-104592200D02*
X236311666Y-104496961D01*
X236311666Y-104496961D02*
X236359285Y-104401723D01*
X236359285Y-104401723D02*
X236406904Y-104211247D01*
X236406904Y-104211247D02*
X236406904Y-104068390D01*
X236406904Y-104068390D02*
X236359285Y-103877914D01*
X236359285Y-103877914D02*
X236311666Y-103782676D01*
X236311666Y-103782676D02*
X236216428Y-103687438D01*
X236216428Y-103687438D02*
X236073571Y-103639819D01*
X236073571Y-103639819D02*
X235978333Y-103639819D01*
X235978333Y-103639819D02*
X235835476Y-103687438D01*
X235835476Y-103687438D02*
X235787857Y-103735057D01*
X235406904Y-103735057D02*
X235359285Y-103687438D01*
X235359285Y-103687438D02*
X235264047Y-103639819D01*
X235264047Y-103639819D02*
X235025952Y-103639819D01*
X235025952Y-103639819D02*
X234930714Y-103687438D01*
X234930714Y-103687438D02*
X234883095Y-103735057D01*
X234883095Y-103735057D02*
X234835476Y-103830295D01*
X234835476Y-103830295D02*
X234835476Y-103925533D01*
X234835476Y-103925533D02*
X234883095Y-104068390D01*
X234883095Y-104068390D02*
X235454523Y-104639819D01*
X235454523Y-104639819D02*
X234835476Y-104639819D01*
X234264047Y-104068390D02*
X234359285Y-104020771D01*
X234359285Y-104020771D02*
X234406904Y-103973152D01*
X234406904Y-103973152D02*
X234454523Y-103877914D01*
X234454523Y-103877914D02*
X234454523Y-103830295D01*
X234454523Y-103830295D02*
X234406904Y-103735057D01*
X234406904Y-103735057D02*
X234359285Y-103687438D01*
X234359285Y-103687438D02*
X234264047Y-103639819D01*
X234264047Y-103639819D02*
X234073571Y-103639819D01*
X234073571Y-103639819D02*
X233978333Y-103687438D01*
X233978333Y-103687438D02*
X233930714Y-103735057D01*
X233930714Y-103735057D02*
X233883095Y-103830295D01*
X233883095Y-103830295D02*
X233883095Y-103877914D01*
X233883095Y-103877914D02*
X233930714Y-103973152D01*
X233930714Y-103973152D02*
X233978333Y-104020771D01*
X233978333Y-104020771D02*
X234073571Y-104068390D01*
X234073571Y-104068390D02*
X234264047Y-104068390D01*
X234264047Y-104068390D02*
X234359285Y-104116009D01*
X234359285Y-104116009D02*
X234406904Y-104163628D01*
X234406904Y-104163628D02*
X234454523Y-104258866D01*
X234454523Y-104258866D02*
X234454523Y-104449342D01*
X234454523Y-104449342D02*
X234406904Y-104544580D01*
X234406904Y-104544580D02*
X234359285Y-104592200D01*
X234359285Y-104592200D02*
X234264047Y-104639819D01*
X234264047Y-104639819D02*
X234073571Y-104639819D01*
X234073571Y-104639819D02*
X233978333Y-104592200D01*
X233978333Y-104592200D02*
X233930714Y-104544580D01*
X233930714Y-104544580D02*
X233883095Y-104449342D01*
X233883095Y-104449342D02*
X233883095Y-104258866D01*
X233883095Y-104258866D02*
X233930714Y-104163628D01*
X233930714Y-104163628D02*
X233978333Y-104116009D01*
X233978333Y-104116009D02*
X234073571Y-104068390D01*
X247467857Y-88659580D02*
X247515476Y-88707200D01*
X247515476Y-88707200D02*
X247658333Y-88754819D01*
X247658333Y-88754819D02*
X247753571Y-88754819D01*
X247753571Y-88754819D02*
X247896428Y-88707200D01*
X247896428Y-88707200D02*
X247991666Y-88611961D01*
X247991666Y-88611961D02*
X248039285Y-88516723D01*
X248039285Y-88516723D02*
X248086904Y-88326247D01*
X248086904Y-88326247D02*
X248086904Y-88183390D01*
X248086904Y-88183390D02*
X248039285Y-87992914D01*
X248039285Y-87992914D02*
X247991666Y-87897676D01*
X247991666Y-87897676D02*
X247896428Y-87802438D01*
X247896428Y-87802438D02*
X247753571Y-87754819D01*
X247753571Y-87754819D02*
X247658333Y-87754819D01*
X247658333Y-87754819D02*
X247515476Y-87802438D01*
X247515476Y-87802438D02*
X247467857Y-87850057D01*
X246515476Y-88754819D02*
X247086904Y-88754819D01*
X246801190Y-88754819D02*
X246801190Y-87754819D01*
X246801190Y-87754819D02*
X246896428Y-87897676D01*
X246896428Y-87897676D02*
X246991666Y-87992914D01*
X246991666Y-87992914D02*
X247086904Y-88040533D01*
X245944047Y-88183390D02*
X246039285Y-88135771D01*
X246039285Y-88135771D02*
X246086904Y-88088152D01*
X246086904Y-88088152D02*
X246134523Y-87992914D01*
X246134523Y-87992914D02*
X246134523Y-87945295D01*
X246134523Y-87945295D02*
X246086904Y-87850057D01*
X246086904Y-87850057D02*
X246039285Y-87802438D01*
X246039285Y-87802438D02*
X245944047Y-87754819D01*
X245944047Y-87754819D02*
X245753571Y-87754819D01*
X245753571Y-87754819D02*
X245658333Y-87802438D01*
X245658333Y-87802438D02*
X245610714Y-87850057D01*
X245610714Y-87850057D02*
X245563095Y-87945295D01*
X245563095Y-87945295D02*
X245563095Y-87992914D01*
X245563095Y-87992914D02*
X245610714Y-88088152D01*
X245610714Y-88088152D02*
X245658333Y-88135771D01*
X245658333Y-88135771D02*
X245753571Y-88183390D01*
X245753571Y-88183390D02*
X245944047Y-88183390D01*
X245944047Y-88183390D02*
X246039285Y-88231009D01*
X246039285Y-88231009D02*
X246086904Y-88278628D01*
X246086904Y-88278628D02*
X246134523Y-88373866D01*
X246134523Y-88373866D02*
X246134523Y-88564342D01*
X246134523Y-88564342D02*
X246086904Y-88659580D01*
X246086904Y-88659580D02*
X246039285Y-88707200D01*
X246039285Y-88707200D02*
X245944047Y-88754819D01*
X245944047Y-88754819D02*
X245753571Y-88754819D01*
X245753571Y-88754819D02*
X245658333Y-88707200D01*
X245658333Y-88707200D02*
X245610714Y-88659580D01*
X245610714Y-88659580D02*
X245563095Y-88564342D01*
X245563095Y-88564342D02*
X245563095Y-88373866D01*
X245563095Y-88373866D02*
X245610714Y-88278628D01*
X245610714Y-88278628D02*
X245658333Y-88231009D01*
X245658333Y-88231009D02*
X245753571Y-88183390D01*
X253554285Y-85094819D02*
X253554285Y-84094819D01*
X253554285Y-84094819D02*
X253316190Y-84094819D01*
X253316190Y-84094819D02*
X253173333Y-84142438D01*
X253173333Y-84142438D02*
X253078095Y-84237676D01*
X253078095Y-84237676D02*
X253030476Y-84332914D01*
X253030476Y-84332914D02*
X252982857Y-84523390D01*
X252982857Y-84523390D02*
X252982857Y-84666247D01*
X252982857Y-84666247D02*
X253030476Y-84856723D01*
X253030476Y-84856723D02*
X253078095Y-84951961D01*
X253078095Y-84951961D02*
X253173333Y-85047200D01*
X253173333Y-85047200D02*
X253316190Y-85094819D01*
X253316190Y-85094819D02*
X253554285Y-85094819D01*
X252030476Y-85094819D02*
X252601904Y-85094819D01*
X252316190Y-85094819D02*
X252316190Y-84094819D01*
X252316190Y-84094819D02*
X252411428Y-84237676D01*
X252411428Y-84237676D02*
X252506666Y-84332914D01*
X252506666Y-84332914D02*
X252601904Y-84380533D01*
X251411428Y-84094819D02*
X251316190Y-84094819D01*
X251316190Y-84094819D02*
X251220952Y-84142438D01*
X251220952Y-84142438D02*
X251173333Y-84190057D01*
X251173333Y-84190057D02*
X251125714Y-84285295D01*
X251125714Y-84285295D02*
X251078095Y-84475771D01*
X251078095Y-84475771D02*
X251078095Y-84713866D01*
X251078095Y-84713866D02*
X251125714Y-84904342D01*
X251125714Y-84904342D02*
X251173333Y-84999580D01*
X251173333Y-84999580D02*
X251220952Y-85047200D01*
X251220952Y-85047200D02*
X251316190Y-85094819D01*
X251316190Y-85094819D02*
X251411428Y-85094819D01*
X251411428Y-85094819D02*
X251506666Y-85047200D01*
X251506666Y-85047200D02*
X251554285Y-84999580D01*
X251554285Y-84999580D02*
X251601904Y-84904342D01*
X251601904Y-84904342D02*
X251649523Y-84713866D01*
X251649523Y-84713866D02*
X251649523Y-84475771D01*
X251649523Y-84475771D02*
X251601904Y-84285295D01*
X251601904Y-84285295D02*
X251554285Y-84190057D01*
X251554285Y-84190057D02*
X251506666Y-84142438D01*
X251506666Y-84142438D02*
X251411428Y-84094819D01*
X253029580Y-98532142D02*
X253077200Y-98484523D01*
X253077200Y-98484523D02*
X253124819Y-98341666D01*
X253124819Y-98341666D02*
X253124819Y-98246428D01*
X253124819Y-98246428D02*
X253077200Y-98103571D01*
X253077200Y-98103571D02*
X252981961Y-98008333D01*
X252981961Y-98008333D02*
X252886723Y-97960714D01*
X252886723Y-97960714D02*
X252696247Y-97913095D01*
X252696247Y-97913095D02*
X252553390Y-97913095D01*
X252553390Y-97913095D02*
X252362914Y-97960714D01*
X252362914Y-97960714D02*
X252267676Y-98008333D01*
X252267676Y-98008333D02*
X252172438Y-98103571D01*
X252172438Y-98103571D02*
X252124819Y-98246428D01*
X252124819Y-98246428D02*
X252124819Y-98341666D01*
X252124819Y-98341666D02*
X252172438Y-98484523D01*
X252172438Y-98484523D02*
X252220057Y-98532142D01*
X252220057Y-98913095D02*
X252172438Y-98960714D01*
X252172438Y-98960714D02*
X252124819Y-99055952D01*
X252124819Y-99055952D02*
X252124819Y-99294047D01*
X252124819Y-99294047D02*
X252172438Y-99389285D01*
X252172438Y-99389285D02*
X252220057Y-99436904D01*
X252220057Y-99436904D02*
X252315295Y-99484523D01*
X252315295Y-99484523D02*
X252410533Y-99484523D01*
X252410533Y-99484523D02*
X252553390Y-99436904D01*
X252553390Y-99436904D02*
X253124819Y-98865476D01*
X253124819Y-98865476D02*
X253124819Y-99484523D01*
X252458152Y-100341666D02*
X253124819Y-100341666D01*
X252077200Y-100103571D02*
X252791485Y-99865476D01*
X252791485Y-99865476D02*
X252791485Y-100484523D01*
X268596666Y-107064819D02*
X268929999Y-106588628D01*
X269168094Y-107064819D02*
X269168094Y-106064819D01*
X269168094Y-106064819D02*
X268787142Y-106064819D01*
X268787142Y-106064819D02*
X268691904Y-106112438D01*
X268691904Y-106112438D02*
X268644285Y-106160057D01*
X268644285Y-106160057D02*
X268596666Y-106255295D01*
X268596666Y-106255295D02*
X268596666Y-106398152D01*
X268596666Y-106398152D02*
X268644285Y-106493390D01*
X268644285Y-106493390D02*
X268691904Y-106541009D01*
X268691904Y-106541009D02*
X268787142Y-106588628D01*
X268787142Y-106588628D02*
X269168094Y-106588628D01*
X267691904Y-106064819D02*
X268168094Y-106064819D01*
X268168094Y-106064819D02*
X268215713Y-106541009D01*
X268215713Y-106541009D02*
X268168094Y-106493390D01*
X268168094Y-106493390D02*
X268072856Y-106445771D01*
X268072856Y-106445771D02*
X267834761Y-106445771D01*
X267834761Y-106445771D02*
X267739523Y-106493390D01*
X267739523Y-106493390D02*
X267691904Y-106541009D01*
X267691904Y-106541009D02*
X267644285Y-106636247D01*
X267644285Y-106636247D02*
X267644285Y-106874342D01*
X267644285Y-106874342D02*
X267691904Y-106969580D01*
X267691904Y-106969580D02*
X267739523Y-107017200D01*
X267739523Y-107017200D02*
X267834761Y-107064819D01*
X267834761Y-107064819D02*
X268072856Y-107064819D01*
X268072856Y-107064819D02*
X268168094Y-107017200D01*
X268168094Y-107017200D02*
X268215713Y-106969580D01*
X243419580Y-118907142D02*
X243467200Y-118859523D01*
X243467200Y-118859523D02*
X243514819Y-118716666D01*
X243514819Y-118716666D02*
X243514819Y-118621428D01*
X243514819Y-118621428D02*
X243467200Y-118478571D01*
X243467200Y-118478571D02*
X243371961Y-118383333D01*
X243371961Y-118383333D02*
X243276723Y-118335714D01*
X243276723Y-118335714D02*
X243086247Y-118288095D01*
X243086247Y-118288095D02*
X242943390Y-118288095D01*
X242943390Y-118288095D02*
X242752914Y-118335714D01*
X242752914Y-118335714D02*
X242657676Y-118383333D01*
X242657676Y-118383333D02*
X242562438Y-118478571D01*
X242562438Y-118478571D02*
X242514819Y-118621428D01*
X242514819Y-118621428D02*
X242514819Y-118716666D01*
X242514819Y-118716666D02*
X242562438Y-118859523D01*
X242562438Y-118859523D02*
X242610057Y-118907142D01*
X243514819Y-119859523D02*
X243514819Y-119288095D01*
X243514819Y-119573809D02*
X242514819Y-119573809D01*
X242514819Y-119573809D02*
X242657676Y-119478571D01*
X242657676Y-119478571D02*
X242752914Y-119383333D01*
X242752914Y-119383333D02*
X242800533Y-119288095D01*
X242848152Y-120716666D02*
X243514819Y-120716666D01*
X242467200Y-120478571D02*
X243181485Y-120240476D01*
X243181485Y-120240476D02*
X243181485Y-120859523D01*
X232269404Y-92447319D02*
X232269404Y-93256842D01*
X232269404Y-93256842D02*
X232221785Y-93352080D01*
X232221785Y-93352080D02*
X232174166Y-93399700D01*
X232174166Y-93399700D02*
X232078928Y-93447319D01*
X232078928Y-93447319D02*
X231888452Y-93447319D01*
X231888452Y-93447319D02*
X231793214Y-93399700D01*
X231793214Y-93399700D02*
X231745595Y-93352080D01*
X231745595Y-93352080D02*
X231697976Y-93256842D01*
X231697976Y-93256842D02*
X231697976Y-92447319D01*
X230793214Y-92447319D02*
X230983690Y-92447319D01*
X230983690Y-92447319D02*
X231078928Y-92494938D01*
X231078928Y-92494938D02*
X231126547Y-92542557D01*
X231126547Y-92542557D02*
X231221785Y-92685414D01*
X231221785Y-92685414D02*
X231269404Y-92875890D01*
X231269404Y-92875890D02*
X231269404Y-93256842D01*
X231269404Y-93256842D02*
X231221785Y-93352080D01*
X231221785Y-93352080D02*
X231174166Y-93399700D01*
X231174166Y-93399700D02*
X231078928Y-93447319D01*
X231078928Y-93447319D02*
X230888452Y-93447319D01*
X230888452Y-93447319D02*
X230793214Y-93399700D01*
X230793214Y-93399700D02*
X230745595Y-93352080D01*
X230745595Y-93352080D02*
X230697976Y-93256842D01*
X230697976Y-93256842D02*
X230697976Y-93018747D01*
X230697976Y-93018747D02*
X230745595Y-92923509D01*
X230745595Y-92923509D02*
X230793214Y-92875890D01*
X230793214Y-92875890D02*
X230888452Y-92828271D01*
X230888452Y-92828271D02*
X231078928Y-92828271D01*
X231078928Y-92828271D02*
X231174166Y-92875890D01*
X231174166Y-92875890D02*
X231221785Y-92923509D01*
X231221785Y-92923509D02*
X231269404Y-93018747D01*
X243604580Y-109232142D02*
X243652200Y-109184523D01*
X243652200Y-109184523D02*
X243699819Y-109041666D01*
X243699819Y-109041666D02*
X243699819Y-108946428D01*
X243699819Y-108946428D02*
X243652200Y-108803571D01*
X243652200Y-108803571D02*
X243556961Y-108708333D01*
X243556961Y-108708333D02*
X243461723Y-108660714D01*
X243461723Y-108660714D02*
X243271247Y-108613095D01*
X243271247Y-108613095D02*
X243128390Y-108613095D01*
X243128390Y-108613095D02*
X242937914Y-108660714D01*
X242937914Y-108660714D02*
X242842676Y-108708333D01*
X242842676Y-108708333D02*
X242747438Y-108803571D01*
X242747438Y-108803571D02*
X242699819Y-108946428D01*
X242699819Y-108946428D02*
X242699819Y-109041666D01*
X242699819Y-109041666D02*
X242747438Y-109184523D01*
X242747438Y-109184523D02*
X242795057Y-109232142D01*
X243699819Y-110184523D02*
X243699819Y-109613095D01*
X243699819Y-109898809D02*
X242699819Y-109898809D01*
X242699819Y-109898809D02*
X242842676Y-109803571D01*
X242842676Y-109803571D02*
X242937914Y-109708333D01*
X242937914Y-109708333D02*
X242985533Y-109613095D01*
X242699819Y-110517857D02*
X242699819Y-111136904D01*
X242699819Y-111136904D02*
X243080771Y-110803571D01*
X243080771Y-110803571D02*
X243080771Y-110946428D01*
X243080771Y-110946428D02*
X243128390Y-111041666D01*
X243128390Y-111041666D02*
X243176009Y-111089285D01*
X243176009Y-111089285D02*
X243271247Y-111136904D01*
X243271247Y-111136904D02*
X243509342Y-111136904D01*
X243509342Y-111136904D02*
X243604580Y-111089285D01*
X243604580Y-111089285D02*
X243652200Y-111041666D01*
X243652200Y-111041666D02*
X243699819Y-110946428D01*
X243699819Y-110946428D02*
X243699819Y-110660714D01*
X243699819Y-110660714D02*
X243652200Y-110565476D01*
X243652200Y-110565476D02*
X243604580Y-110517857D01*
X227129819Y-84882142D02*
X226653628Y-84548809D01*
X227129819Y-84310714D02*
X226129819Y-84310714D01*
X226129819Y-84310714D02*
X226129819Y-84691666D01*
X226129819Y-84691666D02*
X226177438Y-84786904D01*
X226177438Y-84786904D02*
X226225057Y-84834523D01*
X226225057Y-84834523D02*
X226320295Y-84882142D01*
X226320295Y-84882142D02*
X226463152Y-84882142D01*
X226463152Y-84882142D02*
X226558390Y-84834523D01*
X226558390Y-84834523D02*
X226606009Y-84786904D01*
X226606009Y-84786904D02*
X226653628Y-84691666D01*
X226653628Y-84691666D02*
X226653628Y-84310714D01*
X227129819Y-85834523D02*
X227129819Y-85263095D01*
X227129819Y-85548809D02*
X226129819Y-85548809D01*
X226129819Y-85548809D02*
X226272676Y-85453571D01*
X226272676Y-85453571D02*
X226367914Y-85358333D01*
X226367914Y-85358333D02*
X226415533Y-85263095D01*
X226129819Y-86167857D02*
X226129819Y-86786904D01*
X226129819Y-86786904D02*
X226510771Y-86453571D01*
X226510771Y-86453571D02*
X226510771Y-86596428D01*
X226510771Y-86596428D02*
X226558390Y-86691666D01*
X226558390Y-86691666D02*
X226606009Y-86739285D01*
X226606009Y-86739285D02*
X226701247Y-86786904D01*
X226701247Y-86786904D02*
X226939342Y-86786904D01*
X226939342Y-86786904D02*
X227034580Y-86739285D01*
X227034580Y-86739285D02*
X227082200Y-86691666D01*
X227082200Y-86691666D02*
X227129819Y-86596428D01*
X227129819Y-86596428D02*
X227129819Y-86310714D01*
X227129819Y-86310714D02*
X227082200Y-86215476D01*
X227082200Y-86215476D02*
X227034580Y-86167857D01*
X247904580Y-116362142D02*
X247952200Y-116314523D01*
X247952200Y-116314523D02*
X247999819Y-116171666D01*
X247999819Y-116171666D02*
X247999819Y-116076428D01*
X247999819Y-116076428D02*
X247952200Y-115933571D01*
X247952200Y-115933571D02*
X247856961Y-115838333D01*
X247856961Y-115838333D02*
X247761723Y-115790714D01*
X247761723Y-115790714D02*
X247571247Y-115743095D01*
X247571247Y-115743095D02*
X247428390Y-115743095D01*
X247428390Y-115743095D02*
X247237914Y-115790714D01*
X247237914Y-115790714D02*
X247142676Y-115838333D01*
X247142676Y-115838333D02*
X247047438Y-115933571D01*
X247047438Y-115933571D02*
X246999819Y-116076428D01*
X246999819Y-116076428D02*
X246999819Y-116171666D01*
X246999819Y-116171666D02*
X247047438Y-116314523D01*
X247047438Y-116314523D02*
X247095057Y-116362142D01*
X247999819Y-117314523D02*
X247999819Y-116743095D01*
X247999819Y-117028809D02*
X246999819Y-117028809D01*
X246999819Y-117028809D02*
X247142676Y-116933571D01*
X247142676Y-116933571D02*
X247237914Y-116838333D01*
X247237914Y-116838333D02*
X247285533Y-116743095D01*
X247095057Y-117695476D02*
X247047438Y-117743095D01*
X247047438Y-117743095D02*
X246999819Y-117838333D01*
X246999819Y-117838333D02*
X246999819Y-118076428D01*
X246999819Y-118076428D02*
X247047438Y-118171666D01*
X247047438Y-118171666D02*
X247095057Y-118219285D01*
X247095057Y-118219285D02*
X247190295Y-118266904D01*
X247190295Y-118266904D02*
X247285533Y-118266904D01*
X247285533Y-118266904D02*
X247428390Y-118219285D01*
X247428390Y-118219285D02*
X247999819Y-117647857D01*
X247999819Y-117647857D02*
X247999819Y-118266904D01*
X230401666Y-109099580D02*
X230449285Y-109147200D01*
X230449285Y-109147200D02*
X230592142Y-109194819D01*
X230592142Y-109194819D02*
X230687380Y-109194819D01*
X230687380Y-109194819D02*
X230830237Y-109147200D01*
X230830237Y-109147200D02*
X230925475Y-109051961D01*
X230925475Y-109051961D02*
X230973094Y-108956723D01*
X230973094Y-108956723D02*
X231020713Y-108766247D01*
X231020713Y-108766247D02*
X231020713Y-108623390D01*
X231020713Y-108623390D02*
X230973094Y-108432914D01*
X230973094Y-108432914D02*
X230925475Y-108337676D01*
X230925475Y-108337676D02*
X230830237Y-108242438D01*
X230830237Y-108242438D02*
X230687380Y-108194819D01*
X230687380Y-108194819D02*
X230592142Y-108194819D01*
X230592142Y-108194819D02*
X230449285Y-108242438D01*
X230449285Y-108242438D02*
X230401666Y-108290057D01*
X229544523Y-108528152D02*
X229544523Y-109194819D01*
X229782618Y-108147200D02*
X230020713Y-108861485D01*
X230020713Y-108861485D02*
X229401666Y-108861485D01*
X237123069Y-93732142D02*
X236646878Y-93398809D01*
X237123069Y-93160714D02*
X236123069Y-93160714D01*
X236123069Y-93160714D02*
X236123069Y-93541666D01*
X236123069Y-93541666D02*
X236170688Y-93636904D01*
X236170688Y-93636904D02*
X236218307Y-93684523D01*
X236218307Y-93684523D02*
X236313545Y-93732142D01*
X236313545Y-93732142D02*
X236456402Y-93732142D01*
X236456402Y-93732142D02*
X236551640Y-93684523D01*
X236551640Y-93684523D02*
X236599259Y-93636904D01*
X236599259Y-93636904D02*
X236646878Y-93541666D01*
X236646878Y-93541666D02*
X236646878Y-93160714D01*
X237123069Y-94684523D02*
X237123069Y-94113095D01*
X237123069Y-94398809D02*
X236123069Y-94398809D01*
X236123069Y-94398809D02*
X236265926Y-94303571D01*
X236265926Y-94303571D02*
X236361164Y-94208333D01*
X236361164Y-94208333D02*
X236408783Y-94113095D01*
X236123069Y-95303571D02*
X236123069Y-95398809D01*
X236123069Y-95398809D02*
X236170688Y-95494047D01*
X236170688Y-95494047D02*
X236218307Y-95541666D01*
X236218307Y-95541666D02*
X236313545Y-95589285D01*
X236313545Y-95589285D02*
X236504021Y-95636904D01*
X236504021Y-95636904D02*
X236742116Y-95636904D01*
X236742116Y-95636904D02*
X236932592Y-95589285D01*
X236932592Y-95589285D02*
X237027830Y-95541666D01*
X237027830Y-95541666D02*
X237075450Y-95494047D01*
X237075450Y-95494047D02*
X237123069Y-95398809D01*
X237123069Y-95398809D02*
X237123069Y-95303571D01*
X237123069Y-95303571D02*
X237075450Y-95208333D01*
X237075450Y-95208333D02*
X237027830Y-95160714D01*
X237027830Y-95160714D02*
X236932592Y-95113095D01*
X236932592Y-95113095D02*
X236742116Y-95065476D01*
X236742116Y-95065476D02*
X236504021Y-95065476D01*
X236504021Y-95065476D02*
X236313545Y-95113095D01*
X236313545Y-95113095D02*
X236218307Y-95160714D01*
X236218307Y-95160714D02*
X236170688Y-95208333D01*
X236170688Y-95208333D02*
X236123069Y-95303571D01*
X225767857Y-95126569D02*
X226101190Y-94650378D01*
X226339285Y-95126569D02*
X226339285Y-94126569D01*
X226339285Y-94126569D02*
X225958333Y-94126569D01*
X225958333Y-94126569D02*
X225863095Y-94174188D01*
X225863095Y-94174188D02*
X225815476Y-94221807D01*
X225815476Y-94221807D02*
X225767857Y-94317045D01*
X225767857Y-94317045D02*
X225767857Y-94459902D01*
X225767857Y-94459902D02*
X225815476Y-94555140D01*
X225815476Y-94555140D02*
X225863095Y-94602759D01*
X225863095Y-94602759D02*
X225958333Y-94650378D01*
X225958333Y-94650378D02*
X226339285Y-94650378D01*
X224815476Y-95126569D02*
X225386904Y-95126569D01*
X225101190Y-95126569D02*
X225101190Y-94126569D01*
X225101190Y-94126569D02*
X225196428Y-94269426D01*
X225196428Y-94269426D02*
X225291666Y-94364664D01*
X225291666Y-94364664D02*
X225386904Y-94412283D01*
X224482142Y-94126569D02*
X223815476Y-94126569D01*
X223815476Y-94126569D02*
X224244047Y-95126569D01*
X237742857Y-87999819D02*
X238076190Y-87523628D01*
X238314285Y-87999819D02*
X238314285Y-86999819D01*
X238314285Y-86999819D02*
X237933333Y-86999819D01*
X237933333Y-86999819D02*
X237838095Y-87047438D01*
X237838095Y-87047438D02*
X237790476Y-87095057D01*
X237790476Y-87095057D02*
X237742857Y-87190295D01*
X237742857Y-87190295D02*
X237742857Y-87333152D01*
X237742857Y-87333152D02*
X237790476Y-87428390D01*
X237790476Y-87428390D02*
X237838095Y-87476009D01*
X237838095Y-87476009D02*
X237933333Y-87523628D01*
X237933333Y-87523628D02*
X238314285Y-87523628D01*
X236790476Y-87999819D02*
X237361904Y-87999819D01*
X237076190Y-87999819D02*
X237076190Y-86999819D01*
X237076190Y-86999819D02*
X237171428Y-87142676D01*
X237171428Y-87142676D02*
X237266666Y-87237914D01*
X237266666Y-87237914D02*
X237361904Y-87285533D01*
X235885714Y-86999819D02*
X236361904Y-86999819D01*
X236361904Y-86999819D02*
X236409523Y-87476009D01*
X236409523Y-87476009D02*
X236361904Y-87428390D01*
X236361904Y-87428390D02*
X236266666Y-87380771D01*
X236266666Y-87380771D02*
X236028571Y-87380771D01*
X236028571Y-87380771D02*
X235933333Y-87428390D01*
X235933333Y-87428390D02*
X235885714Y-87476009D01*
X235885714Y-87476009D02*
X235838095Y-87571247D01*
X235838095Y-87571247D02*
X235838095Y-87809342D01*
X235838095Y-87809342D02*
X235885714Y-87904580D01*
X235885714Y-87904580D02*
X235933333Y-87952200D01*
X235933333Y-87952200D02*
X236028571Y-87999819D01*
X236028571Y-87999819D02*
X236266666Y-87999819D01*
X236266666Y-87999819D02*
X236361904Y-87952200D01*
X236361904Y-87952200D02*
X236409523Y-87904580D01*
X246148889Y-98895952D02*
X246101270Y-98753095D01*
X246101270Y-98753095D02*
X246053651Y-98705476D01*
X246053651Y-98705476D02*
X245958413Y-98657857D01*
X245958413Y-98657857D02*
X245815556Y-98657857D01*
X245815556Y-98657857D02*
X245720318Y-98705476D01*
X245720318Y-98705476D02*
X245672699Y-98753095D01*
X245672699Y-98753095D02*
X245625079Y-98848333D01*
X245625079Y-98848333D02*
X245625079Y-99229285D01*
X245625079Y-99229285D02*
X246625079Y-99229285D01*
X246625079Y-99229285D02*
X246625079Y-98895952D01*
X246625079Y-98895952D02*
X246577460Y-98800714D01*
X246577460Y-98800714D02*
X246529841Y-98753095D01*
X246529841Y-98753095D02*
X246434603Y-98705476D01*
X246434603Y-98705476D02*
X246339365Y-98705476D01*
X246339365Y-98705476D02*
X246244127Y-98753095D01*
X246244127Y-98753095D02*
X246196508Y-98800714D01*
X246196508Y-98800714D02*
X246148889Y-98895952D01*
X246148889Y-98895952D02*
X246148889Y-99229285D01*
X246625079Y-98324523D02*
X246625079Y-97657857D01*
X246625079Y-97657857D02*
X245625079Y-98324523D01*
X245625079Y-98324523D02*
X245625079Y-97657857D01*
X245625079Y-96753095D02*
X245625079Y-97324523D01*
X245625079Y-97038809D02*
X246625079Y-97038809D01*
X246625079Y-97038809D02*
X246482222Y-97134047D01*
X246482222Y-97134047D02*
X246386984Y-97229285D01*
X246386984Y-97229285D02*
X246339365Y-97324523D01*
X258927857Y-86274580D02*
X258975476Y-86322200D01*
X258975476Y-86322200D02*
X259118333Y-86369819D01*
X259118333Y-86369819D02*
X259213571Y-86369819D01*
X259213571Y-86369819D02*
X259356428Y-86322200D01*
X259356428Y-86322200D02*
X259451666Y-86226961D01*
X259451666Y-86226961D02*
X259499285Y-86131723D01*
X259499285Y-86131723D02*
X259546904Y-85941247D01*
X259546904Y-85941247D02*
X259546904Y-85798390D01*
X259546904Y-85798390D02*
X259499285Y-85607914D01*
X259499285Y-85607914D02*
X259451666Y-85512676D01*
X259451666Y-85512676D02*
X259356428Y-85417438D01*
X259356428Y-85417438D02*
X259213571Y-85369819D01*
X259213571Y-85369819D02*
X259118333Y-85369819D01*
X259118333Y-85369819D02*
X258975476Y-85417438D01*
X258975476Y-85417438D02*
X258927857Y-85465057D01*
X258546904Y-85465057D02*
X258499285Y-85417438D01*
X258499285Y-85417438D02*
X258404047Y-85369819D01*
X258404047Y-85369819D02*
X258165952Y-85369819D01*
X258165952Y-85369819D02*
X258070714Y-85417438D01*
X258070714Y-85417438D02*
X258023095Y-85465057D01*
X258023095Y-85465057D02*
X257975476Y-85560295D01*
X257975476Y-85560295D02*
X257975476Y-85655533D01*
X257975476Y-85655533D02*
X258023095Y-85798390D01*
X258023095Y-85798390D02*
X258594523Y-86369819D01*
X258594523Y-86369819D02*
X257975476Y-86369819D01*
X257356428Y-85369819D02*
X257261190Y-85369819D01*
X257261190Y-85369819D02*
X257165952Y-85417438D01*
X257165952Y-85417438D02*
X257118333Y-85465057D01*
X257118333Y-85465057D02*
X257070714Y-85560295D01*
X257070714Y-85560295D02*
X257023095Y-85750771D01*
X257023095Y-85750771D02*
X257023095Y-85988866D01*
X257023095Y-85988866D02*
X257070714Y-86179342D01*
X257070714Y-86179342D02*
X257118333Y-86274580D01*
X257118333Y-86274580D02*
X257165952Y-86322200D01*
X257165952Y-86322200D02*
X257261190Y-86369819D01*
X257261190Y-86369819D02*
X257356428Y-86369819D01*
X257356428Y-86369819D02*
X257451666Y-86322200D01*
X257451666Y-86322200D02*
X257499285Y-86274580D01*
X257499285Y-86274580D02*
X257546904Y-86179342D01*
X257546904Y-86179342D02*
X257594523Y-85988866D01*
X257594523Y-85988866D02*
X257594523Y-85750771D01*
X257594523Y-85750771D02*
X257546904Y-85560295D01*
X257546904Y-85560295D02*
X257499285Y-85465057D01*
X257499285Y-85465057D02*
X257451666Y-85417438D01*
X257451666Y-85417438D02*
X257356428Y-85369819D01*
X255095357Y-113487080D02*
X255142976Y-113534700D01*
X255142976Y-113534700D02*
X255285833Y-113582319D01*
X255285833Y-113582319D02*
X255381071Y-113582319D01*
X255381071Y-113582319D02*
X255523928Y-113534700D01*
X255523928Y-113534700D02*
X255619166Y-113439461D01*
X255619166Y-113439461D02*
X255666785Y-113344223D01*
X255666785Y-113344223D02*
X255714404Y-113153747D01*
X255714404Y-113153747D02*
X255714404Y-113010890D01*
X255714404Y-113010890D02*
X255666785Y-112820414D01*
X255666785Y-112820414D02*
X255619166Y-112725176D01*
X255619166Y-112725176D02*
X255523928Y-112629938D01*
X255523928Y-112629938D02*
X255381071Y-112582319D01*
X255381071Y-112582319D02*
X255285833Y-112582319D01*
X255285833Y-112582319D02*
X255142976Y-112629938D01*
X255142976Y-112629938D02*
X255095357Y-112677557D01*
X254142976Y-113582319D02*
X254714404Y-113582319D01*
X254428690Y-113582319D02*
X254428690Y-112582319D01*
X254428690Y-112582319D02*
X254523928Y-112725176D01*
X254523928Y-112725176D02*
X254619166Y-112820414D01*
X254619166Y-112820414D02*
X254714404Y-112868033D01*
X253523928Y-112582319D02*
X253428690Y-112582319D01*
X253428690Y-112582319D02*
X253333452Y-112629938D01*
X253333452Y-112629938D02*
X253285833Y-112677557D01*
X253285833Y-112677557D02*
X253238214Y-112772795D01*
X253238214Y-112772795D02*
X253190595Y-112963271D01*
X253190595Y-112963271D02*
X253190595Y-113201366D01*
X253190595Y-113201366D02*
X253238214Y-113391842D01*
X253238214Y-113391842D02*
X253285833Y-113487080D01*
X253285833Y-113487080D02*
X253333452Y-113534700D01*
X253333452Y-113534700D02*
X253428690Y-113582319D01*
X253428690Y-113582319D02*
X253523928Y-113582319D01*
X253523928Y-113582319D02*
X253619166Y-113534700D01*
X253619166Y-113534700D02*
X253666785Y-113487080D01*
X253666785Y-113487080D02*
X253714404Y-113391842D01*
X253714404Y-113391842D02*
X253762023Y-113201366D01*
X253762023Y-113201366D02*
X253762023Y-112963271D01*
X253762023Y-112963271D02*
X253714404Y-112772795D01*
X253714404Y-112772795D02*
X253666785Y-112677557D01*
X253666785Y-112677557D02*
X253619166Y-112629938D01*
X253619166Y-112629938D02*
X253523928Y-112582319D01*
X225719819Y-84782142D02*
X225243628Y-84448809D01*
X225719819Y-84210714D02*
X224719819Y-84210714D01*
X224719819Y-84210714D02*
X224719819Y-84591666D01*
X224719819Y-84591666D02*
X224767438Y-84686904D01*
X224767438Y-84686904D02*
X224815057Y-84734523D01*
X224815057Y-84734523D02*
X224910295Y-84782142D01*
X224910295Y-84782142D02*
X225053152Y-84782142D01*
X225053152Y-84782142D02*
X225148390Y-84734523D01*
X225148390Y-84734523D02*
X225196009Y-84686904D01*
X225196009Y-84686904D02*
X225243628Y-84591666D01*
X225243628Y-84591666D02*
X225243628Y-84210714D01*
X225719819Y-85734523D02*
X225719819Y-85163095D01*
X225719819Y-85448809D02*
X224719819Y-85448809D01*
X224719819Y-85448809D02*
X224862676Y-85353571D01*
X224862676Y-85353571D02*
X224957914Y-85258333D01*
X224957914Y-85258333D02*
X225005533Y-85163095D01*
X225053152Y-86591666D02*
X225719819Y-86591666D01*
X224672200Y-86353571D02*
X225386485Y-86115476D01*
X225386485Y-86115476D02*
X225386485Y-86734523D01*
X249339580Y-116457142D02*
X249387200Y-116409523D01*
X249387200Y-116409523D02*
X249434819Y-116266666D01*
X249434819Y-116266666D02*
X249434819Y-116171428D01*
X249434819Y-116171428D02*
X249387200Y-116028571D01*
X249387200Y-116028571D02*
X249291961Y-115933333D01*
X249291961Y-115933333D02*
X249196723Y-115885714D01*
X249196723Y-115885714D02*
X249006247Y-115838095D01*
X249006247Y-115838095D02*
X248863390Y-115838095D01*
X248863390Y-115838095D02*
X248672914Y-115885714D01*
X248672914Y-115885714D02*
X248577676Y-115933333D01*
X248577676Y-115933333D02*
X248482438Y-116028571D01*
X248482438Y-116028571D02*
X248434819Y-116171428D01*
X248434819Y-116171428D02*
X248434819Y-116266666D01*
X248434819Y-116266666D02*
X248482438Y-116409523D01*
X248482438Y-116409523D02*
X248530057Y-116457142D01*
X249434819Y-117409523D02*
X249434819Y-116838095D01*
X249434819Y-117123809D02*
X248434819Y-117123809D01*
X248434819Y-117123809D02*
X248577676Y-117028571D01*
X248577676Y-117028571D02*
X248672914Y-116933333D01*
X248672914Y-116933333D02*
X248720533Y-116838095D01*
X248434819Y-118314285D02*
X248434819Y-117838095D01*
X248434819Y-117838095D02*
X248911009Y-117790476D01*
X248911009Y-117790476D02*
X248863390Y-117838095D01*
X248863390Y-117838095D02*
X248815771Y-117933333D01*
X248815771Y-117933333D02*
X248815771Y-118171428D01*
X248815771Y-118171428D02*
X248863390Y-118266666D01*
X248863390Y-118266666D02*
X248911009Y-118314285D01*
X248911009Y-118314285D02*
X249006247Y-118361904D01*
X249006247Y-118361904D02*
X249244342Y-118361904D01*
X249244342Y-118361904D02*
X249339580Y-118314285D01*
X249339580Y-118314285D02*
X249387200Y-118266666D01*
X249387200Y-118266666D02*
X249434819Y-118171428D01*
X249434819Y-118171428D02*
X249434819Y-117933333D01*
X249434819Y-117933333D02*
X249387200Y-117838095D01*
X249387200Y-117838095D02*
X249339580Y-117790476D01*
X266475357Y-86824819D02*
X266808690Y-86348628D01*
X267046785Y-86824819D02*
X267046785Y-85824819D01*
X267046785Y-85824819D02*
X266665833Y-85824819D01*
X266665833Y-85824819D02*
X266570595Y-85872438D01*
X266570595Y-85872438D02*
X266522976Y-85920057D01*
X266522976Y-85920057D02*
X266475357Y-86015295D01*
X266475357Y-86015295D02*
X266475357Y-86158152D01*
X266475357Y-86158152D02*
X266522976Y-86253390D01*
X266522976Y-86253390D02*
X266570595Y-86301009D01*
X266570595Y-86301009D02*
X266665833Y-86348628D01*
X266665833Y-86348628D02*
X267046785Y-86348628D01*
X265522976Y-86824819D02*
X266094404Y-86824819D01*
X265808690Y-86824819D02*
X265808690Y-85824819D01*
X265808690Y-85824819D02*
X265903928Y-85967676D01*
X265903928Y-85967676D02*
X265999166Y-86062914D01*
X265999166Y-86062914D02*
X266094404Y-86110533D01*
X265142023Y-85920057D02*
X265094404Y-85872438D01*
X265094404Y-85872438D02*
X264999166Y-85824819D01*
X264999166Y-85824819D02*
X264761071Y-85824819D01*
X264761071Y-85824819D02*
X264665833Y-85872438D01*
X264665833Y-85872438D02*
X264618214Y-85920057D01*
X264618214Y-85920057D02*
X264570595Y-86015295D01*
X264570595Y-86015295D02*
X264570595Y-86110533D01*
X264570595Y-86110533D02*
X264618214Y-86253390D01*
X264618214Y-86253390D02*
X265189642Y-86824819D01*
X265189642Y-86824819D02*
X264570595Y-86824819D01*
X241899580Y-118932142D02*
X241947200Y-118884523D01*
X241947200Y-118884523D02*
X241994819Y-118741666D01*
X241994819Y-118741666D02*
X241994819Y-118646428D01*
X241994819Y-118646428D02*
X241947200Y-118503571D01*
X241947200Y-118503571D02*
X241851961Y-118408333D01*
X241851961Y-118408333D02*
X241756723Y-118360714D01*
X241756723Y-118360714D02*
X241566247Y-118313095D01*
X241566247Y-118313095D02*
X241423390Y-118313095D01*
X241423390Y-118313095D02*
X241232914Y-118360714D01*
X241232914Y-118360714D02*
X241137676Y-118408333D01*
X241137676Y-118408333D02*
X241042438Y-118503571D01*
X241042438Y-118503571D02*
X240994819Y-118646428D01*
X240994819Y-118646428D02*
X240994819Y-118741666D01*
X240994819Y-118741666D02*
X241042438Y-118884523D01*
X241042438Y-118884523D02*
X241090057Y-118932142D01*
X241994819Y-119884523D02*
X241994819Y-119313095D01*
X241994819Y-119598809D02*
X240994819Y-119598809D01*
X240994819Y-119598809D02*
X241137676Y-119503571D01*
X241137676Y-119503571D02*
X241232914Y-119408333D01*
X241232914Y-119408333D02*
X241280533Y-119313095D01*
X240994819Y-120741666D02*
X240994819Y-120551190D01*
X240994819Y-120551190D02*
X241042438Y-120455952D01*
X241042438Y-120455952D02*
X241090057Y-120408333D01*
X241090057Y-120408333D02*
X241232914Y-120313095D01*
X241232914Y-120313095D02*
X241423390Y-120265476D01*
X241423390Y-120265476D02*
X241804342Y-120265476D01*
X241804342Y-120265476D02*
X241899580Y-120313095D01*
X241899580Y-120313095D02*
X241947200Y-120360714D01*
X241947200Y-120360714D02*
X241994819Y-120455952D01*
X241994819Y-120455952D02*
X241994819Y-120646428D01*
X241994819Y-120646428D02*
X241947200Y-120741666D01*
X241947200Y-120741666D02*
X241899580Y-120789285D01*
X241899580Y-120789285D02*
X241804342Y-120836904D01*
X241804342Y-120836904D02*
X241566247Y-120836904D01*
X241566247Y-120836904D02*
X241471009Y-120789285D01*
X241471009Y-120789285D02*
X241423390Y-120741666D01*
X241423390Y-120741666D02*
X241375771Y-120646428D01*
X241375771Y-120646428D02*
X241375771Y-120455952D01*
X241375771Y-120455952D02*
X241423390Y-120360714D01*
X241423390Y-120360714D02*
X241471009Y-120313095D01*
X241471009Y-120313095D02*
X241566247Y-120265476D01*
X241254819Y-90182142D02*
X240778628Y-89848809D01*
X241254819Y-89610714D02*
X240254819Y-89610714D01*
X240254819Y-89610714D02*
X240254819Y-89991666D01*
X240254819Y-89991666D02*
X240302438Y-90086904D01*
X240302438Y-90086904D02*
X240350057Y-90134523D01*
X240350057Y-90134523D02*
X240445295Y-90182142D01*
X240445295Y-90182142D02*
X240588152Y-90182142D01*
X240588152Y-90182142D02*
X240683390Y-90134523D01*
X240683390Y-90134523D02*
X240731009Y-90086904D01*
X240731009Y-90086904D02*
X240778628Y-89991666D01*
X240778628Y-89991666D02*
X240778628Y-89610714D01*
X240350057Y-90563095D02*
X240302438Y-90610714D01*
X240302438Y-90610714D02*
X240254819Y-90705952D01*
X240254819Y-90705952D02*
X240254819Y-90944047D01*
X240254819Y-90944047D02*
X240302438Y-91039285D01*
X240302438Y-91039285D02*
X240350057Y-91086904D01*
X240350057Y-91086904D02*
X240445295Y-91134523D01*
X240445295Y-91134523D02*
X240540533Y-91134523D01*
X240540533Y-91134523D02*
X240683390Y-91086904D01*
X240683390Y-91086904D02*
X241254819Y-90515476D01*
X241254819Y-90515476D02*
X241254819Y-91134523D01*
X240588152Y-91991666D02*
X241254819Y-91991666D01*
X240207200Y-91753571D02*
X240921485Y-91515476D01*
X240921485Y-91515476D02*
X240921485Y-92134523D01*
X237986666Y-110894580D02*
X238034285Y-110942200D01*
X238034285Y-110942200D02*
X238177142Y-110989819D01*
X238177142Y-110989819D02*
X238272380Y-110989819D01*
X238272380Y-110989819D02*
X238415237Y-110942200D01*
X238415237Y-110942200D02*
X238510475Y-110846961D01*
X238510475Y-110846961D02*
X238558094Y-110751723D01*
X238558094Y-110751723D02*
X238605713Y-110561247D01*
X238605713Y-110561247D02*
X238605713Y-110418390D01*
X238605713Y-110418390D02*
X238558094Y-110227914D01*
X238558094Y-110227914D02*
X238510475Y-110132676D01*
X238510475Y-110132676D02*
X238415237Y-110037438D01*
X238415237Y-110037438D02*
X238272380Y-109989819D01*
X238272380Y-109989819D02*
X238177142Y-109989819D01*
X238177142Y-109989819D02*
X238034285Y-110037438D01*
X238034285Y-110037438D02*
X237986666Y-110085057D01*
X237081904Y-109989819D02*
X237558094Y-109989819D01*
X237558094Y-109989819D02*
X237605713Y-110466009D01*
X237605713Y-110466009D02*
X237558094Y-110418390D01*
X237558094Y-110418390D02*
X237462856Y-110370771D01*
X237462856Y-110370771D02*
X237224761Y-110370771D01*
X237224761Y-110370771D02*
X237129523Y-110418390D01*
X237129523Y-110418390D02*
X237081904Y-110466009D01*
X237081904Y-110466009D02*
X237034285Y-110561247D01*
X237034285Y-110561247D02*
X237034285Y-110799342D01*
X237034285Y-110799342D02*
X237081904Y-110894580D01*
X237081904Y-110894580D02*
X237129523Y-110942200D01*
X237129523Y-110942200D02*
X237224761Y-110989819D01*
X237224761Y-110989819D02*
X237462856Y-110989819D01*
X237462856Y-110989819D02*
X237558094Y-110942200D01*
X237558094Y-110942200D02*
X237605713Y-110894580D01*
X231566666Y-137614819D02*
X231899999Y-137138628D01*
X232138094Y-137614819D02*
X232138094Y-136614819D01*
X232138094Y-136614819D02*
X231757142Y-136614819D01*
X231757142Y-136614819D02*
X231661904Y-136662438D01*
X231661904Y-136662438D02*
X231614285Y-136710057D01*
X231614285Y-136710057D02*
X231566666Y-136805295D01*
X231566666Y-136805295D02*
X231566666Y-136948152D01*
X231566666Y-136948152D02*
X231614285Y-137043390D01*
X231614285Y-137043390D02*
X231661904Y-137091009D01*
X231661904Y-137091009D02*
X231757142Y-137138628D01*
X231757142Y-137138628D02*
X232138094Y-137138628D01*
X230614285Y-137614819D02*
X231185713Y-137614819D01*
X230899999Y-137614819D02*
X230899999Y-136614819D01*
X230899999Y-136614819D02*
X230995237Y-136757676D01*
X230995237Y-136757676D02*
X231090475Y-136852914D01*
X231090475Y-136852914D02*
X231185713Y-136900533D01*
X259279819Y-120570476D02*
X259994104Y-120570476D01*
X259994104Y-120570476D02*
X260136961Y-120522857D01*
X260136961Y-120522857D02*
X260232200Y-120427619D01*
X260232200Y-120427619D02*
X260279819Y-120284762D01*
X260279819Y-120284762D02*
X260279819Y-120189524D01*
X260279819Y-121570476D02*
X260279819Y-120999048D01*
X260279819Y-121284762D02*
X259279819Y-121284762D01*
X259279819Y-121284762D02*
X259422676Y-121189524D01*
X259422676Y-121189524D02*
X259517914Y-121094286D01*
X259517914Y-121094286D02*
X259565533Y-120999048D01*
X259613152Y-122427619D02*
X260279819Y-122427619D01*
X259232200Y-122189524D02*
X259946485Y-121951429D01*
X259946485Y-121951429D02*
X259946485Y-122570476D01*
X246414580Y-114982142D02*
X246462200Y-114934523D01*
X246462200Y-114934523D02*
X246509819Y-114791666D01*
X246509819Y-114791666D02*
X246509819Y-114696428D01*
X246509819Y-114696428D02*
X246462200Y-114553571D01*
X246462200Y-114553571D02*
X246366961Y-114458333D01*
X246366961Y-114458333D02*
X246271723Y-114410714D01*
X246271723Y-114410714D02*
X246081247Y-114363095D01*
X246081247Y-114363095D02*
X245938390Y-114363095D01*
X245938390Y-114363095D02*
X245747914Y-114410714D01*
X245747914Y-114410714D02*
X245652676Y-114458333D01*
X245652676Y-114458333D02*
X245557438Y-114553571D01*
X245557438Y-114553571D02*
X245509819Y-114696428D01*
X245509819Y-114696428D02*
X245509819Y-114791666D01*
X245509819Y-114791666D02*
X245557438Y-114934523D01*
X245557438Y-114934523D02*
X245605057Y-114982142D01*
X246509819Y-115934523D02*
X246509819Y-115363095D01*
X246509819Y-115648809D02*
X245509819Y-115648809D01*
X245509819Y-115648809D02*
X245652676Y-115553571D01*
X245652676Y-115553571D02*
X245747914Y-115458333D01*
X245747914Y-115458333D02*
X245795533Y-115363095D01*
X245509819Y-116267857D02*
X245509819Y-116934523D01*
X245509819Y-116934523D02*
X246509819Y-116505952D01*
X255095357Y-111977080D02*
X255142976Y-112024700D01*
X255142976Y-112024700D02*
X255285833Y-112072319D01*
X255285833Y-112072319D02*
X255381071Y-112072319D01*
X255381071Y-112072319D02*
X255523928Y-112024700D01*
X255523928Y-112024700D02*
X255619166Y-111929461D01*
X255619166Y-111929461D02*
X255666785Y-111834223D01*
X255666785Y-111834223D02*
X255714404Y-111643747D01*
X255714404Y-111643747D02*
X255714404Y-111500890D01*
X255714404Y-111500890D02*
X255666785Y-111310414D01*
X255666785Y-111310414D02*
X255619166Y-111215176D01*
X255619166Y-111215176D02*
X255523928Y-111119938D01*
X255523928Y-111119938D02*
X255381071Y-111072319D01*
X255381071Y-111072319D02*
X255285833Y-111072319D01*
X255285833Y-111072319D02*
X255142976Y-111119938D01*
X255142976Y-111119938D02*
X255095357Y-111167557D01*
X254142976Y-112072319D02*
X254714404Y-112072319D01*
X254428690Y-112072319D02*
X254428690Y-111072319D01*
X254428690Y-111072319D02*
X254523928Y-111215176D01*
X254523928Y-111215176D02*
X254619166Y-111310414D01*
X254619166Y-111310414D02*
X254714404Y-111358033D01*
X253190595Y-112072319D02*
X253762023Y-112072319D01*
X253476309Y-112072319D02*
X253476309Y-111072319D01*
X253476309Y-111072319D02*
X253571547Y-111215176D01*
X253571547Y-111215176D02*
X253666785Y-111310414D01*
X253666785Y-111310414D02*
X253762023Y-111358033D01*
%TO.C,C2*%
D11*
X230854333Y-101006800D02*
X231146867Y-101006800D01*
X230854333Y-102026800D02*
X231146867Y-102026800D01*
%TO.C,R2*%
X227770276Y-135197500D02*
X228279724Y-135197500D01*
X227770276Y-136242500D02*
X228279724Y-136242500D01*
%TO.C,R19*%
X228270276Y-92559250D02*
X228779724Y-92559250D01*
X228270276Y-93604250D02*
X228779724Y-93604250D01*
%TO.C,C19*%
X246778733Y-109610000D02*
X247071267Y-109610000D01*
X246778733Y-110630000D02*
X247071267Y-110630000D01*
%TO.C,R11*%
X234427500Y-96452974D02*
X234427500Y-95943526D01*
X235472500Y-96452974D02*
X235472500Y-95943526D01*
%TO.C,R18*%
X265484724Y-108602500D02*
X264975276Y-108602500D01*
X265484724Y-109647500D02*
X264975276Y-109647500D01*
%TO.C,R16*%
X236770276Y-88442500D02*
X237279724Y-88442500D01*
X236770276Y-89487500D02*
X237279724Y-89487500D01*
%TO.C,C3*%
X231232667Y-103245700D02*
X230940133Y-103245700D01*
X231232667Y-104265700D02*
X230940133Y-104265700D01*
%TO.C,C6*%
X232905000Y-99201267D02*
X232905000Y-98908733D01*
X233925000Y-99201267D02*
X233925000Y-98908733D01*
%TO.C,R26*%
X241812500Y-87804724D02*
X241812500Y-87295276D01*
X242857500Y-87804724D02*
X242857500Y-87295276D01*
%TO.C,C21*%
X246803733Y-108075000D02*
X247096267Y-108075000D01*
X246803733Y-109095000D02*
X247096267Y-109095000D01*
%TO.C,D2*%
X257720000Y-106750000D02*
X257720000Y-107750000D01*
X257720000Y-108870000D02*
X257720000Y-109870000D01*
X257720000Y-109870000D02*
X259540000Y-109870000D01*
X259540000Y-106750000D02*
X257720000Y-106750000D01*
X259540000Y-106800000D02*
X259540000Y-106750000D01*
X259540000Y-108700000D02*
X259540000Y-107920000D01*
X259540000Y-109870000D02*
X259540000Y-109820000D01*
X260320000Y-108260000D02*
X259840000Y-108260000D01*
X260080000Y-107930000D01*
X260320000Y-108260000D01*
G36*
X260320000Y-108260000D02*
G01*
X259840000Y-108260000D01*
X260080000Y-107930000D01*
X260320000Y-108260000D01*
G37*
%TO.C,R4*%
X262767224Y-84352500D02*
X262257776Y-84352500D01*
X262767224Y-85397500D02*
X262257776Y-85397500D01*
%TO.C,R23*%
X248720276Y-114457500D02*
X249229724Y-114457500D01*
X248720276Y-115502500D02*
X249229724Y-115502500D01*
%TO.C,C28*%
X234998733Y-102245000D02*
X235291267Y-102245000D01*
X234998733Y-103265000D02*
X235291267Y-103265000D01*
%TO.C,C18*%
X246971267Y-89220000D02*
X246678733Y-89220000D01*
X246971267Y-90240000D02*
X246678733Y-90240000D01*
%TO.C,D10*%
X243255000Y-83065000D02*
X248765000Y-83065000D01*
X243255000Y-86365000D02*
X243255000Y-83065000D01*
X243255000Y-86365000D02*
X248765000Y-86365000D01*
%TO.C,C24*%
X250730000Y-99321267D02*
X250730000Y-99028733D01*
X251750000Y-99321267D02*
X251750000Y-99028733D01*
%TO.C,R5*%
X265484724Y-106092500D02*
X264975276Y-106092500D01*
X265484724Y-107137500D02*
X264975276Y-107137500D01*
%TO.C,C14*%
X242620000Y-116571267D02*
X242620000Y-116278733D01*
X243640000Y-116571267D02*
X243640000Y-116278733D01*
%TO.C,U6*%
X229447500Y-87032500D02*
X229447500Y-87127500D01*
X229447500Y-92057500D02*
X229447500Y-92152500D01*
X229447500Y-92152500D02*
X233567500Y-92152500D01*
X233567500Y-87032500D02*
X229447500Y-87032500D01*
X233567500Y-87127500D02*
X233567500Y-87032500D01*
X233567500Y-92152500D02*
X233567500Y-92057500D01*
X229147500Y-92392500D02*
X228667500Y-92392500D01*
X228907500Y-92062500D01*
X229147500Y-92392500D01*
G36*
X229147500Y-92392500D02*
G01*
X228667500Y-92392500D01*
X228907500Y-92062500D01*
X229147500Y-92392500D01*
G37*
%TO.C,C13*%
X242630000Y-113221267D02*
X242630000Y-112928733D01*
X243650000Y-113221267D02*
X243650000Y-112928733D01*
%TO.C,R13*%
X226257500Y-88520276D02*
X226257500Y-89029724D01*
X227302500Y-88520276D02*
X227302500Y-89029724D01*
%TO.C,C12*%
X247005000Y-112676267D02*
X247005000Y-112383733D01*
X248025000Y-112676267D02*
X248025000Y-112383733D01*
%TO.C,C4*%
X233056267Y-108260000D02*
X232763733Y-108260000D01*
X233056267Y-109280000D02*
X232763733Y-109280000D01*
%TO.C,R10*%
X235990750Y-97804724D02*
X235990750Y-97295276D01*
X237035750Y-97804724D02*
X237035750Y-97295276D01*
%TO.C,R17*%
X228270276Y-94094250D02*
X228779724Y-94094250D01*
X228270276Y-95139250D02*
X228779724Y-95139250D01*
%TO.C,R15*%
X237304724Y-89977500D02*
X236795276Y-89977500D01*
X237304724Y-91022500D02*
X236795276Y-91022500D01*
%TO.C,BZ1*%
D12*
X242104799Y-99855560D02*
X242104799Y-96174440D01*
X244239339Y-94039900D02*
X247920459Y-94039900D01*
X247920459Y-101990100D02*
X244239339Y-101990100D01*
X250054999Y-96174440D02*
X250054999Y-99855560D01*
D13*
X249515547Y-102502240D02*
G75*
G02*
X248794251Y-102502240I-360648J-122860D01*
G01*
%TO.C,C20*%
D11*
X258138733Y-83975000D02*
X258431267Y-83975000D01*
X258138733Y-84995000D02*
X258431267Y-84995000D01*
%TO.C,C10*%
X251306233Y-112587500D02*
X251598767Y-112587500D01*
X251306233Y-113607500D02*
X251598767Y-113607500D01*
%TO.C,R14*%
X224737500Y-89029724D02*
X224737500Y-88520276D01*
X225782500Y-89029724D02*
X225782500Y-88520276D01*
%TO.C,C15*%
X248515000Y-112671267D02*
X248515000Y-112378733D01*
X249535000Y-112671267D02*
X249535000Y-112378733D01*
%TO.C,R12*%
X262252776Y-85867500D02*
X262762224Y-85867500D01*
X262252776Y-86912500D02*
X262762224Y-86912500D01*
%TO.C,C16*%
X241100000Y-116596267D02*
X241100000Y-116303733D01*
X242120000Y-116596267D02*
X242120000Y-116303733D01*
%TO.C,R24*%
X240257500Y-87295276D02*
X240257500Y-87804724D01*
X241302500Y-87295276D02*
X241302500Y-87804724D01*
%TO.C,C5*%
X237573733Y-108620000D02*
X237866267Y-108620000D01*
X237573733Y-109640000D02*
X237866267Y-109640000D01*
%TO.C,R1*%
X231145276Y-135207500D02*
X231654724Y-135207500D01*
X231145276Y-136252500D02*
X231654724Y-136252500D01*
%TO.C,J14*%
X254150000Y-114670000D02*
X254150000Y-128490000D01*
X256850000Y-114670000D02*
X254150000Y-114670000D01*
X256850000Y-128490000D02*
X254150000Y-128490000D01*
X265150000Y-114670000D02*
X259370000Y-114670000D01*
X265150000Y-128490000D02*
X259370000Y-128490000D01*
X268070000Y-114670000D02*
X267670000Y-114670000D01*
X268070000Y-116080000D02*
X269070000Y-116080000D01*
X268070000Y-127080000D02*
X269070000Y-127080000D01*
X268070000Y-128490000D02*
X267670000Y-128490000D01*
X268070000Y-128490000D02*
X268070000Y-114670000D01*
X268270000Y-120680000D02*
X268370000Y-119380000D01*
X268270000Y-122480000D02*
X268270000Y-120680000D01*
X268370000Y-119380000D02*
X268570000Y-117880000D01*
X268370000Y-123780000D02*
X268270000Y-122480000D01*
X268470000Y-124580000D02*
X268370000Y-123780000D01*
X268570000Y-117880000D02*
X268870000Y-116580000D01*
X268770000Y-126280000D02*
X268470000Y-124580000D01*
X268870000Y-116580000D02*
X268970000Y-116080000D01*
X268970000Y-127080000D02*
X268770000Y-126280000D01*
X269570000Y-126580000D02*
X269570000Y-116580000D01*
X269070000Y-116080000D02*
G75*
G02*
X269570000Y-116580000I0J-500000D01*
G01*
X269570000Y-126580000D02*
G75*
G02*
X269070000Y-127080000I-500001J1D01*
G01*
%TO.C,C17*%
X245490000Y-112671267D02*
X245490000Y-112378733D01*
X246510000Y-112671267D02*
X246510000Y-112378733D01*
%TO.C,C11*%
X251306233Y-111077500D02*
X251598767Y-111077500D01*
X251306233Y-112097500D02*
X251598767Y-112097500D01*
%TD*%
%LPC*%
D14*
%TO.C,J2*%
X226600000Y-126875000D03*
D15*
X229100000Y-126875000D03*
X231600000Y-126875000D03*
X234100000Y-126875000D03*
%TD*%
D16*
%TO.C,J10*%
X258045000Y-80440000D03*
D17*
X255545000Y-80440000D03*
%TD*%
D14*
%TO.C,J8*%
X240100000Y-133705000D03*
D15*
X242600000Y-133705000D03*
X245100000Y-133705000D03*
X247600000Y-133705000D03*
X250100000Y-133705000D03*
X252600000Y-133705000D03*
%TD*%
D18*
%TO.C,J13*%
X249355000Y-125155000D03*
D19*
X249355000Y-122615000D03*
%TD*%
D20*
%TO.C,J11*%
X231350000Y-80115000D03*
D21*
X234850000Y-80115000D03*
X238350000Y-80115000D03*
X241850000Y-80115000D03*
%TD*%
D22*
%TO.C,H2*%
X267225000Y-79379220D03*
%TD*%
D23*
%TO.C,J9*%
X258685000Y-133720000D03*
D17*
X261185000Y-133720000D03*
%TD*%
D14*
%TO.C,J5*%
X226550000Y-113250000D03*
D15*
X229050000Y-113250000D03*
X231550000Y-113250000D03*
X234050000Y-113250000D03*
%TD*%
D14*
%TO.C,J7*%
X226600000Y-133725000D03*
D15*
X229100000Y-133725000D03*
X231600000Y-133725000D03*
X234100000Y-133725000D03*
%TD*%
D22*
%TO.C,H4*%
X267275000Y-134125000D03*
%TD*%
D18*
%TO.C,J1*%
X239370000Y-128880000D03*
D19*
X241910000Y-128880000D03*
X244450000Y-128880000D03*
X246990000Y-128880000D03*
X249530000Y-128880000D03*
%TD*%
D24*
%TO.C,J4*%
X263050000Y-110915000D03*
X263050000Y-105135000D03*
D25*
X262550000Y-112345000D03*
D26*
X266730000Y-112345000D03*
D25*
X262550000Y-103705000D03*
D26*
X266730000Y-103705000D03*
%TD*%
D22*
%TO.C,H1*%
X225863376Y-79450000D03*
%TD*%
D16*
%TO.C,J6*%
X249545000Y-80465000D03*
D17*
X247045000Y-80465000D03*
%TD*%
D14*
%TO.C,J3*%
X226525000Y-120075000D03*
D15*
X229025000Y-120075000D03*
X231525000Y-120075000D03*
X234025000Y-120075000D03*
%TD*%
D27*
%TO.C,C2*%
X230138100Y-101516800D03*
X231863100Y-101516800D03*
%TD*%
D28*
%TO.C,R2*%
X227112500Y-135720000D03*
X228937500Y-135720000D03*
%TD*%
%TO.C,R19*%
X227612500Y-93081750D03*
X229437500Y-93081750D03*
%TD*%
D27*
%TO.C,C19*%
X246062500Y-110120000D03*
X247787500Y-110120000D03*
%TD*%
D29*
%TO.C,R11*%
X234950000Y-97110750D03*
X234950000Y-95285750D03*
%TD*%
D30*
%TO.C,R18*%
X266142500Y-109125000D03*
X264317500Y-109125000D03*
%TD*%
D28*
%TO.C,R16*%
X236112500Y-88965000D03*
X237937500Y-88965000D03*
%TD*%
D31*
%TO.C,C3*%
X231948900Y-103755700D03*
X230223900Y-103755700D03*
%TD*%
D32*
%TO.C,C6*%
X233415000Y-99917500D03*
X233415000Y-98192500D03*
%TD*%
D29*
%TO.C,R26*%
X242335000Y-88462500D03*
X242335000Y-86637500D03*
%TD*%
D27*
%TO.C,C21*%
X246087500Y-108585000D03*
X247812500Y-108585000D03*
%TD*%
D33*
%TO.C,D2*%
X259767500Y-107360000D03*
X259767500Y-109260000D03*
X257492500Y-108310000D03*
%TD*%
D30*
%TO.C,R4*%
X263425000Y-84875000D03*
X261600000Y-84875000D03*
%TD*%
D28*
%TO.C,R23*%
X248062500Y-114980000D03*
X249887500Y-114980000D03*
%TD*%
D27*
%TO.C,C28*%
X234282500Y-102755000D03*
X236007500Y-102755000D03*
%TD*%
D31*
%TO.C,C18*%
X247687500Y-89730000D03*
X245962500Y-89730000D03*
%TD*%
D34*
%TO.C,D10*%
X244765000Y-84715000D03*
X248765000Y-84715000D03*
%TD*%
D32*
%TO.C,C24*%
X251240000Y-100037500D03*
X251240000Y-98312500D03*
%TD*%
D30*
%TO.C,R5*%
X266142500Y-106615000D03*
X264317500Y-106615000D03*
%TD*%
D32*
%TO.C,C14*%
X243130000Y-117287500D03*
X243130000Y-115562500D03*
%TD*%
D35*
%TO.C,U6*%
X229032500Y-91497500D03*
X229032500Y-90227500D03*
X229032500Y-88957500D03*
X229032500Y-87687500D03*
X233982500Y-87687500D03*
X233982500Y-88957500D03*
X233982500Y-90227500D03*
X233982500Y-91497500D03*
%TD*%
D32*
%TO.C,C13*%
X243140000Y-113937500D03*
X243140000Y-112212500D03*
%TD*%
D36*
%TO.C,R13*%
X226780000Y-87862500D03*
X226780000Y-89687500D03*
%TD*%
D32*
%TO.C,C12*%
X247515000Y-113392500D03*
X247515000Y-111667500D03*
%TD*%
D31*
%TO.C,C4*%
X233772500Y-108770000D03*
X232047500Y-108770000D03*
%TD*%
D29*
%TO.C,R10*%
X236513250Y-98462500D03*
X236513250Y-96637500D03*
%TD*%
D28*
%TO.C,R17*%
X227612500Y-94616750D03*
X229437500Y-94616750D03*
%TD*%
D30*
%TO.C,R15*%
X237962500Y-90500000D03*
X236137500Y-90500000D03*
%TD*%
D37*
%TO.C,BZ1*%
X243004899Y-94940000D03*
X249154899Y-94940000D03*
X249154899Y-101090000D03*
X243004899Y-101090000D03*
%TD*%
D27*
%TO.C,C20*%
X257422500Y-84485000D03*
X259147500Y-84485000D03*
%TD*%
%TO.C,C10*%
X250590000Y-113097500D03*
X252315000Y-113097500D03*
%TD*%
D29*
%TO.C,R14*%
X225260000Y-89687500D03*
X225260000Y-87862500D03*
%TD*%
D32*
%TO.C,C15*%
X249025000Y-113387500D03*
X249025000Y-111662500D03*
%TD*%
D28*
%TO.C,R12*%
X261595000Y-86390000D03*
X263420000Y-86390000D03*
%TD*%
D32*
%TO.C,C16*%
X241610000Y-117312500D03*
X241610000Y-115587500D03*
%TD*%
D36*
%TO.C,R24*%
X240780000Y-86637500D03*
X240780000Y-88462500D03*
%TD*%
D27*
%TO.C,C5*%
X236857500Y-109130000D03*
X238582500Y-109130000D03*
%TD*%
D28*
%TO.C,R1*%
X230487500Y-135730000D03*
X232312500Y-135730000D03*
%TD*%
D38*
%TO.C,J14*%
X263810000Y-124780000D03*
X263810000Y-123680000D03*
X263810000Y-122580000D03*
X263810000Y-121480000D03*
X263810000Y-120380000D03*
X263810000Y-119280000D03*
X263810000Y-118180000D03*
X263810000Y-117080000D03*
D39*
X258110000Y-128455000D03*
X266410000Y-128455000D03*
X258110000Y-114705000D03*
X266410000Y-114705000D03*
%TD*%
D32*
%TO.C,C17*%
X246000000Y-113387500D03*
X246000000Y-111662500D03*
%TD*%
D27*
%TO.C,C11*%
X250590000Y-111587500D03*
X252315000Y-111587500D03*
%TD*%
%LPD*%
M02*
