G04 #@! TF.GenerationSoftware,KiCad,Pcbnew,8.0.8*
G04 #@! TF.CreationDate,2025-03-10T12:23:01-04:00*
G04 #@! TF.ProjectId,ground-receiver,67726f75-6e64-42d7-9265-636569766572,rev?*
G04 #@! TF.SameCoordinates,Original*
G04 #@! TF.FileFunction,Paste,Top*
G04 #@! TF.FilePolarity,Positive*
%FSLAX46Y46*%
G04 Gerber Fmt 4.6, Leading zero omitted, Abs format (unit mm)*
G04 Created by KiCad (PCBNEW 8.0.8) date 2025-03-10 12:23:01*
%MOMM*%
%LPD*%
G01*
G04 APERTURE LIST*
G04 Aperture macros list*
%AMRoundRect*
0 Rectangle with rounded corners*
0 $1 Rounding radius*
0 $2 $3 $4 $5 $6 $7 $8 $9 X,Y pos of 4 corners*
0 Add a 4 corners polygon primitive as box body*
4,1,4,$2,$3,$4,$5,$6,$7,$8,$9,$2,$3,0*
0 Add four circle primitives for the rounded corners*
1,1,$1+$1,$2,$3*
1,1,$1+$1,$4,$5*
1,1,$1+$1,$6,$7*
1,1,$1+$1,$8,$9*
0 Add four rect primitives between the rounded corners*
20,1,$1+$1,$2,$3,$4,$5,0*
20,1,$1+$1,$4,$5,$6,$7,0*
20,1,$1+$1,$6,$7,$8,$9,0*
20,1,$1+$1,$8,$9,$2,$3,0*%
G04 Aperture macros list end*
%ADD10C,0.000000*%
%ADD11RoundRect,0.172500X0.172500X0.332500X-0.172500X0.332500X-0.172500X-0.332500X0.172500X-0.332500X0*%
%ADD12RoundRect,0.050000X0.350000X0.050000X-0.350000X0.050000X-0.350000X-0.050000X0.350000X-0.050000X0*%
%ADD13R,0.254000X0.812800*%
%ADD14R,2.400000X1.650000*%
%ADD15RoundRect,0.250000X0.262500X0.450000X-0.262500X0.450000X-0.262500X-0.450000X0.262500X-0.450000X0*%
%ADD16RoundRect,0.250000X-0.350000X-0.450000X0.350000X-0.450000X0.350000X0.450000X-0.350000X0.450000X0*%
%ADD17RoundRect,0.250000X-0.450000X0.262500X-0.450000X-0.262500X0.450000X-0.262500X0.450000X0.262500X0*%
%ADD18RoundRect,0.250000X0.250000X0.475000X-0.250000X0.475000X-0.250000X-0.475000X0.250000X-0.475000X0*%
%ADD19C,3.200000*%
%ADD20RoundRect,0.250000X-0.250000X-0.475000X0.250000X-0.475000X0.250000X0.475000X-0.250000X0.475000X0*%
%ADD21RoundRect,0.250000X0.450000X-0.262500X0.450000X0.262500X-0.450000X0.262500X-0.450000X-0.262500X0*%
%ADD22RoundRect,0.250000X0.475000X-0.250000X0.475000X0.250000X-0.475000X0.250000X-0.475000X-0.250000X0*%
%ADD23RoundRect,0.250000X0.450000X-0.325000X0.450000X0.325000X-0.450000X0.325000X-0.450000X-0.325000X0*%
%ADD24RoundRect,0.250000X-0.475000X0.250000X-0.475000X-0.250000X0.475000X-0.250000X0.475000X0.250000X0*%
%ADD25RoundRect,0.250000X-0.325000X-0.450000X0.325000X-0.450000X0.325000X0.450000X-0.325000X0.450000X0*%
%ADD26R,0.279400X0.584200*%
%ADD27RoundRect,0.250000X0.350000X0.450000X-0.350000X0.450000X-0.350000X-0.450000X0.350000X-0.450000X0*%
%ADD28RoundRect,0.250000X-0.262500X-0.450000X0.262500X-0.450000X0.262500X0.450000X-0.262500X0.450000X0*%
%ADD29R,0.800000X0.300000*%
%ADD30R,1.750000X2.500000*%
%ADD31RoundRect,0.218750X0.218750X0.381250X-0.218750X0.381250X-0.218750X-0.381250X0.218750X-0.381250X0*%
%ADD32RoundRect,0.150000X-0.150000X-0.425000X0.150000X-0.425000X0.150000X0.425000X-0.150000X0.425000X0*%
%ADD33RoundRect,0.075000X-0.075000X-0.500000X0.075000X-0.500000X0.075000X0.500000X-0.075000X0.500000X0*%
%ADD34O,1.000000X2.100000*%
%ADD35O,1.000000X1.800000*%
%ADD36RoundRect,0.250000X-0.450000X0.350000X-0.450000X-0.350000X0.450000X-0.350000X0.450000X0.350000X0*%
G04 APERTURE END LIST*
D10*
G36*
X153700252Y-111652263D02*
G01*
X153400252Y-111652263D01*
X153400252Y-111402263D01*
X153700252Y-111402263D01*
X153700252Y-111652263D01*
G37*
G36*
X153700252Y-111652263D02*
G01*
X153400252Y-111652263D01*
X153400252Y-111402263D01*
X153700252Y-111402263D01*
X153700252Y-111652263D01*
G37*
G36*
X156400252Y-111652263D02*
G01*
X156100252Y-111652263D01*
X156100252Y-111402263D01*
X156400252Y-111402263D01*
X156400252Y-111652263D01*
G37*
G36*
X156400252Y-111652263D02*
G01*
X156100252Y-111652263D01*
X156100252Y-111402263D01*
X156400252Y-111402263D01*
X156400252Y-111652263D01*
G37*
G36*
X153700252Y-110902137D02*
G01*
X153400252Y-110902137D01*
X153400252Y-110652137D01*
X153700252Y-110652137D01*
X153700252Y-110902137D01*
G37*
G36*
X153700252Y-110902137D02*
G01*
X153400252Y-110902137D01*
X153400252Y-110652137D01*
X153700252Y-110652137D01*
X153700252Y-110902137D01*
G37*
G36*
X156400252Y-110902137D02*
G01*
X156100252Y-110902137D01*
X156100252Y-110652137D01*
X156400252Y-110652137D01*
X156400252Y-110902137D01*
G37*
G36*
X156400252Y-110902137D02*
G01*
X156100252Y-110902137D01*
X156100252Y-110652137D01*
X156400252Y-110652137D01*
X156400252Y-110902137D01*
G37*
D11*
X154550000Y-119300000D03*
X154550000Y-118050000D03*
X153700000Y-119300000D03*
X153700000Y-118050000D03*
D12*
X155575000Y-119800000D03*
X155575000Y-119350000D03*
X155575000Y-118900000D03*
X155575000Y-118450000D03*
X155575000Y-118000000D03*
X155575000Y-117550000D03*
X152675000Y-117550000D03*
X152675000Y-118000000D03*
X152675000Y-118450000D03*
X152675000Y-118900000D03*
X152675000Y-119350000D03*
X152675000Y-119800000D03*
D13*
X153900000Y-112600000D03*
X154400126Y-112600000D03*
X154900252Y-112600000D03*
X155400378Y-112600000D03*
X155900504Y-112600000D03*
X155900504Y-109704400D03*
X155400378Y-109704400D03*
X154900252Y-109704400D03*
X154400126Y-109704400D03*
X153900000Y-109704400D03*
D14*
X154900252Y-111152200D03*
D15*
X171137500Y-112412500D03*
X169312500Y-112412500D03*
D16*
X155100000Y-47200000D03*
X157100000Y-47200000D03*
D17*
X164712500Y-116287500D03*
X164712500Y-118112500D03*
D18*
X162912500Y-115812500D03*
X161012500Y-115812500D03*
D17*
X155100000Y-121275000D03*
X155100000Y-123100000D03*
D18*
X157800000Y-124900000D03*
X155900000Y-124900000D03*
D19*
X131500000Y-132500000D03*
D15*
X168612500Y-118012500D03*
X166787500Y-118012500D03*
D20*
X161012500Y-119612500D03*
X162912500Y-119612500D03*
D17*
X147800000Y-129475000D03*
X147800000Y-131300000D03*
D18*
X158900000Y-119600000D03*
X157000000Y-119600000D03*
D21*
X170412500Y-119637500D03*
X170412500Y-117812500D03*
D22*
X164712500Y-114312500D03*
X164712500Y-112412500D03*
D20*
X150400000Y-124900000D03*
X152300000Y-124900000D03*
D16*
X150925000Y-47200000D03*
X152925000Y-47200000D03*
D21*
X154000000Y-116012500D03*
X154000000Y-114187500D03*
D17*
X153100000Y-121275000D03*
X153100000Y-123100000D03*
D23*
X145300000Y-130450000D03*
X145300000Y-128400000D03*
D24*
X170987500Y-114312500D03*
X170987500Y-116212500D03*
D25*
X158973800Y-45223800D03*
X161023800Y-45223800D03*
D26*
X153600000Y-126500000D03*
X154099999Y-126500000D03*
X154599998Y-126500000D03*
X154599998Y-125179200D03*
X154099999Y-125179200D03*
X153600000Y-125179200D03*
D16*
X158923800Y-47223800D03*
X160923800Y-47223800D03*
D25*
X155050000Y-45200000D03*
X157100000Y-45200000D03*
D27*
X151200000Y-81700000D03*
X149200000Y-81700000D03*
D17*
X160400000Y-129500000D03*
X160400000Y-131325000D03*
D18*
X161600000Y-126800000D03*
X159700000Y-126800000D03*
D24*
X152100000Y-107800000D03*
X152100000Y-109700000D03*
D28*
X156175000Y-114300000D03*
X158000000Y-114300000D03*
D29*
X166312500Y-114212500D03*
X166312500Y-114712500D03*
X166312500Y-115212500D03*
X166312500Y-115712500D03*
X166312500Y-116212500D03*
X169312500Y-116212500D03*
X169312500Y-115712500D03*
X169312500Y-115212500D03*
X169312500Y-114712500D03*
X169312500Y-114212500D03*
D30*
X167812500Y-115212500D03*
D31*
X163037500Y-117712500D03*
X160912500Y-117712500D03*
D25*
X150875000Y-45200000D03*
X152925000Y-45200000D03*
D18*
X158900000Y-117600000D03*
X157000000Y-117600000D03*
D19*
X168500000Y-47500000D03*
D20*
X150400000Y-112900000D03*
X152300000Y-112900000D03*
D16*
X146825000Y-47200000D03*
X148825000Y-47200000D03*
D27*
X151200000Y-84200000D03*
X149200000Y-84200000D03*
D25*
X146775000Y-45200000D03*
X148825000Y-45200000D03*
D32*
X150920000Y-128945000D03*
X151720000Y-128945000D03*
D33*
X152870000Y-128945000D03*
X153870000Y-128945000D03*
X154370000Y-128945000D03*
X155370000Y-128945000D03*
D32*
X156520000Y-128945000D03*
X157320000Y-128945000D03*
X157320000Y-128945000D03*
X156520000Y-128945000D03*
D33*
X155870000Y-128945000D03*
X154870000Y-128945000D03*
X153370000Y-128945000D03*
X152370000Y-128945000D03*
D32*
X151720000Y-128945000D03*
X150920000Y-128945000D03*
D34*
X149800000Y-129520000D03*
D35*
X149800000Y-133700000D03*
D34*
X158440000Y-129520000D03*
D35*
X158440000Y-133700000D03*
D17*
X159700000Y-123175000D03*
X159700000Y-125000000D03*
D19*
X168500000Y-132500000D03*
D36*
X145300000Y-132200000D03*
X145300000Y-134200000D03*
D19*
X131500000Y-47500000D03*
D21*
X154100000Y-108125000D03*
X154100000Y-106300000D03*
D28*
X157575000Y-109700000D03*
X159400000Y-109700000D03*
D18*
X168612500Y-120012500D03*
X166712500Y-120012500D03*
M02*
