G04 #@! TF.GenerationSoftware,KiCad,Pcbnew,8.0.8*
G04 #@! TF.CreationDate,2025-03-10T12:23:01-04:00*
G04 #@! TF.ProjectId,ground-receiver,67726f75-6e64-42d7-9265-636569766572,rev?*
G04 #@! TF.SameCoordinates,Original*
G04 #@! TF.FileFunction,Copper,L3,Inr*
G04 #@! TF.FilePolarity,Positive*
%FSLAX46Y46*%
G04 Gerber Fmt 4.6, Leading zero omitted, Abs format (unit mm)*
G04 Created by KiCad (PCBNEW 8.0.8) date 2025-03-10 12:23:01*
%MOMM*%
%LPD*%
G01*
G04 APERTURE LIST*
G04 Aperture macros list*
%AMRoundRect*
0 Rectangle with rounded corners*
0 $1 Rounding radius*
0 $2 $3 $4 $5 $6 $7 $8 $9 X,Y pos of 4 corners*
0 Add a 4 corners polygon primitive as box body*
4,1,4,$2,$3,$4,$5,$6,$7,$8,$9,$2,$3,0*
0 Add four circle primitives for the rounded corners*
1,1,$1+$1,$2,$3*
1,1,$1+$1,$4,$5*
1,1,$1+$1,$6,$7*
1,1,$1+$1,$8,$9*
0 Add four rect primitives between the rounded corners*
20,1,$1+$1,$2,$3,$4,$5,0*
20,1,$1+$1,$4,$5,$6,$7,0*
20,1,$1+$1,$6,$7,$8,$9,0*
20,1,$1+$1,$8,$9,$2,$3,0*%
G04 Aperture macros list end*
G04 #@! TA.AperFunction,ComponentPad*
%ADD10RoundRect,0.250000X-0.600000X-0.725000X0.600000X-0.725000X0.600000X0.725000X-0.600000X0.725000X0*%
G04 #@! TD*
G04 #@! TA.AperFunction,ComponentPad*
%ADD11O,1.700000X1.950000*%
G04 #@! TD*
G04 #@! TA.AperFunction,ComponentPad*
%ADD12O,2.250000X1.500000*%
G04 #@! TD*
G04 #@! TA.AperFunction,ComponentPad*
%ADD13RoundRect,0.250000X0.725000X-0.600000X0.725000X0.600000X-0.725000X0.600000X-0.725000X-0.600000X0*%
G04 #@! TD*
G04 #@! TA.AperFunction,ComponentPad*
%ADD14O,1.950000X1.700000*%
G04 #@! TD*
G04 #@! TA.AperFunction,ComponentPad*
%ADD15RoundRect,0.250000X0.750000X-0.600000X0.750000X0.600000X-0.750000X0.600000X-0.750000X-0.600000X0*%
G04 #@! TD*
G04 #@! TA.AperFunction,ComponentPad*
%ADD16O,2.000000X1.700000*%
G04 #@! TD*
G04 #@! TA.AperFunction,ComponentPad*
%ADD17R,1.700000X1.700000*%
G04 #@! TD*
G04 #@! TA.AperFunction,ComponentPad*
%ADD18O,1.700000X1.700000*%
G04 #@! TD*
G04 #@! TA.AperFunction,HeatsinkPad*
%ADD19O,1.000000X2.100000*%
G04 #@! TD*
G04 #@! TA.AperFunction,HeatsinkPad*
%ADD20O,1.000000X1.800000*%
G04 #@! TD*
G04 #@! TA.AperFunction,ViaPad*
%ADD21C,0.600000*%
G04 #@! TD*
G04 APERTURE END LIST*
D10*
X157100000Y-65200000D03*
D11*
X159600000Y-65200000D03*
X162100000Y-65200000D03*
X164600000Y-65200000D03*
D12*
X131680000Y-66425000D03*
X131680000Y-68965000D03*
X131680000Y-71505000D03*
X131680000Y-74045000D03*
X131680000Y-99445000D03*
X146920000Y-68965000D03*
X131680000Y-76585000D03*
X131680000Y-79125000D03*
X146920000Y-63885000D03*
X131680000Y-81665000D03*
X131680000Y-84205000D03*
X131680000Y-86745000D03*
X131680000Y-89285000D03*
X131680000Y-91825000D03*
X131680000Y-94365000D03*
X131680000Y-96905000D03*
X146920000Y-96905000D03*
X146920000Y-94365000D03*
X146920000Y-91825000D03*
X146920000Y-89285000D03*
X146920000Y-86745000D03*
X146920000Y-84205000D03*
X146920000Y-81665000D03*
X146920000Y-79125000D03*
X146920000Y-76585000D03*
X146920000Y-74045000D03*
X146920000Y-71505000D03*
X131680000Y-101985000D03*
X131680000Y-104525000D03*
X131680000Y-107065000D03*
X131680000Y-109605000D03*
X131680000Y-112145000D03*
X131680000Y-114685000D03*
X131680000Y-117225000D03*
X131680000Y-119765000D03*
X131680000Y-122305000D03*
X146920000Y-122305000D03*
X146920000Y-119765000D03*
X146920000Y-117225000D03*
X146920000Y-114685000D03*
X146920000Y-112145000D03*
X146920000Y-109605000D03*
X146920000Y-107065000D03*
X146920000Y-104525000D03*
X146920000Y-101985000D03*
X131680000Y-63885000D03*
X146920000Y-66425000D03*
X146920000Y-99445000D03*
D13*
X124200000Y-96300000D03*
D14*
X124200000Y-93800000D03*
X124200000Y-91300000D03*
X124200000Y-88800000D03*
X124200000Y-86300000D03*
X124200000Y-83800000D03*
D15*
X162250000Y-104335130D03*
D16*
X162250000Y-101835130D03*
D17*
X136260000Y-54400000D03*
D18*
X138800000Y-54400000D03*
X141340000Y-54400000D03*
D13*
X117400000Y-59400000D03*
D14*
X117400000Y-56900000D03*
X117400000Y-54400000D03*
X117400000Y-51900000D03*
X117400000Y-49400000D03*
X117400000Y-46900000D03*
D13*
X124175000Y-59400000D03*
D14*
X124175000Y-56900000D03*
X124175000Y-54400000D03*
X124175000Y-51900000D03*
X124175000Y-49400000D03*
X124175000Y-46900000D03*
D18*
X112700000Y-91235000D03*
D17*
X112700000Y-93775000D03*
D18*
X112700000Y-128160000D03*
D17*
X112700000Y-130700000D03*
D18*
X112700000Y-54360000D03*
D17*
X112700000Y-56900000D03*
D19*
X149800000Y-129520000D03*
D20*
X149800000Y-133700000D03*
D19*
X158440000Y-129520000D03*
D20*
X158440000Y-133700000D03*
D13*
X117400000Y-96300000D03*
D14*
X117400000Y-93800000D03*
X117400000Y-91300000D03*
X117400000Y-88800000D03*
X117400000Y-86300000D03*
X117400000Y-83800000D03*
D13*
X117400000Y-133200000D03*
D14*
X117400000Y-130700000D03*
X117400000Y-128200000D03*
X117400000Y-125700000D03*
X117400000Y-123200000D03*
X117400000Y-120700000D03*
D13*
X124200000Y-133200000D03*
D14*
X124200000Y-130700000D03*
X124200000Y-128200000D03*
X124200000Y-125700000D03*
X124200000Y-123200000D03*
X124200000Y-120700000D03*
D21*
X151300000Y-112000000D03*
X150400000Y-123600000D03*
X163812500Y-121312500D03*
X154100000Y-119500000D03*
X148000000Y-46300000D03*
X155600000Y-111200000D03*
X146600000Y-134200000D03*
X159900000Y-119600000D03*
X159900000Y-117600000D03*
X157800000Y-123600000D03*
X152000000Y-46300000D03*
X167812500Y-116012500D03*
X167812500Y-114512500D03*
X160500000Y-109700000D03*
X152900000Y-106300000D03*
X156100000Y-46200000D03*
X154100000Y-117900000D03*
X169712500Y-120612500D03*
X165412500Y-119112500D03*
X152100000Y-106800000D03*
X162100000Y-125600000D03*
X154099999Y-127138779D03*
X152900000Y-116700000D03*
X146600000Y-129500000D03*
X161600000Y-129500000D03*
X171612500Y-117212500D03*
X161812500Y-114612500D03*
X161012500Y-120712500D03*
X154200000Y-111200000D03*
X160023800Y-46323800D03*
X159100000Y-114300000D03*
X151400000Y-117700000D03*
X157395200Y-120800000D03*
X158140000Y-126800000D03*
X154100000Y-124400000D03*
X150449999Y-127100000D03*
X152800000Y-110700000D03*
X151300000Y-116600000D03*
X150300000Y-115200000D03*
X140700000Y-75000000D03*
X158000000Y-51500000D03*
X161800000Y-52300000D03*
X141990065Y-75009935D03*
G04 #@! TA.AperFunction,Conductor*
G36*
X169502265Y-44421955D02*
G01*
X169796751Y-44439769D01*
X169805750Y-44440862D01*
X170093703Y-44493631D01*
X170102497Y-44495799D01*
X170381926Y-44582873D01*
X170381987Y-44582892D01*
X170390478Y-44586112D01*
X170657425Y-44706255D01*
X170665463Y-44710474D01*
X170915983Y-44861920D01*
X170923456Y-44867079D01*
X171153884Y-45047609D01*
X171160682Y-45053631D01*
X171367680Y-45260630D01*
X171373701Y-45267427D01*
X171554229Y-45497856D01*
X171559388Y-45505329D01*
X171710833Y-45755851D01*
X171715053Y-45763892D01*
X171835193Y-46030836D01*
X171838413Y-46039327D01*
X171925501Y-46318806D01*
X171927674Y-46327623D01*
X171980438Y-46615557D01*
X171981533Y-46624570D01*
X171998427Y-46903894D01*
X171999363Y-46919359D01*
X171999500Y-46923899D01*
X171999500Y-133108171D01*
X171999499Y-133108189D01*
X171999499Y-133176408D01*
X171999362Y-133180948D01*
X171981552Y-133475428D01*
X171980457Y-133484443D01*
X171927692Y-133772380D01*
X171925519Y-133781197D01*
X171838431Y-134060678D01*
X171835211Y-134069169D01*
X171715070Y-134336115D01*
X171710850Y-134344155D01*
X171559404Y-134594680D01*
X171554245Y-134602154D01*
X171373716Y-134832584D01*
X171367695Y-134839381D01*
X171160695Y-135046383D01*
X171153897Y-135052405D01*
X170923467Y-135232936D01*
X170915994Y-135238095D01*
X170665471Y-135389542D01*
X170657430Y-135393762D01*
X170390485Y-135513905D01*
X170381994Y-135517125D01*
X170102513Y-135604215D01*
X170093696Y-135606388D01*
X169805760Y-135659155D01*
X169796745Y-135660250D01*
X169502594Y-135678043D01*
X169498054Y-135678180D01*
X169429551Y-135678180D01*
X169429131Y-135678206D01*
X113902283Y-135699498D01*
X113897714Y-135699361D01*
X113603256Y-135681550D01*
X113594241Y-135680455D01*
X113306305Y-135627689D01*
X113297488Y-135625516D01*
X113018009Y-135538426D01*
X113009518Y-135535206D01*
X112742573Y-135415064D01*
X112734532Y-135410844D01*
X112484010Y-135259398D01*
X112476537Y-135254239D01*
X112246103Y-135073706D01*
X112239306Y-135067684D01*
X112032315Y-134860693D01*
X112026293Y-134853896D01*
X111845760Y-134623462D01*
X111840601Y-134615989D01*
X111738805Y-134447598D01*
X111689153Y-134365464D01*
X111684935Y-134357426D01*
X111677211Y-134340265D01*
X111564793Y-134090481D01*
X111561573Y-134081990D01*
X111520443Y-133950000D01*
X111474480Y-133802500D01*
X111472312Y-133793705D01*
X111419543Y-133505750D01*
X111418450Y-133496751D01*
X111400637Y-133202264D01*
X111400500Y-133197724D01*
X111400500Y-133119153D01*
X111400499Y-133119147D01*
X111400499Y-131988315D01*
X111418092Y-131939977D01*
X111462641Y-131914257D01*
X111513299Y-131923190D01*
X111520765Y-131928115D01*
X111607907Y-131993350D01*
X111607909Y-131993351D01*
X111742622Y-132043597D01*
X111742625Y-132043598D01*
X111802168Y-132049999D01*
X111802180Y-132050000D01*
X112450000Y-132050000D01*
X112450000Y-131133012D01*
X112507007Y-131165925D01*
X112634174Y-131200000D01*
X112765826Y-131200000D01*
X112892993Y-131165925D01*
X112950000Y-131133012D01*
X112950000Y-132050000D01*
X113597820Y-132050000D01*
X113597831Y-132049999D01*
X113657374Y-132043598D01*
X113657377Y-132043597D01*
X113792090Y-131993351D01*
X113792092Y-131993350D01*
X113907189Y-131907189D01*
X113993350Y-131792092D01*
X113993351Y-131792090D01*
X114043597Y-131657377D01*
X114043598Y-131657374D01*
X114049999Y-131597831D01*
X114050000Y-131597820D01*
X114050000Y-130950000D01*
X113133012Y-130950000D01*
X113165925Y-130892993D01*
X113200000Y-130765826D01*
X113200000Y-130634174D01*
X113165925Y-130507007D01*
X113133012Y-130450000D01*
X114050000Y-130450000D01*
X114050000Y-129802180D01*
X114049999Y-129802168D01*
X114043598Y-129742625D01*
X114043597Y-129742622D01*
X113993351Y-129607909D01*
X113993350Y-129607907D01*
X113907189Y-129492810D01*
X113792092Y-129406649D01*
X113792090Y-129406648D01*
X113657377Y-129356402D01*
X113657374Y-129356401D01*
X113597831Y-129350000D01*
X113419189Y-129350000D01*
X113370851Y-129332407D01*
X113345131Y-129287858D01*
X113354064Y-129237200D01*
X113376056Y-129213200D01*
X113506871Y-129121602D01*
X113506877Y-129121598D01*
X113661598Y-128966877D01*
X113787102Y-128787639D01*
X113879575Y-128589330D01*
X113936207Y-128377977D01*
X113955277Y-128160000D01*
X113936207Y-127942023D01*
X113879575Y-127730670D01*
X113856146Y-127680427D01*
X113787105Y-127532367D01*
X113787102Y-127532364D01*
X113787102Y-127532362D01*
X113661598Y-127353123D01*
X113661597Y-127353122D01*
X113661595Y-127353119D01*
X113506884Y-127198408D01*
X113506871Y-127198397D01*
X113327633Y-127072894D01*
X113129333Y-126980426D01*
X113129331Y-126980425D01*
X113129330Y-126980425D01*
X112917977Y-126923793D01*
X112917975Y-126923792D01*
X112917972Y-126923792D01*
X112700000Y-126904723D01*
X112482027Y-126923792D01*
X112482023Y-126923792D01*
X112482023Y-126923793D01*
X112345158Y-126960466D01*
X112270670Y-126980425D01*
X112270666Y-126980426D01*
X112072367Y-127072894D01*
X111893119Y-127198404D01*
X111738404Y-127353119D01*
X111612894Y-127532367D01*
X111543853Y-127680427D01*
X111507480Y-127716800D01*
X111456236Y-127721284D01*
X111414099Y-127691779D01*
X111400499Y-127648646D01*
X111400499Y-122949999D01*
X115947768Y-122949999D01*
X115947769Y-122950000D01*
X116995854Y-122950000D01*
X116957370Y-123016657D01*
X116925000Y-123137465D01*
X116925000Y-123262535D01*
X116957370Y-123383343D01*
X116995854Y-123450000D01*
X115947769Y-123450000D01*
X115958240Y-123516121D01*
X115958244Y-123516138D01*
X116023905Y-123718219D01*
X116120379Y-123907558D01*
X116245274Y-124079461D01*
X116245286Y-124079475D01*
X116395524Y-124229713D01*
X116395538Y-124229725D01*
X116567441Y-124354620D01*
X116732713Y-124438831D01*
X116767795Y-124476452D01*
X116770487Y-124527822D01*
X116739530Y-124568903D01*
X116732714Y-124572838D01*
X116619596Y-124630475D01*
X116460352Y-124746173D01*
X116460344Y-124746180D01*
X116321180Y-124885344D01*
X116321173Y-124885352D01*
X116205477Y-125044593D01*
X116116118Y-125219971D01*
X116116112Y-125219985D01*
X116055292Y-125407169D01*
X116055289Y-125407181D01*
X116024500Y-125601580D01*
X116024500Y-125798419D01*
X116055289Y-125992818D01*
X116055292Y-125992830D01*
X116089951Y-126099500D01*
X116116116Y-126180025D01*
X116193587Y-126332072D01*
X116205477Y-126355406D01*
X116321173Y-126514647D01*
X116321180Y-126514655D01*
X116460344Y-126653819D01*
X116460352Y-126653826D01*
X116460354Y-126653828D01*
X116619595Y-126769524D01*
X116794975Y-126858884D01*
X116855092Y-126878417D01*
X116855288Y-126878481D01*
X116895822Y-126910150D01*
X116906517Y-126960466D01*
X116882367Y-127005885D01*
X116855287Y-127021519D01*
X116794975Y-127041116D01*
X116794971Y-127041117D01*
X116794971Y-127041118D01*
X116619593Y-127130477D01*
X116460352Y-127246173D01*
X116460344Y-127246180D01*
X116321180Y-127385344D01*
X116321173Y-127385352D01*
X116205477Y-127544593D01*
X116116118Y-127719971D01*
X116116112Y-127719985D01*
X116055292Y-127907169D01*
X116055289Y-127907181D01*
X116024500Y-128101580D01*
X116024500Y-128298419D01*
X116055289Y-128492818D01*
X116055292Y-128492830D01*
X116115557Y-128678307D01*
X116116116Y-128680025D01*
X116205476Y-128855405D01*
X116286462Y-128966871D01*
X116321173Y-129014647D01*
X116321180Y-129014655D01*
X116460344Y-129153819D01*
X116460352Y-129153826D01*
X116460354Y-129153828D01*
X116619595Y-129269524D01*
X116794975Y-129358884D01*
X116855092Y-129378417D01*
X116855288Y-129378481D01*
X116895822Y-129410150D01*
X116906517Y-129460466D01*
X116882367Y-129505885D01*
X116855287Y-129521519D01*
X116794975Y-129541116D01*
X116794971Y-129541117D01*
X116794971Y-129541118D01*
X116619593Y-129630477D01*
X116460352Y-129746173D01*
X116460344Y-129746180D01*
X116321180Y-129885344D01*
X116321173Y-129885352D01*
X116205477Y-130044593D01*
X116116118Y-130219971D01*
X116116112Y-130219985D01*
X116055292Y-130407169D01*
X116055289Y-130407181D01*
X116024500Y-130601580D01*
X116024500Y-130798419D01*
X116055289Y-130992818D01*
X116055292Y-130992830D01*
X116111534Y-131165925D01*
X116116116Y-131180025D01*
X116205476Y-131355405D01*
X116288523Y-131469708D01*
X116321173Y-131514647D01*
X116321180Y-131514655D01*
X116460344Y-131653819D01*
X116460352Y-131653826D01*
X116460354Y-131653828D01*
X116619595Y-131769524D01*
X116693728Y-131807296D01*
X116728810Y-131844917D01*
X116731502Y-131896286D01*
X116700545Y-131937368D01*
X116659588Y-131949500D01*
X116609298Y-131949500D01*
X116572439Y-131952400D01*
X116572428Y-131952402D01*
X116414603Y-131998255D01*
X116273134Y-132081919D01*
X116273127Y-132081925D01*
X116156925Y-132198127D01*
X116156919Y-132198134D01*
X116073255Y-132339603D01*
X116027402Y-132497428D01*
X116027400Y-132497439D01*
X116024500Y-132534298D01*
X116024500Y-133865701D01*
X116027400Y-133902560D01*
X116027402Y-133902571D01*
X116073255Y-134060396D01*
X116073256Y-134060398D01*
X116088595Y-134086335D01*
X116156919Y-134201865D01*
X116156925Y-134201872D01*
X116273127Y-134318074D01*
X116273134Y-134318080D01*
X116273135Y-134318081D01*
X116414602Y-134401744D01*
X116572431Y-134447598D01*
X116572435Y-134447598D01*
X116572439Y-134447599D01*
X116590868Y-134449049D01*
X116609306Y-134450500D01*
X116609307Y-134450500D01*
X118190693Y-134450500D01*
X118190694Y-134450500D01*
X118213046Y-134448740D01*
X118227560Y-134447599D01*
X118227562Y-134447598D01*
X118227569Y-134447598D01*
X118385398Y-134401744D01*
X118526865Y-134318081D01*
X118643081Y-134201865D01*
X118726744Y-134060398D01*
X118772598Y-133902569D01*
X118775500Y-133865694D01*
X118775500Y-132534306D01*
X118772598Y-132497431D01*
X118726744Y-132339602D01*
X118643081Y-132198135D01*
X118643080Y-132198134D01*
X118643074Y-132198127D01*
X118526872Y-132081925D01*
X118526865Y-132081919D01*
X118385396Y-131998255D01*
X118227571Y-131952402D01*
X118227560Y-131952400D01*
X118190701Y-131949500D01*
X118190694Y-131949500D01*
X118140412Y-131949500D01*
X118092074Y-131931907D01*
X118066354Y-131887358D01*
X118075287Y-131836700D01*
X118106271Y-131807296D01*
X118180405Y-131769524D01*
X118339646Y-131653828D01*
X118478828Y-131514646D01*
X118594524Y-131355405D01*
X118683884Y-131180025D01*
X118744709Y-130992826D01*
X118775500Y-130798417D01*
X118775500Y-130601583D01*
X118744709Y-130407174D01*
X118683884Y-130219975D01*
X118594524Y-130044595D01*
X118478828Y-129885354D01*
X118478826Y-129885352D01*
X118478819Y-129885344D01*
X118339655Y-129746180D01*
X118339647Y-129746173D01*
X118334760Y-129742622D01*
X118180405Y-129630476D01*
X118005025Y-129541116D01*
X118005018Y-129541113D01*
X118005014Y-129541112D01*
X117944712Y-129521519D01*
X117904177Y-129489850D01*
X117893482Y-129439534D01*
X117917631Y-129394115D01*
X117944712Y-129378481D01*
X117945034Y-129378376D01*
X118005025Y-129358884D01*
X118180405Y-129269524D01*
X118339646Y-129153828D01*
X118478828Y-129014646D01*
X118594524Y-128855405D01*
X118683884Y-128680025D01*
X118744709Y-128492826D01*
X118775500Y-128298417D01*
X118775500Y-128101583D01*
X118744709Y-127907174D01*
X118683884Y-127719975D01*
X118594524Y-127544595D01*
X118478828Y-127385354D01*
X118478826Y-127385352D01*
X118478819Y-127385344D01*
X118339655Y-127246180D01*
X118339647Y-127246173D01*
X118273905Y-127198408D01*
X118180405Y-127130476D01*
X118005025Y-127041116D01*
X118005018Y-127041113D01*
X118005014Y-127041112D01*
X117944712Y-127021519D01*
X117904177Y-126989850D01*
X117893482Y-126939534D01*
X117917631Y-126894115D01*
X117944712Y-126878481D01*
X117945034Y-126878376D01*
X118005025Y-126858884D01*
X118180405Y-126769524D01*
X118339646Y-126653828D01*
X118478828Y-126514646D01*
X118594524Y-126355405D01*
X118683884Y-126180025D01*
X118744709Y-125992826D01*
X118775500Y-125798417D01*
X118775500Y-125601583D01*
X118744709Y-125407174D01*
X118683884Y-125219975D01*
X118594524Y-125044595D01*
X118478828Y-124885354D01*
X118478826Y-124885352D01*
X118478819Y-124885344D01*
X118339655Y-124746180D01*
X118339647Y-124746173D01*
X118180406Y-124630476D01*
X118067285Y-124572839D01*
X118032203Y-124535218D01*
X118029511Y-124483849D01*
X118060468Y-124442767D01*
X118067285Y-124438831D01*
X118232558Y-124354620D01*
X118404461Y-124229725D01*
X118404475Y-124229713D01*
X118554713Y-124079475D01*
X118554725Y-124079461D01*
X118679620Y-123907558D01*
X118776094Y-123718219D01*
X118841755Y-123516138D01*
X118841759Y-123516121D01*
X118852231Y-123450000D01*
X117804146Y-123450000D01*
X117842630Y-123383343D01*
X117875000Y-123262535D01*
X117875000Y-123137465D01*
X117842630Y-123016657D01*
X117804146Y-122950000D01*
X118852231Y-122950000D01*
X118852231Y-122949999D01*
X118841759Y-122883878D01*
X118841755Y-122883861D01*
X118776094Y-122681780D01*
X118679620Y-122492441D01*
X118554725Y-122320538D01*
X118554713Y-122320524D01*
X118404475Y-122170286D01*
X118404461Y-122170274D01*
X118232558Y-122045379D01*
X118067285Y-121961168D01*
X118032203Y-121923547D01*
X118029511Y-121872177D01*
X118060468Y-121831096D01*
X118067268Y-121827169D01*
X118180405Y-121769524D01*
X118339646Y-121653828D01*
X118478828Y-121514646D01*
X118594524Y-121355405D01*
X118683884Y-121180025D01*
X118744709Y-120992826D01*
X118775500Y-120798417D01*
X118775500Y-120601583D01*
X118775500Y-120601580D01*
X122824500Y-120601580D01*
X122824500Y-120798419D01*
X122855289Y-120992818D01*
X122855292Y-120992830D01*
X122904289Y-121143628D01*
X122916116Y-121180025D01*
X123005476Y-121355405D01*
X123110895Y-121500500D01*
X123121173Y-121514647D01*
X123121180Y-121514655D01*
X123260344Y-121653819D01*
X123260352Y-121653826D01*
X123260354Y-121653828D01*
X123419595Y-121769524D01*
X123594975Y-121858884D01*
X123655092Y-121878417D01*
X123655288Y-121878481D01*
X123695822Y-121910150D01*
X123706517Y-121960466D01*
X123682367Y-122005885D01*
X123655287Y-122021519D01*
X123594975Y-122041116D01*
X123594971Y-122041117D01*
X123594971Y-122041118D01*
X123419593Y-122130477D01*
X123260352Y-122246173D01*
X123260344Y-122246180D01*
X123121180Y-122385344D01*
X123121173Y-122385352D01*
X123005477Y-122544593D01*
X122916118Y-122719971D01*
X122916112Y-122719985D01*
X122855292Y-122907169D01*
X122855289Y-122907181D01*
X122824500Y-123101580D01*
X122824500Y-123298419D01*
X122855289Y-123492818D01*
X122855292Y-123492830D01*
X122903965Y-123642630D01*
X122916116Y-123680025D01*
X123005476Y-123855405D01*
X123061178Y-123932071D01*
X123121173Y-124014647D01*
X123121180Y-124014655D01*
X123260344Y-124153819D01*
X123260352Y-124153826D01*
X123260354Y-124153828D01*
X123419595Y-124269524D01*
X123594975Y-124358884D01*
X123655092Y-124378417D01*
X123655288Y-124378481D01*
X123695822Y-124410150D01*
X123706517Y-124460466D01*
X123682367Y-124505885D01*
X123655287Y-124521519D01*
X123594975Y-124541116D01*
X123594971Y-124541117D01*
X123594971Y-124541118D01*
X123419593Y-124630477D01*
X123260352Y-124746173D01*
X123260344Y-124746180D01*
X123121180Y-124885344D01*
X123121173Y-124885352D01*
X123005477Y-125044593D01*
X122916118Y-125219971D01*
X122916112Y-125219985D01*
X122855292Y-125407169D01*
X122855289Y-125407181D01*
X122824500Y-125601580D01*
X122824500Y-125798419D01*
X122855289Y-125992818D01*
X122855292Y-125992830D01*
X122889951Y-126099500D01*
X122916116Y-126180025D01*
X122993587Y-126332072D01*
X123005477Y-126355406D01*
X123121173Y-126514647D01*
X123121180Y-126514655D01*
X123260344Y-126653819D01*
X123260352Y-126653826D01*
X123260354Y-126653828D01*
X123419595Y-126769524D01*
X123594975Y-126858884D01*
X123655092Y-126878417D01*
X123655288Y-126878481D01*
X123695822Y-126910150D01*
X123706517Y-126960466D01*
X123682367Y-127005885D01*
X123655287Y-127021519D01*
X123594975Y-127041116D01*
X123594971Y-127041117D01*
X123594971Y-127041118D01*
X123419593Y-127130477D01*
X123260352Y-127246173D01*
X123260344Y-127246180D01*
X123121180Y-127385344D01*
X123121173Y-127385352D01*
X123005477Y-127544593D01*
X122916118Y-127719971D01*
X122916112Y-127719985D01*
X122855292Y-127907169D01*
X122855289Y-127907181D01*
X122824500Y-128101580D01*
X122824500Y-128298419D01*
X122855289Y-128492818D01*
X122855292Y-128492830D01*
X122915557Y-128678307D01*
X122916116Y-128680025D01*
X123005476Y-128855405D01*
X123086462Y-128966871D01*
X123121173Y-129014647D01*
X123121180Y-129014655D01*
X123260344Y-129153819D01*
X123260352Y-129153826D01*
X123260354Y-129153828D01*
X123419595Y-129269524D01*
X123594975Y-129358884D01*
X123655092Y-129378417D01*
X123655288Y-129378481D01*
X123695822Y-129410150D01*
X123706517Y-129460466D01*
X123682367Y-129505885D01*
X123655287Y-129521519D01*
X123594975Y-129541116D01*
X123594971Y-129541117D01*
X123594971Y-129541118D01*
X123419593Y-129630477D01*
X123260352Y-129746173D01*
X123260344Y-129746180D01*
X123121180Y-129885344D01*
X123121173Y-129885352D01*
X123005477Y-130044593D01*
X122916118Y-130219971D01*
X122916112Y-130219985D01*
X122855292Y-130407169D01*
X122855289Y-130407181D01*
X122824500Y-130601580D01*
X122824500Y-130798419D01*
X122855289Y-130992818D01*
X122855292Y-130992830D01*
X122911534Y-131165925D01*
X122916116Y-131180025D01*
X123005476Y-131355405D01*
X123088523Y-131469708D01*
X123121173Y-131514647D01*
X123121180Y-131514655D01*
X123260344Y-131653819D01*
X123260352Y-131653826D01*
X123260354Y-131653828D01*
X123419595Y-131769524D01*
X123493728Y-131807296D01*
X123528810Y-131844917D01*
X123531502Y-131896286D01*
X123500545Y-131937368D01*
X123459588Y-131949500D01*
X123409298Y-131949500D01*
X123372439Y-131952400D01*
X123372428Y-131952402D01*
X123214603Y-131998255D01*
X123073134Y-132081919D01*
X123073127Y-132081925D01*
X122956925Y-132198127D01*
X122956919Y-132198134D01*
X122873255Y-132339603D01*
X122827402Y-132497428D01*
X122827400Y-132497439D01*
X122824500Y-132534298D01*
X122824500Y-133865701D01*
X122827400Y-133902560D01*
X122827402Y-133902571D01*
X122873255Y-134060396D01*
X122873256Y-134060398D01*
X122888595Y-134086335D01*
X122956919Y-134201865D01*
X122956925Y-134201872D01*
X123073127Y-134318074D01*
X123073134Y-134318080D01*
X123073135Y-134318081D01*
X123214602Y-134401744D01*
X123372431Y-134447598D01*
X123372435Y-134447598D01*
X123372439Y-134447599D01*
X123390868Y-134449049D01*
X123409306Y-134450500D01*
X123409307Y-134450500D01*
X124990693Y-134450500D01*
X124990694Y-134450500D01*
X125013046Y-134448740D01*
X125027560Y-134447599D01*
X125027562Y-134447598D01*
X125027569Y-134447598D01*
X125185398Y-134401744D01*
X125326865Y-134318081D01*
X125443081Y-134201865D01*
X125526744Y-134060398D01*
X125572598Y-133902569D01*
X125575500Y-133865694D01*
X125575500Y-132534306D01*
X125572598Y-132497431D01*
X125538107Y-132378712D01*
X129649500Y-132378712D01*
X129649500Y-132621288D01*
X129681162Y-132861789D01*
X129743946Y-133096100D01*
X129743947Y-133096104D01*
X129743948Y-133096105D01*
X129836776Y-133320213D01*
X129958065Y-133530291D01*
X130105730Y-133722732D01*
X130105742Y-133722746D01*
X130277253Y-133894257D01*
X130277267Y-133894269D01*
X130288086Y-133902571D01*
X130469711Y-134041936D01*
X130679788Y-134163224D01*
X130903900Y-134256054D01*
X131138211Y-134318838D01*
X131378712Y-134350500D01*
X131378715Y-134350500D01*
X131621285Y-134350500D01*
X131621288Y-134350500D01*
X131861789Y-134318838D01*
X132096100Y-134256054D01*
X132320212Y-134163224D01*
X132530289Y-134041936D01*
X132722738Y-133894265D01*
X132894265Y-133722738D01*
X133041936Y-133530289D01*
X133163224Y-133320212D01*
X133212393Y-133201508D01*
X148800000Y-133201508D01*
X148800000Y-133450000D01*
X149500000Y-133450000D01*
X149500000Y-133950000D01*
X148800000Y-133950000D01*
X148800000Y-134198491D01*
X148838429Y-134391691D01*
X148838430Y-134391692D01*
X148913810Y-134573676D01*
X149023251Y-134737465D01*
X149023253Y-134737468D01*
X149162531Y-134876746D01*
X149162534Y-134876748D01*
X149326323Y-134986189D01*
X149508310Y-135061570D01*
X149508309Y-135061570D01*
X149549999Y-135069863D01*
X149550000Y-135069863D01*
X149550000Y-134266988D01*
X149559940Y-134284205D01*
X149615795Y-134340060D01*
X149684204Y-134379556D01*
X149760504Y-134400000D01*
X149839496Y-134400000D01*
X149915796Y-134379556D01*
X149984205Y-134340060D01*
X150040060Y-134284205D01*
X150050000Y-134266988D01*
X150050000Y-135069863D01*
X150091690Y-135061570D01*
X150273676Y-134986189D01*
X150437465Y-134876748D01*
X150437468Y-134876746D01*
X150576746Y-134737468D01*
X150576748Y-134737465D01*
X150686189Y-134573676D01*
X150761569Y-134391692D01*
X150761570Y-134391691D01*
X150800000Y-134198491D01*
X150800000Y-133950000D01*
X150100000Y-133950000D01*
X150100000Y-133450000D01*
X150800000Y-133450000D01*
X150800000Y-133201508D01*
X157440000Y-133201508D01*
X157440000Y-133450000D01*
X158140000Y-133450000D01*
X158140000Y-133950000D01*
X157440000Y-133950000D01*
X157440000Y-134198491D01*
X157478429Y-134391691D01*
X157478430Y-134391692D01*
X157553810Y-134573676D01*
X157663251Y-134737465D01*
X157663253Y-134737468D01*
X157802531Y-134876746D01*
X157802534Y-134876748D01*
X157966323Y-134986189D01*
X158148310Y-135061570D01*
X158148309Y-135061570D01*
X158189999Y-135069863D01*
X158190000Y-135069863D01*
X158190000Y-134266988D01*
X158199940Y-134284205D01*
X158255795Y-134340060D01*
X158324204Y-134379556D01*
X158400504Y-134400000D01*
X158479496Y-134400000D01*
X158555796Y-134379556D01*
X158624205Y-134340060D01*
X158680060Y-134284205D01*
X158690000Y-134266988D01*
X158690000Y-135069863D01*
X158731690Y-135061570D01*
X158913676Y-134986189D01*
X159077465Y-134876748D01*
X159077468Y-134876746D01*
X159216746Y-134737468D01*
X159216748Y-134737465D01*
X159326189Y-134573676D01*
X159401569Y-134391692D01*
X159401570Y-134391691D01*
X159440000Y-134198491D01*
X159440000Y-133950000D01*
X158740000Y-133950000D01*
X158740000Y-133450000D01*
X159440000Y-133450000D01*
X159440000Y-133201508D01*
X159401570Y-133008308D01*
X159401569Y-133008307D01*
X159326189Y-132826323D01*
X159216748Y-132662534D01*
X159216746Y-132662531D01*
X159077468Y-132523253D01*
X159077465Y-132523251D01*
X158913676Y-132413810D01*
X158828942Y-132378712D01*
X166649500Y-132378712D01*
X166649500Y-132621288D01*
X166681162Y-132861789D01*
X166743946Y-133096100D01*
X166743947Y-133096104D01*
X166743948Y-133096105D01*
X166836776Y-133320213D01*
X166958065Y-133530291D01*
X167105730Y-133722732D01*
X167105742Y-133722746D01*
X167277253Y-133894257D01*
X167277267Y-133894269D01*
X167288086Y-133902571D01*
X167469711Y-134041936D01*
X167679788Y-134163224D01*
X167903900Y-134256054D01*
X168138211Y-134318838D01*
X168378712Y-134350500D01*
X168378715Y-134350500D01*
X168621285Y-134350500D01*
X168621288Y-134350500D01*
X168861789Y-134318838D01*
X169096100Y-134256054D01*
X169320212Y-134163224D01*
X169530289Y-134041936D01*
X169722738Y-133894265D01*
X169894265Y-133722738D01*
X170041936Y-133530289D01*
X170163224Y-133320212D01*
X170256054Y-133096100D01*
X170318838Y-132861789D01*
X170350500Y-132621288D01*
X170350500Y-132378712D01*
X170318838Y-132138211D01*
X170256054Y-131903900D01*
X170163224Y-131679788D01*
X170041936Y-131469711D01*
X169894265Y-131277262D01*
X169894263Y-131277260D01*
X169894257Y-131277253D01*
X169722746Y-131105742D01*
X169722732Y-131105730D01*
X169530291Y-130958065D01*
X169320213Y-130836776D01*
X169096105Y-130743948D01*
X169096104Y-130743947D01*
X169096100Y-130743946D01*
X168861789Y-130681162D01*
X168621288Y-130649500D01*
X168378712Y-130649500D01*
X168138211Y-130681162D01*
X167903900Y-130743946D01*
X167903897Y-130743947D01*
X167903894Y-130743948D01*
X167679786Y-130836776D01*
X167469708Y-130958065D01*
X167277267Y-131105730D01*
X167277253Y-131105742D01*
X167105742Y-131277253D01*
X167105730Y-131277267D01*
X166958065Y-131469708D01*
X166836776Y-131679786D01*
X166743948Y-131903894D01*
X166743946Y-131903900D01*
X166681162Y-132138211D01*
X166649500Y-132378712D01*
X158828942Y-132378712D01*
X158731687Y-132338428D01*
X158690000Y-132330136D01*
X158690000Y-133133011D01*
X158680060Y-133115795D01*
X158624205Y-133059940D01*
X158555796Y-133020444D01*
X158479496Y-133000000D01*
X158400504Y-133000000D01*
X158324204Y-133020444D01*
X158255795Y-133059940D01*
X158199940Y-133115795D01*
X158190000Y-133133011D01*
X158190000Y-132330136D01*
X158189999Y-132330136D01*
X158148312Y-132338428D01*
X157966323Y-132413810D01*
X157802534Y-132523251D01*
X157802531Y-132523253D01*
X157663253Y-132662531D01*
X157663251Y-132662534D01*
X157553810Y-132826323D01*
X157478430Y-133008307D01*
X157478429Y-133008308D01*
X157440000Y-133201508D01*
X150800000Y-133201508D01*
X150761570Y-133008308D01*
X150761569Y-133008307D01*
X150686189Y-132826323D01*
X150576748Y-132662534D01*
X150576746Y-132662531D01*
X150437468Y-132523253D01*
X150437465Y-132523251D01*
X150273676Y-132413810D01*
X150091687Y-132338428D01*
X150050000Y-132330136D01*
X150050000Y-133133011D01*
X150040060Y-133115795D01*
X149984205Y-133059940D01*
X149915796Y-133020444D01*
X149839496Y-133000000D01*
X149760504Y-133000000D01*
X149684204Y-133020444D01*
X149615795Y-133059940D01*
X149559940Y-133115795D01*
X149550000Y-133133011D01*
X149550000Y-132330136D01*
X149549999Y-132330136D01*
X149508312Y-132338428D01*
X149326323Y-132413810D01*
X149162534Y-132523251D01*
X149162531Y-132523253D01*
X149023253Y-132662531D01*
X149023251Y-132662534D01*
X148913810Y-132826323D01*
X148838430Y-133008307D01*
X148838429Y-133008308D01*
X148800000Y-133201508D01*
X133212393Y-133201508D01*
X133256054Y-133096100D01*
X133318838Y-132861789D01*
X133350500Y-132621288D01*
X133350500Y-132378712D01*
X133318838Y-132138211D01*
X133256054Y-131903900D01*
X133163224Y-131679788D01*
X133041936Y-131469711D01*
X132894265Y-131277262D01*
X132894263Y-131277260D01*
X132894257Y-131277253D01*
X132722746Y-131105742D01*
X132722732Y-131105730D01*
X132530291Y-130958065D01*
X132320213Y-130836776D01*
X132096105Y-130743948D01*
X132096104Y-130743947D01*
X132096100Y-130743946D01*
X131861789Y-130681162D01*
X131621288Y-130649500D01*
X131378712Y-130649500D01*
X131138211Y-130681162D01*
X130903900Y-130743946D01*
X130903897Y-130743947D01*
X130903894Y-130743948D01*
X130679786Y-130836776D01*
X130469708Y-130958065D01*
X130277267Y-131105730D01*
X130277253Y-131105742D01*
X130105742Y-131277253D01*
X130105730Y-131277267D01*
X129958065Y-131469708D01*
X129836776Y-131679786D01*
X129743948Y-131903894D01*
X129743946Y-131903900D01*
X129681162Y-132138211D01*
X129649500Y-132378712D01*
X125538107Y-132378712D01*
X125526744Y-132339602D01*
X125443081Y-132198135D01*
X125443080Y-132198134D01*
X125443074Y-132198127D01*
X125326872Y-132081925D01*
X125326865Y-132081919D01*
X125185396Y-131998255D01*
X125027571Y-131952402D01*
X125027560Y-131952400D01*
X124990701Y-131949500D01*
X124990694Y-131949500D01*
X124940412Y-131949500D01*
X124892074Y-131931907D01*
X124866354Y-131887358D01*
X124875287Y-131836700D01*
X124906271Y-131807296D01*
X124980405Y-131769524D01*
X125139646Y-131653828D01*
X125278828Y-131514646D01*
X125394524Y-131355405D01*
X125483884Y-131180025D01*
X125544709Y-130992826D01*
X125575500Y-130798417D01*
X125575500Y-130601583D01*
X125544709Y-130407174D01*
X125483884Y-130219975D01*
X125394524Y-130044595D01*
X125278828Y-129885354D01*
X125278826Y-129885352D01*
X125278819Y-129885344D01*
X125139655Y-129746180D01*
X125139647Y-129746173D01*
X125134760Y-129742622D01*
X124980405Y-129630476D01*
X124805025Y-129541116D01*
X124805018Y-129541113D01*
X124805014Y-129541112D01*
X124744712Y-129521519D01*
X124704177Y-129489850D01*
X124693482Y-129439534D01*
X124717631Y-129394115D01*
X124744712Y-129378481D01*
X124745034Y-129378376D01*
X124805025Y-129358884D01*
X124980405Y-129269524D01*
X125139646Y-129153828D01*
X125278828Y-129014646D01*
X125382824Y-128871508D01*
X148800000Y-128871508D01*
X148800000Y-129270000D01*
X149500000Y-129270000D01*
X149500000Y-129770000D01*
X148800000Y-129770000D01*
X148800000Y-130168491D01*
X148838429Y-130361691D01*
X148838430Y-130361692D01*
X148913810Y-130543676D01*
X149023251Y-130707465D01*
X149023253Y-130707468D01*
X149162531Y-130846746D01*
X149162534Y-130846748D01*
X149326323Y-130956189D01*
X149508310Y-131031570D01*
X149508309Y-131031570D01*
X149549999Y-131039863D01*
X149550000Y-131039863D01*
X149550000Y-130236988D01*
X149559940Y-130254205D01*
X149615795Y-130310060D01*
X149684204Y-130349556D01*
X149760504Y-130370000D01*
X149839496Y-130370000D01*
X149915796Y-130349556D01*
X149984205Y-130310060D01*
X150040060Y-130254205D01*
X150050000Y-130236988D01*
X150050000Y-131039863D01*
X150091690Y-131031570D01*
X150273676Y-130956189D01*
X150437465Y-130846748D01*
X150437468Y-130846746D01*
X150576746Y-130707468D01*
X150576748Y-130707465D01*
X150686190Y-130543675D01*
X150717399Y-130468327D01*
X150752150Y-130430401D01*
X150803150Y-130423686D01*
X150840049Y-130443930D01*
X150876634Y-130480515D01*
X151007857Y-130556277D01*
X151007860Y-130556278D01*
X151007865Y-130556281D01*
X151154234Y-130595500D01*
X151154237Y-130595500D01*
X151305763Y-130595500D01*
X151305766Y-130595500D01*
X151452135Y-130556281D01*
X151583365Y-130480515D01*
X151690515Y-130373365D01*
X151766281Y-130242135D01*
X151805500Y-130095766D01*
X151805500Y-129944234D01*
X156434500Y-129944234D01*
X156434500Y-130095766D01*
X156473719Y-130242134D01*
X156473722Y-130242142D01*
X156549484Y-130373365D01*
X156656634Y-130480515D01*
X156787857Y-130556277D01*
X156787860Y-130556278D01*
X156787865Y-130556281D01*
X156934234Y-130595500D01*
X156934237Y-130595500D01*
X157085763Y-130595500D01*
X157085766Y-130595500D01*
X157232135Y-130556281D01*
X157363365Y-130480515D01*
X157399950Y-130443929D01*
X157446569Y-130422190D01*
X157496256Y-130435503D01*
X157522600Y-130468327D01*
X157553809Y-130543675D01*
X157663251Y-130707465D01*
X157663253Y-130707468D01*
X157802531Y-130846746D01*
X157802534Y-130846748D01*
X157966323Y-130956189D01*
X158148310Y-131031570D01*
X158148309Y-131031570D01*
X158189999Y-131039863D01*
X158190000Y-131039863D01*
X158190000Y-130236988D01*
X158199940Y-130254205D01*
X158255795Y-130310060D01*
X158324204Y-130349556D01*
X158400504Y-130370000D01*
X158479496Y-130370000D01*
X158555796Y-130349556D01*
X158624205Y-130310060D01*
X158680060Y-130254205D01*
X158690000Y-130236988D01*
X158690000Y-131039863D01*
X158731690Y-131031570D01*
X158913676Y-130956189D01*
X159077465Y-130846748D01*
X159077468Y-130846746D01*
X159216746Y-130707468D01*
X159216748Y-130707465D01*
X159326189Y-130543676D01*
X159401569Y-130361692D01*
X159401570Y-130361691D01*
X159440000Y-130168491D01*
X159440000Y-129770000D01*
X158740000Y-129770000D01*
X158740000Y-129270000D01*
X159440000Y-129270000D01*
X159440000Y-128871508D01*
X159401570Y-128678308D01*
X159401569Y-128678307D01*
X159326189Y-128496323D01*
X159216748Y-128332534D01*
X159216746Y-128332531D01*
X159077468Y-128193253D01*
X159077465Y-128193251D01*
X158913676Y-128083810D01*
X158731687Y-128008428D01*
X158690000Y-128000136D01*
X158690000Y-128803011D01*
X158680060Y-128785795D01*
X158624205Y-128729940D01*
X158555796Y-128690444D01*
X158479496Y-128670000D01*
X158400504Y-128670000D01*
X158324204Y-128690444D01*
X158255795Y-128729940D01*
X158199940Y-128785795D01*
X158190000Y-128803011D01*
X158190000Y-128000136D01*
X158189999Y-128000136D01*
X158148312Y-128008428D01*
X157966323Y-128083810D01*
X157802534Y-128193251D01*
X157802531Y-128193253D01*
X157663253Y-128332531D01*
X157663251Y-128332534D01*
X157553810Y-128496323D01*
X157478430Y-128678307D01*
X157478429Y-128678308D01*
X157440000Y-128871508D01*
X157440000Y-129270000D01*
X158140000Y-129270000D01*
X158140000Y-129770000D01*
X157573610Y-129770000D01*
X157525272Y-129752407D01*
X157508485Y-129732400D01*
X157470515Y-129666634D01*
X157363365Y-129559484D01*
X157232142Y-129483722D01*
X157232136Y-129483720D01*
X157232135Y-129483719D01*
X157085766Y-129444500D01*
X156934234Y-129444500D01*
X156800659Y-129480291D01*
X156787865Y-129483719D01*
X156787857Y-129483722D01*
X156656634Y-129559484D01*
X156549484Y-129666634D01*
X156473722Y-129797857D01*
X156473719Y-129797865D01*
X156434500Y-129944234D01*
X151805500Y-129944234D01*
X151766281Y-129797865D01*
X151766278Y-129797860D01*
X151766277Y-129797857D01*
X151690515Y-129666634D01*
X151583365Y-129559484D01*
X151452142Y-129483722D01*
X151452136Y-129483720D01*
X151452135Y-129483719D01*
X151305766Y-129444500D01*
X151154234Y-129444500D01*
X151020659Y-129480291D01*
X151007865Y-129483719D01*
X151007857Y-129483722D01*
X150876634Y-129559484D01*
X150769484Y-129666634D01*
X150731515Y-129732400D01*
X150692110Y-129765465D01*
X150666390Y-129770000D01*
X150100000Y-129770000D01*
X150100000Y-129270000D01*
X150800000Y-129270000D01*
X150800000Y-128871508D01*
X150761570Y-128678308D01*
X150761569Y-128678307D01*
X150686189Y-128496323D01*
X150576748Y-128332534D01*
X150576746Y-128332531D01*
X150437468Y-128193253D01*
X150437465Y-128193251D01*
X150273676Y-128083810D01*
X150091687Y-128008428D01*
X150050000Y-128000136D01*
X150050000Y-128803011D01*
X150040060Y-128785795D01*
X149984205Y-128729940D01*
X149915796Y-128690444D01*
X149839496Y-128670000D01*
X149760504Y-128670000D01*
X149684204Y-128690444D01*
X149615795Y-128729940D01*
X149559940Y-128785795D01*
X149550000Y-128803011D01*
X149550000Y-128000136D01*
X149549999Y-128000136D01*
X149508312Y-128008428D01*
X149326323Y-128083810D01*
X149162534Y-128193251D01*
X149162531Y-128193253D01*
X149023253Y-128332531D01*
X149023251Y-128332534D01*
X148913810Y-128496323D01*
X148838430Y-128678307D01*
X148838429Y-128678308D01*
X148800000Y-128871508D01*
X125382824Y-128871508D01*
X125394524Y-128855405D01*
X125483884Y-128680025D01*
X125544709Y-128492826D01*
X125575500Y-128298417D01*
X125575500Y-128101583D01*
X125544709Y-127907174D01*
X125483884Y-127719975D01*
X125394524Y-127544595D01*
X125278828Y-127385354D01*
X125278826Y-127385352D01*
X125278819Y-127385344D01*
X125139655Y-127246180D01*
X125139647Y-127246173D01*
X125073905Y-127198408D01*
X124980405Y-127130476D01*
X124920592Y-127100000D01*
X149744354Y-127100000D01*
X149764859Y-127268872D01*
X149825181Y-127427930D01*
X149921816Y-127567929D01*
X149921819Y-127567932D01*
X149921824Y-127567937D01*
X150049143Y-127680731D01*
X150049145Y-127680732D01*
X150049147Y-127680734D01*
X150199774Y-127759790D01*
X150364943Y-127800500D01*
X150364945Y-127800500D01*
X150535053Y-127800500D01*
X150535055Y-127800500D01*
X150700224Y-127759790D01*
X150850851Y-127680734D01*
X150978182Y-127567929D01*
X151074817Y-127427930D01*
X151135139Y-127268872D01*
X151155644Y-127100000D01*
X151135139Y-126931128D01*
X151085409Y-126800000D01*
X157434355Y-126800000D01*
X157454860Y-126968872D01*
X157454860Y-126968874D01*
X157454861Y-126968875D01*
X157459241Y-126980425D01*
X157515182Y-127127930D01*
X157611817Y-127267929D01*
X157611820Y-127267932D01*
X157611825Y-127267937D01*
X157739144Y-127380731D01*
X157739146Y-127380732D01*
X157739148Y-127380734D01*
X157889775Y-127459790D01*
X158054944Y-127500500D01*
X158054946Y-127500500D01*
X158225054Y-127500500D01*
X158225056Y-127500500D01*
X158390225Y-127459790D01*
X158540852Y-127380734D01*
X158668183Y-127267929D01*
X158764818Y-127127930D01*
X158825140Y-126968872D01*
X158845645Y-126800000D01*
X158825140Y-126631128D01*
X158764818Y-126472070D01*
X158668183Y-126332071D01*
X158668178Y-126332067D01*
X158668174Y-126332062D01*
X158540855Y-126219268D01*
X158540852Y-126219266D01*
X158390225Y-126140210D01*
X158225056Y-126099500D01*
X158054944Y-126099500D01*
X157944831Y-126126640D01*
X157889774Y-126140210D01*
X157739147Y-126219266D01*
X157739144Y-126219268D01*
X157611825Y-126332062D01*
X157611816Y-126332072D01*
X157515182Y-126472069D01*
X157515181Y-126472072D01*
X157454861Y-126631124D01*
X157454860Y-126631126D01*
X157454860Y-126631128D01*
X157434355Y-126800000D01*
X151085409Y-126800000D01*
X151074817Y-126772070D01*
X150978182Y-126632071D01*
X150978177Y-126632067D01*
X150978173Y-126632062D01*
X150850854Y-126519268D01*
X150850851Y-126519266D01*
X150700224Y-126440210D01*
X150535055Y-126399500D01*
X150364943Y-126399500D01*
X150254830Y-126426640D01*
X150199773Y-126440210D01*
X150049146Y-126519266D01*
X150049143Y-126519268D01*
X149921824Y-126632062D01*
X149921815Y-126632072D01*
X149825181Y-126772069D01*
X149825180Y-126772072D01*
X149764860Y-126931124D01*
X149764859Y-126931126D01*
X149764859Y-126931128D01*
X149744354Y-127100000D01*
X124920592Y-127100000D01*
X124805025Y-127041116D01*
X124805018Y-127041113D01*
X124805014Y-127041112D01*
X124744712Y-127021519D01*
X124704177Y-126989850D01*
X124693482Y-126939534D01*
X124717631Y-126894115D01*
X124744712Y-126878481D01*
X124745034Y-126878376D01*
X124805025Y-126858884D01*
X124980405Y-126769524D01*
X125139646Y-126653828D01*
X125278828Y-126514646D01*
X125394524Y-126355405D01*
X125483884Y-126180025D01*
X125544709Y-125992826D01*
X125575500Y-125798417D01*
X125575500Y-125601583D01*
X125544709Y-125407174D01*
X125483884Y-125219975D01*
X125394524Y-125044595D01*
X125278828Y-124885354D01*
X125278826Y-124885352D01*
X125278819Y-124885344D01*
X125139655Y-124746180D01*
X125139647Y-124746173D01*
X124980406Y-124630477D01*
X124980407Y-124630477D01*
X124980405Y-124630476D01*
X124805025Y-124541116D01*
X124805018Y-124541113D01*
X124805014Y-124541112D01*
X124744712Y-124521519D01*
X124704177Y-124489850D01*
X124693482Y-124439534D01*
X124714502Y-124400000D01*
X153394355Y-124400000D01*
X153414860Y-124568872D01*
X153475182Y-124727930D01*
X153571817Y-124867929D01*
X153571820Y-124867932D01*
X153571825Y-124867937D01*
X153699144Y-124980731D01*
X153699146Y-124980732D01*
X153699148Y-124980734D01*
X153849775Y-125059790D01*
X154014944Y-125100500D01*
X154014946Y-125100500D01*
X154185054Y-125100500D01*
X154185056Y-125100500D01*
X154350225Y-125059790D01*
X154500852Y-124980734D01*
X154628183Y-124867929D01*
X154724818Y-124727930D01*
X154785140Y-124568872D01*
X154805645Y-124400000D01*
X154785140Y-124231128D01*
X154724818Y-124072070D01*
X154628183Y-123932071D01*
X154628178Y-123932067D01*
X154628174Y-123932062D01*
X154500855Y-123819268D01*
X154500852Y-123819266D01*
X154350225Y-123740210D01*
X154185056Y-123699500D01*
X154014944Y-123699500D01*
X153904831Y-123726640D01*
X153849774Y-123740210D01*
X153699147Y-123819266D01*
X153699144Y-123819268D01*
X153571825Y-123932062D01*
X153571816Y-123932072D01*
X153475182Y-124072069D01*
X153475181Y-124072072D01*
X153414861Y-124231124D01*
X153414860Y-124231126D01*
X153414860Y-124231128D01*
X153394355Y-124400000D01*
X124714502Y-124400000D01*
X124717631Y-124394115D01*
X124744712Y-124378481D01*
X124745034Y-124378376D01*
X124805025Y-124358884D01*
X124980405Y-124269524D01*
X125139646Y-124153828D01*
X125278828Y-124014646D01*
X125394524Y-123855405D01*
X125483884Y-123680025D01*
X125544709Y-123492826D01*
X125575500Y-123298417D01*
X125575500Y-123101583D01*
X125544709Y-122907174D01*
X125483884Y-122719975D01*
X125394524Y-122544595D01*
X125278828Y-122385354D01*
X125278826Y-122385352D01*
X125278819Y-122385344D01*
X125139655Y-122246180D01*
X125139647Y-122246173D01*
X125095996Y-122214458D01*
X125095986Y-122214451D01*
X130154500Y-122214451D01*
X130154500Y-122395548D01*
X130182828Y-122574406D01*
X130182829Y-122574409D01*
X130238788Y-122746638D01*
X130321006Y-122907998D01*
X130427443Y-123054496D01*
X130427455Y-123054510D01*
X130555489Y-123182544D01*
X130555503Y-123182556D01*
X130702001Y-123288993D01*
X130702003Y-123288994D01*
X130702006Y-123288996D01*
X130863361Y-123371211D01*
X131035591Y-123427171D01*
X131214454Y-123455500D01*
X131214458Y-123455500D01*
X132145542Y-123455500D01*
X132145546Y-123455500D01*
X132324409Y-123427171D01*
X132496639Y-123371211D01*
X132657994Y-123288996D01*
X132804501Y-123182553D01*
X132932553Y-123054501D01*
X133038996Y-122907994D01*
X133121211Y-122746639D01*
X133177171Y-122574409D01*
X133205500Y-122395546D01*
X133205500Y-122214454D01*
X133205500Y-122214451D01*
X145394500Y-122214451D01*
X145394500Y-122395548D01*
X145422828Y-122574406D01*
X145422829Y-122574409D01*
X145478788Y-122746638D01*
X145561006Y-122907998D01*
X145667443Y-123054496D01*
X145667455Y-123054510D01*
X145795489Y-123182544D01*
X145795503Y-123182556D01*
X145942001Y-123288993D01*
X145942003Y-123288994D01*
X145942006Y-123288996D01*
X146103361Y-123371211D01*
X146275591Y-123427171D01*
X146454454Y-123455500D01*
X146454458Y-123455500D01*
X147385542Y-123455500D01*
X147385546Y-123455500D01*
X147564409Y-123427171D01*
X147736639Y-123371211D01*
X147897994Y-123288996D01*
X148044501Y-123182553D01*
X148172553Y-123054501D01*
X148278996Y-122907994D01*
X148361211Y-122746639D01*
X148417171Y-122574409D01*
X148445500Y-122395546D01*
X148445500Y-122214454D01*
X148417171Y-122035591D01*
X148361211Y-121863361D01*
X148278996Y-121702006D01*
X148278994Y-121702003D01*
X148278993Y-121702001D01*
X148172556Y-121555503D01*
X148172544Y-121555489D01*
X148044510Y-121427455D01*
X148044496Y-121427443D01*
X147897998Y-121321006D01*
X147736638Y-121238788D01*
X147564409Y-121182829D01*
X147564406Y-121182828D01*
X147385548Y-121154500D01*
X147385546Y-121154500D01*
X146454454Y-121154500D01*
X146454451Y-121154500D01*
X146275593Y-121182828D01*
X146275590Y-121182829D01*
X146103361Y-121238788D01*
X145942001Y-121321006D01*
X145795503Y-121427443D01*
X145795489Y-121427455D01*
X145667455Y-121555489D01*
X145667443Y-121555503D01*
X145561006Y-121702001D01*
X145478788Y-121863361D01*
X145422829Y-122035590D01*
X145422828Y-122035593D01*
X145394500Y-122214451D01*
X133205500Y-122214451D01*
X133177171Y-122035591D01*
X133121211Y-121863361D01*
X133038996Y-121702006D01*
X133038994Y-121702003D01*
X133038993Y-121702001D01*
X132932556Y-121555503D01*
X132932544Y-121555489D01*
X132804510Y-121427455D01*
X132804496Y-121427443D01*
X132657998Y-121321006D01*
X132496638Y-121238788D01*
X132324409Y-121182829D01*
X132324406Y-121182828D01*
X132145548Y-121154500D01*
X132145546Y-121154500D01*
X131214454Y-121154500D01*
X131214451Y-121154500D01*
X131035593Y-121182828D01*
X131035590Y-121182829D01*
X130863361Y-121238788D01*
X130702001Y-121321006D01*
X130555503Y-121427443D01*
X130555489Y-121427455D01*
X130427455Y-121555489D01*
X130427443Y-121555503D01*
X130321006Y-121702001D01*
X130238788Y-121863361D01*
X130182829Y-122035590D01*
X130182828Y-122035593D01*
X130154500Y-122214451D01*
X125095986Y-122214451D01*
X124980405Y-122130476D01*
X124805025Y-122041116D01*
X124805018Y-122041113D01*
X124805014Y-122041112D01*
X124744712Y-122021519D01*
X124704177Y-121989850D01*
X124693482Y-121939534D01*
X124717631Y-121894115D01*
X124744712Y-121878481D01*
X124745034Y-121878376D01*
X124805025Y-121858884D01*
X124980405Y-121769524D01*
X125139646Y-121653828D01*
X125278828Y-121514646D01*
X125394524Y-121355405D01*
X125483884Y-121180025D01*
X125544709Y-120992826D01*
X125575500Y-120798417D01*
X125575500Y-120601583D01*
X125544709Y-120407174D01*
X125483884Y-120219975D01*
X125394524Y-120044595D01*
X125278828Y-119885354D01*
X125278826Y-119885352D01*
X125278819Y-119885344D01*
X125139655Y-119746180D01*
X125139647Y-119746173D01*
X125040941Y-119674458D01*
X125040931Y-119674451D01*
X130154500Y-119674451D01*
X130154500Y-119855548D01*
X130182828Y-120034406D01*
X130182829Y-120034409D01*
X130238788Y-120206638D01*
X130321006Y-120367998D01*
X130427443Y-120514496D01*
X130427455Y-120514510D01*
X130555489Y-120642544D01*
X130555503Y-120642556D01*
X130702001Y-120748993D01*
X130702003Y-120748994D01*
X130702006Y-120748996D01*
X130863361Y-120831211D01*
X131035591Y-120887171D01*
X131214454Y-120915500D01*
X131214458Y-120915500D01*
X132145542Y-120915500D01*
X132145546Y-120915500D01*
X132324409Y-120887171D01*
X132496639Y-120831211D01*
X132657994Y-120748996D01*
X132804501Y-120642553D01*
X132932553Y-120514501D01*
X133038996Y-120367994D01*
X133121211Y-120206639D01*
X133177171Y-120034409D01*
X133205500Y-119855546D01*
X133205500Y-119674454D01*
X133205500Y-119674451D01*
X145394500Y-119674451D01*
X145394500Y-119855548D01*
X145422828Y-120034406D01*
X145422829Y-120034409D01*
X145478788Y-120206638D01*
X145561006Y-120367998D01*
X145667443Y-120514496D01*
X145667455Y-120514510D01*
X145795489Y-120642544D01*
X145795503Y-120642556D01*
X145942001Y-120748993D01*
X145942003Y-120748994D01*
X145942006Y-120748996D01*
X146103361Y-120831211D01*
X146275591Y-120887171D01*
X146454454Y-120915500D01*
X146454458Y-120915500D01*
X147385542Y-120915500D01*
X147385546Y-120915500D01*
X147564409Y-120887171D01*
X147736639Y-120831211D01*
X147797894Y-120800000D01*
X156689555Y-120800000D01*
X156710060Y-120968872D01*
X156770382Y-121127930D01*
X156867017Y-121267929D01*
X156867020Y-121267932D01*
X156867025Y-121267937D01*
X156994344Y-121380731D01*
X156994346Y-121380732D01*
X156994348Y-121380734D01*
X157144975Y-121459790D01*
X157310144Y-121500500D01*
X157310146Y-121500500D01*
X157480254Y-121500500D01*
X157480256Y-121500500D01*
X157645425Y-121459790D01*
X157796052Y-121380734D01*
X157873073Y-121312500D01*
X163106855Y-121312500D01*
X163127360Y-121481372D01*
X163187682Y-121640430D01*
X163284317Y-121780429D01*
X163284320Y-121780432D01*
X163284325Y-121780437D01*
X163411644Y-121893231D01*
X163411646Y-121893232D01*
X163411648Y-121893234D01*
X163562275Y-121972290D01*
X163727444Y-122013000D01*
X163727446Y-122013000D01*
X163897554Y-122013000D01*
X163897556Y-122013000D01*
X164062725Y-121972290D01*
X164213352Y-121893234D01*
X164340683Y-121780429D01*
X164437318Y-121640430D01*
X164497640Y-121481372D01*
X164518145Y-121312500D01*
X164497640Y-121143628D01*
X164437318Y-120984570D01*
X164340683Y-120844571D01*
X164340678Y-120844567D01*
X164340674Y-120844562D01*
X164213355Y-120731768D01*
X164213352Y-120731766D01*
X164062725Y-120652710D01*
X164021528Y-120642556D01*
X163897556Y-120612000D01*
X163727444Y-120612000D01*
X163649838Y-120631128D01*
X163562274Y-120652710D01*
X163411647Y-120731766D01*
X163411644Y-120731768D01*
X163284325Y-120844562D01*
X163284316Y-120844572D01*
X163187682Y-120984569D01*
X163187681Y-120984572D01*
X163127361Y-121143624D01*
X163127360Y-121143626D01*
X163127360Y-121143628D01*
X163106855Y-121312500D01*
X157873073Y-121312500D01*
X157923383Y-121267929D01*
X158020018Y-121127930D01*
X158080340Y-120968872D01*
X158100845Y-120800000D01*
X158080340Y-120631128D01*
X158020018Y-120472070D01*
X157923383Y-120332071D01*
X157923378Y-120332067D01*
X157923374Y-120332062D01*
X157796055Y-120219268D01*
X157796052Y-120219266D01*
X157645425Y-120140210D01*
X157480256Y-120099500D01*
X157310144Y-120099500D01*
X157200031Y-120126640D01*
X157144974Y-120140210D01*
X156994347Y-120219266D01*
X156994344Y-120219268D01*
X156867025Y-120332062D01*
X156867016Y-120332072D01*
X156770382Y-120472069D01*
X156770381Y-120472072D01*
X156710061Y-120631124D01*
X156710060Y-120631126D01*
X156710060Y-120631128D01*
X156689555Y-120800000D01*
X147797894Y-120800000D01*
X147897994Y-120748996D01*
X148044501Y-120642553D01*
X148172553Y-120514501D01*
X148278996Y-120367994D01*
X148361211Y-120206639D01*
X148417171Y-120034409D01*
X148445500Y-119855546D01*
X148445500Y-119674454D01*
X148417171Y-119495591D01*
X148361211Y-119323361D01*
X148278996Y-119162006D01*
X148278994Y-119162003D01*
X148278993Y-119162001D01*
X148172556Y-119015503D01*
X148172544Y-119015489D01*
X148044510Y-118887455D01*
X148044496Y-118887443D01*
X147897998Y-118781006D01*
X147736638Y-118698788D01*
X147564409Y-118642829D01*
X147564406Y-118642828D01*
X147385548Y-118614500D01*
X147385546Y-118614500D01*
X146454454Y-118614500D01*
X146454451Y-118614500D01*
X146275593Y-118642828D01*
X146275590Y-118642829D01*
X146103361Y-118698788D01*
X145942001Y-118781006D01*
X145795503Y-118887443D01*
X145795489Y-118887455D01*
X145667455Y-119015489D01*
X145667443Y-119015503D01*
X145561006Y-119162001D01*
X145478788Y-119323361D01*
X145422829Y-119495590D01*
X145422828Y-119495593D01*
X145394500Y-119674451D01*
X133205500Y-119674451D01*
X133177171Y-119495591D01*
X133121211Y-119323361D01*
X133038996Y-119162006D01*
X133038994Y-119162003D01*
X133038993Y-119162001D01*
X132932556Y-119015503D01*
X132932544Y-119015489D01*
X132804510Y-118887455D01*
X132804496Y-118887443D01*
X132657998Y-118781006D01*
X132496638Y-118698788D01*
X132324409Y-118642829D01*
X132324406Y-118642828D01*
X132145548Y-118614500D01*
X132145546Y-118614500D01*
X131214454Y-118614500D01*
X131214451Y-118614500D01*
X131035593Y-118642828D01*
X131035590Y-118642829D01*
X130863361Y-118698788D01*
X130702001Y-118781006D01*
X130555503Y-118887443D01*
X130555489Y-118887455D01*
X130427455Y-119015489D01*
X130427443Y-119015503D01*
X130321006Y-119162001D01*
X130238788Y-119323361D01*
X130182829Y-119495590D01*
X130182828Y-119495593D01*
X130154500Y-119674451D01*
X125040931Y-119674451D01*
X124980405Y-119630476D01*
X124805025Y-119541116D01*
X124805018Y-119541113D01*
X124805014Y-119541112D01*
X124617830Y-119480292D01*
X124617818Y-119480289D01*
X124423419Y-119449500D01*
X124423417Y-119449500D01*
X123976583Y-119449500D01*
X123976580Y-119449500D01*
X123782181Y-119480289D01*
X123782169Y-119480292D01*
X123594985Y-119541112D01*
X123594977Y-119541115D01*
X123594975Y-119541116D01*
X123594971Y-119541117D01*
X123594971Y-119541118D01*
X123419593Y-119630477D01*
X123260352Y-119746173D01*
X123260344Y-119746180D01*
X123121180Y-119885344D01*
X123121173Y-119885352D01*
X123005477Y-120044593D01*
X122916118Y-120219971D01*
X122916112Y-120219985D01*
X122855292Y-120407169D01*
X122855289Y-120407181D01*
X122824500Y-120601580D01*
X118775500Y-120601580D01*
X118744709Y-120407174D01*
X118683884Y-120219975D01*
X118594524Y-120044595D01*
X118478828Y-119885354D01*
X118478826Y-119885352D01*
X118478819Y-119885344D01*
X118339655Y-119746180D01*
X118339647Y-119746173D01*
X118240941Y-119674458D01*
X118180405Y-119630476D01*
X118005025Y-119541116D01*
X118005018Y-119541113D01*
X118005014Y-119541112D01*
X117817830Y-119480292D01*
X117817818Y-119480289D01*
X117623419Y-119449500D01*
X117623417Y-119449500D01*
X117176583Y-119449500D01*
X117176580Y-119449500D01*
X116982181Y-119480289D01*
X116982169Y-119480292D01*
X116794985Y-119541112D01*
X116794977Y-119541115D01*
X116794975Y-119541116D01*
X116794971Y-119541117D01*
X116794971Y-119541118D01*
X116619593Y-119630477D01*
X116460352Y-119746173D01*
X116460344Y-119746180D01*
X116321180Y-119885344D01*
X116321173Y-119885352D01*
X116205477Y-120044593D01*
X116116118Y-120219971D01*
X116116112Y-120219985D01*
X116055292Y-120407169D01*
X116055289Y-120407181D01*
X116024500Y-120601580D01*
X116024500Y-120798419D01*
X116055289Y-120992818D01*
X116055292Y-120992830D01*
X116104289Y-121143628D01*
X116116116Y-121180025D01*
X116205476Y-121355405D01*
X116310895Y-121500500D01*
X116321173Y-121514647D01*
X116321180Y-121514655D01*
X116460344Y-121653819D01*
X116460352Y-121653826D01*
X116460354Y-121653828D01*
X116619595Y-121769524D01*
X116732715Y-121827161D01*
X116767796Y-121864781D01*
X116770488Y-121916150D01*
X116739531Y-121957232D01*
X116732714Y-121961168D01*
X116567441Y-122045379D01*
X116395538Y-122170274D01*
X116395524Y-122170286D01*
X116245286Y-122320524D01*
X116245274Y-122320538D01*
X116120379Y-122492441D01*
X116023905Y-122681780D01*
X115958244Y-122883861D01*
X115958240Y-122883878D01*
X115947768Y-122949999D01*
X111400499Y-122949999D01*
X111400499Y-117134451D01*
X130154500Y-117134451D01*
X130154500Y-117315548D01*
X130182828Y-117494406D01*
X130182829Y-117494409D01*
X130238788Y-117666638D01*
X130321006Y-117827998D01*
X130427443Y-117974496D01*
X130427455Y-117974510D01*
X130555489Y-118102544D01*
X130555503Y-118102556D01*
X130702001Y-118208993D01*
X130702003Y-118208994D01*
X130702006Y-118208996D01*
X130863361Y-118291211D01*
X131035591Y-118347171D01*
X131214454Y-118375500D01*
X131214458Y-118375500D01*
X132145542Y-118375500D01*
X132145546Y-118375500D01*
X132324409Y-118347171D01*
X132496639Y-118291211D01*
X132657994Y-118208996D01*
X132804501Y-118102553D01*
X132932553Y-117974501D01*
X133038996Y-117827994D01*
X133121211Y-117666639D01*
X133177171Y-117494409D01*
X133205500Y-117315546D01*
X133205500Y-117134454D01*
X133205500Y-117134451D01*
X145394500Y-117134451D01*
X145394500Y-117315548D01*
X145422828Y-117494406D01*
X145422829Y-117494409D01*
X145478788Y-117666638D01*
X145561006Y-117827998D01*
X145667443Y-117974496D01*
X145667455Y-117974510D01*
X145795489Y-118102544D01*
X145795503Y-118102556D01*
X145942001Y-118208993D01*
X145942003Y-118208994D01*
X145942006Y-118208996D01*
X146103361Y-118291211D01*
X146275591Y-118347171D01*
X146454454Y-118375500D01*
X146454458Y-118375500D01*
X147385542Y-118375500D01*
X147385546Y-118375500D01*
X147564409Y-118347171D01*
X147736639Y-118291211D01*
X147897994Y-118208996D01*
X148044501Y-118102553D01*
X148172553Y-117974501D01*
X148278996Y-117827994D01*
X148361211Y-117666639D01*
X148417171Y-117494409D01*
X148445500Y-117315546D01*
X148445500Y-117134454D01*
X148417171Y-116955591D01*
X148361211Y-116783361D01*
X148278996Y-116622006D01*
X148278994Y-116622003D01*
X148278993Y-116622001D01*
X148263008Y-116600000D01*
X150594355Y-116600000D01*
X150614860Y-116768872D01*
X150675182Y-116927930D01*
X150771817Y-117067929D01*
X150771820Y-117067932D01*
X150771825Y-117067937D01*
X150854309Y-117141011D01*
X150878824Y-117186233D01*
X150868535Y-117236634D01*
X150866331Y-117240017D01*
X150775185Y-117372064D01*
X150775181Y-117372072D01*
X150714861Y-117531124D01*
X150714860Y-117531126D01*
X150714860Y-117531128D01*
X150694355Y-117700000D01*
X150714860Y-117868872D01*
X150775182Y-118027930D01*
X150871817Y-118167929D01*
X150871820Y-118167932D01*
X150871825Y-118167937D01*
X150999144Y-118280731D01*
X150999146Y-118280732D01*
X150999148Y-118280734D01*
X151149775Y-118359790D01*
X151314944Y-118400500D01*
X151314946Y-118400500D01*
X151485054Y-118400500D01*
X151485056Y-118400500D01*
X151650225Y-118359790D01*
X151800852Y-118280734D01*
X151928183Y-118167929D01*
X152024818Y-118027930D01*
X152085140Y-117868872D01*
X152105645Y-117700000D01*
X152085140Y-117531128D01*
X152024818Y-117372070D01*
X151928183Y-117232071D01*
X151928179Y-117232068D01*
X151928178Y-117232066D01*
X151845689Y-117158988D01*
X151821175Y-117113766D01*
X151831464Y-117063365D01*
X151833648Y-117060010D01*
X151924818Y-116927930D01*
X151985140Y-116768872D01*
X152005645Y-116600000D01*
X151985140Y-116431128D01*
X151924818Y-116272070D01*
X151828183Y-116132071D01*
X151828178Y-116132067D01*
X151828174Y-116132062D01*
X151700855Y-116019268D01*
X151700852Y-116019266D01*
X151550225Y-115940210D01*
X151385056Y-115899500D01*
X151214944Y-115899500D01*
X151104831Y-115926640D01*
X151049774Y-115940210D01*
X150899147Y-116019266D01*
X150899144Y-116019268D01*
X150771825Y-116132062D01*
X150771816Y-116132072D01*
X150675182Y-116272069D01*
X150675181Y-116272072D01*
X150614861Y-116431124D01*
X150614860Y-116431126D01*
X150614860Y-116431128D01*
X150594355Y-116600000D01*
X148263008Y-116600000D01*
X148172556Y-116475503D01*
X148172544Y-116475489D01*
X148044510Y-116347455D01*
X148044496Y-116347443D01*
X147897998Y-116241006D01*
X147736638Y-116158788D01*
X147564409Y-116102829D01*
X147564406Y-116102828D01*
X147385548Y-116074500D01*
X147385546Y-116074500D01*
X146454454Y-116074500D01*
X146454451Y-116074500D01*
X146275593Y-116102828D01*
X146275590Y-116102829D01*
X146103361Y-116158788D01*
X145942001Y-116241006D01*
X145795503Y-116347443D01*
X145795489Y-116347455D01*
X145667455Y-116475489D01*
X145667443Y-116475503D01*
X145561006Y-116622001D01*
X145478788Y-116783361D01*
X145422829Y-116955590D01*
X145422828Y-116955593D01*
X145394500Y-117134451D01*
X133205500Y-117134451D01*
X133177171Y-116955591D01*
X133121211Y-116783361D01*
X133038996Y-116622006D01*
X133038994Y-116622003D01*
X133038993Y-116622001D01*
X132932556Y-116475503D01*
X132932544Y-116475489D01*
X132804510Y-116347455D01*
X132804496Y-116347443D01*
X132657998Y-116241006D01*
X132496638Y-116158788D01*
X132324409Y-116102829D01*
X132324406Y-116102828D01*
X132145548Y-116074500D01*
X132145546Y-116074500D01*
X131214454Y-116074500D01*
X131214451Y-116074500D01*
X131035593Y-116102828D01*
X131035590Y-116102829D01*
X130863361Y-116158788D01*
X130702001Y-116241006D01*
X130555503Y-116347443D01*
X130555489Y-116347455D01*
X130427455Y-116475489D01*
X130427443Y-116475503D01*
X130321006Y-116622001D01*
X130238788Y-116783361D01*
X130182829Y-116955590D01*
X130182828Y-116955593D01*
X130154500Y-117134451D01*
X111400499Y-117134451D01*
X111400499Y-114594451D01*
X130154500Y-114594451D01*
X130154500Y-114775548D01*
X130182828Y-114954406D01*
X130182829Y-114954409D01*
X130238788Y-115126638D01*
X130321006Y-115287998D01*
X130427443Y-115434496D01*
X130427455Y-115434510D01*
X130555489Y-115562544D01*
X130555503Y-115562556D01*
X130702001Y-115668993D01*
X130702003Y-115668994D01*
X130702006Y-115668996D01*
X130863361Y-115751211D01*
X131035591Y-115807171D01*
X131214454Y-115835500D01*
X131214458Y-115835500D01*
X132145542Y-115835500D01*
X132145546Y-115835500D01*
X132324409Y-115807171D01*
X132496639Y-115751211D01*
X132657994Y-115668996D01*
X132804501Y-115562553D01*
X132932553Y-115434501D01*
X133038996Y-115287994D01*
X133121211Y-115126639D01*
X133177171Y-114954409D01*
X133205500Y-114775546D01*
X133205500Y-114594454D01*
X133205500Y-114594451D01*
X145394500Y-114594451D01*
X145394500Y-114775548D01*
X145422828Y-114954406D01*
X145422829Y-114954409D01*
X145478788Y-115126638D01*
X145561006Y-115287998D01*
X145667443Y-115434496D01*
X145667455Y-115434510D01*
X145795489Y-115562544D01*
X145795503Y-115562556D01*
X145942001Y-115668993D01*
X145942003Y-115668994D01*
X145942006Y-115668996D01*
X146103361Y-115751211D01*
X146275591Y-115807171D01*
X146454454Y-115835500D01*
X146454458Y-115835500D01*
X147385542Y-115835500D01*
X147385546Y-115835500D01*
X147564409Y-115807171D01*
X147736639Y-115751211D01*
X147897994Y-115668996D01*
X148044501Y-115562553D01*
X148172553Y-115434501D01*
X148278996Y-115287994D01*
X148323831Y-115200000D01*
X149594355Y-115200000D01*
X149614860Y-115368872D01*
X149675182Y-115527930D01*
X149771817Y-115667929D01*
X149771820Y-115667932D01*
X149771825Y-115667937D01*
X149899144Y-115780731D01*
X149899146Y-115780732D01*
X149899148Y-115780734D01*
X150049775Y-115859790D01*
X150214944Y-115900500D01*
X150214946Y-115900500D01*
X150385054Y-115900500D01*
X150385056Y-115900500D01*
X150550225Y-115859790D01*
X150700852Y-115780734D01*
X150828183Y-115667929D01*
X150924818Y-115527930D01*
X150985140Y-115368872D01*
X151005645Y-115200000D01*
X150985140Y-115031128D01*
X150924818Y-114872070D01*
X150828183Y-114732071D01*
X150828178Y-114732067D01*
X150828174Y-114732062D01*
X150700855Y-114619268D01*
X150700852Y-114619266D01*
X150550225Y-114540210D01*
X150385056Y-114499500D01*
X150214944Y-114499500D01*
X150104831Y-114526640D01*
X150049774Y-114540210D01*
X149899147Y-114619266D01*
X149899144Y-114619268D01*
X149771825Y-114732062D01*
X149771816Y-114732072D01*
X149675182Y-114872069D01*
X149675181Y-114872072D01*
X149614861Y-115031124D01*
X149614860Y-115031126D01*
X149614860Y-115031128D01*
X149594355Y-115200000D01*
X148323831Y-115200000D01*
X148361211Y-115126639D01*
X148417171Y-114954409D01*
X148445500Y-114775546D01*
X148445500Y-114594454D01*
X148417171Y-114415591D01*
X148361211Y-114243361D01*
X148278996Y-114082006D01*
X148278994Y-114082003D01*
X148278993Y-114082001D01*
X148172556Y-113935503D01*
X148172544Y-113935489D01*
X148044510Y-113807455D01*
X148044496Y-113807443D01*
X147897998Y-113701006D01*
X147736638Y-113618788D01*
X147564409Y-113562829D01*
X147564406Y-113562828D01*
X147385548Y-113534500D01*
X147385546Y-113534500D01*
X146454454Y-113534500D01*
X146454451Y-113534500D01*
X146275593Y-113562828D01*
X146275590Y-113562829D01*
X146103361Y-113618788D01*
X145942001Y-113701006D01*
X145795503Y-113807443D01*
X145795489Y-113807455D01*
X145667455Y-113935489D01*
X145667443Y-113935503D01*
X145561006Y-114082001D01*
X145478788Y-114243361D01*
X145422829Y-114415590D01*
X145422828Y-114415593D01*
X145394500Y-114594451D01*
X133205500Y-114594451D01*
X133177171Y-114415591D01*
X133121211Y-114243361D01*
X133038996Y-114082006D01*
X133038994Y-114082003D01*
X133038993Y-114082001D01*
X132932556Y-113935503D01*
X132932544Y-113935489D01*
X132804510Y-113807455D01*
X132804496Y-113807443D01*
X132657998Y-113701006D01*
X132496638Y-113618788D01*
X132324409Y-113562829D01*
X132324406Y-113562828D01*
X132145548Y-113534500D01*
X132145546Y-113534500D01*
X131214454Y-113534500D01*
X131214451Y-113534500D01*
X131035593Y-113562828D01*
X131035590Y-113562829D01*
X130863361Y-113618788D01*
X130702001Y-113701006D01*
X130555503Y-113807443D01*
X130555489Y-113807455D01*
X130427455Y-113935489D01*
X130427443Y-113935503D01*
X130321006Y-114082001D01*
X130238788Y-114243361D01*
X130182829Y-114415590D01*
X130182828Y-114415593D01*
X130154500Y-114594451D01*
X111400499Y-114594451D01*
X111400499Y-112054451D01*
X130154500Y-112054451D01*
X130154500Y-112235548D01*
X130182828Y-112414406D01*
X130182829Y-112414409D01*
X130238788Y-112586638D01*
X130321006Y-112747998D01*
X130427443Y-112894496D01*
X130427455Y-112894510D01*
X130555489Y-113022544D01*
X130555503Y-113022556D01*
X130702001Y-113128993D01*
X130702003Y-113128994D01*
X130702006Y-113128996D01*
X130863361Y-113211211D01*
X131035591Y-113267171D01*
X131214454Y-113295500D01*
X131214458Y-113295500D01*
X132145542Y-113295500D01*
X132145546Y-113295500D01*
X132324409Y-113267171D01*
X132496639Y-113211211D01*
X132657994Y-113128996D01*
X132804501Y-113022553D01*
X132932553Y-112894501D01*
X133038996Y-112747994D01*
X133121211Y-112586639D01*
X133177171Y-112414409D01*
X133205500Y-112235546D01*
X133205500Y-112054454D01*
X133205500Y-112054451D01*
X145394500Y-112054451D01*
X145394500Y-112235548D01*
X145422828Y-112414406D01*
X145422829Y-112414409D01*
X145478788Y-112586638D01*
X145561006Y-112747998D01*
X145667443Y-112894496D01*
X145667455Y-112894510D01*
X145795489Y-113022544D01*
X145795503Y-113022556D01*
X145942001Y-113128993D01*
X145942003Y-113128994D01*
X145942006Y-113128996D01*
X146103361Y-113211211D01*
X146275591Y-113267171D01*
X146454454Y-113295500D01*
X146454458Y-113295500D01*
X147385542Y-113295500D01*
X147385546Y-113295500D01*
X147564409Y-113267171D01*
X147736639Y-113211211D01*
X147897994Y-113128996D01*
X148044501Y-113022553D01*
X148172553Y-112894501D01*
X148278996Y-112747994D01*
X148361211Y-112586639D01*
X148417171Y-112414409D01*
X148445500Y-112235546D01*
X148445500Y-112054454D01*
X148417171Y-111875591D01*
X148361211Y-111703361D01*
X148278996Y-111542006D01*
X148278994Y-111542003D01*
X148278993Y-111542001D01*
X148172556Y-111395503D01*
X148172544Y-111395489D01*
X148044510Y-111267455D01*
X148044496Y-111267443D01*
X147897998Y-111161006D01*
X147736638Y-111078788D01*
X147564409Y-111022829D01*
X147564406Y-111022828D01*
X147385548Y-110994500D01*
X147385546Y-110994500D01*
X146454454Y-110994500D01*
X146454451Y-110994500D01*
X146275593Y-111022828D01*
X146275590Y-111022829D01*
X146103361Y-111078788D01*
X145942001Y-111161006D01*
X145795503Y-111267443D01*
X145795489Y-111267455D01*
X145667455Y-111395489D01*
X145667443Y-111395503D01*
X145561006Y-111542001D01*
X145478788Y-111703361D01*
X145422829Y-111875590D01*
X145422828Y-111875593D01*
X145394500Y-112054451D01*
X133205500Y-112054451D01*
X133177171Y-111875591D01*
X133121211Y-111703361D01*
X133038996Y-111542006D01*
X133038994Y-111542003D01*
X133038993Y-111542001D01*
X132932556Y-111395503D01*
X132932544Y-111395489D01*
X132804510Y-111267455D01*
X132804496Y-111267443D01*
X132657998Y-111161006D01*
X132496638Y-111078788D01*
X132324409Y-111022829D01*
X132324406Y-111022828D01*
X132145548Y-110994500D01*
X132145546Y-110994500D01*
X131214454Y-110994500D01*
X131214451Y-110994500D01*
X131035593Y-111022828D01*
X131035590Y-111022829D01*
X130863361Y-111078788D01*
X130702001Y-111161006D01*
X130555503Y-111267443D01*
X130555489Y-111267455D01*
X130427455Y-111395489D01*
X130427443Y-111395503D01*
X130321006Y-111542001D01*
X130238788Y-111703361D01*
X130182829Y-111875590D01*
X130182828Y-111875593D01*
X130154500Y-112054451D01*
X111400499Y-112054451D01*
X111400499Y-109514451D01*
X130154500Y-109514451D01*
X130154500Y-109695548D01*
X130182828Y-109874406D01*
X130182829Y-109874409D01*
X130238788Y-110046638D01*
X130321006Y-110207998D01*
X130427443Y-110354496D01*
X130427455Y-110354510D01*
X130555489Y-110482544D01*
X130555503Y-110482556D01*
X130702001Y-110588993D01*
X130702003Y-110588994D01*
X130702006Y-110588996D01*
X130863361Y-110671211D01*
X131035591Y-110727171D01*
X131214454Y-110755500D01*
X131214458Y-110755500D01*
X132145542Y-110755500D01*
X132145546Y-110755500D01*
X132324409Y-110727171D01*
X132496639Y-110671211D01*
X132657994Y-110588996D01*
X132804501Y-110482553D01*
X132932553Y-110354501D01*
X133038996Y-110207994D01*
X133121211Y-110046639D01*
X133177171Y-109874409D01*
X133205500Y-109695546D01*
X133205500Y-109514454D01*
X133205500Y-109514451D01*
X145394500Y-109514451D01*
X145394500Y-109695548D01*
X145422828Y-109874406D01*
X145422829Y-109874409D01*
X145478788Y-110046638D01*
X145561006Y-110207998D01*
X145667443Y-110354496D01*
X145667455Y-110354510D01*
X145795489Y-110482544D01*
X145795503Y-110482556D01*
X145942001Y-110588993D01*
X145942003Y-110588994D01*
X145942006Y-110588996D01*
X146103361Y-110671211D01*
X146275591Y-110727171D01*
X146454454Y-110755500D01*
X146454458Y-110755500D01*
X147385542Y-110755500D01*
X147385546Y-110755500D01*
X147564409Y-110727171D01*
X147648034Y-110700000D01*
X152094355Y-110700000D01*
X152114860Y-110868872D01*
X152175182Y-111027930D01*
X152271817Y-111167929D01*
X152271820Y-111167932D01*
X152271825Y-111167937D01*
X152399144Y-111280731D01*
X152399146Y-111280732D01*
X152399148Y-111280734D01*
X152549775Y-111359790D01*
X152714944Y-111400500D01*
X152714946Y-111400500D01*
X152885054Y-111400500D01*
X152885056Y-111400500D01*
X153050225Y-111359790D01*
X153200852Y-111280734D01*
X153328183Y-111167929D01*
X153424818Y-111027930D01*
X153485140Y-110868872D01*
X153505645Y-110700000D01*
X153485140Y-110531128D01*
X153424818Y-110372070D01*
X153328183Y-110232071D01*
X153328178Y-110232067D01*
X153328174Y-110232062D01*
X153200855Y-110119268D01*
X153200852Y-110119266D01*
X153050225Y-110040210D01*
X152885056Y-109999500D01*
X152714944Y-109999500D01*
X152604831Y-110026640D01*
X152549774Y-110040210D01*
X152399147Y-110119266D01*
X152399144Y-110119268D01*
X152271825Y-110232062D01*
X152271816Y-110232072D01*
X152175182Y-110372069D01*
X152175181Y-110372072D01*
X152114861Y-110531124D01*
X152114860Y-110531126D01*
X152114860Y-110531128D01*
X152094355Y-110700000D01*
X147648034Y-110700000D01*
X147736639Y-110671211D01*
X147897994Y-110588996D01*
X148044501Y-110482553D01*
X148172553Y-110354501D01*
X148278996Y-110207994D01*
X148361211Y-110046639D01*
X148417171Y-109874409D01*
X148445500Y-109695546D01*
X148445500Y-109514454D01*
X148417171Y-109335591D01*
X148361211Y-109163361D01*
X148278996Y-109002006D01*
X148278994Y-109002003D01*
X148278993Y-109002001D01*
X148172556Y-108855503D01*
X148172544Y-108855489D01*
X148044510Y-108727455D01*
X148044496Y-108727443D01*
X147897998Y-108621006D01*
X147736638Y-108538788D01*
X147564409Y-108482829D01*
X147564406Y-108482828D01*
X147385548Y-108454500D01*
X147385546Y-108454500D01*
X146454454Y-108454500D01*
X146454451Y-108454500D01*
X146275593Y-108482828D01*
X146275590Y-108482829D01*
X146103361Y-108538788D01*
X145942001Y-108621006D01*
X145795503Y-108727443D01*
X145795489Y-108727455D01*
X145667455Y-108855489D01*
X145667443Y-108855503D01*
X145561006Y-109002001D01*
X145478788Y-109163361D01*
X145422829Y-109335590D01*
X145422828Y-109335593D01*
X145394500Y-109514451D01*
X133205500Y-109514451D01*
X133177171Y-109335591D01*
X133121211Y-109163361D01*
X133038996Y-109002006D01*
X133038994Y-109002003D01*
X133038993Y-109002001D01*
X132932556Y-108855503D01*
X132932544Y-108855489D01*
X132804510Y-108727455D01*
X132804496Y-108727443D01*
X132657998Y-108621006D01*
X132496638Y-108538788D01*
X132324409Y-108482829D01*
X132324406Y-108482828D01*
X132145548Y-108454500D01*
X132145546Y-108454500D01*
X131214454Y-108454500D01*
X131214451Y-108454500D01*
X131035593Y-108482828D01*
X131035590Y-108482829D01*
X130863361Y-108538788D01*
X130702001Y-108621006D01*
X130555503Y-108727443D01*
X130555489Y-108727455D01*
X130427455Y-108855489D01*
X130427443Y-108855503D01*
X130321006Y-109002001D01*
X130238788Y-109163361D01*
X130182829Y-109335590D01*
X130182828Y-109335593D01*
X130154500Y-109514451D01*
X111400499Y-109514451D01*
X111400499Y-106974451D01*
X130154500Y-106974451D01*
X130154500Y-107155548D01*
X130182828Y-107334406D01*
X130182829Y-107334409D01*
X130238788Y-107506638D01*
X130321006Y-107667998D01*
X130427443Y-107814496D01*
X130427455Y-107814510D01*
X130555489Y-107942544D01*
X130555503Y-107942556D01*
X130702001Y-108048993D01*
X130702003Y-108048994D01*
X130702006Y-108048996D01*
X130863361Y-108131211D01*
X131035591Y-108187171D01*
X131214454Y-108215500D01*
X131214458Y-108215500D01*
X132145542Y-108215500D01*
X132145546Y-108215500D01*
X132324409Y-108187171D01*
X132496639Y-108131211D01*
X132657994Y-108048996D01*
X132804501Y-107942553D01*
X132932553Y-107814501D01*
X133038996Y-107667994D01*
X133121211Y-107506639D01*
X133177171Y-107334409D01*
X133205500Y-107155546D01*
X133205500Y-106974454D01*
X133205500Y-106974451D01*
X145394500Y-106974451D01*
X145394500Y-107155548D01*
X145422828Y-107334406D01*
X145422829Y-107334409D01*
X145478788Y-107506638D01*
X145561006Y-107667998D01*
X145667443Y-107814496D01*
X145667455Y-107814510D01*
X145795489Y-107942544D01*
X145795503Y-107942556D01*
X145942001Y-108048993D01*
X145942003Y-108048994D01*
X145942006Y-108048996D01*
X146103361Y-108131211D01*
X146275591Y-108187171D01*
X146454454Y-108215500D01*
X146454458Y-108215500D01*
X147385542Y-108215500D01*
X147385546Y-108215500D01*
X147564409Y-108187171D01*
X147736639Y-108131211D01*
X147897994Y-108048996D01*
X148044501Y-107942553D01*
X148172553Y-107814501D01*
X148278996Y-107667994D01*
X148361211Y-107506639D01*
X148417171Y-107334409D01*
X148445500Y-107155546D01*
X148445500Y-106974454D01*
X148417171Y-106795591D01*
X148361211Y-106623361D01*
X148278996Y-106462006D01*
X148278994Y-106462003D01*
X148278993Y-106462001D01*
X148172556Y-106315503D01*
X148172544Y-106315489D01*
X148044510Y-106187455D01*
X148044496Y-106187443D01*
X147897998Y-106081006D01*
X147736638Y-105998788D01*
X147564409Y-105942829D01*
X147564406Y-105942828D01*
X147385548Y-105914500D01*
X147385546Y-105914500D01*
X146454454Y-105914500D01*
X146454451Y-105914500D01*
X146275593Y-105942828D01*
X146275590Y-105942829D01*
X146103361Y-105998788D01*
X145942001Y-106081006D01*
X145795503Y-106187443D01*
X145795489Y-106187455D01*
X145667455Y-106315489D01*
X145667443Y-106315503D01*
X145561006Y-106462001D01*
X145478788Y-106623361D01*
X145422829Y-106795590D01*
X145422828Y-106795593D01*
X145394500Y-106974451D01*
X133205500Y-106974451D01*
X133177171Y-106795591D01*
X133121211Y-106623361D01*
X133038996Y-106462006D01*
X133038994Y-106462003D01*
X133038993Y-106462001D01*
X132932556Y-106315503D01*
X132932544Y-106315489D01*
X132804510Y-106187455D01*
X132804496Y-106187443D01*
X132657998Y-106081006D01*
X132496638Y-105998788D01*
X132324409Y-105942829D01*
X132324406Y-105942828D01*
X132145548Y-105914500D01*
X132145546Y-105914500D01*
X131214454Y-105914500D01*
X131214451Y-105914500D01*
X131035593Y-105942828D01*
X131035590Y-105942829D01*
X130863361Y-105998788D01*
X130702001Y-106081006D01*
X130555503Y-106187443D01*
X130555489Y-106187455D01*
X130427455Y-106315489D01*
X130427443Y-106315503D01*
X130321006Y-106462001D01*
X130238788Y-106623361D01*
X130182829Y-106795590D01*
X130182828Y-106795593D01*
X130154500Y-106974451D01*
X111400499Y-106974451D01*
X111400499Y-104434451D01*
X130154500Y-104434451D01*
X130154500Y-104615548D01*
X130182828Y-104794406D01*
X130182829Y-104794409D01*
X130238788Y-104966638D01*
X130321006Y-105127998D01*
X130427443Y-105274496D01*
X130427455Y-105274510D01*
X130555489Y-105402544D01*
X130555503Y-105402556D01*
X130702001Y-105508993D01*
X130702003Y-105508994D01*
X130702006Y-105508996D01*
X130863361Y-105591211D01*
X131035591Y-105647171D01*
X131214454Y-105675500D01*
X131214458Y-105675500D01*
X132145542Y-105675500D01*
X132145546Y-105675500D01*
X132324409Y-105647171D01*
X132496639Y-105591211D01*
X132657994Y-105508996D01*
X132804501Y-105402553D01*
X132932553Y-105274501D01*
X133038996Y-105127994D01*
X133121211Y-104966639D01*
X133177171Y-104794409D01*
X133205500Y-104615546D01*
X133205500Y-104434454D01*
X133205500Y-104434451D01*
X145394500Y-104434451D01*
X145394500Y-104615548D01*
X145422828Y-104794406D01*
X145422829Y-104794409D01*
X145478788Y-104966638D01*
X145561006Y-105127998D01*
X145667443Y-105274496D01*
X145667455Y-105274510D01*
X145795489Y-105402544D01*
X145795503Y-105402556D01*
X145942001Y-105508993D01*
X145942003Y-105508994D01*
X145942006Y-105508996D01*
X146103361Y-105591211D01*
X146275591Y-105647171D01*
X146454454Y-105675500D01*
X146454458Y-105675500D01*
X147385542Y-105675500D01*
X147385546Y-105675500D01*
X147564409Y-105647171D01*
X147736639Y-105591211D01*
X147897994Y-105508996D01*
X148044501Y-105402553D01*
X148172553Y-105274501D01*
X148278996Y-105127994D01*
X148361211Y-104966639D01*
X148417171Y-104794409D01*
X148445500Y-104615546D01*
X148445500Y-104434454D01*
X148417171Y-104255591D01*
X148361211Y-104083361D01*
X148278996Y-103922006D01*
X148278994Y-103922003D01*
X148278993Y-103922001D01*
X148172556Y-103775503D01*
X148172544Y-103775489D01*
X148044510Y-103647455D01*
X148044496Y-103647443D01*
X147897998Y-103541006D01*
X147736638Y-103458788D01*
X147564409Y-103402829D01*
X147564406Y-103402828D01*
X147385548Y-103374500D01*
X147385546Y-103374500D01*
X146454454Y-103374500D01*
X146454451Y-103374500D01*
X146275593Y-103402828D01*
X146275590Y-103402829D01*
X146103361Y-103458788D01*
X145942001Y-103541006D01*
X145795503Y-103647443D01*
X145795489Y-103647455D01*
X145667455Y-103775489D01*
X145667443Y-103775503D01*
X145561006Y-103922001D01*
X145478788Y-104083361D01*
X145422829Y-104255590D01*
X145422828Y-104255593D01*
X145394500Y-104434451D01*
X133205500Y-104434451D01*
X133177171Y-104255591D01*
X133121211Y-104083361D01*
X133038996Y-103922006D01*
X133038994Y-103922003D01*
X133038993Y-103922001D01*
X132932556Y-103775503D01*
X132932544Y-103775489D01*
X132804510Y-103647455D01*
X132804496Y-103647443D01*
X132657998Y-103541006D01*
X132496638Y-103458788D01*
X132324409Y-103402829D01*
X132324406Y-103402828D01*
X132145548Y-103374500D01*
X132145546Y-103374500D01*
X131214454Y-103374500D01*
X131214451Y-103374500D01*
X131035593Y-103402828D01*
X131035590Y-103402829D01*
X130863361Y-103458788D01*
X130702001Y-103541006D01*
X130555503Y-103647443D01*
X130555489Y-103647455D01*
X130427455Y-103775489D01*
X130427443Y-103775503D01*
X130321006Y-103922001D01*
X130238788Y-104083361D01*
X130182829Y-104255590D01*
X130182828Y-104255593D01*
X130154500Y-104434451D01*
X111400499Y-104434451D01*
X111400499Y-101894451D01*
X130154500Y-101894451D01*
X130154500Y-102075548D01*
X130182828Y-102254406D01*
X130182829Y-102254409D01*
X130238788Y-102426638D01*
X130321006Y-102587998D01*
X130427443Y-102734496D01*
X130427455Y-102734510D01*
X130555489Y-102862544D01*
X130555503Y-102862556D01*
X130702001Y-102968993D01*
X130702003Y-102968994D01*
X130702006Y-102968996D01*
X130863361Y-103051211D01*
X131035591Y-103107171D01*
X131214454Y-103135500D01*
X131214458Y-103135500D01*
X132145542Y-103135500D01*
X132145546Y-103135500D01*
X132324409Y-103107171D01*
X132496639Y-103051211D01*
X132657994Y-102968996D01*
X132804501Y-102862553D01*
X132932553Y-102734501D01*
X133038996Y-102587994D01*
X133121211Y-102426639D01*
X133177171Y-102254409D01*
X133205500Y-102075546D01*
X133205500Y-101894454D01*
X133177171Y-101715591D01*
X133121211Y-101543361D01*
X133038996Y-101382006D01*
X133038994Y-101382003D01*
X133038993Y-101382001D01*
X132932556Y-101235503D01*
X132932544Y-101235489D01*
X132804510Y-101107455D01*
X132804496Y-101107443D01*
X132657998Y-101001006D01*
X132496638Y-100918788D01*
X132324409Y-100862829D01*
X132324406Y-100862828D01*
X132145548Y-100834500D01*
X132145546Y-100834500D01*
X131214454Y-100834500D01*
X131214451Y-100834500D01*
X131035593Y-100862828D01*
X131035590Y-100862829D01*
X130863361Y-100918788D01*
X130702001Y-101001006D01*
X130555503Y-101107443D01*
X130555489Y-101107455D01*
X130427455Y-101235489D01*
X130427443Y-101235503D01*
X130321006Y-101382001D01*
X130238788Y-101543361D01*
X130182829Y-101715590D01*
X130182828Y-101715593D01*
X130154500Y-101894451D01*
X111400499Y-101894451D01*
X111400499Y-99354451D01*
X130154500Y-99354451D01*
X130154500Y-99535548D01*
X130182828Y-99714406D01*
X130182829Y-99714409D01*
X130238788Y-99886638D01*
X130321006Y-100047998D01*
X130427443Y-100194496D01*
X130427455Y-100194510D01*
X130555489Y-100322544D01*
X130555503Y-100322556D01*
X130702001Y-100428993D01*
X130702003Y-100428994D01*
X130702006Y-100428996D01*
X130863361Y-100511211D01*
X131035591Y-100567171D01*
X131214454Y-100595500D01*
X131214458Y-100595500D01*
X132145542Y-100595500D01*
X132145546Y-100595500D01*
X132324409Y-100567171D01*
X132496639Y-100511211D01*
X132657994Y-100428996D01*
X132804501Y-100322553D01*
X132932553Y-100194501D01*
X133038996Y-100047994D01*
X133121211Y-99886639D01*
X133177171Y-99714409D01*
X133205500Y-99535546D01*
X133205500Y-99354454D01*
X133180245Y-99194999D01*
X145319014Y-99194999D01*
X145319015Y-99195000D01*
X146475440Y-99195000D01*
X146444755Y-99248147D01*
X146410000Y-99377857D01*
X146410000Y-99512143D01*
X146444755Y-99641853D01*
X146475440Y-99695000D01*
X145319015Y-99695000D01*
X145325777Y-99737700D01*
X145325780Y-99737713D01*
X145386576Y-99924822D01*
X145386582Y-99924836D01*
X145475905Y-100100144D01*
X145591555Y-100259321D01*
X145591562Y-100259329D01*
X145730670Y-100398437D01*
X145730678Y-100398444D01*
X145889855Y-100514094D01*
X146065163Y-100603417D01*
X146065177Y-100603423D01*
X146252286Y-100664219D01*
X146252298Y-100664222D01*
X146421975Y-100691096D01*
X146466965Y-100716034D01*
X146485400Y-100764057D01*
X146468653Y-100812695D01*
X146424560Y-100839188D01*
X146421975Y-100839644D01*
X146275593Y-100862828D01*
X146275590Y-100862829D01*
X146103361Y-100918788D01*
X145942001Y-101001006D01*
X145795503Y-101107443D01*
X145795489Y-101107455D01*
X145667455Y-101235489D01*
X145667443Y-101235503D01*
X145561006Y-101382001D01*
X145478788Y-101543361D01*
X145422829Y-101715590D01*
X145422828Y-101715593D01*
X145394500Y-101894451D01*
X145394500Y-102075548D01*
X145422828Y-102254406D01*
X145422829Y-102254409D01*
X145478788Y-102426638D01*
X145561006Y-102587998D01*
X145667443Y-102734496D01*
X145667455Y-102734510D01*
X145795489Y-102862544D01*
X145795503Y-102862556D01*
X145942001Y-102968993D01*
X145942003Y-102968994D01*
X145942006Y-102968996D01*
X146103361Y-103051211D01*
X146275591Y-103107171D01*
X146454454Y-103135500D01*
X146454458Y-103135500D01*
X147385542Y-103135500D01*
X147385546Y-103135500D01*
X147564409Y-103107171D01*
X147736639Y-103051211D01*
X147897994Y-102968996D01*
X148044501Y-102862553D01*
X148172553Y-102734501D01*
X148278996Y-102587994D01*
X148361211Y-102426639D01*
X148417171Y-102254409D01*
X148445500Y-102075546D01*
X148445500Y-101894454D01*
X148417171Y-101715591D01*
X148374782Y-101585129D01*
X160772768Y-101585129D01*
X160772769Y-101585130D01*
X161816988Y-101585130D01*
X161784075Y-101642137D01*
X161750000Y-101769304D01*
X161750000Y-101900956D01*
X161784075Y-102028123D01*
X161816988Y-102085130D01*
X160772769Y-102085130D01*
X160783240Y-102151251D01*
X160783244Y-102151268D01*
X160848905Y-102353349D01*
X160945379Y-102542688D01*
X161070274Y-102714591D01*
X161070286Y-102714605D01*
X161220524Y-102864843D01*
X161220538Y-102864855D01*
X161365821Y-102970409D01*
X161394586Y-103013054D01*
X161389209Y-103064212D01*
X161352207Y-103099946D01*
X161342601Y-103103461D01*
X161239602Y-103133385D01*
X161098134Y-103217049D01*
X161098127Y-103217055D01*
X160981925Y-103333257D01*
X160981919Y-103333264D01*
X160898255Y-103474733D01*
X160852402Y-103632558D01*
X160852400Y-103632569D01*
X160849500Y-103669428D01*
X160849500Y-105000831D01*
X160852400Y-105037690D01*
X160852402Y-105037701D01*
X160898255Y-105195526D01*
X160981919Y-105336995D01*
X160981925Y-105337002D01*
X161098127Y-105453204D01*
X161098134Y-105453210D01*
X161098135Y-105453211D01*
X161239602Y-105536874D01*
X161397431Y-105582728D01*
X161397435Y-105582728D01*
X161397439Y-105582729D01*
X161415868Y-105584179D01*
X161434306Y-105585630D01*
X161434307Y-105585630D01*
X163065693Y-105585630D01*
X163065694Y-105585630D01*
X163088046Y-105583870D01*
X163102560Y-105582729D01*
X163102562Y-105582728D01*
X163102569Y-105582728D01*
X163260398Y-105536874D01*
X163401865Y-105453211D01*
X163518081Y-105336995D01*
X163601744Y-105195528D01*
X163647598Y-105037699D01*
X163650500Y-105000824D01*
X163650500Y-103669436D01*
X163647598Y-103632561D01*
X163601744Y-103474732D01*
X163518081Y-103333265D01*
X163518080Y-103333264D01*
X163518074Y-103333257D01*
X163401872Y-103217055D01*
X163401865Y-103217049D01*
X163260398Y-103133386D01*
X163219919Y-103121625D01*
X163157398Y-103103461D01*
X163115889Y-103073080D01*
X163103619Y-103023125D01*
X163126330Y-102976970D01*
X163134178Y-102970409D01*
X163279461Y-102864855D01*
X163279475Y-102864843D01*
X163429713Y-102714605D01*
X163429725Y-102714591D01*
X163554620Y-102542688D01*
X163651094Y-102353349D01*
X163716755Y-102151268D01*
X163716759Y-102151251D01*
X163727231Y-102085130D01*
X162683012Y-102085130D01*
X162715925Y-102028123D01*
X162750000Y-101900956D01*
X162750000Y-101769304D01*
X162715925Y-101642137D01*
X162683012Y-101585130D01*
X163727231Y-101585130D01*
X163727231Y-101585129D01*
X163716759Y-101519008D01*
X163716755Y-101518991D01*
X163651094Y-101316910D01*
X163554620Y-101127571D01*
X163429725Y-100955668D01*
X163429713Y-100955654D01*
X163279475Y-100805416D01*
X163279461Y-100805404D01*
X163107558Y-100680509D01*
X162918219Y-100584035D01*
X162716130Y-100518373D01*
X162716118Y-100518370D01*
X162506249Y-100485130D01*
X162500000Y-100485130D01*
X162500000Y-101402118D01*
X162442993Y-101369205D01*
X162315826Y-101335130D01*
X162184174Y-101335130D01*
X162057007Y-101369205D01*
X162000000Y-101402118D01*
X162000000Y-100485130D01*
X161993750Y-100485130D01*
X161783881Y-100518370D01*
X161783869Y-100518373D01*
X161581780Y-100584035D01*
X161392441Y-100680509D01*
X161220538Y-100805404D01*
X161220524Y-100805416D01*
X161070286Y-100955654D01*
X161070274Y-100955668D01*
X160945379Y-101127571D01*
X160848905Y-101316910D01*
X160783244Y-101518991D01*
X160783240Y-101519008D01*
X160772768Y-101585129D01*
X148374782Y-101585129D01*
X148361211Y-101543361D01*
X148278996Y-101382006D01*
X148278994Y-101382003D01*
X148278993Y-101382001D01*
X148172556Y-101235503D01*
X148172544Y-101235489D01*
X148044510Y-101107455D01*
X148044496Y-101107443D01*
X147897998Y-101001006D01*
X147736638Y-100918788D01*
X147564409Y-100862829D01*
X147564406Y-100862828D01*
X147418024Y-100839644D01*
X147373034Y-100814706D01*
X147354599Y-100766683D01*
X147371347Y-100718045D01*
X147415439Y-100691552D01*
X147418024Y-100691096D01*
X147587701Y-100664222D01*
X147587713Y-100664219D01*
X147774822Y-100603423D01*
X147774836Y-100603417D01*
X147950144Y-100514094D01*
X148109321Y-100398444D01*
X148109329Y-100398437D01*
X148248437Y-100259329D01*
X148248444Y-100259321D01*
X148364094Y-100100144D01*
X148453417Y-99924836D01*
X148453423Y-99924822D01*
X148514219Y-99737713D01*
X148514222Y-99737700D01*
X148520985Y-99695000D01*
X147364560Y-99695000D01*
X147395245Y-99641853D01*
X147430000Y-99512143D01*
X147430000Y-99377857D01*
X147395245Y-99248147D01*
X147364560Y-99195000D01*
X148520985Y-99195000D01*
X148520985Y-99194999D01*
X148514222Y-99152299D01*
X148514219Y-99152286D01*
X148453423Y-98965177D01*
X148453417Y-98965163D01*
X148364094Y-98789855D01*
X148248444Y-98630678D01*
X148248437Y-98630670D01*
X148109329Y-98491562D01*
X148109321Y-98491555D01*
X147950144Y-98375905D01*
X147774836Y-98286582D01*
X147774822Y-98286576D01*
X147587713Y-98225780D01*
X147587701Y-98225777D01*
X147418024Y-98198903D01*
X147373034Y-98173965D01*
X147354599Y-98125941D01*
X147371347Y-98077304D01*
X147415439Y-98050811D01*
X147417977Y-98050363D01*
X147564409Y-98027171D01*
X147736639Y-97971211D01*
X147897994Y-97888996D01*
X148044501Y-97782553D01*
X148172553Y-97654501D01*
X148278996Y-97507994D01*
X148361211Y-97346639D01*
X148417171Y-97174409D01*
X148445500Y-96995546D01*
X148445500Y-96814454D01*
X148417171Y-96635591D01*
X148361211Y-96463361D01*
X148278996Y-96302006D01*
X148278994Y-96302003D01*
X148278993Y-96302001D01*
X148172556Y-96155503D01*
X148172544Y-96155489D01*
X148044510Y-96027455D01*
X148044496Y-96027443D01*
X147897998Y-95921006D01*
X147736638Y-95838788D01*
X147564409Y-95782829D01*
X147564406Y-95782828D01*
X147385548Y-95754500D01*
X147385546Y-95754500D01*
X146454454Y-95754500D01*
X146454451Y-95754500D01*
X146275593Y-95782828D01*
X146275590Y-95782829D01*
X146103361Y-95838788D01*
X145942001Y-95921006D01*
X145795503Y-96027443D01*
X145795489Y-96027455D01*
X145667455Y-96155489D01*
X145667443Y-96155503D01*
X145561006Y-96302001D01*
X145478788Y-96463361D01*
X145422829Y-96635590D01*
X145422828Y-96635593D01*
X145394500Y-96814451D01*
X145394500Y-96995548D01*
X145422828Y-97174406D01*
X145422829Y-97174409D01*
X145478788Y-97346638D01*
X145561006Y-97507998D01*
X145667443Y-97654496D01*
X145667455Y-97654510D01*
X145795489Y-97782544D01*
X145795503Y-97782556D01*
X145942001Y-97888993D01*
X145942003Y-97888994D01*
X145942006Y-97888996D01*
X146103361Y-97971211D01*
X146275591Y-98027171D01*
X146275593Y-98027171D01*
X146275595Y-98027172D01*
X146326156Y-98035179D01*
X146421975Y-98050355D01*
X146466965Y-98075293D01*
X146485400Y-98123316D01*
X146468653Y-98171953D01*
X146424560Y-98198447D01*
X146421975Y-98198903D01*
X146252298Y-98225777D01*
X146252286Y-98225780D01*
X146065177Y-98286576D01*
X146065163Y-98286582D01*
X145889855Y-98375905D01*
X145730678Y-98491555D01*
X145730670Y-98491562D01*
X145591562Y-98630670D01*
X145591555Y-98630678D01*
X145475905Y-98789855D01*
X145386582Y-98965163D01*
X145386576Y-98965177D01*
X145325780Y-99152286D01*
X145325777Y-99152299D01*
X145319014Y-99194999D01*
X133180245Y-99194999D01*
X133177171Y-99175591D01*
X133121211Y-99003361D01*
X133038996Y-98842006D01*
X133038994Y-98842003D01*
X133038993Y-98842001D01*
X132932556Y-98695503D01*
X132932544Y-98695489D01*
X132804510Y-98567455D01*
X132804496Y-98567443D01*
X132657998Y-98461006D01*
X132496638Y-98378788D01*
X132324409Y-98322829D01*
X132324406Y-98322828D01*
X132145548Y-98294500D01*
X132145546Y-98294500D01*
X131214454Y-98294500D01*
X131214451Y-98294500D01*
X131035593Y-98322828D01*
X131035590Y-98322829D01*
X130863361Y-98378788D01*
X130702001Y-98461006D01*
X130555503Y-98567443D01*
X130555489Y-98567455D01*
X130427455Y-98695489D01*
X130427443Y-98695503D01*
X130321006Y-98842001D01*
X130238788Y-99003361D01*
X130182829Y-99175590D01*
X130182828Y-99175593D01*
X130154500Y-99354451D01*
X111400499Y-99354451D01*
X111400499Y-95063315D01*
X111418092Y-95014977D01*
X111462641Y-94989257D01*
X111513299Y-94998190D01*
X111520765Y-95003115D01*
X111607907Y-95068350D01*
X111607909Y-95068351D01*
X111742622Y-95118597D01*
X111742625Y-95118598D01*
X111802168Y-95124999D01*
X111802180Y-95125000D01*
X112450000Y-95125000D01*
X112450000Y-94208012D01*
X112507007Y-94240925D01*
X112634174Y-94275000D01*
X112765826Y-94275000D01*
X112892993Y-94240925D01*
X112950000Y-94208012D01*
X112950000Y-95125000D01*
X113597820Y-95125000D01*
X113597831Y-95124999D01*
X113657374Y-95118598D01*
X113657377Y-95118597D01*
X113792090Y-95068351D01*
X113792092Y-95068350D01*
X113907189Y-94982189D01*
X113993350Y-94867092D01*
X113993351Y-94867090D01*
X114043597Y-94732377D01*
X114043598Y-94732374D01*
X114049999Y-94672831D01*
X114050000Y-94672820D01*
X114050000Y-94025000D01*
X113133012Y-94025000D01*
X113165925Y-93967993D01*
X113200000Y-93840826D01*
X113200000Y-93709174D01*
X113165925Y-93582007D01*
X113133012Y-93525000D01*
X114050000Y-93525000D01*
X114050000Y-92877180D01*
X114049999Y-92877168D01*
X114043598Y-92817625D01*
X114043597Y-92817622D01*
X113993351Y-92682909D01*
X113993350Y-92682907D01*
X113907189Y-92567810D01*
X113792092Y-92481649D01*
X113792090Y-92481648D01*
X113657377Y-92431402D01*
X113657374Y-92431401D01*
X113597831Y-92425000D01*
X113419189Y-92425000D01*
X113370851Y-92407407D01*
X113345131Y-92362858D01*
X113354064Y-92312200D01*
X113376056Y-92288200D01*
X113506871Y-92196602D01*
X113506877Y-92196598D01*
X113661598Y-92041877D01*
X113787102Y-91862639D01*
X113879575Y-91664330D01*
X113936207Y-91452977D01*
X113955277Y-91235000D01*
X113936207Y-91017023D01*
X113879575Y-90805670D01*
X113857714Y-90758789D01*
X113787105Y-90607367D01*
X113787102Y-90607364D01*
X113787102Y-90607362D01*
X113661598Y-90428123D01*
X113661597Y-90428122D01*
X113661595Y-90428119D01*
X113506884Y-90273408D01*
X113506871Y-90273397D01*
X113327633Y-90147894D01*
X113129333Y-90055426D01*
X113129331Y-90055425D01*
X113129330Y-90055425D01*
X112917977Y-89998793D01*
X112917975Y-89998792D01*
X112917972Y-89998792D01*
X112700000Y-89979723D01*
X112482027Y-89998792D01*
X112270670Y-90055425D01*
X112270666Y-90055426D01*
X112072367Y-90147894D01*
X111893119Y-90273404D01*
X111738404Y-90428119D01*
X111612894Y-90607367D01*
X111543853Y-90755427D01*
X111507480Y-90791800D01*
X111456236Y-90796284D01*
X111414099Y-90766779D01*
X111400499Y-90723646D01*
X111400499Y-86049999D01*
X115947768Y-86049999D01*
X115947769Y-86050000D01*
X116995854Y-86050000D01*
X116957370Y-86116657D01*
X116925000Y-86237465D01*
X116925000Y-86362535D01*
X116957370Y-86483343D01*
X116995854Y-86550000D01*
X115947769Y-86550000D01*
X115958240Y-86616121D01*
X115958244Y-86616138D01*
X116023905Y-86818219D01*
X116120379Y-87007558D01*
X116245274Y-87179461D01*
X116245286Y-87179475D01*
X116395524Y-87329713D01*
X116395538Y-87329725D01*
X116567441Y-87454620D01*
X116732713Y-87538831D01*
X116767795Y-87576452D01*
X116770487Y-87627822D01*
X116739530Y-87668903D01*
X116732714Y-87672838D01*
X116619596Y-87730475D01*
X116460352Y-87846173D01*
X116460344Y-87846180D01*
X116321180Y-87985344D01*
X116321173Y-87985352D01*
X116205477Y-88144593D01*
X116116118Y-88319971D01*
X116116112Y-88319985D01*
X116055292Y-88507169D01*
X116055289Y-88507181D01*
X116024500Y-88701580D01*
X116024500Y-88898419D01*
X116055289Y-89092818D01*
X116055291Y-89092826D01*
X116116116Y-89280025D01*
X116164787Y-89375548D01*
X116205477Y-89455406D01*
X116321173Y-89614647D01*
X116321180Y-89614655D01*
X116460344Y-89753819D01*
X116460352Y-89753826D01*
X116460354Y-89753828D01*
X116619595Y-89869524D01*
X116794975Y-89958884D01*
X116855092Y-89978417D01*
X116855288Y-89978481D01*
X116895822Y-90010150D01*
X116906517Y-90060466D01*
X116882367Y-90105885D01*
X116855287Y-90121519D01*
X116794975Y-90141116D01*
X116794971Y-90141117D01*
X116794971Y-90141118D01*
X116619593Y-90230477D01*
X116460352Y-90346173D01*
X116460344Y-90346180D01*
X116321180Y-90485344D01*
X116321173Y-90485352D01*
X116205477Y-90644593D01*
X116116118Y-90819971D01*
X116116112Y-90819985D01*
X116055292Y-91007169D01*
X116055289Y-91007181D01*
X116024500Y-91201580D01*
X116024500Y-91398419D01*
X116055289Y-91592818D01*
X116055292Y-91592830D01*
X116084014Y-91681228D01*
X116116116Y-91780025D01*
X116185164Y-91915541D01*
X116205477Y-91955406D01*
X116321173Y-92114647D01*
X116321180Y-92114655D01*
X116460344Y-92253819D01*
X116460352Y-92253826D01*
X116460354Y-92253828D01*
X116619595Y-92369524D01*
X116794975Y-92458884D01*
X116855092Y-92478417D01*
X116855288Y-92478481D01*
X116895822Y-92510150D01*
X116906517Y-92560466D01*
X116882367Y-92605885D01*
X116855287Y-92621519D01*
X116794975Y-92641116D01*
X116794971Y-92641117D01*
X116794971Y-92641118D01*
X116619593Y-92730477D01*
X116460352Y-92846173D01*
X116460344Y-92846180D01*
X116321180Y-92985344D01*
X116321173Y-92985352D01*
X116205477Y-93144593D01*
X116116118Y-93319971D01*
X116116112Y-93319985D01*
X116055292Y-93507169D01*
X116055289Y-93507181D01*
X116024500Y-93701580D01*
X116024500Y-93898419D01*
X116055289Y-94092818D01*
X116055292Y-94092830D01*
X116114305Y-94274454D01*
X116116116Y-94280025D01*
X116205476Y-94455405D01*
X116205579Y-94455546D01*
X116321173Y-94614647D01*
X116321180Y-94614655D01*
X116460344Y-94753819D01*
X116460352Y-94753826D01*
X116460354Y-94753828D01*
X116619595Y-94869524D01*
X116693728Y-94907296D01*
X116728810Y-94944917D01*
X116731502Y-94996286D01*
X116700545Y-95037368D01*
X116659588Y-95049500D01*
X116609298Y-95049500D01*
X116572439Y-95052400D01*
X116572428Y-95052402D01*
X116414603Y-95098255D01*
X116273134Y-95181919D01*
X116273127Y-95181925D01*
X116156925Y-95298127D01*
X116156919Y-95298134D01*
X116073255Y-95439603D01*
X116027402Y-95597428D01*
X116027400Y-95597439D01*
X116024500Y-95634298D01*
X116024500Y-96965701D01*
X116027400Y-97002560D01*
X116027402Y-97002571D01*
X116073255Y-97160396D01*
X116156919Y-97301865D01*
X116156925Y-97301872D01*
X116273127Y-97418074D01*
X116273134Y-97418080D01*
X116273135Y-97418081D01*
X116414602Y-97501744D01*
X116572431Y-97547598D01*
X116572435Y-97547598D01*
X116572439Y-97547599D01*
X116590868Y-97549049D01*
X116609306Y-97550500D01*
X116609307Y-97550500D01*
X118190693Y-97550500D01*
X118190694Y-97550500D01*
X118213046Y-97548740D01*
X118227560Y-97547599D01*
X118227562Y-97547598D01*
X118227569Y-97547598D01*
X118385398Y-97501744D01*
X118526865Y-97418081D01*
X118643081Y-97301865D01*
X118726744Y-97160398D01*
X118772598Y-97002569D01*
X118775500Y-96965694D01*
X118775500Y-95634306D01*
X118772598Y-95597431D01*
X118726744Y-95439602D01*
X118643081Y-95298135D01*
X118643080Y-95298134D01*
X118643074Y-95298127D01*
X118526872Y-95181925D01*
X118526865Y-95181919D01*
X118430618Y-95124999D01*
X118385398Y-95098256D01*
X118385397Y-95098255D01*
X118385396Y-95098255D01*
X118227571Y-95052402D01*
X118227560Y-95052400D01*
X118190701Y-95049500D01*
X118190694Y-95049500D01*
X118140412Y-95049500D01*
X118092074Y-95031907D01*
X118066354Y-94987358D01*
X118075287Y-94936700D01*
X118106271Y-94907296D01*
X118180405Y-94869524D01*
X118339646Y-94753828D01*
X118478828Y-94614646D01*
X118594524Y-94455405D01*
X118683884Y-94280025D01*
X118744709Y-94092826D01*
X118775500Y-93898417D01*
X118775500Y-93701583D01*
X118744709Y-93507174D01*
X118683884Y-93319975D01*
X118594524Y-93144595D01*
X118478828Y-92985354D01*
X118478826Y-92985352D01*
X118478819Y-92985344D01*
X118339655Y-92846180D01*
X118339647Y-92846173D01*
X118300355Y-92817625D01*
X118180405Y-92730476D01*
X118005025Y-92641116D01*
X118005018Y-92641113D01*
X118005014Y-92641112D01*
X117944712Y-92621519D01*
X117904177Y-92589850D01*
X117893482Y-92539534D01*
X117917631Y-92494115D01*
X117944712Y-92478481D01*
X117945034Y-92478376D01*
X118005025Y-92458884D01*
X118180405Y-92369524D01*
X118339646Y-92253828D01*
X118478828Y-92114646D01*
X118594524Y-91955405D01*
X118683884Y-91780025D01*
X118744709Y-91592826D01*
X118775500Y-91398417D01*
X118775500Y-91201583D01*
X118744709Y-91007174D01*
X118683884Y-90819975D01*
X118594524Y-90644595D01*
X118478828Y-90485354D01*
X118478826Y-90485352D01*
X118478819Y-90485344D01*
X118339655Y-90346180D01*
X118339647Y-90346173D01*
X118239496Y-90273408D01*
X118180405Y-90230476D01*
X118005025Y-90141116D01*
X118005018Y-90141113D01*
X118005014Y-90141112D01*
X117944712Y-90121519D01*
X117904177Y-90089850D01*
X117893482Y-90039534D01*
X117917631Y-89994115D01*
X117944712Y-89978481D01*
X117945034Y-89978376D01*
X118005025Y-89958884D01*
X118180405Y-89869524D01*
X118339646Y-89753828D01*
X118478828Y-89614646D01*
X118594524Y-89455405D01*
X118683884Y-89280025D01*
X118744709Y-89092826D01*
X118775500Y-88898417D01*
X118775500Y-88701583D01*
X118744709Y-88507174D01*
X118683884Y-88319975D01*
X118594524Y-88144595D01*
X118478828Y-87985354D01*
X118478826Y-87985352D01*
X118478819Y-87985344D01*
X118339655Y-87846180D01*
X118339647Y-87846173D01*
X118180406Y-87730476D01*
X118067285Y-87672839D01*
X118032203Y-87635218D01*
X118029511Y-87583849D01*
X118060468Y-87542767D01*
X118067285Y-87538831D01*
X118232558Y-87454620D01*
X118404461Y-87329725D01*
X118404475Y-87329713D01*
X118554713Y-87179475D01*
X118554725Y-87179461D01*
X118679620Y-87007558D01*
X118776094Y-86818219D01*
X118841755Y-86616138D01*
X118841759Y-86616121D01*
X118852231Y-86550000D01*
X117804146Y-86550000D01*
X117842630Y-86483343D01*
X117875000Y-86362535D01*
X117875000Y-86237465D01*
X117842630Y-86116657D01*
X117804146Y-86050000D01*
X118852231Y-86050000D01*
X118852231Y-86049999D01*
X118841759Y-85983878D01*
X118841755Y-85983861D01*
X118776094Y-85781780D01*
X118679620Y-85592441D01*
X118554725Y-85420538D01*
X118554713Y-85420524D01*
X118404475Y-85270286D01*
X118404461Y-85270274D01*
X118232558Y-85145379D01*
X118067285Y-85061168D01*
X118032203Y-85023547D01*
X118029511Y-84972177D01*
X118060468Y-84931096D01*
X118067268Y-84927169D01*
X118180405Y-84869524D01*
X118339646Y-84753828D01*
X118478828Y-84614646D01*
X118594524Y-84455405D01*
X118683884Y-84280025D01*
X118744709Y-84092826D01*
X118775500Y-83898417D01*
X118775500Y-83701583D01*
X118775500Y-83701580D01*
X122824500Y-83701580D01*
X122824500Y-83898419D01*
X122855289Y-84092818D01*
X122855292Y-84092830D01*
X122862319Y-84114458D01*
X122916116Y-84280025D01*
X123005476Y-84455405D01*
X123019284Y-84474409D01*
X123121173Y-84614647D01*
X123121180Y-84614655D01*
X123260344Y-84753819D01*
X123260352Y-84753826D01*
X123260354Y-84753828D01*
X123419595Y-84869524D01*
X123594975Y-84958884D01*
X123655092Y-84978417D01*
X123655288Y-84978481D01*
X123695822Y-85010150D01*
X123706517Y-85060466D01*
X123682367Y-85105885D01*
X123655287Y-85121519D01*
X123594975Y-85141116D01*
X123594971Y-85141117D01*
X123594971Y-85141118D01*
X123419593Y-85230477D01*
X123260352Y-85346173D01*
X123260344Y-85346180D01*
X123121180Y-85485344D01*
X123121173Y-85485352D01*
X123005477Y-85644593D01*
X122916118Y-85819971D01*
X122916112Y-85819985D01*
X122855292Y-86007169D01*
X122855289Y-86007181D01*
X122824500Y-86201580D01*
X122824500Y-86398419D01*
X122855289Y-86592818D01*
X122855292Y-86592830D01*
X122903965Y-86742630D01*
X122916116Y-86780025D01*
X122944406Y-86835548D01*
X123005477Y-86955406D01*
X123121173Y-87114647D01*
X123121180Y-87114655D01*
X123260344Y-87253819D01*
X123260352Y-87253826D01*
X123260354Y-87253828D01*
X123419595Y-87369524D01*
X123594975Y-87458884D01*
X123655092Y-87478417D01*
X123655288Y-87478481D01*
X123695822Y-87510150D01*
X123706517Y-87560466D01*
X123682367Y-87605885D01*
X123655287Y-87621519D01*
X123594975Y-87641116D01*
X123594971Y-87641117D01*
X123594971Y-87641118D01*
X123419593Y-87730477D01*
X123260352Y-87846173D01*
X123260344Y-87846180D01*
X123121180Y-87985344D01*
X123121173Y-87985352D01*
X123005477Y-88144593D01*
X122916118Y-88319971D01*
X122916112Y-88319985D01*
X122855292Y-88507169D01*
X122855289Y-88507181D01*
X122824500Y-88701580D01*
X122824500Y-88898419D01*
X122855289Y-89092818D01*
X122855291Y-89092826D01*
X122916116Y-89280025D01*
X122964787Y-89375548D01*
X123005477Y-89455406D01*
X123121173Y-89614647D01*
X123121180Y-89614655D01*
X123260344Y-89753819D01*
X123260352Y-89753826D01*
X123260354Y-89753828D01*
X123419595Y-89869524D01*
X123594975Y-89958884D01*
X123655092Y-89978417D01*
X123655288Y-89978481D01*
X123695822Y-90010150D01*
X123706517Y-90060466D01*
X123682367Y-90105885D01*
X123655287Y-90121519D01*
X123594975Y-90141116D01*
X123594971Y-90141117D01*
X123594971Y-90141118D01*
X123419593Y-90230477D01*
X123260352Y-90346173D01*
X123260344Y-90346180D01*
X123121180Y-90485344D01*
X123121173Y-90485352D01*
X123005477Y-90644593D01*
X122916118Y-90819971D01*
X122916112Y-90819985D01*
X122855292Y-91007169D01*
X122855289Y-91007181D01*
X122824500Y-91201580D01*
X122824500Y-91398419D01*
X122855289Y-91592818D01*
X122855292Y-91592830D01*
X122884014Y-91681228D01*
X122916116Y-91780025D01*
X122985164Y-91915541D01*
X123005477Y-91955406D01*
X123121173Y-92114647D01*
X123121180Y-92114655D01*
X123260344Y-92253819D01*
X123260352Y-92253826D01*
X123260354Y-92253828D01*
X123419595Y-92369524D01*
X123594975Y-92458884D01*
X123655092Y-92478417D01*
X123655288Y-92478481D01*
X123695822Y-92510150D01*
X123706517Y-92560466D01*
X123682367Y-92605885D01*
X123655287Y-92621519D01*
X123594975Y-92641116D01*
X123594971Y-92641117D01*
X123594971Y-92641118D01*
X123419593Y-92730477D01*
X123260352Y-92846173D01*
X123260344Y-92846180D01*
X123121180Y-92985344D01*
X123121173Y-92985352D01*
X123005477Y-93144593D01*
X122916118Y-93319971D01*
X122916112Y-93319985D01*
X122855292Y-93507169D01*
X122855289Y-93507181D01*
X122824500Y-93701580D01*
X122824500Y-93898419D01*
X122855289Y-94092818D01*
X122855292Y-94092830D01*
X122914305Y-94274454D01*
X122916116Y-94280025D01*
X123005476Y-94455405D01*
X123005579Y-94455546D01*
X123121173Y-94614647D01*
X123121180Y-94614655D01*
X123260344Y-94753819D01*
X123260352Y-94753826D01*
X123260354Y-94753828D01*
X123419595Y-94869524D01*
X123493728Y-94907296D01*
X123528810Y-94944917D01*
X123531502Y-94996286D01*
X123500545Y-95037368D01*
X123459588Y-95049500D01*
X123409298Y-95049500D01*
X123372439Y-95052400D01*
X123372428Y-95052402D01*
X123214603Y-95098255D01*
X123073134Y-95181919D01*
X123073127Y-95181925D01*
X122956925Y-95298127D01*
X122956919Y-95298134D01*
X122873255Y-95439603D01*
X122827402Y-95597428D01*
X122827400Y-95597439D01*
X122824500Y-95634298D01*
X122824500Y-96965701D01*
X122827400Y-97002560D01*
X122827402Y-97002571D01*
X122873255Y-97160396D01*
X122956919Y-97301865D01*
X122956925Y-97301872D01*
X123073127Y-97418074D01*
X123073134Y-97418080D01*
X123073135Y-97418081D01*
X123214602Y-97501744D01*
X123372431Y-97547598D01*
X123372435Y-97547598D01*
X123372439Y-97547599D01*
X123390868Y-97549049D01*
X123409306Y-97550500D01*
X123409307Y-97550500D01*
X124990693Y-97550500D01*
X124990694Y-97550500D01*
X125013046Y-97548740D01*
X125027560Y-97547599D01*
X125027562Y-97547598D01*
X125027569Y-97547598D01*
X125185398Y-97501744D01*
X125326865Y-97418081D01*
X125443081Y-97301865D01*
X125526744Y-97160398D01*
X125572598Y-97002569D01*
X125575500Y-96965694D01*
X125575500Y-96814451D01*
X130154500Y-96814451D01*
X130154500Y-96995548D01*
X130182828Y-97174406D01*
X130182829Y-97174409D01*
X130238788Y-97346638D01*
X130321006Y-97507998D01*
X130427443Y-97654496D01*
X130427455Y-97654510D01*
X130555489Y-97782544D01*
X130555503Y-97782556D01*
X130702001Y-97888993D01*
X130702003Y-97888994D01*
X130702006Y-97888996D01*
X130863361Y-97971211D01*
X131035591Y-98027171D01*
X131214454Y-98055500D01*
X131214458Y-98055500D01*
X132145542Y-98055500D01*
X132145546Y-98055500D01*
X132324409Y-98027171D01*
X132496639Y-97971211D01*
X132657994Y-97888996D01*
X132804501Y-97782553D01*
X132932553Y-97654501D01*
X133038996Y-97507994D01*
X133121211Y-97346639D01*
X133177171Y-97174409D01*
X133205500Y-96995546D01*
X133205500Y-96814454D01*
X133177171Y-96635591D01*
X133121211Y-96463361D01*
X133038996Y-96302006D01*
X133038994Y-96302003D01*
X133038993Y-96302001D01*
X132932556Y-96155503D01*
X132932544Y-96155489D01*
X132804510Y-96027455D01*
X132804496Y-96027443D01*
X132657998Y-95921006D01*
X132496638Y-95838788D01*
X132324409Y-95782829D01*
X132324406Y-95782828D01*
X132145548Y-95754500D01*
X132145546Y-95754500D01*
X131214454Y-95754500D01*
X131214451Y-95754500D01*
X131035593Y-95782828D01*
X131035590Y-95782829D01*
X130863361Y-95838788D01*
X130702001Y-95921006D01*
X130555503Y-96027443D01*
X130555489Y-96027455D01*
X130427455Y-96155489D01*
X130427443Y-96155503D01*
X130321006Y-96302001D01*
X130238788Y-96463361D01*
X130182829Y-96635590D01*
X130182828Y-96635593D01*
X130154500Y-96814451D01*
X125575500Y-96814451D01*
X125575500Y-95634306D01*
X125572598Y-95597431D01*
X125526744Y-95439602D01*
X125443081Y-95298135D01*
X125443080Y-95298134D01*
X125443074Y-95298127D01*
X125326872Y-95181925D01*
X125326865Y-95181919D01*
X125230618Y-95124999D01*
X125185398Y-95098256D01*
X125185397Y-95098255D01*
X125185396Y-95098255D01*
X125027571Y-95052402D01*
X125027560Y-95052400D01*
X124990701Y-95049500D01*
X124990694Y-95049500D01*
X124940412Y-95049500D01*
X124892074Y-95031907D01*
X124866354Y-94987358D01*
X124875287Y-94936700D01*
X124906271Y-94907296D01*
X124980405Y-94869524D01*
X125139646Y-94753828D01*
X125278828Y-94614646D01*
X125394524Y-94455405D01*
X125483884Y-94280025D01*
X125485695Y-94274451D01*
X130154500Y-94274451D01*
X130154500Y-94455548D01*
X130182828Y-94634406D01*
X130182829Y-94634409D01*
X130238788Y-94806638D01*
X130321006Y-94967998D01*
X130427443Y-95114496D01*
X130427455Y-95114510D01*
X130555489Y-95242544D01*
X130555503Y-95242556D01*
X130702001Y-95348993D01*
X130702003Y-95348994D01*
X130702006Y-95348996D01*
X130863361Y-95431211D01*
X131035591Y-95487171D01*
X131214454Y-95515500D01*
X131214458Y-95515500D01*
X132145542Y-95515500D01*
X132145546Y-95515500D01*
X132324409Y-95487171D01*
X132496639Y-95431211D01*
X132657994Y-95348996D01*
X132804501Y-95242553D01*
X132932553Y-95114501D01*
X133038996Y-94967994D01*
X133121211Y-94806639D01*
X133177171Y-94634409D01*
X133205500Y-94455546D01*
X133205500Y-94274454D01*
X133205500Y-94274451D01*
X145394500Y-94274451D01*
X145394500Y-94455548D01*
X145422828Y-94634406D01*
X145422829Y-94634409D01*
X145478788Y-94806638D01*
X145561006Y-94967998D01*
X145667443Y-95114496D01*
X145667455Y-95114510D01*
X145795489Y-95242544D01*
X145795503Y-95242556D01*
X145942001Y-95348993D01*
X145942003Y-95348994D01*
X145942006Y-95348996D01*
X146103361Y-95431211D01*
X146275591Y-95487171D01*
X146454454Y-95515500D01*
X146454458Y-95515500D01*
X147385542Y-95515500D01*
X147385546Y-95515500D01*
X147564409Y-95487171D01*
X147736639Y-95431211D01*
X147897994Y-95348996D01*
X148044501Y-95242553D01*
X148172553Y-95114501D01*
X148278996Y-94967994D01*
X148361211Y-94806639D01*
X148417171Y-94634409D01*
X148445500Y-94455546D01*
X148445500Y-94274454D01*
X148417171Y-94095591D01*
X148361211Y-93923361D01*
X148278996Y-93762006D01*
X148278994Y-93762003D01*
X148278993Y-93762001D01*
X148172556Y-93615503D01*
X148172544Y-93615489D01*
X148044510Y-93487455D01*
X148044496Y-93487443D01*
X147897998Y-93381006D01*
X147736638Y-93298788D01*
X147564409Y-93242829D01*
X147564406Y-93242828D01*
X147385548Y-93214500D01*
X147385546Y-93214500D01*
X146454454Y-93214500D01*
X146454451Y-93214500D01*
X146275593Y-93242828D01*
X146275590Y-93242829D01*
X146103361Y-93298788D01*
X145942001Y-93381006D01*
X145795503Y-93487443D01*
X145795489Y-93487455D01*
X145667455Y-93615489D01*
X145667443Y-93615503D01*
X145561006Y-93762001D01*
X145478788Y-93923361D01*
X145422829Y-94095590D01*
X145422828Y-94095593D01*
X145394500Y-94274451D01*
X133205500Y-94274451D01*
X133177171Y-94095591D01*
X133121211Y-93923361D01*
X133038996Y-93762006D01*
X133038994Y-93762003D01*
X133038993Y-93762001D01*
X132932556Y-93615503D01*
X132932544Y-93615489D01*
X132804510Y-93487455D01*
X132804496Y-93487443D01*
X132657998Y-93381006D01*
X132496638Y-93298788D01*
X132324409Y-93242829D01*
X132324406Y-93242828D01*
X132145548Y-93214500D01*
X132145546Y-93214500D01*
X131214454Y-93214500D01*
X131214451Y-93214500D01*
X131035593Y-93242828D01*
X131035590Y-93242829D01*
X130863361Y-93298788D01*
X130702001Y-93381006D01*
X130555503Y-93487443D01*
X130555489Y-93487455D01*
X130427455Y-93615489D01*
X130427443Y-93615503D01*
X130321006Y-93762001D01*
X130238788Y-93923361D01*
X130182829Y-94095590D01*
X130182828Y-94095593D01*
X130154500Y-94274451D01*
X125485695Y-94274451D01*
X125544709Y-94092826D01*
X125575500Y-93898417D01*
X125575500Y-93701583D01*
X125544709Y-93507174D01*
X125483884Y-93319975D01*
X125394524Y-93144595D01*
X125278828Y-92985354D01*
X125278826Y-92985352D01*
X125278819Y-92985344D01*
X125139655Y-92846180D01*
X125139647Y-92846173D01*
X125100355Y-92817625D01*
X124980405Y-92730476D01*
X124805025Y-92641116D01*
X124805018Y-92641113D01*
X124805014Y-92641112D01*
X124744712Y-92621519D01*
X124704177Y-92589850D01*
X124693482Y-92539534D01*
X124717631Y-92494115D01*
X124744712Y-92478481D01*
X124745034Y-92478376D01*
X124805025Y-92458884D01*
X124980405Y-92369524D01*
X125139646Y-92253828D01*
X125278828Y-92114646D01*
X125394524Y-91955405D01*
X125483884Y-91780025D01*
X125498692Y-91734451D01*
X130154500Y-91734451D01*
X130154500Y-91915548D01*
X130182828Y-92094406D01*
X130182829Y-92094409D01*
X130238788Y-92266638D01*
X130321006Y-92427998D01*
X130427443Y-92574496D01*
X130427455Y-92574510D01*
X130555489Y-92702544D01*
X130555503Y-92702556D01*
X130702001Y-92808993D01*
X130702003Y-92808994D01*
X130702006Y-92808996D01*
X130863361Y-92891211D01*
X131035591Y-92947171D01*
X131214454Y-92975500D01*
X131214458Y-92975500D01*
X132145542Y-92975500D01*
X132145546Y-92975500D01*
X132324409Y-92947171D01*
X132496639Y-92891211D01*
X132657994Y-92808996D01*
X132804501Y-92702553D01*
X132932553Y-92574501D01*
X133038996Y-92427994D01*
X133121211Y-92266639D01*
X133177171Y-92094409D01*
X133205500Y-91915546D01*
X133205500Y-91734454D01*
X133205500Y-91734451D01*
X145394500Y-91734451D01*
X145394500Y-91915548D01*
X145422828Y-92094406D01*
X145422829Y-92094409D01*
X145478788Y-92266638D01*
X145561006Y-92427998D01*
X145667443Y-92574496D01*
X145667455Y-92574510D01*
X145795489Y-92702544D01*
X145795503Y-92702556D01*
X145942001Y-92808993D01*
X145942003Y-92808994D01*
X145942006Y-92808996D01*
X146103361Y-92891211D01*
X146275591Y-92947171D01*
X146454454Y-92975500D01*
X146454458Y-92975500D01*
X147385542Y-92975500D01*
X147385546Y-92975500D01*
X147564409Y-92947171D01*
X147736639Y-92891211D01*
X147897994Y-92808996D01*
X148044501Y-92702553D01*
X148172553Y-92574501D01*
X148278996Y-92427994D01*
X148361211Y-92266639D01*
X148417171Y-92094409D01*
X148445500Y-91915546D01*
X148445500Y-91734454D01*
X148417171Y-91555591D01*
X148361211Y-91383361D01*
X148278996Y-91222006D01*
X148278994Y-91222003D01*
X148278993Y-91222001D01*
X148172556Y-91075503D01*
X148172544Y-91075489D01*
X148044510Y-90947455D01*
X148044496Y-90947443D01*
X147897998Y-90841006D01*
X147736638Y-90758788D01*
X147564409Y-90702829D01*
X147564406Y-90702828D01*
X147385548Y-90674500D01*
X147385546Y-90674500D01*
X146454454Y-90674500D01*
X146454451Y-90674500D01*
X146275593Y-90702828D01*
X146275590Y-90702829D01*
X146103361Y-90758788D01*
X145942001Y-90841006D01*
X145795503Y-90947443D01*
X145795489Y-90947455D01*
X145667455Y-91075489D01*
X145667443Y-91075503D01*
X145561006Y-91222001D01*
X145478788Y-91383361D01*
X145422829Y-91555590D01*
X145422828Y-91555593D01*
X145394500Y-91734451D01*
X133205500Y-91734451D01*
X133177171Y-91555591D01*
X133121211Y-91383361D01*
X133038996Y-91222006D01*
X133038994Y-91222003D01*
X133038993Y-91222001D01*
X132932556Y-91075503D01*
X132932544Y-91075489D01*
X132804510Y-90947455D01*
X132804496Y-90947443D01*
X132657998Y-90841006D01*
X132496638Y-90758788D01*
X132324409Y-90702829D01*
X132324406Y-90702828D01*
X132145548Y-90674500D01*
X132145546Y-90674500D01*
X131214454Y-90674500D01*
X131214451Y-90674500D01*
X131035593Y-90702828D01*
X131035590Y-90702829D01*
X130863361Y-90758788D01*
X130702001Y-90841006D01*
X130555503Y-90947443D01*
X130555489Y-90947455D01*
X130427455Y-91075489D01*
X130427443Y-91075503D01*
X130321006Y-91222001D01*
X130238788Y-91383361D01*
X130182829Y-91555590D01*
X130182828Y-91555593D01*
X130154500Y-91734451D01*
X125498692Y-91734451D01*
X125544709Y-91592826D01*
X125575500Y-91398417D01*
X125575500Y-91201583D01*
X125544709Y-91007174D01*
X125483884Y-90819975D01*
X125394524Y-90644595D01*
X125278828Y-90485354D01*
X125278826Y-90485352D01*
X125278819Y-90485344D01*
X125139655Y-90346180D01*
X125139647Y-90346173D01*
X125039496Y-90273408D01*
X124980405Y-90230476D01*
X124805025Y-90141116D01*
X124805018Y-90141113D01*
X124805014Y-90141112D01*
X124744712Y-90121519D01*
X124704177Y-90089850D01*
X124693482Y-90039534D01*
X124717631Y-89994115D01*
X124744712Y-89978481D01*
X124745034Y-89978376D01*
X124805025Y-89958884D01*
X124980405Y-89869524D01*
X125139646Y-89753828D01*
X125278828Y-89614646D01*
X125394524Y-89455405D01*
X125483884Y-89280025D01*
X125511689Y-89194451D01*
X130154500Y-89194451D01*
X130154500Y-89375548D01*
X130182828Y-89554406D01*
X130182829Y-89554409D01*
X130238788Y-89726638D01*
X130321006Y-89887998D01*
X130427443Y-90034496D01*
X130427455Y-90034510D01*
X130555489Y-90162544D01*
X130555503Y-90162556D01*
X130702001Y-90268993D01*
X130702003Y-90268994D01*
X130702006Y-90268996D01*
X130863361Y-90351211D01*
X131035591Y-90407171D01*
X131214454Y-90435500D01*
X131214458Y-90435500D01*
X132145542Y-90435500D01*
X132145546Y-90435500D01*
X132324409Y-90407171D01*
X132496639Y-90351211D01*
X132657994Y-90268996D01*
X132804501Y-90162553D01*
X132932553Y-90034501D01*
X133038996Y-89887994D01*
X133121211Y-89726639D01*
X133177171Y-89554409D01*
X133205500Y-89375546D01*
X133205500Y-89194454D01*
X133205500Y-89194451D01*
X145394500Y-89194451D01*
X145394500Y-89375548D01*
X145422828Y-89554406D01*
X145422829Y-89554409D01*
X145478788Y-89726638D01*
X145561006Y-89887998D01*
X145667443Y-90034496D01*
X145667455Y-90034510D01*
X145795489Y-90162544D01*
X145795503Y-90162556D01*
X145942001Y-90268993D01*
X145942003Y-90268994D01*
X145942006Y-90268996D01*
X146103361Y-90351211D01*
X146275591Y-90407171D01*
X146454454Y-90435500D01*
X146454458Y-90435500D01*
X147385542Y-90435500D01*
X147385546Y-90435500D01*
X147564409Y-90407171D01*
X147736639Y-90351211D01*
X147897994Y-90268996D01*
X148044501Y-90162553D01*
X148172553Y-90034501D01*
X148278996Y-89887994D01*
X148361211Y-89726639D01*
X148417171Y-89554409D01*
X148445500Y-89375546D01*
X148445500Y-89194454D01*
X148417171Y-89015591D01*
X148361211Y-88843361D01*
X148278996Y-88682006D01*
X148278994Y-88682003D01*
X148278993Y-88682001D01*
X148172556Y-88535503D01*
X148172544Y-88535489D01*
X148044510Y-88407455D01*
X148044496Y-88407443D01*
X147897998Y-88301006D01*
X147736638Y-88218788D01*
X147564409Y-88162829D01*
X147564406Y-88162828D01*
X147385548Y-88134500D01*
X147385546Y-88134500D01*
X146454454Y-88134500D01*
X146454451Y-88134500D01*
X146275593Y-88162828D01*
X146275590Y-88162829D01*
X146103361Y-88218788D01*
X145942001Y-88301006D01*
X145795503Y-88407443D01*
X145795489Y-88407455D01*
X145667455Y-88535489D01*
X145667443Y-88535503D01*
X145561006Y-88682001D01*
X145478788Y-88843361D01*
X145422829Y-89015590D01*
X145422828Y-89015593D01*
X145394500Y-89194451D01*
X133205500Y-89194451D01*
X133177171Y-89015591D01*
X133121211Y-88843361D01*
X133038996Y-88682006D01*
X133038994Y-88682003D01*
X133038993Y-88682001D01*
X132932556Y-88535503D01*
X132932544Y-88535489D01*
X132804510Y-88407455D01*
X132804496Y-88407443D01*
X132657998Y-88301006D01*
X132496638Y-88218788D01*
X132324409Y-88162829D01*
X132324406Y-88162828D01*
X132145548Y-88134500D01*
X132145546Y-88134500D01*
X131214454Y-88134500D01*
X131214451Y-88134500D01*
X131035593Y-88162828D01*
X131035590Y-88162829D01*
X130863361Y-88218788D01*
X130702001Y-88301006D01*
X130555503Y-88407443D01*
X130555489Y-88407455D01*
X130427455Y-88535489D01*
X130427443Y-88535503D01*
X130321006Y-88682001D01*
X130238788Y-88843361D01*
X130182829Y-89015590D01*
X130182828Y-89015593D01*
X130154500Y-89194451D01*
X125511689Y-89194451D01*
X125544709Y-89092826D01*
X125575500Y-88898417D01*
X125575500Y-88701583D01*
X125544709Y-88507174D01*
X125483884Y-88319975D01*
X125394524Y-88144595D01*
X125278828Y-87985354D01*
X125278826Y-87985352D01*
X125278819Y-87985344D01*
X125139655Y-87846180D01*
X125139647Y-87846173D01*
X125091527Y-87811211D01*
X124980405Y-87730476D01*
X124805025Y-87641116D01*
X124805018Y-87641113D01*
X124805014Y-87641112D01*
X124744712Y-87621519D01*
X124704177Y-87589850D01*
X124693482Y-87539534D01*
X124717631Y-87494115D01*
X124744712Y-87478481D01*
X124745034Y-87478376D01*
X124805025Y-87458884D01*
X124980405Y-87369524D01*
X125139646Y-87253828D01*
X125278828Y-87114646D01*
X125394524Y-86955405D01*
X125483884Y-86780025D01*
X125524686Y-86654451D01*
X130154500Y-86654451D01*
X130154500Y-86835548D01*
X130182828Y-87014406D01*
X130182829Y-87014409D01*
X130238788Y-87186638D01*
X130321006Y-87347998D01*
X130427443Y-87494496D01*
X130427455Y-87494510D01*
X130555489Y-87622544D01*
X130555503Y-87622556D01*
X130702001Y-87728993D01*
X130702003Y-87728994D01*
X130702006Y-87728996D01*
X130863361Y-87811211D01*
X131035591Y-87867171D01*
X131214454Y-87895500D01*
X131214458Y-87895500D01*
X132145542Y-87895500D01*
X132145546Y-87895500D01*
X132324409Y-87867171D01*
X132496639Y-87811211D01*
X132657994Y-87728996D01*
X132804501Y-87622553D01*
X132932553Y-87494501D01*
X133038996Y-87347994D01*
X133121211Y-87186639D01*
X133177171Y-87014409D01*
X133205500Y-86835546D01*
X133205500Y-86654454D01*
X133205500Y-86654451D01*
X145394500Y-86654451D01*
X145394500Y-86835548D01*
X145422828Y-87014406D01*
X145422829Y-87014409D01*
X145478788Y-87186638D01*
X145561006Y-87347998D01*
X145667443Y-87494496D01*
X145667455Y-87494510D01*
X145795489Y-87622544D01*
X145795503Y-87622556D01*
X145942001Y-87728993D01*
X145942003Y-87728994D01*
X145942006Y-87728996D01*
X146103361Y-87811211D01*
X146275591Y-87867171D01*
X146454454Y-87895500D01*
X146454458Y-87895500D01*
X147385542Y-87895500D01*
X147385546Y-87895500D01*
X147564409Y-87867171D01*
X147736639Y-87811211D01*
X147897994Y-87728996D01*
X148044501Y-87622553D01*
X148172553Y-87494501D01*
X148278996Y-87347994D01*
X148361211Y-87186639D01*
X148417171Y-87014409D01*
X148445500Y-86835546D01*
X148445500Y-86654454D01*
X148417171Y-86475591D01*
X148361211Y-86303361D01*
X148278996Y-86142006D01*
X148278994Y-86142003D01*
X148278993Y-86142001D01*
X148172556Y-85995503D01*
X148172544Y-85995489D01*
X148044510Y-85867455D01*
X148044496Y-85867443D01*
X147897998Y-85761006D01*
X147736638Y-85678788D01*
X147564409Y-85622829D01*
X147564406Y-85622828D01*
X147385548Y-85594500D01*
X147385546Y-85594500D01*
X146454454Y-85594500D01*
X146454451Y-85594500D01*
X146275593Y-85622828D01*
X146275590Y-85622829D01*
X146103361Y-85678788D01*
X145942001Y-85761006D01*
X145795503Y-85867443D01*
X145795489Y-85867455D01*
X145667455Y-85995489D01*
X145667443Y-85995503D01*
X145561006Y-86142001D01*
X145478788Y-86303361D01*
X145422829Y-86475590D01*
X145422828Y-86475593D01*
X145394500Y-86654451D01*
X133205500Y-86654451D01*
X133177171Y-86475591D01*
X133121211Y-86303361D01*
X133038996Y-86142006D01*
X133038994Y-86142003D01*
X133038993Y-86142001D01*
X132932556Y-85995503D01*
X132932544Y-85995489D01*
X132804510Y-85867455D01*
X132804496Y-85867443D01*
X132657998Y-85761006D01*
X132496638Y-85678788D01*
X132324409Y-85622829D01*
X132324406Y-85622828D01*
X132145548Y-85594500D01*
X132145546Y-85594500D01*
X131214454Y-85594500D01*
X131214451Y-85594500D01*
X131035593Y-85622828D01*
X131035590Y-85622829D01*
X130863361Y-85678788D01*
X130702001Y-85761006D01*
X130555503Y-85867443D01*
X130555489Y-85867455D01*
X130427455Y-85995489D01*
X130427443Y-85995503D01*
X130321006Y-86142001D01*
X130238788Y-86303361D01*
X130182829Y-86475590D01*
X130182828Y-86475593D01*
X130154500Y-86654451D01*
X125524686Y-86654451D01*
X125544709Y-86592826D01*
X125575500Y-86398417D01*
X125575500Y-86201583D01*
X125544709Y-86007174D01*
X125483884Y-85819975D01*
X125394524Y-85644595D01*
X125278828Y-85485354D01*
X125278826Y-85485352D01*
X125278819Y-85485344D01*
X125139655Y-85346180D01*
X125139647Y-85346173D01*
X125113494Y-85327171D01*
X124980405Y-85230476D01*
X124805025Y-85141116D01*
X124805018Y-85141113D01*
X124805014Y-85141112D01*
X124744712Y-85121519D01*
X124704177Y-85089850D01*
X124693482Y-85039534D01*
X124717631Y-84994115D01*
X124744712Y-84978481D01*
X124745034Y-84978376D01*
X124805025Y-84958884D01*
X124980405Y-84869524D01*
X125139646Y-84753828D01*
X125278828Y-84614646D01*
X125394524Y-84455405D01*
X125483884Y-84280025D01*
X125537683Y-84114451D01*
X130154500Y-84114451D01*
X130154500Y-84295548D01*
X130182828Y-84474406D01*
X130182829Y-84474409D01*
X130238788Y-84646638D01*
X130321006Y-84807998D01*
X130427443Y-84954496D01*
X130427455Y-84954510D01*
X130555489Y-85082544D01*
X130555503Y-85082556D01*
X130702001Y-85188993D01*
X130702003Y-85188994D01*
X130702006Y-85188996D01*
X130863361Y-85271211D01*
X131035591Y-85327171D01*
X131214454Y-85355500D01*
X131214458Y-85355500D01*
X132145542Y-85355500D01*
X132145546Y-85355500D01*
X132324409Y-85327171D01*
X132496639Y-85271211D01*
X132657994Y-85188996D01*
X132804501Y-85082553D01*
X132932553Y-84954501D01*
X133038996Y-84807994D01*
X133121211Y-84646639D01*
X133177171Y-84474409D01*
X133205500Y-84295546D01*
X133205500Y-84114454D01*
X133205500Y-84114451D01*
X145394500Y-84114451D01*
X145394500Y-84295548D01*
X145422828Y-84474406D01*
X145422829Y-84474409D01*
X145478788Y-84646638D01*
X145561006Y-84807998D01*
X145667443Y-84954496D01*
X145667455Y-84954510D01*
X145795489Y-85082544D01*
X145795503Y-85082556D01*
X145942001Y-85188993D01*
X145942003Y-85188994D01*
X145942006Y-85188996D01*
X146103361Y-85271211D01*
X146275591Y-85327171D01*
X146454454Y-85355500D01*
X146454458Y-85355500D01*
X147385542Y-85355500D01*
X147385546Y-85355500D01*
X147564409Y-85327171D01*
X147736639Y-85271211D01*
X147897994Y-85188996D01*
X148044501Y-85082553D01*
X148172553Y-84954501D01*
X148278996Y-84807994D01*
X148361211Y-84646639D01*
X148417171Y-84474409D01*
X148445500Y-84295546D01*
X148445500Y-84114454D01*
X148417171Y-83935591D01*
X148361211Y-83763361D01*
X148278996Y-83602006D01*
X148278994Y-83602003D01*
X148278993Y-83602001D01*
X148172556Y-83455503D01*
X148172544Y-83455489D01*
X148044510Y-83327455D01*
X148044496Y-83327443D01*
X147897998Y-83221006D01*
X147736638Y-83138788D01*
X147564409Y-83082829D01*
X147564406Y-83082828D01*
X147385548Y-83054500D01*
X147385546Y-83054500D01*
X146454454Y-83054500D01*
X146454451Y-83054500D01*
X146275593Y-83082828D01*
X146275590Y-83082829D01*
X146103361Y-83138788D01*
X145942001Y-83221006D01*
X145795503Y-83327443D01*
X145795489Y-83327455D01*
X145667455Y-83455489D01*
X145667443Y-83455503D01*
X145561006Y-83602001D01*
X145478788Y-83763361D01*
X145422829Y-83935590D01*
X145422828Y-83935593D01*
X145394500Y-84114451D01*
X133205500Y-84114451D01*
X133177171Y-83935591D01*
X133121211Y-83763361D01*
X133038996Y-83602006D01*
X133038994Y-83602003D01*
X133038993Y-83602001D01*
X132932556Y-83455503D01*
X132932544Y-83455489D01*
X132804510Y-83327455D01*
X132804496Y-83327443D01*
X132657998Y-83221006D01*
X132496638Y-83138788D01*
X132324409Y-83082829D01*
X132324406Y-83082828D01*
X132145548Y-83054500D01*
X132145546Y-83054500D01*
X131214454Y-83054500D01*
X131214451Y-83054500D01*
X131035593Y-83082828D01*
X131035590Y-83082829D01*
X130863361Y-83138788D01*
X130702001Y-83221006D01*
X130555503Y-83327443D01*
X130555489Y-83327455D01*
X130427455Y-83455489D01*
X130427443Y-83455503D01*
X130321006Y-83602001D01*
X130238788Y-83763361D01*
X130182829Y-83935590D01*
X130182828Y-83935593D01*
X130154500Y-84114451D01*
X125537683Y-84114451D01*
X125544709Y-84092826D01*
X125575500Y-83898417D01*
X125575500Y-83701583D01*
X125544709Y-83507174D01*
X125483884Y-83319975D01*
X125394524Y-83144595D01*
X125278828Y-82985354D01*
X125278826Y-82985352D01*
X125278819Y-82985344D01*
X125139655Y-82846180D01*
X125139647Y-82846173D01*
X125097430Y-82815500D01*
X124980405Y-82730476D01*
X124805025Y-82641116D01*
X124805018Y-82641113D01*
X124805014Y-82641112D01*
X124617830Y-82580292D01*
X124617818Y-82580289D01*
X124423419Y-82549500D01*
X124423417Y-82549500D01*
X123976583Y-82549500D01*
X123976580Y-82549500D01*
X123782181Y-82580289D01*
X123782169Y-82580292D01*
X123594985Y-82641112D01*
X123594977Y-82641115D01*
X123594975Y-82641116D01*
X123594971Y-82641117D01*
X123594971Y-82641118D01*
X123419593Y-82730477D01*
X123260352Y-82846173D01*
X123260344Y-82846180D01*
X123121180Y-82985344D01*
X123121173Y-82985352D01*
X123005477Y-83144593D01*
X122916118Y-83319971D01*
X122916112Y-83319985D01*
X122855292Y-83507169D01*
X122855289Y-83507181D01*
X122824500Y-83701580D01*
X118775500Y-83701580D01*
X118744709Y-83507174D01*
X118683884Y-83319975D01*
X118594524Y-83144595D01*
X118478828Y-82985354D01*
X118478826Y-82985352D01*
X118478819Y-82985344D01*
X118339655Y-82846180D01*
X118339647Y-82846173D01*
X118297430Y-82815500D01*
X118180405Y-82730476D01*
X118005025Y-82641116D01*
X118005018Y-82641113D01*
X118005014Y-82641112D01*
X117817830Y-82580292D01*
X117817818Y-82580289D01*
X117623419Y-82549500D01*
X117623417Y-82549500D01*
X117176583Y-82549500D01*
X117176580Y-82549500D01*
X116982181Y-82580289D01*
X116982169Y-82580292D01*
X116794985Y-82641112D01*
X116794977Y-82641115D01*
X116794975Y-82641116D01*
X116794971Y-82641117D01*
X116794971Y-82641118D01*
X116619593Y-82730477D01*
X116460352Y-82846173D01*
X116460344Y-82846180D01*
X116321180Y-82985344D01*
X116321173Y-82985352D01*
X116205477Y-83144593D01*
X116116118Y-83319971D01*
X116116112Y-83319985D01*
X116055292Y-83507169D01*
X116055289Y-83507181D01*
X116024500Y-83701580D01*
X116024500Y-83898419D01*
X116055289Y-84092818D01*
X116055292Y-84092830D01*
X116062319Y-84114458D01*
X116116116Y-84280025D01*
X116205476Y-84455405D01*
X116219284Y-84474409D01*
X116321173Y-84614647D01*
X116321180Y-84614655D01*
X116460344Y-84753819D01*
X116460352Y-84753826D01*
X116460354Y-84753828D01*
X116619595Y-84869524D01*
X116732715Y-84927161D01*
X116767796Y-84964781D01*
X116770488Y-85016150D01*
X116739531Y-85057232D01*
X116732714Y-85061168D01*
X116567441Y-85145379D01*
X116395538Y-85270274D01*
X116395524Y-85270286D01*
X116245286Y-85420524D01*
X116245274Y-85420538D01*
X116120379Y-85592441D01*
X116023905Y-85781780D01*
X115958244Y-85983861D01*
X115958240Y-85983878D01*
X115947768Y-86049999D01*
X111400499Y-86049999D01*
X111400499Y-81574451D01*
X130154500Y-81574451D01*
X130154500Y-81755548D01*
X130182828Y-81934406D01*
X130182829Y-81934409D01*
X130238788Y-82106638D01*
X130321006Y-82267998D01*
X130427443Y-82414496D01*
X130427455Y-82414510D01*
X130555489Y-82542544D01*
X130555503Y-82542556D01*
X130702001Y-82648993D01*
X130702003Y-82648994D01*
X130702006Y-82648996D01*
X130863361Y-82731211D01*
X131035591Y-82787171D01*
X131214454Y-82815500D01*
X131214458Y-82815500D01*
X132145542Y-82815500D01*
X132145546Y-82815500D01*
X132324409Y-82787171D01*
X132496639Y-82731211D01*
X132657994Y-82648996D01*
X132804501Y-82542553D01*
X132932553Y-82414501D01*
X133038996Y-82267994D01*
X133121211Y-82106639D01*
X133177171Y-81934409D01*
X133205500Y-81755546D01*
X133205500Y-81574454D01*
X133205500Y-81574451D01*
X145394500Y-81574451D01*
X145394500Y-81755548D01*
X145422828Y-81934406D01*
X145422829Y-81934409D01*
X145478788Y-82106638D01*
X145561006Y-82267998D01*
X145667443Y-82414496D01*
X145667455Y-82414510D01*
X145795489Y-82542544D01*
X145795503Y-82542556D01*
X145942001Y-82648993D01*
X145942003Y-82648994D01*
X145942006Y-82648996D01*
X146103361Y-82731211D01*
X146275591Y-82787171D01*
X146454454Y-82815500D01*
X146454458Y-82815500D01*
X147385542Y-82815500D01*
X147385546Y-82815500D01*
X147564409Y-82787171D01*
X147736639Y-82731211D01*
X147897994Y-82648996D01*
X148044501Y-82542553D01*
X148172553Y-82414501D01*
X148278996Y-82267994D01*
X148361211Y-82106639D01*
X148417171Y-81934409D01*
X148445500Y-81755546D01*
X148445500Y-81574454D01*
X148417171Y-81395591D01*
X148361211Y-81223361D01*
X148278996Y-81062006D01*
X148278994Y-81062003D01*
X148278993Y-81062001D01*
X148172556Y-80915503D01*
X148172544Y-80915489D01*
X148044510Y-80787455D01*
X148044496Y-80787443D01*
X147897998Y-80681006D01*
X147736638Y-80598788D01*
X147564409Y-80542829D01*
X147564406Y-80542828D01*
X147385548Y-80514500D01*
X147385546Y-80514500D01*
X146454454Y-80514500D01*
X146454451Y-80514500D01*
X146275593Y-80542828D01*
X146275590Y-80542829D01*
X146103361Y-80598788D01*
X145942001Y-80681006D01*
X145795503Y-80787443D01*
X145795489Y-80787455D01*
X145667455Y-80915489D01*
X145667443Y-80915503D01*
X145561006Y-81062001D01*
X145478788Y-81223361D01*
X145422829Y-81395590D01*
X145422828Y-81395593D01*
X145394500Y-81574451D01*
X133205500Y-81574451D01*
X133177171Y-81395591D01*
X133121211Y-81223361D01*
X133038996Y-81062006D01*
X133038994Y-81062003D01*
X133038993Y-81062001D01*
X132932556Y-80915503D01*
X132932544Y-80915489D01*
X132804510Y-80787455D01*
X132804496Y-80787443D01*
X132657998Y-80681006D01*
X132496638Y-80598788D01*
X132324409Y-80542829D01*
X132324406Y-80542828D01*
X132145548Y-80514500D01*
X132145546Y-80514500D01*
X131214454Y-80514500D01*
X131214451Y-80514500D01*
X131035593Y-80542828D01*
X131035590Y-80542829D01*
X130863361Y-80598788D01*
X130702001Y-80681006D01*
X130555503Y-80787443D01*
X130555489Y-80787455D01*
X130427455Y-80915489D01*
X130427443Y-80915503D01*
X130321006Y-81062001D01*
X130238788Y-81223361D01*
X130182829Y-81395590D01*
X130182828Y-81395593D01*
X130154500Y-81574451D01*
X111400499Y-81574451D01*
X111400499Y-79034451D01*
X130154500Y-79034451D01*
X130154500Y-79215548D01*
X130182828Y-79394406D01*
X130182829Y-79394409D01*
X130238788Y-79566638D01*
X130321006Y-79727998D01*
X130427443Y-79874496D01*
X130427455Y-79874510D01*
X130555489Y-80002544D01*
X130555503Y-80002556D01*
X130702001Y-80108993D01*
X130702003Y-80108994D01*
X130702006Y-80108996D01*
X130863361Y-80191211D01*
X131035591Y-80247171D01*
X131214454Y-80275500D01*
X131214458Y-80275500D01*
X132145542Y-80275500D01*
X132145546Y-80275500D01*
X132324409Y-80247171D01*
X132496639Y-80191211D01*
X132657994Y-80108996D01*
X132804501Y-80002553D01*
X132932553Y-79874501D01*
X133038996Y-79727994D01*
X133121211Y-79566639D01*
X133177171Y-79394409D01*
X133205500Y-79215546D01*
X133205500Y-79034454D01*
X133205500Y-79034451D01*
X145394500Y-79034451D01*
X145394500Y-79215548D01*
X145422828Y-79394406D01*
X145422829Y-79394409D01*
X145478788Y-79566638D01*
X145561006Y-79727998D01*
X145667443Y-79874496D01*
X145667455Y-79874510D01*
X145795489Y-80002544D01*
X145795503Y-80002556D01*
X145942001Y-80108993D01*
X145942003Y-80108994D01*
X145942006Y-80108996D01*
X146103361Y-80191211D01*
X146275591Y-80247171D01*
X146454454Y-80275500D01*
X146454458Y-80275500D01*
X147385542Y-80275500D01*
X147385546Y-80275500D01*
X147564409Y-80247171D01*
X147736639Y-80191211D01*
X147897994Y-80108996D01*
X148044501Y-80002553D01*
X148172553Y-79874501D01*
X148278996Y-79727994D01*
X148361211Y-79566639D01*
X148417171Y-79394409D01*
X148445500Y-79215546D01*
X148445500Y-79034454D01*
X148417171Y-78855591D01*
X148361211Y-78683361D01*
X148278996Y-78522006D01*
X148278994Y-78522003D01*
X148278993Y-78522001D01*
X148172556Y-78375503D01*
X148172544Y-78375489D01*
X148044510Y-78247455D01*
X148044496Y-78247443D01*
X147897998Y-78141006D01*
X147736638Y-78058788D01*
X147564409Y-78002829D01*
X147564406Y-78002828D01*
X147385548Y-77974500D01*
X147385546Y-77974500D01*
X146454454Y-77974500D01*
X146454451Y-77974500D01*
X146275593Y-78002828D01*
X146275590Y-78002829D01*
X146103361Y-78058788D01*
X145942001Y-78141006D01*
X145795503Y-78247443D01*
X145795489Y-78247455D01*
X145667455Y-78375489D01*
X145667443Y-78375503D01*
X145561006Y-78522001D01*
X145478788Y-78683361D01*
X145422829Y-78855590D01*
X145422828Y-78855593D01*
X145394500Y-79034451D01*
X133205500Y-79034451D01*
X133177171Y-78855591D01*
X133121211Y-78683361D01*
X133038996Y-78522006D01*
X133038994Y-78522003D01*
X133038993Y-78522001D01*
X132932556Y-78375503D01*
X132932544Y-78375489D01*
X132804510Y-78247455D01*
X132804496Y-78247443D01*
X132657998Y-78141006D01*
X132496638Y-78058788D01*
X132324409Y-78002829D01*
X132324406Y-78002828D01*
X132145548Y-77974500D01*
X132145546Y-77974500D01*
X131214454Y-77974500D01*
X131214451Y-77974500D01*
X131035593Y-78002828D01*
X131035590Y-78002829D01*
X130863361Y-78058788D01*
X130702001Y-78141006D01*
X130555503Y-78247443D01*
X130555489Y-78247455D01*
X130427455Y-78375489D01*
X130427443Y-78375503D01*
X130321006Y-78522001D01*
X130238788Y-78683361D01*
X130182829Y-78855590D01*
X130182828Y-78855593D01*
X130154500Y-79034451D01*
X111400499Y-79034451D01*
X111400499Y-76494451D01*
X130154500Y-76494451D01*
X130154500Y-76675548D01*
X130182828Y-76854406D01*
X130182829Y-76854409D01*
X130238788Y-77026638D01*
X130321006Y-77187998D01*
X130427443Y-77334496D01*
X130427455Y-77334510D01*
X130555489Y-77462544D01*
X130555503Y-77462556D01*
X130702001Y-77568993D01*
X130702003Y-77568994D01*
X130702006Y-77568996D01*
X130863361Y-77651211D01*
X131035591Y-77707171D01*
X131214454Y-77735500D01*
X131214458Y-77735500D01*
X132145542Y-77735500D01*
X132145546Y-77735500D01*
X132324409Y-77707171D01*
X132496639Y-77651211D01*
X132657994Y-77568996D01*
X132804501Y-77462553D01*
X132932553Y-77334501D01*
X133038996Y-77187994D01*
X133121211Y-77026639D01*
X133177171Y-76854409D01*
X133205500Y-76675546D01*
X133205500Y-76494454D01*
X133205500Y-76494451D01*
X145394500Y-76494451D01*
X145394500Y-76675548D01*
X145422828Y-76854406D01*
X145422829Y-76854409D01*
X145478788Y-77026638D01*
X145561006Y-77187998D01*
X145667443Y-77334496D01*
X145667455Y-77334510D01*
X145795489Y-77462544D01*
X145795503Y-77462556D01*
X145942001Y-77568993D01*
X145942003Y-77568994D01*
X145942006Y-77568996D01*
X146103361Y-77651211D01*
X146275591Y-77707171D01*
X146454454Y-77735500D01*
X146454458Y-77735500D01*
X147385542Y-77735500D01*
X147385546Y-77735500D01*
X147564409Y-77707171D01*
X147736639Y-77651211D01*
X147897994Y-77568996D01*
X148044501Y-77462553D01*
X148172553Y-77334501D01*
X148278996Y-77187994D01*
X148361211Y-77026639D01*
X148417171Y-76854409D01*
X148445500Y-76675546D01*
X148445500Y-76494454D01*
X148417171Y-76315591D01*
X148361211Y-76143361D01*
X148278996Y-75982006D01*
X148278994Y-75982003D01*
X148278993Y-75982001D01*
X148172556Y-75835503D01*
X148172544Y-75835489D01*
X148044510Y-75707455D01*
X148044496Y-75707443D01*
X147897998Y-75601006D01*
X147736638Y-75518788D01*
X147564409Y-75462829D01*
X147564406Y-75462828D01*
X147385548Y-75434500D01*
X147385546Y-75434500D01*
X146454454Y-75434500D01*
X146454451Y-75434500D01*
X146275593Y-75462828D01*
X146275590Y-75462829D01*
X146103361Y-75518788D01*
X145942001Y-75601006D01*
X145795503Y-75707443D01*
X145795489Y-75707455D01*
X145667455Y-75835489D01*
X145667443Y-75835503D01*
X145561006Y-75982001D01*
X145478788Y-76143361D01*
X145422829Y-76315590D01*
X145422828Y-76315593D01*
X145394500Y-76494451D01*
X133205500Y-76494451D01*
X133177171Y-76315591D01*
X133121211Y-76143361D01*
X133038996Y-75982006D01*
X133038994Y-75982003D01*
X133038993Y-75982001D01*
X132932556Y-75835503D01*
X132932544Y-75835489D01*
X132804510Y-75707455D01*
X132804496Y-75707443D01*
X132657998Y-75601006D01*
X132496638Y-75518788D01*
X132324409Y-75462829D01*
X132324406Y-75462828D01*
X132145548Y-75434500D01*
X132145546Y-75434500D01*
X131214454Y-75434500D01*
X131214451Y-75434500D01*
X131035593Y-75462828D01*
X131035590Y-75462829D01*
X130863361Y-75518788D01*
X130702001Y-75601006D01*
X130555503Y-75707443D01*
X130555489Y-75707455D01*
X130427455Y-75835489D01*
X130427443Y-75835503D01*
X130321006Y-75982001D01*
X130238788Y-76143361D01*
X130182829Y-76315590D01*
X130182828Y-76315593D01*
X130154500Y-76494451D01*
X111400499Y-76494451D01*
X111400499Y-73954451D01*
X130154500Y-73954451D01*
X130154500Y-74135548D01*
X130182828Y-74314406D01*
X130182829Y-74314409D01*
X130238788Y-74486638D01*
X130321006Y-74647998D01*
X130427443Y-74794496D01*
X130427455Y-74794510D01*
X130555489Y-74922544D01*
X130555503Y-74922556D01*
X130702001Y-75028993D01*
X130702003Y-75028994D01*
X130702006Y-75028996D01*
X130863361Y-75111211D01*
X131035591Y-75167171D01*
X131214454Y-75195500D01*
X131214458Y-75195500D01*
X132145542Y-75195500D01*
X132145546Y-75195500D01*
X132324409Y-75167171D01*
X132496639Y-75111211D01*
X132657994Y-75028996D01*
X132697904Y-75000000D01*
X139994355Y-75000000D01*
X140014860Y-75168872D01*
X140014860Y-75168874D01*
X140014861Y-75168875D01*
X140045021Y-75248401D01*
X140075182Y-75327930D01*
X140171817Y-75467929D01*
X140171820Y-75467932D01*
X140171825Y-75467937D01*
X140299144Y-75580731D01*
X140299146Y-75580732D01*
X140299148Y-75580734D01*
X140449775Y-75659790D01*
X140614944Y-75700500D01*
X140614946Y-75700500D01*
X140785054Y-75700500D01*
X140785056Y-75700500D01*
X140950225Y-75659790D01*
X141100852Y-75580734D01*
X141228183Y-75467929D01*
X141279715Y-75393271D01*
X141321652Y-75363485D01*
X141372925Y-75367624D01*
X141403491Y-75393271D01*
X141461882Y-75477864D01*
X141461885Y-75477867D01*
X141461890Y-75477872D01*
X141589209Y-75590666D01*
X141589211Y-75590667D01*
X141589213Y-75590669D01*
X141739840Y-75669725D01*
X141905009Y-75710435D01*
X141905011Y-75710435D01*
X142075119Y-75710435D01*
X142075121Y-75710435D01*
X142240290Y-75669725D01*
X142390917Y-75590669D01*
X142518248Y-75477864D01*
X142614883Y-75337865D01*
X142675205Y-75178807D01*
X142695710Y-75009935D01*
X142675205Y-74841063D01*
X142614883Y-74682005D01*
X142518248Y-74542006D01*
X142518243Y-74542002D01*
X142518239Y-74541997D01*
X142390920Y-74429203D01*
X142390917Y-74429201D01*
X142240290Y-74350145D01*
X142075121Y-74309435D01*
X141905009Y-74309435D01*
X141794896Y-74336575D01*
X141739839Y-74350145D01*
X141589212Y-74429201D01*
X141589209Y-74429203D01*
X141461890Y-74541997D01*
X141461881Y-74542007D01*
X141410349Y-74616663D01*
X141368410Y-74646450D01*
X141317138Y-74642310D01*
X141286573Y-74616663D01*
X141235041Y-74542007D01*
X141228183Y-74532071D01*
X141228178Y-74532067D01*
X141228174Y-74532062D01*
X141100855Y-74419268D01*
X141100852Y-74419266D01*
X140950225Y-74340210D01*
X140785056Y-74299500D01*
X140614944Y-74299500D01*
X140504831Y-74326640D01*
X140449774Y-74340210D01*
X140299147Y-74419266D01*
X140299144Y-74419268D01*
X140171825Y-74532062D01*
X140171816Y-74532072D01*
X140075182Y-74672069D01*
X140075181Y-74672072D01*
X140014861Y-74831124D01*
X140014860Y-74831126D01*
X140014860Y-74831128D01*
X139994355Y-75000000D01*
X132697904Y-75000000D01*
X132804501Y-74922553D01*
X132932553Y-74794501D01*
X133038996Y-74647994D01*
X133121211Y-74486639D01*
X133177171Y-74314409D01*
X133205500Y-74135546D01*
X133205500Y-73954454D01*
X133205500Y-73954451D01*
X145394500Y-73954451D01*
X145394500Y-74135548D01*
X145422828Y-74314406D01*
X145422829Y-74314409D01*
X145478788Y-74486638D01*
X145561006Y-74647998D01*
X145667443Y-74794496D01*
X145667455Y-74794510D01*
X145795489Y-74922544D01*
X145795503Y-74922556D01*
X145942001Y-75028993D01*
X145942003Y-75028994D01*
X145942006Y-75028996D01*
X146103361Y-75111211D01*
X146275591Y-75167171D01*
X146454454Y-75195500D01*
X146454458Y-75195500D01*
X147385542Y-75195500D01*
X147385546Y-75195500D01*
X147564409Y-75167171D01*
X147736639Y-75111211D01*
X147897994Y-75028996D01*
X148044501Y-74922553D01*
X148172553Y-74794501D01*
X148278996Y-74647994D01*
X148361211Y-74486639D01*
X148417171Y-74314409D01*
X148445500Y-74135546D01*
X148445500Y-73954454D01*
X148417171Y-73775591D01*
X148361211Y-73603361D01*
X148278996Y-73442006D01*
X148278994Y-73442003D01*
X148278993Y-73442001D01*
X148172556Y-73295503D01*
X148172544Y-73295489D01*
X148044510Y-73167455D01*
X148044496Y-73167443D01*
X147897998Y-73061006D01*
X147736638Y-72978788D01*
X147564409Y-72922829D01*
X147564406Y-72922828D01*
X147385548Y-72894500D01*
X147385546Y-72894500D01*
X146454454Y-72894500D01*
X146454451Y-72894500D01*
X146275593Y-72922828D01*
X146275590Y-72922829D01*
X146103361Y-72978788D01*
X145942001Y-73061006D01*
X145795503Y-73167443D01*
X145795489Y-73167455D01*
X145667455Y-73295489D01*
X145667443Y-73295503D01*
X145561006Y-73442001D01*
X145478788Y-73603361D01*
X145422829Y-73775590D01*
X145422828Y-73775593D01*
X145394500Y-73954451D01*
X133205500Y-73954451D01*
X133177171Y-73775591D01*
X133121211Y-73603361D01*
X133038996Y-73442006D01*
X133038994Y-73442003D01*
X133038993Y-73442001D01*
X132932556Y-73295503D01*
X132932544Y-73295489D01*
X132804510Y-73167455D01*
X132804496Y-73167443D01*
X132657998Y-73061006D01*
X132496638Y-72978788D01*
X132324409Y-72922829D01*
X132324406Y-72922828D01*
X132145548Y-72894500D01*
X132145546Y-72894500D01*
X131214454Y-72894500D01*
X131214451Y-72894500D01*
X131035593Y-72922828D01*
X131035590Y-72922829D01*
X130863361Y-72978788D01*
X130702001Y-73061006D01*
X130555503Y-73167443D01*
X130555489Y-73167455D01*
X130427455Y-73295489D01*
X130427443Y-73295503D01*
X130321006Y-73442001D01*
X130238788Y-73603361D01*
X130182829Y-73775590D01*
X130182828Y-73775593D01*
X130154500Y-73954451D01*
X111400499Y-73954451D01*
X111400499Y-71414451D01*
X130154500Y-71414451D01*
X130154500Y-71595548D01*
X130182828Y-71774406D01*
X130182829Y-71774409D01*
X130238788Y-71946638D01*
X130321006Y-72107998D01*
X130427443Y-72254496D01*
X130427455Y-72254510D01*
X130555489Y-72382544D01*
X130555503Y-72382556D01*
X130702001Y-72488993D01*
X130702003Y-72488994D01*
X130702006Y-72488996D01*
X130863361Y-72571211D01*
X131035591Y-72627171D01*
X131214454Y-72655500D01*
X131214458Y-72655500D01*
X132145542Y-72655500D01*
X132145546Y-72655500D01*
X132324409Y-72627171D01*
X132496639Y-72571211D01*
X132657994Y-72488996D01*
X132804501Y-72382553D01*
X132932553Y-72254501D01*
X133038996Y-72107994D01*
X133121211Y-71946639D01*
X133177171Y-71774409D01*
X133205500Y-71595546D01*
X133205500Y-71414454D01*
X133205500Y-71414451D01*
X145394500Y-71414451D01*
X145394500Y-71595548D01*
X145422828Y-71774406D01*
X145422829Y-71774409D01*
X145478788Y-71946638D01*
X145561006Y-72107998D01*
X145667443Y-72254496D01*
X145667455Y-72254510D01*
X145795489Y-72382544D01*
X145795503Y-72382556D01*
X145942001Y-72488993D01*
X145942003Y-72488994D01*
X145942006Y-72488996D01*
X146103361Y-72571211D01*
X146275591Y-72627171D01*
X146454454Y-72655500D01*
X146454458Y-72655500D01*
X147385542Y-72655500D01*
X147385546Y-72655500D01*
X147564409Y-72627171D01*
X147736639Y-72571211D01*
X147897994Y-72488996D01*
X148044501Y-72382553D01*
X148172553Y-72254501D01*
X148278996Y-72107994D01*
X148361211Y-71946639D01*
X148417171Y-71774409D01*
X148445500Y-71595546D01*
X148445500Y-71414454D01*
X148417171Y-71235591D01*
X148361211Y-71063361D01*
X148278996Y-70902006D01*
X148278994Y-70902003D01*
X148278993Y-70902001D01*
X148172556Y-70755503D01*
X148172544Y-70755489D01*
X148044510Y-70627455D01*
X148044496Y-70627443D01*
X147897998Y-70521006D01*
X147736638Y-70438788D01*
X147564409Y-70382829D01*
X147564406Y-70382828D01*
X147385548Y-70354500D01*
X147385546Y-70354500D01*
X146454454Y-70354500D01*
X146454451Y-70354500D01*
X146275593Y-70382828D01*
X146275590Y-70382829D01*
X146103361Y-70438788D01*
X145942001Y-70521006D01*
X145795503Y-70627443D01*
X145795489Y-70627455D01*
X145667455Y-70755489D01*
X145667443Y-70755503D01*
X145561006Y-70902001D01*
X145478788Y-71063361D01*
X145422829Y-71235590D01*
X145422828Y-71235593D01*
X145394500Y-71414451D01*
X133205500Y-71414451D01*
X133177171Y-71235591D01*
X133121211Y-71063361D01*
X133038996Y-70902006D01*
X133038994Y-70902003D01*
X133038993Y-70902001D01*
X132932556Y-70755503D01*
X132932544Y-70755489D01*
X132804510Y-70627455D01*
X132804496Y-70627443D01*
X132657998Y-70521006D01*
X132496638Y-70438788D01*
X132324409Y-70382829D01*
X132324406Y-70382828D01*
X132145548Y-70354500D01*
X132145546Y-70354500D01*
X131214454Y-70354500D01*
X131214451Y-70354500D01*
X131035593Y-70382828D01*
X131035590Y-70382829D01*
X130863361Y-70438788D01*
X130702001Y-70521006D01*
X130555503Y-70627443D01*
X130555489Y-70627455D01*
X130427455Y-70755489D01*
X130427443Y-70755503D01*
X130321006Y-70902001D01*
X130238788Y-71063361D01*
X130182829Y-71235590D01*
X130182828Y-71235593D01*
X130154500Y-71414451D01*
X111400499Y-71414451D01*
X111400499Y-68874451D01*
X130154500Y-68874451D01*
X130154500Y-69055548D01*
X130182828Y-69234406D01*
X130182829Y-69234409D01*
X130238788Y-69406638D01*
X130321006Y-69567998D01*
X130427443Y-69714496D01*
X130427455Y-69714510D01*
X130555489Y-69842544D01*
X130555503Y-69842556D01*
X130702001Y-69948993D01*
X130702003Y-69948994D01*
X130702006Y-69948996D01*
X130863361Y-70031211D01*
X131035591Y-70087171D01*
X131214454Y-70115500D01*
X131214458Y-70115500D01*
X132145542Y-70115500D01*
X132145546Y-70115500D01*
X132324409Y-70087171D01*
X132496639Y-70031211D01*
X132657994Y-69948996D01*
X132804501Y-69842553D01*
X132932553Y-69714501D01*
X133038996Y-69567994D01*
X133121211Y-69406639D01*
X133177171Y-69234409D01*
X133205500Y-69055546D01*
X133205500Y-68874454D01*
X133177171Y-68695591D01*
X133121211Y-68523361D01*
X133038996Y-68362006D01*
X133038994Y-68362003D01*
X133038993Y-68362001D01*
X132932556Y-68215503D01*
X132932544Y-68215489D01*
X132804510Y-68087455D01*
X132804496Y-68087443D01*
X132657998Y-67981006D01*
X132496638Y-67898788D01*
X132324409Y-67842829D01*
X132324406Y-67842828D01*
X132145548Y-67814500D01*
X132145546Y-67814500D01*
X131214454Y-67814500D01*
X131214451Y-67814500D01*
X131035593Y-67842828D01*
X131035590Y-67842829D01*
X130863361Y-67898788D01*
X130702001Y-67981006D01*
X130555503Y-68087443D01*
X130555489Y-68087455D01*
X130427455Y-68215489D01*
X130427443Y-68215503D01*
X130321006Y-68362001D01*
X130238788Y-68523361D01*
X130182829Y-68695590D01*
X130182828Y-68695593D01*
X130154500Y-68874451D01*
X111400499Y-68874451D01*
X111400499Y-63634999D01*
X130079014Y-63634999D01*
X130079015Y-63635000D01*
X131235440Y-63635000D01*
X131204755Y-63688147D01*
X131170000Y-63817857D01*
X131170000Y-63952143D01*
X131204755Y-64081853D01*
X131235440Y-64135000D01*
X130079015Y-64135000D01*
X130085777Y-64177700D01*
X130085780Y-64177713D01*
X130146576Y-64364822D01*
X130146582Y-64364836D01*
X130235905Y-64540144D01*
X130351555Y-64699321D01*
X130351562Y-64699329D01*
X130490670Y-64838437D01*
X130490678Y-64838444D01*
X130649855Y-64954094D01*
X130825163Y-65043417D01*
X130825177Y-65043423D01*
X131012286Y-65104219D01*
X131012298Y-65104222D01*
X131181975Y-65131096D01*
X131226965Y-65156034D01*
X131245400Y-65204057D01*
X131228653Y-65252695D01*
X131184560Y-65279188D01*
X131181975Y-65279644D01*
X131035593Y-65302828D01*
X131035590Y-65302829D01*
X130863361Y-65358788D01*
X130702001Y-65441006D01*
X130555503Y-65547443D01*
X130555489Y-65547455D01*
X130427455Y-65675489D01*
X130427443Y-65675503D01*
X130321006Y-65822001D01*
X130238788Y-65983361D01*
X130182829Y-66155590D01*
X130182828Y-66155593D01*
X130154500Y-66334451D01*
X130154500Y-66515548D01*
X130182828Y-66694406D01*
X130182829Y-66694409D01*
X130238788Y-66866638D01*
X130321006Y-67027998D01*
X130427443Y-67174496D01*
X130427455Y-67174510D01*
X130555489Y-67302544D01*
X130555503Y-67302556D01*
X130702001Y-67408993D01*
X130702003Y-67408994D01*
X130702006Y-67408996D01*
X130863361Y-67491211D01*
X131035591Y-67547171D01*
X131214454Y-67575500D01*
X131214458Y-67575500D01*
X132145542Y-67575500D01*
X132145546Y-67575500D01*
X132324409Y-67547171D01*
X132496639Y-67491211D01*
X132657994Y-67408996D01*
X132804501Y-67302553D01*
X132932553Y-67174501D01*
X133038996Y-67027994D01*
X133121211Y-66866639D01*
X133177171Y-66694409D01*
X133205500Y-66515546D01*
X133205500Y-66334454D01*
X133180245Y-66174999D01*
X145319014Y-66174999D01*
X145319015Y-66175000D01*
X146475440Y-66175000D01*
X146444755Y-66228147D01*
X146410000Y-66357857D01*
X146410000Y-66492143D01*
X146444755Y-66621853D01*
X146475440Y-66675000D01*
X145319015Y-66675000D01*
X145325777Y-66717700D01*
X145325780Y-66717713D01*
X145386576Y-66904822D01*
X145386582Y-66904836D01*
X145475905Y-67080144D01*
X145591555Y-67239321D01*
X145591562Y-67239329D01*
X145730670Y-67378437D01*
X145730678Y-67378444D01*
X145889855Y-67494094D01*
X146065163Y-67583417D01*
X146065177Y-67583423D01*
X146252286Y-67644219D01*
X146252298Y-67644222D01*
X146421975Y-67671096D01*
X146466965Y-67696034D01*
X146485400Y-67744057D01*
X146468653Y-67792695D01*
X146424560Y-67819188D01*
X146421975Y-67819644D01*
X146275593Y-67842828D01*
X146275590Y-67842829D01*
X146103361Y-67898788D01*
X145942001Y-67981006D01*
X145795503Y-68087443D01*
X145795489Y-68087455D01*
X145667455Y-68215489D01*
X145667443Y-68215503D01*
X145561006Y-68362001D01*
X145478788Y-68523361D01*
X145422829Y-68695590D01*
X145422828Y-68695593D01*
X145394500Y-68874451D01*
X145394500Y-69055548D01*
X145422828Y-69234406D01*
X145422829Y-69234409D01*
X145478788Y-69406638D01*
X145561006Y-69567998D01*
X145667443Y-69714496D01*
X145667455Y-69714510D01*
X145795489Y-69842544D01*
X145795503Y-69842556D01*
X145942001Y-69948993D01*
X145942003Y-69948994D01*
X145942006Y-69948996D01*
X146103361Y-70031211D01*
X146275591Y-70087171D01*
X146454454Y-70115500D01*
X146454458Y-70115500D01*
X147385542Y-70115500D01*
X147385546Y-70115500D01*
X147564409Y-70087171D01*
X147736639Y-70031211D01*
X147897994Y-69948996D01*
X148044501Y-69842553D01*
X148172553Y-69714501D01*
X148278996Y-69567994D01*
X148361211Y-69406639D01*
X148417171Y-69234409D01*
X148445500Y-69055546D01*
X148445500Y-68874454D01*
X148417171Y-68695591D01*
X148361211Y-68523361D01*
X148278996Y-68362006D01*
X148278994Y-68362003D01*
X148278993Y-68362001D01*
X148172556Y-68215503D01*
X148172544Y-68215489D01*
X148044510Y-68087455D01*
X148044496Y-68087443D01*
X147897998Y-67981006D01*
X147736638Y-67898788D01*
X147564409Y-67842829D01*
X147564406Y-67842828D01*
X147418024Y-67819644D01*
X147373034Y-67794706D01*
X147354599Y-67746683D01*
X147371347Y-67698045D01*
X147415439Y-67671552D01*
X147418024Y-67671096D01*
X147587701Y-67644222D01*
X147587713Y-67644219D01*
X147774822Y-67583423D01*
X147774836Y-67583417D01*
X147950144Y-67494094D01*
X148109321Y-67378444D01*
X148109329Y-67378437D01*
X148248437Y-67239329D01*
X148248444Y-67239321D01*
X148364094Y-67080144D01*
X148453417Y-66904836D01*
X148453423Y-66904822D01*
X148514219Y-66717713D01*
X148514222Y-66717700D01*
X148520985Y-66675000D01*
X147364560Y-66675000D01*
X147395245Y-66621853D01*
X147430000Y-66492143D01*
X147430000Y-66357857D01*
X147395245Y-66228147D01*
X147364560Y-66175000D01*
X148520985Y-66175000D01*
X148520985Y-66174999D01*
X148514222Y-66132299D01*
X148514219Y-66132286D01*
X148453423Y-65945177D01*
X148453417Y-65945163D01*
X148364094Y-65769855D01*
X148248444Y-65610678D01*
X148248437Y-65610670D01*
X148109329Y-65471562D01*
X148109321Y-65471555D01*
X147950144Y-65355905D01*
X147774836Y-65266582D01*
X147774822Y-65266576D01*
X147587713Y-65205780D01*
X147587701Y-65205777D01*
X147418024Y-65178903D01*
X147373034Y-65153965D01*
X147354599Y-65105941D01*
X147371347Y-65057304D01*
X147415439Y-65030811D01*
X147417977Y-65030363D01*
X147564409Y-65007171D01*
X147736639Y-64951211D01*
X147897994Y-64868996D01*
X148044501Y-64762553D01*
X148172553Y-64634501D01*
X148278996Y-64487994D01*
X148311079Y-64425027D01*
X155750000Y-64425027D01*
X155750000Y-64950000D01*
X156695854Y-64950000D01*
X156657370Y-65016657D01*
X156625000Y-65137465D01*
X156625000Y-65262535D01*
X156657370Y-65383343D01*
X156695854Y-65450000D01*
X155750001Y-65450000D01*
X155750001Y-65974973D01*
X155760494Y-66077694D01*
X155760495Y-66077697D01*
X155815642Y-66244122D01*
X155907681Y-66393342D01*
X155907686Y-66393348D01*
X156031651Y-66517313D01*
X156031657Y-66517318D01*
X156180877Y-66609357D01*
X156347302Y-66664505D01*
X156347301Y-66664505D01*
X156450027Y-66674999D01*
X156850000Y-66674999D01*
X156850000Y-65604145D01*
X156916657Y-65642630D01*
X157037465Y-65675000D01*
X157162535Y-65675000D01*
X157283343Y-65642630D01*
X157350000Y-65604145D01*
X157350000Y-66674999D01*
X157749973Y-66674999D01*
X157852694Y-66664505D01*
X157852697Y-66664504D01*
X158019122Y-66609357D01*
X158168342Y-66517318D01*
X158168348Y-66517313D01*
X158292313Y-66393348D01*
X158292318Y-66393342D01*
X158384357Y-66244122D01*
X158439505Y-66077697D01*
X158440365Y-66073681D01*
X158441578Y-66073940D01*
X158461851Y-66032065D01*
X158508782Y-66011005D01*
X158558271Y-66025038D01*
X158575083Y-66041801D01*
X158640825Y-66132286D01*
X158646173Y-66139647D01*
X158646180Y-66139655D01*
X158785344Y-66278819D01*
X158785352Y-66278826D01*
X158785354Y-66278828D01*
X158944595Y-66394524D01*
X159119975Y-66483884D01*
X159307174Y-66544709D01*
X159501583Y-66575500D01*
X159501587Y-66575500D01*
X159698413Y-66575500D01*
X159698417Y-66575500D01*
X159892826Y-66544709D01*
X160080025Y-66483884D01*
X160255405Y-66394524D01*
X160414646Y-66278828D01*
X160553828Y-66139646D01*
X160669524Y-65980405D01*
X160758884Y-65805025D01*
X160778481Y-65744712D01*
X160810150Y-65704177D01*
X160860466Y-65693482D01*
X160905885Y-65717631D01*
X160921519Y-65744712D01*
X160929688Y-65769855D01*
X160941116Y-65805025D01*
X161030476Y-65980405D01*
X161098246Y-66073681D01*
X161146173Y-66139647D01*
X161146180Y-66139655D01*
X161285344Y-66278819D01*
X161285352Y-66278826D01*
X161285354Y-66278828D01*
X161444595Y-66394524D01*
X161619975Y-66483884D01*
X161807174Y-66544709D01*
X162001583Y-66575500D01*
X162001587Y-66575500D01*
X162198413Y-66575500D01*
X162198417Y-66575500D01*
X162392826Y-66544709D01*
X162580025Y-66483884D01*
X162755405Y-66394524D01*
X162914646Y-66278828D01*
X163053828Y-66139646D01*
X163169524Y-65980405D01*
X163258884Y-65805025D01*
X163278481Y-65744712D01*
X163310150Y-65704177D01*
X163360466Y-65693482D01*
X163405885Y-65717631D01*
X163421519Y-65744712D01*
X163429688Y-65769855D01*
X163441116Y-65805025D01*
X163530476Y-65980405D01*
X163598246Y-66073681D01*
X163646173Y-66139647D01*
X163646180Y-66139655D01*
X163785344Y-66278819D01*
X163785352Y-66278826D01*
X163785354Y-66278828D01*
X163944595Y-66394524D01*
X164119975Y-66483884D01*
X164307174Y-66544709D01*
X164501583Y-66575500D01*
X164501587Y-66575500D01*
X164698413Y-66575500D01*
X164698417Y-66575500D01*
X164892826Y-66544709D01*
X165080025Y-66483884D01*
X165255405Y-66394524D01*
X165414646Y-66278828D01*
X165553828Y-66139646D01*
X165669524Y-65980405D01*
X165758884Y-65805025D01*
X165819709Y-65617826D01*
X165850500Y-65423417D01*
X165850500Y-64976583D01*
X165819709Y-64782174D01*
X165758884Y-64594975D01*
X165669524Y-64419595D01*
X165553828Y-64260354D01*
X165553826Y-64260352D01*
X165553819Y-64260344D01*
X165414655Y-64121180D01*
X165414647Y-64121173D01*
X165255406Y-64005477D01*
X165255407Y-64005477D01*
X165255405Y-64005476D01*
X165080025Y-63916116D01*
X165080018Y-63916113D01*
X165080014Y-63916112D01*
X164892830Y-63855292D01*
X164892818Y-63855289D01*
X164698419Y-63824500D01*
X164698417Y-63824500D01*
X164501583Y-63824500D01*
X164501580Y-63824500D01*
X164307181Y-63855289D01*
X164307169Y-63855292D01*
X164119985Y-63916112D01*
X164119977Y-63916115D01*
X164119975Y-63916116D01*
X164119971Y-63916117D01*
X164119971Y-63916118D01*
X163944593Y-64005477D01*
X163785352Y-64121173D01*
X163785344Y-64121180D01*
X163646180Y-64260344D01*
X163646173Y-64260352D01*
X163530477Y-64419593D01*
X163441118Y-64594971D01*
X163441114Y-64594981D01*
X163421519Y-64655288D01*
X163389850Y-64695822D01*
X163339534Y-64706517D01*
X163294115Y-64682367D01*
X163278481Y-64655288D01*
X163278417Y-64655092D01*
X163258884Y-64594975D01*
X163169524Y-64419595D01*
X163053828Y-64260354D01*
X163053826Y-64260352D01*
X163053819Y-64260344D01*
X162914655Y-64121180D01*
X162914647Y-64121173D01*
X162755406Y-64005477D01*
X162755407Y-64005477D01*
X162755405Y-64005476D01*
X162580025Y-63916116D01*
X162580018Y-63916113D01*
X162580014Y-63916112D01*
X162392830Y-63855292D01*
X162392818Y-63855289D01*
X162198419Y-63824500D01*
X162198417Y-63824500D01*
X162001583Y-63824500D01*
X162001580Y-63824500D01*
X161807181Y-63855289D01*
X161807169Y-63855292D01*
X161619985Y-63916112D01*
X161619977Y-63916115D01*
X161619975Y-63916116D01*
X161619971Y-63916117D01*
X161619971Y-63916118D01*
X161444593Y-64005477D01*
X161285352Y-64121173D01*
X161285344Y-64121180D01*
X161146180Y-64260344D01*
X161146173Y-64260352D01*
X161030477Y-64419593D01*
X160941118Y-64594971D01*
X160941114Y-64594981D01*
X160921519Y-64655288D01*
X160889850Y-64695822D01*
X160839534Y-64706517D01*
X160794115Y-64682367D01*
X160778481Y-64655288D01*
X160778417Y-64655092D01*
X160758884Y-64594975D01*
X160669524Y-64419595D01*
X160553828Y-64260354D01*
X160553826Y-64260352D01*
X160553819Y-64260344D01*
X160414655Y-64121180D01*
X160414647Y-64121173D01*
X160255406Y-64005477D01*
X160255407Y-64005477D01*
X160255405Y-64005476D01*
X160080025Y-63916116D01*
X160080018Y-63916113D01*
X160080014Y-63916112D01*
X159892830Y-63855292D01*
X159892818Y-63855289D01*
X159698419Y-63824500D01*
X159698417Y-63824500D01*
X159501583Y-63824500D01*
X159501580Y-63824500D01*
X159307181Y-63855289D01*
X159307169Y-63855292D01*
X159119985Y-63916112D01*
X159119977Y-63916115D01*
X159119975Y-63916116D01*
X159119971Y-63916117D01*
X159119971Y-63916118D01*
X158944593Y-64005477D01*
X158785352Y-64121173D01*
X158785344Y-64121180D01*
X158646180Y-64260344D01*
X158646173Y-64260352D01*
X158575086Y-64358195D01*
X158532440Y-64386959D01*
X158481282Y-64381582D01*
X158445549Y-64344579D01*
X158440667Y-64326255D01*
X158440365Y-64326320D01*
X158439504Y-64322302D01*
X158384357Y-64155877D01*
X158292318Y-64006657D01*
X158292313Y-64006651D01*
X158168348Y-63882686D01*
X158168342Y-63882681D01*
X158019122Y-63790642D01*
X157852697Y-63735494D01*
X157852698Y-63735494D01*
X157749973Y-63725000D01*
X157350000Y-63725000D01*
X157350000Y-64795854D01*
X157283343Y-64757370D01*
X157162535Y-64725000D01*
X157037465Y-64725000D01*
X156916657Y-64757370D01*
X156850000Y-64795854D01*
X156850000Y-63725000D01*
X156450026Y-63725000D01*
X156347305Y-63735494D01*
X156347302Y-63735495D01*
X156180877Y-63790642D01*
X156031657Y-63882681D01*
X156031651Y-63882686D01*
X155907686Y-64006651D01*
X155907681Y-64006657D01*
X155815642Y-64155877D01*
X155760494Y-64322302D01*
X155750000Y-64425027D01*
X148311079Y-64425027D01*
X148361211Y-64326639D01*
X148417171Y-64154409D01*
X148445500Y-63975546D01*
X148445500Y-63794454D01*
X148417171Y-63615591D01*
X148361211Y-63443361D01*
X148278996Y-63282006D01*
X148278994Y-63282003D01*
X148278993Y-63282001D01*
X148172556Y-63135503D01*
X148172544Y-63135489D01*
X148044510Y-63007455D01*
X148044496Y-63007443D01*
X147897998Y-62901006D01*
X147736638Y-62818788D01*
X147564409Y-62762829D01*
X147564406Y-62762828D01*
X147385548Y-62734500D01*
X147385546Y-62734500D01*
X146454454Y-62734500D01*
X146454451Y-62734500D01*
X146275593Y-62762828D01*
X146275590Y-62762829D01*
X146103361Y-62818788D01*
X145942001Y-62901006D01*
X145795503Y-63007443D01*
X145795489Y-63007455D01*
X145667455Y-63135489D01*
X145667443Y-63135503D01*
X145561006Y-63282001D01*
X145478788Y-63443361D01*
X145422829Y-63615590D01*
X145422828Y-63615593D01*
X145394500Y-63794451D01*
X145394500Y-63975548D01*
X145422828Y-64154406D01*
X145422829Y-64154409D01*
X145478788Y-64326638D01*
X145561006Y-64487998D01*
X145667443Y-64634496D01*
X145667455Y-64634510D01*
X145795489Y-64762544D01*
X145795503Y-64762556D01*
X145942001Y-64868993D01*
X145942003Y-64868994D01*
X145942006Y-64868996D01*
X146103361Y-64951211D01*
X146275591Y-65007171D01*
X146275593Y-65007171D01*
X146275595Y-65007172D01*
X146326156Y-65015179D01*
X146421975Y-65030355D01*
X146466965Y-65055293D01*
X146485400Y-65103316D01*
X146468653Y-65151953D01*
X146424560Y-65178447D01*
X146421975Y-65178903D01*
X146252298Y-65205777D01*
X146252286Y-65205780D01*
X146065177Y-65266576D01*
X146065163Y-65266582D01*
X145889855Y-65355905D01*
X145730678Y-65471555D01*
X145730670Y-65471562D01*
X145591562Y-65610670D01*
X145591555Y-65610678D01*
X145475905Y-65769855D01*
X145386582Y-65945163D01*
X145386576Y-65945177D01*
X145325780Y-66132286D01*
X145325777Y-66132299D01*
X145319014Y-66174999D01*
X133180245Y-66174999D01*
X133177171Y-66155591D01*
X133121211Y-65983361D01*
X133038996Y-65822006D01*
X133038994Y-65822003D01*
X133038993Y-65822001D01*
X132932556Y-65675503D01*
X132932544Y-65675489D01*
X132804510Y-65547455D01*
X132804496Y-65547443D01*
X132657998Y-65441006D01*
X132496638Y-65358788D01*
X132324409Y-65302829D01*
X132324406Y-65302828D01*
X132178024Y-65279644D01*
X132133034Y-65254706D01*
X132114599Y-65206683D01*
X132131347Y-65158045D01*
X132175439Y-65131552D01*
X132178024Y-65131096D01*
X132347701Y-65104222D01*
X132347713Y-65104219D01*
X132534822Y-65043423D01*
X132534836Y-65043417D01*
X132710144Y-64954094D01*
X132869321Y-64838444D01*
X132869329Y-64838437D01*
X133008437Y-64699329D01*
X133008444Y-64699321D01*
X133124094Y-64540144D01*
X133213417Y-64364836D01*
X133213423Y-64364822D01*
X133274219Y-64177713D01*
X133274222Y-64177700D01*
X133280985Y-64135000D01*
X132124560Y-64135000D01*
X132155245Y-64081853D01*
X132190000Y-63952143D01*
X132190000Y-63817857D01*
X132155245Y-63688147D01*
X132124560Y-63635000D01*
X133280985Y-63635000D01*
X133280985Y-63634999D01*
X133274222Y-63592299D01*
X133274219Y-63592286D01*
X133213423Y-63405177D01*
X133213417Y-63405163D01*
X133124094Y-63229855D01*
X133008444Y-63070678D01*
X133008437Y-63070670D01*
X132869329Y-62931562D01*
X132869321Y-62931555D01*
X132710144Y-62815905D01*
X132534836Y-62726582D01*
X132534822Y-62726576D01*
X132347713Y-62665780D01*
X132347701Y-62665777D01*
X132153379Y-62635000D01*
X131930000Y-62635000D01*
X131930000Y-63440439D01*
X131876853Y-63409755D01*
X131747143Y-63375000D01*
X131612857Y-63375000D01*
X131483147Y-63409755D01*
X131430000Y-63440439D01*
X131430000Y-62635000D01*
X131206620Y-62635000D01*
X131012298Y-62665777D01*
X131012286Y-62665780D01*
X130825177Y-62726576D01*
X130825163Y-62726582D01*
X130649855Y-62815905D01*
X130490678Y-62931555D01*
X130490670Y-62931562D01*
X130351562Y-63070670D01*
X130351555Y-63070678D01*
X130235905Y-63229855D01*
X130146582Y-63405163D01*
X130146576Y-63405177D01*
X130085780Y-63592286D01*
X130085777Y-63592299D01*
X130079014Y-63634999D01*
X111400499Y-63634999D01*
X111400499Y-58188315D01*
X111418092Y-58139977D01*
X111462641Y-58114257D01*
X111513299Y-58123190D01*
X111520765Y-58128115D01*
X111607907Y-58193350D01*
X111607909Y-58193351D01*
X111742622Y-58243597D01*
X111742625Y-58243598D01*
X111802168Y-58249999D01*
X111802180Y-58250000D01*
X112450000Y-58250000D01*
X112450000Y-57333012D01*
X112507007Y-57365925D01*
X112634174Y-57400000D01*
X112765826Y-57400000D01*
X112892993Y-57365925D01*
X112950000Y-57333012D01*
X112950000Y-58250000D01*
X113597820Y-58250000D01*
X113597831Y-58249999D01*
X113657374Y-58243598D01*
X113657377Y-58243597D01*
X113792090Y-58193351D01*
X113792092Y-58193350D01*
X113907189Y-58107189D01*
X113993350Y-57992092D01*
X113993351Y-57992090D01*
X114043597Y-57857377D01*
X114043598Y-57857374D01*
X114049999Y-57797831D01*
X114050000Y-57797820D01*
X114050000Y-57150000D01*
X113133012Y-57150000D01*
X113165925Y-57092993D01*
X113200000Y-56965826D01*
X113200000Y-56834174D01*
X113165925Y-56707007D01*
X113133012Y-56650000D01*
X114050000Y-56650000D01*
X114050000Y-56002180D01*
X114049999Y-56002168D01*
X114043598Y-55942625D01*
X114043597Y-55942622D01*
X113993351Y-55807909D01*
X113993350Y-55807907D01*
X113907189Y-55692810D01*
X113792092Y-55606649D01*
X113792090Y-55606648D01*
X113657377Y-55556402D01*
X113657374Y-55556401D01*
X113597831Y-55550000D01*
X113419189Y-55550000D01*
X113370851Y-55532407D01*
X113345131Y-55487858D01*
X113354064Y-55437200D01*
X113376056Y-55413200D01*
X113377816Y-55411967D01*
X113506877Y-55321598D01*
X113661598Y-55166877D01*
X113787102Y-54987639D01*
X113879575Y-54789330D01*
X113936207Y-54577977D01*
X113955277Y-54360000D01*
X113936207Y-54142023D01*
X113879575Y-53930670D01*
X113849979Y-53867201D01*
X113787105Y-53732367D01*
X113787102Y-53732364D01*
X113787102Y-53732362D01*
X113661598Y-53553123D01*
X113661597Y-53553122D01*
X113661595Y-53553119D01*
X113506884Y-53398408D01*
X113506871Y-53398397D01*
X113327633Y-53272894D01*
X113129333Y-53180426D01*
X113129331Y-53180425D01*
X113129330Y-53180425D01*
X112917977Y-53123793D01*
X112917975Y-53123792D01*
X112917972Y-53123792D01*
X112700000Y-53104723D01*
X112482027Y-53123792D01*
X112482023Y-53123792D01*
X112482023Y-53123793D01*
X112345158Y-53160466D01*
X112270670Y-53180425D01*
X112270666Y-53180426D01*
X112072367Y-53272894D01*
X111893119Y-53398404D01*
X111738404Y-53553119D01*
X111612894Y-53732367D01*
X111543853Y-53880427D01*
X111507480Y-53916800D01*
X111456236Y-53921284D01*
X111414099Y-53891779D01*
X111400499Y-53848646D01*
X111400499Y-49149999D01*
X115947768Y-49149999D01*
X115947769Y-49150000D01*
X116995854Y-49150000D01*
X116957370Y-49216657D01*
X116925000Y-49337465D01*
X116925000Y-49462535D01*
X116957370Y-49583343D01*
X116995854Y-49650000D01*
X115947769Y-49650000D01*
X115958240Y-49716121D01*
X115958244Y-49716138D01*
X116023905Y-49918219D01*
X116120379Y-50107558D01*
X116245274Y-50279461D01*
X116245286Y-50279475D01*
X116395524Y-50429713D01*
X116395538Y-50429725D01*
X116567441Y-50554620D01*
X116732713Y-50638831D01*
X116767795Y-50676452D01*
X116770487Y-50727822D01*
X116739530Y-50768903D01*
X116732714Y-50772838D01*
X116619596Y-50830475D01*
X116460352Y-50946173D01*
X116460344Y-50946180D01*
X116321180Y-51085344D01*
X116321173Y-51085352D01*
X116205477Y-51244593D01*
X116116118Y-51419971D01*
X116116112Y-51419985D01*
X116055292Y-51607169D01*
X116055289Y-51607181D01*
X116024500Y-51801580D01*
X116024500Y-51998419D01*
X116055289Y-52192818D01*
X116055291Y-52192826D01*
X116116116Y-52380025D01*
X116161387Y-52468875D01*
X116205477Y-52555406D01*
X116321173Y-52714647D01*
X116321180Y-52714655D01*
X116460344Y-52853819D01*
X116460352Y-52853826D01*
X116460354Y-52853828D01*
X116619595Y-52969524D01*
X116794975Y-53058884D01*
X116855092Y-53078417D01*
X116855288Y-53078481D01*
X116895822Y-53110150D01*
X116906517Y-53160466D01*
X116882367Y-53205885D01*
X116855287Y-53221519D01*
X116794975Y-53241116D01*
X116794971Y-53241117D01*
X116794971Y-53241118D01*
X116619593Y-53330477D01*
X116460352Y-53446173D01*
X116460344Y-53446180D01*
X116321180Y-53585344D01*
X116321173Y-53585352D01*
X116205477Y-53744593D01*
X116116118Y-53919971D01*
X116116112Y-53919985D01*
X116055292Y-54107169D01*
X116055289Y-54107181D01*
X116024500Y-54301580D01*
X116024500Y-54498419D01*
X116055289Y-54692818D01*
X116055292Y-54692830D01*
X116111534Y-54865925D01*
X116116116Y-54880025D01*
X116205476Y-55055405D01*
X116315528Y-55206877D01*
X116321173Y-55214647D01*
X116321180Y-55214655D01*
X116460344Y-55353819D01*
X116460352Y-55353826D01*
X116460354Y-55353828D01*
X116619595Y-55469524D01*
X116794975Y-55558884D01*
X116853955Y-55578048D01*
X116855288Y-55578481D01*
X116895822Y-55610150D01*
X116906517Y-55660466D01*
X116882367Y-55705885D01*
X116855287Y-55721519D01*
X116794975Y-55741116D01*
X116794971Y-55741117D01*
X116794971Y-55741118D01*
X116619593Y-55830477D01*
X116460352Y-55946173D01*
X116460344Y-55946180D01*
X116321180Y-56085344D01*
X116321173Y-56085352D01*
X116205477Y-56244593D01*
X116116118Y-56419971D01*
X116116112Y-56419985D01*
X116055292Y-56607169D01*
X116055289Y-56607181D01*
X116024500Y-56801580D01*
X116024500Y-56998419D01*
X116055289Y-57192818D01*
X116055292Y-57192830D01*
X116111534Y-57365925D01*
X116116116Y-57380025D01*
X116116118Y-57380028D01*
X116205477Y-57555406D01*
X116321173Y-57714647D01*
X116321180Y-57714655D01*
X116460344Y-57853819D01*
X116460352Y-57853826D01*
X116460354Y-57853828D01*
X116619595Y-57969524D01*
X116693728Y-58007296D01*
X116728810Y-58044917D01*
X116731502Y-58096286D01*
X116700545Y-58137368D01*
X116659588Y-58149500D01*
X116609298Y-58149500D01*
X116572439Y-58152400D01*
X116572428Y-58152402D01*
X116414603Y-58198255D01*
X116273134Y-58281919D01*
X116273127Y-58281925D01*
X116156925Y-58398127D01*
X116156919Y-58398134D01*
X116073255Y-58539603D01*
X116027402Y-58697428D01*
X116027400Y-58697439D01*
X116024500Y-58734298D01*
X116024500Y-60065701D01*
X116027400Y-60102560D01*
X116027402Y-60102571D01*
X116073255Y-60260396D01*
X116156919Y-60401865D01*
X116156925Y-60401872D01*
X116273127Y-60518074D01*
X116273134Y-60518080D01*
X116273135Y-60518081D01*
X116414602Y-60601744D01*
X116572431Y-60647598D01*
X116572435Y-60647598D01*
X116572439Y-60647599D01*
X116590868Y-60649049D01*
X116609306Y-60650500D01*
X116609307Y-60650500D01*
X118190693Y-60650500D01*
X118190694Y-60650500D01*
X118213046Y-60648740D01*
X118227560Y-60647599D01*
X118227562Y-60647598D01*
X118227569Y-60647598D01*
X118385398Y-60601744D01*
X118526865Y-60518081D01*
X118643081Y-60401865D01*
X118726744Y-60260398D01*
X118772598Y-60102569D01*
X118775500Y-60065694D01*
X118775500Y-58734306D01*
X118772598Y-58697431D01*
X118726744Y-58539602D01*
X118643081Y-58398135D01*
X118643080Y-58398134D01*
X118643074Y-58398127D01*
X118526872Y-58281925D01*
X118526865Y-58281919D01*
X118385396Y-58198255D01*
X118227571Y-58152402D01*
X118227560Y-58152400D01*
X118190701Y-58149500D01*
X118190694Y-58149500D01*
X118140412Y-58149500D01*
X118092074Y-58131907D01*
X118066354Y-58087358D01*
X118075287Y-58036700D01*
X118106271Y-58007296D01*
X118180405Y-57969524D01*
X118339646Y-57853828D01*
X118478828Y-57714646D01*
X118594524Y-57555405D01*
X118683884Y-57380025D01*
X118744709Y-57192826D01*
X118775500Y-56998417D01*
X118775500Y-56801583D01*
X118744709Y-56607174D01*
X118683884Y-56419975D01*
X118594524Y-56244595D01*
X118478828Y-56085354D01*
X118478826Y-56085352D01*
X118478819Y-56085344D01*
X118339655Y-55946180D01*
X118339647Y-55946173D01*
X118334760Y-55942622D01*
X118180405Y-55830476D01*
X118005025Y-55741116D01*
X118005018Y-55741113D01*
X118005014Y-55741112D01*
X117944712Y-55721519D01*
X117904177Y-55689850D01*
X117893482Y-55639534D01*
X117917631Y-55594115D01*
X117944712Y-55578481D01*
X117946045Y-55578048D01*
X118005025Y-55558884D01*
X118180405Y-55469524D01*
X118339646Y-55353828D01*
X118478828Y-55214646D01*
X118594524Y-55055405D01*
X118683884Y-54880025D01*
X118744709Y-54692826D01*
X118775500Y-54498417D01*
X118775500Y-54301583D01*
X118744709Y-54107174D01*
X118683884Y-53919975D01*
X118594524Y-53744595D01*
X118478828Y-53585354D01*
X118478826Y-53585352D01*
X118478819Y-53585344D01*
X118339655Y-53446180D01*
X118339647Y-53446173D01*
X118328960Y-53438408D01*
X118180405Y-53330476D01*
X118005025Y-53241116D01*
X118005018Y-53241113D01*
X118005014Y-53241112D01*
X117944712Y-53221519D01*
X117904177Y-53189850D01*
X117893482Y-53139534D01*
X117917631Y-53094115D01*
X117944712Y-53078481D01*
X117945034Y-53078376D01*
X118005025Y-53058884D01*
X118180405Y-52969524D01*
X118339646Y-52853828D01*
X118478828Y-52714646D01*
X118594524Y-52555405D01*
X118683884Y-52380025D01*
X118744709Y-52192826D01*
X118775500Y-51998417D01*
X118775500Y-51801583D01*
X118744709Y-51607174D01*
X118683884Y-51419975D01*
X118594524Y-51244595D01*
X118478828Y-51085354D01*
X118478826Y-51085352D01*
X118478819Y-51085344D01*
X118339655Y-50946180D01*
X118339647Y-50946173D01*
X118180406Y-50830476D01*
X118067285Y-50772839D01*
X118032203Y-50735218D01*
X118029511Y-50683849D01*
X118060468Y-50642767D01*
X118067285Y-50638831D01*
X118232558Y-50554620D01*
X118404461Y-50429725D01*
X118404475Y-50429713D01*
X118554713Y-50279475D01*
X118554725Y-50279461D01*
X118679620Y-50107558D01*
X118776094Y-49918219D01*
X118841755Y-49716138D01*
X118841759Y-49716121D01*
X118852231Y-49650000D01*
X117804146Y-49650000D01*
X117842630Y-49583343D01*
X117875000Y-49462535D01*
X117875000Y-49337465D01*
X117842630Y-49216657D01*
X117804146Y-49150000D01*
X118852231Y-49150000D01*
X118852231Y-49149999D01*
X118841759Y-49083878D01*
X118841755Y-49083861D01*
X118776094Y-48881780D01*
X118679620Y-48692441D01*
X118554725Y-48520538D01*
X118554713Y-48520524D01*
X118404475Y-48370286D01*
X118404461Y-48370274D01*
X118232558Y-48245379D01*
X118067285Y-48161168D01*
X118032203Y-48123547D01*
X118029511Y-48072177D01*
X118060468Y-48031096D01*
X118067268Y-48027169D01*
X118180405Y-47969524D01*
X118339646Y-47853828D01*
X118478828Y-47714646D01*
X118594524Y-47555405D01*
X118683884Y-47380025D01*
X118744709Y-47192826D01*
X118775500Y-46998417D01*
X118775500Y-46801583D01*
X118775500Y-46801580D01*
X122799500Y-46801580D01*
X122799500Y-46998419D01*
X122830289Y-47192818D01*
X122830291Y-47192826D01*
X122891116Y-47380025D01*
X122891118Y-47380028D01*
X122980477Y-47555406D01*
X123096173Y-47714647D01*
X123096180Y-47714655D01*
X123235344Y-47853819D01*
X123235352Y-47853826D01*
X123235354Y-47853828D01*
X123394595Y-47969524D01*
X123569975Y-48058884D01*
X123630092Y-48078417D01*
X123630288Y-48078481D01*
X123670822Y-48110150D01*
X123681517Y-48160466D01*
X123657367Y-48205885D01*
X123630287Y-48221519D01*
X123569975Y-48241116D01*
X123569971Y-48241117D01*
X123569971Y-48241118D01*
X123394593Y-48330477D01*
X123235352Y-48446173D01*
X123235344Y-48446180D01*
X123096180Y-48585344D01*
X123096173Y-48585352D01*
X122980477Y-48744593D01*
X122891118Y-48919971D01*
X122891112Y-48919985D01*
X122830292Y-49107169D01*
X122830289Y-49107181D01*
X122799500Y-49301580D01*
X122799500Y-49498419D01*
X122830289Y-49692818D01*
X122830292Y-49692830D01*
X122878965Y-49842630D01*
X122891116Y-49880025D01*
X122891118Y-49880028D01*
X122980477Y-50055406D01*
X123096173Y-50214647D01*
X123096180Y-50214655D01*
X123235344Y-50353819D01*
X123235352Y-50353826D01*
X123235354Y-50353828D01*
X123394595Y-50469524D01*
X123569975Y-50558884D01*
X123630092Y-50578417D01*
X123630288Y-50578481D01*
X123670822Y-50610150D01*
X123681517Y-50660466D01*
X123657367Y-50705885D01*
X123630287Y-50721519D01*
X123569975Y-50741116D01*
X123569971Y-50741117D01*
X123569971Y-50741118D01*
X123394593Y-50830477D01*
X123235352Y-50946173D01*
X123235344Y-50946180D01*
X123096180Y-51085344D01*
X123096173Y-51085352D01*
X122980477Y-51244593D01*
X122891118Y-51419971D01*
X122891112Y-51419985D01*
X122830292Y-51607169D01*
X122830289Y-51607181D01*
X122799500Y-51801580D01*
X122799500Y-51998419D01*
X122830289Y-52192818D01*
X122830291Y-52192826D01*
X122891116Y-52380025D01*
X122936387Y-52468875D01*
X122980477Y-52555406D01*
X123096173Y-52714647D01*
X123096180Y-52714655D01*
X123235344Y-52853819D01*
X123235352Y-52853826D01*
X123235354Y-52853828D01*
X123394595Y-52969524D01*
X123569975Y-53058884D01*
X123630092Y-53078417D01*
X123630288Y-53078481D01*
X123670822Y-53110150D01*
X123681517Y-53160466D01*
X123657367Y-53205885D01*
X123630287Y-53221519D01*
X123569975Y-53241116D01*
X123569971Y-53241117D01*
X123569971Y-53241118D01*
X123394593Y-53330477D01*
X123235352Y-53446173D01*
X123235344Y-53446180D01*
X123096180Y-53585344D01*
X123096173Y-53585352D01*
X122980477Y-53744593D01*
X122891118Y-53919971D01*
X122891112Y-53919985D01*
X122830292Y-54107169D01*
X122830289Y-54107181D01*
X122799500Y-54301580D01*
X122799500Y-54498419D01*
X122830289Y-54692818D01*
X122830292Y-54692830D01*
X122886534Y-54865925D01*
X122891116Y-54880025D01*
X122980476Y-55055405D01*
X123090528Y-55206877D01*
X123096173Y-55214647D01*
X123096180Y-55214655D01*
X123235344Y-55353819D01*
X123235352Y-55353826D01*
X123235354Y-55353828D01*
X123394595Y-55469524D01*
X123569975Y-55558884D01*
X123628955Y-55578048D01*
X123630288Y-55578481D01*
X123670822Y-55610150D01*
X123681517Y-55660466D01*
X123657367Y-55705885D01*
X123630287Y-55721519D01*
X123569975Y-55741116D01*
X123569971Y-55741117D01*
X123569971Y-55741118D01*
X123394593Y-55830477D01*
X123235352Y-55946173D01*
X123235344Y-55946180D01*
X123096180Y-56085344D01*
X123096173Y-56085352D01*
X122980477Y-56244593D01*
X122891118Y-56419971D01*
X122891112Y-56419985D01*
X122830292Y-56607169D01*
X122830289Y-56607181D01*
X122799500Y-56801580D01*
X122799500Y-56998419D01*
X122830289Y-57192818D01*
X122830292Y-57192830D01*
X122886534Y-57365925D01*
X122891116Y-57380025D01*
X122891118Y-57380028D01*
X122980477Y-57555406D01*
X123096173Y-57714647D01*
X123096180Y-57714655D01*
X123235344Y-57853819D01*
X123235352Y-57853826D01*
X123235354Y-57853828D01*
X123394595Y-57969524D01*
X123468728Y-58007296D01*
X123503810Y-58044917D01*
X123506502Y-58096286D01*
X123475545Y-58137368D01*
X123434588Y-58149500D01*
X123384298Y-58149500D01*
X123347439Y-58152400D01*
X123347428Y-58152402D01*
X123189603Y-58198255D01*
X123048134Y-58281919D01*
X123048127Y-58281925D01*
X122931925Y-58398127D01*
X122931919Y-58398134D01*
X122848255Y-58539603D01*
X122802402Y-58697428D01*
X122802400Y-58697439D01*
X122799500Y-58734298D01*
X122799500Y-60065701D01*
X122802400Y-60102560D01*
X122802402Y-60102571D01*
X122848255Y-60260396D01*
X122931919Y-60401865D01*
X122931925Y-60401872D01*
X123048127Y-60518074D01*
X123048134Y-60518080D01*
X123048135Y-60518081D01*
X123189602Y-60601744D01*
X123347431Y-60647598D01*
X123347435Y-60647598D01*
X123347439Y-60647599D01*
X123365868Y-60649049D01*
X123384306Y-60650500D01*
X123384307Y-60650500D01*
X124965693Y-60650500D01*
X124965694Y-60650500D01*
X124988046Y-60648740D01*
X125002560Y-60647599D01*
X125002562Y-60647598D01*
X125002569Y-60647598D01*
X125160398Y-60601744D01*
X125301865Y-60518081D01*
X125418081Y-60401865D01*
X125501744Y-60260398D01*
X125547598Y-60102569D01*
X125550500Y-60065694D01*
X125550500Y-58734306D01*
X125547598Y-58697431D01*
X125501744Y-58539602D01*
X125418081Y-58398135D01*
X125418080Y-58398134D01*
X125418074Y-58398127D01*
X125301872Y-58281925D01*
X125301865Y-58281919D01*
X125160396Y-58198255D01*
X125002571Y-58152402D01*
X125002560Y-58152400D01*
X124965701Y-58149500D01*
X124965694Y-58149500D01*
X124915412Y-58149500D01*
X124867074Y-58131907D01*
X124841354Y-58087358D01*
X124850287Y-58036700D01*
X124881271Y-58007296D01*
X124955405Y-57969524D01*
X125114646Y-57853828D01*
X125253828Y-57714646D01*
X125369524Y-57555405D01*
X125458884Y-57380025D01*
X125519709Y-57192826D01*
X125550500Y-56998417D01*
X125550500Y-56801583D01*
X125519709Y-56607174D01*
X125458884Y-56419975D01*
X125369524Y-56244595D01*
X125253828Y-56085354D01*
X125253826Y-56085352D01*
X125253819Y-56085344D01*
X125114655Y-55946180D01*
X125114647Y-55946173D01*
X125109760Y-55942622D01*
X124955405Y-55830476D01*
X124780025Y-55741116D01*
X124780018Y-55741113D01*
X124780014Y-55741112D01*
X124719712Y-55721519D01*
X124679177Y-55689850D01*
X124668482Y-55639534D01*
X124692631Y-55594115D01*
X124719712Y-55578481D01*
X124721045Y-55578048D01*
X124780025Y-55558884D01*
X124955405Y-55469524D01*
X125114646Y-55353828D01*
X125253828Y-55214646D01*
X125369524Y-55055405D01*
X125458884Y-54880025D01*
X125519709Y-54692826D01*
X125550500Y-54498417D01*
X125550500Y-54301583D01*
X125519709Y-54107174D01*
X125458884Y-53919975D01*
X125369524Y-53744595D01*
X125253828Y-53585354D01*
X125253826Y-53585352D01*
X125253819Y-53585344D01*
X125186953Y-53518478D01*
X135009500Y-53518478D01*
X135009500Y-55281512D01*
X135009501Y-55281524D01*
X135024352Y-55375301D01*
X135081951Y-55488344D01*
X135171655Y-55578048D01*
X135171657Y-55578049D01*
X135171658Y-55578050D01*
X135284694Y-55635645D01*
X135284696Y-55635646D01*
X135378481Y-55650500D01*
X137141518Y-55650499D01*
X137149646Y-55649211D01*
X137235301Y-55635647D01*
X137235302Y-55635646D01*
X137235304Y-55635646D01*
X137348342Y-55578050D01*
X137438050Y-55488342D01*
X137495646Y-55375304D01*
X137510500Y-55281519D01*
X137510499Y-54932797D01*
X137528092Y-54884463D01*
X137572640Y-54858742D01*
X137623299Y-54867675D01*
X137653853Y-54901019D01*
X137712894Y-55027633D01*
X137838397Y-55206871D01*
X137838408Y-55206884D01*
X137993115Y-55361591D01*
X137993128Y-55361602D01*
X138066818Y-55413200D01*
X138172361Y-55487102D01*
X138172363Y-55487102D01*
X138172366Y-55487105D01*
X138326298Y-55558884D01*
X138370670Y-55579575D01*
X138582023Y-55636207D01*
X138800000Y-55655277D01*
X139017977Y-55636207D01*
X139229330Y-55579575D01*
X139427639Y-55487102D01*
X139606877Y-55361598D01*
X139761598Y-55206877D01*
X139887102Y-55027639D01*
X139946953Y-54899286D01*
X139983326Y-54862915D01*
X140034570Y-54858431D01*
X140076707Y-54887936D01*
X140083261Y-54899288D01*
X140166398Y-55077576D01*
X140301885Y-55271072D01*
X140301896Y-55271085D01*
X140468914Y-55438103D01*
X140468927Y-55438114D01*
X140662423Y-55573601D01*
X140662423Y-55573602D01*
X140876505Y-55673429D01*
X141090000Y-55730634D01*
X141090000Y-54833012D01*
X141147007Y-54865925D01*
X141274174Y-54900000D01*
X141405826Y-54900000D01*
X141532993Y-54865925D01*
X141590000Y-54833012D01*
X141590000Y-55730634D01*
X141803494Y-55673429D01*
X142017576Y-55573602D01*
X142017576Y-55573601D01*
X142211072Y-55438114D01*
X142211085Y-55438103D01*
X142378103Y-55271085D01*
X142378114Y-55271072D01*
X142513601Y-55077576D01*
X142513602Y-55077576D01*
X142613429Y-54863494D01*
X142613431Y-54863490D01*
X142670636Y-54650000D01*
X141773012Y-54650000D01*
X141805925Y-54592993D01*
X141840000Y-54465826D01*
X141840000Y-54334174D01*
X141805925Y-54207007D01*
X141773012Y-54150000D01*
X142670636Y-54150000D01*
X142613431Y-53936509D01*
X142613429Y-53936505D01*
X142513603Y-53722427D01*
X142378107Y-53528918D01*
X142211085Y-53361896D01*
X142211072Y-53361885D01*
X142017576Y-53226398D01*
X142017576Y-53226397D01*
X141803494Y-53126570D01*
X141803490Y-53126568D01*
X141590000Y-53069364D01*
X141590000Y-53966988D01*
X141532993Y-53934075D01*
X141405826Y-53900000D01*
X141274174Y-53900000D01*
X141147007Y-53934075D01*
X141090000Y-53966988D01*
X141090000Y-53069364D01*
X140876509Y-53126568D01*
X140876505Y-53126570D01*
X140662427Y-53226396D01*
X140468918Y-53361892D01*
X140301892Y-53528918D01*
X140166396Y-53722427D01*
X140083261Y-53900711D01*
X140046888Y-53937084D01*
X139995644Y-53941568D01*
X139953507Y-53912063D01*
X139946953Y-53900711D01*
X139887105Y-53772367D01*
X139887102Y-53772364D01*
X139887102Y-53772362D01*
X139761598Y-53593123D01*
X139761597Y-53593122D01*
X139761595Y-53593119D01*
X139606884Y-53438408D01*
X139606871Y-53438397D01*
X139427633Y-53312894D01*
X139229333Y-53220426D01*
X139229331Y-53220425D01*
X139229330Y-53220425D01*
X139017977Y-53163793D01*
X139017975Y-53163792D01*
X139017972Y-53163792D01*
X138800000Y-53144723D01*
X138582027Y-53163792D01*
X138582023Y-53163792D01*
X138582023Y-53163793D01*
X138520452Y-53180291D01*
X138370670Y-53220425D01*
X138370666Y-53220426D01*
X138172367Y-53312894D01*
X137993119Y-53438404D01*
X137838404Y-53593119D01*
X137712894Y-53772367D01*
X137653853Y-53898982D01*
X137617480Y-53935355D01*
X137566236Y-53939839D01*
X137524099Y-53910334D01*
X137510499Y-53867201D01*
X137510499Y-53518487D01*
X137510498Y-53518475D01*
X137495647Y-53424698D01*
X137495645Y-53424694D01*
X137438050Y-53311658D01*
X137438049Y-53311657D01*
X137438048Y-53311655D01*
X137348344Y-53221951D01*
X137235304Y-53164354D01*
X137235306Y-53164354D01*
X137188411Y-53156927D01*
X137141519Y-53149500D01*
X137141517Y-53149500D01*
X135378487Y-53149500D01*
X135378475Y-53149501D01*
X135284698Y-53164352D01*
X135171655Y-53221951D01*
X135081951Y-53311655D01*
X135024354Y-53424694D01*
X135009500Y-53518478D01*
X125186953Y-53518478D01*
X125114655Y-53446180D01*
X125114647Y-53446173D01*
X125103960Y-53438408D01*
X124955405Y-53330476D01*
X124780025Y-53241116D01*
X124780018Y-53241113D01*
X124780014Y-53241112D01*
X124719712Y-53221519D01*
X124679177Y-53189850D01*
X124668482Y-53139534D01*
X124692631Y-53094115D01*
X124719712Y-53078481D01*
X124720034Y-53078376D01*
X124780025Y-53058884D01*
X124955405Y-52969524D01*
X125114646Y-52853828D01*
X125253828Y-52714646D01*
X125369524Y-52555405D01*
X125458884Y-52380025D01*
X125484886Y-52300000D01*
X161094355Y-52300000D01*
X161114860Y-52468872D01*
X161175182Y-52627930D01*
X161271817Y-52767929D01*
X161271820Y-52767932D01*
X161271825Y-52767937D01*
X161399144Y-52880731D01*
X161399146Y-52880732D01*
X161399148Y-52880734D01*
X161549775Y-52959790D01*
X161714944Y-53000500D01*
X161714946Y-53000500D01*
X161885054Y-53000500D01*
X161885056Y-53000500D01*
X162050225Y-52959790D01*
X162200852Y-52880734D01*
X162328183Y-52767929D01*
X162424818Y-52627930D01*
X162485140Y-52468872D01*
X162505645Y-52300000D01*
X162485140Y-52131128D01*
X162424818Y-51972070D01*
X162328183Y-51832071D01*
X162328178Y-51832067D01*
X162328174Y-51832062D01*
X162200855Y-51719268D01*
X162200852Y-51719266D01*
X162050225Y-51640210D01*
X161885056Y-51599500D01*
X161714944Y-51599500D01*
X161604831Y-51626640D01*
X161549774Y-51640210D01*
X161399147Y-51719266D01*
X161399144Y-51719268D01*
X161271825Y-51832062D01*
X161271816Y-51832072D01*
X161175182Y-51972069D01*
X161175181Y-51972072D01*
X161114861Y-52131124D01*
X161114860Y-52131126D01*
X161114860Y-52131128D01*
X161094355Y-52300000D01*
X125484886Y-52300000D01*
X125519709Y-52192826D01*
X125550500Y-51998417D01*
X125550500Y-51801583D01*
X125519709Y-51607174D01*
X125484886Y-51500000D01*
X157294355Y-51500000D01*
X157314860Y-51668872D01*
X157375182Y-51827930D01*
X157471817Y-51967929D01*
X157471820Y-51967932D01*
X157471825Y-51967937D01*
X157599144Y-52080731D01*
X157599146Y-52080732D01*
X157599148Y-52080734D01*
X157749775Y-52159790D01*
X157914944Y-52200500D01*
X157914946Y-52200500D01*
X158085054Y-52200500D01*
X158085056Y-52200500D01*
X158250225Y-52159790D01*
X158400852Y-52080734D01*
X158528183Y-51967929D01*
X158624818Y-51827930D01*
X158685140Y-51668872D01*
X158705645Y-51500000D01*
X158685140Y-51331128D01*
X158624818Y-51172070D01*
X158528183Y-51032071D01*
X158528178Y-51032067D01*
X158528174Y-51032062D01*
X158400855Y-50919268D01*
X158400852Y-50919266D01*
X158250225Y-50840210D01*
X158210728Y-50830475D01*
X158085056Y-50799500D01*
X157914944Y-50799500D01*
X157804831Y-50826640D01*
X157749774Y-50840210D01*
X157599147Y-50919266D01*
X157599144Y-50919268D01*
X157471825Y-51032062D01*
X157471816Y-51032072D01*
X157375182Y-51172069D01*
X157375181Y-51172072D01*
X157314861Y-51331124D01*
X157314860Y-51331126D01*
X157314860Y-51331128D01*
X157294355Y-51500000D01*
X125484886Y-51500000D01*
X125458884Y-51419975D01*
X125369524Y-51244595D01*
X125253828Y-51085354D01*
X125253826Y-51085352D01*
X125253819Y-51085344D01*
X125114655Y-50946180D01*
X125114647Y-50946173D01*
X124968803Y-50840210D01*
X124955405Y-50830476D01*
X124780025Y-50741116D01*
X124780018Y-50741113D01*
X124780014Y-50741112D01*
X124719712Y-50721519D01*
X124679177Y-50689850D01*
X124668482Y-50639534D01*
X124692631Y-50594115D01*
X124719712Y-50578481D01*
X124720034Y-50578376D01*
X124780025Y-50558884D01*
X124955405Y-50469524D01*
X125114646Y-50353828D01*
X125253828Y-50214646D01*
X125369524Y-50055405D01*
X125458884Y-49880025D01*
X125519709Y-49692826D01*
X125550500Y-49498417D01*
X125550500Y-49301583D01*
X125519709Y-49107174D01*
X125458884Y-48919975D01*
X125369524Y-48744595D01*
X125253828Y-48585354D01*
X125253826Y-48585352D01*
X125253819Y-48585344D01*
X125114655Y-48446180D01*
X125114647Y-48446173D01*
X124955406Y-48330477D01*
X124955407Y-48330477D01*
X124955405Y-48330476D01*
X124780025Y-48241116D01*
X124780018Y-48241113D01*
X124780014Y-48241112D01*
X124719712Y-48221519D01*
X124679177Y-48189850D01*
X124668482Y-48139534D01*
X124692631Y-48094115D01*
X124719712Y-48078481D01*
X124720034Y-48078376D01*
X124780025Y-48058884D01*
X124955405Y-47969524D01*
X125114646Y-47853828D01*
X125253828Y-47714646D01*
X125369524Y-47555405D01*
X125458884Y-47380025D01*
X125459311Y-47378712D01*
X129649500Y-47378712D01*
X129649500Y-47621288D01*
X129681162Y-47861789D01*
X129743946Y-48096100D01*
X129743947Y-48096104D01*
X129743948Y-48096105D01*
X129836776Y-48320213D01*
X129958065Y-48530291D01*
X130105730Y-48722732D01*
X130105742Y-48722746D01*
X130277253Y-48894257D01*
X130277267Y-48894269D01*
X130469708Y-49041934D01*
X130656881Y-49149999D01*
X130679788Y-49163224D01*
X130903900Y-49256054D01*
X131138211Y-49318838D01*
X131378712Y-49350500D01*
X131378715Y-49350500D01*
X131621285Y-49350500D01*
X131621288Y-49350500D01*
X131861789Y-49318838D01*
X132096100Y-49256054D01*
X132320212Y-49163224D01*
X132530289Y-49041936D01*
X132722738Y-48894265D01*
X132894265Y-48722738D01*
X133041936Y-48530289D01*
X133163224Y-48320212D01*
X133256054Y-48096100D01*
X133318838Y-47861789D01*
X133350500Y-47621288D01*
X133350500Y-47378712D01*
X166649500Y-47378712D01*
X166649500Y-47621288D01*
X166681162Y-47861789D01*
X166743946Y-48096100D01*
X166743947Y-48096104D01*
X166743948Y-48096105D01*
X166836776Y-48320213D01*
X166958065Y-48530291D01*
X167105730Y-48722732D01*
X167105742Y-48722746D01*
X167277253Y-48894257D01*
X167277267Y-48894269D01*
X167469708Y-49041934D01*
X167656881Y-49149999D01*
X167679788Y-49163224D01*
X167903900Y-49256054D01*
X168138211Y-49318838D01*
X168378712Y-49350500D01*
X168378715Y-49350500D01*
X168621285Y-49350500D01*
X168621288Y-49350500D01*
X168861789Y-49318838D01*
X169096100Y-49256054D01*
X169320212Y-49163224D01*
X169530289Y-49041936D01*
X169722738Y-48894265D01*
X169894265Y-48722738D01*
X170041936Y-48530289D01*
X170163224Y-48320212D01*
X170256054Y-48096100D01*
X170318838Y-47861789D01*
X170350500Y-47621288D01*
X170350500Y-47378712D01*
X170318838Y-47138211D01*
X170256054Y-46903900D01*
X170163224Y-46679788D01*
X170041936Y-46469711D01*
X170003772Y-46419975D01*
X169894269Y-46277267D01*
X169894257Y-46277253D01*
X169722746Y-46105742D01*
X169722732Y-46105730D01*
X169530291Y-45958065D01*
X169320213Y-45836776D01*
X169096105Y-45743948D01*
X169096104Y-45743947D01*
X169096100Y-45743946D01*
X168861789Y-45681162D01*
X168621288Y-45649500D01*
X168378712Y-45649500D01*
X168138211Y-45681162D01*
X167903900Y-45743946D01*
X167903897Y-45743947D01*
X167903894Y-45743948D01*
X167679786Y-45836776D01*
X167469708Y-45958065D01*
X167277267Y-46105730D01*
X167277253Y-46105742D01*
X167105742Y-46277253D01*
X167105730Y-46277267D01*
X166958065Y-46469708D01*
X166836776Y-46679786D01*
X166786325Y-46801587D01*
X166743946Y-46903900D01*
X166681162Y-47138211D01*
X166649500Y-47378712D01*
X133350500Y-47378712D01*
X133318838Y-47138211D01*
X133256054Y-46903900D01*
X133163224Y-46679788D01*
X133041936Y-46469711D01*
X133003772Y-46419975D01*
X132894269Y-46277267D01*
X132894257Y-46277253D01*
X132722746Y-46105742D01*
X132722732Y-46105730D01*
X132530291Y-45958065D01*
X132320213Y-45836776D01*
X132096105Y-45743948D01*
X132096104Y-45743947D01*
X132096100Y-45743946D01*
X131861789Y-45681162D01*
X131621288Y-45649500D01*
X131378712Y-45649500D01*
X131138211Y-45681162D01*
X130903900Y-45743946D01*
X130903897Y-45743947D01*
X130903894Y-45743948D01*
X130679786Y-45836776D01*
X130469708Y-45958065D01*
X130277267Y-46105730D01*
X130277253Y-46105742D01*
X130105742Y-46277253D01*
X130105730Y-46277267D01*
X129958065Y-46469708D01*
X129836776Y-46679786D01*
X129786325Y-46801587D01*
X129743946Y-46903900D01*
X129681162Y-47138211D01*
X129649500Y-47378712D01*
X125459311Y-47378712D01*
X125519709Y-47192826D01*
X125550500Y-46998417D01*
X125550500Y-46801583D01*
X125519709Y-46607174D01*
X125458884Y-46419975D01*
X125369524Y-46244595D01*
X125253828Y-46085354D01*
X125253826Y-46085352D01*
X125253819Y-46085344D01*
X125114655Y-45946180D01*
X125114647Y-45946173D01*
X124955406Y-45830477D01*
X124955407Y-45830477D01*
X124955405Y-45830476D01*
X124780025Y-45741116D01*
X124780018Y-45741113D01*
X124780014Y-45741112D01*
X124592830Y-45680292D01*
X124592818Y-45680289D01*
X124398419Y-45649500D01*
X124398417Y-45649500D01*
X123951583Y-45649500D01*
X123951580Y-45649500D01*
X123757181Y-45680289D01*
X123757169Y-45680292D01*
X123569985Y-45741112D01*
X123569977Y-45741115D01*
X123569975Y-45741116D01*
X123569971Y-45741117D01*
X123569971Y-45741118D01*
X123394593Y-45830477D01*
X123235352Y-45946173D01*
X123235344Y-45946180D01*
X123096180Y-46085344D01*
X123096173Y-46085352D01*
X122980477Y-46244593D01*
X122891118Y-46419971D01*
X122891112Y-46419985D01*
X122830292Y-46607169D01*
X122830289Y-46607181D01*
X122799500Y-46801580D01*
X118775500Y-46801580D01*
X118744709Y-46607174D01*
X118683884Y-46419975D01*
X118594524Y-46244595D01*
X118478828Y-46085354D01*
X118478826Y-46085352D01*
X118478819Y-46085344D01*
X118339655Y-45946180D01*
X118339647Y-45946173D01*
X118180406Y-45830477D01*
X118180407Y-45830477D01*
X118180405Y-45830476D01*
X118005025Y-45741116D01*
X118005018Y-45741113D01*
X118005014Y-45741112D01*
X117817830Y-45680292D01*
X117817818Y-45680289D01*
X117623419Y-45649500D01*
X117623417Y-45649500D01*
X117176583Y-45649500D01*
X117176580Y-45649500D01*
X116982181Y-45680289D01*
X116982169Y-45680292D01*
X116794985Y-45741112D01*
X116794977Y-45741115D01*
X116794975Y-45741116D01*
X116794971Y-45741117D01*
X116794971Y-45741118D01*
X116619593Y-45830477D01*
X116460352Y-45946173D01*
X116460344Y-45946180D01*
X116321180Y-46085344D01*
X116321173Y-46085352D01*
X116205477Y-46244593D01*
X116116118Y-46419971D01*
X116116112Y-46419985D01*
X116055292Y-46607169D01*
X116055289Y-46607181D01*
X116024500Y-46801580D01*
X116024500Y-46998419D01*
X116055289Y-47192818D01*
X116055291Y-47192826D01*
X116116116Y-47380025D01*
X116116118Y-47380028D01*
X116205477Y-47555406D01*
X116321173Y-47714647D01*
X116321180Y-47714655D01*
X116460344Y-47853819D01*
X116460352Y-47853826D01*
X116460354Y-47853828D01*
X116619595Y-47969524D01*
X116732715Y-48027161D01*
X116767796Y-48064781D01*
X116770488Y-48116150D01*
X116739531Y-48157232D01*
X116732714Y-48161168D01*
X116567441Y-48245379D01*
X116395538Y-48370274D01*
X116395524Y-48370286D01*
X116245286Y-48520524D01*
X116245274Y-48520538D01*
X116120379Y-48692441D01*
X116023905Y-48881780D01*
X115958244Y-49083861D01*
X115958240Y-49083878D01*
X115947768Y-49149999D01*
X111400499Y-49149999D01*
X111400499Y-46987211D01*
X111400500Y-46987208D01*
X111400499Y-46923589D01*
X111400636Y-46919050D01*
X111407740Y-46801587D01*
X111418447Y-46624560D01*
X111419541Y-46615557D01*
X111472309Y-46327603D01*
X111474478Y-46318806D01*
X111561570Y-46039314D01*
X111564788Y-46030829D01*
X111597536Y-45958065D01*
X111684934Y-45763872D01*
X111689147Y-45755846D01*
X111840593Y-45505319D01*
X111845751Y-45497848D01*
X112026290Y-45267405D01*
X112032296Y-45260625D01*
X112239312Y-45053608D01*
X112246092Y-45047601D01*
X112476538Y-44867057D01*
X112483996Y-44861908D01*
X112734537Y-44710450D01*
X112742558Y-44706240D01*
X113009519Y-44586090D01*
X113017999Y-44582875D01*
X113297500Y-44495779D01*
X113306287Y-44493613D01*
X113594248Y-44440841D01*
X113603243Y-44439749D01*
X113897403Y-44421955D01*
X113901943Y-44421819D01*
X113965891Y-44421819D01*
X169434109Y-44421819D01*
X169497726Y-44421819D01*
X169502265Y-44421955D01*
G37*
G04 #@! TD.AperFunction*
M02*
