%TF.GenerationSoftware,KiCad,Pcbnew,9.0.0*%
%TF.CreationDate,2025-11-30T17:21:40-05:00*%
%TF.ProjectId,XMAS-PCB-25,584d4153-2d50-4434-922d-32352e6b6963,rev?*%
%TF.SameCoordinates,Original*%
%TF.FileFunction,Profile,NP*%
%FSLAX46Y46*%
G04 Gerber Fmt 4.6, Leading zero omitted, Abs format (unit mm)*
G04 Created by KiCad (PCBNEW 9.0.0) date 2025-11-30 17:21:40*
%MOMM*%
%LPD*%
G01*
G04 APERTURE LIST*
%TA.AperFunction,Profile*%
%ADD10C,0.100000*%
%TD*%
G04 APERTURE END LIST*
D10*
X170454945Y-49048367D02*
X170551106Y-49051289D01*
X170644999Y-49056821D01*
X170737104Y-49065578D01*
X170782636Y-49071356D01*
X170827901Y-49078170D01*
X170872959Y-49086096D01*
X170917870Y-49095212D01*
X170962694Y-49105592D01*
X171007491Y-49117314D01*
X171052322Y-49130455D01*
X171097246Y-49145091D01*
X171142323Y-49161298D01*
X171187614Y-49179154D01*
X171305589Y-49227523D01*
X171406216Y-49276079D01*
X171502930Y-49328356D01*
X171595741Y-49384338D01*
X171684662Y-49444008D01*
X171769706Y-49507350D01*
X171850883Y-49574347D01*
X171928206Y-49644983D01*
X172001687Y-49719240D01*
X172071338Y-49797103D01*
X172137171Y-49878555D01*
X172199197Y-49963580D01*
X172257429Y-50052160D01*
X172311879Y-50144281D01*
X172362558Y-50239923D01*
X172409479Y-50339073D01*
X172452653Y-50441712D01*
X172471664Y-50495496D01*
X172488871Y-50548521D01*
X172504357Y-50600924D01*
X172518204Y-50652840D01*
X172530495Y-50704406D01*
X172541312Y-50755759D01*
X172550738Y-50807035D01*
X172558856Y-50858370D01*
X172565748Y-50909901D01*
X172571496Y-50961764D01*
X172579893Y-51067032D01*
X172584708Y-51175264D01*
X172586599Y-51287552D01*
X172589076Y-51394213D01*
X172587191Y-51490369D01*
X172580659Y-51585509D01*
X172569841Y-51679714D01*
X172555102Y-51773062D01*
X172536805Y-51865631D01*
X172515313Y-51957503D01*
X172490990Y-52048754D01*
X172464198Y-52139466D01*
X172404664Y-52319585D01*
X172339616Y-52498492D01*
X172204605Y-52855208D01*
X172126442Y-53067356D01*
X171955142Y-53531465D01*
X171662777Y-54325971D01*
X171140327Y-55741655D01*
X170612397Y-57155303D01*
X170307653Y-57971155D01*
X170006909Y-58788490D01*
X169969606Y-58890691D01*
X169787700Y-59389402D01*
X168663295Y-62439578D01*
X168086816Y-63959438D01*
X167495443Y-65473276D01*
X167373660Y-65780465D01*
X166604447Y-67690127D01*
X165811888Y-69589684D01*
X164993029Y-71477989D01*
X164144915Y-73353897D01*
X164030763Y-73602215D01*
X163970346Y-73731807D01*
X163939720Y-73796406D01*
X163908755Y-73860843D01*
X163882571Y-73911857D01*
X163871916Y-73933142D01*
X163862697Y-73952239D01*
X163854777Y-73969618D01*
X163848014Y-73985751D01*
X163842270Y-74001107D01*
X163837403Y-74016157D01*
X163833276Y-74031371D01*
X163829747Y-74047220D01*
X163826677Y-74064175D01*
X163823927Y-74082705D01*
X163821356Y-74103281D01*
X163818824Y-74126373D01*
X163813321Y-74181989D01*
X163821061Y-74200304D01*
X163829112Y-74217644D01*
X163837490Y-74234106D01*
X163846213Y-74249789D01*
X163855298Y-74264791D01*
X163864761Y-74279212D01*
X163874620Y-74293149D01*
X163884891Y-74306702D01*
X163895593Y-74319967D01*
X163906741Y-74333045D01*
X163918353Y-74346033D01*
X163930445Y-74359030D01*
X163956142Y-74385445D01*
X163983966Y-74413077D01*
X164072731Y-74501433D01*
X164169438Y-74595897D01*
X164268708Y-74694371D01*
X164426494Y-74850249D01*
X164584607Y-75005792D01*
X164897955Y-75315515D01*
X164995455Y-75411829D01*
X165093155Y-75507940D01*
X165155290Y-75569759D01*
X165216765Y-75631955D01*
X165277575Y-75694613D01*
X165337715Y-75757816D01*
X165397183Y-75821648D01*
X165455972Y-75886195D01*
X165514079Y-75951539D01*
X165571499Y-76017766D01*
X165607148Y-76058678D01*
X165643209Y-76099199D01*
X165716304Y-76179333D01*
X165864528Y-76337804D01*
X165931603Y-76410604D01*
X165997787Y-76483955D01*
X166063146Y-76557873D01*
X166127751Y-76632374D01*
X166191670Y-76707474D01*
X166254972Y-76783189D01*
X166380001Y-76936527D01*
X166411345Y-76974289D01*
X166442992Y-77011665D01*
X166507136Y-77085469D01*
X166572321Y-77158363D01*
X166638432Y-77230773D01*
X166712032Y-77313218D01*
X166784145Y-77396738D01*
X166854983Y-77481207D01*
X166924756Y-77566502D01*
X167061949Y-77739069D01*
X167197412Y-77913445D01*
X167294330Y-78037692D01*
X167391719Y-78161569D01*
X167531401Y-78339543D01*
X167593441Y-78418065D01*
X167758739Y-78633000D01*
X167920850Y-78850235D01*
X168080120Y-79069514D01*
X168236899Y-79290577D01*
X168544372Y-79737019D01*
X168846052Y-80187491D01*
X168914259Y-80290104D01*
X169161628Y-80664166D01*
X169405950Y-81039947D01*
X169645344Y-81418849D01*
X169762604Y-81609910D01*
X169877925Y-81802278D01*
X169944744Y-81914480D01*
X170389124Y-82685772D01*
X170813013Y-83466888D01*
X171216551Y-84257664D01*
X171599878Y-85057937D01*
X171963133Y-85867542D01*
X172306456Y-86686316D01*
X172629986Y-87514094D01*
X172933863Y-88350713D01*
X172984304Y-88494135D01*
X173302990Y-89452149D01*
X173594228Y-90424011D01*
X173856965Y-91407320D01*
X174090150Y-92399671D01*
X174292729Y-93398662D01*
X174463651Y-94401890D01*
X174601862Y-95406950D01*
X174706311Y-96411442D01*
X174720810Y-96573429D01*
X174736079Y-96735337D01*
X174803902Y-97555338D01*
X174851722Y-98381588D01*
X174879561Y-99211984D01*
X174887441Y-100044425D01*
X174875383Y-100876808D01*
X174843409Y-101707032D01*
X174791542Y-102532993D01*
X174719801Y-103352590D01*
X174701779Y-103538273D01*
X174670570Y-103839621D01*
X174636539Y-104140561D01*
X174599946Y-104441201D01*
X174561049Y-104741651D01*
X174550662Y-104820835D01*
X174467963Y-105403051D01*
X174373773Y-105983263D01*
X174268827Y-106561512D01*
X174153863Y-107137841D01*
X174029616Y-107712290D01*
X173896824Y-108284901D01*
X173756224Y-108855715D01*
X173608552Y-109424775D01*
X173568475Y-109576880D01*
X173249626Y-110686329D01*
X172886758Y-111787175D01*
X172482237Y-112877010D01*
X172038427Y-113953422D01*
X171557694Y-115014002D01*
X171042404Y-116056341D01*
X170494922Y-117078026D01*
X169917613Y-118076650D01*
X169856822Y-118178448D01*
X169575951Y-118637939D01*
X169287494Y-119092863D01*
X168991805Y-119543245D01*
X168689240Y-119989109D01*
X168380152Y-120430482D01*
X168064897Y-120867388D01*
X167743827Y-121299851D01*
X167417298Y-121727897D01*
X167353505Y-121810624D01*
X167169747Y-122045130D01*
X166983008Y-122276938D01*
X166793297Y-122506324D01*
X166600625Y-122733558D01*
X166513278Y-122835929D01*
X166426199Y-122938526D01*
X166258513Y-123134150D01*
X166089055Y-123327991D01*
X165917475Y-123519951D01*
X165743422Y-123709931D01*
X165693794Y-123763735D01*
X165644436Y-123817736D01*
X165595326Y-123871964D01*
X165546446Y-123926453D01*
X165409829Y-124076530D01*
X165271252Y-124224723D01*
X165131029Y-124371334D01*
X164989477Y-124516667D01*
X164703644Y-124804714D01*
X164416273Y-125091288D01*
X164110894Y-125396818D01*
X163872367Y-125635331D01*
X163705934Y-125801975D01*
X163572218Y-125933691D01*
X163504822Y-125998732D01*
X163436926Y-126063166D01*
X163368425Y-126126948D01*
X163299213Y-126190031D01*
X163229184Y-126252370D01*
X163158233Y-126313920D01*
X163120235Y-126346908D01*
X163082587Y-126380249D01*
X163008099Y-126447772D01*
X162860678Y-126584659D01*
X162791250Y-126648149D01*
X162721311Y-126710854D01*
X162650856Y-126772832D01*
X162579879Y-126834144D01*
X162508375Y-126894850D01*
X162436337Y-126955009D01*
X162290638Y-127073926D01*
X162216933Y-127134447D01*
X162143783Y-127195548D01*
X162071059Y-127257156D01*
X161998631Y-127319196D01*
X161885134Y-127415362D01*
X161770570Y-127510017D01*
X161655052Y-127603361D01*
X161538693Y-127695596D01*
X161303910Y-127877541D01*
X161067128Y-128057459D01*
X160961003Y-128138591D01*
X160855375Y-128220368D01*
X160619113Y-128401573D01*
X160380729Y-128579452D01*
X160140360Y-128754312D01*
X159898140Y-128926457D01*
X159654205Y-129096195D01*
X159408690Y-129263831D01*
X158913459Y-129594025D01*
X158776113Y-129684907D01*
X158639076Y-129776243D01*
X158320326Y-129984012D01*
X157998116Y-130186975D01*
X157672795Y-130385366D01*
X157344713Y-130579420D01*
X157014220Y-130769370D01*
X156681667Y-130955452D01*
X156347403Y-131137899D01*
X156011778Y-131316947D01*
X155866073Y-131394816D01*
X155720805Y-131473502D01*
X155514805Y-131582800D01*
X155307375Y-131689018D01*
X155098691Y-131792568D01*
X154888929Y-131893865D01*
X154466873Y-132091350D01*
X154042616Y-132284778D01*
X153915101Y-132342640D01*
X153331141Y-132599842D01*
X152736908Y-132846984D01*
X152127342Y-133084313D01*
X151497383Y-133312074D01*
X150841973Y-133530513D01*
X150156049Y-133739877D01*
X149434554Y-133940411D01*
X148672426Y-134132361D01*
X147864606Y-134315973D01*
X147006034Y-134491493D01*
X146091650Y-134659168D01*
X145116395Y-134819242D01*
X144075207Y-134971963D01*
X142963028Y-135117576D01*
X141774797Y-135256327D01*
X140505455Y-135388462D01*
X140380801Y-135388801D01*
X139725155Y-135389936D01*
X139194877Y-135391566D01*
X138293373Y-135384917D01*
X137396121Y-135355561D01*
X136502516Y-135303054D01*
X135611953Y-135226950D01*
X134723824Y-135126804D01*
X133837524Y-135002169D01*
X132952447Y-134852602D01*
X132067987Y-134677656D01*
X131831680Y-134627833D01*
X131261991Y-134507276D01*
X131262792Y-134644459D01*
X131268159Y-135928367D01*
X131270972Y-136588343D01*
X131273286Y-137226008D01*
X131274579Y-137468513D01*
X131271007Y-137663584D01*
X131257573Y-137851213D01*
X131234779Y-138032177D01*
X131203128Y-138207252D01*
X131163122Y-138377215D01*
X131115263Y-138542843D01*
X131060053Y-138704913D01*
X130997996Y-138864201D01*
X130929592Y-139021484D01*
X130855344Y-139177540D01*
X130775755Y-139333144D01*
X130691326Y-139489075D01*
X130509960Y-139805020D01*
X130315264Y-140131589D01*
X130208245Y-140312201D01*
X130102387Y-140493477D01*
X129892772Y-140857273D01*
X129545038Y-141456746D01*
X129192494Y-142053391D01*
X129003790Y-142372032D01*
X128910422Y-142531913D01*
X128817954Y-142692356D01*
X128739855Y-142826087D01*
X128661588Y-142954656D01*
X128582483Y-143078023D01*
X128501874Y-143196152D01*
X128419094Y-143309003D01*
X128333473Y-143416538D01*
X128244345Y-143518718D01*
X128151041Y-143615505D01*
X128052895Y-143706860D01*
X127949238Y-143792745D01*
X127839402Y-143873120D01*
X127722720Y-143947949D01*
X127598525Y-144017192D01*
X127466147Y-144080810D01*
X127324921Y-144138765D01*
X127174177Y-144191019D01*
X127135343Y-144199418D01*
X127096646Y-144206788D01*
X127058059Y-144213199D01*
X127019555Y-144218718D01*
X126942686Y-144227361D01*
X126865822Y-144233270D01*
X126788745Y-144236998D01*
X126711237Y-144239099D01*
X126554061Y-144240632D01*
X126441664Y-144243113D01*
X126341185Y-144241108D01*
X126241863Y-144234230D01*
X126143603Y-144222859D01*
X126046309Y-144207374D01*
X125949885Y-144188155D01*
X125854238Y-144165581D01*
X125759270Y-144140031D01*
X125664887Y-144111886D01*
X125477495Y-144049324D01*
X125291297Y-143980932D01*
X124919432Y-143838798D01*
X124721537Y-143765162D01*
X124623616Y-143728733D01*
X124431003Y-143657386D01*
X124212605Y-143576019D01*
X124103660Y-143534690D01*
X123994933Y-143492737D01*
X123847405Y-143436652D01*
X123720330Y-143387177D01*
X123695075Y-143381368D01*
X123670232Y-143376685D01*
X123645780Y-143373093D01*
X123621699Y-143370553D01*
X123597970Y-143369030D01*
X123574574Y-143368485D01*
X123528701Y-143370185D01*
X123483921Y-143375359D01*
X123440078Y-143383709D01*
X123397014Y-143394942D01*
X123354574Y-143408761D01*
X123312599Y-143424870D01*
X123270932Y-143442975D01*
X123229417Y-143462780D01*
X123187897Y-143483989D01*
X123018617Y-143576957D01*
X122927213Y-143614454D01*
X122831331Y-143647388D01*
X122731584Y-143675776D01*
X122628585Y-143699633D01*
X122522948Y-143718978D01*
X122415285Y-143733826D01*
X122306210Y-143744194D01*
X122196335Y-143750099D01*
X122086273Y-143751557D01*
X121976639Y-143748585D01*
X121868045Y-143741200D01*
X121761103Y-143729418D01*
X121656428Y-143713255D01*
X121554632Y-143692730D01*
X121456328Y-143667857D01*
X121362130Y-143638654D01*
X121177956Y-143556715D01*
X120997105Y-143469061D01*
X120819009Y-143376567D01*
X120643102Y-143280110D01*
X120468815Y-143180566D01*
X120295582Y-143078811D01*
X119950006Y-142872175D01*
X119653311Y-142697415D01*
X119355741Y-142524146D01*
X118901270Y-142258422D01*
X118447889Y-141990851D01*
X117961416Y-141705223D01*
X117473065Y-141422822D01*
X117037352Y-141170456D01*
X116820469Y-141042673D01*
X116604514Y-140913230D01*
X116435386Y-140811874D01*
X116265681Y-140711512D01*
X115925253Y-140512485D01*
X115802682Y-140441047D01*
X115175996Y-140077015D01*
X114878037Y-139903634D01*
X114580644Y-139729279D01*
X114377324Y-139610215D01*
X114263497Y-139541907D01*
X114153027Y-139471822D01*
X114046105Y-139399632D01*
X113942922Y-139325008D01*
X113843667Y-139247622D01*
X113748531Y-139167145D01*
X113657704Y-139083251D01*
X113571377Y-138995610D01*
X113489739Y-138903894D01*
X113412982Y-138807776D01*
X113341296Y-138706927D01*
X113274870Y-138601018D01*
X113213896Y-138489723D01*
X113158563Y-138372712D01*
X113109062Y-138249657D01*
X113065583Y-138120231D01*
X113045428Y-138039463D01*
X113022484Y-137950474D01*
X113016716Y-137906816D01*
X113012673Y-137863535D01*
X113010100Y-137820490D01*
X113008744Y-137777538D01*
X113008351Y-137734538D01*
X113008667Y-137691348D01*
X113010411Y-137603827D01*
X113010240Y-137525782D01*
X113008279Y-137451609D01*
X113006196Y-137415743D01*
X113003148Y-137380568D01*
X112998964Y-137345992D01*
X112993470Y-137311922D01*
X112986495Y-137278266D01*
X112977867Y-137244931D01*
X112967412Y-137211825D01*
X112954959Y-137178856D01*
X112940335Y-137145931D01*
X112923369Y-137112959D01*
X112903887Y-137079846D01*
X112881717Y-137046500D01*
X112839347Y-137009030D01*
X112796613Y-136972665D01*
X112753460Y-136937258D01*
X112709833Y-136902663D01*
X112665678Y-136868732D01*
X112620940Y-136835319D01*
X112575562Y-136802278D01*
X112529491Y-136769462D01*
X112420040Y-136680547D01*
X112311210Y-136590870D01*
X112202069Y-136502814D01*
X112146054Y-136455712D01*
X112090661Y-136407974D01*
X112035790Y-136359694D01*
X111981337Y-136310962D01*
X111873276Y-136212516D01*
X111765662Y-136113376D01*
X111725294Y-136077567D01*
X111684658Y-136042232D01*
X111602610Y-135972742D01*
X111519573Y-135904427D01*
X111435604Y-135836805D01*
X111347872Y-135764073D01*
X111262446Y-135690410D01*
X111179536Y-135615576D01*
X111099350Y-135539335D01*
X111022099Y-135461446D01*
X110947993Y-135381674D01*
X110877242Y-135299778D01*
X110810055Y-135215522D01*
X110746642Y-135128667D01*
X110687214Y-135038974D01*
X110631979Y-134946206D01*
X110581147Y-134850125D01*
X110534929Y-134750492D01*
X110493534Y-134647068D01*
X110457173Y-134539617D01*
X110426054Y-134427900D01*
X110404039Y-134343717D01*
X110389480Y-134236236D01*
X110379231Y-134130483D01*
X110371097Y-133923863D01*
X110378496Y-133723259D01*
X110400287Y-133528072D01*
X110435329Y-133337704D01*
X110482481Y-133151558D01*
X110540603Y-132969036D01*
X110608552Y-132789539D01*
X110685189Y-132612470D01*
X110769372Y-132437231D01*
X110859960Y-132263223D01*
X110955813Y-132089849D01*
X111369049Y-131390729D01*
X111572945Y-131044416D01*
X111775428Y-130697272D01*
X112053241Y-130221024D01*
X112093699Y-130151645D01*
X112372077Y-129675395D01*
X112651557Y-129199790D01*
X112794533Y-128956040D01*
X112873980Y-128821081D01*
X112954228Y-128688266D01*
X113036510Y-128557995D01*
X113122063Y-128430670D01*
X113166452Y-128368238D01*
X113212121Y-128306691D01*
X113259226Y-128246082D01*
X113307920Y-128186459D01*
X113358358Y-128127873D01*
X113410694Y-128070375D01*
X113465083Y-128014013D01*
X113521679Y-127958838D01*
X113574728Y-127906324D01*
X113617872Y-127867517D01*
X113662047Y-127830360D01*
X113707179Y-127794729D01*
X113753196Y-127760498D01*
X113800023Y-127727540D01*
X113847587Y-127695730D01*
X113895816Y-127664943D01*
X113944636Y-127635053D01*
X114043755Y-127577460D01*
X114144359Y-127521947D01*
X114347675Y-127413138D01*
X114502636Y-127328763D01*
X114809158Y-127162293D01*
X115087278Y-127010572D01*
X115364666Y-126857505D01*
X115448276Y-126811655D01*
X115506841Y-126778791D01*
X115564770Y-126745311D01*
X115622133Y-126711189D01*
X115679001Y-126676401D01*
X115735444Y-126640921D01*
X115791533Y-126604726D01*
X115847337Y-126567788D01*
X115902928Y-126530085D01*
X115851614Y-126486057D01*
X115648222Y-126307062D01*
X115447686Y-126125264D01*
X115249618Y-125941000D01*
X115053633Y-125754608D01*
X114666366Y-125376786D01*
X114282795Y-124994498D01*
X113978210Y-124690058D01*
X113740202Y-124452048D01*
X113574088Y-124286136D01*
X113442641Y-124152688D01*
X113377738Y-124085423D01*
X113313441Y-124017657D01*
X113249795Y-123949286D01*
X113186845Y-123880207D01*
X113124634Y-123810313D01*
X113063208Y-123739502D01*
X113030212Y-123701502D01*
X112996865Y-123663849D01*
X112929329Y-123589349D01*
X112792420Y-123441901D01*
X112729308Y-123372880D01*
X112666996Y-123303344D01*
X112605418Y-123233289D01*
X112544509Y-123162711D01*
X112484203Y-123091608D01*
X112424435Y-123019977D01*
X112306249Y-122875117D01*
X112240025Y-122794922D01*
X112173132Y-122715403D01*
X112105658Y-122636378D01*
X112037689Y-122557667D01*
X111954678Y-122461081D01*
X111872621Y-122363896D01*
X111791483Y-122266083D01*
X111711228Y-122167612D01*
X111631818Y-122068455D01*
X111553218Y-121968583D01*
X111475390Y-121867967D01*
X111398300Y-121766578D01*
X111293605Y-121629507D01*
X111188333Y-121492876D01*
X110968161Y-121204527D01*
X110751688Y-120914014D01*
X110645234Y-120767507D01*
X110540178Y-120619931D01*
X110436680Y-120471112D01*
X110334896Y-120320873D01*
X110133954Y-120021926D01*
X109668379Y-119320910D01*
X109440141Y-118968032D01*
X109215531Y-118613038D01*
X108994996Y-118255524D01*
X108778982Y-117895088D01*
X108567936Y-117531326D01*
X108362304Y-117163837D01*
X108293626Y-117038863D01*
X107651693Y-115813113D01*
X107057327Y-114565567D01*
X106511638Y-113297365D01*
X106257396Y-112655873D01*
X106015740Y-112009643D01*
X105786811Y-111358819D01*
X105570746Y-110703541D01*
X105367685Y-110043954D01*
X105177766Y-109380197D01*
X105001130Y-108712415D01*
X104837915Y-108040750D01*
X104688260Y-107365343D01*
X104552304Y-106686336D01*
X104535638Y-106598528D01*
X104408292Y-105888418D01*
X104294293Y-105175017D01*
X104194683Y-104458878D01*
X104110504Y-103740554D01*
X104042798Y-103020597D01*
X103992605Y-102299560D01*
X103960969Y-101577997D01*
X103948930Y-100856460D01*
X103948087Y-100657891D01*
X103947070Y-100026278D01*
X103947016Y-99917472D01*
X103951122Y-99077780D01*
X103968932Y-98239951D01*
X103985351Y-97821434D01*
X104008044Y-97403022D01*
X104037962Y-96984593D01*
X104076054Y-96566028D01*
X104096053Y-96362026D01*
X104199922Y-95436329D01*
X104327449Y-94510812D01*
X104479282Y-93587213D01*
X104656075Y-92667271D01*
X104858476Y-91752721D01*
X105087137Y-90845303D01*
X105342709Y-89946753D01*
X105625843Y-89058810D01*
X105682005Y-88888190D01*
X105737038Y-88717203D01*
X105905480Y-88213324D01*
X106084360Y-87712977D01*
X106272848Y-87216050D01*
X106470116Y-86722433D01*
X106675337Y-86232014D01*
X106887681Y-85744683D01*
X107106321Y-85260328D01*
X107330429Y-84778838D01*
X107394204Y-84643052D01*
X107600607Y-84211789D01*
X107813131Y-83784332D01*
X107922157Y-83572065D01*
X108033276Y-83360791D01*
X108146675Y-83150524D01*
X108262543Y-82941276D01*
X108353904Y-82777469D01*
X108444779Y-82613389D01*
X108620330Y-82302065D01*
X108799456Y-81993264D01*
X108982077Y-81686835D01*
X109168114Y-81382629D01*
X109357488Y-81080494D01*
X109550120Y-80780280D01*
X109745932Y-80481837D01*
X109944843Y-80185013D01*
X110002596Y-80099692D01*
X110267738Y-79712484D01*
X110537055Y-79328402D01*
X110811818Y-78948219D01*
X110951639Y-78759831D01*
X111093300Y-78572707D01*
X111175010Y-78465677D01*
X111347842Y-78242757D01*
X111522816Y-78021651D01*
X111699741Y-77802102D01*
X111878426Y-77583853D01*
X111955874Y-77489016D01*
X112032932Y-77393865D01*
X112096766Y-77315602D01*
X112161147Y-77237988D01*
X112291583Y-77084502D01*
X112424313Y-76932994D01*
X112559412Y-76783048D01*
X112593677Y-76744023D01*
X112627505Y-76704728D01*
X112694092Y-76625401D01*
X112759652Y-76545212D01*
X112824666Y-76464309D01*
X112880710Y-76396350D01*
X112937743Y-76329832D01*
X112995774Y-76264589D01*
X113054813Y-76200452D01*
X113114868Y-76137255D01*
X113175949Y-76074830D01*
X113238066Y-76013009D01*
X113301227Y-75951626D01*
X113330625Y-75921602D01*
X113359508Y-75891490D01*
X113387953Y-75861235D01*
X113416035Y-75830785D01*
X113443829Y-75800084D01*
X113471411Y-75769079D01*
X113526242Y-75705944D01*
X113586431Y-75637919D01*
X113647456Y-75570818D01*
X113709228Y-75504514D01*
X113771663Y-75438880D01*
X113898174Y-75309116D01*
X114026299Y-75180511D01*
X114124263Y-75082431D01*
X114328286Y-74878621D01*
X114638122Y-74568534D01*
X114837412Y-74369397D01*
X114929770Y-74276797D01*
X114991296Y-74215982D01*
X115053180Y-74155752D01*
X115115486Y-74096110D01*
X115178276Y-74037056D01*
X115241614Y-73978593D01*
X115305563Y-73920723D01*
X115370187Y-73863449D01*
X115435549Y-73806772D01*
X115479138Y-73768570D01*
X115522302Y-73729918D01*
X115607647Y-73651561D01*
X115776425Y-73492707D01*
X115850212Y-73424277D01*
X115924465Y-73356677D01*
X115999243Y-73289874D01*
X116074603Y-73223836D01*
X116150606Y-73158531D01*
X116227310Y-73093927D01*
X116304773Y-73029992D01*
X116383054Y-72966693D01*
X116486399Y-72880848D01*
X116588524Y-72793692D01*
X116689885Y-72705638D01*
X116790936Y-72617101D01*
X116881295Y-72539048D01*
X116972268Y-72462020D01*
X117063881Y-72385958D01*
X117156160Y-72310802D01*
X117249131Y-72236493D01*
X117342821Y-72162970D01*
X117437255Y-72090176D01*
X117532460Y-72018049D01*
X117666032Y-71916153D01*
X117799091Y-71813584D01*
X118389499Y-71369151D01*
X118989609Y-70938122D01*
X119598974Y-70520365D01*
X120217142Y-70115748D01*
X120843665Y-69724137D01*
X121478093Y-69345402D01*
X122119977Y-68979409D01*
X122768866Y-68626027D01*
X122892018Y-68560333D01*
X123328457Y-68332884D01*
X123767610Y-68112696D01*
X124209483Y-67899329D01*
X124654079Y-67692346D01*
X125101405Y-67491308D01*
X125551464Y-67295774D01*
X126004261Y-67105306D01*
X126459803Y-66919465D01*
X126537293Y-66888305D01*
X127110760Y-66665160D01*
X127690537Y-66453181D01*
X128277601Y-66252227D01*
X128872928Y-66062152D01*
X129477493Y-65882816D01*
X130092273Y-65714075D01*
X130718245Y-65555785D01*
X131356384Y-65407804D01*
X132673070Y-65142195D01*
X134050141Y-64916105D01*
X135495407Y-64728389D01*
X137016678Y-64577903D01*
X136985778Y-64516240D01*
X136911184Y-64361512D01*
X136841422Y-64206260D01*
X136776978Y-64050410D01*
X136718338Y-63893890D01*
X136665989Y-63736625D01*
X136620418Y-63578543D01*
X136582110Y-63419568D01*
X136551552Y-63259628D01*
X136529231Y-63098649D01*
X136515632Y-62936558D01*
X136511242Y-62773279D01*
X136516548Y-62608741D01*
X136532035Y-62442869D01*
X136558191Y-62275590D01*
X136595501Y-62106830D01*
X136644451Y-61936514D01*
X136703995Y-61795586D01*
X136768437Y-61658339D01*
X136837841Y-61524955D01*
X136912272Y-61395614D01*
X136991797Y-61270495D01*
X137076478Y-61149780D01*
X137166382Y-61033649D01*
X137261573Y-60922281D01*
X137362116Y-60815857D01*
X137468076Y-60714558D01*
X137579517Y-60618563D01*
X137696506Y-60528053D01*
X137819106Y-60443208D01*
X137947383Y-60364209D01*
X138081401Y-60291235D01*
X138221225Y-60224467D01*
X138352840Y-60172359D01*
X138487686Y-60126284D01*
X138625325Y-60086343D01*
X138765320Y-60052642D01*
X138907231Y-60025284D01*
X139050622Y-60004371D01*
X139195053Y-59990009D01*
X139340088Y-59982300D01*
X139485286Y-59981349D01*
X139630212Y-59987258D01*
X139774426Y-60000131D01*
X139917490Y-60020073D01*
X140058967Y-60047186D01*
X140198417Y-60081574D01*
X140335404Y-60123341D01*
X140469488Y-60172591D01*
X140605015Y-60233649D01*
X140736420Y-60300320D01*
X140863586Y-60372514D01*
X140986396Y-60450140D01*
X141104733Y-60533107D01*
X141218480Y-60621325D01*
X141327520Y-60714703D01*
X141431736Y-60813150D01*
X141531011Y-60916576D01*
X141625228Y-61024889D01*
X141714271Y-61138000D01*
X141798021Y-61255817D01*
X141876362Y-61378250D01*
X141949178Y-61505209D01*
X142016350Y-61636601D01*
X142077763Y-61772337D01*
X142124986Y-61899400D01*
X142166398Y-62029757D01*
X142201929Y-62162949D01*
X142231508Y-62298514D01*
X142255067Y-62435993D01*
X142272533Y-62574926D01*
X142283837Y-62714851D01*
X142288909Y-62855308D01*
X142287678Y-62995838D01*
X142280074Y-63135980D01*
X142266026Y-63275274D01*
X142245465Y-63413258D01*
X142218320Y-63549474D01*
X142184521Y-63683460D01*
X142143997Y-63814757D01*
X142096678Y-63942903D01*
X142056855Y-64027337D01*
X142015900Y-64111165D01*
X141974097Y-64194578D01*
X141931727Y-64277766D01*
X141887191Y-64365746D01*
X141779177Y-64577903D01*
X141888917Y-64586313D01*
X142909285Y-64674546D01*
X143417559Y-64726433D01*
X143924779Y-64784509D01*
X144431106Y-64849530D01*
X144936704Y-64922254D01*
X145441736Y-65003439D01*
X145946365Y-65093840D01*
X146039199Y-65111358D01*
X146993580Y-65305355D01*
X147941741Y-65524508D01*
X148883025Y-65769273D01*
X149816779Y-66040109D01*
X150742347Y-66337471D01*
X151659074Y-66661818D01*
X152566305Y-67013606D01*
X153463385Y-67393292D01*
X153550639Y-67431788D01*
X153715892Y-67505394D01*
X153805770Y-67544451D01*
X153850593Y-67562827D01*
X153895630Y-67580123D01*
X153941100Y-67596105D01*
X153987222Y-67610541D01*
X154010596Y-67617106D01*
X154034216Y-67623197D01*
X154058108Y-67628785D01*
X154082299Y-67633840D01*
X154116041Y-67563264D01*
X154132052Y-67533066D01*
X154148427Y-67503601D01*
X154165212Y-67474730D01*
X154182451Y-67446310D01*
X154200190Y-67418200D01*
X154218475Y-67390260D01*
X154237351Y-67362348D01*
X154256863Y-67334323D01*
X154313758Y-67253544D01*
X154374998Y-67167512D01*
X154439026Y-67077218D01*
X154590613Y-66866862D01*
X154744143Y-66657998D01*
X154899195Y-66450257D01*
X155055345Y-66243266D01*
X155170239Y-66090493D01*
X155284726Y-65937414D01*
X155752926Y-65315831D01*
X156225035Y-64697215D01*
X157177926Y-63466652D01*
X157237033Y-63390785D01*
X157410438Y-63169813D01*
X157585146Y-62949947D01*
X157761079Y-62731059D01*
X157938162Y-62513020D01*
X158044307Y-62382020D01*
X158149735Y-62250486D01*
X158254493Y-62118416D01*
X158358627Y-61985813D01*
X158498210Y-61808837D01*
X158639129Y-61633004D01*
X158781183Y-61458082D01*
X158924176Y-61283841D01*
X159102768Y-61065560D01*
X159192842Y-60955489D01*
X159363684Y-60746509D01*
X159638552Y-60410716D01*
X159701394Y-60334053D01*
X160088003Y-59865160D01*
X160282700Y-59631892D01*
X160478810Y-59399770D01*
X160561100Y-59302242D01*
X160642735Y-59204218D01*
X160723799Y-59105720D01*
X160804371Y-59006771D01*
X160929378Y-58855373D01*
X161056166Y-58705599D01*
X161184243Y-58556921D01*
X161313121Y-58408813D01*
X161409449Y-58297214D01*
X161504768Y-58184884D01*
X161599077Y-58071698D01*
X161692378Y-57957532D01*
X161745257Y-57892952D01*
X161798735Y-57829032D01*
X161852764Y-57765684D01*
X161907299Y-57702821D01*
X162017698Y-57578197D01*
X162129561Y-57454462D01*
X162195395Y-57379229D01*
X162260016Y-57303186D01*
X162323746Y-57226390D01*
X162386911Y-57148899D01*
X162511776Y-56996903D01*
X162638399Y-56846544D01*
X162766370Y-56697328D01*
X162895280Y-56548762D01*
X163104655Y-56306424D01*
X163208637Y-56184662D01*
X163312124Y-56062454D01*
X163687333Y-55620920D01*
X164064523Y-55181074D01*
X164382375Y-54810059D01*
X164698709Y-54437747D01*
X164925159Y-54170663D01*
X165152632Y-53904447D01*
X165212365Y-53834790D01*
X165516641Y-53480907D01*
X165652958Y-53322054D01*
X165788467Y-53162623D01*
X165922784Y-53002189D01*
X166055525Y-52840326D01*
X166108744Y-52775467D01*
X166162551Y-52711252D01*
X166216899Y-52647598D01*
X166271743Y-52584420D01*
X166382742Y-52459152D01*
X166495189Y-52334775D01*
X166561020Y-52259542D01*
X166625640Y-52183499D01*
X166689370Y-52106703D01*
X166752534Y-52029212D01*
X166830546Y-51933773D01*
X166909311Y-51839013D01*
X167068655Y-51651099D01*
X167391467Y-51278657D01*
X167663041Y-50963715D01*
X167933239Y-50647591D01*
X167991256Y-50579650D01*
X168161439Y-50379701D01*
X168216320Y-50315160D01*
X168297394Y-50217919D01*
X168377105Y-50119746D01*
X168455721Y-50020693D01*
X168533509Y-49920814D01*
X168622649Y-49815111D01*
X168715026Y-49716113D01*
X168810644Y-49623843D01*
X168909503Y-49538326D01*
X169011605Y-49459587D01*
X169116952Y-49387649D01*
X169225545Y-49322536D01*
X169337385Y-49264274D01*
X169452475Y-49212886D01*
X169570816Y-49168397D01*
X169692409Y-49130830D01*
X169817256Y-49100210D01*
X169945359Y-49076562D01*
X170076718Y-49059910D01*
X170211337Y-49050277D01*
X170349215Y-49047689D01*
X170454945Y-49048367D01*
M02*
