%TF.GenerationSoftware,KiCad,Pcbnew,9.0.0*%
%TF.CreationDate,2025-11-30T17:21:40-05:00*%
%TF.ProjectId,XMAS-PCB-25,584d4153-2d50-4434-922d-32352e6b6963,rev?*%
%TF.SameCoordinates,Original*%
%TF.FileFunction,Soldermask,Top*%
%TF.FilePolarity,Negative*%
%FSLAX46Y46*%
G04 Gerber Fmt 4.6, Leading zero omitted, Abs format (unit mm)*
G04 Created by KiCad (PCBNEW 9.0.0) date 2025-11-30 17:21:40*
%MOMM*%
%LPD*%
G01*
G04 APERTURE LIST*
%ADD10C,0.000000*%
%ADD11C,3.000000*%
G04 APERTURE END LIST*
D10*
%TO.C,G\u002A\u002A\u002A*%
G36*
X134255807Y-127183520D02*
G01*
X134426947Y-127258647D01*
X134562504Y-127388571D01*
X134649229Y-127564928D01*
X134674654Y-127745515D01*
X134641966Y-127959950D01*
X134539696Y-128142065D01*
X134433171Y-128248764D01*
X134273876Y-128334402D01*
X134087816Y-128361100D01*
X133902170Y-128328990D01*
X133752434Y-128245396D01*
X133611385Y-128081682D01*
X133536196Y-127894778D01*
X133525199Y-127700455D01*
X133576723Y-127514486D01*
X133689100Y-127352642D01*
X133859784Y-127231117D01*
X134062336Y-127171555D01*
X134255807Y-127183520D01*
G37*
G36*
X161098178Y-81879780D02*
G01*
X161258317Y-81975321D01*
X161381400Y-82122946D01*
X161453315Y-82316271D01*
X161463381Y-82388639D01*
X161446212Y-82604849D01*
X161362265Y-82788293D01*
X161221765Y-82927911D01*
X161034931Y-83012644D01*
X160867339Y-83033529D01*
X160741864Y-83025939D01*
X160648259Y-82993093D01*
X160550801Y-82919877D01*
X160509300Y-82882038D01*
X160405571Y-82772027D01*
X160350624Y-82669622D01*
X160326182Y-82546782D01*
X160332038Y-82314703D01*
X160403334Y-82119314D01*
X160536554Y-81969482D01*
X160723184Y-81870478D01*
X160915096Y-81842704D01*
X161098178Y-81879780D01*
G37*
G36*
X157194804Y-104333529D02*
G01*
X157194509Y-104890292D01*
X157193652Y-105423862D01*
X157192272Y-105928875D01*
X157190412Y-106399967D01*
X157188110Y-106831774D01*
X157185407Y-107218933D01*
X157182345Y-107556080D01*
X157178962Y-107837850D01*
X157175301Y-108058880D01*
X157171400Y-108213807D01*
X157167302Y-108297266D01*
X157164804Y-108310813D01*
X157127845Y-108288684D01*
X157029174Y-108225218D01*
X156873563Y-108123577D01*
X156665784Y-107986920D01*
X156410609Y-107818408D01*
X156112809Y-107621199D01*
X155777158Y-107398455D01*
X155408427Y-107153335D01*
X155011388Y-106888999D01*
X154590812Y-106608607D01*
X154164804Y-106324225D01*
X151194804Y-104340351D01*
X151194804Y-102346940D01*
X151194804Y-100353529D01*
X154194804Y-100353529D01*
X157194804Y-100353529D01*
X157194804Y-104333529D01*
G37*
G36*
X166229393Y-111317430D02*
G01*
X166366341Y-111435479D01*
X166472171Y-111608001D01*
X166532357Y-111811208D01*
X166532849Y-111814436D01*
X166543371Y-111947963D01*
X166538208Y-112076244D01*
X166520143Y-112176769D01*
X166491958Y-112227029D01*
X166481625Y-112228888D01*
X166423542Y-112215758D01*
X166384804Y-112205955D01*
X166334663Y-112166240D01*
X166315557Y-112071209D01*
X166314804Y-112035723D01*
X166310995Y-111939393D01*
X166284366Y-111896641D01*
X166212117Y-111886936D01*
X166150847Y-111888082D01*
X166026380Y-111878389D01*
X165938408Y-111829991D01*
X165890847Y-111780724D01*
X165826966Y-111692216D01*
X165795493Y-111620671D01*
X165794804Y-111613180D01*
X165827223Y-111476262D01*
X165911222Y-111367883D01*
X166026906Y-111301579D01*
X166154385Y-111290888D01*
X166229393Y-111317430D01*
G37*
G36*
X157298618Y-84596556D02*
G01*
X157404773Y-84706737D01*
X157548999Y-84872659D01*
X157723670Y-85084401D01*
X157921161Y-85332042D01*
X158133844Y-85605660D01*
X158354092Y-85895333D01*
X158574281Y-86191140D01*
X158786782Y-86483159D01*
X158983970Y-86761468D01*
X159156467Y-87013529D01*
X159284994Y-87208568D01*
X159419399Y-87417698D01*
X159552637Y-87629371D01*
X159677663Y-87832040D01*
X159787436Y-88014159D01*
X159874909Y-88164179D01*
X159933041Y-88270554D01*
X159954787Y-88321737D01*
X159954804Y-88322258D01*
X159916324Y-88329582D01*
X159806962Y-88336297D01*
X159635835Y-88342196D01*
X159412062Y-88347073D01*
X159144758Y-88350720D01*
X158843040Y-88352931D01*
X158574804Y-88353529D01*
X157194804Y-88353529D01*
X157194804Y-86426556D01*
X157194804Y-84499583D01*
X157298618Y-84596556D01*
G37*
G36*
X121194804Y-114273529D02*
G01*
X121194482Y-114656899D01*
X121193560Y-115014762D01*
X121192102Y-115339388D01*
X121190172Y-115623048D01*
X121187834Y-115858012D01*
X121185153Y-116036549D01*
X121182192Y-116150932D01*
X121179016Y-116193429D01*
X121178853Y-116193529D01*
X121148996Y-116164529D01*
X121077315Y-116084625D01*
X120973097Y-115964457D01*
X120845627Y-115814664D01*
X120776254Y-115732199D01*
X120237884Y-115063024D01*
X119706924Y-114351597D01*
X119236616Y-113673529D01*
X119080358Y-113436854D01*
X118927813Y-113201301D01*
X118785238Y-112976981D01*
X118658892Y-112774003D01*
X118555030Y-112602478D01*
X118479911Y-112472518D01*
X118439792Y-112394231D01*
X118434804Y-112377973D01*
X118473284Y-112372248D01*
X118582646Y-112366998D01*
X118753773Y-112362387D01*
X118977548Y-112358575D01*
X119244853Y-112355724D01*
X119546571Y-112353995D01*
X119814804Y-112353529D01*
X121194804Y-112353529D01*
X121194804Y-114273529D01*
G37*
G36*
X133178196Y-77163011D02*
G01*
X133179895Y-77280377D01*
X133181435Y-77469916D01*
X133182810Y-77727715D01*
X133184015Y-78049860D01*
X133185048Y-78432438D01*
X133185902Y-78871535D01*
X133186574Y-79363239D01*
X133187059Y-79903635D01*
X133187353Y-80488810D01*
X133187452Y-81114852D01*
X133187350Y-81777846D01*
X133187043Y-82473879D01*
X133186528Y-83199037D01*
X133185799Y-83949409D01*
X133184908Y-84680435D01*
X133174804Y-92220466D01*
X130184804Y-90226863D01*
X127194804Y-88233259D01*
X127194804Y-83894751D01*
X127194804Y-79556244D01*
X127484804Y-79393136D01*
X128168758Y-79027156D01*
X128910931Y-78664330D01*
X129689822Y-78314496D01*
X130483929Y-77987488D01*
X130931758Y-77816331D01*
X131145981Y-77739109D01*
X131390679Y-77654685D01*
X131655019Y-77566412D01*
X131928166Y-77477643D01*
X132199284Y-77391730D01*
X132457541Y-77312027D01*
X132692101Y-77241887D01*
X132892130Y-77184661D01*
X133046793Y-77143703D01*
X133145257Y-77122366D01*
X133176340Y-77121732D01*
X133178196Y-77163011D01*
G37*
G36*
X109634138Y-97795458D02*
G01*
X109765535Y-97803284D01*
X109953880Y-97815556D01*
X110189326Y-97831553D01*
X110462029Y-97850555D01*
X110762141Y-97871840D01*
X111079817Y-97894688D01*
X111405210Y-97918379D01*
X111728474Y-97942192D01*
X112039764Y-97965406D01*
X112329233Y-97987301D01*
X112587035Y-98007157D01*
X112803324Y-98024251D01*
X112968254Y-98037865D01*
X113071979Y-98047277D01*
X113104838Y-98051534D01*
X113106590Y-98092486D01*
X113102936Y-98195025D01*
X113094651Y-98340980D01*
X113088848Y-98426896D01*
X113062824Y-98793529D01*
X112898814Y-98788856D01*
X112823854Y-98784843D01*
X112678581Y-98775347D01*
X112472442Y-98761045D01*
X112214887Y-98742618D01*
X111915363Y-98720744D01*
X111583319Y-98696102D01*
X111228203Y-98669371D01*
X111087997Y-98658717D01*
X110732995Y-98631084D01*
X110402970Y-98604267D01*
X110106419Y-98579040D01*
X109851837Y-98556177D01*
X109647721Y-98536451D01*
X109502567Y-98520637D01*
X109424871Y-98509510D01*
X109414170Y-98506229D01*
X109405050Y-98456599D01*
X109404013Y-98347494D01*
X109410975Y-98199016D01*
X109415707Y-98136368D01*
X109444266Y-97793529D01*
X109569535Y-97792797D01*
X109634138Y-97795458D01*
G37*
G36*
X158996970Y-109554973D02*
G01*
X159391210Y-109818175D01*
X159723743Y-110040981D01*
X159999628Y-110227067D01*
X160223922Y-110380109D01*
X160401685Y-110503783D01*
X160537975Y-110601765D01*
X160637852Y-110677731D01*
X160706372Y-110735358D01*
X160748596Y-110778321D01*
X160769581Y-110810296D01*
X160774386Y-110834959D01*
X160772457Y-110845195D01*
X160741803Y-110917928D01*
X160678359Y-111048053D01*
X160588702Y-111223320D01*
X160479410Y-111431476D01*
X160357059Y-111660272D01*
X160228226Y-111897454D01*
X160099488Y-112130773D01*
X159977421Y-112347976D01*
X159868604Y-112536813D01*
X159823160Y-112613529D01*
X159282311Y-113472188D01*
X158691946Y-114329897D01*
X158072399Y-115158028D01*
X157599381Y-115744218D01*
X157466069Y-115902642D01*
X157351570Y-116036577D01*
X157265258Y-116135224D01*
X157216505Y-116187784D01*
X157209381Y-116193529D01*
X157207327Y-116154430D01*
X157205358Y-116040741D01*
X157203496Y-115857871D01*
X157201760Y-115611230D01*
X157200171Y-115306226D01*
X157198749Y-114948269D01*
X157197513Y-114542769D01*
X157196484Y-114095136D01*
X157195682Y-113610778D01*
X157195128Y-113095105D01*
X157194841Y-112553526D01*
X157194804Y-112273307D01*
X157194804Y-108353086D01*
X158996970Y-109554973D01*
G37*
G36*
X120374498Y-118470303D02*
G01*
X120641122Y-118746478D01*
X119727963Y-119644008D01*
X119497805Y-119869689D01*
X119279356Y-120082879D01*
X119080897Y-120275570D01*
X118910712Y-120439757D01*
X118777083Y-120567433D01*
X118688295Y-120650590D01*
X118664804Y-120671677D01*
X118577694Y-120755983D01*
X118523581Y-120825162D01*
X118514804Y-120848462D01*
X118541773Y-120892538D01*
X118615627Y-120980436D01*
X118725785Y-121100320D01*
X118861668Y-121240356D01*
X118894619Y-121273345D01*
X119274435Y-121651581D01*
X119045871Y-121882555D01*
X118937625Y-121989026D01*
X118851336Y-122068472D01*
X118801628Y-122107607D01*
X118796056Y-122109505D01*
X118764306Y-122080895D01*
X118683180Y-122001182D01*
X118558963Y-121876726D01*
X118397942Y-121713883D01*
X118206401Y-121519014D01*
X117990626Y-121298475D01*
X117756904Y-121058626D01*
X117742098Y-121043400D01*
X116709392Y-119981317D01*
X116941112Y-119747154D01*
X117172832Y-119512990D01*
X117563352Y-119902045D01*
X117953872Y-120291099D01*
X118143643Y-120112314D01*
X118220214Y-120039080D01*
X118344912Y-119918502D01*
X118508789Y-119759289D01*
X118702898Y-119570153D01*
X118918289Y-119359806D01*
X119146015Y-119136959D01*
X119220644Y-119063829D01*
X120107874Y-118194129D01*
X120374498Y-118470303D01*
G37*
G36*
X127244804Y-96378726D02*
G01*
X127304593Y-96416792D01*
X127422649Y-96494029D01*
X127593207Y-96606580D01*
X127810500Y-96750585D01*
X128068764Y-96922187D01*
X128362232Y-97117528D01*
X128685139Y-97332749D01*
X129031721Y-97563992D01*
X129396210Y-97807398D01*
X129772842Y-98059110D01*
X130155851Y-98315269D01*
X130539472Y-98572018D01*
X130917939Y-98825497D01*
X131285487Y-99071848D01*
X131636350Y-99307214D01*
X131964763Y-99527735D01*
X132264959Y-99729555D01*
X132531175Y-99908814D01*
X132757643Y-100061654D01*
X132938599Y-100184217D01*
X133068277Y-100272645D01*
X133140911Y-100323080D01*
X133154804Y-100333665D01*
X133144804Y-100343789D01*
X133104195Y-100342077D01*
X132989830Y-100340183D01*
X132807951Y-100338149D01*
X132564801Y-100336017D01*
X132266621Y-100333830D01*
X131919656Y-100331629D01*
X131530147Y-100329458D01*
X131104338Y-100327359D01*
X130648471Y-100325375D01*
X130168789Y-100323547D01*
X130164804Y-100323532D01*
X127194804Y-100313016D01*
X127194804Y-98330912D01*
X127195177Y-97866475D01*
X127196389Y-97476595D01*
X127198580Y-97155830D01*
X127201888Y-96898741D01*
X127206454Y-96699885D01*
X127212417Y-96553823D01*
X127219915Y-96455114D01*
X127229089Y-96398317D01*
X127240077Y-96377991D01*
X127244804Y-96378726D01*
G37*
G36*
X146729362Y-126067185D02*
G01*
X146744480Y-126111233D01*
X146779251Y-126221298D01*
X146830406Y-126386749D01*
X146894675Y-126596958D01*
X146968788Y-126841294D01*
X147032770Y-127053529D01*
X147112920Y-127317711D01*
X147186693Y-127556359D01*
X147250678Y-127758799D01*
X147301464Y-127914357D01*
X147335640Y-128012360D01*
X147348682Y-128042100D01*
X147394071Y-128040371D01*
X147502442Y-128017482D01*
X147660619Y-127976768D01*
X147855426Y-127921562D01*
X148013785Y-127873843D01*
X148226633Y-127809761D01*
X148411970Y-127757000D01*
X148556755Y-127719027D01*
X148647943Y-127699311D01*
X148673213Y-127698479D01*
X148697030Y-127745949D01*
X148734353Y-127843925D01*
X148759284Y-127917083D01*
X148823765Y-128114222D01*
X148379284Y-128250753D01*
X148144101Y-128323005D01*
X147873451Y-128406168D01*
X147608334Y-128487645D01*
X147469212Y-128530407D01*
X147286754Y-128585615D01*
X147131921Y-128630817D01*
X147020824Y-128661422D01*
X146969576Y-128672840D01*
X146969212Y-128672840D01*
X146949659Y-128635828D01*
X146910581Y-128531300D01*
X146855020Y-128368493D01*
X146786014Y-128156642D01*
X146706603Y-127904984D01*
X146619827Y-127622756D01*
X146577563Y-127482840D01*
X146488768Y-127187366D01*
X146407139Y-126915996D01*
X146335581Y-126678369D01*
X146277000Y-126484125D01*
X146234302Y-126342903D01*
X146210391Y-126264342D01*
X146206540Y-126252016D01*
X146234300Y-126222057D01*
X146316224Y-126180407D01*
X146429001Y-126135308D01*
X146549317Y-126095003D01*
X146653861Y-126067731D01*
X146719320Y-126061736D01*
X146729362Y-126067185D01*
G37*
G36*
X158843654Y-119267603D02*
G01*
X159029864Y-119377185D01*
X159184432Y-119535516D01*
X159295234Y-119732225D01*
X159350145Y-119956943D01*
X159353925Y-120030900D01*
X159327899Y-120223557D01*
X159244452Y-120422879D01*
X159098389Y-120638605D01*
X158921322Y-120841934D01*
X158661007Y-121117881D01*
X158967905Y-121426590D01*
X159092730Y-121555878D01*
X159193110Y-121666940D01*
X159257332Y-121746358D01*
X159274804Y-121778152D01*
X159246053Y-121824445D01*
X159171321Y-121901571D01*
X159084804Y-121977616D01*
X158894804Y-122134226D01*
X158714804Y-121945851D01*
X158636680Y-121864339D01*
X158513082Y-121735684D01*
X158354060Y-121570333D01*
X158169667Y-121378735D01*
X157969952Y-121171339D01*
X157824856Y-121020735D01*
X157114908Y-120283994D01*
X157164919Y-120234925D01*
X157818498Y-120234925D01*
X158075495Y-120494227D01*
X158190800Y-120608206D01*
X158284731Y-120696659D01*
X158343502Y-120746809D01*
X158355320Y-120753529D01*
X158392995Y-120726895D01*
X158467214Y-120657881D01*
X158540563Y-120583529D01*
X158701328Y-120400948D01*
X158798346Y-120251050D01*
X158834675Y-120122499D01*
X158813372Y-120003963D01*
X158737494Y-119884108D01*
X158731248Y-119876598D01*
X158606716Y-119779556D01*
X158460712Y-119759114D01*
X158293023Y-119815335D01*
X158103437Y-119948280D01*
X157936651Y-120109076D01*
X157818498Y-120234925D01*
X157164919Y-120234925D01*
X157497342Y-119908761D01*
X157745423Y-119673934D01*
X157955002Y-119495728D01*
X158135908Y-119367013D01*
X158297972Y-119280663D01*
X158424804Y-119236168D01*
X158637926Y-119217141D01*
X158843654Y-119267603D01*
G37*
G36*
X165805939Y-96699855D02*
G01*
X165906311Y-96741777D01*
X166057958Y-96808789D01*
X166250408Y-96896226D01*
X166473190Y-96999422D01*
X166587724Y-97053137D01*
X167393980Y-97432743D01*
X167804392Y-97392651D01*
X167988196Y-97374720D01*
X168151363Y-97358845D01*
X168271450Y-97347209D01*
X168314804Y-97343044D01*
X168369220Y-97343225D01*
X168402267Y-97368236D01*
X168422868Y-97435345D01*
X168439944Y-97561822D01*
X168443276Y-97591722D01*
X168455090Y-97726934D01*
X168458070Y-97827357D01*
X168452170Y-97869496D01*
X168407075Y-97880593D01*
X168298187Y-97896694D01*
X168141397Y-97915716D01*
X167952598Y-97935575D01*
X167934770Y-97937314D01*
X167436950Y-97985553D01*
X167065877Y-98256979D01*
X166869746Y-98401120D01*
X166652386Y-98561932D01*
X166447957Y-98714104D01*
X166358704Y-98780966D01*
X166216832Y-98885287D01*
X166097688Y-98968635D01*
X166016127Y-99020868D01*
X165988704Y-99033529D01*
X165966800Y-98998174D01*
X165954996Y-98910518D01*
X165954363Y-98883529D01*
X165947042Y-98735081D01*
X165930130Y-98589694D01*
X165906337Y-98445860D01*
X166369847Y-98117044D01*
X166537301Y-97997210D01*
X166680238Y-97892946D01*
X166786447Y-97813312D01*
X166843716Y-97767368D01*
X166849965Y-97760879D01*
X166821423Y-97736074D01*
X166731711Y-97686262D01*
X166593274Y-97617755D01*
X166418555Y-97536866D01*
X166336120Y-97500180D01*
X165805669Y-97266831D01*
X165779414Y-96984335D01*
X165768335Y-96843430D01*
X165763821Y-96737714D01*
X165766740Y-96688531D01*
X165767313Y-96687685D01*
X165805939Y-96699855D01*
G37*
G36*
X144107792Y-126723737D02*
G01*
X144131213Y-126832085D01*
X144165784Y-126997983D01*
X144209342Y-127210958D01*
X144259726Y-127460541D01*
X144309215Y-127708275D01*
X144364136Y-127982245D01*
X144414535Y-128229347D01*
X144458190Y-128439039D01*
X144492883Y-128600777D01*
X144516391Y-128704019D01*
X144526142Y-128738200D01*
X144568359Y-128735683D01*
X144675818Y-128719187D01*
X144835433Y-128691002D01*
X145034116Y-128653416D01*
X145209006Y-128618800D01*
X145429244Y-128576098D01*
X145620848Y-128542160D01*
X145770709Y-128519047D01*
X145865717Y-128508821D01*
X145893347Y-128511173D01*
X145908158Y-128562814D01*
X145925042Y-128658849D01*
X145940534Y-128772189D01*
X145951168Y-128875751D01*
X145953479Y-128942447D01*
X145949957Y-128953603D01*
X145908104Y-128961050D01*
X145798933Y-128981904D01*
X145633598Y-129013991D01*
X145423249Y-129055144D01*
X145179039Y-129103190D01*
X145025055Y-129133603D01*
X144765008Y-129184769D01*
X144531158Y-129230277D01*
X144334932Y-129267945D01*
X144187757Y-129295589D01*
X144101060Y-129311027D01*
X144083052Y-129313529D01*
X144067683Y-129275813D01*
X144039637Y-129169042D01*
X144001031Y-129002781D01*
X143953982Y-128786597D01*
X143900606Y-128530053D01*
X143843021Y-128242717D01*
X143819714Y-128123529D01*
X143761490Y-127822358D01*
X143708192Y-127544108D01*
X143661771Y-127299166D01*
X143624177Y-127097923D01*
X143597363Y-126950767D01*
X143583280Y-126868087D01*
X143581717Y-126856285D01*
X143590644Y-126811162D01*
X143637607Y-126777356D01*
X143738500Y-126746582D01*
X143831349Y-126726164D01*
X143963333Y-126700662D01*
X144059319Y-126685332D01*
X144097680Y-126683407D01*
X144107792Y-126723737D01*
G37*
G36*
X141265265Y-70782298D02*
G01*
X141387448Y-70790436D01*
X141640092Y-70813529D01*
X142270005Y-72703529D01*
X142899918Y-74593529D01*
X142717361Y-74587009D01*
X142565019Y-74578470D01*
X142389417Y-74564360D01*
X142314953Y-74557009D01*
X142095102Y-74533529D01*
X141972619Y-74153529D01*
X141850135Y-73773529D01*
X141292469Y-73727080D01*
X141073103Y-73709573D01*
X140867312Y-73694525D01*
X140695780Y-73683357D01*
X140579190Y-73677488D01*
X140564512Y-73677080D01*
X140394220Y-73673529D01*
X140225598Y-74013529D01*
X140056975Y-74353529D01*
X139835889Y-74350564D01*
X139672552Y-74343543D01*
X139510537Y-74329122D01*
X139447452Y-74320564D01*
X139280101Y-74293529D01*
X139938592Y-73021620D01*
X140716893Y-73021620D01*
X140754273Y-73053384D01*
X140866173Y-73075705D01*
X140964804Y-73083913D01*
X141230097Y-73097742D01*
X141433079Y-73105662D01*
X141568480Y-73107541D01*
X141631029Y-73103247D01*
X141634804Y-73100654D01*
X141623531Y-73058462D01*
X141594957Y-72966203D01*
X141577053Y-72910654D01*
X141540851Y-72796783D01*
X141489559Y-72631823D01*
X141431080Y-72441310D01*
X141392288Y-72313653D01*
X141265273Y-71893778D01*
X140992127Y-72433653D01*
X140896588Y-72625271D01*
X140815343Y-72793518D01*
X140754810Y-72924686D01*
X140721407Y-73005063D01*
X140716893Y-73021620D01*
X139938592Y-73021620D01*
X140180931Y-72553529D01*
X140359887Y-72208424D01*
X140528084Y-71885142D01*
X140681881Y-71590608D01*
X140817636Y-71331744D01*
X140931708Y-71115475D01*
X141020454Y-70948724D01*
X141080233Y-70838413D01*
X141107403Y-70791468D01*
X141108282Y-70790436D01*
X141159112Y-70781822D01*
X141265265Y-70782298D01*
G37*
G36*
X167781170Y-93566562D02*
G01*
X167793750Y-93609063D01*
X167818742Y-93716665D01*
X167853426Y-93875916D01*
X167895077Y-94073360D01*
X167940975Y-94295546D01*
X167988396Y-94529018D01*
X168034619Y-94760324D01*
X168076921Y-94976009D01*
X168112579Y-95162621D01*
X168138872Y-95306705D01*
X168153077Y-95394808D01*
X168154804Y-95413040D01*
X168117066Y-95431149D01*
X168010098Y-95461985D01*
X167843265Y-95503358D01*
X167625934Y-95553077D01*
X167367471Y-95608953D01*
X167077241Y-95668796D01*
X166964804Y-95691282D01*
X166664387Y-95750985D01*
X166387507Y-95806229D01*
X166144416Y-95854954D01*
X165945367Y-95895095D01*
X165800612Y-95924590D01*
X165720403Y-95941376D01*
X165709318Y-95943907D01*
X165642520Y-95941438D01*
X165623932Y-95927013D01*
X165606241Y-95869821D01*
X165584924Y-95764812D01*
X165576496Y-95713529D01*
X165555700Y-95589004D01*
X165536318Y-95490967D01*
X165530860Y-95468803D01*
X165535149Y-95446794D01*
X165566120Y-95424393D01*
X165632020Y-95399434D01*
X165741098Y-95369750D01*
X165901604Y-95333176D01*
X166121787Y-95287544D01*
X166409894Y-95230689D01*
X166515243Y-95210261D01*
X166789463Y-95156568D01*
X167038375Y-95106540D01*
X167250969Y-95062494D01*
X167416235Y-95026749D01*
X167523163Y-95001620D01*
X167559853Y-94990408D01*
X167570742Y-94940341D01*
X167560493Y-94815990D01*
X167528988Y-94616418D01*
X167478392Y-94351996D01*
X167435701Y-94136179D01*
X167399395Y-93944464D01*
X167372255Y-93792191D01*
X167357062Y-93694697D01*
X167354804Y-93670328D01*
X167375294Y-93624226D01*
X167447175Y-93593079D01*
X167557364Y-93573176D01*
X167676654Y-93561110D01*
X167759762Y-93560780D01*
X167781170Y-93566562D01*
G37*
G36*
X159802977Y-89962864D02*
G01*
X160851150Y-89973529D01*
X161041167Y-90393529D01*
X161541035Y-91585427D01*
X161980132Y-92813895D01*
X162355191Y-94066979D01*
X162662944Y-95332723D01*
X162900122Y-96599171D01*
X163053066Y-97753529D01*
X163082343Y-98056909D01*
X163110574Y-98396796D01*
X163136566Y-98754222D01*
X163159130Y-99110219D01*
X163177073Y-99445817D01*
X163189203Y-99742049D01*
X163194329Y-99979947D01*
X163194417Y-100003529D01*
X163194804Y-100313529D01*
X160194804Y-100313529D01*
X157194804Y-100313529D01*
X157194804Y-99579125D01*
X157194804Y-98844721D01*
X157419476Y-98821532D01*
X157728993Y-98750491D01*
X158016437Y-98607821D01*
X158271666Y-98401001D01*
X158484539Y-98137507D01*
X158583910Y-97963057D01*
X158734804Y-97657811D01*
X158748874Y-97007631D01*
X158762944Y-96357452D01*
X159728874Y-96345490D01*
X160031982Y-96341496D01*
X160266765Y-96337191D01*
X160444894Y-96331418D01*
X160578039Y-96323017D01*
X160677872Y-96310832D01*
X160756061Y-96293704D01*
X160824279Y-96270474D01*
X160894195Y-96239985D01*
X160921809Y-96227112D01*
X161225835Y-96042286D01*
X161474689Y-95800796D01*
X161663906Y-95507857D01*
X161770439Y-95236268D01*
X161828737Y-94905533D01*
X161812547Y-94576884D01*
X161726897Y-94261179D01*
X161576816Y-93969277D01*
X161367332Y-93712039D01*
X161103474Y-93500323D01*
X160919604Y-93398935D01*
X160846934Y-93365936D01*
X160779693Y-93340500D01*
X160706259Y-93321481D01*
X160615005Y-93307731D01*
X160494309Y-93298100D01*
X160332545Y-93291443D01*
X160118089Y-93286610D01*
X159839317Y-93282455D01*
X159724804Y-93280953D01*
X158754804Y-93268378D01*
X158754804Y-91610289D01*
X158754804Y-89952200D01*
X159802977Y-89962864D01*
G37*
G36*
X138650240Y-127086760D02*
G01*
X138888397Y-127143356D01*
X139095784Y-127256201D01*
X139181052Y-127324381D01*
X139279145Y-127425723D01*
X139365186Y-127540269D01*
X139421865Y-127642842D01*
X139434804Y-127693382D01*
X139401601Y-127721669D01*
X139315754Y-127770095D01*
X139227844Y-127813094D01*
X139020885Y-127908980D01*
X138865684Y-127732661D01*
X138698754Y-127592708D01*
X138517681Y-127526010D01*
X138333332Y-127529834D01*
X138156573Y-127601447D01*
X137998270Y-127738115D01*
X137869292Y-127937102D01*
X137845815Y-127989248D01*
X137801421Y-128161396D01*
X137785364Y-128375484D01*
X137796970Y-128598900D01*
X137835566Y-128799029D01*
X137864169Y-128878803D01*
X137982173Y-129066839D01*
X138137962Y-129202523D01*
X138317012Y-129282573D01*
X138504803Y-129303706D01*
X138686812Y-129262641D01*
X138848518Y-129156096D01*
X138890912Y-129110858D01*
X138961263Y-129035243D01*
X139011482Y-128995364D01*
X139018027Y-128993529D01*
X139077392Y-129015275D01*
X139168660Y-129069170D01*
X139267760Y-129138197D01*
X139350621Y-129205340D01*
X139393170Y-129253583D01*
X139394732Y-129259822D01*
X139363551Y-129320574D01*
X139282311Y-129407177D01*
X139169669Y-129504511D01*
X139044279Y-129597456D01*
X138924796Y-129670895D01*
X138844236Y-129705977D01*
X138651504Y-129740603D01*
X138418969Y-129748464D01*
X138181953Y-129730296D01*
X137979412Y-129687960D01*
X137782679Y-129592753D01*
X137592084Y-129439393D01*
X137427954Y-129248459D01*
X137310613Y-129040531D01*
X137292305Y-128992248D01*
X137240554Y-128767426D01*
X137217953Y-128502879D01*
X137224613Y-128231372D01*
X137260648Y-127985671D01*
X137288503Y-127886258D01*
X137423264Y-127600960D01*
X137610539Y-127375603D01*
X137847761Y-127212107D01*
X138132361Y-127112394D01*
X138363942Y-127081245D01*
X138650240Y-127086760D01*
G37*
G36*
X141815443Y-127019153D02*
G01*
X142100958Y-127119074D01*
X142341903Y-127280895D01*
X142533657Y-127499674D01*
X142671596Y-127770472D01*
X142751098Y-128088350D01*
X142769594Y-128353529D01*
X142765213Y-128543163D01*
X142747386Y-128686491D01*
X142709730Y-128816892D01*
X142656687Y-128944000D01*
X142493539Y-129213428D01*
X142274755Y-129427057D01*
X142039700Y-129565092D01*
X141853713Y-129622479D01*
X141626336Y-129655367D01*
X141388657Y-129662362D01*
X141171764Y-129642066D01*
X141045787Y-129609721D01*
X140854635Y-129507657D01*
X140662408Y-129350539D01*
X140491539Y-129159783D01*
X140366818Y-128961633D01*
X140316486Y-128852080D01*
X140283919Y-128754638D01*
X140265316Y-128646644D01*
X140256879Y-128505436D01*
X140254808Y-128308354D01*
X140254804Y-128293529D01*
X140254813Y-128292457D01*
X140789272Y-128292457D01*
X140817524Y-128542110D01*
X140897261Y-128776920D01*
X141026708Y-128979557D01*
X141183988Y-129119930D01*
X141338499Y-129180734D01*
X141526894Y-129196202D01*
X141717925Y-129167451D01*
X141880344Y-129095600D01*
X141881241Y-129094993D01*
X142031699Y-128947184D01*
X142135359Y-128751152D01*
X142191837Y-128523834D01*
X142200746Y-128282168D01*
X142161703Y-128043091D01*
X142074321Y-127823540D01*
X141938217Y-127640452D01*
X141914806Y-127618289D01*
X141722081Y-127490667D01*
X141516958Y-127437284D01*
X141311819Y-127458008D01*
X141119046Y-127552707D01*
X141031172Y-127627748D01*
X140894321Y-127817946D01*
X140814279Y-128045293D01*
X140789272Y-128292457D01*
X140254813Y-128292457D01*
X140256527Y-128093026D01*
X140264119Y-127950811D01*
X140281215Y-127845200D01*
X140311450Y-127754512D01*
X140358457Y-127657065D01*
X140362910Y-127648595D01*
X140541519Y-127390488D01*
X140770363Y-127192754D01*
X141043311Y-127058997D01*
X141354229Y-126992823D01*
X141489982Y-126986071D01*
X141815443Y-127019153D01*
G37*
G36*
X116104671Y-83104173D02*
G01*
X116465726Y-83224885D01*
X116823399Y-83417951D01*
X116853392Y-83437719D01*
X117183381Y-83697529D01*
X117438746Y-83985868D01*
X117619825Y-84303325D01*
X117726958Y-84650488D01*
X117760546Y-85015222D01*
X117734868Y-85331032D01*
X117653842Y-85615365D01*
X117509426Y-85891826D01*
X117415341Y-86028510D01*
X117173481Y-86293021D01*
X116888564Y-86492141D01*
X116567157Y-86623229D01*
X116215829Y-86683641D01*
X115841146Y-86670736D01*
X115824504Y-86668482D01*
X115578058Y-86611777D01*
X115307143Y-86513164D01*
X115044744Y-86386406D01*
X114841003Y-86258079D01*
X114537566Y-85993844D01*
X114300046Y-85699172D01*
X114130213Y-85381606D01*
X114029837Y-85048685D01*
X114000686Y-84707949D01*
X114013065Y-84611669D01*
X114698689Y-84611669D01*
X114723830Y-84856821D01*
X114803063Y-85076691D01*
X114946179Y-85297677D01*
X114959372Y-85314539D01*
X115183316Y-85546104D01*
X115444997Y-85730483D01*
X115729718Y-85861933D01*
X116022780Y-85934710D01*
X116309487Y-85943071D01*
X116485897Y-85911123D01*
X116677364Y-85820238D01*
X116850842Y-85667123D01*
X116986711Y-85469534D01*
X116997328Y-85448313D01*
X117067163Y-85221068D01*
X117066364Y-84990127D01*
X117003636Y-84762051D01*
X116887685Y-84543402D01*
X116727215Y-84340742D01*
X116530932Y-84160631D01*
X116307542Y-84009631D01*
X116065750Y-83894304D01*
X115814261Y-83821211D01*
X115561780Y-83796914D01*
X115317014Y-83827973D01*
X115088667Y-83920951D01*
X115024958Y-83961695D01*
X114881689Y-84104143D01*
X114770948Y-84294721D01*
X114707760Y-84503498D01*
X114698689Y-84611669D01*
X114013065Y-84611669D01*
X114044530Y-84366939D01*
X114163138Y-84033197D01*
X114272791Y-83836665D01*
X114502089Y-83546756D01*
X114771447Y-83322485D01*
X115073624Y-83164972D01*
X115401380Y-83075336D01*
X115747476Y-83054697D01*
X116104671Y-83104173D01*
G37*
G36*
X110822852Y-99720888D02*
G01*
X110939577Y-99758750D01*
X111170138Y-99872443D01*
X111354532Y-100027339D01*
X111496407Y-100230232D01*
X111599412Y-100487914D01*
X111667196Y-100807179D01*
X111702591Y-101179217D01*
X111726579Y-101624905D01*
X112375482Y-101603471D01*
X113024384Y-101582037D01*
X113053421Y-101930622D01*
X113064286Y-102089138D01*
X113068517Y-102214974D01*
X113065649Y-102288698D01*
X113062256Y-102299409D01*
X113020787Y-102303752D01*
X112909083Y-102310316D01*
X112736868Y-102318737D01*
X112513866Y-102328653D01*
X112249800Y-102339700D01*
X111954394Y-102351514D01*
X111637371Y-102363733D01*
X111308456Y-102375993D01*
X110977372Y-102387929D01*
X110653843Y-102399180D01*
X110347591Y-102409382D01*
X110068342Y-102418170D01*
X109825818Y-102425183D01*
X109629743Y-102430056D01*
X109508394Y-102432225D01*
X109456390Y-102429545D01*
X109423204Y-102409414D01*
X109402487Y-102356031D01*
X109387890Y-102253595D01*
X109374021Y-102097826D01*
X109360018Y-101852965D01*
X109356984Y-101685386D01*
X109994804Y-101685386D01*
X110324804Y-101659697D01*
X110514584Y-101647066D01*
X110705825Y-101637823D01*
X110859738Y-101633810D01*
X110870620Y-101633768D01*
X111086437Y-101633529D01*
X111064754Y-101240038D01*
X111036048Y-100953092D01*
X110982508Y-100736634D01*
X110899359Y-100583710D01*
X110781823Y-100487363D01*
X110625125Y-100440639D01*
X110510935Y-100433529D01*
X110332154Y-100453538D01*
X110195977Y-100518048D01*
X110098306Y-100633778D01*
X110035044Y-100807451D01*
X110002096Y-101045788D01*
X109994804Y-101280267D01*
X109994804Y-101685386D01*
X109356984Y-101685386D01*
X109355089Y-101580696D01*
X109358470Y-101297594D01*
X109359153Y-101280267D01*
X109369399Y-101020230D01*
X109387111Y-100765178D01*
X109410842Y-100549010D01*
X109439829Y-100388300D01*
X109455201Y-100336228D01*
X109581609Y-100099533D01*
X109763869Y-99910565D01*
X109990553Y-99773770D01*
X110250231Y-99693595D01*
X110531474Y-99674486D01*
X110822852Y-99720888D01*
G37*
G36*
X168586631Y-99836795D02*
G01*
X168586718Y-100000946D01*
X168573356Y-100121858D01*
X168553631Y-100174941D01*
X168505346Y-100216501D01*
X168404259Y-100292748D01*
X168263971Y-100393752D01*
X168098084Y-100509582D01*
X168051940Y-100541241D01*
X167870142Y-100666353D01*
X167744344Y-100757130D01*
X167664242Y-100823996D01*
X167619529Y-100877376D01*
X167599901Y-100927695D01*
X167595052Y-100985376D01*
X167594940Y-101003529D01*
X167594804Y-101153529D01*
X168074804Y-101153529D01*
X168554804Y-101153529D01*
X168554804Y-101433529D01*
X168554804Y-101713529D01*
X167504804Y-101705821D01*
X167207103Y-101703157D01*
X166921808Y-101699716D01*
X166663029Y-101695737D01*
X166444877Y-101691457D01*
X166281460Y-101687115D01*
X166200309Y-101683796D01*
X165945814Y-101669478D01*
X165966543Y-101153529D01*
X166425499Y-101153529D01*
X166794922Y-101153529D01*
X167164346Y-101153529D01*
X167147747Y-100774014D01*
X167128830Y-100535776D01*
X167092327Y-100366085D01*
X167032389Y-100254352D01*
X166943170Y-100189992D01*
X166818822Y-100162415D01*
X166809537Y-100161655D01*
X166686660Y-100166096D01*
X166597283Y-100212648D01*
X166554878Y-100253450D01*
X166509217Y-100309968D01*
X166479105Y-100375375D01*
X166460254Y-100468648D01*
X166448376Y-100608766D01*
X166441493Y-100755323D01*
X166425499Y-101153529D01*
X165966543Y-101153529D01*
X165973455Y-100981503D01*
X165984765Y-100744024D01*
X165998466Y-100524759D01*
X166013273Y-100340356D01*
X166027899Y-100207461D01*
X166037460Y-100153529D01*
X166131588Y-99920090D01*
X166275531Y-99749054D01*
X166467514Y-99641677D01*
X166705764Y-99599218D01*
X166816844Y-99600894D01*
X167040914Y-99637789D01*
X167223594Y-99722785D01*
X167375783Y-99864798D01*
X167508375Y-100072744D01*
X167579781Y-100225173D01*
X167612496Y-100207806D01*
X167699360Y-100152229D01*
X167828915Y-100066015D01*
X167989704Y-99956735D01*
X168079781Y-99894739D01*
X168574804Y-99552661D01*
X168586631Y-99836795D01*
G37*
G36*
X151244804Y-112378725D02*
G01*
X151291534Y-112408903D01*
X151398065Y-112479031D01*
X151558543Y-112585208D01*
X151767116Y-112723532D01*
X152017931Y-112890102D01*
X152305136Y-113081018D01*
X152622878Y-113292379D01*
X152965305Y-113520282D01*
X153326565Y-113760829D01*
X153700804Y-114010117D01*
X154082171Y-114264246D01*
X154464813Y-114519314D01*
X154842878Y-114771421D01*
X155210512Y-115016666D01*
X155561864Y-115251147D01*
X155891081Y-115470964D01*
X156192310Y-115672216D01*
X156459699Y-115851001D01*
X156687396Y-116003420D01*
X156869548Y-116125570D01*
X157000302Y-116213550D01*
X157073807Y-116263461D01*
X157087992Y-116273508D01*
X157072194Y-116310539D01*
X157008719Y-116395995D01*
X156905304Y-116520602D01*
X156769688Y-116675088D01*
X156609608Y-116850178D01*
X156582962Y-116878717D01*
X155983930Y-117489005D01*
X155325076Y-118106726D01*
X154623502Y-118717346D01*
X153896312Y-119306332D01*
X153160607Y-119859151D01*
X152674804Y-120199780D01*
X152525214Y-120299758D01*
X152345647Y-120417012D01*
X152147712Y-120544271D01*
X151943016Y-120674262D01*
X151743170Y-120799716D01*
X151559782Y-120913359D01*
X151404461Y-121007920D01*
X151288817Y-121076128D01*
X151224457Y-121110710D01*
X151216038Y-121113529D01*
X151213204Y-121074381D01*
X151210482Y-120960350D01*
X151207894Y-120776552D01*
X151205468Y-120528103D01*
X151203227Y-120220118D01*
X151201195Y-119857715D01*
X151199399Y-119446010D01*
X151197862Y-118990119D01*
X151196610Y-118495158D01*
X151195667Y-117966244D01*
X151195059Y-117408492D01*
X151194809Y-116827020D01*
X151194804Y-116731168D01*
X151194966Y-116021684D01*
X151195480Y-115388464D01*
X151196391Y-114827773D01*
X151197739Y-114335875D01*
X151199570Y-113909034D01*
X151201924Y-113543515D01*
X151204846Y-113235584D01*
X151208378Y-112981504D01*
X151212563Y-112777539D01*
X151217444Y-112619955D01*
X151223064Y-112505016D01*
X151229466Y-112428987D01*
X151236692Y-112388131D01*
X151244787Y-112378715D01*
X151244804Y-112378725D01*
G37*
G36*
X161036809Y-117933794D02*
G01*
X161346434Y-118023836D01*
X161632549Y-118106253D01*
X161885862Y-118178431D01*
X162097083Y-118237753D01*
X162256920Y-118281605D01*
X162356082Y-118307371D01*
X162384804Y-118313256D01*
X162423073Y-118321164D01*
X162425395Y-118351389D01*
X162386401Y-118414572D01*
X162300727Y-118521355D01*
X162249206Y-118582147D01*
X162159783Y-118685924D01*
X162092723Y-118747777D01*
X162026218Y-118772293D01*
X161938464Y-118764059D01*
X161807652Y-118727662D01*
X161706323Y-118696337D01*
X161517843Y-118638270D01*
X161204210Y-119005899D01*
X161079722Y-119152940D01*
X160973471Y-119280534D01*
X160896825Y-119374887D01*
X160861312Y-119421939D01*
X160863441Y-119479731D01*
X160897148Y-119584722D01*
X160955137Y-119714189D01*
X160955186Y-119714285D01*
X161078324Y-119958221D01*
X160912839Y-120155875D01*
X160823365Y-120257658D01*
X160752510Y-120329009D01*
X160717738Y-120353529D01*
X160693893Y-120318873D01*
X160639479Y-120220379D01*
X160558696Y-120066258D01*
X160455747Y-119864721D01*
X160334833Y-119623978D01*
X160200157Y-119352239D01*
X160081660Y-119110530D01*
X159916844Y-118772566D01*
X159784480Y-118498763D01*
X159682214Y-118281251D01*
X159675963Y-118267067D01*
X160237308Y-118267067D01*
X160265016Y-118349958D01*
X160319702Y-118477443D01*
X160392786Y-118629508D01*
X160596992Y-119036435D01*
X160814783Y-118784982D01*
X160914871Y-118666909D01*
X160990993Y-118572324D01*
X161030700Y-118516874D01*
X161033689Y-118509833D01*
X160998529Y-118488884D01*
X160903035Y-118451779D01*
X160763716Y-118404611D01*
X160664804Y-118373665D01*
X160499421Y-118323078D01*
X160360061Y-118279874D01*
X160266523Y-118250220D01*
X160241692Y-118241886D01*
X160237308Y-118267067D01*
X159675963Y-118267067D01*
X159607692Y-118112160D01*
X159558561Y-117983619D01*
X159532468Y-117887757D01*
X159527058Y-117816705D01*
X159539978Y-117762591D01*
X159568876Y-117717546D01*
X159611396Y-117673698D01*
X159643136Y-117644066D01*
X159738814Y-117554604D01*
X161036809Y-117933794D01*
G37*
G36*
X166857368Y-90393598D02*
G01*
X166896071Y-90499741D01*
X166932393Y-90613053D01*
X167004896Y-90852578D01*
X166792124Y-91043150D01*
X166579353Y-91233721D01*
X166737785Y-91743625D01*
X166896218Y-92253529D01*
X167178322Y-92286502D01*
X167460426Y-92319475D01*
X167543991Y-92576502D01*
X167627557Y-92833529D01*
X167441180Y-92828110D01*
X167354002Y-92822208D01*
X167199293Y-92808193D01*
X166988976Y-92787292D01*
X166734972Y-92760729D01*
X166449206Y-92729729D01*
X166143598Y-92695519D01*
X166074804Y-92687674D01*
X165775099Y-92653026D01*
X165500491Y-92620600D01*
X165261235Y-92591660D01*
X165067587Y-92567472D01*
X164929804Y-92549300D01*
X164858144Y-92538410D01*
X164851021Y-92536734D01*
X164819751Y-92495192D01*
X164781275Y-92407167D01*
X164744922Y-92300772D01*
X164720020Y-92204114D01*
X164715899Y-92145305D01*
X164719284Y-92139754D01*
X164748556Y-92114423D01*
X165563328Y-92114423D01*
X165594362Y-92129544D01*
X165685539Y-92146313D01*
X165817070Y-92163008D01*
X165969171Y-92177908D01*
X166122052Y-92189290D01*
X166255929Y-92195433D01*
X166351013Y-92194615D01*
X166387271Y-92186126D01*
X166382620Y-92137211D01*
X166358964Y-92032774D01*
X166321135Y-91893657D01*
X166313071Y-91866126D01*
X166270040Y-91724719D01*
X166234986Y-91616613D01*
X166214414Y-91561711D01*
X166212691Y-91558949D01*
X166179720Y-91577409D01*
X166102588Y-91636513D01*
X165996487Y-91723267D01*
X165876609Y-91824676D01*
X165758144Y-91927744D01*
X165656286Y-92019476D01*
X165586225Y-92086877D01*
X165563328Y-92114423D01*
X164748556Y-92114423D01*
X164751885Y-92111542D01*
X164837516Y-92036562D01*
X164969196Y-91920949D01*
X165139946Y-91770838D01*
X165342784Y-91592365D01*
X165570732Y-91391666D01*
X165768951Y-91217049D01*
X166012091Y-91004453D01*
X166236512Y-90811378D01*
X166435183Y-90643628D01*
X166601075Y-90507010D01*
X166727155Y-90407329D01*
X166806395Y-90350391D01*
X166831494Y-90339676D01*
X166857368Y-90393598D01*
G37*
G36*
X129383922Y-72353366D02*
G01*
X129426534Y-72450471D01*
X129476551Y-72573389D01*
X129525451Y-72700278D01*
X129564713Y-72809293D01*
X129585815Y-72878588D01*
X129586589Y-72891859D01*
X129546955Y-72908965D01*
X129447846Y-72949154D01*
X129304299Y-73006388D01*
X129134804Y-73073274D01*
X128955683Y-73144201D01*
X128799849Y-73206948D01*
X128684821Y-73254393D01*
X128629933Y-73278486D01*
X128616276Y-73295169D01*
X128614146Y-73331178D01*
X128625904Y-73393349D01*
X128653910Y-73488517D01*
X128700523Y-73623520D01*
X128768104Y-73805191D01*
X128859013Y-74040367D01*
X128975608Y-74335883D01*
X129119933Y-74697780D01*
X129245114Y-75010937D01*
X129360421Y-75299892D01*
X129462590Y-75556434D01*
X129548362Y-75772349D01*
X129614473Y-75939426D01*
X129657663Y-76049452D01*
X129674668Y-76094215D01*
X129674804Y-76094775D01*
X129659428Y-76105885D01*
X129606917Y-76130203D01*
X129507693Y-76171751D01*
X129352178Y-76234550D01*
X129153633Y-76313567D01*
X128972462Y-76385401D01*
X128416445Y-74989051D01*
X128272808Y-74629101D01*
X128155203Y-74336844D01*
X128060466Y-74105489D01*
X127985429Y-73928247D01*
X127926929Y-73798328D01*
X127881799Y-73708944D01*
X127846874Y-73653303D01*
X127818988Y-73624618D01*
X127794976Y-73616098D01*
X127777615Y-73618854D01*
X127708564Y-73643760D01*
X127583748Y-73691593D01*
X127421539Y-73755224D01*
X127258918Y-73820050D01*
X127088041Y-73887513D01*
X126946972Y-73941015D01*
X126850569Y-73975071D01*
X126813760Y-73984310D01*
X126795110Y-73944960D01*
X126753877Y-73850127D01*
X126698045Y-73718258D01*
X126682219Y-73680412D01*
X126559951Y-73387295D01*
X126687377Y-73334269D01*
X126963203Y-73220578D01*
X127259264Y-73100461D01*
X127566545Y-72977398D01*
X127876030Y-72854869D01*
X128178702Y-72736353D01*
X128465546Y-72625329D01*
X128727546Y-72525277D01*
X128955685Y-72439677D01*
X129140949Y-72372007D01*
X129274320Y-72325747D01*
X129346784Y-72304377D01*
X129357236Y-72303921D01*
X129383922Y-72353366D01*
G37*
G36*
X163414804Y-84682617D02*
G01*
X163634828Y-84703375D01*
X163805324Y-84747190D01*
X163955883Y-84826578D01*
X164116094Y-84954059D01*
X164167988Y-85001257D01*
X164263680Y-85103954D01*
X164373444Y-85243896D01*
X164489093Y-85407690D01*
X164602439Y-85581945D01*
X164705293Y-85753267D01*
X164789468Y-85908263D01*
X164846775Y-86033540D01*
X164869027Y-86115705D01*
X164862974Y-86138035D01*
X164818603Y-86168339D01*
X164716869Y-86232450D01*
X164567908Y-86324288D01*
X164381858Y-86437774D01*
X164168855Y-86566829D01*
X163939036Y-86705374D01*
X163702536Y-86847330D01*
X163469493Y-86986616D01*
X163250044Y-87117155D01*
X163054324Y-87232867D01*
X162892471Y-87327672D01*
X162774621Y-87395491D01*
X162710910Y-87430246D01*
X162702847Y-87433529D01*
X162676165Y-87401178D01*
X162617905Y-87313096D01*
X162536660Y-87182733D01*
X162441019Y-87023543D01*
X162441011Y-87023529D01*
X162267715Y-86719214D01*
X162140202Y-86465427D01*
X162055101Y-86249573D01*
X162009042Y-86059059D01*
X161999605Y-85897558D01*
X162535269Y-85897558D01*
X162535674Y-86122612D01*
X162549750Y-86186993D01*
X162587012Y-86297075D01*
X162641707Y-86425497D01*
X162703179Y-86551031D01*
X162760774Y-86652449D01*
X162803837Y-86708524D01*
X162814026Y-86713529D01*
X162851504Y-86693860D01*
X162947020Y-86638942D01*
X163090146Y-86554907D01*
X163270453Y-86447889D01*
X163477515Y-86324019D01*
X163531849Y-86291372D01*
X164233822Y-85869215D01*
X164166745Y-85761372D01*
X163977913Y-85503112D01*
X163781142Y-85324045D01*
X163574888Y-85223623D01*
X163357607Y-85201295D01*
X163127754Y-85256511D01*
X162969019Y-85334810D01*
X162755755Y-85495907D01*
X162609900Y-85686073D01*
X162535269Y-85897558D01*
X161999605Y-85897558D01*
X161998655Y-85881292D01*
X162020569Y-85703680D01*
X162053023Y-85573732D01*
X162101379Y-85437137D01*
X162167610Y-85319849D01*
X162268420Y-85196380D01*
X162367897Y-85093231D01*
X162595304Y-84894980D01*
X162820291Y-84765363D01*
X163063321Y-84696354D01*
X163344852Y-84679928D01*
X163414804Y-84682617D01*
G37*
G36*
X162423014Y-114656170D02*
G01*
X162638320Y-114739180D01*
X162832699Y-114893024D01*
X162860912Y-114923818D01*
X162999990Y-115132687D01*
X163062114Y-115358432D01*
X163057991Y-115557962D01*
X163032048Y-115753529D01*
X163636393Y-115753529D01*
X164240738Y-115753529D01*
X164066412Y-116003529D01*
X163892087Y-116253529D01*
X163305416Y-116264587D01*
X162718744Y-116275645D01*
X162636774Y-116390761D01*
X162581978Y-116476728D01*
X162555814Y-116535532D01*
X162555431Y-116539703D01*
X162587178Y-116574091D01*
X162672622Y-116640942D01*
X162797890Y-116729893D01*
X162916814Y-116809586D01*
X163066112Y-116908972D01*
X163189245Y-116994127D01*
X163271414Y-117054620D01*
X163297555Y-117077981D01*
X163288367Y-117127068D01*
X163243848Y-117215638D01*
X163178892Y-117320905D01*
X163108395Y-117420084D01*
X163047251Y-117490389D01*
X163014804Y-117510526D01*
X162972310Y-117488539D01*
X162872704Y-117427319D01*
X162724973Y-117332695D01*
X162538108Y-117210493D01*
X162321098Y-117066541D01*
X162082932Y-116906667D01*
X162074804Y-116901178D01*
X161828535Y-116734785D01*
X161596667Y-116577962D01*
X161389707Y-116437829D01*
X161218162Y-116321504D01*
X161092541Y-116236106D01*
X161025685Y-116190371D01*
X160876567Y-116087346D01*
X161024431Y-115867766D01*
X161594804Y-115867766D01*
X161625222Y-115904550D01*
X161703874Y-115971139D01*
X161811855Y-116053832D01*
X161930260Y-116138931D01*
X162040185Y-116212736D01*
X162122726Y-116261548D01*
X162154755Y-116273529D01*
X162189139Y-116243790D01*
X162232955Y-116183529D01*
X162381431Y-115942765D01*
X162483399Y-115754698D01*
X162541403Y-115608825D01*
X162557986Y-115494644D01*
X162535692Y-115401653D01*
X162477063Y-115319350D01*
X162448963Y-115291619D01*
X162310855Y-115209871D01*
X162163303Y-115202793D01*
X162044508Y-115255233D01*
X161980833Y-115315473D01*
X161894184Y-115416906D01*
X161798564Y-115540461D01*
X161707974Y-115667068D01*
X161636416Y-115777654D01*
X161597892Y-115853149D01*
X161594804Y-115867766D01*
X161024431Y-115867766D01*
X161238119Y-115550437D01*
X161403992Y-115306750D01*
X161536015Y-115120663D01*
X161643036Y-114982126D01*
X161733903Y-114881088D01*
X161817465Y-114807498D01*
X161902571Y-114751305D01*
X161975014Y-114713427D01*
X162198130Y-114646687D01*
X162423014Y-114656170D01*
G37*
G36*
X134272546Y-71047193D02*
G01*
X134304222Y-71085339D01*
X134335124Y-71174065D01*
X134372166Y-71327457D01*
X134372659Y-71329675D01*
X134402210Y-71477604D01*
X134419449Y-71595082D01*
X134421378Y-71660663D01*
X134419617Y-71665741D01*
X134374617Y-71685810D01*
X134266819Y-71716403D01*
X134112081Y-71753453D01*
X133926262Y-71792895D01*
X133914765Y-71795190D01*
X133726112Y-71833823D01*
X133565981Y-71868688D01*
X133450789Y-71896066D01*
X133396952Y-71912239D01*
X133396192Y-71912670D01*
X133396491Y-71955212D01*
X133412209Y-72067191D01*
X133441722Y-72239880D01*
X133483408Y-72464551D01*
X133535643Y-72732479D01*
X133596803Y-73034936D01*
X133665264Y-73363195D01*
X133671718Y-73393659D01*
X133740994Y-73723307D01*
X133803644Y-74027434D01*
X133857983Y-74297396D01*
X133902326Y-74524550D01*
X133934991Y-74700254D01*
X133954293Y-74815864D01*
X133958546Y-74862738D01*
X133958109Y-74863301D01*
X133911014Y-74875656D01*
X133804862Y-74900399D01*
X133658815Y-74933114D01*
X133587000Y-74948863D01*
X133239197Y-75024652D01*
X133180399Y-74759090D01*
X133157043Y-74651567D01*
X133119969Y-74478374D01*
X133071856Y-74252143D01*
X133015383Y-73985506D01*
X132953230Y-73691094D01*
X132888077Y-73381540D01*
X132873789Y-73313529D01*
X132810855Y-73016878D01*
X132752121Y-72745744D01*
X132699818Y-72509983D01*
X132656178Y-72319452D01*
X132623432Y-72184008D01*
X132603811Y-72113507D01*
X132600389Y-72105922D01*
X132553968Y-72103799D01*
X132444857Y-72117409D01*
X132288285Y-72144353D01*
X132099480Y-72182234D01*
X132054804Y-72191868D01*
X131832770Y-72237114D01*
X131661981Y-72265175D01*
X131551397Y-72274819D01*
X131510708Y-72266667D01*
X131492050Y-72210929D01*
X131467676Y-72105756D01*
X131441861Y-71974861D01*
X131418883Y-71841957D01*
X131403019Y-71730756D01*
X131398545Y-71664971D01*
X131400711Y-71656823D01*
X131441744Y-71646148D01*
X131552097Y-71620977D01*
X131722801Y-71583260D01*
X131944884Y-71534951D01*
X132209377Y-71478003D01*
X132507310Y-71414368D01*
X132787955Y-71354828D01*
X133110807Y-71286441D01*
X133410739Y-71222718D01*
X133678276Y-71165686D01*
X133903941Y-71117374D01*
X134078258Y-71079808D01*
X134191751Y-71055019D01*
X134233180Y-71045543D01*
X134272546Y-71047193D01*
G37*
G36*
X118693112Y-79498472D02*
G01*
X118741164Y-79509657D01*
X118907524Y-79554652D01*
X118820746Y-79884090D01*
X118777260Y-80043516D01*
X118744240Y-80139599D01*
X118713058Y-80186683D01*
X118675081Y-80199112D01*
X118634386Y-80193817D01*
X118535519Y-80182134D01*
X118397949Y-80174913D01*
X118327710Y-80173817D01*
X118168040Y-80188881D01*
X118033773Y-80242425D01*
X117904396Y-80346228D01*
X117777119Y-80489959D01*
X117711944Y-80578417D01*
X117675197Y-80659850D01*
X117658990Y-80762614D01*
X117655436Y-80915066D01*
X117655455Y-80927371D01*
X117661801Y-81100247D01*
X117685782Y-81230671D01*
X117736220Y-81355703D01*
X117774921Y-81429241D01*
X117922333Y-81646157D01*
X118117956Y-81862944D01*
X118337294Y-82055790D01*
X118555852Y-82200886D01*
X118583604Y-82215337D01*
X118741026Y-82284596D01*
X118885536Y-82320276D01*
X119059522Y-82332085D01*
X119094804Y-82332415D01*
X119339155Y-82310439D01*
X119535564Y-82236120D01*
X119703528Y-82100149D01*
X119785660Y-82002569D01*
X119840233Y-81923256D01*
X119872740Y-81846355D01*
X119888635Y-81747702D01*
X119893373Y-81603134D01*
X119893361Y-81525506D01*
X119891918Y-81191819D01*
X120157673Y-81112674D01*
X120297285Y-81072889D01*
X120408508Y-81044470D01*
X120467404Y-81033529D01*
X120467574Y-81033529D01*
X120510618Y-81070596D01*
X120547462Y-81170165D01*
X120574715Y-81314789D01*
X120588986Y-81487018D01*
X120587865Y-81652379D01*
X120554315Y-81902665D01*
X120475735Y-82126804D01*
X120342601Y-82345184D01*
X120165425Y-82556725D01*
X119892150Y-82799390D01*
X119590448Y-82971757D01*
X119268121Y-83071406D01*
X118932967Y-83095923D01*
X118594804Y-83043436D01*
X118258125Y-82914562D01*
X117930119Y-82718690D01*
X117624990Y-82468630D01*
X117356943Y-82177190D01*
X117140182Y-81857183D01*
X117030518Y-81632693D01*
X116982323Y-81494272D01*
X116953631Y-81348555D01*
X116940107Y-81167617D01*
X116937490Y-81033529D01*
X116938514Y-80847147D01*
X116948333Y-80713022D01*
X116972362Y-80603480D01*
X117016018Y-80490848D01*
X117063220Y-80391128D01*
X117202749Y-80165231D01*
X117391232Y-79942005D01*
X117605334Y-79745557D01*
X117821717Y-79599994D01*
X117836587Y-79592210D01*
X118018835Y-79527405D01*
X118244543Y-79488153D01*
X118480404Y-79477496D01*
X118693112Y-79498472D01*
G37*
G36*
X152964344Y-123559678D02*
G01*
X153097436Y-123598640D01*
X153209676Y-123649375D01*
X153240100Y-123669774D01*
X153326317Y-123739588D01*
X153189500Y-123942750D01*
X153112310Y-124053457D01*
X153060584Y-124108282D01*
X153016362Y-124118528D01*
X152961681Y-124095501D01*
X152953743Y-124091138D01*
X152775478Y-124034928D01*
X152587419Y-124047159D01*
X152408158Y-124121479D01*
X152256282Y-124251531D01*
X152186114Y-124353529D01*
X152125970Y-124541343D01*
X152126507Y-124755846D01*
X152180834Y-124980903D01*
X152282059Y-125200375D01*
X152423292Y-125398128D01*
X152597641Y-125558024D01*
X152734804Y-125638375D01*
X152938223Y-125702348D01*
X153132812Y-125696333D01*
X153340584Y-125619550D01*
X153346133Y-125616719D01*
X153508208Y-125531930D01*
X153608177Y-125468816D01*
X153655022Y-125412358D01*
X153657725Y-125347534D01*
X153625266Y-125259326D01*
X153596735Y-125197653D01*
X153538072Y-125086223D01*
X153486639Y-125012082D01*
X153461480Y-124993529D01*
X153406120Y-125012403D01*
X153309937Y-125060400D01*
X153251883Y-125093126D01*
X153081933Y-125192723D01*
X152978368Y-125016003D01*
X152919377Y-124911644D01*
X152881871Y-124838186D01*
X152874804Y-124818658D01*
X152907341Y-124791923D01*
X152993708Y-124737240D01*
X153117040Y-124664103D01*
X153260471Y-124582010D01*
X153407135Y-124500454D01*
X153540168Y-124428932D01*
X153642702Y-124376940D01*
X153697872Y-124353973D01*
X153700791Y-124353614D01*
X153730669Y-124386956D01*
X153790736Y-124478867D01*
X153873651Y-124617268D01*
X153972070Y-124790079D01*
X154030124Y-124895372D01*
X154325445Y-125437045D01*
X154230124Y-125539617D01*
X154114785Y-125645180D01*
X153951487Y-125771069D01*
X153763430Y-125901054D01*
X153573813Y-126018905D01*
X153442793Y-126090442D01*
X153172426Y-126187715D01*
X152889020Y-126221143D01*
X152616057Y-126188857D01*
X152530946Y-126162989D01*
X152277105Y-126039158D01*
X152056605Y-125858322D01*
X151862765Y-125613431D01*
X151688904Y-125297437D01*
X151668503Y-125253163D01*
X151615193Y-125108456D01*
X151586734Y-124951731D01*
X151577466Y-124750711D01*
X151577388Y-124733529D01*
X151580902Y-124558255D01*
X151597021Y-124431595D01*
X151632552Y-124322373D01*
X151693859Y-124200220D01*
X151863620Y-123963200D01*
X152080216Y-123771667D01*
X152328924Y-123633042D01*
X152595021Y-123554748D01*
X152863787Y-123544207D01*
X152964344Y-123559678D01*
G37*
G36*
X165549635Y-87346964D02*
G01*
X165600773Y-87433444D01*
X165644444Y-87522736D01*
X165739376Y-87731944D01*
X165209766Y-88622736D01*
X165068680Y-88861765D01*
X164943865Y-89076558D01*
X164840394Y-89258112D01*
X164763336Y-89397426D01*
X164717761Y-89485498D01*
X164708021Y-89513529D01*
X164751330Y-89497815D01*
X164856186Y-89453943D01*
X165011287Y-89386817D01*
X165205332Y-89301341D01*
X165427019Y-89202420D01*
X165483929Y-89176841D01*
X166231972Y-88840153D01*
X166334384Y-89063851D01*
X166386554Y-89187567D01*
X166418774Y-89283312D01*
X166424381Y-89324797D01*
X166387511Y-89346791D01*
X166288275Y-89396648D01*
X166137297Y-89469487D01*
X165945201Y-89560422D01*
X165722612Y-89664572D01*
X165480153Y-89777054D01*
X165228449Y-89892984D01*
X164978124Y-90007479D01*
X164739803Y-90115656D01*
X164524110Y-90212632D01*
X164341669Y-90293524D01*
X164203104Y-90353448D01*
X164119040Y-90387523D01*
X164099109Y-90393529D01*
X164077321Y-90360050D01*
X164033147Y-90272337D01*
X163976925Y-90151082D01*
X163924503Y-90017695D01*
X163894208Y-89906884D01*
X163892139Y-89846048D01*
X163919227Y-89794243D01*
X163981261Y-89685081D01*
X164071770Y-89529649D01*
X164184283Y-89339033D01*
X164312326Y-89124319D01*
X164354804Y-89053529D01*
X164486395Y-88833526D01*
X164604492Y-88634133D01*
X164702622Y-88466436D01*
X164774315Y-88341521D01*
X164813097Y-88270474D01*
X164817460Y-88261028D01*
X164792244Y-88253017D01*
X164698165Y-88280531D01*
X164537591Y-88342676D01*
X164312889Y-88438561D01*
X164130491Y-88519947D01*
X163885169Y-88630263D01*
X163702288Y-88710286D01*
X163571704Y-88763356D01*
X163483270Y-88792813D01*
X163426842Y-88801997D01*
X163392274Y-88794246D01*
X163369420Y-88772901D01*
X163367971Y-88770949D01*
X163325004Y-88696386D01*
X163276665Y-88590714D01*
X163232821Y-88479191D01*
X163203338Y-88387073D01*
X163198083Y-88339617D01*
X163199029Y-88338486D01*
X163241246Y-88317024D01*
X163345557Y-88268548D01*
X163501165Y-88197834D01*
X163697278Y-88109654D01*
X163923099Y-88008783D01*
X164167834Y-87899993D01*
X164420688Y-87788059D01*
X164670867Y-87677755D01*
X164907576Y-87573854D01*
X165120021Y-87481129D01*
X165297406Y-87404356D01*
X165428937Y-87348306D01*
X165503819Y-87317754D01*
X165516751Y-87313529D01*
X165549635Y-87346964D01*
G37*
G36*
X168510291Y-102747705D02*
G01*
X168503706Y-102830282D01*
X168496694Y-102877510D01*
X168467940Y-103066136D01*
X168444322Y-103191995D01*
X168415469Y-103270802D01*
X168371016Y-103318272D01*
X168300593Y-103350121D01*
X168193834Y-103382065D01*
X168156633Y-103392984D01*
X167887220Y-103473218D01*
X167839212Y-103883373D01*
X167816603Y-104070688D01*
X167794826Y-104241037D01*
X167777007Y-104370404D01*
X167769481Y-104418577D01*
X167762806Y-104489488D01*
X167782347Y-104541908D01*
X167842532Y-104593965D01*
X167957791Y-104663783D01*
X167970435Y-104671029D01*
X168089576Y-104742709D01*
X168178855Y-104802948D01*
X168216002Y-104835468D01*
X168227269Y-104897797D01*
X168223705Y-105003375D01*
X168209062Y-105126839D01*
X168187089Y-105242830D01*
X168161537Y-105325984D01*
X168139637Y-105351899D01*
X168095852Y-105331533D01*
X167991963Y-105274436D01*
X167836237Y-105185417D01*
X167636940Y-105069282D01*
X167402340Y-104930841D01*
X167140703Y-104774900D01*
X166934804Y-104651219D01*
X165774804Y-103952168D01*
X165776018Y-103866423D01*
X166612011Y-103866423D01*
X166638301Y-103893824D01*
X166703735Y-103938797D01*
X166817868Y-104008728D01*
X166990256Y-104111000D01*
X167014804Y-104125496D01*
X167140900Y-104196910D01*
X167242445Y-104248874D01*
X167297806Y-104270333D01*
X167298273Y-104270374D01*
X167324199Y-104235053D01*
X167352413Y-104137089D01*
X167378240Y-103993535D01*
X167382359Y-103963529D01*
X167399923Y-103815505D01*
X167410016Y-103701444D01*
X167410941Y-103641613D01*
X167409663Y-103637635D01*
X167368263Y-103640286D01*
X167270350Y-103659967D01*
X167136262Y-103691480D01*
X166986334Y-103729623D01*
X166840902Y-103769196D01*
X166720304Y-103804999D01*
X166644875Y-103831832D01*
X166638640Y-103834799D01*
X166615310Y-103849210D01*
X166612011Y-103866423D01*
X165776018Y-103866423D01*
X165777351Y-103772300D01*
X165786670Y-103655587D01*
X165807134Y-103573279D01*
X165817351Y-103556980D01*
X165863445Y-103537254D01*
X165976902Y-103497688D01*
X166148412Y-103441267D01*
X166368662Y-103370976D01*
X166628343Y-103289800D01*
X166918143Y-103200724D01*
X167114804Y-103141044D01*
X167420919Y-103048397D01*
X167704715Y-102962109D01*
X167956530Y-102885147D01*
X168166704Y-102820478D01*
X168325577Y-102771072D01*
X168423487Y-102739896D01*
X168449336Y-102731025D01*
X168494010Y-102720317D01*
X168510291Y-102747705D01*
G37*
G36*
X155547586Y-121861462D02*
G01*
X155611390Y-121969076D01*
X155647980Y-122049911D01*
X155651352Y-122079113D01*
X155613653Y-122111266D01*
X155521949Y-122180149D01*
X155388111Y-122277103D01*
X155224013Y-122393470D01*
X155132234Y-122457685D01*
X154957490Y-122580344D01*
X154807124Y-122687672D01*
X154692937Y-122771106D01*
X154626730Y-122822082D01*
X154615213Y-122832866D01*
X154629412Y-122873385D01*
X154677428Y-122957261D01*
X154745331Y-123063662D01*
X154819192Y-123171754D01*
X154885081Y-123260706D01*
X154929070Y-123309683D01*
X154936600Y-123313529D01*
X154973109Y-123291656D01*
X155061931Y-123231844D01*
X155190388Y-123142799D01*
X155345799Y-123033226D01*
X155373504Y-123013529D01*
X155533849Y-122901068D01*
X155671306Y-122807818D01*
X155772590Y-122742563D01*
X155824420Y-122714086D01*
X155827170Y-122713529D01*
X155866249Y-122743628D01*
X155932547Y-122821080D01*
X155985141Y-122891913D01*
X156110878Y-123070298D01*
X155722841Y-123338108D01*
X155563154Y-123449250D01*
X155422784Y-123548658D01*
X155317819Y-123624830D01*
X155266792Y-123664123D01*
X155240512Y-123689507D01*
X155230026Y-123717848D01*
X155241076Y-123760265D01*
X155279408Y-123827873D01*
X155350764Y-123931790D01*
X155460889Y-124083133D01*
X155535881Y-124184941D01*
X155569577Y-124166851D01*
X155657848Y-124109601D01*
X155790048Y-124020360D01*
X155955534Y-123906300D01*
X156114773Y-123794941D01*
X156301850Y-123664347D01*
X156466309Y-123551514D01*
X156597048Y-123463901D01*
X156682965Y-123408965D01*
X156712327Y-123393529D01*
X156748474Y-123423543D01*
X156812756Y-123500791D01*
X156865055Y-123571791D01*
X156990706Y-123750054D01*
X156193062Y-124311791D01*
X155970493Y-124467617D01*
X155769142Y-124606842D01*
X155598326Y-124723163D01*
X155467365Y-124810281D01*
X155385577Y-124861892D01*
X155362364Y-124873529D01*
X155332165Y-124841980D01*
X155262043Y-124752537D01*
X155157723Y-124613005D01*
X155024930Y-124431187D01*
X154869387Y-124214887D01*
X154696821Y-123971912D01*
X154597192Y-123830394D01*
X154419971Y-123575405D01*
X154260364Y-123340962D01*
X154123571Y-123135086D01*
X154014793Y-122965797D01*
X153939227Y-122841119D01*
X153902075Y-122769070D01*
X153899938Y-122754745D01*
X153942951Y-122722045D01*
X154040126Y-122651954D01*
X154179905Y-122552692D01*
X154350726Y-122432478D01*
X154494804Y-122331739D01*
X154696087Y-122191108D01*
X154889184Y-122055700D01*
X155058203Y-121936696D01*
X155187253Y-121845273D01*
X155240100Y-121807434D01*
X155425396Y-121673621D01*
X155547586Y-121861462D01*
G37*
G36*
X113154333Y-103425740D02*
G01*
X113186035Y-103588658D01*
X113217570Y-103750467D01*
X113231513Y-103821897D01*
X113264409Y-103990266D01*
X112939606Y-104200054D01*
X112798897Y-104291012D01*
X112685411Y-104364511D01*
X112614578Y-104410553D01*
X112599020Y-104420802D01*
X112599703Y-104462302D01*
X112613924Y-104566829D01*
X112638785Y-104719117D01*
X112671385Y-104903900D01*
X112708825Y-105105912D01*
X112748205Y-105309888D01*
X112786625Y-105500561D01*
X112821185Y-105662665D01*
X112848986Y-105780935D01*
X112867127Y-105840105D01*
X112869247Y-105843411D01*
X112919816Y-105864666D01*
X113028413Y-105894830D01*
X113174382Y-105928355D01*
X113222023Y-105938169D01*
X113377503Y-105971472D01*
X113504161Y-106002505D01*
X113580171Y-106025801D01*
X113589449Y-106030219D01*
X113613698Y-106077564D01*
X113645533Y-106181251D01*
X113679980Y-106318618D01*
X113712067Y-106466998D01*
X113736820Y-106603728D01*
X113749265Y-106706143D01*
X113746995Y-106748191D01*
X113706744Y-106745342D01*
X113595975Y-106726516D01*
X113422228Y-106693259D01*
X113193042Y-106647117D01*
X112915958Y-106589636D01*
X112598513Y-106522361D01*
X112248248Y-106446838D01*
X111872703Y-106364614D01*
X111828083Y-106354765D01*
X111448978Y-106270497D01*
X111093608Y-106190511D01*
X110769640Y-106116603D01*
X110484739Y-106050567D01*
X110246573Y-105994202D01*
X110062808Y-105949301D01*
X109941110Y-105917661D01*
X109889148Y-105901079D01*
X109888083Y-105900319D01*
X109863436Y-105845450D01*
X109833880Y-105737573D01*
X109812092Y-105632896D01*
X109782962Y-105473159D01*
X110980670Y-105473159D01*
X111025392Y-105488587D01*
X111131170Y-105515333D01*
X111280486Y-105549694D01*
X111455820Y-105587966D01*
X111639650Y-105626445D01*
X111814459Y-105661427D01*
X111962725Y-105689210D01*
X112066929Y-105706088D01*
X112097782Y-105709321D01*
X112180760Y-105713529D01*
X112100798Y-105273529D01*
X112066153Y-105097805D01*
X112032927Y-104955445D01*
X112005160Y-104862270D01*
X111988454Y-104833529D01*
X111941391Y-104853344D01*
X111845125Y-104906803D01*
X111713804Y-104984926D01*
X111561577Y-105078733D01*
X111402591Y-105179244D01*
X111250996Y-105277480D01*
X111120940Y-105364460D01*
X111026570Y-105431205D01*
X110982037Y-105468735D01*
X110980670Y-105473159D01*
X109782962Y-105473159D01*
X109769380Y-105398682D01*
X110883261Y-104666105D01*
X111182002Y-104469570D01*
X111487731Y-104268332D01*
X111786577Y-104071528D01*
X112064672Y-103888294D01*
X112308146Y-103727766D01*
X112503130Y-103599083D01*
X112553596Y-103565740D01*
X113110050Y-103197952D01*
X113154333Y-103425740D01*
G37*
G36*
X150589120Y-124840974D02*
G01*
X150635303Y-124956379D01*
X150654880Y-125043013D01*
X150649120Y-125073669D01*
X150601722Y-125099882D01*
X150494166Y-125150138D01*
X150340347Y-125218217D01*
X150154164Y-125297899D01*
X150060859Y-125336994D01*
X149865864Y-125420562D01*
X149698559Y-125496836D01*
X149572353Y-125559345D01*
X149500657Y-125601616D01*
X149489590Y-125612690D01*
X149495024Y-125671842D01*
X149527494Y-125772662D01*
X149576342Y-125891178D01*
X149630908Y-126003418D01*
X149680533Y-126085410D01*
X149712285Y-126113529D01*
X149761874Y-126098674D01*
X149869640Y-126058099D01*
X150020310Y-125997788D01*
X150198609Y-125923723D01*
X150221360Y-125914100D01*
X150400119Y-125841308D01*
X150551775Y-125785139D01*
X150661677Y-125750614D01*
X150715176Y-125742754D01*
X150717360Y-125744100D01*
X150757297Y-125812532D01*
X150798761Y-125915418D01*
X150832971Y-126025060D01*
X150851145Y-126113764D01*
X150846858Y-126152547D01*
X150799388Y-126177242D01*
X150692937Y-126225071D01*
X150542772Y-126289378D01*
X150364161Y-126363507D01*
X150344804Y-126371416D01*
X150167771Y-126444852D01*
X150021219Y-126507956D01*
X149919124Y-126554539D01*
X149875460Y-126578412D01*
X149874804Y-126579548D01*
X149889052Y-126621602D01*
X149925207Y-126713304D01*
X149973382Y-126830891D01*
X150023689Y-126950602D01*
X150066242Y-127048673D01*
X150091153Y-127101342D01*
X150093153Y-127104341D01*
X150131326Y-127093116D01*
X150231203Y-127055312D01*
X150380874Y-126995668D01*
X150568426Y-126918922D01*
X150758949Y-126839489D01*
X151414804Y-126563824D01*
X151505682Y-126765797D01*
X151550497Y-126881576D01*
X151570328Y-126967365D01*
X151565682Y-126996895D01*
X151523152Y-127018591D01*
X151419450Y-127065499D01*
X151267125Y-127132304D01*
X151078725Y-127213695D01*
X150866801Y-127304357D01*
X150643900Y-127398979D01*
X150422574Y-127492246D01*
X150215369Y-127578846D01*
X150034836Y-127653465D01*
X149893524Y-127710791D01*
X149803982Y-127745511D01*
X149778561Y-127753529D01*
X149743638Y-127725910D01*
X149742203Y-127723529D01*
X149722111Y-127678992D01*
X149676173Y-127572263D01*
X149609332Y-127414987D01*
X149526534Y-127218808D01*
X149432725Y-126995370D01*
X149415207Y-126953529D01*
X149305576Y-126691830D01*
X149192556Y-126422529D01*
X149084998Y-126166683D01*
X148991754Y-125945347D01*
X148929349Y-125797682D01*
X148860238Y-125631778D01*
X148805842Y-125495830D01*
X148772010Y-125404833D01*
X148763983Y-125373759D01*
X148802311Y-125356616D01*
X148903993Y-125312891D01*
X149058634Y-125247006D01*
X149255840Y-125163383D01*
X149485216Y-125066441D01*
X149634804Y-125003367D01*
X150494804Y-124641053D01*
X150589120Y-124840974D01*
G37*
G36*
X163570972Y-111634922D02*
G01*
X163587843Y-111692150D01*
X163621260Y-111812089D01*
X163667220Y-111980139D01*
X163721716Y-112181696D01*
X163757084Y-112313529D01*
X163814957Y-112525553D01*
X163867524Y-112710115D01*
X163910685Y-112853436D01*
X163940345Y-112941737D01*
X163950209Y-112962869D01*
X163994685Y-112964714D01*
X164105614Y-112956199D01*
X164270353Y-112938950D01*
X164476258Y-112914592D01*
X164710686Y-112884750D01*
X164960992Y-112851050D01*
X165214534Y-112815117D01*
X165458668Y-112778577D01*
X165680750Y-112743056D01*
X165746367Y-112731951D01*
X165877930Y-112709317D01*
X165735864Y-112991423D01*
X165666817Y-113123604D01*
X165610374Y-113222610D01*
X165576480Y-113271252D01*
X165572650Y-113273529D01*
X165520896Y-113279331D01*
X165406301Y-113295134D01*
X165244705Y-113318533D01*
X165051947Y-113347123D01*
X164843866Y-113378498D01*
X164636302Y-113410254D01*
X164445094Y-113439985D01*
X164286080Y-113465286D01*
X164175101Y-113483751D01*
X164128389Y-113492837D01*
X164102949Y-113526731D01*
X164109609Y-113611149D01*
X164123859Y-113673277D01*
X164146398Y-113748419D01*
X164178910Y-113806404D01*
X164235515Y-113859186D01*
X164330335Y-113918715D01*
X164477491Y-113996942D01*
X164550273Y-114034160D01*
X164748340Y-114134413D01*
X164884676Y-114206698D01*
X164967302Y-114262232D01*
X165004234Y-114312231D01*
X165003491Y-114367910D01*
X164973091Y-114440485D01*
X164921053Y-114541171D01*
X164917606Y-114547977D01*
X164854711Y-114669805D01*
X164807028Y-114756998D01*
X164784486Y-114791429D01*
X164784228Y-114791449D01*
X164747845Y-114773069D01*
X164649240Y-114721983D01*
X164497018Y-114642683D01*
X164299782Y-114539662D01*
X164066137Y-114417409D01*
X163804687Y-114280418D01*
X163674804Y-114212301D01*
X163401546Y-114069153D01*
X163150475Y-113938022D01*
X162930511Y-113823535D01*
X162750574Y-113730320D01*
X162619583Y-113663005D01*
X162546458Y-113626217D01*
X162534804Y-113620853D01*
X162532803Y-113582407D01*
X162558676Y-113495861D01*
X162602647Y-113383703D01*
X162654941Y-113268419D01*
X162705782Y-113172498D01*
X162745395Y-113118426D01*
X162755343Y-113113529D01*
X162798827Y-113131037D01*
X162898362Y-113178747D01*
X163039288Y-113249438D01*
X163206950Y-113335886D01*
X163212322Y-113338690D01*
X163397024Y-113433057D01*
X163520987Y-113490639D01*
X163592789Y-113514592D01*
X163621006Y-113508073D01*
X163619944Y-113488690D01*
X163601491Y-113425957D01*
X163565651Y-113301011D01*
X163516642Y-113128670D01*
X163458684Y-112923749D01*
X163418419Y-112780844D01*
X163240420Y-112148159D01*
X163395565Y-111862237D01*
X163475955Y-111724551D01*
X163535239Y-111644765D01*
X163568108Y-111629757D01*
X163570972Y-111634922D01*
G37*
G36*
X121902987Y-76131348D02*
G01*
X121894176Y-76243300D01*
X121876986Y-76412452D01*
X121852593Y-76627766D01*
X121822172Y-76878204D01*
X121796785Y-77077251D01*
X121752631Y-77431028D01*
X121722155Y-77707899D01*
X121705398Y-77907382D01*
X121702401Y-78028995D01*
X121711825Y-78071687D01*
X121758826Y-78089104D01*
X121873007Y-78126683D01*
X122044964Y-78181468D01*
X122265288Y-78250505D01*
X122524574Y-78330836D01*
X122813416Y-78419507D01*
X122994068Y-78474593D01*
X123293168Y-78566784D01*
X123565596Y-78653091D01*
X123802446Y-78730508D01*
X123994816Y-78796029D01*
X124133802Y-78846651D01*
X124210499Y-78879368D01*
X124222873Y-78889321D01*
X124187659Y-78928502D01*
X124103198Y-79003303D01*
X123984089Y-79101134D01*
X123905932Y-79162653D01*
X123601387Y-79398798D01*
X122611594Y-79096163D01*
X122343655Y-79014561D01*
X122101060Y-78941293D01*
X121894256Y-78879464D01*
X121733690Y-78832179D01*
X121629809Y-78802544D01*
X121593469Y-78793529D01*
X121574421Y-78829747D01*
X121553504Y-78923879D01*
X121538102Y-79032481D01*
X121511068Y-79271433D01*
X121932936Y-79796816D01*
X122072550Y-79972609D01*
X122192658Y-80127510D01*
X122284984Y-80250544D01*
X122341249Y-80330736D01*
X122354804Y-80356140D01*
X122326168Y-80391827D01*
X122251699Y-80462371D01*
X122148552Y-80553310D01*
X122033883Y-80650182D01*
X121924848Y-80738525D01*
X121838601Y-80803878D01*
X121792299Y-80831778D01*
X121790380Y-80831939D01*
X121763027Y-80801269D01*
X121691491Y-80714398D01*
X121581092Y-80577966D01*
X121437156Y-80398612D01*
X121265004Y-80182977D01*
X121069959Y-79937701D01*
X120857344Y-79669424D01*
X120774804Y-79565046D01*
X120550950Y-79281758D01*
X120337756Y-79011874D01*
X120141441Y-78763271D01*
X119968221Y-78543827D01*
X119824315Y-78361420D01*
X119715939Y-78223925D01*
X119649312Y-78139222D01*
X119639436Y-78126615D01*
X119504069Y-77953486D01*
X119599436Y-77877892D01*
X119682239Y-77812054D01*
X119798886Y-77719064D01*
X119896505Y-77641118D01*
X120098206Y-77479938D01*
X120516505Y-78015399D01*
X120655452Y-78191673D01*
X120777643Y-78343683D01*
X120874571Y-78461086D01*
X120937728Y-78533539D01*
X120958049Y-78552194D01*
X120969362Y-78514717D01*
X120988386Y-78408895D01*
X121013460Y-78245833D01*
X121042924Y-78036636D01*
X121075117Y-77792409D01*
X121093540Y-77645931D01*
X121126937Y-77380626D01*
X121158564Y-77138162D01*
X121186690Y-76931127D01*
X121209585Y-76772112D01*
X121225517Y-76673705D01*
X121230295Y-76651294D01*
X121267031Y-76597413D01*
X121347607Y-76513629D01*
X121456884Y-76412643D01*
X121579723Y-76307152D01*
X121700987Y-76209855D01*
X121805536Y-76133452D01*
X121878233Y-76090641D01*
X121902242Y-76087634D01*
X121902987Y-76131348D01*
G37*
G36*
X110306102Y-93041107D02*
G01*
X110421930Y-93062548D01*
X110596636Y-93095912D01*
X110820448Y-93139261D01*
X111083592Y-93190654D01*
X111376296Y-93248152D01*
X111688787Y-93309816D01*
X112011292Y-93373705D01*
X112334039Y-93437880D01*
X112647254Y-93500402D01*
X112941165Y-93559331D01*
X113206000Y-93612728D01*
X113431984Y-93658653D01*
X113609346Y-93695166D01*
X113728313Y-93720328D01*
X113778830Y-93732106D01*
X113797423Y-93769189D01*
X113794090Y-93866376D01*
X113768442Y-94031295D01*
X113761676Y-94067444D01*
X113700495Y-94388455D01*
X112368194Y-94939536D01*
X112063823Y-95066449D01*
X111785494Y-95184464D01*
X111541235Y-95290027D01*
X111339074Y-95379580D01*
X111187039Y-95449570D01*
X111093159Y-95496441D01*
X111065348Y-95516548D01*
X111110856Y-95530749D01*
X111224590Y-95557874D01*
X111396223Y-95595704D01*
X111615427Y-95642020D01*
X111871876Y-95694605D01*
X112155240Y-95751239D01*
X112188190Y-95757735D01*
X112474803Y-95814798D01*
X112736461Y-95868109D01*
X112962662Y-95915430D01*
X113142905Y-95954524D01*
X113266687Y-95983155D01*
X113323508Y-95999086D01*
X113325143Y-95999919D01*
X113342300Y-96044904D01*
X113336344Y-96149552D01*
X113306702Y-96321288D01*
X113296657Y-96370186D01*
X113256651Y-96543722D01*
X113222061Y-96649883D01*
X113188059Y-96700633D01*
X113159704Y-96709512D01*
X113107879Y-96700928D01*
X112986025Y-96678013D01*
X112802502Y-96642419D01*
X112565670Y-96595795D01*
X112283887Y-96539794D01*
X111965512Y-96476067D01*
X111618906Y-96406265D01*
X111387831Y-96359512D01*
X111029143Y-96286301D01*
X110694786Y-96217075D01*
X110392898Y-96153591D01*
X110131617Y-96097605D01*
X109919080Y-96050873D01*
X109763424Y-96015153D01*
X109672788Y-95992200D01*
X109652592Y-95984956D01*
X109647302Y-95935528D01*
X109656823Y-95827073D01*
X109679105Y-95678765D01*
X109693948Y-95597934D01*
X109763571Y-95239486D01*
X110869187Y-94792468D01*
X111156743Y-94676003D01*
X111427418Y-94565996D01*
X111670274Y-94466921D01*
X111874372Y-94383253D01*
X112028772Y-94319468D01*
X112122537Y-94280041D01*
X112134804Y-94274700D01*
X112186735Y-94252930D01*
X112226559Y-94235394D01*
X112247291Y-94219919D01*
X112241950Y-94204334D01*
X112203551Y-94186466D01*
X112125113Y-94164143D01*
X111999652Y-94135192D01*
X111820185Y-94097442D01*
X111579731Y-94048719D01*
X111271305Y-93986852D01*
X111096883Y-93951812D01*
X110825530Y-93896840D01*
X110581270Y-93846642D01*
X110374690Y-93803452D01*
X110216378Y-93769504D01*
X110116921Y-93747032D01*
X110086558Y-93738617D01*
X110082498Y-93690006D01*
X110096614Y-93588280D01*
X110123657Y-93454908D01*
X110158380Y-93311358D01*
X110195534Y-93179097D01*
X110229870Y-93079594D01*
X110256142Y-93034318D01*
X110258925Y-93033529D01*
X110306102Y-93041107D01*
G37*
G36*
X138266064Y-70699907D02*
G01*
X138279528Y-70702925D01*
X138295162Y-70755258D01*
X138308897Y-70865286D01*
X138318077Y-71010706D01*
X138318876Y-71033529D01*
X138328292Y-71333529D01*
X137441285Y-71397124D01*
X137183704Y-71416250D01*
X136954117Y-71434552D01*
X136764125Y-71451003D01*
X136625329Y-71464575D01*
X136549331Y-71474239D01*
X136538619Y-71477124D01*
X136532598Y-71523610D01*
X136533270Y-71627989D01*
X136539216Y-71768565D01*
X136549018Y-71923644D01*
X136561258Y-72071532D01*
X136574517Y-72190533D01*
X136587378Y-72258952D01*
X136590139Y-72265266D01*
X136640453Y-72278052D01*
X136767062Y-72281069D01*
X136966871Y-72274377D01*
X137236781Y-72258034D01*
X137333544Y-72251067D01*
X137564278Y-72234768D01*
X137765940Y-72222124D01*
X137925605Y-72213815D01*
X138030352Y-72210519D01*
X138067114Y-72212506D01*
X138076601Y-72256587D01*
X138088560Y-72360362D01*
X138100770Y-72503666D01*
X138103687Y-72544562D01*
X138125430Y-72861788D01*
X137730117Y-72888891D01*
X137504782Y-72904403D01*
X137257268Y-72921538D01*
X137032446Y-72937188D01*
X136980920Y-72940794D01*
X136627037Y-72965593D01*
X136655383Y-73369561D01*
X136668754Y-73540553D01*
X136682188Y-73679284D01*
X136693817Y-73767989D01*
X136699727Y-73790655D01*
X136742414Y-73792671D01*
X136853640Y-73789109D01*
X137022181Y-73780575D01*
X137236816Y-73767679D01*
X137486322Y-73751029D01*
X137659902Y-73738627D01*
X137925618Y-73719686D01*
X138163402Y-73703732D01*
X138362095Y-73691434D01*
X138510539Y-73683457D01*
X138597575Y-73680468D01*
X138615917Y-73681500D01*
X138624635Y-73724123D01*
X138637330Y-73826748D01*
X138651648Y-73969624D01*
X138655706Y-74015069D01*
X138683658Y-74336609D01*
X137649231Y-74407587D01*
X137349865Y-74428213D01*
X137059067Y-74448402D01*
X136791945Y-74467095D01*
X136563608Y-74483232D01*
X136389164Y-74495750D01*
X136305794Y-74501899D01*
X136142282Y-74511138D01*
X136042976Y-74507563D01*
X135992883Y-74489678D01*
X135979522Y-74469381D01*
X135970938Y-74411090D01*
X135958624Y-74284862D01*
X135943210Y-74100491D01*
X135925326Y-73867773D01*
X135905602Y-73596501D01*
X135884668Y-73296471D01*
X135863155Y-72977477D01*
X135841693Y-72649313D01*
X135820912Y-72321774D01*
X135801442Y-72004655D01*
X135783914Y-71707750D01*
X135768957Y-71440854D01*
X135757203Y-71213762D01*
X135749280Y-71036267D01*
X135745820Y-70918165D01*
X135747453Y-70869251D01*
X135747835Y-70868608D01*
X135795017Y-70858028D01*
X135909855Y-70844220D01*
X136080559Y-70827954D01*
X136295336Y-70810003D01*
X136542395Y-70791137D01*
X136809946Y-70772129D01*
X137086196Y-70753750D01*
X137359354Y-70736773D01*
X137617628Y-70721968D01*
X137849228Y-70710107D01*
X138042362Y-70701962D01*
X138185237Y-70698305D01*
X138266064Y-70699907D01*
G37*
G36*
X165521381Y-105780003D02*
G01*
X165628847Y-105802354D01*
X165791305Y-105839139D01*
X165997517Y-105887587D01*
X166236247Y-105944929D01*
X166496257Y-106008396D01*
X166766310Y-106075219D01*
X167035169Y-106142627D01*
X167291595Y-106207851D01*
X167524352Y-106268122D01*
X167722203Y-106320671D01*
X167873909Y-106362727D01*
X167918463Y-106375784D01*
X167952213Y-106394326D01*
X167962478Y-106435585D01*
X167949745Y-106519129D01*
X167924672Y-106624212D01*
X167889010Y-106752845D01*
X167856043Y-106848948D01*
X167837785Y-106884755D01*
X167791080Y-106885658D01*
X167680804Y-106868139D01*
X167520542Y-106834933D01*
X167323874Y-106788777D01*
X167177861Y-106751804D01*
X166965277Y-106697762D01*
X166781057Y-106653426D01*
X166638491Y-106621795D01*
X166550873Y-106605867D01*
X166529468Y-106605530D01*
X166553287Y-106635035D01*
X166630289Y-106706413D01*
X166751174Y-106811578D01*
X166906643Y-106942446D01*
X167087395Y-107090931D01*
X167093183Y-107095632D01*
X167309583Y-107273597D01*
X167468564Y-107411020D01*
X167576634Y-107515463D01*
X167640297Y-107594486D01*
X167666060Y-107655649D01*
X167660429Y-107706513D01*
X167644191Y-107735952D01*
X167599230Y-107755082D01*
X167490818Y-107786455D01*
X167333963Y-107826699D01*
X167143676Y-107872442D01*
X166934965Y-107920312D01*
X166722840Y-107966935D01*
X166522310Y-108008940D01*
X166348385Y-108042954D01*
X166216074Y-108065605D01*
X166141779Y-108073529D01*
X166073577Y-108081178D01*
X166083785Y-108104097D01*
X166172294Y-108142244D01*
X166338993Y-108195577D01*
X166583772Y-108264052D01*
X166754833Y-108308977D01*
X166974746Y-108366538D01*
X167165026Y-108417905D01*
X167313277Y-108459604D01*
X167407099Y-108488158D01*
X167434804Y-108499581D01*
X167424926Y-108543030D01*
X167399205Y-108641026D01*
X167368245Y-108754132D01*
X167320749Y-108898099D01*
X167267131Y-108973872D01*
X167189159Y-108992335D01*
X167068599Y-108964372D01*
X167034804Y-108953157D01*
X166970442Y-108934492D01*
X166839741Y-108899154D01*
X166653917Y-108850085D01*
X166424189Y-108790225D01*
X166161774Y-108722514D01*
X165877892Y-108649892D01*
X165874804Y-108649105D01*
X165596370Y-108577985D01*
X165344364Y-108513234D01*
X165128874Y-108457473D01*
X164959989Y-108413328D01*
X164847798Y-108383420D01*
X164802390Y-108370372D01*
X164801983Y-108370166D01*
X164805180Y-108330228D01*
X164825617Y-108233469D01*
X164858979Y-108100106D01*
X164862193Y-108088026D01*
X164935223Y-107814830D01*
X165874644Y-107633559D01*
X166814065Y-107452289D01*
X166094434Y-106896965D01*
X165886540Y-106736415D01*
X165699770Y-106591943D01*
X165543482Y-106470808D01*
X165427031Y-106380266D01*
X165359776Y-106327575D01*
X165347399Y-106317585D01*
X165344574Y-106271385D01*
X165359970Y-106174023D01*
X165387464Y-106050542D01*
X165420929Y-105925983D01*
X165454241Y-105825389D01*
X165480145Y-105774854D01*
X165521381Y-105780003D01*
G37*
G36*
X115449256Y-111386981D02*
G01*
X115527621Y-111543313D01*
X115589617Y-111675744D01*
X115627228Y-111766647D01*
X115634804Y-111795114D01*
X115616447Y-111843823D01*
X115565253Y-111951136D01*
X115487035Y-112105611D01*
X115387603Y-112295809D01*
X115272771Y-112510289D01*
X115251909Y-112548760D01*
X114869015Y-113253529D01*
X114961074Y-113423529D01*
X115021450Y-113522740D01*
X115071536Y-113583990D01*
X115088283Y-113593529D01*
X115133887Y-113575747D01*
X115237435Y-113526582D01*
X115386290Y-113452304D01*
X115567811Y-113359183D01*
X115701554Y-113289298D01*
X115895591Y-113188338D01*
X116063235Y-113103301D01*
X116192524Y-113040078D01*
X116271497Y-113004558D01*
X116290410Y-112999298D01*
X116313022Y-113038551D01*
X116364275Y-113131285D01*
X116434843Y-113260565D01*
X116467885Y-113321482D01*
X116634626Y-113629436D01*
X116304715Y-113806581D01*
X116177249Y-113874618D01*
X115996847Y-113970345D01*
X115774014Y-114088234D01*
X115519256Y-114222756D01*
X115243079Y-114368383D01*
X114955989Y-114519589D01*
X114668493Y-114670844D01*
X114391095Y-114816620D01*
X114134302Y-114951391D01*
X113908621Y-115069626D01*
X113724556Y-115165800D01*
X113592615Y-115234383D01*
X113533098Y-115264939D01*
X113371392Y-115346692D01*
X112967072Y-114580110D01*
X112789759Y-114237294D01*
X112651631Y-113952506D01*
X112549780Y-113715740D01*
X112481301Y-113516993D01*
X112461116Y-113426337D01*
X113167173Y-113426337D01*
X113220503Y-113631019D01*
X113328119Y-113882063D01*
X113420856Y-114061290D01*
X113598841Y-114389051D01*
X114026822Y-114164650D01*
X114193960Y-114076541D01*
X114333943Y-114001853D01*
X114432248Y-113948396D01*
X114474352Y-113923982D01*
X114474483Y-113923876D01*
X114466876Y-113882811D01*
X114427046Y-113789840D01*
X114363838Y-113661709D01*
X114286099Y-113515166D01*
X114202677Y-113366957D01*
X114122418Y-113233828D01*
X114062323Y-113143683D01*
X113911797Y-112986343D01*
X113745055Y-112906503D01*
X113566580Y-112904919D01*
X113380856Y-112982346D01*
X113326473Y-113019543D01*
X113220801Y-113127692D01*
X113167486Y-113260926D01*
X113167173Y-113426337D01*
X112461116Y-113426337D01*
X112443287Y-113346261D01*
X112432830Y-113193538D01*
X112447024Y-113048820D01*
X112481226Y-112907866D01*
X112582737Y-112699908D01*
X112746858Y-112514330D01*
X112957431Y-112359533D01*
X113198296Y-112243920D01*
X113453295Y-112175890D01*
X113706268Y-112163847D01*
X113861922Y-112190010D01*
X113989735Y-112238600D01*
X114140555Y-112315617D01*
X114235942Y-112374294D01*
X114345703Y-112446836D01*
X114425664Y-112497201D01*
X114456168Y-112513529D01*
X114478476Y-112480134D01*
X114531083Y-112388129D01*
X114607189Y-112249784D01*
X114699997Y-112077366D01*
X114749845Y-111983529D01*
X114859874Y-111776059D01*
X114967334Y-111574385D01*
X115061673Y-111398249D01*
X115132337Y-111267391D01*
X115146952Y-111240627D01*
X115263708Y-111027726D01*
X115449256Y-111386981D01*
G37*
G36*
X113935221Y-107389838D02*
G01*
X113974723Y-107484649D01*
X114027087Y-107624036D01*
X114071041Y-107748364D01*
X114207278Y-108143193D01*
X113702549Y-108807263D01*
X113197820Y-109471332D01*
X113264940Y-109652430D01*
X113311888Y-109758021D01*
X113355952Y-109823282D01*
X113373431Y-109833520D01*
X113423954Y-109820900D01*
X113535631Y-109786138D01*
X113694231Y-109733872D01*
X113885523Y-109668743D01*
X113986933Y-109633520D01*
X114189831Y-109563688D01*
X114367809Y-109504483D01*
X114506391Y-109460562D01*
X114591099Y-109436586D01*
X114608444Y-109433529D01*
X114638648Y-109468394D01*
X114683537Y-109558884D01*
X114735342Y-109683841D01*
X114786293Y-109822107D01*
X114828618Y-109952523D01*
X114854546Y-110053931D01*
X114856308Y-110105172D01*
X114855484Y-110106182D01*
X114815258Y-110122462D01*
X114707165Y-110162068D01*
X114538974Y-110222258D01*
X114318452Y-110300292D01*
X114053367Y-110393427D01*
X113751487Y-110498923D01*
X113420579Y-110614038D01*
X113186535Y-110695169D01*
X112838462Y-110815729D01*
X112512427Y-110928791D01*
X112216490Y-111031549D01*
X111958710Y-111121198D01*
X111747146Y-111194934D01*
X111589860Y-111249953D01*
X111494909Y-111283450D01*
X111470481Y-111292335D01*
X111445167Y-111289261D01*
X111415110Y-111255580D01*
X111376779Y-111183169D01*
X111326647Y-111063906D01*
X111261184Y-110889667D01*
X111176862Y-110652331D01*
X111115038Y-110474209D01*
X110994575Y-110114517D01*
X110904250Y-109817593D01*
X110842124Y-109572917D01*
X110806259Y-109369971D01*
X110803777Y-109333053D01*
X111491418Y-109333053D01*
X111497883Y-109497722D01*
X111542924Y-109708955D01*
X111625757Y-109978120D01*
X111641165Y-110023529D01*
X111695720Y-110180566D01*
X111740273Y-110304519D01*
X111768901Y-110379148D01*
X111776095Y-110393529D01*
X111814669Y-110380959D01*
X111913687Y-110346717D01*
X112058243Y-110296003D01*
X112233431Y-110234016D01*
X112237024Y-110232740D01*
X112413832Y-110169096D01*
X112561199Y-110114453D01*
X112663803Y-110074604D01*
X112706322Y-110055342D01*
X112706370Y-110055295D01*
X112705211Y-110007984D01*
X112678719Y-109905644D01*
X112633404Y-109766637D01*
X112575775Y-109609325D01*
X112512341Y-109452069D01*
X112449610Y-109313231D01*
X112428461Y-109271311D01*
X112297303Y-109077318D01*
X112148501Y-108957829D01*
X111986140Y-108914362D01*
X111814302Y-108948435D01*
X111711302Y-109004729D01*
X111597344Y-109097927D01*
X111524311Y-109203578D01*
X111491418Y-109333053D01*
X110803777Y-109333053D01*
X110794713Y-109198236D01*
X110805547Y-109047193D01*
X110830232Y-108929693D01*
X110935554Y-108685597D01*
X111103710Y-108485334D01*
X111327585Y-108333915D01*
X111600065Y-108236351D01*
X111867260Y-108199368D01*
X112145017Y-108208096D01*
X112379531Y-108270679D01*
X112593060Y-108395037D01*
X112721023Y-108503217D01*
X112909495Y-108679510D01*
X113402149Y-108018247D01*
X113550928Y-107819712D01*
X113683623Y-107644851D01*
X113792861Y-107503197D01*
X113871270Y-107404286D01*
X113911478Y-107357650D01*
X113914804Y-107355260D01*
X113935221Y-107389838D01*
G37*
G36*
X117171932Y-114519308D02*
G01*
X117197656Y-114553807D01*
X117265069Y-114645222D01*
X117368578Y-114785937D01*
X117502586Y-114968339D01*
X117661499Y-115184812D01*
X117839720Y-115427743D01*
X117972612Y-115608973D01*
X118192276Y-115909783D01*
X118367539Y-116152837D01*
X118502326Y-116344133D01*
X118600561Y-116489668D01*
X118666168Y-116595442D01*
X118703071Y-116667453D01*
X118715194Y-116711700D01*
X118707930Y-116732956D01*
X118664886Y-116766583D01*
X118564439Y-116842089D01*
X118413782Y-116954157D01*
X118220105Y-117097469D01*
X117990601Y-117266707D01*
X117732462Y-117456553D01*
X117452878Y-117661688D01*
X117354804Y-117733540D01*
X117066074Y-117945072D01*
X116793284Y-118145087D01*
X116544161Y-118327907D01*
X116326430Y-118487855D01*
X116147818Y-118619254D01*
X116016051Y-118716428D01*
X115938857Y-118773699D01*
X115927699Y-118782095D01*
X115800595Y-118878606D01*
X115527699Y-118506653D01*
X115414721Y-118352765D01*
X115267689Y-118152641D01*
X115099975Y-117924474D01*
X114924951Y-117686454D01*
X114768748Y-117474114D01*
X114582746Y-117216722D01*
X114445101Y-117015962D01*
X114356655Y-116873155D01*
X114318251Y-116789623D01*
X114318958Y-116769177D01*
X114368514Y-116725000D01*
X114463707Y-116651668D01*
X114584010Y-116564990D01*
X114585014Y-116564288D01*
X114814804Y-116403752D01*
X115351439Y-117138031D01*
X115542554Y-117395559D01*
X115698433Y-117597159D01*
X115816823Y-117740104D01*
X115895470Y-117821669D01*
X115931439Y-117839734D01*
X115982489Y-117801624D01*
X116079099Y-117729684D01*
X116202619Y-117637799D01*
X116234804Y-117613871D01*
X116360564Y-117519882D01*
X116462361Y-117442887D01*
X116522303Y-117396443D01*
X116528747Y-117391113D01*
X116515496Y-117352758D01*
X116461920Y-117261625D01*
X116375762Y-117128883D01*
X116264766Y-116965702D01*
X116136676Y-116783252D01*
X115999236Y-116592701D01*
X115860189Y-116405221D01*
X115727280Y-116231979D01*
X115709019Y-116208756D01*
X115718648Y-116158200D01*
X115799506Y-116073593D01*
X115894136Y-115997543D01*
X116013865Y-115910123D01*
X116114171Y-115842185D01*
X116172328Y-115808944D01*
X116218304Y-115828041D01*
X116300123Y-115908759D01*
X116419660Y-116053221D01*
X116578791Y-116263550D01*
X116602437Y-116295776D01*
X116735296Y-116476995D01*
X116855888Y-116640767D01*
X116954327Y-116773716D01*
X117020722Y-116862468D01*
X117039488Y-116886947D01*
X117071185Y-116922512D01*
X117104948Y-116935576D01*
X117154972Y-116920606D01*
X117235450Y-116872069D01*
X117360578Y-116784430D01*
X117429488Y-116734899D01*
X117566558Y-116633233D01*
X117675112Y-116547058D01*
X117741209Y-116487772D01*
X117754804Y-116468917D01*
X117732018Y-116429098D01*
X117668048Y-116334397D01*
X117569474Y-116194109D01*
X117442877Y-116017528D01*
X117294837Y-115813948D01*
X117190955Y-115672529D01*
X117033576Y-115457946D01*
X116894275Y-115265780D01*
X116779413Y-115104991D01*
X116695351Y-114984539D01*
X116648451Y-114913385D01*
X116640955Y-114897774D01*
X116677147Y-114870526D01*
X116760798Y-114807274D01*
X116875614Y-114720340D01*
X116907250Y-114696372D01*
X117026500Y-114608747D01*
X117118741Y-114546112D01*
X117168053Y-114519117D01*
X117171932Y-114519308D01*
G37*
G36*
X125439086Y-73985609D02*
G01*
X125493010Y-74070922D01*
X125565844Y-74193071D01*
X125590097Y-74234876D01*
X125752306Y-74516223D01*
X125638676Y-74584876D01*
X125568517Y-74626152D01*
X125442065Y-74699456D01*
X125272518Y-74797182D01*
X125073075Y-74911722D01*
X124860325Y-75033529D01*
X124653679Y-75152882D01*
X124473173Y-75259471D01*
X124329497Y-75346790D01*
X124233344Y-75408332D01*
X124195404Y-75437590D01*
X124195203Y-75438295D01*
X124213827Y-75483671D01*
X124262910Y-75578453D01*
X124331575Y-75703550D01*
X124408944Y-75839875D01*
X124484140Y-75968338D01*
X124546287Y-76069851D01*
X124584508Y-76125326D01*
X124589309Y-76129931D01*
X124630502Y-76115987D01*
X124729236Y-76067725D01*
X124873998Y-75991218D01*
X125053271Y-75892534D01*
X125234804Y-75789663D01*
X125435627Y-75675213D01*
X125612330Y-75576036D01*
X125753332Y-75498507D01*
X125847050Y-75449004D01*
X125881346Y-75433684D01*
X125912281Y-75465809D01*
X125970879Y-75551267D01*
X126045968Y-75673449D01*
X126067866Y-75711007D01*
X126227844Y-75988485D01*
X125607466Y-76341007D01*
X125406247Y-76457270D01*
X125230082Y-76562711D01*
X125090548Y-76650104D01*
X124999222Y-76712222D01*
X124967946Y-76740192D01*
X124978279Y-76793523D01*
X125021532Y-76893520D01*
X125086935Y-77021252D01*
X125163721Y-77157787D01*
X125241122Y-77284192D01*
X125308369Y-77381536D01*
X125354693Y-77430888D01*
X125362309Y-77433529D01*
X125407204Y-77414368D01*
X125510982Y-77360637D01*
X125663355Y-77277961D01*
X125854038Y-77171966D01*
X126072744Y-77048277D01*
X126202984Y-76973749D01*
X126432189Y-76843773D01*
X126638784Y-76729903D01*
X126812610Y-76637470D01*
X126943509Y-76571807D01*
X127021321Y-76538244D01*
X127038005Y-76535507D01*
X127072527Y-76577461D01*
X127129101Y-76665459D01*
X127196300Y-76779210D01*
X127262696Y-76898423D01*
X127316863Y-77002806D01*
X127347374Y-77072068D01*
X127349402Y-77088470D01*
X127299558Y-77119437D01*
X127191958Y-77182479D01*
X127036597Y-77271968D01*
X126843466Y-77382275D01*
X126622559Y-77507772D01*
X126383869Y-77642831D01*
X126137388Y-77781823D01*
X125893110Y-77919120D01*
X125661027Y-78049094D01*
X125451133Y-78166117D01*
X125273420Y-78264559D01*
X125137882Y-78338794D01*
X125054510Y-78383192D01*
X125032301Y-78393529D01*
X124997591Y-78361319D01*
X124936152Y-78275950D01*
X124859897Y-78154310D01*
X124841835Y-78123529D01*
X124659469Y-77808062D01*
X124471586Y-77481524D01*
X124282325Y-77151237D01*
X124095824Y-76824525D01*
X123916222Y-76508709D01*
X123747658Y-76211114D01*
X123594272Y-75939062D01*
X123460201Y-75699876D01*
X123349585Y-75500878D01*
X123266563Y-75349392D01*
X123215274Y-75252740D01*
X123199783Y-75218281D01*
X123239578Y-75194072D01*
X123337999Y-75136615D01*
X123484932Y-75051686D01*
X123670266Y-74945059D01*
X123883891Y-74822509D01*
X124115693Y-74689812D01*
X124355563Y-74552742D01*
X124593388Y-74417073D01*
X124819056Y-74288582D01*
X125022457Y-74173042D01*
X125193477Y-74076229D01*
X125322007Y-74003917D01*
X125397934Y-73961882D01*
X125414314Y-73953529D01*
X125439086Y-73985609D01*
G37*
G36*
X113422084Y-86884515D02*
G01*
X113694364Y-86965749D01*
X113959570Y-87122398D01*
X114066532Y-87210814D01*
X114250724Y-87428396D01*
X114365030Y-87684577D01*
X114408767Y-87977816D01*
X114408861Y-87981596D01*
X114415894Y-88122367D01*
X114431798Y-88199797D01*
X114461382Y-88230444D01*
X114482028Y-88233399D01*
X114541368Y-88227240D01*
X114665999Y-88210031D01*
X114842290Y-88183800D01*
X115056609Y-88150576D01*
X115295325Y-88112387D01*
X115297242Y-88112076D01*
X115531867Y-88075026D01*
X115738249Y-88044427D01*
X115903872Y-88021973D01*
X116016219Y-88009355D01*
X116062775Y-88008266D01*
X116063130Y-88008522D01*
X116054938Y-88049931D01*
X116018506Y-88147173D01*
X115960268Y-88283982D01*
X115913100Y-88387854D01*
X115829683Y-88560340D01*
X115765772Y-88671910D01*
X115711698Y-88736137D01*
X115657792Y-88766594D01*
X115639987Y-88771221D01*
X115565337Y-88784781D01*
X115427821Y-88807918D01*
X115243632Y-88837977D01*
X115028963Y-88872301D01*
X114894804Y-88893441D01*
X114672117Y-88928681D01*
X114472644Y-88960889D01*
X114311862Y-88987518D01*
X114205246Y-89006021D01*
X114173459Y-89012218D01*
X114104869Y-89060159D01*
X114030555Y-89162235D01*
X114004004Y-89212067D01*
X113915893Y-89393427D01*
X114305348Y-89575572D01*
X114496749Y-89664673D01*
X114689825Y-89753854D01*
X114855559Y-89829743D01*
X114924804Y-89861086D01*
X115044086Y-89919007D01*
X115127221Y-89967615D01*
X115154804Y-89993997D01*
X115138693Y-90050352D01*
X115096879Y-90151993D01*
X115039139Y-90278710D01*
X114975250Y-90410293D01*
X114914987Y-90526530D01*
X114868127Y-90607212D01*
X114845813Y-90632753D01*
X114804221Y-90616261D01*
X114697520Y-90569365D01*
X114533117Y-90495441D01*
X114318422Y-90397866D01*
X114060842Y-90280018D01*
X113767787Y-90145272D01*
X113446663Y-89997007D01*
X113177852Y-89872468D01*
X112840631Y-89715875D01*
X112526494Y-89569749D01*
X112242721Y-89437495D01*
X111996596Y-89322520D01*
X111795400Y-89228229D01*
X111646415Y-89158027D01*
X111556924Y-89115321D01*
X111533062Y-89103244D01*
X111546713Y-89066134D01*
X111588711Y-88969494D01*
X111653139Y-88826085D01*
X111716235Y-88687789D01*
X112439625Y-88687789D01*
X112442173Y-88694231D01*
X112490706Y-88724044D01*
X112592419Y-88775999D01*
X112729627Y-88842014D01*
X112884642Y-88914008D01*
X113039780Y-88983899D01*
X113177355Y-89043606D01*
X113279681Y-89085047D01*
X113329072Y-89100140D01*
X113330135Y-89099989D01*
X113360667Y-89061428D01*
X113414210Y-88965767D01*
X113482025Y-88829333D01*
X113527257Y-88731751D01*
X113633566Y-88461508D01*
X113695672Y-88223489D01*
X113711828Y-88027682D01*
X113680289Y-87884075D01*
X113676728Y-87877125D01*
X113565489Y-87747046D01*
X113411467Y-87666590D01*
X113237914Y-87640228D01*
X113068080Y-87672432D01*
X112956129Y-87738551D01*
X112901138Y-87802985D01*
X112826369Y-87914601D01*
X112740344Y-88057553D01*
X112651584Y-88215997D01*
X112568611Y-88374088D01*
X112499946Y-88515980D01*
X112454110Y-88625829D01*
X112439625Y-88687789D01*
X111716235Y-88687789D01*
X111734083Y-88648669D01*
X111825629Y-88450006D01*
X111921861Y-88242860D01*
X112016865Y-88039991D01*
X112104726Y-87854161D01*
X112179529Y-87698132D01*
X112235359Y-87584666D01*
X112251330Y-87553529D01*
X112431799Y-87281704D01*
X112647588Y-87077289D01*
X112890217Y-86941886D01*
X113151209Y-86877094D01*
X113422084Y-86884515D01*
G37*
G36*
X144829797Y-71228219D02*
G01*
X144963746Y-71257649D01*
X145109631Y-71293816D01*
X145245867Y-71331378D01*
X145350869Y-71364991D01*
X145402538Y-71388835D01*
X145415939Y-71433027D01*
X145440580Y-71546294D01*
X145474594Y-71718791D01*
X145516114Y-71940674D01*
X145563272Y-72202099D01*
X145614202Y-72493221D01*
X145634828Y-72613529D01*
X145687122Y-72917797D01*
X145736442Y-73200016D01*
X145780866Y-73449562D01*
X145818474Y-73655812D01*
X145847347Y-73808144D01*
X145865563Y-73895934D01*
X145869076Y-73909476D01*
X145881393Y-73930474D01*
X145903414Y-73930952D01*
X145940003Y-73905220D01*
X145996024Y-73847585D01*
X146076338Y-73752356D01*
X146185811Y-73613841D01*
X146329305Y-73426348D01*
X146511683Y-73184185D01*
X146672272Y-72969476D01*
X146859809Y-72718354D01*
X147031611Y-72488389D01*
X147181938Y-72287257D01*
X147305051Y-72122634D01*
X147395210Y-72002195D01*
X147446676Y-71933616D01*
X147456586Y-71920566D01*
X147496990Y-71924235D01*
X147593233Y-71944761D01*
X147724335Y-71976667D01*
X147869317Y-72014476D01*
X148007198Y-72052711D01*
X148116997Y-72085897D01*
X148177735Y-72108556D01*
X148178637Y-72109048D01*
X148180698Y-72153745D01*
X148160939Y-72273571D01*
X148119288Y-72468822D01*
X148055678Y-72739796D01*
X147970038Y-73086790D01*
X147862300Y-73510101D01*
X147760248Y-73903529D01*
X147665299Y-74265286D01*
X147575993Y-74602022D01*
X147494424Y-74906088D01*
X147422688Y-75169838D01*
X147362880Y-75385624D01*
X147317094Y-75545799D01*
X147287426Y-75642715D01*
X147276414Y-75669641D01*
X147230162Y-75658426D01*
X147126429Y-75632077D01*
X146985141Y-75595667D01*
X146941517Y-75584349D01*
X146793469Y-75541114D01*
X146678355Y-75498544D01*
X146615980Y-75464245D01*
X146610719Y-75457309D01*
X146615522Y-75407189D01*
X146638452Y-75291137D01*
X146676897Y-75120484D01*
X146728242Y-74906563D01*
X146789873Y-74660704D01*
X146832761Y-74494689D01*
X146899449Y-74236692D01*
X146957825Y-74005598D01*
X147005259Y-73812253D01*
X147039125Y-73667500D01*
X147056794Y-73582185D01*
X147058352Y-73563744D01*
X147031130Y-73590250D01*
X146961322Y-73672059D01*
X146855353Y-73801246D01*
X146719651Y-73969885D01*
X146560640Y-74170052D01*
X146384747Y-74393820D01*
X146369597Y-74413197D01*
X146168122Y-74670200D01*
X146009158Y-74870423D01*
X145886526Y-75020563D01*
X145794047Y-75127317D01*
X145725542Y-75197381D01*
X145674832Y-75237452D01*
X145635736Y-75254226D01*
X145602078Y-75254401D01*
X145594804Y-75252881D01*
X145501074Y-75213732D01*
X145452183Y-75173786D01*
X145433806Y-75120998D01*
X145403670Y-75000326D01*
X145364108Y-74822637D01*
X145317454Y-74598794D01*
X145266040Y-74339665D01*
X145212199Y-74056114D01*
X145212183Y-74056030D01*
X145159456Y-73776081D01*
X145110559Y-73523763D01*
X145067569Y-73309218D01*
X145032563Y-73142586D01*
X145007618Y-73034012D01*
X144994811Y-72993636D01*
X144994599Y-72993583D01*
X144979350Y-73030559D01*
X144947352Y-73134430D01*
X144901598Y-73294565D01*
X144845078Y-73500334D01*
X144780784Y-73741105D01*
X144734740Y-73917120D01*
X144666382Y-74178272D01*
X144603487Y-74414237D01*
X144549149Y-74613751D01*
X144506461Y-74765549D01*
X144478520Y-74858368D01*
X144469772Y-74881669D01*
X144423536Y-74890228D01*
X144322496Y-74881905D01*
X144189003Y-74860958D01*
X144045410Y-74831642D01*
X143914069Y-74798216D01*
X143817333Y-74764936D01*
X143793866Y-74752949D01*
X143792413Y-74706922D01*
X143812879Y-74584756D01*
X143855090Y-74387200D01*
X143918871Y-74115002D01*
X144004049Y-73768913D01*
X144110449Y-73349682D01*
X144205961Y-72980448D01*
X144300196Y-72620021D01*
X144388850Y-72283680D01*
X144469799Y-71979286D01*
X144540919Y-71714699D01*
X144600088Y-71497780D01*
X144645180Y-71336389D01*
X144674072Y-71238386D01*
X144684047Y-71210952D01*
X144729369Y-71210872D01*
X144829797Y-71228219D01*
G37*
G36*
X121271181Y-84432828D02*
G01*
X121371054Y-84492397D01*
X121527812Y-84590243D01*
X121736657Y-84723249D01*
X121992793Y-84888301D01*
X122291424Y-85082283D01*
X122627753Y-85302081D01*
X122996984Y-85544580D01*
X123394320Y-85806664D01*
X123814965Y-86085218D01*
X124231840Y-86362290D01*
X127192507Y-88333529D01*
X127193655Y-92325889D01*
X127193671Y-93001275D01*
X127193275Y-93600569D01*
X127192420Y-94127680D01*
X127191056Y-94586515D01*
X127189137Y-94980982D01*
X127186613Y-95314989D01*
X127183436Y-95592444D01*
X127179559Y-95817255D01*
X127174934Y-95993329D01*
X127169511Y-96124575D01*
X127163243Y-96214900D01*
X127156081Y-96268212D01*
X127147978Y-96288419D01*
X127144804Y-96288331D01*
X127104749Y-96262144D01*
X127002988Y-96194814D01*
X126844379Y-96089570D01*
X126633779Y-95949646D01*
X126376046Y-95778272D01*
X126076039Y-95578681D01*
X125738614Y-95354105D01*
X125368629Y-95107774D01*
X124970943Y-94842921D01*
X124550413Y-94562778D01*
X124165008Y-94305970D01*
X123729274Y-94015743D01*
X123312680Y-93738554D01*
X122920017Y-93477577D01*
X122556074Y-93235979D01*
X122225643Y-93016933D01*
X121933514Y-92823608D01*
X121684477Y-92659176D01*
X121483322Y-92526805D01*
X121334839Y-92429668D01*
X121243820Y-92370934D01*
X121215008Y-92353529D01*
X121212430Y-92392714D01*
X121209947Y-92507010D01*
X121207580Y-92691529D01*
X121205349Y-92941383D01*
X121203276Y-93251681D01*
X121201380Y-93617537D01*
X121199683Y-94034061D01*
X121198205Y-94496364D01*
X121196966Y-94999558D01*
X121195987Y-95538754D01*
X121195289Y-96109064D01*
X121194891Y-96705599D01*
X121194804Y-97153529D01*
X121194804Y-101953529D01*
X121035233Y-101953529D01*
X120807085Y-101986862D01*
X120562628Y-102078943D01*
X120323127Y-102217889D01*
X120109844Y-102391821D01*
X119973369Y-102546832D01*
X119856782Y-102719312D01*
X119772954Y-102883506D01*
X119717206Y-103057851D01*
X119684859Y-103260784D01*
X119671234Y-103510743D01*
X119670491Y-103740397D01*
X119676266Y-104307265D01*
X118705535Y-104320397D01*
X117734804Y-104333529D01*
X117465173Y-104461254D01*
X117168408Y-104642790D01*
X116915006Y-104880678D01*
X116720017Y-105160255D01*
X116692026Y-105214401D01*
X116638271Y-105331113D01*
X116603966Y-105432516D01*
X116584817Y-105542757D01*
X116576529Y-105685982D01*
X116574804Y-105873529D01*
X116576904Y-106071394D01*
X116585918Y-106213059D01*
X116605916Y-106322274D01*
X116640966Y-106422787D01*
X116685324Y-106518488D01*
X116862310Y-106810592D01*
X117081252Y-107042002D01*
X117356435Y-107227085D01*
X117425175Y-107262635D01*
X117730322Y-107413529D01*
X118702563Y-107426653D01*
X119674804Y-107439777D01*
X119674804Y-109136653D01*
X119674804Y-110833529D01*
X118640667Y-110833529D01*
X117606531Y-110833529D01*
X117394771Y-110383529D01*
X116886197Y-109211351D01*
X116441282Y-107992304D01*
X116060655Y-106728785D01*
X115744945Y-105423190D01*
X115494779Y-104077915D01*
X115310786Y-102695356D01*
X115268572Y-102273529D01*
X115252369Y-102043809D01*
X115239334Y-101748333D01*
X115229471Y-101401281D01*
X115222782Y-101016832D01*
X115219268Y-100609168D01*
X115218931Y-100192468D01*
X115221773Y-99780912D01*
X115227797Y-99388683D01*
X115237004Y-99029958D01*
X115249397Y-98718920D01*
X115264977Y-98469748D01*
X115268034Y-98433529D01*
X115411991Y-97144375D01*
X115612115Y-95901824D01*
X115871073Y-94693000D01*
X116191531Y-93505027D01*
X116469239Y-92633529D01*
X116591645Y-92282061D01*
X116720530Y-91928688D01*
X116852483Y-91581408D01*
X116984095Y-91248222D01*
X117111955Y-90937127D01*
X117232655Y-90656122D01*
X117342786Y-90413207D01*
X117438936Y-90216381D01*
X117517698Y-90073643D01*
X117575660Y-89992991D01*
X117601294Y-89977680D01*
X117644569Y-90000097D01*
X117747872Y-90062953D01*
X117904806Y-90162102D01*
X118108974Y-90293397D01*
X118353980Y-90452690D01*
X118633427Y-90635836D01*
X118940920Y-90838687D01*
X119270061Y-91057097D01*
X119406034Y-91147680D01*
X119740793Y-91370690D01*
X120055277Y-91579708D01*
X120343249Y-91770623D01*
X120598474Y-91939324D01*
X120814717Y-92081700D01*
X120985742Y-92193641D01*
X121105313Y-92271036D01*
X121167197Y-92309774D01*
X121174461Y-92313529D01*
X121177322Y-92274428D01*
X121180063Y-92160725D01*
X121182657Y-91977817D01*
X121185075Y-91731102D01*
X121187290Y-91425976D01*
X121189274Y-91067838D01*
X121190998Y-90662085D01*
X121192435Y-90214114D01*
X121193558Y-89729323D01*
X121194338Y-89213109D01*
X121194747Y-88670870D01*
X121194804Y-88375889D01*
X121195189Y-87701648D01*
X121196328Y-87082522D01*
X121198195Y-86521126D01*
X121200765Y-86020076D01*
X121204014Y-85581985D01*
X121207915Y-85209469D01*
X121212445Y-84905141D01*
X121217576Y-84671617D01*
X121223285Y-84511512D01*
X121229545Y-84427439D01*
X121232988Y-84414650D01*
X121271181Y-84432828D01*
G37*
G36*
X170404118Y-51074245D02*
G01*
X170382831Y-51166213D01*
X170337392Y-51315055D01*
X170266689Y-51524505D01*
X170169610Y-51798295D01*
X170045043Y-52140158D01*
X169941231Y-52421059D01*
X169770172Y-52882161D01*
X169575972Y-53406014D01*
X169363181Y-53980319D01*
X169136353Y-54592774D01*
X168900041Y-55231077D01*
X168658795Y-55882928D01*
X168417170Y-56536026D01*
X168179718Y-57178069D01*
X167950990Y-57796756D01*
X167735540Y-58379786D01*
X167537919Y-58914859D01*
X167508875Y-58993529D01*
X167244714Y-59708514D01*
X167005034Y-60355916D01*
X166786956Y-60943326D01*
X166587601Y-61478337D01*
X166404088Y-61968540D01*
X166233540Y-62421528D01*
X166073077Y-62844892D01*
X165919820Y-63246226D01*
X165770890Y-63633121D01*
X165623407Y-64013169D01*
X165474492Y-64393962D01*
X165321267Y-64783093D01*
X165160851Y-65188153D01*
X165134889Y-65253529D01*
X164475366Y-66888995D01*
X163821398Y-68460060D01*
X163166579Y-69981424D01*
X162504500Y-71467786D01*
X161828756Y-72933846D01*
X161316521Y-74013508D01*
X160990046Y-74693488D01*
X161144028Y-74833508D01*
X161496736Y-75154832D01*
X161798408Y-75431162D01*
X162057732Y-75670732D01*
X162283396Y-75881775D01*
X162484088Y-76072525D01*
X162668495Y-76251213D01*
X162845306Y-76426075D01*
X163023208Y-76605342D01*
X163147075Y-76731745D01*
X164261414Y-77929858D01*
X165313492Y-79176013D01*
X166301825Y-80467565D01*
X167224929Y-81801873D01*
X168081318Y-83176293D01*
X168869509Y-84588182D01*
X169588017Y-86034898D01*
X170235357Y-87513797D01*
X170810045Y-89022237D01*
X171310596Y-90557574D01*
X171693085Y-91946704D01*
X171983613Y-93189095D01*
X172221434Y-94405434D01*
X172408597Y-95612548D01*
X172547150Y-96827268D01*
X172639143Y-98066421D01*
X172686623Y-99346836D01*
X172694605Y-100173529D01*
X172690395Y-100868147D01*
X172677071Y-101503142D01*
X172653306Y-102098509D01*
X172617777Y-102674246D01*
X172569158Y-103250348D01*
X172506126Y-103846811D01*
X172427356Y-104483633D01*
X172391228Y-104753529D01*
X172135932Y-106331040D01*
X171802703Y-107895576D01*
X171393039Y-109443677D01*
X170908440Y-110971883D01*
X170350403Y-112476734D01*
X169720429Y-113954771D01*
X169020016Y-115402534D01*
X168250662Y-116816563D01*
X167413866Y-118193399D01*
X166511128Y-119529582D01*
X165543945Y-120821651D01*
X165295004Y-121133966D01*
X164927928Y-121576368D01*
X164515620Y-122051415D01*
X164069559Y-122547117D01*
X163601228Y-123051481D01*
X163122107Y-123552515D01*
X162643679Y-124038229D01*
X162177424Y-124496629D01*
X161734825Y-124915725D01*
X161327362Y-125283524D01*
X161294804Y-125311961D01*
X160021290Y-126369621D01*
X158708220Y-127359452D01*
X157357671Y-128280532D01*
X155971723Y-129131939D01*
X154552452Y-129912751D01*
X153101938Y-130622044D01*
X151622258Y-131258898D01*
X150115490Y-131822390D01*
X148583712Y-132311598D01*
X147029003Y-132725598D01*
X145453440Y-133063470D01*
X143859102Y-133324290D01*
X142998572Y-133431934D01*
X142628090Y-133472767D01*
X142301749Y-133507015D01*
X142007542Y-133535250D01*
X141733459Y-133558046D01*
X141467490Y-133575976D01*
X141197627Y-133589615D01*
X140911860Y-133599534D01*
X140598181Y-133606307D01*
X140244580Y-133610509D01*
X139839048Y-133612711D01*
X139369576Y-133613487D01*
X139194804Y-133613529D01*
X138701072Y-133613103D01*
X138275328Y-133611446D01*
X137905563Y-133607983D01*
X137579768Y-133602140D01*
X137285934Y-133593345D01*
X137012052Y-133581025D01*
X136746113Y-133564605D01*
X136476106Y-133543513D01*
X136190024Y-133517176D01*
X135875858Y-133485019D01*
X135521597Y-133446470D01*
X135391035Y-133431934D01*
X134125526Y-133264259D01*
X132847620Y-133044102D01*
X131578463Y-132775931D01*
X130339203Y-132464212D01*
X129154990Y-132114689D01*
X128993077Y-132063541D01*
X128861962Y-132023069D01*
X128778747Y-131998498D01*
X128758430Y-131993529D01*
X128756118Y-132032520D01*
X128754537Y-132145467D01*
X128753669Y-132326327D01*
X128753498Y-132569061D01*
X128754007Y-132867626D01*
X128755177Y-133215982D01*
X128756993Y-133608087D01*
X128759437Y-134037900D01*
X128762492Y-134499380D01*
X128766140Y-134986486D01*
X128767344Y-135136301D01*
X128793006Y-138279074D01*
X127686971Y-140166301D01*
X127474057Y-140529698D01*
X127269335Y-140879303D01*
X127077131Y-141207721D01*
X126901766Y-141507556D01*
X126747564Y-141771411D01*
X126618849Y-141991891D01*
X126519944Y-142161599D01*
X126455173Y-142273139D01*
X126437870Y-142303158D01*
X126358054Y-142428202D01*
X126286235Y-142515735D01*
X126236147Y-142549122D01*
X126234804Y-142549097D01*
X126172414Y-142533523D01*
X126056330Y-142494994D01*
X125907041Y-142440493D01*
X125834804Y-142412741D01*
X125658197Y-142345050D01*
X125435971Y-142261648D01*
X125197879Y-142173626D01*
X124994804Y-142099685D01*
X124819701Y-142036480D01*
X124585609Y-141951934D01*
X124308766Y-141851917D01*
X124005414Y-141742296D01*
X123691793Y-141628939D01*
X123418781Y-141530238D01*
X123106034Y-141417417D01*
X122859892Y-141329679D01*
X122671814Y-141264665D01*
X122533258Y-141220017D01*
X122435683Y-141193373D01*
X122370548Y-141182377D01*
X122329311Y-141184667D01*
X122303432Y-141197885D01*
X122286077Y-141217356D01*
X122243194Y-141283353D01*
X122172681Y-141400681D01*
X122085613Y-141550661D01*
X122022100Y-141662655D01*
X121934830Y-141814188D01*
X121860692Y-141935748D01*
X121808812Y-142012800D01*
X121789804Y-142032655D01*
X121750515Y-142013363D01*
X121650571Y-141958215D01*
X121498251Y-141871949D01*
X121301834Y-141759306D01*
X121069600Y-141625025D01*
X120809828Y-141473846D01*
X120629804Y-141368573D01*
X120065767Y-141038123D01*
X119565088Y-140744789D01*
X119122095Y-140485248D01*
X118731121Y-140256179D01*
X118386493Y-140054259D01*
X118082544Y-139876166D01*
X117813602Y-139718577D01*
X117573998Y-139578170D01*
X117358063Y-139451622D01*
X117160125Y-139335612D01*
X116974516Y-139226817D01*
X116795565Y-139121914D01*
X116617603Y-139017581D01*
X116574804Y-138992489D01*
X116308723Y-138836587D01*
X116036265Y-138677125D01*
X115774601Y-138524141D01*
X115540899Y-138387670D01*
X115352333Y-138277749D01*
X115294804Y-138244285D01*
X115125218Y-138144659D01*
X114980165Y-138057441D01*
X114874109Y-137991472D01*
X114821513Y-137955589D01*
X114819737Y-137953982D01*
X114825207Y-137907601D01*
X114867155Y-137805791D01*
X114939750Y-137661018D01*
X115037162Y-137485751D01*
X115045065Y-137472137D01*
X115305461Y-137024880D01*
X115160132Y-136894868D01*
X115100265Y-136842252D01*
X114986635Y-136743293D01*
X114826062Y-136603898D01*
X114625364Y-136429973D01*
X114391361Y-136227424D01*
X114130870Y-136002158D01*
X113850712Y-135760080D01*
X113614804Y-135556380D01*
X113328383Y-135308723D01*
X113060142Y-135075975D01*
X112816260Y-134863559D01*
X112602919Y-134676895D01*
X112426300Y-134521404D01*
X112292584Y-134402507D01*
X112207952Y-134325626D01*
X112179045Y-134297116D01*
X112185191Y-134260907D01*
X112221845Y-134175883D01*
X112290079Y-134040158D01*
X112390060Y-133853529D01*
X114637559Y-133853529D01*
X114667809Y-133886730D01*
X114752990Y-133967049D01*
X114887399Y-134089414D01*
X115065334Y-134248753D01*
X115281090Y-134439997D01*
X115528967Y-134658075D01*
X115803260Y-134897914D01*
X116098268Y-135154445D01*
X116189526Y-135233529D01*
X116489846Y-135493969D01*
X116771496Y-135738981D01*
X117028735Y-135963516D01*
X117255821Y-136162525D01*
X117447013Y-136330963D01*
X117596569Y-136463780D01*
X117698747Y-136555928D01*
X117747807Y-136602361D01*
X117751300Y-136606603D01*
X117739142Y-136654062D01*
X117694434Y-136752243D01*
X117625659Y-136883189D01*
X117594396Y-136938821D01*
X117519512Y-137079892D01*
X117470861Y-137192341D01*
X117455264Y-137259514D01*
X117459021Y-137269377D01*
X117499538Y-137295080D01*
X117602576Y-137357198D01*
X117761550Y-137451844D01*
X117969874Y-137575133D01*
X118220965Y-137723177D01*
X118508235Y-137892090D01*
X118825100Y-138077985D01*
X119164975Y-138276974D01*
X119292247Y-138351390D01*
X119691247Y-138584407D01*
X120026963Y-138779824D01*
X120305055Y-138940624D01*
X120531179Y-139069788D01*
X120710996Y-139170300D01*
X120850163Y-139245143D01*
X120954339Y-139297299D01*
X121029182Y-139329751D01*
X121080352Y-139345481D01*
X121113506Y-139347472D01*
X121134303Y-139338708D01*
X121144546Y-139327759D01*
X121192409Y-139254253D01*
X121261827Y-139137585D01*
X121326336Y-139023529D01*
X121396027Y-138906185D01*
X121454661Y-138823312D01*
X121488272Y-138793529D01*
X121535735Y-138807283D01*
X121656933Y-138848228D01*
X121850540Y-138915890D01*
X122115226Y-139009792D01*
X122449666Y-139129458D01*
X122852530Y-139274414D01*
X123322492Y-139444184D01*
X123858223Y-139638291D01*
X124458395Y-139856261D01*
X124654804Y-139927685D01*
X124880971Y-140008763D01*
X125081923Y-140078543D01*
X125245404Y-140132954D01*
X125359157Y-140167922D01*
X125410927Y-140179376D01*
X125411819Y-140179220D01*
X125440199Y-140143503D01*
X125504029Y-140046737D01*
X125598369Y-139896933D01*
X125718280Y-139702097D01*
X125858824Y-139470239D01*
X126015062Y-139209367D01*
X126144472Y-138991190D01*
X126840109Y-137813529D01*
X126820303Y-133750494D01*
X126803328Y-130268282D01*
X128714804Y-130268282D01*
X128723175Y-130300758D01*
X128754960Y-130332679D01*
X128820163Y-130368432D01*
X128928788Y-130412403D01*
X129090839Y-130468979D01*
X129316321Y-130542545D01*
X129404804Y-130570804D01*
X130487234Y-130898547D01*
X131531378Y-131179146D01*
X132559477Y-131417763D01*
X133593775Y-131619562D01*
X134654804Y-131789460D01*
X135040662Y-131842614D01*
X135423377Y-131890093D01*
X135816715Y-131933216D01*
X136234438Y-131973300D01*
X136690314Y-132011663D01*
X137198105Y-132049622D01*
X137771576Y-132088494D01*
X137794804Y-132090004D01*
X137959693Y-132096706D01*
X138192348Y-132100482D01*
X138480599Y-132101559D01*
X138812274Y-132100165D01*
X139175201Y-132096528D01*
X139557211Y-132090876D01*
X139946130Y-132083437D01*
X140329788Y-132074437D01*
X140696015Y-132064106D01*
X141032637Y-132052670D01*
X141327485Y-132040358D01*
X141568387Y-132027396D01*
X141714804Y-132016651D01*
X143266503Y-131847869D01*
X144770242Y-131618726D01*
X146232592Y-131327391D01*
X147660123Y-130972040D01*
X149059406Y-130550842D01*
X150437012Y-130061972D01*
X151799511Y-129503602D01*
X153153476Y-128873903D01*
X153331272Y-128785675D01*
X154698118Y-128063825D01*
X156005357Y-127293410D01*
X157259977Y-126469392D01*
X158468964Y-125586731D01*
X159639305Y-124640385D01*
X160777989Y-123625316D01*
X161635888Y-122795422D01*
X162145583Y-122278064D01*
X162606150Y-121794095D01*
X163031449Y-121327582D01*
X163435340Y-120862593D01*
X163831684Y-120383197D01*
X164234339Y-119873461D01*
X164630136Y-119353529D01*
X165556072Y-118052954D01*
X166412092Y-116714388D01*
X167197347Y-115339922D01*
X167910988Y-113931650D01*
X168552166Y-112491665D01*
X169120032Y-111022061D01*
X169613736Y-109524930D01*
X170032431Y-108002365D01*
X170375267Y-106456460D01*
X170641395Y-104889308D01*
X170714060Y-104353529D01*
X170764257Y-103949040D01*
X170806301Y-103585220D01*
X170840893Y-103249319D01*
X170868729Y-102928591D01*
X170890510Y-102610286D01*
X170906933Y-102281657D01*
X170918697Y-101929955D01*
X170926501Y-101542433D01*
X170931043Y-101106342D01*
X170933022Y-100608934D01*
X170933265Y-100353529D01*
X170932436Y-99817241D01*
X170929200Y-99348107D01*
X170922854Y-98933297D01*
X170912696Y-98559982D01*
X170898026Y-98215335D01*
X170878141Y-97886526D01*
X170852339Y-97560726D01*
X170819919Y-97225107D01*
X170780179Y-96866840D01*
X170732417Y-96473096D01*
X170712277Y-96313529D01*
X170473478Y-94752041D01*
X170157382Y-93208370D01*
X169765259Y-91685271D01*
X169298381Y-90185499D01*
X168758019Y-88711809D01*
X168145446Y-87266957D01*
X167461931Y-85853696D01*
X166708748Y-84474783D01*
X165887167Y-83132972D01*
X164998460Y-81831019D01*
X164043897Y-80571678D01*
X163024752Y-79357705D01*
X162740887Y-79040506D01*
X162533310Y-78815476D01*
X162303316Y-78572796D01*
X162057155Y-78318498D01*
X161801082Y-78058614D01*
X161541351Y-77799176D01*
X161284214Y-77546217D01*
X161035924Y-77305769D01*
X160802735Y-77083864D01*
X160590900Y-76886534D01*
X160406672Y-76719812D01*
X160256305Y-76589731D01*
X160146052Y-76502321D01*
X160082166Y-76463616D01*
X160069948Y-76463952D01*
X160043244Y-76506715D01*
X159984899Y-76608975D01*
X159901037Y-76759705D01*
X159797782Y-76947878D01*
X159681257Y-77162466D01*
X159653693Y-77213529D01*
X159249298Y-77949861D01*
X158841350Y-78666485D01*
X158441038Y-79344047D01*
X158115935Y-79873529D01*
X158006458Y-80050662D01*
X157863982Y-80284848D01*
X157695744Y-80563996D01*
X157508980Y-80876013D01*
X157310926Y-81208807D01*
X157108819Y-81550285D01*
X156909896Y-81888355D01*
X156895135Y-81913529D01*
X156705594Y-82236825D01*
X156520355Y-82552717D01*
X156345212Y-82851326D01*
X156185960Y-83122775D01*
X156048395Y-83357187D01*
X155938311Y-83544684D01*
X155861503Y-83675390D01*
X155848761Y-83697047D01*
X155634804Y-84060565D01*
X155634804Y-85447047D01*
X155634804Y-86833529D01*
X154821205Y-86833529D01*
X154007606Y-86833528D01*
X153569023Y-87583529D01*
X153130440Y-88333529D01*
X155162622Y-88343892D01*
X157194804Y-88354255D01*
X157194804Y-93599045D01*
X157194804Y-98843835D01*
X156984804Y-98816048D01*
X156671611Y-98737010D01*
X156376311Y-98591202D01*
X156117941Y-98390228D01*
X155936299Y-98177033D01*
X155839869Y-98027210D01*
X155768995Y-97889357D01*
X155719710Y-97746468D01*
X155688047Y-97581533D01*
X155670037Y-97377547D01*
X155661714Y-97117501D01*
X155660205Y-96993529D01*
X155654804Y-96373529D01*
X154674804Y-96353529D01*
X154369069Y-96347038D01*
X154131725Y-96340781D01*
X153951176Y-96333534D01*
X153815826Y-96324072D01*
X153714079Y-96311169D01*
X153634340Y-96293600D01*
X153565013Y-96270141D01*
X153494501Y-96239566D01*
X153464698Y-96225693D01*
X153201045Y-96066313D01*
X152963003Y-95854531D01*
X152771615Y-95611074D01*
X152689770Y-95462423D01*
X152635261Y-95335601D01*
X152601186Y-95224563D01*
X152582888Y-95102986D01*
X152575711Y-94944549D01*
X152574804Y-94812584D01*
X152576841Y-94621673D01*
X152586349Y-94484637D01*
X152608421Y-94375386D01*
X152648148Y-94267831D01*
X152704455Y-94148384D01*
X152886883Y-93863502D01*
X153128169Y-93617611D01*
X153410341Y-93428357D01*
X153466081Y-93400731D01*
X153538967Y-93367508D01*
X153605807Y-93341829D01*
X153678072Y-93322567D01*
X153767235Y-93308596D01*
X153884766Y-93298790D01*
X154042139Y-93292020D01*
X154250825Y-93287161D01*
X154522295Y-93283086D01*
X154685240Y-93280990D01*
X155675677Y-93268451D01*
X155665240Y-91600990D01*
X155654804Y-89933529D01*
X153929411Y-89923107D01*
X152204018Y-89912686D01*
X149093821Y-95223107D01*
X148741217Y-95825136D01*
X148398931Y-96409520D01*
X148069215Y-96972416D01*
X147754319Y-97509983D01*
X147456495Y-98018377D01*
X147177993Y-98493757D01*
X146921067Y-98932281D01*
X146687965Y-99330105D01*
X146480941Y-99683388D01*
X146302245Y-99988288D01*
X146154129Y-100240961D01*
X146038843Y-100437567D01*
X145958640Y-100574262D01*
X145915770Y-100647204D01*
X145909783Y-100657328D01*
X145835943Y-100781128D01*
X148515373Y-102567361D01*
X151194804Y-104353593D01*
X151194804Y-108336894D01*
X151194509Y-108893627D01*
X151193653Y-109426986D01*
X151192276Y-109931627D01*
X151190418Y-110402208D01*
X151188119Y-110833388D01*
X151185420Y-111219822D01*
X151182361Y-111556170D01*
X151178982Y-111837088D01*
X151175325Y-112057233D01*
X151171429Y-112211264D01*
X151167334Y-112293838D01*
X151164804Y-112306862D01*
X151127817Y-112283154D01*
X151029111Y-112218182D01*
X150873475Y-112115135D01*
X150665703Y-111977204D01*
X150410585Y-111807576D01*
X150112915Y-111609442D01*
X149777482Y-111385990D01*
X149409081Y-111140411D01*
X149012501Y-110875894D01*
X148592535Y-110595628D01*
X148185008Y-110323529D01*
X147747905Y-110031761D01*
X147329913Y-109753040D01*
X146935804Y-109490529D01*
X146570345Y-109247393D01*
X146238305Y-109026793D01*
X145944455Y-108831894D01*
X145693562Y-108665859D01*
X145490396Y-108531850D01*
X145339726Y-108433032D01*
X145246321Y-108372568D01*
X145215008Y-108353529D01*
X145212954Y-108392882D01*
X145210958Y-108508354D01*
X145209029Y-108696065D01*
X145207178Y-108952133D01*
X145205416Y-109272677D01*
X145203752Y-109653818D01*
X145202197Y-110091673D01*
X145200761Y-110582362D01*
X145199455Y-111122005D01*
X145198289Y-111706720D01*
X145197273Y-112332626D01*
X145196417Y-112995843D01*
X145195732Y-113692490D01*
X145195228Y-114418686D01*
X145194915Y-115170550D01*
X145194804Y-115944202D01*
X145194804Y-115970177D01*
X145194804Y-123586826D01*
X144753533Y-123690299D01*
X143771695Y-123898350D01*
X142743734Y-124074180D01*
X141698692Y-124212963D01*
X141434804Y-124241654D01*
X141245527Y-124256186D01*
X140988116Y-124268397D01*
X140674402Y-124278286D01*
X140316216Y-124285853D01*
X139925390Y-124291097D01*
X139513755Y-124294020D01*
X139093143Y-124294621D01*
X138675386Y-124292900D01*
X138272314Y-124288857D01*
X137895760Y-124282491D01*
X137557554Y-124273804D01*
X137269529Y-124262795D01*
X137043517Y-124249464D01*
X136954804Y-124241654D01*
X135887603Y-124109763D01*
X134835458Y-123938186D01*
X133821408Y-123730948D01*
X133262521Y-123596690D01*
X132670238Y-123445956D01*
X132278096Y-124109742D01*
X131913240Y-124728054D01*
X131557099Y-125332988D01*
X131211874Y-125920740D01*
X130879766Y-126487508D01*
X130562974Y-127029488D01*
X130263699Y-127542878D01*
X129984141Y-128023874D01*
X129726501Y-128468673D01*
X129492979Y-128873474D01*
X129285776Y-129234472D01*
X129107091Y-129547864D01*
X128959126Y-129809849D01*
X128844080Y-130016622D01*
X128764153Y-130164381D01*
X128721548Y-130249323D01*
X128714804Y-130268282D01*
X126803328Y-130268282D01*
X126800497Y-129687460D01*
X130960444Y-122590494D01*
X131367912Y-121895434D01*
X131764744Y-121218691D01*
X132149035Y-120563506D01*
X132518883Y-119933117D01*
X132872384Y-119330764D01*
X133207633Y-118759687D01*
X133522727Y-118223126D01*
X133815762Y-117724318D01*
X134084835Y-117266504D01*
X134328042Y-116852924D01*
X134543478Y-116486817D01*
X134729240Y-116171421D01*
X134883425Y-115909978D01*
X135004128Y-115705725D01*
X135089446Y-115561903D01*
X135137476Y-115481751D01*
X135147807Y-115465319D01*
X135189049Y-115475962D01*
X135287968Y-115522162D01*
X135433703Y-115598220D01*
X135615390Y-115698436D01*
X135822166Y-115817112D01*
X135855013Y-115836352D01*
X136534804Y-116235596D01*
X136545376Y-116124562D01*
X136544559Y-116059358D01*
X136537437Y-115924525D01*
X136524731Y-115730126D01*
X136507158Y-115486224D01*
X136485437Y-115202881D01*
X136460288Y-114890160D01*
X136438857Y-114633529D01*
X136321765Y-113253529D01*
X136879343Y-112302421D01*
X139083094Y-112302421D01*
X139091699Y-112345395D01*
X139134804Y-112353529D01*
X139182811Y-112318360D01*
X139194804Y-112245883D01*
X139191428Y-112172673D01*
X139171567Y-112171982D01*
X139136076Y-112215883D01*
X139083094Y-112302421D01*
X136879343Y-112302421D01*
X140258439Y-106538415D01*
X142519057Y-106538415D01*
X142521197Y-106557997D01*
X142565453Y-106586747D01*
X142668544Y-106655068D01*
X142822907Y-106757907D01*
X143020977Y-106890211D01*
X143255193Y-107046927D01*
X143517991Y-107223002D01*
X143801806Y-107413383D01*
X143854804Y-107448957D01*
X144140299Y-107640174D01*
X144405169Y-107816731D01*
X144642041Y-107973780D01*
X144843545Y-108106469D01*
X145002307Y-108209948D01*
X145110956Y-108279366D01*
X145162120Y-108309875D01*
X145164804Y-108310880D01*
X145169467Y-108272296D01*
X145173909Y-108159684D01*
X145178073Y-107979016D01*
X145181902Y-107736267D01*
X145185343Y-107437407D01*
X145188337Y-107088410D01*
X145190830Y-106695247D01*
X145192766Y-106263892D01*
X145194089Y-105800316D01*
X145194742Y-105310492D01*
X145194804Y-105104628D01*
X145194633Y-104513411D01*
X145194068Y-103997576D01*
X145193031Y-103552505D01*
X145191442Y-103173580D01*
X145189222Y-102856183D01*
X145186292Y-102595698D01*
X145182573Y-102387505D01*
X145177987Y-102226988D01*
X145172454Y-102109529D01*
X145165896Y-102030510D01*
X145158233Y-101985314D01*
X145149386Y-101969322D01*
X145141284Y-101974628D01*
X145112195Y-102022127D01*
X145046249Y-102132659D01*
X144946991Y-102300209D01*
X144817964Y-102518760D01*
X144662711Y-102782295D01*
X144484775Y-103084799D01*
X144287700Y-103420255D01*
X144075029Y-103782647D01*
X143850306Y-104165958D01*
X143777677Y-104289920D01*
X143499183Y-104766301D01*
X143259967Y-105177712D01*
X143058051Y-105527724D01*
X142891456Y-105819909D01*
X142758204Y-106057837D01*
X142656316Y-106245081D01*
X142583815Y-106385211D01*
X142538721Y-106481798D01*
X142519057Y-106538415D01*
X140258439Y-106538415D01*
X146299585Y-96233529D01*
X146935527Y-95148829D01*
X147562389Y-94079770D01*
X148178904Y-93028511D01*
X148783803Y-91997211D01*
X149375817Y-90988029D01*
X149953677Y-90003126D01*
X150516115Y-89044660D01*
X151061861Y-88114791D01*
X151589648Y-87215678D01*
X152098206Y-86349480D01*
X152586267Y-85518358D01*
X153052561Y-84724469D01*
X153495821Y-83969974D01*
X153914778Y-83257032D01*
X154308162Y-82587802D01*
X154674705Y-81964444D01*
X155013138Y-81389117D01*
X155322194Y-80863981D01*
X155600602Y-80391194D01*
X155847094Y-79972916D01*
X156060401Y-79611307D01*
X156239255Y-79308526D01*
X156382387Y-79066732D01*
X156488529Y-78888084D01*
X156556411Y-78774743D01*
X156580917Y-78734733D01*
X156979418Y-78086254D01*
X157398760Y-77365975D01*
X157836630Y-76578670D01*
X158290714Y-75729114D01*
X158758697Y-74822082D01*
X159238267Y-73862348D01*
X159727109Y-72854688D01*
X160222910Y-71803877D01*
X160723355Y-70714689D01*
X161226131Y-69591899D01*
X161728923Y-68440282D01*
X162229419Y-67264613D01*
X162725304Y-66069668D01*
X162763515Y-65976297D01*
X162907340Y-65622447D01*
X163061161Y-65240301D01*
X163222470Y-64836358D01*
X163388759Y-64417114D01*
X163557523Y-63989067D01*
X163726253Y-63558713D01*
X163892444Y-63132549D01*
X164053588Y-62717073D01*
X164207178Y-62318781D01*
X164350707Y-61944170D01*
X164481669Y-61599738D01*
X164597556Y-61291982D01*
X164695861Y-61027398D01*
X164774078Y-60812484D01*
X164829700Y-60653736D01*
X164860219Y-60557653D01*
X164864908Y-60530299D01*
X164835862Y-60555938D01*
X164760448Y-60638112D01*
X164643115Y-60771566D01*
X164488313Y-60951050D01*
X164300490Y-61171309D01*
X164084095Y-61427091D01*
X163843579Y-61713144D01*
X163583389Y-62024215D01*
X163307976Y-62355051D01*
X163021787Y-62700399D01*
X162829325Y-62933529D01*
X161898667Y-64073722D01*
X160988315Y-65211210D01*
X160101482Y-66341542D01*
X159241379Y-67460267D01*
X158411219Y-68562934D01*
X157614212Y-69645093D01*
X156853570Y-70702292D01*
X156132506Y-71730080D01*
X155454231Y-72724007D01*
X154821957Y-73679622D01*
X154238895Y-74592474D01*
X153708258Y-75458112D01*
X153343699Y-76078747D01*
X153215206Y-76303481D01*
X153092800Y-76520095D01*
X152985202Y-76712971D01*
X152901130Y-76866486D01*
X152852454Y-76958747D01*
X152822479Y-77012584D01*
X152753806Y-77132320D01*
X152647923Y-77315413D01*
X152506321Y-77559323D01*
X152330488Y-77861510D01*
X152121914Y-78219434D01*
X151882088Y-78630554D01*
X151612500Y-79092331D01*
X151314640Y-79602223D01*
X150989997Y-80157692D01*
X150640060Y-80756195D01*
X150266319Y-81395194D01*
X149870264Y-82072148D01*
X149453383Y-82784516D01*
X149017166Y-83529759D01*
X148563104Y-84305335D01*
X148092684Y-85108706D01*
X147607398Y-85937330D01*
X147108733Y-86788667D01*
X146598180Y-87660178D01*
X146077228Y-88549321D01*
X145547367Y-89453556D01*
X145010086Y-90370344D01*
X144466875Y-91297143D01*
X143919222Y-92231415D01*
X143368619Y-93170617D01*
X142816553Y-94112211D01*
X142264514Y-95053656D01*
X141713993Y-95992411D01*
X141166478Y-96925937D01*
X140623459Y-97851692D01*
X140086425Y-98767138D01*
X139556866Y-99669733D01*
X139036271Y-100556937D01*
X138526130Y-101426210D01*
X138027933Y-102275012D01*
X137543168Y-103100803D01*
X137073325Y-103901041D01*
X136619894Y-104673188D01*
X136184365Y-105414702D01*
X135768226Y-106123043D01*
X135372967Y-106795672D01*
X135000077Y-107430048D01*
X134651047Y-108023630D01*
X134327365Y-108573878D01*
X134030521Y-109078252D01*
X133762005Y-109534213D01*
X133523306Y-109939218D01*
X133315913Y-110290729D01*
X133141316Y-110586205D01*
X133001004Y-110823106D01*
X132896467Y-110998891D01*
X132829195Y-111111020D01*
X132800676Y-111156954D01*
X132799934Y-111157891D01*
X132749057Y-111189143D01*
X132634042Y-111248748D01*
X132463797Y-111332438D01*
X132247231Y-111435946D01*
X131993253Y-111555002D01*
X131710770Y-111685339D01*
X131474804Y-111792798D01*
X131175946Y-111928272D01*
X130898087Y-112054506D01*
X130650199Y-112167405D01*
X130441252Y-112262871D01*
X130280216Y-112336807D01*
X130176061Y-112385117D01*
X130139968Y-112402431D01*
X130122175Y-112422007D01*
X130135891Y-112452039D01*
X130188658Y-112498107D01*
X130288019Y-112565792D01*
X130441517Y-112660675D01*
X130656694Y-112788337D01*
X130679968Y-112801992D01*
X130885106Y-112922452D01*
X131071338Y-113032163D01*
X131225557Y-113123378D01*
X131334655Y-113188345D01*
X131381424Y-113216704D01*
X131390723Y-113224289D01*
X131396615Y-113235796D01*
X131397507Y-113254025D01*
X131391804Y-113281774D01*
X131377912Y-113321843D01*
X131354237Y-113377030D01*
X131319184Y-113450133D01*
X131271159Y-113543953D01*
X131208568Y-113661287D01*
X131129816Y-113804934D01*
X131033308Y-113977693D01*
X130917452Y-114182363D01*
X130780651Y-114421743D01*
X130621312Y-114698631D01*
X130437841Y-115015827D01*
X130228643Y-115376129D01*
X129992124Y-115782336D01*
X129726689Y-116237246D01*
X129430744Y-116743659D01*
X129102695Y-117304374D01*
X128740948Y-117922189D01*
X128343907Y-118599903D01*
X127909980Y-119340314D01*
X127437571Y-120146222D01*
X127311824Y-120360725D01*
X126904022Y-121056104D01*
X126506474Y-121733486D01*
X126121110Y-122389605D01*
X125749858Y-123021196D01*
X125394647Y-123624993D01*
X125057407Y-124197732D01*
X124740064Y-124736146D01*
X124444549Y-125236971D01*
X124172790Y-125696942D01*
X123926716Y-126112792D01*
X123708254Y-126481258D01*
X123519335Y-126799073D01*
X123361887Y-127062972D01*
X123237838Y-127269691D01*
X123149117Y-127415963D01*
X123097653Y-127498523D01*
X123085204Y-127516377D01*
X123040735Y-127544760D01*
X122931085Y-127608918D01*
X122761183Y-127706094D01*
X122535956Y-127833532D01*
X122260334Y-127988476D01*
X121939245Y-128168170D01*
X121577618Y-128369856D01*
X121180380Y-128590780D01*
X120752461Y-128828183D01*
X120298789Y-129079310D01*
X119824293Y-129341405D01*
X119654804Y-129434893D01*
X119172424Y-129700974D01*
X118707820Y-129957454D01*
X118266058Y-130201526D01*
X117852203Y-130430381D01*
X117471322Y-130641212D01*
X117128479Y-130831210D01*
X116828742Y-130997567D01*
X116577176Y-131137475D01*
X116378848Y-131248126D01*
X116238822Y-131326712D01*
X116162166Y-131370425D01*
X116151762Y-131376642D01*
X116104481Y-131413733D01*
X116048564Y-131474157D01*
X115979531Y-131564727D01*
X115892902Y-131692253D01*
X115784196Y-131863546D01*
X115648933Y-132085416D01*
X115482633Y-132364674D01*
X115320918Y-132639637D01*
X115158422Y-132918325D01*
X115009873Y-133175700D01*
X114879919Y-133403503D01*
X114773207Y-133593479D01*
X114694388Y-133737368D01*
X114648109Y-133826914D01*
X114637559Y-133853529D01*
X112390060Y-133853529D01*
X112390961Y-133851848D01*
X112525564Y-133609069D01*
X112694957Y-133309934D01*
X112900211Y-132952560D01*
X113142397Y-132535061D01*
X113422585Y-132055553D01*
X113741845Y-131512150D01*
X114101248Y-130902968D01*
X114239295Y-130669515D01*
X114632155Y-130005501D01*
X115523479Y-129512570D01*
X115829260Y-129343477D01*
X116179930Y-129149587D01*
X116550354Y-128944792D01*
X116915403Y-128742988D01*
X117249942Y-128558069D01*
X117354804Y-128500111D01*
X117649338Y-128337288D01*
X117961533Y-128164635D01*
X118272132Y-127992808D01*
X118561877Y-127832459D01*
X118811513Y-127694245D01*
X118925390Y-127631160D01*
X119555977Y-127281737D01*
X119025390Y-126880652D01*
X117904075Y-125991807D01*
X116800309Y-125035640D01*
X115727042Y-124024698D01*
X114697222Y-122971526D01*
X113723796Y-121888672D01*
X113094024Y-121133529D01*
X112128095Y-119875826D01*
X111220730Y-118568805D01*
X110374688Y-117217830D01*
X109592730Y-115828269D01*
X108877616Y-114405487D01*
X108232107Y-112954852D01*
X107658964Y-111481729D01*
X107160947Y-109991485D01*
X106899246Y-109090991D01*
X106664811Y-108198485D01*
X106460531Y-107336107D01*
X106283522Y-106487058D01*
X106130902Y-105634539D01*
X105999790Y-104761752D01*
X105887301Y-103851896D01*
X105790554Y-102888174D01*
X105746589Y-102373529D01*
X105727688Y-102075933D01*
X105713013Y-101712218D01*
X105702503Y-101296146D01*
X105696101Y-100841483D01*
X105693746Y-100361994D01*
X105694207Y-100223416D01*
X107451096Y-100223416D01*
X107452058Y-100729732D01*
X107456918Y-101226204D01*
X107465678Y-101700069D01*
X107478339Y-102138562D01*
X107494901Y-102528922D01*
X107515365Y-102858384D01*
X107526799Y-102993529D01*
X107662909Y-104238829D01*
X107831330Y-105425364D01*
X108035367Y-106568926D01*
X108278325Y-107685304D01*
X108563507Y-108790290D01*
X108894220Y-109899675D01*
X109108933Y-110553529D01*
X109645999Y-112019079D01*
X110251127Y-113447373D01*
X110925565Y-114840552D01*
X111670562Y-116200759D01*
X112487365Y-117530134D01*
X113377222Y-118830819D01*
X114341383Y-120104957D01*
X115381095Y-121354688D01*
X115449921Y-121433529D01*
X115643499Y-121648206D01*
X115884905Y-121905727D01*
X116162946Y-122194934D01*
X116466426Y-122504669D01*
X116784151Y-122823774D01*
X117104926Y-123141091D01*
X117417557Y-123445461D01*
X117710849Y-123725726D01*
X117973608Y-123970730D01*
X118194638Y-124169312D01*
X118194804Y-124169457D01*
X118434521Y-124375843D01*
X118698060Y-124597354D01*
X118978215Y-124828388D01*
X119267782Y-125063348D01*
X119559557Y-125296634D01*
X119846336Y-125522647D01*
X120120914Y-125735787D01*
X120376088Y-125930456D01*
X120604653Y-126101053D01*
X120799406Y-126241980D01*
X120953141Y-126347637D01*
X121058655Y-126412426D01*
X121104793Y-126431170D01*
X121161000Y-126413745D01*
X121266489Y-126365327D01*
X121401440Y-126295238D01*
X121445376Y-126271005D01*
X121735969Y-126108481D01*
X122853722Y-124201005D01*
X123103204Y-123775531D01*
X123373491Y-123315066D01*
X123655598Y-122834884D01*
X123940542Y-122350259D01*
X124219340Y-121876465D01*
X124483008Y-121428776D01*
X124722563Y-121022466D01*
X124893139Y-120733529D01*
X125814804Y-119173529D01*
X125814804Y-118793529D01*
X125811766Y-118600852D01*
X125799312Y-118460308D01*
X125772431Y-118344148D01*
X125726111Y-118224628D01*
X125702823Y-118173529D01*
X125534111Y-117898117D01*
X125305011Y-117651526D01*
X125034620Y-117453517D01*
X124974804Y-117420181D01*
X124734804Y-117293529D01*
X123744367Y-117280990D01*
X122753930Y-117268451D01*
X122764367Y-115600990D01*
X122774804Y-113933529D01*
X125784808Y-113933529D01*
X126267603Y-113933270D01*
X126726416Y-113932520D01*
X127155078Y-113931321D01*
X127547419Y-113929714D01*
X127897269Y-113927739D01*
X128198459Y-113925438D01*
X128444818Y-113922851D01*
X128630178Y-113920020D01*
X128748367Y-113916986D01*
X128793218Y-113913789D01*
X128793453Y-113913529D01*
X128759808Y-113889578D01*
X128664507Y-113829930D01*
X128515061Y-113739083D01*
X128318982Y-113621537D01*
X128083781Y-113481790D01*
X127816970Y-113324342D01*
X127526061Y-113153691D01*
X127474471Y-113123529D01*
X126156849Y-112353529D01*
X123675826Y-112353529D01*
X121194804Y-112353529D01*
X121194804Y-107147932D01*
X121194804Y-101942336D01*
X121414922Y-101965055D01*
X121724019Y-102035857D01*
X122015859Y-102177726D01*
X122276597Y-102381800D01*
X122492393Y-102639219D01*
X122509995Y-102666035D01*
X122610298Y-102851759D01*
X122681639Y-103058167D01*
X122727240Y-103300752D01*
X122750321Y-103595009D01*
X122754804Y-103843862D01*
X122754804Y-104357387D01*
X123664804Y-104352094D01*
X124005973Y-104351675D01*
X124279149Y-104356186D01*
X124496282Y-104367664D01*
X124669327Y-104388143D01*
X124810235Y-104419659D01*
X124930961Y-104464249D01*
X125043456Y-104523947D01*
X125159674Y-104600789D01*
X125170627Y-104608546D01*
X125401139Y-104803761D01*
X125581703Y-105033005D01*
X125705730Y-105261621D01*
X125758899Y-105386410D01*
X125791328Y-105499904D01*
X125807836Y-105629491D01*
X125813243Y-105802556D01*
X125813414Y-105873529D01*
X125809073Y-106076558D01*
X125794017Y-106225928D01*
X125764137Y-106347704D01*
X125721958Y-106453529D01*
X125543154Y-106770612D01*
X125321898Y-107022710D01*
X125051286Y-107216504D01*
X124823572Y-107323081D01*
X124750182Y-107349167D01*
X124674527Y-107368826D01*
X124584643Y-107382830D01*
X124468562Y-107391951D01*
X124314318Y-107396962D01*
X124109947Y-107398635D01*
X123843481Y-107397743D01*
X123684804Y-107396588D01*
X122754804Y-107389165D01*
X122754804Y-109111347D01*
X122754804Y-110833529D01*
X125876476Y-110833529D01*
X128998148Y-110833529D01*
X130224263Y-110273741D01*
X130516382Y-110139864D01*
X130785199Y-110015687D01*
X131022057Y-109905286D01*
X131218296Y-109812738D01*
X131365257Y-109742119D01*
X131454281Y-109697503D01*
X131477670Y-109683741D01*
X131501289Y-109645718D01*
X131562288Y-109543704D01*
X131657821Y-109382554D01*
X131785046Y-109167125D01*
X131941118Y-108902271D01*
X132123193Y-108592850D01*
X132328428Y-108243715D01*
X132553979Y-107859724D01*
X132797001Y-107445732D01*
X133054652Y-107006594D01*
X133324087Y-106547167D01*
X133602463Y-106072305D01*
X133886935Y-105586866D01*
X134174660Y-105095704D01*
X134462793Y-104603675D01*
X134748492Y-104115635D01*
X135028913Y-103636439D01*
X135301211Y-103170945D01*
X135562542Y-102724006D01*
X135810063Y-102300479D01*
X136040931Y-101905219D01*
X136252300Y-101543083D01*
X136441328Y-101218926D01*
X136605171Y-100937604D01*
X136740984Y-100703972D01*
X136845924Y-100522886D01*
X136917147Y-100399203D01*
X136951809Y-100337776D01*
X136954804Y-100331752D01*
X136916105Y-100328076D01*
X136805219Y-100324648D01*
X136629956Y-100321544D01*
X136398126Y-100318839D01*
X136117543Y-100316609D01*
X135796017Y-100314931D01*
X135441359Y-100313879D01*
X135074804Y-100313529D01*
X133194804Y-100313529D01*
X133194804Y-96331168D01*
X133194982Y-95656659D01*
X133195552Y-95058238D01*
X133196563Y-94531991D01*
X133198063Y-94074009D01*
X133200103Y-93680378D01*
X133202732Y-93347186D01*
X133205999Y-93070522D01*
X133209955Y-92846474D01*
X133214647Y-92671130D01*
X133220127Y-92540577D01*
X133226442Y-92450905D01*
X133233644Y-92398200D01*
X133241781Y-92378552D01*
X133244804Y-92378726D01*
X133284856Y-92404911D01*
X133386616Y-92472242D01*
X133545228Y-92577487D01*
X133755836Y-92717417D01*
X134013584Y-92888801D01*
X134313615Y-93088407D01*
X134651074Y-93313007D01*
X135021104Y-93559368D01*
X135418850Y-93824260D01*
X135839455Y-94104454D01*
X136226582Y-94362409D01*
X136746653Y-94709708D01*
X137224232Y-95030088D01*
X137656603Y-95321683D01*
X138041053Y-95582624D01*
X138374866Y-95811046D01*
X138655328Y-96005079D01*
X138879722Y-96162858D01*
X139045336Y-96282515D01*
X139149453Y-96362182D01*
X139189359Y-96399993D01*
X139189469Y-96400269D01*
X139214481Y-96382183D01*
X139275621Y-96300309D01*
X139369503Y-96160418D01*
X139492743Y-95968283D01*
X139641955Y-95729675D01*
X139813754Y-95450368D01*
X140004755Y-95136133D01*
X140211574Y-94792742D01*
X140430824Y-94425968D01*
X140659121Y-94041582D01*
X140893080Y-93645358D01*
X141129316Y-93243067D01*
X141364443Y-92840482D01*
X141595077Y-92443374D01*
X141817832Y-92057517D01*
X142029324Y-91688682D01*
X142226167Y-91342641D01*
X142404976Y-91025167D01*
X142562367Y-90742032D01*
X142694953Y-90499008D01*
X142799350Y-90301867D01*
X142872174Y-90156382D01*
X142910038Y-90068325D01*
X142914804Y-90047850D01*
X142914804Y-89912121D01*
X142102721Y-89915226D01*
X141821505Y-89915612D01*
X141606727Y-89913613D01*
X141444836Y-89908154D01*
X141322281Y-89898160D01*
X141225512Y-89882554D01*
X141140977Y-89860261D01*
X141061429Y-89832572D01*
X140747713Y-89674501D01*
X140484283Y-89457032D01*
X140276416Y-89186901D01*
X140129385Y-88870846D01*
X140052135Y-88543529D01*
X140026093Y-88356216D01*
X139930007Y-88353529D01*
X140025720Y-88353529D01*
X140026093Y-88356216D01*
X140026924Y-88356240D01*
X140027297Y-88353529D01*
X142006362Y-88353529D01*
X143987004Y-88353529D01*
X144970904Y-86675334D01*
X145166906Y-86339330D01*
X145349908Y-86022339D01*
X145515979Y-85731405D01*
X145661185Y-85473574D01*
X145781593Y-85255890D01*
X145873271Y-85085399D01*
X145932286Y-84969145D01*
X145954706Y-84914172D01*
X145954804Y-84912816D01*
X145929640Y-84795109D01*
X145862344Y-84640559D01*
X145765209Y-84470956D01*
X145650527Y-84308092D01*
X145546834Y-84189628D01*
X145281417Y-83975907D01*
X144988953Y-83831033D01*
X144679910Y-83753191D01*
X144364751Y-83740567D01*
X144053942Y-83791346D01*
X143757949Y-83903713D01*
X143487237Y-84075856D01*
X143252271Y-84305959D01*
X143063517Y-84592208D01*
X143048094Y-84622817D01*
X142934804Y-84853529D01*
X142922291Y-85840709D01*
X142909778Y-86827890D01*
X142062291Y-86840709D01*
X141214804Y-86853529D01*
X140946775Y-86980504D01*
X140659520Y-87156807D01*
X140415573Y-87387380D01*
X140224954Y-87659007D01*
X140097683Y-87958468D01*
X140054188Y-88158003D01*
X140027297Y-88353529D01*
X140025720Y-88353529D01*
X139930007Y-88353529D01*
X139620864Y-88344884D01*
X139214804Y-88333529D01*
X139204673Y-82337206D01*
X139194542Y-76340884D01*
X139991420Y-76367510D01*
X141357671Y-76452035D01*
X142715913Y-76613321D01*
X144060822Y-76850113D01*
X145387073Y-77161156D01*
X146689343Y-77545195D01*
X147962308Y-78000972D01*
X149200645Y-78527234D01*
X149254745Y-78552217D01*
X149614687Y-78719008D01*
X149674745Y-78630549D01*
X149715711Y-78564988D01*
X149791372Y-78438738D01*
X149896668Y-78260532D01*
X150026540Y-78039105D01*
X150175930Y-77783191D01*
X150339779Y-77501525D01*
X150513027Y-77202841D01*
X150690616Y-76895873D01*
X150867486Y-76589356D01*
X151038580Y-76292023D01*
X151198837Y-76012610D01*
X151343199Y-75759850D01*
X151466608Y-75542478D01*
X151564003Y-75369228D01*
X151571522Y-75355736D01*
X151807766Y-74940817D01*
X152082636Y-74474531D01*
X152387922Y-73970370D01*
X152715417Y-73441823D01*
X153056909Y-72902382D01*
X153199279Y-72680856D01*
X153325130Y-72485024D01*
X153434449Y-72313222D01*
X153520391Y-72176349D01*
X153576106Y-72085305D01*
X153594804Y-72051190D01*
X153560259Y-72025451D01*
X153463867Y-71971684D01*
X153316488Y-71895231D01*
X153128981Y-71801436D01*
X152912207Y-71695638D01*
X152677026Y-71583180D01*
X152434300Y-71469405D01*
X152194887Y-71359652D01*
X152123047Y-71327285D01*
X150708474Y-70735675D01*
X149255727Y-70211625D01*
X147772781Y-69757344D01*
X146267610Y-69375043D01*
X144748188Y-69066933D01*
X143222488Y-68835225D01*
X143062568Y-68815456D01*
X142670348Y-68768981D01*
X142320542Y-68730123D01*
X142000431Y-68698219D01*
X141697296Y-68672603D01*
X141398419Y-68652612D01*
X141091080Y-68637583D01*
X140762562Y-68626850D01*
X140400145Y-68619751D01*
X139991111Y-68615620D01*
X139522741Y-68613794D01*
X139194804Y-68613529D01*
X138682967Y-68614252D01*
X138238402Y-68616867D01*
X137848391Y-68622036D01*
X137500214Y-68630424D01*
X137181152Y-68642695D01*
X136878488Y-68659512D01*
X136579502Y-68681540D01*
X136271475Y-68709443D01*
X135941689Y-68743884D01*
X135577425Y-68785529D01*
X135327039Y-68815456D01*
X133767587Y-69044091D01*
X132225214Y-69350168D01*
X130702688Y-69732417D01*
X129202778Y-70189572D01*
X127728252Y-70720364D01*
X126281877Y-71323525D01*
X124866423Y-71997786D01*
X123484657Y-72741880D01*
X122139347Y-73554538D01*
X120833263Y-74434492D01*
X119569171Y-75380474D01*
X118349840Y-76391216D01*
X117881781Y-76807445D01*
X117676758Y-76997522D01*
X117430756Y-77232231D01*
X117156139Y-77499217D01*
X116865273Y-77786123D01*
X116570523Y-78080595D01*
X116284253Y-78370275D01*
X116018828Y-78642808D01*
X115786614Y-78885837D01*
X115599974Y-79087008D01*
X115594066Y-79093529D01*
X114632747Y-80211249D01*
X113714350Y-81390795D01*
X112844425Y-82623258D01*
X112028523Y-83899729D01*
X111272194Y-85211300D01*
X110580990Y-86549062D01*
X109960460Y-87904106D01*
X109675159Y-88593529D01*
X109182828Y-89908466D01*
X108753958Y-91228690D01*
X108386147Y-92564372D01*
X108076996Y-93925682D01*
X107824103Y-95322791D01*
X107625068Y-96765869D01*
X107527153Y-97693529D01*
X107504740Y-97990883D01*
X107486220Y-98354972D01*
X107471595Y-98773034D01*
X107460866Y-99232304D01*
X107454032Y-99720019D01*
X107451096Y-100223416D01*
X105694207Y-100223416D01*
X105695379Y-99871443D01*
X105700941Y-99383594D01*
X105710372Y-98912213D01*
X105723613Y-98471064D01*
X105740604Y-98073911D01*
X105761287Y-97734520D01*
X105766914Y-97661701D01*
X105940402Y-95992972D01*
X106187243Y-94356022D01*
X106507678Y-92750159D01*
X106901946Y-91174692D01*
X107370287Y-89628932D01*
X107912939Y-88112185D01*
X108530143Y-86623763D01*
X109222137Y-85162973D01*
X109989161Y-83729125D01*
X110831456Y-82321528D01*
X111370214Y-81493529D01*
X112307624Y-80166791D01*
X113305859Y-78890387D01*
X114362388Y-77666198D01*
X115474678Y-76496104D01*
X116640198Y-75381986D01*
X117856415Y-74325726D01*
X119120799Y-73329204D01*
X120430816Y-72394301D01*
X121783936Y-71522897D01*
X123177626Y-70716875D01*
X124609355Y-69978113D01*
X126076590Y-69308494D01*
X127576800Y-68709899D01*
X129107452Y-68184207D01*
X129414804Y-68088658D01*
X130842345Y-67687802D01*
X132298792Y-67347445D01*
X133765565Y-67071374D01*
X135224082Y-66863375D01*
X135674804Y-66812979D01*
X136644111Y-66728563D01*
X137651212Y-66672312D01*
X138679966Y-66644015D01*
X139714228Y-66643464D01*
X140737858Y-66670448D01*
X141734711Y-66724756D01*
X142688645Y-66806178D01*
X143583518Y-66914504D01*
X143594804Y-66916104D01*
X145124196Y-67162946D01*
X146600246Y-67462257D01*
X148032376Y-67816899D01*
X149430006Y-68229737D01*
X150802557Y-68703630D01*
X152159449Y-69241443D01*
X153510104Y-69846037D01*
X153974804Y-70069881D01*
X154193838Y-70175742D01*
X154387107Y-70266226D01*
X154543721Y-70336476D01*
X154652791Y-70381635D01*
X154703427Y-70396846D01*
X154705598Y-70395833D01*
X154741325Y-70334103D01*
X154821100Y-70214362D01*
X154940669Y-70042366D01*
X155095774Y-69823875D01*
X155282160Y-69564646D01*
X155495570Y-69270438D01*
X155731747Y-68947008D01*
X155986436Y-68600114D01*
X156255381Y-68235515D01*
X156534325Y-67858969D01*
X156819011Y-67476233D01*
X157105184Y-67093066D01*
X157388588Y-66715225D01*
X157664966Y-66348470D01*
X157930062Y-65998557D01*
X158179620Y-65671245D01*
X158409383Y-65372292D01*
X158606991Y-65117823D01*
X158963989Y-64662085D01*
X159308523Y-64224594D01*
X159644918Y-63800114D01*
X159977503Y-63383408D01*
X160310606Y-62969240D01*
X160648552Y-62552375D01*
X160995669Y-62127575D01*
X161356285Y-61689605D01*
X161734726Y-61233228D01*
X162135321Y-60753208D01*
X162562395Y-60244309D01*
X163020277Y-59701295D01*
X163513294Y-59118929D01*
X164045772Y-58491976D01*
X164622040Y-57815198D01*
X165246423Y-57083361D01*
X165254819Y-57073529D01*
X165619225Y-56646685D01*
X166025263Y-56170940D01*
X166462693Y-55658300D01*
X166921277Y-55120767D01*
X167390776Y-54570347D01*
X167860952Y-54019045D01*
X168321564Y-53478864D01*
X168762376Y-52961809D01*
X169173147Y-52479886D01*
X169543639Y-52045097D01*
X169545114Y-52043366D01*
X169737605Y-51816912D01*
X169915299Y-51606881D01*
X170070906Y-51421970D01*
X170197135Y-51270873D01*
X170286693Y-51162286D01*
X170332291Y-51104906D01*
X170334194Y-51102260D01*
X170378687Y-51046001D01*
X170402366Y-51035419D01*
X170404118Y-51074245D01*
G37*
%TD*%
D11*
%TO.C,REF\u002A\u002A*%
X139404804Y-62863529D03*
%TD*%
M02*
