%TF.GenerationSoftware,KiCad,Pcbnew,8.0.3*%
%TF.CreationDate,2024-09-04T20:20:35-04:00*%
%TF.ProjectId,SensorBoardNoMCU,53656e73-6f72-4426-9f61-72644e6f4d43,rev?*%
%TF.SameCoordinates,Original*%
%TF.FileFunction,Soldermask,Top*%
%TF.FilePolarity,Negative*%
%FSLAX46Y46*%
G04 Gerber Fmt 4.6, Leading zero omitted, Abs format (unit mm)*
G04 Created by KiCad (PCBNEW 8.0.3) date 2024-09-04 20:20:35*
%MOMM*%
%LPD*%
G01*
G04 APERTURE LIST*
G04 Aperture macros list*
%AMRoundRect*
0 Rectangle with rounded corners*
0 $1 Rounding radius*
0 $2 $3 $4 $5 $6 $7 $8 $9 X,Y pos of 4 corners*
0 Add a 4 corners polygon primitive as box body*
4,1,4,$2,$3,$4,$5,$6,$7,$8,$9,$2,$3,0*
0 Add four circle primitives for the rounded corners*
1,1,$1+$1,$2,$3*
1,1,$1+$1,$4,$5*
1,1,$1+$1,$6,$7*
1,1,$1+$1,$8,$9*
0 Add four rect primitives between the rounded corners*
20,1,$1+$1,$2,$3,$4,$5,0*
20,1,$1+$1,$4,$5,$6,$7,0*
20,1,$1+$1,$6,$7,$8,$9,0*
20,1,$1+$1,$8,$9,$2,$3,0*%
G04 Aperture macros list end*
%ADD10RoundRect,0.250000X-0.250000X-0.475000X0.250000X-0.475000X0.250000X0.475000X-0.250000X0.475000X0*%
%ADD11RoundRect,0.243750X0.456250X-0.243750X0.456250X0.243750X-0.456250X0.243750X-0.456250X-0.243750X0*%
%ADD12R,0.350000X0.590000*%
%ADD13R,0.590000X0.350000*%
%ADD14RoundRect,0.250000X-0.475000X0.250000X-0.475000X-0.250000X0.475000X-0.250000X0.475000X0.250000X0*%
%ADD15C,3.200000*%
%ADD16RoundRect,0.250000X0.475000X-0.250000X0.475000X0.250000X-0.475000X0.250000X-0.475000X-0.250000X0*%
%ADD17RoundRect,0.218750X-0.381250X0.218750X-0.381250X-0.218750X0.381250X-0.218750X0.381250X0.218750X0*%
%ADD18RoundRect,0.250000X0.450000X-0.262500X0.450000X0.262500X-0.450000X0.262500X-0.450000X-0.262500X0*%
%ADD19RoundRect,0.250000X0.250000X0.475000X-0.250000X0.475000X-0.250000X-0.475000X0.250000X-0.475000X0*%
%ADD20R,0.950000X0.550000*%
%ADD21RoundRect,0.250000X-0.725000X0.600000X-0.725000X-0.600000X0.725000X-0.600000X0.725000X0.600000X0*%
%ADD22O,1.950000X1.700000*%
%ADD23RoundRect,0.200100X-0.949900X0.949900X-0.949900X-0.949900X0.949900X-0.949900X0.949900X0.949900X0*%
%ADD24C,2.500000*%
%ADD25RoundRect,0.175000X0.175000X-0.725000X0.175000X0.725000X-0.175000X0.725000X-0.175000X-0.725000X0*%
%ADD26RoundRect,0.200000X0.200000X-0.700000X0.200000X0.700000X-0.200000X0.700000X-0.200000X-0.700000X0*%
%ADD27RoundRect,0.102000X-0.175000X-0.175000X0.175000X-0.175000X0.175000X0.175000X-0.175000X0.175000X0*%
%ADD28R,0.350000X0.375000*%
%ADD29R,0.375000X0.350000*%
G04 APERTURE END LIST*
D10*
%TO.C,C3*%
X105625000Y-80250000D03*
X107525000Y-80250000D03*
%TD*%
D11*
%TO.C,D1*%
X100000000Y-95337500D03*
X100000000Y-93462500D03*
%TD*%
D12*
%TO.C,U1*%
X105025000Y-75920000D03*
X105525000Y-75920000D03*
X106025000Y-75920000D03*
X106525000Y-75920000D03*
X107025000Y-75920000D03*
X107525000Y-75920000D03*
X108025000Y-75920000D03*
D13*
X108440000Y-77085000D03*
D12*
X108025000Y-78250000D03*
X107525000Y-78250000D03*
X107025000Y-78250000D03*
X106525000Y-78250000D03*
X106025000Y-78250000D03*
X105525000Y-78250000D03*
X105025000Y-78250000D03*
D13*
X104610000Y-77085000D03*
%TD*%
D14*
%TO.C,C10*%
X104275000Y-82600000D03*
X104275000Y-84500000D03*
%TD*%
D15*
%TO.C,H2*%
X91200000Y-46800000D03*
%TD*%
D16*
%TO.C,C9*%
X97800000Y-74150000D03*
X97800000Y-72250000D03*
%TD*%
D17*
%TO.C,L1*%
X94200000Y-53737500D03*
X94200000Y-55862500D03*
%TD*%
D10*
%TO.C,C8*%
X96550000Y-53737500D03*
X98450000Y-53737500D03*
%TD*%
D18*
%TO.C,R2*%
X100000000Y-83000000D03*
X100000000Y-81175000D03*
%TD*%
D15*
%TO.C,H4*%
X108108000Y-100000000D03*
%TD*%
D19*
%TO.C,C6*%
X95800000Y-77525000D03*
X93900000Y-77525000D03*
%TD*%
D18*
%TO.C,R3*%
X100000000Y-87112500D03*
X100000000Y-85287500D03*
%TD*%
D10*
%TO.C,C2*%
X102650000Y-67800000D03*
X104550000Y-67800000D03*
%TD*%
D20*
%TO.C,U4*%
X106275000Y-82750000D03*
X106275000Y-84000000D03*
X106275000Y-85250000D03*
X106275000Y-86500000D03*
X108425000Y-86500000D03*
X108425000Y-85250000D03*
X108425000Y-84000000D03*
X108425000Y-82750000D03*
%TD*%
D14*
%TO.C,C12*%
X104275000Y-87600000D03*
X104275000Y-89500000D03*
%TD*%
D21*
%TO.C,J1*%
X94400000Y-83700000D03*
D22*
X94400000Y-86200000D03*
X94400000Y-88700000D03*
X94400000Y-91200000D03*
%TD*%
D15*
%TO.C,H3*%
X91200000Y-100000000D03*
%TD*%
D19*
%TO.C,C4*%
X106525000Y-73750000D03*
X104625000Y-73750000D03*
%TD*%
D18*
%TO.C,R4*%
X100000000Y-91112500D03*
X100000000Y-89287500D03*
%TD*%
D19*
%TO.C,C5*%
X95800000Y-75275000D03*
X93900000Y-75275000D03*
%TD*%
D23*
%TO.C,J2*%
X107150000Y-56800000D03*
D24*
X109690000Y-54260000D03*
X104610000Y-54260000D03*
X109690000Y-59340000D03*
X104610000Y-59340000D03*
%TD*%
D25*
%TO.C,U3*%
X90700000Y-69200000D03*
D26*
X91800000Y-69200000D03*
X92900000Y-69200000D03*
X94000000Y-69200000D03*
X95100000Y-69200000D03*
X96200000Y-69200000D03*
X97300000Y-69200000D03*
X98400000Y-69200000D03*
D25*
X99500000Y-69200000D03*
X99500000Y-59700000D03*
D26*
X98400000Y-59700000D03*
X97300000Y-59700000D03*
X96200000Y-59700000D03*
X95100000Y-59700000D03*
X94000000Y-59700000D03*
X92900000Y-59700000D03*
X91800000Y-59700000D03*
D25*
X90700000Y-59700000D03*
%TD*%
D14*
%TO.C,C7*%
X91350000Y-75375000D03*
X91350000Y-77275000D03*
%TD*%
D18*
%TO.C,R1*%
X90950000Y-55562500D03*
X90950000Y-53737500D03*
%TD*%
D27*
%TO.C,U5*%
X107775000Y-89525000D03*
X107775000Y-90175000D03*
X107775000Y-90825000D03*
X107775000Y-91475000D03*
X106325000Y-91475000D03*
X106325000Y-90825000D03*
X106325000Y-90175000D03*
X106325000Y-89525000D03*
%TD*%
D15*
%TO.C,H1*%
X108108000Y-46800000D03*
%TD*%
D14*
%TO.C,C11*%
X104275000Y-91500000D03*
X104275000Y-93400000D03*
%TD*%
D28*
%TO.C,U2*%
X98925000Y-75775000D03*
X98425000Y-75775000D03*
X97925000Y-75775000D03*
X97425000Y-75775000D03*
D29*
X97412500Y-76287500D03*
X97412500Y-76787500D03*
D28*
X97425000Y-77300000D03*
X97925000Y-77300000D03*
X98425000Y-77300000D03*
X98925000Y-77300000D03*
D29*
X98937500Y-76787500D03*
X98937500Y-76287500D03*
%TD*%
D10*
%TO.C,C1*%
X102650000Y-64400000D03*
X104550000Y-64400000D03*
%TD*%
M02*
