%TF.GenerationSoftware,KiCad,Pcbnew,7.0.7*%
%TF.CreationDate,2023-10-19T21:28:01-04:00*%
%TF.ProjectId,BNO055,424e4f30-3535-42e6-9b69-6361645f7063,rev?*%
%TF.SameCoordinates,Original*%
%TF.FileFunction,Legend,Top*%
%TF.FilePolarity,Positive*%
%FSLAX46Y46*%
G04 Gerber Fmt 4.6, Leading zero omitted, Abs format (unit mm)*
G04 Created by KiCad (PCBNEW 7.0.7) date 2023-10-19 21:28:01*
%MOMM*%
%LPD*%
G01*
G04 APERTURE LIST*
%ADD10C,0.100000*%
%ADD11C,0.300000*%
%ADD12C,0.250000*%
%ADD13C,0.150000*%
%ADD14C,0.120000*%
G04 APERTURE END LIST*
D10*
X162105847Y-86237068D02*
X162505847Y-85970401D01*
X162105847Y-85970401D02*
X162505847Y-86237068D01*
X162105847Y-85741830D02*
X162105847Y-85665639D01*
X162105847Y-85665639D02*
X162124895Y-85627544D01*
X162124895Y-85627544D02*
X162162990Y-85589449D01*
X162162990Y-85589449D02*
X162239180Y-85570401D01*
X162239180Y-85570401D02*
X162372514Y-85570401D01*
X162372514Y-85570401D02*
X162448704Y-85589449D01*
X162448704Y-85589449D02*
X162486800Y-85627544D01*
X162486800Y-85627544D02*
X162505847Y-85665639D01*
X162505847Y-85665639D02*
X162505847Y-85741830D01*
X162505847Y-85741830D02*
X162486800Y-85779925D01*
X162486800Y-85779925D02*
X162448704Y-85818020D01*
X162448704Y-85818020D02*
X162372514Y-85837068D01*
X162372514Y-85837068D02*
X162239180Y-85837068D01*
X162239180Y-85837068D02*
X162162990Y-85818020D01*
X162162990Y-85818020D02*
X162124895Y-85779925D01*
X162124895Y-85779925D02*
X162105847Y-85741830D01*
X162105847Y-85398972D02*
X162429657Y-85398972D01*
X162429657Y-85398972D02*
X162467752Y-85379925D01*
X162467752Y-85379925D02*
X162486800Y-85360877D01*
X162486800Y-85360877D02*
X162505847Y-85322782D01*
X162505847Y-85322782D02*
X162505847Y-85246591D01*
X162505847Y-85246591D02*
X162486800Y-85208496D01*
X162486800Y-85208496D02*
X162467752Y-85189449D01*
X162467752Y-85189449D02*
X162429657Y-85170401D01*
X162429657Y-85170401D02*
X162105847Y-85170401D01*
X162105847Y-85037067D02*
X162105847Y-84808496D01*
X162505847Y-84922782D02*
X162105847Y-84922782D01*
X144344895Y-85989449D02*
X144325847Y-86027544D01*
X144325847Y-86027544D02*
X144325847Y-86084687D01*
X144325847Y-86084687D02*
X144344895Y-86141830D01*
X144344895Y-86141830D02*
X144382990Y-86179925D01*
X144382990Y-86179925D02*
X144421085Y-86198972D01*
X144421085Y-86198972D02*
X144497276Y-86218020D01*
X144497276Y-86218020D02*
X144554419Y-86218020D01*
X144554419Y-86218020D02*
X144630609Y-86198972D01*
X144630609Y-86198972D02*
X144668704Y-86179925D01*
X144668704Y-86179925D02*
X144706800Y-86141830D01*
X144706800Y-86141830D02*
X144725847Y-86084687D01*
X144725847Y-86084687D02*
X144725847Y-86046591D01*
X144725847Y-86046591D02*
X144706800Y-85989449D01*
X144706800Y-85989449D02*
X144687752Y-85970401D01*
X144687752Y-85970401D02*
X144554419Y-85970401D01*
X144554419Y-85970401D02*
X144554419Y-86046591D01*
X144725847Y-85798972D02*
X144325847Y-85798972D01*
X144325847Y-85798972D02*
X144725847Y-85570401D01*
X144725847Y-85570401D02*
X144325847Y-85570401D01*
X144725847Y-85379924D02*
X144325847Y-85379924D01*
X144325847Y-85379924D02*
X144325847Y-85284686D01*
X144325847Y-85284686D02*
X144344895Y-85227543D01*
X144344895Y-85227543D02*
X144382990Y-85189448D01*
X144382990Y-85189448D02*
X144421085Y-85170401D01*
X144421085Y-85170401D02*
X144497276Y-85151353D01*
X144497276Y-85151353D02*
X144554419Y-85151353D01*
X144554419Y-85151353D02*
X144630609Y-85170401D01*
X144630609Y-85170401D02*
X144668704Y-85189448D01*
X144668704Y-85189448D02*
X144706800Y-85227543D01*
X144706800Y-85227543D02*
X144725847Y-85284686D01*
X144725847Y-85284686D02*
X144725847Y-85379924D01*
X162930550Y-103704895D02*
X162892455Y-103685847D01*
X162892455Y-103685847D02*
X162835312Y-103685847D01*
X162835312Y-103685847D02*
X162778169Y-103704895D01*
X162778169Y-103704895D02*
X162740074Y-103742990D01*
X162740074Y-103742990D02*
X162721027Y-103781085D01*
X162721027Y-103781085D02*
X162701979Y-103857276D01*
X162701979Y-103857276D02*
X162701979Y-103914419D01*
X162701979Y-103914419D02*
X162721027Y-103990609D01*
X162721027Y-103990609D02*
X162740074Y-104028704D01*
X162740074Y-104028704D02*
X162778169Y-104066800D01*
X162778169Y-104066800D02*
X162835312Y-104085847D01*
X162835312Y-104085847D02*
X162873408Y-104085847D01*
X162873408Y-104085847D02*
X162930550Y-104066800D01*
X162930550Y-104066800D02*
X162949598Y-104047752D01*
X162949598Y-104047752D02*
X162949598Y-103914419D01*
X162949598Y-103914419D02*
X162873408Y-103914419D01*
X163121027Y-104085847D02*
X163121027Y-103685847D01*
X163121027Y-103685847D02*
X163349598Y-104085847D01*
X163349598Y-104085847D02*
X163349598Y-103685847D01*
X163540075Y-104085847D02*
X163540075Y-103685847D01*
X163540075Y-103685847D02*
X163635313Y-103685847D01*
X163635313Y-103685847D02*
X163692456Y-103704895D01*
X163692456Y-103704895D02*
X163730551Y-103742990D01*
X163730551Y-103742990D02*
X163749598Y-103781085D01*
X163749598Y-103781085D02*
X163768646Y-103857276D01*
X163768646Y-103857276D02*
X163768646Y-103914419D01*
X163768646Y-103914419D02*
X163749598Y-103990609D01*
X163749598Y-103990609D02*
X163730551Y-104028704D01*
X163730551Y-104028704D02*
X163692456Y-104066800D01*
X163692456Y-104066800D02*
X163635313Y-104085847D01*
X163635313Y-104085847D02*
X163540075Y-104085847D01*
X132506533Y-95681831D02*
X132506533Y-95986593D01*
X132354152Y-95834212D02*
X132658914Y-95834212D01*
X132754152Y-96138973D02*
X132754152Y-96386592D01*
X132754152Y-96386592D02*
X132601771Y-96253259D01*
X132601771Y-96253259D02*
X132601771Y-96310402D01*
X132601771Y-96310402D02*
X132582723Y-96348497D01*
X132582723Y-96348497D02*
X132563676Y-96367545D01*
X132563676Y-96367545D02*
X132525580Y-96386592D01*
X132525580Y-96386592D02*
X132430342Y-96386592D01*
X132430342Y-96386592D02*
X132392247Y-96367545D01*
X132392247Y-96367545D02*
X132373200Y-96348497D01*
X132373200Y-96348497D02*
X132354152Y-96310402D01*
X132354152Y-96310402D02*
X132354152Y-96196116D01*
X132354152Y-96196116D02*
X132373200Y-96158021D01*
X132373200Y-96158021D02*
X132392247Y-96138973D01*
X132392247Y-96558021D02*
X132373200Y-96577068D01*
X132373200Y-96577068D02*
X132354152Y-96558021D01*
X132354152Y-96558021D02*
X132373200Y-96538973D01*
X132373200Y-96538973D02*
X132392247Y-96558021D01*
X132392247Y-96558021D02*
X132354152Y-96558021D01*
X132754152Y-96710401D02*
X132754152Y-96958020D01*
X132754152Y-96958020D02*
X132601771Y-96824687D01*
X132601771Y-96824687D02*
X132601771Y-96881830D01*
X132601771Y-96881830D02*
X132582723Y-96919925D01*
X132582723Y-96919925D02*
X132563676Y-96938973D01*
X132563676Y-96938973D02*
X132525580Y-96958020D01*
X132525580Y-96958020D02*
X132430342Y-96958020D01*
X132430342Y-96958020D02*
X132392247Y-96938973D01*
X132392247Y-96938973D02*
X132373200Y-96919925D01*
X132373200Y-96919925D02*
X132354152Y-96881830D01*
X132354152Y-96881830D02*
X132354152Y-96767544D01*
X132354152Y-96767544D02*
X132373200Y-96729449D01*
X132373200Y-96729449D02*
X132392247Y-96710401D01*
X155062931Y-85905847D02*
X155329598Y-86305847D01*
X155329598Y-85905847D02*
X155062931Y-86305847D01*
X155481979Y-86305847D02*
X155481979Y-85905847D01*
X155672455Y-86305847D02*
X155672455Y-85905847D01*
X155672455Y-85905847D02*
X155901026Y-86305847D01*
X155901026Y-86305847D02*
X155901026Y-85905847D01*
X162721027Y-101393466D02*
X163025789Y-101393466D01*
X162873408Y-101545847D02*
X162873408Y-101241085D01*
X163178169Y-101145847D02*
X163425788Y-101145847D01*
X163425788Y-101145847D02*
X163292455Y-101298228D01*
X163292455Y-101298228D02*
X163349598Y-101298228D01*
X163349598Y-101298228D02*
X163387693Y-101317276D01*
X163387693Y-101317276D02*
X163406741Y-101336323D01*
X163406741Y-101336323D02*
X163425788Y-101374419D01*
X163425788Y-101374419D02*
X163425788Y-101469657D01*
X163425788Y-101469657D02*
X163406741Y-101507752D01*
X163406741Y-101507752D02*
X163387693Y-101526800D01*
X163387693Y-101526800D02*
X163349598Y-101545847D01*
X163349598Y-101545847D02*
X163235312Y-101545847D01*
X163235312Y-101545847D02*
X163197217Y-101526800D01*
X163197217Y-101526800D02*
X163178169Y-101507752D01*
X163597217Y-101507752D02*
X163616264Y-101526800D01*
X163616264Y-101526800D02*
X163597217Y-101545847D01*
X163597217Y-101545847D02*
X163578169Y-101526800D01*
X163578169Y-101526800D02*
X163597217Y-101507752D01*
X163597217Y-101507752D02*
X163597217Y-101545847D01*
X163749597Y-101145847D02*
X163997216Y-101145847D01*
X163997216Y-101145847D02*
X163863883Y-101298228D01*
X163863883Y-101298228D02*
X163921026Y-101298228D01*
X163921026Y-101298228D02*
X163959121Y-101317276D01*
X163959121Y-101317276D02*
X163978169Y-101336323D01*
X163978169Y-101336323D02*
X163997216Y-101374419D01*
X163997216Y-101374419D02*
X163997216Y-101469657D01*
X163997216Y-101469657D02*
X163978169Y-101507752D01*
X163978169Y-101507752D02*
X163959121Y-101526800D01*
X163959121Y-101526800D02*
X163921026Y-101545847D01*
X163921026Y-101545847D02*
X163806740Y-101545847D01*
X163806740Y-101545847D02*
X163768645Y-101526800D01*
X163768645Y-101526800D02*
X163749597Y-101507752D01*
D11*
X133312019Y-92639774D02*
X133407257Y-92354060D01*
X133407257Y-92354060D02*
X133502495Y-92258822D01*
X133502495Y-92258822D02*
X133692971Y-92163584D01*
X133692971Y-92163584D02*
X133978685Y-92163584D01*
X133978685Y-92163584D02*
X134169161Y-92258822D01*
X134169161Y-92258822D02*
X134264400Y-92354060D01*
X134264400Y-92354060D02*
X134359638Y-92544536D01*
X134359638Y-92544536D02*
X134359638Y-93306441D01*
X134359638Y-93306441D02*
X132359638Y-93306441D01*
X132359638Y-93306441D02*
X132359638Y-92639774D01*
X132359638Y-92639774D02*
X132454876Y-92449298D01*
X132454876Y-92449298D02*
X132550114Y-92354060D01*
X132550114Y-92354060D02*
X132740590Y-92258822D01*
X132740590Y-92258822D02*
X132931066Y-92258822D01*
X132931066Y-92258822D02*
X133121542Y-92354060D01*
X133121542Y-92354060D02*
X133216780Y-92449298D01*
X133216780Y-92449298D02*
X133312019Y-92639774D01*
X133312019Y-92639774D02*
X133312019Y-93306441D01*
X134359638Y-91306441D02*
X132359638Y-91306441D01*
X132359638Y-91306441D02*
X134359638Y-90163584D01*
X134359638Y-90163584D02*
X132359638Y-90163584D01*
X132359638Y-88830251D02*
X132359638Y-88449298D01*
X132359638Y-88449298D02*
X132454876Y-88258822D01*
X132454876Y-88258822D02*
X132645352Y-88068346D01*
X132645352Y-88068346D02*
X133026304Y-87973108D01*
X133026304Y-87973108D02*
X133692971Y-87973108D01*
X133692971Y-87973108D02*
X134073923Y-88068346D01*
X134073923Y-88068346D02*
X134264400Y-88258822D01*
X134264400Y-88258822D02*
X134359638Y-88449298D01*
X134359638Y-88449298D02*
X134359638Y-88830251D01*
X134359638Y-88830251D02*
X134264400Y-89020727D01*
X134264400Y-89020727D02*
X134073923Y-89211203D01*
X134073923Y-89211203D02*
X133692971Y-89306441D01*
X133692971Y-89306441D02*
X133026304Y-89306441D01*
X133026304Y-89306441D02*
X132645352Y-89211203D01*
X132645352Y-89211203D02*
X132454876Y-89020727D01*
X132454876Y-89020727D02*
X132359638Y-88830251D01*
X132359638Y-86735013D02*
X132359638Y-86544536D01*
X132359638Y-86544536D02*
X132454876Y-86354060D01*
X132454876Y-86354060D02*
X132550114Y-86258822D01*
X132550114Y-86258822D02*
X132740590Y-86163584D01*
X132740590Y-86163584D02*
X133121542Y-86068346D01*
X133121542Y-86068346D02*
X133597733Y-86068346D01*
X133597733Y-86068346D02*
X133978685Y-86163584D01*
X133978685Y-86163584D02*
X134169161Y-86258822D01*
X134169161Y-86258822D02*
X134264400Y-86354060D01*
X134264400Y-86354060D02*
X134359638Y-86544536D01*
X134359638Y-86544536D02*
X134359638Y-86735013D01*
X134359638Y-86735013D02*
X134264400Y-86925489D01*
X134264400Y-86925489D02*
X134169161Y-87020727D01*
X134169161Y-87020727D02*
X133978685Y-87115965D01*
X133978685Y-87115965D02*
X133597733Y-87211203D01*
X133597733Y-87211203D02*
X133121542Y-87211203D01*
X133121542Y-87211203D02*
X132740590Y-87115965D01*
X132740590Y-87115965D02*
X132550114Y-87020727D01*
X132550114Y-87020727D02*
X132454876Y-86925489D01*
X132454876Y-86925489D02*
X132359638Y-86735013D01*
X132359638Y-84258822D02*
X132359638Y-85211203D01*
X132359638Y-85211203D02*
X133312019Y-85306441D01*
X133312019Y-85306441D02*
X133216780Y-85211203D01*
X133216780Y-85211203D02*
X133121542Y-85020727D01*
X133121542Y-85020727D02*
X133121542Y-84544536D01*
X133121542Y-84544536D02*
X133216780Y-84354060D01*
X133216780Y-84354060D02*
X133312019Y-84258822D01*
X133312019Y-84258822D02*
X133502495Y-84163584D01*
X133502495Y-84163584D02*
X133978685Y-84163584D01*
X133978685Y-84163584D02*
X134169161Y-84258822D01*
X134169161Y-84258822D02*
X134264400Y-84354060D01*
X134264400Y-84354060D02*
X134359638Y-84544536D01*
X134359638Y-84544536D02*
X134359638Y-85020727D01*
X134359638Y-85020727D02*
X134264400Y-85211203D01*
X134264400Y-85211203D02*
X134169161Y-85306441D01*
X132359638Y-82354060D02*
X132359638Y-83306441D01*
X132359638Y-83306441D02*
X133312019Y-83401679D01*
X133312019Y-83401679D02*
X133216780Y-83306441D01*
X133216780Y-83306441D02*
X133121542Y-83115965D01*
X133121542Y-83115965D02*
X133121542Y-82639774D01*
X133121542Y-82639774D02*
X133216780Y-82449298D01*
X133216780Y-82449298D02*
X133312019Y-82354060D01*
X133312019Y-82354060D02*
X133502495Y-82258822D01*
X133502495Y-82258822D02*
X133978685Y-82258822D01*
X133978685Y-82258822D02*
X134169161Y-82354060D01*
X134169161Y-82354060D02*
X134264400Y-82449298D01*
X134264400Y-82449298D02*
X134359638Y-82639774D01*
X134359638Y-82639774D02*
X134359638Y-83115965D01*
X134359638Y-83115965D02*
X134264400Y-83306441D01*
X134264400Y-83306441D02*
X134169161Y-83401679D01*
D10*
X150295104Y-105699924D02*
X150314152Y-105661829D01*
X150314152Y-105661829D02*
X150314152Y-105604686D01*
X150314152Y-105604686D02*
X150295104Y-105547543D01*
X150295104Y-105547543D02*
X150257009Y-105509448D01*
X150257009Y-105509448D02*
X150218914Y-105490401D01*
X150218914Y-105490401D02*
X150142723Y-105471353D01*
X150142723Y-105471353D02*
X150085580Y-105471353D01*
X150085580Y-105471353D02*
X150009390Y-105490401D01*
X150009390Y-105490401D02*
X149971295Y-105509448D01*
X149971295Y-105509448D02*
X149933200Y-105547543D01*
X149933200Y-105547543D02*
X149914152Y-105604686D01*
X149914152Y-105604686D02*
X149914152Y-105642782D01*
X149914152Y-105642782D02*
X149933200Y-105699924D01*
X149933200Y-105699924D02*
X149952247Y-105718972D01*
X149952247Y-105718972D02*
X150085580Y-105718972D01*
X150085580Y-105718972D02*
X150085580Y-105642782D01*
X149914152Y-105890401D02*
X150314152Y-105890401D01*
X150314152Y-105890401D02*
X149914152Y-106118972D01*
X149914152Y-106118972D02*
X150314152Y-106118972D01*
X149914152Y-106309449D02*
X150314152Y-106309449D01*
X150314152Y-106309449D02*
X150314152Y-106404687D01*
X150314152Y-106404687D02*
X150295104Y-106461830D01*
X150295104Y-106461830D02*
X150257009Y-106499925D01*
X150257009Y-106499925D02*
X150218914Y-106518972D01*
X150218914Y-106518972D02*
X150142723Y-106538020D01*
X150142723Y-106538020D02*
X150085580Y-106538020D01*
X150085580Y-106538020D02*
X150009390Y-106518972D01*
X150009390Y-106518972D02*
X149971295Y-106499925D01*
X149971295Y-106499925D02*
X149933200Y-106461830D01*
X149933200Y-106461830D02*
X149914152Y-106404687D01*
X149914152Y-106404687D02*
X149914152Y-106309449D01*
X162701979Y-98986800D02*
X162759122Y-99005847D01*
X162759122Y-99005847D02*
X162854360Y-99005847D01*
X162854360Y-99005847D02*
X162892455Y-98986800D01*
X162892455Y-98986800D02*
X162911503Y-98967752D01*
X162911503Y-98967752D02*
X162930550Y-98929657D01*
X162930550Y-98929657D02*
X162930550Y-98891561D01*
X162930550Y-98891561D02*
X162911503Y-98853466D01*
X162911503Y-98853466D02*
X162892455Y-98834419D01*
X162892455Y-98834419D02*
X162854360Y-98815371D01*
X162854360Y-98815371D02*
X162778169Y-98796323D01*
X162778169Y-98796323D02*
X162740074Y-98777276D01*
X162740074Y-98777276D02*
X162721027Y-98758228D01*
X162721027Y-98758228D02*
X162701979Y-98720133D01*
X162701979Y-98720133D02*
X162701979Y-98682038D01*
X162701979Y-98682038D02*
X162721027Y-98643942D01*
X162721027Y-98643942D02*
X162740074Y-98624895D01*
X162740074Y-98624895D02*
X162778169Y-98605847D01*
X162778169Y-98605847D02*
X162873408Y-98605847D01*
X162873408Y-98605847D02*
X162930550Y-98624895D01*
X163330550Y-98967752D02*
X163311502Y-98986800D01*
X163311502Y-98986800D02*
X163254360Y-99005847D01*
X163254360Y-99005847D02*
X163216264Y-99005847D01*
X163216264Y-99005847D02*
X163159121Y-98986800D01*
X163159121Y-98986800D02*
X163121026Y-98948704D01*
X163121026Y-98948704D02*
X163101979Y-98910609D01*
X163101979Y-98910609D02*
X163082931Y-98834419D01*
X163082931Y-98834419D02*
X163082931Y-98777276D01*
X163082931Y-98777276D02*
X163101979Y-98701085D01*
X163101979Y-98701085D02*
X163121026Y-98662990D01*
X163121026Y-98662990D02*
X163159121Y-98624895D01*
X163159121Y-98624895D02*
X163216264Y-98605847D01*
X163216264Y-98605847D02*
X163254360Y-98605847D01*
X163254360Y-98605847D02*
X163311502Y-98624895D01*
X163311502Y-98624895D02*
X163330550Y-98643942D01*
X163692455Y-99005847D02*
X163501979Y-99005847D01*
X163501979Y-99005847D02*
X163501979Y-98605847D01*
X138719924Y-85924895D02*
X138681829Y-85905847D01*
X138681829Y-85905847D02*
X138624686Y-85905847D01*
X138624686Y-85905847D02*
X138567543Y-85924895D01*
X138567543Y-85924895D02*
X138529448Y-85962990D01*
X138529448Y-85962990D02*
X138510401Y-86001085D01*
X138510401Y-86001085D02*
X138491353Y-86077276D01*
X138491353Y-86077276D02*
X138491353Y-86134419D01*
X138491353Y-86134419D02*
X138510401Y-86210609D01*
X138510401Y-86210609D02*
X138529448Y-86248704D01*
X138529448Y-86248704D02*
X138567543Y-86286800D01*
X138567543Y-86286800D02*
X138624686Y-86305847D01*
X138624686Y-86305847D02*
X138662782Y-86305847D01*
X138662782Y-86305847D02*
X138719924Y-86286800D01*
X138719924Y-86286800D02*
X138738972Y-86267752D01*
X138738972Y-86267752D02*
X138738972Y-86134419D01*
X138738972Y-86134419D02*
X138662782Y-86134419D01*
X138910401Y-86305847D02*
X138910401Y-85905847D01*
X138910401Y-85905847D02*
X139138972Y-86305847D01*
X139138972Y-86305847D02*
X139138972Y-85905847D01*
X139329449Y-86305847D02*
X139329449Y-85905847D01*
X139329449Y-85905847D02*
X139424687Y-85905847D01*
X139424687Y-85905847D02*
X139481830Y-85924895D01*
X139481830Y-85924895D02*
X139519925Y-85962990D01*
X139519925Y-85962990D02*
X139538972Y-86001085D01*
X139538972Y-86001085D02*
X139558020Y-86077276D01*
X139558020Y-86077276D02*
X139558020Y-86134419D01*
X139558020Y-86134419D02*
X139538972Y-86210609D01*
X139538972Y-86210609D02*
X139519925Y-86248704D01*
X139519925Y-86248704D02*
X139481830Y-86286800D01*
X139481830Y-86286800D02*
X139424687Y-86305847D01*
X139424687Y-86305847D02*
X139329449Y-86305847D01*
X137530550Y-106244895D02*
X137492455Y-106225847D01*
X137492455Y-106225847D02*
X137435312Y-106225847D01*
X137435312Y-106225847D02*
X137378169Y-106244895D01*
X137378169Y-106244895D02*
X137340074Y-106282990D01*
X137340074Y-106282990D02*
X137321027Y-106321085D01*
X137321027Y-106321085D02*
X137301979Y-106397276D01*
X137301979Y-106397276D02*
X137301979Y-106454419D01*
X137301979Y-106454419D02*
X137321027Y-106530609D01*
X137321027Y-106530609D02*
X137340074Y-106568704D01*
X137340074Y-106568704D02*
X137378169Y-106606800D01*
X137378169Y-106606800D02*
X137435312Y-106625847D01*
X137435312Y-106625847D02*
X137473408Y-106625847D01*
X137473408Y-106625847D02*
X137530550Y-106606800D01*
X137530550Y-106606800D02*
X137549598Y-106587752D01*
X137549598Y-106587752D02*
X137549598Y-106454419D01*
X137549598Y-106454419D02*
X137473408Y-106454419D01*
X137721027Y-106625847D02*
X137721027Y-106225847D01*
X137721027Y-106225847D02*
X137949598Y-106625847D01*
X137949598Y-106625847D02*
X137949598Y-106225847D01*
X138140075Y-106625847D02*
X138140075Y-106225847D01*
X138140075Y-106225847D02*
X138235313Y-106225847D01*
X138235313Y-106225847D02*
X138292456Y-106244895D01*
X138292456Y-106244895D02*
X138330551Y-106282990D01*
X138330551Y-106282990D02*
X138349598Y-106321085D01*
X138349598Y-106321085D02*
X138368646Y-106397276D01*
X138368646Y-106397276D02*
X138368646Y-106454419D01*
X138368646Y-106454419D02*
X138349598Y-106530609D01*
X138349598Y-106530609D02*
X138330551Y-106568704D01*
X138330551Y-106568704D02*
X138292456Y-106606800D01*
X138292456Y-106606800D02*
X138235313Y-106625847D01*
X138235313Y-106625847D02*
X138140075Y-106625847D01*
X162701979Y-96446800D02*
X162759122Y-96465847D01*
X162759122Y-96465847D02*
X162854360Y-96465847D01*
X162854360Y-96465847D02*
X162892455Y-96446800D01*
X162892455Y-96446800D02*
X162911503Y-96427752D01*
X162911503Y-96427752D02*
X162930550Y-96389657D01*
X162930550Y-96389657D02*
X162930550Y-96351561D01*
X162930550Y-96351561D02*
X162911503Y-96313466D01*
X162911503Y-96313466D02*
X162892455Y-96294419D01*
X162892455Y-96294419D02*
X162854360Y-96275371D01*
X162854360Y-96275371D02*
X162778169Y-96256323D01*
X162778169Y-96256323D02*
X162740074Y-96237276D01*
X162740074Y-96237276D02*
X162721027Y-96218228D01*
X162721027Y-96218228D02*
X162701979Y-96180133D01*
X162701979Y-96180133D02*
X162701979Y-96142038D01*
X162701979Y-96142038D02*
X162721027Y-96103942D01*
X162721027Y-96103942D02*
X162740074Y-96084895D01*
X162740074Y-96084895D02*
X162778169Y-96065847D01*
X162778169Y-96065847D02*
X162873408Y-96065847D01*
X162873408Y-96065847D02*
X162930550Y-96084895D01*
X163101979Y-96465847D02*
X163101979Y-96065847D01*
X163101979Y-96065847D02*
X163197217Y-96065847D01*
X163197217Y-96065847D02*
X163254360Y-96084895D01*
X163254360Y-96084895D02*
X163292455Y-96122990D01*
X163292455Y-96122990D02*
X163311502Y-96161085D01*
X163311502Y-96161085D02*
X163330550Y-96237276D01*
X163330550Y-96237276D02*
X163330550Y-96294419D01*
X163330550Y-96294419D02*
X163311502Y-96370609D01*
X163311502Y-96370609D02*
X163292455Y-96408704D01*
X163292455Y-96408704D02*
X163254360Y-96446800D01*
X163254360Y-96446800D02*
X163197217Y-96465847D01*
X163197217Y-96465847D02*
X163101979Y-96465847D01*
X163482931Y-96351561D02*
X163673407Y-96351561D01*
X163444836Y-96465847D02*
X163578169Y-96065847D01*
X163578169Y-96065847D02*
X163711502Y-96465847D01*
X144344895Y-106309449D02*
X144325847Y-106347544D01*
X144325847Y-106347544D02*
X144325847Y-106404687D01*
X144325847Y-106404687D02*
X144344895Y-106461830D01*
X144344895Y-106461830D02*
X144382990Y-106499925D01*
X144382990Y-106499925D02*
X144421085Y-106518972D01*
X144421085Y-106518972D02*
X144497276Y-106538020D01*
X144497276Y-106538020D02*
X144554419Y-106538020D01*
X144554419Y-106538020D02*
X144630609Y-106518972D01*
X144630609Y-106518972D02*
X144668704Y-106499925D01*
X144668704Y-106499925D02*
X144706800Y-106461830D01*
X144706800Y-106461830D02*
X144725847Y-106404687D01*
X144725847Y-106404687D02*
X144725847Y-106366591D01*
X144725847Y-106366591D02*
X144706800Y-106309449D01*
X144706800Y-106309449D02*
X144687752Y-106290401D01*
X144687752Y-106290401D02*
X144554419Y-106290401D01*
X144554419Y-106290401D02*
X144554419Y-106366591D01*
X144725847Y-106118972D02*
X144325847Y-106118972D01*
X144325847Y-106118972D02*
X144725847Y-105890401D01*
X144725847Y-105890401D02*
X144325847Y-105890401D01*
X144725847Y-105699924D02*
X144325847Y-105699924D01*
X144325847Y-105699924D02*
X144325847Y-105604686D01*
X144325847Y-105604686D02*
X144344895Y-105547543D01*
X144344895Y-105547543D02*
X144382990Y-105509448D01*
X144382990Y-105509448D02*
X144421085Y-105490401D01*
X144421085Y-105490401D02*
X144497276Y-105471353D01*
X144497276Y-105471353D02*
X144554419Y-105471353D01*
X144554419Y-105471353D02*
X144630609Y-105490401D01*
X144630609Y-105490401D02*
X144668704Y-105509448D01*
X144668704Y-105509448D02*
X144706800Y-105547543D01*
X144706800Y-105547543D02*
X144725847Y-105604686D01*
X144725847Y-105604686D02*
X144725847Y-105699924D01*
X145215104Y-105699924D02*
X145234152Y-105661829D01*
X145234152Y-105661829D02*
X145234152Y-105604686D01*
X145234152Y-105604686D02*
X145215104Y-105547543D01*
X145215104Y-105547543D02*
X145177009Y-105509448D01*
X145177009Y-105509448D02*
X145138914Y-105490401D01*
X145138914Y-105490401D02*
X145062723Y-105471353D01*
X145062723Y-105471353D02*
X145005580Y-105471353D01*
X145005580Y-105471353D02*
X144929390Y-105490401D01*
X144929390Y-105490401D02*
X144891295Y-105509448D01*
X144891295Y-105509448D02*
X144853200Y-105547543D01*
X144853200Y-105547543D02*
X144834152Y-105604686D01*
X144834152Y-105604686D02*
X144834152Y-105642782D01*
X144834152Y-105642782D02*
X144853200Y-105699924D01*
X144853200Y-105699924D02*
X144872247Y-105718972D01*
X144872247Y-105718972D02*
X145005580Y-105718972D01*
X145005580Y-105718972D02*
X145005580Y-105642782D01*
X144834152Y-105890401D02*
X145234152Y-105890401D01*
X145234152Y-105890401D02*
X144834152Y-106118972D01*
X144834152Y-106118972D02*
X145234152Y-106118972D01*
X144834152Y-106309449D02*
X145234152Y-106309449D01*
X145234152Y-106309449D02*
X145234152Y-106404687D01*
X145234152Y-106404687D02*
X145215104Y-106461830D01*
X145215104Y-106461830D02*
X145177009Y-106499925D01*
X145177009Y-106499925D02*
X145138914Y-106518972D01*
X145138914Y-106518972D02*
X145062723Y-106538020D01*
X145062723Y-106538020D02*
X145005580Y-106538020D01*
X145005580Y-106538020D02*
X144929390Y-106518972D01*
X144929390Y-106518972D02*
X144891295Y-106499925D01*
X144891295Y-106499925D02*
X144853200Y-106461830D01*
X144853200Y-106461830D02*
X144834152Y-106404687D01*
X144834152Y-106404687D02*
X144834152Y-106309449D01*
D12*
X162424619Y-93577431D02*
X161424619Y-93577431D01*
X161424619Y-93577431D02*
X161424619Y-93339336D01*
X161424619Y-93339336D02*
X161472238Y-93196479D01*
X161472238Y-93196479D02*
X161567476Y-93101241D01*
X161567476Y-93101241D02*
X161662714Y-93053622D01*
X161662714Y-93053622D02*
X161853190Y-93006003D01*
X161853190Y-93006003D02*
X161996047Y-93006003D01*
X161996047Y-93006003D02*
X162186523Y-93053622D01*
X162186523Y-93053622D02*
X162281761Y-93101241D01*
X162281761Y-93101241D02*
X162377000Y-93196479D01*
X162377000Y-93196479D02*
X162424619Y-93339336D01*
X162424619Y-93339336D02*
X162424619Y-93577431D01*
X162424619Y-92148860D02*
X161900809Y-92148860D01*
X161900809Y-92148860D02*
X161805571Y-92196479D01*
X161805571Y-92196479D02*
X161757952Y-92291717D01*
X161757952Y-92291717D02*
X161757952Y-92482193D01*
X161757952Y-92482193D02*
X161805571Y-92577431D01*
X162377000Y-92148860D02*
X162424619Y-92244098D01*
X162424619Y-92244098D02*
X162424619Y-92482193D01*
X162424619Y-92482193D02*
X162377000Y-92577431D01*
X162377000Y-92577431D02*
X162281761Y-92625050D01*
X162281761Y-92625050D02*
X162186523Y-92625050D01*
X162186523Y-92625050D02*
X162091285Y-92577431D01*
X162091285Y-92577431D02*
X162043666Y-92482193D01*
X162043666Y-92482193D02*
X162043666Y-92244098D01*
X162043666Y-92244098D02*
X161996047Y-92148860D01*
X161757952Y-91672669D02*
X162424619Y-91672669D01*
X161853190Y-91672669D02*
X161805571Y-91625050D01*
X161805571Y-91625050D02*
X161757952Y-91529812D01*
X161757952Y-91529812D02*
X161757952Y-91386955D01*
X161757952Y-91386955D02*
X161805571Y-91291717D01*
X161805571Y-91291717D02*
X161900809Y-91244098D01*
X161900809Y-91244098D02*
X162424619Y-91244098D01*
X161757952Y-90767907D02*
X162424619Y-90767907D01*
X161853190Y-90767907D02*
X161805571Y-90720288D01*
X161805571Y-90720288D02*
X161757952Y-90625050D01*
X161757952Y-90625050D02*
X161757952Y-90482193D01*
X161757952Y-90482193D02*
X161805571Y-90386955D01*
X161805571Y-90386955D02*
X161900809Y-90339336D01*
X161900809Y-90339336D02*
X162424619Y-90339336D01*
X161757952Y-89958383D02*
X162424619Y-89720288D01*
X161757952Y-89482193D02*
X162424619Y-89720288D01*
X162424619Y-89720288D02*
X162662714Y-89815526D01*
X162662714Y-89815526D02*
X162710333Y-89863145D01*
X162710333Y-89863145D02*
X162757952Y-89958383D01*
X162377000Y-88386954D02*
X162424619Y-88244097D01*
X162424619Y-88244097D02*
X162424619Y-88006002D01*
X162424619Y-88006002D02*
X162377000Y-87910764D01*
X162377000Y-87910764D02*
X162329380Y-87863145D01*
X162329380Y-87863145D02*
X162234142Y-87815526D01*
X162234142Y-87815526D02*
X162138904Y-87815526D01*
X162138904Y-87815526D02*
X162043666Y-87863145D01*
X162043666Y-87863145D02*
X161996047Y-87910764D01*
X161996047Y-87910764D02*
X161948428Y-88006002D01*
X161948428Y-88006002D02*
X161900809Y-88196478D01*
X161900809Y-88196478D02*
X161853190Y-88291716D01*
X161853190Y-88291716D02*
X161805571Y-88339335D01*
X161805571Y-88339335D02*
X161710333Y-88386954D01*
X161710333Y-88386954D02*
X161615095Y-88386954D01*
X161615095Y-88386954D02*
X161519857Y-88339335D01*
X161519857Y-88339335D02*
X161472238Y-88291716D01*
X161472238Y-88291716D02*
X161424619Y-88196478D01*
X161424619Y-88196478D02*
X161424619Y-87958383D01*
X161424619Y-87958383D02*
X161472238Y-87815526D01*
X162329380Y-87386954D02*
X162377000Y-87339335D01*
X162377000Y-87339335D02*
X162424619Y-87386954D01*
X162424619Y-87386954D02*
X162377000Y-87434573D01*
X162377000Y-87434573D02*
X162329380Y-87386954D01*
X162329380Y-87386954D02*
X162424619Y-87386954D01*
D10*
X146884895Y-85989449D02*
X146865847Y-86027544D01*
X146865847Y-86027544D02*
X146865847Y-86084687D01*
X146865847Y-86084687D02*
X146884895Y-86141830D01*
X146884895Y-86141830D02*
X146922990Y-86179925D01*
X146922990Y-86179925D02*
X146961085Y-86198972D01*
X146961085Y-86198972D02*
X147037276Y-86218020D01*
X147037276Y-86218020D02*
X147094419Y-86218020D01*
X147094419Y-86218020D02*
X147170609Y-86198972D01*
X147170609Y-86198972D02*
X147208704Y-86179925D01*
X147208704Y-86179925D02*
X147246800Y-86141830D01*
X147246800Y-86141830D02*
X147265847Y-86084687D01*
X147265847Y-86084687D02*
X147265847Y-86046591D01*
X147265847Y-86046591D02*
X147246800Y-85989449D01*
X147246800Y-85989449D02*
X147227752Y-85970401D01*
X147227752Y-85970401D02*
X147094419Y-85970401D01*
X147094419Y-85970401D02*
X147094419Y-86046591D01*
X147265847Y-85798972D02*
X146865847Y-85798972D01*
X146865847Y-85798972D02*
X147265847Y-85570401D01*
X147265847Y-85570401D02*
X146865847Y-85570401D01*
X147265847Y-85379924D02*
X146865847Y-85379924D01*
X146865847Y-85379924D02*
X146865847Y-85284686D01*
X146865847Y-85284686D02*
X146884895Y-85227543D01*
X146884895Y-85227543D02*
X146922990Y-85189448D01*
X146922990Y-85189448D02*
X146961085Y-85170401D01*
X146961085Y-85170401D02*
X147037276Y-85151353D01*
X147037276Y-85151353D02*
X147094419Y-85151353D01*
X147094419Y-85151353D02*
X147170609Y-85170401D01*
X147170609Y-85170401D02*
X147208704Y-85189448D01*
X147208704Y-85189448D02*
X147246800Y-85227543D01*
X147246800Y-85227543D02*
X147265847Y-85284686D01*
X147265847Y-85284686D02*
X147265847Y-85379924D01*
D13*
X142073333Y-88399580D02*
X142025714Y-88447200D01*
X142025714Y-88447200D02*
X141882857Y-88494819D01*
X141882857Y-88494819D02*
X141787619Y-88494819D01*
X141787619Y-88494819D02*
X141644762Y-88447200D01*
X141644762Y-88447200D02*
X141549524Y-88351961D01*
X141549524Y-88351961D02*
X141501905Y-88256723D01*
X141501905Y-88256723D02*
X141454286Y-88066247D01*
X141454286Y-88066247D02*
X141454286Y-87923390D01*
X141454286Y-87923390D02*
X141501905Y-87732914D01*
X141501905Y-87732914D02*
X141549524Y-87637676D01*
X141549524Y-87637676D02*
X141644762Y-87542438D01*
X141644762Y-87542438D02*
X141787619Y-87494819D01*
X141787619Y-87494819D02*
X141882857Y-87494819D01*
X141882857Y-87494819D02*
X142025714Y-87542438D01*
X142025714Y-87542438D02*
X142073333Y-87590057D01*
X142406667Y-87494819D02*
X143025714Y-87494819D01*
X143025714Y-87494819D02*
X142692381Y-87875771D01*
X142692381Y-87875771D02*
X142835238Y-87875771D01*
X142835238Y-87875771D02*
X142930476Y-87923390D01*
X142930476Y-87923390D02*
X142978095Y-87971009D01*
X142978095Y-87971009D02*
X143025714Y-88066247D01*
X143025714Y-88066247D02*
X143025714Y-88304342D01*
X143025714Y-88304342D02*
X142978095Y-88399580D01*
X142978095Y-88399580D02*
X142930476Y-88447200D01*
X142930476Y-88447200D02*
X142835238Y-88494819D01*
X142835238Y-88494819D02*
X142549524Y-88494819D01*
X142549524Y-88494819D02*
X142454286Y-88447200D01*
X142454286Y-88447200D02*
X142406667Y-88399580D01*
X134453333Y-98624819D02*
X134120000Y-98148628D01*
X133881905Y-98624819D02*
X133881905Y-97624819D01*
X133881905Y-97624819D02*
X134262857Y-97624819D01*
X134262857Y-97624819D02*
X134358095Y-97672438D01*
X134358095Y-97672438D02*
X134405714Y-97720057D01*
X134405714Y-97720057D02*
X134453333Y-97815295D01*
X134453333Y-97815295D02*
X134453333Y-97958152D01*
X134453333Y-97958152D02*
X134405714Y-98053390D01*
X134405714Y-98053390D02*
X134358095Y-98101009D01*
X134358095Y-98101009D02*
X134262857Y-98148628D01*
X134262857Y-98148628D02*
X133881905Y-98148628D01*
X135310476Y-97958152D02*
X135310476Y-98624819D01*
X135072381Y-97577200D02*
X134834286Y-98291485D01*
X134834286Y-98291485D02*
X135453333Y-98291485D01*
X136080833Y-88464819D02*
X135747500Y-87988628D01*
X135509405Y-88464819D02*
X135509405Y-87464819D01*
X135509405Y-87464819D02*
X135890357Y-87464819D01*
X135890357Y-87464819D02*
X135985595Y-87512438D01*
X135985595Y-87512438D02*
X136033214Y-87560057D01*
X136033214Y-87560057D02*
X136080833Y-87655295D01*
X136080833Y-87655295D02*
X136080833Y-87798152D01*
X136080833Y-87798152D02*
X136033214Y-87893390D01*
X136033214Y-87893390D02*
X135985595Y-87941009D01*
X135985595Y-87941009D02*
X135890357Y-87988628D01*
X135890357Y-87988628D02*
X135509405Y-87988628D01*
X136461786Y-87560057D02*
X136509405Y-87512438D01*
X136509405Y-87512438D02*
X136604643Y-87464819D01*
X136604643Y-87464819D02*
X136842738Y-87464819D01*
X136842738Y-87464819D02*
X136937976Y-87512438D01*
X136937976Y-87512438D02*
X136985595Y-87560057D01*
X136985595Y-87560057D02*
X137033214Y-87655295D01*
X137033214Y-87655295D02*
X137033214Y-87750533D01*
X137033214Y-87750533D02*
X136985595Y-87893390D01*
X136985595Y-87893390D02*
X136414167Y-88464819D01*
X136414167Y-88464819D02*
X137033214Y-88464819D01*
X152233333Y-105484819D02*
X151900000Y-105008628D01*
X151661905Y-105484819D02*
X151661905Y-104484819D01*
X151661905Y-104484819D02*
X152042857Y-104484819D01*
X152042857Y-104484819D02*
X152138095Y-104532438D01*
X152138095Y-104532438D02*
X152185714Y-104580057D01*
X152185714Y-104580057D02*
X152233333Y-104675295D01*
X152233333Y-104675295D02*
X152233333Y-104818152D01*
X152233333Y-104818152D02*
X152185714Y-104913390D01*
X152185714Y-104913390D02*
X152138095Y-104961009D01*
X152138095Y-104961009D02*
X152042857Y-105008628D01*
X152042857Y-105008628D02*
X151661905Y-105008628D01*
X152566667Y-104484819D02*
X153185714Y-104484819D01*
X153185714Y-104484819D02*
X152852381Y-104865771D01*
X152852381Y-104865771D02*
X152995238Y-104865771D01*
X152995238Y-104865771D02*
X153090476Y-104913390D01*
X153090476Y-104913390D02*
X153138095Y-104961009D01*
X153138095Y-104961009D02*
X153185714Y-105056247D01*
X153185714Y-105056247D02*
X153185714Y-105294342D01*
X153185714Y-105294342D02*
X153138095Y-105389580D01*
X153138095Y-105389580D02*
X153090476Y-105437200D01*
X153090476Y-105437200D02*
X152995238Y-105484819D01*
X152995238Y-105484819D02*
X152709524Y-105484819D01*
X152709524Y-105484819D02*
X152614286Y-105437200D01*
X152614286Y-105437200D02*
X152566667Y-105389580D01*
X158253809Y-88288628D02*
X158253809Y-88764819D01*
X157920476Y-87764819D02*
X158253809Y-88288628D01*
X158253809Y-88288628D02*
X158587142Y-87764819D01*
X159444285Y-88764819D02*
X158872857Y-88764819D01*
X159158571Y-88764819D02*
X159158571Y-87764819D01*
X159158571Y-87764819D02*
X159063333Y-87907676D01*
X159063333Y-87907676D02*
X158968095Y-88002914D01*
X158968095Y-88002914D02*
X158872857Y-88050533D01*
X135403333Y-108719580D02*
X135355714Y-108767200D01*
X135355714Y-108767200D02*
X135212857Y-108814819D01*
X135212857Y-108814819D02*
X135117619Y-108814819D01*
X135117619Y-108814819D02*
X134974762Y-108767200D01*
X134974762Y-108767200D02*
X134879524Y-108671961D01*
X134879524Y-108671961D02*
X134831905Y-108576723D01*
X134831905Y-108576723D02*
X134784286Y-108386247D01*
X134784286Y-108386247D02*
X134784286Y-108243390D01*
X134784286Y-108243390D02*
X134831905Y-108052914D01*
X134831905Y-108052914D02*
X134879524Y-107957676D01*
X134879524Y-107957676D02*
X134974762Y-107862438D01*
X134974762Y-107862438D02*
X135117619Y-107814819D01*
X135117619Y-107814819D02*
X135212857Y-107814819D01*
X135212857Y-107814819D02*
X135355714Y-107862438D01*
X135355714Y-107862438D02*
X135403333Y-107910057D01*
X136260476Y-108148152D02*
X136260476Y-108814819D01*
X136022381Y-107767200D02*
X135784286Y-108481485D01*
X135784286Y-108481485D02*
X136403333Y-108481485D01*
X147153333Y-108719580D02*
X147105714Y-108767200D01*
X147105714Y-108767200D02*
X146962857Y-108814819D01*
X146962857Y-108814819D02*
X146867619Y-108814819D01*
X146867619Y-108814819D02*
X146724762Y-108767200D01*
X146724762Y-108767200D02*
X146629524Y-108671961D01*
X146629524Y-108671961D02*
X146581905Y-108576723D01*
X146581905Y-108576723D02*
X146534286Y-108386247D01*
X146534286Y-108386247D02*
X146534286Y-108243390D01*
X146534286Y-108243390D02*
X146581905Y-108052914D01*
X146581905Y-108052914D02*
X146629524Y-107957676D01*
X146629524Y-107957676D02*
X146724762Y-107862438D01*
X146724762Y-107862438D02*
X146867619Y-107814819D01*
X146867619Y-107814819D02*
X146962857Y-107814819D01*
X146962857Y-107814819D02*
X147105714Y-107862438D01*
X147105714Y-107862438D02*
X147153333Y-107910057D01*
X147534286Y-107910057D02*
X147581905Y-107862438D01*
X147581905Y-107862438D02*
X147677143Y-107814819D01*
X147677143Y-107814819D02*
X147915238Y-107814819D01*
X147915238Y-107814819D02*
X148010476Y-107862438D01*
X148010476Y-107862438D02*
X148058095Y-107910057D01*
X148058095Y-107910057D02*
X148105714Y-108005295D01*
X148105714Y-108005295D02*
X148105714Y-108100533D01*
X148105714Y-108100533D02*
X148058095Y-108243390D01*
X148058095Y-108243390D02*
X147486667Y-108814819D01*
X147486667Y-108814819D02*
X148105714Y-108814819D01*
X149693333Y-88399580D02*
X149645714Y-88447200D01*
X149645714Y-88447200D02*
X149502857Y-88494819D01*
X149502857Y-88494819D02*
X149407619Y-88494819D01*
X149407619Y-88494819D02*
X149264762Y-88447200D01*
X149264762Y-88447200D02*
X149169524Y-88351961D01*
X149169524Y-88351961D02*
X149121905Y-88256723D01*
X149121905Y-88256723D02*
X149074286Y-88066247D01*
X149074286Y-88066247D02*
X149074286Y-87923390D01*
X149074286Y-87923390D02*
X149121905Y-87732914D01*
X149121905Y-87732914D02*
X149169524Y-87637676D01*
X149169524Y-87637676D02*
X149264762Y-87542438D01*
X149264762Y-87542438D02*
X149407619Y-87494819D01*
X149407619Y-87494819D02*
X149502857Y-87494819D01*
X149502857Y-87494819D02*
X149645714Y-87542438D01*
X149645714Y-87542438D02*
X149693333Y-87590057D01*
X150645714Y-88494819D02*
X150074286Y-88494819D01*
X150360000Y-88494819D02*
X150360000Y-87494819D01*
X150360000Y-87494819D02*
X150264762Y-87637676D01*
X150264762Y-87637676D02*
X150169524Y-87732914D01*
X150169524Y-87732914D02*
X150074286Y-87780533D01*
X144170595Y-93474819D02*
X144170595Y-94284342D01*
X144170595Y-94284342D02*
X144218214Y-94379580D01*
X144218214Y-94379580D02*
X144265833Y-94427200D01*
X144265833Y-94427200D02*
X144361071Y-94474819D01*
X144361071Y-94474819D02*
X144551547Y-94474819D01*
X144551547Y-94474819D02*
X144646785Y-94427200D01*
X144646785Y-94427200D02*
X144694404Y-94379580D01*
X144694404Y-94379580D02*
X144742023Y-94284342D01*
X144742023Y-94284342D02*
X144742023Y-93474819D01*
X145742023Y-94474819D02*
X145170595Y-94474819D01*
X145456309Y-94474819D02*
X145456309Y-93474819D01*
X145456309Y-93474819D02*
X145361071Y-93617676D01*
X145361071Y-93617676D02*
X145265833Y-93712914D01*
X145265833Y-93712914D02*
X145170595Y-93760533D01*
X159686666Y-93644819D02*
X159686666Y-94359104D01*
X159686666Y-94359104D02*
X159639047Y-94501961D01*
X159639047Y-94501961D02*
X159543809Y-94597200D01*
X159543809Y-94597200D02*
X159400952Y-94644819D01*
X159400952Y-94644819D02*
X159305714Y-94644819D01*
X160115238Y-93740057D02*
X160162857Y-93692438D01*
X160162857Y-93692438D02*
X160258095Y-93644819D01*
X160258095Y-93644819D02*
X160496190Y-93644819D01*
X160496190Y-93644819D02*
X160591428Y-93692438D01*
X160591428Y-93692438D02*
X160639047Y-93740057D01*
X160639047Y-93740057D02*
X160686666Y-93835295D01*
X160686666Y-93835295D02*
X160686666Y-93930533D01*
X160686666Y-93930533D02*
X160639047Y-94073390D01*
X160639047Y-94073390D02*
X160067619Y-94644819D01*
X160067619Y-94644819D02*
X160686666Y-94644819D01*
X142073333Y-108784819D02*
X141740000Y-108308628D01*
X141501905Y-108784819D02*
X141501905Y-107784819D01*
X141501905Y-107784819D02*
X141882857Y-107784819D01*
X141882857Y-107784819D02*
X141978095Y-107832438D01*
X141978095Y-107832438D02*
X142025714Y-107880057D01*
X142025714Y-107880057D02*
X142073333Y-107975295D01*
X142073333Y-107975295D02*
X142073333Y-108118152D01*
X142073333Y-108118152D02*
X142025714Y-108213390D01*
X142025714Y-108213390D02*
X141978095Y-108261009D01*
X141978095Y-108261009D02*
X141882857Y-108308628D01*
X141882857Y-108308628D02*
X141501905Y-108308628D01*
X143025714Y-108784819D02*
X142454286Y-108784819D01*
X142740000Y-108784819D02*
X142740000Y-107784819D01*
X142740000Y-107784819D02*
X142644762Y-107927676D01*
X142644762Y-107927676D02*
X142549524Y-108022914D01*
X142549524Y-108022914D02*
X142454286Y-108070533D01*
D14*
%TO.C,C3*%
X142501252Y-87095000D02*
X141978748Y-87095000D01*
X142501252Y-85625000D02*
X141978748Y-85625000D01*
%TO.C,R4*%
X134847064Y-97255000D02*
X134392936Y-97255000D01*
X134847064Y-95785000D02*
X134392936Y-95785000D01*
%TO.C,R2*%
X136474564Y-87095000D02*
X136020436Y-87095000D01*
X136474564Y-85625000D02*
X136020436Y-85625000D01*
%TO.C,R3*%
X152172936Y-105945000D02*
X152627064Y-105945000D01*
X152172936Y-107415000D02*
X152627064Y-107415000D01*
%TO.C,Y1*%
X160680000Y-87260000D02*
X160680000Y-85460000D01*
X159280000Y-87310000D02*
X158180000Y-87310000D01*
X159280000Y-85410000D02*
X158180000Y-85410000D01*
%TO.C,C4*%
X135831252Y-107415000D02*
X135308748Y-107415000D01*
X135831252Y-105945000D02*
X135308748Y-105945000D01*
%TO.C,C2*%
X147581252Y-107415000D02*
X147058748Y-107415000D01*
X147581252Y-105945000D02*
X147058748Y-105945000D01*
%TO.C,C1*%
X150121252Y-87095000D02*
X149598748Y-87095000D01*
X150121252Y-85625000D02*
X149598748Y-85625000D01*
%TO.C,U1*%
X142222500Y-95260000D02*
X142482500Y-95260000D01*
X142222500Y-99280000D02*
X142222500Y-99020000D01*
X142222500Y-99280000D02*
X142482500Y-99280000D01*
X147642500Y-95260000D02*
X147382500Y-95260000D01*
X147642500Y-95260000D02*
X147642500Y-95520000D01*
X147642500Y-99280000D02*
X147382500Y-99280000D01*
X147642500Y-99280000D02*
X147642500Y-99020000D01*
%TO.C,J2*%
X158690000Y-95190000D02*
X160020000Y-95190000D01*
X158690000Y-96520000D02*
X158690000Y-95190000D01*
X158690000Y-97790000D02*
X158690000Y-105470000D01*
X158690000Y-97790000D02*
X161350000Y-97790000D01*
X158690000Y-105470000D02*
X161350000Y-105470000D01*
X161350000Y-97790000D02*
X161350000Y-105470000D01*
%TO.C,R1*%
X142467064Y-107415000D02*
X142012936Y-107415000D01*
X142467064Y-105945000D02*
X142012936Y-105945000D01*
%TD*%
M02*
