M48
; DRILL file {KiCad 8.0.3} date 2024-09-04T20:20:32-0400
; FORMAT={-:-/ absolute / inch / decimal}
; #@! TF.CreationDate,2024-09-04T20:20:32-04:00
; #@! TF.GenerationSoftware,Kicad,Pcbnew,8.0.3
; #@! TF.FileFunction,Plated,1,2,PTH
FMAT,2
INCH
; #@! TA.AperFunction,Plated,PTH,ViaDrill
T1C0.0118
; #@! TA.AperFunction,Plated,PTH,ComponentDrill
T2C0.0374
; #@! TA.AperFunction,Plated,PTH,ComponentDrill
T3C0.0591
; #@! TA.AperFunction,Plated,PTH,ComponentDrill
T4C0.0669
%
G90
G05
T1
X3.5984Y-2.8189
X3.6457Y-3.1102
X3.874Y-2.4173
X3.874Y-3.1339
X3.9094Y-2.9242
X3.937Y-2.1156
X4.0236Y-3.0472
X4.1065Y-3.1189
X4.125Y-2.8445
X4.1447Y-3.3809
X4.1602Y-3.6484
X4.1732Y-2.6142
X4.2431Y-2.9331
X4.2772Y-3.1411
X4.2992Y-3.0709
T2
X3.7165Y-3.2953
X3.7165Y-3.3937
X3.7165Y-3.4921
X3.7165Y-3.5906
T3
X4.2185Y-2.2362
T4
X4.1185Y-2.1362
X4.1185Y-2.3362
X4.3185Y-2.1362
X4.3185Y-2.3362
M30
