M48
; DRILL file {KiCad 8.0.3} date 2024-07-11T15:18:05-0400
; FORMAT={-:-/ absolute / metric / decimal}
; #@! TF.CreationDate,2024-07-11T15:18:05-04:00
; #@! TF.GenerationSoftware,Kicad,Pcbnew,8.0.3
; #@! TF.FileFunction,MixedPlating,1,4
FMAT,2
METRIC
; #@! TA.AperFunction,Plated,PTH,ViaDrill
T1C0.300
; #@! TA.AperFunction,Plated,PTH,ComponentDrill
T2C0.650
; #@! TA.AperFunction,Plated,PTH,ComponentDrill
T3C1.000
; #@! TA.AperFunction,NonPlated,NPTH,ComponentDrill
T4C2.200
%
G90
G05
T1
X73.875Y-78.75
X74.25Y-74.625
X74.5Y-67.75
X80.25Y-78.75
X80.5Y-70.5
X80.5Y-80.75
X80.75Y-53.5
X81.125Y-82.75
X81.75Y-72.75
X82.0Y-65.25
X82.0Y-84.0
X82.5Y-88.75
X82.5Y-90.0
X82.75Y-95.25
X82.812Y-91.438
X83.125Y-75.875
X83.125Y-94.125
X85.25Y-84.5
X85.5Y-87.25
X86.25Y-76.125
X87.0Y-68.75
X88.0Y-58.75
X88.25Y-72.5
X88.25Y-73.75
X88.5Y-61.25
X89.0Y-70.0
X90.25Y-78.0
X90.5Y-89.5
X90.5Y-90.75
X90.75Y-70.0
X91.75Y-71.25
X92.25Y-70.0
X92.5Y-86.125
X92.575Y-74.385
X92.62Y-73.12
X93.0Y-65.0
X93.0Y-81.5
X95.0Y-79.5
X95.75Y-74.125
X96.625Y-73.325
X97.25Y-71.0
X97.75Y-67.5
X99.0Y-74.5
X100.25Y-80.75
X100.25Y-82.75
X100.25Y-85.0
X100.25Y-87.75
X100.25Y-90.25
X100.25Y-92.75
X102.75Y-64.5
X104.0Y-76.5
X108.45Y-59.75
X109.5Y-71.48
X109.75Y-60.75
X111.25Y-60.75
X112.0Y-71.75
X114.5Y-57.25
X115.25Y-50.75
T2
X109.73Y-48.92
X109.73Y-50.19
X109.73Y-51.46
X109.73Y-52.73
X109.73Y-54.0
X111.0Y-48.92
X111.0Y-50.19
X111.0Y-51.46
X111.0Y-52.73
X111.0Y-54.0
T3
X75.585Y-82.545
X75.585Y-85.085
X75.585Y-87.625
X75.585Y-90.165
X75.585Y-92.705
X78.125Y-82.545
X78.125Y-85.085
X78.125Y-87.625
X78.125Y-90.165
X78.125Y-92.705
X94.25Y-49.75
X94.25Y-52.29
X94.25Y-54.83
X94.25Y-57.37
X99.5Y-49.75
X99.5Y-52.29
X99.5Y-54.83
X99.5Y-57.37
X104.75Y-49.72
X104.75Y-52.26
X104.75Y-54.8
X104.75Y-57.34
T4
X74.0Y-49.0
X74.121Y-97.121
X119.0Y-49.0
X119.0Y-97.0
M30
